<svg id="Capa_1" enable-background="new 0 0 512 512" height="512" viewBox="0 0 512 512" width="512" xmlns="http://www.w3.org/2000/svg"><g><path d="m498.48 248.624c-5.638-6.115-12.347-10.497-19.522-13.192-2.375-.892-3.19-3.84-1.685-5.882 22.895-31.062 14.173-76.081-20.265-95.842-6.314-3.624-12.928-6.053-19.61-7.412-1.986-.404-3.336-2.236-3.095-4.248 4.491-37.471-18.808-74.904-58.001-85.22-16.048-4.224-32.012-3.173-46.271 1.927-1.652.591-3.494-.026-4.468-1.485-14.816-22.224-40.083-37.27-69.563-37.27s-54.747 15.046-69.565 37.268c-.974 1.46-2.815 2.076-4.468 1.485-4.293-1.535-8.743-2.696-13.3-3.464l-13.855 15.191-23.743 29.532-3.728 34.339-40.521 25.069-13.049 41.894 3.434 37.086 6.181 8.585-24.887 19.15-7.392 53.992 21.977 30.905 61.124 38.803 28.502 30.219v41.55l15.652 21.866h29.11c5.088 0 9.318 3.652 10.226 8.477l49.404-3.559 7.52 21.29 9.83 9.56c6.009-6.737 9.666-15.618 9.666-25.356 0-5.75 4.662-10.412 10.412-10.412h67.165c15.576 0 28.203-12.627 28.203-28.203v-24.227c0-16.475 8.265-31.851 22.005-40.941l64.271-42.515c28.556-16.227 34.571-54.813 12.306-78.96z" fill="#ffc365"/><g><path d="m275.952 473.577c0-5.797-4.699-10.496-10.496-10.496h-67.706c-15.702 0-28.43-12.728-28.43-28.43v-24.423c0-16.608-8.331-32.108-22.182-41.27l-64.788-42.857c-28.786-16.357-34.849-55.253-12.405-79.595 5.684-6.164 12.446-10.582 19.679-13.298 2.394-.899 3.216-3.87 1.698-5.929-23.079-31.311-14.287-76.693 20.429-96.613 6.365-3.653 13.031-6.102 19.768-7.472 2.002-.407 3.363-2.254 3.119-4.283-3.981-33.211 13.702-66.385 44.883-80.982-13.627-4.372-28.688-5.085-43.824-1.101-39.192 10.316-62.492 47.749-58 85.22.241 2.013-1.109 3.845-3.095 4.248-6.683 1.359-13.296 3.789-19.61 7.412-34.439 19.761-43.16 64.78-20.265 95.842 1.506 2.042.691 4.99-1.685 5.882-7.175 2.694-13.883 7.076-19.522 13.192-22.264 24.147-16.25 62.733 12.306 78.96l64.271 42.515c13.74 9.09 22.005 24.466 22.005 40.941v24.228c0 15.576 12.627 28.203 28.203 28.203h67.166c5.75 0 10.412 4.662 10.412 10.412.001 21.051 17.065 38.117 38.117 38.117 11.679 0 22.126-5.258 29.118-13.53-5.712-6.707-9.166-15.394-9.166-24.893z" fill="#ffb640"/></g><g fill="#ffa90f"><path d="m33.041 235.432c-2.192.823-4.333 1.824-6.421 2.963l113.793 148.581c2.028 2.649 5.09 4.039 8.186 4.039 2.185 0 4.388-.693 6.256-2.124 4.517-3.46 5.374-9.926 1.915-14.443l-134.209-175.238c1.377 10.659 5.366 21.116 12.165 30.341 1.506 2.042.691 4.99-1.685 5.881z"/><path d="m338.11 36.35c-2.744.658-5.44 1.461-8.077 2.404-1.652.591-3.494-.026-4.468-1.485-2.147-3.219-4.519-6.283-7.085-9.177l-43.753 305.462c-.807 5.632 3.105 10.852 8.737 11.659.495.07.987.105 1.474.105 5.042 0 9.449-3.705 10.185-8.842z"/><path d="m193.521 28.092c-2.566 2.894-4.939 5.957-7.085 9.177-.974 1.46-2.815 2.076-4.468 1.485-2.638-.943-5.334-1.746-8.078-2.404l42.988 300.126c.736 5.137 5.142 8.842 10.185 8.842.486 0 .978-.034 1.474-.105 5.632-.807 9.544-6.027 8.737-11.659z"/><path d="m77.791 102.955c-.799 6.274-.863 12.681-.095 19.093.241 2.013-1.109 3.845-3.095 4.248-2.536.516-5.061 1.187-7.563 2.018l108.453 227.981c1.765 3.709 5.458 5.879 9.31 5.878 1.483 0 2.99-.322 4.418-1.001 5.138-2.444 7.321-8.59 4.877-13.728z"/><path d="m478.958 235.432c-2.375-.892-3.19-3.84-1.685-5.882 6.799-9.225 10.788-19.682 12.165-30.341l-134.209 175.241c-3.46 4.517-2.602 10.983 1.915 14.443 1.869 1.431 4.071 2.124 6.256 2.124 3.096 0 6.158-1.391 8.186-4.039l113.793-148.582c-2.088-1.14-4.229-2.14-6.421-2.964z"/><path d="m322.779 361.172c1.429.68 2.935 1.001 4.419 1.001 3.851 0 7.545-2.169 9.31-5.878l108.454-227.981c-2.503-.83-5.028-1.502-7.563-2.018-1.986-.404-3.336-2.236-3.095-4.248.768-6.412.704-12.819-.095-19.093l-116.307 244.488c-2.444 5.138-.26 11.285 4.877 13.729z"/></g></g></svg>