<svg id="Capa_1" enable-background="new 0 0 512 512" viewBox="0 0 512 512" xmlns="http://www.w3.org/2000/svg"><g><g><path d="m463.019 27.295c-21.76-17.098-49.199-27.295-79.019-27.295-70.692 0-128 57.308-128 128 0 30.096 10.387 57.766 27.771 79.621l28.473 25.348 105.915 6.855 84.699-82.133-13.953-101.1z" fill="#7a6d79"/></g><path d="m438.539 120.274h-23.478c-.706-2.834-1.815-5.618-3.349-8.274-1.533-2.656-3.39-5.008-5.491-7.037l11.739-20.332c2.134-3.696.868-8.421-2.828-10.554-3.696-2.135-8.421-.867-10.554 2.828l-11.743 20.34c-5.682-1.632-11.809-1.697-17.674-.007l-11.74-20.333c-2.134-3.696-6.859-4.962-10.554-2.828-3.696 2.133-4.962 6.859-2.828 10.554l11.739 20.333c-4.396 4.235-7.403 9.573-8.831 15.31h-23.487c-4.267 0-7.726 3.459-7.726 7.726s3.459 7.726 7.726 7.726h23.478c.706 2.834 1.815 5.618 3.349 8.274 1.533 2.656 3.39 5.008 5.491 7.037l-11.739 20.332c-2.134 3.696-.868 8.421 2.828 10.554 1.217.703 2.545 1.037 3.856 1.037 2.67 0 5.267-1.386 6.698-3.865l11.743-20.34c5.682 1.632 11.809 1.697 17.674.007l11.739 20.333c1.431 2.479 4.028 3.865 6.698 3.865 1.311 0 2.639-.334 3.856-1.037 3.696-2.133 4.962-6.859 2.828-10.554l-11.739-20.333c4.396-4.235 7.403-9.573 8.831-15.31h23.487c4.267 0 7.726-3.459 7.726-7.726.002-4.267-3.458-7.726-7.725-7.726z" fill="#685e68"/><g><path d="m463.019 27.295c17.616 21.826 28.25 49.5 28.377 79.55.218 51.784-30.315 96.46-74.387 116.816-1.06.49-2.257.582-3.39.302-12.054-2.983-24.655-4.567-37.618-4.567-18.735 0-36.711 3.308-53.378 9.368-14.232-4.779-27.347-11.992-38.851-21.144 23.449 29.481 59.632 48.38 100.228 48.38 70.692 0 128-57.308 128-128 0-40.872-19.157-77.27-48.981-100.705z" fill="#685e68"/></g><g><path d="m164.832 14.566c-3.697-.229-7.373-.384-11.02-.465-48.208-1.066-96.299-5.193-143.824-13.347l-3.952-.678c-3.511-.602-6.562 2.449-5.96 5.96l.678 3.952c8.154 47.525 12.281 95.616 13.347 143.824.808 36.548 8.996 75.998 26.371 110.163l202.168 29.945 114.09-65.837-17.15-105.721-92.823-83.825z" fill="#a2e62e"/></g><path d="m301.463 290.537-62.674-62.675c35.356-41.609 28.793-106.972-16.556-152.32-3.017-3.017-7.909-3.017-10.927 0s-3.018 7.909 0 10.927c39.168 39.168 45.69 94.903 16.511 130.422l-53.711-53.711c8.706-12.214 11.485-28.569 7.815-46.919-4.073-20.367-15.731-40.997-32.824-58.091-3.017-3.017-7.909-3.017-10.927 0s-3.018 7.909 0 10.927c14.96 14.96 25.117 32.786 28.598 50.195 2.573 12.866 1.203 24.191-3.832 32.718l-93.473-93.473c-3.017-3.017-7.909-3.017-10.927 0s-3.018 7.909 0 10.927l126.44 126.44c-29.054 22.3-75.426 14.721-109.253-19.107-3.017-3.017-7.909-3.017-10.927 0s-3.018 7.909 0 10.927c23.924 23.924 53.546 36.287 81.005 36.287 18.512 0 36.041-5.62 50.177-17.105l94.558 94.558c1.509 1.509 3.486 2.263 5.463 2.263s3.955-.755 5.463-2.263c3.019-3.018 3.019-7.91.001-10.927z" fill="#97d729"/><g><path d="m309.851 73.267c-37.566-37.565-93.323-55.493-145.019-58.701 138.21 42.534 189.675 129.234 178.919 204.717-.299 2.098-1.817 3.831-3.879 4.319-37.694 8.935-70.161 31.531-91.861 62.249-1.925 2.726-5.887 3.013-8.082.499-27.262-31.209-67.332-50.955-111.928-50.955-32.697 0-62.96 10.615-87.527 28.579 8.605 16.92 19.463 32.544 32.795 45.876 75.13 75.131 177.66 71.738 242.991 6.408 65.329-65.33 68.721-167.86-6.409-242.991z" fill="#97d729"/></g><g><path d="m502.858 370.363c0-32.307-22.727-76.95-41.544-100.281-23.331-18.817-53.007-30.082-85.314-30.082-75.111 0-136 60.889-136 136 0 32.307 11.265 61.983 30.082 85.314 23.331 18.817 63.345 42.686 95.652 42.686 75.11 0 137.124-58.527 137.124-133.637z" fill="#7a6d79"/></g><path d="m427.096 396.579-20.333-11.739c.805-2.808 1.237-5.773 1.237-8.84 0-3.066-.432-6.032-1.237-8.84l20.333-11.739c3.696-2.133 4.962-6.859 2.828-10.554-2.133-3.696-6.859-4.962-10.554-2.828l-20.34 11.743c-4.105-4.254-9.378-7.374-15.303-8.843v-23.479c0-4.267-3.459-7.726-7.726-7.726s-7.726 3.459-7.726 7.726v23.479c-5.925 1.469-11.198 4.589-15.303 8.843l-20.34-11.743c-3.695-2.135-8.421-.867-10.554 2.828-2.134 3.696-.868 8.421 2.828 10.554l20.333 11.739c-.805 2.808-1.237 5.773-1.237 8.84 0 3.066.432 6.032 1.237 8.84l-20.333 11.739c-3.696 2.133-4.962 6.859-2.828 10.554 1.431 2.479 4.028 3.865 6.698 3.865 1.311 0 2.639-.334 3.856-1.037l20.34-11.743c4.105 4.254 9.378 7.374 15.303 8.843v23.479c0 4.267 3.459 7.726 7.726 7.726s7.726-3.459 7.726-7.726v-23.479c5.925-1.469 11.198-4.589 15.303-8.843l20.34 11.743c1.217.703 2.545 1.037 3.856 1.037 2.67 0 5.267-1.386 6.698-3.865 2.133-3.696.867-8.421-2.828-10.554z" fill="#685e68"/><g><path d="m246.757 370.363c0-30.097-21.748-64.735-39.134-86.59-21.855-17.385-49.526-27.773-79.623-27.773-70.692 0-128 57.308-128 128 0 30.097 10.388 57.768 27.773 79.623 21.855 17.386 58.248 40.377 88.345 40.377 70.693 0 130.639-62.945 130.639-133.637z" fill="#7a6d79"/></g><g><path d="m207.623 283.773c17.386 21.855 27.773 49.526 27.773 79.623 0 70.692-57.308 128-128 128-30.097 0-57.768-10.388-79.623-27.773 23.45 29.479 59.632 48.377 100.227 48.377 70.692 0 128-57.308 128-128 0-40.595-18.898-76.777-48.377-100.227z" fill="#685e68"/></g><g><path d="m461.314 270.082c18.816 23.331 30.082 53.007 30.082 85.314 0 75.111-60.889 136-136 136-32.307 0-61.983-11.265-85.314-30.082 24.93 30.912 63.115 50.686 105.918 50.686 75.111 0 136-60.889 136-136 0-42.803-19.774-80.988-50.686-105.918z" fill="#685e68"/></g><path d="m179.096 404.579-20.333-11.739c.805-2.808 1.237-5.773 1.237-8.84 0-3.066-.432-6.032-1.237-8.84l20.333-11.739c3.696-2.133 4.962-6.859 2.828-10.554-2.133-3.696-6.86-4.962-10.554-2.828l-20.34 11.743c-4.105-4.254-9.378-7.374-15.303-8.843v-23.479c0-4.267-3.459-7.726-7.726-7.726s-7.726 3.459-7.726 7.726v23.479c-5.925 1.469-11.198 4.589-15.303 8.843l-20.34-11.743c-3.696-2.134-8.421-.868-10.554 2.828-2.134 3.696-.868 8.421 2.828 10.554l20.332 11.739c-.806 2.808-1.238 5.774-1.238 8.84s.432 6.032 1.237 8.839l-20.332 11.739c-3.696 2.134-4.962 6.859-2.828 10.554 1.431 2.479 4.028 3.865 6.698 3.865 1.311 0 2.639-.334 3.856-1.037l20.34-11.743c4.105 4.254 9.378 7.374 15.303 8.843v23.479c0 4.267 3.459 7.726 7.726 7.726s7.726-3.459 7.726-7.726v-23.479c5.925-1.469 11.198-4.589 15.303-8.843l20.34 11.743c1.217.703 2.545 1.037 3.856 1.037 2.67 0 5.267-1.386 6.698-3.865 2.134-3.695.868-8.42-2.827-10.553z" fill="#685e68"/><g><g><g><circle cx="384" cy="128" fill="#554e56" r="7.726"/></g></g></g><g><g><g><circle cx="128" cy="384" fill="#554e56" r="7.726"/></g></g></g><g><g><circle cx="376" cy="376" fill="#554e56" r="7.726"/></g></g></g><g/><g/><g/><g/><g/><g/><g/><g/><g/><g/><g/><g/><g/><g/><g/></svg>