<svg id="Acorn" enable-background="new 0 0 64 64" viewBox="0 0 64 64" xmlns="http://www.w3.org/2000/svg"><g><g><path d="m37.31482 60.77195-3.84214 2.75467c-.88034.63117-2.06502.63117-2.94537 0l-3.84214-2.75467c-7.97481-5.71764-13.08027-14.61083-13.9966-24.38065l-.89946-9.58997h40.42178l-.89946 9.58997c-.91634 9.76982-6.02181 18.66301-13.99661 24.38065z" fill="#f9caaa"/><path d="m26.18959 55.06918c-.3174 0-.63479-.12009-.87988-.36029-2.10658-2.07104-3.89208-4.43128-5.30626-7.01701-.33333-.60783-.11029-1.37007.49754-1.7034.60905-.33333 1.37252-.11029 1.7034.49754 1.29777 2.37005 2.93376 4.53422 4.86509 6.43369.49386.48529.50121 1.27939.01471 1.77448-.24511.24999-.56985.37499-.8946.37499z" fill="#f2b583"/></g><g><path d="m31.99952 13.81023c-.69361 0-1.25488-.56126-1.25488-1.25488v-4.61755c0-4.15433 1.8958-7.10647 5.06975-7.89935.67891-.17034 1.35291.24142 1.52203.9142.16666.67278-.24264 1.35414-.9142 1.52203-2.85901.71199-3.16783 4.05751-3.16783 5.46312v4.61755c0 .69362-.56126 1.25488-1.25487 1.25488z" fill="#9e3e28"/><path d="m52.27861 29.20289h-40.55723c-1.30004 0-2.3101-1.15797-2.07809-2.43715.86233-4.75421 4.76558-14.80516 22.3567-14.80516s21.49438 10.05095 22.35672 14.80516c.23201 1.27918-.77804 2.43715-2.0781 2.43715z" fill="#bf5230"/></g><g fill="#9e3e28"><circle cx="19.713" cy="23.274" r="1.255"/><circle cx="27.904" cy="23.274" r="1.255"/><circle cx="36.096" cy="23.274" r="1.255"/><circle cx="44.287" cy="23.274" r="1.255"/><circle cx="23.809" cy="17.89" r="1.255"/><circle cx="32" cy="17.89" r="1.255"/><circle cx="40.191" cy="17.89" r="1.255"/></g></g></svg>