<svg height="512pt" viewBox="-18 0 511 512" width="512pt" xmlns="http://www.w3.org/2000/svg"><path d="m238.417969 206.882812c0-25.3125-15.449219-48.058593-38.976563-57.390624-8.34375-3.308594-13.824218-11.378907-13.824218-20.355469v-27.066407h-132.316407v27.066407c0 8.976562-5.480469 17.046875-13.824219 20.355469-23.527343 9.332031-38.976562 32.078124-38.976562 57.390624v280.566407c0 13.558593 10.992188 24.550781 24.550781 24.550781h188.816407c13.558593 0 24.546874-10.992188 24.546874-24.550781v-280.566407zm0 0" fill="#ffa726"/><path d="m199.441406 149.492188c-8.34375-3.308594-13.824218-11.378907-13.824218-20.355469v-27.066407h-40v7.066407c0 8.976562 5.480468 17.046875 13.824218 20.355469 23.527344 9.332031 38.976563 32.078124 38.976563 57.390624v221.949219c0 45.933594-37.234375 83.167969-83.167969 83.167969h-114.320312c2.132812 11.382812 12.117187 20 24.121093 20h188.816407c13.558593 0 24.550781-10.992188 24.550781-24.550781v-280.566407c0-25.308593-15.449219-48.058593-38.976563-57.390624zm0 0" fill="#fb8c00"/><path d="m344.5 242.128906v69.917969h23.316406v-156.273437c0-6.195313-5.023437-11.21875-11.222656-11.21875h-46.472656c-6.195313 0-11.21875 5.023437-11.21875 11.21875v156.273437h24.359375v-69.917969c0-5.863281 4.753906-10.621094 10.621093-10.621094 5.863282 0 10.617188 4.757813 10.617188 10.621094zm0 0" fill="#ffa726"/><path d="m356.59375 144.554688h-28.777344v88.863281c1.71875-1.199219 3.804688-1.910157 6.0625-1.910157 5.867188 0 10.621094 4.757813 10.621094 10.621094v69.917969h23.316406v-156.273437c0-6.195313-5.023437-11.21875-11.222656-11.21875zm0 0" fill="#fb8c00"/><path d="m.5 216.945312h237.917969v225.496094h-237.917969zm0 0" fill="#fff8b1"/><path d="m198.417969 408.832031c0 11.964844-2.546875 23.328125-7.09375 33.609375h47.09375v-225.496094h-40zm0 0" fill="#ffee58"/><path d="m176.816406 0h-114.714844c-8.988281 0-16.300781 7.3125-16.300781 16.304688v53.28125c0 4.140624 3.355469 7.5 7.5 7.5h132.316407c4.140624 0 7.5-3.359376 7.5-7.5v-53.28125c0-8.992188-7.3125-16.304688-16.300782-16.304688zm0 0" fill="#7e8b96"/><path d="m176.816406 0h-23.699218v15.726562c0 18.976563-15.382813 34.359376-34.359376 34.359376h-72.957031v19.5c0 4.140624 3.355469 7.5 7.5 7.5h132.316407c4.144531 0 7.5-3.359376 7.5-7.5v-53.28125c0-9.003907-7.300782-16.304688-16.300782-16.304688zm0 0" fill="#5f6c75"/><path d="m86.378906 77.085938c-4.140625 0-7.5-3.359376-7.5-7.5v-27.675782c0-4.140625 3.359375-7.5 7.5-7.5s7.5 3.359375 7.5 7.5v27.675782c0 4.140624-3.359375 7.5-7.5 7.5zm40.582032-7.5v-27.675782c0-4.140625-3.359376-7.5-7.5-7.5-4.144532 0-7.5 3.359375-7.5 7.5v27.675782c0 4.140624 3.355468 7.5 7.5 7.5 4.140624 0 7.5-3.359376 7.5-7.5zm33.078124 0v-27.675782c0-4.140625-3.359374-7.5-7.5-7.5-4.144531 0-7.5 3.359375-7.5 7.5v27.675782c0 4.140624 3.355469 7.5 7.5 7.5 4.140626 0 7.5-3.359376 7.5-7.5zm0 0" fill="#5f6c75"/><path d="m86.378906 77.085938c-4.140625 0-7.5-3.359376-7.5-7.5v-19.5h15v19.5c0 4.140624-3.359375 7.5-7.5 7.5zm73.660156-7.5v-27.675782c0-4.140625-3.359374-7.5-7.5-7.5-4.144531 0-7.5 3.359375-7.5 7.5v27.675782c0 4.140624 3.355469 7.5 7.5 7.5 4.140626 0 7.5-3.359376 7.5-7.5zm-33.078124 0v-20.492188c-2.632813.644531-5.375.992188-8.203126.992188h-6.796874v19.5c0 4.140624 3.355468 7.5 7.5 7.5 4.140624 0 7.5-3.359376 7.5-7.5zm0 0" fill="#37474f"/><path d="m139.421875 373.773438c0 9.535156-1.269531 18.613281-3.160156 26.914062.375-.238281.761719-.492188 1.152343-.75 4.414063-6.886719 9.753907-13.847656 16.191407-20.289062 7.457031-7.453126 15.609375-13.4375 23.542969-18.210938 1.398437-2.082031 2.75-4.230469 4.035156-6.457031 19.515625-33.796875 17.179687-71.679688 17.179687-71.679688s-33.972656 16.917969-53.484375 50.71875c-3.148437 5.449219-5.71875 11-7.828125 16.488281 1.445313 7.285157 2.371094 15.109376 2.371094 23.265626zm0 0" fill="#66bb6a"/><path d="m198.363281 283.300781s-9.546875 4.757813-21.429687 14.261719c-1.933594 13.546875-6.25 30.960938-15.75 47.417969-.011719.023437-.027344.046875-.039063.066406-2.265625 3.921875-5.472656 7.203125-9.242187 9.714844-4.332032 2.886719-8.671875 6.144531-12.867188 9.816406.246094 3.011719.382813 6.078125.382813 9.195313 0 9.535156-1.265625 18.613281-3.15625 26.914062.371093-.238281.761719-.492188 1.152343-.75 4.414063-6.890625 9.753907-13.851562 16.191407-20.289062 7.457031-7.457032 15.609375-13.4375 23.542969-18.210938 1.398437-2.082031 2.75-4.230469 4.035156-6.457031 19.515625-33.800781 17.179687-71.679688 17.179687-71.679688zm0 0" fill="#43a047"/><path d="m61.765625 361.4375c7.933594 4.773438 16.089844 10.753906 23.542969 18.210938 6.441406 6.4375 11.78125 13.398437 16.195312 20.289062.390625.253906.777344.507812 1.152344.75-1.894531-8.300781-3.160156-17.378906-3.160156-26.914062 0-8.15625.925781-15.980469 2.371094-23.269532-2.109376-5.484375-4.679688-11.035156-7.828126-16.484375-19.515624-33.800781-53.488281-50.71875-53.488281-50.71875s-2.332031 37.878907 17.183594 71.679688c1.285156 2.226562 2.636719 4.375 4.03125 6.457031zm0 0" fill="#66bb6a"/><path d="m99.496094 373.773438c0-8.15625.925781-15.980469 2.371094-23.269532-2.109376-5.484375-4.679688-11.035156-7.828126-16.484375-19.515624-33.800781-53.488281-50.71875-53.488281-50.71875s-.066406 1.105469-.082031 3.070313c10.84375 8.453125 23.957031 20.996094 33.570312 37.648437.03125.054688.0625.109375.09375.164063 4.984376 8.667968 6.863282 18.738281 5.898438 28.691406-.34375 3.550781-.535156 7.1875-.535156 10.894531 0 3.730469.199218 7.386719.550781 10.957031 1.78125 1.566407 3.542969 3.199219 5.261719 4.921876 6.441406 6.4375 11.78125 13.398437 16.195312 20.289062.390625.253906.777344.507812 1.152344.75-1.894531-8.300781-3.160156-17.378906-3.160156-26.914062zm0 0" fill="#43a047"/><path d="m119.460938 302.105469s11.359374 17.167969 17.351562 41.796875c2.144531-8.816406 3.609375-18.578125 3.609375-28.867188 0-39.027344-20.960937-70.667968-20.960937-70.667968s-20.964844 31.640624-20.964844 70.667968c0 10.289063 1.464844 20.050782 3.609375 28.867188 5.992187-24.628906 17.355469-41.796875 17.355469-41.796875zm0 0" fill="#66bb6a"/><path d="m119.460938 244.367188s-4.925782 7.445312-10 19.550781c4.242187 10.128906 8.585937 23.519531 10.246093 38.570312 1.671875 2.632813 11.628907 18.902344 17.105469 41.414063 2.144531-8.816406 3.609375-18.578125 3.609375-28.867188 0-39.027344-20.960937-70.667968-20.960937-70.667968zm0 0" fill="#43a047"/><g fill="#dce6eb"><path d="m464.875 312.046875h-226.457031v45.007813h226.457031c5.398438 0 9.773438-4.375 9.773438-9.773438v-25.464844c0-5.394531-4.375-9.769531-9.773438-9.769531zm0 0"/><path d="m238.417969 357.054688v122.3125c10.464843 2.804687 21.441406 4.296874 32.734375 4.296874h66.253906c64.082031 0 118.027344-47.9375 125.550781-111.574218l1.777344-15.035156zm0 0"/><path d="m363.625 483.664062h-118.691406c-2.546875 0-4.851563 1.039063-6.515625 2.714844v1.070313c0 4.015625-.96875 7.796875-2.675781 11.140625v3.800781c0 5.074219 4.113281 9.191406 9.191406 9.191406h118.691406c5.078125 0 9.191406-4.113281 9.191406-9.191406v-9.53125c0-5.078125-4.113281-9.195313-9.191406-9.195313zm0 0"/></g><path d="m464.875 312.046875h-30.226562v.050781c0 13.78125-11.175782 24.957032-24.957032 24.957032h-171.273437v20h226.457031c5.398438 0 9.773438-4.375 9.773438-9.773438v-25.464844c0-5.394531-4.375-9.769531-9.773438-9.769531zm0 0" fill="#b9c3cd"/><path d="m422.265625 357.054688c-9.675781 61.144531-62.457031 106.609374-124.859375 106.609374h-58.988281v15.703126c10.464843 2.804687 21.441406 4.296874 32.734375 4.296874h66.253906c64.082031 0 118.027344-47.9375 125.550781-111.574218l1.777344-15.035156zm0 0" fill="#b9c3cd"/><path d="m363.625 483.664062h-30.808594v3.726563c0 5.074219-4.113281 9.191406-9.191406 9.191406h-86.980469c-.273437.683594-.570312 1.355469-.902343 2.007813v3.800781c0 5.074219 4.113281 9.191406 9.191406 9.191406h118.691406c5.078125 0 9.191406-4.113281 9.191406-9.191406v-9.53125c0-5.078125-4.113281-9.195313-9.191406-9.195313zm0 0" fill="#b9c3cd"/><path d="m250.542969 148.996094-3.464844-1.996094c-11.742187-6.78125-25.066406-10.351562-38.628906-10.351562h-21.488281c2.101562 5.757812 6.566406 10.5 12.480468 12.84375 5.660156 2.246093 10.847656 5.277343 15.472656 8.921874 6.777344.59375 13.367188 2.636719 19.289063 6.058594l53.1875 30.707032c3.683594 2.125 7.539063 3.894531 11.507813 5.316406v-44.722656c0-1.25.214843-2.445313.589843-3.570313h-36.984375c-4.199218 0-8.324218-1.105469-11.960937-3.207031zm0 0" fill="#cfd8dc"/><path d="m394.484375 152.203125h-27.257813c.375 1.121094.589844 2.320313.589844 3.570313v35.988281c12.742188-7.882813 23.445313-19.097657 30.71875-32.832031 1.617188-3.050782-.597656-6.726563-4.050781-6.726563zm0 0" fill="#cfd8dc"/><path d="m186.957031 62.085938h-135c-11.023437 0-19.992187 8.96875-19.992187 19.992187s8.96875 19.992187 19.992187 19.992187h135c11.023438 0 19.996094-8.96875 19.996094-19.992187s-8.96875-19.992187-19.996094-19.992187zm0 0" fill="#7e8b96"/><path d="m186.957031 62.085938h-20.007812c-.003907 11.019531-8.96875 19.984374-19.992188 19.984374h-114.992187v.007813c0 11.023437 8.96875 19.992187 19.996094 19.992187h135c11.023437 0 19.992187-8.96875 19.992187-19.992187s-8.96875-19.992187-19.996094-19.992187zm0 0" fill="#5f6c75"/><path d="m154.605469 377.648438c-7.203125 7.203124-13.039063 15.0625-17.734375 22.742187 2.113281-8.75 3.550781-18.425781 3.550781-28.617187 0-39.03125-20.964844-70.671876-20.964844-70.671876s-20.960937 31.640626-20.960937 70.671876c0 10.1875 1.4375 19.867187 3.546875 28.617187-4.691407-7.679687-10.527344-15.539063-17.734375-22.742187-27.597656-27.597657-64.789063-35.148438-64.789063-35.148438s7.550781 37.195312 35.144531 64.792969c26.570313 26.570312 62.035157 34.558593 64.640626 35.113281.101562.023438.203124.023438.304687 0 2.609375-.554688 38.070313-8.546875 64.640625-35.113281 27.597656-27.597657 35.148438-64.792969 35.148438-64.792969s-37.195313 7.550781-64.792969 35.148438zm0 0" fill="#7fcd91"/><path d="m193.433594 351.4375c-5.171875 13.144531-14.230469 30.902344-29.183594 45.855469-10.84375 10.84375-23.160156 18.578125-34.128906 23.992187 5.179687-12.75 10.300781-30.226562 10.300781-49.511718 0-39.03125-20.964844-70.667969-20.964844-70.667969s-3.65625 5.527343-7.914062 14.796875c4.652343 12.34375 8.875 28.359375 8.875 45.871094 0 22.730468-7.105469 42.941406-13.046875 55.867187-1.941406-5.164063-3.8125-10.964844-5.328125-17.25-4.695313-7.679687-10.53125-15.539063-17.734375-22.742187-27.597656-27.597657-64.789063-35.148438-64.789063-35.148438s.550781 2.699219 1.882813 7.15625c12.773437 5.332031 29.046875 14.132812 42.90625 27.992188 7.207031 7.203124 13.042968 15.0625 17.734375 22.742187 3.46875 14.378906 8.777343 26.222656 12.621093 33.640625 13.160157 5.8125 23.308594 8.089844 24.644532 8.378906.101562.019532.199218.019532.300781-.003906 2.609375-.558594 38.074219-8.546875 64.640625-35.113281 27.597656-27.597657 35.148438-64.792969 35.148438-64.792969s-11.253907 2.292969-25.964844 8.9375zm0 0" fill="#52b96a"/></svg>