<svg id="Layer_1" enable-background="new 0 0 512 512" viewBox="0 0 512 512" xmlns="http://www.w3.org/2000/svg"><g><path d="m353.682 465.451v15.64c0 17.072-13.837 30.909-30.909 30.909h-170.907c-17.072 0-30.909-13.837-30.909-30.909v-15.64z" fill="#6e768f"/><path d="m216.25 512h-64.384c-17.072 0-30.909-13.837-30.909-30.909v-15.64h58.49c15.97 8.922 27.427 15.516 27.427 15.516v14.218s0 13.065 9.376 16.815z" fill="#565e75"/><path d="m477.481 177.637-278.952-6.974c-8.628-.216-15.51-7.272-15.51-15.903 0-8.631 6.882-15.687 15.51-15.903l278.952-6.974c8.684-.217 15.841 6.763 15.841 15.45v14.854c0 8.687-7.157 15.667-15.841 15.45z" fill="#6e768f"/><path d="m314.654 138.669c-.01.062-.021.113-.021.165-.876 5.553-3.864 10.767-8.768 14.331-4.904 3.565-7.892 8.778-8.768 14.332-.876 5.543.371 11.426 3.936 16.32 3.575 4.904 4.811 10.787 3.946 16.33-.876 5.553-3.864 10.767-8.768 14.331-5.955 4.327-8.593 11.158-8.16 18.051.845 13.487-15.321 21.08-24.593 11.251-.567-.608-1.113-1.257-1.618-1.958-.392-.536-.804-1.061-1.247-1.545-1.566-1.793-3.359-3.276-5.327-4.43l-3.215-5.491-11.179 1.051-1.02 1.803c-2.421.474-4.791 1.37-6.996 2.699-.567.319-1.123.69-1.669 1.092-2.112 1.535-4.41 2.638-6.779 3.328-3.132.907-6.398 1.092-9.551.598-5.543-.876-10.756-3.853-14.321-8.758-.402-.536-.804-1.061-1.236-1.545-3.771-4.399-8.912-7.264-14.28-8.109-1.824-.289-3.668-.34-5.502-.144-8.057.876-15.053-5.739-13.909-13.765.021-.103.031-.206.051-.299.804-5.11 3.421-9.86 7.933-13.136 4.904-3.565 7.892-8.778 8.768-14.331.876-5.543-.371-11.426-3.936-16.32-3.565-4.904-4.812-10.787-3.936-16.33.876-5.553 3.864-10.767 8.768-14.332.093-.072.185-.144.288-.216 20.132-15.156 45.014-22.492 69.927-19.978 1.782.175 3.555.402 5.337.68l42.644 6.718c8.451 1.329 14.468 9.159 13.201 17.607z" fill="#ff938a"/><path d="m246.623 143.501c1.988 33.32-14.496 29.456-26.067 51.907-8.603 16.681-.752 36.061 3.853 44.921-3.132.907-6.398 1.092-9.551.598-5.543-.876-10.756-3.853-14.321-8.758-.402-.536-.804-1.061-1.236-1.545-3.771-4.399-8.912-7.264-14.28-8.109-1.824-.289-3.668-.34-5.502-.144-8.057.876-15.053-5.739-13.909-13.765.021-.103.031-.206.051-.299.804-5.11 3.421-9.86 7.933-13.136 4.904-3.565 7.892-8.778 8.768-14.331.876-5.543-.371-11.426-3.936-16.32-3.565-4.904-4.812-10.787-3.936-16.33.876-5.553 3.864-10.767 8.768-14.332.093-.072.185-.144.288-.216 20.132-15.156 45.014-22.492 69.927-19.978-4.212 5.893-7.715 15.238-6.85 29.837z" fill="#fb695b"/><path d="m215.911 178.146c-5.34 0-9.119-5.335-7.248-10.405 13.239-35.868-1.525-41.154.4-53.375.664-4.216 4.622-7.09 8.836-6.431 4.156.655 7.014 4.51 6.456 8.658.077.674.729 2.46 1.21 3.777 3.171 8.691 8.48 23.237-2.403 52.723-1.152 3.121-4.107 5.053-7.251 5.053zm8.419-61.379c0 .001-.001.002-.001.003 0-.001.001-.002.001-.003z" fill="#ffaaa1"/><path d="m256.905 186.259c-8.933 24.181-4.997 34.948-2.39 42.077 1.019 2.718 1.821 4.684.752 7.511-4.728-2.8-10.277-3.66-15.413-2.638-3.204-8.737-8.17-23.285 2.555-52.298 1.473-4.008 5.914-6.058 9.922-4.575 4.008 1.474 6.048 5.925 4.574 9.923z" fill="#ffc4bf"/><path d="m417.169 305.156c-4.43 4.132-6.779 9.664-6.985 15.269-.206 5.615 1.731 11.302 5.852 15.743 4.132 4.441 6.068 10.128 5.862 15.743s-2.555 11.148-6.996 15.269c-.093.083-.175.165-.268.247-19.483 18.711-45.436 29.137-72.42 28.148l-43.149-1.587c-8.541-.309-15.444-7.367-15.197-15.908v-.175c.206-5.605 2.555-11.138 6.996-15.269 4.441-4.121 6.79-9.654 6.996-15.269s-1.731-11.302-5.863-15.743c-4.121-4.441-6.058-10.128-5.852-15.743.206-5.605 2.555-11.138 6.996-15.269 5.388-5.007 7.202-12.106 5.945-18.906-2.452-13.281 12.693-22.749 23.068-14.095.639.536 1.257 1.123 1.844 1.751.453.484.927.958 1.422 1.391 1.752 1.586 3.719 2.844 5.801 3.761l3.194 3.338 7.954.268 4.492-2.833c2.349-.762 4.585-1.927 6.625-3.503.515-.392 1.03-.835 1.525-1.288 4.441-4.121 10.128-6.048 15.733-5.842 5.615.206 11.148 2.535 15.279 6.975.453.495.917.968 1.412 1.391 4.265 3.926 9.716 6.151 15.135 6.357 1.844.062 3.689-.103 5.481-.525 7.902-1.834 15.63 3.905 15.444 12.013v.309c-.195 5.163-2.225 10.191-6.326 13.982z" fill="#fb695b"/><path d="m383.754 395.586c-3.385 0-6.676-2.209-7.606-6.322-.155-.683-.953-2.258-1.658-3.648-4.181-8.249-11.178-22.055-3.895-52.625.989-4.151 5.156-6.715 9.308-5.726 4.151.989 6.715 5.157 5.726 9.308-7.811 32.782 3.216 39.482 5.533 49.025 1.466 5.332-2.438 9.988-7.408 9.988zm-7.417-5.64c.001.003.001.006.003.008-.002-.002-.002-.005-.003-.008z" fill="#ffaaa1"/><path d="m350.56 327.524c-.999 4.203-5.235 6.711-9.304 5.729-4.152-.989-6.718-5.162-5.729-9.314 5.976-25.067.783-35.288-2.648-42.057-1.299-2.531-2.38-4.37-1.659-7.367 5.104 2.244 10.725 2.377 15.64.773 4.215 8.294 10.881 22.141 3.7 52.236z" fill="#ffaaa1"/><path d="m213.622 308.69c-.021.051-.041.103-.072.155-2.195 5.162-6.367 9.489-11.993 11.756-5.615 2.267-9.788 6.594-11.993 11.756-2.195 5.172-2.421 11.179-.155 16.794 2.267 5.626 2.04 11.632-.165 16.804-2.195 5.162-6.367 9.489-11.993 11.756-6.821 2.741-11.055 8.727-12.322 15.516-2.462 13.291-19.988 16.712-26.582 4.915-.402-.721-.773-1.484-1.092-2.287-.247-.618-.525-1.236-.835-1.813-2.401-4.709-6.326-8.222-10.921-10.179-4.605-1.958-9.86-2.349-14.919-.814-.628.175-1.257.402-1.875.649-4.678 1.886-9.613 2.04-14.105.773-.917-.247-1.813-.567-2.689-.938-5.162-2.205-9.499-6.367-11.766-11.983-.247-.628-.515-1.236-.814-1.813-2.586-5.182-6.872-9.211-11.869-11.344-1.7-.721-3.482-1.226-5.306-1.473-8.026-1.113-13.198-9.232-10.128-16.742.041-.093.072-.185.113-.278 2.03-4.76 5.718-8.727 10.911-10.808 5.615-2.267 9.788-6.594 11.993-11.756 2.195-5.162 2.421-11.169.155-16.794-2.267-5.625-2.03-11.632.165-16.794 2.195-5.172 6.367-9.499 11.993-11.756.113-.052.227-.093.34-.144 9.118-3.843 18.659-6.347 28.313-7.429l9.314 2.504 6.233-3.06c7.243.309 14.455 1.411 21.503 3.338 4.183 1.133 8.304 2.555 12.333 4.276l39.718 16.907c7.872 3.347 11.797 12.414 8.51 20.306z" fill="#fb695b"/><path d="m156.863 356.846c4.935 5.77-36.226 19.802-62.261 27.622-.917-.247-1.813-.567-2.689-.938-5.162-2.205-9.499-6.367-11.766-11.983-.247-.628-.515-1.236-.814-1.813-2.586-5.182-6.872-9.211-11.869-11.344-1.7-.721-3.482-1.226-5.306-1.473-8.026-1.113-13.198-9.232-10.128-16.742.041-.093.072-.185.113-.278 2.03-4.76 5.718-8.727 10.911-10.808 5.615-2.267 9.788-6.594 11.993-11.756 2.195-5.162 2.421-11.169.155-16.794-2.267-5.625-2.03-11.632.165-16.794 2.195-5.172 6.367-9.499 11.993-11.756.113-.052.227-.093.34-.144 9.118-3.843 18.659-6.347 28.313-7.429l9.314 2.504 6.233-3.06c7.243.309 14.455 1.411 21.503 3.338 6.111 5.439 13.114 23.628 6.903 38.698-9.387 22.775-9.975 42.914-3.103 50.95z" fill="#f54432"/><g fill="#ff938a"><path d="m131.693 269.229c-.556-5.25-.134-3.127-.134-5.368-5.182-.237-10.385-.041-15.547.556-.582 9.184 6.03 19.864-12.271 46.621-2.401 3.524-1.504 8.335 2.019 10.746 3.613 2.446 8.359 1.446 10.746-2.019 17.731-25.942 16.134-41.335 15.187-50.536z"/><path d="m125.969 391.805c-3.986 0-7.368-3.064-7.694-7.106-.053-.661-.128-1.361-.206-2.107-.962-9.2-2.572-24.598 15.186-50.556 2.41-3.522 7.218-4.424 10.741-2.014 3.522 2.409 4.424 7.218 2.014 10.741-14.552 21.271-13.359 32.675-12.57 40.222.092.875.177 1.697.239 2.472.363 4.484-3.175 8.348-7.71 8.348z"/><path d="m296.243 414.337c-.062 0-.113 0-.165.01-5.615.309-11.333-1.514-15.856-5.553-4.513-4.049-10.241-5.873-15.846-5.564-5.605.319-11.096 2.771-15.135 7.284-4.039 4.523-9.53 6.975-15.135 7.284-5.605.319-11.333-1.515-15.846-5.553-5.481-4.904-12.724-6.058-19.38-4.183-13.002 3.668-23.821-10.54-16.155-21.667.474-.69.989-1.35 1.566-1.999.443-.495.876-1.01 1.257-1.545 3.153-4.235 4.575-9.314 4.296-14.301-.278-4.997-2.256-9.881-5.862-13.734-.443-.484-.917-.948-1.422-1.401-4.513-4.039-6.955-9.53-7.274-15.135-.309-5.605 1.504-11.333 5.543-15.846.453-.505.876-1.01 1.257-1.535 3.513-4.616 5.234-10.241 4.925-15.661-.103-1.844-.433-3.668-1.02-5.409-2.555-7.696 2.442-15.928 10.53-16.495.103 0 .206-.01.309-.021 5.172-.278 10.355 1.278 14.517 5.007 4.513 4.039 10.241 5.862 15.846 5.553s11.096-2.761 15.135-7.284c4.039-4.513 9.53-6.975 15.135-7.284s11.333 1.514 15.846 5.553c.093.082.185.165.278.247 7.49 6.481 13.961 13.94 19.215 22.11l1.082 9.283 6.275 4.389c4.667 10.561 7.47 21.956 8.129 33.732l2.401 43.108c.472 8.533-5.916 16.064-14.446 16.61z"/></g><path d="m292.801 307.217c-9.015 3.843-15.362 14.156-47.27 9.613-4.224-.598-8.139 2.339-8.737 6.563-.608 4.224 2.329 8.14 6.553 8.737 38.832 5.533 50.526-9.087 55.523-10.715.237-.072.453-.155.67-.247.01 0 .01-.01.01-.01s0 0 .01 0c.206-.082.402-.165.598-.268-2.092-4.741-4.554-9.305-7.357-13.673z" fill="#ffc4bf"/><path d="m475.69 43.989-263.821 90.894c-8.16 2.811-17.073-1.397-20.088-9.484-3.014-8.087.97-17.103 8.979-20.319l258.95-103.963c8.061-3.236 17.205.805 20.239 8.944l5.188 13.919c3.034 8.139-1.234 17.18-9.447 20.009z" fill="#6e768f"/><path d="m455.425 393.453c-4.76 25.377-18.216 47.25-36.926 62.787-18.731 15.537-42.716 24.727-68.526 24.727h-143.099l-62.086-12.354-23.821 12.281c-50.032-1.7-92.46-37.915-101.753-87.442-.361-1.937-.536-3.864-.536-5.759 0-16.67 13.538-30.848 30.919-30.848h12.735l-.175.072 44.602 9.366 50.104-9.438h268.188c19.349.001 33.938 17.589 30.374 36.608z" fill="#c7c4ea"/><path d="m206.874 480.967h-82.208c-51.629 0-95.932-36.772-105.452-87.514-.361-1.937-.536-3.864-.536-5.759 0-16.67 13.538-30.847 30.919-30.847h107.265c-4.832 2.442-10.839 7.81-10.839 19.432.001 19.472 7.533 80.662 60.851 104.688z" fill="#b2aee4"/><g><g fill="#fff"><ellipse cx="155.354" cy="428.946" rx="30.244" ry="24.085"/><ellipse cx="319.289" cy="428.946" rx="30.244" ry="24.085"/></g><g><path d="m172.98 413.488c-4.268 0-7.727-3.46-7.727-7.727v-12.364c0-4.268 3.46-7.727 7.727-7.727 4.268 0 7.727 3.46 7.727 7.727v12.364c.001 4.267-3.459 7.727-7.727 7.727z" fill="#495560"/></g><g><path d="m301.662 413.488c-4.268 0-7.727-3.46-7.727-7.727v-12.364c0-4.268 3.46-7.727 7.727-7.727s7.727 3.46 7.727 7.727v12.364c0 4.267-3.459 7.727-7.727 7.727z" fill="#495560"/></g><g><path d="m237.321 420.848c-8.735 0-17.041-3.783-22.788-10.379-2.804-3.218-2.469-8.099.749-10.902 3.217-2.804 8.099-2.468 10.902.749 2.812 3.227 6.871 5.077 11.137 5.077 4.267 0 8.326-1.85 11.138-5.077 2.804-3.218 7.684-3.553 10.902-.749s3.553 7.685.749 10.902c-5.747 6.596-14.054 10.379-22.789 10.379z" fill="#495560"/></g></g></g><g/><g/><g/><g/><g/><g/><g/><g/><g/><g/><g/><g/><g/><g/><g/></svg>