<svg height="512pt" viewBox="-84 0 512 512.00012" width="512pt" xmlns="http://www.w3.org/2000/svg"><path d="m256.117188 196.0625c-.074219-.617188-.101563-1.238281-.089844-1.855469 0-14.625 11.859375-26.484375 26.484375-26.484375s26.484375 11.859375 26.484375 26.484375-11.859375 26.484375-26.484375 26.484375c-5.128907-.023437-10.144531-1.492187-14.476563-4.238281l-1.5625 23.203125 13.921875 16.253906c.703125.074219 1.410157.105469 2.117188.089844 30.363281-.019531 56.214843-22.09375 60.988281-52.078125 4.773438-29.988281-12.945312-58.996094-41.804688-68.441406-28.855468-9.445313-60.300781 3.472656-74.179687 30.476562l6.097656 15.707031zm0 0" fill="#f29c1f"/><path d="m282.511719 282.484375c0 75.738281-32.21875 173.019531-46.433594 212.125-3.800781 10.464844-13.757813 17.421875-24.894531 17.390625h-139.828125c-11.132813.03125-21.09375-6.925781-24.894531-17.390625-14.210938-39.105469-46.4335942-136.386719-46.4335942-212.125-.9492188-47.46875 21.3710942-92.398437 59.7656252-120.320313 4.199219-3.09375 7.867187-6.851562 10.855469-11.125v-27.453124c.03125-9.738282 7.917968-17.625 17.65625-17.65625 4.871093-.011719 8.8125-3.957032 8.828124-8.828126v-35.308593h88.277344v35.308593c.011719 4.871094 3.957032 8.816407 8.824219 8.828126 9.742187.03125 17.628906 7.917968 17.65625 17.65625v27.453124c2.992187 4.273438 6.660156 8.03125 10.859375 11.125 38.394531 27.921876 60.710938 72.851563 59.761719 120.320313zm0 0" fill="#d25627"/><path d="m258.972656 282.484375c0 75.738281-26.851562 173.019531-38.695312 212.125-2.292969 9.757813-10.738282 16.835937-20.746094 17.390625h-116.523438c-10.007812-.554688-18.453124-7.632812-20.742187-17.390625-11.84375-39.105469-38.695313-136.386719-38.695313-212.125 0-65.589844 30.160157-102.929687 49.800782-120.320313 3.589844-3.203124 6.644531-6.960937 9.046875-11.125v-27.453124c-.707031-8.90625 5.828125-16.746094 14.714843-17.65625 4.445313-.453126 7.710938-4.375 7.355469-8.828126v-35.308593h73.5625v35.308593c-.351562 4.453126 2.914063 8.375 7.359375 8.828126 8.886719.910156 15.421875 8.75 14.710938 17.65625v27.453124c2.40625 4.164063 5.460937 7.921876 9.046875 11.125 19.644531 17.390626 49.804687 54.730469 49.804687 120.320313zm0 0" fill="#e57e25"/><path d="m23.6875 423.722656h235.167969c-8.300781 29.664063-17.039063 55.085938-22.777344 70.886719-3.800781 10.464844-13.757813 17.421875-24.894531 17.390625h-139.828125c-11.132813.03125-21.09375-6.925781-24.894531-17.390625-5.738282-15.800781-14.476563-41.222656-22.773438-70.886719zm0 0" fill="#d25627"/><path d="m282.511719 282.484375c0 5.734375-.175781 11.652344-.53125 17.652344h-281.421875c-.351563-6-.5312502-11.917969-.5312502-17.652344-.9492188-47.46875 21.3710942-92.398437 59.7656252-120.320313 4.199219-3.09375 7.867187-6.851562 10.855469-11.125v-27.453124c.03125-9.738282 7.917968-17.625 17.65625-17.65625 4.871093-.011719 8.8125-3.957032 8.828124-8.828126v-44.136718h88.277344v44.136718c.011719 4.871094 3.957032 8.816407 8.824219 8.828126 9.742187.03125 17.628906 7.917968 17.65625 17.65625v27.453124c2.992187 4.273438 6.660156 8.03125 10.859375 11.125 38.394531 27.921876 60.710938 72.851563 59.761719 120.320313zm0 0" fill="#d25627"/><path d="m258.972656 282.484375c0 75.738281-26.851562 173.019531-38.695312 212.125-2.292969 9.757813-10.738282 16.835937-20.746094 17.390625h-116.523438c-10.007812-.554688-18.453124-7.632812-20.742187-17.390625-11.84375-39.105469-38.695313-136.386719-38.695313-212.125 0-65.589844 30.160157-102.929687 49.800782-120.320313 3.589844-3.203124 6.644531-6.960937 9.046875-11.125v-27.453124c-.707031-8.90625 5.828125-16.746094 14.714843-17.65625 4.445313-.453126 7.710938-4.375 7.355469-8.828126v-35.308593h73.5625v35.308593c-.351562 4.453126 2.914063 8.375 7.359375 8.828126 8.886719.910156 15.421875 8.75 14.710938 17.65625v27.453124c2.40625 4.164063 5.460937 7.921876 9.046875 11.125 19.644531 17.390626 49.804687 54.730469 49.804687 120.320313zm0 0" fill="#e57e25"/><path d="m35.347656 273.65625c-.488281 0-.976562-.039062-1.460937-.121094-4.804688-.804687-8.050781-5.347656-7.253907-10.152344 9.457032-56.75 47.292969-76.269531 48.894532-77.066406 2.820312-1.417968 6.179687-1.222656 8.816406.507813 2.636719 1.734375 4.148438 4.738281 3.96875 7.890625-.183594 3.148437-2.03125 5.960937-4.847656 7.378906-1.371094.707031-31.515625 16.792969-39.417969 64.191406-.710937 4.25-4.386719 7.367188-8.699219 7.371094zm0 0" fill="#fac176"/><path d="m105.960938 176.550781c0 4.875-3.953126 8.828125-8.828126 8.828125s-8.828124-3.953125-8.828124-8.828125 3.953124-8.828125 8.828124-8.828125 8.828126 3.953125 8.828126 8.828125zm0 0" fill="#fac176"/><path d="m281.980469 300.136719c-3.429688 41.882812-11.179688 83.296875-23.125 123.585937h-235.167969c-11.945312-40.289062-19.695312-81.703125-23.128906-123.585937zm0 0" fill="#f3d55b"/><path d="m203.0625 26.484375v26.480469c-.011719 4.871094-3.957031 8.8125-8.828125 8.828125h-105.929687c-4.867188-.015625-8.8125-3.957031-8.828126-8.828125v-26.480469c.042969-14.609375 11.875-26.4414062 26.484376-26.484375h70.621093c14.605469.0429688 26.4375 11.875 26.480469 26.484375zm0 0" fill="#35495e"/></svg>