<svg id="Capa_1" enable-background="new 0 0 497 497" viewBox="0 0 497 497" xmlns="http://www.w3.org/2000/svg"><g><path d="m353.5 97.5v-90c0-4.142-3.358-7.5-7.5-7.5h-30l-22.5 97.5z" fill="#fc9f63"/><path d="m316 0h-165c-4.142 0-7.5 3.358-7.5 7.5v60l180 30v-90c0-4.142-3.358-7.5-7.5-7.5z" fill="#f9bb69"/><path d="m353.5 67.5h-30v142.5l60-45z" fill="#f9bb69"/><path d="m143.5 67.5-30 97.5 120 45 120-45-30-97.5z" fill="#f6d76f"/><path d="m203.5 67.5v30c0 20.711 20.147 37.5 45 37.5s45-16.789 45-37.5v-30z" fill="#f0f0f0"/><ellipse cx="248.5" cy="67.5" fill="#fff" rx="45" ry="37.5"/><path d="m308.5 369.059 37.5 127.941h30c4.142 0 7.5-3.358 7.5-7.5v-120.441z" fill="#fc9f63"/><path d="m113.5 369.059v120.441c0 4.142 3.358 7.5 7.5 7.5h225c4.142 0 7.5-3.358 7.5-7.5v-120.441z" fill="#f9bb69"/><path d="m383.5 165h-30l-30 114.283 30 114.283c10.602-7.001 20.662-15.169 30-24.507z" fill="#dedede"/><path d="m113.5 165v204.059c65.281 65.281 165.88 73.45 240 24.507v-228.566z" fill="#f0f0f0"/><path d="m184.785 250.38c-7.078 16.989-11.28 36.721-11.28 57.488 0 46.996 34.497 87.131 74.989 87.131.006 0 .006-116.955.006-116.955z" fill="#d7795c"/><path d="m212.456 278.045h36.044v-83.045c-25.642 0-50.046 22.573-63.715 55.381.004 15.291 12.379 27.664 27.671 27.664z" fill="#fc9f63"/><path d="m248.5 194.999v200c40.489-.004 75.006-40.131 75.006-87.131-.001-60.87-36.086-112.869-75.006-112.869z" fill="#8d5d4d"/><path d="m285.956 302.579-45.706 37.419 8.25 55c20.245-.004 37.503-40.131 37.503-87.131 0-1.77-.017-3.533-.047-5.288z" fill="#ae6e5a"/><path d="m285.956 302.579c-1.006-58.562-18.562-107.58-37.456-107.58l-15 100 6.75 45h8.253c20.69 0 37.435-16.734 37.453-37.42z" fill="#d7795c"/><path d="m210.997 307.868c0 47 17.258 87.127 37.503 87.131v-200c-19.46 0-37.503 51.999-37.503 112.869z" fill="#ff835d"/></g><g/><g/><g/><g/><g/><g/><g/><g/><g/><g/><g/><g/><g/><g/><g/></svg>