<svg id="Capa_1" enable-background="new 0 0 497 497" viewBox="0 0 497 497" xmlns="http://www.w3.org/2000/svg"><g><path d="m290.933 263.845c-11.718-11.715-27.075-17.573-42.433-17.573v149.999l159.884-15z" fill="#f6d76f"/><path d="m363.384 381.271-84.394-117.426c-8.42-11.715-19.455-17.573-30.49-17.573-15.358 0-30.715 5.858-42.433 17.573l-117.451 117.426 159.884 15z" fill="#fbe8a8"/><circle cx="161.044" cy="351.279" fill="#f6d76f" r="7.5"/><circle cx="221.056" cy="336.279" fill="#f6d76f" r="7.5"/><path d="m237.083 49.809c-17.018 7.008-33.942 17.99-48.626 32.674-33.231 33.231-37.218 86.004-8.586 114.636.004.004 82.704-82.695 82.704-82.695z" fill="#d7795c"/><path d="m237.087 88.937 25.487 25.487 58.722-58.722c-18.131-18.131-51.349-19.426-84.213-5.893-10.811 10.815-10.809 28.315.004 39.128z" fill="#fc9f63"/><path d="m321.296 55.702-141.422 141.421c28.633 28.628 81.414 24.66 114.648-8.574 43.042-43.041 54.295-105.326 26.774-132.847z" fill="#8d5d4d"/><path d="m271.711 158.258-58.779-5.86-33.058 44.725c14.318 14.313 54.896-1.858 88.129-35.092 1.253-1.252 2.488-2.511 3.708-3.773z" fill="#ae6e5a"/><path d="m271.711 158.258c40.699-42.121 62.945-89.196 49.585-102.556l-81.317 60.104-27.046 36.592 5.836 5.836c14.629 14.63 38.302 14.639 52.942.024z" fill="#d7795c"/><path d="m214.967 108.994c-33.234 33.234-49.405 73.811-35.092 88.129l141.421-141.421c-13.76-13.76-63.287 10.25-106.329 53.292z" fill="#ff835d"/><path d="m452 411.272v-15h-124.3v60h42.419c8.071 0 15.801-3.252 21.445-9.021l17.547-17.936c11.287-11.539 26.747-18.043 42.889-18.043z" fill="#c9c7c7"/><path d="m366.691 429.315c11.288-11.539 26.749-18.042 42.89-18.042v-15h-364.581v15c16.142 0 31.602 6.504 42.89 18.042l17.546 17.936c5.644 5.769 13.374 9.021 21.445 9.021h200.819c8.071 0 15.801-3.252 21.445-9.021z" fill="#dedede"/><path d="m482 381.272h-30v30h30c8.284 0 15-6.716 15-15s-6.716-15-15-15z" fill="#dedede"/><path d="m467 396.272c0-8.284-6.716-15-15-15h-437c-8.284 0-15 6.716-15 15s6.716 15 15 15h437c8.284 0 15-6.716 15-15z" fill="#f0f0f0"/><circle cx="206.056" cy="306.279" fill="#f6d76f" r="7.5"/></g><g/><g/><g/><g/><g/><g/><g/><g/><g/><g/><g/><g/><g/><g/><g/></svg>