<svg id="Capa_1" enable-background="new 0 0 496.999 496.999" viewBox="0 0 496.999 496.999" xmlns="http://www.w3.org/2000/svg"><g><path d="m308.499 235.168h45v60h-45z" fill="#4cd1ff"/><path d="m143.499 235.168h180v60h-180z" fill="#87e2ff"/><path d="m323.499 421.999v75h30c24.853 0 45-20.147 45-45v-30z" fill="#4cd1ff"/><path d="m368.499 451.999v-30h-270v30c0 24.853 20.147 45 45 45h180c24.853 0 45-20.147 45-45z" fill="#87e2ff"/><path d="m353.499 280.168h-30l43.066 184.897c18.479-5.599 31.934-22.759 31.934-43.066v-96.831c0-24.853-20.147-45-45-45z" fill="#87e2ff"/><path d="m368.499 325.168c0-24.853-20.147-45-45-45h-180c-24.853 0-45 20.147-45 45v96.831c0 24.853 20.147 45 45 45h210c4.545 0 8.93-.68 13.066-1.934 1.253-4.136 1.934-8.521 1.934-13.066v-30h-30z" fill="#c0eefc"/><path d="m345.999 205.168-7.5 22.5 7.5 22.5h30c4.142 0 7.5-3.358 7.5-7.5v-30c0-4.142-3.358-7.5-7.5-7.5z" fill="#fc9f63"/><path d="m293.505 205.168-45.005 15-44.995-15h-82.505c-4.142 0-7.5 3.358-7.5 7.5v30c0 4.142 3.358 7.5 7.5 7.5h225c4.142 0 7.5-3.358 7.5-7.5v-30c0-4.142-3.358-7.5-7.5-7.5z" fill="#f9bb69"/><path d="m358.611 326.661c-9.733 3.316-12.904 11.008-27.611 11.008l-7.5 99.33h30c8.284 0 15-6.716 15-15v-88.224c0-5.125-5.038-8.767-9.889-7.114z" fill="#ff835d"/><path d="m338.5 421.999v-76.838c0-4.141-3.359-7.496-7.5-7.492-18.75 0-18.75-12.5-37.5-12.5h-90c-18.75 0-18.75 12.5-37.5 12.5-14.708 0-17.879-7.691-27.612-11.008-4.851-1.653-9.888 1.99-9.888 7.114v88.224c0 8.284 6.716 15 15 15h180c8.284 0 15-6.716 15-15z" fill="#fc9f63"/><path d="m263.505 205.168-15 75v88.251l19.394 19.393c9.449 9.449 25.606 2.757 25.606-10.607v-172.037z" fill="#dc3749"/><path d="m203.505 205.168v172.038c0 13.364 16.157 20.056 25.607 10.607l19.393-19.393c5.535 5.535 15 1.615 15-6.213v-157.039z" fill="#fa4350"/><path d="m237.082 9.081c-17.018 7.008-33.942 17.99-48.626 32.674-33.231 33.231-37.218 86.004-8.586 114.636.004.004 82.704-82.695 82.704-82.695z" fill="#d7795c"/><path d="m237.087 48.209 25.487 25.487 58.722-58.722c-18.131-18.131-51.349-19.426-84.213-5.893-10.811 10.816-10.81 28.315.004 39.128z" fill="#fc9f63"/><path d="m321.295 14.974-141.421 141.421c28.633 28.628 81.414 24.66 114.648-8.574 43.042-43.041 54.294-105.326 26.773-132.847z" fill="#8d5d4d"/><path d="m271.71 117.53-58.779-5.86-33.058 44.725c14.318 14.313 54.896-1.858 88.129-35.092 1.254-1.252 2.488-2.511 3.708-3.773z" fill="#ae6e5a"/><path d="m271.71 117.53c40.699-42.121 62.945-89.196 49.585-102.556l-81.317 60.104-27.046 36.592 5.836 5.836c14.629 14.63 38.303 14.639 52.942.024z" fill="#d7795c"/><path d="m214.966 68.266c-33.234 33.234-49.405 73.811-35.092 88.129l141.421-141.421c-13.76-13.76-63.287 10.25-106.329 53.292z" fill="#ff835d"/></g><g/><g/><g/><g/><g/><g/><g/><g/><g/><g/><g/><g/><g/><g/><g/></svg>