<svg height="464pt" viewBox="0 0 464 464.00004" width="464pt" xmlns="http://www.w3.org/2000/svg"><path d="m308.710938 308.28125c2.882812-3.34375 5.007812-7.265625 6.234374-11.503906 20.125-45.289063 26.003907-95.625 16.855469-144.328125l-28.914062 28.351562c3.324219-27.808593 2.097656-55.96875-3.621094-83.386719l-27.203125 21.808594c-4.363281-26.460937-13.523438-51.902344-27.023438-75.078125l-21.382812 27.527344c-12.03125-23.222656-28.40625-43.921875-48.238281-60.976563l-13.816407 31.136719c-19.175781-17.929687-41.535156-32.117187-65.921874-41.832031l-5.28125 32.304688c-24.683594-11.078126-51.0625-17.914063-78.023438-20.226563l-.320312-.324219c2.300781 27.011719 9.125 53.449219 20.191406 78.199219l-32.246094 5.246094c9.695312 24.410156 23.851562 46.796875 41.753906 66.015625l-31.082031 13.890625c17.007813 19.859375 37.667969 36.265625 60.863281 48.335937l-27.480468 21.421875c23.113281 13.511719 48.496093 22.683594 74.90625 27.066407l-21.761719 27.269531c27.351562 5.734375 55.453125 6.960937 83.199219 3.632812l-28.269532 28.96875c48.613282 9.164063 98.871094 3.273438 144.046875-16.890625 4.234375-1.222656 8.148438-3.351562 11.480469-6.238281zm0 0" fill="#5f9548"/><path d="m314.726562 303.679688-63.199218-63.3125c27.320312-55.054688 20.898437-98.839844 20.601562-100.726563l-15.808594 2.488281c2.265626 29.742188-3.511718 59.542969-16.71875 86.285156l-32.867187-32.925781c15.3125-29.425781 20.535156-63.0625 14.867187-95.746093l-15.578124 3.683593c4.421874 27.21875.515624 55.136719-11.199219 80.101563l-33.28125-33.351563c9.210937-24.832031 12.550781-51.457031 9.761719-77.792969l-15.839844 2.265626c2.113281 21.210937-.082032 42.632812-6.457032 62.976562l-32.304687-32.378906c5.425781-15.484375 7.339844-31.984375 5.601563-48.300782l-15.839844 2.238282c1.082031 11.144531.226562 22.394531-2.527344 33.25l-41.386719-41.417969-11.351562 11.3125 41.359375 41.441406c-10.828125 2.761719-22.050782 3.621094-33.175782 2.535157l-2.246093 15.839843c3.761719.460938 7.546875.675781 11.335937.648438 12.546875.03125 25.007813-2.078125 36.847656-6.242188l32.34375 32.402344c-20.308593 6.351563-41.6875 8.554687-62.863281 6.480469l-2.257812 15.839844c5.820312.714843 11.679687 1.050781 17.546875 1 20.507812.039062 40.851562-3.621094 60.0625-10.800782l33.328125 33.390625c-24.902344 11.738281-52.777344 15.65625-79.953125 11.242188l-3.6875 15.558593c8.113281 1.671876 16.386718 2.457032 24.671875 2.335938 24.652343-.128906 48.929687-6.023438 70.894531-17.207031l32.898438 32.960937c-26.671876 13.238282-56.429688 19.03125-86.121094 16.757813l-1.238282 7.902343-1.265624 7.90625c4.867187.648438 9.773437.945313 14.679687.886719 29.878906-.535156 59.234375-7.910156 85.816406-21.558593l63.199219 63.34375zm0 0" fill="#43752e"/><path d="m352 400c-61.855469 0-112-50.144531-112-112v-47.007812c.003906-79.765626 42.742188-153.417969 112-192.992188 69.257812 39.574219 111.996094 113.226562 112 192.992188v47.007812c0 61.855469-50.144531 112-112 112zm0 0" fill="#7a432a"/><path d="m256 256h-16v32c.027344 31.6875 13.464844 61.886719 36.988281 83.117188 23.523438 21.230468 54.933594 31.515624 86.460938 28.308593 9.960937-33.847656 3.371093-70.40625-17.78125-98.640625-21.152344-28.238281-54.386719-44.835937-89.667969-44.785156zm0 0" fill="#743b20"/><g fill="#662e13"><path d="m344 112h16v152h-16zm0 0"/><path d="m288 160h16v64h-16zm0 0"/><path d="m400 160h16v56h-16zm0 0"/><path d="m400 232h16v16h-16zm0 0"/><path d="m400 264h16v72h-16zm0 0"/></g><path d="m352 352c0 61.855469-50.144531 112-112 112h-47.007812c-79.765626-.003906-153.417969-42.742188-192.992188-112 39.574219-69.257812 113.226562-111.996094 192.992188-112h47.007812c61.855469 0 112 50.144531 112 112zm0 0" fill="#95573a"/><path d="m69.601562 426.566406c36.527344 24.402344 79.46875 37.429688 123.398438 37.433594h47c41.785156.035156 80.109375-23.210938 99.382812-60.285156 19.273438-37.074219 16.289063-81.796875-7.742187-115.980469-63.640625 85.386719-187.191406 124.808594-262.039063 138.832031zm0 0" fill="#8f4d2e"/><path d="m64 344h248v16h-248zm0 0" fill="#7a3b1d"/><path d="m112 400h40v16h-40zm0 0" fill="#7a3b1d"/><path d="m112 288h152v16h-152zm0 0" fill="#7a3b1d"/><path d="m168 400h96v16h-96zm0 0" fill="#7a3b1d"/></svg>