<svg id="Layer_1" enable-background="new 0 0 497 497" viewBox="0 0 497 497" xmlns="http://www.w3.org/2000/svg"><g><path d="m179.649 163.939c-2.369-3.398-7.044-4.233-10.441-1.864-30.187 21.039-48.208 55.565-48.208 92.357v50.812h15v-50.812c0-31.89 15.621-61.815 41.785-80.051 3.398-2.368 4.233-7.043 1.864-10.442z" fill="#ff9763"/><path d="m428.5 437v60h30c16.569 0 30-13.431 30-30v-30z" fill="#b7dced"/><path d="m458.5 467v-30h-180v30c0 16.569 13.431 30 30 30h120c16.569 0 30-13.431 30-30z" fill="#ceebf6"/><path d="m462.14 195.785-26.723-26.723c9.662-19.324 11.892-41.524 6.265-62.384l-14.908-55.272c-2.531-9.383-.329-19.387 5.832-26.903 2.121-2.587 3.394-5.896 3.394-9.503 0-8.284-6.716-15-15-15h-30v259.425l67.5 207.575c16.569 0 30-13.431 30-30v-177.575c0-23.87-9.482-46.762-26.36-63.64z" fill="#ceebf6"/><path d="m423.441 199.513-9.237-9.238c-9.131-9.131-11.395-23.08-5.62-34.63 6.381-12.762 7.849-27.378 4.133-41.155l-14.908-55.272c-1.384-5.13-2.052-10.368-2.048-15.579-.002-6.897 2.367-13.674 6.845-19.136 2.121-2.587 3.394-5.896 3.394-9.503 0-8.284-6.716-15-15-15h-45c-8.284 0-15 6.716-15 15 0 3.607 1.273 6.916 3.394 9.503 6.162 7.516 8.363 17.519 5.832 26.903l-14.908 55.272c-5.626 20.86-3.397 43.059 6.265 62.384 0 0-26.723 26.723-26.723 26.723-16.878 16.878-26.36 39.77-26.36 63.64v177.575c0 16.569 13.431 30 30 30h150v-38.253z" fill="#e5faff"/><path d="m458.5 428.747v-169.322c0-15.913-6.321-31.174-17.573-42.426l-17.486-17.486c-2.48-2.48-6.363-2.998-9.334-1.134-18.692 11.729-42.522 11.729-61.214 0-2.971-1.864-6.854-1.346-9.334 1.134l-17.486 17.486c-11.252 11.252-17.573 26.513-17.573 42.426v169.322c0 4.788 4.414 8.295 9.104 7.331 5.018-1.031 9.731-2.898 13.988-5.448l28.815-17.262c6.751-4.044 14.65-6.369 23.093-6.369s16.342 2.325 23.093 6.369l28.815 17.262c4.257 2.55 8.97 4.417 13.988 5.448 4.69.964 9.104-2.543 9.104-7.331z" fill="#ffd06a"/><circle cx="383.5" cy="362" fill="#ffe2a1" r="15"/><path d="m164.5 281c-1.732 0-3.45.065-5.156.183l-30.844 215.817c66.274 0 120-53.726 120-120 0-53.019-37.608-96-84-96z" fill="#f23048"/><path d="m218.5 377c0-51.052-26.153-92.789-59.156-95.817-10.984.761-21.399 3.933-30.844 9.061-10.912-5.924-23.116-9.244-36-9.244-46.392 0-84 42.981-84 96 0 66.274 53.726 120 120 120 49.706 0 90-53.726 90-120z" fill="#fa5452"/><circle cx="383.5" cy="317" fill="#fff2d5" r="7.5"/><circle cx="383.5" cy="287" fill="#fff2d5" r="7.5"/><path d="m24.475 149.768 66.524 100.322c9.504 2.824 19.573 4.342 30.001 4.342 0-55.184-42.459-100.356-96.525-104.664z" fill="#63cd5c"/><path d="m24.475 149.768c-4.655-.371-8.509 3.483-8.138 8.138 3.494 43.85 33.869 80.063 74.663 92.183-.007-52.895-29.267-96.191-66.525-100.321z" fill="#91e065"/><circle cx="83.5" cy="419" fill="#ffe2a1" r="7.5"/><g fill="#fff2d5"><circle cx="53.5" cy="389" r="7.5"/><circle cx="83.5" cy="359" r="7.5"/></g></g><g/><g/><g/><g/><g/><g/><g/><g/><g/><g/><g/><g/><g/><g/><g/></svg>