<svg id="Capa_1" enable-background="new 0 0 512 512" viewBox="0 0 512 512" xmlns="http://www.w3.org/2000/svg"><g><g><path d="m142.153 273.472v171.379l113.847 9.036 113.847-9.036v-171.379l-113.847-9.912z" fill="#f3f0f3"/><path d="m338.939 270.781v176.523l30.908-2.453v-171.379z" fill="#e2dee2"/></g><g><path d="m321.437 57.317-30.909-5.257-99.966 5.257v26.85c0 7.045-.401 14.063-1.148 21.03l67.244 10.489 65.927-10.489c-.747-6.968-1.148-13.985-1.148-21.031z" fill="#f3f0f3"/><path d="m321.437 84.166v-26.849l-30.908-5.257v32.106c0 7.045.401 14.063 1.148 21.031l.578 4.826 30.331-4.826c-.748-6.968-1.149-13.986-1.149-21.031z" fill="#e2dee2"/></g><g><path d="m329.007 57.317h-146.014c-3.764 0-6.816-3.051-6.816-6.816v-23.342c0-15 12.16-27.159 27.159-27.159h105.328c15 0 27.159 12.16 27.159 27.159v23.342c0 3.764-3.051 6.816-6.816 6.816z" fill="#fd5426"/><path d="m307.844 0h-30.908c15.452 0 27.979 12.527 27.979 27.979v22.316c0 3.878-3.143 7.021-7.021 7.021h30.909c3.878 0 7.021-3.144 7.021-7.021v-22.316c-.001-15.452-12.527-27.979-27.98-27.979z" fill="#ef4424"/></g><g><path d="m345.226 178.054c-12.257-22.634-19.908-47.393-22.641-72.857h-133.171c-2.763 25.752-10.558 50.782-23.057 73.622-15.881 29.021-24.205 61.571-24.205 94.653h227.695c0-33.377-8.728-66.068-24.621-95.418z" fill="#fece85"/><path d="m345.226 178.054c-12.257-22.634-19.908-47.393-22.641-72.857h-30.908c2.732 25.465 10.384 50.224 22.641 72.857 15.893 29.35 24.621 62.041 24.621 95.418h30.909c-.001-33.377-8.729-66.068-24.622-95.418z" fill="#fec165"/></g><g><path d="m142.153 468.068c0 14.889 5.013 28.597 13.427 39.561 2.138 2.787 5.492 4.37 9.005 4.37h182.83c3.513 0 6.866-1.583 9.005-4.37 8.414-10.965 13.427-24.672 13.427-39.561v-23.218h-227.694z" fill="#fece85"/><path d="m338.939 444.851c0 8.657-5.013 20.906-13.427 31.871-2.138 2.787-5.492 4.37-9.005 4.37h-173.038c2.003 9.833 6.219 18.86 12.111 26.538 2.138 2.787 5.492 4.37 9.005 4.37h182.83c3.513 0 6.866-1.583 9.005-4.37 8.414-10.965 13.427-24.672 13.427-39.561v-23.218z" fill="#fec165"/></g><path d="m313.008 377.509h-114.015c-4.143 0-7.5-3.358-7.5-7.5s3.357-7.5 7.5-7.5h114.015c4.143 0 7.5 3.358 7.5 7.5s-3.358 7.5-7.5 7.5z" fill="#d6694b"/><path d="m313.008 407.833h-114.015c-4.143 0-7.5-3.358-7.5-7.5s3.357-7.5 7.5-7.5h114.015c4.143 0 7.5 3.358 7.5 7.5s-3.358 7.5-7.5 7.5z" fill="#d6694b"/><g><g><path d="m273.971 219.021c-5.079 0-10.14.854-14.923 2.497-1.98.68-4.116.68-6.096 0-4.783-1.643-9.844-2.497-14.923-2.497-25.263 0-45.815 20.552-45.815 45.815 0 26.139 18.977 59.461 39.049 68.566 6.653 3.018 14.66 3.417 22.013 1.276 1.773-.516 3.64-.528 5.412-.01 3.09.903 6.295 1.358 9.468 1.358 4.387 0 8.713-.87 12.58-2.624 20.072-9.105 39.049-42.427 39.049-68.566.001-25.262-20.552-45.815-45.814-45.815z" fill="#fd5426"/></g><path d="m256 234.581c-4.143 0-7.5-3.358-7.5-7.5v-22.12c0-4.142 3.357-7.5 7.5-7.5s7.5 3.358 7.5 7.5v22.12c0 4.142-3.358 7.5-7.5 7.5z" fill="#a74b30"/></g></g><g/><g/><g/><g/><g/><g/><g/><g/><g/><g/><g/><g/><g/><g/><g/></svg>