<svg id="Capa_1" enable-background="new 0 0 512 512" height="512" viewBox="0 0 512 512" width="512" xmlns="http://www.w3.org/2000/svg"><path d="m256 89.906c114.034 0 223.363 48.13 216.035 165.871-11.471 184.301-139.562 311.468-216.035 232.219-76.473 79.249-204.564-47.918-216.035-232.219-7.328-117.741 102.001-165.871 216.035-165.871z" fill="#ff4755"/><path d="m256 89.906c-3.101 0-6.198.042-9.29.114 110.603 2.562 213.874 51.218 206.745 165.757-8.695 139.709-84.405 246.585-153.844 255.605 73.818 9.987 162.945-103.296 172.424-255.605 7.328-117.741-102.001-165.871-216.035-165.871z" fill="#fc2b3a"/><path d="m358.553 103.951c-36.435 36.435-103.26 28.683-103.26 28.683s-7.752-66.825 28.683-103.26c30.794-30.793 83.294-30.024 98.814-29.048 2.586.163 4.648 2.225 4.811 4.811.977 15.52 1.745 68.021-29.048 98.814z" fill="#98db7c"/><path d="m382.79.327c-1.809-.114-4.121-.225-6.841-.283.564 20.071-1.564 65.415-29.301 93.153-27.206 27.206-71.352 29.774-91.973 29.33.177 6.293.618 10.108.618 10.108s66.825 7.752 103.26-28.683c30.793-30.793 30.025-83.291 29.048-98.813-.162-2.589-2.224-4.65-4.811-4.812z" fill="#82d361"/><path d="m256.01 175.074c-.348 0-.701-.024-1.056-.072-4.234-.578-7.199-4.476-6.626-8.71.06-.464 3.007-24.023-4.638-53.285-10.179-38.964-33.407-69.218-69.036-89.921-3.697-2.148-4.953-6.887-2.804-10.584s6.888-4.951 10.584-2.804c49.242 28.613 68.727 70.191 76.403 100.031 8.292 32.236 4.98 57.586 4.835 58.65-.53 3.879-3.851 6.695-7.662 6.695z" fill="#62c136"/><path d="m256 175.073c-37.957 0-63.208-19.613-64.264-20.448-3.354-2.651-3.924-7.52-1.273-10.874s7.521-3.924 10.874-1.273c.201.157 22.288 17.111 54.662 17.111 32.636 0 54.446-16.941 54.662-17.111 3.356-2.652 8.224-2.081 10.875 1.273 2.652 3.355 2.082 8.223-1.273 10.874-1.055.835-26.306 20.448-64.263 20.448z" fill="#e52940"/></svg>