<svg id="Layer_1" enable-background="new 0 0 512 512" viewBox="0 0 512 512" xmlns="http://www.w3.org/2000/svg"><g><path d="m511.949 288.878c-.339 17.183-9.185 33.054-23.654 42.333-42.734 27.405-142.256 84.269-232.295 84.269-90.231 0-189.229-54.811-231.449-81.049-14.126-8.779-23.088-23.883-24.074-40.483-3.892-65.527 10.661-228.53 251.812-228.53 239.28 0 260.952 157.99 259.66 223.46z" fill="#f6f1f1"/><path d="m252.289 65.418c-5.232 0-10.35.082-15.371.232 224.687 6.706 245.389 159.203 244.126 223.227-.339 17.183-9.185 33.054-23.654 42.333-40.329 25.862-131.229 77.951-217.008 83.735 5.226.346 10.437.534 15.618.534 90.039 0 189.561-56.865 232.295-84.27 14.469-9.279 23.315-25.15 23.654-42.333 1.292-65.468-20.38-223.458-259.66-223.458z" fill="#efe7e4"/><ellipse cx="256" cy="333.075" fill="#eaa598" rx="178.202" ry="58.527"/><path d="m256 274.548c-5.207 0-10.359.078-15.453.222 91.181 2.573 162.749 27.692 162.749 58.306s-71.568 55.733-162.749 58.306c5.094.144 10.245.222 15.453.222 98.418 0 178.202-26.204 178.202-58.527s-79.784-58.529-178.202-58.529z" fill="#e48e81"/><path d="m480.85 269.17c-.125-1.798-3.396-44.523-32.831-87.706-17.323-25.413-40.131-45.656-67.791-60.168-34.286-17.988-76.082-27.108-124.228-27.108-48.23 0-90.097 9.856-124.438 29.294-27.648 15.65-50.434 37.461-67.724 64.828-29.314 46.397-32.566 92.224-32.69 94.152-.266 4.13 2.864 7.691 6.995 7.962.167.011.332.016.497.016 3.916 0 7.213-3.043 7.477-7.006.029-.439 3.245-44.431 30.729-87.627 36.571-57.477 96.848-86.62 179.155-86.62 82.376 0 142.684 26.974 179.246 80.172 27.395 39.859 30.612 80.455 30.641 80.86.292 4.127 3.886 7.235 8.001 6.952 4.131-.286 7.248-3.869 6.961-8.001z" fill="#eadfda"/><path d="m506.84 360.172c-.89 1.96-1.92 4.01-3.14 6.16 0 0-23.42 4.66-10.78 15-26.26 29.84-88.66 65.25-236.92 65.25-148.27 0-210.66-35.42-236.91-65.25 11.59-9.89-10.78-15-10.78-15-1.21-2.15-2.25-4.2-3.13-6.16-4.19-9.27 3.59-19.31 15.06-19.31h471.55c11.47 0 19.25 10.04 15.05 19.31z" fill="#efe7e4"/><path d="m506.84 360.172c-.89 1.96-1.92 4.01-3.14 6.16 0 0-23.42 4.66-10.78 15-26.26 29.84-88.66 65.25-236.92 65.25-5.26 0-10.4-.05-15.45-.13 173.65-3.01 221.96-56.64 235.39-86.28 4.2-9.27-3.59-19.31-15.06-19.31h30.91c11.47 0 19.25 10.04 15.05 19.31z" fill="#eadfda"/><path d="m503.7 366.332c-2.65 4.68-6.15 9.75-10.78 15h-473.83c-4.62-5.25-8.12-10.32-10.78-15z" fill="#f6f1f1"/></g><g/><g/><g/><g/><g/><g/><g/><g/><g/><g/><g/><g/><g/><g/><g/></svg>