<svg height="512" viewBox="0 0 512 512" width="512" xmlns="http://www.w3.org/2000/svg"><g id="Flat"><path d="m44.118 343.431h135.765v113.137h-135.765z" fill="#6a9c46" transform="matrix(.707 -.707 .707 .707 -250.039 196.353)"/><path d="m200 392-59.38 59.38a495.747 495.747 0 0 0 -45.04-114.96l24.42-24.42z" fill="#649441"/><path d="m399.147 256.853-31.147 31.147-144-144 31.147-31.147a248.735 248.735 0 0 1 175.882-72.853 40.971 40.971 0 0 1 28.971 12 40.971 40.971 0 0 1 12 28.971 248.735 248.735 0 0 1 -72.853 175.882z" fill="#518030"/><path d="m343.147 240.853-31.147 31.147-144-144 31.147-31.147a248.735 248.735 0 0 1 175.882-72.853 40.971 40.971 0 0 1 28.971 12 40.971 40.971 0 0 1 12 28.971 248.735 248.735 0 0 1 -72.853 175.882z" fill="#578735"/><path d="m415.147 312.853-31.147 31.147-144-144 31.147-31.147a248.735 248.735 0 0 1 175.882-72.853 40.971 40.971 0 0 1 28.971 12 40.971 40.971 0 0 1 12 28.971 248.735 248.735 0 0 1 -72.853 175.882z" fill="#578735"/><path d="m359.147 296.853-31.147 31.147-144-144 31.147-31.147a248.735 248.735 0 0 1 175.882-72.853 40.971 40.971 0 0 1 28.971 12 40.971 40.971 0 0 1 12 28.971 248.735 248.735 0 0 1 -72.853 175.882z" fill="#638f43"/><path d="m255.147 240.853-31.147 31.147-144-144 31.147-31.147a248.735 248.735 0 0 1 175.882-72.853 40.971 40.971 0 0 1 28.971 12 40.971 40.971 0 0 1 12 28.971 248.735 248.735 0 0 1 -72.853 175.882z" fill="#649441"/><path d="m415.147 400.853-31.147 31.147-144-144 31.147-31.147a248.735 248.735 0 0 1 175.882-72.853 40.971 40.971 0 0 1 28.971 12 40.971 40.971 0 0 1 12 28.971 248.735 248.735 0 0 1 -72.853 175.882z" fill="#649441"/><g fill="#6a9c46"><path d="m271.147 384.853-31.147 31.147-144-144 31.147-31.147a248.735 248.735 0 0 1 175.882-72.853 40.971 40.971 0 0 1 28.971 12 40.971 40.971 0 0 1 12 28.971 248.735 248.735 0 0 1 -72.853 175.882z"/><path d="m200 64.97a248.564 248.564 0 0 1 -18.94 95.19 248.654 248.654 0 0 1 -53.91 80.69l-31.15 31.15-25.56-25.56a175.408 175.408 0 0 1 113.95-213.65 40.411 40.411 0 0 1 3.61 3.21 40.977 40.977 0 0 1 12 28.97z"/><path d="m479.21 327.61a175.408 175.408 0 0 1 -213.65 113.95l-25.56-25.56 31.15-31.15a248.742 248.742 0 0 1 175.88-72.85 40.977 40.977 0 0 1 28.97 12 40.411 40.411 0 0 1 3.21 3.61z"/></g><path d="m200 208.97a248.564 248.564 0 0 1 -18.94 95.19 248.444 248.444 0 0 1 -30.83 54.07l-34.87-34.87a175.4 175.4 0 0 1 -51.36-124q0-6.39.46-12.67a248.481 248.481 0 0 1 94.57-18.69 40.972 40.972 0 0 1 40.97 40.97z" fill="#72a64e"/><path d="m344 352.97a248.481 248.481 0 0 1 -18.69 94.57q-6.27.465-12.67.46a175.4 175.4 0 0 1 -124-51.36l-34.87-34.87a248.674 248.674 0 0 1 149.26-49.77 40.972 40.972 0 0 1 40.97 40.97z" fill="#72a64e"/><path d="m200 352.97a247.993 247.993 0 0 1 -5.02 49.7.8.8 0 0 0 -.569-.172 89.651 89.651 0 0 1 -61.911-23.498 70.087 70.087 0 0 1 -23.03-60.995 1.275 1.275 0 0 0 -.15-.985 248.092 248.092 0 0 1 49.71-5.02 40.972 40.972 0 0 1 40.97 40.97z" fill="#79ad54"/><path d="m67.452 414.765-25.109-25.108 11.314-11.314 25.925 23.749a8.774 8.774 0 0 1 .893 11.989 8.773 8.773 0 0 1 -13.023.684z" fill="#638f43"/><path d="m90.25 426.118h16v16.263h-16z" fill="#638f43" transform="matrix(.707 -.707 .707 .707 -278.284 196.662)"/><path d="m84.687 384-18.344-18.343 11.314-11.314 18.343 18.344a8 8 0 0 1 0 11.313 8 8 0 0 1 -11.313 0z" fill="#638f43"/><path d="m368 152a8 8 0 0 1 -5.657-13.657l48-48a8 8 0 0 1 11.314 11.314l-48 48a7.976 7.976 0 0 1 -5.657 2.343z" fill="#518030"/><path d="m440 80a8 8 0 0 1 -5.657-13.657l16-16a8 8 0 0 1 11.314 11.314l-16 16a7.976 7.976 0 0 1 -5.657 2.343z" fill="#4a752c"/><path d="m376 64a8 8 0 0 1 -5.657-13.657l19.677-19.656a8 8 0 1 1 11.313 11.313l-19.676 19.657a7.976 7.976 0 0 1 -5.657 2.343z" fill="#518030"/><path d="m456 136a8 8 0 0 1 -5.657-13.657l16-16a8 8 0 0 1 11.314 11.314l-16 16a7.976 7.976 0 0 1 -5.657 2.343z" fill="#518030"/><path d="m240 112a8 8 0 0 1 -5.657-13.657l68.25-68.25a8 8 0 0 1 11.314 11.314l-68.25 68.25a7.976 7.976 0 0 1 -5.657 2.343z" fill="#578735"/><path d="m416 272a8 8 0 0 1 -5.657-13.657l61-61a8 8 0 0 1 11.314 11.314l-61 61a7.976 7.976 0 0 1 -5.657 2.343z" fill="#578735"/><path d="m128 240a8 8 0 0 1 -5.657-13.657l53.25-53.25a8 8 0 0 1 11.314 11.314l-53.25 53.25a7.976 7.976 0 0 1 -5.657 2.343z" fill="#638f43"/><path d="m272 384a8 8 0 0 1 -5.657-13.657l52.25-52.25a8 8 0 0 1 11.314 11.314l-52.25 52.25a7.976 7.976 0 0 1 -5.657 2.343z" fill="#638f43"/><path d="m152 368a8 8 0 0 1 -5.657-13.657l32-32a8 8 0 1 1 11.314 11.314l-32 32a7.976 7.976 0 0 1 -5.657 2.343z" fill="#649441"/><path d="m256 264a8 8 0 0 1 -5.657-13.657l72-72a8 8 0 0 1 11.314 11.314l-72 72a7.976 7.976 0 0 1 -5.657 2.343z" fill="#638f43"/><path d="m136 128a8.007 8.007 0 0 1 -7.7-10.2c12.169-42.59 33.241-71.219 44.72-84.493a8 8 0 1 1 12.1 10.465c-8.546 9.884-29.691 37.31-41.438 78.424a8 8 0 0 1 -7.682 5.804z" fill="#638f43"/><path d="m399.994 376a8 8 0 0 1 -1.934-15.763c22.709-5.677 53.573-25.084 68.406-34.411l2.635-1.655a8 8 0 0 1 8.489 13.563l-2.608 1.637c-15.533 9.768-47.857 30.092-73.042 36.388a8.007 8.007 0 0 1 -1.946.241z" fill="#638f43"/></g></svg>