<svg height="464pt" viewBox="-136 0 464 464" width="464pt" xmlns="http://www.w3.org/2000/svg"><path d="m48 464h-48v-424l24-40 24 40zm0 0" fill="#7eb457"/><g fill="#88c25e"><path d="m48 264h-48v-56zm0 0"/><path d="m48 88h-48v-48zm0 0"/><path d="m8 360h40v-56zm0 0"/><path d="m0 176h48v-48zm0 0"/></g><path d="m144 464h48v-424l-24-40-24 40zm0 0" fill="#5f9548"/><path d="m144 296h48v-56zm0 0" fill="#68a34f"/><path d="m144 120h48v-48zm0 0" fill="#68a34f"/><path d="m184 392h-40v-56zm0 0" fill="#68a34f"/><path d="m192 208h-48v-48zm0 0" fill="#68a34f"/><path d="m48 464h48v-424l-24-40-24 40zm0 0" fill="#5f9548"/><path d="m48 296h48v-56zm0 0" fill="#68a34f"/><path d="m48 120h48v-48zm0 0" fill="#68a34f"/><path d="m88 392h-40v-56zm0 0" fill="#68a34f"/><path d="m96 208h-48v-48zm0 0" fill="#68a34f"/><path d="m144 464h-48v-424l24-40 24 40zm0 0" fill="#7eb457"/><path d="m144 264h-48v-56zm0 0" fill="#88c25e"/><path d="m144 88h-48v-48zm0 0" fill="#88c25e"/><path d="m104 360h40v-56zm0 0" fill="#88c25e"/><path d="m96 176h48v-48zm0 0" fill="#88c25e"/><path d="m48 136c-14.535156-9.6875-33.464844-9.6875-48 0v-24h48zm0 0" fill="#77ad50"/><path d="m144 136c-14.535156-9.6875-33.464844-9.6875-48 0v-24h48zm0 0" fill="#77ad50"/><path d="m96 136c-14.535156-9.6875-33.464844-9.6875-48 0v-24h48zm0 0" fill="#568741"/><path d="m192 136c-14.535156-9.6875-33.464844-9.6875-48 0v-24h48zm0 0" fill="#568741"/><path d="m48 408c-14.535156-9.6875-33.464844-9.6875-48 0v-24h48zm0 0" fill="#77ad50"/><path d="m144 408c-14.535156-9.6875-33.464844-9.6875-48 0v-24h48zm0 0" fill="#77ad50"/><path d="m96 408c-14.535156-9.6875-33.464844-9.6875-48 0v-24h48zm0 0" fill="#568741"/><path d="m192 408c-14.535156-9.6875-33.464844-9.6875-48 0v-24h48zm0 0" fill="#568741"/><path d="m0 88h192v32h-192zm0 0" fill="#4db7e5"/><path d="m0 360h192v32h-192zm0 0" fill="#4db7e5"/><path d="m96 120h96v-32h-64zm0 0" fill="#48add9"/><path d="m96 392h96v-32h-64zm0 0" fill="#48add9"/></svg>