<svg height="464pt" viewBox="0 0 464 464.03923" width="464pt" xmlns="http://www.w3.org/2000/svg"><path d="m404.40625 97.929688-1.34375-10.625c-6.308594-49.894532-48.75-87.304688-99.039062-87.304688-50.289063 0-92.730469 37.410156-99.039063 87.304688l-.546875 4.304687c-5.4375 47.9375-19.574219 94.484375-41.71875 137.351563-11.976562 22.441406-18.386719 47.433593-18.695312 72.871093-.597657 88.367188 70.550781 160.484375 158.914062 161.082031 88.367188.601563 160.488281-70.546874 161.085938-158.914062.035156-24.683594-5.675782-49.035156-16.679688-71.128906-21.808594-42.242188-36.324219-87.863282-42.9375-134.941406zm0 0" fill="#ffb531"/><path d="m408.023438 304c0 57.4375-46.5625 104-104 104s-104-46.5625-104-104 46.5625-104 104-104 104 46.5625 104 104zm0 0" fill="#95573a"/><path d="m332.878906 403.855469c-39.089844 11.378906-81.222656-1.097657-107.816406-31.925781-26.589844-30.828126-32.75-74.335938-15.757812-111.332032 16.992187-37 54.007812-60.679687 94.71875-60.597656 2.480468 0 4.910156.199219 7.351562.367188-9.085938-25.386719-15.445312-51.667969-18.96875-78.398438l-1.34375-10.625c-4.480469-35.285156-27.410156-65.515625-60.183594-79.34375-14.226562 15.273438-23.285156 34.636719-25.894531 55.34375l-.546875 4.304688c-5.441406 47.925781-19.578125 94.457031-41.71875 137.3125-11.976562 22.441406-18.386719 47.433593-18.695312 72.871093-.46875 79.421875 56.90625 147.382813 135.28125 160.238281 22.429687-14.636718 40.847656-34.648437 53.574218-58.214843zm0 0" fill="#f7a116"/><path d="m200.023438 304c-.058594 32.703125 15.296874 63.523438 41.441406 83.171875 26.140625 19.652344 60.015625 25.832031 91.414062 16.683594 24.625-45.691407 25.546875-100.492188 2.464844-146.984375-9.164062-18.316406-17.179688-37.1875-24-56.503906-2.410156-.167969-4.839844-.367188-7.320312-.367188-57.4375 0-104 46.5625-104 104zm0 0" fill="#8f4d2e"/><path d="m260.40625 97.929688-1.34375-10.625c-6.308594-49.894532-48.75-87.304688-99.039062-87.304688-50.289063 0-92.730469 37.410156-99.039063 87.304688l-.546875 4.304687c-5.4375 47.9375-19.574219 94.484375-41.71875 137.351563-11.972656 22.445312-18.382812 47.433593-18.6953125 72.871093-.5976565 88.367188 70.5507815 160.484375 158.9140625 161.082031 88.367188.601563 160.488281-70.546874 161.085938-158.914062.035156-24.683594-5.675782-49.035156-16.679688-71.128906-21.808594-42.242188-36.324219-87.863282-42.9375-134.941406zm0 0" fill="#5f9548"/><path d="m303.34375 232.871094c-19.234375-37.578125-32.894531-77.753906-40.542969-119.269532-37.976562 172.71875-164.378906 231.832032-250.035156 252 29.257813 70.390626 104.171875 110.304688 178.914063 95.320313 74.742187-14.984375 128.484374-80.691406 128.34375-156.921875.035156-24.683594-5.675782-49.035156-16.679688-71.128906zm0 0" fill="#568741"/><g fill="#68a34f"><path d="m60.480469 237.175781-13.257813-8.96875c3.488282-5.144531 6.800782-10.445312 9.863282-15.765625l13.875 8c-3.257813 5.628906-6.785157 11.269532-10.480469 16.734375zm0 0"/><path d="m58.015625 393.800781c-21.335937-24.183593-33.382813-55.160156-33.992187-87.402343-.445313-21.445313 4.273437-42.683594 13.75-61.925782l14.402343 7.054688c-8.363281 16.964844-12.53125 35.691406-12.152343 54.601562.546874 28.433594 11.183593 55.75 30.007812 77.070313zm0 0"/></g></svg>