<svg id="Layer_1" height="512" viewBox="0 0 64 64" width="512" xmlns="http://www.w3.org/2000/svg" data-name="Layer 1"><rect fill="#fcf3e0" height="42" rx="1" width="34" x="14" y="19"/><circle cx="31" cy="34" fill="#557c3e" r="11"/><circle cx="31" cy="34" fill="#fff" r="9"/><path d="m55 11h1a1 1 0 0 0 1-1v-2a1 1 0 0 0 -1-1h-14a1 1 0 0 0 -1 1v2a1 1 0 0 0 1 1h1v10.757a3 3 0 0 1 -.879 2.122 17.484 17.484 0 0 0 -5.121 12.364v21.757a3 3 0 0 0 3 3h18a3 3 0 0 0 3-3v-21.757a17.484 17.484 0 0 0 -5.121-12.364 3 3 0 0 1 -.879-2.122z" fill="#f9d467"/><path d="m43 11h-25a1 1 0 0 0 -1 1v2a1 1 0 0 0 1 1h25z" fill="#dbdbdb"/><path d="m20 15h23v4h-23z" fill="#dbdbdb"/><path d="m22.971 30.493q-.063-.284-.136-.562c-.918-3.524-2.954-6.426-6.938-6.878a8.079 8.079 0 0 0 -7.478 3.347c-1.579 2.239-1.844 5.146-2.13 7.79a36.4 36.4 0 0 1 -1.855 8.61l-.693 1.913c-2.513 6.93 1.6 14.743 8.845 16.075q.438.081.887.131a12.98 12.98 0 0 0 9.519-2.693 12.012 12.012 0 0 0 3.462-13.947l-.129-.317-.282-.7c-1.655-4.084-2.115-8.498-3.072-12.769z" fill="#97b340"/><path d="m14.962 59a11.5 11.5 0 0 1 -1.268-.07q-.378-.043-.747-.111a9.463 9.463 0 0 1 -6.567-4.711 10.374 10.374 0 0 1 -.758-8.715l.693-1.913a38.217 38.217 0 0 0 1.962-9.08l.029-.271c.256-2.38.521-4.841 1.748-6.581a6.067 6.067 0 0 1 5.618-2.507c.974.11 3.939.447 5.228 5.4q.063.242.119.491c.274 1.226.513 2.5.744 3.728a48.36 48.36 0 0 0 2.426 9.361l.411 1.009a10.01 10.01 0 0 1 -2.845 11.621 10.881 10.881 0 0 1 -6.793 2.349z" fill="#a9c358"/><ellipse cx="14.962" cy="48" fill="#936f46" rx="5" ry="6"/><path d="m31 39c6 0 0-11 0-11s-6 11 0 11z" fill="#f9d467"/><ellipse cx="54.344" cy="30.899" fill="#fce9c0" rx="2.5" ry="4" transform="matrix(.958 -.287 .287 .958 -6.575 16.868)"/><circle cx="56" cy="37" fill="#fce9c0" r="1"/><path d="m14.962 52c-2.477 0-4.528-2.163-4.925-5a7.141 7.141 0 0 0 -.075 1c0 3.314 2.238 6 5 6s5-2.686 5-6a7.141 7.141 0 0 0 -.075-1c-.398 2.837-2.448 5-4.925 5z" fill="#8c6a43"/><path d="m20 15h23v1h-23z" fill="#ccc"/><path d="m56 11a1 1 0 0 0 1-1v-2a1 1 0 0 0 -1-1h-14a1 1 0 0 0 -1 1v2a1 1 0 0 0 1 1h1v8h12v-8z" fill="#fff"/><path d="m44 3 .889 4 1.111 5h6l1.111-5 .889-4z" fill="#936f46"/><path d="m53.111 5-.763 3.434a2 2 0 0 1 -1.948 1.566h-2.8a2 2 0 0 1 -1.952-1.566l-.759-3.434-.445-2h-1.444l2 9h8l2-9h-1.444z" fill="#8c6a43"/><path d="m58 60h-18a3 3 0 0 1 -3-3v1a3 3 0 0 0 3 3h18a3 3 0 0 0 3-3v-1a3 3 0 0 1 -3 3z" fill="#f9cd4d"/><path d="m34 56a6.047 6.047 0 0 1 .324-1.968 5.7 5.7 0 0 0 -3.324-1.032c-2.761 0-5 1.791-5 4s2.239 4 5 4a5.446 5.446 0 0 0 4.041-1.662 5.7 5.7 0 0 1 -1.041-3.338z" fill="#557c3e"/><path d="m35.041 59.338a3.69 3.69 0 0 0 2.959 1.662c2.209 0 4-2.239 4-5s-1.791-5-4-5a4.091 4.091 0 0 0 -3.676 3.032 6.047 6.047 0 0 0 -.324 1.968 5.7 5.7 0 0 0 1.041 3.338z" fill="#557c3e"/><g fill="#4a7331"><path d="m34 56a6.047 6.047 0 0 1 .324-1.968 5.229 5.229 0 0 0 -.807-.467c-.068.152-.138.3-.193.467a6.047 6.047 0 0 0 -.324 1.968 5.7 5.7 0 0 0 1.041 3.338 4.626 4.626 0 0 0 .437.514 4.541 4.541 0 0 0 .563-.514 5.7 5.7 0 0 1 -1.041-3.338z"/><path d="m38 60a3.69 3.69 0 0 1 -2.959-1.662 5.64 5.64 0 0 1 -1-2.821c-.013.161-.04.317-.04.483a5.7 5.7 0 0 0 1.041 3.338 3.69 3.69 0 0 0 2.958 1.662c2.209 0 4-2.239 4-5 0-.171-.027-.333-.04-.5-.204 2.523-1.888 4.5-3.96 4.5z"/></g></svg>