<svg height="512" viewBox="0 0 512 512" width="512" xmlns="http://www.w3.org/2000/svg"><g id="Flat"><path d="m376.792 94.024c-22.514 11.537-12.323 40.661-12.323 40.661s-20.46-23.507-37.194-13.865c-16.558 9.543-4.931 41.5-4.685 42.183-.558-.471-22.439-18.591-38.428-6.585-16.752 12.568.874 42.942 1.272 43.63-.46-.5-18.856-20.232-36.737-6.51-17.925 13.759 2.147 46.834 2.54 47.482-.555-.451-20.655-16.648-36.477-9.24-15.868 7.435-1.225 41.856-.906 42.617-.509-.55-18.9-19.951-35.567-12.091-16.351 7.721-12.106 24.826-8.515 41.222 1.822 8.34 3.473 16.484 2.162 23.129-3.972 20.2-26.729 11.864-40.442 8.56-23.871-5.752-51.043-4.41-69.979 12.973-34.556 31.721-30.554 81.637 6.571 108.769 37.573 27.459 77.914 12.316 115.553-5.79 83.016-39.933 217.805-131.731 265.346-241.543 11.146-25.741 17.645-52.9 14-81.079a66.56 66.56 0 0 0 -1.3-7.044s-5.564-37.115-29.536-35.947c-29.647 1.444-29.147 24.444-29.147 24.444s-3.694-27.514-26.208-15.976z" fill="#718f2d"/><path d="m425.068 131.053c-11.537 22.514-40.661 12.323-40.661 12.323s23.506 20.46 13.865 37.194c-9.544 16.557-41.5 4.931-42.184 4.685.471.558 18.591 22.439 6.585 38.428-12.568 16.752-42.942-.874-43.629-1.272.5.46 20.231 18.856 6.509 36.736-13.759 17.926-46.834-2.146-47.482-2.539.452.555 16.648 20.655 9.241 36.477-7.435 15.868-41.857 1.225-42.617.906.549.509 19.95 18.9 12.09 35.567-7.721 16.351-24.826 12.106-41.221 8.515-8.341-1.822-16.484-3.473-23.13-2.162-20.2 3.972-11.864 26.729-8.559 40.442 5.752 23.871 4.409 51.043-12.974 69.979-31.721 34.556-81.637 30.554-108.768-6.571-27.46-37.573-12.317-77.914 5.79-115.553 39.932-83.017 131.73-217.8 241.542-265.346 25.741-11.146 52.9-17.645 81.079-14a66.577 66.577 0 0 1 7.045 1.3s39.576 5.812 35.947 29.536-26.617 21.9-26.617 21.9 29.686 10.94 18.149 33.455z" fill="#809e39"/><path d="m275.958 132.352-10.086-12.42c62.515-50.767 118.661-52.682 121.021-52.739l.384 16-.192-8 .211 8c-.526.007-53.331 2.054-111.338 49.159z" fill="#85a33e"/><path d="m283.529 195.521-12.486-10c50.361-62.842 104.831-76.59 107.125-77.145l3.777 15.548c-.51.121-51.687 13.288-98.416 71.597z" fill="#85a33e"/><path d="m171.676 327.794c.542 8.513.944 16.82-1.352 23.188-9.921 27.516-39.083 42.2-67.122 42.2h-33.76a71.4 71.4 0 0 0 -45.4 16.11c-.01.01-.03.02-.04.03.01.19.01.39.03.58a80.933 80.933 0 0 0 23.93 54.17c14.851 14.75 35.361 24.67 58 23.88 12.28-.43 32.361-4.57 57.1-12.13 88.1-26.92 235.219-97.28 298.819-198.64 14.91-23.76 25.441-49.62 26.1-78.03a66.642 66.642 0 0 0 -.221-7.152s.24-40-23.76-40-25.667 23-25.667 23-6.333-31-30.333-23-18.333 38.333-18.333 38.333-16.667-26.333-34.667-19.333-11 41-11 41-19.151-21.9-37-12.333c-18.667 10-5.333 43.333-5.333 43.333s-15.334-23-35.334-12-4.666 47.333-4.666 47.333-17.667-19.666-34.667-14.666-7.333 42-7.333 42-15.427-22.657-33.334-17.334c-17.333 5.155-15.725 22.708-14.657 39.461z" fill="#8fb045"/><path d="m370.1 300.7q2.089-2.1 4.111-4.159c7.872-8.033 15.174-15.84 21.9-23.3 39.745-4.563 59.808-17.676 60.667-18.249l-8.846-13.332c-.148.1-11.955 7.66-35.366 12.7 25.681-30.488 39.391-51.808 40.187-53.054l-13.486-8.61c-.194.3-14.4 22.4-40.878 53.609a206.2 206.2 0 0 1 1.878-30.219l-15.854-2.162a210.447 210.447 0 0 0 -1.075 49.571c-6.347 7.027-13.2 14.346-20.553 21.85-1.861 1.9-3.789 3.837-5.747 5.789-2.113-14.555-4.463-36.492-2.135-50.849l-15.803-2.565c-3.456 21.3 1.765 54.932 3.892 67.03-11.521 10.878-24.343 22.255-38.387 33.694-2.179-12.851-4.271-36.793 3.96-60.854l-15.138-5.18c-11.664 34.094-5.305 67.192-2.891 77.178-9.845 7.588-20.207 15.134-31.08 22.512-.025-13.942.588-37.546 4.385-56.531l-15.69-3.138c-5.389 26.943-4.815 61.139-4.554 70.064a526.415 526.415 0 0 1 -94.438 47.705l5.682 14.957a544.512 544.512 0 0 0 100.474-51.152c10.143 2.79 22.221 3.578 32.618 3.578a219.31 219.31 0 0 0 24.026-1.31l-1.918-15.884a195.508 195.508 0 0 1 -35.393.675c9.94-6.919 19.46-13.956 28.522-21.017a98.28 98.28 0 0 0 26.23 3.513c18.123 0 30.971-4.774 31.785-5.084l-5.7-14.952a84.309 84.309 0 0 1 -36.06 3.446c12.693-10.524 24.368-20.953 34.953-30.962 4.955.49 9.714.717 14.23.717 29.4 0 48.858-9.04 49.821-9.5l-6.836-14.467c-.193.096-16.638 7.613-41.493 7.942z" fill="#9bbc50"/><path d="m360 104c-8 24-38.33 18.33-38.33 18.33s26.33 16.67 19.33 34.67c-6.93 17.81-40.28 11.15-40.99 11.01.55.48 21.77 19.37 12.32 36.99-9.89 18.46-42.58 5.63-43.32 5.34.56.38 22.85 15.58 11.99 35.33-10.89 19.8-46.62 4.96-47.32 4.67.53.48 19.58 17.9 14.65 34.66-4.95 16.81-41.19 7.54-41.99 7.34.62.42 22.58 15.67 17.33 33.33-5.16 17.33-22.71 15.72-39.46 14.65-8.52-.54-16.82-.94-23.19 1.36-27.52 9.92-42.21 39.08-42.21 67.12v33.76a71.4 71.4 0 0 1 -16.11 45.4c-.01.01-.02.03-.03.04-.19-.01-.39-.01-.58-.03a80.1 80.1 0 0 1 -25.7-5.33 81.5 81.5 0 0 1 -28.47-18.6c-12.5-12.59-21.53-29.25-23.51-47.82a71.547 71.547 0 0 1 -.37-10.18c.43-12.28 4.57-32.36 12.13-57.1 26.92-88.1 97.28-235.22 198.64-298.82 23.76-14.91 49.62-25.44 78.03-26.1a66.411 66.411 0 0 1 7.16.22s40-.24 40 23.76-21 28-21 28 29 4 21 28z" fill="#9bbc50"/><path d="m265.726 113.607c31.166-26.43 53.268-40.665 53.585-40.868l-4.311-6.739-4.3-6.746c-1.3.828-22.612 14.54-53.052 40.179 5.038-23.4 12.6-35.21 12.7-35.358l-6.676-4.408-6.656-4.438c-.573.859-13.685 20.921-18.248 60.662-8.819 7.948-18.117 16.7-27.7 26.251-.415-25.424 5.4-42.255 5.475-42.456l-7.543-2.686-7.529-2.7c-.4 1.1-9.32 26.53-5.5 63.325q-16.191 17.091-30.931 34.834a85.876 85.876 0 0 1 3.443-35.964l-14.96-5.673c-.446 1.169-10.077 27.137-1.592 57.916q-10.989 14.081-21 28.456a196.666 196.666 0 0 1 .679-35.232l-15.884-1.915c-.182 1.506-3.969 33.837 2.243 56.547-26.01 40.546-46.069 82.526-59.669 124.965l15.236 4.882c12.78-39.885 31.481-79.4 55.646-117.68a202.917 202.917 0 0 0 33.833 3.026c13.173 0 27.614-1.58 39.268-6.825l-6.566-14.59c-16.979 7.641-43.057 5.561-56.945 3.673q11.118-16.5 23.59-32.656a190.611 190.611 0 0 0 39.869 4.638c11.516 0 23.613-1.4 33.833-5.637l-6.128-14.78c-17.151 7.111-42.542 4.145-56.387 1.689q15.795-19.357 33.405-38c8.41 2.089 26.394 5.976 43.756 5.976a89.653 89.653 0 0 0 14.237-1.044l-2.56-15.792c-13.477 2.183-30.648-.271-42.368-2.624 9.826-9.876 19.406-18.936 28.5-27.145a182.8 182.8 0 0 0 19.528.974 223.439 223.439 0 0 0 30.036-2.048l-2.162-15.854a205.833 205.833 0 0 1 -30.195 1.865z" fill="#aac962"/><path d="m80.11 479.23a25.839 25.839 0 0 1 -3.72 3.41 81.5 81.5 0 0 1 -28.47-18.6c-12.5-12.59-21.53-29.25-23.51-47.82 12.51-13.17 34.76-10.23 50.08 6.79 15.52 17.25 18.04 42.42 5.62 56.22z" fill="#b5d173"/></g></svg>