<?xml version="1.0" encoding="iso-8859-1"?>
<!-- Generator: Adobe Illustrator 21.0.0, SVG Export Plug-In . SVG Version: 6.00 Build 0)  -->
<svg xmlns="http://www.w3.org/2000/svg" xmlns:xlink="http://www.w3.org/1999/xlink" version="1.1" id="Capa_1" x="0px" y="0px" viewBox="0 0 512 512" style="enable-background:new 0 0 512 512;" xml:space="preserve" width="512" height="512">
<g>
	<path style="fill:#EEEEEE;" d="M148.836,512H99.373c-3.414,0-6.182-2.768-6.182-6.182V6.182C93.191,2.768,95.959,0,99.373,0h49.462   c3.414,0,6.182,2.768,6.182,6.182v499.636C155.017,509.232,152.25,512,148.836,512z"/>
	<path style="fill:#E0E0E0;" d="M148.835,0h-30.913c3.415,0,6.183,2.767,6.183,6.181v499.638c0,3.414-2.768,6.181-6.183,6.181   h30.913c3.415,0,6.183-2.767,6.183-6.181V6.181C155.017,2.767,152.249,0,148.835,0z"/>
	<path style="fill:#EEEEEE;" d="M280.731,512h-49.462c-3.414,0-6.182-2.768-6.182-6.182V6.182c0-3.414,2.768-6.182,6.182-6.182   h49.462c3.414,0,6.182,2.768,6.182,6.182v499.636C286.913,509.232,284.145,512,280.731,512z"/>
	<path style="fill:#E0E0E0;" d="M280.73,0h-30.913C253.232,0,256,2.767,256,6.181v499.638c0,3.414-2.768,6.181-6.183,6.181h30.913   c3.415,0,6.183-2.767,6.183-6.181V6.181C286.913,2.767,284.145,0,280.73,0z"/>
	<path style="fill:#EEEEEE;" d="M413.273,512h-49.462c-3.414,0-6.182-2.768-6.182-6.182V6.182c0-3.414,2.768-6.182,6.182-6.182   h49.462c3.414,0,6.182,2.768,6.182,6.182v499.636C419.455,509.232,416.687,512,413.273,512z"/>
	<path style="fill:#E0E0E0;" d="M413.272,0h-30.913c3.415,0,6.183,2.767,6.183,6.181v499.638c0,3.414-2.768,6.181-6.183,6.181   h30.913c3.415,0,6.183-2.767,6.183-6.181V6.181C419.455,2.767,416.687,0,413.272,0z"/>
	<path style="fill:#F57C7C;" d="M63.371,77.478c-10.519,0.052-21.798,0.338-30.343,6.478c-13.427,9.649-14.343,28.944-13.965,45.483   c1.788,78.268,3.576,156.535,5.364,234.803c0.513,22.452,2.368,47.834,19.635,62.177c13.676,11.36,32.971,12.171,50.743,12.385   c115.691,1.396,231.413,0.223,347.052-3.518c12.431-0.402,25.884-1.209,35.397-9.226c12.326-10.387,13.431-28.658,13.579-44.783   c0.714-77.453,1.428-154.906,2.143-232.359c0.172-18.659-0.3-39.157-12.568-53.208c-14.152-16.209-38.382-17.697-59.888-17.991   c-92.58-1.263-185.076-1.084-277.664-0.631C116.363,77.218,89.866,77.478,63.371,77.478z"/>
	<path style="fill:#F57C7C;" d="M63.371,77.478c-10.519,0.052-21.798,0.338-30.343,6.478c-13.427,9.649-14.343,28.944-13.965,45.483   c1.788,78.268,3.576,156.535,5.364,234.803c0.513,22.452,2.368,47.834,19.635,62.177c13.676,11.36,32.971,12.171,50.743,12.385   c115.691,1.396,231.413,0.223,347.052-3.518c12.431-0.402,25.884-1.209,35.397-9.226c12.326-10.387,13.431-28.658,13.579-44.783   c0.714-77.453,1.428-154.906,2.143-232.359c0.172-18.659-0.3-39.157-12.568-53.208c-14.152-16.209-38.382-17.697-59.888-17.991   c-92.58-1.263-185.076-1.084-277.664-0.631C116.363,77.218,89.866,77.478,63.371,77.478z"/>
	<path style="fill:#EF6161;" d="M420.521,77.719c-12.172-0.166-24.341-0.304-36.51-0.423c10.059,1.706,46.876-2.9,65.485,18.414   c12.268,14.052,12.74,34.549,12.568,53.208c-0.714,77.453-1.428,154.906-2.143,232.359c-0.149,16.125-1.254,34.397-13.579,44.783   c-13.745,11.583-34.247,7.618-46.674,10.475c14.064-0.379,28.128-0.794,42.189-1.249c12.431-0.402,25.884-1.209,35.397-9.226   c12.326-10.387,13.431-28.658,13.579-44.783c0.714-77.453,1.428-154.906,2.143-232.359c0.172-18.659-0.3-39.157-12.568-53.208   C466.257,79.5,442.027,78.012,420.521,77.719z"/>
	<path style="fill:#FFCFC9;" d="M188.239,203.172c6.904,34.243,14.838,69.908,5.678,103.605   c-10.026,36.86-39.723,67.827-41.578,105.975c-0.443,9.035,0.721,17.874,2.957,26.537c-20.166-0.072-40.321-0.237-60.486-0.484   c-17.775-0.216-37.075-1.03-50.749-12.383c-3.37-2.802-6.152-6.016-8.45-9.55c8.058-13.454,18.589-25.816,29.244-37.334   c20.083-21.716,42.031-43.185,52.243-70.948c11.634-31.647,6.296-66.591,6.894-100.299c0.711-39.899,10.243-79.571,27.42-115.566   c2.566-5.357,5.338-10.559,8.233-15.71c12.994-0.062,25.977-0.113,38.961-0.165c-2.349,8.025-6.554,15.37-9.717,23.128   C175.678,132.306,181.335,168.939,188.239,203.172z"/>
	<path style="fill:#FFCFC9;" d="M448.465,88.596c-3.504,29.37-23.133,54.054-43.216,75.77   c-20.083,21.716-42.031,43.175-52.243,70.938c-11.634,31.647-6.296,66.591-6.894,100.309c-0.628,35.15-8.099,70.135-21.629,102.585   c-13.777,0.237-27.554,0.443-41.331,0.608c10.675-31.05,5.255-65.643-1.288-98.083c-6.904-34.233-14.838-69.898-5.678-103.605   c10.026-36.86,39.733-67.817,41.588-105.975c0.917-18.904-5.193-37.004-13.344-54.332c38.693,0.103,77.386,0.381,116.089,0.906   c9.274,0.124,19.032,0.474,28.286,2.133C448.939,82.785,448.805,85.742,448.465,88.596z"/>
</g>















</svg>
