<?xml version="1.0" encoding="iso-8859-1"?>
<!-- Generator: Adobe Illustrator 19.0.0, SVG Export Plug-In . SVG Version: 6.00 Build 0)  -->
<svg version="1.1" id="Capa_1" xmlns="http://www.w3.org/2000/svg" xmlns:xlink="http://www.w3.org/1999/xlink" x="0px" y="0px"
	 viewBox="0 0 512 512" style="enable-background:new 0 0 512 512;" xml:space="preserve">
<g>
	<path style="fill:#F5A9A2;" d="M99.911,366.654c26.342-27.683,14.415-40.21,40.757-67.893s38.268-15.157,64.618-42.84
		s14.433-40.227,40.792-67.919s38.268-15.157,64.618-42.849s14.442-40.236,40.801-67.972c26.165-27.463,36.917-14.415,62.817-41.287
		L379.586,0c-26.368,27.71-37.032,14.195-63.4,41.896c-26.368,27.701-14.442,40.236-40.801,67.972s-38.276,15.13-64.618,42.849
		s-14.433,40.227-40.792,67.919s-38.268,15.157-64.618,42.84S90.924,303.669,64.6,331.343S26.342,343.075,0,370.759l34.172,36.449
		l1.139-1.139C61.652,378.386,73.569,394.328,99.911,366.654z"/>
	<path style="fill:#F5A9A2;" d="M475.083,98.692c-25.176,25.468-35.981,13.188-61.793,40.307
		c-26.359,27.71-14.442,40.236-40.801,67.972c-26.359,27.736-38.276,15.13-64.618,42.849
		c-26.342,27.719-14.433,40.227-40.792,67.919c-26.359,27.692-38.268,15.157-64.618,42.84s-14.433,40.192-40.757,67.866
		s-38.259,11.732-64.6,39.415l-3.134,3.134L132.414,512c26.342-27.683,37.005-15.148,63.347-42.831s14.415-40.21,40.757-67.884
		c26.342-27.674,38.268-15.157,64.618-42.849c26.35-27.692,14.424-40.227,40.783-67.919c26.359-27.692,38.268-15.157,64.618-42.849
		c26.35-27.692,14.442-40.236,40.81-67.972c26.368-27.736,38.285-15.148,64.653-42.867L475.083,98.692z"/>
</g>
<path style="fill:#E68783;" d="M161.704,428.447c26.342-27.683,14.415-40.21,40.757-67.893s38.268-15.157,64.618-42.84
	c26.35-27.683,14.433-40.227,40.792-67.919c26.359-27.692,38.268-15.157,64.618-42.849c26.35-27.692,14.442-40.236,40.801-67.972
	c25.812-27.118,36.617-14.839,61.793-40.307l-60.769-62.773c-25.9,26.871-36.652,13.824-62.817,41.313
	c-26.359,27.71-14.442,40.236-40.801,67.972c-26.359,27.736-38.276,15.13-64.618,42.849s-14.433,40.227-40.792,67.919
	c-26.359,27.692-38.268,15.157-64.618,42.84c-26.35,27.683-14.433,40.192-40.757,67.866s-38.259,11.732-64.6,39.415l-1.139,1.139
	l59.798,63.788l3.134-3.134C123.445,440.179,135.362,456.121,161.704,428.447z"/>
<g>
	<path style="fill:#F0A09C;" d="M99.911,366.654c18.176-19.103,18.141-30.994,25.026-45.621c-19.562,2.94-38.912,5.447-57.874,7.574
		c-0.812,0.883-1.562,1.766-2.463,2.737C38.259,359.018,26.342,343.075,0,370.759l34.172,36.449l1.139-1.139
		C61.652,378.386,73.569,394.328,99.911,366.654z"/>
	<path style="fill:#F0A09C;" d="M267.079,317.714c-26.35,27.683-38.268,15.157-64.618,42.84s-14.433,40.218-40.757,67.893
		s-38.259,11.732-64.6,39.415l-3.134,3.134L132.414,512c26.342-27.683,37.005-15.148,63.347-42.831s14.415-40.21,40.757-67.884
		c26.342-27.674,38.268-15.157,64.618-42.849c26.35-27.692,14.424-40.227,40.783-67.919c26.359-27.692,38.268-15.157,64.618-42.849
		c4.14-4.273,7.865-8.934,11.123-13.921c-41.86,21.619-85.725,39.097-130.975,52.189
		C282.712,297.905,275.994,308.789,267.079,317.714z"/>
</g>
<path style="fill:#DE7C78;" d="M161.704,428.447c26.342-27.683,14.415-40.21,40.757-67.893s38.268-15.157,64.618-42.84
	c8.916-8.925,15.634-19.809,19.606-31.779c-53.036,15.439-107.079,27.171-161.748,35.099c-6.886,14.627-6.85,26.483-25.026,45.621
	c-26.342,27.674-38.259,11.732-64.6,39.415l-1.139,1.139l59.798,63.788l3.134-3.134
	C123.445,440.179,135.362,456.121,161.704,428.447z"/>
<g>
</g>
<g>
</g>
<g>
</g>
<g>
</g>
<g>
</g>
<g>
</g>
<g>
</g>
<g>
</g>
<g>
</g>
<g>
</g>
<g>
</g>
<g>
</g>
<g>
</g>
<g>
</g>
<g>
</g>
</svg>
