<svg height="512" viewBox="0 0 48 48" width="512" xmlns="http://www.w3.org/2000/svg"><g id="_15-baklava_turkey" data-name="15-baklava, turkey"><path d="m4 40h18v3h-18z" fill="#eb8e41"/><path d="m26 40h18v3h-18z" fill="#eb8e41"/><path d="m33 24v1h-18v-3h18z" fill="#d56334"/><path d="m33 17v3c0-1.66-4.03-3-9-3s-9 1.34-9 3v-3c0-1.66 4.03-3 9-3s9 1.34 9 3z" fill="#e6642f"/><path d="m33 15v2c0-1.66-4.03-3-9-3s-9 1.34-9 3v-2a7.91 7.91 0 0 1 .15-1.55c.77-1.39 4.44-2.45 8.85-2.45s8.08 1.06 8.85 2.45a7.91 7.91 0 0 1 .15 1.55z" fill="#ef8900"/><path d="m33 20v2h-18v-2c0-1.66 4.03-3 9-3s9 1.34 9 3z" fill="#81a54b"/><path d="m13 35c-4.97 0-9 1.34-9 3v-3c0-1.66 4.03-3 9-3s9 1.34 9 3v3c0-1.66-4.03-3-9-3z" fill="#e6642f"/><path d="m22 35c0-1.66-4.03-3-9-3s-9 1.34-9 3v-2a7.91 7.91 0 0 1 .15-1.55c.77-1.39 4.44-2.45 8.85-2.45s8.08 1.06 8.85 2.45a7.91 7.91 0 0 1 .15 1.55z" fill="#ef8900"/><path d="m35 35c-4.97 0-9 1.34-9 3v-3c0-1.66 4.03-3 9-3s9 1.34 9 3v3c0-1.66-4.03-3-9-3z" fill="#e6642f"/><path d="m44 35c0-1.66-4.03-3-9-3s-9 1.34-9 3v-2a7.91 7.91 0 0 1 .15-1.55c.77-1.39 4.44-2.45 8.85-2.45s8.08 1.06 8.85 2.45a7.91 7.91 0 0 1 .15 1.55z" fill="#ef8900"/><path d="m26 38c0-1.66 4.03-3 9-3s9 1.34 9 3v2h-18z" fill="#81a54b"/><path d="m4 38c0-1.66 4.03-3 9-3s9 1.34 9 3v2h-18z" fill="#81a54b"/><path d="m11.3 25.03c.23-.02.46-.03.7-.03h2a8.1 8.1 0 0 1 .99.06 8 8 0 0 1 6.86 6.39c-.77-1.39-4.44-2.45-8.85-2.45s-8.08 1.06-8.85 2.45a8.023 8.023 0 0 1 6.84-6.39z" fill="#f49b00"/><path d="m36.7 25.03.31.03a8.023 8.023 0 0 1 6.84 6.39c-.77-1.39-4.44-2.45-8.85-2.45s-8.08 1.06-8.85 2.45a8 8 0 0 1 7.15-6.42c.23-.02.46-.03.7-.03h2c.24 0 .47.01.7.03z" fill="#f49b00"/><path d="m9 23a2.006 2.006 0 0 1 2 2c0 .02-.01.04-.01.06a7.942 7.942 0 0 0 -3.45 1.3 2 2 0 0 1 1.46-3.36z" fill="#81a54b"/><path d="m39 23a2 2 0 0 1 1.46 3.36 7.942 7.942 0 0 0 -3.45-1.3c0-.02-.01-.04-.01-.06a2.006 2.006 0 0 1 2-2z" fill="#81a54b"/><path d="m33.3 25.03a1.937 1.937 0 0 1 -.3-1.03 2.006 2.006 0 0 1 2-2 2.582 2.582 0 0 1 .29.03 2 2 0 1 1 1.71.97 2.582 2.582 0 0 1 -.29-.03 1.994 1.994 0 0 1 .29 1.03 1.937 1.937 0 0 1 -.3 1.03c-.23-.02-.46-.03-.7-.03h-2c-.24 0-.47.01-.7.03z" fill="#81a54b"/><path d="m28 5a2 2 0 0 1 1.46 3.36 7.942 7.942 0 0 0 -3.45-1.3c0-.02-.01-.04-.01-.06a2.006 2.006 0 0 1 2-2z" fill="#81a54b"/><path d="m20 5a2.006 2.006 0 0 1 2 2c0 .02-.01.04-.01.06a7.942 7.942 0 0 0 -3.45 1.3 2 2 0 0 1 1.46-3.36z" fill="#81a54b"/><path d="m28 3a2.006 2.006 0 0 1 -2 2 2.582 2.582 0 0 1 -.29-.03 1.994 1.994 0 0 1 .29 1.03 1.937 1.937 0 0 1 -.3 1.03c-.23-.02-.46-.03-.7-.03h-2c-.24 0-.47.01-.7.03a1.937 1.937 0 0 1 -.3-1.03 2.006 2.006 0 0 1 2-2 2.582 2.582 0 0 1 .29.03 2 2 0 1 1 3.71-1.03z" fill="#81a54b"/><path d="m25.7 7.03.31.03a8.023 8.023 0 0 1 6.84 6.39c-.77-1.39-4.44-2.45-8.85-2.45s-8.08 1.06-8.85 2.45a8.023 8.023 0 0 1 6.84-6.39l.31-.03c.23-.02.46-.03.7-.03h2c.24 0 .47.01.7.03z" fill="#f49b00"/><path d="m44 43h3a3.995 3.995 0 0 1 -4 4h-38a4 4 0 0 1 -4-4z" fill="#ccd3eb"/><path d="m4 40h18v3h-18z" fill="#eb8e41"/><path d="m26 40h18v3h-18z" fill="#eb8e41"/><path d="m13 35c-4.97 0-9 1.34-9 3v-3c0-1.66 4.03-3 9-3s9 1.34 9 3v3c0-1.66-4.03-3-9-3z" fill="#e6642f"/><path d="m22 35c0-1.66-4.03-3-9-3s-9 1.34-9 3v-2a7.91 7.91 0 0 1 .15-1.55c.77-1.39 4.44-2.45 8.85-2.45s8.08 1.06 8.85 2.45a7.91 7.91 0 0 1 .15 1.55z" fill="#ef8900"/><path d="m35 35c-4.97 0-9 1.34-9 3v-3c0-1.66 4.03-3 9-3s9 1.34 9 3v3c0-1.66-4.03-3-9-3z" fill="#e6642f"/><path d="m44 35c0-1.66-4.03-3-9-3s-9 1.34-9 3v-2a7.91 7.91 0 0 1 .15-1.55c.77-1.39 4.44-2.45 8.85-2.45s8.08 1.06 8.85 2.45a7.91 7.91 0 0 1 .15 1.55z" fill="#ef8900"/><path d="m26 38c0-1.66 4.03-3 9-3s9 1.34 9 3v2h-18z" fill="#5c8936"/><path d="m4 38c0-1.66 4.03-3 9-3s9 1.34 9 3v2h-18z" fill="#5c8936"/><path d="m11.3 25.03c.23-.02.46-.03.7-.03h2a8.1 8.1 0 0 1 .99.06 8 8 0 0 1 6.86 6.39c-.77-1.39-4.44-2.45-8.85-2.45s-8.08 1.06-8.85 2.45a8.023 8.023 0 0 1 6.84-6.39z" fill="#f49b00"/><path d="m36.7 25.03.31.03a8.023 8.023 0 0 1 6.84 6.39c-.77-1.39-4.44-2.45-8.85-2.45s-8.08 1.06-8.85 2.45a8 8 0 0 1 7.15-6.42c.23-.02.46-.03.7-.03h2c.24 0 .47.01.7.03z" fill="#f49b00"/><path d="m9 23a2.006 2.006 0 0 1 2 2c0 .02-.01.04-.01.06a7.942 7.942 0 0 0 -3.45 1.3 2 2 0 0 1 1.46-3.36z" fill="#81a54b"/><path d="m39 23a2 2 0 0 1 1.46 3.36 7.942 7.942 0 0 0 -3.45-1.3c0-.02-.01-.04-.01-.06a2.006 2.006 0 0 1 2-2z" fill="#81a54b"/><path d="m33.3 25.03a1.937 1.937 0 0 1 -.3-1.03 2.006 2.006 0 0 1 2-2 2.582 2.582 0 0 1 .29.03 2 2 0 1 1 1.71.97 2.582 2.582 0 0 1 -.29-.03 1.994 1.994 0 0 1 .29 1.03 1.937 1.937 0 0 1 -.3 1.03c-.23-.02-.46-.03-.7-.03h-2c-.24 0-.47.01-.7.03z" fill="#81a54b"/><path d="m44 43h3a3.995 3.995 0 0 1 -4 4h-38a4 4 0 0 1 -4-4z" fill="#ccd3eb"/><path d="m45.83 44.83a4.025 4.025 0 0 1 -2.83 1.17h-38a3.99 3.99 0 0 1 -3.859-3h-.141a4 4 0 0 0 4 4h38a3.995 3.995 0 0 0 4-4h-.143a4.056 4.056 0 0 1 -1.027 1.83z" fill="#7989af"/><path d="m44 42v1h-18v-3h18z" fill="#d56334"/><path d="m44 35v3c0-1.66-4.03-3-9-3s-9 1.34-9 3v-3c0-1.66 4.03-3 9-3s9 1.34 9 3z" fill="#e6642f"/><path d="m35 32c-4.97 0-9 1.34-9 3v1c0-1.66 4.03-3 9-3s9 1.34 9 3v-1c0-1.66-4.03-3-9-3z" fill="#f49b00"/><path d="m35 34c-4.97 0-9 1.34-9 3v1c0-1.66 4.03-3 9-3s9 1.34 9 3v-1c0-1.66-4.03-3-9-3z" fill="#f49b00"/><path d="m44 33v2c0-1.66-4.03-3-9-3s-9 1.34-9 3v-2a7.91 7.91 0 0 1 .15-1.55c.77-1.39 4.44-2.45 8.85-2.45s8.08 1.06 8.85 2.45a7.91 7.91 0 0 1 .15 1.55z" fill="#ef8900"/><path d="m43.85 31.45c-.77-1.39-4.44-2.45-8.85-2.45s-8.08 1.06-8.85 2.45a7.91 7.91 0 0 0 -.15 1.55v1a7.91 7.91 0 0 1 .15-1.55c.77-1.39 4.44-2.45 8.85-2.45s8.08 1.06 8.85 2.45a7.91 7.91 0 0 1 .15 1.55v-1a7.91 7.91 0 0 0 -.15-1.55z" fill="#ffa131"/><path d="m44 38v2h-18v-2c0-1.66 4.03-3 9-3s9 1.34 9 3z" fill="#5c8936"/><path d="m35 35c-4.97 0-9 1.34-9 3v1c0-1.66 4.03-3 9-3s9 1.34 9 3v-1c0-1.66-4.03-3-9-3z" fill="#98c95c"/><path d="m35 36c-4.97 0-9 1.34-9 3v1c0-1.66 4.03-3 9-3s9 1.34 9 3v-1c0-1.66-4.03-3-9-3z" fill="#81a54b"/><path d="m39 23a2 2 0 0 1 1.46 3.36 7.942 7.942 0 0 0 -3.45-1.3c0-.02-.01-.04-.01-.06a2.006 2.006 0 0 1 2-2z" fill="#b6aa00"/><path d="m31 23a2.006 2.006 0 0 1 2 2c0 .02-.01.04-.01.06a7.942 7.942 0 0 0 -3.45 1.3 2 2 0 0 1 1.46-3.36z" fill="#b6aa00"/><path d="m39 21a2.006 2.006 0 0 1 -2 2 2.582 2.582 0 0 1 -.29-.03 1.994 1.994 0 0 1 .29 1.03 1.937 1.937 0 0 1 -.3 1.03c-.23-.02-.46-.03-.7-.03h-2c-.24 0-.47.01-.7.03a1.937 1.937 0 0 1 -.3-1.03 2.006 2.006 0 0 1 2-2 2.582 2.582 0 0 1 .29.03 2 2 0 1 1 3.71-1.03z" fill="#b6aa00"/><path d="m36.7 25.03.31.03a8.023 8.023 0 0 1 6.84 6.39c-.77-1.39-4.44-2.45-8.85-2.45s-8.08 1.06-8.85 2.45a8.023 8.023 0 0 1 6.84-6.39l.31-.03c.23-.02.46-.03.7-.03h2c.24 0 .47.01.7.03z" fill="#f49b00"/><path d="m37.01 25.06a7.942 7.942 0 0 1 3.45 1.3 2.069 2.069 0 0 0 .416-.691c-.137-.105-.272-.212-.416-.309a7.947 7.947 0 0 0 -3.235-1.26 1.97 1.97 0 0 0 -.225.9c0 .02.01.04.01.06z" fill="#7d8600"/><path d="m32.99 25.06c0-.02.01-.04.01-.06a1.97 1.97 0 0 0 -.225-.9 7.947 7.947 0 0 0 -3.235 1.26c-.144.1-.279.2-.416.309a2.069 2.069 0 0 0 .416.691 7.942 7.942 0 0 1 3.45-1.3z" fill="#7d8600"/><path d="m34 25h2c.24 0 .47.01.7.03a1.951 1.951 0 0 0 .292-.972l-.292-.028c-.23-.02-.46-.03-.7-.03h-2c-.24 0-.47.01-.7.03l-.292.028a1.951 1.951 0 0 0 .292.972c.23-.02.46-.03.7-.03z" fill="#7d8600"/><path d="m29.54 27.36a7.942 7.942 0 0 1 3.45-1.3l.31-.03c.23-.02.46-.03.7-.03h2c.24 0 .47.01.7.03l.31.03a8.027 8.027 0 0 1 6.368 4.845 2.036 2.036 0 0 1 .472.545 8.023 8.023 0 0 0 -6.84-6.39l-.31-.03c-.23-.02-.46-.03-.7-.03h-2c-.24 0-.47.01-.7.03l-.31.03a8.023 8.023 0 0 0 -6.84 6.39 2.036 2.036 0 0 1 .472-.545 7.983 7.983 0 0 1 2.918-3.545z" fill="#f9d124"/><path d="m29.54 28.36a7.942 7.942 0 0 1 3.45-1.3l.31-.03c.23-.02.46-.03.7-.03h2c.24 0 .47.01.7.03l.31.03a7.987 7.987 0 0 1 5.49 3.284 4.479 4.479 0 0 1 .881.561 8.027 8.027 0 0 0 -6.371-4.845l-.31-.03c-.23-.02-.46-.03-.7-.03h-2c-.24 0-.47.01-.7.03l-.31.03a8.027 8.027 0 0 0 -6.368 4.845 4.479 4.479 0 0 1 .881-.561 7.988 7.988 0 0 1 2.037-1.984z" fill="#fbb40a"/><path d="m35 31c-4.97 0-9 1.34-9 3v1c0-1.66 4.03-3 9-3s9 1.34 9 3v-1c0-1.66-4.03-3-9-3z" fill="#ffc547"/><ellipse cx="37.746" cy="39.5" fill="#b6aa00" rx=".574" ry=".413" transform="matrix(.707 -.707 .707 .707 -16.875 38.241)"/><ellipse cx="30.746" cy="39.5" fill="#b6aa00" rx=".574" ry=".413" transform="matrix(.707 -.707 .707 .707 -18.923 33.293)"/><ellipse cx="41.746" cy="38.5" fill="#b6aa00" rx=".574" ry=".413" transform="matrix(.707 -.707 .707 .707 -14.997 40.776)"/><ellipse cx="26.746" cy="39.5" fill="#b6aa00" rx=".574" ry=".413" transform="matrix(.707 -.707 .707 .707 -20.094 30.465)"/><ellipse cx="39.746" cy="38.5" fill="#b6aa00" rx=".574" ry=".413" transform="matrix(.707 -.707 .707 .707 -15.583 39.362)"/><ellipse cx="36.746" cy="38.5" fill="#b6aa00" rx=".413" ry=".574" transform="matrix(.707 -.707 .707 .707 -16.462 37.278)"/><ellipse cx="32.746" cy="39.5" fill="#b6aa00" rx=".413" ry=".574" transform="matrix(.707 -.707 .707 .707 -18.341 34.742)"/><ellipse cx="34.746" cy="37.5" fill="#b6aa00" rx=".574" ry=".413" transform="matrix(.707 -.707 .707 .707 -16.339 35.535)"/><ellipse cx="38.746" cy="39.5" fill="#b6aa00" rx=".413" ry=".574"/><ellipse cx="29.746" cy="38.5" fill="#b6aa00" rx=".413" ry=".574"/><ellipse cx="37.746" cy="37.5" fill="#b6aa00" rx=".413" ry=".574"/><ellipse cx="31.746" cy="38.5" fill="#b6aa00" rx=".413" ry=".574"/><ellipse cx="33" cy="38" fill="#b6aa00" rx=".825" ry="1.148"/><circle cx="40.5" cy="39.5" fill="#b6aa00" r=".5"/><circle cx="28.5" cy="39.5" fill="#b6aa00" r=".5"/><circle cx="35.5" cy="38.5" fill="#b6aa00" r=".5"/><circle cx="34.5" cy="39.5" fill="#b6aa00" r=".5"/><circle cx="36.5" cy="39.5" fill="#b6aa00" r=".5"/><circle cx="42.5" cy="39.5" fill="#b6aa00" r=".5"/><ellipse cx="39.746" cy="24.5" fill="#5c8936" rx=".413" ry=".574" transform="matrix(.707 -.707 .707 .707 -5.679 35.296)"/><ellipse cx="30.746" cy="23.5" fill="#5c8936" rx=".413" ry=".574" transform="matrix(.707 -.707 .707 .707 -7.61 28.637)"/><ellipse cx="35.746" cy="23.5" fill="#5c8936" rx=".413" ry=".574" transform="matrix(.707 -.707 .707 .707 -6.144 32.174)"/><ellipse cx="31.746" cy="24.5" fill="#5c8936" rx=".413" ry=".574" transform="matrix(.707 -.707 .707 .707 -8.024 29.637)"/><ellipse cx="35.746" cy="20.5" fill="#5c8936" rx=".413" ry=".574" transform="matrix(.707 -.707 .707 .707 -4.022 31.294)"/><ellipse cx="36.746" cy="21.5" fill="#5c8936" rx=".574" ry=".413" transform="matrix(.707 -.707 .707 .707 -4.444 32.266)"/><ellipse cx="34.746" cy="22.5" fill="#5c8936" rx=".574" ry=".413" transform="matrix(.707 -.707 .707 .707 -5.736 31.145)"/><circle cx="38.5" cy="24.5" fill="#5c8936" r=".5"/><circle cx="34.5" cy="23.5" fill="#5c8936" r=".5"/><circle cx="30.5" cy="24.5" fill="#5c8936" r=".5"/><circle cx="37.5" cy="20.5" fill="#5c8936" r=".5"/><ellipse cx="39.746" cy="26.5" fill="#b6aa00" rx=".413" ry=".574" transform="matrix(.707 -.707 .707 .707 -7.094 35.882)"/><ellipse cx="28.746" cy="28.5" fill="#b6aa00" rx=".413" ry=".574" transform="matrix(.707 -.707 .707 .707 -11.733 28.688)"/><ellipse cx="30.746" cy="26.5" fill="#b6aa00" rx=".413" ry=".574" transform="matrix(.707 -.707 .707 .707 -9.732 29.516)"/><ellipse cx="33.746" cy="25.5" fill="#b6aa00" rx=".413" ry=".574" transform="matrix(.707 -.707 .707 .707 -8.145 31.345)"/><ellipse cx="31.746" cy="27.5" fill="#b6aa00" rx=".413" ry=".574" transform="matrix(.707 -.707 .707 .707 -10.146 30.517)"/><ellipse cx="35.746" cy="25.5" fill="#b6aa00" rx=".413" ry=".574" transform="matrix(.707 -.707 .707 .707 -7.559 32.76)"/><ellipse cx="36.746" cy="26.5" fill="#b6aa00" rx=".574" ry=".413" transform="matrix(.707 -.707 .707 .707 -7.978 33.73)"/><ellipse cx="40.746" cy="27.5" fill="#b6aa00" rx=".574" ry=".413" transform="matrix(.707 -.707 .707 .707 -7.515 36.85)"/><ellipse cx="34.746" cy="26.5" fill="#b6aa00" rx=".574" ry=".413" transform="matrix(.707 -.707 .707 .707 -8.564 32.316)"/><circle cx="38.5" cy="26.5" fill="#b6aa00" r=".5"/><circle cx="39.5" cy="28.5" fill="#b6aa00" r=".5"/><circle cx="32.5" cy="26.5" fill="#b6aa00" r=".5"/><circle cx="29.5" cy="27.5" fill="#b6aa00" r=".5"/><circle cx="37.5" cy="25.5" fill="#b6aa00" r=".5"/><path d="m26 42h18v1h-18z" fill="#a34c2e"/><path d="m26 40h18v1h-18z" fill="#f49b00"/><path d="m4 42v1h18v-3h-18z" fill="#d56334"/><path d="m4 35v3c0-1.66 4.03-3 9-3s9 1.34 9 3v-3c0-1.66-4.03-3-9-3s-9 1.34-9 3z" fill="#e6642f"/><path d="m13 32c4.97 0 9 1.34 9 3v1c0-1.66-4.03-3-9-3s-9 1.34-9 3v-1c0-1.66 4.03-3 9-3z" fill="#f49b00"/><path d="m13 34c4.97 0 9 1.34 9 3v1c0-1.66-4.03-3-9-3s-9 1.34-9 3v-1c0-1.66 4.03-3 9-3z" fill="#f49b00"/><path d="m4 33v2c0-1.66 4.03-3 9-3s9 1.34 9 3v-2a7.91 7.91 0 0 0 -.15-1.55c-.77-1.39-4.44-2.45-8.85-2.45s-8.08 1.06-8.85 2.45a7.91 7.91 0 0 0 -.15 1.55z" fill="#ef8900"/><path d="m4.15 31.45c.77-1.39 4.44-2.45 8.85-2.45s8.08 1.06 8.85 2.45a7.91 7.91 0 0 1 .15 1.55v1a7.91 7.91 0 0 0 -.15-1.55c-.77-1.39-4.44-2.45-8.85-2.45s-8.08 1.06-8.85 2.45a7.91 7.91 0 0 0 -.15 1.55v-1a7.91 7.91 0 0 1 .15-1.55z" fill="#ffa131"/><path d="m4 38v2h18v-2c0-1.66-4.03-3-9-3s-9 1.34-9 3z" fill="#5c8936"/><path d="m13 35c4.97 0 9 1.34 9 3v1c0-1.66-4.03-3-9-3s-9 1.34-9 3v-1c0-1.66 4.03-3 9-3z" fill="#98c95c"/><path d="m13 36c4.97 0 9 1.34 9 3v1c0-1.66-4.03-3-9-3s-9 1.34-9 3v-1c0-1.66 4.03-3 9-3z" fill="#81a54b"/><path d="m9 23a2 2 0 0 0 -1.46 3.36 7.942 7.942 0 0 1 3.45-1.3c0-.02.01-.04.01-.06a2.006 2.006 0 0 0 -2-2z" fill="#b6aa00"/><path d="m17 23a2.006 2.006 0 0 0 -2 2c0 .02.01.04.01.06a7.942 7.942 0 0 1 3.45 1.3 2 2 0 0 0 -1.46-3.36z" fill="#b6aa00"/><path d="m9 21a2.006 2.006 0 0 0 2 2 2.582 2.582 0 0 0 .29-.03 1.994 1.994 0 0 0 -.29 1.03 1.937 1.937 0 0 0 .3 1.03c.23-.02.46-.03.7-.03h2c.24 0 .47.01.7.03a1.937 1.937 0 0 0 .3-1.03 2.006 2.006 0 0 0 -2-2 2.582 2.582 0 0 0 -.29.03 2 2 0 1 0 -3.71-1.03z" fill="#b6aa00"/><path d="m11.3 25.03-.31.03a8.023 8.023 0 0 0 -6.84 6.39c.77-1.39 4.44-2.45 8.85-2.45s8.08 1.06 8.85 2.45a8.023 8.023 0 0 0 -6.84-6.39l-.31-.03c-.23-.02-.46-.03-.7-.03h-2c-.24 0-.47.01-.7.03z" fill="#f49b00"/><path d="m10.99 25.06a7.942 7.942 0 0 0 -3.45 1.3 2.069 2.069 0 0 1 -.416-.691c.137-.105.272-.212.416-.309a7.947 7.947 0 0 1 3.235-1.26 1.97 1.97 0 0 1 .225.9c0 .02-.01.04-.01.06z" fill="#7d8600"/><path d="m15.01 25.06c0-.02-.01-.04-.01-.06a1.97 1.97 0 0 1 .225-.9 7.947 7.947 0 0 1 3.235 1.26c.144.1.279.2.416.309a2.069 2.069 0 0 1 -.416.691 7.942 7.942 0 0 0 -3.45-1.3z" fill="#7d8600"/><path d="m14 25h-2c-.24 0-.47.01-.7.03a1.951 1.951 0 0 1 -.292-.972l.292-.028c.23-.02.46-.03.7-.03h2c.24 0 .47.01.7.03l.292.028a1.951 1.951 0 0 1 -.292.972c-.23-.02-.46-.03-.7-.03z" fill="#7d8600"/><path d="m18.46 27.36a7.942 7.942 0 0 0 -3.45-1.3l-.31-.03c-.23-.02-.46-.03-.7-.03h-2c-.24 0-.47.01-.7.03l-.31.03a8.027 8.027 0 0 0 -6.368 4.845 2.036 2.036 0 0 0 -.472.545 8.023 8.023 0 0 1 6.84-6.39l.31-.03c.23-.02.46-.03.7-.03h2c.24 0 .47.01.7.03l.31.03a8.023 8.023 0 0 1 6.84 6.39 2.036 2.036 0 0 0 -.472-.545 7.983 7.983 0 0 0 -2.918-3.545z" fill="#f9d124"/><path d="m18.46 28.36a7.942 7.942 0 0 0 -3.45-1.3l-.31-.03c-.23-.02-.46-.03-.7-.03h-2c-.24 0-.47.01-.7.03l-.31.03a7.987 7.987 0 0 0 -5.49 3.284 4.479 4.479 0 0 0 -.881.561 8.027 8.027 0 0 1 6.371-4.845l.31-.03c.23-.02.46-.03.7-.03h2c.24 0 .47.01.7.03l.31.03a8.027 8.027 0 0 1 6.368 4.845 4.479 4.479 0 0 0 -.881-.561 7.988 7.988 0 0 0 -2.037-1.984z" fill="#fbb40a"/><path d="m13 31c4.97 0 9 1.34 9 3v1c0-1.66-4.03-3-9-3s-9 1.34-9 3v-1c0-1.66 4.03-3 9-3z" fill="#ffc547"/><ellipse cx="10.254" cy="39.5" fill="#b6aa00" rx=".413" ry=".574" transform="matrix(.707 -.707 .707 .707 -24.935 18.832)"/><ellipse cx="17.254" cy="39.5" fill="#b6aa00" rx=".413" ry=".574" transform="matrix(.707 -.707 .707 .707 -22.883 23.784)"/><ellipse cx="6.254" cy="38.5" fill="#b6aa00" rx=".413" ry=".574" transform="matrix(.707 -.707 .707 .707 -25.4 15.71)"/><ellipse cx="21.254" cy="39.5" fill="#b6aa00" rx=".413" ry=".574" transform="matrix(.707 -.707 .707 .707 -21.71 26.613)"/><ellipse cx="8.254" cy="38.5" fill="#b6aa00" rx=".413" ry=".574" transform="matrix(.707 -.707 .707 .707 -24.814 17.124)"/><ellipse cx="11.254" cy="38.5" fill="#b6aa00" rx=".574" ry=".413" transform="matrix(.707 -.707 .707 .707 -23.921 19.222)"/><ellipse cx="15.254" cy="39.5" fill="#b6aa00" rx=".574" ry=".413" transform="matrix(.707 -.707 .707 .707 -23.457 22.342)"/><ellipse cx="13.254" cy="37.5" fill="#b6aa00" rx=".413" ry=".574" transform="matrix(.707 -.707 .707 .707 -22.641 20.368)"/><ellipse cx="9.254" cy="39.5" fill="#b6aa00" rx=".413" ry=".574"/><ellipse cx="18.254" cy="38.5" fill="#b6aa00" rx=".413" ry=".574"/><ellipse cx="10.254" cy="37.5" fill="#b6aa00" rx=".413" ry=".574"/><ellipse cx="16.254" cy="38.5" fill="#b6aa00" rx=".413" ry=".574"/><ellipse cx="15" cy="38" fill="#b6aa00" rx=".825" ry="1.148"/><circle cx="7.5" cy="39.5" fill="#b6aa00" r=".5"/><circle cx="19.5" cy="39.5" fill="#b6aa00" r=".5"/><circle cx="12.5" cy="38.5" fill="#b6aa00" r=".5"/><circle cx="13.5" cy="39.5" fill="#b6aa00" r=".5"/><circle cx="11.5" cy="39.5" fill="#b6aa00" r=".5"/><circle cx="5.5" cy="39.5" fill="#b6aa00" r=".5"/><ellipse cx="8.254" cy="24.5" fill="#5c8936" rx=".574" ry=".413" transform="matrix(.707 -.707 .707 .707 -14.903 13.005)"/><ellipse cx="17.254" cy="23.5" fill="#5c8936" rx=".574" ry=".413" transform="matrix(.707 -.707 .707 .707 -11.562 19.074)"/><ellipse cx="12.254" cy="23.5" fill="#5c8936" rx=".574" ry=".413" transform="matrix(.707 -.707 .707 .707 -13.025 15.539)"/><ellipse cx="16.254" cy="24.5" fill="#5c8936" rx=".574" ry=".413" transform="matrix(.707 -.707 .707 .707 -12.562 18.659)"/><ellipse cx="12.254" cy="20.5" fill="#5c8936" rx=".574" ry=".413" transform="matrix(.707 -.707 .707 .707 -10.905 14.661)"/><ellipse cx="11.254" cy="21.5" fill="#5c8936" rx=".413" ry=".574" transform="matrix(.707 -.707 .707 .707 -11.909 14.263)"/><ellipse cx="13.254" cy="22.5" fill="#5c8936" rx=".413" ry=".574" transform="matrix(.707 -.707 .707 .707 -12.03 15.971)"/><circle cx="9.5" cy="24.5" fill="#5c8936" r=".5"/><circle cx="13.5" cy="23.5" fill="#5c8936" r=".5"/><circle cx="17.5" cy="24.5" fill="#5c8936" r=".5"/><circle cx="10.5" cy="20.5" fill="#5c8936" r=".5"/><ellipse cx="8.254" cy="26.5" fill="#b6aa00" rx=".574" ry=".413" transform="matrix(.707 -.707 .707 .707 -16.316 13.59)"/><ellipse cx="19.254" cy="28.5" fill="#b6aa00" rx=".574" ry=".413" transform="matrix(.707 -.707 .707 .707 -14.511 21.951)"/><ellipse cx="17.254" cy="26.5" fill="#b6aa00" rx=".574" ry=".413" transform="matrix(.707 -.707 .707 .707 -13.683 19.952)"/><ellipse cx="14.254" cy="25.5" fill="#b6aa00" rx=".574" ry=".413" transform="matrix(.707 -.707 .707 .707 -13.854 17.538)"/><ellipse cx="16.254" cy="27.5" fill="#b6aa00" rx=".574" ry=".413" transform="matrix(.707 -.707 .707 .707 -14.682 19.537)"/><ellipse cx="12.254" cy="25.5" fill="#b6aa00" rx=".574" ry=".413" transform="matrix(.707 -.707 .707 .707 -14.439 16.125)"/><ellipse cx="11.254" cy="26.5" fill="#b6aa00" rx=".413" ry=".574" transform="matrix(.707 -.707 .707 .707 -15.446 15.729)"/><ellipse cx="7.254" cy="27.5" fill="#b6aa00" rx=".413" ry=".574" transform="matrix(.707 -.707 .707 .707 -17.326 13.193)"/><ellipse cx="13.254" cy="26.5" fill="#b6aa00" rx=".413" ry=".574" transform="matrix(.707 -.707 .707 .707 -14.86 17.143)"/><circle cx="9.5" cy="26.5" fill="#b6aa00" r=".5"/><circle cx="8.5" cy="28.5" fill="#b6aa00" r=".5"/><circle cx="15.5" cy="26.5" fill="#b6aa00" r=".5"/><circle cx="18.5" cy="27.5" fill="#b6aa00" r=".5"/><circle cx="10.5" cy="25.5" fill="#b6aa00" r=".5"/><path d="m4 42h18v1h-18z" fill="#a34c2e" transform="matrix(-1 0 0 -1 26 85)"/><path d="m4 40h18v1h-18z" fill="#f49b00" transform="matrix(-1 0 0 -1 26 81)"/><path d="m33 24v1h-18v-3h18z" fill="#d56334"/><path d="m33 17v3c0-1.66-4.03-3-9-3s-9 1.34-9 3v-3c0-1.66 4.03-3 9-3s9 1.34 9 3z" fill="#e6642f"/><path d="m24 14c-4.97 0-9 1.34-9 3v1c0-1.66 4.03-3 9-3s9 1.34 9 3v-1c0-1.66-4.03-3-9-3z" fill="#f49b00"/><path d="m24 16c-4.97 0-9 1.34-9 3v1c0-1.66 4.03-3 9-3s9 1.34 9 3v-1c0-1.66-4.03-3-9-3z" fill="#f49b00"/><path d="m33 15v2c0-1.66-4.03-3-9-3s-9 1.34-9 3v-2a7.91 7.91 0 0 1 .15-1.55c.77-1.39 4.44-2.45 8.85-2.45s8.08 1.06 8.85 2.45a7.91 7.91 0 0 1 .15 1.55z" fill="#ef8900"/><path d="m32.85 13.45c-.77-1.39-4.44-2.45-8.85-2.45s-8.08 1.06-8.85 2.45a7.91 7.91 0 0 0 -.15 1.55v1a7.91 7.91 0 0 1 .15-1.55c.77-1.39 4.44-2.45 8.85-2.45s8.08 1.06 8.85 2.45a7.91 7.91 0 0 1 .15 1.55v-1a7.91 7.91 0 0 0 -.15-1.55z" fill="#ffa131"/><path d="m33 20v2h-18v-2c0-1.66 4.03-3 9-3s9 1.34 9 3z" fill="#5c8936"/><path d="m24 17c-4.97 0-9 1.34-9 3v1c0-1.66 4.03-3 9-3s9 1.34 9 3v-1c0-1.66-4.03-3-9-3z" fill="#98c95c"/><path d="m24 18c-4.97 0-9 1.34-9 3v1c0-1.66 4.03-3 9-3s9 1.34 9 3v-1c0-1.66-4.03-3-9-3z" fill="#81a54b"/><path d="m28 5a2 2 0 0 1 1.46 3.36 7.942 7.942 0 0 0 -3.45-1.3c0-.02-.01-.04-.01-.06a2.006 2.006 0 0 1 2-2z" fill="#b6aa00"/><path d="m20 5a2.006 2.006 0 0 1 2 2c0 .02-.01.04-.01.06a7.942 7.942 0 0 0 -3.45 1.3 2 2 0 0 1 1.46-3.36z" fill="#b6aa00"/><path d="m28 3a2.006 2.006 0 0 1 -2 2 2.582 2.582 0 0 1 -.29-.03 1.994 1.994 0 0 1 .29 1.03 1.937 1.937 0 0 1 -.3 1.03c-.23-.02-.46-.03-.7-.03h-2c-.24 0-.47.01-.7.03a1.937 1.937 0 0 1 -.3-1.03 2.006 2.006 0 0 1 2-2 2.582 2.582 0 0 1 .29.03 2 2 0 1 1 3.71-1.03z" fill="#b6aa00"/><path d="m25.7 7.03.31.03a8.023 8.023 0 0 1 6.84 6.39c-.77-1.39-4.44-2.45-8.85-2.45s-8.08 1.06-8.85 2.45a8.023 8.023 0 0 1 6.84-6.39l.31-.03c.23-.02.46-.03.7-.03h2c.24 0 .47.01.7.03z" fill="#f49b00"/><path d="m26.01 7.06a7.942 7.942 0 0 1 3.45 1.3 2.069 2.069 0 0 0 .416-.691c-.137-.1-.272-.212-.416-.309a7.947 7.947 0 0 0 -3.235-1.26 1.97 1.97 0 0 0 -.225.9c0 .02.01.04.01.06z" fill="#7d8600"/><path d="m21.99 7.06c0-.02.01-.04.01-.06a1.97 1.97 0 0 0 -.225-.9 7.947 7.947 0 0 0 -3.235 1.26c-.144.1-.279.2-.416.309a2.069 2.069 0 0 0 .416.691 7.942 7.942 0 0 1 3.45-1.3z" fill="#7d8600"/><path d="m23 7h2c.24 0 .47.01.7.03a1.951 1.951 0 0 0 .292-.972l-.292-.028c-.23-.02-.46-.03-.7-.03h-2c-.24 0-.47.01-.7.03l-.292.028a1.951 1.951 0 0 0 .292.972c.23-.02.46-.03.7-.03z" fill="#7d8600"/><path d="m18.54 9.36a7.942 7.942 0 0 1 3.45-1.3l.31-.03c.23-.02.46-.03.7-.03h2c.24 0 .47.01.7.03l.31.03a8.027 8.027 0 0 1 6.368 4.845 2.036 2.036 0 0 1 .472.545 8.023 8.023 0 0 0 -6.84-6.39l-.31-.03c-.23-.02-.46-.03-.7-.03h-2c-.24 0-.47.01-.7.03l-.31.03a8.023 8.023 0 0 0 -6.84 6.39 2.036 2.036 0 0 1 .472-.545 7.983 7.983 0 0 1 2.918-3.545z" fill="#f9d124"/><path d="m18.54 10.36a7.942 7.942 0 0 1 3.45-1.3l.31-.03c.23-.02.46-.03.7-.03h2c.24 0 .47.01.7.03l.31.03a7.987 7.987 0 0 1 5.49 3.284 4.479 4.479 0 0 1 .881.561 8.027 8.027 0 0 0 -6.371-4.845l-.31-.03c-.23-.02-.46-.03-.7-.03h-2c-.24 0-.47.01-.7.03l-.31.03a8.027 8.027 0 0 0 -6.368 4.845 4.479 4.479 0 0 1 .881-.561 7.988 7.988 0 0 1 2.037-1.984z" fill="#fbb40a"/><path d="m24 13c-4.97 0-9 1.34-9 3v1c0-1.66 4.03-3 9-3s9 1.34 9 3v-1c0-1.66-4.03-3-9-3z" fill="#ffc547"/><ellipse cx="26.746" cy="21.5" fill="#b6aa00" rx=".574" ry=".413" transform="matrix(.707 -.707 .707 .707 -7.371 25.198)"/><ellipse cx="19.746" cy="21.5" fill="#b6aa00" rx=".574" ry=".413" transform="matrix(.707 -.707 .707 .707 -9.419 20.25)"/><ellipse cx="30.746" cy="20.5" fill="#b6aa00" rx=".574" ry=".413" transform="matrix(.707 -.707 .707 .707 -5.493 27.733)"/><ellipse cx="15.746" cy="21.5" fill="#b6aa00" rx=".574" ry=".413" transform="matrix(.707 -.707 .707 .707 -10.59 17.422)"/><ellipse cx="28.746" cy="20.5" fill="#b6aa00" rx=".574" ry=".413" transform="matrix(.707 -.707 .707 .707 -6.078 26.319)"/><ellipse cx="25.746" cy="20.5" fill="#b6aa00" rx=".413" ry=".574" transform="matrix(.707 -.707 .707 .707 -6.954 24.221)"/><ellipse cx="21.746" cy="21.5" fill="#b6aa00" rx=".413" ry=".574" transform="matrix(.707 -.707 .707 .707 -8.834 21.684)"/><ellipse cx="23.746" cy="19.5" fill="#b6aa00" rx=".574" ry=".413" transform="matrix(.707 -.707 .707 .707 -6.835 22.492)"/><ellipse cx="27.746" cy="21.5" fill="#b6aa00" rx=".413" ry=".574"/><ellipse cx="18.746" cy="20.5" fill="#b6aa00" rx=".413" ry=".574"/><ellipse cx="26.746" cy="19.5" fill="#b6aa00" rx=".413" ry=".574"/><ellipse cx="20.746" cy="20.5" fill="#b6aa00" rx=".413" ry=".574"/><ellipse cx="22" cy="20" fill="#b6aa00" rx=".825" ry="1.148"/><circle cx="29.5" cy="21.5" fill="#b6aa00" r=".5"/><circle cx="17.5" cy="21.5" fill="#b6aa00" r=".5"/><circle cx="24.5" cy="20.5" fill="#b6aa00" r=".5"/><circle cx="23.5" cy="21.5" fill="#b6aa00" r=".5"/><circle cx="25.5" cy="21.5" fill="#b6aa00" r=".5"/><circle cx="31.5" cy="21.5" fill="#b6aa00" r=".5"/><ellipse cx="28.746" cy="6.5" fill="#5c8936" rx=".413" ry=".574" transform="matrix(.707 -.707 .707 .707 3.829 22.239)"/><ellipse cx="19.746" cy="5.5" fill="#5c8936" rx=".413" ry=".574" transform="matrix(.707 -.707 .707 .707 1.898 15.58)"/><ellipse cx="24.746" cy="5.5" fill="#5c8936" rx=".413" ry=".574" transform="matrix(.707 -.707 .707 .707 3.363 19.116)"/><ellipse cx="20.746" cy="6.5" fill="#5c8936" rx=".413" ry=".574" transform="matrix(.707 -.707 .707 .707 1.483 16.58)"/><ellipse cx="24.746" cy="2.5" fill="#5c8936" rx=".413" ry=".574" transform="matrix(.707 -.707 .707 .707 5.485 18.237)"/><ellipse cx="25.746" cy="3.5" fill="#5c8936" rx=".574" ry=".413" transform="matrix(.707 -.707 .707 .707 5.06 19.223)"/><ellipse cx="23.746" cy="4.5" fill="#5c8936" rx=".574" ry=".413" transform="matrix(.707 -.707 .707 .707 3.768 18.102)"/><circle cx="27.5" cy="6.5" fill="#5c8936" r=".5"/><circle cx="23.5" cy="5.5" fill="#5c8936" r=".5"/><circle cx="19.5" cy="6.5" fill="#5c8936" r=".5"/><circle cx="26.5" cy="2.5" fill="#5c8936" r=".5"/><ellipse cx="28.746" cy="8.5" fill="#b6aa00" rx=".413" ry=".574" transform="matrix(.707 -.707 .707 .707 2.414 22.825)"/><ellipse cx="17.746" cy="10.5" fill="#b6aa00" rx=".413" ry=".574" transform="matrix(.707 -.707 .707 .707 -2.225 15.631)"/><ellipse cx="19.746" cy="8.5" fill="#b6aa00" rx=".413" ry=".574" transform="matrix(.707 -.707 .707 .707 -.224 16.459)"/><ellipse cx="22.746" cy="7.5" fill="#b6aa00" rx=".413" ry=".574" transform="matrix(.707 -.707 .707 .707 1.362 18.288)"/><ellipse cx="20.746" cy="9.5" fill="#b6aa00" rx=".413" ry=".574" transform="matrix(.707 -.707 .707 .707 -.639 17.459)"/><ellipse cx="24.746" cy="7.5" fill="#b6aa00" rx=".413" ry=".574" transform="matrix(.707 -.707 .707 .707 1.949 19.703)"/><ellipse cx="25.746" cy="8.5" fill="#b6aa00" rx=".574" ry=".413" transform="matrix(.707 -.707 .707 .707 1.526 20.686)"/><ellipse cx="29.746" cy="9.5" fill="#b6aa00" rx=".574" ry=".413" transform="matrix(.707 -.707 .707 .707 1.99 23.807)"/><ellipse cx="23.746" cy="8.5" fill="#b6aa00" rx=".574" ry=".413" transform="matrix(.707 -.707 .707 .707 .941 19.273)"/><circle cx="27.5" cy="8.5" fill="#b6aa00" r=".5"/><circle cx="28.5" cy="10.5" fill="#b6aa00" r=".5"/><circle cx="21.5" cy="8.5" fill="#b6aa00" r=".5"/><circle cx="18.5" cy="9.5" fill="#b6aa00" r=".5"/><circle cx="26.5" cy="7.5" fill="#b6aa00" r=".5"/><path d="m15 24h18v1h-18z" fill="#a34c2e"/><path d="m15 22h18v1h-18z" fill="#f49b00"/><path d="m32.993 25.06c0-.02.007-.04.007-.06 0 .02-.01.04-.01.06z" fill="none"/><path d="m20.91 28.983c.031.054.066.105.1.16-.034-.055-.069-.106-.1-.16z" fill="#e6642f"/><path d="m18.638 26.492c-.061-.043-.116-.092-.177-.133.06.041.116.09.177.133z" fill="#e6642f"/><path d="m20.247 28.008c.045.057.086.117.13.175-.044-.058-.085-.118-.13-.175z" fill="#e6642f"/><path d="m19.326 27.043c.072.065.145.129.216.2-.071-.072-.142-.135-.216-.2z" fill="#e6642f"/><path d="m21.457 30.12c.032.082.06.165.089.248-.029-.083-.057-.168-.089-.248z" fill="#e6642f"/><path d="m27.721 28.052c.024-.031.045-.064.069-.094-.024.03-.045.063-.069.094z" fill="#e6642f"/><path d="m26.467 30.332c.027-.078.054-.157.084-.234-.03.077-.051.156-.084.234z" fill="#e6642f"/><path d="m28.547 27.159c.065-.061.13-.121.2-.179-.07.059-.135.12-.2.179z" fill="#e6642f"/><path d="m27.02 29.1c.034-.062.073-.121.109-.182-.036.061-.075.12-.109.182z" fill="#e6642f"/><path d="m26.347 31.174.009-.009z" fill="#e6642f"/><path d="m27.04 30.6-.034.022z" fill="#e6642f"/><path d="m31.715 27.958a.76.76 0 0 1 -.367-.3.657.657 0 0 1 -.078-.178 7.97 7.97 0 0 0 -1.73.877c-.11.073-.2.17-.3.248a.331.331 0 0 1 -.186.366.438.438 0 0 1 -.266 0 8.091 8.091 0 0 0 -1.28 1.368 10.839 10.839 0 0 1 2.371-.809 9.569 9.569 0 0 0 1.836-1.572z" fill="#e0523a"/><path d="m32.143 27.34a.565.565 0 0 1 .028.062c.049-.069.082-.142.128-.212-.081.017-.166.026-.246.046a.747.747 0 0 1 .09.104z" fill="#e6642f"/><path d="m26.622 30.905a2.437 2.437 0 0 0 -.266.26 2.633 2.633 0 0 1 .266-.26z" fill="#fbb40a"/><path d="m26.19 31.392c-.012.019-.029.038-.04.058.011-.02.03-.039.042-.059z" fill="#fbb40a"/><path d="m26.19 31.392a1.673 1.673 0 0 1 .155-.217 1.73 1.73 0 0 0 -.155.217z" fill="#fbb40a"/><path d="m26.551 30.1a7.837 7.837 0 0 1 .469-1 7.837 7.837 0 0 0 -.469 1z" fill="#fbb40a"/><path d="m27.79 27.958a7.938 7.938 0 0 1 .757-.8 7.938 7.938 0 0 0 -.757.8z" fill="#fbb40a"/><path d="m27.129 28.918a8.066 8.066 0 0 1 .592-.866 7.923 7.923 0 0 0 -.592.866z" fill="#fbb40a"/><path d="m26.467 30.332a7.958 7.958 0 0 0 -.3 1.07 7.834 7.834 0 0 1 .3-1.07z" fill="#fbb40a"/><path d="m29.54 26.36a7.856 7.856 0 0 0 -.8.62 7.935 7.935 0 0 1 .844-.648c-.012.01-.029.018-.044.028z" fill="#fbb40a"/><path d="m31.952 25.268a8.008 8.008 0 0 0 -1.032.358 7.859 7.859 0 0 1 1.032-.358z" fill="#fbb40a"/><path d="m26.162 31.4c0 .016-.009.032-.012.048 0-.017.01-.032.014-.049z" fill="#fbb40a"/><path d="m30.608 25.766a7.813 7.813 0 0 0 -.764.414 8.032 8.032 0 0 1 .764-.414z" fill="#fbb40a"/><path d="m32.005 25.251a7.989 7.989 0 0 1 .986-.168v-.023a7.793 7.793 0 0 0 -.986.191z" fill="#fbb40a"/><path d="m26.164 31.4c0 .017-.011.032-.014.049.011-.02.028-.039.04-.058z" fill="#fbb40a"/><path d="m26.19 31.392a1.73 1.73 0 0 1 .157-.218l.009-.009a2.437 2.437 0 0 1 .266-.26 7.981 7.981 0 0 1 1.639-2.449.345.345 0 0 1 .182-.429.422.422 0 0 1 .252-.006c.116-.1.246-.192.369-.289a.494.494 0 0 1 -.064-.232.5.5 0 0 1 .5-.5.493.493 0 0 1 .367.166c.2-.123.407-.241.62-.346a.786.786 0 0 1 -.139-.159c-.167-.262-.125-.546.1-.634a.634.634 0 0 1 .7.313.623.623 0 0 1 .071.16 7.817 7.817 0 0 1 .877-.271.47.47 0 0 1 .692-.13h.028a3.714 3.714 0 0 0 .18-1.011 7.989 7.989 0 0 0 -.986.168l-.053.017a7.859 7.859 0 0 0 -1.032.358c-.105.044-.209.091-.312.14a8.032 8.032 0 0 0 -.764.414c-.085.051-.174.1-.256.152a7.935 7.935 0 0 0 -.844.648c-.067.058-.132.118-.2.179a7.938 7.938 0 0 0 -.757.8c-.024.03-.045.063-.069.094a8.066 8.066 0 0 0 -.592.866c-.036.061-.075.12-.109.182a7.837 7.837 0 0 0 -.469 1c-.03.077-.057.156-.084.234a7.834 7.834 0 0 0 -.3 1.069z" fill="#fbb40a"/><path d="m11.608 33.039a3.918 3.918 0 0 0 2.66.807c1.216-.089 2.393-.22 3.533-.381a23.646 23.646 0 0 0 -4.801-.465c-.475 0-.937.016-1.392.039z" fill="#cb0303"/><path d="m17.29 32.361a22.775 22.775 0 0 0 -2.476-.3c-.586-.04-1.193-.061-1.814-.061s-1.228.021-1.814.061c-.165.011-.324.027-.486.041a4.02 4.02 0 0 0 .908.937c.455-.023.917-.039 1.392-.039a23.646 23.646 0 0 1 4.8.465c.746-.105 1.48-.221 2.188-.355-.016-.006-.029-.013-.044-.02a13.8 13.8 0 0 0 -2.654-.729z" fill="#e6642f"/><path d="m16.135 29.187c-.732-.091-1.509-.15-2.317-.175.808.025 1.582.088 2.317.175z" fill="#e6642f"/><path d="m13 31c3.733 0 6.936.756 8.3 1.836.2-.043.4-.086.589-.132-.013-.084-.02-.171-.037-.254-.772-1.39-4.442-2.45-8.852-2.45a25.778 25.778 0 0 0 -2.966.169 3.983 3.983 0 0 0 .2.976 26.148 26.148 0 0 1 2.766-.145z" fill="#e0523a"/><path d="m17.535 29.409c-.444-.087-.912-.161-1.4-.222.488.061.956.135 1.4.222z" fill="#e6642f"/><path d="m21.85 31.45c.05.25.087.5.113.764-.026-.259-.063-.514-.113-.764z" fill="#e6642f"/><path d="m21.645 31.166-.001-.001.009.009v-.001z" fill="#e6642f"/><path d="m20.96 30.605.034.022z" fill="#e6642f"/><path d="m20.5 30.344a11.8 11.8 0 0 0 -2.962-.935 11.8 11.8 0 0 1 2.962.935z" fill="#e6642f"/><path d="m10.7 32.1c.162-.014.321-.03.486-.041-.165.013-.324.029-.486.041z" fill="#e6642f"/><path d="m27.5 30.344q-.251.126-.463.26l-.034.022a3.525 3.525 0 0 0 -.384.279 2.633 2.633 0 0 0 -.266.26l-.009.009a1.673 1.673 0 0 0 -.155.217 18.963 18.963 0 0 0 3.682-1.856 10.839 10.839 0 0 0 -2.371.809z" fill="#ef8900"/><path d="m21.85 31.45a1.581 1.581 0 0 0 -.2-.276l-.009-.009a2.633 2.633 0 0 0 -.266-.26 3.525 3.525 0 0 0 -.384-.279l-.031-.026q-.213-.133-.463-.26a11.8 11.8 0 0 0 -2.962-.935c-.444-.087-.912-.161-1.4-.222-.732-.091-1.509-.15-2.317-.175-.27-.008-.542-.008-.818-.008s-.548 0-.818.012c-.759.023-1.489.079-2.182.161v.678c0 .109.025.211.034.318a25.778 25.778 0 0 1 2.966-.169c4.41 0 8.08 1.06 8.85 2.45.017.083.024.17.037.254.034-.007.065-.016.1-.024-.006-.156-.008-.313-.022-.466-.028-.259-.065-.514-.115-.764z" fill="#ef8900"/><path d="m19.325 27.043a8.1 8.1 0 0 0 -.688-.551 7.731 7.731 0 0 1 .688.551z" fill="#e6642f"/><path d="m21.457 30.12c-.025-.065-.044-.133-.071-.2.027.064.046.132.071.2z" fill="#e6642f"/><path d="m19.66 27.347c-.037-.038-.08-.071-.118-.108.038.037.081.07.118.108z" fill="#e6642f"/><path d="m21.849 31.448a7.976 7.976 0 0 0 -.3-1.082 7.79 7.79 0 0 1 .3 1.082z" fill="#e6642f"/><path d="m19.542 27.239c-.071-.067-.144-.131-.216-.2.074.068.145.132.216.2z" fill="#e6642f"/><path d="m21.645 31.166.008.007z" fill="#e6642f"/><path d="m21.546 30.369c-.029-.083-.057-.166-.089-.248.032.079.06.164.089.248z" fill="#e6642f"/><path d="m18.46 26.36c.062.041.118.09.178.133-.061-.043-.117-.091-.178-.132z" fill="#e6642f"/><path d="m21.85 31.45-.001-.002z" fill="#e6642f"/><path d="m19.217 28.976a.438.438 0 0 1 -.266 0 .329.329 0 0 1 -.185-.365c-.106-.079-.2-.175-.306-.249a7.97 7.97 0 0 0 -1.73-.877.657.657 0 0 1 -.078.178.638.638 0 0 1 -.7.313c-.22-.089-.262-.373-.094-.634a.747.747 0 0 1 .09-.1 7.823 7.823 0 0 0 -.937-.176l-.31-.03c-.23-.02-.46-.03-.7-.03h-2.001c-.24 0-.47.01-.7.03l-.31.03a7.874 7.874 0 0 0 -.99.193v1.92c.693-.082 1.423-.138 2.182-.161.27-.018.542-.018.818-.018s.548 0 .818.012c.808.025 1.585.084 2.317.175.488.061.956.135 1.4.222a11.8 11.8 0 0 1 2.962.935 8.091 8.091 0 0 0 -1.28-1.368z" fill="#e0523a"/><path d="m20.993 30.625-.033-.02z" fill="#e6642f"/><path d="m10 29.173c.693-.082 1.423-.138 2.182-.161-.759.023-1.489.079-2.182.161z" fill="#e6642f"/><path d="m32.941 24.539a.318.318 0 0 1 -.01-.033 2.143 2.143 0 0 0 -.156-.406c-.241.038-.476.092-.71.15a.662.662 0 0 1 .078.09c.168.261.126.545-.094.634a.638.638 0 0 1 -.7-.313.66.66 0 0 1 -.074-.17c-.1.036-.2.069-.294.108a.494.494 0 0 1 -.48.4.483.483 0 0 1 -.24-.07 7.908 7.908 0 0 0 -.72.43c-.144.1-.279.2-.416.309a2.142 2.142 0 0 0 .173.365 2.01 2.01 0 0 0 .241.323c.015-.01.032-.018.048-.028.083-.055.171-.1.256-.152a7.813 7.813 0 0 1 .764-.414c.1-.049.206-.1.312-.14a8.008 8.008 0 0 1 1.032-.358l.053-.017a7.793 7.793 0 0 1 .985-.191c0-.02.01-.04.01-.06a1.9 1.9 0 0 0 -.058-.457z" fill="#49722c"/><path d="m10.931 24.506a2.143 2.143 0 0 0 -.156-.406c-.263.041-.521.1-.775.164v.989c.019 0 .038-.013.057-.018s.023 0 .034-.006a.47.47 0 0 1 .692-.13c.07-.011.137-.03.207-.039 0-.02.01-.04.01-.06a1.9 1.9 0 0 0 -.059-.461.318.318 0 0 1 -.01-.033z" fill="#49722c"/><path d="m17.74 24.93a.483.483 0 0 1 -.24.07.494.494 0 0 1 -.48-.4c-.1-.039-.2-.072-.294-.108a.676.676 0 0 1 -.074.17.638.638 0 0 1 -.7.313c-.22-.089-.262-.373-.094-.634a.662.662 0 0 1 .078-.09c-.234-.058-.469-.112-.71-.15a2.143 2.143 0 0 0 -.156.406.318.318 0 0 1 -.01.033 1.9 1.9 0 0 0 -.06.46c0 .02.01.04.01.06a7.778 7.778 0 0 1 1.118.233c.107.03.211.066.316.1.129.041.262.074.389.122s.24.109.361.162.238.1.353.159.193.113.291.166c.188.1.378.2.556.319.021.014.045.025.066.039a2.105 2.105 0 0 0 .24-.322 2.142 2.142 0 0 0 .173-.365c-.137-.105-.272-.212-.416-.309a7.908 7.908 0 0 0 -.717-.434z" fill="#49722c"/><path d="m14 24h-2c-.24 0-.47.01-.7.03l-.292.028a1.951 1.951 0 0 0 .292.972c.23-.02.46-.03.7-.03h2c.113 0 .221.01.331.014a.42.42 0 0 1 .2.009c.056 0 .115 0 .172.007a1.951 1.951 0 0 0 .292-.972l-.295-.028c-.23-.02-.46-.03-.7-.03z" fill="#49722c"/><path d="m21.653 31.173a1.635 1.635 0 0 1 .2.276 1.745 1.745 0 0 0 -.2-.276z" fill="#fbb40a"/><path d="m21.378 30.905a2.437 2.437 0 0 1 .266.26 2.456 2.456 0 0 0 -.266-.26z" fill="#fbb40a"/><path d="m21.85 31.45a1.635 1.635 0 0 0 -.2-.276 1.581 1.581 0 0 1 .2.276z" fill="#fbb40a"/><path d="m21.378 30.905a2.633 2.633 0 0 1 .266.26 2.437 2.437 0 0 0 -.266-.26z" fill="#fbb40a"/><path d="m10 25.253c.019 0 .038-.013.057-.018-.019.005-.038.013-.057.018z" fill="#fbb40a"/><path d="m16.833 25.515c-.127-.048-.26-.081-.389-.122.256.082.506.178.75.284-.121-.053-.237-.115-.361-.162z" fill="#fbb40a"/><path d="m20.247 28.008a8.008 8.008 0 0 0 -.587-.661c-.037-.038-.08-.071-.118-.108a8.154 8.154 0 0 1 .705.769z" fill="#fbb40a"/><path d="m21.386 29.923a7.9 7.9 0 0 0 -.379-.78 8.083 8.083 0 0 1 .45.977c-.025-.065-.044-.133-.071-.197z" fill="#fbb40a"/><path d="m21.849 31.448a7.79 7.79 0 0 0 -.3-1.079 7.79 7.79 0 0 1 .3 1.079z" fill="#fbb40a"/><path d="m18.638 26.493a7.767 7.767 0 0 1 .687.55 7.731 7.731 0 0 0 -.687-.55z" fill="#fbb40a"/><path d="m20.377 28.183a8 8 0 0 1 .533.8 7.884 7.884 0 0 0 -.533-.8z" fill="#fbb40a"/><path d="m14.557 25.027.01.007c.142.01.286.009.423.026a8.051 8.051 0 0 1 1.138.233 7.778 7.778 0 0 0 -1.118-.233l-.31-.03c-.057-.005-.116 0-.172-.007.009.003.02 0 .029.004z" fill="#fbb40a"/><path d="m18.392 26.32a7.824 7.824 0 0 0 -.845-.484 7.824 7.824 0 0 1 .845.484z" fill="#fbb40a"/><path d="m14.331 25.014c-.11 0-.218-.014-.331-.014.1 0 .207.015.313.019z" fill="#fbb40a"/><path d="m10.057 25.235c-.019 0-.038.013-.057.018v.247a.484.484 0 0 1 .091-.271c-.011.002-.023.003-.034.006z" fill="#fbb40a"/><path d="m19.325 27.043a7.767 7.767 0 0 0 -.687-.55c-.06-.043-.116-.092-.178-.133-.022-.015-.046-.026-.068-.04a7.824 7.824 0 0 0 -.845-.484c-.115-.057-.234-.107-.353-.159-.244-.106-.494-.2-.75-.284-.105-.034-.209-.07-.316-.1a8.051 8.051 0 0 0 -1.138-.233c-.137-.017-.281-.016-.423-.026.209.094.249.37.085.627a.638.638 0 0 1 -.7.313c-.22-.089-.262-.373-.094-.634a.729.729 0 0 1 .456-.321c-.107-.004-.214-.019-.314-.019h-2c-.24 0-.47.01-.7.03l-.31.03c-.07.009-.137.028-.207.039a.49.49 0 0 1 .217.4.5.5 0 0 1 -1 0v.753a7.957 7.957 0 0 1 .88-.172.272.272 0 0 1 .071-.054.452.452 0 0 1 .3.007h.046c.23-.02.46-.03.7-.03h2c.24 0 .47.01.7.03l.31.03c.071.009.137.028.207.039a.47.47 0 0 1 .692.13 7.817 7.817 0 0 1 .877.271.623.623 0 0 1 .071-.16.634.634 0 0 1 .7-.313c.22.088.262.372.1.634a.786.786 0 0 1 -.139.159c.213.105.418.223.62.346a.5.5 0 0 1 .365-.169.5.5 0 0 1 .5.5.494.494 0 0 1 -.064.232c.123.1.253.185.369.289a.422.422 0 0 1 .252.006.345.345 0 0 1 .182.429 7.981 7.981 0 0 1 1.639 2.449 2.456 2.456 0 0 1 .267.261l.008.007a1.745 1.745 0 0 1 .2.277 7.79 7.79 0 0 0 -.3-1.079c-.029-.084-.057-.167-.089-.249a8.083 8.083 0 0 0 -.45-.977c-.031-.055-.066-.106-.1-.16a8 8 0 0 0 -.533-.8c-.044-.058-.085-.118-.13-.175a8.154 8.154 0 0 0 -.7-.769c-.08-.07-.151-.134-.226-.198zm-6.673-1.382a.638.638 0 0 1 -.7.313c-.22-.089-.262-.373-.094-.634a.634.634 0 0 1 .7-.313c.219.088.261.373.094.634z" fill="#fbb40a"/><path d="m28.348 28.661a.669.669 0 0 1 -.087-.205 7.981 7.981 0 0 0 -1.639 2.449 3.525 3.525 0 0 1 .384-.279l.034-.022q.213-.133.463-.26a8.091 8.091 0 0 1 1.28-1.368.741.741 0 0 1 -.435-.315z" fill="#ef8900"/><path d="m32 26.5a.484.484 0 0 1 .091-.271 7.817 7.817 0 0 0 -.877.271.357.357 0 0 1 -.165.474.57.57 0 0 1 -.562-.154c-.213.105-.418.223-.62.346a.493.493 0 0 1 .133.334.5.5 0 0 1 -.936.232c-.123.1-.253.185-.369.289a.732.732 0 0 1 .448.319.585.585 0 0 1 .092.268c.105-.078.2-.175.3-.248a7.97 7.97 0 0 1 1.73-.877.352.352 0 0 1 .173-.456.591.591 0 0 1 .61.209c.08-.02.165-.029.246-.046.043-.068.079-.138.119-.207a.492.492 0 0 1 -.413-.483z" fill="#ef8900"/><path d="m32.783 26.1.022.014.006-.019z" fill="#ef8900"/><path d="m21.378 30.905a7.981 7.981 0 0 0 -1.639-2.449.669.669 0 0 1 -.087.205.741.741 0 0 1 -.435.315 8.091 8.091 0 0 1 1.28 1.368c.116.059.218.12.322.181.046.027.1.052.141.08l.033.02c.082.053.149.108.222.162.054.039.115.078.163.118z" fill="#ef8900"/><path d="m18.936 27.732a.5.5 0 1 1 -.8-.566c-.2-.123-.407-.241-.62-.346a.57.57 0 0 1 -.562.154.357.357 0 0 1 -.165-.474 7.817 7.817 0 0 0 -.877-.271.484.484 0 0 1 .088.271.5.5 0 0 1 -1 0 .49.49 0 0 1 .217-.4c-.07-.011-.136-.03-.207-.039l-.31-.03c-.23-.02-.46-.03-.7-.03h-2c-.24 0-.47.01-.7.03h-.046a.752.752 0 0 1 .4.306c.167.261.125.545-.095.634a.636.636 0 0 1 -.7-.313.429.429 0 0 1 .023-.58 7.957 7.957 0 0 0 -.88.172v1a7.874 7.874 0 0 1 .99-.193l.31-.03c.23-.02.46-.03.7-.03h2c.24 0 .47.01.7.03l.31.03a7.823 7.823 0 0 1 .937.176.591.591 0 0 1 .61-.209.352.352 0 0 1 .173.456 7.97 7.97 0 0 1 1.73.877c.11.074.2.17.306.249a.575.575 0 0 1 .091-.269.732.732 0 0 1 .448-.319c-.118-.101-.248-.189-.371-.286zm-5.379-.758a.636.636 0 0 1 -.7-.313c-.168-.262-.126-.546.094-.634a.636.636 0 0 1 .7.313c.168.26.126.545-.094.634z" fill="#ef8900"/><path d="m14.814 32.061a22.775 22.775 0 0 1 2.476.3 22.775 22.775 0 0 0 -2.476-.3z" fill="#ffc547"/><path d="m19.989 33.11c-.016-.006-.029-.013-.044-.02.015.01.028.01.044.02z" fill="#ffc547"/><path d="m10.235 31.145a3.983 3.983 0 0 0 .465.957c.162-.014.321-.03.486-.041.586-.04 1.193-.061 1.814-.061s1.228.021 1.814.061a22.775 22.775 0 0 1 2.476.3 13.8 13.8 0 0 1 2.655.729c.015.007.028.014.044.02.447-.084.879-.179 1.309-.274-1.362-1.08-4.565-1.836-8.298-1.836a26.148 26.148 0 0 0 -2.765.145z" fill="#ef8900"/><path d="m30.722 23.028a.437.437 0 0 0 -.279 0 .3.3 0 0 0 -.133.1.477.477 0 0 0 .038.53.638.638 0 0 0 .7.313c.22-.089.262-.373.094-.634a.737.737 0 0 0 -.42-.309z" fill="#2b6d3a"/><path d="m32.143 24.34a.662.662 0 0 0 -.078-.09.6.6 0 0 0 -.622-.223.353.353 0 0 0 -.169.464.66.66 0 0 0 .074.17.638.638 0 0 0 .7.313c.221-.089.263-.374.095-.634z" fill="#2b6d3a"/><path d="m30.5 24a.5.5 0 0 0 -.5.5.493.493 0 0 0 .26.43.483.483 0 0 0 .24.07.494.494 0 0 0 .48-.4.47.47 0 0 0 .02-.1.5.5 0 0 0 -.5-.5z" fill="#2b6d3a"/><path d="m17.652 23.661a.477.477 0 0 0 .038-.53.3.3 0 0 0 -.133-.1.437.437 0 0 0 -.279 0 .737.737 0 0 0 -.421.312c-.168.261-.126.545.094.634a.638.638 0 0 0 .701-.316z" fill="#2b6d3a"/><path d="m12.557 23.027a.634.634 0 0 0 -.7.313c-.168.261-.126.545.094.634a.638.638 0 0 0 .7-.313c.168-.261.126-.546-.094-.634z" fill="#2b6d3a"/><path d="m15.935 24.25a.662.662 0 0 0 -.078.09c-.168.261-.126.545.094.634a.638.638 0 0 0 .7-.313.676.676 0 0 0 .074-.17.353.353 0 0 0 -.169-.464.6.6 0 0 0 -.621.223z" fill="#2b6d3a"/><path d="m12.557 20.027a.634.634 0 0 0 -.7.313c-.168.261-.126.545.094.634a.638.638 0 0 0 .7-.313c.168-.261.126-.546-.094-.634z" fill="#2b6d3a"/><path d="m10.951 21.027c-.22.088-.262.372-.094.634a.636.636 0 0 0 .7.313c.22-.089.262-.373.095-.634a.636.636 0 0 0 -.701-.313z" fill="#2b6d3a"/><path d="m13.557 22.974c.22-.089.262-.373.095-.634a.735.735 0 0 0 -.451-.32c-.04 0-.079-.01-.119-.012a.4.4 0 0 0 -.131.019c-.22.088-.262.372-.094.634a.636.636 0 0 0 .7.313z" fill="#2b6d3a"/><circle cx="13.5" cy="23.5" fill="#2b6d3a" r=".5"/><path d="m17.5 24a.5.5 0 0 0 -.5.5.47.47 0 0 0 .02.1.494.494 0 0 0 .48.4.483.483 0 0 0 .24-.07.493.493 0 0 0 .26-.43.5.5 0 0 0 -.5-.5z" fill="#2b6d3a"/><circle cx="10.5" cy="20.5" fill="#2b6d3a" r=".5"/><path d="m32.931 24.506a2.02 2.02 0 0 0 -.146-.379 2.12 2.12 0 0 1 .146.379z" fill="#5c8936"/><path d="m32.771 24.1.014.026c0-.008-.006-.018-.01-.027z" fill="#5c8936"/><path d="m31 23a1.969 1.969 0 0 0 -.278.028.737.737 0 0 1 .421.312c.168.261.126.545-.094.634a.638.638 0 0 1 -.7-.313.477.477 0 0 1 -.038-.53 2 2 0 0 0 -1.311 1.869 1.943 1.943 0 0 0 .124.669c.137-.105.272-.212.416-.309a7.908 7.908 0 0 1 .72-.43.493.493 0 0 1 -.26-.43.5.5 0 0 1 1 0 .47.47 0 0 1 -.02.1c.1-.039.2-.072.294-.108a.353.353 0 0 1 .169-.464.6.6 0 0 1 .622.223c.233-.057.466-.112.706-.149a1.991 1.991 0 0 0 -1.771-1.102z" fill="#5c8936"/><path d="m28.7 28.021a.422.422 0 0 0 -.252.006.345.345 0 0 0 -.182.429.669.669 0 0 0 .087.205.741.741 0 0 0 .435.315.438.438 0 0 0 .266 0 .331.331 0 0 0 .186-.366.585.585 0 0 0 -.092-.268.732.732 0 0 0 -.448-.321z" fill="#5c8936"/><path d="m31.143 26.34a.634.634 0 0 0 -.7-.313c-.22.088-.262.372-.1.634a.786.786 0 0 0 .139.159.57.57 0 0 0 .562.154.357.357 0 0 0 .165-.474.623.623 0 0 0 -.066-.16z" fill="#5c8936"/><path d="m32.053 27.236a.591.591 0 0 0 -.61-.209.352.352 0 0 0 -.173.456.657.657 0 0 0 .078.178.76.76 0 0 0 .367.3 6.387 6.387 0 0 0 .456-.556.565.565 0 0 0 -.028-.062.747.747 0 0 0 -.09-.107z" fill="#5c8936"/><path d="m32.5 26a.491.491 0 0 0 -.409.229.484.484 0 0 0 -.091.271.492.492 0 0 0 .418.483 4.4 4.4 0 0 0 .387-.87l-.022-.014a.487.487 0 0 0 -.283-.099z" fill="#5c8936"/><path d="m29.5 27a.5.5 0 0 0 -.5.5.518.518 0 0 0 .5.5.5.5 0 0 0 .5-.5.509.509 0 0 0 -.5-.5z" fill="#5c8936"/><path d="m10.779 24.109a2.185 2.185 0 0 1 .152.4 2.023 2.023 0 0 0 -.152-.4z" fill="#5c8936"/><path d="m10.775 24.1-.002.001.006.008z" fill="#5c8936"/><path d="m10 23.279v.985c.254-.065.51-.123.773-.163a2.007 2.007 0 0 0 -.773-.822z" fill="#5c8936"/><path d="m15.225 24.1c0 .009-.006.019-.01.027l.014-.026z" fill="#5c8936"/><path d="m16.557 24.027a.353.353 0 0 1 .169.464c.1.036.2.069.294.108a.47.47 0 0 1 -.02-.1.5.5 0 0 1 1 0 .493.493 0 0 1 -.26.43 7.908 7.908 0 0 1 .72.43c.144.1.279.2.416.309a1.943 1.943 0 0 0 .124-.668 2 2 0 0 0 -1.31-1.869.477.477 0 0 1 -.038.53.638.638 0 0 1 -.7.313c-.22-.089-.262-.373-.094-.634a.737.737 0 0 1 .421-.312 1.969 1.969 0 0 0 -.279-.028 1.991 1.991 0 0 0 -1.771 1.1c.24.037.473.092.706.149a.6.6 0 0 1 .622-.222z" fill="#5c8936"/><path d="m15.215 24.127a2.02 2.02 0 0 0 -.146.379 2.12 2.12 0 0 1 .146-.379z" fill="#5c8936"/><path d="m18.46 26.36a2.173 2.173 0 0 0 .24-.322 2.105 2.105 0 0 1 -.24.322z" fill="#5c8936"/><path d="m11.29 22.97a1.994 1.994 0 0 0 -.29 1.03 1.937 1.937 0 0 0 .3 1.03 1.951 1.951 0 0 1 -.292-.972l.292-.028c.23-.02.46-.03.7-.03h1.5a.5.5 0 1 1 .5-.5.5.5 0 0 1 -.5.5h.5c.24 0 .47.01.7.03l.292.028a1.951 1.951 0 0 1 -.292.972 1.937 1.937 0 0 0 .3-1.03 2 2 0 0 0 -1.8-1.98.735.735 0 0 1 .451.32c.167.261.125.545-.095.634a.636.636 0 0 1 -.7-.313c-.168-.262-.126-.546.094-.634a.4.4 0 0 1 .131-.019c-.028 0-.054-.008-.082-.008a2.582 2.582 0 0 0 -.29.03 1.989 1.989 0 0 0 -2.709-2.751v1.221a.5.5 0 1 1 .5.5.5.5 0 0 1 -.5-.5v2.221a1.975 1.975 0 0 0 1 .279 2.582 2.582 0 0 0 .29-.03zm.567-2.63a.634.634 0 0 1 .7-.313c.22.088.262.372.095.634a.638.638 0 0 1 -.7.313c-.221-.089-.263-.374-.095-.634zm0 3a.634.634 0 0 1 .7-.313c.22.088.262.372.095.634a.638.638 0 0 1 -.7.313c-.221-.089-.263-.374-.095-.634zm-.906-2.313a.636.636 0 0 1 .7.313c.167.261.125.545-.095.634a.636.636 0 0 1 -.7-.313c-.167-.261-.125-.546.095-.634z" fill="#5c8936"/><path d="m19.557 28.027a.422.422 0 0 0 -.252-.006.732.732 0 0 0 -.448.319.575.575 0 0 0 -.091.269.329.329 0 0 0 .185.365.438.438 0 0 0 .266 0 .741.741 0 0 0 .435-.315.669.669 0 0 0 .087-.205.345.345 0 0 0 -.182-.427z" fill="#5c8936"/><path d="m17.557 26.027a.634.634 0 0 0 -.7.313.623.623 0 0 0 -.071.16.357.357 0 0 0 .165.474.57.57 0 0 0 .562-.154.786.786 0 0 0 .139-.159c.167-.261.125-.546-.095-.634z" fill="#5c8936"/><path d="m14.567 25.034-.01-.007c-.009 0-.02 0-.029 0-.065 0-.132-.006-.2-.009h-.018a.729.729 0 0 0 -.456.321c-.168.261-.126.545.094.634a.638.638 0 0 0 .7-.313c.168-.26.128-.532-.081-.626z" fill="#5c8936"/><path d="m15.947 27.236a.747.747 0 0 0 -.09.1c-.168.261-.126.545.094.634a.638.638 0 0 0 .7-.313.657.657 0 0 0 .078-.178.352.352 0 0 0 -.173-.456.591.591 0 0 0 -.609.213z" fill="#5c8936"/><path d="m12.557 25.027a.634.634 0 0 0 -.7.313c-.168.261-.126.545.094.634a.638.638 0 0 0 .7-.313c.168-.261.126-.546-.094-.634z" fill="#5c8936"/><path d="m11.254 26.034a.452.452 0 0 0 -.3-.007.272.272 0 0 0 -.071.054.429.429 0 0 0 -.023.58.636.636 0 0 0 .7.313c.22-.089.262-.373.095-.634a.752.752 0 0 0 -.401-.306z" fill="#5c8936"/><path d="m12.951 26.027c-.22.088-.262.372-.094.634a.636.636 0 0 0 .7.313c.22-.089.262-.373.095-.634a.636.636 0 0 0 -.701-.313z" fill="#5c8936"/><path d="m16 26.5a.484.484 0 0 0 -.091-.271.5.5 0 0 0 -.909.271.5.5 0 0 0 1 0z" fill="#5c8936"/><path d="m19 27.5a.5.5 0 0 0 -.5-.5.509.509 0 0 0 -.5.5.5.5 0 0 0 .936.232.494.494 0 0 0 .064-.232z" fill="#5c8936"/><path d="m11 25.5a.493.493 0 0 0 -.909-.271.484.484 0 0 0 -.091.271.5.5 0 0 0 1 0z" fill="#5c8936"/><path d="m32.99 25.06.31-.03a1.937 1.937 0 0 1 -.3-1.03v1c0 .02-.01.04-.01.06z" fill="none"/><path d="m28.547 27.159c.065-.061.13-.121.2-.179-.07.059-.135.12-.2.179z" fill="#fbb40a"/><path d="m35 33c-.1 0-.2 0-.3.005.622.368 1.257.714 1.9 1.045 4.074.243 7.189 1.4 7.381 2.812l.021.006v-.868c-.002-1.66-4.032-3-9.002-3z" fill="#ef8900"/><path d="m35 32c-.622 0-1.229.021-1.815.061q.742.49 1.511.944c.1 0 .2-.005.3-.005 4.97 0 9 1.34 9 3v-1c.004-1.66-4.026-3-8.996-3z" fill="#fbb40a"/><path d="m36.6 34.05q1.481.759 3.038 1.382a10.506 10.506 0 0 1 3.246 1.119c.364.107.728.216 1.1.311-.197-1.415-3.312-2.569-7.384-2.812z" fill="#fbb40a"/><path d="m35 30a24.344 24.344 0 0 0 -4.189.348q.546.428 1.108.836a25.611 25.611 0 0 1 3.081-.184c4.97 0 9 1.34 9 3a7.91 7.91 0 0 0 -.15-1.55c-.77-1.39-4.44-2.45-8.85-2.45z" fill="#fbb40a"/><path d="m43.644 31.165a2.633 2.633 0 0 0 -.266-.26 3.666 3.666 0 0 0 -.384-.28l-.034-.025q-.213-.133-.463-.26a18.065 18.065 0 0 0 -7.497-1.34 23.128 23.128 0 0 0 -5.18.547c.325.274.656.539.991.8a24.344 24.344 0 0 1 4.189-.347c4.41 0 8.08 1.06 8.85 2.45a7.91 7.91 0 0 1 .15 1.55v-1a7.91 7.91 0 0 0 -.15-1.55 1.581 1.581 0 0 0 -.2-.276z" fill="#f9d124"/><path d="m42.882 36.551a10.506 10.506 0 0 0 -3.246-1.119q1.587.633 3.246 1.119z" fill="#98c95c"/><path d="m43.644 31.165.009.009z" fill="#fbb40a"/><path d="" fill="#fbb40a"/><path d="m42.5 30.344a7.987 7.987 0 0 0 -5.49-3.284l-.31-.03c-.23-.02-.46-.03-.7-.03h-2c-.24 0-.47.01-.7.03l-.31.03a7.823 7.823 0 0 0 -.937.176.747.747 0 0 1 .09.1c.168.261.126.545-.094.634a.638.638 0 0 1 -.7-.313.657.657 0 0 1 -.078-.178 7.97 7.97 0 0 0 -1.73.877c-.11.073-.2.17-.3.248a.336.336 0 0 1 -.128.322c.235.208.472.415.713.617a23.128 23.128 0 0 1 5.174-.543 18.065 18.065 0 0 1 7.5 1.344zm-3-2.344a.5.5 0 1 1 -.5.5.5.5 0 0 1 .5-.5z" fill="#fbb40a"/><path d="m42.994 30.625-.034-.025z" fill="#fbb40a"/><path d="m43.378 30.905a2.633 2.633 0 0 1 .266.26 2.437 2.437 0 0 0 -.266-.26z" fill="#fdf781"/><path d="m43.85 31.45a1.635 1.635 0 0 0 -.2-.276 1.581 1.581 0 0 1 .2.276z" fill="#fdf781"/><path d="m29.54 26.36a7.856 7.856 0 0 0 -.8.62 7.935 7.935 0 0 1 .844-.648c-.012.01-.029.018-.044.028z" fill="#fdf781"/><path d="m30.608 25.766a7.813 7.813 0 0 0 -.764.414 8.032 8.032 0 0 1 .764-.414z" fill="#fdf781"/><path d="m31.952 25.268a8.008 8.008 0 0 0 -1.032.358 7.859 7.859 0 0 1 1.032-.358z" fill="#fdf781"/><path d="m33.3 25.03-.31.03a7.793 7.793 0 0 0 -.985.191 8.016 8.016 0 0 1 1.295-.221z" fill="#fdf781"/><path d="m28.547 27.159a7.747 7.747 0 0 0 -.635.659l.006.006a7.909 7.909 0 0 1 .629-.665z" fill="#fdf781"/><path d="m34 25c-.113 0-.221.01-.331.014a.728.728 0 0 1 .474.326c.168.261.126.545-.094.634a.638.638 0 0 1 -.7-.313c-.167-.262-.125-.546.095-.634h.029c-.056 0-.115 0-.172.007a8.016 8.016 0 0 0 -1.295.221l-.053.017a7.859 7.859 0 0 0 -1.032.358c-.105.044-.209.091-.312.14a8.032 8.032 0 0 0 -.764.414c-.085.051-.174.1-.256.152a7.935 7.935 0 0 0 -.844.648c-.067.058-.132.118-.2.179a7.909 7.909 0 0 0 -.629.665c.123.119.248.237.373.355a.293.293 0 0 1 .152-.152.422.422 0 0 1 .252-.006c.116-.1.246-.192.369-.289a.494.494 0 0 1 -.062-.236.5.5 0 0 1 .5-.5.493.493 0 0 1 .367.166c.2-.123.407-.241.62-.346a.786.786 0 0 1 -.139-.159c-.167-.262-.125-.546.1-.634a.634.634 0 0 1 .7.313.623.623 0 0 1 .071.16 7.817 7.817 0 0 1 .877-.271.47.47 0 0 1 .692-.13c.07-.011.137-.03.207-.039l.31-.03c.23-.02.46-.03.7-.03h2c.24 0 .47.01.7.03h.046a.452.452 0 0 1 .3-.007.272.272 0 0 1 .071.054 7.894 7.894 0 0 1 .942.191.493.493 0 0 1 .436-.268.5.5 0 0 1 .5.5.47.47 0 0 1 -.017.083c.166.067.328.141.488.218a.786.786 0 0 1 -.123-.14c-.167-.262-.125-.546.095-.634a.634.634 0 0 1 .7.313c.168.261.126.545-.094.634a.4.4 0 0 1 -.211.016c.183.1.363.205.537.319a.622.622 0 0 1 .674-.282c.22.088.262.372.094.634a.764.764 0 0 1 -.12.139 7.968 7.968 0 0 1 2.355 3.105 2.437 2.437 0 0 1 .266.26l.009.009a1.635 1.635 0 0 1 .2.276 8.021 8.021 0 0 0 -5.941-6.221.484.484 0 0 1 .088.271.5.5 0 0 1 -1 0 .49.49 0 0 1 .217-.4c-.07-.011-.136-.03-.207-.039l-.31-.03c-.23-.02-.46-.03-.7-.03zm2.049.974a.638.638 0 0 1 -.7-.313c-.167-.262-.125-.546.095-.634a.634.634 0 0 1 .7.313c.167.26.125.545-.095.634z" fill="#fdf781"/><path d="m42.96 30.6q-.213-.133-.463-.26.251.13.463.26z" fill="#f9d124"/><path d="m43.378 30.905a3.666 3.666 0 0 0 -.384-.28 3.666 3.666 0 0 1 .384.28z" fill="#f9d124"/><path d="m29.143 28.34a.585.585 0 0 1 .092.268c.105-.078.2-.175.3-.248a7.97 7.97 0 0 1 1.73-.877.352.352 0 0 1 .173-.456.591.591 0 0 1 .61.209 7.823 7.823 0 0 1 .937-.176l.31-.03c.23-.02.46-.03.7-.03h2c.24 0 .47.01.7.03l.31.03a7.987 7.987 0 0 1 5.495 3.284q.251.126.463.26l.034.021a3.666 3.666 0 0 1 .384.28 7.968 7.968 0 0 0 -2.358-3.105.579.579 0 0 1 -.58.174c-.22-.089-.262-.373-.095-.634.008-.012.019-.02.027-.031-.174-.114-.354-.218-.537-.319a.679.679 0 0 1 -.367-.189c-.16-.077-.322-.151-.488-.218a.492.492 0 0 1 -.483.417.5.5 0 0 1 -.5-.5.492.492 0 0 1 .062-.228 7.894 7.894 0 0 0 -.942-.191.429.429 0 0 1 .023.58.636.636 0 0 1 -.7.313c-.22-.089-.262-.373-.095-.634a.752.752 0 0 1 .4-.306h-.046c-.23-.02-.46-.03-.7-.03h-2.002c-.24 0-.47.01-.7.03l-.31.03c-.07.009-.137.028-.207.039a.49.49 0 0 1 .217.4.5.5 0 0 1 -1 0 .484.484 0 0 1 .091-.271 7.817 7.817 0 0 0 -.877.271.357.357 0 0 1 -.165.474.57.57 0 0 1 -.562-.154c-.213.105-.418.223-.62.346a.493.493 0 0 1 .133.331.5.5 0 0 1 -.936.232c-.123.1-.253.185-.369.289a.732.732 0 0 1 .448.319zm5.2-2a.636.636 0 0 1 .7-.313c.22.088.262.372.094.634a.636.636 0 0 1 -.7.313c-.214-.089-.256-.374-.089-.634z" fill="#f9d124"/><path d="m35 31a25.611 25.611 0 0 0 -3.081.184c.416.3.837.594 1.266.877.586-.04 1.193-.061 1.815-.061 4.97 0 9 1.34 9 3v-1c0-1.66-4.03-3-9-3z" fill="#f5f2a3"/><path d="m31 23h-7.241c.243.338.49.671.745 1h8.496v-1z" fill="#ef8900"/><path d="m24 15a24.2 24.2 0 0 0 -4.422.388c.125.313.251.625.385.933a24.6 24.6 0 0 1 4.037-.321c4.97 0 9 1.34 9 3v-1c0-1.66-4.03-3-9-3z" fill="#ef8900"/><path d="m24 14a23.68 23.68 0 0 0 -4.787.462c.115.312.242.618.365.926a24.2 24.2 0 0 1 4.422-.388c4.97 0 9 1.34 9 3v-1c0-1.66-4.03-3-9-3z" fill="#fbb40a"/><path d="m24 16a24.6 24.6 0 0 0 -4.037.321q.2.47.421.932a25.149 25.149 0 0 1 3.616-.253c4.97 0 9 1.34 9 3v-1c0-1.66-4.03-3-9-3z" fill="#fbb40a"/><path d="m24 12a22.653 22.653 0 0 0 -5.413.607c.1.311.2.616.307.923a23.211 23.211 0 0 1 5.106-.53c4.97 0 9 1.34 9 3a7.91 7.91 0 0 0 -.15-1.55c-.77-1.39-4.44-2.45-8.85-2.45z" fill="#fbb40a"/><path d="m32.644 13.165a2.633 2.633 0 0 0 -.266-.26 3.666 3.666 0 0 0 -.384-.28l-.034-.025q-.213-.133-.463-.26a18.065 18.065 0 0 0 -7.497-1.34 22.234 22.234 0 0 0 -5.677.675c.087.311.17.624.264.932a22.653 22.653 0 0 1 5.413-.607c4.41 0 8.08 1.06 8.85 2.45a7.91 7.91 0 0 1 .15 1.55v-1a7.91 7.91 0 0 0 -.15-1.55 1.581 1.581 0 0 0 -.2-.276z" fill="#f9d124"/><path d="m24 17a25.149 25.149 0 0 0 -3.616.253c.148.317.3.629.459.94a25.541 25.541 0 0 1 3.157-.193c4.97 0 9 1.34 9 3v-1c0-1.66-4.03-3-9-3z" fill="#89d84f"/><path d="m24 18a25.541 25.541 0 0 0 -3.157.193c.159.315.314.632.482.941l.169-.014a.647.647 0 0 1 .747-.219.777.777 0 0 1 .194.147c.467-.027.945-.044 1.433-.046h.007l.125-.002c.85 0 1.669.042 2.449.115a.421.421 0 0 1 .177-.164.36.36 0 0 1 .457.233 16.1 16.1 0 0 1 3.69.843.434.434 0 0 1 .276 0 .3.3 0 0 1 .165.183c1.117.498 1.786 1.115 1.786 1.79v-1c0-1.662-4.03-3-9-3z" fill="#7ec142"/><path d="m31.5 12.344a7.987 7.987 0 0 0 -5.49-3.284l-.31-.03c-.23-.02-.46-.03-.7-.03h-2c-.24 0-.47.01-.7.03l-.31.03a7.823 7.823 0 0 0 -.937.176.747.747 0 0 1 .09.1c.168.261.126.545-.094.634a.638.638 0 0 1 -.7-.313.657.657 0 0 1 -.078-.178 7.97 7.97 0 0 0 -1.73.877c-.11.073-.2.17-.3.248a.337.337 0 0 1 -.121.316c.065.252.139.5.209.751a22.234 22.234 0 0 1 5.671-.671 18.065 18.065 0 0 1 7.5 1.344zm-3-2.344a.5.5 0 1 1 -.5.5.5.5 0 0 1 .5-.5z" fill="#fbb40a"/><path d="m31.994 12.625-.034-.025z" fill="#fbb40a"/><path d="m32.644 13.165.009.009z" fill="#fbb40a"/><path d="" fill="#fbb40a"/><path d="m40.46 25.36c-.2-.134-.407-.253-.618-.369a.68.68 0 0 1 -.366-.184c-.162-.078-.324-.157-.493-.224a.492.492 0 0 1 -.483.417.5.5 0 0 1 -.5-.5.485.485 0 0 1 .059-.224 8.226 8.226 0 0 0 -.834-.176 2.143 2.143 0 0 0 -.156.406.318.318 0 0 1 -.01.033 1.9 1.9 0 0 0 -.059.461c0 .02.01.04.01.06.071.009.137.028.207.039a.47.47 0 0 1 .692.13 7.969 7.969 0 0 1 2.551 1.131 2.01 2.01 0 0 0 .241-.323 2.142 2.142 0 0 0 .173-.365c-.135-.108-.274-.215-.414-.312z" fill="#81a54b"/><path d="m30.144 25c-.206.113-.41.229-.6.36-.144.1-.279.2-.416.309a2.142 2.142 0 0 0 .173.365 2.01 2.01 0 0 0 .241.323c.015-.01.032-.018.048-.028.083-.055.171-.1.256-.152a7.813 7.813 0 0 1 .764-.414c.1-.049.206-.1.312-.14a8.008 8.008 0 0 1 1.032-.358l.053-.017a7.793 7.793 0 0 1 .985-.191c0-.02.01-.04.01-.06h-2.858z" fill="#81a54b"/><path d="m36 24h-2c-.24 0-.47.01-.7.03l-.292.028a1.951 1.951 0 0 0 .292.972c.057-.005.116 0 .172-.007a.42.42 0 0 1 .2-.009c.11 0 .218-.014.331-.014h2c.24 0 .47.01.7.03a1.951 1.951 0 0 0 .292-.972l-.295-.028c-.23-.02-.46-.03-.7-.03z" fill="#81a54b"/><path d="m29.7 8.037a2.142 2.142 0 0 0 .173-.365c-.137-.1-.272-.212-.416-.309-.2-.134-.407-.253-.618-.369a.68.68 0 0 1 -.366-.184c-.162-.078-.324-.157-.493-.224a.492.492 0 0 1 -.48.414.5.5 0 0 1 -.5-.5.485.485 0 0 1 .059-.224 8.226 8.226 0 0 0 -.834-.176 2.143 2.143 0 0 0 -.156.406.318.318 0 0 1 -.01.033 1.9 1.9 0 0 0 -.059.461c0 .02.01.04.01.06.071.009.137.028.207.039a.47.47 0 0 1 .692.13 7.969 7.969 0 0 1 2.551 1.131 2.01 2.01 0 0 0 .24-.323z" fill="#81a54b"/><path d="m21.931 6.506a2.143 2.143 0 0 0 -.156-.406c-.241.038-.476.092-.71.15a.662.662 0 0 1 .078.09c.168.261.126.545-.094.634a.638.638 0 0 1 -.7-.313.66.66 0 0 1 -.074-.17c-.1.036-.2.069-.294.108a.494.494 0 0 1 -.48.4.483.483 0 0 1 -.24-.07 7.908 7.908 0 0 0 -.72.43c-.144.1-.279.2-.416.309a2.142 2.142 0 0 0 .173.365 2.01 2.01 0 0 0 .241.323 7.942 7.942 0 0 1 3.45-1.3c0-.02.01-.04.01-.06a1.9 1.9 0 0 0 -.059-.461.318.318 0 0 1 -.009-.029z" fill="#81a54b"/><path d="m25 6h-2c-.24 0-.47.01-.7.03l-.292.028a1.951 1.951 0 0 0 .292.972c.057 0 .116 0 .172-.007a.42.42 0 0 1 .2-.009c.11 0 .218-.014.331-.014h2c.24 0 .47.01.7.03a1.951 1.951 0 0 0 .292-.972l-.295-.028c-.23-.02-.46-.03-.7-.03z" fill="#81a54b"/><path d="m32.85 13.45a1.635 1.635 0 0 0 -.2-.276 1.581 1.581 0 0 1 .2.276z" fill="#fdf781"/><path d="m32.378 12.905a2.633 2.633 0 0 1 .266.26 2.437 2.437 0 0 0 -.266-.26z" fill="#fdf781"/><path d="m18.064 9.732a.494.494 0 0 1 -.064-.232.5.5 0 0 1 .5-.5.493.493 0 0 1 .367.166c.2-.123.407-.241.62-.346a.786.786 0 0 1 -.139-.159c-.167-.262-.125-.546.1-.634a.634.634 0 0 1 .7.313.623.623 0 0 1 .071.16 7.817 7.817 0 0 1 .877-.271.47.47 0 0 1 .692-.13c.07-.011.137-.03.207-.039l.31-.03c.23-.02.46-.03.7-.03h2c.24 0 .47.01.7.03h.046a.452.452 0 0 1 .3-.007.272.272 0 0 1 .071.054 7.894 7.894 0 0 1 .942.191.493.493 0 0 1 .436-.268.5.5 0 0 1 .5.5.47.47 0 0 1 -.017.083c.166.067.328.141.488.218a.786.786 0 0 1 -.123-.14c-.167-.262-.125-.546.1-.634a.634.634 0 0 1 .7.313c.168.261.126.545-.094.634a.4.4 0 0 1 -.211.016c.183.1.363.205.537.319a.622.622 0 0 1 .674-.282c.22.088.262.372.094.634a.764.764 0 0 1 -.12.139 7.968 7.968 0 0 1 2.355 3.1 2.437 2.437 0 0 1 .266.26l.009.009a1.635 1.635 0 0 1 .2.276 8.021 8.021 0 0 0 -5.941-6.221.484.484 0 0 1 .083.276.5.5 0 0 1 -1 0 .49.49 0 0 1 .217-.4c-.07-.011-.136-.03-.207-.039l-.31-.03c-.23-.021-.46-.031-.7-.031h-2c-.113 0-.221.01-.331.014a.728.728 0 0 1 .474.326c.168.261.126.545-.094.634a.638.638 0 0 1 -.7-.313c-.167-.262-.125-.546.1-.634h.029c-.056 0-.115 0-.172.007l-.31.03a7.839 7.839 0 0 0 -4.3 1.969c.056.286.121.568.184.852.056-.056.12-.103.184-.153zm6.379-2.7a.634.634 0 0 1 .7.313c.168.261.126.545-.094.634a.638.638 0 0 1 -.7-.313c-.168-.266-.126-.551.094-.639z" fill="#fdf781"/><path d="m31.96 12.6q-.213-.133-.463-.26.251.13.463.26z" fill="#f9d124"/><path d="m32.378 12.905a3.666 3.666 0 0 0 -.384-.28 3.666 3.666 0 0 1 .384.28z" fill="#f9d124"/><path d="m18.143 10.34a.585.585 0 0 1 .092.268c.105-.078.2-.175.3-.248a7.97 7.97 0 0 1 1.73-.877.352.352 0 0 1 .173-.456.591.591 0 0 1 .61.209 7.823 7.823 0 0 1 .937-.176l.31-.03c.23-.02.46-.03.7-.03h2c.24 0 .47.01.7.03l.31.03a7.987 7.987 0 0 1 5.495 3.284q.251.126.463.26l.034.021a3.666 3.666 0 0 1 .384.28 7.968 7.968 0 0 0 -2.355-3.1.579.579 0 0 1 -.58.174c-.22-.089-.262-.373-.1-.634.008-.012.019-.02.027-.031-.174-.114-.354-.218-.537-.319a.679.679 0 0 1 -.367-.189c-.16-.077-.322-.151-.488-.218a.492.492 0 0 1 -.481.412.5.5 0 0 1 -.5-.5.492.492 0 0 1 .062-.228 7.894 7.894 0 0 0 -.942-.191.429.429 0 0 1 .023.58.636.636 0 0 1 -.7.313c-.22-.089-.262-.373-.1-.634a.752.752 0 0 1 .4-.306h-.046c-.227-.024-.457-.034-.697-.034h-2c-.24 0-.47.01-.7.03l-.31.03c-.07.009-.137.028-.207.039a.49.49 0 0 1 .217.401.5.5 0 0 1 -1 0 .484.484 0 0 1 .091-.271 7.817 7.817 0 0 0 -.877.271.357.357 0 0 1 -.165.474.57.57 0 0 1 -.562-.154c-.213.105-.418.223-.62.346a.493.493 0 0 1 .133.334.5.5 0 0 1 -.936.232c-.063.05-.128.1-.19.149.018.082.038.164.057.247a.764.764 0 0 1 .212.212zm5.2-2a.636.636 0 0 1 .7-.313c.22.088.262.372.094.634a.636.636 0 0 1 -.7.313c-.214-.089-.256-.374-.089-.634z" fill="#f9d124"/><path d="m24 13a23.211 23.211 0 0 0 -5.106.53c.105.311.206.625.319.932a23.68 23.68 0 0 1 4.787-.462c4.97 0 9 1.34 9 3v-1c0-1.66-4.03-3-9-3z" fill="#f5f2a3"/><path d="m40.143 24.34a.634.634 0 0 0 -.7-.313c-.22.088-.262.372-.095.634a.749.749 0 0 0 .128.146.68.68 0 0 0 .366.184.409.409 0 0 0 .207-.017c.22-.089.262-.374.094-.634z" fill="#399d4d"/><path d="m35.443 23.027c-.22.088-.262.372-.095.634a.638.638 0 0 0 .7.313c.22-.089.262-.373.094-.634a.634.634 0 0 0 -.699-.313z" fill="#399d4d"/><path d="m35.443 20.027c-.22.088-.262.372-.095.634a.638.638 0 0 0 .7.313c.22-.089.262-.373.094-.634a.634.634 0 0 0 -.699-.313z" fill="#399d4d"/><path d="m37.049 21.027a.636.636 0 0 0 -.7.313c-.167.261-.125.545.095.634a.636.636 0 0 0 .7-.313c.167-.261.125-.546-.095-.634z" fill="#399d4d"/><path d="m35.049 22.027a.4.4 0 0 0 -.131-.019c-.04 0-.079.008-.119.012a.735.735 0 0 0 -.451.32c-.167.261-.125.545.095.634a.636.636 0 0 0 .7-.313c.168-.261.126-.546-.094-.634z" fill="#399d4d"/><path d="m38.5 24a.5.5 0 0 0 -.441.276.485.485 0 0 0 -.059.224.5.5 0 0 0 .5.5.492.492 0 0 0 .483-.417.47.47 0 0 0 .017-.083.5.5 0 0 0 -.5-.5z" fill="#399d4d"/><circle cx="34.5" cy="23.5" fill="#399d4d" r=".5"/><circle cx="37.5" cy="20.5" fill="#399d4d" r=".5"/><path d="m21.385 19.243a.929.929 0 0 1 .109-.123l-.169.014z" fill="#399d4d"/><path d="m31.214 20.21a.509.509 0 0 1 -.071.451.636.636 0 0 1 -.7.313c-.22-.089-.262-.373-.1-.634a.742.742 0 0 1 .425-.313 16.1 16.1 0 0 0 -3.69-.843.641.641 0 0 1 .057.149.634.634 0 0 1 -.274.716c-.218.093-.448-.078-.515-.381a.733.733 0 0 1 .1-.553c-.777-.073-1.596-.115-2.446-.115h-.125a.39.39 0 0 1 .174.025c.22.088.262.372.094.634a.636.636 0 0 1 -.7.313c-.22-.089-.262-.373-.1-.634a.725.725 0 0 1 .52-.338q-.732 0-1.433.046a1.365 1.365 0 0 1 .354 1.287 1.139 1.139 0 0 1 -.379.654c.211.34.425.679.647 1.011h.448a.5.5 0 1 1 .5-.5.5.5 0 0 1 -.5.5h2a.5.5 0 1 1 .5-.5.5.5 0 0 1 -.5.5h2.046a.571.571 0 0 1 -.2-.332.637.637 0 0 1 .275-.717c.217-.093.448.078.514.382a.663.663 0 0 1 -.208.667h1.573a.5.5 0 1 1 .5-.5.5.5 0 0 1 -.5.5h2a.5.5 0 1 1 .5-.5.5.5 0 0 1 -.5.5h1.5c0-.67-.669-1.288-1.786-1.788zm-6.714.79a.5.5 0 1 1 .5-.5.5.5 0 0 1 -.5.5zm1.549-.026a.638.638 0 0 1 -.7-.313c-.167-.262-.125-.546.1-.634a.634.634 0 0 1 .7.313c.162.26.12.545-.1.634zm1.094.687a.636.636 0 0 1 -.7.313c-.22-.089-.262-.373-.1-.634a.636.636 0 0 1 .7-.313c.226.088.268.373.1.634zm2-1a.636.636 0 0 1 -.7.313c-.22-.089-.262-.373-.1-.634a.636.636 0 0 1 .7-.313c.226.088.268.373.1.634z" fill="#399d4d"/><path d="m28.476 6.807a.68.68 0 0 0 .366.184.409.409 0 0 0 .207-.017c.22-.089.262-.373.094-.634a.634.634 0 0 0 -.7-.313c-.22.088-.262.372-.1.634a.749.749 0 0 0 .133.146z" fill="#399d4d"/><path d="m19.722 5.028a.437.437 0 0 0 -.279 0 .3.3 0 0 0 -.133.1.477.477 0 0 0 .038.53.638.638 0 0 0 .7.313c.22-.089.262-.373.094-.634a.737.737 0 0 0 -.42-.309z" fill="#399d4d"/><path d="m25.049 5.974c.22-.089.262-.373.094-.634a.634.634 0 0 0 -.7-.313c-.22.088-.262.372-.1.634a.638.638 0 0 0 .706.313z" fill="#399d4d"/><path d="m21.065 6.25a.6.6 0 0 0 -.622-.223.353.353 0 0 0 -.169.464.66.66 0 0 0 .074.17.638.638 0 0 0 .7.313c.22-.089.262-.373.094-.634a.662.662 0 0 0 -.077-.09z" fill="#399d4d"/><path d="m25.049 2.974c.22-.089.262-.373.094-.634a.634.634 0 0 0 -.7-.313c-.22.088-.262.372-.1.634a.638.638 0 0 0 .706.313z" fill="#399d4d"/><path d="m25.443 3.974a.636.636 0 0 0 .7-.313c.168-.262.126-.546-.094-.634a.636.636 0 0 0 -.7.313c-.168.26-.126.545.094.634z" fill="#399d4d"/><path d="m23.443 4.974a.636.636 0 0 0 .7-.313c.168-.262.126-.546-.094-.634a.4.4 0 0 0 -.131-.019c-.04 0-.079.008-.119.012a.735.735 0 0 0 -.451.32c-.167.26-.125.545.095.634z" fill="#399d4d"/><path d="m27.5 7a.492.492 0 0 0 .483-.417.47.47 0 0 0 .017-.083.5.5 0 0 0 -.941-.224.485.485 0 0 0 -.059.224.5.5 0 0 0 .5.5z" fill="#399d4d"/><circle cx="23.5" cy="5.5" fill="#399d4d" r=".5"/><path d="m19.5 6a.5.5 0 0 0 -.5.5.493.493 0 0 0 .26.43.483.483 0 0 0 .24.07.494.494 0 0 0 .48-.4.47.47 0 0 0 .02-.1.5.5 0 0 0 -.5-.5z" fill="#399d4d"/><circle cx="26.5" cy="2.5" fill="#399d4d" r=".5"/><g fill="#b6cf50"><path d="m37.215 24.127.014-.026c-.008.008-.01.018-.014.026z"/><path d="m37.229 24.1a8.365 8.365 0 0 1 .83.175.5.5 0 0 1 .941.225.47.47 0 0 1 -.017.083c.169.067.331.146.493.224a.749.749 0 0 1 -.128-.146c-.167-.262-.125-.546.095-.634a.634.634 0 0 1 .7.313c.168.261.126.545-.094.634a.409.409 0 0 1 -.207.017c.211.116.419.235.618.369.144.1.279.2.416.309a1.943 1.943 0 0 0 .124-.669 1.99 1.99 0 0 0 -3.771-.9z"/><path d="m37.215 24.127a2.02 2.02 0 0 0 -.146.379 2.12 2.12 0 0 1 .146-.379z"/><path d="m29.124 25.669c.137-.105.272-.212.416-.309.194-.131.4-.247.6-.36h-1.14a1.943 1.943 0 0 0 .124.669z"/><path d="m33.008 24.058.292-.028c.23-.02.46-.03.7-.03h.5a.5.5 0 1 1 .5-.5.5.5 0 0 1 -.5.5h1.5c.24 0 .47.01.7.03l.292.028a1.951 1.951 0 0 1 -.292.972 1.937 1.937 0 0 0 .3-1.03 1.994 1.994 0 0 0 -.29-1.03 2.582 2.582 0 0 0 .29.03 2.01 2.01 0 1 0 -1.71-.97 2.582 2.582 0 0 0 -.29-.03c-.028 0-.054.007-.082.008a.4.4 0 0 1 .131.019c.22.088.262.372.094.634a.636.636 0 0 1 -.7.313c-.22-.089-.262-.373-.095-.634a.735.735 0 0 1 .451-.32 2 2 0 0 0 -1.799 1.98 1.937 1.937 0 0 0 .3 1.03 1.951 1.951 0 0 1 -.292-.972zm4.492-4.058a.5.5 0 1 1 -.5.5.5.5 0 0 1 .5-.5zm-1.152 1.34a.636.636 0 0 1 .7-.313c.22.088.262.372.094.634a.636.636 0 0 1 -.7.313c-.219-.089-.261-.374-.094-.634zm-.905-1.313a.634.634 0 0 1 .7.313c.168.261.126.545-.094.634a.638.638 0 0 1 -.7-.313c-.168-.261-.126-.546.094-.634zm0 3a.634.634 0 0 1 .7.313c.168.261.126.545-.094.634a.638.638 0 0 1 -.7-.313c-.168-.261-.126-.546.094-.634z"/><path d="m39.443 26.027c-.22.088-.262.372-.095.634a.786.786 0 0 0 .123.14.679.679 0 0 0 .367.189.4.4 0 0 0 .211-.016c.22-.089.262-.373.094-.634a.634.634 0 0 0 -.7-.313z"/><path d="m28.7 28.021a.422.422 0 0 0 -.252.006.293.293 0 0 0 -.152.152c.041.039.081.079.123.118.187.174.373.35.563.521l.13.112a.336.336 0 0 0 .128-.322.585.585 0 0 0 -.092-.268.732.732 0 0 0 -.448-.319z"/><path d="m31.143 26.34a.634.634 0 0 0 -.7-.313c-.22.088-.262.372-.1.634a.786.786 0 0 0 .139.159.57.57 0 0 0 .562.154.357.357 0 0 0 .165-.474.623.623 0 0 0 -.066-.16z"/><path d="m33.669 25.014c-.065 0-.132 0-.2.009-.009 0-.02 0-.029 0-.22.088-.262.372-.095.634a.638.638 0 0 0 .7.313c.22-.089.262-.373.094-.634a.728.728 0 0 0 -.47-.322z"/><path d="m32.053 27.236a.591.591 0 0 0 -.61-.209.352.352 0 0 0 -.173.456.657.657 0 0 0 .078.178.638.638 0 0 0 .7.313c.22-.089.262-.373.094-.634a.747.747 0 0 0 -.089-.104z"/><path d="m35.443 25.027c-.22.088-.262.372-.095.634a.638.638 0 0 0 .7.313c.22-.089.262-.373.094-.634a.634.634 0 0 0 -.699-.313z"/><path d="m37.049 26.027a.452.452 0 0 0 -.3.007.752.752 0 0 0 -.4.306c-.167.261-.125.545.095.634a.636.636 0 0 0 .7-.313.429.429 0 0 0 -.023-.58.272.272 0 0 0 -.072-.054z"/><path d="m41.049 27.027a.622.622 0 0 0 -.674.282c-.008.011-.019.019-.027.031-.167.261-.125.545.095.634a.579.579 0 0 0 .58-.174.764.764 0 0 0 .12-.139c.168-.261.126-.546-.094-.634z"/><path d="m35.049 26.027a.636.636 0 0 0 -.7.313c-.167.261-.125.545.095.634a.636.636 0 0 0 .7-.313c.167-.261.125-.546-.095-.634z"/><path d="m38.5 26a.519.519 0 0 0 -.5.5.5.5 0 0 0 .5.5.492.492 0 0 0 .483-.417.47.47 0 0 0 .017-.083.5.5 0 0 0 -.5-.5z"/><circle cx="39.5" cy="28.5" r=".5"/><path d="m32.5 26a.491.491 0 0 0 -.409.229.484.484 0 0 0 -.091.271.5.5 0 0 0 1 0 .525.525 0 0 0 -.5-.5z"/><path d="m29.5 27a.5.5 0 0 0 -.5.5.518.518 0 0 0 .5.5.5.5 0 0 0 .5-.5.509.509 0 0 0 -.5-.5z"/><path d="m37.909 25.229a.5.5 0 0 0 -.909.271.5.5 0 0 0 1 0 .484.484 0 0 0 -.091-.271z"/><path d="m26.215 6.127a2.02 2.02 0 0 0 -.146.379 2.12 2.12 0 0 1 .146-.379z"/><path d="m26.229 6.1a8.365 8.365 0 0 1 .83.175.5.5 0 0 1 .941.225.47.47 0 0 1 -.017.083c.169.067.331.146.493.224a.749.749 0 0 1 -.128-.146c-.167-.262-.125-.546.1-.634a.634.634 0 0 1 .7.313c.168.261.126.545-.094.634a.409.409 0 0 1 -.207.017c.211.116.419.235.618.369.144.1.279.2.416.309a1.943 1.943 0 0 0 .119-.669 1.99 1.99 0 0 0 -3.771-.9z"/><path d="m26.215 6.127.014-.026c-.008.008-.01.018-.014.026z"/><path d="m21.785 6.127a2.12 2.12 0 0 1 .146.379 2.02 2.02 0 0 0 -.146-.379z"/><path d="m18.54 7.36a7.908 7.908 0 0 1 .72-.43.493.493 0 0 1 -.26-.43.5.5 0 0 1 1 0 .47.47 0 0 1 -.02.1c.1-.039.2-.072.294-.108a.353.353 0 0 1 .169-.464.6.6 0 0 1 .622.223c.233-.057.466-.112.706-.149a1.991 1.991 0 0 0 -1.771-1.102 1.969 1.969 0 0 0 -.278.028.737.737 0 0 1 .421.312c.168.261.126.545-.094.634a.638.638 0 0 1 -.7-.313.477.477 0 0 1 -.038-.53 2 2 0 0 0 -1.311 1.869 1.943 1.943 0 0 0 .124.669c.137-.105.276-.212.416-.309z"/><path d="m21.775 6.1.014.026c-.008-.007-.01-.017-.014-.026z"/><path d="m22.008 6.058.292-.028c.23-.02.46-.03.7-.03h.5a.5.5 0 1 1 .5-.5.5.5 0 0 1 -.5.5h1.5c.24 0 .47.01.7.03l.292.028a1.951 1.951 0 0 1 -.292.972 1.937 1.937 0 0 0 .3-1.03 1.994 1.994 0 0 0 -.29-1.03 2.582 2.582 0 0 0 .29.03 2.01 2.01 0 1 0 -1.71-.97 2.582 2.582 0 0 0 -.29-.03c-.028 0-.054.007-.082.008a.4.4 0 0 1 .131.019c.22.088.262.372.094.634a.636.636 0 0 1 -.7.313c-.22-.089-.262-.373-.1-.634a.735.735 0 0 1 .451-.32 2 2 0 0 0 -1.794 1.98 1.937 1.937 0 0 0 .3 1.03 1.951 1.951 0 0 1 -.292-.972zm4.492-4.058a.5.5 0 1 1 -.5.5.5.5 0 0 1 .5-.5zm-1.152 1.34a.636.636 0 0 1 .7-.313c.22.088.262.372.094.634a.636.636 0 0 1 -.7.313c-.219-.089-.261-.374-.094-.634zm-.9-1.313a.634.634 0 0 1 .7.313c.168.261.126.545-.094.634a.638.638 0 0 1 -.7-.313c-.173-.261-.131-.546.089-.634zm0 3a.634.634 0 0 1 .7.313c.168.261.126.545-.094.634a.638.638 0 0 1 -.7-.313c-.173-.261-.131-.546.089-.634z"/><path d="m27.049 21.027a.636.636 0 0 0 -.7.313c-.167.261-.125.545.1.634a.636.636 0 0 0 .7-.313c.162-.261.12-.546-.1-.634z"/><path d="m30.443 20.974a.636.636 0 0 0 .7-.313.509.509 0 0 0 .071-.451.3.3 0 0 0 -.165-.183.434.434 0 0 0 -.276 0 .742.742 0 0 0 -.425.313c-.167.26-.125.545.095.634z"/><path d="m28.443 20.974a.636.636 0 0 0 .7-.313c.168-.262.126-.546-.094-.634a.636.636 0 0 0 -.7.313c-.168.26-.126.545.094.634z"/><path d="m25.443 20.027c-.22.088-.262.372-.1.634a.638.638 0 0 0 .7.313c.22-.089.262-.373.094-.634a.634.634 0 0 0 -.694-.313z"/><path d="m23.875 19h-.007a.722.722 0 0 0 -.52.338c-.167.261-.125.545.1.634a.636.636 0 0 0 .7-.313c.168-.262.126-.546-.094-.634a.39.39 0 0 0 -.179-.025z"/><path d="m27.626 20.951a.637.637 0 0 0 -.275.717.571.571 0 0 0 .2.332h.386a.663.663 0 0 0 .208-.667c-.071-.304-.302-.475-.519-.382z"/><path d="m26.866 20.049a.634.634 0 0 0 .274-.716.641.641 0 0 0 -.057-.149.361.361 0 0 0 -.457-.233.421.421 0 0 0 -.177.164.733.733 0 0 0 -.1.553c.069.303.299.474.517.381z"/><path d="m22.241 18.9a.645.645 0 0 0 -.747.218.929.929 0 0 0 -.109.123c.324.593.669 1.174 1.025 1.746a1.139 1.139 0 0 0 .379-.654 1.365 1.365 0 0 0 -.354-1.287.749.749 0 0 0 -.194-.146z"/><circle cx="29.5" cy="21.5" r=".5"/><circle cx="24.5" cy="20.5" r=".5"/><circle cx="23.5" cy="21.5" r=".5"/><circle cx="25.5" cy="21.5" r=".5"/><circle cx="31.5" cy="21.5" r=".5"/><path d="m29.143 8.34a.634.634 0 0 0 -.7-.313c-.22.088-.262.372-.1.634a.786.786 0 0 0 .123.14.679.679 0 0 0 .367.189.4.4 0 0 0 .211-.016c.225-.089.267-.374.099-.634z"/><path d="m17.931 10.128c.047.2.091.41.141.613.015.06.027.122.042.183a.337.337 0 0 0 .121-.316.585.585 0 0 0 -.092-.268.764.764 0 0 0 -.212-.212z"/><path d="m20.143 8.34a.634.634 0 0 0 -.7-.313c-.22.088-.262.372-.1.634a.786.786 0 0 0 .139.159.57.57 0 0 0 .562.154.357.357 0 0 0 .165-.474.623.623 0 0 0 -.066-.16z"/><path d="m23.143 7.34a.728.728 0 0 0 -.474-.326c-.065 0-.132 0-.2.009-.009 0-.02 0-.029 0-.22.088-.262.372-.1.634a.638.638 0 0 0 .7.313c.229-.085.271-.37.103-.63z"/><path d="m21.053 9.236a.591.591 0 0 0 -.61-.209.352.352 0 0 0 -.173.456.657.657 0 0 0 .078.178.638.638 0 0 0 .7.313c.22-.089.262-.373.094-.634a.747.747 0 0 0 -.089-.104z"/><path d="m24.443 7.027c-.22.088-.262.372-.1.634a.638.638 0 0 0 .7.313c.22-.089.262-.373.094-.634a.634.634 0 0 0 -.694-.313z"/><path d="m26.049 8.027a.452.452 0 0 0 -.3.007.752.752 0 0 0 -.4.306c-.167.261-.125.545.1.634a.636.636 0 0 0 .7-.313.429.429 0 0 0 -.023-.58.272.272 0 0 0 -.077-.054z"/><path d="m30.049 9.027a.622.622 0 0 0 -.674.282c-.008.011-.019.019-.027.031-.167.261-.125.545.1.634a.579.579 0 0 0 .58-.174.764.764 0 0 0 .12-.139c.163-.261.121-.546-.099-.634z"/><path d="m24.049 8.027a.636.636 0 0 0 -.7.313c-.167.261-.125.545.1.634a.636.636 0 0 0 .7-.313c.162-.261.12-.546-.1-.634z"/><path d="m27.983 8.583a.47.47 0 0 0 .017-.083.5.5 0 0 0 -.5-.5.519.519 0 0 0 -.5.5.5.5 0 0 0 .5.5.492.492 0 0 0 .483-.417z"/><circle cx="28.5" cy="10.5" r=".5"/><path d="m21.5 8a.491.491 0 0 0 -.409.229.484.484 0 0 0 -.091.271.5.5 0 0 0 1 0 .525.525 0 0 0 -.5-.5z"/><path d="m18.5 9a.5.5 0 0 0 -.5.5.518.518 0 0 0 .5.5.5.5 0 0 0 .5-.5.509.509 0 0 0 -.5-.5z"/><path d="m26.5 8a.5.5 0 0 0 .5-.5.484.484 0 0 0 -.091-.271.5.5 0 0 0 -.909.271.5.5 0 0 0 .5.5z"/></g><path d="m32.721 24h-8.221c.26.337.521.673.793 1h7.707v-1z" fill="#e6642f"/><path d="m29.5 22h-1.568a.342.342 0 0 1 -.066.049.309.309 0 0 1 -.32-.049h-4.489c.227.339.464.669.7 1h9.243v-1z" fill="#fbb40a"/><path d="m27.866 22.049a.342.342 0 0 0 .066-.049h-.386a.309.309 0 0 0 .32.049z" fill="#fbb40a"/><ellipse cx="28" cy="11" fill="#f6fafd" rx="1.65" ry="2.297" transform="matrix(.707 -.707 .707 .707 .427 23.03)"/><ellipse cx="31" cy="15" fill="#f6fafd" rx=".825" ry="1.148" transform="matrix(.707 -.707 .707 .707 -1.523 26.325)"/><ellipse cx="25" cy="9" fill="#f6fafd" rx=".825" ry="1.148" transform="matrix(.707 -.707 .707 .707 .962 20.322)"/><ellipse cx="39" cy="29" fill="#f6fafd" rx="1.65" ry="2.297" transform="matrix(.707 -.707 .707 .707 -9.081 36.088)"/><ellipse cx="42" cy="33" fill="#f6fafd" rx=".825" ry="1.148" transform="matrix(.707 -.707 .707 .707 -11.031 39.382)"/><ellipse cx="20" cy="35" fill="#f6fafd" rx=".825" ry="1.148" transform="matrix(.707 -.707 .707 .707 -18.895 24.407)"/><ellipse cx="28.746" cy="17.5" fill="#f0f8fe" rx=".413" ry=".574" transform="matrix(.707 -.707 .707 .707 -3.958 25.441)"/><ellipse cx="41.746" cy="30.5" fill="#f0f8fe" rx=".413" ry=".574" transform="matrix(.707 -.707 .707 .707 -9.343 38.435)"/><ellipse cx="17.746" cy="34.5" fill="#f0f8fe" rx=".413" ry=".574" transform="matrix(.707 -.707 .707 .707 -19.194 22.64)"/><ellipse cx="39.746" cy="24.5" fill="#f0f8fe" rx=".413" ry=".574" transform="matrix(.707 -.707 .707 .707 -5.687 35.265)"/><ellipse cx="37.746" cy="20.5" fill="#f0f8fe" rx=".413" ry=".574" transform="matrix(.707 -.707 .707 .707 -3.445 32.681)"/></g></svg>