<svg id="icons" height="512" viewBox="0 0 64 64" width="512" xmlns="http://www.w3.org/2000/svg"><path d="m21.5 32v27h21v-27z" fill="#e6ecf4"/><path d="m42.5 59v2.55a1.451 1.451 0 0 1 -1.45 1.45h-18.1a1.451 1.451 0 0 1 -1.45-1.45v-2.55z" fill="#a05454"/><g fill="#b18fff"><circle cx="30" cy="41.5" r="2.5"/><circle cx="30" cy="47.5" r="2.5"/><circle cx="35" cy="44.5" r="2.5"/></g><path d="m38.5 6.56v2.88a.55908.55908 0 0 1 -.56.56h-11.88a.55908.55908 0 0 1 -.56-.56v-2.88a.55908.55908 0 0 1 .56-.56h11.88a.55908.55908 0 0 1 .56.56z" fill="#636a74"/><path d="m36.5 1v5h-9v-4c3-.33 6-.67 9-1z" fill="#4d5662"/><path d="m27.5 16.44v-6.44h9v6.44a10.9619 10.9619 0 0 0 1 4.56h-11a10.9619 10.9619 0 0 0 1-4.56z" fill="#4d5662"/><path d="m42.5 31.23v.77h-21v-.77a9.692 9.692 0 0 1 2.13-6l1.39-1.79a12.32134 12.32134 0 0 0 1.48-2.44h11a12.32134 12.32134 0 0 0 1.48 2.44l1.39 1.79a9.692 9.692 0 0 1 2.13 6z" fill="#a05454"/><path d="m34.5 41a1 1 0 0 1 -.76074-1.64941 3.60993 3.60993 0 0 0 .78418-3.13379 1.00034 1.00034 0 0 1 1.95312-.4336 5.60962 5.60962 0 0 1 -1.21582 4.86621.999.999 0 0 1 -.76074.35059z" fill="#a0d964"/><path d="m37.5 56h-11a1 1 0 0 1 0-2h11a1 1 0 0 1 0 2z" fill="#cad1e1"/><path d="m30.5 18a.99943.99943 0 0 1 -1-1v-3a1 1 0 0 1 2 0v3a.99943.99943 0 0 1 -1 1z" fill="#636a74"/></svg>