<svg id="Bamboo_Shoot" enable-background="new 0 0 64 64" viewBox="0 0 64 64" xmlns="http://www.w3.org/2000/svg"><g><g><path d="m37.33358 4.17361 8.90334 35.94287c.44897 1.81251-.92256 3.56524-2.78985 3.56524h-22.89415c-1.86729 0-3.23882-1.75272-2.78985-3.56524l8.90334-35.94287c1.37845-5.56481 9.28872-5.56481 10.66717 0z" fill="#9ce370"/><path d="m28.67338 21.79918c-.31864 2.44341-.48866 4.99317-.48866 7.60661 0 2.61357.17002 5.16332.48866 7.60674.08508.67995.19129 1.35989.2975 2.01857.25496 1.59358.595 3.1659.99871 4.65327h-9.41288c-.59487 0-1.14733-.17002-1.59358-.46752-.97732-.65868-1.50851-1.86982-1.18987-3.10209l.63754-2.5923 5.05698-20.41908 3.2083-12.93995c1.12619-4.56819 6.71437-5.37562 9.41288-2.40088-2.46481 3.25084-4.48338 7.47913-5.86441 12.36609-.46752 1.63612-.84996 3.35718-1.16873 5.12079-.14861.82868-.2761 1.67852-.38244 2.54975z" opacity=".15"/></g><g><path d="m23.27799 18.03458 12.88656-7.23807c2.80943-1.57799 6.34983-.04719 7.1246 3.08054l5.43262 21.93155z" fill="#75d64c"/><path d="m30.22456 14.12863c-.46752 1.63612-.84996 3.35718-1.16873 5.12079-.14862.82869-.2761 1.67853-.38244 2.54976l-5.39689-3.7609 1.55105-.8711z" opacity=".15"/></g><g><path d="m46.26692 28.91598-19.99938-11.23317c-2.80943-1.57799-6.34983-.04719-7.1246 3.08055l-6.96412 28.11423z" fill="#66b941"/><path d="m28.67338 37.01252c.08508.67995.19129 1.35989.2975 2.01857l-3.8033 2.25226-4.12207 2.40101-2.18858 1.27481-6.6717 3.90965 2.84713-11.51625 4.1008-16.5945c.53119-2.12478 2.35847-3.50593 4.33463-3.65468.44612-.06368.91364-.04254 1.35976.0638.48879.08495.97744.25496 1.44483.50993l2.78345 1.57232c-.14862.82869-.2761 1.67853-.38244 2.54976-.31864 2.44341-.48866 4.99317-.48866 7.60661-.00001 2.61354.17001 5.1633.48865 7.60671z" opacity=".15"/></g><g><path d="m54.40453 57.68657c-.76502 1.27494-1.95489 2.2948-3.44213 2.86853-.36131.12748-.72248.27623-1.08366.38244l-29.47064-14.08729c-2.10364-.99858-2.20985-3.95205-.17002-5.09952l2.88967-1.61472 19.82421-11.13394c2.80472-1.59358 6.35306-.04241 7.11795 3.08095l3.73963 15.06473 1.35989 5.52437c.44611 1.7636.12747 3.54834-.7649 5.01445z" fill="#75d64c"/><path d="m33.62415 53.16091-13.21605-6.31066c-.82869-.38245-1.35989-1.10493-1.55118-1.89108-.14875-.5736-.10621-1.18987.10621-1.74233.23382-.59487.6588-1.1048 1.27494-1.4661l2.88967-1.61472 5.54564-3.12349c.08508.67995.19129 1.35989.2975 2.01857.25496 1.59358.595 3.1659.99871 4.65327.02114.10621.04241.2337.06368.33991.91364 3.37844 2.12478 6.45939 3.59088 9.13663z" opacity=".15"/></g><g><path d="m54.40453 57.68657c-.76502 1.27494-1.95489 2.2948-3.44213 2.86853-.36131.12748-.72248.27623-1.08366.38244-11.75008 4.20702-25.19996 4.07954-36.84369-.38244-3.18717-1.21114-5.03571-4.56832-4.20702-7.88297l1.35989-5.52437 1.57231-6.33192c.76489-3.12336 4.31323-4.65314 7.11795-3.08082l4.24955 2.40101z" fill="#9ce370"/><path d="m42.99449 62.87103c-9.9228 2.0611-20.52542 1.29621-29.95943-2.31593-3.18717-1.21114-5.03571-4.56832-4.20702-7.88297l1.35989-5.52437 1.57231-6.33192c.42498-1.7422 1.72106-2.99588 3.27211-3.46327 1.08366-.36131 2.27353-.31877 3.37845.16989.14875.04254.31864.12748.46739.21256l4.24955 2.40101 2.03983 1.14733 4.29196 2.40101.57373.33991c.91364 3.37845 2.12478 6.4594 3.59088 9.13664 2.50723 4.61072 5.73693 8.03158 9.37035 9.71011z" opacity=".15"/></g></g></svg>