<svg id="Capa_1" enable-background="new 0 0 512 512" viewBox="0 0 512 512" xmlns="http://www.w3.org/2000/svg"><g><g><path d="m59.239 154.709-7.639-8.81c-7.383-.517-14.8-.617-22.214-.293l-14.581.637c-4.966.217-9.525 2.805-12.257 6.957-3.597 5.466-3.369 12.604.57 17.829 7.51 9.961 15.943 19.161 25.171 27.488h11.825c13.08-10.655 20.203-26.973 19.125-43.808z" fill="#c68d7a"/><path d="m478.859 94.563-.433 3.132c-3.503 25.62-12.053 50.005-24.899 71.876-12.846 21.861-29.978 41.207-50.654 56.753-84.392 63.439-210.188 60.935-289.512 28.052-11.117-4.609-21.407-11.249-31.657-17.997l-29.875-19.656c-8.314-5.47-16.174-11.559-23.54-18.203l4.152-3.039c13.083-10.662 20.202-26.98 19.131-43.814l.031-5.769c6.047.422 12.084 1.133 18.069 2.112 5.985.989 11.94 2.256 17.822 3.791 102.194 26.744 210.332 11.909 301.081-40.342 10.086-5.8 31.849-12.069 41.471-18.786l7.881-5.511 14.746-19.928z" fill="#ffe177"/><path d="m478.859 94.563-.433 3.132c-3.503 25.62-12.053 50.005-24.899 71.876-12.846 21.861-29.978 41.207-50.654 56.753-84.392 63.439-196.332 73.267-289.512 28.052 1.885-.165 3.77-.309 5.656-.422 100.298-6.243 195.013-53.837 259.884-130.565 3.286-3.884 6.521-7.871 9.673-11.93 10.086-5.8 19.944-12.074 29.566-18.79l7.881-5.511 26.651-19.924z" fill="#ffd15b"/><g><path d="m217.941 215.287c-4.268 0-7.726-3.459-7.726-7.726s3.459-7.726 7.726-7.726c38.974 0 76.784-8.05 112.376-23.926l71.401-33.236c3.867-1.801 8.465-.125 10.266 3.744s.124 8.464-3.744 10.265l-71.456 33.262c-.037.018-.074.034-.112.051-37.604 16.782-77.551 25.292-118.731 25.292z" fill="#ffd15b"/></g><path d="m411.985 146.416c-1.801-3.869-6.398-5.545-10.266-3.744l-71.401 33.236c-4.448 1.984-8.93 3.845-13.445 5.584-14.491 10.734-29.737 20.395-45.594 28.91 22.406-4.164 44.27-10.98 65.394-20.408.037-.017.074-.033.112-.051l71.456-33.262c3.867-1.801 5.544-6.396 3.744-10.265z" fill="#ffc344"/></g><g><path d="m85.173 295.65-5.809-4.745c-5.262 1.501-10.468 3.216-15.597 5.157l-13.65 5.166c-4.648 1.759-8.17 5.643-9.466 10.442-1.707 6.317.743 13.025 6.119 16.756 8.377 5.813 17.183 10.944 26.327 15.37l6.418-1.77c9.644-13.841 11.325-30.487 5.658-46.376z" fill="#c68d7a"/><path d="m443.761 255.889v.01c-12.249 17.595-26.27 33.46-41.702 47.429-15.133 13.712-31.616 25.61-49.109 35.582-25.95 14.793-49.414 13.358-78.681 19.23-22.849 4.595-51.07 18.32-74.723 17.032-19.244-1.04-38.57-4.09-57.7-9.261l-34.511-9.323c-11.816-3.194-23.272-7.479-34.233-12.795l1.968-3.224c3.812-5.47 6.377-11.373 7.737-17.493.58-2.604 4.182-5.138 4.329-7.807.137-2.495-3.153-5.122-3.392-7.646-.422-4.492-1.432-8.993-3.018-13.433l-1.36-3.286c6.758-1.937 13.629-3.503 20.562-4.687 6.923-1.195 13.928-2.009 20.964-2.452 109.261-6.799 210.6-58.02 280.827-141.094 5.079-5.996 22.399-10.776 27.138-17.101l26.785-37.025 2.359 1.484 16.707 16.947.577 3.121c9.374 50.861-1.979 103.349-31.524 145.792z" fill="#ffe177"/><path d="m443.761 255.889v.01c-12.249 17.595-26.27 33.46-41.702 47.429-15.133 13.712-31.616 25.61-49.109 35.582-25.95 14.793-54.126 25.332-83.393 31.204-22.849 4.595-46.358 6.346-70.011 5.058 1.648-.834 3.307-1.638 4.966-2.421 16.74-7.902 33.028-17.132 48.398-27.444 71.762-48.182 124.363-119.892 148.81-202.637 5.079-5.996 9.993-12.167 14.732-18.492l26.785-37.025 2.359 1.484 29.113 18.337.577 3.121c9.373 50.863-1.98 103.351-31.525 145.794z" fill="#ffd15b"/></g><g><g><path d="m190.282 422.808-8.84-1.152c-4.383 3.371-8.632 6.923-12.723 10.662l-10.774 9.846c-3.669 3.353-5.505 8.263-4.935 13.201.749 6.501 5.505 11.828 11.879 13.307 9.816 2.278 19.776 3.784 29.789 4.527l7.228-4.025c3.845-16.425-.485-33.696-11.624-46.366z" fill="#c68d7a"/><path d="m503.537 205.474c0 17.029-1.669 33.409-5.048 47.873-26.805 114.762-115.316 196.084-232.386 209.59l-35.521 4.09c-12.269 1.411-20.588 3.972-32.868 3.055l.731-2.514c.891-3.822-1.696-4.578-1.671-8.424.012-1.845-.074-3.685-.258-5.511-.289-2.921 1.458-6.759.687-9.579-.602-2.203-3.629-3.414-4.519-5.523-2.153-5.12-5.13-9.931-8.901-14.216l-2.339-2.658c5.553-4.265 11.332-8.241 17.307-11.899 5.975-3.647 12.146-6.985 18.502-9.982 18.275-8.623 35.747-18.554 52.302-29.659 79.571-53.415 137.952-134.078 163.325-227.876l12.713-53.6.35-1.484 14.433-9.941 15.035 6.902c19.729 31.1 28.126 79.15 28.126 121.356z" fill="#ffe177"/><path d="m482.032 87.156-21.654-9.941-7.374 5.079c16.472 30.656 24.997 72.478 24.997 110.979 0 17.029-1.669 33.409-5.048 47.873-26.805 114.762-122.788 200.319-239.857 213.824l-35.521 4.09c-.27.031-.541.054-.811.084-.026 3.847-.469 7.716-1.36 11.538l-.731 2.514c12.28.917 24.632.67 36.901-.742l35.521-4.09c117.07-13.506 213.052-99.062 239.857-213.824 3.379-14.464 5.048-30.844 5.048-47.873 0-42.206-10.24-88.41-29.968-119.511z" fill="#ffd15b"/></g><g><path d="m431.831 252.85c-8.695 17.668-18.656 34.532-29.772 50.479 0 0-.01 0-.01.01-43.556 62.46-104.893 110.951-177.16 139.208l-28.371 11.085c-.515-5.202-1.803-10.292-3.832-15.102l26.579-10.374c51.148-19.996 96.59-50.551 133.686-89.245 26.115-27.207 48.089-58.452 65.015-92.881 1.885-3.822 6.511-5.408 10.343-3.523 3.831 1.885 5.408 6.521 3.522 10.343z" fill="#ffd15b"/></g></g><path d="m426.019 87.16-23.975-40.747c-2.121-3.605.478-8.15 4.661-8.15h38.07l21.843 4.14c6.761 0 12.241 5.481 12.241 12.241l-23.218 32.516z" fill="#c68d7a"/><path d="m469.787 38.263h-27.073c7.139 0 12.927 5.481 12.927 12.241v36.656h26.387v-36.656c.001-6.76-5.48-12.241-12.241-12.241z" fill="#bc7c63"/><g><path d="m216.039 304.792c-43.123 11.6-85.402 17.585-129.267 18.286h-3.966c1.123-5.038 1.432-10.23.938-15.453h2.843c42.557-.68 83.578-6.49 125.435-17.76 4.11-1.113 8.355 1.329 9.467 5.45 1.113 4.12-1.329 8.364-5.45 9.477z" fill="#ffd15b"/></g></g><g/><g/><g/><g/><g/><g/><g/><g/><g/><g/><g/><g/><g/><g/><g/></svg>