<svg id="Layer_1" enable-background="new 0 0 512 512" height="512" viewBox="0 0 512 512" width="512" xmlns="http://www.w3.org/2000/svg"><g><g><path clip-rule="evenodd" d="m405.891 284.341c0-80.802-52.685-93.505-78.051-152.289l-72.919-24.734-70.791 24.734c-25.366 58.784-78.022 71.457-78.022 152.289l151.786 31.042z" fill="#db885e" fill-rule="evenodd"/></g><g><path clip-rule="evenodd" d="m314.516 58.609-58.137-11.418-58.924 11.418c0 31.538-5.277 54.812-13.324 73.443h143.71c-8.018-18.631-13.325-41.905-13.325-73.443z" fill="#c3ddff" fill-rule="evenodd"/></g><g><path clip-rule="evenodd" d="m314.575 0h-117.15c-7.61 0-13.849 6.22-13.849 13.842v30.925c0 7.622 6.239 13.842 13.849 13.842h.029 117.062.058c7.581 0 13.82-6.22 13.82-13.842v-30.925c.001-7.622-6.239-13.842-13.819-13.842z" fill="#a9aac9" fill-rule="evenodd"/></g><g><path clip-rule="evenodd" d="m405.891 436.863-147.996-30.896-151.786 30.896v36.035c0 21.493 17.552 39.102 39.04 39.102h17.96 185.753 17.989c21.459 0 39.04-17.609 39.04-39.102z" fill="#db885e" fill-rule="evenodd"/></g><g><path clip-rule="evenodd" d="m405.891 284.341-147.996.146-151.786-.146v152.522h151.786 147.996c0-50.841 0-101.682 0-152.522z" fill="#ffe07d" fill-rule="evenodd"/></g><g><path clip-rule="evenodd" d="m327.841 132.052c-8.018-18.631-13.324-41.905-13.324-73.443h-47.991c0 21.902 2.566 39.802 6.823 54.958 1.866 6.658 4.053 12.791 6.531 18.485z" fill="#a4ccfe" fill-rule="evenodd"/></g><g><path clip-rule="evenodd" d="m405.891 284.341c0-80.802-52.685-93.505-78.051-152.289h-47.962c25.337 58.784 78.022 71.487 78.022 152.289v.029z" fill="#c57142" fill-rule="evenodd"/></g><g><path clip-rule="evenodd" d="m405.891 368.326v-83.985l-47.991.029v10.045 38.43 46.753 3.708 43.541 10.016h47.991v-41.438z" fill="#ffc250" fill-rule="evenodd"/></g><g><path clip-rule="evenodd" d="m405.891 472.898v-36.035h-47.991v36.035c0 21.493-17.581 39.102-39.04 39.102h30.002 17.989c21.459 0 39.04-17.609 39.04-39.102z" fill="#c57142" fill-rule="evenodd"/></g><g><path clip-rule="evenodd" d="m328.395 13.842c0-7.622-6.24-13.842-13.82-13.842h-41.547c7.61 0 13.849 6.22 13.849 13.842v30.925c0 2.949-.933 5.665-2.507 7.914-2.507 3.592-6.648 5.928-11.342 5.928h41.489.058c7.581 0 13.82-6.22 13.82-13.842z" fill="#8080a4" fill-rule="evenodd"/></g><g fill="#c57142"><path d="m190.045 352.243c2.34-3.782 3.695-8.236 3.695-13.003 0-13.658-11.099-24.769-24.741-24.769h-24.783c-4.309 0-7.802 3.493-7.802 7.802v33.934 33.933c0 4.309 3.493 7.802 7.802 7.802h32.625c13.643 0 24.742-11.111 24.742-24.769 0-8.799-4.611-16.536-11.538-20.93zm-38.027-22.168h16.981c5.039 0 9.138 4.112 9.138 9.165s-4.099 9.165-9.138 9.165h-16.981zm24.823 52.263h-24.823v-18.329h16.981 7.843c4.953 0 9.138 4.196 9.138 9.164-.001 5.053-4.1 9.165-9.139 9.165z"/><path d="m272.148 352.243c2.34-3.782 3.695-8.236 3.695-13.002 0-13.658-11.099-24.769-24.741-24.769h-24.783c-4.309 0-7.802 3.493-7.802 7.802v33.934 33.933c0 4.309 3.493 7.802 7.802 7.802h32.626c13.642 0 24.741-11.111 24.741-24.769 0-8.8-4.611-16.537-11.538-20.931zm-38.027-22.168h16.981c5.039 0 9.138 4.112 9.138 9.165s-4.099 9.165-9.138 9.165h-16.981zm24.824 52.263h-24.824v-18.329h16.981 7.843c4.953 0 9.138 4.196 9.138 9.164-.001 5.053-4.1 9.165-9.138 9.165z"/><path d="m372.236 386.39-5.543-5.397c11.24-16.214 10.034-39.347-3.634-54.075-7.458-8.018-17.41-12.432-28.027-12.432-.008 0-.016 0-.023 0-10.612.006-20.552 4.424-27.99 12.439h.001c-14.993 16.154-14.993 42.439-.001 58.593 7.438 8.015 17.378 12.432 27.99 12.439h.023c7.345-.001 14.371-2.116 20.477-6.076l5.842 5.689c1.517 1.477 3.48 2.212 5.442 2.212 2.031 0 4.061-.789 5.59-2.359 3.006-3.088 2.94-8.027-.147-11.033zm-37.204-4.038c-.005 0-.009 0-.013 0-6.226-.003-12.108-2.649-16.562-7.449-9.56-10.301-9.56-27.062 0-37.364 4.454-4.8 10.336-7.446 16.562-7.449h.013c6.234 0 12.13 2.648 16.596 7.449 8.127 8.757 9.319 22.169 3.633 32.322l-8.157-7.943c-3.087-3.006-8.026-2.941-11.032.147s-2.94 8.026.147 11.032l7.603 7.403c-2.765 1.214-5.736 1.853-8.79 1.852z"/></g><g><path d="m232.763 186.84h-.146c-4.309 0-7.802-3.493-7.802-7.802s3.493-7.802 7.802-7.802h.146c4.309 0 7.802 3.493 7.802 7.802s-3.494 7.802-7.802 7.802z" fill="#ffc250"/></g><g><path d="m178.241 238.615h-.146c-4.309 0-7.802-3.493-7.802-7.802s3.493-7.802 7.802-7.802h.146c4.309 0 7.802 3.493 7.802 7.802s-3.493 7.802-7.802 7.802z" fill="#ffc250"/></g><g><path d="m337.754 221.21h-.146c-4.309 0-7.802-3.493-7.802-7.802s3.493-7.802 7.802-7.802h.146c4.309 0 7.802 3.493 7.802 7.802s-3.494 7.802-7.802 7.802z" fill="#ffc250"/></g><g><path d="m279.296 236.541h-.175c-4.309 0-7.802-3.493-7.802-7.802s3.493-7.802 7.802-7.802h.175c4.309 0 7.802 3.493 7.802 7.802s-3.493 7.802-7.802 7.802z" fill="#ffc250"/></g></g></svg>