<svg id="Capa_1" enable-background="new 0 0 504.275 504.275" height="512" viewBox="0 0 504.275 504.275" width="512" xmlns="http://www.w3.org/2000/svg"><g id="_x3C_Group_x3E__23_"><g><path d="m17.756 487.541s-6.203-13.201 1.277-20.681l47.991-56.904c7.48-7.48 19.658-7.429 27.201.113 7.542 7.542 7.593 19.721.113 27.201l-53.944 53.944c-2.763 2.763-6.168 4.499-9.744 5.209-6.102 1.211-12.894-8.882-12.894-8.882z" fill="#ffbf54"/></g><g><path d="m29.081 467.905c-7.48 7.48-7.43 19.65.11 27.2.47.47.95.91 1.46 1.32-6.1 1.21-12.7-.56-17.46-5.32-7.54-7.55-7.59-19.72-.11-27.2l53.94-53.95c7.01-7.01 18.16-7.41 25.74-1.21-3.58.71-6.98 2.45-9.74 5.21z" fill="#ffa442"/></g><path d="m67.122 427.486 28.506-119.434 74.304-54.469 141.742-142.456 41.571 121.76-247.404 246.484z" fill="#ff8a3c"/><g><path d="m427.069 84.759c-1.919 0-3.839-.732-5.303-2.196-2.929-2.93-2.929-7.678 0-10.607l57.231-57.231c2.929-2.928 7.678-2.928 10.606 0 2.929 2.93 2.929 7.678 0 10.607l-57.231 57.231c-1.465 1.464-3.384 2.196-5.303 2.196z" fill="#ffbf54"/></g><path d="m472.071 42.865-39.7 39.7c-1.46 1.46-3.38 2.19-5.3 2.19s-3.84-.73-5.31-2.19c-2.92-2.93-2.92-7.68 0-10.61l39.7-39.7c4.54 2.35 8.26 6.07 10.61 10.61z" fill="#ffa442"/><path d="m409.16 140.661c8.449-8.449 34.916-14.424 39.277-23.653 12.319-26.068 10.791-52.503 9.322-63.808-.45-3.46-3.173-6.183-6.633-6.633-11.416-1.483-38.261-3.026-64.576 9.689-8.97 4.334-13.216 23.094-21.43 31.308-38.44 38.44-31.955 83.597-31.955 83.597s37.555 7.941 75.995-30.5z" fill="#ffa442"/><path d="m448.431 117.005c-4.36 9.23-10.45 18.41-18.9 26.86-38.44 38.44-96.36 27.3-96.36 27.3s-11.15-57.93 27.29-96.37c9.01-9.01 18.86-15.35 28.71-19.76-12.201 26.093-10.997 53.329-9.761 64.671.357 3.274 2.924 5.86 6.198 6.216 11.059 1.205 37.295 2.385 62.823-8.917z" fill="#ff8a3c"/><g><g><path d="m128.567 239.133c-4.142 0-2.691-3.358-2.691-7.5l-4.809-39.615v-24.766c0-4.143 3.358-7.5 7.5-7.5s7.5 3.357 7.5 7.5v24.776l-2.823 39.605c0 4.143-.535 7.5-4.677 7.5z" fill="#ffbf54"/></g><g><path d="m335.94 382.127h-24.855l-49.975-7.499c-4.142 0-7.244 4.141-7.244-.001s2.592-2.239 6.734-2.239l50.516-5.261h24.825c4.142 0 7.5 3.357 7.5 7.5s-3.359 7.5-7.501 7.5z" fill="#ffbf54"/></g><path d="m136.065 192.028v39.61c0 4.14-3.36 7.5-7.5 7.5s-7.5-3.36-7.5-7.5v-39.62c2.41-.77 4.93-1.17 7.47-1.17 2.56 0 5.11.4 7.53 1.18z" fill="#ffa442"/><path d="m177.379 293.521c1.188-46.187-31.28-74.932-44.151-84.074-2.844-2.02-6.616-2.128-9.38 0-12.23 9.417-34.909 35.357-34.737 81.056.228 60.65 41.485 76.625 41.485 76.625l45.994-57.95c.506-4.841.645-10.053.789-15.657z" fill="#ffbf54"/><path d="m164.555 347.758c-13.78 22.28-33.75 16.634-33.75 16.634l-18.09-2.424c-14.648-11.103-32.883-32.196-33.02-68.45-.17-45.7 31.92-74.65 44.15-84.07.43-.33.88-.61 1.36-.83-6.86 14.13-11.65 30.93-11.58 50.26.2 53.68 33.87 79.33 50.93 88.88z" fill="#ffa442"/><path d="m176.585 309.178c-6.12 58.55-45.78 63.21-45.78 63.21s5.176-14.579 0-17.528c-2.755-1.57-14.664 9.703-18.09 7.108 2.02-6.73 6.26-16.5 15.01-26.2 8.88-9.84 23.99-21.08 48.86-26.59z" fill="#ffa442"/><path d="m164.555 347.758c-7.365 12.111-19.894 22.246-33.77 24.62-6.116-2.371-12.608-6.289-18.07-10.41 2.02-6.73 6.26-16.5 15.01-26.2 2.78-3.08 6.16-6.29 10.27-9.43 9.31 10.56 19.4 17.41 26.56 21.42z" fill="#ff8a3c"/><path d="m311.085 382.128h-49.72c-4.14 0-7.5-3.36-7.5-7.5s3.36-7.5 7.5-7.5h49.75c1.54 4.87 1.54 10.13-.03 15z" fill="#ffa442"/><path d="m208.776 418.234c45.685 1.159 70.829-27.6 80.246-39.83 2.128-2.764 4.395-1.038 2.266-3.802-.45-.585 1.444-5.919.905-6.589-10.74-13.34-39.075-42.426-82.589-42.267-27.476.1-45.417 6.611-57.115 14.738-19.674 13.668-13.336 29.305-13.336 29.305s3.811 46.774 69.623 48.445z" fill="#ffbf54"/><path d="m293.675 379.278c-9.42 12.23-38.39 45.31-84.07 44.15-65.81-1.67-78.8-51.04-78.8-51.04s2.01-18.24 21.68-31.91c3.35 9.42 20.47 47.49 78.12 48.95 26.21.67 46.91-9.94 61.58-21.41.55.67 1.04 1.3 1.49 1.88 2.13 2.76 2.13 6.61 0 9.38z" fill="#ffa442"/></g><g><g><path d="m209.39 159.413c-4.142 0-2.691-3.358-2.691-7.5l-4.809-39.615v-24.766c0-4.143 3.358-7.5 7.5-7.5s7.5 3.357 7.5 7.5v24.776l-2.823 39.605c0 4.142-.535 7.5-4.677 7.5z" fill="#ffbf54"/></g><g><path d="m416.763 302.406h-24.855l-49.975-7.499c-4.142 0-7.244 4.141-7.244-.001s2.592-2.239 6.734-2.239l50.516-5.261h24.825c4.142 0 7.5 3.357 7.5 7.5s-3.359 7.5-7.501 7.5z" fill="#ffbf54"/></g><path d="m216.888 112.308v39.61c0 4.14-3.36 7.5-7.5 7.5s-7.5-3.36-7.5-7.5v-39.62c2.41-.77 4.93-1.17 7.47-1.17 2.56-.001 5.11.399 7.53 1.18z" fill="#ffa442"/><path d="m258.202 213.8c.437-45.769-31.709-74.695-44.151-84.074-2.786-2.1-6.616-2.128-9.38 0-12.23 9.417-34.909 35.357-34.737 81.056.228 60.65 41.485 76.625 41.485 76.625l45.994-57.95c.505-4.841.735-10.051.789-15.657z" fill="#ffbf54"/><path d="m245.378 268.037c-13.78 22.28-33.75 24.63-33.75 24.63s-.846-8.405-7.489-12.531c-2.07-1.285-8.259 3.886-10.601 2.111-14.648-11.103-32.883-32.196-33.02-68.45-.17-45.7 31.92-74.65 44.15-84.07.43-.33.88-.61 1.36-.83-6.86 14.13-11.65 30.93-11.58 50.26.2 53.68 33.87 79.33 50.93 88.88z" fill="#ffa442"/><path d="m257.408 229.457c-6.12 58.55-45.78 63.21-45.78 63.21s-.049-7.45-5.787-10.829c-2.516-1.481-9.298 2.685-12.303.409 2.02-6.73 6.26-16.5 15.01-26.2 8.88-9.84 23.99-21.08 48.86-26.59z" fill="#ffa442"/><path d="m245.378 268.037c-7.365 12.111-19.894 22.246-33.77 24.62-6.116-2.371-12.608-6.289-18.07-10.41 2.02-6.73 6.26-16.5 15.01-26.2 2.78-3.08 6.16-6.29 10.27-9.43 9.31 10.56 19.4 17.41 26.56 21.42z" fill="#ff8a3c"/><path d="m391.908 302.407h-49.72c-4.14 0-7.5-3.36-7.5-7.5s3.36-7.5 7.5-7.5h49.75c1.54 4.87 1.54 10.13-.03 15z" fill="#ffa442"/><path d="m289.599 338.513c45.685 1.159 70.829-27.6 80.246-39.83 2.128-2.764 4.395-1.038 2.266-3.802-.45-.585 1.444-5.919.905-6.589-10.74-13.34-39.075-42.426-82.589-42.267-27.476.1-45.417 6.611-57.115 14.738-19.674 13.668-13.336 29.305-13.336 29.305s3.811 46.775 69.623 48.445z" fill="#ffbf54"/><path d="m374.498 299.557c-9.42 12.23-38.39 45.31-84.07 44.15-65.81-1.67-78.8-51.04-78.8-51.04s2.01-18.24 21.68-31.91c3.35 9.42 20.47 47.49 78.12 48.95 26.21.67 46.91-9.94 61.58-21.41.55.67 1.04 1.3 1.49 1.88 2.13 2.76 2.13 6.61 0 9.38z" fill="#ffa442"/></g><g fill="#ff8a3c"><path d="m48.921 452.285c.27.12.52.23.75.32-.23-.09-.47-.2-.75-.32z"/><path d="m50.901 453.105c.09.04.15.06.19.07-.03-.01-.1-.03-.19-.07z"/><path d="m71.891 443.375c.6-.48 1.21-.98 1.82-1.52-.61.54-1.21 1.04-1.82 1.52z"/></g><g><g><path d="m48.872 319.93c-4.142 0-2.691-3.358-2.691-7.5l-4.809-39.615v-24.766c0-4.143 3.358-7.5 7.5-7.5s7.5 3.357 7.5 7.5v24.776l-2.822 39.605c0 4.143-.536 7.5-4.678 7.5z" fill="#ffbf54"/></g><g><path d="m256.246 462.923h-24.855l-49.975-7.499c-4.142 0-7.244 4.141-7.244-.001s2.592-2.239 6.734-2.239l50.516-5.261h24.825c4.142 0 7.5 3.357 7.5 7.5s-3.359 7.5-7.501 7.5z" fill="#ffbf54"/></g><path d="m56.371 272.825v39.61c0 4.14-3.36 7.5-7.5 7.5s-7.5-3.36-7.5-7.5v-39.62c2.41-.77 4.93-1.17 7.47-1.17 2.56 0 5.11.4 7.53 1.18z" fill="#ffa442"/><path d="m97.684 374.317c.539-45.8-31.665-74.709-44.151-84.073-2.791-2.093-6.616-2.128-9.38 0-12.23 9.417-34.909 35.357-34.737 81.056.228 60.65 41.485 76.625 41.485 76.625l45.994-57.95c.506-4.841.723-10.052.789-15.658z" fill="#ffbf54"/><path d="m84.861 428.555c-13.78 22.28-33.96 9.203-33.96 9.203l-17.88 5.007c-14.648-11.103-32.883-32.196-33.02-68.45-.17-45.7 31.92-74.65 44.15-84.07.43-.33.88-.61 1.36-.83-6.86 14.13-11.65 30.93-11.58 50.26.2 53.68 33.87 79.33 50.93 88.88z" fill="#ffa442"/><path d="m96.891 389.975c-6.12 58.55-39.816 55.949-39.816 55.949s-14.194 4.311-24.054-3.159c2.02-6.73 6.26-16.5 15.01-26.2 8.88-9.84 23.99-21.08 48.86-26.59z" fill="#ffa442"/><path d="m84.861 428.555c-7.365 12.111-19.894 22.246-33.77 24.62-6.116-2.371-12.608-6.289-18.07-10.41 2.02-6.73 6.26-16.5 15.01-26.2 2.78-3.08 6.16-6.29 10.27-9.43 9.31 10.56 19.4 17.41 26.56 21.42z" fill="#ff8a3c"/><path d="m231.391 462.925h-49.72c-4.14 0-7.5-3.36-7.5-7.5s3.36-7.5 7.5-7.5h49.75c1.54 4.87 1.54 10.13-.03 15z" fill="#ffa442"/><path d="m129.082 499.03c45.685 1.159 70.829-27.6 80.246-39.83 2.128-2.764 4.395-1.038 2.266-3.802-.45-.585 1.419-5.9.905-6.589-10.498-14.068-38.601-43.851-82.589-42.267-27.458.989-45.417 6.611-57.115 14.738-19.674 13.668-13.336 29.305-13.336 29.305s3.811 46.775 69.623 48.445z" fill="#ffbf54"/><path d="m213.981 460.075c-9.42 12.23-38.39 45.31-84.07 44.15-65.81-1.67-78.8-51.04-78.8-51.04s2.01-18.24 21.68-31.91c3.35 9.42 20.47 47.49 78.12 48.95 26.21.67 46.91-9.94 61.58-21.41.55.67 1.04 1.3 1.49 1.88 2.13 2.76 2.13 6.61 0 9.38z" fill="#ffa442"/></g><g><g><path d="m289.401 79.401c-4.142 0-2.691-3.358-2.691-7.5l-4.809-39.615v-24.766c0-4.143 3.358-7.5 7.5-7.5s7.5 3.357 7.5 7.5v24.776l-2.823 39.605c.001 4.142-.535 7.5-4.677 7.5z" fill="#ffbf54"/></g><g><path d="m496.775 222.394h-24.855l-49.975-7.499c-4.142 0-7.244 4.141-7.244-.001s2.592-2.239 6.734-2.239l50.516-5.261h24.825c4.142 0 7.5 3.357 7.5 7.5s-3.359 7.5-7.501 7.5z" fill="#ffbf54"/></g><path d="m296.9 32.296v39.61c0 4.14-3.36 7.5-7.5 7.5s-7.5-3.36-7.5-7.5v-39.62c2.41-.77 4.93-1.17 7.47-1.17 2.56 0 5.11.4 7.53 1.18z" fill="#ffa442"/><path d="m338.214 133.788c.052-45.7-31.922-74.657-44.151-84.074-2.764-2.128-6.616-2.128-9.38 0-12.23 9.417-34.909 35.357-34.737 81.056.228 60.65 41.485 76.625 41.485 76.625l45.994-57.95c.505-4.84.782-10.05.789-15.657z" fill="#ffbf54"/><path d="m325.39 188.026c-13.78 22.28-33.75 24.63-33.75 24.63s3.204-9.796-3.586-14.051c-1.991-1.247-12.269 5.325-14.504 3.631-14.648-11.103-32.883-32.196-33.02-68.45-.17-45.7 31.92-74.65 44.15-84.07.43-.33.88-.61 1.36-.83-6.86 14.13-11.65 30.93-11.58 50.26.2 53.68 33.87 79.33 50.93 88.88z" fill="#ffa442"/><path d="m337.42 149.446c-6.12 58.55-45.78 63.21-45.78 63.21s1.635-8.499-4.267-12.008c-2.44-1.451-10.939 3.773-13.823 1.589 2.02-6.73 6.26-16.5 15.01-26.2 8.88-9.841 23.99-21.081 48.86-26.591z" fill="#ffa442"/><path d="m325.39 188.026c-7.365 12.111-19.894 22.246-33.77 24.62-6.116-2.371-12.608-6.289-18.07-10.41 2.02-6.73 6.26-16.5 15.01-26.2 2.78-3.08 6.16-6.29 10.27-9.43 9.31 10.56 19.4 17.41 26.56 21.42z" fill="#ff8a3c"/><path d="m471.92 222.396h-49.72c-4.14 0-7.5-3.36-7.5-7.5s3.36-7.5 7.5-7.5h49.75c1.54 4.87 1.54 10.13-.03 15z" fill="#ffa442"/><path d="m369.611 258.501c45.685 1.159 70.829-27.6 80.246-39.83 2.128-2.764 4.395-1.038 2.266-3.802-.45-.585 1.444-5.919.905-6.589-10.74-13.34-39.075-42.426-82.589-42.267-27.476.1-45.417 6.611-57.115 14.738-19.674 13.668-13.336 29.305-13.336 29.305s3.811 46.775 69.623 48.445z" fill="#ffbf54"/><path d="m454.51 219.546c-9.42 12.23-38.39 45.31-84.07 44.15-65.81-1.67-78.8-51.04-78.8-51.04s2.01-18.24 21.68-31.91c3.35 9.42 20.47 47.49 78.12 48.95 26.21.67 46.91-9.94 61.58-21.41.55.67 1.04 1.3 1.49 1.88 2.13 2.76 2.13 6.61 0 9.38z" fill="#ffa442"/></g></g></svg>