<svg id="Layer_1" enable-background="new 0 0 512 512" height="512" viewBox="0 0 512 512" width="512" xmlns="http://www.w3.org/2000/svg"><g><g><path d="m384 88v-24h-256v24c-17.673 0-32 14.327-32 32v344c0 17.673 14.327 32 32 32h256c17.673 0 32-14.327 32-32v-344c0-17.673-14.327-32-32-32z" fill="#91b945"/></g><g><g><path d="m128 64h256v24h-256z" fill="#69a041"/></g><g><path d="m256 464h-160c0 17.673 14.327 32 32 32h256c17.673 0 32-14.327 32-32v-344h-152c-4.418 0-8 3.582-8 8z" fill="#69a041"/></g></g><g><path d="m384 16h-256c-4.418 0-8 3.582-8 8v32c0 4.418 3.582 8 8 8h256c4.418 0 8-3.582 8-8v-32c0-4.418-3.582-8-8-8z" fill="#fabe19"/></g><g><path d="m256 64h128c4.418 0 8-3.582 8-8v-32h-128c-4.418 0-8 3.582-8 8z" fill="#f5871e"/></g><g><path d="m96 176h320v224h-320z" fill="#fabe19"/></g><g><path d="m256 176h160v224h-160z" fill="#f5871e"/></g><g><circle cx="256" cy="288" fill="#d7e6e6" r="112"/></g><g><circle cx="212" cy="140" fill="#69a041" r="12"/></g><g><circle cx="108" cy="429.333" fill="#69a041" r="12"/></g><g><circle cx="372" cy="148" fill="#4b8c41" r="12"/></g><g><circle cx="144" cy="152" fill="#69a041" r="8"/></g><g><circle cx="184" cy="456" fill="#69a041" r="8"/></g><g><circle cx="328" cy="440" fill="#4b8c41" r="8"/></g><g><path d="m248.402 343.828-30.163.172c-4.846.028-9.501-1.885-12.927-5.312-3.401-3.401-5.312-8.014-5.312-12.824v-29.821c0-44.183 35.817-80 80-80h29.799c4.824 0 9.451 1.916 12.862 5.328 3.418 3.418 5.335 8.055 5.328 12.888l-.042 29.684c-.063 43.961-35.585 79.635-79.545 79.885z" fill="#4b8c41"/></g><g><path d="m322.661 221.371-.016-.016c-3.415-3.415-8.046-5.333-12.876-5.333h-29.769c-44.183 0-80 35.817-80 80v29.769c0 4.829 1.918 9.461 5.333 12.876z" fill="#69a041"/></g><g><path d="m192 356c-1.024 0-2.047-.391-2.829-1.172-1.562-1.562-1.562-4.095 0-5.657l130.646-130.645c1.561-1.562 4.096-1.562 5.656 0 1.563 1.562 1.563 4.095 0 5.657l-130.644 130.645c-.782.781-1.806 1.172-2.829 1.172z" fill="#91b945"/></g><g><circle cx="258.667" cy="242.667" fill="#91b945" r="10.667"/></g><g><path d="m128 112c-4.418 0-8 3.582-8 8v56h16v-56c0-4.418-3.582-8-8-8z" fill="#afd763"/></g><g><path d="m120 400h16v64h-16z" fill="#afd763"/></g><g><path d="m120 176h16v224h-16z" fill="#ffdc37"/></g></g></svg>