<svg id="Layer_1" viewBox="0 0 287.04 290" xmlns="http://www.w3.org/2000/svg" data-name="Layer 1"><g transform="translate(-6.48 -5)"><path d="m104.87 187.47c-38.43 39.75-86.68 97.53-97.32 107.53 11.89-1 61.87-5.07 87.38-8.66 28.38-4 81.85-26.26 97.79-50.74 8-12.26 15.73-17.74 23.92-23.54 8.45-6 17.19-12.15 27.27-26.45 17.29-24.52 41.28-112.72 32.87-142.23-24.61 5.42-131.24 102-171.91 144.09z" fill="#8e915a"/><path d="m267.83 35.8c-1.13-.14-113.83-13.34-187.64 66.2-.34.37-34.37 37.81-47.1 85.67 1.67 1.89 7.19 9.74 1.44 26.27a1 1 0 0 1 -.52.57l-10 4.6c-.8 4.23-6.44 34.09-7.92 45.17-.66 4.93-3.25 11.24-5.53 16.81s-5 12.09-3.85 13.63c.05.07.22.27.8.29 4.32-4.06 59.88-56.39 101.31-99.25 42.66-44.14 165-149.86 167.93-152.36-6.7-.25-8.92-7.6-8.92-7.6z" fill="#949962"/><path d="m288.2 5.78a4.31 4.31 0 0 0 -4.2-.44 4.39 4.39 0 0 0 -2.63 3.28c-1.09 5.9-4.18 15.34-12.67 26.79a1 1 0 0 1 -.92.39s2.23 7.35 9 7.59c2.87-3.48 16.51-20.62 16.74-31.26-.1-.45-.9-3.32-5.32-6.35z" fill="#845d42"/></g></svg>