<svg id="Layer_1" height="512" viewBox="0 0 512 512" width="512" xmlns="http://www.w3.org/2000/svg"><g id="XMLID_56_"><g><path d="m364.2 48.72c6.85 3.82 13.43 9.93 19.57 18.22 1.328 1.75 2.596 3.567 3.76 5.43 2.28 3.53 5.67 9.15 6.22 10.05.04.09.07.13.07.13 6.6 11.36 12.3 23.53 17.09 36.47 2.22 5.98 4.25 12.13 6.07 18.44 6.01 20.66 9.93 43.06 11.76 67.08 3.51 46.3-.99 92.91-5.34 137.99l-11.18 115.9c-1 10.35-2.13 22.08-7.74 32.65-6.57 12.37-18.48 20.17-30.64 20.17-.45 0-.9-.02-1.36-.04-2.3-.11-4.42-1.27-5.76-3.16-1.33-1.88-1.72-4.27-1.06-6.48 15.92-53.22 18.79-109.82 21.57-164.55 2.44-48.1 4.96-97.84-.73-146.26-2.87-24.42-7.79-47.36-14.63-68.19-3.9-11.89-8.48-23.28-13.61-33.84-1.82-3.75-4.26-7.6-6.84-11.67-3.84-6.05-7.81-12.31-10.23-19.09-2.01-1.21-3.42-3.34-3.61-5.85-.24-3.26 1.63-6.19 4.46-7.43.75-.34 1.58-.55 2.45-.62 6.71-.5 13.32 1.07 19.71 4.65 6.85 3.82-6.39-3.58 0 0z" fill="#e2deff"/><path d="m418.47 68.98-29.9-1.76c.43-.07.87-.1 1.32-.09 9.52.31 19.06.93 28.58 1.85z" fill="#ffe680"/><path d="m364.2 48.72c-6.39-3.58-13-5.15-19.71-4.65-.87.07-1.7.28-2.45.62.81-1.04 1.9-1.88 3.23-2.38 3.6-1.37 8.79-4.83 14.79-8.85 8.07-5.4 18.13-12.12 29.8-17.35 24.51-10.99 55.27-17.46 70.04-14.73 17.94 3.32 31.68 10.06 40.83 20.03 12.33 13.43 14.85 32.99 5.98 46.51-5.61 8.54-15.39 14.6-27.53 17.05-1.14.23-2.28.43-3.41.59-.33-.56-.69-1.11-1.09-1.64-5.4-7.23-14.73-8.93-19.74-9.85-12-2.19-24.16-3.88-36.37-5.08-.03 0-.06 0-.1-.01-9.52-.92-19.06-1.54-28.58-1.85-.45-.01-.89.02-1.32.09l-4.8-.28c-6.14-8.29-12.72-14.4-19.57-18.22-6.39-3.58 6.85 3.82 0 0z" fill="#ffe6a7"/><path d="m227.19 54.92c1.6-2.56 4.57-3.91 7.56-3.43 2.98.48 5.38 2.7 6.09 5.63.73 3.02 1.45 6.04 2.14 9.07 5.57 24.33 9.86 48.88 12.85 73.56.92 7.56 1.72 15.13 2.39 22.72.36 3.96.67 7.93.95 11.9.7 9.57 1.19 19.16 1.49 28.76.67 21.37.37 42.78-.89 64.19-3.28 55.59-13.31 111.79-22.16 161.38-3 16.82-6.4 35.88-17.42 51.82-10.22 14.77-27.12 24.31-43.07 24.31-3.6 0-7.16-.47-10.58-1.4-2.59-.71-4.61-2.75-5.29-5.35-.67-2.61.1-5.38 2.03-7.26 19.76-19.26 33.84-47.14 40.72-80.6 6.28-30.59 6.32-62.63 6.35-93.61l.2-176.02c.03-25.78.07-57.71 15.57-83.91.35-.59.71-1.18 1.07-1.76z" fill="#e2deff"/><path d="m226.12 56.68c.62-3.34 3.47-5.93 7.01-6.1 16.99-.81 35.25 6.65 50.13 20.43 12.87 11.92 21.83 26.51 30.5 40.62l22.65 36.84c2.53 4.12 6.76 11.01 5.36 18.84-1.21 6.73-6.35 12.47-13.55 15.19-2.1-1.3-4.07-2.28-5.49-2.98l-29.1-14.38c-.27-.13-.54-.25-.81-.35l.08-.22c-14.27-5.05-27.23-13.65-37.07-24.82-2.99-24.68-7.28-49.23-12.85-73.56-.69-3.03-1.41-6.05-2.14-9.07-.71-2.93-3.11-5.15-6.09-5.63-2.99-.48-5.96.87-7.56 3.43-.36.58-.72 1.17-1.07 1.76z" fill="#ffe6a7"/><g><path d="m475.77 85.56c-.33-.56-.69-1.11-1.09-1.64-5.4-7.23-14.73-8.93-19.74-9.85-12-2.19-24.16-3.88-36.37-5.08-.03 0-.06 0-.1-.01l-29.9-1.76-4.8-.28c1.61 2.122 3.051 4.358 4.501 6.589 2.212 3.487 4.986 8.084 5.479 8.891.04.09.07.13.07.13 6.6 11.36 12.3 23.53 17.09 36.47 2.22 5.98 4.25 12.13 6.07 18.44.74-.88 1.27-1.94 1.54-3.13.76-3.37 4.53-6.72 9.59-8.52 4.15-1.49 8.83-2.09 13.78-2.72 1.84-.24 3.75-.48 5.67-.78 6.61-1.02 16.23-3.16 23.26-9.81 6.84-6.48 10.28-17.99 4.95-26.94-.33-.56 5.33 8.95 0 0z" fill="#f4d093"/><path d="m328.22 182.5c-2.1-1.3-4.07-2.28-5.49-2.98l-29.1-14.38c-.27-.13-.54-.25-.81-.35l.08-.22c-14.27-5.05-27.23-13.65-37.07-24.82.92 7.56 1.72 15.13 2.39 22.72.36 3.96.67 7.93.95 11.9.7 9.57 1.19 19.16 1.49 28.76l.08.12c5.16 7.6 12.21 18 24.08 21.96 3.48 1.17 7.02 1.63 10.49 1.63 8.85 0 17.31-3.01 23.51-5.21 4.04-1.44 8.62-3.07 12.72-6.2 5.46-4.19 8.54-10.25 8.25-16.21-.41-8.22-6.39-13.49-11.57-16.72z" fill="#f4d086"/></g></g></g><path d="m271.88 62.11c-8.64 12.12-15.85 25.25-21.81 39.02-2.07-11.69-4.44-23.34-7.09-34.94-.69-3.03-1.41-6.05-2.14-9.07-.71-2.93-3.11-5.15-6.09-5.63-2.99-.48-5.96.87-7.56 3.43-.36.58-.72 1.17-1.07 1.76.62-3.34 3.47-5.93 7.01-6.1 12.86-.61 26.45 3.51 38.75 11.53z" fill="#f7dfa9"/><path d="m228.26 185.9c-6.42 54.18-2.2 108.99-2.85 163.56-.6 51.22-5.88 103.73-27.17 150.11-6.78 3.38-14.04 5.26-21.12 5.26-3.6 0-7.16-.47-10.58-1.4-2.59-.71-4.61-2.75-5.29-5.35-.67-2.61.1-5.38 2.03-7.26 19.76-19.26 33.84-47.14 40.72-80.6 6.28-30.59 6.32-62.63 6.35-93.61l.2-176.02c.03-25.78.07-57.71 15.57-83.91.35-.59.71-1.18 1.07-1.76 1.6-2.56 4.57-3.91 7.56-3.43 2.98.48 5.38 2.7 6.09 5.63.73 3.02 1.45 6.04 2.14 9.07 2.65 11.6 5.02 23.25 7.09 34.94-11.55 26.7-18.38 55.84-21.81 84.77z" fill="#dbd9f4"/><path d="m423.28 69.47c-5.31 13.91-9.43 28.29-12.33 42.89-.3 1.5-.58 3.01-.85 4.51-4.62-12.14-10.05-23.59-16.28-34.32-3.17-5.29-6.32-10.69-10.05-15.61l4.8.28 29.9 1.76c.04.01.07.01.1.01 1.57.15 3.14.32 4.71.48z" fill="#efca92"/><path d="m461.7 1.73c-16.23 20.38-29.13 43.36-38.42 67.74-1.57-.16-3.14-.33-4.71-.48-.03 0-.06 0-.1-.01-9.52-.92-19.06-1.54-28.58-1.85-.45-.01-.89.02-1.32.09l-4.8-.28c-5.99-8.08-12.39-14.09-19.06-17.93-.08-.05-.16-.09-.24-.14-.09-.05-.18-.1-.27-.15-6.39-3.58-13-5.15-19.71-4.65-.87.07-1.7.28-2.45.62.81-1.04 1.9-1.88 3.23-2.38 3.6-1.37 8.79-4.83 14.79-8.85 8.07-5.4 18.13-12.12 29.8-17.35 24.51-10.99 55.27-17.46 70.04-14.73.61.11 1.21.23 1.8.35z" fill="#f7dfa9"/><path d="m405.63 397c.2 26.14.33 52.75-7.31 77.75-3.96 12.98-10.39 25.58-19.07 35.99-1.78.34-3.59.51-5.41.51-.45 0-.9-.02-1.36-.04-2.3-.11-4.42-1.27-5.76-3.16-1.33-1.88-1.72-4.27-1.06-6.48 15.92-53.22 18.79-109.82 21.57-164.55 2.44-48.1 4.96-97.84-.73-146.26-2.87-24.42-7.79-47.36-14.63-68.19-3.9-11.89-8.48-23.28-13.61-33.84-1.82-3.75-4.26-7.6-6.84-11.67-3.84-6.05-7.81-12.31-10.23-19.09-2.01-1.21-3.42-3.34-3.61-5.85-.24-3.26 1.63-6.19 4.46-7.43.75-.34 1.58-.55 2.45-.62 6.71-.5 13.32 1.07 19.71 4.65.09.05.18.1.27.15.08.05.16.09.24.14 6.67 3.84 13.07 9.85 19.06 17.93.47.62.92 1.24 1.37 1.87.9 1.26 1.76 2.54 2.61 3.84 2.12 3.24 4.09 6.59 6.07 9.9 6.23 10.73 11.66 22.18 16.28 34.32-6.33 34.87-6.09 70.62-5.81 106.09.44 58.02.89 116.03 1.34 174.04z" fill="#dbd9f4"/><g><g id="XMLID_4_"><g><path d="m364.85 49.08c-.04-.02-.09-.05-.14-.07-.07-.04-.14-.08-.21-.13.12.07.23.13.35.2z" fill="#e2dedd"/><g><path d="m163.39 152.57c-1.64-2.68-3.64-5.23-5.98-7.54-8.53-8.44-19.84-12.93-28.75-15.89-14.61-4.86-33.26-8.31-51.4-9.51.65 1.34 1.43 2.92 2.28 4.69 1.8 3.69 3.58 7.39 5.32 11.04 8.78 18.42 16.52 35.89 19.85 48.05.82 2.99 1.37 5.66 1.61 7.95.28 2.73.51 5.46.67 8.19 6.88 1.76 14.47 3.27 22.27 3.27 2.04 0 4.09-.1 6.14-.33 12.77-1.42 27.65-9.21 32.09-23.42 1.23-3.94 1.54-8.15.99-12.37-.62-4.84-2.35-9.68-5.09-14.13z" fill="#f4d086"/></g><path d="m106.32 191.36c.28 2.73.51 5.46.67 8.19 1.15 18.02.08 36.07-.95 53.6-.73 12.43-1.49 25.28-1.43 37.79.08 14.95 1.34 30.25 2.56 45.04 1.01 12.19 2.04 24.8 2.44 37.32 1.11 34.9-3.39 61.71-14.18 84.38-11.03 23.18-29.17 37.55-48.53 38.43-.11.01-.23.01-.34.01-2.95 0-5.64-1.73-6.85-4.45-1.26-2.81-.66-6.11 1.5-8.31 8.83-8.97 15.07-21.89 18.03-37.38 2.77-14.47 2.62-29.78 2.47-44.59l-1.09-111.49c-.29-29.43-.59-59.87-4.48-89.35-2.72-20.63-6.64-35.62-12.7-48.58-5.26-11.25-15.01-26.61-31.64-35.93-1.27-.71-2.3-1.77-2.96-3.04-.33-.6-.56-1.26-.71-1.94-.44-2.11.04-4.31 1.33-6.04 1.7-2.28 3.84-4.25 6.31-5.85 4.97-3.22 11.23-4.95 17.72-4.74 7.13.25 14.47 2.63 22.44 7.26 6.97 4.06 13.43 9.19 19.22 15.28.87.68 1.59 1.57 2.1 2.63 0 .01.01.02.01.03.65 1.34 1.43 2.92 2.28 4.69 1.8 3.69 3.58 7.39 5.32 11.04 8.78 18.42 16.52 35.89 19.85 48.05.82 2.99 1.37 5.66 1.61 7.95z" fill="#e2deff"/><path d="m9.46 105.02c-1.29 1.73-1.77 3.93-1.33 6.04.15.68.38 1.34.71 1.94-2.47-1.53-4.56-3.7-6.1-6.4-2.81-4.91-3.5-11.06-1.87-16.44 2.6-8.53 9.46-14.26 15.16-18.29 22.51-15.95 51.38-24.09 79.21-22.32s55.36 13.5 75.54 32.19c10.15 9.39 22.51 24.58 23.8 43.59 1.11 16.37-8.33 35.62-26.1 41.37-.62-4.84-2.35-9.68-5.09-14.13-1.64-2.68-3.64-5.23-5.98-7.54-8.53-8.44-19.84-12.93-28.75-15.89-14.61-4.86-33.26-8.31-51.4-9.51 0-.01-.01-.02-.01-.03-.51-1.06-1.23-1.95-2.1-2.63-5.79-6.09-12.25-11.22-19.22-15.28-7.97-4.63-15.31-7.01-22.44-7.26-6.49-.21-12.75 1.52-17.72 4.74-2.47 1.6-4.61 3.57-6.31 5.85z" fill="#ffe6a7"/></g></g><path d="m92.63 49.41c-8.72 21.6-14.03 44.65-17.06 67.93-.14-.14-.28-.26-.42-.37-5.79-6.09-12.25-11.22-19.22-15.28-7.97-4.63-15.31-7.01-22.44-7.26-6.49-.21-12.75 1.52-17.72 4.74-2.47 1.6-4.61 3.57-6.31 5.85-1.29 1.73-1.77 3.93-1.33 6.04.15.68.38 1.34.71 1.94-2.47-1.53-4.56-3.7-6.1-6.4-2.81-4.91-3.5-11.06-1.87-16.44 2.6-8.53 9.46-14.26 15.16-18.29 21.81-15.45 49.58-23.57 76.6-22.46z" fill="#f7dfa9"/><path d="m89.31 468.56c-11.02 16.73-26.29 26.82-42.41 27.55-.11.01-.23.01-.34.01-2.95 0-5.64-1.73-6.85-4.45-1.26-2.81-.66-6.11 1.5-8.31 8.83-8.97 15.07-21.89 18.03-37.38 2.77-14.47 2.62-29.78 2.47-44.59l-1.09-111.49c-.29-29.43-.59-59.87-4.48-89.35-2.72-20.63-6.64-35.62-12.7-48.58-5.26-11.25-15.01-26.61-31.64-35.93-1.27-.71-2.3-1.77-2.96-3.04-.33-.6-.56-1.26-.71-1.94-.44-2.11.04-4.31 1.33-6.04 1.7-2.28 3.84-4.25 6.31-5.85 4.97-3.22 11.23-4.95 17.72-4.74 7.13.25 14.47 2.63 22.44 7.26 6.97 4.06 13.43 9.19 19.22 15.28.14.11.28.23.42.37-.81 6.17-1.45 12.35-1.95 18.52-3.34 40.94-.88 82.1-.46 123.17.45 43.65-1.4 87.39 2.09 130.9 2.13 26.55 6.34 53.19 14.06 78.63z" fill="#dbd9f4"/></g></svg>