<svg id="Layer_1" enable-background="new 0 0 512 512" viewBox="0 0 512 512" xmlns="http://www.w3.org/2000/svg"><g><path d="m456.37 218.905v149.131c0 34.986-28.362 63.348-63.348 63.348h-63.267v-30.905h59.146c20.193 0 36.563-16.37 36.563-36.563v-140.89c0-20.193-16.37-36.563-36.563-36.563h-59.146v-30.905h63.267c34.986-.001 63.348 28.361 63.348 63.347z" fill="#ffe07d"/><path d="m315.883 512h-199.09c-7.662 0-13.873-6.211-13.873-13.873v-39.353h226.836v39.353c0 7.662-6.211 13.873-13.873 13.873z" fill="#ffd064"/><path d="m298.85 458.774v39.353c0 7.662-6.211 13.873-13.873 13.873h30.905c7.662 0 13.873-6.211 13.873-13.873v-39.353z" fill="#ffc250"/><path d="m333.593 470.531h-234.51c-12.051 0-21.82-9.769-21.82-21.82v-315.989c0-3.888 3.152-7.04 7.04-7.04h264.07c3.888 0 7.04 3.152 7.04 7.04v315.989c-.001 12.051-9.77 21.82-21.82 21.82z" fill="#ffe07d"/><path d="m348.373 125.682h-30.905c3.888 0 7.04 3.152 7.04 7.04v315.99c0 12.051-9.769 21.82-21.82 21.82h30.905c12.051 0 21.82-9.769 21.82-21.82v-315.99c-.001-3.888-3.152-7.04-7.04-7.04z" fill="#ffd064"/><g fill="#ffc250"><path d="m139.07 296.18s-13.48 27.49 0 43.26v84.73c0 8.54-6.91 15.46-15.45 15.46-4.26 0-8.13-1.73-10.92-4.53-2.8-2.8-4.53-6.66-4.53-10.93v-84.73c15.39-20.88 0-43.26 0-43.26v-85.36c0-8.54 15.45-17.15 15.45-17.15s15.45 8.61 15.45 17.15z"/><path d="m169.98 424.173v-252.133c0-8.534 6.918-15.453 15.453-15.453 8.534 0 15.453 6.918 15.453 15.453v252.133c0 8.534-6.918 15.453-15.453 15.453-8.535 0-15.453-6.919-15.453-15.453z"/><path d="m262.7 226.27s-12.97 40.2 0 83.3v114.6c0 8.54-6.92 15.46-15.46 15.46-4.26 0-8.13-1.73-10.92-4.53-2.8-2.8-4.53-6.66-4.53-10.93v-114.6c18.12-46.43 0-83.3 0-83.3v-54.23c0-8.53 6.92-15.45 15.45-15.45 4.27 0 8.14 1.73 10.93 4.53 2.8 2.79 4.53 6.66 4.53 10.92z"/><path d="m293.602 424.173v-252.133c0-8.534 6.918-15.453 15.453-15.453 8.534 0 15.453 6.918 15.453 15.453v252.133c0 8.534-6.918 15.453-15.453 15.453-8.535 0-15.453-6.919-15.453-15.453z"/></g><path d="m123.622 354.897c-8.534 0-15.453-6.918-15.453-15.453v-43.268c0-8.534 6.918-15.453 15.453-15.453 8.534 0 15.453 6.918 15.453 15.453v43.268c-.001 8.535-6.919 15.453-15.453 15.453z" fill="#f6f1f1"/><path d="m247.243 325.022c-8.534 0-15.453-6.918-15.453-15.453v-83.3c0-8.534 6.918-15.453 15.453-15.453 8.534 0 15.453 6.918 15.453 15.453v83.3c0 8.535-6.918 15.453-15.453 15.453z" fill="#f6f1f1"/><path d="m359.533 88.049h-3.258c-1.656 0-2.982-1.429-2.843-3.107.071-.86.108-1.729.108-2.607 0-16.696-12.72-30.365-28.837-31.53-1.209-.087-2.241-.935-2.546-2.128-4.358-17.062-19.599-29.659-37.732-29.659-11.746 0-22.273 5.291-29.42 13.653-.894 1.046-2.374 1.315-3.559.632-5.875-3.382-12.659-5.319-19.891-5.319-6.443 0-12.532 1.536-17.939 4.262-1.456.734-3.204.021-3.845-1.499-7.62-18.079-25.265-30.747-45.824-30.747-25.631 0-46.733 19.686-49.523 45.008-.201 1.821-2.003 2.979-3.714 2.408-4.049-1.351-8.437-1.941-13.004-1.59-16.291 1.251-29.494 14.626-30.83 31.194-.282 3.501-.031 6.896.665 10.123.283 1.312-.343 2.617-1.508 3.247-6.184 3.344-10.401 9.953-10.401 17.576 0 10.999 8.763 19.916 19.573 19.916h14.566c10.162 0 18.4 8.382 18.4 18.722v62.768c0 8.684 6.918 15.723 15.453 15.723 8.534 0 15.453-7.039 15.453-15.723v-62.768c0-10.34 8.238-18.722 18.4-18.722h202.059c10.81 0 19.573-8.917 19.573-19.916-.002-11-8.766-19.917-19.576-19.917z" fill="#f6f1f1"/><g fill="#efe7e4"><path d="m174.529 22.611c3.651 5.567 10.339 8.038 16.738 6.489 3.011-.729 6.152-1.115 9.383-1.115 2.838 0 5.603.308 8.276.875-8.025-17.067-25.144-28.86-44.979-28.86-5.395 0-10.585.882-15.45 2.495 10.743 3.564 19.882 10.737 26.032 20.116z"/><path d="m359.533 88.049h-3.258c-1.656 0-2.982-1.429-2.843-3.107.071-.86.108-1.729.108-2.607 0-16.696-12.72-30.365-28.837-31.53-1.209-.087-2.241-.935-2.546-2.128-4.358-17.062-19.599-29.659-37.732-29.659-5.489 0-10.705 1.168-15.44 3.252 10.903 4.801 19.229 14.517 22.267 26.407.305 1.193 1.337 2.04 2.546 2.128 16.117 1.165 28.837 14.834 28.837 31.53 0 .878-.037 1.748-.108 2.607-.139 1.679 1.187 3.107 2.843 3.107h3.258c10.81 0 19.573 8.917 19.573 19.916 0 10.999-8.763 19.916-19.573 19.916h30.905c10.81 0 19.573-8.917 19.573-19.916.001-10.999-8.763-19.916-19.573-19.916z"/></g><path d="m182.056 57.53c-7.692 0-14.966 2.485-21.035 7.187-3.274 2.537-3.873 7.248-1.335 10.522 2.536 3.275 7.248 3.873 10.522 1.335 3.416-2.646 7.512-4.044 11.848-4.044 10.681 0 19.37 8.689 19.37 19.37 0 4.142 3.358 7.5 7.5 7.5s7.5-3.358 7.5-7.5c0-18.952-15.418-34.37-34.37-34.37z" fill="#efe7e4"/></g><g/><g/><g/><g/><g/><g/><g/><g/><g/><g/><g/><g/><g/><g/><g/></svg>