<svg id="Beetroot" enable-background="new 0 0 64 64" viewBox="0 0 64 64" xmlns="http://www.w3.org/2000/svg"><g><g><path d="m31.95202 15.95672c1.73118 3.53192-.07375 7.59813-.25174 9.85446-.03291.34069-.03883.66669-.02457.98177l-1.36124.74129c-.25689-.18295-.534-.35482-.83804-.51202-1.99194-1.07466-6.38692-1.76458-8.41457-5.13505-1.11358-1.84989-1.40743-3.64523-1.46671-4.83142-.0385-.77042-.43473-1.47045-1.03988-1.94879-.97133-.76779-1.75621-1.95715-2.16339-3.11101-1.43806-4.0366-.72071-8.18842 1.28842-9.28253s5.88591.55589 8.49654 3.95394c.74835.96806 1.3216 2.27265 1.43958 3.50515.0735.76787.44657 1.48051 1.07285 1.93084.96426.69335 2.31296 1.91426 3.26275 3.85337z" fill="#66b941"/><path d="m24.4933 13.30756 5.14157 9.4502h-2.08751l-4.66852-8.5761c-.23649-.44217-.07199-.9975.37018-1.24428.44216-.23648.9975-.08221 1.24428.37018z" fill="#487f2a"/></g><g><path d="m32.04798 15.95672c-1.73118 3.53192.07375 7.59813.25174 9.85446.03291.34069.03883.66669.02457.98177l1.36125.74129c.25689-.18295.53399-.35482.83804-.51202 1.99194-1.07466 6.38692-1.76458 8.41457-5.13505 1.11358-1.84989 1.40743-3.64523 1.46671-4.83142.0385-.77042.43473-1.47045 1.03988-1.94879.97133-.76779 1.75621-1.95715 2.16339-3.11101 1.43805-4.0366.7207-8.18842-1.28842-9.28253s-5.88591.55589-8.49654 3.95394c-.74835.96806-1.3216 2.27265-1.43958 3.50515-.0735.76787-.44656 1.48051-1.07285 1.93084-.96427.69335-2.31297 1.91426-3.26276 3.85337z" fill="#66b941"/><path d="m41.12111 14.18167-4.66852 8.5761h-2.08751l5.14157-9.4502c.24678-.4524.80212-.60667 1.24428-.37018.44217.24678.60667.80211.37018 1.24428z" fill="#487f2a"/></g><g><path d="m25.79988 18.45606c.16879 3.92975 3.6986 6.63757 4.93401 8.53401.19184.28347.35295.56693.49111.85046h1.55c.13811-.28353.29927-.56699.49111-.85046 1.23541-1.89644 4.76522-4.60426 4.93401-8.53401.09325-2.15719-.50731-3.87443-1.02254-4.94452-.33464-.69501-.32146-1.49929-.01877-2.2088.48585-1.13884.60633-2.55872.41209-3.76681-.66759-4.23278-3.28321-7.53593-5.57092-7.53593-2.28772 0-4.90328 3.30315-5.57087 7.53593-.19424 1.20808-.07376 2.62795.41208 3.76678.30268.70951.31587 1.51379-.01877 2.2088-.51524 1.07009-1.1158 2.78734-1.02254 4.94455z" fill="#75d64c"/><path d="m31.99964 29.03421c-.50533 0-.91423-.4089-.91423-.91423v-15.56244c0-.50533.4089-.91423.91423-.91423s.91423.4089.91423.91423v15.56245c-.00001.50532-.40891.91422-.91423.91422z" fill="#579c35"/></g><g><path d="m13.59774 51.0083c3.86126 4.39895 8.1234 6.29539 11.85763 9.32582.93031.75277 1.71042 1.427 2.37867 2.04199 2.34702 2.16 5.97515 2.16 8.32216 0 .66824-.61499 1.44836-1.28923 2.37867-2.04199 3.74401-3.03043 8.0061-4.92687 11.86741-9.32582 3.9004-4.43803 4.24257-13.13821-.2346-18.62222-4.223-5.17119-11.18312-7.07742-18.17253-7.07742-6.97968 0-13.9398 1.90623-18.1628 7.07742-4.47718 5.48401-4.13506 14.18418-.23461 18.62222z" fill="#9151b2"/><g fill="#693c8e"><path d="m53.2552 39.60155h-6.55035c-.50386 0-.91521-.41129-.91521-.91515 0-.50393.41135-.91521.91521-.91521h6.16988c.16457.60666.28796 1.2134.38047 1.83036z"/><path d="m38.20908 44.36721h-11.6734c-.50533 0-.91423-.4089-.91423-.91423s.4089-.91423.91423-.91423h11.6734c.50533 0 .91423.4089.91423.91423s-.4089.91423-.91423.91423z"/><path d="m26.53568 34.61245h-8.83339c-.50533 0-.91423-.40891-.91423-.91423 0-.50533.4089-.91423.91423-.91423h8.83339c.50533 0 .91423.4089.91423.91423 0 .50532-.4089.91423-.91423.91423z"/><path d="m20.19496 51.09809c0 .50393-.40106.91521-.91521.91521h-4.74051c-.32907-.31878-.63755-.65813-.94609-1.00772-.2262-.25708-.44217-.53474-.64784-.82264h6.33445c.51414 0 .9152.41129.9152.91515z"/><path d="m44.39977 49.97044h-6.85494c-.50533 0-.91423-.40891-.91423-.91423 0-.50533.40891-.91423.91423-.91423h6.85494c.50533 0 .91423.4089.91423.91423 0 .50532-.4089.91423-.91423.91423z"/><path d="m35.89672 59.20023h-5.73537c-.50533 0-.91423-.4089-.91423-.91423s.40891-.91423.91423-.91423h5.73537c.50533 0 .91423.40891.91423.91423 0 .50533-.4089.91423-.91423.91423z"/></g><path d="m13.60572 51.00874c3.85802 4.40665 8.11837 6.28991 11.8485 9.32521.93242.74962 1.71865 1.42614 2.37698 2.04787 2.35867 2.15757 5.97899 2.15757 8.31947 0 .67652-.62173 1.46275-1.29825 2.37698-2.04787.40232-.32911.82283-.64003 1.24334-.95084-9.06909-1.18855-16.07213-8.81319-16.07213-18.04689 0-6.92982 3.93112-12.94553 9.70912-16.01733-.47542-.0183-.93253-.0183-1.40795-.0183-6.98473 0-13.95116 1.91986-18.1749 7.09443-4.46145 5.46709-4.13234 14.17058-.21941 18.61372z" opacity=".15"/></g></g></svg>