<svg height="512" viewBox="0 0 512 512" width="512" xmlns="http://www.w3.org/2000/svg"><g id="Flat"><path d="m285.884 86.476a79.784 79.784 0 0 0 -77.884-62.476v32a24 24 0 0 1 24 24v32h56v-16z" fill="#79ad54"/><path d="m221.442 320h-26.884a32 32 0 0 1 -31.452-26.1l-10.26-54.719a516.423 516.423 0 0 1 -8.846-95.181 48 48 0 0 1 48-48h32a48 48 0 0 1 48 48 516.423 516.423 0 0 1 -8.846 95.178l-10.26 54.722a32 32 0 0 1 -31.452 26.1z" fill="#fcac1f"/><path d="m317.442 320h-26.884a32 32 0 0 1 -31.452-26.1l-10.26-54.719a516.423 516.423 0 0 1 -8.846-95.181 48 48 0 0 1 48-48h32a48 48 0 0 1 48 48 516.423 516.423 0 0 1 -8.846 95.178l-10.26 54.722a32 32 0 0 1 -31.452 26.1z" fill="#faa50f"/><path d="m320 144c0 3.86-.04 7.73-.13 11.59q-.4 18.135-2.09 36.2-2.2 23.82-6.63 47.39l-10.26 54.72a31.993 31.993 0 0 1 -31.45 26.1h-26.88a31.993 31.993 0 0 1 -31.45-26.1l-1.32-7.04-8.94-47.68a516.072 516.072 0 0 1 -8.85-95.18 48 48 0 0 1 48-48h32a48 48 0 0 1 48 48z" fill="#ffb531"/><path d="m237.191 120.509c-7.37 2.763-12.7 8.859-15.846 18.116l15.148 5.147c2.3-6.777 5.323-7.909 6.316-8.281z" fill="#ffc361"/><path d="m234.19 156.351-15.953-1.232c-1.7 22.072 3.636 49.191 5.647 59.4l.264 1.347 15.7-3.065-.27-1.373c-1.89-9.623-6.925-35.183-5.388-55.077z" fill="#ffc361"/><path d="m184 192a79.784 79.784 0 0 0 -77.884 62.476l-2.116 9.524v16h56v-32a24 24 0 0 1 24-24z" fill="#79ad54"/><path d="m101.442 488h-26.884a32 32 0 0 1 -31.452-26.1l-10.26-54.719a516.423 516.423 0 0 1 -8.846-95.181 48 48 0 0 1 48-48h32a48 48 0 0 1 48 48 516.423 516.423 0 0 1 -8.846 95.178l-10.26 54.722a32 32 0 0 1 -31.452 26.1z" fill="#e64c3f"/><path d="m197.442 488h-26.884a32 32 0 0 1 -31.452-26.1l-10.26-54.719a516.423 516.423 0 0 1 -8.846-95.181 48 48 0 0 1 48-48h32a48 48 0 0 1 48 48 516.423 516.423 0 0 1 -8.846 95.178l-10.26 54.722a32 32 0 0 1 -31.452 26.1z" fill="#e64c3f"/><path d="m149.442 488h-26.884a32 32 0 0 1 -31.452-26.1l-10.26-54.719a516.423 516.423 0 0 1 -8.846-95.181 48 48 0 0 1 48-48h32a48 48 0 0 1 48 48 516.423 516.423 0 0 1 -8.846 95.178l-10.26 54.722a32 32 0 0 1 -31.452 26.1z" fill="#f35244"/><path d="m116.493 311.772-15.148-5.147c3.145-9.257 8.476-15.353 15.846-18.116l5.618 14.982c-.993.372-4.009 1.509-6.316 8.281z" fill="#fc685b"/><path d="m104.148 383.866-.264-1.347c-2.011-10.209-7.351-37.328-5.647-59.4l15.953 1.232c-1.537 19.894 3.5 45.454 5.392 55.077l.27 1.373z" fill="#fc685b"/><path d="m440 264h-40v-16a24 24 0 0 1 24-24v-32a79.784 79.784 0 0 0 -77.884 62.476l-2.116 9.524h-32a48 48 0 0 0 -48 48 516.423 516.423 0 0 0 8.846 95.178l10.26 54.719a32 32 0 0 0 31.452 26.103h20.874a40 40 0 0 0 28.284-11.716l6.627-6.627a8 8 0 0 1 11.314 0l6.627 6.627a40 40 0 0 0 28.284 11.716h20.874a32 32 0 0 0 31.452-26.1l10.26-54.719a516.423 516.423 0 0 0 8.846-95.181 48 48 0 0 0 -48-48z" fill="#79ad54"/><path d="m440 296h-32a15.994 15.994 0 0 1 5.29 31.09 15.984 15.984 0 0 1 -21.47 22.64 15.559 15.559 0 0 1 .18 2.27 16 16 0 0 1 -32 0 15.559 15.559 0 0 1 .18-2.27 15.99 15.99 0 0 1 -21.47-22.64 15.994 15.994 0 0 1 5.29-31.09h-32a15.983 15.983 0 0 0 -16 15.947 485.717 485.717 0 0 0 8.3 89.334s4.07 21.709 7.073 37.779a20.752 20.752 0 0 0 20.4 16.94 20.742 20.742 0 0 0 17.259-9.237 32.411 32.411 0 0 1 53.936 0 20.743 20.743 0 0 0 37.647-7.683l7.087-37.8a485.7 485.7 0 0 0 8.3-89.333 15.983 15.983 0 0 0 -16.002-15.947z" fill="#649441"/></g></svg>