<svg id="Capa_1" enable-background="new 0 0 512 512" viewBox="0 0 512 512" xmlns="http://www.w3.org/2000/svg"><g><g><path d="m498.858 433.31h-59.625v60.698c7.709 7.778 18.391 12.601 30.208 12.601 23.505 0 42.56-19.055 42.56-42.56-.001-12.089-5.048-22.993-13.143-30.739z" fill="#d78878"/><g><g><g fill="#d78878"><path d="m300.375 292.411-.862-1.466-.862 1.466c-1.641 2.791-3.648 5.424-5.968 7.827l-.28.291v119.781h59.875v-110.577l-1.354.513c-4.729 1.792-9.675 2.701-14.702 2.701-14.666 0-28.402-7.869-35.847-20.536z"/><path d="m226.96 292.411-.862-1.466-.862 1.466c-1.502 2.554-3.332 4.999-5.44 7.265l-.268.288v120.346h59.875v-110.807l-1.367.54c-4.883 1.927-10.007 2.904-15.23 2.904-14.665 0-28.401-7.869-35.846-20.536z"/><path d="m153.545 292.411-.862-1.466-.862 1.466c-1.64 2.79-3.647 5.423-5.968 7.826l-.28.291v119.782h60.955v-111.036l-1.38.567c-5.021 2.061-10.322 3.106-15.758 3.106-14.664 0-28.4-7.869-35.845-20.536z"/><path d="m512 389.571c0-16.028-8.865-29.981-21.954-37.24 13.09-7.259 21.954-21.211 21.954-37.24 0-12.089-5.047-22.993-13.142-30.739h-49.73l-.233.672c-1.962 5.648-5.205 10.916-9.381 15.236l-.281.291v119.76h59.626c8.094-7.747 13.141-18.651 13.141-30.74z"/><path d="m429.755 233.274-1.577.875 1.577.875c12.851 7.125 21.053 20.671 21.405 35.353l.023.976h47.674c8.095-7.746 13.142-18.65 13.142-30.74 0-23.505-19.055-42.56-42.56-42.56-6.677 0-12.986 1.55-18.607 4.291-1.709 12.946-9.457 24.487-21.077 30.93z"/><path d="m426.232 309.516-1.367.539c-4.868 1.919-9.992 2.893-15.229 2.893-14.665 0-28.4-7.869-35.846-20.536l-.862-1.467-.862 1.467c-1.797 3.058-3.982 5.88-6.494 8.388l-.294.293v119.217h60.955v-110.794z"/><path d="m426.232 433.31h-280.66v60.699c7.709 7.777 18.391 12.601 30.207 12.601 15.647 0 29.313-8.45 36.708-21.029 7.394 12.58 21.06 21.029 36.708 21.029 15.647 0 29.313-8.45 36.708-21.029 7.395 12.58 21.061 21.029 36.708 21.029s29.313-8.45 36.708-21.029c7.394 12.58 21.061 21.029 36.708 21.029 11.816 0 22.498-4.823 30.207-12.601v-60.699z"/><path d="m132.572 309.503-1.367.54c-4.883 1.927-10.007 2.904-15.23 2.904-14.664 0-28.399-7.869-35.845-20.536l-.862-1.466-.862 1.466c-4.297 7.31-10.694 13.008-18.15 16.532-.291 2.008-.45 4.059-.45 6.148 0 16.028 8.864 29.981 21.954 37.24-13.09 7.259-21.954 21.211-21.954 37.24 0 12.089 5.047 22.993 13.142 30.739h59.626v-110.807z"/><path d="m132.572 433.31h-59.625c-8.095 7.746-13.142 18.65-13.142 30.74 0 23.505 19.055 42.56 42.559 42.56 11.817 0 22.499-4.824 30.208-12.601z"/></g><g fill="#c96e59"><path d="m498.858 433.31h-30.641v6.062c0 14.224-11.531 25.755-25.754 25.755h-3.23v28.881c7.709 7.778 18.391 12.601 30.208 12.601 23.505 0 42.56-19.055 42.56-42.56-.001-12.089-5.048-22.993-13.143-30.739z"/><path d="m512 389.571c0-16.028-8.865-29.981-21.954-37.24 13.09-7.259 21.954-21.211 21.954-37.24 0-12.089-5.047-22.993-13.142-30.739h-30.641v135.958h30.641c8.095-7.746 13.142-18.65 13.142-30.739z"/><path d="m498.858 271.352c8.095-7.746 13.142-18.65 13.142-30.74 0-23.505-19.055-42.56-42.56-42.56-.411 0-.815.024-1.223.035v73.264h30.641z"/><path d="m132.572 465.127h-72.74c.573 23.006 19.389 41.483 42.532 41.483 11.817 0 22.499-4.824 30.208-12.601z"/><path d="m426.232 465.127h-280.66v28.882c7.709 7.777 18.391 12.601 30.207 12.601 15.647 0 29.313-8.45 36.708-21.029 7.394 12.58 21.06 21.029 36.708 21.029 15.647 0 29.313-8.45 36.708-21.029 7.395 12.58 21.061 21.029 36.708 21.029s29.313-8.45 36.708-21.029c7.394 12.58 21.061 21.029 36.708 21.029 11.816 0 22.498-4.823 30.207-12.6v-28.883z"/></g><g><path d="m499.846 270.352h-48.716c.009.346.035.689.035 1.036 0 4.898-.858 9.598-2.422 13.964h51.103c-2.881-2.944-6.17-5.487-9.8-7.5 3.63-2.013 6.919-4.556 9.8-7.5z" fill="#bb5d4c"/><path d="m499.846 419.31h-59.614v-119.876c-4.134 4.506-9.248 8.093-15 10.432v109.444h-58.955v-119.325c-4.219 4.417-9.35 7.848-15 10.06v109.265h-57.875v-119.891c-4.185 4.55-9.321 8.108-15 10.423v109.468h-57.875v-120.476c-4.147 4.687-9.293 8.361-15 10.781v109.695h-58.955v-119.891c-4.185 4.55-9.321 8.109-15 10.424v109.467h-59.613c2.881 2.944 6.17 5.487 9.8 7.5-3.63 2.013-6.919 4.556-9.8 7.5h59.613v60.654c2.914-2.756 5.454-5.905 7.5-9.384 2.046 3.48 4.586 6.629 7.5 9.385v-60.655h278.66v60.655c2.915-2.756 5.455-5.905 7.5-9.385 2.045 3.48 4.585 6.628 7.5 9.384v-60.654h59.613c-2.881-2.944-6.17-5.487-9.8-7.5 3.631-2.013 6.92-4.556 9.801-7.5z" fill="#bb5d4c"/><path d="m468.217 419.31v15h31.628c-2.881-2.944-6.17-5.487-9.8-7.5 3.63-2.013 6.919-4.556 9.8-7.5z" fill="#a44f3e"/></g><path d="m490.046 277.852c3.63-2.013 6.919-4.556 9.8-7.5h-31.628v15h31.629c-2.882-2.944-6.171-5.487-9.801-7.5z" fill="#a44f3e"/></g><g><g><path d="m452.195 122.429c0-16.028-8.864-29.981-21.954-37.24 13.09-7.259 21.954-21.211 21.954-37.24 0-23.505-19.055-42.56-42.56-42.56-15.647 0-29.313 8.45-36.708 21.029-7.394-12.58-21.061-21.029-36.708-21.029s-29.313 8.45-36.708 21.029c-7.394-12.58-21.061-21.029-36.708-21.029s-29.313 8.45-36.708 21.029c-7.395-12.58-21.061-21.029-36.708-21.029s-29.313 8.45-36.708 21.029c-7.395-12.58-21.061-21.029-36.708-21.029s-29.309 8.451-36.704 21.031c-7.394-12.58-21.06-21.029-36.707-21.029-23.505 0-42.56 19.054-42.56 42.559 0 16.028 8.864 29.981 21.954 37.24-13.09 7.258-21.954 21.211-21.954 37.239s8.864 29.981 21.954 37.24c-13.09 7.259-21.954 21.211-21.954 37.24s8.864 29.981 21.954 37.24c-13.09 7.258-21.954 21.21-21.954 37.239 0 23.505 19.055 42.56 42.56 42.56 15.647 0 29.313-8.45 36.708-21.029 7.395 12.58 21.061 21.029 36.708 21.029s29.313-8.45 36.708-21.029c7.395 12.58 21.061 21.029 36.708 21.029s29.313-8.45 36.708-21.029c7.395 12.58 21.061 21.029 36.708 21.029s29.313-8.45 36.708-21.029c7.394 12.58 21.061 21.029 36.708 21.029s29.313-8.45 36.708-21.029c7.394 12.58 21.061 21.029 36.708 21.029 23.505 0 42.56-19.055 42.56-42.56 0-16.028-8.864-29.981-21.954-37.24 13.09-7.259 21.954-21.211 21.954-37.24s-8.864-29.981-21.954-37.24c13.085-7.258 21.949-21.21 21.949-37.239z" fill="#ffd15b"/></g><g><g><circle cx="108.487" cy="96.737" fill="#fe9738" r="15.453"/></g><g><circle cx="226.177" cy="96.737" fill="#fe9738" r="15.453"/></g><g><circle cx="343.708" cy="96.737" fill="#fe9738" r="15.453"/></g><g><circle cx="108.487" cy="222.601" fill="#fe9738" r="15.453"/></g><g><circle cx="226.177" cy="222.601" fill="#fe9738" r="15.453"/></g><g><circle cx="343.708" cy="222.601" fill="#fe9738" r="15.453"/></g></g></g></g><g fill="#a44f3e"><path d="m440.232 465.127h-15v29.839c2.915-2.756 5.455-5.905 7.5-9.385 2.045 3.48 4.585 6.628 7.5 9.384z"/><path d="m131.572 465.127v29.838c2.914-2.756 5.454-5.905 7.5-9.384 2.046 3.48 4.586 6.629 7.5 9.385v-29.838h-15z"/></g><g><path d="m452.195 122.429c0-16.028-8.864-29.981-21.954-37.24 13.09-7.259 21.954-21.211 21.954-37.24 0-23.505-19.055-42.56-42.56-42.56-.411 0-.815.024-1.223.035v241.286c0 14.224-11.531 25.755-25.755 25.755h-382.63c.573 23.005 19.389 41.482 42.533 41.482 15.647 0 29.313-8.45 36.708-21.029 7.395 12.58 21.061 21.029 36.708 21.029s29.313-8.45 36.708-21.029c7.394 12.58 21.06 21.029 36.708 21.029 15.647 0 29.313-8.45 36.708-21.029 7.394 12.58 21.06 21.029 36.707 21.029s29.313-8.45 36.708-21.029c7.394 12.58 21.061 21.029 36.707 21.029 15.647 0 29.313-8.45 36.708-21.029 7.394 12.58 21.06 21.029 36.707 21.029 23.505 0 42.56-19.055 42.56-42.56 0-16.028-8.864-29.981-21.954-37.24 13.09-7.259 21.954-21.211 21.954-37.24s-8.864-29.981-21.954-37.24c13.088-7.257 21.952-21.209 21.952-37.238z" fill="#ffc344"/></g></g></g><g/><g/><g/><g/><g/><g/><g/><g/><g/><g/><g/><g/><g/><g/><g/></svg>