<svg id="Layer_1" viewBox="0 0 128 128" xmlns="http://www.w3.org/2000/svg" data-name="Layer 1"><path d="m91 41h-4v-9h-46v9h-4v6h4v7a6 6 0 0 0 6 6h34a6 6 0 0 0 6-6v-7h4z" fill="#4c2d1b"/><path d="m95.94 12.13c.06-1.06.06-2.13.06-3.13 0-7.66-28-7-36-7s-28-.66-28 7c0 1 0 2.07.07 3.14a4 4 0 0 0 4 3.86h.66a4 4 0 0 0 -4 4.48c.74 6.5 5.87 4.7 6.58 8.3a4 4 0 0 0 3.95 3.22h41.51a4 4 0 0 0 3.92-3.19c.73-3.56 5.88-1.71 6.61-8.37a4 4 0 0 0 -4-4.44h.62a4 4 0 0 0 4.02-3.87z" fill="#9b6736"/><path d="m71.5 8h2.28c1.8-.3 4.05-1.52 4.41-5.61-7.19-.52-14.65-.39-18.19-.39-8 0-28-.66-28 7 0 1 0 2.07.07 3.14a4 4 0 0 0 4 3.86h.66a4 4 0 0 0 -4 4.48c.68 5.94 5 5 6.3 7.5a9.43 9.43 0 0 1 -.3-1.5c-.27-2.38-.59-6.19-.68-8.34-.05-1.07-.05-2.14-.05-3.14 0-7.66 20-7 28-7z" fill="#a87951"/><g fill="none" stroke-width="4"><path d="m35 16h58" stroke="#6b4125" stroke-miterlimit="10"/><path d="m95.94 12.13c.06-1.06.06-2.13.06-3.13 0-7.66-28-7-36-7s-28-.66-28 7c0 1 0 2.07.07 3.14a4 4 0 0 0 4 3.86h.66a4 4 0 0 0 -4 4.48c.74 6.5 5.87 4.7 6.58 8.3a4 4 0 0 0 3.95 3.22h41.51a4 4 0 0 0 3.92-3.19c.73-3.56 5.88-1.71 6.61-8.37a4 4 0 0 0 -4-4.44h.62a4 4 0 0 0 4.02-3.87z" stroke="#7f4f2b" stroke-miterlimit="10"/><path d="m30 12h68" stroke="#b7af80" stroke-linecap="round" stroke-miterlimit="10"/></g><rect fill="#a7e8ea" height="8" opacity=".51" rx="4" width="56" x="36" y="40"/><path d="m63.08 40h-23.08a4 4 0 0 0 0 8h20v-2a7 7 0 0 0 6.92-6z" fill="#fff" opacity=".7"/><rect fill="none" height="8" rx="4" stroke="#a8c9cc" stroke-linecap="round" stroke-linejoin="round" stroke-width="4" width="56" x="36" y="40"/><path d="m40.54 48c-8.97 29.08-14.54 30-14.54 43.5 0 26.51 11.49 28 38 28s38-1.49 38-28c0-13.5-5.57-14.42-14.54-43.5z" fill="#a7e8ea" opacity=".51"/><path d="m40 50h48v4h-48z" fill="#8fcccc" opacity=".52"/><path d="m67.67 119.49h-7.34c-9.31-.07-16.58-.51-22-2.51 1.46 4.45 7.35 9 11.65 9h28.02c4.3 0 10.19-4.57 11.65-9-5.4 2.02-12.65 2.43-21.98 2.51z" fill="#918583"/><path d="m26.39 99 75.12.81a63.1 63.1 0 0 0 .48-7.72c-4.77-2.79-9.26-5.8-11-8.11-4.35-5.8-10.2-12-16-12s-14.99 14.02-28.99 4.02c-4.72-3.37-10.65 5.2-15 11a62.64 62.64 0 0 0 -4.93 7.8q.1 2.2.32 4.2z" fill="#514141"/><path d="m101.5 91.83c-4.58-2.71-8.82-5.6-10.5-7.83-4.35-5.8-10.2-12-16-12s-15 14-29 4" fill="none" stroke="#443636" stroke-miterlimit="10" stroke-width="4"/><path d="m101.41 100.58c-6.74-1.49-18.08-4.58-25.41-12.58-14-15.23-27.34-17.43-31-17-1.09.13-3.24.61-9 7-3.81 4.22-7.35 8.16-10 11.72v1.78c0 26.51 11.49 28 38 28 23.08 0 34.77-1.14 37.41-18.92z" fill="#5b4949"/><path d="m26.54 89c2.56-3.38 5.9-7.08 9.46-11 5.76-6.39 7.91-6.87 9-7 3.66-.43 17 1.77 31 17 7 7.64 17.78 10.84 24.59 12.4" fill="none" stroke="#443636" stroke-miterlimit="10" stroke-width="4"/><path d="m38.53 117.49c1.73 4.28 7.33 8.51 11.47 8.51h28c4.2 0 9.93-4.37 11.55-8.71" fill="none" stroke="#726865" stroke-linecap="round" stroke-miterlimit="10" stroke-width="4"/><path d="m81 54h-42.88c-1 3.43-2.72 10-2.72 10-6.4 11-9.4 14.82-9.4 25.5a31.91 31.91 0 0 0 2.22 12.56c5.21-2.18 5.83-7.46 5.91-8.55v-.2c.87-13.66 11.87-30.6 11.87-30.6l.36-1.25a4.78 4.78 0 0 1 4.57-3.46 4.77 4.77 0 0 1 4.74 5.31c-1.67 14.74-2.67 17.61-2.67 28.19v.15a11.23 11.23 0 0 0 10.62 11.35 11 11 0 0 0 11.38-11q0-.27 0-.54c0-10.78-1-13.56-2.77-29a4 4 0 0 1 4-4.45h.54a4.15 4.15 0 0 0 4.23-4.01z" fill="#fff" opacity=".51"/><path d="m102 91c-.14-13-5.68-14.29-14.53-43h-46.93c-7 22.7-11.93 28.24-13.76 36" fill="none" stroke="#a8c9cc" stroke-linecap="round" stroke-linejoin="round" stroke-width="4"/><path d="m26.78 84a32 32 0 0 0 -.78 7.5c0 26.51 11.49 28 38 28s38-1.49 38-28c0-.17 0-.33 0-.5" fill="none" stroke="#99847f" stroke-linecap="round" stroke-miterlimit="10" stroke-width="4"/></svg>