<svg id="color" height="512" viewBox="0 0 256 256" width="512" xmlns="http://www.w3.org/2000/svg"><path d="m129.79 72.5678c-6.3556-13.9363-.6257-30.1313 12.7977-36.1716s29.4578.362 35.8128 14.2984c0 0 2.5433 6.0194 6.39 9.03 3.6884 2.8859 7.6506 4.2373 15 1.4512 13.77-5.2185 29.4464 2.1146 35.0082 16.3786s-1.09 30.0588-14.86 35.2784c-13.6592 5.1767-27.2175 6.2417-40.3015 3.1636a69.27 69.27 0 0 1 -29.4372-15.3082 77.094 77.094 0 0 1 -20.41-28.1204z" fill="#3f3d3d"/><path d="m163.7387 63.7023c-.2626-.4984-.4071-.804-.4329-.86a5.3089 5.3089 0 0 1 9.6266-4.4795 28.6231 28.6231 0 0 0 7.2042 8.8961c5.9716 4.7975 12.7327 5.6364 20.6712 2.5647a5.3088 5.3088 0 0 1 3.8328 9.9016c-14.6851 5.6831-25.2457.6961-31.5186-4.4876a39.83 39.83 0 0 1 -9.3833-11.5353z" fill="#eae4bb"/><path d="m72.319 23.4352c13.8037-4.031 28.0822 3.4687 31.89 16.7536s-4.2969 27.3243-18.1 31.3548c0 0-5.9356 1.5544-9.2512 4.725-3.1765 3.039-4.965 6.5382-3.3645 13.743 2.9982 13.4976-5.9232 27.0767-19.9262 30.3268-14.0013 3.2522-27.7852-5.0526-30.7828-18.55-2.974-13.388-2.14-26.13 2.4787-37.8738a65.0493 65.0493 0 0 1 18.1815-25.2946 72.3924 72.3924 0 0 1 28.8745-15.1848z" fill="#666"/><path d="m75.9933 56.1726c.4974-.1783.8019-.27.8578-.2863a4.9836 4.9836 0 0 1 2.8665 9.546 26.9055 26.9055 0 0 0 -9.2339 5.4984c-5.2615 4.9027-6.95 11.0736-5.1627 18.8643a4.984 4.984 0 0 1 -9.7157 2.2285c-3.3059-14.41 2.7468-23.5523 8.4074-28.6827a37.3684 37.3684 0 0 1 11.9806-7.1682z" fill="#f4f0d0"/><path d="m62.2294 201.3087c-16.68-.2971-29.904-13.53-29.5373-29.5566s14.1861-28.7778 30.864-28.4786c0 0 7.1091.326 11.8728-2.041 4.567-2.2688 7.7558-5.5279 8.4686-14.0583 1.3374-15.9811 15.9028-27.9436 32.53-26.71 16.6295 1.2294 29.0265 15.1819 27.69 31.1636-1.3256 15.8528-6.6451 29.6764-15.8125 41.0878a75.45 75.45 0 0 1 -28.8615 21.74 83.9746 83.9746 0 0 1 -37.2141 6.8531z" fill="#3f3d3d"/><path d="m69.454 163.7856c-.6129.0258-.9813.0231-1.0479.0225a5.7815 5.7815 0 0 1 .1176-11.5623 31.2 31.2 0 0 0 12.1236-2.9031c7.519-3.6148 11.5183-9.8656 12.2257-19.1082a5.7814 5.7814 0 1 1 11.529.883c-1.3116 17.0978-11.1687 25.1341-19.2081 28.8643a43.3273 43.3273 0 0 1 -15.7399 3.8038z" fill="#eae4bb"/><path d="m208.1529 228.9569c15.4521-6.2858 23.0232-23.3927 16.9093-38.21s-23.5974-21.7379-39.0484-15.4537c0 0-6.514 2.8655-11.8126 2.373-5.0768-.4727-9.2243-2.3633-12.9621-10.0644-7.0028-14.4289-24.8982-20.3425-39.9663-13.2043-15.07 7.1355-21.6111 24.6163-14.6094 39.0447 6.9453 14.3118 16.8884 25.2925 29.5485 32.6369a75.4509 75.4509 0 0 0 34.7553 9.8871 83.9768 83.9768 0 0 0 37.1857-7.0093z" fill="#666"/><path d="m187.899 196.5536c.5811-.1966.9233-.332.9861-.3567a5.7814 5.7814 0 0 0 -4.2754-10.7433 31.1812 31.1812 0 0 1 -12.3546 1.6581c-8.3161-.6655-14.2973-5.0558-18.2869-13.424a5.7815 5.7815 0 1 0 -10.4376 4.9758c7.38 15.479 19.4707 19.4262 28.3142 20.0105a43.3509 43.3509 0 0 0 16.0542-2.1204z" fill="#f4f0d0"/></svg>