<svg height="464pt" viewBox="0 -16 464 464" width="464pt" xmlns="http://www.w3.org/2000/svg"><path d="m232 177.785156v77.984375h-77.984375c-40.847656-.003906-80.019531-16.230469-108.902344-45.113281-28.886719-28.886719-45.113281-68.0625-45.113281-108.914062v-77.972657h77.984375c40.84375-.003906 80.019531 16.222657 108.902344 45.101563 28.886719 28.886718 45.113281 68.0625 45.113281 108.914062zm0 0" fill="#5f9548"/><path d="m231.207031 243.664062-39.207031-39.207031v-76.457031h-16v60.457031l-32-32.007812v-68.449219h-16v52.449219l-32-32v-44.449219h-16v28.449219l-35.671875-35.671875-11.320313 11.3125 35.921876 35.910156h-28.929688v16h44.929688l31.992187 32h-52.921875v16h68.921875l32 32h-52.921875v16h68.921875l38.972656 38.976562zm0 0" fill="#77ad50"/><path d="m350.863281 56.566406 56.570313-56.566406c13.160156 13.15625 15.199218 33.773438 4.878906 49.257812l-4.878906 7.308594 7.308594-4.878906c15.484374-10.320312 36.101562-8.28125 49.257812 4.878906l-56.566406 56.570313zm0 0" fill="#2e3e51"/><path d="m440.230469 135.769531c0 61.855469-50.140625 112-112 112-61.855469 0-112-50.144531-112-112 0-61.859375 50.144531-112 112-112 61.859375 0 112 50.140625 112 112zm0 0" fill="#3d4d63"/><path d="m417.183594 67.894531c-25.335938 107.671875-113.757813 137.480469-169.679688 145.378907 41.070313 42.933593 108.53125 46.28125 153.648438 7.625 45.121094-38.65625 52.15625-105.835938 16.03125-153.003907zm0 0" fill="#39475c"/><path d="m305.542969 67.664062-5.039063-15.199218c6.0625-2.003906 12.320313-3.347656 18.671875-4l1.648438 15.910156c-5.199219.539062-10.320313 1.640625-15.28125 3.289062zm0 0" fill="#4c5d72"/><path d="m257.335938 124.59375-15.800782-2.480469c4.191406-26.550781 20.292969-49.726562 43.710938-62.914062l7.851562 13.945312c-5.722656 3.222657-10.972656 7.210938-15.609375 11.855469-10.769531 10.710938-17.828125 24.582031-20.152343 39.59375zm0 0" fill="#4c5d72"/><path d="m456 320c0 61.855469-50.144531 112-112 112s-112-50.144531-112-112 50.144531-112 112-112 112 50.144531 112 112zm0 0" fill="#39475c"/><path d="m392.535156 287.585938c10.410156 1.726562 18.972656 9.140624 22.175782 19.191406 3.207031 10.050781.511718 21.050781-6.976563 28.488281 1.957031 10.347656-2.175781 20.902344-10.636719 27.175781-8.460937 6.273438-19.761718 7.164063-29.097656 2.285156-9.332031 4.859376-20.621094 3.960938-29.070312-2.308593-8.449219-6.269531-12.578126-16.8125-10.632813-27.152344-7.488281-7.4375-10.179687-18.4375-6.976563-28.488281 3.203126-10.050782 11.769532-17.464844 22.175782-19.191406 4.476562-9.492188 14.027344-15.546876 24.519531-15.546876s20.042969 6.054688 24.519531 15.546876zm0 0" fill="#29384a"/><path d="m80.230469 360h-80c.003906-18.605469 13.140625-34.625 31.386719-38.273438l8.613281-1.726562-8.613281-1.726562c-18.246094-3.648438-31.382813-19.667969-31.386719-38.273438h80zm0 0" fill="#2e3e51"/><path d="m264.230469 320c0 61.855469-50.140625 112-112 112-61.855469 0-112-50.144531-112-112s50.144531-112 112-112c61.859375 0 112 50.144531 112 112zm0 0" fill="#3d4d63"/><path d="m241.183594 252.128906c-25.335938 107.679688-113.757813 137.480469-169.679688 145.375 41.070313 42.933594 108.53125 46.28125 153.648438 7.625 45.121094-38.65625 52.15625-105.832031 16.03125-153zm0 0" fill="#39475c"/><g fill="#4c5d72"><path d="m132.871094 253.664062-5.039063-15.199218c6.0625-2.003906 12.320313-3.347656 18.671875-4l1.65625 15.933594c-5.199218.53125-10.324218 1.625-15.289062 3.265624zm0 0"/><path d="m84.671875 310.59375-15.808594-2.480469c4.207031-26.539062 20.3125-49.699219 43.722657-62.890625l7.847656 13.945313c-5.726563 3.21875-10.984375 7.207031-15.632813 11.847656-10.757812 10.710937-17.808593 24.574219-20.128906 39.578125zm0 0"/></g></svg>