<svg id="Capa_1" enable-background="new 0 0 512 512" viewBox="0 0 512 512" xmlns="http://www.w3.org/2000/svg"><g><g><path d="m116.601 23.746-24.592 8.246 27.913 39.223 9.81-20.196c1.859-1.492 11.588 3.283 13.574 2.084 13.9-8.392 30.565-9.635 45.151-4.263 4.553 1.677 8.986-2.655 7.649-7.319-1.935-6.745-5.268-13.213-10.046-18.973-16.379-19.743-44.427-24.054-66.193-11.944-2.609 1.452-.869 11.218-3.266 13.142z" fill="#e4f8ff"/><path d="m91.983 32.276 28.117 39.078 17.528-14.167c1.949-1.588 3.99-3 6.083-4.269l-.547-3.939c-2.196-15.868-10.95-29.509-23.271-38.325-2.66 1.474-5.228 3.207-7.671 5.186z" fill="#c3eafb"/><path d="m165.676 92.71-20.516-5.05c-.172-.042-.354-.025-.515.051l-17.864 8.36c-.474.222-1.027-.079-1.099-.597l-6.002-43.234c-2.507-18.055-19.165-30.667-37.223-28.181-.35.048-.623.326-.665.677l-2.082 17.316c-.028.236-.164.447-.367.571l-15.083 9.203c-.203.124-.338.334-.367.571l-2.109 17.538c-.028.236-.164.446-.367.57l-14.993 9.151c-.254.155-.397.442-.369.739l10.831 111.068 2.493 2.788 70.67-16.405 16.279-30.235c6.606-12.269 16.896-22.157 29.419-28.269 7.934-3.872 12.474-12.412 11.245-21.155l-1.695-12.068c-.07-.498-.588-.8-1.056-.614l-18.094 7.172c-.149.06-.314.071-.471.033z" fill="#f1828e"/><path d="m164.177 269.258.262-.213c15.411-12.507 17.766-35.138 5.259-50.549l-29.098-22.495-3.105-17.188-27.097-33.39c-12.507-15.411-35.138-17.766-50.549-5.259l-.262.213c-15.411 12.507-17.766 35.138-5.259 50.549l11.808 14.55 22.842 12.941 24.651 45.582c12.505 15.411 35.137 17.765 50.548 5.259z" fill="#fbc9d2"/><path d="m66.133 205.477 47.492 58.524c12.507 15.404 35.139 17.765 50.554 5.258l.258-.216c15.415-12.507 17.766-35.139 5.259-50.544l-32.201-39.686c-.002 0-.004 0-.006-.001-2.941 2.29-5.809 4.668-8.609 7.128-1.97 1.73-4.581 2.505-7.192 2.274-2.21-.196-4.444-.297-6.701-.297-18.54.001-35.563 6.589-48.854 17.56z" fill="#fbabb7"/><path d="m68.4 266.454c0 29.386 17.195 51.591 46.581 51.591s53.208-23.822 53.208-53.208-23.823-49.621-53.209-49.621c-3.972 0-11.564-2.315-11.564-2.315-16.32 3.618-29.824 14.718-36.71 29.528.001 0 1.694 16.02 1.694 24.025z" fill="#e4f8ff"/><g><g fill="#e4f8ff"><path d="m69.577 338.253-26.796-13.41-13.962 2.25-23.54-6.446c-6.376-1.746-7.195-10.455-1.256-13.359 6.462-3.16 13.369-5.14 20.404-5.92 0 0 17.198 4.303 24.812 6.388l27.74 3.465c7.348 2.012 11.714 9.671 9.702 17.019l-.085.311c-2.012 7.348-9.671 11.714-17.019 9.702z"/><path d="m94.705 409.853-21.065-7.151-7.61 7.151h-37.99c-6.61 0-9.701-8.184-4.74-12.553 7.628-6.718 16.73-11.408 26.471-13.752 0 0 12.153 3.239 17.076 3.239l27.858-4.961c7.619 0 13.852 6.234 13.852 13.852v.322c0 7.62-6.233 13.853-13.852 13.853z"/><path d="m143.705 454.399-9.148 19.377-32.249 32.249c-4.674 4.674-12.646 1.072-12.228-5.525.955-15.058 7.367-29.251 18.036-39.92l3.137-3.137 21.117-14.953c5.387-5.387 11.461-8.81 16.849-3.422l.228.228c5.388 5.386-.355 9.716-5.742 15.103z"/></g><path d="m64.278 381.823c-4.929 0-9.795.588-14.507 1.722 4.805 9.094 10.239 17.879 16.26 26.313h28.674c7.62 0 13.858-6.238 13.858-13.858v-.32c0-7.62-6.238-13.858-13.858-13.858h-30.427z" fill="#c3eafb"/><path d="m24.426 301.367c.99 8.692 2.454 17.281 4.392 25.725l40.759 11.156c7.352 2.011 15.002-2.351 17.023-9.703l.083-.309c2.011-7.341-2.351-15.002-9.702-17.013l-29.344-8.042c-5.372-1.474-10.878-2.196-16.374-2.196-2.29.001-4.568.125-6.837.382z" fill="#c3eafb"/><path d="m129.627 439.068-18.374 18.374c7.465 5.949 15.25 11.404 23.302 16.332l14.889-14.889c5.393-5.393 5.393-14.208 0-19.59l-.227-.227c-5.381-5.392-14.197-5.392-19.59 0z" fill="#c3eafb"/></g><path d="m61.772 264.836c0 29.386 23.828 53.214 53.214 53.214s53.204-23.828 53.204-53.214-23.818-53.204-53.204-53.204c-3.97 0-7.847.433-11.569 1.268-8.352 10.713-15.59 22.292-21.488 34.469-1.64 3.571-6.218-.975-8.197-1.794-2.227-1.309-4.578-2.371-7.021-3.145-3.166 6.806-4.939 14.405-4.939 22.406z" fill="#c3eafb"/></g><g><path d="m395.399 23.746 24.592 8.246-27.913 39.223-9.81-20.196c-1.859-1.492-11.588 3.283-13.574 2.084-13.9-8.392-30.565-9.635-45.151-4.263-4.553 1.677-8.986-2.655-7.649-7.319 1.935-6.745 5.268-13.213 10.046-18.973 16.379-19.743 44.427-24.054 66.193-11.944 2.609 1.452.869 11.218 3.266 13.142z" fill="#e4f8ff"/><path d="m420.017 32.276-28.117 39.078-17.528-14.167c-1.949-1.588-3.99-3-6.083-4.269l.547-3.939c2.196-15.868 10.95-29.509 23.271-38.325 2.66 1.474 5.228 3.207 7.671 5.186z" fill="#c3eafb"/><path d="m346.324 92.71 20.516-5.05c.172-.042.354-.025.515.051l17.864 8.36c.474.222 1.027-.079 1.099-.597l6.002-43.233c2.507-18.055 19.165-30.667 37.223-28.181.35.048.623.326.665.677l2.082 17.317c.028.236.164.447.367.571l15.083 9.203c.203.124.338.334.367.571l2.109 17.538c.028.236.164.446.367.57l14.993 9.151c.254.155.397.442.369.739l-10.831 111.068-2.493 2.788-70.67-16.405-16.279-30.235c-6.606-12.269-16.896-22.157-29.419-28.269-7.934-3.872-12.474-12.412-11.245-21.155l1.695-12.068c.07-.498.588-.8 1.056-.614l18.094 7.172c.149.058.314.069.471.031z" fill="#f1828e"/><path d="m347.823 269.258-.262-.213c-15.411-12.507-17.766-35.138-5.259-50.549l29.099-22.494 3.105-17.188 27.097-33.39c12.507-15.411 35.138-17.766 50.549-5.259l.262.213c15.411 12.507 17.766 35.138 5.259 50.549l-11.808 14.55-22.842 12.941-24.651 45.582c-12.506 15.41-35.138 17.764-50.549 5.258z" fill="#fbc9d2"/><path d="m445.867 205.477-47.492 58.524c-12.507 15.404-35.139 17.765-50.554 5.258l-.258-.216c-15.415-12.507-17.766-35.139-5.259-50.544l32.201-39.686c.002 0 .004 0 .006-.001 2.941 2.29 5.809 4.668 8.609 7.128 1.97 1.73 4.581 2.505 7.192 2.274 2.21-.196 4.444-.297 6.701-.297 18.54.001 35.563 6.589 48.854 17.56z" fill="#fbabb7"/><path d="m443.6 266.454c0 29.386-17.195 51.591-46.581 51.591s-53.208-23.822-53.208-53.208 23.823-49.621 53.209-49.621c3.972 0 11.564-2.315 11.564-2.315 16.32 3.618 29.824 14.718 36.71 29.528-.001 0-1.694 16.02-1.694 24.025z" fill="#e4f8ff"/><g><g fill="#e4f8ff"><path d="m442.423 338.253 26.796-13.41 13.962 2.25 23.54-6.446c6.376-1.746 7.195-10.455 1.256-13.359-6.462-3.16-13.369-5.14-20.404-5.92 0 0-17.198 4.303-24.812 6.388l-27.74 3.465c-7.348 2.012-11.714 9.671-9.702 17.019l.085.311c2.012 7.348 9.671 11.714 17.019 9.702z"/><path d="m417.295 409.853 21.065-7.151 7.61 7.151h37.99c6.61 0 9.701-8.184 4.74-12.553-7.628-6.718-16.73-11.408-26.471-13.752 0 0-12.153 3.239-17.076 3.239l-27.858-4.961c-7.619 0-13.852 6.234-13.852 13.852v.322c0 7.62 6.233 13.853 13.852 13.853z"/><path d="m368.295 454.399 9.148 19.377 32.249 32.249c4.674 4.674 12.646 1.072 12.228-5.525-.955-15.058-7.367-29.251-18.036-39.92l-3.137-3.137-21.117-14.953c-5.387-5.387-11.461-8.81-16.849-3.422l-.228.228c-5.388 5.386.355 9.716 5.742 15.103z"/></g><path d="m447.722 381.823c4.929 0 9.795.588 14.507 1.722-4.805 9.094-10.239 17.879-16.26 26.313h-28.674c-7.62 0-13.858-6.238-13.858-13.858v-.32c0-7.62 6.238-13.858 13.858-13.858h30.427z" fill="#c3eafb"/><path d="m487.574 301.367c-.99 8.692-2.454 17.281-4.392 25.725l-40.759 11.156c-7.352 2.011-15.002-2.351-17.023-9.703l-.083-.309c-2.011-7.341 2.351-15.002 9.703-17.013l29.344-8.042c5.372-1.474 10.878-2.196 16.374-2.196 2.289.001 4.567.125 6.836.382z" fill="#c3eafb"/><path d="m382.373 439.068 18.374 18.374c-7.465 5.949-15.25 11.404-23.302 16.332l-14.889-14.889c-5.393-5.393-5.393-14.208 0-19.59l.227-.227c5.381-5.392 14.197-5.392 19.59 0z" fill="#c3eafb"/></g><path d="m450.228 264.836c0 29.386-23.828 53.214-53.214 53.214s-53.204-23.828-53.204-53.214 23.818-53.204 53.204-53.204c3.97 0 7.847.433 11.569 1.268 8.352 10.713 15.59 22.292 21.488 34.469 1.64 3.571 6.218-.975 8.197-1.794 2.227-1.309 4.578-2.371 7.021-3.145 3.166 6.806 4.939 14.405 4.939 22.406z" fill="#c3eafb"/></g><path d="m260.131 480.336c115.834.209 200.354-86.548 200.354-202.334-.003-7.701-2.882-10.326-9.51-6.405l-4.824 2.854c-4.772 2.823-10.32 4.053-15.838 3.512-9.059-.889-19.716-7.782-23.686-15.973-11.557-23.848-29.21-44.154-47.225-64.877-19.527-15.042-42.422-25.927-67.359-31.331-11.634-2.521-23.152 16.871-35.541 16.871h-1.449c-12.389 0-23.907-19.392-35.541-16.871-48.276 10.46-88.897 41.464-112.251 83.402-1.557 2.796-3.122 10.158-4.523 13.048-2.395 4.943-6.145 4.408-10.8 6.985-3.06 1.694-6.474 2.78-10.067 3.133-5.518.542-11.066-.688-15.838-3.512l-4.825-2.854c-6.628-3.921-15.007.854-15.01 8.556v.174c0 106.655 79.732 194.685 182.842 207.742 0 0 22.403-2.103 31.537-2.12z" fill="#fbc9d2"/><g fill="#fbabb7"><path d="m465.354 274.539v.175c0 115.636-93.715 209.381-209.35 209.412h-.454c-8.981 0-17.827-.567-26.509-1.67 86.951-12.394 154.054-92.622 154.054-189.75 0-34.809-8.62-67.464-23.694-95.591 18.086 13.926 33.28 31.423 44.535 51.434 1.687 2.999 1.961 8.877 3.467 11.985 1.98 4.104 3.475 9.895 7.084 12.421.612.428 4.05-4.351 4.696-3.977 3.169 1.834 6.736 3.006 10.495 3.374 5.527.536 11.074-.691 15.837-3.516l4.825-2.856c6.631-3.917 15.014.857 15.014 8.559z"/><path d="m231.98 350.859c0 22.075-8.61 42.81-24.241 58.4-.247.247-.505.474-.784.68-2.598 1.98-5.764 3-8.95 3-1.928 0-3.877-.371-5.702-1.134-58.318-24.323-97.179-79.795-100.365-142.588 4.66-2.578 8.496-6.558 10.888-11.507 1.382-2.846 2.835-5.661 4.372-8.414v13.559c.763 58.895 36.304 111.625 90.58 134.473 12.095-12.548 18.735-28.994 18.735-46.471 0-36.964-30.066-67.03-67.03-67.03-4.269 0-7.733-3.464-7.733-7.733s3.464-7.733 7.733-7.733c45.491.002 82.497 37.007 82.497 82.498z"/><path d="m313.332 397.33c-12.095-12.548-18.735-28.994-18.735-46.471 0-36.964 30.066-67.03 67.03-67.03 4.269 0 7.733-3.464 7.733-7.733s-3.464-7.733-7.733-7.733c-45.491 0-82.497 37.005-82.497 82.497 0 22.075 8.609 42.81 24.23 58.4.247.247.516.474.784.68 2.609 1.98 5.764 3 8.96 3 1.928 0 3.867-.371 5.702-1.134 37.165-15.501 66.407-43.666 83.57-78.302-2.435-6.56-5.295-12.918-8.426-19.167-14.236 36.789-42.894 67.112-80.618 82.993z"/></g><path d="m419.182 268.981c-2.299 46.502-24.158 89.013-58.998 117.842 6.372-12.146 11.548-25.107 15.353-38.717 17.704-24.282 27.973-53.895 28.375-85.25v-14.342c.01.01.01.021.031.031 1.681 3 3.279 6.052 4.784 9.166 1.98 4.104 4.96 7.537 8.568 10.063.608.423 1.237.825 1.877 1.186v.01z" fill="#f1828e"/><g fill="#f1828e"><circle cx="211.496" cy="165.439" r="19.026"/><circle cx="300.058" cy="165.439" r="19.026"/></g></g><g/><g/><g/><g/><g/><g/><g/><g/><g/><g/><g/><g/><g/><g/><g/></svg>