<svg height="512" viewBox="0 0 48 48" width="512" xmlns="http://www.w3.org/2000/svg"><g id="_30-Cabbage" data-name="30-Cabbage"><path d="m21.04 28.22a9.554 9.554 0 0 1 -1.19 6.75c-.95-.36-1.85-3.97-1.85-3.97a5.145 5.145 0 0 1 -3-1c-3-2 0-6-3-6a3.663 3.663 0 0 1 -4-4c0-3 3-4 3-4-1-2-3-2-3-6 0-4.7 7.07-4.98 7.92-5a8.806 8.806 0 0 0 -.92 4c0 5 6 8 4 9s-2 3-2 6c0 2.21 2.13 3.5 4.04 4.22z" fill="#008906"/><path d="m40 15v3.1a1.984 1.984 0 0 1 -2.48 1.93c-2.57-.66-6.24-.58-6.5 5.28-.01-.11-.01-.21-.01-.31.02-5.37 3.2-5.93 3.86-11.02l.13.02s4-3 5 1z" fill="#008906"/><path d="m31.01 25c0 .1 0 .2.01.31-.01.22-.02.45-.02.69l-2.68-8.03-.32-.97c0 1.3-.07 2.63-.19 3.95-.46 5.18-1.7 10.1-2.54 11.65a5.5 5.5 0 0 0 -1.27-3.6 15.806 15.806 0 0 1 -2.96-.78c-1.91-.72-4.04-2.01-4.04-4.22 0-3 0-5 2-6s-4-4-4-9a8.806 8.806 0 0 1 .92-4 7.052 7.052 0 0 1 6.08-4h2.38a3.663 3.663 0 0 1 1.35.24c1.2.44 3.54 1.57 4.27 3.76 1 3 5 0 5 7a13.244 13.244 0 0 1 -.13 1.98c-.66 5.09-3.84 5.65-3.86 11.02z" fill="#55e072"/><path d="m25.27 32.6a8.242 8.242 0 0 1 -.27 2.4c-1 4-6 9-1 12h-4c-2-1-5-7-1-11a7.248 7.248 0 0 0 .85-1.03 9.554 9.554 0 0 0 1.19-6.75 15.806 15.806 0 0 0 2.96.78 5.5 5.5 0 0 1 1.27 3.6z" fill="#aaefb8"/><path d="m31.02 25.31c.1 3.11 1.73 9.16 2.56 12.06a9.969 9.969 0 0 1 .42 3.63c0 4.31-2.07 6-4 6h-6c-5-3 0-8 1-12a8.242 8.242 0 0 0 .27-2.4c.84-1.55 2.08-6.47 2.54-11.65.12-1.32.19-2.65.19-3.95l.32.97 2.68 8.03c0-.24.01-.47.02-.69z" fill="#d4f7dc"/><path d="m21.04 28.22a9.554 9.554 0 0 1 -1.19 6.75c-.95-.36-1.85-3.97-1.85-3.97a5.145 5.145 0 0 1 -3-1c-3-2 0-6-3-6a3.663 3.663 0 0 1 -4-4c0-3 3-4 3-4-1-2-3-2-3-6 0-4.7 7.07-4.98 7.92-5a8.806 8.806 0 0 0 -.92 4c0 5 6 8 4 9s-2 3-2 6c0 2.21 2.13 3.5 4.04 4.22z" fill="#008906"/><path d="m40 15v3.1a1.984 1.984 0 0 1 -2.48 1.93c-2.57-.66-6.24-.58-6.5 5.28-.01-.11-.01-.21-.01-.31.02-5.37 3.2-5.93 3.86-11.02l.13.02s4-3 5 1z" fill="#008906"/><path d="m31.01 25c0 .1 0 .2.01.31-.01.22-.02.45-.02.69l-2.68-8.03-.32-.97c0 1.3-.07 2.63-.19 3.95-.46 5.18-1.7 10.1-2.54 11.65a5.5 5.5 0 0 0 -1.27-3.6 15.806 15.806 0 0 1 -2.96-.78c-1.91-.72-4.04-2.01-4.04-4.22 0-3 0-5 2-6s-4-4-4-9a8.806 8.806 0 0 1 .92-4 7.052 7.052 0 0 1 6.08-4h2.38a3.663 3.663 0 0 1 1.35.24c1.2.44 3.54 1.57 4.27 3.76 1 3 5 0 5 7a13.244 13.244 0 0 1 -.13 1.98c-.66 5.09-3.84 5.65-3.86 11.02z" fill="#55e072"/><path d="m35 14-.13-.02c-.491 3.786-2.375 5.068-3.317 7.686a9.718 9.718 0 0 0 -.543 3.334c0 .1 0 .2.01.31a8.426 8.426 0 0 1 .682-3.2 3.77 3.77 0 0 1 2.714-2.248c.947-1.629 2.088-3.06 2.454-5.883.045-.295.077-.607.1-.937a6.621 6.621 0 0 0 -1.97.958z" fill="#016601"/><path d="m21.04 28.22c-1.91-.72-4.04-2.01-4.04-4.22 0-3 0-5 2-6s-4-4-4-9a8.806 8.806 0 0 1 .92-4 16.2 16.2 0 0 0 -2.579.293 7.845 7.845 0 0 0 -.421.707 8.806 8.806 0 0 0 -.92 4c0 5 6 8 4 9s-2 3-2 6c0 2.21 2.13 3.5 4.04 4.22a15.806 15.806 0 0 0 2.96.78 2.716 2.716 0 0 1 .2.24 10.92 10.92 0 0 0 -.16-2.02z" fill="#070"/><path d="m25.27 32.6a8.242 8.242 0 0 1 -.27 2.4c-1 4-6 9-1 12h-4c-2-1-5-7-1-11a7.248 7.248 0 0 0 .85-1.03 9.554 9.554 0 0 0 1.19-6.75 15.806 15.806 0 0 0 2.96.78 5.5 5.5 0 0 1 1.27 3.6z" fill="#aaefb8"/><path d="m25.27 32.6a5.5 5.5 0 0 0 -1.27-3.6 15.273 15.273 0 0 1 -1.7-.376 11.125 11.125 0 0 1 .97 3.976 8.242 8.242 0 0 1 -.27 2.4c-1 4-6 9-1 12h2c-5-3 0-8 1-12a8.242 8.242 0 0 0 .27-2.4z" fill="#00ac0d"/><path d="m31.02 25.31c.1 3.11 1.73 9.16 2.56 12.06a9.969 9.969 0 0 1 .42 3.63c0 4.31-2.07 6-4 6h-6c-5-3 0-8 1-12a8.242 8.242 0 0 0 .27-2.4c.84-1.55 2.08-6.47 2.54-11.65.12-1.32.19-2.65.19-3.95l.32.97 2.68 8.03c0-.24.01-.47.02-.69z" fill="#d4f7dc"/><path d="m27 35a8.242 8.242 0 0 0 .27-2.4 6 6 0 0 0 -.914-3.134 16.025 16.025 0 0 1 -1.086 3.134 8.242 8.242 0 0 1 -.27 2.4c-1 4-6 9-1 12h2c-5-3 0-8 1-12z" fill="#aaefb8"/><path d="m22.3 28.624c-.39-.108-.815-.239-1.256-.4a10.954 10.954 0 0 1 .157 2.07 16.165 16.165 0 0 0 1.908.894 12.382 12.382 0 0 0 -.809-2.564z" fill="#00ce23"/><path d="m23.865 28.978h.014z" fill="#aaefb8"/><path d="m22.3 28.624a15.558 15.558 0 0 0 1.569.354c-.257-.043-.845-.152-1.569-.354z" fill="#7fe895"/><path d="m23.879 28.981.121.019z" fill="#7fe895"/><path d="m25.2 31.806a5.22 5.22 0 0 0 -1.2-2.806l-.121-.019h-.014a15.558 15.558 0 0 1 -1.569-.354 12.382 12.382 0 0 1 .809 2.56 12.674 12.674 0 0 0 2.095.619z" fill="#008906"/><path d="m21.187 29.6c.009.2.014.416.012.642a2.716 2.716 0 0 0 -.199-.242 15.868 15.868 0 0 1 -2.2-.523 16.735 16.735 0 0 1 -.5 2.584c.343 1.1.933 2.677 1.546 2.909a8.87 8.87 0 0 0 1.341-5.37z" fill="#070"/><path d="m21 30a2.716 2.716 0 0 1 .2.24c0-.226 0-.441-.012-.642v-.034c-.009-.194-.022-.375-.038-.54l-.006-.06c-.015-.147-.031-.284-.047-.4s-.039-.257-.055-.343a10.1 10.1 0 0 1 -2.064-1.036c-.03.811-.09 1.581-.177 2.293a15.868 15.868 0 0 0 2.199.522z" fill="#016601"/><path d="m36.969 13.043c-.022.33-.054.642-.1.937a10.741 10.741 0 0 1 -.542 2.266 9.413 9.413 0 0 1 3.673 1.265v-2.511c-.524-2.094-1.868-2.265-3.031-1.957z" fill="#00ac0d"/><path d="m17.916 2.531a7.59 7.59 0 0 0 -1.996 2.469 8.806 8.806 0 0 0 -.92 4c0 4.209 4.234 6.994 4.387 8.369 3.287-.506 6.8.352 8.525 2.134.036-.59.058-1.175.069-1.76-1.668-7.389-5.281-13.438-10.065-15.212z" fill="#00ce23"/><path d="m30 5c-.73-2.19-3.07-3.32-4.27-3.76a3.663 3.663 0 0 0 -1.35-.24h-2.38a6.587 6.587 0 0 0 -4.084 1.531c4.783 1.774 8.4 7.823 10.065 15.212 0-.247.019-.5.019-.743l.035.107c.172-5.108 1.026-9.4 2.21-11.574a2.557 2.557 0 0 1 -.245-.533z" fill="#55e072"/><path d="m19.387 17.369a.587.587 0 0 1 -.387.631c-2 1-2 3-2 6 0 2.21 2.13 3.5 4.04 4.22a15.806 15.806 0 0 0 2.96.78 5.5 5.5 0 0 1 1.27 3.6c.84-1.55 2.08-6.47 2.54-11.65.044-.482.073-.964.1-1.447-1.724-1.782-5.236-2.64-8.523-2.134z" fill="#00ac0d"/><path d="m35 12c0-6.522-3.472-4.365-4.755-6.467-1.184 2.173-2.038 6.467-2.21 11.574l.285.863 2.68 8.03c0-.24.01-.47.02-.69-.01-.11-.01-.21-.01-.31.02-5.37 3.2-5.93 3.86-11.02a13.244 13.244 0 0 0 .13-1.98z" fill="#00ce23"/><g fill="#7fe895"><path d="m28 17c0 .515-.019 1.036-.04 1.558.024-.522.04-1.043.04-1.558z"/><path d="m32 10a1 1 0 0 0 -2 0c0 3.612-.584 5.505-1.155 6.373l-3.9-11.689a1 1 0 1 0 -1.9.632l2.474 7.422c-1.944-.568-4.519-2.016-4.519-3.738a1 1 0 0 0 -2 0c0 3.395 4.589 5.571 7.259 5.938l.867 2.6.454 1.362.309.928q.043-.638.071-1.271c.021-.522.04-1.043.04-1.558l.32.97 2.68 8.031c0-.24.01-.47.02-.69-.01-.11-.01-.21-.01-.31a11.081 11.081 0 0 1 .135-1.727l-1.593-4.779c1.586-1.118 2.448-4.057 2.448-8.494z"/><path d="m22.9 15.554a1 1 0 1 0 -1.79.892 11.029 11.029 0 0 0 6.46 5.474l.145.038c.036-.334.07-.671.1-1.008s.049-.691.073-1.036a9.046 9.046 0 0 1 -4.988-4.36z"/><path d="m27.283 25.057v.001z"/><path d="m21.9 21.553a1 1 0 0 0 -1.79.894 8.071 8.071 0 0 0 6.816 4.553c.126-.62.246-1.268.357-1.94a.982.982 0 0 0 -.283-.06 6.1 6.1 0 0 1 -5.1-3.447z"/></g><path d="m26.058 30.521.025-.083z" fill="#d4f7dc"/><path d="m25.5 32.113c.017-.039.033-.077.049-.117-.018.04-.035.079-.049.117z" fill="#d4f7dc"/><path d="m27.094 31.287a25.33 25.33 0 0 0 1.906-9.287l2.8 8.387a31.277 31.277 0 0 1 -.776-5.077c-.01.22-.02.45-.02.69l-2.68-8.03-.324-.97c0 1.3-.07 2.63-.19 3.95a53.4 53.4 0 0 1 -1.455 8.517 5.731 5.731 0 0 1 .739 1.82z" fill="#aaefb8"/><path d="m25.793 31.345v-.007z" fill="#d4f7dc"/><path d="m26.083 30.438q.137-.456.272-.971-.135.516-.272.971z" fill="#aaefb8"/><path d="m25.547 32c.081-.2.162-.41.246-.651-.084.237-.165.451-.246.651z" fill="#aaefb8"/><path d="m25.27 32.6c.073-.135.15-.3.228-.487-.078.187-.155.352-.228.487z" fill="#aaefb8"/><path d="m25.8 31.338c.087-.249.174-.525.263-.817-.093.292-.181.568-.263.817z" fill="#aaefb8"/><path d="m27.094 31.287a5.731 5.731 0 0 0 -.738-1.821q-.135.516-.272.971l-.025.083c-.089.292-.176.568-.263.817v.007c-.084.241-.165.455-.246.651-.016.04-.032.078-.049.117-.078.183-.155.352-.228.487a7.843 7.843 0 0 1 -.088 1.476 9.608 9.608 0 0 0 1.909-2.788z" fill="#7fe895"/><path d="m36.328 16.246a20.472 20.472 0 0 1 -1.912 3.617 6.924 6.924 0 0 1 3.1.167 1.984 1.984 0 0 0 2.484-1.93v-.589a9.413 9.413 0 0 0 -3.672-1.265z" fill="#00ac0d"/><path d="m34.684 15.019q-.063.287-.138.553c-.018.064-.035.129-.054.191-.068.23-.142.452-.221.662l-.006.015c-.079.209-.164.408-.252.6-.02.046-.041.09-.062.135q-.117.249-.24.485c-.014.025-.027.052-.04.077-.468.878-.99 1.637-1.448 2.471-.024.044-.049.088-.073.133-.054.1-.107.206-.16.311-.035.071-.069.143-.1.216-.047.1-.094.2-.138.3q-.1.24-.2.5c-.077.215-.147.441-.21.675l-.011.036c-.058.216-.106.447-.149.684-.007.035-.016.066-.022.1-.022.129-.034.272-.052.408-.021.165-.045.327-.06.5-.023.293-.038.6-.039.927 0 .1 0 .2.01.31.015-.349.044-.675.083-.982.027-.216.066-.411.1-.608.015-.078.026-.163.042-.237.054-.248.119-.476.189-.694l.011-.037a5.375 5.375 0 0 1 .492-1.091l.032-.053a4.211 4.211 0 0 1 .266-.389 3.654 3.654 0 0 1 .906-.831c.052-.034.1-.068.155-.1.077-.043.154-.084.233-.122s.153-.069.231-.1.13-.053.2-.076c.117-.04.237-.072.357-.1.033-.008.065-.02.1-.027a20.472 20.472 0 0 0 1.912-3.617c.106-.3.2-.618.287-.954.012-.048.026-.093.038-.143a11.106 11.106 0 0 0 .217-1.169c.045-.295.077-.607.1-.937a6.623 6.623 0 0 0 -1.97.959l-.13-.02c-.037.288-.085.557-.138.818-.015.075-.032.147-.048.221z" fill="#008906"/><path d="m29 22a26.033 26.033 0 0 1 -1.7 8.806 25.143 25.143 0 0 0 5.705 4.508c-.4-1.477-.844-3.227-1.214-4.93z" fill="#ecfcef"/><path d="m36.87 13.98a11.522 11.522 0 0 1 -.217 1.169c-.012.049-.025.1-.038.143q-.128.507-.287.954a9.413 9.413 0 0 1 3.672 1.265v-2.511a4.453 4.453 0 0 0 -.228-.684c-.029-.067-.065-.117-.1-.178a3.008 3.008 0 0 0 -.2-.349 1.927 1.927 0 0 0 -.129-.151 2.066 2.066 0 0 0 -.215-.237 1.688 1.688 0 0 0 -.142-.1 1.788 1.788 0 0 0 -.245-.162c-.045-.023-.093-.036-.139-.055a1.934 1.934 0 0 0 -.283-.1c-.039-.009-.079-.013-.119-.02a2.36 2.36 0 0 0 -.325-.037c-.029 0-.059 0-.088 0a2.873 2.873 0 0 0 -.37.024l-.046.007a3.838 3.838 0 0 0 -.411.084c-.013.331-.045.643-.09.938z" fill="#00ce23"/><path d="m19.832 17.324a12.534 12.534 0 0 1 1.74-.085c-.159-.258-.324-.507-.467-.793a1 1 0 1 1 1.79-.892 8.338 8.338 0 0 0 1.468 2.063 7.815 7.815 0 0 1 3.365 1.728l-.148-.445-.454-1.361-.867-2.6c-2.67-.368-7.259-2.539-7.259-5.939a1 1 0 0 1 2 0c0 1.722 2.575 3.17 4.526 3.738l-1.721-5.161a12.837 12.837 0 0 0 -5.889-5.046c-.122.1-.237.211-.355.319a57.683 57.683 0 0 0 2.271 14.474z" fill="#55e072"/><path d="m23.805 7.577-.753-2.261a1 1 0 1 1 1.9-.632l3.248 9.755c.333-3.909 1.075-7.125 2.045-8.906a2.557 2.557 0 0 1 -.245-.533c-.73-2.19-3.07-3.32-4.27-3.76a3.663 3.663 0 0 0 -1.35-.24h-2.38a5.743 5.743 0 0 0 -.981.093c-.089.015-.178.041-.267.06a6.578 6.578 0 0 0 -.737.206c-.087.031-.173.065-.26.1a6.928 6.928 0 0 0 -.762.359c-.061.033-.122.065-.182.1a7.23 7.23 0 0 0 -.894.613 12.837 12.837 0 0 1 5.888 5.046z" fill="#7fe895"/><path d="m23.715 26.13a29.073 29.073 0 0 0 2.58 3.552c.02-.074.04-.139.06-.215.07-.265.14-.544.209-.83l.036-.137c.06-.252.119-.513.178-.779.011-.053.023-.106.035-.159.039-.184.078-.376.116-.567a8.088 8.088 0 0 1 -3.214-.865z" fill="#00ce23"/><path d="m27.883 19.914c.009-.137.021-.274.029-.411-.007.11-.011.22-.019.33l-.161-.484a7.815 7.815 0 0 0 -3.365-1.728 9.491 9.491 0 0 0 3.516 2.293z" fill="#00ce23"/><path d="m21.9 21.553a6.1 6.1 0 0 0 5.1 3.447.949.949 0 0 1 .282.057c.028-.168.056-.334.083-.5.016-.1.031-.207.047-.31q.056-.367.107-.741c.017-.123.033-.246.05-.37.032-.247.062-.5.091-.747.014-.114.028-.228.04-.342l.009-.085-.144-.038a11.178 11.178 0 0 1 -5.993-4.681 12.534 12.534 0 0 0 -1.74.085q.581 1.915 1.314 3.7a.984.984 0 0 1 .754.525z" fill="#00ce23"/><path d="m28.2 14.439.645 1.934c.571-.868 1.155-2.761 1.155-6.373a1 1 0 0 1 2 0c0 4.437-.862 7.376-2.448 8.494l1.593 4.779v.006c.006-.039.011-.079.017-.117s.015-.066.022-.1c.043-.237.091-.467.149-.684l.011-.036q.095-.352.21-.675.093-.255.2-.5c.044-.1.091-.2.138-.3.034-.073.068-.145.1-.216.053-.105.106-.209.16-.311.024-.045.049-.089.073-.133.459-.834.98-1.593 1.448-2.471.013-.025.026-.052.04-.077q.123-.236.24-.485c.021-.045.042-.089.062-.135.088-.193.173-.392.252-.6l.006-.015c.079-.21.153-.432.221-.662.019-.062.036-.127.054-.191q.075-.267.138-.553c.017-.074.033-.146.048-.221.053-.261.1-.53.138-.818a13.244 13.244 0 0 0 .128-1.979c0-.386-.014-.736-.037-1.064 0-.027 0-.057-.005-.084-.024-.308-.059-.586-.1-.846-.006-.036-.011-.074-.017-.108a6.758 6.758 0 0 0 -.155-.677c-.01-.035-.02-.07-.03-.1a4.62 4.62 0 0 0 -.2-.541c-.013-.029-.027-.058-.041-.086a3.393 3.393 0 0 0 -.241-.429c-.016-.023-.032-.044-.047-.067a2.969 2.969 0 0 0 -.278-.337l-.049-.049a2.81 2.81 0 0 0 -.31-.265l-.041-.027a3.241 3.241 0 0 0 -.3-.187c-.022-.012-.043-.025-.065-.036-.1-.051-.2-.1-.3-.14l-.123-.05c-.081-.032-.162-.061-.243-.09a3.5 3.5 0 0 1 -2.162-1.284c-.981 1.781-1.723 4.997-2.056 8.906z" fill="#55e072"/><path d="m27.908 19.5c-.054-.055-.123-.1-.18-.154l.161.484c.011-.111.011-.221.019-.33z" fill="#7fe895"/><path d="m32 10a1 1 0 0 0 -2 0c0 3.612-.584 5.505-1.155 6.373l-.645-1.934-3.252-9.755a1 1 0 1 0 -1.9.632l.753 2.261 1.721 5.161c-1.947-.568-4.522-2.016-4.522-3.738a1 1 0 0 0 -2 0c0 3.395 4.589 5.571 7.259 5.938l.867 2.6.454 1.362.148.444c.057.053.126.1.18.154l.015-.278c.027-.494.048-.985.058-1.475.007-.248.019-.5.019-.743l.035.107.285.863 2.68 8.028c0-.24.01-.47.02-.69-.01-.11-.01-.21-.01-.31 0-.321.014-.624.038-.912v-.056c.005-.052.014-.1.019-.148.02-.209.043-.412.074-.605v-.006l-1.593-4.779c1.59-1.118 2.452-4.057 2.452-8.494z" fill="#aaefb8"/><path d="m22.9 15.554a1 1 0 1 0 -1.79.892c.143.286.308.535.467.793a11.178 11.178 0 0 0 5.993 4.681l.144.038c.036-.335.071-.67.1-1.008s.051-.691.073-1.036a9.491 9.491 0 0 1 -3.52-2.3 8.338 8.338 0 0 1 -1.467-2.06z" fill="#aaefb8"/><path d="m21.9 21.553a.984.984 0 0 0 -.749-.524 34.709 34.709 0 0 0 2.569 5.1 8.088 8.088 0 0 0 3.204.871l.014-.065c.117-.578.228-1.181.332-1.8l.012-.072a.949.949 0 0 0 -.282-.063 6.1 6.1 0 0 1 -5.1-3.447z" fill="#aaefb8"/><path d="m28.32 17.97-.32-.97c0 .245-.014.5-.019.743-.021 1.062-.074 2.135-.171 3.2q-.049.549-.11 1.093c-.012.114-.026.227-.04.342-.029.25-.059.5-.091.747-.017.124-.033.247-.05.37q-.051.374-.107.741c-.016.1-.031.207-.047.31-.026.17-.054.337-.082.5-.023.14-.046.279-.07.417l-.015.092q-.093.528-.192 1.035l-.014.068c-.06.306-.122.6-.184.9-.012.053-.024.106-.035.159q-.088.4-.178.779c-.01.045-.021.09-.031.134-.069.286-.139.564-.209.829a4.269 4.269 0 0 1 .22.387c.049.091.094.192.143.3.009.021.019.038.028.06.181.2.37.4.557.594a26.033 26.033 0 0 0 1.697-8.8l2.8 8.387c-.2-.918-.374-1.818-.509-2.655l-.027-.17c-.059-.382-.109-.748-.148-1.1-.007-.057-.011-.111-.017-.167-.036-.35-.064-.686-.074-.987-.01.22-.02.45-.02.69z" fill="#d4f7dc"/><path d="m26.3 29.685c.148.174.293.351.445.521-.008-.017-.015-.037-.023-.054-.047-.108-.1-.207-.143-.3-.075-.142-.152-.282-.22-.387-.023.075-.042.149-.059.22z" fill="#7fe895"/><ellipse cx="32" cy="10" fill="#f6fafd" rx="1.65" ry="2.297" transform="matrix(.707 -.707 .707 .707 2.307 25.567)"/><ellipse cx="28" cy="7" fill="#f6fafd" rx=".825" ry="1.148" transform="matrix(.707 -.707 .707 .707 3.256 21.858)"/><ellipse cx="31" cy="40" fill="#f6fafd" rx=".825" ry="1.148" transform="matrix(.707 -.707 .707 .707 -19.207 33.653)"/><ellipse cx="27.746" cy="9.5" fill="#f6fafd" rx=".413" ry=".574" transform="matrix(.707 -.707 .707 .707 1.413 22.411)"/><ellipse cx="30.746" cy="42.5" fill="#f6fafd" rx=".413" ry=".574" transform="matrix(.707 -.707 .707 .707 -21.05 34.206)"/></g></svg>