<svg id="Capa_1" enable-background="new 0 0 512 512" viewBox="0 0 512 512" xmlns="http://www.w3.org/2000/svg"><g><g><path d="m435.793 94.68c-8.874 8.202-20.71 18.803-34.173 30.004-4.381 3.644-9.28 7.072-14.429 10.495-1.912 1.271-2.318 8.31-4.285 9.591-2.39 1.556-6.351-2.641-8.777-1.035-7.515 4.975-15.084 10.282-21.971 16.502-1.346 1.216-2.174 10.537-3.462 11.827-2.559 2.561-5.457-2.797-7.748.025-6.248 7.7-11.635 16.217-16.908 24.683-4.573 7.342-9.061 14.647-13.951 21.349-14.072 19.287-31.08 36.207-36.215 55.372-3.027 11.298-1.802 22.895-.373 34.185l20.384 74.817 62.987 53.59 87.885-20.116 52.653-81.484v-103.793l-30.844-95.059z" fill="#a2e62e"/></g><g><path d="m506.359 270.711c-2.277-21.251-.243-44.624-5.944-65.934-6.025-22.523-19.718-42.073-26.605-60.748-9.399-25.489-16.127-47.773-19.234-58.537-.888-3.077-4.724-4.105-7.031-1.884-2.868 2.76-6.86 6.552-11.752 11.072 3.552 12.081 10.005 32.935 18.686 56.477 3.236 8.777 7.615 17.392 11.85 25.724 5.497 10.817 11.182 22.002 14.183 33.22 3.04 11.365 3.463 24.176 3.911 37.739.271 8.195.551 16.669 1.45 25.066.708 6.612 1.664 13.029 2.589 19.233 2.243 15.052 4.362 29.269 1.674 39.302-2.162 8.069-8.167 15.955-14.524 24.304-3.165 4.157-6.439 8.455-9.451 13.047-3.021 4.605-5.688 9.228-8.267 13.7-5.328 9.237-10.361 17.962-16.356 22.404-7.05 5.223-17.697 7.212-28.97 9.317-3.789.708-7.708 1.44-11.624 2.32-3.489.784-6.926 1.664-10.249 2.516-8.462 2.168-16.455 4.216-23.393 4.216-2.51 0-4.728-.268-6.781-.817-8.266-2.215-16.119-9.897-24.432-18.03-2.452-2.399-4.988-4.88-7.618-7.303-2.951-2.72-5.979-5.313-8.906-7.82-8.71-7.46-16.937-14.505-20.43-22.554l-25.634-59.06c.716 5.654 1.483 11.232 1.792 16.655.994 17.431-1.568 35.613 4.942 50.609 6.902 15.9 22.103 26.104 34.273 37.321 12.331 11.365 23.934 25.597 40.681 30.085 16.747 4.487 33.912-2.037 50.273-5.713 16.148-3.629 34.414-4.865 48.342-15.184 13.136-9.732 20.008-26.759 29.585-41.358 8.928-13.611 22.105-26.362 26.648-43.319 5.134-19.169-1.135-42.327-3.678-66.066z" fill="#97d729"/></g><path d="m497.409 266.98v-16.468c-1.231-.001-2.48.292-3.642.914-28.328 15.14-58.275 27.329-89.142 36.292l9.025-33.68c27.326-7.473 53.664-18.339 78.311-32.309.779-.441 1.451-.998 2.009-1.636l-4.094-12.617c-1.816-.416-3.786-.181-5.535.809-20.892 11.842-43.056 21.347-66.021 28.323l9.005-33.607c17.626-4.993 34.485-12.327 50.155-21.823 1.268-.768 2.236-1.843 2.867-3.072l-3.384-10.431c-2.299-1.159-5.125-1.145-7.49.288-11.814 7.159-24.361 12.988-37.42 17.398l18.894-70.515-10.537-14.024c-1.335 1.001-2.357 2.44-2.822 4.177l-20.46 76.358c-12.134-13.819-22.27-29.461-29.935-46.179-4.235 2.815-8.639 5.628-13.061 8.556 9.61 20.338 22.611 39.15 38.267 55.271l-9.006 33.611c-20.348-21.726-37.522-45.99-51.233-72.38-1.346 1.216-2.666 2.466-3.955 3.756-2.559 2.561-4.964 5.275-7.254 8.097 15.434 28.604 34.804 54.751 57.772 77.953l-9.025 33.68c-25.249-26.317-47.276-55.489-65.657-86.951-3.082 4.948-6.125 9.879-9.279 14.62 19.752 32.555 43.331 62.648 70.288 89.676l-9.035 33.72c-28.799-29.633-54.573-62.292-76.687-97.187-.647-1.021-1.493-1.838-2.456-2.434-3.308 4.172-6.535 8.295-9.504 12.421 24.007 37.605 52.162 72.653 83.712 104.204l.299.298-9.041 33.742c-30.585-31.204-58.517-65.295-83.093-101.43-1.576-2.317-4.19-3.507-6.798-3.371-.835 7.088-.374 14.239.413 21.309 24.958 35.533 53.098 69.026 83.767 99.687l1.082 1.08-7.351 27.435-3.227 12.043c-5.123 19.12-17.386 35.099-34.531 44.994l-2.992 1.727c-3.696 2.133-4.962 6.859-2.829 10.554 1.431 2.479 4.028 3.865 6.699 3.865 1.311 0 2.639-.334 3.856-1.036l2.992-1.727c20.72-11.958 35.542-31.27 41.733-54.378l3.336-12.45 7.243-27.032 1.474-.393c33.491-8.969 66.491-20.315 98.506-33.856l15.274-23.637c-35.69 16.444-72.815 30.073-110.625 40.611l9.041-33.742.404-.108c38.064-10.199 75.268-24.113 110.699-41.391v-17.233c-.121.053-.242.11-.361.17-33.914 17.045-69.571 30.906-106.105 41.258l9.035-33.719c33.739-9.087 66.493-21.891 97.429-38.081z" fill="#97d729"/><g><path d="m237.655 24.131-36.005 36.005c-8.482 8.482-13.248 19.987-13.248 31.982v55.242h-31.997v-54.881c0-20.716 8.229-40.583 22.878-55.231l35.739-35.739c2.019-2.009 5.274-2.009 7.283 0l15.35 15.339c2.009 2.008 2.009 5.274 0 7.283z" fill="#97d729"/></g><g><path d="m274.41 125.725c-16.572 6.174-40.397 16.805-58.608 32.092-2.854 2.396-7.211 1.08-8.38-2.459-8.376-25.373-23.331-48.606-30.688-59.162-2.1-3.013-6.561-3.013-8.661 0-7.357 10.556-22.312 33.789-30.688 59.162-1.168 3.539-5.525 4.855-8.38 2.459-23.689-19.886-56.878-31.894-71.245-36.459-3.505-1.114-7.053 1.593-6.885 5.267.411 8.963 1.643 25.066 5.336 42.548l74.343 29.696 105.365-2.903 46.558-28.154z" fill="#a2e62e"/></g><g><path d="m287.047 121.358c-3.322 1.056-7.652 2.51-12.637 4.367l-3.253 23.453c-.502 3.618-1.111 7.443-1.851 11.376-.467 2.481-2.673 4.224-5.197 4.191-15.505-.207-30.605 4.374-43.381 13.159-1.773 1.219-4.098 1.209-5.872-.01-12.501-8.588-27.308-13.155-42.451-13.155-15.732 0-30.349 4.866-42.425 13.172-1.769 1.217-4.09 1.201-5.86-.015-12.632-8.68-27.474-13.157-42.454-13.157-8.927 0-17.493 1.568-25.453 4.434 3.9 18.463 10.545 38.465 21.865 53.218 25.833 33.666 59.859 51.566 78.858 42.408 4.774 3.887 9.996 6.029 15.468 6.029s10.694-2.142 15.468-6.029c19 9.158 53.026-8.742 78.858-42.408 22.039-28.721 26.356-77.337 27.201-95.766.169-3.674-3.379-6.381-6.884-5.267z" fill="#97d729"/></g><g><path d="m263.142 439.408c0-9.742-14.089-21.343-18.571-29.254-7.911-4.482-17.056-7.041-26.798-7.041-30.068 0-54.443 24.375-54.443 54.443 0 9.742 2.559 18.887 7.041 26.798 7.911 4.482 26.234 20.753 35.976 20.753 30.069 0 56.795-35.631 56.795-65.699z" fill="#fe646f"/></g><g><path d="m244.571 410.154c4.482 7.911 7.041 17.056 7.041 26.798 0 30.068-24.375 54.443-54.443 54.443-9.742 0-18.887-2.559-26.798-7.041 9.352 16.506 27.076 27.645 47.402 27.645 30.068 0 54.443-24.375 54.443-54.443 0-20.326-11.139-38.05-27.645-47.402z" fill="#fd4755"/></g><g><path d="m170.372 440.093c0-9.742-12.056-22.027-16.538-29.938-7.911-4.482-17.056-7.041-26.798-7.041-30.068 0-54.443 24.375-54.443 54.443 0 9.742 2.559 18.887 7.041 26.798 7.911 4.482 26.13 19.284 35.872 19.284 30.068-.001 54.866-33.478 54.866-63.546z" fill="#fe646f"/></g><g><path d="m153.834 410.154c4.482 7.911 7.041 17.056 7.041 26.798 0 30.068-24.375 54.443-54.443 54.443-9.742 0-18.887-2.559-26.798-7.041 9.352 16.506 27.076 27.645 47.402 27.645 30.068 0 54.443-24.375 54.443-54.443-.001-20.326-11.139-38.05-27.645-47.402z" fill="#fd4755"/></g><g><path d="m308.672 369.735c0-9.742-14.25-24.26-18.732-32.171-7.911-4.482-17.056-7.041-26.798-7.041-30.068 0-54.443 24.375-54.443 54.443 0 9.742 2.559 18.887 7.041 26.798 7.911 4.482 25.418 16.722 35.16 16.722 30.069 0 57.772-28.683 57.772-58.751z" fill="#fe646f"/></g><g><path d="m289.94 337.564c4.482 7.911 7.041 17.056 7.041 26.798 0 30.068-24.375 54.443-54.443 54.443-9.742 0-18.887-2.559-26.798-7.041 9.352 16.506 27.076 27.645 47.402 27.645 30.068 0 54.443-24.375 54.443-54.443 0-20.326-11.139-38.05-27.645-47.402z" fill="#fd4755"/></g><g><path d="m115.506 364.362c0-9.742-2.559-18.887-7.041-26.798-7.911-4.482-17.056-7.041-26.798-7.041-30.068 0-54.443 24.375-54.443 54.443 0 9.742 2.559 18.887 7.041 26.798 7.911 4.482 31.131 18.925 40.873 18.925 30.068 0 40.368-36.259 40.368-66.327z" fill="#fe646f"/></g><g><path d="m136.107 384.964c0 18.09-8.829 34.13-22.406 44.019-8.983 6.552-20.057 10.425-32.038 10.425-20.325 0-38.044-11.136-47.398-27.65 7.912 4.492 17.06 7.046 26.795 7.046 13.941 0 26.651-5.238 36.279-13.848 1.347-1.205 1.945-3.048 1.58-4.819-1.026-4.975-1.555-10.06-1.555-15.174 0-15.896 4.965-30.658 13.433-42.804-.711-1.566-1.483-3.101-2.328-4.595 1.329.752 2.637 1.566 3.894 2.431 14.338 9.809 23.744 26.281 23.744 44.969z" fill="#fd4755"/></g><g><path d="m217.773 366.818c0-9.742-14.089-21.343-18.571-29.254-7.911-4.482-17.056-7.041-26.798-7.041-30.068 0-54.443 24.375-54.443 54.443 0 9.742 2.559 18.887 7.041 26.798 7.911 4.482 24.329 19.638 34.071 19.638 30.069 0 58.7-34.516 58.7-64.584z" fill="#fe646f"/></g><g><path d="m199.202 337.564c4.482 7.911 7.041 17.056 7.041 26.798 0 30.068-24.375 54.443-54.443 54.443-9.742 0-18.887-2.559-26.798-7.041 9.352 16.506 27.076 27.645 47.402 27.645 30.068 0 54.443-24.375 54.443-54.443 0-20.326-11.138-38.05-27.645-47.402z" fill="#fd4755"/></g><g><path d="m62.164 312.378c0 10.055 5.605 28.762 9.2 37.529-7.17 3.472-28.592 8.27-37.101 8.27-9.745 0-19.305-14.512-27.217-19.004-4.891-8.616-7.486-18.698-6.985-29.409 1.302-27.851 23.906-50.456 51.757-51.769 7.239-.341 14.19.737 20.593 2.977-12.65 13.433-10.247 31.523-10.247 51.406z" fill="#fe646f"/></g><g><path d="m108.89 312.378c0 23.776-15.236 43.988-36.479 51.406-5.625 1.968-11.672 3.039-17.966 3.039-20.325 0-38.055-11.136-47.398-27.65 7.912 4.492 17.049 7.046 26.795 7.046 6.658 0 13.038-1.198 18.933-3.382 2.614-.968 4.032-3.856 3.14-6.497-2.541-7.526-3.922-15.583-3.922-23.962 0-19.882 7.768-37.972 20.418-51.406 3.08 1.071 6.037 2.421 8.829 4.007 16.513 9.344 27.65 27.073 27.65 47.399z" fill="#fd4755"/></g><g><path d="m334.254 294.228c0-9.742-12.61-21.343-17.093-29.254-7.911-4.482-17.056-7.041-26.798-7.041-30.068 0-54.443 24.375-54.443 54.443 0 9.742 2.559 18.887 7.041 26.798 7.911 4.482 19.512 19.003 29.254 19.003 30.069 0 62.039-33.881 62.039-63.949z" fill="#fe646f"/></g><g><path d="m317.162 264.974c4.482 7.911 7.041 17.056 7.041 26.798 0 30.068-24.375 54.443-54.443 54.443-9.742 0-18.887-2.559-26.798-7.041 9.352 16.506 27.076 27.645 47.402 27.645 30.068 0 54.443-24.375 54.443-54.443-.001-20.326-11.139-38.05-27.645-47.402z" fill="#fd4755"/></g><g><path d="m263.142 294.228c0-9.742-14.089-21.343-18.571-29.254-7.911-4.482-17.056-7.041-26.798-7.041-30.068 0-54.443 24.375-54.443 54.443 0 9.742 2.559 18.887 7.041 26.798 7.911 4.482 21.216 16.904 30.958 16.904 30.069 0 61.813-31.782 61.813-61.85z" fill="#fe646f"/></g><g><path d="m244.571 264.974c4.482 7.911 7.041 17.056 7.041 26.798 0 30.068-24.375 54.443-54.443 54.443-9.742 0-18.887-2.559-26.798-7.041 9.352 16.506 27.076 27.645 47.402 27.645 30.068 0 54.443-24.375 54.443-54.443 0-20.326-11.139-38.05-27.645-47.402z" fill="#fd4755"/></g><g><path d="m172.404 294.228c0-9.742-14.089-21.343-18.571-29.254-7.911-4.482-17.056-7.041-26.798-7.041-30.068 0-54.443 24.375-54.443 54.443 0 9.742 2.559 18.887 7.041 26.798 7.911 4.482 25.056 19.003 34.798 19.003 30.069 0 57.973-33.881 57.973-63.949z" fill="#fe646f"/></g><g><path d="m153.834 264.974c4.482 7.911 7.041 17.056 7.041 26.798 0 30.068-24.375 54.443-54.443 54.443-9.742 0-18.887-2.559-26.798-7.041 9.352 16.506 27.076 27.645 47.402 27.645 30.068 0 54.443-24.375 54.443-54.443-.001-20.326-11.139-38.05-27.645-47.402z" fill="#fd4755"/></g><g><path d="m122.391 218.249c0-9.742-9.444-17.954-13.926-25.865-7.911-4.482-17.056-7.041-26.798-7.041-30.068 0-54.443 24.375-54.443 54.443 0 9.742 2.559 18.887 7.041 26.798 7.911 4.482 27.358 18.331 37.1 18.331 30.068-.001 51.026-36.598 51.026-66.666z" fill="#fe646f"/></g><g><path d="m108.465 192.384c4.482 7.911 7.041 17.056 7.041 26.798 0 30.068-24.375 54.443-54.443 54.443-9.742 0-18.887-2.559-26.798-7.041 9.352 16.506 27.076 27.645 47.401 27.645 30.068 0 54.443-24.375 54.443-54.443 0-20.326-11.138-38.051-27.644-47.402z" fill="#fd4755"/></g><g><path d="m305.562 224.136c0-9.742-11.14-23.841-15.622-31.752-7.911-4.482-17.056-7.041-26.798-7.041-30.068 0-54.443 24.375-54.443 54.443 0 9.742 2.559 18.887 7.041 26.798 7.911 4.482 25.49 16.862 35.232 16.862 30.069-.001 54.59-29.242 54.59-59.31z" fill="#fe646f"/></g><g><path d="m289.94 192.384c4.482 7.911 7.041 17.056 7.041 26.798 0 30.068-24.375 54.443-54.443 54.443-9.742 0-18.887-2.559-26.798-7.041 9.352 16.506 27.076 27.645 47.401 27.645 30.068 0 54.443-24.375 54.443-54.443.001-20.326-11.138-38.051-27.644-47.402z" fill="#fd4755"/></g><g><path d="m215.741 221.39c0-9.742-12.056-21.095-16.538-29.006-7.911-4.482-17.056-7.041-26.798-7.041-30.068 0-54.443 24.375-54.443 54.443 0 9.742 2.559 18.887 7.041 26.798 7.911 4.482 28.586 16.862 38.328 16.862 30.067-.001 52.41-31.988 52.41-62.056z" fill="#fe646f"/></g><g><path d="m199.202 192.384c4.482 7.911 7.041 17.056 7.041 26.798 0 30.068-24.375 54.443-54.443 54.443-9.742 0-18.887-2.559-26.798-7.041 9.352 16.506 27.076 27.645 47.401 27.645 30.068 0 54.443-24.375 54.443-54.443.001-20.326-11.137-38.05-27.644-47.402z" fill="#fd4755"/></g></g><g/><g/><g/><g/><g/><g/><g/><g/><g/><g/><g/><g/><g/><g/><g/></svg>