<?xml version="1.0" encoding="iso-8859-1"?>
<!-- Generator: Adobe Illustrator 19.0.0, SVG Export Plug-In . SVG Version: 6.00 Build 0)  -->
<svg version="1.1" id="Capa_1" xmlns="http://www.w3.org/2000/svg" xmlns:xlink="http://www.w3.org/1999/xlink" x="0px" y="0px"
	 viewBox="0 0 512 512" style="enable-background:new 0 0 512 512;" xml:space="preserve">
<rect x="160.26" y="115.88" style="fill:#B3CCE2;" width="67.842" height="69.12"/>
<rect x="160.26" y="115.88" style="opacity:0.1;fill:#210035;enable-background:new    ;" width="32.09" height="69.12"/>
<rect x="167.84" y="63.08" style="fill:#B3CCE2;" width="52.674" height="43.533"/>
<path style="fill:#E2EEFD;" d="M250.69,120.215c0,2.792-2.285,5.075-5.077,5.075H142.748c-2.792,0-5.077-2.284-5.077-5.075V106.18
	c0-2.791,2.285-5.076,5.077-5.076h102.866c2.792,0,5.077,2.284,5.077,5.076L250.69,120.215L250.69,120.215z"/>
<path style="opacity:0.1;fill:#210035;enable-background:new    ;" d="M169.695,120.215V106.18c0-2.791,2.285-5.076,5.077-5.076
	h-32.024c-2.792,0-5.077,2.284-5.077,5.076v14.035c0,2.792,2.285,5.075,5.077,5.075h32.024
	C171.98,125.29,169.695,123.006,169.695,120.215z"/>
<path style="fill:#C1262C;" d="M265.446,66.863c0,2.792-2.284,5.075-5.077,5.075H127.992c-2.792,0-5.077-2.284-5.077-5.075V5.075
	c0-2.792,2.285-5.075,5.077-5.075h132.377c2.793,0,5.077,2.284,5.077,5.075L265.446,66.863L265.446,66.863z"/>
<path style="opacity:0.1;fill:#210035;enable-background:new    ;" d="M154.398,66.863V5.075c0-2.792,2.285-5.075,5.077-5.075
	h-31.483c-2.792,0-5.077,2.284-5.077,5.075v61.788c0,2.792,2.285,5.075,5.077,5.075h31.483
	C156.683,71.938,154.398,69.655,154.398,66.863z"/>
<path style="fill:#E2EEFD;" d="M370.197,255.327l-140.278-82.833h-69.032L18.106,255.401c-5.628,3.268-9.004,11.103-7.503,17.41
	l54.177,227.72C66.28,506.839,72.839,512,79.355,512H312.03c6.517,0,13.014-5.175,14.44-11.5l51.321-227.658
	C379.218,266.518,375.799,258.636,370.197,255.327z"/>
<path style="fill:#FF9300;" d="M370.197,255.327l-30.505-18.013H49.257l-31.151,18.087c-5.628,3.268-9.004,11.103-7.503,17.41
	l54.177,227.72C66.28,506.839,72.839,512,79.355,512H312.03c6.517,0,13.014-5.175,14.44-11.5l51.321-227.658
	C379.218,266.518,375.799,258.636,370.197,255.327z"/>
<path style="fill:#F07C3C;" d="M61.322,486l3.457,14.532C66.28,506.839,72.839,512,79.355,512H312.03
	c6.517,0,13.014-5.175,14.44-11.5l3.272-14.512L61.322,486z"/>
<path style="opacity:0.1;fill:#210035;enable-background:new    ;" d="M106.769,511.19L52.592,283.47
	c-1.501-6.308,1.875-14.142,7.503-17.41l155.883-93.565h-55.091L18.106,255.401c-5.628,3.268-9.004,11.103-7.503,17.41
	l54.177,227.72C66.28,506.839,72.839,512,79.355,512h27.649C106.921,511.731,106.834,511.464,106.769,511.19z"/>
<path style="fill:#C1262C;" d="M282.135,406.755c0,2.791-2.284,5.075-5.077,5.075H111.302c-2.792,0-5.077-2.284-5.077-5.075v-100.56
	c0-2.792,2.285-5.075,5.077-5.075h165.756c2.793,0,5.077,2.284,5.077,5.075L282.135,406.755L282.135,406.755z"/>
<g>
	<path style="fill:#FFFFFF;" d="M239.87,341.352h-91.379c-4.142,0-7.5-3.358-7.5-7.5s3.358-7.5,7.5-7.5h91.379
		c4.142,0,7.5,3.358,7.5,7.5S244.012,341.352,239.87,341.352z"/>
	<ellipse style="fill:#FFFFFF;" cx="194.18" cy="409.45" rx="48.2" ry="48.19"/>
</g>
<g>
	<path style="fill:#F07C3C;" d="M212.227,406.812h-36.094c-4.142,0-7.5-3.358-7.5-7.5s3.358-7.5,7.5-7.5h36.094
		c4.142,0,7.5,3.358,7.5,7.5C219.727,403.454,216.369,406.812,212.227,406.812z"/>
	<path style="fill:#F07C3C;" d="M205.274,430.827h-22.186c-4.142,0-7.5-3.358-7.5-7.5s3.358-7.5,7.5-7.5h22.186
		c4.142,0,7.5,3.358,7.5,7.5S209.416,430.827,205.274,430.827z"/>
</g>
<path style="fill:#B3CCE2;" d="M403.19,439.159c-3.526,0-6.979-0.167-10.369-0.46v47.451h20.741v-47.451
	C410.172,438.993,406.717,439.159,403.19,439.159z"/>
<path style="fill:#D16605;" d="M312.343,367.354c5.325,42.949,41.834,71.805,90.847,71.805c49.015,0,85.523-28.855,90.85-71.804
	c0.36-2.922,0.297-9.703-0.305-15.315H312.648C312.044,357.653,311.982,364.433,312.343,367.354z"/>
<path style="opacity:0.1;fill:#210035;enable-background:new    ;" d="M343.856,367.354c-0.361-2.922-0.299-9.702,0.305-15.314
	h-31.513c-0.604,5.613-0.666,12.393-0.305,15.314c5.325,42.949,41.834,71.805,90.847,71.805c5.417,0,10.67-0.372,15.757-1.057
	C378.012,432.589,348.593,405.558,343.856,367.354z"/>
<g>
	<path style="fill:#E2EEFD;" d="M403.19,446.659c-52.978,0-92.477-31.499-98.29-78.382c-0.563-4.534-0.406-18.846,1.949-25.522
		l24.12-70.64c1.829-5.361,6.874-8.964,12.553-8.964h119.339c5.679,0,10.724,3.603,12.553,8.965l24.119,70.641
		c2.353,6.672,2.512,20.983,1.95,25.52C495.669,415.16,456.168,446.659,403.19,446.659z M344.758,278.151l-23.728,69.493
		c-0.011,0.032-0.022,0.064-0.033,0.097c-1.179,3.303-1.676,14.939-1.21,18.691c4.837,39.015,38.354,65.228,83.403,65.228
		c45.05,0,78.568-26.212,83.406-65.227c0.465-3.754-0.033-15.392-1.211-18.689c-0.012-0.033-0.022-0.066-0.034-0.099l-23.727-69.493
		L344.758,278.151L344.758,278.151z"/>
	<polygon style="fill:#E2EEFD;" points="367.882,504.5 403.19,475.835 438.501,504.5 	"/>
</g>
<path style="fill:#B3CCE2;" d="M459.078,512H347.304c-4.143,0-7.5-3.358-7.5-7.5s3.357-7.5,7.5-7.5h111.773
	c4.143,0,7.5,3.358,7.5,7.5S463.22,512,459.078,512z"/>
<g>
</g>
<g>
</g>
<g>
</g>
<g>
</g>
<g>
</g>
<g>
</g>
<g>
</g>
<g>
</g>
<g>
</g>
<g>
</g>
<g>
</g>
<g>
</g>
<g>
</g>
<g>
</g>
<g>
</g>
</svg>
