<svg id="Layer_1" enable-background="new 0 0 497 497" height="512" viewBox="0 0 497 497" width="512" xmlns="http://www.w3.org/2000/svg"><g><g><path d="m34.57 207.603v143.273c0 41.975 34.159 76.124 76.147 76.124h138.547v-168.501l41.65-50.897-24.209-20h-207.992z" fill="#fc8a3d"/><path d="m180.034 70c-45.058 0-89.778 6.145-132.918 18.263-34.266 9.627-54.322 45.349-44.71 79.629 4.895 17.463 16.82 31.613 32.164 39.71h256.344v-106.872l26.122-30.73z" fill="#ffb357"/><path d="m184.118 88.263c43.14-12.118 87.86-18.263 132.919-18.263 44.984 0 89.675 6.145 132.831 18.263 34.279 9.625 54.341 45.348 44.725 79.628-4.895 17.46-16.824 31.608-32.18 39.703v143.282c0 41.974-34.159 76.124-76.147 76.124h-138.547c-41.987 0-76.147-34.149-76.147-76.124v-143.274c-15.344-8.097-27.269-22.248-32.164-39.71-9.612-34.28 10.444-70.001 44.71-79.629z" fill="#ffce71"/></g><g><path d="m441.756 117.137c-35.989-10.106-72.558-15.619-108.852-16.862l-45.867 45.867v204.706l46.16 46.16h53.069c25.486 0 46.146-20.653 46.146-46.132v-165.829c15.114.007 29.01-9.972 33.293-25.25 5.162-18.398-5.561-37.496-23.949-42.66z" fill="#fff1d4"/><path d="m317.036 360.208v-223.413c0-14.415 6.108-27.396 15.867-36.521-48.037-1.646-95.59 4.198-140.669 16.862-18.38 5.164-29.097 24.263-23.939 42.661 4.281 15.272 18.156 25.26 33.259 25.26.006 0 .012-.001.018-.001v165.82c0 25.479 20.66 46.132 46.146 46.132h85.478c-9.931-9.138-16.16-22.24-16.16-36.8z" fill="#fce3a0"/></g><g fill="#ff8e9e"><path d="m245.766 246.307c-13.807 0-25 8.914-25 19.909 0 10.996 11.193 19.909 25 19.909s25-8.914 25-19.909-11.192-19.909-25-19.909z"/><path d="m388.219 246.307c-13.807 0-25 8.914-25 19.909 0 10.996 11.193 19.909 25 19.909s25-8.914 25-19.909-11.193-19.909-25-19.909z"/></g><g fill="#ffce71"><circle cx="209.943" cy="151.689" r="7.5"/><circle cx="269.943" cy="191.689" r="7.5"/><circle cx="319.943" cy="131.689" r="7.5"/><circle cx="349.943" cy="171.689" r="7.5"/><circle cx="419.943" cy="141.689" r="7.5"/><circle cx="404.943" cy="301.689" r="7.5"/><circle cx="354.943" cy="311.689" r="7.5"/><circle cx="394.943" cy="361.689" r="7.5"/><circle cx="294.943" cy="361.689" r="7.5"/><circle cx="264.943" cy="291.689" r="7.5"/><circle cx="234.943" cy="341.689" r="7.5"/></g><path d="m279.09 244.657c2.722-3.122 2.396-7.86-.726-10.581-3.123-2.724-7.859-2.397-10.582.726-4.393 5.041-12.195 5.037-16.585 0-2.722-3.124-7.459-3.448-10.582-.726-3.123 2.721-3.448 7.459-.726 10.581 10.371 11.9 28.839 11.89 39.201 0z" fill="#313d40"/><path d="m354.896 244.657c10.369 11.899 28.84 11.89 39.201 0 2.722-3.123 2.396-7.86-.727-10.582-3.124-2.722-7.86-2.396-10.582.727-4.391 5.041-12.196 5.037-16.584 0-2.722-3.122-7.46-3.447-10.582-.727-3.122 2.722-3.448 7.459-.726 10.582z" fill="#313d40"/><path d="m339.863 252.821c2.722-3.123 2.396-7.86-.727-10.582-3.125-2.722-7.861-2.396-10.582.727-6.166 7.075-17.119 7.067-23.279 0-2.722-3.122-7.459-3.447-10.582-.727-3.123 2.722-3.448 7.459-.727 10.582 12.146 13.934 33.766 13.921 45.897 0z" fill="#313d40"/></g></svg>