<svg id="Capa_1" enable-background="new 0 0 511.999 511.999" height="512" viewBox="0 0 511.999 511.999" width="512" xmlns="http://www.w3.org/2000/svg"><g><path d="m276.514 0h-60c-8.284 0-15 6.716-15 15v60c0 8.284 6.716 15 15 15h60c8.284 0 15-6.716 15-15v-60c0-8.284-6.715-15-15-15z" fill="#ffc649"/><path d="m276.514 0h-25v90h25c8.284 0 15-6.716 15-15v-60c0-8.284-6.715-15-15-15z" fill="#ffa951"/><path d="m358.627 327.252c-.989 0-1.993-.099-3.001-.303-8.118-1.649-13.363-9.567-11.714-17.685l26.299-129.509c.676-3.325.139-6.268-1.51-8.286s-4.426-3.129-7.82-3.129h-69.366c-8.284 0-15-6.716-15-15s6.716-15 15-15h69.366c12.385 0 23.701 5.155 31.048 14.144 7.347 8.988 10.146 21.104 7.682 33.242l-26.3 129.509c-1.444 7.111-7.698 12.017-14.684 12.017z" fill="#ffa951"/><path d="m376.515 360.001h-66.899c-6.678-25.85-30.195-45-58.102-45s-51.424 19.15-58.102 45h-66.899c-8.284 0-15 6.716-15 15 0 40.684 20.619 78.398 54.365 100.468v21.53c0 8.284 6.716 15 15 15h141.272c8.284 0 15-6.716 15-15v-21.53c33.746-22.07 54.365-59.785 54.365-100.468 0-8.284-6.715-15-15-15z" fill="#ffdc75"/><path d="m376.515 360.001h-66.899c-6.678-25.85-30.195-45-58.102-45v196.998h70.636c8.284 0 15-6.716 15-15v-21.53c33.746-22.07 54.365-59.785 54.365-100.468 0-8.284-6.715-15-15-15z" fill="#ffc649"/><path d="m391.511 374.142c-.289-29.507-15.396-67.519-44.913-113.003-16.571-25.532-32.97-46.102-40.073-54.72l-15.01-9.561h-80.001l-15.007 9.558c-7.103 8.617-23.503 29.187-40.076 54.723-29.805 45.927-44.917 84.236-44.917 113.863h95.001c0-24.853 20.147-45 45-45s45 20.147 45 45h95.021c-.001-.29-.009-.576-.025-.86z" fill="#ff8659"/><path d="m391.511 374.142c-.289-29.507-15.396-67.519-44.913-113.003-16.571-25.532-32.97-46.102-40.073-54.72l-15.01-9.561h-40.001v133.144c24.853 0 45 20.147 45 45h95.021c0-.29-.008-.576-.024-.86z" fill="#ff5c5c"/><path d="m291.515 60h-110.003c-5.541 0-10.631 3.055-13.237 7.945-2.607 4.89-2.304 10.819.786 15.419l27.453 40.872v82.185h110.001v-131.421c0-8.284-6.716-15-15-15z" fill="#ffdc75"/><path d="m291.515 60h-40.001v146.421h55.001v-131.421c0-8.284-6.716-15-15-15z" fill="#ffc649"/></g></svg>