<svg id="Layer_1" enable-background="new 0 0 512 512" viewBox="0 0 512 512" xmlns="http://www.w3.org/2000/svg"><path clip-rule="evenodd" d="m406.14 184.85c10.66 3.77 17.35 9.16 37.33 2.66 10.91-3.54 19.84-11.45 24.69-21.83 11.25-25.31 5.44-54.99-14.54-74.18s-49.86-23.81-74.69-11.51c-5.1-19.19-21.15-33.48-40.79-36.34s-39.09 6.29-49.44 23.22c-18.79-6.07-39.34-3.29-55.81 7.6-16.5 10.91-27.13 28.69-28.89 48.36-22.62-9.58-48.7-5.73-67.61 9.98-18.88 15.7-27.44 40.65-22.14 64.63-17.52-9.21-38.66-8.31-55.28 2.47-16.64 10.74-26.19 29.62-24.97 49.38 1.22 19.79 13.01 37.36 30.84 45.98 15.68 4.22 32.34 2.61 46.89-4.56 1.22 18.82 11.45 35.86 27.47 45.78 16.02 9.89 35.83 11.45 53.21 4.14 23.64-6.8 40.05-28.32 40.31-52.92 18.54 10.49 41.27 10.18 59.56-.77 18.25-10.97 29.2-30.9 28.69-52.19 15.34 17.8 41.3 21.85 61.31 9.58 20.04-12.26 28.2-37.23 23.86-59.48z" fill="#fbaa2a" fill-rule="evenodd"/><path clip-rule="evenodd" d="m374.45 68.82c-7.37-13.41-20.72-22.9-36.31-25.17-19.64-2.86-39.09 6.29-49.44 23.22-18.79-6.07-39.34-3.29-55.81 7.6-6.09 4.03-11.4 8.99-15.73 14.66-4.62 8.02-7.51 17.06-8.36 26.5-1.13-.48-2.3-.94-3.46-1.33-.62 2.81-1.08 5.64-1.33 8.53-22.62-9.58-48.7-5.73-67.61 9.98-3.8 3.17-7.2 6.69-10.12 10.54-8.05 13.95-10.8 30.64-7.23 46.88-2.01-1.05-4.08-1.98-6.21-2.78.23 3.32.68 6.66 1.42 9.98-17.52-9.21-38.66-8.31-55.28 2.47-5.16 3.32-9.64 7.43-13.32 12.1-5.02 9.01-7.51 19.42-6.86 30.08 1.25 19.79 13.04 37.36 30.87 45.98 5.95 1.59 12.05 2.35 18.14 2.3-1.9-5.02-3.06-10.35-3.4-15.87-1.22-19.76 8.33-38.64 24.97-49.38 16.61-10.77 37.76-11.71 55.28-2.47-5.3-23.98 3.26-48.93 22.14-64.63 18.91-15.7 44.99-19.56 67.61-9.98 1.76-19.67 12.39-37.47 28.89-48.36 16.47-10.89 37.02-13.66 55.81-7.6 7.82-12.84 20.91-21.21 35.34-23.25z" fill="#fdb848" fill-rule="evenodd"/><path clip-rule="evenodd" d="m184.59 343.27-9.89 107.43c-.57 6.09-4.11 10.94-9.44 13.98-5.3 3.06-11.25 3.63-16.84 1.13l-91.39-41.16c-8.79-3.94-11.25-12.84-11.28-22.48l-.68-123.14c5.13 6.77 11.88 12.36 19.79 16.21 15.68 4.22 32.34 2.61 46.89-4.56 1.22 18.82 11.45 35.86 27.47 45.78 13.65 8.46 30.06 10.81 45.37 6.81z" fill="#ffc96a" fill-rule="evenodd"/><path clip-rule="evenodd" d="m184.59 343.27-8.99 97.46-84.59-38.07c-8.79-3.94-11.23-12.84-11.28-22.48l-.45-82.69c11.14.48 22.31-1.81 32.46-6.8 1.22 18.82 11.45 35.86 27.47 45.78 13.66 8.45 30.07 10.8 45.38 6.8z" fill="#ffd67b" fill-rule="evenodd"/><path clip-rule="evenodd" d="m468.16 165.68c10.49 78.89 15.73 118.35 15.73 118.35-1.25 13.21-8.22 25.23-19.05 32.88-10.86 7.65-24.52 10.21-37.39 6.95-20.13 13.21-42.52 22.62-66.05 27.72-23.64 28.09-53.74 50.06-87.73 64.03-30.76 29.17-70.24 47.42-112.39 51.9-.14-.34-.2-.68-.17-.99 1.42-.45 2.81-1.05 4.14-1.84 5.33-3.03 8.87-7.88 9.44-13.98l9.89-107.43c2.64-.71 5.24-1.59 7.82-2.66 23.64-6.8 40.05-28.32 40.31-52.92 18.54 10.49 41.27 10.18 59.56-.77 18.25-10.97 29.2-30.9 28.69-52.19 15.34 17.8 41.3 21.85 61.31 9.58 20.04-12.25 28.2-37.22 23.87-59.47 10.66 3.77 17.35 9.16 37.33 2.66 10.92-3.53 19.85-11.44 24.69-21.82z" fill="#fbaa2a" fill-rule="evenodd"/><path clip-rule="evenodd" d="m175.57 441.1 9.01-97.82c2.64-.71 5.24-1.59 7.82-2.66 23.64-6.8 40.05-28.32 40.31-52.92 18.54 10.49 41.27 10.18 59.56-.77 18.11-10.89 29.06-30.59 28.69-51.7l.43.03c15.39 17.38 41.05 21.23 60.89 9.07 20.04-12.25 28.2-37.22 23.87-59.47 10.37 3.69 17.01 8.9 35.89 3.12l10.69 80.16c-1.25 13.21-8.22 25.23-19.08 32.88s-24.52 10.21-37.39 6.95c-20.13 13.21-42.52 22.62-66.05 27.72-23.64 28.09-53.74 50.06-87.7 64.03-19.37 18.33-42.19 32.36-66.94 41.38z" fill="#fdb848" fill-rule="evenodd"/><g fill="#e99028"><path d="m327.51 287.83c-2.75-2.69-2.78-7.11-.08-9.86 2.72-2.75 7.14-2.78 9.89-.08 8.96 8.82 16.13 19.13 21.23 30.39 5.1 11.2 8.16 23.39 8.9 35.92.23 3.85-2.69 7.17-6.55 7.4-3.85.23-7.17-2.72-7.4-6.58-.65-10.8-3.29-21.29-7.71-31.01-4.39-9.71-10.57-18.58-18.28-26.18z"/><path d="m404.75 249.87c-2.49-2.95-2.15-7.34.77-9.84 2.95-2.52 7.34-2.18 9.84.77 9.3 10.8 15.76 23.5 19.13 36.94 3.35 13.46 3.6 27.69.48 41.61-.82 3.77-4.54 6.15-8.31 5.3-3.77-.82-6.12-4.54-5.3-8.31 2.64-11.76 2.41-23.81-.45-35.21-2.83-11.39-8.3-22.13-16.16-31.26z"/><path d="m373.03 79.74c-1.87-3.4-.62-7.65 2.75-9.5 3.4-1.87 7.65-.62 9.5 2.75 4.11 7.46 5.58 15.82 4.59 23.84-.99 8.05-4.48 15.79-10.29 22.02-2.64 2.83-7.06 2.98-9.86.34-2.83-2.61-2.98-7.03-.37-9.86 3.74-4 5.98-8.99 6.63-14.2.65-5.19-.31-10.6-2.95-15.39z"/><path d="m288.33 70.16c-3.85-.31-6.72-3.71-6.41-7.54.31-3.85 3.71-6.72 7.57-6.41 10.86.91 20.44 5.95 27.24 13.52 6.8 7.51 10.86 17.55 10.63 28.43-.06 3.85-3.23 6.94-7.06 6.89-3.86-.08-6.94-3.23-6.89-7.09.14-7.23-2.55-13.89-7.06-18.88-4.49-4.98-10.82-8.33-18.02-8.92z"/><path d="m201.45 125.57c-3.54-1.5-5.19-5.61-3.69-9.16 1.5-3.54 5.61-5.19 9.16-3.69 7.46 3.2 14.34 7.46 20.47 12.59 6.12 5.16 11.51 11.2 15.93 17.94 2.13 3.23 1.22 7.57-2.01 9.69-3.23 2.1-7.57 1.19-9.69-2.04-3.69-5.61-8.14-10.63-13.21-14.88-5.11-4.27-10.81-7.81-16.96-10.45z"/><path d="m328.93 230.45c.74 3.8-1.73 7.46-5.53 8.19-3.77.74-7.46-1.73-8.19-5.53-2.21-11.23-7.34-21.49-14.66-29.88-7.28-8.33-16.72-14.8-27.64-18.54-3.66-1.22-5.61-5.19-4.37-8.84 1.22-3.66 5.19-5.61 8.84-4.39 13.27 4.54 24.77 12.44 33.65 22.59 8.94 10.24 15.2 22.74 17.9 36.4z"/><path d="m239.86 283.55c.28 3.86-2.58 7.23-6.43 7.51-3.86.31-7.2-2.55-7.51-6.41-.6-7.54-2.55-14.85-5.75-21.57-3.17-6.72-7.57-12.84-13.04-18.08-2.78-2.66-2.86-7.09-.17-9.86 2.66-2.78 7.09-2.86 9.86-.2 6.69 6.41 12.08 13.95 15.99 22.19 3.91 8.25 6.32 17.21 7.05 26.42z"/><path d="m112.28 200.38c-3.66-1.19-5.64-5.16-4.42-8.79 1.19-3.66 5.13-5.64 8.79-4.45 6.55 2.18 12.87 4.99 18.85 8.36 6.01 3.4 11.68 7.34 16.89 11.79 2.92 2.49 3.29 6.92.77 9.84-2.49 2.92-6.92 3.26-9.84.77-4.59-3.91-9.52-7.34-14.65-10.26-5.23-2.92-10.7-5.36-16.39-7.26z"/><path d="m413.23 180.48c.85 3.77-1.53 7.48-5.27 8.33-3.77.85-7.51-1.5-8.36-5.27-1.42-6.32-4.48-12.05-8.76-16.7-4.25-4.62-9.72-8.14-15.93-10.09-3.69-1.13-5.75-5.05-4.59-8.73 1.13-3.69 5.05-5.75 8.73-4.59 8.62 2.66 16.16 7.57 22.05 13.95 5.92 6.4 10.14 14.34 12.13 23.1z"/><path d="m280.71 410c-.26 3.83-3.57 6.75-7.43 6.49-3.85-.25-6.77-3.57-6.52-7.43.85-12.39.14-24.75-2.1-36.79-2.21-12.05-5.92-23.84-11.11-35.09-1.62-3.52-.09-7.65 3.4-9.27 3.52-1.62 7.65-.08 9.27 3.43 5.67 12.27 9.75 25.17 12.19 38.41 2.41 13.24 3.21 26.76 2.3 40.25z"/></g></svg>