<svg id="Capa_1" enable-background="new 0 0 512 512" height="512" viewBox="0 0 512 512" width="512" xmlns="http://www.w3.org/2000/svg"><g><g><ellipse cx="256" cy="256" fill="#fedba6" rx="256" ry="221.611"/><path d="m318.081 40.965c89.555 34.16 152.812 117.559 152.812 215.035s-63.258 180.875-152.812 215.035c111.384-24.021 193.919-111.178 193.919-215.035s-82.535-191.014-193.919-215.035z" fill="#fec165"/><g><path d="m332.57 377.654c-22.521-7.418-34.245-31.877-26.443-54.267 19.79-56.799 12.688-111.216-8.014-156.436-6.885-15.038-.428-32.801 14.608-39.69l4.303-1.972c10.519-4.82 22.873-3.129 31.7 4.351 38.791 32.87 81.607 83.413 97.114 141.302 18.177 67.856-46.547 128.69-113.268 106.712z" fill="#dc8758"/><path d="m445.838 270.942c-15.507-57.89-58.324-108.433-97.114-141.302-7.801-6.61-18.353-8.69-27.961-5.761 100.767 86.05 113.936 232.3 8.511 252.521 1.073.455 2.167.881 3.296 1.253 66.721 21.979 131.445-38.855 113.268-106.711z" fill="#c86d36"/><path d="m257.474 377.654c-22.521-7.418-34.245-31.877-26.443-54.267 19.79-56.799 12.688-111.216-8.014-156.436-6.885-15.038-.428-32.801 14.608-39.69l4.303-1.972c10.519-4.82 22.873-3.129 31.7 4.351 38.791 32.87 81.607 83.413 97.114 141.302 18.177 67.856-46.546 128.69-113.268 106.712z" fill="#dc8758"/><path d="m370.743 270.942c-15.507-57.89-58.324-108.433-97.114-141.302-7.801-6.61-18.353-8.69-27.961-5.761 100.767 86.05 113.936 232.3 8.511 252.521 1.073.455 2.167.881 3.296 1.253 66.721 21.979 131.444-38.855 113.268-106.711z" fill="#c86d36"/><path d="m182.378 377.654c-22.521-7.418-34.244-31.877-26.443-54.267 19.79-56.799 12.688-111.216-8.014-156.436-6.885-15.038-.428-32.801 14.608-39.69l4.303-1.972c10.519-4.82 22.873-3.129 31.7 4.351 38.791 32.87 81.607 83.413 97.114 141.302 18.178 67.856-46.546 128.69-113.268 106.712z" fill="#dc8758"/><path d="m295.647 270.942c-15.507-57.89-58.324-108.433-97.114-141.302-7.801-6.61-18.353-8.69-27.961-5.761 100.767 86.05 113.936 232.3 8.511 252.521 1.073.455 2.167.881 3.296 1.253 66.721 21.979 131.445-38.855 113.268-106.711z" fill="#c86d36"/></g><path d="m119.601 240.998c-18.859-20.046-31.17-47.117-31.937-80.951-.098-4.305-5.486-6.184-8.266-2.896-13.066 15.453-16.225 28.086-14.912 36.75.32 2.114-1.441 3.987-3.561 3.711-17.867-2.33-18.725 14.095.273 29.19 1.735 1.379 1.615 4.006-.214 5.257-14.995 10.259 8.899 30.058 54.442 21.697 5.967-1.095 8.332-8.34 4.175-12.758z" fill="#0ed2b3"/><path d="m122.105 323.729c-18.859-20.046-31.17-47.117-31.937-80.951-.098-4.305-5.486-6.184-8.266-2.896-13.066 15.453-16.225 28.086-14.912 36.75.32 2.114-1.441 3.987-3.561 3.711-17.867-2.33-18.725 14.095.273 29.19 1.735 1.379 1.615 4.006-.214 5.257-14.995 10.259 8.899 30.058 54.442 21.697 5.967-1.095 8.331-8.34 4.175-12.758z" fill="#86e8d0"/></g><g fill="#c86d36"><path d="m193.908 315.317c-.745 0-1.502-.112-2.251-.347-3.951-1.242-6.147-5.452-4.906-9.404 7.679-24.425 9.746-50.721 5.98-76.045-.609-4.097 2.218-7.912 6.314-8.521 4.093-.612 7.912 2.218 8.521 6.315 4.099 27.557 1.849 56.171-6.506 82.75-1.005 3.202-3.963 5.252-7.152 5.252z"/><path d="m273.137 179.933c-2.352 0-4.666-1.102-6.128-3.167l-9.662-13.65c-2.394-3.381-1.593-8.062 1.788-10.455 3.38-2.393 8.061-1.593 10.454 1.788l9.662 13.65c2.394 3.381 1.593 8.062-1.788 10.455-1.316.931-2.828 1.379-4.326 1.379z"/></g></g></svg>