<svg height="464pt" viewBox="0 0 464 464.00414" width="464pt" xmlns="http://www.w3.org/2000/svg"><path d="m303.847656 304.003906v56c0 8.835938-7.164062 16-16 16h-16v-72h-80v64h-16c-8.835937 0-16-7.164062-16-16v-48h-32v48c0 26.511719 21.488282 48 48 48h16v64h80v-56h16c26.507813 0 48-21.488281 48-48v-56zm0 0" fill="#7eb457"/><path d="m191.847656 392.003906h32v16h-32zm0 0" fill="#88c25e"/><path d="m239.847656 368.003906h32v16h-32zm0 0" fill="#88c25e"/><path d="m239.847656 424.003906h32v16h-32zm0 0" fill="#88c25e"/><path d="m271.847656 352.53125v-48.527344h-80v48.527344c25.734375 9.964844 54.261719 9.964844 80 0zm0 0" fill="#77ad50"/><path d="m303.847656 304.003906v29.480469c1.191406-1.007813 2.398438-1.953125 3.589844-3.007813 8.492188 6.910157 18.097656 12.320313 28.410156 16v-42.472656zm0 0" fill="#77ad50"/><path d="m159.847656 333.484375v-29.480469h-32v42.464844c10.308594-3.679688 19.917969-9.089844 28.40625-16 1.191406 1.0625 2.402344 2.007812 3.59375 3.015625zm0 0" fill="#77ad50"/><path d="m422.191406 160.898438c5.882813-29.511719-3.765625-59.980469-25.566406-80.722657-21.804688-20.742187-52.714844-28.863281-81.898438-21.515625-12.390624-35.148437-45.609374-58.660156-82.878906-58.660156-37.273437 0-70.488281 23.511719-82.882812 58.660156-29.171875-7.269531-60.03125.878906-81.8125 21.601563-21.78125 20.722656-31.457032 51.140625-25.648438 80.636719-28.945312 19.945312-44.664062 54.125-40.96875 89.078124 3.691406 34.957032 26.207032 65.09375 58.679688 78.550782 32.472656 13.453125 69.707031 8.074218 97.039062-14.027344 42.707032 39.382812 108.492188 39.382812 151.199219 0 27.335937 22.101562 64.566406 27.480469 97.039063 14.027344 32.476562-13.457032 54.988281-43.59375 58.683593-78.550782 3.695313-34.953124-12.023437-69.132812-40.96875-89.078124zm0 0" fill="#5f9548"/><path d="m422.191406 160.898438c6.992188-35.476563-8.5-71.609376-39.015625-91.007813-48.640625 185.027344-285.417969 224.371094-360.441406 232.242187 33.703125 39.816407 93.085937 45.304688 133.519531 12.34375 42.707032 39.382813 108.492188 39.382813 151.199219 0 27.335937 22.097657 64.566406 27.480469 97.039063 14.027344 32.476562-13.457031 54.988281-43.59375 58.683593-78.550781 3.695313-34.953125-12.023437-69.132813-40.96875-89.078125zm0 0" fill="#568741"/><g fill="#7eb457"><path d="m223.847656 40.003906h16v16h-16zm0 0"/><path d="m183.847656 72.003906h16v16h-16zm0 0"/><path d="m111.847656 88.003906h16v16h-16zm0 0"/><path d="m79.847656 120.003906h16v16h-16zm0 0"/><path d="m223.847656 104.003906h16v16h-16zm0 0"/><path d="m63.847656 200.003906h16v16h-16zm0 0"/><path d="m31.847656 232.003906h16v16h-16zm0 0"/><path d="m63.847656 272.003906h16v16h-16zm0 0"/><path d="m335.847656 96.003906h16v16h-16zm0 0"/><path d="m303.847656 128.003906h16v16h-16zm0 0"/><path d="m343.847656 184.003906h16v16h-16zm0 0"/><path d="m311.847656 216.003906h16v16h-16zm0 0"/><path d="m391.847656 200.003906h16v16h-16zm0 0"/><path d="m159.847656 240.003906h16v16h-16zm0 0"/><path d="m199.847656 280.003906h16v16h-16zm0 0"/><path d="m375.847656 264.003906h16v16h-16zm0 0"/></g></svg>