<svg id="Layer_1" enable-background="new 0 0 512 512" viewBox="0 0 512 512" xmlns="http://www.w3.org/2000/svg"><g clip-rule="evenodd" fill-rule="evenodd"><path d="m297.65 476.42v.06l-263.74-106.82v-215.83l159.42-48.84-.11.17-.08.14-.11.17c-.43.68-.88 1.36-1.3 2.04l-.11.17-.6.94-.11.17-.68 1.08c-.48.77-.96 1.53-1.42 2.3l-.17.25c-.57.91-1.13 1.84-1.7 2.75-.34.54-.65 1.08-.96 1.62l-.06.11c-.26.48-.51.94-.77 1.42-.08.14-.14.28-.23.43-.17.37-.37.71-.54 1.08-.14.28-.26.6-.4.88-.08.2-.17.37-.26.57-15 33.87 14.06 70.75 52.16 61.94 31.21-7.2 62.33-17.32 83.06-32.31.37-.28.74-.54 1.08-.79.37-.28.74-.54 1.08-.82.37-.28.71-.57 1.08-.82.34-.28.68-.54.99-.82.37-.28.71-.57 1.05-.88.31-.26.65-.54.96-.79.31-.31.65-.6.99-.91.31-.28.62-.57.91-.85.31-.28.62-.57.94-.88.31-.28.6-.6.91-.91.28-.28.57-.57.85-.85.31-.31.6-.65.91-.96.26-.28.51-.57.77-.85.28-.34.57-.65.85-.99.26-.28.51-.6.74-.88.28-.34.54-.65.79-.99.23-.31.45-.6.68-.91.26-.34.51-.68.77-1.05.23-.28.43-.6.65-.91.23-.34.45-.68.68-1.05.2-.31.4-.65.6-.96s.4-.62.57-.94l146.15 40.25-20.1 258.49z" fill="#52230e"/><path d="m381.24 143.06 102.67 28.26-20.1 258.49-10.97 3.09c-72.57-24.41-124.5-89.83-124.5-166.68 0-47.9 20.16-91.32 52.9-123.16z" fill="#60240c"/><path d="m86.04 390.78-52.13-21.12v-215.83l159.42-48.84-.11.17-.08.14c-.48.74-.96 1.47-1.42 2.21l-.11.17-.51.79-.08.17-.11.14-.71 1.13c-.48.74-.94 1.47-1.39 2.24l-.17.25c-.57.91-1.13 1.84-1.7 2.75-.34.54-.65 1.08-.96 1.62l-.06.11c-.26.48-.51.94-.77 1.42-.08.14-.14.28-.23.43-.17.37-.37.71-.54 1.08-.14.28-.26.6-.4.88-.08.2-.17.37-.26.57-15 33.87 14.06 70.75 52.16 61.94 2.3-.54 4.62-1.08 6.92-1.64 2.3 11.06 3.52 22.48 3.52 34.16-.01 89-69.66 162.65-160.28 175.06z" fill="#36180d"/></g><path d="m290.56 473.61.08-202.51h14.01l-.06 203.36-6.94 1.96z" fill="#36180d"/><path clip-rule="evenodd" d="m326.79 66.16c50.06 69.56-20.18 100.71-90.91 117.04-40.39 9.35-70.64-32.68-48.95-68.03 37.95-61.88 89.8-118.57 139.86-49.01z" fill="#c82027" fill-rule="evenodd"/><path clip-rule="evenodd" d="m326.79 66.16c8.22 11.42 13.18 21.8 15.45 31.27-12.64 29.65-58.42 46.54-104.4 57.17-26.65 6.15-48.9-10.06-54.71-31.95 1.02-2.52 2.27-5.02 3.8-7.48 37.95-61.88 89.8-118.57 139.86-49.01z" fill="#ed1c24" fill-rule="evenodd"/><path clip-rule="evenodd" d="m333.5 76.48c19.42 33.48 9.21 57.29-14.8 74.58 5.92-48.87-10.57-60.41-45.38-48.9 20.86-31.38 17.01-44.5-30.87-54.4 24.38-18.08 50.66-20.81 76.68 8.73l20.07-14.43c5.47-3.94 13.21-2.69 17.18 2.81 3.94 5.5 2.69 13.21-2.81 17.18z" fill="#99cc67" fill-rule="evenodd"/><path d="m287.67 129.88c-2.95 2.47-7.34 2.07-9.81-.88-2.47-2.98-2.04-7.37.91-9.84l.82-.68c2.98-2.47 7.37-2.07 9.84.91 2.44 2.95 2.04 7.34-.91 9.81zm-34.78 38.13c-2.98 2.44-7.37 2.04-9.84-.91-2.44-2.98-2.04-7.37.91-9.84l.85-.68c2.95-2.47 7.34-2.07 9.81.91 2.47 2.95 2.07 7.34-.91 9.81zm-43.52-6.92c-2.95 2.47-7.34 2.07-9.81-.91-2.47-2.95-2.07-7.34.91-9.81l.82-.68c2.98-2.47 7.37-2.07 9.81.88 2.47 2.98 2.07 7.37-.88 9.84zm10.27-30.22c-2.95 2.47-7.34 2.07-9.81-.88-2.47-2.98-2.04-7.37.91-9.84l.82-.68c2.98-2.47 7.37-2.07 9.84.91 2.44 2.95 2.04 7.34-.91 9.81zm37.02 8.96c-2.95 2.47-7.34 2.07-9.81-.91-2.47-2.95-2.07-7.34.91-9.81l.82-.68c2.98-2.47 7.37-2.07 9.81.91 2.47 2.95 2.07 7.34-.88 9.81zm-31.41-36.4c-2.98-2.44-3.37-6.86-.91-9.81 2.47-2.95 6.86-3.37 9.81-.91l.43.37c2.98 2.44 3.37 6.83.91 9.81-2.47 2.95-6.86 3.37-9.81.91zm34.64-16.1c-2.95 2.47-7.34 2.07-9.81-.91-2.47-2.95-2.04-7.34.91-9.81l.82-.68c2.98-2.47 7.37-2.07 9.84.91 2.44 2.95 2.04 7.34-.91 9.81z" fill="#b92025"/><path clip-rule="evenodd" d="m33.91 153.83v128.47c12.39-3.12 23.22-9.07 30.13-17.35 45.35-50.4 76.34-47.99 60.66-5.27-29.93 19.19-46.63 36.34-56.75 64.38-11.85 45.1 72.54 20.24 112.22-49.04 37.73-103.24 55.25 47.79 138.78-11.31 6.21-4.39 17.21-2.13 18.65 3.85 20.55 85.63 59.64 71.63 117.24-42.01 8.33-11.45 17.04-14.12 25.77-11.96l3.29-42.26-146.15-40.25c-.17.31-.37.62-.57.94-.2.31-.4.65-.6.96-.23.37-.45.71-.68 1.05-.23.31-.43.62-.65.91-.26.37-.51.71-.77 1.05-.23.31-.45.6-.68.91-.26.34-.51.65-.79.99-.23.28-.48.6-.74.88-.28.34-.57.65-.85.99-.25.28-.51.57-.77.85-.31.31-.6.65-.91.96-.28.28-.57.57-.85.85-.31.31-.6.62-.91.91-.31.31-.62.6-.94.88-.28.28-.6.57-.91.85-.34.31-.68.6-.99.91-.31.26-.65.54-.96.79-.34.31-.68.6-1.05.88-.31.28-.65.54-.99.82-.37.26-.71.54-1.08.82-.34.28-.71.54-1.08.82-.34.26-.71.51-1.08.79-20.72 15-51.85 25.11-83.06 32.31-38.1 8.82-67.15-28.06-52.16-61.94.09-.2.17-.37.26-.57.14-.28.25-.6.4-.88.2-.37.37-.71.54-1.08.08-.14.14-.28.23-.43.26-.48.51-.94.77-1.42l.06-.11c.31-.54.62-1.08.96-1.62.57-.91 1.13-1.84 1.7-2.75l.17-.25c.45-.77.94-1.53 1.42-2.3l.68-1.08.11-.17.6-.94.11-.17c.42-.68.88-1.36 1.3-2.04l.11-.17.08-.14.11-.17z" fill="#f4d58f" fill-rule="evenodd"/><path clip-rule="evenodd" d="m33.91 153.83v38.04c71.23 13.92 218.04 10.23 302.68-.45 84.64-10.69 113.95 2.58 146.07-20.44l-144.91-39.91c-.17.31-.37.62-.57.94-.2.31-.4.65-.6.96-.23.37-.45.71-.71 1.05-.2.31-.4.62-.62.91-.26.37-.51.71-.77 1.05-.23.31-.45.6-.68.91-.26.34-.54.68-.79 1.02-.25.28-.48.57-.71.85-.28.31-.57.65-.88.99-.25.28-.51.57-.77.85-.31.31-.6.65-.91.96-.28.28-.57.57-.85.85-.31.31-.62.62-.94.94-.28.28-.6.57-.91.85-.28.28-.6.57-.91.85-.34.31-.68.6-.99.91-.34.26-.65.54-.96.82-.34.28-.71.57-1.05.85-.31.28-.65.54-.99.82-.37.26-.71.54-1.08.82-.34.28-.71.54-1.08.82-.34.26-.71.51-1.08.79-20.72 15-51.85 25.11-83.06 32.31-38.1 8.82-67.15-28.06-52.16-61.94.09-.2.17-.37.26-.57.14-.28.25-.6.4-.88.2-.37.37-.71.54-1.08.08-.14.14-.28.23-.43.26-.48.51-.94.77-1.42l.06-.11c.31-.54.62-1.08.96-1.62.57-.91 1.13-1.84 1.7-2.75l.17-.25c.45-.77.94-1.53 1.42-2.3l.68-1.08.11-.17.6-.94.11-.17c.42-.68.88-1.36 1.3-2.04l.11-.17.08-.14.11-.17z" fill="#f2ebba" fill-rule="evenodd"/></svg>