<svg height="512" viewBox="0 0 512 512" width="512" xmlns="http://www.w3.org/2000/svg"><g id="Flat"><path d="m201.242 54.582a101.01 101.01 0 0 1 25.314 42.172 103.913 103.913 0 0 1 2.652 10.713c3.281 17.211 7.022 34.316 11.038 51.343a39.389 39.389 0 0 1 -2.843 25.951 40.567 40.567 0 0 1 -8.011 11.377l-38.113 38.113a40.634 40.634 0 0 1 -11.377 8.012 39.372 39.372 0 0 1 -25.944 2.835l-.382-.085c-17.381-4.1-34.9-7.636-52.4-11.243a101.367 101.367 0 0 1 -52.651-28.878c-36.809-38.057-37.841-98.792-3.745-140.192q2.876-3.511 6.1-6.824a109 109 0 0 1 55.497-30.776 106.617 106.617 0 0 1 30.589-2 102.663 102.663 0 0 1 40.609 11.872 99.944 99.944 0 0 1 14.68 9.631 101.315 101.315 0 0 1 8.987 7.979z" fill="#649441"/><path d="m159.183 126.636 3.083 3.084a28.581 28.581 0 0 1 8.323 19.183 30.308 30.308 0 0 1 -6.81 20.216 4.692 4.692 0 0 0 4.8 7.581l11.752-3.1a36.272 36.272 0 0 1 35.044 9.22l13.668 13.669-37.759 37.759c-.728.728-1.485 1.428-2.263 2.093a39.883 39.883 0 0 1 -35.058 8.754l-.382-.085c-17.381-4.1-34.9-7.636-52.4-11.243a101.367 101.367 0 0 1 -52.651-28.878c-1.555-1.612-3.055-3.267-4.483-4.964a99.914 99.914 0 0 1 -12.162-17.989 102.713 102.713 0 0 1 -10.628-32.35 106.035 106.035 0 0 1 -1.2-18.519 108.149 108.149 0 0 1 20.665-61.105c1.287-1.782 2.637-3.543 4.058-5.261a44.374 44.374 0 0 1 11.625-6.138 43.593 43.593 0 0 1 13.973-2.517 41.846 41.846 0 0 1 42.136 48.8l-.65 4.129a8.81 8.81 0 0 0 2.467 7.7 8.94 8.94 0 0 0 9.334 2.079 34.227 34.227 0 0 1 35.518 7.882z" fill="#79ad54"/><path d="m140.806 143.388-16.674 54.5q25.785 16.9 60.423 21.791c3.424.479-.456 16.091-2.852 15.746-29.1-4.188-52.077-14.168-70.207-26.966l-67.451-8.535a99.914 99.914 0 0 1 -12.162-17.989c2.015.46 4.08.842 6.152 1.1l51.665 6.541a156.04 156.04 0 0 1 -15.16-18.724l-53.285-21.263a106.035 106.035 0 0 1 -1.2-18.519 29.77 29.77 0 0 0 4.441 2.588l36.953 14.75c-.481-.99-.948-1.965-1.4-2.941a220.181 220.181 0 0 1 -19.327-75.505c1.287-1.782 2.637-3.543 4.058-5.261a44.374 44.374 0 0 1 11.625-6.138c-.021 1.931.007 3.826.071 5.643 0 .071.007.149.007.219.007.361.658 37.2 18.293 74.763.035.077.085.155.12.233l8.648-54.087 15.8 2.532-11.8 73.772a134.357 134.357 0 0 0 23 25.986l14.977-48.917z" fill="#89ba66"/><path d="m206.192 105.2 11.278-29.454a101.968 101.968 0 0 1 9.086 21.008l-11.8 30.837c5.617 17.7 9.056 42.629 10.095 59.89l-15.974.954c-.862-14.51-4.9-41.384-8.808-54.544l-17.982.3-.268-15.994 12.643-.212a167.289 167.289 0 0 0 -20.372-36.112l-39.082 2.1-.862-15.967 27.195-1.47c-.587-.63-1.167-1.266-1.768-1.9-21.63-22.662-42.426-32.625-42.624-32.724-3.472-1.591-7.036-3.218-10.571-4.816a106.617 106.617 0 0 1 30.588-1.996 194.484 194.484 0 0 1 34.174 28.5c1.082 1.125 2.164 2.306 3.26 3.515l3.175-20.146a99.944 99.944 0 0 1 14.68 9.631l-4.292 27.259a187.357 187.357 0 0 1 18.229 31.341z" fill="#72a64e"/><path d="m237.407 184.757a40.62 40.62 0 0 1 -8.013 11.379l-38.113 38.112a40.6 40.6 0 0 1 -11.378 8.013c-9.774-14.027-8.131-33.758 4.733-46.622l6.148-6.148c12.865-12.865 32.595-14.507 46.623-4.734z" fill="#9ac47c"/><path d="m308.064 51.445a101.01 101.01 0 0 0 -25.314 42.172 103.913 103.913 0 0 0 -2.65 10.713c-3.281 17.211-7.021 34.316-11.038 51.343a39.4 39.4 0 0 0 2.843 25.951 40.608 40.608 0 0 0 8.009 11.376l38.113 38.113a40.624 40.624 0 0 0 11.378 8.012 39.372 39.372 0 0 0 25.944 2.835l.381-.085c17.381-4.1 34.9-7.636 52.4-11.243a101.359 101.359 0 0 0 52.651-28.878c36.812-38.057 37.845-98.8 3.748-140.191q-2.874-3.512-6.1-6.824a109 109 0 0 0 -55.499-30.772 106.624 106.624 0 0 0 -30.59-2.008 102.668 102.668 0 0 0 -40.609 11.872 99.882 99.882 0 0 0 -14.679 9.631 101.186 101.186 0 0 0 -8.988 7.983z" fill="#649441"/><path d="m350.123 123.5-3.083 3.084a28.581 28.581 0 0 0 -8.323 19.183 30.308 30.308 0 0 0 6.81 20.216 4.692 4.692 0 0 1 -4.794 7.581l-11.753-3.1a36.273 36.273 0 0 0 -35.044 9.22l-13.668 13.669 37.759 37.759q1.094 1.092 2.263 2.093a39.885 39.885 0 0 0 35.059 8.754l.381-.085c17.381-4.1 34.9-7.636 52.4-11.243a101.359 101.359 0 0 0 52.651-28.878q2.334-2.418 4.483-4.964a99.862 99.862 0 0 0 12.159-17.989 102.713 102.713 0 0 0 10.628-32.35 105.841 105.841 0 0 0 1.195-18.519 108.156 108.156 0 0 0 -20.661-61.108c-1.287-1.782-2.638-3.543-4.059-5.261a44.374 44.374 0 0 0 -11.626-6.136 43.587 43.587 0 0 0 -13.972-2.517 41.847 41.847 0 0 0 -42.137 48.8l.651 4.13a8.813 8.813 0 0 1 -2.468 7.7 8.94 8.94 0 0 1 -9.334 2.079 34.228 34.228 0 0 0 -35.517 7.882z" fill="#79ad54"/><path d="m368.5 140.251 16.673 54.5q-25.785 16.9-60.423 21.791c-3.424.479.457 16.091 2.853 15.746 29.1-4.188 52.077-14.168 70.206-26.966l67.451-8.535a99.862 99.862 0 0 0 12.163-17.987c-2.015.46-4.08.842-6.151 1.1l-51.662 6.534a156.05 156.05 0 0 0 15.161-18.724l53.28-21.263a105.841 105.841 0 0 0 1.195-18.519 29.843 29.843 0 0 1 -4.44 2.588l-36.954 14.75c.481-.99.948-1.965 1.4-2.941a220.165 220.165 0 0 0 19.333-75.505c-1.287-1.782-2.638-3.543-4.059-5.261a44.374 44.374 0 0 0 -11.626-6.133c.021 1.931-.007 3.826-.071 5.643 0 .071-.007.149-.007.219-.007.361-.657 37.2-18.293 74.763-.035.077-.085.155-.12.233l-8.647-54.084-15.8 2.532 11.8 73.772a134.357 134.357 0 0 1 -23 25.986l-14.974-48.92z" fill="#89ba66"/><path d="m303.115 102.06-11.279-29.451a101.968 101.968 0 0 0 -9.086 21.008l11.8 30.837c-5.617 17.7-9.056 42.629-10.1 59.89l15.974.954c.863-14.51 4.9-41.384 8.808-54.544l17.982.3.269-15.994-12.644-.212a167.331 167.331 0 0 1 20.378-36.108l39.082 2.1.863-15.967-27.2-1.471c.587-.629 1.167-1.265 1.768-1.9 21.63-22.662 42.426-32.625 42.624-32.724 3.472-1.591 7.036-3.218 10.572-4.816a106.624 106.624 0 0 0 -30.59-2.008 194.484 194.484 0 0 0 -34.174 28.5c-1.082 1.125-2.164 2.306-3.26 3.515l-3.175-20.146a99.882 99.882 0 0 0 -14.679 9.631l4.292 27.259a187.288 187.288 0 0 0 -18.225 31.347z" fill="#72a64e"/><path d="m271.9 181.62a40.641 40.641 0 0 0 8.012 11.38l38.113 38.112a40.6 40.6 0 0 0 11.378 8.013c9.774-14.027 8.132-33.758-4.733-46.622l-6.148-6.148c-12.865-12.866-32.595-14.508-46.622-4.735z" fill="#9ac47c"/><path d="m201.242 300.6a100.994 100.994 0 0 1 25.314 42.172 103.831 103.831 0 0 1 2.652 10.712c3.281 17.211 7.022 34.316 11.038 51.343a39.389 39.389 0 0 1 -2.843 25.951 40.539 40.539 0 0 1 -8.011 11.377l-38.113 38.113a40.634 40.634 0 0 1 -11.377 8.012 39.373 39.373 0 0 1 -25.944 2.836l-.382-.085c-17.381-4.1-34.9-7.637-52.4-11.243a101.368 101.368 0 0 1 -52.651-28.879c-36.812-38.056-37.844-98.8-3.748-140.191q2.876-3.51 6.1-6.823a108.991 108.991 0 0 1 55.494-30.773 106.582 106.582 0 0 1 30.589-2.009 102.665 102.665 0 0 1 40.609 11.873 99.937 99.937 0 0 1 14.68 9.63 101.328 101.328 0 0 1 8.993 7.984z" fill="#649441"/><path d="m159.183 372.651 3.083 3.083a28.586 28.586 0 0 1 8.323 19.184 30.309 30.309 0 0 1 -6.81 20.216 4.692 4.692 0 0 0 4.8 7.58l11.752-3.1a36.27 36.27 0 0 1 35.044 9.221l13.668 13.668-37.759 37.759c-.728.729-1.485 1.429-2.263 2.093a39.884 39.884 0 0 1 -35.058 8.755l-.382-.085c-17.381-4.1-34.9-7.637-52.4-11.243a101.368 101.368 0 0 1 -52.651-28.879c-1.555-1.612-3.055-3.266-4.483-4.963a99.985 99.985 0 0 1 -12.162-17.989 102.713 102.713 0 0 1 -10.63-32.351 106.047 106.047 0 0 1 -1.2-18.52 108.152 108.152 0 0 1 20.662-61.108c1.287-1.782 2.637-3.542 4.058-5.261a44.37 44.37 0 0 1 11.625-6.137 43.567 43.567 0 0 1 13.973-2.518 41.846 41.846 0 0 1 42.136 48.8l-.65 4.129a8.812 8.812 0 0 0 2.467 7.7 8.94 8.94 0 0 0 9.334 2.079 34.223 34.223 0 0 1 35.523 7.887z" fill="#79ad54"/><path d="m140.806 389.4-16.674 54.5q25.785 16.9 60.423 21.791c3.424.479-.456 16.091-2.852 15.746-29.1-4.188-52.077-14.167-70.207-26.966l-67.451-8.534a99.985 99.985 0 0 1 -12.162-17.989c2.015.459 4.08.841 6.152 1.1l51.665 6.543a156.048 156.048 0 0 1 -15.16-18.725l-53.285-21.266a106.047 106.047 0 0 1 -1.2-18.52 29.77 29.77 0 0 0 4.441 2.588l36.953 14.751c-.481-.99-.948-1.966-1.4-2.942a220.176 220.176 0 0 1 -19.332-75.5c1.287-1.782 2.637-3.542 4.058-5.261a44.37 44.37 0 0 1 11.625-6.137c-.021 1.93.007 3.825.071 5.642 0 .071.007.149.007.22.007.36.658 37.2 18.293 74.762.035.078.085.156.12.233l8.648-54.086 15.8 2.531-11.8 73.773a134.416 134.416 0 0 0 23 25.986l14.977-48.918z" fill="#89ba66"/><path d="m206.192 351.211 11.278-29.451a102 102 0 0 1 9.086 21.009l-11.8 30.836c5.617 17.7 9.056 42.63 10.095 59.89l-15.974.955c-.862-14.51-4.9-41.385-8.808-54.544l-17.982.3-.268-16 12.642-.206a167.289 167.289 0 0 0 -20.372-36.112l-39.082 2.1-.862-15.966 27.195-1.471c-.587-.63-1.167-1.266-1.768-1.895-21.63-22.663-42.426-32.626-42.624-32.725-3.472-1.591-7.036-3.217-10.571-4.815a106.582 106.582 0 0 1 30.589-2.009 194.5 194.5 0 0 1 34.174 28.5c1.082 1.124 2.164 2.305 3.26 3.514l3.175-20.145a99.937 99.937 0 0 1 14.68 9.63l-4.292 27.259a187.4 187.4 0 0 1 18.229 31.346z" fill="#72a64e"/><path d="m237.407 430.772a40.616 40.616 0 0 1 -8.013 11.378l-38.113 38.113a40.636 40.636 0 0 1 -11.378 8.013c-9.774-14.028-8.131-33.758 4.733-46.623l6.148-6.148c12.865-12.864 32.595-14.505 46.623-4.733z" fill="#9ac47c"/><path d="m488 368a101.011 101.011 0 0 1 -11.92 47.72 103.893 103.893 0 0 1 -5.7 9.45c-9.85 14.49-19.3 29.23-28.5 44.11a39.393 39.393 0 0 1 -20.36 16.34 40.576 40.576 0 0 1 -13.71 2.38h-53.9a40.619 40.619 0 0 1 -13.71-2.38 39.37 39.37 0 0 1 -20.35-16.34l-.21-.33c-9.39-15.19-19.28-30.08-29.1-45a101.362 101.362 0 0 1 -16.81-57.65c.88-52.94 43.1-96.62 96.48-101.78q4.515-.45 9.14-.51a109 109 0 0 1 61 17.48 106.6 106.6 0 0 1 23.05 20.21 102.662 102.662 0 0 1 20.32 37.11 99.877 99.877 0 0 1 3.57 17.19 101.223 101.223 0 0 1 .71 12z" fill="#649441"/><path d="m407.31 389.21v4.36a28.585 28.585 0 0 1 -7.68 19.45 30.309 30.309 0 0 1 -19.11 9.48 4.691 4.691 0 0 0 -1.97 8.75l10.5 6.12a36.273 36.273 0 0 1 18.26 31.3v19.33h-53.4c-1.03 0-2.06-.04-3.08-.12a39.884 39.884 0 0 1 -30.98-18.6l-.21-.33c-9.39-15.19-19.28-30.08-29.1-45a101.362 101.362 0 0 1 -16.81-57.65q.06-3.36.34-6.68a99.928 99.928 0 0 1 4.12-21.32 102.727 102.727 0 0 1 15.36-30.39 105.952 105.952 0 0 1 12.25-13.94 108.154 108.154 0 0 1 57.82-28.6c2.17-.35 4.37-.64 6.59-.85a44.35 44.35 0 0 1 12.56 3.88 43.577 43.577 0 0 1 11.66 8.1 41.847 41.847 0 0 1 -4.71 64.3l-3.38 2.46a8.812 8.812 0 0 0 -3.7 7.19 8.939 8.939 0 0 0 5.13 8.07 34.225 34.225 0 0 1 19.54 30.69z" fill="#79ad54"/><path d="m382.47 388.06-50.33 26.75q6.282 30.185 27.317 58.134c2.082 2.76-11.7 11.056-13.151 9.118-17.616-23.539-26.806-46.843-30.576-68.712l-41.66-53.73a99.928 99.928 0 0 1 4.12-21.32c1.1 1.75 2.29 3.48 3.57 5.13l31.91 41.15a156.082 156.082 0 0 1 2.52-23.96l-22.64-52.71a105.952 105.952 0 0 1 12.25-13.94 29.916 29.916 0 0 0 1.31 4.97l15.7 36.56c.36-1.04.72-2.06 1.09-3.07a220.173 220.173 0 0 1 39.72-67.06c2.17-.35 4.37-.64 6.59-.85a44.35 44.35 0 0 1 12.56 3.88c-1.38 1.35-2.7 2.71-3.94 4.04-.05.05-.1.11-.15.16-.25.26-25.84 26.77-39.93 65.8-.03.08-.05.17-.08.25l44.36-32.13 9.38 12.96-60.51 43.82a134.385 134.385 0 0 0 -2.11 34.64l45.18-24z" fill="#89ba66"/><path d="m455.71 407.29 28.8-12.85a102.013 102.013 0 0 1 -8.43 21.28l-30.15 13.46c-8.543 16.487-23.74 36.547-35.21 49.487l-11.97-10.62c9.65-10.87 25.8-32.727 32.34-44.8l-12.93-12.5 11.12-11.5 9.09 8.79a167.3 167.3 0 0 0 11.13-39.937l-29.12-26.15 10.68-11.9 20.27 18.19c.03-.86.07-1.72.09-2.59.73-31.32-6.93-53.07-7-53.28-1.33-3.58-2.7-7.25-4.07-10.88a106.6 106.6 0 0 1 23.05 20.21 194.468 194.468 0 0 1 4.01 44.32c-.03 1.56-.1 3.16-.18 4.79l16.49-12a99.877 99.877 0 0 1 3.57 17.19l-22.31 16.24a187.333 187.333 0 0 1 -9.27 35.05z" fill="#72a64e"/><path d="m421.525 485.62a40.617 40.617 0 0 1 -13.712 2.38h-53.9a40.617 40.617 0 0 1 -13.712-2.38c3.009-16.83 18.122-29.62 36.315-29.62h8.695c18.189 0 33.306 12.79 36.314 29.62z" fill="#9ac47c"/></g></svg>