<svg id="Filled_Expand" viewBox="0 0 64 64" xmlns="http://www.w3.org/2000/svg" data-name="Filled Expand"><path d="m62 2.217a3.829 3.829 0 0 0 -5.6 0 3.829 3.829 0 0 0 -5.6 0 3.829 3.829 0 0 0 -5.6 0 3.829 3.829 0 0 0 -5.6 0 3.829 3.829 0 0 0 -5.6 0l1 3.783h26z" fill="#fff29c"/><path d="m56.4 4.217a3.829 3.829 0 0 0 -5.6 0 3.829 3.829 0 0 0 -5.6 0 3.829 3.829 0 0 0 -5.6 0 3.821 3.821 0 0 0 -3.381-1.173l.781 2.956h24l.575-2.175a3.83 3.83 0 0 0 -5.175.392z" fill="#ffe27d"/><path d="m62 61.783a3.829 3.829 0 0 1 -5.6 0 3.829 3.829 0 0 1 -5.6 0 3.829 3.829 0 0 1 -5.6 0 3.829 3.829 0 0 1 -5.6 0 3.829 3.829 0 0 1 -5.6 0l1-3.783h26z" fill="#fff29c"/><path d="m39.6 61.783a3.829 3.829 0 0 0 5.6 0 3.829 3.829 0 0 0 5.6 0 3.829 3.829 0 0 0 5.6 0 3.829 3.829 0 0 0 5.6 0l-1-3.783h-24l-1.281 4.845a3.829 3.829 0 0 0 3.881-1.062z" fill="#ffe27d"/><path d="m35 6h26v52h-26z" fill="#ff94a3"/><path d="m37 6h24v52h-24z" fill="#ff798c"/><path d="m30 2.217a3.829 3.829 0 0 0 -5.6 0 3.829 3.829 0 0 0 -5.6 0 3.829 3.829 0 0 0 -5.6 0 3.829 3.829 0 0 0 -5.6 0 3.829 3.829 0 0 0 -5.6 0h0l1 3.783h26z" fill="#b1f0d6"/><path d="m24.4 4.217a3.829 3.829 0 0 0 -5.6 0 3.829 3.829 0 0 0 -5.6 0 3.829 3.829 0 0 0 -5.6 0 3.821 3.821 0 0 0 -3.381-1.173l.781 2.956h24l.575-2.175a3.83 3.83 0 0 0 -5.175.392z" fill="#92eac6"/><path d="m30 61.783a3.829 3.829 0 0 1 -5.6 0 3.829 3.829 0 0 1 -5.6 0 3.829 3.829 0 0 1 -5.6 0 3.829 3.829 0 0 1 -5.6 0 3.829 3.829 0 0 1 -5.6 0h0l1-3.783h26z" fill="#b1f0d6"/><path d="m7.6 61.783a3.829 3.829 0 0 0 5.6 0 3.829 3.829 0 0 0 5.6 0 3.829 3.829 0 0 0 5.6 0 3.829 3.829 0 0 0 5.6 0l-1-3.783h-24l-1.281 4.845a3.829 3.829 0 0 0 3.881-1.062z" fill="#92eac6"/><path d="m3 6h26v52h-26z" fill="#daebff"/><path d="m5 6h24v52h-24z" fill="#c2deff"/><path d="m7 11h18v16h-18z" fill="#fcfcff"/><path d="m11 15h10v4h-10z" fill="#ff798c"/><path d="m7 31h3v22h-3z" fill="#ffe27d"/><path d="m10 31h3v22h-3z" fill="#ffd16e"/><path d="m13 31h3v22h-3z" fill="#ffe27d"/><path d="m16 31h3v22h-3z" fill="#ffd16e"/><path d="m19 31h3v22h-3z" fill="#ffe27d"/><path d="m22 31h3v22h-3z" fill="#ffd16e"/><path d="m39 11h18v16h-18z" fill="#fcfcff"/><path d="m43 15h10v4h-10z" fill="#ffe27d"/><path d="m39 31h18v22h-18z" fill="#ffe27d"/><path d="m25 10.25h-18a.75.75 0 0 0 -.75.75v16a.75.75 0 0 0 .75.75h18a.75.75 0 0 0 .75-.75v-16a.75.75 0 0 0 -.75-.75zm-.75 16h-16.5v-14.5h16.5z"/><path d="m11 19.75h10a.75.75 0 0 0 .75-.75v-4a.75.75 0 0 0 -.75-.75h-10a.75.75 0 0 0 -.75.75v4a.75.75 0 0 0 .75.75zm.75-4h8.5v2.5h-8.5z"/><path d="m11 23.75h10a.75.75 0 0 0 0-1.5h-10a.75.75 0 0 0 0 1.5z"/><path d="m25 30.25h-18a.75.75 0 0 0 -.75.75v22a.75.75 0 0 0 .75.75h18a.75.75 0 0 0 .75-.75v-22a.75.75 0 0 0 -.75-.75zm-15.75 22h-1.5v-20.5h1.5zm3 0h-1.5v-20.5h1.5zm3 0h-1.5v-20.5h1.5zm3 0h-1.5v-20.5h1.5zm3 0h-1.5v-20.5h1.5zm3 0h-1.5v-20.5h1.5z"/><path d="m57 10.25h-18a.75.75 0 0 0 -.75.75v16a.75.75 0 0 0 .75.75h18a.75.75 0 0 0 .75-.75v-16a.75.75 0 0 0 -.75-.75zm-.75 16h-16.5v-14.5h16.5z"/><path d="m43 19.75h10a.75.75 0 0 0 .75-.75v-4a.75.75 0 0 0 -.75-.75h-10a.75.75 0 0 0 -.75.75v4a.75.75 0 0 0 .75.75zm.75-4h8.5v2.5h-8.5z"/><path d="m43 23.75h10a.75.75 0 0 0 0-1.5h-10a.75.75 0 0 0 0 1.5z"/><path d="m57 30.25h-18a.75.75 0 0 0 -.75.75v22a.75.75 0 0 0 .75.75h18a.75.75 0 0 0 .75-.75v-22a.75.75 0 0 0 -.75-.75zm-.75 22h-16.5v-20.5h16.5z"/><path d="m44 50.75a2.752 2.752 0 0 0 2.75-2.75.75.75 0 0 0 -1.5 0 1.25 1.25 0 0 1 -2.5 0 .75.75 0 0 0 -1.5 0 2.752 2.752 0 0 0 2.75 2.75z"/><path d="m47.784 42.784a1.6 1.6 0 0 1 -2.253 0 .75.75 0 0 0 -1.061 1.061 3.094 3.094 0 0 0 4.375-4.375.75.75 0 0 0 -1.061 1.061 1.6 1.6 0 0 1 0 2.253z"/><path d="m50.155 45.17a3.1 3.1 0 0 0 0 4.374.75.75 0 1 0 1.061-1.06 1.593 1.593 0 0 1 2.253-2.253.75.75 0 0 0 1.061-1.061 3.1 3.1 0 0 0 -4.375 0z"/><path d="m43.216 39.544a.749.749 0 0 0 0-1.06 1.593 1.593 0 0 1 2.253-2.253.75.75 0 0 0 1.061-1.061 3.093 3.093 0 0 0 -4.375 4.374.75.75 0 0 0 1.061 0z"/><path d="m50.531 35.231a1.593 1.593 0 0 1 2.253 2.253.75.75 0 0 0 1.061 1.06 3.093 3.093 0 0 0 -4.375-4.374.75.75 0 0 0 1.061 1.061z"/><path d="m61.75 57.9v-51.8l.975-3.689a.751.751 0 0 0 -.177-.7 4.579 4.579 0 0 0 -6.148-.5 4.718 4.718 0 0 0 -5.6 0 4.72 4.72 0 0 0 -5.6 0 4.718 4.718 0 0 0 -5.6 0 4.579 4.579 0 0 0 -6.148.5.751.751 0 0 0 -.177.7l.975 3.689v51.8l-.975 3.689a.751.751 0 0 0 .177.7 4.579 4.579 0 0 0 6.148.5 4.718 4.718 0 0 0 5.6 0 4.72 4.72 0 0 0 5.6 0 4.718 4.718 0 0 0 5.6 0 4.579 4.579 0 0 0 6.148-.5.751.751 0 0 0 .177-.7zm-4.8 3.369a.774.774 0 0 0 -1.1 0 3.152 3.152 0 0 1 -4.5 0 .776.776 0 0 0 -1.1 0 3.15 3.15 0 0 1 -4.5 0 .776.776 0 0 0 -1.1 0 3.152 3.152 0 0 1 -4.5 0 .774.774 0 0 0 -1.1 0 3.153 3.153 0 0 1 -4.214.275l.74-2.8h24.846l.74 2.8a3.153 3.153 0 0 1 -4.214-.273zm-21.2-4.019v-50.5h24.5v50.5zm24.672-52h-24.844l-.74-2.8a3.153 3.153 0 0 1 4.214.275.774.774 0 0 0 1.1 0 3.152 3.152 0 0 1 4.5 0 .776.776 0 0 0 1.1 0 3.15 3.15 0 0 1 4.5 0 .776.776 0 0 0 1.1 0 3.152 3.152 0 0 1 4.5 0 .774.774 0 0 0 1.1 0 3.153 3.153 0 0 1 4.214-.275z"/><path d="m30.725 2.409a.751.751 0 0 0 -.177-.7 4.579 4.579 0 0 0 -6.148-.5 4.718 4.718 0 0 0 -5.6 0 4.72 4.72 0 0 0 -5.6 0 4.718 4.718 0 0 0 -5.6 0 4.579 4.579 0 0 0 -6.148.5.751.751 0 0 0 -.177.7l.975 3.691v51.8l-.975 3.689a.751.751 0 0 0 .177.7 4.579 4.579 0 0 0 6.148.5 4.718 4.718 0 0 0 5.6 0 4.72 4.72 0 0 0 5.6 0 4.718 4.718 0 0 0 5.6 0 4.579 4.579 0 0 0 6.148-.5.751.751 0 0 0 .177-.7l-.975-3.689v-51.8zm-5.777 58.862a.774.774 0 0 0 -1.1 0 3.152 3.152 0 0 1 -4.5 0 .776.776 0 0 0 -1.1 0 3.15 3.15 0 0 1 -4.5 0 .776.776 0 0 0 -1.1 0 3.152 3.152 0 0 1 -4.5 0 .774.774 0 0 0 -1.1 0 3.153 3.153 0 0 1 -4.214.275l.74-2.8h24.848l.74 2.8a3.153 3.153 0 0 1 -4.214-.275zm-21.198-4.021v-50.5h24.5v50.5zm24.672-52h-24.844l-.74-2.8a3.153 3.153 0 0 1 4.214.275.774.774 0 0 0 1.1 0 3.152 3.152 0 0 1 4.5 0 .776.776 0 0 0 1.1 0 3.15 3.15 0 0 1 4.5 0 .776.776 0 0 0 1.1 0 3.152 3.152 0 0 1 4.5 0 .774.774 0 0 0 1.1 0 3.153 3.153 0 0 1 4.214-.275z"/></svg>