<svg id="Layer_1" enable-background="new 0 0 75 75" viewBox="0 0 75 75" xmlns="http://www.w3.org/2000/svg"><g id="Buckwheat_Grains_1_"><g id="Buckwheat_Grains"><g><g><g><path d="m65.4374008 33.6264343c.5912476 3.5571251.7245483 8.4546356.1920547 12.8412247-1.0999146 8.6345367-4.1522751 17.6692581-12.254818 20.8494949-.0202408.0101166-.0404816.0202408-.0606003.0202408-.0101204.0101166-.030365.0101166-.0404854.0101166-.0404854.0202484-.0809708.0404892-.1214523.0506058-7.6915512 2.7641525-14.4622421-1.8663559-16.198101-8.928299-.0607262-.2325401-.1213303-.4752007-.1618156-.7178574-.9201355.0657806-2.312458-.0738297-3.5288124-.4752007h-.0101204c-1.7542896-.5853577-3.3854713-1.7167892-4.6107845-3.2760315-.141449.0607262-.2730236.1212082-.4043503.1819344-1.8966923.8180542-4.4458313 1.168087-7.0879898.6267662-.0347672-.0037689-.8567047-.189045-.879673-.2122955-9.7414265-2.4289856-14.0589643-15.228672-14.651298-25.2983398-.0099974-.0202408-.0099974-.0404835 0-.0503578-.2288551-3.3359547-.1224651-5.97509.2427835-9.0596313 0-.8745213.3798313-1.6708546.9706392-2.1943054.0909667-.0910912.1820569-.1718121.2831445-.2325401.0101209-.0101204.0201187-.0202408.0302401-.0303631.0303631-.0101204.0506053-.0303631.0708475-.0404835.5029407-.3772068 1.2449522-.5010414 1.8907967-.6571331 7.6202211-1.7727585 14.8114519-1.430232 20.6168327.313509 0-1.3940706.2850761-4.7064905.6874943-6.8554497.1595287-1.6740789 1.656992-2.7299857 2.2851505-2.7299857.0404854-.0202422.0910912-.0303631.1315727-.0404844.4573021-.0763721.9352074-.2016931 1.2436638-.2325387 7.0272369-1.2725825 14.1110268-.8306742 20.849247 1.5369282.0101204.0098743.0303612.0098743.0404854.0202417 5.7631035 1.8831558 11.5695724 5.5709333 13.6501694 11.2941761 2.0266561 4.914812.4285115 10.7140464-3.174821 13.2860583z" fill="#fff"/></g></g><g><g><g><g><path d="m66.2918549 26.6262646c-.5024109 2.5119171-2.2097473 4.8550644-4.7321129 5.7231197-1.7112885.560955-3.7211075.3651085-5.3185196-.2122993-4.4176826-1.4267406-12.1888733-9.6788921-15.3286743-13.1144924v-.0098743c-1.5115738-1.5767479-7.0811005-7.941433-7.4619751-8.3215303 7.8546714-1.6271574 15.1024055-.9415189 22.042427 1.7793416 2.7723885 1.1210508 5.5199928 2.5867167 7.603672 4.7625999v.0101223c2.4067536 2.5207634 3.9205247 6.0781517 3.1951829 9.3830128z" fill="#ffa96d"/></g></g><g><g><path d="m56.2412224 32.137085c.1740646 5.3918076-2.70755 9.2932701-6.1880722 10.5763168-3.3748398 1.2580338-7.3326073.0322838-9.929306-2.184185-1.7886772-1.5058899-3.1606026-3.5072975-4.1353416-5.6216621-2.7618866-5.8309307-4.1707458-15.2164841-2.5379295-24.2163658.3453979.3446941 6.0428581 6.8412256 7.4619751 8.3215303v.0098743c3.1552352 3.4524851 10.9026831 11.6850672 15.3286742 13.1144915z" fill="#ffa96d"/></g></g><g><g><path d="m53.9100761 11.8866014c-2.3862991 1.8296967-6.0109253 1.1417913-8.2668533 3.1374626-.7668724.6719294-1.2771683 1.5849428-1.9025955 2.3818598-.6340294.8058853-1.4723434 1.5486641-2.4944153 1.6243267-.1155357.0083027-.2220383.0080738-.3286819-.0101566l-.0088577-.0089302c-1.296875-.0587769-2.5456467-1.0145988-3.7734184-.61096-.8540611.2805862-1.3908501 1.1490211-1.6253853 2.0188274-.4160233 1.5876331-.0749283 3.4894238-2.1812401 5.3483524-.4853058-2.9161053-.6772766-5.8755589-.5496025-8.8158913 1.4868202-1.0015202 1.8698235-2.4835167 2.9651413-3.683548 1.509552-1.7892141 3.2537117-.7738466 4.8895874-.7793283 1.6438599-.0019207 3.1406555-.9907446 4.3181801-2.1407652.1159859-.1150198.2319717-.2300406.3390999-.3539906 2.913021.2787467 5.7890624.8948509 8.6190413 1.8927413z" fill="#f78c4c"/></g></g><g><g><path d="m64.2854996 18.6733341c-1.9463043 3.1708183-5.9280243 4.059063-8.7596741 6.2804909-1.6044121 1.2549572-2.944355 2.990715-4.8575363 3.6489658l-.0086403-.0087128s0 0-.0089302.0088558c-.0355377.0175304-.0711861.0351677-.1156883.0438747-1.3077354.4120903-2.7910347.2724972-3.9665985.9786186-1.6746979 1.0235462-2.075325 3.3852158-3.635334 4.5779991-1.9368629 1.4684525-4.7530556.6393089-6.9417992.7083969-.9625893-2.0278206-1.6014824-4.1951981-2.1146622-6.3613663 2.299057-.8699493 5.108799.2192898 7.3162842-.9912033 2.8238831-1.5535889 3.1146622-6.0225163 6.0982552-7.1798496 1.5927734-.6243401 3.4206543-.0479698 5.0574036-.5029354 2.856205-.7886906 4.0680847-4.1598406 5.9693031-6.1144943 2.8786659 1.5052873 4.7560005 3.2120115 5.967617 4.9113599z" fill="#f78c4c"/></g></g><g><g><path d="m56.2382545 33.0595818c-.2732887 8.0588264-7.4930153 13.0090752-14.7837906 8.4320259.4836769-1.6208611 2.0528679-2.6607399 3.635994-2.6324196 1.2170601.0316544 2.5296021.6235504 3.5982208.0239182 1.424942-.7935791 1.185276-2.980381 2.2034645-4.2553558 1.1877556-1.496708 3.4432221-1.1672402 5.3461113-1.5681687z" fill="#f78c4c"/></g></g><g><g><path d="m66.2959137 26.6246471c-.516983 2.5656223-2.2771759 4.8948269-4.7327843 5.7198925-1.2365913.4123878-2.5784836.4332466-3.8566513.1792221 1.0047607-.568222 1.4653397-1.8298931 2.2235413-2.7005711.9284401-1.0801296 2.3078079-1.6341057 3.6427383-2.1435852.9076119-.3518333 1.8154335-.7034492 2.723156-1.0549583z" fill="#f78c4c"/></g></g><g opacity=".5"><g><path d="m63.101162 17.2470856c2.0875587 2.1765156 3.5056725 5.1231956 3.3600197 8.134491-.1371155 3.0201149-2.0419083 6.0063877-4.8980522 6.9629631-1.7171631.570137-3.6087494.3934822-5.3210144-.2089806-6.7807465-2.1621075-21.4772835-20.2523384-22.7883835-21.4447422.2934113-.0611372.6046066-.1221991.8891907-.1741533 4.3339348 4.7092104 9.0690842 9.0201139 14.1615944 12.8884954 1.8422508 1.3937473 3.7466202 2.7431793 5.9113312 3.5341797 2.1643867.7908897 4.6335564.9788513 6.7432518.0371609 2.109478-.9419079 3.7182198-3.1563473 3.4965706-5.4495792-.1356965-1.5286961-.9919359-2.8560735-1.5545083-4.2798348z" fill="#e97029"/></g></g><g opacity=".5"><g><path d="m56.242115 32.1355591c.0304184 1.2084274-.063343 2.4164391-.3524971 3.5879555-.741642 3.0709534-2.8766632 5.8962898-5.839901 6.9944954-3.5681763 1.32658-7.7291946-.0677414-10.4903488-2.6912994-2.7609367-2.6237755-4.3096199-6.2730293-5.2981415-9.9464073-1.7150536-6.2975521-1.9891968-12.9798508-.8074951-19.3894863.0619926.0625114.1680489.1694574.3007088.3208723-.6828194 6.0743151.0286179 12.287528 2.0480499 18.0534019.8866959 2.5534801 2.0579758 5.055006 3.8975639 7.0350513 1.8399124 1.9801521 4.4105721 3.394619 7.1027794 3.3613968 2.7009544-.0241852 5.4445686-1.7185097 6.2369499-4.2919846.4846878-1.5537453.2939377-3.2582283.4626236-4.40481.8084451.5236636 1.8252793 1.0792418 2.739708 1.3708144z" fill="#e97029"/></g></g><g><g><path d="m56.0285034 32.1985588c-5.7991486-2.2720299-18.3715248-16.5939751-22.6689453-21.4248047-.1088142-.1227055.0748672-.2901402.1875-.1660156 4.2025261 4.724452 16.8230362 19.1056042 22.5732422 21.3583984.1523323.060009.0646782.2910996-.0917969.2324219z" fill="#e97029"/></g></g><g><g><path d="m37.0109253 28.1487541c-.1542358-.0335293-.1166916-.2742481.0546875-.2441406 2.1494141.4775391 4.5732422-.4199219 5.890625-2.1855469 1.2793655-1.7113247 1.7989082-4.6864452 4.1240234-5.5 1.059227-.3682404 2.2493935-.134819 3.2978516-.1767578 1.7070313-.0673828 3.3847656-.8886719 4.4882813-2.1953125.1071892-.125433.2979164.0342979.1914063.1621094-1.1474609 1.359375-2.8935547 2.2128906-4.6699219 2.2832031-1.1053772.0429859-2.2159767-.1922264-3.2255859.1630859-2.2614059.7922268-2.6314011 3.5703297-4.0048828 5.4140625-1.3650781 1.8283749-3.8818895 2.7825413-6.1464845 2.2792969z" fill="#e97029"/></g></g><g><g><path d="m47.6056519 29.2425041c-.1691666-.0241661-.1216354-.2775879.0351563-.2480469 2.7575493.4057617 5.0968437-1.6197739 6.9853516-3.3017578 1.3684616-1.2246952 2.8385086-2.5163879 4.6259766-3.1044922.1660728-.046402.2301254.1883717.078125.2382813-2.8840179.9472485-4.766407 3.662962-7.3251953 5.2714844-1.3115122.8239345-2.8608095 1.3661403-4.3994142 1.1445312z" fill="#e97029"/></g></g><g><g><path d="m45.0079956 38.8704338c-.1611786-.035038-.1088829-.2779121.0527344-.2441406.7695313.1660156 1.5722656.3339844 2.3564453.2832031.8652344-.0595703 1.6035156-.4082031 2.0283203-.9570313.6573296-.8504562.5792313-2.1796074 1.140625-3.1630859.4296875-.7529297 1.234375-1.3193359 2.2646484-1.5966797.9072266-.2431641 1.8496094-.2392578 2.7578125-.2382813.1647224 0 .1660194.25 0 .25-.9013672-.0039063-1.8173828-.0039063-2.6933594.2304688-3.1204224.8361092-2.120163 3.1827202-3.2724609 4.6699219-.4677734.6054688-1.2724609.9892578-2.2080078 1.0546875-.8320236.052948-1.59515-.1099281-2.4267578-.2890625z" fill="#e97029"/></g></g><g><g><path d="m43.475769 17.4925041c.9150391-1.9814453 2.8203125-3.4306641 4.9736328-3.7822266.0634766-.0126953.1318359.0351563.1435547.1025391.0117188.0683594-.0351563.1328125-.1025391.1435547-2.0732422.3388672-3.9072266 1.7333984-4.7880859 3.6416016-.0677833.1484756-.2967987.0467109-.2265625-.1054688z" fill="#e97029"/></g></g><g><g><path d="m33.9210815 16.2122307-.2236328-.1132813c.4228516-.8330078.859375-1.6943359 1.4785156-2.4189453 2.3132973-2.7139254 4.421627-.7854109 6.2050781-1.5126953.1459503-.0671844.2508087.1685972.09375.2304688-1.9179649.7899046-3.8678589-1.1812496-6.109375 1.4443359-.5996093.7021484-1.0292968 1.5507812-1.4443359 2.3701172zm-.1123046-.0556641h.0029297z" fill="#e97029"/></g></g><g><g><path d="m45.9347534 33.4485588c0-.0009766-.0009766-.0009766-.0009766-.0019531-.0537109-.0400391-.0664063-.1162109-.0263672-.171875.0717888-.1029015.2429199-.0634155.2646484.0712891.024479.138729-.1601142.2279739-.2373046.102539z" fill="#e97029"/></g></g><g><g><path d="m40.8722534 36.4446526.1240234-.0371094c.1637764-.0458565.2286072.1898918.0742188.2382813l-.1259766.0390625c-.1660919.0415229-.2261314-.1927186-.0722656-.2402344z" fill="#e97029"/></g></g><g><g><path d="m45.8283081 36.7366447-.0859375-.0917969-.0712891-.1035156.0419922-.0322266c.1311455-.0989342.2828674.0998611.1503906.1992188zm-.0859375-.0917968h.0029297z" fill="#e97029"/></g></g><g><g><path d="m48.4279175 15.5159416.1210938-.046875c.1573334-.0610542.243248.1741714.0917969.2324219l-.1210938.046875c-.1589661.0596113-.2422982-.1745367-.0917969-.2324219z" fill="#e97029"/></g></g><g><g><path d="m52.7130737 14.8557854-.0439453-.0458984c-.1085205-.1153011.0618477-.2940559.1835938-.1699219l.0380859.0380859c.1165314.1189089-.0612259.2942448-.1777344.1777344z" fill="#e97029"/></g></g><g><g><path d="m37.4962769 22.9876213.1601563-.0908203c.1484413-.0801125.2646713.1374893.1230469.21875l-.1601563.0908203c-.1460915.0803509-.2659951-.1367321-.1230469-.21875z" fill="#e97029"/></g></g><g><g><path d="m37.0802612 16.5657463-.125-.0390625c-.155056-.047884-.0918312-.2825012.0722656-.2402344l.125.0390625c.1542588.047638.0937272.2817326-.0722656.2402344z" fill="#e97029"/></g></g><g><g><path d="m56.1251831 28.9300041-.1650391-.0009766c-.1655502 0-.1655235-.25 0-.25l.1650391.0009766c.1655502 0 .1655235.25 0 .25z" fill="#e97029"/></g></g><g><g><path d="m62.7990112 29.3225822.0410156-.0410156c.1172256-.1172256.2938385.0592613.1777344.1777344l-.0410156.0410156c-.1167145.1167145-.2941437-.0589504-.1777344-.1777344z" fill="#e97029"/></g></g><g><g><path d="m65.1369019 24.3479729h-.0820313c-.1655502 0-.1655273-.25 0-.25h.0820313c.1655502 0 .1655273.25 0 .25z" fill="#e97029"/></g></g></g><g opacity=".52"><g><path d="m51.9181519 15.3313713c-.5820313-.2402344-1.1845703-.4619141-1.7910156-.6591797-.5253906-.1708984-.8125-.7353516-.6416016-1.2607422.171875-.5244141.7353516-.8105469 1.2607422-.6416016.6552734.2138672 1.3056641.453125 1.9355469.7138672.5107422.2099609.7529297.7949219.5419922 1.3056641-.211361.5121908-.7971116.7525654-1.3056641.5419922z" fill="#fff"/></g></g><g opacity=".52"><g><path d="m45.8214722 13.6848869c-1.96875-.2714844-3.9570313-.3076172-5.9101563-.109375-.5654297.0449219-1.0400391-.3447266-1.0966797-.8935547-.0556641-.5498047.3447266-1.0400391.8935547-1.0966797 2.1113281-.2148438 4.2607422-.1748047 6.3867188.1191406.546875.0751953.9296875.5800781.8535156 1.1269531-.076046.5573131-.5965271.9325153-1.1269531.8535157z" fill="#fff"/></g></g><g><g><g><path d="m38.0511131 40.4687386c-2.3153381.8800735-5.1583633.391468-7.1991978-.6978645-1.6959476-.7651787-3.7827282-2.4733963-3.8828049-2.5075684-.0908432-.0807228-.1819324-.1515694-.2728996-.2224159-6.917057-5.3872337-13.7818203-12.8332882-17.7755127-16.8351154.283021-.0809689.5965281-.1518154.879549-.2224159 6.4719677-1.5186882 13.1093655-1.5199356 19.6058311.424593 1.0625839.2816753 3.1521378 1.0238953 4.4994507 1.6583805 4.9627838 2.2856979 7.5566826 5.6208038 8.3923798 8.8976936 1.1284257 4.1775302-1.0230788 8.2159251-4.2467956 9.504713z" fill="#ffa96d"/></g></g><g><g><path d="m32.5404129 44.1187553c-.5855217 3.0917168-2.5744343 6.0297775-5.4903336 7.2701683-2.7603474 1.1829376-5.9857731.6773758-8.6451588-.8089485-1.9965305-1.0999985-4.1101084-3.1371536-5.7734766-6.3094025-3.0120296-5.5718422-4.941309-15.0560493-3.7107458-24.0647984 5.2711582 5.2818947 17.3743935 18.4453526 23.8017712 20.31357.0202446.3031389.0571022 2.4439966-.1820564 3.5994111z" fill="#ffa96d"/></g></g><g><g><path d="m29.4079685 20.4035244c-2.2944736 1.9436054-5.9482708 1.4328251-8.1044521 3.5358658-.7332802.708437-1.1985626 1.6451912-1.7844849 2.4715881-.59408.8357716-1.3952713 1.6184464-2.4124508 1.7437363-.1149998.0139122-.221386.0188656-.3287907.0058422l-.0092793-.0084877c-1.2982006.0043774-2.5919876-.8895721-3.7986698-.4266891-.8394022.3217983-1.3333158 1.2153149-1.5252619 2.0955009-.3383036 1.6059895.0948944 3.4889374-1.9185019 5.4481201-.6265764-2.8890457-.9622746-5.835659-.9777756-8.7787209 1.8860235-1.4084778 2.1225853-4.1125031 4.1159639-4.8344288 1.111721-.3963432 2.3324471.0561905 3.5123816-.0052357 1.6418209-.0818787 3.0887451-1.1423416 4.2089386-2.3482761.1102524-.1205273.2205048-.2410526.3214779-.3700676 2.9231321.1367207 5.8257372.6121998 8.700905 1.4712525z" fill="#f78c4c"/></g></g><g><g><path d="m40.1012306 26.6775398c-1.7897644 3.2617397-5.7235641 4.3426113-8.4438076 6.6991463-1.5414658 1.3315125-2.795393 3.130394-4.6742935 3.880928l-.0090523-.0082817s0 0-.0084896.0092773c-.0346432.0192375-.0693893.0385895-.1134167.0494537-1.2861423.4752121-2.7744751.4079361-3.9143009 1.1704025-1.6229286 1.1037941-1.9082031 3.4821587-3.4083443 4.7494087-1.8631439 1.5609283-4.7163324.869751-6.8991261 1.0452232-1.0600891-1.9785995-1.8036509-4.1123314-2.4215899-6.2509727 2.2540188-.980751 5.1134186-.0294724 7.259408-1.3459091 2.7449703-1.6891098 2.8180294-6.1668911 5.7417946-7.4679852 1.5605202-.7010765 3.4142723-.2143002 5.0269547-.7483425 2.8144608-.9266872 3.8609257-4.3527966 5.6648121-6.3976154 2.9484788 1.3634797 4.9066087 2.9768659 6.1994515 4.6152669z" fill="#f78c4c"/></g></g><g><g><path d="m32.7632904 41.4381943c.1190338 8.0625801-6.8513546 13.3581505-14.3561363 9.1411591.4042606-1.6424713 1.9210129-2.7574463 3.503643-2.8061638 1.2171574-.0275841 2.5569401.4997673 3.5951233-.1511345 1.3846531-.8619537 1.0389023-3.0345116 1.993866-4.357502 1.1135483-1.5527115 3.38237-1.3333435 5.263504-1.8263588z" fill="#f78c4c"/></g></g><g><g><path d="m42.4960327 34.5216522c-.391571 2.5877304-2.0363808 4.9997978-4.4489517 5.9433327-1.2150688.4720497-2.5543594.5581589-3.8433685.3666077.9759331-.6164246 1.3745956-1.8990059 2.08955-2.8055344.8748016-1.124012 2.2255859-1.7444267 3.5341568-2.3182373.8894195-.395565 1.7790718-.7909241 2.6686134-1.1861687z" fill="#f78c4c"/></g></g><g opacity=".5"><g><path d="m38.8489189 25.3105888c2.1909637 2.0723972 3.7507248 4.9466076 3.7517242 7.961422.0099487 3.0232124-1.7473297 6.0986023-4.5535622 7.1929741-1.687397.6529884-3.5853386.5685539-5.3248825.0500946-6.8778857-1.8297195-22.4369744-19.1836662-23.8045234-20.3108845.2900877-.0753345.5979443-.1514626.8796663-.2171974 4.5578718 4.4928226 9.4971056 8.5682964 14.7717543 12.1843891 1.9078674 1.3024864 3.875618 2.5576897 6.0762444 3.2424545 2.2002945.6846733 4.6756859.7523079 6.7370758-.2908897 2.0611649-1.0433998 3.5602875-3.3334732 3.2273521-5.6132069-.2098923-1.5202884-1.1296844-2.8044452-1.760849-4.1991558z" fill="#e97029"/></g></g><g opacity=".5"><g><path d="m32.7221985 40.5150795c.0891647 1.205513.0542755 2.4166603-.1775513 3.600853-.5913849 3.1033936-2.5864487 6.0292397-5.4927597 7.2702827-3.4994278 1.4985733-7.7233429.3083038-10.6088448-2.1778412-2.885294-2.4863739-4.6096506-6.0559769-5.7756815-9.6769218-2.0193519-6.2066727-2.6182117-12.8677273-1.7496862-19.3272572.0649595.0594234.1760921.1610832.315959.3058662-.3865433 6.1003399.6262789 12.2715931 2.9237843 17.9324131 1.0098505 2.5073242 2.301424 4.9489174 4.2351484 6.8371353 1.9340534 1.8883133 4.5704708 3.1760635 7.2578773 3.0119247 2.6965828-.1555405 5.3545303-1.9813118 6.0207958-4.5902824.4085388-1.5754814.1351032-3.2686691.247818-4.4221001.8329602.483719 1.8756142.9891778 2.8031407 1.2359277z" fill="#e97029"/></g></g><g><g><path d="m32.5119019 40.5882072c-5.6455079-1.9003906-17.8134776-14.3105468-23.6611338-20.274414-.1262274-.1262283.0507011-.3028145.15625-.1972656 4.4852753 4.574358 17.7456055 18.2691727 23.5849609 20.2353516.1577578.0517997.0741205.2914008-.0800771.236328z" fill="#e97029"/></g></g><g><g><path d="m13.3195181 37.4680901c-.1573095-.027359-.1287498-.2697067.0429688-.2460938 2.1640625.3710938 4.546876-.640625 5.7783213-2.46875 1.199501-1.7826691 1.5657578-4.7662907 3.8505859-5.6953125 1.0442886-.4234371 2.2194633-.2396679 3.2861328-.3369141 1.7011719-.1503906 3.3369141-1.0517578 4.375-2.4111328.0965214-.1309948.3016472.0189457.1992188.1523438-1.0800781 1.4140625-2.7822266 2.3515625-4.5527344 2.5087891-1.9839802.1758652-3.8647919-.5426445-5.4433594 2.7675781-.4905949 1.0242233-.8507576 2.1775131-1.5078125 3.1542969-1.2907811 1.916233-3.7781373 2.9665298-6.0283213 2.5751953z" fill="#e97029"/></g></g><g><g><path d="m23.9552612 38.0452385c-.1565247-.0134163-.1460991-.2490234.0117188-.2490234.1000156-.0195885 1.8241272.3339653 4.1835938-1.3125 2.4650059-1.7242546 4.2295761-4.5436096 7.1132813-5.6503906.1569595-.058567.243309.1742897.0898438.2324219-2.8307915 1.0867004-4.5850143 3.8921471-7.0605469 5.6230469-1.2706434.8873061-2.7936594 1.5030478-4.3378908 1.3564452z" fill="#e97029"/></g></g><g><g><path d="m21.8292847 47.7884026c-.1562252-.0245514-.1315041-.2655334.0410156-.2460938.7753906.1289063 1.5761719.2607422 2.3671875.1679688.859375-.1005859 1.5810547-.4853516 1.9794922-1.0546875.616066-.8823776.4716625-2.2041054.9853516-3.2148438.3916016-.7734375 1.1669922-1.3779297 2.1835938-1.7041016.8916016-.2861328 1.8330078-.3300781 2.7441406-.3730469.1801643.0107574.1637878.243576.0117188.25-.8945313.0419922-1.8193359.0849609-2.6796875.3613281-.9521484.3046875-1.6757813.8662109-2.0371094 1.5791016-.5140305 1.0124168-.3254585 2.2735138-1.0029297 3.2441406-.4394531.6289063-1.2255859 1.0507813-2.1552734 1.1601563-.8155347.0973778-1.6362382-.0365944-2.4375001-.1699218z" fill="#e97029"/></g></g><g><g><path d="m19.2579956 26.5110588c.8173828-2.0244141 2.6513672-3.5654297 4.7851563-4.0205078.1610279-.0350056.2146225.2089481.0527344.2441406-2.0546875.4384766-3.8193359 1.921875-4.6054688 3.8701172-.0608807.1521988-.2934609.0611935-.2324219-.09375z" fill="#e97029"/></g></g><g><g><path d="m9.4240103 25.5960197c.3789063-.8505859.7714844-1.7294922 1.3583984-2.4892578 2.1809158-2.8229313 4.3747511-.9982052 6.125001-1.8144531.1431389-.0727425.2592659.1544704.1054688.2265625-1.8676929.8749065-3.9227619-.9845142-6.0332041 1.7402344-.5683594.7363281-.9541016 1.6015625-1.3271484 2.4384766-.0659095.1506519-.296959.0494842-.2285157-.1015626z" fill="#e97029"/></g></g><g><g><path d="m22.4904175 42.3274651s0 0 0-.0009766c-.0566406-.0371094-.0722656-.1132813-.0361328-.1708984.0653152-.1026421.2397671-.0786972.2685547.0585938.0300121.1391562-.1485558.2340468-.2324219.1132812z" fill="#e97029"/></g></g><g><g><path d="m17.5802612 45.5667229.1201172-.0439453c.1600571-.0549469.2414341.1746559.0898438.234375l-.1259766.0458984c-.1553211.0554695-.2403374-.1803207-.0839844-.2363281z" fill="#e97029"/></g></g><g><g><path d="m22.3722534 45.4348869.0439453-.0380859c.1190052-.107563.2913132.0766068.1640625.1894531l-.0439453.0380859c-.122879.1075173-.2893371-.0783615-.1640625-.1894531z" fill="#e97029"/></g></g><g><g><path d="m24.1085815 24.2942619.1210938-.0517578c.1396313-.0709248.2580872.1602478.0996094.2285156l-.1171875.0517578c-.1613407.0627442-.2484055-.1628627-.1035157-.2285156z" fill="#e97029"/></g></g><g><g><path d="m28.3556519 23.4260979-.0400391-.0361328c-.1249847-.110836.0408287-.2964096.1640625-.1894531l.0429688.0400391c.1221752.1127776-.0466233.295885-.1669922.1855468z" fill="#e97029"/></g></g><g><g><path d="m13.5529165 32.2913322.15625-.0996094c.1420498-.0852318.2725716.1243782.1328125.2128906l-.1542969.0976563c-.142126.0879822-.2731685-.1232833-.1347656-.2109375z" fill="#e97029"/></g></g><g><g><path d="m12.8224478 25.8948479-.1240234-.0322266c-.1606293-.0425186-.0980339-.2865448.0625-.2421875l.1279297.0341797c.0664063.0185547.1054688.0869141.0869141.1533203-.020507.0730553-.0980521.1070118-.1533204.0869141z" fill="#e97029"/></g></g><g><g><path d="m32.2785034 37.3264885c-.1605339 0-.1684494-.2407646-.0068359-.25l.1650391-.0078125c.1550064-.0182343.1874046.2400742.0136719.25l-.1650391.0078125c-.0029297 0-.0048829 0-.006836 0z" fill="#e97029"/></g></g><g><g><path d="m39.1329956 37.3889885c.0009766 0 .0205078-.0234375.0214844-.0234375.1218185-.1319695.3032227.0327225.2070313.1435547-.0009766 0-.0205078.0234375-.0214844.0234375-.1168862.1294098-.3068467-.028553-.2070313-.1435547z" fill="#e97029"/></g></g><g><g><path d="m41.1417847 32.3079338c-.1658745 0-.1674957-.2431564-.0078125-.25h.0029297l.0761719-.0039063c.1791496.0127983.1712379.2391777.0175781.25l-.0849609.0039063c-.0009766 0-.0029298 0-.0039063 0z" fill="#e97029"/></g></g></g><g opacity=".52"><g><path d="m27.585144 23.9407463c-.5976563-.2138672-1.2099609-.4052734-1.8183594-.5693359-.5332031-.1445313-.8486328-.6933594-.7050781-1.2265625.1445313-.5351563.6982422-.8496094 1.2265625-.7050781.6601563.1787109 1.3222656.3867188 1.9707031.6181641.5195313.1855469.7910156.7578125.6044922 1.2783203-.1861267.5221538-.7628574.7898788-1.2783203.6044921z" fill="#fff"/></g></g><g opacity=".52"><g><path d="m14.3683462 21.9319572c-.0820313-.5458984.2939453-1.0556641.8398438-1.1386719 2.1035166-.3154297 4.2490244-.3798828 6.3847666-.1923828.5498047.0488281.9560547.5341797.9072266 1.0849609-.0478516.5488281-.5175781.9609375-1.0849609.9072266-1.9746094-.1748047-3.9628906-.1152344-5.9082041.1787109-.5796157.0780259-1.0594274-.3180675-1.138672-.8398437z" fill="#fff"/></g></g><g opacity=".18"><g><path d="m62.5102654 31.9450321c-.3033867.1515713-.627018.2930202-.9505234.4043522-1.7112885.560955-3.7211075.3651085-5.3185196-.2122993.1740646 5.3918076-2.70755 9.2932701-6.1880722 10.5763168-3.3748398 1.2580338-7.3326073.0322838-9.929306-2.184185-.1882515-.1584892-.6393738-.5556908-.7987061-.738102-1.9139786 1.3251114-4.3890915 1.3869553-6.6026688.7282295.0793114 1.1877022.0571022 2.4439964-.1820564 3.599411-.5055618 2.6695061-2.0524864 5.2074356-4.3275166 6.6633949-1.7593441-3.8321991-1.4662037-8.5338249.6673775-12.1537285 2.7542648-4.6411819 8.0677776-6.6837807 13.417635-7.6643963 3.9438896-.8054123 13.9091988-1.7019138 17.9170837-.2828979.8189469.2930184 1.617775.707737 2.2952729 1.2639046z"/></g></g><g><g><g><path d="m32.5727463 39.3066788c-2.8883724 3.0709572-3.7536716 6.7012711-3.1382637 9.3966179.5324116 2.5624619 2.3065872 4.8810349 4.7671204 5.6913071 1.239048.4049377 2.5810432.4177246 3.8576584.1560097 3.7996063-.7191353 6.611702-3.74897 7.0320358-3.9632187.1673126-.1530037.3523064-.3058662.5195122-.4585457 6.8555832-5.9640503 15.2917519-16.2527924 16.5693741-17.5567322-6.9121246-1.3969021-13.9154892-1.0291653-20.4487801 1.3188629-6.5503617 2.257904-8.9942551 5.2961235-9.1586571 5.415699z" fill="#ffa96d"/></g></g><g><g><path d="m39.5212631 54.1536064c-.0218391 1.1660309.0796852 2.4334259.3740807 3.5857697.7601089 3.066433 2.9120941 5.8788719 5.8818855 6.9592247 3.5596428 1.2950821 7.7061958-.1035538 10.4739647-2.7543793 1.5134735-1.4550133 2.6593933-3.2169113 3.5372238-5.1362686 2.5296135-5.412796 4.1875-14.8616638 2.3917656-24.235836-1.6933403 1.728218-16.0309677 19.424076-22.6589203 21.5814895z" fill="#ffa96d"/></g></g><g><g><path d="m41.7314034 33.8909798c2.3972702 1.8153038 6.0176888 1.1055984 8.2855835 3.0876579.7709007.667305 1.2866859 1.5772285 1.916893 2.370369.6388702.8020554 1.4816399 1.5397758 2.5041466 1.6092873.1155853.0076065.222084.0067368.3286171-.0121384l.0088043-.0089798c1.2964973-.0665817 2.5394936-1.0298996 3.7696724-.6336555.855732.2754402 1.3977432 1.1406288 1.6375046 2.0090065.4255676 1.5851021.0959244 3.4889107 2.2133827 5.3351288.4677505-2.918972.6419067-5.8795242.4965439-8.8190384-1.4928207-.9925537-1.8847351-2.4722176-2.9872551-3.6656342-1.5202904-1.780098-3.2583084-.7542534-4.8941879-.7498932-1.6438408.0079727-3.1465607-.9718246-4.330986-2.1147385-.1166763-.1143227-.2333488-.2286415-.3412247-.351944-2.9112893.2962723-5.7835694.9296723-8.6074944 1.9445725z" fill="#f78c4c"/></g></g><g><g><path d="m31.3970108 40.7400284c1.9653473 3.15905 5.952343 4.0233154 8.7973099 6.2276611 1.6119308 1.2452812 2.9622955 2.9729462 4.879406 3.6196709l.0085869-.0087662s0 0 .0089836.0088005c.0356445.0173187.0713959.0347404.1159515.0431786 1.3101921.4042168 2.7926216.2556992 3.9724159.954731 1.6808281 1.0134506 2.0956573 3.3726692 3.6628151 4.5560379 1.9456673 1.4567719 4.7568169.6106987 6.9459381.6666107.9503708-2.033577 1.57621-4.2047577 2.0763435-6.3739738-2.3042526-.8560982-5.1073875.2500305-7.3221169-.9471588-2.8331795-1.5365677-3.1508484-6.0036621-6.1413536-7.1430206-1.5965004-.6147461-3.4208794-.0273857-5.0603371-.4724922-2.8609009-.7714882-4.0930443-4.1352844-6.0059891-6.0784607-2.8695563 1.5225829-4.7365874 3.2405699-5.9379538 4.9471816z" fill="#f78c4c"/></g></g><g><g><path d="m39.5306816 55.0775871c.3217812 8.0570374 7.5711632 12.9637489 14.8342628 8.3429108-.4934196-1.6179237-2.06884-2.6483421-3.6517677-2.6104927-1.2168465.0389786-2.5258026.6387634-3.598011.0455704-1.4296913-.7849884-1.2031898-2.9731941-2.2290306-4.2420197-1.196743-1.4895325-3.4501839-1.1464958-5.3554535-1.5359688z" fill="#f78c4c"/></g></g><g><g><path d="m29.4344826 48.7032967c.5324116 2.5624619 2.3065872 4.8810349 4.7671204 5.6913071 1.239048.4049377 2.5810432.4177246 3.8576584.1560097-1.0081635-.5621643-1.476326-1.8210411-2.2397537-2.6871414-.9349213-1.0745239-2.3175964-1.6201897-3.655571-2.121624-.90971-.346367-1.8196374-.6925126-2.7294541-1.0385514z" fill="#f78c4c"/></g></g><g opacity=".5"><g><path d="m32.5727463 39.3066788c-2.0744286 2.1890373-3.4747791 5.1441994-3.3110123 8.1545639.1552906 3.0192337 2.0780201 5.993988 4.9398689 6.9333611 1.720562.5597916 3.6110497.3717575 5.3196602-.2409973 6.7676086-2.2028732 21.3550186-20.381218 22.6589203-21.5814896-.2937737-.0593719-.6053314-.118557-.8902245-.1688004-4.3055191 4.7352066-9.014637 9.0745277-14.0837746 12.973484-1.8338356 1.404808-3.7300453 2.7656784-5.8899574 3.5696907-2.1595879.8038979-4.6275826 1.0067139-6.7429047.0777359-2.1151085-.9291954-3.7371483-3.1339149-3.5293026-5.4284363.1264897-1.5294875.9747258-2.8619918 1.5287267-4.289112z" fill="#e97029"/></g></g><g opacity=".5"><g><path d="m39.5212631 54.1536064c-.0231476 1.2085876.0778809 2.4160156.3740807 3.5857697.7601089 3.066433 2.9120941 5.8788719 5.8818855 6.9592247 3.5760956 1.3050842 7.7286491-.1142502 10.4739647-2.7543793 2.7450981-2.6403427 4.2717934-6.298851 5.2381897-9.9781113 1.6771278-6.3077583 1.9110527-12.9915848.6907997-19.3939934-.061615.0628815-.1670265.1704636-.2987709.3226776.7193604 6.0700951.0453224 12.2874756-1.9393768 18.0653992-.8713112 2.5587692-2.0275154 5.0672989-3.8551521 7.0583763-1.8279648 1.9911919-4.3900642 3.4211044-7.0824242 3.4040794-2.7010536-.0079308-5.4548111-1.6857147-6.2626648-4.2543716-.4940338-1.5508003-.3135414-3.2564011-.4891243-4.401947-.8052788.5285187-1.8187523 1.0902062-2.7314072 1.3872757z" fill="#e97029"/></g></g><g><g><path d="m39.6427612 53.9837151c5.7353096-2.2879829 18.2193298-16.6867104 22.4433594-21.4931641.1077499-.1264915.2969017.0406952.1875.1640625l-.0302734.0351563c-5.5107422 6.2714844-16.9785156 19.3212891-22.5087891 21.5263672-.1535606.0614242-.2458267-.1717454-.0917969-.2324219z" fill="#e97029"/></g></g><g><g><path d="m52.5685425 47.8089104c-.7089729-.9384766-1.1363564-2.0780754-1.6767578-3.0673828-1.7585487-3.2114792-3.5723419-2.3942146-5.5878906-2.4667969-1.7773438-.0595703-3.5273438-.9033203-4.6826172-2.2558594-.1081696-.1269798.0850449-.2878723.1894531-.1621094 1.1103516 1.2998047 2.7929688 2.1103516 4.5009766 2.1679688 1.9444656.0726395 3.9490662-.7818108 5.7988281 2.5976563.5598297 1.0234375.9684944 2.1246643 1.6572266 3.0361328 1.3291016 1.7568359 3.7568359 2.6435547 5.9042969 2.1484375.1657181-.0353546.2153549.2073364.0566406.2441406-2.2421609.5117416-4.7722893-.4068909-6.1601563-2.2421875z" fill="#e97029"/></g></g><g><g><path d="m36.3771362 44.8626213c-.1582489-.0511971-.0813828-.2876625.0761719-.2382813 2.9860039.9619217 4.8206139 3.6472321 7.4130859 5.2539063 1.0175781.6308594 2.5800781 1.3330078 4.2373047 1.0830078.1755829-.012722.1919746.2237091.0371094.2480469-4.8646507.7114296-7.5387497-4.9860649-11.7636719-6.3466797z" fill="#e97029"/></g></g><g><g><path d="m48.3712769 61.1243401c-.9365234-.0595703-1.7441406-.4384766-2.2158203-1.0410156-.732502-.9371719-.6110306-2.2043953-1.1787109-3.1855469-.5419922-.9335938-1.5615234-1.3183594-2.1201172-1.4648438-.8554153-.2241058-1.7835503-.2217026-2.6962891-.2138672-.1630402 0-.1675835-.247654-.0009766-.25.9091797-.0048828 1.8505859-.0166016 2.7597656.2216797 1.03125.2695313 1.8388672.8310547 2.2744141 1.5820313.5659828.97855.4936333 2.3056335 1.1591797 3.15625.4277344.5458984 1.1689453.890625 2.0341797.9453125.7919922.0527344 1.5869141-.1259766 2.3544922-.296875.170723-.0306435.2105865.2102509.0546875.2441406-.8171082.1811943-1.5953179.3520126-2.4248047.3027344z" fill="#e97029"/></g></g><g><g><path d="m51.9728394 39.5403557c-.890625-1.9013672-2.7333984-3.2861328-4.8095703-3.6123047-.1711845-.0269012-.114048-.2901115.0390625-.2460938 2.15625.3378906 4.0712891 1.7763672 4.9970703 3.7529297.0697708.1488419-.1560631.2560845-.2265625.1054688z" fill="#e97029"/></g></g><g><g><path d="m61.7462769 38.0969963c-.4179688-.8144531-.8496094-1.65625-1.4589844-2.3613281-2.2674141-2.6231499-4.1685638-.6240959-6.1181641-1.4082031-.1499748-.0622978-.0647659-.2900658.09375-.2324219 1.8039818.7307625 3.8624344-1.2391319 6.2138672 1.4765625.6289063.7285156 1.0673828 1.5839844 1.4921875 2.4121094.0750885.1454849-.1468239.2616462-.2226562.1132812z" fill="#e97029"/></g></g><g><g><path d="m49.6671753 55.4475822c-.1127319-.0637169-.084446-.2402649.0507813-.2724609.1538696-.0215416.2254372.1495247.1181641.2294922-.0340272.0552902-.1057282.0777397-.1689454.0429687z" fill="#e97029"/></g></g><g><g><path d="m54.8449097 58.6106682-.125-.0380859c-.1534157-.0473785-.0943146-.280014.0722656-.2402344l.125.0380859c.0664063.0205078.1035156.0898438.0839844.15625-.0186806.0604324-.0804634.102932-.15625.0839844z" fill="#e97029"/></g></g><g><g><path d="m49.9728394 58.6985588s-.0234375-.0175781-.0244141-.0185547c-.1387558-.1084824.0080681-.3069801.1289063-.2158203l.0458984.0351563c.1335487.1001625-.0218697.2998008-.1503906.1992187z" fill="#e97029"/></g></g><g><g><path d="m47.1456909 37.7210197-.0263672-.0107422-.0927734-.0341797c-.1563873-.0560188-.0712662-.290432.0839844-.2363281l.0986328.0371094c.0644531.0244141.109375.1015625.0849609.1660156-.0254402.067421-.0856476.1005517-.1484375.078125z" fill="#e97029"/></g></g><g><g><path d="m42.772644 36.8557854c-.1273041-.1175117.0908623-.3446846.2138672-.2216797.0478516.0488281.0478516.1289063 0 .1777344l-.0371094.0371094c-.0457229.0493812-.1247024.0547256-.1767578.0068359z" fill="#e97029"/></g></g><g><g><path d="m58.0890503 45.1126213-.1601563-.0898438c-.1444931-.0829048-.0202026-.299614.1230469-.21875l.1601563.0898438c.0595703.0341797.0810547.1103516.0478516.1708984-.0358239.062687-.1130563.0796662-.1708985.0478516z" fill="#e97029"/></g></g><g><g><path d="m58.5158081 38.2288322.0976563-.0302734.0634766.1103516.0136719.1269531-.1025391.0332031c-.166092.041523-.2261315-.1927185-.0722657-.2402344z" fill="#e97029"/></g></g><g><g><path d="m39.6183472 50.9475822c-.164856 0-.1653099-.2476997-.0019531-.25.0170364-.0002022-.0615959.0007401.1660156-.0019531.164856 0 .1653099.2476997.0019531.25l-.1640625.0019531s-.0009766 0-.0019531 0z" fill="#e97029"/></g></g><g><g><path d="m32.7706909 51.5579338.0888672-.0888672-.1074219.0693359c-.0009766 0-.0224609-.0214844-.0234375-.0214844-.1160622-.1184311.0604362-.2950325.1777344-.1777344l.0419922.0410156c.1165314.1189081-.0612259.2942468-.1777344.1777345z" fill="#e97029"/></g></g><g><g><path d="m30.5792847 46.4202385c-.1626949 0-.1662922-.243084-.0048828-.25l.0869141-.0009766c.1655483 0 .1655235.25 0 .25l-.0771484.0009766c-.0019532 0-.0039064 0-.0048829 0z" fill="#e97029"/></g></g></g><g opacity=".18"><g><path d="m44.6739006 30.5900364c-.6243629.0735607-1.7288971.2418404-2.3759918.3739891-.8817673-3.4575367-3.7694969-7.0815182-9.4439888-9.3528976-.0506058-.7279778-.0909653-1.4660797-.1010857-2.1940594 2.3558731.6571331 4.6309013 1.5976543 6.6126671 3.0131302 2.5885353 1.8403149 4.651268 4.5601788 5.2376747 7.6846409.030365.1616897.0606041.3233814.0707245.4751968z"/></g></g></g></g></g></g></svg>