<svg fill="none" height="2500" viewBox="0 0 2500 2500" width="2500" xmlns="http://www.w3.org/2000/svg"><path d="m747.733 816.94c-37.472 10.511-31.394 59.484-19.936 94.287 2.293 6.967 4.802 13.366 7.221 18.775 29.649-2.143 99.676-23.465 161.421-44.175-4.37-4.24-8.681-8.523-12.899-12.801-10.064-1.739-18.903-4.567-26.168-8.8-26.942-15.699-51.459-32.476-66.962-52.426-12.242-.863-24.373.006-42.677 5.14z" fill="#b13f1e"/><path d="m880.51 1376.03-34.972 3.93-16.712 1.88-27.027 3.04-25.412 2.86-20.597 2.31s-29.346-23.53-38.254-21.03c-6.813 1.92-41.399 49.16-41.399 56.58 0 1.49 1.818 4.74 4.908 9.16 16.046 22.93 66.397 77.42 74.745 82.45 6.922 4.18 73.354-19.47 114.798-42.01 18.173-9.88 31.542-19.55 32.98-26.57 2.289-11.18-.114-28.95-4.633-44.11-4.789-16.07-11.954-29.22-18.425-28.49z" fill="#b13f1e"/><path d="m2331.15 953.417c9.68 14.966 8.45 25.628 0 32.851-15.53 13.261-55.45 14.922-97.04 10.344 4 5.578 12.5 11.658 23.85 18.218 8.26 4.77 18.04 9.78 28.7 15.03 7.33 3.61 15.08 7.32 23.04 11.14 42.56 20.41 91.32 43.78 115.29 69.31-10.14-39.01-25.32-77-45.11-113.698-26.45-49.026-61.13-95.75-103.05-139.554 11.02 16.426 20.24 34.167 29.29 51.591 8.09 15.562 16.04 30.872 25.03 44.768z" fill="#2e4e53"/><path d="m2060.11 785.021c20.43-1.644 47.43-2.382 87-.861 28.84 1.109 51.93 7.468 70.96 17.407-128.82-110.385-306.54-197.822-513.73-250.388 5.27 5.694 10.58 11.993 16.38 18.869v.005c4.5 5.323 9.28 10.992 14.56 16.995 8.93 10.16 19.28 21.275 32.05 33.288 11.18 10.528 36.68 29.527 51.18 39.012 20.48 8.783 41.29 20.674 62.92 33.03 29.91 17.093 61.39 35.077 95.69 46.958 68 23.549 83.66 40.269 82.99 45.685z" fill="#2e4e53"/><path d="m60.0963 1226.23c0 403.26 532.7377 730.17 1189.9037 730.17-893.319-28.21-1330.3887-557.38-1057.801-977.207-19.26-11.749-30.899-25.936-37.24-39.133-61.067 87.88-94.8627 184.6-94.8627 286.17z" fill="#001a31"/><path d="m267.89 863.635.05-.014c13.925-4.072-19.38-28.662 46.128-66.082 10.612-6.061 20.855-13.507 30.749-21.729 18.117-15.059 35.058-32.725 50.927-49.272 7.237-7.546 14.251-14.86 21.051-21.588-88.015 52.98-162.672 114.288-220.581 181.845 19.157-7.399 43.483-14.997 71.676-23.16z" fill="#001a31"/><path clip-rule="evenodd" d="m1203.66 542.621c-64.72-1.478-85.08-1.942-155.48 51.172-37.73 28.463-82.991 38.789-125.914 48.58-9.764 2.227-19.407 4.427-28.812 6.806-76.664-6.688-152.764-5.062-176.942 20.581-20.071 21.287-41.345 29.57-59.78 36.748-.55.214-1.098.427-1.644.64-.28.109-.559.218-.837.327l-12.257.418c-17.598 5.131-54.277-6.804-90.671-18.646-.755-.246-1.511-.492-2.265-.737-.755-.246-1.51-.491-2.264-.736 176.357-87.261 336.746-170.177 703.206-191.711 96.73 0 190.77 7.083 280.81 20.45-59.79 6.376-115.37 21.514-127.06 44.228-4.25 8.247-11.02 22.251-18.8 39.158-27.93-25.851-77.09-56.687-139.46-56.687-15.93 0-29.66-.313-41.83-.591z" fill="#2e4e53" fill-rule="evenodd"/><path d="m1250 496.063c-294.143 0-563.358 65.492-771.032 174.01 17.593 1.627 42.174 9.37 67.32 17.536l.506.165c176.357-87.261 336.746-170.177 703.206-191.711z" fill="#000"/><path d="m1250 1956.4c143 0 280.11-15.48 407.13-43.86 5.7-1.27 11.38-2.57 17.05-3.9 447.71-104.85 765.72-370.84 765.72-682.41 0-23.07-1.74-45.89-5.15-68.41-1.32 1.96-2.87 3.84-4.65 5.62.11 5.48.11 11.01 0 16.59-2.61 126.83-64.75 279.68-203.36 416.45 2.13 12.29-15.45 27.26-42.75 39.51-4.76 4.13-9.6 8.24-14.52 12.33-.3.26-.61.51-.91.76-.26.22-.52.43-.78.65-187.45 155.25-484.14 280.44-917.78 306.67z" fill="#001a31"/><path d="m1118.29 1734.54c131.71 13.53 236.25 8.52 250.4 0 8.43-5.07-32.91-22.35-71.34-36.45 24.1 10.47 37.46 22.52-3.78 27.44-43.47 5.18-75.36-2.38-108.02-10.12l-.01-.01c-24.16-5.72-48.75-11.55-78.77-12.41-44.14-1.25-117.561 5.12-174.649 10.08h-.006-.004-.003c-34.24 2.97-62.601 5.43-75.237 5.43-23.524 0-26.555-20.73-29.083-38.02-1.074-7.34-2.057-14.06-4.481-18.31 1.602 3.06-1.086 10.15-4.355 18.78-7.599 20.05-18.338 48.38 14.381 53.59 19.352 3.09 48.612 1.36 85.485-.81 53.022-3.12 121.782-7.16 199.472.81z" fill="#fdffe3"/><path d="m530.135 1408.94c-3.114-.17-5.994-.37-8.603-.6-30.426-2.66-55.232 12.39-75.647 24.78-15.509 9.41-28.483 17.29-39.462 14.69-8.874-2.1-17.34.28-25.768 2.64-15.727 4.42-31.322 8.81-49.187-16.02 0 52.05 33.661 45.4 58.397 40.52 6.346-1.25 12.105-2.39 16.558-2.39 14.315 0 33.458-10.67 53.236-21.69 10.35-5.76 20.873-11.63 30.97-16.11 23.514-10.44 91.571 4.35 122.661 13.05 3.895-5.1 7.716-10.09 11.42-14.92-32.349-3.14-66.24-10.25-94.575-23.95z" fill="#c8b187"/><path clip-rule="evenodd" d="m613.29 1447.81c-20.759 27.17-43.612 57.39-61.91 82.41-21.479 28.75-36.643 43.65-45.25 52.1-8.652 8.5-10.678 10.49-5.829 13.5 4.546 2.83 24.122-.71 52.782-5.89 32.312-5.84 76.171-13.77 123.054-17.02 6.779-.47 13.409-.97 19.874-1.45 77.907-5.82 131.777-9.84 131.777 53.91 0 55.23 76.146 34.94 114.219 17.89 21.034 14.73 85.333 36.67 174.283 6.65 38.81-20.83 146.46-62.49 266.55-62.49 150.11 0 306.35-8.63 409.49-82.24 7.78 12.4 18.68 27.14 32.17 39.88 10.12 9.56 17.4 16.23 24.05 22.33l.01.01c4.62 4.24 8.94 8.2 13.71 12.67-5.17.34-9.31 3.29-15.02 7.35-10.81 7.69-27.24 19.37-66.88 24.96-89.36 12.61-129.38 22.96-160 30.88-47.28 12.23-72.17 18.67-221.63 18.67-126.92 0-58.66 28.72 7.51 56.57 74.49 31.35 122.61 51.6 17.03 51.6-93.87 0-150.69 2.88-221.66 6.49h-.01-.02-.01c-.01 0-.01 0-.02 0s-.01 0-.02 0c-34.61 1.76-72.58 3.68-119.86 5.53-320.562 12.52-397.35-29.59-346.662-73.12 10.028-8.61 23.026-16.47 34.887-23.64 48.15-29.13 77.563-46.92-186.471-57.49-228.751-9.15-179.174-29.61-132.61-48.83 32.257-13.31 63.068-26.03-1.104-33.98-156.805-19.41-204.327-125.35-149.74-204.96 50.993-74.37-21.243-136.44-89.447-195.05-4.808-4.13-9.596-8.24-14.319-12.34-44.791-38.88 7.929-93.84 61.043-131.25 31.639 5.04 71.787 5.38 122.396-1.882-7.62 11.172-24.012 24.562-41.238 38.632-28.16 23-58.547 47.81-56.47 67.74 1.739 16.69 18.301 25.61 34.56 34.36 15.025 8.09 29.792 16.05 32.363 29.86.457 2.45.954 5.37 1.511 8.65h.001c5.985 35.15 18.95 111.29 63.527 91.7-51.31 68.44-97.972 142.32-82.439 163.91 0 52.05 33.661 45.4 58.397 40.52 6.346-1.25 12.105-2.39 16.558-2.39 14.315 0 33.458-10.67 53.236-21.69 10.35-5.76 20.873-11.63 30.97-16.11 23.514-10.44 91.571 4.35 122.661 13.05zm205.662 233.14c3.269-8.63 5.957-15.72 4.355-18.78 2.424 4.25 3.407 10.97 4.481 18.31 2.528 17.29 5.559 38.02 29.083 38.02 12.636 0 40.997-2.46 75.237-5.43h.003.004.006c57.088-4.96 130.509-11.33 174.649-10.08 30.02.86 54.61 6.69 78.77 12.41l.01.01c32.66 7.74 64.55 15.3 108.02 10.12 41.24-4.92 27.88-16.97 3.78-27.44 38.43 14.1 79.77 31.38 71.34 36.45-14.15 8.52-118.69 13.53-250.4 0-77.69-7.97-146.45-3.93-199.472-.81-36.873 2.17-66.133 3.9-85.485.81-32.719-5.21-21.98-33.54-14.381-53.59z" fill="#ecd091" fill-rule="evenodd"/><path d="m587.668 1569.48c-46.593 12.41-76.828 20.47-66.136 3.43 5.993-9.55 16.755-24.79 29.848-42.69-21.479 28.75-36.643 43.65-45.25 52.1-8.652 8.5-10.678 10.49-5.829 13.5 4.546 2.83 24.122-.71 52.782-5.89 32.312-5.84 76.171-13.77 123.054-17.02 6.779-.47 13.409-.97 19.874-1.45 77.907-5.82 131.777-9.84 131.777 53.91 0 55.23 76.146 34.94 114.219 17.89 21.034 14.73 85.333 36.67 174.283 6.65 38.81-20.83 146.46-62.49 266.55-62.49 150.11 0 306.35-8.63 409.49-82.24-5.81-9.28-9.87-17.25-11.96-22.12-4.31 1.96-8.65 3.96-13.04 5.98l-.02.01c-57.42 26.41-121.78 56.01-185.07 56.01-8.47 7.98-48.26 10.34-106.03 13.76-47.04 2.79-105.99 6.28-169.66 14.09-49.73 6.1-96.25 21.04-139.64 34.97-80.44 25.83-150.15 48.22-209.706 4.5-104.309 38.29-105.322 20.25-106.885-7.55-1.184-21.08-2.683-47.76-49.716-59.77-61.983-15.82-151.622 8.07-212.935 24.42z" fill="#c8b187"/><g fill="#712213"><path clip-rule="evenodd" d="m1022.79 1204.29c-22.33 2.16-43.696 6.41-64.023 11.74-.266.07-.532.14-.797.21-.228.06-.455.12-.683.18-22.289 5.92-43.321 13.12-62.991 20.26-18.104 13.49-46.496 36.19-71.129 59.2 59.464-31.27 89.322-37.61 135.6-45.79 2.59-.46 5.231-.92 7.931-1.39 27.982-4.91 62.352-10.94 112.072-23.3l.12-1.52v-.01c1.01-13.22 1.8-23.48 2.79-28.9-18.84 4.19-38.59 7.36-58.89 9.32zm56.1 19.58v.01l-.12 1.52c.04-.51.08-1.02.12-1.53z" fill-rule="evenodd"/><path d="m894.296 1236.68c-6.777 2.46-13.393 4.91-19.844 7.31-4.322 1.6-8.571 3.18-12.743 4.71-16.007 5.87-30.898 11.1-44.603 14.75 4.474 9.94 6.571 20.77 6.061 32.43 24.633-23.01 53.025-45.71 71.129-59.2z"/><path d="m1225.97 1125.35c-27.96 29.88-80.92 55.52-144.29 69.62-.99 5.42-1.78 15.68-2.79 28.9v.01l-.12 1.52c12.06-3 25.02-6.37 39.02-10.19 39.9-10.88 68.69-25.05 89.08-40.56 6.43-4.89 12.03-9.92 16.88-15.02 1.31-13.75 2-25.65 2.22-34.28z"/><path d="m1246.98 1085.21c-1.66 13.78-9.04 27.35-21.01 40.14-.22 8.63-.91 20.53-2.22 34.28 34.26-36.05 31.07-75.79 20.53-97.84 2.75 6.56 3.82 14.19 2.7 23.42z"/><path d="m823.167 1295.88c-1.162 26.56-15.846 57.42-46.78 91.86l25.412-2.86c26.977-5.56 40.048-20.41 40.048-62.5 0-40.33 73.525-64.04 116.92-72.29-46.278 8.18-76.136 14.52-135.6 45.79z"/></g><path d="m966.698 1453.32c-24.691 9.29-17.376-44.01 0-68.44 17.377-24.43 59.442-30.05 37.412-3.76-5.206 6.2-10.092 14.01-13.254 23.4-3.163 9.39-4.174 16.89-5.006 23.06-1.682 12.48-2.632 19.53-19.152 25.74z" fill="#d6723e"/><path d="m1078.77 1225.4c-49.72 12.36-84.09 18.39-112.072 23.3-2.7.47-5.341.93-7.931 1.39-43.395 8.25-116.92 31.96-116.92 72.29 0 42.09-13.071 56.94-40.048 62.5l27.027-3.04 16.712-1.88c9.284-2.83 19.305-9.08 25.05-21.52 5.765-12.48 19.879 1.79 33.597 15.65 15.347 15.51 30.198 30.51 32.314 7.03 4.006-44.48 59.094-69.89 83.081-58.74 19.18 8.93 44.44-27.99 54.68-47.57 1.9-16.5 3.18-32.17 4.21-45.41.03-.48.07-.96.11-1.43.01-.21.03-.41.04-.61z" fill="#a73719"/><path clip-rule="evenodd" d="m1019.58 1322.38c19.18 8.93 44.44-27.99 54.68-47.57-3.54 30.58-9.23 64.02-19.46 90.14-5.02 12.84-11.13 23.91-18.63 32.01-34.33 11.66-49.611 61.3-59.004 91.82-4.302 13.97-7.369 23.94-10.468 24.41-9.864 1.5-78.777-32.55-62.513-46.07 18.94-17.2 4.392-48.9-5.25-62.6-4.789-16.07-11.954-29.22-18.425-28.49l-34.972 3.93c9.284-2.83 19.305-9.08 25.05-21.52 5.765-12.48 19.879 1.79 33.597 15.65 15.347 15.51 30.198 30.51 32.314 7.03 4.006-44.48 59.094-69.89 83.081-58.74zm59.31-98.5v-.01c-.09 1.14-.18 2.31-.27 3.49l.15-1.96zm-93.04 203.7c.832-6.17 1.843-13.67 5.006-23.06 3.162-9.39 8.048-17.2 13.254-23.4 22.03-26.29-20.035-20.67-37.412 3.76-17.376 24.43-24.691 77.73 0 68.44 16.52-6.21 17.47-13.26 19.152-25.74z" fill="#ca6234" fill-rule="evenodd"/><path d="m903.568 1448.63c-1.438 7.02-14.807 16.69-32.98 26.57 13.476 7.22 27.278 16.03 40.402 24.41 33.15 21.17 61.975 39.58 70.307 22.46 3.656-7.51 6.387-17.92 9.558-30.01h.001.001c7.28-27.75 16.883-64.34 45.313-95.1-34.33 11.66-49.611 61.3-59.004 91.82-4.302 13.97-7.369 23.94-10.468 24.41-9.864 1.5-78.777-32.55-62.513-46.07 18.94-17.2 4.392-48.9-5.25-62.6 4.519 15.16 6.922 32.93 4.633 44.11z" fill="#a73719"/><path clip-rule="evenodd" d="m652.423 1132.71c-10.167-16.8-20.283-33.1-30.506-47.5-9.993-14.08-17.965-28.05-23.931-41.48-20.406-45.926-17.353-85.488 8.539-101.017 22.05-13.226 46.717-12.797 76.872-12.116-34.059 5.583-62.03 23.75-41.403 68.981 38.93 85.362 157.015 257.982 315.293 216.842-22.289 5.92-43.321 13.12-62.991 20.26-6.777 2.46-13.393 4.91-19.844 7.31-4.322 1.6-8.571 3.18-12.743 4.71-5.644 2.02-21.253 2.19-38.542-13.35-1.241-1.11-2.406-2.17-3.511-3.16-18.138-16.36-19.919-17.96-69.956-47.53-42.468-25.09-76.098-34.38-87.604-35.9-.688-1.14-1.375-2.28-2.062-3.42-2.542-4.23-5.078-8.45-7.611-12.63z" fill="#ca6234" fill-rule="evenodd"/><path d="m677.098 1173.42c56.744 7.39 84.104 31.56 111.407 55.68 2.365 2.08 4.729 4.17 7.112 6.25 9.573 8.35 16.823 17.74 21.489 28.1 13.705-3.65 28.596-8.88 44.603-14.75-5.644 2.02-21.253 2.19-38.542-13.35-1.241-1.11-2.406-2.17-3.511-3.16-18.138-16.36-19.919-17.96-69.956-47.53-42.468-25.09-76.098-34.38-87.604-35.9 4.971 8.27 9.966 16.54 15.002 24.66z" fill="#b13f1e"/><path d="m1056.19 1017.4c25.49 17.52-6.51 8.67-33.55-7.94-14.08-8.64-25.175-12.244-37.31-16.183-11.174-3.627-23.231-7.541-39.316-15.944-16.134-8.428-26.826-20.214-35.917-30.236-9.816-10.821-17.767-19.584-28.687-19.844-9.46-.226-35.028 3.376-57.794 6.582-27.852 3.923-51.512 7.256-36.356 2.269 30.096-10.553 74.192-23.852 96.28-22.874 16.022.71 23.473 8.567 33.15 18.772 10.816 11.405 24.413 25.744 55.866 36.316 42.814 14.392 54.124 24.39 66.544 35.382 4.87 4.3 9.91 8.76 17.09 13.7z" fill="#ca6234"/><path clip-rule="evenodd" d="m684.263 930.617c15.37.348 32.163.728 50.755-.615 29.649-2.143 99.676-23.465 161.421-44.175 34.628 33.596 73.026 64.518 99.154 68.907 20.417 3.43 53.777 28.104 89.767 54.726 3.56 2.63 7.14 5.29 10.74 7.94 11.07 18.98 20.69 62.8-29.39 86.13-36.59 17.05-15.44 18.66 5.57 20.25 14.94 1.13 29.82 2.26 23.82 8.93-.94 1.04-1.93 2.18-2.98 3.37-15.09 17.21-42.62 48.58-107.27 48.58-39.475 0-71.848-12.64-93.074-20.94-15.962-6.24-25.621-10.01-27.257-4.09-3.048 11.03 59.909 42.46 91.768 56.79-158.278 41.14-276.363-131.48-315.293-216.842-20.627-45.231 7.344-63.398 41.403-68.981zm199.277-17.387c16.022.71 23.473 8.567 33.15 18.772 10.816 11.405 24.413 25.744 55.866 36.316 42.814 14.392 54.124 24.39 66.544 35.382 4.87 4.3 9.91 8.76 17.09 13.7 25.49 17.52-6.51 8.67-33.55-7.94-14.08-8.64-25.175-12.244-37.31-16.183-11.174-3.627-23.231-7.541-39.316-15.944-16.134-8.428-26.826-20.214-35.917-30.236-9.816-10.821-17.767-19.584-28.687-19.844-9.46-.226-35.028 3.376-57.794 6.582-27.852 3.923-51.512 7.256-36.356 2.269 30.096-10.553 74.192-23.852 96.28-22.874z" fill="#b13f1e" fill-rule="evenodd"/><path d="m1022.79 1204.29c20.3-1.96 40.05-5.13 58.89-9.32 63.37-14.1 116.33-39.74 144.29-69.62 11.97-12.79 19.35-26.36 21.01-40.14 1.12-9.23.05-16.86-2.7-23.42-21.6 45.61-87.16.55-148.18-44.39 11.07 18.98 20.69 62.8-29.39 86.13-36.59 17.05-15.44 18.66 5.57 20.25 14.94 1.13 29.82 2.26 23.82 8.93-.94 1.04-1.93 2.18-2.98 3.37-15.09 17.21-42.62 48.58-107.27 48.58-39.475 0-71.848-12.64-93.074-20.94-15.962-6.24-25.621-10.01-27.257-4.09-3.048 11.03 59.909 42.46 91.768 56.79.228-.06.455-.12.683-.18.265-.07.531-.14.797-.21 20.327-5.33 41.693-9.58 64.023-11.74z" fill="#a73719"/><path d="m449.72 1545.06c-156.805-19.41-204.327-125.35-149.74-204.96 50.993-74.37-21.243-136.44-89.447-195.05-4.808-4.13-9.596-8.24-14.319-12.34-44.791-38.88 7.929-93.84 61.043-131.25-11.453-1.826-21.792-4.268-31.108-7.191-6.11 8.431-13.327 17.951-21.822 28.641-52.93 66.6-55.088 107.9-32.552 122.14 22.536 14.25 118.69 87.19 128.205 139.27 3.873 21.2-5.115 34.39-15.312 49.34-14.854 21.79-45.295 54.57-29.259 114.15 22.749 84.52 140.734 97.92 185.971 106.82h.004.013c8.531 1.68 14.936 2.94 18.262 4.13 13.751 4.93-1.294 12.12-20.34 21.23-9.978 4.77-21.055 10.06-29.663 15.83-25.04 16.78-20.11 29.55 50.003 38.56 24.396 3.14 87.894 4.58 135.768 6.11 89.71 2.88 189.894 6.09 185.322 21.44-2.784 9.34-26.503 16.66-39.563 23.43-19.831 10.27-42.421 23.02-52.083 55.69-16.026 54.2 308.493 67.11 459.237 59.1 48.82-2.6 97.43-3.46 142.31-4.25 93.69-1.66 204.67-.53 233.79-16.78 30.02-16.76-77.89-55.24-125.02-78.04-20.5-9.92-35.84-17.34-35.24-19.62.83-3.09 19.44-1.01 30.55 0 15.92 1.44 33.54 2.65 106.67 0 76.6-2.78 113.96-12.62 150.5-22.25 22.7-5.98 45.08-11.88 76.37-15.95 65.3-8.49 116.54-28.82 134-37.92 26.57 42.41 51.32 46.42 94.88 53.48 18.35 2.97 40.03 6.48 66.59 13.62 69.66 18.75 123.85-6.51 144.04-22.71l.78-.65.91-.76c4.92-4.09 9.76-8.2 14.52-12.33-36.02 16.16-88.98 27.59-135.93 21.88-12.62-1.53-23.92-2.83-34.09-3.99l-.01-.01c-69.69-7.99-86.95-9.97-118.49-41.49-15.11-15.11-24.84-24.48-33.2-32.31-5.17.34-9.31 3.29-15.02 7.35-10.81 7.69-27.24 19.37-66.88 24.96-89.36 12.61-129.38 22.96-160 30.88-47.28 12.23-72.17 18.67-221.63 18.67-126.92 0-58.66 28.72 7.51 56.57 74.49 31.35 122.61 51.6 17.03 51.6-93.87 0-150.69 2.88-221.66 6.49h-.01-.02-.01-.02-.02c-34.61 1.76-72.58 3.68-119.86 5.53-320.562 12.52-397.35-29.59-346.662-73.12 10.028-8.61 23.026-16.47 34.887-23.64 48.15-29.13 77.563-46.92-186.471-57.49-228.751-9.15-179.174-29.61-132.61-48.83 32.257-13.31 63.068-26.03-1.104-33.98z" fill="#223b42"/><path d="m192.199 979.193c-272.5877 419.827 164.482 948.997 1057.801 977.207 433.64-26.23 730.33-151.42 917.78-306.67-20.19 16.2-74.38 41.46-144.04 22.71-26.56-7.14-48.24-10.65-66.59-13.62-43.56-7.06-68.31-11.07-94.88-53.48-17.46 9.1-68.7 29.43-134 37.92-31.29 4.07-53.67 9.97-76.37 15.95-36.54 9.63-73.9 19.47-150.5 22.25-73.13 2.65-90.75 1.44-106.67 0-11.11-1.01-29.72-3.09-30.55 0-.6 2.28 14.74 9.7 35.24 19.62 47.13 22.8 155.04 61.28 125.02 78.04-29.12 16.25-140.1 15.12-233.79 16.78-44.88.79-93.49 1.65-142.31 4.25-150.744 8.01-475.263-4.9-459.237-59.1 9.662-32.67 32.252-45.42 52.083-55.69 13.06-6.77 36.779-14.09 39.563-23.43 4.572-15.35-95.612-18.56-185.322-21.44-47.874-1.53-111.372-2.97-135.768-6.11-70.113-9.01-75.043-21.78-50.003-38.56 8.608-5.77 19.685-11.06 29.663-15.83 19.046-9.11 34.091-16.3 20.34-21.23-3.326-1.19-9.731-2.45-18.262-4.13h-.013-.004c-45.237-8.9-163.222-22.3-185.971-106.82-16.036-59.58 14.405-92.36 29.259-114.15 10.197-14.95 19.185-28.14 15.312-49.34-9.515-52.08-105.669-125.02-128.205-139.27-22.536-14.24-20.378-55.54 32.552-122.14 8.495-10.69 15.712-20.21 21.822-28.641-13.315-4.177-24.542-9.336-33.95-15.076z" fill="#2e4e53"/><path d="m6.00977 1249.77c0 434.51 556.95323 786.76 1243.99023 786.76-1153.846-91.75-1301.5824-669.07-1216.7368-951.32-17.8572 53.07-27.25343 108.12-27.25343 164.56z" fill="#e8e9ea"/><path d="m1704.34 551.179c207.19 52.566 384.91 140.003 513.73 250.388 25.6 13.372 43.83 33.223 58.76 55.491 41.92 43.804 76.6 90.528 103.05 139.554 19.79 36.698 34.97 74.688 45.11 113.698-36.67-225.125-294.08-466.511-729.28-567.89 2.91 2.738 5.76 5.659 8.63 8.759z" fill="#e8e9ea"/><path d="m413.907 1270.52c39.328-52.45 81.388-101.71 100.263-121.76-7.918-8.97-20.153 3.42-40.923 24.46-12.473 12.63-28.024 28.38-47.566 44.5-47.444 39.12-46.645-12.15-46.127-45.44l.001-.01c.05-3.25.098-6.33.098-9.14 0-16.08 0-21.7-1.597-26.81-.857-2.75-2.174-5.35-4.199-9.36-1.604-3.17-3.653-7.21-6.269-12.91-1.751-3.81-3.388-7.12-4.85-10.08-8.612-17.43-11.153-22.57 4.85-45.01 14.976-20.99 14.284-48.34 12.065-59.382-7.62 11.172-24.012 24.562-41.238 38.632-28.16 23-58.547 47.81-56.47 67.74 1.739 16.69 18.301 25.61 34.56 34.36 15.025 8.09 29.792 16.05 32.363 29.86.457 2.45.954 5.37 1.511 8.65h.001c5.985 35.15 18.95 111.29 63.527 91.7z" fill="#712213"/><path clip-rule="evenodd" d="m652.423 1132.71c-10.167-16.8-20.283-33.1-30.506-47.5-9.993-14.08-17.965-28.05-23.931-41.48-18.123-33.89-63.739-104.095-101.216-113.728-46.847-12.042-97.04 40.14-117.117 69.576 2.219 11.042 2.911 38.392-12.065 59.382-16.003 22.44-13.462 27.58-4.85 45.01 1.462 2.96 3.099 6.27 4.85 10.08 2.616 5.7 4.665 9.74 6.269 12.91 2.025 4.01 3.342 6.61 4.199 9.36 1.597 5.11 1.597 10.73 1.597 26.81 0 2.81-.048 5.89-.098 9.14l-.001.01c-.518 33.29-1.317 84.56 46.127 45.44 19.542-16.12 35.093-31.87 47.566-44.5 20.77-21.04 33.005-33.43 40.923-24.46 34.8-36.96 106.668-26.1 138.253-16.05zm-150.62-156.379c-18.83-7.612-50.581 4.173-62.099 13.021-27.044 14.968 23.037-42.568 53.085-36.559 30.048 6.01 77.123 69.607 80.629 90.937 1.719 10.46-9.818-3.27-24.797-21.1-15.557-18.51-34.827-41.451-46.818-46.299z" fill="#b13f1e" fill-rule="evenodd"/><path d="m439.704 989.352c11.518-8.848 43.269-20.633 62.099-13.021 11.991 4.848 31.261 27.789 46.818 46.299 14.979 17.83 26.516 31.56 24.797 21.1-3.506-21.33-50.581-84.927-80.629-90.937-30.048-6.009-80.129 51.527-53.085 36.559z" fill="#ca6234"/><path d="m597.986 1043.73c-20.406-45.926-17.353-85.488 8.539-101.017 22.05-13.226 46.717-12.797 76.872-12.116 17.526-2.873 36.663-2.414 51.621-.595-2.419-5.409-4.928-11.808-7.221-18.775-35.508-13.905-69.861-3.642-100.348 5.465-10.678 3.19-20.881 6.238-30.494 8.057-18.025 3.41-26.216 10.137-32.123 14.988-6.238 5.123-9.928 8.153-19.96 2.976-4.164-2.149-8.259-4.517-12.402-6.912-15.294-8.842-31.243-18.064-53.704-18.064-14.478 0-28.44 6.828-42.736 13.819-13.892 6.793-28.1 13.74-43.402 14.727-8.861.572-14.419.31-19.059.092-11.617-.547-17.483-.823-55.059 12.929-46.47 17.006-78.859-11.074-104.427-33.24-3.365-2.916-6.611-5.731-9.756-8.327-21.635-17.858-45.609-3.724-54.892 5.575.926 5.184 2.699 10.868 5.524 16.748 6.341 13.197 17.98 27.384 37.24 39.133 9.408 5.74 20.635 10.899 33.95 15.076 9.316 2.923 19.655 5.365 31.108 7.191 31.639 5.04 71.787 5.38 122.396-1.882 20.077-29.436 70.27-81.618 117.117-69.576 37.477 9.633 83.093 79.838 101.216 113.728z" fill="#712213"/><path clip-rule="evenodd" d="m204.327 917.737c-21.635-17.858-45.609-3.724-54.892 5.575-2.27-12.71 15.257-24.343 46.779-36.517 19.157-7.399 43.483-14.997 71.676-23.16l.05-.014c9.464-2.74 19.363-5.543 29.65-8.424 11.153-3.123 22.76-6.338 34.759-9.661l.011-.002.004-.002c49.594-13.733 105.873-29.319 164.406-47.993 42.056-13.417 78.545-19.913 109.755-21.729 80.83-4.704 126.241 21.985 141.208 41.13-37.472 10.511-31.394 59.484-19.936 94.287-35.508-13.905-69.861-3.642-100.348 5.465-10.678 3.19-20.881 6.238-30.494 8.057-18.025 3.41-26.216 10.137-32.123 14.988-6.238 5.123-9.928 8.153-19.96 2.976-4.164-2.149-8.259-4.517-12.402-6.912-15.294-8.842-31.243-18.064-53.704-18.064-14.478 0-28.44 6.828-42.736 13.819-13.892 6.793-28.1 13.74-43.402 14.727-8.861.572-14.419.31-19.059.092-11.617-.547-17.483-.823-55.059 12.929-46.47 17.006-78.859-11.074-104.427-33.24-3.365-2.916-6.611-5.731-9.756-8.327zm479.07 12.86c17.526-2.873 36.663-2.414 51.621-.595-18.592 1.343-35.385.963-50.755.615zm-67.411-137.559c-30.612-.801-51.484 11.685-58.093 18.029-22.035 18.028 121.194 0 122.195-6.511 1.002-6.51-25.837-10.517-64.102-11.518z" fill="#b13f1e" fill-rule="evenodd"/><path d="m557.893 811.067c6.609-6.344 27.481-18.83 58.093-18.029 38.265 1.001 65.104 5.008 64.102 11.518-1.001 6.511-144.23 24.539-122.195 6.511z" fill="#ca6234"/><path d="m314.068 797.539c-65.508 37.42-32.203 62.01-46.128 66.082 9.464-2.74 19.363-5.543 29.65-8.424 11.153-3.123 22.76-6.338 34.759-9.661l.011-.002.004-.002c49.594-13.733 105.873-29.319 164.406-47.993 42.056-13.417 78.545-19.913 109.755-21.729 0-3.42.102-6.645.302-9.689 1.244-18.893 6.253-30.819 13.868-39.189-10.315 3.506-14.17 6.51-23.74 23.037-5.657 9.77-22.155 9.914-38.201 10.054-11.097.097-21.978.192-28.906 3.468-16.946 8.012-40.064 16.025-82.132 17.528-27.416.979-43.984 7.699-64.464 16.005-10.944 4.439-23.005 9.331-38.435 14.043-35.445 10.822-14.769-18.996 0-35.257-9.894 8.222-20.137 15.668-30.749 21.729z" fill="#712213"/><path clip-rule="evenodd" d="m344.817 811.067c-35.445 10.822-14.769-18.996 0-35.257 18.117-15.059 35.058-32.725 50.927-49.272 7.237-7.546 14.251-14.86 21.051-21.588 20.468-20.249 39.005-35.19 55.882-35.19 1.978 0 4.079.108 6.291.313 17.593 1.627 42.174 9.37 67.32 17.536l.506.165c.754.245 1.509.49 2.264.736l2.265.737c36.394 11.842 73.073 23.777 90.671 18.646l12.257-.418c-13.352 5.219-25.072 10.131-33.556 19.457-10.315 3.506-14.17 6.51-23.74 23.037-5.657 9.77-22.155 9.914-38.201 10.054-11.097.097-21.978.192-28.906 3.468-16.946 8.012-40.064 16.025-82.132 17.528-27.416.979-43.984 7.699-64.464 16.005-10.944 4.439-23.005 9.331-38.435 14.043zm151.477-125.701c22.035 8.513 42.568 19.03 27.043 17.027-15.524-2.003-51.582-6.026-62.6 5.5-10.275 10.75-12.559 4.468-7.61-1.63.387-.435.782-.873 1.186-1.313 10.744-11.696 27.808-25.06 41.981-19.584z" fill="#b13f1e" fill-rule="evenodd"/><path d="m523.337 702.393c15.525 2.003-5.008-8.514-27.043-17.027-14.173-5.476-31.237 7.888-41.981 19.584-.404.44-.799.878-1.186 1.313-4.949 6.098-2.665 12.38 7.61 1.63 11.018-11.526 47.076-7.503 62.6-5.5z" fill="#ca6234"/><path clip-rule="evenodd" d="m606.827 766.121h64.247c24.388 0 31.959 2.884 41.025 6.337 2.848 1.085 5.844 2.226 9.556 3.352 2.029.615 3.973 1.235 5.827 1.827 12.327 3.932 20.673 6.594 23.72-1.827 1.056-2.919 1.567-5.06 2.038-7.039 1.095-4.59 1.981-8.303 8.98-18.802 2.932-4.399 5.608-9.43 8.289-14.472 6.477-12.179 12.991-24.428 23.261-28.022 22.353-34.199 58.772-47.946 99.684-58.296-76.664-6.688-152.764-5.062-176.942 20.581-20.071 21.287-41.345 29.57-59.78 36.748-.55.214-1.098.427-1.644.64-.28.109-.559.218-.837.327-13.352 5.219-25.072 10.131-33.556 19.457-7.615 8.37-12.624 20.296-13.868 39.189z" fill="#b13f1e" fill-rule="evenodd"/><path d="m606.525 775.81c80.83-4.704 126.241 21.985 141.208 41.13 18.304-5.134 30.435-6.003 42.677-5.14-7.25-9.328-12.529-19.351-15.164-30.281-5.032-20.873-.421-45.058 18.524-74.044-10.27 3.594-16.784 15.843-23.261 28.022-2.681 5.042-5.357 10.073-8.289 14.472-6.999 10.499-7.885 14.212-8.98 18.802-.471 1.979-.982 4.12-2.038 7.039-3.047 8.421-11.393 5.759-23.72 1.827-1.854-.592-3.798-1.212-5.827-1.827-3.712-1.126-6.708-2.267-9.556-3.352-9.066-3.453-16.637-6.337-41.025-6.337h-64.247c-.2 3.044-.302 6.269-.302 9.689z" fill="#712213"/><path d="m1175.38 864.226c61.33 29.35 129.01-53.957 148.17-93.724 2.74-5.695 4.49-10.497 5.08-13.948-1.11-10.854 6.37-35.566 17.15-64.176 2.72-7.239 5.66-14.728 8.72-22.305-15.13 14.689-46.91 49.53-52.92 71.382-2.41 8.757-3.17 16.61-3.85 23.643-1.44 14.906-2.53 26.126-18.18 34.45-15.22 8.092-23.44 8.598-37.95 9.489-7.46.458-16.58 1.018-29.16 2.763-15.68 2.175-27.24 1.612-39.64 1.008-16.91-.824-35.39-1.724-68.03 4.132-24.75 4.439-39.25-1.923-51.87-7.465-16.25-7.131-29.41-12.903-57.307 7.465-46.161 33.698-54.51 30.93-93.051 18.153-2.855-.946-5.875-1.947-9.088-2.993-22.111-7.193-37.79-9.372-49.392-10.984-12.85-1.786-20.701-2.877-26.754-9.316-4.476-4.761-9.858-6.625-15.531-8.589-8.924-3.09-18.567-6.428-26.531-21.692 2.635 10.93 7.914 20.953 15.164 30.281 15.503 19.95 40.02 36.727 66.962 52.426 7.265 4.233 16.104 7.061 26.168 8.8 34.629 5.984 83.756-.926 133.12-7.869 61.9-8.706 124.17-17.465 158.72-.931z" fill="#712213"/><path d="m1121.29 1009.46c24.71 20.68 77.53 57.92 91.15 41.49 17.03-20.53 36.06-53.748 24.54-57.673-4.98-1.697-9.87 5.018-15.76 13.103-7.72 10.62-17.17 23.6-30.82 23.04-11.6-.49-31.61-9.22-47.52-16.17-17.03-7.43-29.36-12.81-21.59-3.79z" fill="#ca6234"/><path d="m1258.51 869.66c64.11-47.075-9.01 35.056-64.1 41.066s-60.15-33.137-37.06-25.583c19.03 10.307 56.83 17.077 101.16-15.483z" fill="#ca6234"/><path d="m1377.54 753.298c-28.22 10.893-47.38 18.291-48.91 3.256-.59 3.451-2.34 8.253-5.08 13.948-3.49 12.687-.93 34.255 37.13 19.03 9.05-3.619 17.32-7.055 25-10.246v-.002c32.7-13.584 54.71-22.73 80.67-22.73 18.24 0 31.83 4.518 43.54 8.411 8.86 2.947 16.65 5.537 24.57 5.537 18.37 0 40.24.281 31.88 29.046 4.61-14.326 8.36-30.987 11.86-46.522v-.001c3.25-14.474 6.29-27.969 9.6-37.689-50.23 3.163-94.85 10.893-108.09 13.186l-.01.001c-.01.002-.02.004-.03.006-.02.002-.03.004-.04.007-.65.112-1.22.211-1.71.295-.01.002-.02.004-.03.005-.4.068-.74.126-1.03.174-36.4 0-72.08 13.773-99.32 24.288z" fill="#712213"/><path d="m1196.79 1280.56c15.54-35.34 23.47-84.57 26.96-120.93-4.85 5.1-10.45 10.13-16.88 15.02.28 13.67-4.16 50.58-24.1 88.8-9.12 17.48-16.91 28.91-23.11 38.01-10.76 15.78-16.78 24.6-16.78 45.96 0 1.88 0 3.77.01 5.66v.03.02c.03 32.11.07 66.21-10.45 79.93 6.57-5.78 15.94-10.09 32.23-13.35-18.98-8.69-13.67-34.43-.62-66.58 5.32-13.14 11.94-27.35 18.72-41.9 4.72-10.14 9.52-20.44 14.02-30.67z" fill="#712213"/><path d="m1019.58 1543.24c-21.403 6.51-63.071 23.03-58.542 37.06 5.66 17.53 60.092 32.08 79.122 32.08 8.31 0 1.02-2.96-10.06-7.46-14.32-5.82-34.969-14.21-36.51-22.12-1.361-6.98 13.39-20.03 24.4-29.77 11.1-9.82 18.4-16.28 1.59-9.79z" fill="#d6723e"/><path d="m1166.91 1607.88c43.39-13.93 89.91-28.87 139.64-34.97 63.67-7.81 122.62-11.3 169.66-14.09 57.77-3.42 97.56-5.78 106.03-13.76-79.85 0-149.63-87.33-185.41-148.1h-13.99c-15.85 0-46.08 5.3-79.35 11.13-32.9 5.76-68.76 12.04-96.62 14.24 6.37 6.25 32.81 17.14 87.7 10.73 21.29-2.48 37.45-5.31 49.9-7.48 27.68-4.83 36.97-6.46 43.25 5.98 2.85 5.65 9.92 14.76 18.01 25.2 17.74 22.88 40.42 52.14 34.57 65.31-7.53 16.96-37.5 21.65-105.36 32.27h-.01c-.08.02-.15.03-.23.04-.02 0-.05.01-.07.01-8.73 1.37-18.08 2.83-28.08 4.43-70.48 11.27-122.46 37.41-139.64 49.06z" fill="#712213"/><path clip-rule="evenodd" d="m1054.8 1364.95c-.7 3.7-4.02 14.48-11.63 28.05-4.82 8.6-15.44 40.78-25.65 71.74-9.93 30.1-19.472 59.04-22.929 63.97-2.31 3.31-5.708 6.21-9.818 8.61-.164.07-.328.13-.491.2 11.195-4.52 23.288-8.83 35.288-13.11h.01c31.33-11.18 61.99-22.12 74.15-35.79 12.64-14.23 19.08-25.82 24.34-35.3 4.58-8.24 8.26-14.88 14.37-20.26 10.52-13.72 10.48-47.82 10.45-79.93v-.02-.03c-.01-1.89-.01-3.78-.01-5.66 0-21.36 6.02-30.18 16.78-45.96 6.2-9.1 13.99-20.53 23.11-38.01 19.94-38.22 24.38-75.13 24.1-88.8-20.39 15.51-49.18 29.68-89.08 40.56-14 3.82-26.96 7.19-39.02 10.19l-.15 1.96-.04.61-.11 1.43c-1.03 13.24-2.31 28.91-4.21 45.41-3.54 30.58-9.23 64.02-19.46 90.14zm-81.939 177.41c-5.945 1.75-12.428 2.7-18.834 2.7-8.151 0-28.558-12.26-48.254-24.09h-.001c-20.239-12.16-39.726-23.87-44.394-21.36-9.209 4.95-99.158 27.1-110.176 26.1s-75.065-64.6-75.065-68.11c0-2.8-41.898-7.7-62.847-9.79-20.759 27.17-43.612 57.39-61.91 82.41-13.093 17.9-23.855 33.14-29.848 42.69-10.692 17.04 19.543 8.98 66.136-3.43 61.313-16.35 150.952-40.24 212.935-24.42 47.033 12.01 48.532 38.69 49.716 59.77 1.563 27.8 2.576 45.84 106.885 7.55-43.984-32.29-22.51-52.91 15.657-70.02z" fill="#b13f1e" fill-rule="evenodd"/><path clip-rule="evenodd" d="m755.79 1517.21c-8.348-5.03-58.699-59.52-74.745-82.45-17.09.48-36.421.06-56.335-1.87-3.704 4.83-7.525 9.82-11.42 14.92 20.949 2.09 62.847 6.99 62.847 9.79 0 3.51 64.047 67.11 75.065 68.11s100.967-21.15 110.176-26.1c4.668-2.51 24.155 9.2 44.394 21.36h.001c19.696 11.83 40.103 24.09 48.254 24.09 6.406 0 12.889-.95 18.834-2.7 3.492-1.56 7.125-3.1 10.86-4.61l.294-.12c.089-.04.178-.07.267-.11.163-.07.327-.13.491-.2 4.11-2.4 7.508-5.3 9.818-8.61 3.457-4.93 12.999-33.87 22.929-63.97 10.21-30.96 20.83-63.14 25.65-71.74 7.61-13.57 10.93-24.35 11.63-28.05-5.02 12.84-11.13 23.91-18.63 32.01-28.43 30.76-38.033 67.35-45.313 95.1h-.001-.001c-3.171 12.09-5.902 22.5-9.558 30.01-8.332 17.12-37.157-1.29-70.307-22.46-13.124-8.38-26.926-17.19-40.402-24.41-41.444 22.54-107.876 46.19-114.798 42.01zm228.492 20.31c-.089.04-.178.07-.267.11-.098.04-.196.08-.294.12-3.735 1.51-7.368 3.05-10.86 4.61 4.336-1.27 8.386-2.97 11.912-5.04-.164.07-.328.13-.491.2z" fill="#712213" fill-rule="evenodd"/><path d="m1385.48 1376.48c-7.18-13.9-10.15-25.95-9.54-36.38 1.49-25.34 24.12-41.14 58.84-50.59v-2.04c-3.76-6.42-7.32-13.33-10.69-20.67-19.48-42.41-32.6-99.31-41.25-160.18-4.76-33.46-2.02-63.5 4.28-89.22-14.43 19.03-39.93 77.12-26.44 157.25 16.56 98.36 11.22 107.4-5.11 135.04l-.03.06c-.04.06-.07.11-.1.17-.02.02-.03.04-.04.07-.24.4-.49.82-.73 1.24-7.57 12.83-5.03 20.42-2.87 26.87 2.71 8.05 4.81 14.33-14.16 26.85-18.73 12.36-31.61 15.06-43.1 17.47-9.46 1.98-17.97 3.76-28.01 10.58-22.25 15.09-115.32 11.79-102.48-39.87-13.05 32.15-18.36 57.89.62 66.58 8.1 3.71 23.31 4.1 42.2 2.62 27.86-2.2 63.72-8.48 96.62-14.24 33.27-5.83 63.5-11.13 79.35-11.13h13.99c-4.28-7.27-8.08-14.17-11.35-20.48z" fill="#712213"/><path d="m1267.03 1140.59c-9.52 51.09-22.54-10.1 0-55.38 22.53-45.28 44.57-28.77 28.04-9.23-11.19 16.05-23.22 38.74-28.04 64.61z" fill="#ca6234"/><path d="m1434.78 1167.14c-8.5-10.52-24.52-68.46-23.02-105.35 1.5-36.88 44.46-87.85 32.5-54.85-7 14.32-13.81 33.56-15.47 54.85-1.89 24.17 2.47 55.94 5.56 78.46v.01c2.64 19.25 4.35 31.72.43 26.88z" fill="#ca6234"/><path d="m1744.9 887.186c0 19.472-7.62 112.621-28.65 127.644-21.04 15.02-150.25 23.08-205.59-77.099-7.63.424-17.47 1.377-28.13 2.99 48.18 120.989 215.88 109.659 239.73 101.719 19.23-6.41 38.34-106.175 45.49-155.254-7.75-1.628-15.4-1.72-22.85 0z" fill="#712213"/><path d="m1732.85 1287.25c8.3.6 15.61.17 22.08-1.23 39.25-8.5 47.56-52.55 59.47-115.69 1.31-6.97 2.67-14.16 4.11-21.57 5.97-30.53 16.7-58.69 26.43-84.22 17.56-46.06 31.86-83.576 9.04-111.123-8.71-10.513-17.62-20.34-26.62-29.066-.46-.448-.93-.893-1.39-1.335 16.32 31.205 29.73 88.704-11.57 141.524-30.44 38.93-39.39 72.28-46.86 100.13-7.12 26.55-12.9 48.11-34.69 64.73-22.51 17.17-47.64 18.19-72.18 19.19-24.12.98-47.68 1.94-67.62 18.21-40.22 32.8-132.6 37.4-168.96 0 3.37 7.34 6.93 14.25 10.69 20.67 18.22 31.07 41.14 50.68 69.86 52.63 34.97 2.37 76.66-12.47 117.64-27.06 39.8-14.17 78.92-28.1 110.57-25.79z" fill="#712213"/><path clip-rule="evenodd" d="m1245.49 543.212c-15.93 0-29.66-.313-41.83-.591-64.72-1.478-85.08-1.942-155.48 51.172-37.73 28.463-82.991 38.789-125.914 48.58-9.764 2.227-19.407 4.427-28.812 6.806-40.912 10.35-77.331 24.097-99.684 58.296-18.945 28.986-23.556 53.171-18.524 74.044 7.964 15.264 17.607 18.602 26.531 21.692 5.673 1.964 11.055 3.828 15.531 8.589 6.053 6.439 13.904 7.53 26.754 9.316 11.602 1.612 27.281 3.791 49.392 10.984 3.213 1.046 6.233 2.047 9.088 2.993 38.541 12.777 46.89 15.545 93.051-18.153 27.897-20.368 41.057-14.596 57.307-7.465 12.62 5.542 27.12 11.904 51.87 7.465 32.64-5.856 51.12-4.956 68.03-4.132 12.4.604 23.96 1.167 39.64-1.008 12.58-1.745 21.7-2.305 29.16-2.763 14.51-.891 22.73-1.397 37.95-9.489 15.65-8.324 16.74-19.544 18.18-34.45.68-7.033 1.44-14.886 3.85-23.643 6.01-21.852 37.79-56.693 52.92-71.382 5.6-13.847 11.62-27.989 17.53-41.441 4.44-10.106 8.82-19.822 12.92-28.733-27.93-25.851-77.09-56.687-139.46-56.687zm-124.69 67.832c-29.54 9.308-69.35 21.854-88.65 38.135-23.23 19.599-66.761 37.43-96.653 47.685-35.557 7.992 33.053-35.537 71.113-54.491s126.2-56.166 147.74-48.58c10.01 3.526-7.9 9.168-33.55 17.251z" fill="#b13f1e" fill-rule="evenodd"/><path d="m1154.35 593.793c-21.54-7.586-109.68 29.626-147.74 48.58s-106.67 62.483-71.113 54.491c29.892-10.255 73.423-28.086 96.653-47.685 19.3-16.281 59.11-28.827 88.65-38.135 25.65-8.083 43.56-13.725 33.55-17.251z" fill="#ca6234"/><path d="m1988.5 953.417c-14.46 10.169-95.7 4.237-134.52 0 22.82 27.547 8.52 65.063-9.04 111.123-9.73 25.53-20.46 53.69-26.43 84.22-1.44 7.41-2.8 14.6-4.11 21.57-11.91 63.14-20.22 107.19-59.47 115.69 13.4.9 25.96 1.7 37.4 2.31 16.77-8.23 50.77-36.18 52.61-82.13 2.31-57.44 35.07-186.05 51.09-197.82 16.03-11.768 99.26 0 121.25 34.06 6.83 10.58 10.47 23.34 14.52 37.5 8.98 31.43 19.94 69.79 72.07 106.73 75.62 53.58 132.57 124.7 122.87 146.73-9.69 22.04-39.15 55.38-73.8 65.95 22.77-4.9 52.77-10.97 81.17-22.87 23.68-9.94 36.99-32.78 34.34-63.44-2.81-32.58-23.63-73.98-69.14-118.07-11.98-11.61-24.59-24.12-37.43-37.15-81.87-83.01-173.38-186.476-173.38-204.403z" fill="#712213"/><path d="m1780.37 1483.06c38.81-17.74 74.03-32.76 103.03-34.33 17.27-.93 41.77-.67 68.61-.39 21.1.22 43.65.46 65.27.15 69.17-1 128.8-7.66 101.02-38.56-16.57-18.43-42.49-38.48-74.39-56.85 20.85 13.73 47.61 44.32-12.11 56.85-29.6 6.2-59.06 4.83-89.51 3.4-46.34-2.17-94.98-4.44-149.96 19.73-66.27 29.15-101.56 36.52-140.94 44.75-14.75 3.09-30.08 6.29-47.82 10.81-36.01 9.16-61.45-12.93-85.13-33.49-19.13-16.61-37.12-32.22-58.6-29.55-48.08 5.98-76.64-58.42-83.9-85.48-.61 10.43 2.36 22.48 9.54 36.38 3.27 6.31 7.07 13.21 11.35 20.48 35.78 60.77 105.56 148.1 185.41 148.1 63.29 0 127.65-29.6 185.07-56.01l.02-.01c4.39-2.02 8.73-4.02 13.04-5.98z" fill="#712213"/><path clip-rule="evenodd" d="m1244.28 1061.79c10.54 22.05 13.73 61.79-20.53 97.84-3.49 36.36-11.42 85.59-26.96 120.93-4.5 10.23-9.3 20.53-14.02 30.67-6.78 14.55-13.4 28.76-18.72 41.9-12.84 51.66 80.23 54.96 102.48 39.87 10.04-6.82 18.55-8.6 28.01-10.58 11.49-2.41 24.37-5.11 43.1-17.47 18.97-12.52 16.87-18.8 14.16-26.85-2.16-6.45-4.7-14.04 2.87-26.87.24-.42.49-.84.73-1.24l.04-.07.1-.17.03-.06c16.33-27.64 21.67-36.68 5.11-135.04-13.49-80.13 12.01-138.22 26.44-157.25 3.9-15.92 9.16-30.183 14.85-42.575-16.19 11.596-57.95 34.255-95.42 32.115-39.48-2.26-53.47 6.41-59.57 36.01-1.13 5.53-2 11.79-2.7 18.84zm-111.84 371.27c6.57-5.78 15.94-10.09 32.23-13.35 8.1 3.71 23.31 4.1 42.2 2.62 6.37 6.25 32.81 17.14 87.7 10.73 21.29-2.48 37.45-5.31 49.9-7.48 27.68-4.83 36.97-6.46 43.25 5.98 2.85 5.65 9.92 14.76 18.01 25.2 17.74 22.88 40.42 52.14 34.57 65.31-7.53 16.96-37.5 21.65-105.36 32.27h-.01l-.23.04-.07.01c-8.73 1.37-18.08 2.83-28.08 4.43-70.48 11.27-122.46 37.41-139.64 49.06-80.44 25.83-150.15 48.22-209.706 4.5-43.984-32.29-22.51-52.91 15.657-70.02 3.492-1.56 7.125-3.1 10.86-4.61l.294-.12.267-.11c.163-.07.327-.13.491-.2 11.058-4.44 22.977-8.69 34.797-12.91h.01c31.33-11.18 61.99-22.12 74.15-35.79 12.64-14.23 19.08-25.82 24.34-35.3 4.58-8.24 8.26-14.88 14.37-20.26zm243.5-92.96c1.49-25.34 24.12-41.14 58.84-50.59v-2.04c18.22 31.07 41.14 50.68 69.86 52.63 34.97 2.37 76.66-12.47 117.64-27.06 39.8-14.17 78.92-28.1 110.57-25.79 8.3.6 15.61.17 22.08-1.23 13.4.9 25.96 1.7 37.4 2.31 12.08.64 22.91 1.07 32.17 1.18 79.34.87 159.81 29.27 219.41 63.57 20.85 13.73 47.61 44.32-12.11 56.85-29.6 6.2-59.06 4.83-89.51 3.4-46.34-2.17-94.98-4.44-149.96 19.73-66.27 29.15-101.56 36.52-140.94 44.75-14.75 3.09-30.08 6.29-47.82 10.81-36.01 9.16-61.45-12.93-85.13-33.49-19.13-16.61-37.12-32.22-58.6-29.55-48.08 5.98-76.64-58.42-83.9-85.48zm-356.36 203.14c-21.403 6.51-63.071 23.03-58.542 37.06 5.66 17.53 60.092 32.08 79.122 32.08 8.31 0 1.02-2.96-10.06-7.46-14.32-5.82-34.969-14.21-36.51-22.12-1.361-6.98 13.39-20.03 24.4-29.77 11.1-9.82 18.4-16.28 1.59-9.79zm247.45-458.03c-22.54 45.28-9.52 106.47 0 55.38 4.82-25.87 16.85-48.56 28.04-64.61 16.53-19.54-5.51-36.05-28.04 9.23zm606.47 247.19c-35.06 0-67.61-1.5-105.96-6.51-26.89-3.51-66.6 4.1-89.35 9.9-38.07-2.3 63.1-33.44 97.65-30.43 34.56 3 132.71 27.04 97.66 27.04z" fill="#b13f1e" fill-rule="evenodd"/><path d="m1767.54 1325.89c38.35 5.01 70.9 6.51 105.96 6.51 35.05 0-63.1-24.04-97.66-27.04-34.55-3.01-135.72 28.13-97.65 30.43 22.75-5.8 62.46-13.41 89.35-9.9z" fill="#ca6234"/><path clip-rule="evenodd" d="m1382.84 1106.62c8.65 60.87 21.77 117.77 41.25 160.18 36.36 37.4 128.74 32.8 168.96 0 19.94-16.27 43.5-17.23 67.62-18.21 24.54-1 49.67-2.02 72.18-19.19 21.79-16.62 27.57-38.18 34.69-64.73 7.47-27.85 16.42-61.2 46.86-100.13 41.3-52.82 27.89-110.319 11.57-141.524-19.36-18.503-39.13-31.822-58.22-35.83-7.15 49.079-26.26 148.844-45.49 155.254-23.85 7.94-191.55 19.27-239.73-101.719-31.06 4.696-69.17 14.983-80.56 34.104-5.69 12.392-10.95 26.655-14.85 42.575-6.3 25.72-9.04 55.76-4.28 89.22zm51.51 33.64c2.64 19.25 4.35 31.72.43 26.88-8.5-10.52-24.52-68.46-23.02-105.35 1.5-36.88 44.46-87.85 32.5-54.85-7 14.32-13.81 33.56-15.47 54.85-1.89 24.17 2.47 55.94 5.56 78.46zm328.13-23.83c5.51-10.44 13.41-25.38 24.38-41.94 16.37-24.71 23.67-59.01 26.3-82.634 6.16-34.055-30.31 31.554-35.32 62.104-2.51 15.35-9.33 28.43-15.43 40.13-6.03 11.56-11.36 21.77-11.11 31.48.3 11.46 3.35 5.68 11.18-9.14z" fill="#b13f1e" fill-rule="evenodd"/><path d="m1813.16 991.856c-2.63 23.624-9.93 57.924-26.3 82.634-10.97 16.56-18.87 31.5-24.38 41.94-7.83 14.82-10.88 20.6-11.18 9.14-.25-9.71 5.08-19.92 11.11-31.48 6.1-11.7 12.92-24.78 15.43-40.13 5.01-30.55 41.48-96.159 35.32-62.104z" fill="#ca6234"/><path d="m1556.99 940.721c22.04 22.088 121.2 60.149 135.72 47.128 9.36-8.391-20.99-19.307-53.01-30.822-17.68-6.357-35.86-12.897-48.15-19.296-12.89-6.709-22.99-14.687-30.33-20.479-12.33-9.743-16.84-13.302-13.58 5.764.93 5.965 3.72 12.059 9.35 17.705z" fill="#ca6234"/><path d="m1530.81 550.149c-17.39-3.005-78.49 1.002-93.01 15.024-14.52 14.023-39.61 97.156-21.31 73.618 11.47-24.572 30.28-60.9 40.34-66.106 6.36-3.289 24.67-7.443 41.78-11.325 21.97-4.984 41.98-9.522 32.2-11.211z" fill="#ca6234"/><path clip-rule="evenodd" d="m1479.63 728.536c.01-.003.02-.005.04-.007zm-125.13-58.463c-3.06 7.577-6 15.066-8.72 22.305.1 11.011 57.97 7.595 98.16 5.223 8.5-.501 16.2-.956 22.41-1.218 22.61-.955 41.78-14.268 58.15-25.637 9.37-6.506 17.82-12.376 25.48-14.928 7.86-2.619 22.07 1.82 37.66 6.688 26.15 8.164 56.15 17.534 66.51-3.158 10.7-21.389 14.05-22.647 24.5-26.568 5.68-2.134 13.47-5.057 25.69-12.444 27.74-16.766 32.18-29.178 30.94-33.288-5.28-6.003-10.06-11.672-14.56-16.995v-.005c-5.8-6.876-11.11-13.175-16.38-18.869-2.87-3.1-5.72-6.021-8.63-8.759-17.97-16.908-38.1-26.827-77.12-28.754-27.02-1.334-57.92-.336-87.78 2.847-59.79 6.376-115.37 21.514-127.06 44.228-4.25 8.247-11.02 22.251-18.8 39.158-4.1 8.911-8.48 18.627-12.92 28.733-5.91 13.452-11.93 27.594-17.53 41.441zm102.33-97.388c6.36-3.289 24.67-7.443 41.78-11.325 21.97-4.984 41.98-9.522 32.2-11.211-17.39-3.005-78.49 1.002-93.01 15.024-14.52 14.023-39.61 97.156-21.31 73.618 11.47-24.572 30.28-60.9 40.34-66.106z" fill="#b13f1e" fill-rule="evenodd"/><path d="m1588.52 713.329c6.39-15.638 40.16-16.397 84.1-10.439 4.25-18.625 26.65-56.277 82.31-57.883 21.19-.611 42.21 5.171 63.58 14.341-14.5-9.485-40-28.484-51.18-39.012-12.77-12.013-23.12-23.128-32.05-33.288 1.24 4.11-3.2 16.522-30.94 33.288-12.22 7.387-20.01 10.31-25.69 12.444-10.45 3.921-13.8 5.179-24.5 26.568-10.36 20.692-40.36 11.322-66.51 3.158-15.59-4.868-29.8-9.307-37.66-6.688-7.66 2.552-16.11 8.422-25.48 14.928-16.37 11.369-35.54 24.682-58.15 25.637-6.21.262-13.91.717-22.41 1.218-40.19 2.372-98.06 5.788-98.16-5.223-10.78 28.61-18.26 53.322-17.15 64.176 1.53 15.035 20.69 7.637 48.91-3.256 27.24-10.515 62.92-24.288 99.32-24.288.29-.048.63-.106 1.03-.174l.03-.005c.49-.084 1.06-.183 1.71-.295l.04-.007.03-.006.01-.001c13.24-2.293 57.86-10.023 108.09-13.186z" fill="#712213"/><path d="m755.79 1390.05 20.597-2.31c30.934-34.44 45.618-65.3 46.78-91.86.51-11.66-1.587-22.49-6.061-32.43-6.707 11.97-24.241 38.2-40.719 47.42-8.652 4.83-13.33 5.96-17.703 7.02-6.036 1.45-11.49 2.76-26.012 13.51-8.2 6.07-10.653 9.13-11.95 10.75-.493.61-.819 1.02-1.229 1.3-.803.56-1.929.65-5.255.91-4.175.33-11.817.93-26.638 3.06-24.192 3.5-35.701 7.61-46.544 11.49-10.93 3.9-21.184 7.57-43.07 10.11-25.111 2.92-49.215-9.01-68.204-18.4-2.974-1.47-6.13-3.3-9.458-5.23-12.319-7.14-27.001-15.64-43.561-12.49-16.992 3.24-20.801-23.76-21.919-43.07-1.452 31.87 10.717 64.85 35.785 91.21 10.874 11.43 24.4 20.6 39.506 27.9 28.335 13.7 62.226 20.81 94.575 23.95 19.914 1.93 39.245 2.35 56.335 1.87-3.09-4.42-4.908-7.67-4.908-9.16 0-7.42 34.586-54.66 41.399-56.58 8.908-2.5 38.254 21.03 38.254 21.03z" fill="#712213"/><path clip-rule="evenodd" d="m583.383 1174.77c-16.017 1.92-30.495 5.3-43.458 9.89-55.35 19.63-83.086 61.36-85.081 105.17 1.118 19.31 4.927 46.31 21.919 43.07 16.56-3.15 31.242 5.35 43.561 12.49 3.328 1.93 6.484 3.76 9.458 5.23 18.989 9.39 43.093 21.32 68.204 18.4 21.886-2.54 32.14-6.21 43.07-10.11 10.843-3.88 22.352-7.99 46.544-11.49 14.821-2.13 22.463-2.73 26.638-3.06 3.326-.26 4.452-.35 5.255-.91.41-.28.736-.69 1.229-1.3 1.297-1.62 3.75-4.68 11.95-10.75 14.522-10.75 19.976-12.06 26.012-13.51 4.373-1.06 9.051-2.19 17.703-7.02 16.478-9.22 34.012-35.45 40.719-47.42-4.666-10.36-11.916-19.75-21.489-28.1-2.383-2.08-4.747-4.17-7.112-6.25-27.303-24.12-54.663-48.29-111.407-55.68-24.806-3.22-55.227-3.24-93.715 1.35zm22.086 23.92c43.57-5.51 112.067 30.41 52.584 16.02-36.599-8.85-70.696-1.93-91.647 5.83-21.534 9.33-4.507-16.34 39.063-21.85z" fill="#b13f1e" fill-rule="evenodd"/><path d="m658.053 1214.71c59.483 14.39-9.014-21.53-52.584-16.02s-60.597 31.18-39.063 21.85c20.951-7.76 55.048-14.68 91.647-5.83z" fill="#ca6234"/><path d="m583.383 1174.77c38.488-4.59 68.909-4.57 93.715-1.35-5.036-8.12-10.031-16.39-15.002-24.66-32.022-9.72-94.79 19.88-122.171 35.9 12.963-4.59 27.441-7.97 43.458-9.89z" fill="#712213"/><path clip-rule="evenodd" d="m652.423 1132.71c-31.585-10.05-103.453-20.91-138.253 16.05-18.875 20.05-60.935 69.31-100.263 121.76-51.31 68.44-97.972 142.32-82.439 163.91 10.956 1.54 26.605-8.83 58.397-29.91 25.434-16.87 53.917-83.49 64.979-114.69 1.995-43.81 29.731-85.54 85.081-105.17 27.381-16.02 90.149-45.62 122.171-35.9-.688-1.14-1.375-2.28-2.062-3.42-2.542-4.23-5.078-8.45-7.611-12.63z" fill="#b13f1e" fill-rule="evenodd"/><path d="m530.135 1408.94c-15.106-7.3-28.632-16.47-39.506-27.9-25.068-26.36-37.237-59.34-35.785-91.21-11.062 31.2-39.545 97.82-64.979 114.69-31.792 21.08-47.441 31.45-58.397 29.91 17.865 24.83 33.46 20.44 49.187 16.02 8.428-2.36 16.894-4.74 25.768-2.64 10.979 2.6 23.953-5.28 39.462-14.69 20.415-12.39 45.221-27.44 75.647-24.78 2.609.23 5.489.43 8.603.6z" fill="#712213"/><path clip-rule="evenodd" d="m1244.28 1061.79c.7-7.05 1.57-13.31 2.7-18.84.23-1.59.42-3.15.61-4.68 2.02-16.64 3.67-30.17 50.14-44.993 41.21-13.142 47.17-21.398 64.97-46.027v-.002c4.12-5.7 8.87-12.278 14.84-19.995 13.39-17.319 29.59-31.239 45.35-44.781 21.61-18.569 42.39-36.427 53.97-61.356 16.03-34.489-.33-57.411-10.51-64.562-25.96 0-47.97 9.146-80.67 22.73v.002c-7.68 3.191-15.95 6.627-25 10.246-38.06 15.225-40.62-6.343-37.13-19.03-19.16 39.767-86.84 123.074-148.17 93.724-34.55-16.534-96.82-7.775-158.72.931-49.364 6.943-98.491 13.853-133.12 7.869 4.218 4.278 8.529 8.561 12.899 12.801 34.628 33.596 73.026 64.518 99.154 68.907 20.417 3.43 53.777 28.104 89.767 54.726 3.56 2.63 7.14 5.29 10.74 7.94 61.02 44.94 126.58 90 148.18 44.39zm-122.99-52.33c24.71 20.68 77.53 57.92 91.15 41.49 17.03-20.53 36.06-53.748 24.54-57.673-4.98-1.697-9.87 5.018-15.76 13.103-7.72 10.62-17.17 23.6-30.82 23.04-11.6-.49-31.61-9.22-47.52-16.17-17.03-7.43-29.36-12.81-21.59-3.79zm73.12-98.734c55.09-6.01 128.21-88.141 64.1-41.066-44.33 32.56-82.13 25.79-101.16 15.483-23.09-7.554-18.03 31.593 37.06 25.583z" fill="#b13f1e" fill-rule="evenodd"/><path d="m1306.55 1006.94c37.47 2.14 79.23-20.519 95.42-32.115 11.39-19.121 49.5-29.408 80.56-34.104 10.66-1.613 20.5-2.566 28.13-2.99.67-36.426 24.1-86.672 42.17-109.418 5.32-6.698 9.71-16.936 13.51-28.765 8.36-28.765-13.51-29.046-31.88-29.046-7.92 0-15.71-2.59-24.57-5.537-11.71-3.893-25.3-8.411-43.54-8.411 10.18 7.151 26.54 30.073 10.51 64.562-11.58 24.929-32.36 42.787-53.97 61.356-15.76 13.542-31.96 27.462-45.35 44.781-5.97 7.717-10.72 14.295-14.84 19.995v.002c-17.8 24.629-23.76 32.885-64.97 46.027-46.47 14.823-48.12 28.353-50.14 44.993-.19 1.53-.38 3.09-.61 4.68 6.1-29.6 20.09-38.27 59.57-36.01z" fill="#712213"/><path clip-rule="evenodd" d="m1716.25 1014.83c21.03-15.023 28.65-108.172 28.65-127.644.21-7.514 10.03-80.126 32.94-102.165 14.68-14.118 44.05-3.522 69.04 5.492 14.02 5.058 26.66 9.619 34.55 9.035 21.95-1.623 95.69-14.527 95.69-21.033 0-2.692-4.88-4.528-14-7.962-12.93-4.867-34.39-12.944-62.58-31.217-38.46-24.932-104.55-46.035-132.79-53.47-28.11-8.413-75.13 7.844-95.13 17.024-43.94-5.958-77.71-5.199-84.1 10.439l-.72 2.007c-3.31 9.72-6.35 23.215-9.6 37.689v.001c-3.5 15.535-7.25 32.196-11.86 46.522-3.8 11.829-8.19 22.067-13.51 28.765-18.07 22.746-41.5 72.992-42.17 109.418 55.34 100.179 184.55 92.119 205.59 77.099zm-159.26-74.109c22.04 22.088 121.2 60.149 135.72 47.128 9.36-8.391-20.99-19.307-53.01-30.822-17.68-6.357-35.86-12.897-48.15-19.296-12.89-6.709-22.99-14.687-30.33-20.479-12.33-9.743-16.84-13.302-13.58 5.764.93 5.965 3.72 12.059 9.35 17.705z" fill="#b13f1e" fill-rule="evenodd"/><path d="m1744.9 887.186c13.26-49.049 41.13-73.931 73.61-86.014 31.82 20.307 76.74 27.809 145.23-6.308 23.57.536 38.14-1.823 54.95-4.545 11.53-1.868 24.13-3.907 41.42-5.298.67-5.416-14.99-22.136-82.99-45.685-34.3-11.881-65.78-29.865-95.69-46.958-21.63-12.356-42.44-24.247-62.92-33.03-21.37-9.17-42.39-14.952-63.58-14.341-55.66 1.606-78.06 39.258-82.31 57.883 20-9.18 67.02-25.437 95.13-17.024 28.24 7.435 94.33 28.538 132.79 53.47 28.19 18.273 49.65 26.35 62.58 31.217 9.12 3.434 14 5.27 14 7.962 0 6.506-73.74 19.41-95.69 21.033-7.89.584-20.53-3.977-34.55-9.035-24.99-9.014-54.36-19.61-69.04-5.492-22.91 22.039-32.73 94.651-32.94 102.165z" fill="#712213"/><path d="m2137.07 974.156c-66.26-27.429-130.5-33.45-148.57-20.739 0 17.927 91.51 121.393 173.38 204.403-1.22-13.03-18.42-41.05-33.93-66.31-10.91-17.77-20.98-34.17-24.08-43.06-7.52-21.54 0-62.182 41.06-33.62 32.85 22.85 108.18 19.54 141.73 15.03-10.66-5.25-20.44-10.26-28.7-15.03-11.35-6.56-19.85-12.64-23.85-18.218-36-3.965-73.25-12.607-97.04-22.456z" fill="#712213"/><path clip-rule="evenodd" d="m2226.74 1333.4c-9.69 22.04-39.15 55.38-73.8 65.95-16.4 3.54-29.05 6.48-34.64 10.58-16.57-18.43-42.49-38.48-74.39-56.85-59.6-34.3-140.07-62.7-219.41-63.57-9.26-.11-20.09-.54-32.17-1.18 16.77-8.23 50.77-36.18 52.61-82.13 2.31-57.44 35.07-186.05 51.09-197.82 16.03-11.768 99.26 0 121.25 34.06 6.83 10.58 10.47 23.34 14.52 37.5 8.98 31.43 19.94 69.79 72.07 106.73 75.62 53.58 132.57 124.7 122.87 146.73zm-64.86-28.04c-27.62-20.54-63.52-64.61-67.03-70.11-5.72-7.52-3.5-14.03 25.54 0 29.05 14.02 69.11 90.64 41.49 70.11z" fill="#b13f1e" fill-rule="evenodd"/><path d="m2094.85 1235.25c3.51 5.5 39.41 49.57 67.03 70.11 27.62 20.53-12.44-56.09-41.49-70.11-29.04-14.03-31.26-7.52-25.54 0z" fill="#ca6234"/><path clip-rule="evenodd" d="m1767.75 887.186c-7.75-1.628-15.4-1.72-22.85 0 13.26-49.049 41.13-73.931 73.61-86.014 31.82 20.307 76.74 27.809 145.23-6.308 23.57.536 38.14-1.823 54.95-4.545 11.53-1.868 24.13-3.907 41.42-5.298 20.43-1.644 47.43-2.382 87-.861 28.84 1.109 51.93 7.468 70.96 17.407 25.6 13.372 43.83 33.223 58.76 55.491 11.02 16.426 20.24 34.167 29.29 51.591 8.09 15.562 16.04 30.872 25.03 44.768 9.68 14.966 8.45 25.628 0 32.851-15.53 13.261-55.45 14.922-97.04 10.344-36-3.965-73.25-12.607-97.04-22.456-66.26-27.429-130.5-33.45-148.57-20.739-14.46 10.169-95.7 4.237-134.52 0-8.71-10.513-17.62-20.34-26.62-29.066-.46-.448-.93-.893-1.39-1.335-19.36-18.503-39.13-31.822-58.22-35.83zm450.32-41.063c26.52 31.55 21.56 48.577 0 36.057-5.47-3.176-10.62-7.061-15.98-11.092-15.74-11.856-33.14-24.965-65.02-24.965-39.57 0-31.75-17.795-9.68-20.303 1.81-.113 3.65-.211 5.52-.292 30.97-1.335 69.56 2.037 85.16 20.595z" fill="#b13f1e" fill-rule="evenodd"/><path d="m2218.07 882.18c21.56 12.52 26.52-4.507 0-36.057-15.6-18.558-54.19-21.93-85.16-20.595-1.87.081-3.71.179-5.52.292-22.07 2.508-29.89 20.303 9.68 20.303 31.88 0 49.28 13.109 65.02 24.965 5.36 4.031 10.51 7.916 15.98 11.092z" fill="#ca6234"/><path clip-rule="evenodd" d="m2144.93 1014.83c32.85 22.85 108.18 19.54 141.73 15.03 7.33 3.61 15.08 7.32 23.04 11.14 42.56 20.41 91.32 43.78 115.29 69.31 11.6 12.35 17.4 25.2 13.91 38.45-.85 3.22-2.25 6.24-4.15 9.06-1.32 1.96-2.87 3.84-4.65 5.62-36.23 36.33-164.46 36.69-230.79 31.53-11.98-11.61-24.59-24.12-37.43-37.15-1.22-13.03-18.42-41.05-33.93-66.31-10.91-17.77-20.98-34.17-24.08-43.06-7.52-21.54 0-62.182 41.06-33.62zm228.87 133.93c16.92-7.21 11.14-22.82 6.08-29.7-7.95-20.53 29.98 16.53 29.98 29.7 0 13.18-57.33 9.06-36.06 0z" fill="#b13f1e" fill-rule="evenodd"/><path d="m2379.88 1119.06c5.06 6.88 10.84 22.49-6.08 29.7-21.27 9.06 36.06 13.18 36.06 0 0-13.17-37.93-50.23-29.98-29.7z" fill="#ca6234"/><path clip-rule="evenodd" d="m2268.45 1313.04c-2.81-32.58-23.63-73.98-69.14-118.07 28.83 6.65 52.7 12.91 72.32 18.85 67.15 20.32 84.6 36.92 80.9 52.98-2.49 10.85-14.65 21.46-27.65 32.8-24.1 21.02-51.09 44.56-24.79 76.88 8.31 10.21 21.94 21.29 42.66 33.45 4.72 2.77 6.38 6.36 5.32 10.61-6.78 27.17-124.57 81.2-262.97 119.16-7.49-4.79-13.49-10.5-17.63-17.63-4.29-7.4-8.55-15.13-12.71-22.68 0 0-.01-.01-.01-.01-4.15-7.54-8.2-14.89-12.1-21.57 28.42-3.68 87.76-17.78 97.77-44.75 4.21-11.31 22.52-15.5 44.15-20.45 42.85-9.8 98.74-22.58 83.88-99.57z" fill="#b13f1e" fill-rule="evenodd"/><path d="m2118.3 1409.93c27.78 30.9-31.85 37.56-101.02 38.56 6.72-.07 15.53 12.44 25.37 29.32 28.42-3.68 87.76-17.78 97.77-44.75 4.21-11.31 22.52-15.5 44.15-20.45 42.85-9.8 98.74-22.58 83.88-99.57 2.65 30.66-10.66 53.5-34.34 63.44-28.4 11.9-58.4 17.97-81.17 22.87-16.4 3.54-29.05 6.48-34.64 10.58z" fill="#712213"/><path d="m1883.4 1448.73c-29 1.57-64.22 16.59-103.03 34.33 2.09 4.87 6.15 12.84 11.96 22.12 7.78 12.4 18.68 27.14 32.17 39.88-16.28-27.87 6.35-34.11 30.66-40.8 6.21-1.71 12.53-3.45 18.34-5.59 17.94-6.61 40.5-8.71 63.45-10.85 13.56-1.26 27.26-2.54 40.21-4.76 27.9-4.8 71.83 24.01 90.31 39.01-4.29-7.4-8.55-15.13-12.71-22.68l-.01-.01c-4.15-7.54-8.2-14.89-12.1-21.57-9.84-16.88-18.65-29.39-25.37-29.32-21.62.31-44.17.07-65.27-.15-26.84-.28-51.34-.54-68.61.39z" fill="#712213"/><path clip-rule="evenodd" d="m2085.1 1539.7c-7.49-4.79-13.49-10.5-17.63-17.63-18.48-15-62.41-43.81-90.31-39.01-12.95 2.22-26.65 3.5-40.21 4.76-22.95 2.14-45.51 4.24-63.45 10.85-5.81 2.14-12.13 3.88-18.34 5.59-24.31 6.69-46.94 12.93-30.66 40.8 10.12 9.56 17.4 16.23 24.05 22.33l.01.01c4.62 4.24 8.94 8.2 13.71 12.67 8.36 7.83 18.09 17.2 33.2 32.31 31.54 31.52 48.8 33.5 118.49 41.49l.01.01c10.17 1.16 21.47 2.46 34.09 3.99 46.95 5.71 99.91-5.72 135.93-21.88 14.99-12.99 29.24-26.18 42.75-39.51-.98-5.72-6.23-10.85-16.72-14.87-21.07-8.07-41.83-13.66-60.86-18.78-16.77-4.51-32.19-8.66-45.29-13.83-6.97-2.74-13.27-5.77-18.77-9.3zm23.27 89.68c12.52-10.52-26.04 4-65.72 0-19.76-2-38.79-10.53-52.97-19.02-20.53-13.5-19.53 12.51 12.02 25.63 31.55 13.13 94.15 3.9 106.67-6.61z" fill="#b13f1e" fill-rule="evenodd"/><path d="m2042.65 1629.38c39.68 4 78.24-10.52 65.72 0-12.52 10.51-75.12 19.74-106.67 6.61-31.55-13.12-32.55-39.13-12.02-25.63 14.18 8.49 33.21 17.02 52.97 19.02z" fill="#ca6234"/><path d="m2149.16 1562.83c19.03 5.12 39.79 10.71 60.86 18.78 10.49 4.02 15.74 9.15 16.72 14.87 138.61-136.77 200.75-289.62 203.36-416.45-14.93 12.3-67.52 36.28-158.47 33.79 67.15 20.32 84.6 36.92 80.9 52.98-2.17 11.68-12.08 39.06-34.32 55.08-27.8 20.04-19.2 48.59-18.12 54.6 8.31 10.21 21.94 21.29 42.66 33.45 4.72 2.77 6.38 6.36 5.32 10.61-.77 13.37-36.79 57.02-121.33 88.64-84.53 31.63-112.69 36.72-122.87 39.82 13.1 5.17 28.52 9.32 45.29 13.83z" fill="#2e4e53"/><path d="m2348.07 1420.54c-6.78 27.17-124.57 81.2-262.97 119.16 5.5 3.53 11.8 6.56 18.77 9.3 10.18-3.1 38.34-8.19 122.87-39.82 84.54-31.62 120.56-75.27 121.33-88.64z" fill="#223b42"/><path d="m2352.53 1266.8c-2.49 10.85-14.65 21.46-27.65 32.8-24.1 21.02-51.09 44.56-24.79 76.88-1.08-6.01-9.68-34.56 18.12-54.6 22.24-16.02 32.15-43.4 34.32-55.08z" fill="#223b42"/><path d="m2430.1 1163.44c-36.23 36.34-164.46 36.69-230.79 31.53 28.83 6.65 52.7 12.91 72.32 18.85 90.95 2.49 143.54-21.49 158.47-33.79.11-5.58.11-11.11 0-16.59z" fill="#223b42"/><path clip-rule="evenodd" d="m60.0963 1226.23c0 403.26 532.7377 730.17 1189.9037 730.17 143 0 280.11-15.48 407.13-43.86-.59.14-1.19.29-1.79.43-8.12 1.95-17.26 4.22-27.29 6.72-1.25.31-2.52.63-3.8.95-11.19 2.79-23.42 5.84-36.51 9.03-91.58 22.32-225.07 51.54-337.74 47.26-112.19-4.26-54.76 16.54-13.55 31.47 7.17 2.6 13.85 5.02 19.06 7.09 16.99 6.78 14.37 12.26 12.62 15.92-1.54 3.23-2.41 5.05 11.42 5.12h-29.55c-1153.846-91.75-1301.5824-669.07-1216.7368-951.32 119.6238-355.518 618.9378-622.2 1216.7368-622.2 164.3 0 321.15 20.143 464.73 56.738-138.69-29.791-359.96-28.773-464.73-23.685-294.143 0-563.358 65.492-771.032 174.01-2.212-.205-4.313-.313-6.291-.313-16.877 0-35.414 14.941-55.882 35.19-88.015 52.98-162.672 114.288-220.581 181.845-31.522 12.174-49.049 23.807-46.779 36.517.926 5.184 2.699 10.868 5.524 16.748-61.067 87.88-94.8627 184.6-94.8627 286.17z" fill="#386262" fill-rule="evenodd"/><path d="m1530.81 516.513c29.86-3.183 60.76-4.181 87.78-2.847 39.02 1.927 59.15 11.846 77.12 28.754 435.2 101.379 692.61 342.765 729.28 567.89 11.6 12.35 17.4 25.2 13.91 38.45-.85 3.22-2.25 6.24-4.15 9.06 3.41 22.52 5.15 45.34 5.15 68.41 0 311.57-318.01 577.56-765.72 682.41-5.67 1.33-11.35 2.63-17.05 3.9-.59.14-1.19.29-1.79.43-8.12 1.95-17.26 4.22-27.29 6.72l-3.8.95c-11.19 2.79-23.42 5.84-36.51 9.03-91.58 22.32-225.07 51.54-337.74 47.26-112.19-4.26-54.76 16.54-13.55 31.47 7.17 2.6 13.85 5.02 19.06 7.09 16.99 6.78 14.37 12.26 12.62 15.92-1.54 3.23-2.41 5.05 11.42 5.12 668.22-13.57 1214.44-360.85 1214.44-786.76 0-317.771-297.87-591.54-726.66-715.712-17.23-4.99-34.67-9.738-52.32-14.238l-.28-.072c-138.69-29.791-359.96-28.773-464.73-23.685 96.73 0 190.77 7.083 280.81 20.45z" fill="#223b42"/><path clip-rule="evenodd" d="m373.578 698.525c-224.092 141.727-361.5588 336.775-361.5588 551.245s137.4668 409.51 361.5588 551.24c224.017 141.68 533.863 229.51 876.422 229.51 342.56 0 652.4-87.83 876.42-229.51 224.09-141.73 361.56-336.77 361.56-551.24s-137.47-409.518-361.56-551.245c-224.02-141.679-533.86-229.506-876.42-229.506-342.559 0-652.405 87.827-876.422 229.506zm-6.424-10.158c226.219-143.072 538.368-231.367 882.846-231.367 344.48 0 656.63 88.295 882.85 231.367 226.14 143.024 367.15 341.363 367.15 561.403s-141.01 418.38-367.15 561.4c-226.22 143.07-538.37 231.37-882.85 231.37-344.478 0-656.627-88.3-882.846-231.37-226.144-143.02-367.154-341.36-367.154-561.4s141.01-418.379 367.154-561.403zm130.642-21.204c7.183 1.619 14.835 3.709 22.689 6.036 10.54 3.123 21.694 6.752 32.785 10.361 4.743 1.543 9.474 3.083 14.14 4.577 15.697 5.027 30.722 9.566 43.663 12.305 13.225 2.8 23.16 3.454 29.238 1.682l1.185 4.062c4.415-1.931 8.957-3.703 13.589-5.511 18.288-7.138 38.003-14.832 57.054-35.038 7.046-7.472 17.441-12.786 29.652-16.589 12.286-3.826 26.921-6.279 42.984-7.689 31.849-2.795 70.039-1.547 108.191 1.746 9.377-2.357 18.811-4.507 28.287-6.667 16.413-3.742 32.949-7.511 49.521-12.426 26.182-7.766 51.426-18.146 73.786-35.016 42-31.694 67.1-45.053 94.82-50.07 13.73-2.484 27.87-2.882 44.64-2.693 6.27.07 12.85.221 19.93.383 12.09.276 25.65.587 41.54.587 59.99 0 107.99 27.618 137.41 52.825 6.36-13.651 11.84-24.922 15.5-32.037 3.65-7.083 10.37-13.003 18.61-17.988 8.32-5.033 18.7-9.423 30.37-13.218 12.13-3.943 25.86-7.305 40.47-10.076-76.83-9.597-156.38-14.637-237.85-14.637-285.766 0-547.745 62.001-752.204 165.091zm1033.144-156.707c-90.11-13.338-184.18-20.403-280.94-20.403-294.262 0-563.848 65.35-772.271 173.888-1.732-.124-3.418-.19-5.052-.19-10.175 0-20.227 4.476-29.952 11.027-9.619 6.479-19.52 15.406-29.644 25.393-87.71 52.872-162.328 114.056-220.445 181.567-15.237 5.955-27.626 11.969-36.086 18.304-8.51 6.372-14.794 14.459-13.031 24.327.851 4.762 2.336 9.846 4.563 15.071-60.4424 87.99-93.9955 184.92-93.9955 286.79 0 204.5 135.0595 388.69 351.3815 521.43 216.421 132.8 515.023 214.75 844.532 214.75 329.51 0 628.11-81.95 844.53-214.75 216.32-132.74 351.38-316.93 351.38-521.43 0-22.62-1.65-45-4.89-67.1 1.62-2.76 2.86-5.71 3.69-8.84 4.14-15.72-2.73-30.24-14.28-42.95-24.13-91.61-75.62-177.376-148.9-254.062-15.1-22.431-33.78-42.821-60.06-56.716-129.27-110.595-307.06-198.053-513.94-250.772-10.16-10.821-20.57-19.777-34.18-26.291-14.14-6.764-31.27-10.691-54.46-11.836-27.13-1.339-58.06-.355-87.95 2.793zm190.78 51.451c1.3 1.528 2.61 3.081 3.94 4.661 11.97 14.197 25.7 30.49 45.79 49.392 10.72 10.089 35.5 28.597 49.92 38.074 20.66 8.91 41.67 20.913 63.12 33.171 4.12 2.358 8.27 4.725 12.43 7.082 26.12 14.802 53.17 29.328 82.17 39.37 34.22 11.851 55.61 22.097 68.49 30.242 6.42 4.064 10.93 7.733 13.86 10.981 1.13 1.25 2.1 2.517 2.86 3.798 20.12-1.411 46.21-1.939 83.04-.523 14.34.551 27.36 2.37 39.23 5.279-121.17-95.733-280.78-172.509-464.85-221.527zm327.68 218.068c-2-1.689-4.7-3.67-8.25-5.918-11.79-7.456-32.22-17.344-66-29.042-30.1-10.427-57.96-25.429-84.16-40.27-4.26-2.412-8.46-4.815-12.63-7.194-21.63-12.358-42.08-24.045-62.22-32.68-20.95-8.988-41.05-14.433-61.03-13.857-52.42 1.512-72.87 36.729-76.63 53.212l-1.22 5.357-5.45-.738c-21.84-2.961-40.72-4.185-54.75-2.852-7.03.668-12.48 1.946-16.38 3.733-3.78 1.734-5.69 3.739-6.56 5.775l-.63 1.771c-.01.015-.01.03-.02.045-3.19 9.41-6.1 22.34-9.3 36.572-1.58 7.021-3.23 14.36-5.02 21.75-2.67 10.997-5.63 21.96-9.08 31.646-3.42 9.599-7.48 18.397-12.54 24.766-8.59 10.813-18.7 28.528-26.75 48.125-7.82 19.025-13.44 39.223-14.06 56.067 26.66 47.142 70.53 69.047 110.81 77.357 20.34 4.19 39.62 4.88 55.01 3.62 7.7-.63 14.34-1.74 19.6-3.1 5.39-1.39 8.87-2.94 10.61-4.18 1.59-1.14 3.49-3.36 5.51-7.01 1.97-3.589 3.86-8.159 5.63-13.524 3.53-10.728 6.4-24.046 8.64-37.704 4.49-27.339 6.36-55.164 6.36-64.516v-.798l.2-.771c13.78-50.937 43.04-77.323 77.33-90.078l2.8-1.044 2.53 1.611c15.05 9.606 33.14 16.17 55.66 16.311 22.6.142 50.02-6.179 83.65-22.932l1.33-.663 1.48.034c19.42.441 32.52-1.12 46.11-3.232 2.52-.392 5.07-.805 7.69-1.228 9.18-1.488 19.19-3.11 31.73-4.421zm-544.49 152.118c1.31-17.956 7.2-38.111 14.75-56.484 8.35-20.32 18.98-39.1 28.46-51.034 3.83-4.816 7.36-12.137 10.63-21.324 3.24-9.099 6.08-19.588 8.71-30.444 1.65-6.789 3.23-13.788 4.77-20.649 2.45-10.883 4.82-21.421 7.28-30.23-46.28 3.424-86.3 10.355-98.79 12.517-1.23.213-2.19.38-2.87.493l-.49.081h-.5c-35.27 0-70.06 13.427-97.51 24.022l-1.11.428c-13.43 5.183-25.67 9.876-34.74 11.194-4.28.621-8.91.674-12.87-1.186-.51 1.174-1.06 2.374-1.65 3.594-2.87 5.952-6.72 12.746-11.39 19.922-9.33 14.344-22.06 30.458-36.91 44.654-29.21 27.907-69.12 50.554-107.89 32-14.23-6.807-34.19-9.16-58.11-8.68-23.79.478-50.71 3.725-78.43 7.525-6.19.849-12.42 1.726-18.66 2.604-21.579 3.035-43.264 6.085-63.683 8.047-19.151 1.841-37.496 2.761-53.906 1.766.208.202.415.403.623.605 17.204 16.691 35.233 32.607 52.109 44.855 17.067 12.387 32.246 20.488 43.856 22.439 8.131 1.366 17.511 5.532 27.431 11.118 10.03 5.646 21.12 13.03 32.77 21.262 10.29 7.276 21.13 15.292 32.15 23.442 1.45 1.08 2.91 2.16 4.37 3.24 12.55 9.27 25.3 18.64 37.87 27.34 25.32 17.51 49.24 31.81 68.74 37.26 9.7 2.72 17.66 3.05 23.91 1.07 5.78-1.84 10.77-5.85 14.58-13.42 2.24-21.78 6.21-38 17.03-47.98 11.14-10.28 27.92-12.548 51.45-11.2 17.51 1 36.39-3.808 53.12-10.49 16.02-6.394 29.62-14.323 37.5-19.834 4.71-7.232 12.31-12.945 20.89-17.5 9.1-4.833 19.87-8.653 30.88-11.648 19.57-5.321 40.51-8.203 55.63-9.375zm-115.63 57.719c-7.18 3.99-15.63 8.136-24.81 11.798-17.56 7.01-38.3 12.47-58.27 11.33-23.31-1.34-35.43 1.41-42.61 8.03-7.15 6.6-10.93 18.39-13.18 39.97 2.75 7.29 3.68 15.51 2.54 24.99-1.78 14.78-9.39 28.9-21.04 41.83-1.07 32.86-8.22 106.55-29.62 155.22-4.63 10.54-9.51 21-14.26 31.21-9.24 19.82-18.02 38.67-23.7 55.21-4.29 12.48-6.47 22.78-5.96 30.53.24 3.79 1.12 6.71 2.48 8.94 1.33 2.17 3.31 4 6.32 5.38 2.95 1.35 7.99 2.33 15.28 2.71 7.13.36 15.82.12 25.68-.59 19.72-1.42 43.59-4.69 67.94-8.45 12.16-1.88 24.4-3.87 36.28-5.81l1.47-.24c11.34-1.85 22.34-3.64 32.55-5.22 15.59-2.41 29.61-4.37 40.35-5.22-2.38-4.25-4.57-8.32-6.57-12.19-12.9-24.94-13.55-45.82-2.66-62.4 9.6-14.62 27.34-24.5 49.31-31.27-2.74-4.96-5.35-10.15-7.84-15.53-20.02-43.28-33.34-101.16-42.07-162.58-6.59-46.38.86-86.37 12.39-117.648zm43.81 306.418c-22.36 6.5-37.89 15.53-45.55 27.2-7.66 11.66-8.45 27.59 3.28 50.29 3.22 6.21 6.96 13.01 11.19 20.19 17.7 30.07 43.74 66.57 75.07 95.48 31.43 28.98 67.43 49.66 105.16 49.66 61.91 0 125.09-29.05 182.81-55.58 4.3-1.98 8.58-3.94 12.82-5.88 38.54-17.61 74.85-33.22 105.2-34.86 15.65-.85 37.05-.73 60.48-.49 2.81.03 5.66.06 8.53.09 21.11.22 43.57.46 65.11.15 34.67-.5 66.11-2.43 85.33-7.84 4.74-1.34 8.5-2.82 11.28-4.41 2.81-1.61 4.25-3.11 4.91-4.29.83-1.51 1.55-4.84-4.88-12-23.02-25.6-65.22-54.94-117.02-78.05-51.73-23.09-112.48-39.72-172.37-40.37-18.06-.2-41.91-1.63-69.08-3.45-6.91 1.4-14.53 1.78-22.95 1.17-15.07-1.1-32.3 1.72-51.07 6.75-18.23 4.89-37.47 11.74-57.15 18.75l-1.67.59c-40.02 14.25-82.31 29.21-118.29 26.76-29.63-2.01-52.89-21.08-71.14-49.86zm345.66-14.7c17.71 1.08 33.25 1.83 45.82 1.97 61.91.68 124.3 17.83 177.14 41.41 50.48 22.53 92.75 51.15 117.77 77.45 3.99-1.86 8.92-3.36 14.16-4.72 6.4-1.67 14.02-3.3 22.32-5.08 1.86-.4 3.74-.8 5.66-1.22 21.16-4.57 46.3-10.4 70.17-20.41 21.55-9.03 33.9-30.18 30.4-60.09-3.55-30.25-23.46-69.31-67.06-111.55-44.29-42.91-97.09-98.22-138.85-145.43-20.88-23.6-39.06-45.25-52.05-62.352-6.49-8.539-11.76-16.052-15.44-22.169-1.69-2.806-3.11-5.413-4.15-7.757-1.05.301-2.12.565-3.2.8-4.05.882-8.85 1.496-14.13 1.912-10.56.831-23.52.906-37.1.532-21.89-.601-45.73-2.378-64.37-4.159 10.95 22.157 5.19 48.473-4.33 76.313-3.34 9.76-7.17 19.82-11.14 30.21-9.67 25.36-20.1 52.72-25.96 82.73-1.42 7.25-2.75 14.35-4.06 21.26-5.3 28.15-10 53.1-17.1 72.68-5.74 15.85-13.31 28.92-24.5 37.67zm78.29-333.828c19.32 2.05 47.83 4.404 73.5 5.11 13.39.368 25.88.283 35.83-.5 4.98-.393 9.19-.95 12.51-1.673 3.47-.756 5.36-1.572 6.16-2.137 5.85-4.113 14.56-6.232 24.48-7.053 10.13-.839 22.36-.385 35.94 1.322 27.18 3.417 60.32 11.929 93.91 25.832 23.1 9.566 59.76 18.11 95.4 22.035 31.98 3.523 62.02 3.192 80.39-2.768 9.25-3.001 14.14-6.968 15.91-11.144 1.66-3.93 1.42-10.174-4.97-20.046-9.15-14.144-17.22-29.692-25.27-45.186-.5-.957-1-1.913-1.5-2.869-8.6-16.542-17.27-32.987-27.49-48.22-14.59-21.761-32.14-40.758-56.55-53.511-18.15-9.481-40.36-15.65-68.41-16.729-39.39-1.514-66.14-.775-86.29.846-17.03 1.37-29.37 3.367-40.89 5.231-2.65.43-5.26.852-7.87 1.259-13.69 2.127-27.2 3.752-46.74 3.401-34.27 16.882-63.13 23.689-87.75 23.534-23.74-.149-43.21-6.765-59.46-16.582-27.57 10.997-51.45 32.109-64.57 72.129 16.53-.795 33.2 5.677 49.19 16.237 18.64 12.308 37.1 30.645 54.54 51.482zm-106.24-55.452c13.89-1.651 29.02 3.396 45.08 14 17.78 11.741 35.91 29.798 53.47 51.001 15.42 18.612 12.04 42.919.79 75.839-3.1 9.04-6.76 18.67-10.63 28.8-9.79 25.69-20.82 54.65-26.9 85.72-1.47 7.56-2.85 14.85-4.17 21.87-5.29 28.03-9.76 51.71-16.49 70.29-8.3 22.91-19.41 36.29-38.29 40.38-5.8 1.25-12.53 1.68-20.37 1.1-17.05-1.24-35.79 1.96-55.06 7.13-18.7 5.02-38.34 12.01-57.86 18.96l-1.88.67c-40.79 14.52-80.48 28.33-113.44 26.09-31.04-2.11-55.77-27.16-75.18-69.11-19.29-41.69-32.41-98.21-41.08-159.22-7.48-52.63 4.05-96.55 18.5-128.128 3.06-4.977 8.75-9.668 16.74-13.909 8.04-4.27 17.89-7.808 28.41-10.667 19.33-5.256 40.25-8.049 54.85-9.098 28.93 49.75 75.73 72.722 117.81 81.402 21.51 4.43 41.94 5.18 58.42 3.83 8.24-.67 15.58-1.88 21.63-3.44 5.91-1.53 11.07-3.53 14.59-6.04 3.67-2.62 6.61-6.59 9.04-10.98 2.46-4.47 4.62-9.789 6.52-15.574 3.81-11.571 6.8-25.575 9.09-39.516 3.96-24.093 5.94-48.655 6.41-61.4zm244.72 64.218c.77 1.767 1.95 3.99 3.56 6.672 3.36 5.583 8.35 12.705 14.72 21.097 12.73 16.763 30.69 38.153 51.48 61.653 41.07 46.43 92.92 100.78 136.65 143.25 34.52 2.57 84.8 3.61 130.04-.98 23.11-2.34 44.66-6.12 62.04-11.81 17.61-5.75 29.87-13.12 35.75-21.88 1.55-2.31 2.66-4.72 3.32-7.24 2.72-10.32-1.47-21.09-12.47-32.8-10.39-11.07-25.99-21.97-44.26-32.6-18.21-10.59-38.67-20.7-58.55-30.27-3.57-1.72-7.12-3.43-10.64-5.11-15.99-7.67-31.26-14.99-43.99-21.85-7.78-4.19-14.76-8.28-20.47-12.25-4.65-3.24-8.74-6.58-11.74-10.05-35.58-4.119-72.27-12.689-96.19-22.592-32.67-13.525-64.78-21.739-90.81-25.011-13.02-1.638-24.38-2.021-33.45-1.27-6.55.542-11.52 1.648-14.99 3.041zm256.63 47.752c4.7 3.1 10.33 6.36 16.72 9.8 12.46 6.71 27.4 13.88 43.38 21.54 3.54 1.7 7.14 3.42 10.77 5.17 19.89 9.58 40.73 19.86 59.37 30.71 11.31 6.58 21.96 13.45 31.18 20.61-20.26-66.03-55.22-128.999-102.84-187.567l.68 1.322c8.13 15.632 15.96 30.702 24.78 44.348 7.35 11.352 9.86 22.004 5.95 31.259-3.82 9.008-12.86 14.514-23.27 17.89-16.88 5.478-41.08 6.568-66.72 4.918zm-34.05 201.39c34.95 37.87 52.5 73.77 56.03 103.83 4.02 34.31-10.4 61.13-37.7 72.58-24.98 10.48-51.07 16.49-72.27 21.07-1.98.43-3.91.84-5.79 1.25-8.28 1.77-15.58 3.34-21.7 4.93-3.75.97-6.8 1.9-9.21 2.79 4.06 6.51 5.32 13.28 1.76 19.7-2.11 3.8-5.56 6.68-9.45 8.9-3.93 2.25-8.7 4.06-14 5.55-17.47 4.92-43.3 7.05-71.42 7.91 3.39 4.31 6.88 9.64 10.4 15.46 4.81 7.93 10.06 17.45 15.4 27.15 4.17 7.56 8.4 15.23 12.52 22.32 3.16 5.46 7.66 10.07 13.48 14.13 78.73-21.75 150.41-48.62 198.19-72.53 24.29-12.15 41.88-23.28 51.2-32.3 4.79-4.63 6.5-7.88 6.78-9.69.11-.7 0-1.09-.19-1.44-.25-.43-.87-1.2-2.42-2.11-23.99-14.07-39.27-27.1-47.8-39.54-8.72-12.72-10.36-24.85-7.03-36.2 3.21-10.94 10.83-20.46 19.1-28.79 5.36-5.4 11.47-10.73 17.21-15.74 3.02-2.64 5.94-5.19 8.59-7.61 8.16-7.44 13.92-13.77 16.2-19.55 1.05-2.69 1.27-5.06.72-7.34-.56-2.34-2.05-5.14-5.33-8.41-6.73-6.71-19.97-14.38-43.31-23-19.51-7.21-45.62-14.93-79.96-23.32zm-116.84 335.81c11.09 4.84 24.46 8.81 39.67 12.96 3.18.87 6.43 1.74 9.74 2.63 19.02 5.12 40.12 10.8 61.49 18.98 8.41 3.22 14.81 7.51 18.19 13.24 3.63 6.14 3.16 12.77.23 18.78-2.82 5.77-7.96 11.22-14.34 16.22-6.46 5.05-14.57 9.94-23.83 14.46-36.85 17.99-94.23 31.33-145.08 25.15-12.38-1.51-23.54-2.79-33.65-3.95-29.95-3.43-50.72-5.81-66.97-9.9-22.53-5.68-36.83-14.71-55.48-33.36-13.77-13.76-23.04-22.73-30.87-30.11-1.49.48-3.16 1.38-5.37 2.83-1.3.86-2.64 1.82-4.2 2.92-.5.36-1.02.73-1.57 1.12-2.2 1.56-4.71 3.29-7.61 5.1-11.78 7.35-29.32 15.46-60.4 19.84-89 12.56-128.7 22.82-159.31 30.74-8.37 2.16-16.05 4.15-23.88 5.96-36.92 8.55-76.08 12.91-199.28 12.91-30.8 0-49.35 1.71-59.11 4.43-2.39.66-4.03 1.33-5.11 1.92-.32.18-.56.33-.74.46.08.12.17.26.3.42 1.29 1.69 3.98 3.98 8.35 6.79 4.25 2.74 9.66 5.69 15.96 8.81 12.58 6.24 28.23 12.94 44.29 19.71 1.96.82 3.93 1.65 5.9 2.48 14.06 5.92 28.16 11.85 40.26 17.46 13.55 6.29 25.45 12.54 31.88 18.3 1.67 1.49 3.21 3.16 4.33 5.02 1.13 1.86 2.03 4.28 1.73 7.03-.63 5.78-5.77 8.74-10.02 10.32-4.73 1.75-11.39 2.97-20 3.78-8.7.82-19.76 1.24-33.48 1.24-93.72 0-150.33 2.87-221.21 6.47-34.64 1.76-72.69 3.69-120.15 5.55-160.341 6.26-260.479-1.09-314.368-15.75-13.521-3.68-24.375-7.88-32.626-12.59-8.199-4.69-14.274-10.12-17.549-16.49-3.406-6.62-3.458-13.62-.741-20.38 2.623-6.54 7.744-12.7 14.467-18.48 10.449-8.97 24.04-17.19 35.938-24.38 3.075-1.86 6.037-3.65 8.803-5.37 6.947-4.31 12.552-8.09 16.209-11.46 1.825-1.67 2.875-2.99 3.397-3.95.273-.5.337-.77.349-.88-.059-.13-.327-.6-1.315-1.36-1.333-1.02-3.585-2.25-7.163-3.56-7.151-2.61-18.411-5.16-35.092-7.55-33.272-4.78-86.788-8.76-169.036-12.05-48.466-1.94-84.558-4.39-110.895-7.24-26.176-2.84-43.195-6.11-53.191-9.89-4.856-1.84-9.07-4.15-11.519-7.46-1.335-1.81-2.183-3.97-2.196-6.37-.013-2.35.768-4.4 1.781-6.06 1.913-3.14 5.162-5.73 8.435-7.87 3.419-2.22 7.569-4.39 11.995-6.48 6.422-3.04 13.866-6.11 21.067-9.08 2.667-1.1 5.301-2.19 7.838-3.26 9.711-4.08 17.762-7.77 22.292-11.03.644-.46 1.131-.86 1.497-1.19-1.587-.87-4.381-1.96-8.942-3.09-5.377-1.34-12.699-2.63-22.374-3.83-79.549-9.85-132.56-41.81-158.478-82.66-26.038-41.03-24.033-90.03 4.521-131.67 12.958-18.9 17.304-36.56 15.87-53.32-1.445-16.91-8.819-33.5-20.358-50.04-20.191-28.95-52.092-56.37-83.86-83.67-4.817-4.14-9.632-8.28-14.401-12.42-12.262-10.65-18.278-22.84-18.891-35.91-.603-12.84 4.044-25.72 11.509-37.94 12.778-20.92 34.711-41.33 57.592-58.61-47.24-10.324-74.275-31.779-88.036-53.333-57.0212 84.873-88.3432 177.643-88.3432 274.773 0 198.76 131.3092 379.66 345.6482 511.19 214.239 131.46 510.589 212.97 838.246 212.97 327.66 0 624.01-81.51 838.25-212.97 214.33-131.53 345.64-312.43 345.64-511.19 0-18.53-1.14-36.89-3.37-55.06-8.52 7.03-19.96 12.42-32.77 16.61-18.53 6.06-41.03 9.96-64.57 12.34-25.04 2.54-51.53 3.39-76.11 3.21 17.79 4.97 32.72 9.73 45.16 14.32 23.67 8.75 38.98 17.14 47.63 25.77 4.41 4.4 7.32 9.08 8.53 14.12 1.22 5.09.56 9.99-1.23 14.54-3.41 8.69-11.23 16.69-19.28 24.03-3.07 2.81-6.2 5.53-9.31 8.24-5.5 4.8-10.96 9.56-16.06 14.69-7.88 7.94-13.75 15.71-16.1 23.71-2.22 7.57-1.47 15.99 5.41 26.03 7.08 10.32 20.63 22.27 43.97 35.96 2.81 1.65 5.24 3.8 6.81 6.59 1.62 2.88 2.09 6.04 1.6 9.17-.91 5.86-5.07 11.42-10.3 16.49-10.71 10.37-29.7 22.17-54.18 34.41-46.22 23.12-113.88 48.74-188.46 70.02zm-1842.515-533.65c-25.67 18.3-50.37 40.25-63.595 61.89-6.756 11.06-10.21 21.54-9.76 31.12.439 9.34 4.629 18.59 14.763 27.39 4.676 4.06 9.436 8.15 14.234 12.27 31.628 27.17 64.867 55.72 86.006 86.02 12.26 17.57 20.791 36.17 22.477 55.89 1.698 19.86-3.599 40.24-17.934 61.15-26.033 37.96-27.561 81.75-4.284 118.43 23.398 36.88 72.55 67.6 149.806 77.17 9.925 1.23 17.774 2.59 23.803 4.09 5.884 1.47 10.593 3.2 13.801 5.46 1.649 1.16 3.252 2.7 4.245 4.77 1.065 2.21 1.208 4.58.582 6.8-1.092 3.87-4.346 6.71-7.066 8.67-5.836 4.2-15.211 8.39-24.657 12.36-2.714 1.14-5.459 2.28-8.19 3.4-7.101 2.94-14.108 5.83-20.237 8.72-4.218 2-7.811 3.9-10.57 5.69-2.392 1.56-3.738 2.78-4.398 3.59.759.62 2.387 1.65 5.588 2.86 8.441 3.19 24.12 6.35 50.233 9.18 25.953 2.81 61.743 5.24 110.082 7.18 82.29 3.29 136.334 7.29 170.262 12.16 16.919 2.43 29.171 5.11 37.518 8.17 4.171 1.53 7.666 3.25 10.336 5.29 2.689 2.06 4.908 4.74 5.716 8.17.822 3.49-.058 6.73-1.506 9.38-1.41 2.59-3.516 4.93-5.811 7.04-4.583 4.22-11.075 8.52-18.003 12.82-3.052 1.9-6.216 3.81-9.424 5.75-11.81 7.15-24.22 14.66-33.829 22.91-5.95 5.11-9.517 9.78-11.144 13.83-1.534 3.82-1.398 7.16.276 10.41 1.804 3.51 5.701 7.48 12.82 11.55 7.068 4.03 16.879 7.91 29.823 11.43 51.976 14.14 150.514 21.59 310.742 15.34 47.17-1.85 85.11-3.77 119.72-5.53 71.06-3.6 128.09-6.5 222.11-6.5 13.51 0 24.16-.42 32.36-1.19 8.28-.77 13.7-1.88 16.94-3.08.68-.26 1.2-.49 1.58-.68-.34-.4-.81-.89-1.45-1.46-4.9-4.38-15.15-9.96-28.93-16.35-11.88-5.52-25.76-11.35-39.85-17.29-1.97-.83-3.95-1.66-5.92-2.49-16.01-6.75-32-13.58-44.97-20.01-6.48-3.22-12.33-6.39-17.11-9.47-4.67-3-8.8-6.2-11.39-9.58-1.32-1.73-2.51-3.84-2.93-6.29-.45-2.63.07-5.26 1.56-7.56 2.64-4.06 7.76-6.33 13.24-7.85 11.5-3.2 31.55-4.87 62.33-4.87 123.08 0 161.08-4.38 196.58-12.6 7.65-1.77 15.23-3.73 23.52-5.87 30.63-7.93 70.97-18.36 160.69-31.02 29.49-4.16 45.43-11.71 55.71-18.13 2.62-1.63 4.91-3.22 7.04-4.73.48-.33.95-.67 1.43-1.01 1.59-1.13 3.17-2.25 4.66-3.24.83-.55 1.68-1.08 2.55-1.59-2.08-1.92-4.17-3.83-6.32-5.81-6.73-6.17-14.14-12.96-24.22-22.49-21.11-19.93-36.02-44.48-42.94-58.43-2.6 1.2-5.21 2.4-7.85 3.62-56.52 26.01-121.28 55.81-185.29 56.44-2.98 2.01-6.89 3.38-10.97 4.45-5.36 1.41-12.11 2.55-19.95 3.53-15.71 1.95-36.58 3.36-61.18 4.85-5.05.3-10.27.61-15.64.93-47.04 2.79-105.81 6.27-169.28 14.05-34.97 4.29-68.43 13.03-100.54 22.76-12.73 3.86-25.35 7.92-37.78 11.91-18.65 5.98-36.85 11.83-54.3 16.66-57.37 15.9-110.8 22.21-158.376-11.08-21.614 7.86-38.823 13.28-52.542 16.67-14.271 3.53-25.135 4.93-33.425 4.38-8.432-.56-14.796-3.2-19.081-8.3-4.082-4.85-5.474-11.02-6.157-16.75-.349-2.93-.537-6.01-.708-9.03l-.052-.92c-.155-2.76-.308-5.49-.563-8.27-.564-6.16-1.597-12.14-3.982-17.75-4.559-10.74-14.715-21.64-40.658-28.26-26.183-6.69-57.922-6.06-90.833-1.71-32.834 4.34-66.341 12.31-95.899 19.98-7.912 2.06-15.577 4.1-22.881 6.05-19.74 5.26-36.847 9.82-49.099 12-4.248.76-8.103 1.27-11.41 1.41-3.16.13-6.464-.04-9.229-1.11-1.46-.57-3.03-1.49-4.282-2.99-1.307-1.58-1.975-3.44-2.094-5.35-.216-3.43 1.344-6.73 3.052-9.45 15.217-24.26 60.478-84.28 97.015-132.02-29.08-3.59-59.037-10.55-84.848-22.82-2.724-.16-5.265-.35-7.6-.56-24.743-2.16-45.731 8.29-64.507 19.42-2.431 1.44-4.855 2.92-7.257 4.37-6.62 4.02-13.069 7.94-19.013 10.82-8.077 3.92-16.721 6.73-25.193 4.73-5.018-1.19-10.091-.63-15.809.73-2.273.54-4.513 1.17-6.886 1.83-.645.18-1.3.37-1.968.55-3.045.85-6.29 1.71-9.616 2.31-6.729 1.2-14.105 1.39-21.843-1.75-7.685-3.13-15.034-9.26-22.326-19.39-5.604-7.79-4.863-18.92-1.809-30.18 3.17-11.69 9.402-25.56 17.559-40.58 14.325-26.39 35.065-57.19 57.28-87.48-.989-.02-1.969-.08-2.941-.19-6.221-.69-11.688-3.18-16.417-6.84-9.261-7.16-15.859-18.9-20.735-31.31-8.136-20.7-12.415-45.88-15.112-61.75-.543-3.19-1.022-6.01-1.455-8.34-.956-5.14-4.317-9.58-10.021-14-5.354-4.16-12.06-7.77-19.391-11.72-.58-.32-1.163-.63-1.75-.95-7.747-4.18-16.102-8.8-22.703-14.6-6.724-5.9-12.084-13.41-13.128-23.43-1.099-10.55 4.716-21.02 12.34-30.43 7.812-9.65 18.616-19.48 29.826-28.97 5.42-4.58 11.006-9.15 16.46-13.6l.638-.52c5.673-4.64 11.189-9.15 16.313-13.52 4.941-4.22 9.398-8.21 13.2-11.94-42.557 5-77.477 4.46-105.999.18zm117.467-13.775c10.532-14.935 27.862-34.654 48.425-49.619 21.427-15.593 47.594-26.887 73.629-20.195 10.663 2.741 21.371 9.609 31.503 18.335 10.207 8.791 20.247 19.833 29.563 31.503 7.156 8.963 13.942 18.371 20.109 27.531-.878-7.081-1.062-13.852-.537-20.221 1.564-18.965 9.509-34.761 24.529-43.77 18.139-10.88 37.705-13.063 59.008-13.232 7.282-.058 14.692.111 22.368.286 12.845.294 26.431.605 41.392-.105-6.408-16.289-12.573-38.097-13.135-58.301-.331-11.869 1.255-23.69 6.319-33.579 3.9-7.615 9.771-13.89 17.942-18.069-17.895-16.565-59.838-36.859-130.453-32.75-30.651 1.784-66.644 8.173-108.278 21.455-58.642 18.71-115.142 34.356-164.79 48.105-23.03 6.378-44.585 12.347-64.195 18.024l-.05.015c-.001 0-.002 0-.003.001-28.161 8.153-52.278 15.692-71.179 22.992-15.638 6.04-27.269 11.754-34.625 17.262-7.566 5.665-8.911 9.749-8.403 12.592.827 4.631 2.428 9.796 5.025 15.202 10.576 22.014 38.002 48.533 97.827 58.067 30.379 4.846 69.076 5.286 118.009-1.529zm373.644-183.856c11.374-2.969 20.517-4.292 28.975-4.578-7.127-11.851-11.374-24.927-11.486-39.495-.142-18.684 6.525-39.128 21.395-61.879 17.368-26.573 42.672-41.292 71.124-51.35-26.537-1.385-51.963-1.442-74.038.495-15.567 1.366-29.282 3.71-40.461 7.192-11.254 3.505-19.438 8.01-24.481 13.359-21.1 22.378-43.961 31.255-62.491 38.451-4.858 1.886-9.418 3.657-13.57 5.525-10.129 4.556-17.882 9.582-23.287 17.749-4.829 7.297-8.188 17.728-8.873 33.887 74.23-2.876 119.081 20.593 137.193 40.644zm-149.247-39.96c.626-18.182 4.354-31.307 10.904-41.205 3.912-5.911 8.68-10.44 13.971-14.134-5.343-.449-11.05-1.401-16.901-2.639-13.591-2.877-29.126-7.585-44.839-12.617-4.789-1.534-9.59-3.096-14.37-4.652-11.019-3.585-21.923-7.133-32.303-10.209-14.915-4.419-28.236-7.702-38.657-8.666-2.06-.191-3.974-.287-5.737-.287-6.702 0-14.357 2.994-23.237 8.976-8.823 5.944-18.253 14.419-28.418 24.476-6.742 6.669-13.7 13.925-20.949 21.484-.703.733-1.408 1.468-2.116 2.206-7.989 8.328-16.311 16.959-24.932 25.374-17.212 16.799-35.86 32.98-55.977 44.471-31.943 18.247-38.201 32.429-39.437 41.17-.498 3.52-.275 6.223-.041 9.065.043.519.086 1.042.125 1.576 16.655-4.746 34.469-9.679 53.217-14.87 49.541-13.719 105.604-29.244 164.031-47.884 40.021-12.768 75.167-19.368 105.666-21.635zm-334.792 87.8c.005-.227.003-.522-.012-.896-.022-.551-.082-1.261-.152-2.1-.255-3.03-.65-7.742.057-12.739 1.969-13.927 11.812-30.75 45.377-49.923 18.793-10.735 36.581-26.081 53.542-42.636 4.195-4.095 8.325-8.248 12.396-12.411-61.798 41.262-115.842 86.877-160.776 135.97 14.727-4.938 31.378-9.995 49.568-15.265zm521.562-40.34c-10.65-.513-21.661.498-38.023 5.088-9.59 2.69-15.583 8.175-19.273 15.379-3.802 7.426-5.302 17.002-5.003 27.767.553 19.835 7.16 41.995 13.72 57.729 14.497-1.699 36.977-7.071 63.256-14.507 25.922-7.336 55.116-16.554 83.167-25.861-1.551-1.543-3.093-3.088-4.622-4.632-9.77-1.846-18.678-4.769-26.255-9.184-26.081-15.197-50.662-31.811-66.967-51.779zm107.509 75.044c-29.912 9.994-61.582 20.06-89.559 27.977-28.88 8.172-54.357 14.214-69.878 15.336-18.857 1.362-36.213.973-51.74.624-7.497-.168-14.567-.327-21.174-.275-20.691.165-37.598 2.331-52.921 11.521-10.872 6.521-17.399 18.27-18.733 34.45-1.342 16.276 2.662 36.624 12.595 58.974 5.79 13.03 13.557 26.66 23.339 40.44 10.36 14.59 20.573 31.06 30.747 47.87 2.549 4.21 5.092 8.44 7.636 12.67 5.154 8.57 10.31 17.14 15.518 25.58 56.69 8.06 84.774 32.88 111.734 56.71 2.374 2.1 4.739 4.19 7.114 6.26 8.711 7.6 15.717 16.11 20.735 25.51 15.715-4.5 32.94-10.89 51.854-17.9 6.495-2.41 13.19-4.89 20.09-7.4 38.104-13.84 81.766-28.07 129.965-32.72 20.05-1.94 39.57-5.07 58.17-9.21 62.81-13.97 114.42-39.23 141.2-67.86 11.41-12.19 17.98-24.63 19.44-36.75.34-2.86.45-5.51.35-7.98-3.96 3.98-8.62 6.81-13.91 8.48-9.35 2.97-19.91 2.1-30.78-.94-21.64-6.06-47.03-21.46-72.33-38.96-12.75-8.81-25.63-18.28-38.18-27.56-1.47-1.08-2.92-2.16-4.38-3.23-11.03-8.17-21.76-16.101-31.94-23.297-11.53-8.15-22.23-15.258-31.72-20.602-9.6-5.404-17.51-8.728-23.533-9.74-14.518-2.439-31.602-11.993-48.923-24.564-16.633-12.071-34.141-27.419-50.786-43.414zm-69.744 374.757c1.688 4.91 2.866 10 3.514 15.26 10.581-9.51 21.496-18.76 31.747-27.13-12.386 4.52-24.181 8.63-35.261 11.87zm72.036-25.42c-17.569 13.14-44.46 34.65-68.155 56.62-1.792 24.66-14.246 51.98-38.164 81.42l88.978-10c3.763-.42 6.943 1.2 9.248 3.07 2.316 1.88 4.333 4.44 6.076 7.2 3.508 5.56 6.627 13.06 9.102 21.06 4.886 15.78 7.851 35.45 5.19 48.44-1.018 4.97-5.014 9.43-9.222 13.12-4.493 3.94-10.458 8.03-17.253 12.11-.05.03-.101.06-.151.09 7.719 4.45 15.425 9.25 22.914 13.99 2.892 1.84 5.746 3.66 8.557 5.45 9.164 5.86 17.869 11.41 25.927 16.09 10.646 6.18 19.417 10.35 25.966 11.69 3.22.65 5.339.49 6.68.02 1.125-.39 2.143-1.15 3.021-2.95 2.721-5.6 4.977-13.21 7.513-22.7.527-1.98 1.064-4.03 1.618-6.14 2.058-7.84 4.344-16.55 7.185-25.61 7.244-23.08 18.29-49.11 39.55-72.11 9.3-10.05 16.63-25.59 22.34-44.28 5.68-18.58 9.6-39.71 12.43-60.45 2.82-20.72 4.52-40.89 5.81-57.55.2-2.45.38-4.83.55-7.13.62-8.08 1.16-15.21 1.74-20.85-16.54 3.37-33.7 5.96-51.26 7.65-46.294 4.47-88.508 18.1-126.19 31.75zm189.84-42.1c-.69 5.55-1.33 13.89-2.13 24.37-.18 2.31-.37 4.73-.56 7.24-1.3 16.7-3.03 37.16-5.89 58.24-2.87 21.06-6.9 42.89-12.84 62.34-5.92 19.34-13.9 36.91-25.01 48.93-19.57 21.16-29.93 45.31-36.91 67.55-2.75 8.76-4.942 17.11-6.992 24.92-.564 2.15-1.117 4.26-1.669 6.33-2.504 9.38-5.017 18.07-8.318 24.86-2.134 4.38-5.466 7.49-9.839 9.03-4.156 1.46-8.683 1.31-13.065.41-8.655-1.76-18.916-6.86-29.602-13.06-8.3-4.82-17.307-10.57-26.518-16.45-2.776-1.78-5.57-3.56-8.369-5.33-9.56-6.07-19.242-12.05-28.735-17.27-11.186 5.94-23.87 11.87-36.565 17.3-17.705 7.58-35.618 14.26-49.802 18.68-7.073 2.2-13.351 3.89-18.272 4.83-2.445.47-4.726.78-6.685.85-.981.04-2.016.01-3.024-.13-.947-.14-2.264-.43-3.54-1.2-1.622-.98-3.728-2.77-5.899-4.76-2.304-2.1-5.092-4.81-8.2-7.93-6.222-6.25-13.861-14.32-21.719-22.92-14.527-15.9-30.085-33.95-38.851-45.91-15.538.33-32.773-.08-50.557-1.66-37.389 48.79-85.365 112.26-100.837 136.92-.114.18-.217.36-.31.51.592.03 1.312.03 2.18 0 2.546-.11 5.811-.52 9.804-1.23 11.716-2.09 28.046-6.44 47.534-11.64 7.414-1.97 15.286-4.07 23.534-6.21 29.67-7.7 63.756-15.83 97.344-20.27 33.51-4.43 67.021-5.26 95.381 1.98 28.6 7.3 42.37 20.19 48.748 35.21 3.084 7.26 4.274 14.64 4.888 21.35.275 3 .441 5.95.594 8.69l.052.92c.173 3.04.343 5.78.643 8.29.613 5.15 1.678 8.37 3.419 10.44 1.537 1.82 4.358 3.62 10.681 4.04 6.464.43 15.923-.64 29.747-4.06 11.654-2.87 26.15-7.35 44.194-13.74-7.137-6.24-12.181-12.32-15.154-18.35-4.217-8.56-4.155-16.85-.424-24.43 3.546-7.21 10.143-13.24 17.948-18.45 7.885-5.25 17.566-10.02 28.002-14.47 13.062-5.56 27.923-10.87 42.433-16.04 8.44-3.02 16.77-5.99 24.55-8.94 10.73-4.08 20.56-8.17 28.74-12.41 8.26-4.29 14.38-8.5 18.09-12.67 12.18-13.7 18.08-24.33 23.24-33.65 2.21-3.99 4.29-7.74 6.67-11.38 3.93-6.02 8.53-11.32 15.66-15.71 4.58-2.83 10.06-5.18 16.83-7.18-.37-.51-.71-1.03-1.04-1.56-2.63-4.3-3.89-9.24-4.23-14.43-.66-10.21 2.18-22.37 6.59-35.22 5.88-17.11 15.14-37 24.56-57.23 4.68-10.06 9.41-20.2 13.77-30.12 18.1-41.17 25.74-102.16 27.99-138.11-30 25.79-77.42 47.18-132.26 59.89zm77.07 226.04c-10.84 2.3-17.91 5.03-22.98 8.15-5.21 3.21-8.64 7.05-11.9 12.05-1.76 2.7-3.53 5.88-5.54 9.49-5.32 9.59-12.33 22.2-25.45 36.96-5.16 5.81-12.83 10.83-21.53 15.35-8.8 4.56-19.13 8.84-30.02 12.97-8.29 3.15-16.84 6.2-25.37 9.24-14.21 5.07-28.356 10.11-41.161 15.57-10.142 4.32-19.054 8.75-26.049 13.42-7.075 4.71-11.646 9.31-13.83 13.75-1.999 4.06-2.23 8.42.423 13.81 2.819 5.72 8.954 12.65 20.078 20.82 43.449 31.9 92.839 27.11 150.689 11.08 17.32-4.8 35.02-10.48 53.4-16.39 12.46-4 25.23-8.1 38.41-12.1 32.37-9.81 66.58-18.78 102.55-23.19 63.88-7.83 123.02-11.33 170.04-14.12 5.37-.32 10.58-.63 15.62-.93 24.59-1.49 45.03-2.87 60.28-4.76-30.37-7.8-58.42-26.4-82.82-48.91-31.4-28.98-57.45-65.06-75.48-95.17-10.28.41-26.14 2.52-45.25 5.48-10.16 1.57-21.12 3.35-32.49 5.21l-1.43.23c-11.87 1.94-24.16 3.94-36.38 5.83-24.4 3.76-48.67 7.1-68.9 8.56-10.11.73-19.35 1-27.17.6-6.74-.35-12.9-1.21-17.74-3zm-493.33 2.96c-.298-.83-.633-2.01-.633-3.32 0-1.45.384-2.81.707-3.77.359-1.06.841-2.18 1.381-3.31 1.081-2.26 2.574-4.91 4.299-7.75 3.464-5.69 8.103-12.5 12.918-19.07 4.815-6.58 9.886-13.04 14.233-18.02 2.165-2.49 4.227-4.69 6.038-6.38.903-.84 1.825-1.63 2.728-2.28.799-.58 2.022-1.37 3.479-1.78 2.573-.73 5.197-.37 7.252.13 2.173.53 4.438 1.41 6.634 2.43 4.401 2.04 9.191 4.93 13.515 7.78 4.359 2.87 8.409 5.81 11.359 8.02 1.137.86 2.116 1.6 2.891 2.2l15.871-1.78c29.423-33.22 42.673-62.23 43.731-86.4.471-10.76-1.459-20.65-5.537-29.7-4.259-9.46-10.938-18.18-19.958-26.04-2.391-2.08-4.754-4.17-7.11-6.25-27.197-24.02-53.349-47.11-108.235-54.25-24.193-3.15-54.098-3.19-92.227 1.36-65.288 7.8-103.158 40.43-117.103 78.58-14.014 38.33-4.383 83.53 27.991 117.58 10.268 10.79 23.155 19.57 37.766 26.63 27.458 13.27 60.574 20.28 92.539 23.38 15.804 1.53 31.247 2.1 45.471 2.01zm81.271-34.18h-.002l-.012-.01-.103-.08c-.047-.04-.109-.09-.184-.15-.127-.1-.292-.23-.494-.39-.125-.1-.264-.21-.417-.32-.795-.62-1.946-1.51-3.358-2.57-2.831-2.12-6.673-4.91-10.765-7.6-4.125-2.72-8.342-5.24-11.95-6.91-1.808-.84-3.296-1.39-4.433-1.66-.452-.11-.773-.16-.982-.19-.345.27-.821.67-1.432 1.23-1.384 1.3-3.142 3.16-5.178 5.49-4.054 4.64-8.907 10.82-13.59 17.21-4.683 6.4-9.116 12.92-12.35 18.23-1.623 2.67-2.886 4.94-3.723 6.69-.345.72-.587 1.29-.746 1.72.1.21.233.47.404.79.685 1.26 1.767 2.97 3.253 5.09 7.778 11.12 24.14 30.22 39.772 47.33 7.779 8.52 15.296 16.45 21.364 22.55 3.038 3.05 5.678 5.61 7.788 7.54 1.65 1.51 2.786 2.45 3.456 2.96.129 0 .288 0 .48-.01 1.086-.04 2.691-.23 4.847-.65 4.283-.82 10.074-2.35 16.953-4.5 13.721-4.27 31.245-10.8 48.651-18.25 13.14-5.62 26.105-11.72 37.25-17.71l1.705-3.37c.763.39 1.526.78 2.29 1.18 2.179-1.22 4.274-2.43 6.271-3.63 6.502-3.9 11.787-7.57 15.515-10.84 4.012-3.51 5.209-5.71 5.369-6.49 2.055-10.03-.219-27.37-4.897-42.48-2.307-7.45-5.051-13.87-7.782-18.19-1.376-2.18-2.574-3.55-3.478-4.28-.304-.25-.513-.37-.632-.43l-126.912 14.26zm128.737-12.76c.001 0 .009.01.027.01-.018 0-.027-.01-.027-.01zm-215.177-215.81c-3.599-5.92-7.181-11.87-10.742-17.79-2.137-3.56-4.266-7.1-6.387-10.61-15.425-4.65-39.487-9.26-63.811-8.66-25.629.64-50.328 7.02-66.106 23.77-18.694 19.86-60.61 68.94-99.83 121.25-25.597 34.14-49.884 69.44-65.812 98.78-7.981 14.7-13.709 27.62-16.522 38-2.93 10.8-2.197 17-.035 20.01 6.427 8.93 12.129 13.25 17.096 15.27 4.915 2 9.794 2.02 15.196 1.05 2.738-.49 5.527-1.22 8.518-2.05.593-.16 1.198-.33 1.813-.5 2.402-.68 4.948-1.4 7.484-2 6.432-1.52 13.657-2.55 21.354-.73 4.244 1 9.654-.2 17.178-3.85 5.398-2.61 11.112-6.08 17.536-9.98 2.502-1.52 5.111-3.1 7.851-4.73 15.532-9.2 34.268-19.08 56.28-21.03-7.425-5.07-14.28-10.78-20.378-17.19-35.225-37.05-46.294-86.97-30.569-129.99 15.793-43.21 58.101-78.16 126.966-86.38 32.798-3.92 59.959-4.54 82.92-2.64zm-26.157-43.21c-7.492-12.13-14.936-23.73-22.417-34.27-10.154-14.3-18.301-28.55-24.433-42.32-8.946-16.7-24.635-42.29-42.645-64.853-9.038-11.322-18.562-21.754-28.014-29.894-9.528-8.206-18.576-13.725-26.651-15.801-20.812-5.35-43.165 3.427-63.565 18.273-20.24 14.729-37.35 34.587-47.091 48.865-5.523 8.1-14.926 16.88-25.271 25.71-5.239 4.47-10.854 9.07-16.513 13.69l-.601.49c-5.48 4.47-10.995 8.98-16.336 13.5-11.125 9.41-21.193 18.64-28.251 27.35-7.245 8.95-10.298 16.12-9.724 21.63.629 6.04 3.801 10.99 9.103 15.64 5.425 4.76 12.587 8.79 20.484 13.06.636.34 1.278.69 1.924 1.03 7.1 3.82 14.687 7.91 20.875 12.71 6.823 5.29 12.748 12.06 14.468 21.3.481 2.58.997 5.61 1.57 8.97 2.727 15.98 6.745 39.53 14.368 58.93 4.623 11.76 10.235 21.04 16.9 26.2 3.235 2.5 6.66 3.98 10.387 4.39 3.406.38 7.389-.1 12.081-1.95 39.153-52.11 80.814-100.89 99.712-120.96 19.023-20.21 47.658-26.89 74.56-27.55 19.936-.49 39.592 2.29 55.08 5.86zm1148.946 363.05c6.47 12.94 20.53 36.05 40.25 54.69 10.16 9.59 17.3 16.14 23.89 22.17 4.61 4.24 8.95 8.21 13.86 12.81 8.42 7.88 18.19 17.31 33.34 32.45 17.49 17.48 29.96 25.17 49.92 30.2 15.42 3.88 35.05 6.13 64.59 9.52 10.25 1.18 21.69 2.49 34.56 4.06 48.2 5.86 103.25-6.89 138.34-24.02 8.73-4.26 16.08-8.73 21.7-13.13 5.7-4.46 9.26-8.57 10.95-12.02 1.56-3.2 1.37-5.45.23-7.39-1.39-2.34-4.83-5.33-12.14-8.13-20.75-7.94-41.18-13.45-60.22-18.57-3.34-.9-6.63-1.79-9.88-2.67-21.47-5.87-41.22-11.81-55.91-21.21-8.09-5.18-14.86-11.53-19.59-19.69-4.47-7.7-8.75-15.48-12.9-23.01-5.15-9.36-10.09-18.32-14.9-26.27-4.26-7.04-8.12-12.74-11.52-16.61-1.69-1.93-3.11-3.21-4.23-3.97-.92-.63-1.37-.71-1.42-.72-21.68.31-44.28.07-65.35-.15-2.87-.03-5.72-.06-8.53-.09-23.52-.24-44.51-.35-59.7.47-26.33 1.42-58.56 14.59-95.34 31.28zm-313.19 272.46s-.01.02-.04.05c.02-.03.04-.05.04-.05zm-679.391-100.13c.002 0 .003.02.001.04-.004-.03-.002-.04-.001-.04zm526.771-902.116c-.37-5.721.97-13.445 3.13-21.968 2.33-9.225 5.83-20.152 10.03-31.949 8.42-23.607 19.8-51.079 30.8-76.093 3.79-8.642 7.55-17.001 11.12-24.817-27.69-24.538-74.1-52.175-132.16-52.175-15.96 0-29.88-.317-42.12-.596-7.03-.16-13.5-.308-19.48-.375-16.6-.187-29.81.229-42.37 2.502-24.86 4.499-48.1 16.43-89.72 47.837-23.95 18.067-50.69 28.961-77.608 36.945-16.847 4.997-34.176 8.952-50.919 12.775-9.715 2.217-19.233 4.39-28.345 6.695-40.745 10.308-75.118 23.613-96.127 55.758-13.996 21.413-19.556 39.56-19.437 55.211.119 15.578 5.87 29.373 15.791 42.138 14.741 18.969 38.37 35.263 65.243 50.921 6.46 3.765 14.559 6.411 24.165 8.071 18.691 3.23 42.15 2.578 68.194.075 20.129-1.934 41.456-4.934 62.983-7.961 6.29-.884 12.59-1.771 18.88-2.634 27.73-3.801 55.26-7.14 79.82-7.634 24.42-.49 46.71 1.801 63.54 9.855 31.34 14.999 65.69-2.418 94.39-29.848 14.11-13.474 26.25-28.847 35.14-42.517 4.45-6.83 8.04-13.174 10.64-18.58 2.43-5.051 3.85-8.996 4.42-11.636zm261.06-46.638c2.51-4.955 6.89-8.422 12.05-10.787 5.6-2.567 12.53-4.039 20.24-4.771 14.22-1.351 32.3-.288 52.35 2.232 7.32-21.608 32.27-55.696 86.49-57.26 9.72-.28 19.36.714 28.93 2.694-8.1-6.248-15.58-12.368-20.48-16.982-20.54-19.328-35.23-36.735-47.43-51.193-5.72-6.768-10.88-12.89-15.85-18.26-10.02-10.837-19.53-19.058-31.77-24.919-12.27-5.871-27.72-9.579-49.87-10.672-26.67-1.317-57.26-.333-86.84 2.821-29.65 3.161-58.05 8.478-80.35 15.726-11.16 3.626-20.6 7.678-27.87 12.071-7.34 4.441-11.94 8.931-14.14 13.205-4.19 8.137-10.92 22.052-18.68 38.921-4.09 8.88-8.46 18.565-12.88 28.637-10.94 24.892-22.2 52.071-30.48 75.294-4.14 11.618-7.5 22.15-9.7 30.859-2.26 8.935-3.1 15.234-2.75 18.744.23 2.197.85 2.506 1.02 2.593l.02.011c.66.35 2.39.761 6.13.218 7.42-1.077 18.16-5.117 32.14-10.513l1.78-.687c26.93-10.398 63.3-24.441 100.67-24.567.61-.104 1.39-.24 2.34-.404 12.88-2.232 55.91-9.687 104.93-13.011z" fill="#000" fill-rule="evenodd"/></svg>