<svg id="&#x5716;&#x5C64;_1" enable-background="new 0 0 512 512" viewBox="0 0 512 512" xmlns="http://www.w3.org/2000/svg"><g><path id="_x33__00000047054277302303291150000005559784510110808237_" d="m485.211 302.63c-2.306-.656-4.596-.965-6.857-.971-6.143-5.332-13.22-11.419-20.621-17.793 2.29-19.728-7.115-35.567-23.735-41.99-8.309-3.212-17.064-3.452-25.261-1.029-7.774-7.129-14.013-13.154-17.255-16.967-1.825-2.146-3.388-3.947-4.853-5.631-2.169-14.658-9.978-26.762-22.175-32.016-.204-.402-.354-.682-.564-1.102l-275.889-148.965c-20.739-8.216-46.178 7.305-56.872 34.567-10.701 27.267-2.611 55.961 18.127 64.05l8.484 5.74c-20.745-8.088-42.267 6.262-52.961 33.528-10.828 27.26-2.611 55.96 18.127 64.045l24.904 13.85-2.599 4.671c-11.216 23.35-7.038 61.833 9.134 71.095l216.658 138.738c1.569 2.007 20.824 9.526 35.27.988 13.059-7.719 21.444-31.246 22.695-35.415 2.462-8.209 3.348-27.12 9.011-24.372 4.685 4.998 15.008 13.743 22.104 15.762 21.337 6.074 43.872-6.785 52.082-35.632 1.694-5.959 2.723-11.539 3.166-16.794 5.697.732 14.669 6.754 26.369 10.461 3.51 9.098 9.701 15.645 18.146 18.049 18.14 5.163 39.248-10.203 47.458-39.049 8.213-28.846-3.953-52.654-22.093-57.818z" fill="#ddc7a1"/><path id="_x32__00000123399427165767810750000002974855535480052657_" d="m372.266 297.11c-.602-15.837 5.137-33.945 17.78-44.133 12.143-9.785 27.739-12.332 42.621-15.459l-47.643-25.774h-.134c2.739 11.612 1.828 25.567-3.65 39.268-9.783 24.911-49.305 35.872-49.305 35.872 1.955.389 3.777.91 5.605 1.566 15.261 6.001 23.35 23.478 22.306 43.567 0 0 11.395-5.495 22.038-7.348-5.847-7.985-9.251-17.983-9.618-27.559zm115.2 1.384-27.229-14.942c-3.213 12.044-7.965 23.575-15.825 33.612-8.048 10.281-19.758 21.052-32.882 22.328.127.214.287.397.408.614 5.089 9.26 6.911 21.388 5.089 34.171l37.172 24.529c-12.911-11.089-17.216-37.313-9.127-62.484 8.216-25.827 26.477-41.745 42.394-37.828zm-204.705 79.976-235.253-125.982-2.296 4.127c-1.178 2.451-2.089 5.143-2.933 7.877l233.539 125.064c1.758-2.805 3.605-5.445 5.615-7.688 0 .001 3.694.081 1.328-3.398zm24.117-110.066-269.468-142.029c3.306 3.627 7.204 6.596 11.847 8.407l8.484 5.74c-7.471-2.912-15.025-2.821-22.159-.358l279.628 147.381c.389.205.815.182 1.223.302 1.898-.549 3.803-.82 5.707-1.056.717-.554 1.433-1.127 1.885-1.978.315-.596.43-1.23.548-1.86l-11.86-6.331c-2.312-2.384-4.198-5.201-5.835-8.218zm-259.399-94.826c2.548-2.548 2.548-6.675 0-9.223l-5.07-5.07c-2.548-2.548-6.675-2.548-9.223 0s-2.548 6.675 0 9.223l5.07 5.07c1.274 1.274 2.943 1.911 4.611 1.911 1.67 0 3.339-.637 4.612-1.911zm61.363 153.343-2.892-1.452c-3.21-1.605-7.146-.325-8.764 2.898-1.605 3.223-.306 7.14 2.904 8.758l2.892 1.452c.943.471 1.936.694 2.93.694 2.382 0 4.688-1.318 5.834-3.592 1.606-3.223.306-7.14-2.904-8.758zm-44.076-37.936c-2.153-2.892-6.28-3.484-9.121-1.318-2.892 2.153-3.478 6.242-1.325 9.127l2.166 2.898c1.274 1.713 3.236 2.618 5.223 2.618 1.363 0 2.739-.42 3.898-1.299 2.892-2.153 3.478-6.242 1.325-9.127zm108.572 48.076-5.809-2.898c-3.248-1.631-7.146-.299-8.752 2.924-1.605 3.223-.306 7.14 2.917 8.745l5.809 2.898c.943.471 1.936.688 2.917.688 2.395 0 4.701-1.325 5.834-3.611 1.606-3.224.307-7.141-2.916-8.746zm60.904 38.84-7.974-2.898c-3.401-1.236-7.134.516-8.357 3.898-1.236 3.388.51 7.127 3.898 8.357l7.974 2.898c.739.268 1.49.395 2.229.395 2.662 0 5.172-1.643 6.127-4.293 1.237-3.389-.508-7.127-3.897-8.357zm32-177.285c1.223 1.013 2.701 1.51 4.178 1.51 1.86 0 3.72-.803 5.006-2.35 2.306-2.764 1.936-6.879-.828-9.185l-4.344-3.618c-2.764-2.287-6.879-1.93-9.185.841-2.306 2.764-1.936 6.879.828 9.185zm-164.954-111.394c1.172.879 2.548 1.306 3.911 1.306 1.975 0 3.936-.898 5.223-2.611 2.153-2.879 1.567-6.968-1.312-9.127l-2.904-2.178c-2.866-2.153-6.943-1.586-9.134 1.306-2.153 2.879-1.567 6.968 1.312 9.127zm-51.656 26.688 4.828 1.93c.79.318 1.618.465 2.42.465 2.586 0 5.032-1.548 6.051-4.102 1.338-3.344-.28-7.14-3.631-8.478l-4.828-1.93c-3.325-1.357-7.134.293-8.471 3.637s.281 7.14 3.631 8.478zm112.203 3.274 4.344 1.446c.688.223 1.376.331 2.064.331 2.739 0 5.274-1.726 6.191-4.465 1.134-3.414-.713-7.108-4.127-8.248l-4.344-1.446c-3.439-1.127-7.108.707-8.255 4.134-1.134 3.414.713 7.108 4.127 8.248zm189.756 106.859c3.605 0 6.522-2.917 6.522-6.522v-5.796c0-3.605-2.917-6.522-6.522-6.522s-6.522 2.917-6.522 6.522v5.796c0 3.605 2.917 6.522 6.522 6.522zm-167.96-45.923 5.796 3.624c1.07.675 2.268.994 3.452.994 2.166 0 4.293-1.083 5.529-3.064 1.911-3.057.981-7.076-2.076-8.987l-5.796-3.624c-3.006-1.904-7.057-.994-8.981 2.07-1.911 3.057-.981 7.076 2.076 8.987zm-83.515 39.401c1.911 0 3.796-.834 5.095-2.446 2.242-2.809 1.796-6.917-1.019-9.166l-3.618-2.898c-2.777-2.248-6.892-1.809-9.172 1.013-2.242 2.809-1.796 6.917 1.019 9.166l3.618 2.898c1.198.968 2.637 1.433 4.077 1.433zm245.195 104.82c-3.312-1.325-7.134.28-8.471 3.631l-1.452 3.624c-1.338 3.344.28 7.14 3.631 8.484.79.318 1.605.465 2.42.465 2.586 0 5.032-1.548 6.051-4.095l1.452-3.624c1.337-3.345-.281-7.141-3.631-8.485zm-9.758-66.037c-.599-3.554-4.013-6.006-7.503-5.357l-4.344.726c-3.554.592-5.962 3.955-5.363 7.509.535 3.185 3.299 5.446 6.42 5.446.357 0 .726-.025 1.083-.089l4.344-.726c3.554-.592 5.962-3.955 5.363-7.509zm-28.203 75.687-4.344 2.178c-3.21 1.611-4.51 5.529-2.904 8.752 1.146 2.28 3.452 3.599 5.834 3.599.994 0 1.987-.223 2.93-.694l4.344-2.178c3.21-1.611 4.509-5.529 2.904-8.752-1.631-3.236-5.567-4.517-8.764-2.905zm111.859-54.528c.943.465 1.936.688 2.917.688 2.382 0 4.688-1.318 5.834-3.605 1.605-3.223.306-7.14-2.917-8.751l-5.796-2.898c-3.223-1.586-7.134-.306-8.751 2.917-1.605 3.223-.306 7.14 2.917 8.751zm58.954 63.98c-3.605 0-6.522 2.917-6.522 6.522v3.866c0 3.605 2.917 6.522 6.522 6.522s6.522-2.917 6.522-6.522v-3.866c.001-3.605-2.916-6.522-6.522-6.522zm-84.801 27.745c-3.07-1.834-7.095-.853-8.955 2.229l-2.178 3.624c-1.86 3.089-.853 7.095 2.229 8.955 1.057.631 2.217.93 3.363.93 2.204 0 4.369-1.127 5.592-3.159l2.178-3.624c1.86-3.089.853-7.095-2.229-8.955zm-200.495-116.12c.943.465 1.936.688 2.917.688 2.382 0 4.688-1.318 5.834-3.605 1.605-3.223.306-7.14-2.917-8.752l-2.904-1.452c-3.21-1.592-7.134-.306-8.752 2.917-1.605 3.223-.306 7.14 2.917 8.752zm-58.293 24.471c1.019.58 2.14.853 3.236.853 2.255 0 4.459-1.185 5.669-3.293 1.783-3.127.688-7.108-2.433-8.898l-5.083-2.898c-3.121-1.771-7.108-.694-8.904 2.439-1.783 3.127-.688 7.108 2.433 8.898zm103.197 51.567c-1.605 3.223-.306 7.14 2.917 8.751l5.796 2.898c.943.465 1.936.688 2.917.688 2.382 0 4.688-1.318 5.834-3.605 1.605-3.223.306-7.14-2.917-8.751l-5.796-2.898c-3.21-1.593-7.121-.313-8.751 2.917zm3.656-48.898c-3.019-1.981-7.057-1.197-9.045 1.822-2 3-1.185 7.045 1.809 9.044l4.357 2.898c1.121.739 2.369 1.089 3.618 1.089 2.102 0 4.178-1.019 5.427-2.911 2-3 1.185-7.045-1.809-9.045zm47.108 133.706c-3.605 0-6.522 2.917-6.522 6.522v6.522c0 3.605 2.917 6.522 6.522 6.522s6.522-2.917 6.522-6.522v-6.522c0-3.605-2.917-6.522-6.522-6.522z" fill="#cb9963"/><path id="_x31__00000054964622217668058840000014928256031717479573_" d="m489.488 297.431c-7.796-3.713-16.407-3.739-24.841-.051-2.541 1.109-4.981 2.622-7.344 4.345 3.596-12.435 4.127-25.145 1.076-36.478-3.834-14.185-12.458-24.56-24.293-29.216-11.847-4.662-25.21-2.924-37.668 4.847-2.783 1.739-5.427 3.783-7.949 6.014 6.589-27.348-3.14-54.02-24.242-62.319-11.822-4.656-25.172-2.955-37.605 4.726-11.834 7.325-21.49 19.344-27.184 33.84-5.681 14.42-6.624 29.433-2.65 42.254 2.376 7.672 6.509 14.023 11.764 19.064-14.057 6.578-26.793 19.899-33.866 37.879-5.873 14.936-7.108 30.745-3.465 44.516 1.108 4.179 2.729 7.921 4.611 11.404-5.666 6.929-10.309 15.544-13.401 25.278-9.732 30.726-2.025 62.241 17.567 71.751 3.783 1.834 7.783 2.752 11.872 2.752 3.974 0 8.038-.866 12.076-2.605 13.248-5.701 24.688-20.28 30.624-39.006 2.019-6.361 3.032-12.88 3.58-19.342 4.054 4.36 8.908 7.853 14.535 10.068 4.65 1.828 9.478 2.701 14.331 2.701 19.847-.006 39.961-14.573 48.968-37.465 5.338-13.567 6.064-28.076 2.038-40.853-.64-2.026-1.58-3.81-2.43-5.671 7.236-2.221 13.99-5.854 19.952-10.643-8.153 28.302.064 57.14 19.267 66.257 3.936 1.866 8.064 2.803 12.267 2.803 4.14 0 8.369-.911 12.56-2.739 12.586-5.484 23.299-18.911 28.662-35.917 9.111-28.908.844-58.863-18.812-68.194zm-122.448 27.12c-.783-13.017-5.255-24.574-12.853-32.739 4.548-2.037 8.908-4.78 12.927-8.275-2.038 12.232.449 26.377 7.261 38.607-2.535.549-4.972 1.389-7.335 2.407zm-57.792-63.018c-3.096-10.006-2.267-21.942 2.331-33.618 4.675-11.898 12.446-21.669 21.911-27.522 5.707-3.535 11.567-5.331 17.121-5.331 3.07 0 6.038.548 8.853 1.65 16.993 6.688 23.185 31.573 13.796 55.471-6.688 17.016-19.236 28.113-32.417 30.191-.029-.011-.051-.033-.08-.045-5.118-2.013-10.5-2.542-15.904-2.205-7.344-3.412-12.911-9.875-15.611-18.591zm-22.433 65.579c8.153-20.7 24.841-34.318 40.216-34.318 3.07 0 6.076.541 8.968 1.675 17.337 6.822 23.516 32.573 13.758 57.394-9.771 24.841-31.783 39.484-49.184 32.649-8.038-3.166-13.987-10.624-16.739-21-2.93-11.107-1.873-24.031 2.981-36.4zm35.324 105.375c-4.739 14.936-13.681 26.802-23.337 30.955-4.688 2.013-9.083 2.045-13.108.102-13.439-6.522-18.395-32.197-10.828-56.07 2.245-7.068 5.395-13.39 9.191-18.638 3.471 3.266 7.293 6.065 11.751 7.816 4.344 1.707 8.866 2.522 13.439 2.522 4.933 0 9.917-1.008 14.796-2.797 2.517 10.839 2.01 23.752-1.904 36.11zm81.719-44.879c-8.573 21.796-29.426 34.07-46.394 27.401-10.197-4.013-16.751-14.286-18.318-27.15 9.458-7.418 17.592-18.132 22.739-31.219 2.22-5.643 3.5-11.31 4.36-16.922 9.162-5.439 15.277-6.541 22.328-3.779 7.987 3.14 14.025 10.076 17.006 19.516 3.133 9.943 2.521 21.357-1.721 32.153zm4.593-53.238c-4.172-4.67-9.274-8.274-15.115-10.57-1.331-.523-2.611-.861-3.892-1.207-1.322-2.172-2.879-5.174-3.293-5.882-5.771-9.892-9.503-25.159-4.866-36.968 4.726-12.006 12.56-21.879 22.038-27.796 8.879-5.541 18.089-6.873 26-3.777 7.885 3.102 13.732 10.376 16.458 20.471 2.917 10.802 1.911 23.363-2.803 35.363-7.228 18.372-22.515 27.703-34.527 30.366zm87.419 27.328c-4.255 13.465-12.267 23.885-21.439 27.885-4.943 2.153-9.656 2.178-14.013.108-13.439-6.376-18.917-30.414-11.974-52.484 4.242-13.452 12.255-23.872 21.427-27.872 2.51-1.102 4.968-1.65 7.363-1.65 2.293 0 4.522.51 6.662 1.529 13.439 6.382 18.917 30.42 11.974 52.484z" fill="#f9d591"/></g></svg>