<svg height="512" viewBox="0 0 48 48" width="512" xmlns="http://www.w3.org/2000/svg"><g id="_22-mushroom" data-name="22-mushroom"><path d="m38.05 20.47a41.25 41.25 0 0 1 -7.05.53 41.25 41.25 0 0 1 -7.05-.53c-5.68-1-8.95-3.42-8.95-7.47 0-5.52 6.06-12 16-12s16 6.48 16 12c0 4.05-3.27 6.47-8.95 7.47z" fill="#eea97c"/><path d="m38.05 20.47a35.181 35.181 0 0 1 -.05 8.53c0 1-3.13 2-7 2s-7-1-7-2a35.181 35.181 0 0 1 -.05-8.53 41.25 41.25 0 0 0 7.05.53 41.25 41.25 0 0 0 7.05-.53z" fill="#ffd5b3"/><path d="m11.93 29c-1.63 0-2.93.03-2.93 2 0 2-1.21 2-1.21 2a2.9 2.9 0 0 1 -2.79-3 3.773 3.773 0 0 1 4-4c-5.022 0-6.692 3.327-6.956 7.666.971 2.019 2.528 3.334 4.286 3.334h4.67c.37-3.74 1-7 1-7a6.541 6.541 0 0 0 -.07-1z" fill="#eea97c"/><path d="m25 26a3.773 3.773 0 0 1 4 4 2.9 2.9 0 0 1 -2.79 3s-1.21 0-1.21-2c0-1.97-1.3-2-2.93-2a6.541 6.541 0 0 0 -.07 1s.63 3.26 1 7h4.67c1.758 0 3.315-1.315 4.286-3.334-.264-4.339-1.934-7.666-6.956-7.666z" fill="#eea97c"/><path d="m20.56 17h-7.12c-6.87 0-12.44 5.29-12.44 11.82a11.255 11.255 0 0 0 1.044 4.846c.264-4.339 1.934-7.666 6.956-7.666 2.15 0 2.77 1.71 2.93 3a6.541 6.541 0 0 1 .07 1s-.63 3.26-1 7a31.845 31.845 0 0 0 0 8c0 1 2.41 2 6 2s6-1 6-2a31.845 31.845 0 0 0 0-8c-.37-3.74-1-7-1-7a6.541 6.541 0 0 1 .07-1c.16-1.29.78-3 2.93-3 5.022 0 6.692 3.327 6.956 7.666a11.255 11.255 0 0 0 1.044-4.846c0-6.53-5.57-11.82-12.44-11.82z" fill="#ffd5b3"/><path d="m5 30a2.9 2.9 0 0 0 2.79 3s1.21 0 1.21-2c0-1.97 1.3-2 2.93-2-.16-1.29-.78-3-2.93-3a3.773 3.773 0 0 0 -4 4z" fill="#bc784a"/><path d="m25 31c0 2 1.21 2 1.21 2a2.9 2.9 0 0 0 2.79-3 3.773 3.773 0 0 0 -4-4c-2.15 0-2.77 1.71-2.93 3 1.63 0 2.93.03 2.93 2z" fill="#bc784a"/><path d="m38.05 20.47a41.25 41.25 0 0 1 -7.05.53 41.25 41.25 0 0 1 -7.05-.53c-5.68-1-8.95-3.42-8.95-7.47 0-5.52 6.06-12 16-12s16 6.48 16 12c0 4.05-3.27 6.47-8.95 7.47z" fill="#eea97c"/><path d="m38.05 20.47a35.181 35.181 0 0 1 -.05 8.53c0 1-3.13 2-7 2s-7-1-7-2a35.181 35.181 0 0 1 -.05-8.53 41.25 41.25 0 0 0 7.05.53 41.25 41.25 0 0 0 7.05-.53z" fill="#ffd5b3"/><path d="m31 4c9.042 0 14.857 5.362 15.836 10.485a6.638 6.638 0 0 0 .164-1.485c0-5.52-6.06-12-16-12s-16 6.48-16 12a6.638 6.638 0 0 0 .164 1.485c.979-5.123 6.794-10.485 15.836-10.485z" fill="#f4bc92"/><path d="m31 21a41.25 41.25 0 0 1 -7.05-.53c-.082.987-.145 1.987-.186 2.963.063.012.122.026.186.037a41.25 41.25 0 0 0 7.05.53 41.25 41.25 0 0 0 7.05-.53c.064-.011.123-.025.186-.037-.041-.976-.1-1.976-.186-2.963a41.25 41.25 0 0 1 -7.05.53z" fill="#ffc7a1"/><path d="m11.93 29c-1.63 0-2.93.03-2.93 2 0 2-1.21 2-1.21 2a2.9 2.9 0 0 1 -2.79-3 3.773 3.773 0 0 1 4-4c-5.022 0-6.692 3.327-6.956 7.666.971 2.019 2.528 3.334 4.286 3.334h4.67c.37-3.74 1-7 1-7a6.541 6.541 0 0 0 -.07-1z" fill="#eea97c"/><path d="m25 26a3.773 3.773 0 0 1 4 4 2.9 2.9 0 0 1 -2.79 3s-1.21 0-1.21-2c0-1.97-1.3-2-2.93-2a6.541 6.541 0 0 0 -.07 1s.63 3.26 1 7h4.67c1.758 0 3.315-1.315 4.286-3.334-.264-4.339-1.934-7.666-6.956-7.666z" fill="#eea97c"/><path d="m20.56 17h-7.12c-6.87 0-12.44 5.29-12.44 11.82a11.255 11.255 0 0 0 1.044 4.846c.264-4.339 1.934-7.666 6.956-7.666 2.15 0 2.77 1.71 2.93 3a6.541 6.541 0 0 1 .07 1s-.63 3.26-1 7a31.845 31.845 0 0 0 0 8c0 1 2.41 2 6 2s6-1 6-2a31.845 31.845 0 0 0 0-8c-.37-3.74-1-7-1-7a6.541 6.541 0 0 1 .07-1c.16-1.29.78-3 2.93-3 5.022 0 6.692 3.327 6.956 7.666a11.255 11.255 0 0 0 1.044-4.846c0-6.53-5.57-11.82-12.44-11.82z" fill="#ffd5b3"/><path d="m13.44 19h7.12a12.2 12.2 0 0 1 12.387 10.817c.026-.329.053-.657.053-1 0-6.527-5.57-11.817-12.44-11.817h-7.12c-6.87 0-12.44 5.29-12.44 11.82 0 .34.027.668.053 1a12.2 12.2 0 0 1 12.387-10.82z" fill="#ffe2c0"/><path d="m5 30a2.9 2.9 0 0 0 2.79 3s1.21 0 1.21-2c0-1.97 1.3-2 2.93-2-.16-1.29-.78-3-2.93-3a3.773 3.773 0 0 0 -4 4z" fill="#bc784a"/><path d="m25 31c0 2 1.21 2 1.21 2a2.9 2.9 0 0 0 2.79-3 3.773 3.773 0 0 0 -4-4c-2.15 0-2.77 1.71-2.93 3 1.63 0 2.93.03 2.93 2z" fill="#bc784a"/><path d="m9 26a3.71 3.71 0 0 0 -3.958 3.451 4.813 4.813 0 0 0 -.042.549 3.176 3.176 0 0 0 .042.451 2.855 2.855 0 0 0 2.748 2.549s1.21 0 1.21-2c0-1.879 1.187-1.992 2.711-2h.219c-.16-1.29-.78-3-2.93-3zm2.2 2.012c-1.27.047-2.2.326-2.2 1.988 0 2-1.21 2-1.21 2a2.805 2.805 0 0 1 -2.645-2.1 3.667 3.667 0 0 1 3.855-2.9 2.588 2.588 0 0 1 2.2 1.012z" fill="#a8640b"/><path d="m29 30a4.813 4.813 0 0 0 -.042-.549 3.71 3.71 0 0 0 -3.958-3.451c-2.15 0-2.77 1.71-2.93 3h.219c1.524.006 2.711.119 2.711 2 0 2 1.21 2 1.21 2a2.855 2.855 0 0 0 2.748-2.549 3.176 3.176 0 0 0 .042-.451zm-2.79 2s-1.21 0-1.21-2c0-1.662-.93-1.941-2.2-1.988a2.588 2.588 0 0 1 2.2-1.012 3.667 3.667 0 0 1 3.855 2.9 2.805 2.805 0 0 1 -2.645 2.1z" fill="#a8640b"/><path d="m9 31c0 1.473-.654 1.858-1 1.961v4.039h3c.37-3.74 1-7 1-7a6.541 6.541 0 0 0 -.07-1c-1.63 0-2.93.03-2.93 2z" fill="#df9563"/><path d="m25 31c0-1.97-1.3-2-2.93-2a6.541 6.541 0 0 0 -.07 1s.63 3.26 1 7h3v-4.039c-.346-.103-1-.488-1-1.961z" fill="#df9563"/><path d="m16.444 17h4.116a12.683 12.683 0 0 1 9.293 3.981c.381.007.754.019 1.147.019 1.516 0 2.929-.063 4.254-.179a12.409 12.409 0 0 0 -11.694-7.821h-7.12c-.29 0-.575.023-.86.041a9.339 9.339 0 0 0 -.416 1.444 5.783 5.783 0 0 0 1.28 2.515z" fill="#df9563"/><path d="m35.947 25.817c.026-.329.053-.657.053-1 0-.36-.023-.714-.057-1.066-1.254.133-2.6.208-4.039.231a11.274 11.274 0 0 1 1.096 4.838c0 .34-.027.668-.053 1-.031.377-.079.746-.141 1.106.534-.044 1.046-.1 1.522-.184a8.147 8.147 0 0 0 .628-1.073 10.955 10.955 0 0 0 .991-3.852z" fill="#eea97c"/><path d="m15.043 13.771a6.482 6.482 0 0 0 .121.714 9.339 9.339 0 0 1 .416-1.444c-.193.013-.385.023-.575.044a6.506 6.506 0 0 0 .037.677z" fill="#df9563"/><path d="m29.853 20.981a11.754 11.754 0 0 1 2.051 3c1.436-.023 2.785-.1 4.039-.231a11.206 11.206 0 0 0 -.689-2.933c-1.325.12-2.738.183-4.254.183-.393 0-.766-.012-1.147-.019z" fill="#bc784a"/><path d="m31 4a18.915 18.915 0 0 0 -9.4 2.341 23.8 23.8 0 0 0 2.625 6.684 12.371 12.371 0 0 1 11.026 7.8c.983-.086 1.923-.2 2.8-.351 4.947-.871 8.064-2.82 8.786-5.985-.98-5.127-6.795-10.489-15.837-10.489z" fill="#f4bc92"/><path d="m38.05 23.47c-.342.06-.7.107-1.065.157.42.148.845.283 1.275.409-.035-1.162-.111-2.375-.21-3.566.082.987.145 1.987.186 2.963-.063.012-.122.026-.186.037z" fill="#ffd5b3"/><path d="" fill="#f4bc92"/><path d="" fill="#f4bc92"/><path d="m46.957 13.771v-.009a6.762 6.762 0 0 0 .043-.762c0-5.52-6.06-12-16-12a18.77 18.77 0 0 0 -9.857 2.609 23.846 23.846 0 0 0 .46 2.732 18.915 18.915 0 0 1 9.397-2.341c9.042 0 14.857 5.362 15.836 10.485a6.482 6.482 0 0 0 .121-.714z" fill="#ffd5b3"/><path d="m35.851 23.193c.373.154.752.3 1.134.434.36-.05.723-.1 1.065-.157.064-.011.123-.025.186-.037-.041-.976-.1-1.976-.186-2.963-.873.153-1.813.265-2.8.351a11.372 11.372 0 0 1 .601 2.372z" fill="#ffc7a1"/><path d="m31.7 20.985c.5-.006 1-.011 1.476-.031h.077q1.03-.045 2-.129a12.371 12.371 0 0 0 -11.026-7.8 24.084 24.084 0 0 0 7.473 7.96z" fill="#eea97c"/><path d="m33.179 20.954h.077z" fill="#df9563"/><path d="m33.179 20.954c-.475.02-.978.025-1.476.031.504-.003.997-.012 1.476-.031z" fill="#bc784a"/><path d="m35.254 20.821q-.966.084-2 .129c.692-.028 1.356-.073 2-.129z" fill="#bc784a"/><path d="m33.179 20.954c-.477.019-.972.028-1.471.034a23.874 23.874 0 0 0 4.143 2.205 11.372 11.372 0 0 0 -.6-2.372c-.644.056-1.308.1-2 .129z" fill="#df9563"/><path d="m31.904 23.985v-.001z" fill="#ffc7a1"/><path d="m30.7 24a12.217 12.217 0 0 0 -3.429-3.124 12.829 12.829 0 0 0 -6.711-1.876h-7.12a13.027 13.027 0 0 0 -3.234.414 28.965 28.965 0 0 0 13.022 20.924c-.04-1.106-.122-2.238-.228-3.338-.37-3.74-1-7-1-7a6.541 6.541 0 0 1 .07-1 3.284 3.284 0 0 1 1.663-2.739 2.992 2.992 0 0 1 1.267-.261c3.923 0 5.8 2.034 6.555 4.991a14.278 14.278 0 0 1 .4 2.675 10.549 10.549 0 0 0 .847-2.742c0-.026.008-.051.013-.077.055-.336.1-.678.131-1.03a11.41 11.41 0 0 0 -2.246-5.817z" fill="#ffe2c0"/><path d="m33 28.82a11.107 11.107 0 0 0 -.072-1.257c-.007-.06-.021-.118-.028-.177-.047-.36-.1-.716-.184-1.064-.006-.026-.015-.051-.021-.077a11.464 11.464 0 0 0 -.791-2.26 11.666 11.666 0 0 0 -1.432-2.285l-.032-.041q-.28-.348-.587-.676a12.084 12.084 0 0 0 -.884-.854l-.04-.035c-.294-.255-.6-.495-.92-.723l-.1-.069c-.3-.21-.61-.405-.928-.589l-.168-.1c-.3-.166-.605-.317-.918-.459-.081-.037-.161-.077-.243-.112-.293-.126-.6-.236-.9-.34-.105-.036-.208-.077-.315-.11-.292-.091-.591-.166-.892-.237-.123-.028-.242-.064-.366-.089-.307-.063-.621-.106-.936-.147-.121-.016-.238-.04-.359-.052a13.2 13.2 0 0 0 -1.324-.067h-7.12a13.043 13.043 0 0 0 -3.4.459c.032.658.094 1.309.169 1.955a13.027 13.027 0 0 1 3.231-.414h7.12a12.829 12.829 0 0 1 6.709 1.871 12.217 12.217 0 0 1 3.431 3.129 11.41 11.41 0 0 1 2.249 5.822c.024-.334.051-.662.051-1.002z" fill="#fef5e6"/><g fill="#bc784a"><path d="m27.931 32.346a2.943 2.943 0 0 1 -.243.19 2.943 2.943 0 0 0 .243-.19z"/><path d="m28.832 30.99a3.124 3.124 0 0 1 -.173.421 3.124 3.124 0 0 0 .173-.421z"/><path d="m28.314 31.951a2.875 2.875 0 0 1 -.238.266 2.875 2.875 0 0 0 .238-.266z"/><path d="m25 31a3.253 3.253 0 0 0 -.058-.636 3.253 3.253 0 0 1 .058.636z"/><path d="m22.947 29.021c-.057 0-.113-.008-.171-.01.058.002.114.007.171.01z"/><path d="m23.487 29.078c-.064-.01-.126-.023-.193-.03.067.007.129.02.193.03z"/><path d="m28.846 30.944.014-.049c-.008.015-.009.033-.014.049z"/><path d="m26.937 32.884c-.064.019-.125.044-.191.058.066-.014.127-.042.191-.058z"/><path d="m23.953 29.2c-.061-.021-.119-.046-.184-.063.065.012.123.037.184.063z"/><path d="m27.471 32.662c-.075.042-.149.086-.229.121.08-.035.158-.083.229-.121z"/><path d="m24.881 30.174a1.911 1.911 0 0 0 -.1-.294 1.911 1.911 0 0 1 .1.294z"/><path d="m28.617 31.494a3.166 3.166 0 0 1 -.216.344 3.019 3.019 0 0 0 .216-.344z"/><path d="m28.821 28.753a4.147 4.147 0 0 0 -.177-.5 4.147 4.147 0 0 1 .177.5z"/><path d="m27.926 27.139a3.512 3.512 0 0 1 .266.319 3.355 3.355 0 0 0 -.266-.319z"/><path d="m28.857 30.894a3.246 3.246 0 0 0 .1-.444 3.2 3.2 0 0 1 -.1.444z"/><path d="m24.523 29.528a1.369 1.369 0 0 1 .136.18 1.369 1.369 0 0 0 -.136-.18z"/><path d="m24.347 29.4a1.584 1.584 0 0 0 -.165-.111 1.584 1.584 0 0 1 .165.111z"/></g><path d="m25 27a2.978 2.978 0 0 0 -1.22.246 2.465 2.465 0 0 0 -.979.766 4.2 4.2 0 0 1 1.066.154c.683.208 1.126.687 1.131 1.814l.002.02c0 2 1.21 2 1.21 2a2.687 2.687 0 0 0 2.181-1.159 3.081 3.081 0 0 0 .464-.938 3.667 3.667 0 0 0 -3.855-2.903z" fill="#df9563"/><path d="m27.034 26.476c-.1-.053-.2-.11-.307-.155.109.045.206.102.307.155z" fill="#bc784a"/><path d="m26.218 26.165c-.1-.025-.185-.06-.287-.079.102.019.191.054.287.079z" fill="#bc784a"/><path d="m27.683 26.915a3.205 3.205 0 0 0 -.293-.235 3.205 3.205 0 0 1 .293.235z" fill="#bc784a"/><path d="m28.568 28.079a3.782 3.782 0 0 0 -.227-.408 3.618 3.618 0 0 1 .227.408z" fill="#bc784a"/><path d="m28.958 29.451a4.471 4.471 0 0 0 -.113-.6 4.668 4.668 0 0 1 .113.6z" fill="#bc784a"/><path d="m26.746 32.942a2.635 2.635 0 0 1 -.536.058 2.559 2.559 0 0 0 .536-.058z" fill="#a8640b"/><path d="m27.242 32.783a2.657 2.657 0 0 1 -.3.1 2.657 2.657 0 0 0 .3-.1z" fill="#a8640b"/><path d="m28.076 32.217c-.047.045-.1.087-.145.129.049-.046.098-.083.145-.129z" fill="#a8640b"/><path d="m27.688 32.536a2.452 2.452 0 0 1 -.217.126 2.452 2.452 0 0 0 .217-.126z" fill="#a8640b"/><path d="m28.846 30.944c0 .015-.009.031-.014.046.005-.015.009-.031.014-.046z" fill="#a8640b"/><path d="m28.4 31.838c-.028.039-.057.076-.087.113.031-.037.06-.074.087-.113z" fill="#a8640b"/><path d="m28.659 31.411-.042.083z" fill="#a8640b"/><path d="m27.683 26.915a3.239 3.239 0 0 1 .243.224c-.075-.079-.159-.151-.243-.224z" fill="#a8640b"/><path d="m28.958 29.451a4.813 4.813 0 0 1 .042.549 4.813 4.813 0 0 0 -.042-.549z" fill="#a8640b"/><path d="m26.727 26.321a4.034 4.034 0 0 0 -.509-.156 4.034 4.034 0 0 1 .509.156z" fill="#a8640b"/><path d="m27.39 26.68a3.621 3.621 0 0 0 -.356-.2 3.835 3.835 0 0 1 .356.2z" fill="#a8640b"/><path d="m28.644 28.251c-.024-.058-.049-.115-.076-.172.032.057.052.114.076.172z" fill="#a8640b"/><path d="m28.845 28.853c-.008-.033-.015-.067-.024-.1.009.033.016.067.024.1z" fill="#a8640b"/><path d="m28.341 27.671c-.047-.073-.1-.143-.149-.213.052.069.102.142.149.213z" fill="#a8640b"/><path d="m28.958 30.451a3.176 3.176 0 0 0 .042-.451 3.176 3.176 0 0 1 -.042.451z" fill="#a8640b"/><path d="m25 26a5.037 5.037 0 0 1 .931.086 5.037 5.037 0 0 0 -.931-.086z" fill="#a8640b"/><path d="m28.958 29.451a4.668 4.668 0 0 0 -.113-.6c-.008-.033-.015-.067-.024-.1a4.147 4.147 0 0 0 -.177-.5c-.024-.058-.049-.115-.076-.172a3.618 3.618 0 0 0 -.227-.408c-.047-.073-.1-.144-.149-.213a3.512 3.512 0 0 0 -.266-.319 3.239 3.239 0 0 0 -.243-.224 3.205 3.205 0 0 0 -.293-.235 3.835 3.835 0 0 0 -.356-.2c-.1-.053-.2-.11-.307-.155a4.034 4.034 0 0 0 -.509-.156c-.1-.025-.185-.06-.287-.079a5.037 5.037 0 0 0 -.931-.09 2.992 2.992 0 0 0 -1.267.261 3.284 3.284 0 0 0 -1.663 2.739c.245 0 .479 0 .706.011.058 0 .114.007.171.01.119.006.236.014.347.027.067.007.129.02.193.03.1.015.193.031.282.054.065.017.123.042.184.063.036.013.074.023.109.037s.082.034.12.053a1.584 1.584 0 0 1 .165.111 1.325 1.325 0 0 1 .176.132 1.369 1.369 0 0 1 .136.18 1.311 1.311 0 0 1 .116.158l.005.014a12.6 12.6 0 0 1 .162.484 3.253 3.253 0 0 1 .058.636 3.916 3.916 0 0 0 .047.6c.008.05.018.1.028.144a2.5 2.5 0 0 0 .1.344c.012.033.023.069.036.1a1.686 1.686 0 0 0 .173.318c.009.013.02.021.029.034a1.324 1.324 0 0 0 .171.183c.023.02.046.039.069.056a1.114 1.114 0 0 0 .136.088c.022.012.045.027.066.037a.982.982 0 0 0 .36.1 2.635 2.635 0 0 0 .536-.058c.066-.014.127-.039.191-.058a2.657 2.657 0 0 0 .3-.1c.08-.035.154-.079.229-.121a2.452 2.452 0 0 0 .217-.126 2.943 2.943 0 0 0 .243-.19c.049-.042.1-.084.145-.129a2.875 2.875 0 0 0 .238-.266c.03-.037.059-.074.087-.113a3.166 3.166 0 0 0 .216-.344l.042-.083a3.124 3.124 0 0 0 .173-.421c0-.015.009-.031.014-.046s.006-.034.011-.05a3.458 3.458 0 0 0 .143-.899 4.813 4.813 0 0 0 -.042-.549zm-2.748 2.549s-1.21 0-1.21-2v-.02c-.005-1.127-.448-1.606-1.131-1.814a4.2 4.2 0 0 0 -1.066-.154 2.465 2.465 0 0 1 .979-.766 2.978 2.978 0 0 1 1.218-.246 3.667 3.667 0 0 1 3.855 2.9 3.081 3.081 0 0 1 -.464.938 2.687 2.687 0 0 1 -2.181 1.162z" fill="#bc784a"/><path d="m25.85 32.9c-.022-.01-.043-.024-.066-.037a1.114 1.114 0 0 1 -.136-.088c-.024-.018-.046-.035-.069-.056a1.269 1.269 0 0 1 -.171-.183c-.009-.013-.02-.021-.029-.034a1.656 1.656 0 0 1 -.173-.318c-.013-.031-.024-.067-.036-.1a2.364 2.364 0 0 1 -.1-.344c-.01-.048-.02-.093-.028-.144a3.916 3.916 0 0 1 -.042-.596 3.253 3.253 0 0 0 -.058-.636 12.6 12.6 0 0 0 -.162-.484c0-.007-.01-.011-.013-.018a1.322 1.322 0 0 0 -.108-.154 1.369 1.369 0 0 0 -.136-.18 1.325 1.325 0 0 0 -.176-.132 1.584 1.584 0 0 0 -.165-.111c-.036-.018-.078-.029-.116-.045s-.074-.031-.113-.045c-.061-.021-.119-.046-.184-.063-.089-.023-.186-.039-.282-.054-.064-.01-.126-.023-.193-.03-.111-.013-.228-.021-.347-.027-.057 0-.113-.008-.171-.01-.158 0-.32-.008-.487-.009h-.219a6.541 6.541 0 0 0 -.07.998s.63 3.26 1 7h3v-4.039a1.226 1.226 0 0 1 -.15-.061z" fill="#eea97c"/><path d="m23.769 29.132c-.089-.023-.186-.039-.282-.054.096.015.193.031.282.054z" fill="#df9563"/><path d="m24.942 30.364a1.924 1.924 0 0 0 -.061-.19 1.924 1.924 0 0 1 .061.19z" fill="#df9563"/><path d="m22.289 29c.167 0 .329 0 .487.009-.227-.009-.461-.009-.706-.009z" fill="#df9563"/><path d="m23.953 29.2c.039.014.076.029.113.045v-.008c-.039-.019-.077-.029-.113-.037z" fill="#df9563"/><path d="m23.294 29.048c-.111-.013-.228-.021-.347-.027.119.006.236.014.347.027z" fill="#df9563"/><path d="m24.767 29.862c0 .007.009.011.013.018l-.005-.014z" fill="#df9563"/><path d="m24.347 29.4a1.325 1.325 0 0 1 .176.132 1.325 1.325 0 0 0 -.176-.132z" fill="#df9563"/><path d="m24.062 29.232v.008c.038.016.08.027.116.045-.034-.019-.078-.036-.116-.053z" fill="#df9563"/><path d="m24.659 29.708a1.322 1.322 0 0 1 .108.154h.008a1.311 1.311 0 0 0 -.116-.154z" fill="#df9563"/><path d="m25.206 32.187c-.013-.031-.024-.067-.036-.1.012.033.023.069.036.1z" fill="#df9563"/><path d="m25.648 32.778c-.023-.017-.046-.036-.069-.056.021.021.045.038.069.056z" fill="#df9563"/><path d="m25.075 31.743c-.01-.047-.02-.094-.028-.144.008.051.018.101.028.144z" fill="#df9563"/><path d="m25.85 32.9c-.021-.01-.044-.025-.066-.037.023.016.044.03.066.037z" fill="#df9563"/><path d="m25.408 32.539c-.009-.013-.02-.021-.029-.034.009.013.021.021.029.034z" fill="#df9563"/><path d="m26 32.959a1.089 1.089 0 0 1 -.145-.056 1.089 1.089 0 0 0 .145.056z" fill="#eea97c"/><path d="m25 26a5.037 5.037 0 0 1 .931.086c.1.019.19.054.287.079a4.034 4.034 0 0 1 .509.156c.11.045.2.1.307.155a3.621 3.621 0 0 1 .356.2 3.205 3.205 0 0 1 .293.235c.084.073.168.145.243.224a3.355 3.355 0 0 1 .266.319c.052.07.1.14.149.213a3.782 3.782 0 0 1 .227.408c.027.057.052.114.076.172a4.147 4.147 0 0 1 .177.5c.009.033.016.067.024.1a4.471 4.471 0 0 1 .113.6 4.813 4.813 0 0 1 .042.553 3.176 3.176 0 0 1 -.042.451 3.246 3.246 0 0 1 -.1.444l-.014.049c0 .015-.009.031-.014.046a3.124 3.124 0 0 1 -.173.421l-.042.083a3.019 3.019 0 0 1 -.216.344c-.028.039-.057.076-.087.113a2.875 2.875 0 0 1 -.238.266c-.047.046-.1.087-.145.129a2.943 2.943 0 0 1 -.243.19 2.452 2.452 0 0 1 -.217.126c-.076.042-.149.086-.229.121a2.657 2.657 0 0 1 -.3.1c-.064.019-.125.044-.191.058a2.559 2.559 0 0 1 -.539.059.879.879 0 0 1 -.21-.041v4.041h1.67c1.758 0 3.315-1.315 4.286-3.334a14.278 14.278 0 0 0 -.4-2.675c-.756-2.957-2.633-4.991-6.556-4.991z" fill="#f4bc92"/><path d="m30.472 21.7a11.666 11.666 0 0 1 1.428 2.284 11.743 11.743 0 0 0 -1.428-2.284z" fill="#bc784a"/><ellipse cx="39" cy="6" fill="#f6fafd" rx="1.65" ry="2.297" transform="matrix(.707 -.707 .707 .707 7.188 29.345)"/><ellipse cx="37" cy="9" fill="#f6fafd" rx=".825" ry="1.148" transform="matrix(.707 -.707 .707 .707 4.48 28.81)"/><ellipse cx="39.746" cy="9.5" fill="#f6fafd" rx=".413" ry=".574" transform="matrix(.707 -.707 .707 .707 4.931 30.899)"/></g></svg>