<svg id="Flat" enable-background="new 0 0 495.312 231.657" height="512" viewBox="0 0 495.312 231.657" width="512" xmlns="http://www.w3.org/2000/svg"><g><path d="m411.312 54.253c-.246-.102-.441-.245-.531-.478l-1.635-.511-4.293-9.631-61.622-40.834-85.969.774-1.95 23.73-46.21-12.74-1.78 53.07-73.55-49.81-7.12 38.58c-3.831 5.321-11.676 6.95-22.53 5.81l-24.39 6.89c-1.64 1.1-2.91 2.66-3.66 4.48-18.097 11.902-36.919 13.551-56.39 5.99l8.06 98.51c.01.03.02.05.03.08 16.569 9.354 29.861 19.31 13.36 34.74l30.18 18.66c142.079-26.04 278.158-38.677 405.58-31.97l18.42-58.25z" fill="#ffc05a"/><path d="m27.772 178.163 13.36 34.74c4.91 12.14 17.13 19.69 30.18 18.66l405.58-31.97c10.4-.83 18.42-9.51 18.42-19.94v-38.31z" fill="#b8d3cf"/><path d="m485.522 120.933-75.085-67.467-334.365 20.117-56.39 5.99c-6.6.7-12.46 4.34-16.09 9.99-3.72 5.79-4.6 12.87-2.41 19.43l26.56 69.09c.01.03.02.05.03.08 5.98 14.81 19.17 25.3 36.46 24.07l405.39-33.32c14.08-1.29 25.69-13.14 25.69-27.57 0-7.74-4.2-15.18-9.79-20.41z" fill="#e7f2f1"/><path d="m445.792 114.813-34.48-30.99-335.88 11.95-19.65 2.09s-21.75 13.01-18.89 40.79v.02l12.31 30.99c2.71 6.77 9.16 10.97 16.09 10.53l375.6-30.99c14.47-17.19 4.9-34.39 4.9-34.39z" fill="#604533"/><path d="m191.312 131.763v9.89c0 5.14-3.89 9.44-9 9.95l-62.8 6.28c-5.01.5-9.85-1.93-12.44-6.25l-29.91-50.89c-.91-1.53-1.5-3.22-1.73-4.97-.08-.57-.12-1.14-.12-1.72v-16.65c0-1.34.27-2.64.76-3.82.75-1.82 2.02-3.38 3.66-4.48l35.32 57.83c2.58 4.22 7.33 6.62 12.26 6.17l30.07-2.71 26.61-2.4c2.52 1.34 4.96 2.59 7.32 3.77z" fill="#ffc05a"/><path d="m29.972 100.603 25.81-2.74s-21.75 13.01-18.89 40.79l-11.86-29.87c-1.47-3.69.99-7.76 4.94-8.18z" fill="#c3ddda"/><path d="m472.312 141.343c0 2.93-2.06 5.42-4.59 5.65l-26.83 2.21c14.47-17.19 4.9-34.39 4.9-34.39l24.76 22.24c1.12 1.08 1.76 2.64 1.76 4.29z" fill="#c3ddda"/><path d="m249.112 131.733c.04.93-.2 1.91-.6 2.65-1.9 2.66-6.03 6.99-10.31 10.56-2.78 2.33-6.72 2.68-10.2 1.66-6.66-1.95-19.56-6.3-36.69-14.84-2.36-1.18-4.8-2.43-7.32-3.77-4.34-2.32-8.91-4.88-13.68-7.72 6.95-17.48 15.68-21.75 15.68-21.75 25.43 8.79 38.33 23.5 63.06 33.21zm-39.5-5.86c1.24-1.82.02-4.81-2.72-6.67s-5.97-1.89-7.21-.06-.03 4.82 2.72 6.68c2.74 1.86 5.97 1.88 7.21.05z" fill="#f1c27d"/><path d="m357.162 48.673c20.97 0 37.97 3.58 37.97 8s-17 8-37.97 8c-20.96 0-37.96-3.58-37.96-8s17-8 37.96-8z" fill="#ffdbac"/><path d="m183.992 127.993-26.61 2.4c-52.16-22.57-13.43-30.87-53.26-68.18l22.53-5.81c14.82 20.94 32.81 49.62 38.59 58.91 1.27 2.03 3.01 3.73 5.07 4.96 4.77 2.84 9.34 5.4 13.68 7.72zm-36.42-17.41c1.66-1.46 1.22-4.66-.97-7.15-2.19-2.48-5.31-3.31-6.97-1.85-1.65 1.47-1.22 4.66.97 7.15 2.2 2.48 5.32 3.31 6.97 1.85z" fill="#ef9d26"/><path d="m249.112 131.733h-.06c-24.73-9.71-37.63-24.42-63.06-33.21-10.69-22.81-52.21-80.41-52.21-80.41l-.01-.29c.79-.04 1.59.11 2.34.45 10.92 5.01 42.76 23.89 64.7 42.09 2.52 2.09 4.7 4.55 6.51 7.27l41.26 62.23c.35.53.51 1.18.53 1.87zm-39.03-36.59c1.36-1.74.34-4.81-2.27-6.85s-5.83-2.28-7.19-.54-.34 4.81 2.27 6.85 5.83 2.28 7.19.54zm-21.36-25.15c1.36-1.74.35-4.81-2.26-6.85-2.62-2.04-5.84-2.28-7.2-.54s-.34 4.81 2.27 6.85 5.83 2.28 7.19.54z" fill="#f9b132"/><path d="m411.312 83.823v38.59c0 6.32-4.91 11.56-11.22 11.97l-161.89 10.56c4.28-3.57 8.41-7.9 10.31-10.56 6.06-7.71 6.99-8.58 6.8-13.87v-45.39c0-3.53-1.25-6.95-3.53-9.66l-42.39-50.65-.29-.25c1.19-1.32 2.88-2.19 4.79-2.31l21.42-1.31c3.02-.18 5.95 1 7.99 3.23l12.01 13.13 22.52 24.62c3.37 3.69 5.25 8.5 5.25 13.5v52.52c0 2.27 1.28 4.35 3.31 5.37l4.56 2.27c3.85 1.93 8.41-.71 8.67-5l3.76-62.93c.71-4.43-.92-8.92-4.3-11.86l-41.82-42.22c1.22-1.28 2.92-2.09 4.81-2.15 30.68-1.02 64.23-1.92 81.57-1.11 5.65.27 11.11 2.1 15.74 5.34 16.56 11.57 35.7 29 45.47 37.98 3.12 2.86 5.22 6.61 6.05 10.7.27 1.31.41 2.65.41 4.01zm-16.18-27.15c0-4.42-17-8-37.97-8-20.96 0-37.96 3.58-37.96 8s17 8 37.96 8c20.97 0 37.97-3.58 37.97-8zm-51.04-38.85c0-2.21-2.68-4-6-4-3.31 0-6 1.79-6 4s2.69 4 6 4c3.32 0 6-1.79 6-4zm-69.93 46.23c.14-2.2-2.44-4.15-5.74-4.36-3.31-.2-6.1 1.42-6.24 3.63-.13 2.2 2.44 4.15 5.75 4.36 3.3.2 6.09-1.42 6.23-3.63z" fill="#ffc05a"/><ellipse cx="338.092" cy="17.823" fill="#f9b132" rx="6" ry="4"/><path d="m299.082 45.793c3.38 2.94 5.01 7.43 4.3 11.86l-3.76 62.93c-.26 4.29-4.82 6.93-8.67 5l-4.56-2.27c-2.03-1.02-3.31-3.1-3.31-5.37v-52.52c0-5-1.88-9.81-5.25-13.5l-22.52-24.62v-18.89c0-1.87.74-3.58 1.95-4.84z" fill="#ef9d26"/><path d="m268.422 59.693c3.3.21 5.88 2.16 5.74 4.36-.14 2.21-2.93 3.83-6.23 3.63-3.31-.21-5.88-2.16-5.75-4.36.14-2.21 2.93-3.83 6.24-3.63z" fill="#f9b132"/><path d="m255.312 120.513c.19 5.29-.74 6.16-6.8 13.87.4-.74.64-1.72.6-2.65-.02-.69-.18-1.34-.53-1.87l-41.26-62.23-.01-48.39c0-1.79.68-3.44 1.79-4.68l.29.25 42.39 50.65c2.28 2.71 3.53 6.13 3.53 9.66zm-22.06-49.66c1.36-1.74.34-4.8-2.27-6.84s-5.83-2.28-7.19-.54-.35 4.8 2.27 6.84c2.61 2.04 5.83 2.28 7.19.54z" fill="#ef9d26"/><path d="m230.982 64.013c2.61 2.04 3.63 5.1 2.27 6.84s-4.58 1.5-7.19-.54c-2.62-2.04-3.63-5.1-2.27-6.84s4.58-1.5 7.19.54z" fill="#e58e1a"/><path d="m207.812 88.293c2.61 2.04 3.63 5.11 2.27 6.85s-4.58 1.5-7.19-.54-3.63-5.11-2.27-6.85 4.58-1.5 7.19.54z" fill="#ef9d26"/><path d="m206.892 119.203c2.74 1.86 3.96 4.85 2.72 6.67-1.24 1.83-4.47 1.81-7.21-.05-2.75-1.86-3.96-4.85-2.72-6.68s4.47-1.8 7.21.06z" fill="#f9b132"/><path d="m186.462 63.143c2.61 2.04 3.62 5.11 2.26 6.85s-4.58 1.5-7.19-.54-3.63-5.11-2.27-6.85 4.58-1.5 7.2.54z" fill="#ef9d26"/><path d="m185.992 98.523s-8.73 4.27-15.68 21.75c-2.06-1.23-3.8-2.93-5.07-4.96-5.78-9.29-23.77-37.97-38.59-58.91-2.78-3.93-5.45-7.59-7.91-10.8-3.19-4.17-3.33-9.87.34-13.62l11.38-12.66c.9-.91 2.09-1.44 3.31-1.5l.01.29s41.52 57.6 52.21 80.41zm-32.61-29.13c1.66-1.46 1.22-4.66-.97-7.14-2.19-2.49-5.31-3.31-6.97-1.85s-1.22 4.66.97 7.14c2.2 2.49 5.32 3.31 6.97 1.85z" fill="#ffc05a"/><path d="m157.382 130.393-30.07 2.71c-4.93.45-9.68-1.95-12.26-6.17l-35.32-57.83c.92-.62 1.96-1.1 3.08-1.39l21.31-5.5c39.83 37.31 1.1 45.61 53.26 68.18z" fill="#f9b132"/><path d="m152.412 62.253c2.19 2.48 2.63 5.68.97 7.14-1.65 1.46-4.77.64-6.97-1.85-2.19-2.48-2.63-5.68-.97-7.14s4.78-.64 6.97 1.85z" fill="#f9b132"/><path d="m146.602 103.433c2.19 2.49 2.63 5.69.97 7.15-1.65 1.46-4.77.63-6.97-1.85-2.19-2.49-2.62-5.68-.97-7.15 1.66-1.46 4.78-.63 6.97 1.85z" fill="#ffc05a"/><path d="m411.312 83.823v38.59c0 6.32-4.91 11.56-11.22 11.97l-137.92 9c-.81 1.05-1.78 2.26-2.93 3.73.4-.74.64-1.72.6-2.65-.01-.32-.05-.63-.13-.92l-21.51 1.4c-2.78 2.33-6.72 2.68-10.2 1.66-6.66-1.95-19.56-6.3-36.69-14.84v7.11 2.78c0 5.14-3.89 9.44-9 9.95l-62.8 6.28c-2.08.21-4.14-.09-6.01-.83l4.3 7.31c2.59 4.32 7.43 6.75 12.44 6.25l62.8-6.28c5.11-.51 9-4.81 9-9.95v-9.89c17.13 8.54 30.03 12.89 36.69 14.84 3.48 1.02 7.42.67 10.2-1.66l161.89-10.56c6.31-.41 11.22-5.65 11.22-11.97v-38.59-3.09z" fill="#543927"/><g fill="#d6eae8"><path d="m234.682 198.831-76.45 7.1c-2.199.204-3.817 2.152-3.612 4.353.192 2.074 1.936 3.63 3.978 3.63.124 0 .249-.006.375-.018l76.45-7.1c2.199-.204 3.817-2.152 3.612-4.353-.204-2.2-2.148-3.821-4.353-3.612z"/><path d="m304.726 192.217-29.88 2.521c-2.201.187-3.836 2.121-3.65 4.322.177 2.087 1.925 3.664 3.981 3.664.113 0 .227-.005.341-.014l29.88-2.521c2.201-.187 3.836-2.121 3.65-4.322-.187-2.202-2.143-3.821-4.322-3.65z"/><path d="m476.284 182.682c-.26-2.194-2.25-3.771-4.443-3.5-20.613 2.45-89.896 7.232-90.593 7.281-2.204.151-3.868 2.062-3.716 4.265.146 2.11 1.902 3.726 3.986 3.726.092 0 .186-.003.278-.01 2.856-.196 70.179-4.845 90.987-7.318 2.195-.262 3.762-2.251 3.501-4.444z"/><path d="m355.156 192.217-29.88 2.521c-2.201.187-3.836 2.121-3.65 4.322.177 2.087 1.925 3.664 3.981 3.664.113 0 .227-.005.341-.014l29.88-2.521c2.201-.187 3.836-2.121 3.65-4.322-.186-2.202-2.141-3.821-4.322-3.65z"/></g></g></svg>