<svg height="512" viewBox="0 0 64 64" width="512" xmlns="http://www.w3.org/2000/svg"><g id="_20-haricot" data-name="20-haricot"><path d="m28 36a10.2 10.2 0 0 0 .2 2v.031c-.07 0-.13-.011-.2-.011v-.02a14.566 14.566 0 0 1 -2.99-.29 8.618 8.618 0 0 1 -4.66-2.8 26.789 26.789 0 0 0 7.76-1.91h.03c-.09.979-.14 1.989-.14 3z" fill="#f7fafd"/><path d="m16.88 34.859a12.583 12.583 0 0 0 7.89 6.171 1.583 1.583 0 0 1 1.22 1.65v.03a1.414 1.414 0 0 1 -1.78 1.24 15.734 15.734 0 0 1 -10.03-7.831 1.415 1.415 0 0 1 .78-2.03l.02-.01a1.6 1.6 0 0 1 1.9.78z" fill="#ffdfb8"/><path d="m28.15 18.029a1.374 1.374 0 0 1 -.37 2.07 15.588 15.588 0 0 1 -12.32 1.5 1.364 1.364 0 0 1 -.86-1.92l.01-.02a1.556 1.556 0 0 1 1.85-.76 12.358 12.358 0 0 0 9.69-1.18 1.563 1.563 0 0 1 1.98.29z" fill="#e7c699"/><path d="m49.14 25.879a12.582 12.582 0 0 0 -6.17 7.89 1.583 1.583 0 0 1 -1.65 1.22h-.03a1.414 1.414 0 0 1 -1.24-1.78 15.735 15.735 0 0 1 7.83-10.03 1.415 1.415 0 0 1 2.03.78l.01.02a1.6 1.6 0 0 1 -.78 1.9z" fill="#e7c699"/><path d="m49.71 38.009a1.415 1.415 0 0 1 1.24 1.781 15.735 15.735 0 0 1 -7.83 10.03 1.415 1.415 0 0 1 -2.03-.78l-.01-.02a1.6 1.6 0 0 1 .78-1.9 12.582 12.582 0 0 0 6.17-7.89 1.584 1.584 0 0 1 1.65-1.221z" fill="#ffdfb8"/><path d="m15.39 15.7a9.185 9.185 0 0 0 8.63-.41 13.486 13.486 0 0 0 2.27-1.84l.01.02a9.055 9.055 0 0 1 12.22-.19c-5.49 3.969-9.59 11.22-10.38 19.72h-.03a26.789 26.789 0 0 1 -7.76 1.91 10.649 10.649 0 0 1 -1.9-3.16 9.1 9.1 0 0 0 -14.23-3.69l-.05-.06a8.542 8.542 0 0 1 1.24-10.26 8.932 8.932 0 0 1 9.98-2.04zm10.76 2.02a12.358 12.358 0 0 1 -9.69 1.18 1.556 1.556 0 0 0 -1.85.76l-.01.02a1.364 1.364 0 0 0 .86 1.92 15.588 15.588 0 0 0 12.32-1.5 1.374 1.374 0 0 0 .37-2.07l-.02-.02a1.563 1.563 0 0 0 -1.98-.291z" fill="#b55a47"/><path d="m15.39 15.7a8.909 8.909 0 0 0 -5.22-.56l-.02-.14a10.215 10.215 0 0 1 2.84-5.42c9.91-9.8 24.48-11.26 31.72-4.09l.69.68a8.774 8.774 0 0 1 2.28 3.83v.01a16.2 16.2 0 0 0 -9.16 3.27 9.055 9.055 0 0 0 -12.22.19l-.01-.02a13.486 13.486 0 0 1 -2.27 1.84 9.185 9.185 0 0 1 -8.63.41z" fill="#a25040"/><path d="m20.35 34.909a8.618 8.618 0 0 0 4.66 2.8 14.566 14.566 0 0 0 2.99.291v.02c.07 0 .13.011.2.011a9.244 9.244 0 0 1 8.79 8.45 9.066 9.066 0 0 0 -3.99 7.619 10.559 10.559 0 0 1 -6 1.9c-14.37 0-26-9.5-26-20v-1a8.927 8.927 0 0 1 8.72-9 9.092 9.092 0 0 1 8.73 5.75 10.649 10.649 0 0 0 1.9 3.159zm4.42 6.121a12.583 12.583 0 0 1 -7.89-6.171 1.6 1.6 0 0 0 -1.9-.78l-.02.01a1.415 1.415 0 0 0 -.78 2.03 15.734 15.734 0 0 0 10.03 7.831 1.414 1.414 0 0 0 1.78-1.24v-.03a1.583 1.583 0 0 0 -1.22-1.65z" fill="#c8644f"/><path d="m36.99 46.48a8.974 8.974 0 0 1 1.76-.93 9.332 9.332 0 0 0 5.96-6.56 14.576 14.576 0 0 0 .29-2.99h.02a9.26 9.26 0 0 1 8.2-8.96 6.282 6.282 0 0 1 .75-.04c4.96 0 9.03 4.749 9.03 10 0 14.371-9.5 26-20 26h-1a8.93 8.93 0 0 1 -9-8.72v-.18a9.066 9.066 0 0 1 3.99-7.62zm13.96-6.69a1.415 1.415 0 0 0 -1.24-1.781h-.03a1.584 1.584 0 0 0 -1.65 1.221 12.582 12.582 0 0 1 -6.17 7.89 1.6 1.6 0 0 0 -.78 1.9l.01.02a1.415 1.415 0 0 0 2.03.78 15.735 15.735 0 0 0 7.83-10.03z" fill="#c8644f"/><path d="m42.97 33.769a12.582 12.582 0 0 1 6.17-7.89 1.6 1.6 0 0 0 .78-1.9l-.01-.02a1.415 1.415 0 0 0 -2.03-.78 15.735 15.735 0 0 0 -7.83 10.03 1.414 1.414 0 0 0 1.24 1.78h.03a1.583 1.583 0 0 0 1.65-1.22zm-4.22 11.781a8.974 8.974 0 0 0 -1.76.93 9.244 9.244 0 0 0 -8.79-8.45v-.03a10.2 10.2 0 0 1 -.2-2c0-1.01.05-2.02.14-3 .79-8.5 4.89-15.75 10.38-19.72a16.2 16.2 0 0 1 9.16-3.27c.11-.01.21-.01.32-.01h1a8.93 8.93 0 0 1 9 8.72 9.114 9.114 0 0 1 -4.78 8.28v.04a9.26 9.26 0 0 0 -8.2 8.96h-.02a14.576 14.576 0 0 1 -.29 2.991 9.332 9.332 0 0 1 -5.96 6.559z" fill="#b55a47"/><path d="m36.99 46.48a9.245 9.245 0 0 0 -8.79-8.451c-.07 0-.13-.01-.2-.01v-.019a14.561 14.561 0 0 1 -2.99-.291 8.618 8.618 0 0 1 -4.66-2.8 10.649 10.649 0 0 1 -1.9-3.16 9.1 9.1 0 0 0 -14.23-3.69 8.856 8.856 0 0 0 -2.545 3.5c.177-.173.354-.346.545-.5a9.094 9.094 0 0 1 14 3.161 1.644 1.644 0 0 1 .661.639 12.58 12.58 0 0 0 7.552 6.065c.489.048 1.009.076 1.568.076v.019c.07 0 .13.01.2.01a9.321 9.321 0 0 1 8.67 7.471 9.064 9.064 0 0 1 2.119-2.02z" fill="#db6d56"/><path d="m37 56.28v-.18a9.066 9.066 0 0 1 3.99-7.62l.01-.007a1.641 1.641 0 0 1 .859-1.353 12.581 12.581 0 0 0 6.17-7.891 1.612 1.612 0 0 1 .964-1.1c0-.046.006-.085.006-.132h.02a9.26 9.26 0 0 1 8.2-8.96 6.282 6.282 0 0 1 .75-.04 7.693 7.693 0 0 1 1.477.155 8.328 8.328 0 0 0 -5.476-2.152 6.282 6.282 0 0 0 -.75.04 9.26 9.26 0 0 0 -8.2 8.96h-.02a14.576 14.576 0 0 1 -.29 2.991 9.332 9.332 0 0 1 -5.96 6.56 8.974 8.974 0 0 0 -1.76.93 9.066 9.066 0 0 0 -3.99 7.619v.18a8.912 8.912 0 0 0 7.063 8.511 8.943 8.943 0 0 1 -3.063-6.511z" fill="#db6d56"/><path d="m59.435 29.152a7.728 7.728 0 0 0 -1.465-.152 6.282 6.282 0 0 0 -.75.04c-.034 0-.067.011-.1.014a10.526 10.526 0 0 1 1.88 5.946c0 14.371-9.5 26-20 26h-.5a8.953 8.953 0 0 0 1.553 1.786 9.188 9.188 0 0 0 1.947.214h1c10.5 0 20-11.63 20-26a10.51 10.51 0 0 0 -3.565-7.848z" fill="#b55a47"/><path d="m40.32 19.28a16.2 16.2 0 0 1 9.16-3.27c.11-.01.21-.01.32-.01h1a8.952 8.952 0 0 1 6.976 3.276c.006-.186.029-.367.024-.556a8.93 8.93 0 0 0 -9-8.72h-1c-.11 0-.21 0-.32.01a16.2 16.2 0 0 0 -9.16 3.27c-5.49 3.97-9.59 11.22-10.38 19.72-.09.981-.14 1.991-.14 3a10.2 10.2 0 0 0 .2 2v.03a9.919 9.919 0 0 1 2.012.356c.927-8.232 4.951-15.232 10.308-19.106z" fill="#c8644f"/><path d="m51.552 38.018a2.425 2.425 0 0 0 -1.786-1.008 2.6 2.6 0 0 0 -2.707 1.969 11.5 11.5 0 0 1 -5.669 7.26 2.614 2.614 0 0 0 -1.245 3.132 2.408 2.408 0 0 0 2.281 1.629 2.468 2.468 0 0 0 1.162-.293 16.751 16.751 0 0 0 8.336-10.674 2.442 2.442 0 0 0 -.372-2.015zm-.6 1.77a15.8 15.8 0 0 1 -7.837 10.037 1.419 1.419 0 0 1 -2.027-.781l-.01-.028a1.594 1.594 0 0 1 .785-1.9 12.535 12.535 0 0 0 6.163-7.893 1.591 1.591 0 0 1 1.649-1.22h.03a1.42 1.42 0 0 1 1.249 1.785z" fill="#b55a47"/><path d="m34.871 48.5a8.773 8.773 0 0 0 -2.408-4.625 9.052 9.052 0 0 0 -3.334 5.688 2.727 2.727 0 0 1 -1.481 2.077l-.091.04a2.736 2.736 0 0 1 -1.322.193c-13.067-1.119-23.235-10.057-23.235-19.873v-1c0-.179.019-.352.029-.529a9.087 9.087 0 0 0 -.809.589c-.191.158-.368.331-.544.5a9.045 9.045 0 0 0 -.676 3.44v1c0 10.5 11.63 20 26 20a10.35 10.35 0 0 0 3.175-.5 10.667 10.667 0 0 0 2.825-1.4 8.992 8.992 0 0 1 .535-3.15 9.093 9.093 0 0 1 1.37-2.487c-.011.014-.024.025-.034.037z" fill="#b55a47"/><path d="m25.021 40.059a11.5 11.5 0 0 1 -7.26-5.669 2.613 2.613 0 0 0 -3.132-1.245 2.418 2.418 0 0 0 -1.335 3.444 16.753 16.753 0 0 0 10.674 8.335 2.467 2.467 0 0 0 .607.075 2.414 2.414 0 0 0 2.415-2.232 2.6 2.6 0 0 0 -1.969-2.708zm.971 2.648a1.42 1.42 0 0 1 -1.78 1.247 15.8 15.8 0 0 1 -10.037-7.837 1.419 1.419 0 0 1 .781-2.027l.028-.01a1.594 1.594 0 0 1 1.9.785 12.535 12.535 0 0 0 7.893 6.163 1.591 1.591 0 0 1 1.22 1.649z" fill="#b55a47"/><path d="m51.97 23a13.807 13.807 0 0 0 -2.183.763 1.6 1.6 0 0 1 .093.2l.01.02a1.6 1.6 0 0 1 -.78 1.9 12.582 12.582 0 0 0 -6.17 7.89 1.583 1.583 0 0 1 -1.65 1.22h-.03a1.286 1.286 0 0 1 -.2-.04 30.024 30.024 0 0 0 -.911 4.557.951.951 0 0 1 -1.705.462 10.951 10.951 0 0 0 -8.007-4.431c-.188.913-.34 1.844-.449 2.792a9.113 9.113 0 0 1 6.97 8.151 8.974 8.974 0 0 1 1.76-.93 9.332 9.332 0 0 0 5.96-6.56 14.576 14.576 0 0 0 .292-2.994h.02a9.26 9.26 0 0 1 8.2-8.96v-.04a9.105 9.105 0 0 0 4.737-7.3c-1.008 1.332-2.836 2.52-5.957 3.3z" fill="#a25040"/><path d="m50.855 23.629a2.418 2.418 0 0 0 -1.4-1.463 2.444 2.444 0 0 0 -2.042.128 16.753 16.753 0 0 0 -8.335 10.674 2.42 2.42 0 0 0 2.157 3.022c.073.006.144.01.214.01a2.617 2.617 0 0 0 2.494-1.979 11.5 11.5 0 0 1 5.669-7.26 2.614 2.614 0 0 0 1.243-3.132zm-1.72 2.252a12.535 12.535 0 0 0 -6.163 7.893 1.591 1.591 0 0 1 -1.649 1.22h-.03a1.42 1.42 0 0 1 -1.247-1.78 15.8 15.8 0 0 1 7.837-10.037 1.419 1.419 0 0 1 2.027.781l.01.028a1.594 1.594 0 0 1 -.785 1.895z" fill="#a25040"/><path d="m25.645 16.854a11.3 11.3 0 0 1 -8.9 1.084 2.551 2.551 0 0 0 -3.042 1.3 2.354 2.354 0 0 0 -.047 1.981 2.4 2.4 0 0 0 1.517 1.335 16.512 16.512 0 0 0 13.123-1.6 2.363 2.363 0 0 0 .6-3.594 2.58 2.58 0 0 0 -3.251-.506zm2.136 3.246a15.554 15.554 0 0 1 -12.325 1.5 1.365 1.365 0 0 1 -.86-1.916l.013-.026a1.559 1.559 0 0 1 1.848-.759 12.335 12.335 0 0 0 9.693-1.181 1.564 1.564 0 0 1 1.979.293l.019.022a1.363 1.363 0 0 1 -.367 2.067z" fill="#a25040"/><g fill="#f7fafd"><ellipse cx="55.684" cy="32.695" rx="1.642" ry="2.286" transform="matrix(.707 -.707 .707 .707 -6.803 48.972)"/><ellipse cx="6.684" cy="33.695" rx="1.642" ry="2.286" transform="matrix(.707 -.707 .707 .707 -21.874 14.605)"/><ellipse cx="55.682" cy="37.708" rx=".825" ry="1.148" transform="matrix(.707 -.707 .707 .707 -10.35 50.44)"/><ellipse cx="8.682" cy="37.708" rx=".825" ry="1.148" transform="matrix(.707 -.707 .707 .707 -24.128 17.195)"/><ellipse cx="51.682" cy="13.708" rx=".825" ry="1.148" transform="matrix(.707 -.707 .707 .707 5.453 40.575)"/></g></g></svg>