<svg id="Layer_3" enable-background="new 0 0 64 64" height="512" viewBox="0 0 64 64" width="512" xmlns="http://www.w3.org/2000/svg"><g><path d="m39.836 8.442c-.795-.289-1.644-.442-2.511-.442-4.189 0-8.351.675-12.325 2l1.262.21c2.977.496 5.536 2.387 6.886 5.086.562 1.124 1.344 2.125 2.298 2.943l2.578 2.21 8.976 4.551-1-15" fill="#2d6628"/><path d="m26.262 10.21c2.977.496 5.536 2.387 6.886 5.086.562 1.124 1.344 2.125 2.298 2.943l2.578 2.21 8.976 4.551-.463-6.948c-6.268-4.65-13.729-7.451-21.537-8.052z" fill="#40873c"/><path d="m43.883 21.209-2.163-5.407c-.479-1.196-.802-2.449-.961-3.728-.487-3.895-2.474-7.446-5.539-9.898l-.22-.176c5.708 0 11.126 2.513 14.813 6.87l2.143 2.532c1.966 2.323 3.044 5.268 3.044 8.31 0 2.321-.628 4.591-1.805 6.572" fill="#52a04f"/><path d="m55 19.712c0-3.043-1.078-5.987-3.044-8.309l-2.143-2.533c-3.687-4.357-9.105-6.87-14.813-6.87l4.517 3.312c5.686 4.169 9.364 10.461 10.266 17.357l.158 1.841 3.253 1.773c1.178-1.98 1.806-4.249 1.806-6.571z" fill="#6db569"/><path d="m53.72 27.698 6.28-.698v4h-6.14" fill="#51200a"/><path d="m5.382 26.623 7.068-1.928c1.696-.462 3.342-1.091 4.914-1.877 3.706-1.853 7.793-2.818 11.937-2.818 3.13 0 6.258.173 9.369.519 2.886.321 5.76.741 8.616 1.26 3.888.707 6.714 4.093 6.714 8.045 0 2.418-1.73 4.491-4.109 4.923l-7.031 1.278c-7.225 1.314-14.554 1.975-21.898 1.975-4.519 0-8.917-1.466-12.532-4.177-1.608-1.206-3-2.677-4.115-4.35-.205-.309-.315-.671-.315-1.041 0-.845.566-1.586 1.382-1.809z" fill="#662a12"/><path d="m47.286 21.779c-2.857-.519-5.73-.94-8.616-1.26-3.111-.346-6.239-.519-9.369-.519-4.144 0-8.231.965-11.937 2.818-1.572.786-3.218 1.415-4.914 1.877l-6.178 1.685c.017.029.024.063.043.092 1.115 1.673 2.507 3.144 4.115 4.35 3.616 2.712 8.013 4.178 12.532 4.178 7.344 0 14.672-.661 21.898-1.974l7.031-1.278c.737-.134 1.399-.439 1.979-.849.077-.348.13-.705.13-1.074 0-3.953-2.826-7.339-6.714-8.046z" fill="#893b20"/><path d="m4 62 3.898-9.895c5.492-13.941 18.951-23.105 33.935-23.105 3.87 0 7.502 1.869 9.752 5.019.92 1.288 1.415 2.832 1.415 4.416 0 1.664-.546 3.282-1.555 4.605-9.103 11.948-23.263 18.96-38.283 18.96z" fill="#893b20"/><path d="m51.935 34.6c-.115-.195-.218-.396-.35-.581-2.25-3.15-5.882-5.019-9.752-5.019-14.984 0-28.443 9.164-33.935 23.104l-2.716 6.896h6.98c15.021 0 29.18-7.012 38.284-18.96 1.008-1.323 1.554-2.941 1.554-4.605 0-.281-.034-.558-.065-.835z" fill="#a34b33"/><path d="m13 55c0-3.216 1.206-6.315 3.379-8.686 4.998-5.453 11.304-9.542 18.321-11.881l1.711-.57c1.715-.572 3.51-.863 5.318-.863 2.059 0 3.998.969 5.234 2.617.673.898 1.037 1.99 1.037 3.112 0 1.448-.605 2.829-1.669 3.811l-3.096 2.858c-5.421 5.004-11.895 8.728-18.946 10.897-1.518.468-3.096.705-4.683.705-2.351 0-4.65-.696-6.606-2z" fill="#c99735"/><g fill="#51200a"><path d="m20 27c-5.289 0-10.591.572-15.761 1.701l-.193.042c.044.258.122.509.269.729.251.377.521.741.8 1.097 4.887-1.034 9.892-1.569 14.885-1.569z"/><path d="m23.316 31.949-.633-1.897c-3.907 1.303-7.97 2.153-12.073 2.525l-2.281.208-1.095.054c.384.344.782.673 1.196.984.4.3.814.579 1.232.849l1.129-.103c4.258-.387 8.472-1.269 12.525-2.62z"/><path d="m17.944 24.332c5.318.443 10.719.668 16.056.668v-2c-5.199 0-10.46-.218-15.643-.643-.333.15-.666.298-.993.461-.884.442-1.794.829-2.721 1.17l1.815.221z"/></g><path d="m19.345 51.015c2.045.175 3.655 1.896 3.655 3.985v1.629c.433-.095.864-.203 1.289-.333.24-.074.473-.164.711-.241v-1.055c0-2.059-1.043-3.878-2.627-4.959l.274-.274c.975-.976 2.732-.976 3.707 0 1.061 1.062 1.646 2.474 1.646 3.976v1.227c.673-.267 1.341-.544 2-.84v-.386c0-2.036-.793-3.95-2.232-5.389-.367-.367-.802-.651-1.266-.875l1.154-.924c.448-.359 1.01-.556 1.584-.556 1.166 0 2.177.79 2.459 1.92l1.135 4.539.058.249c.605-.321 1.207-.646 1.798-.992l-1.05-4.28c-.404-1.619-1.648-2.832-3.196-3.258.032-.058.062-.117.091-.177h2.163c1.106 0 2.134.55 2.748 1.471.363.543.554 1.176.554 1.831v3.61c.678-.426 1.343-.869 2-1.328v-2.282c0-1.051-.308-2.068-.891-2.941-.495-.743-1.159-1.335-1.921-1.741.816-.763 2.219-.8 3.031.012 1.211 1.211 2.072 2.728 2.474 4.301l.092.569c.582-.47 1.148-.959 1.709-1.456-.51-1.685-1.392-3.232-2.594-4.523.354-.336.813-.524 1.304-.524.727 0 1.38.404 1.705 1.054.354.707.626 1.457.81 2.229l.13.549 1.66-1.533c-.21-.737-.47-1.459-.811-2.141-.442-.88-1.179-1.533-2.056-1.879.366-.763 1.14-1.279 2.015-1.279.591 0 1.168.239 1.585.657l1.017 1.015.498.539c.143-.48.243-.972.243-1.482 0-.455-.075-.9-.191-1.334l-.153-.153c-.788-.789-1.882-1.242-2.999-1.242-.058 0-.113.013-.17.015-.357-1.054-.889-2.035-1.584-2.898-.385-.07-.776-.117-1.174-.117-.685 0-1.366.055-2.044.138l1.132.646c.793.781 1.382 1.728 1.751 2.77-.488.278-.909.658-1.254 1.103-.739-1.738-2.04-3.205-3.703-4.141-.403.102-.804.215-1.2.347l-1.609.536.992.458.217.092c1.853.795 3.235 2.409 3.758 4.328-.491.194-.943.483-1.328.867l-.167.167c-.481-.198-1-.301-1.535-.307-.535-2.032-1.874-3.805-3.716-4.857l-.102-.058c-.809.309-1.605.643-2.392.999l.689.331.812.464c1.361.778 2.351 2.083 2.759 3.579-.62.319-1.161.79-1.561 1.39l-.115.173c-.137-.01-.275-.025-.416-.025h-1.698c-.005-1.587-.851-3.078-2.212-3.894l-1.055-.633c-.7.38-1.387.782-2.065 1.199l.589.248 1.502.901c.766.459 1.242 1.3 1.242 2.194 0 .464-.126.919-.364 1.316l-.493.821c-.629.158-1.226.434-1.737.842l-.734.587c-.508-1.881-1.596-3.577-3.129-4.82-.56.415-1.101.856-1.641 1.298l.256.15.093.074c1.46 1.168 2.408 2.86 2.668 4.7l-.108.086c-.968.148-1.884.588-2.58 1.285l-.643.643c.266-.663.412-1.373.412-2.086 0-1.363-.497-2.673-1.417-3.722-.498.442-.994.886-1.473 1.352.573.659.89 1.497.89 2.37 0 .558-.132 1.116-.382 1.616l-.419.839-5.119 4.266c-.049.453-.08.908-.08 1.368.295.197.6.375.91.544z" fill="#ad7d28"/></g></svg>