<?xml version="1.0" encoding="iso-8859-1"?>
<!-- Generator: Adobe Illustrator 19.0.0, SVG Export Plug-In . SVG Version: 6.00 Build 0)  -->
<svg version="1.1" id="Capa_1" xmlns="http://www.w3.org/2000/svg" xmlns:xlink="http://www.w3.org/1999/xlink" x="0px" y="0px"
	 viewBox="0 0 512 512" style="enable-background:new 0 0 512 512;" xml:space="preserve">
<path style="fill:#F5A9A2;" d="M432.552,180.966H256v211.862h211.862V216.276C467.862,196.776,452.052,180.966,432.552,180.966z"/>
<path style="fill:#F59991;" d="M238.345,392.828h229.517V225.103c-61.793,88.276-150.069,105.931-229.517,114.759V392.828z"/>
<path style="fill:#75462E;" d="M264.828,128h-17.655v-17.655c0.026-24.364,19.774-44.111,44.138-44.138v17.655
	c-14.627,0-26.483,11.855-26.483,26.483V128z"/>
<path style="fill:#E5E5E5;" d="M459.034,445.793H52.966C23.711,445.793,0,422.082,0,392.828h512
	C512,422.082,488.289,445.793,459.034,445.793z"/>
<g>
	<path style="fill:#75462E;" d="M432.552,233.931c0-9.754-7.901-17.655-17.655-17.655H256v70.621h176.552V233.931z"/>
	<path style="fill:#75462E;" d="M256,286.897v70.621h158.897c9.754,0,17.655-7.901,17.655-17.655v-52.966H256z"/>
</g>
<path style="fill:#F5A9A2;" d="M198.621,252.672c-12.897,10.328-31.241,10.328-44.138,0s-31.241-10.328-44.138,0
	s-31.241,10.328-44.138,0c-6.259-5.014-14.045-7.751-22.069-7.742v147.897H256V259.293c-4.838-1.245-9.348-3.496-13.241-6.621
	C229.862,242.344,211.518,242.344,198.621,252.672z"/>
<path style="fill:#87CED9;" d="M79.448,180.966c-19.5,0-35.31,15.81-35.31,35.31v28.654c8.024-0.009,15.81,2.728,22.069,7.742
	c12.897,10.328,31.241,10.328,44.138,0c12.897-10.328,31.241-10.328,44.138,0c12.897,10.328,31.241,10.328,44.138,0
	c12.897-10.328,31.241-10.328,44.138,0c3.893,3.125,8.404,5.376,13.241,6.621v-78.327H79.448z"/>
<circle style="fill:#DE4C3C;" cx="256" cy="145.655" r="35.31"/>
<g>
	<rect x="88.276" y="207.448" style="fill:#75462E;" width="17.655" height="17.655"/>
	<rect x="141.241" y="207.448" style="fill:#75462E;" width="17.655" height="17.655"/>
	<rect x="194.207" y="207.448" style="fill:#75462E;" width="17.655" height="17.655"/>
</g>
<rect x="256" y="278.069" style="fill:#F0A09C;" width="176.552" height="17.655"/>
<path style="fill:#DEDEDE;" d="M367.228,392.828c-30.438,21.486-63.338,39.265-97.986,52.966h189.793
	c29.255,0,52.966-23.711,52.966-52.966H367.228z"/>
<g>
</g>
<g>
</g>
<g>
</g>
<g>
</g>
<g>
</g>
<g>
</g>
<g>
</g>
<g>
</g>
<g>
</g>
<g>
</g>
<g>
</g>
<g>
</g>
<g>
</g>
<g>
</g>
<g>
</g>
</svg>
