<svg id="Capa_1" enable-background="new 0 0 512 512" viewBox="0 0 512 512" xmlns="http://www.w3.org/2000/svg"><g><g><g><g><g><circle cx="397.01" cy="55.115" fill="#ffe177" r="26.785"/></g><g><path d="m224.645 171.716c.745.641 1.698.993 2.681.993s1.936-.352 2.683-.993l12.106-10.379c.374-.32.85-.496 1.342-.496.491 0 .968.176 1.341.496l12.106 10.38c.333.285.712.504 1.111.669 4.424-4.777 7.132-11.167 7.132-18.192 0-14.793-11.992-26.785-26.785-26.785s-26.785 11.992-26.785 26.785c0 2.479.344 4.877.974 7.155z" fill="#80d261"/></g><g><path d="m265.147 154.193c0-12.502-8.566-23.003-20.15-25.955 1.535 3.43 2.399 7.226 2.399 11.227 0 15.207-12.328 27.535-27.535 27.535-.25 0-.496-.017-.745-.024l5.529 4.739c.745.641 1.698.993 2.681.993s1.936-.352 2.683-.993l12.106-10.379c.374-.32.85-.496 1.342-.496.491 0 .968.176 1.341.496l12.106 10.38c.333.285.712.504 1.111.669 4.424-4.777 7.132-11.167 7.132-18.192z" fill="#68ca44"/></g><g><path d="m293.857 170.753 12.106-10.38c1.158-.992 2.866-.992 4.023 0l21.39 18.341c.685.587 1.079 1.444 1.079 2.346v276.816c0 .693.233 1.367.662 1.912l10.691 13.581c.429.545.662 1.218.662 1.912v33.63c0 1.707-1.384 3.091-3.091 3.091h-228.106c-1.707 0-3.091-1.384-3.091-3.091v-33.63c0-.693.233-1.367.662-1.912l10.691-13.581c.429-.545.662-1.218.662-1.912v-276.816c0-.902.394-1.759 1.079-2.346l21.39-18.341c1.158-.992 2.866-.992 4.023 0l12.106 10.38c1.158.992 2.866.992 4.023 0l12.106-10.38c1.158-.992 2.866-.992 4.023 0l12.106 10.38c1.158.992 2.866.992 4.023 0l12.106-10.38c1.158-.992 2.866-.992 4.023 0l12.106 10.38c1.158.992 2.866.992 4.023 0l12.106-10.38c1.158-.992 2.866-.992 4.023 0l12.107 10.38c1.158.992 2.866.992 4.023 0l12.106-10.38c1.158-.992 2.866-.992 4.023 0l12.107 10.38c1.162.992 2.871.992 4.028 0z" fill="#fe646f"/></g><g><path d="m293.857 170.753 12.106-10.38c1.158-.992 2.866-.992 4.023 0l21.39 18.341c.685.587 1.079 1.444 1.079 2.346v276.816c0 .693.233 1.367.662 1.912l10.691 13.581c.429.545.662 1.218.662 1.912v33.63c0 1.707-1.384 3.091-3.091 3.091h-228.106c-1.707 0-3.091-1.384-3.091-3.091v-33.63c0-.693.233-1.367.662-1.912l10.691-13.581c.429-.545.662-1.218.662-1.912v-276.816c0-.902.394-1.759 1.079-2.346l21.39-18.341c1.158-.992 2.866-.992 4.023 0l12.106 10.38c1.158.992 2.866.992 4.023 0l12.106-10.38c1.158-.992 2.866-.992 4.023 0l12.106 10.38c1.158.992 2.866.992 4.023 0l12.106-10.38c1.158-.992 2.866-.992 4.023 0l12.106 10.38c1.158.992 2.866.992 4.023 0l12.106-10.38c1.158-.992 2.866-.992 4.023 0l12.107 10.38c1.158.992 2.866.992 4.023 0l12.106-10.38c1.158-.992 2.866-.992 4.023 0l12.107 10.38c1.162.992 2.871.992 4.028 0z" fill="#fe646f"/></g><g><path d="m343.809 473.368-10.691-13.582c-.429-.545-.662-1.218-.662-1.911v-276.815c0-.902-.394-1.759-1.079-2.346l-21.39-18.341c-1.158-.992-2.866-.992-4.023 0l-10.618 9.104v290.35c0 8.534-6.918 15.453-15.453 15.453h-169.711v33.63c0 1.707 1.384 3.091 3.091 3.091h228.107c1.707 0 3.091-1.384 3.091-3.091v-33.63c0-.694-.234-1.367-.662-1.912z" fill="#fd4755"/></g><g><circle cx="301.203" cy="80.869" fill="#62dbfb" r="26.785"/></g><g><circle cx="398.04" cy="171.525" fill="#fe646f" r="26.785"/></g><g><path d="m404.853 145.617c1.655 3.481 2.584 7.374 2.584 11.485 0 14.793-11.992 26.785-26.785 26.785-2.355 0-4.637-.306-6.813-.877 4.3 9.045 13.519 15.3 24.201 15.3 14.793 0 26.785-11.992 26.785-26.785 0-12.438-8.48-22.893-19.972-25.908z" fill="#fd4755"/></g><g><path d="m308.016 54.962c1.655 3.481 2.584 7.374 2.584 11.485 0 14.793-11.992 26.785-26.785 26.785-2.355 0-4.637-.306-6.813-.877 4.3 9.045 13.519 15.3 24.201 15.3 14.793 0 26.785-11.992 26.785-26.785 0-12.439-8.48-22.894-19.972-25.908z" fill="#01d0fb"/></g><g><path d="m403.823 29.207c1.655 3.481 2.584 7.374 2.584 11.485 0 14.793-11.992 26.785-26.785 26.785-2.355 0-4.637-.306-6.813-.877 4.3 9.045 13.519 15.3 24.201 15.3 14.793 0 26.785-11.992 26.785-26.785 0-12.438-8.48-22.894-19.972-25.908z" fill="#ffd15b"/></g><g><circle cx="437.187" cy="272.483" fill="#80d261" r="26.785"/></g><g><ellipse cx="227.326" cy="315.68" fill="#fff" rx="69.881" ry="93.817"/></g><g><ellipse cx="227.326" cy="315.68" fill="#fff" rx="69.881" ry="93.817"/></g><g><path d="m259.928 232.685c7.073 14.665 11.182 32.147 11.182 50.919 0 51.814-31.287 93.817-69.881 93.817-11.775 0-22.868-3.916-32.602-10.822 12.45 25.814 34.087 42.898 58.699 42.898 38.594 0 69.881-42.003 69.881-93.817 0-36.004-15.11-67.266-37.279-82.995z" fill="#f2fbff"/></g><g><path d="m251.954 364.475c0-10.717 6.252-20.001 15.301-24.398-8.338-4.052-14.297-12.254-15.181-21.904-1.106.138-2.23.217-3.372.217-4.708 0-9.138-1.208-13-3.328-9.026 4.7-15.193 14.134-15.193 25.015 0 15.57 12.622 28.193 28.193 28.193 1.188 0 2.357-.082 3.507-.225-.16-1.174-.255-2.364-.255-3.57z" fill="#62dbfb"/></g><path d="m235.806 365.146c3.865 1.992 8.247 3.124 12.895 3.124 1.188 0 2.357-.082 3.507-.225-.158-1.175-.254-2.365-.254-3.571 0-10.717 6.252-20.001 15.301-24.397-2.778-1.35-5.283-3.168-7.432-5.339-6.077 12.525-14.319 22.981-24.017 30.408z" fill="#01d0fb"/><g><path d="m251.954 315.68c0-10.717 6.252-20.001 15.301-24.398-9.048-4.397-15.301-13.68-15.301-24.398 0-1.205.095-2.395.254-3.57-1.15-.143-2.318-.225-3.507-.225-15.57 0-28.193 12.622-28.193 28.193s12.622 28.193 28.193 28.193c1.185 0 2.349-.082 3.496-.223-.155-1.17-.243-2.36-.243-3.572z" fill="#fe646f"/></g><g><path d="m294.618 290.396c-4.203-20.202-13.298-37.664-25.486-49.899-10.669 4.017-18.262 14.314-18.262 26.389 0 15.57 12.622 28.193 28.193 28.193 5.75-.001 11.096-1.727 15.555-4.683z" fill="#fe9738"/></g><g><path d="m269.132 240.497c-1.727.65-3.363 1.481-4.91 2.442 4.414 12.302 6.888 26.096 6.888 40.666 0 3.451-.143 6.857-.413 10.211 2.643.82 5.453 1.263 8.366 1.263 5.751 0 11.097-1.726 15.556-4.682-4.204-20.204-13.299-37.666-25.487-49.9z" fill="#fe860a"/></g><g><path d="m279.062 336.283c-15.57 0-28.193 12.622-28.193 28.193 0 12.074 7.593 22.371 18.262 26.389 12.188-12.235 21.283-29.697 25.486-49.899-4.458-2.958-9.804-4.683-15.555-4.683z" fill="#68ca44"/></g><g><path d="m250.87 315.68c0 15.57 12.622 28.193 28.193 28.193 5.936 0 11.44-1.839 15.983-4.972 1.409-7.427 2.161-15.205 2.161-23.221s-.752-15.794-2.161-23.221c-4.543-3.133-10.047-4.972-15.983-4.972-15.571.001-28.193 12.623-28.193 28.193z" fill="#ffe177"/></g><g><path d="m295.046 292.459c-4.543-3.133-10.047-4.972-15.983-4.972-2.8 0-5.502.414-8.054 1.174-.688 17.387-4.902 33.517-11.7 47.126 5.087 4.999 12.059 8.085 19.755 8.085 5.936 0 11.44-1.839 15.983-4.972 1.409-7.427 2.161-15.205 2.161-23.221-.001-8.014-.753-15.793-2.162-23.22z" fill="#ffd15b"/></g></g><g><path d="m444 246.575c1.655 3.481 2.584 7.374 2.584 11.485 0 14.793-11.992 26.785-26.785 26.785-2.355 0-4.637-.306-6.813-.877 4.3 9.045 13.519 15.3 24.201 15.3 14.793 0 26.785-11.992 26.785-26.785 0-12.438-8.48-22.894-19.972-25.908z" fill="#68ca44"/></g></g><g><g><path d="m102.37 148.43-1.22 15.9c-.117 1.52-1.325 2.728-2.845 2.845l-28.094 2.156c-.899.069-1.784-.258-2.422-.896l-18.855-18.855c-1.207-1.207-1.207-3.164 0-4.371l144.304-144.304c1.207-1.207 3.164-1.207 4.371 0l18.855 18.855c.638.638.965 1.522.896 2.422l-2.157 28.094c-.117 1.52-1.325 2.728-2.845 2.845l-15.9 1.22c-1.52.117-2.728 1.325-2.845 2.845l-1.22 15.9c-.117 1.52-1.325 2.728-2.845 2.845l-15.901 1.221c-1.52.117-2.728 1.325-2.845 2.845l-1.22 15.9c-.117 1.52-1.325 2.728-2.845 2.845l-15.9 1.22c-1.52.117-2.728 1.325-2.845 2.845l-1.22 15.9c-.117 1.52-1.325 2.728-2.845 2.845l-15.901 1.221c-1.52.117-2.728 1.325-2.845 2.845l-1.22 15.9c-.117 1.52-1.325 2.728-2.845 2.845l-15.901 1.221c-1.52.118-2.728 1.326-2.845 2.846z" fill="#fe646f"/></g><g><path d="m211.242 14.538-127.288 127.289c-4.023 4.023-10.546 4.023-14.569 0l-8.534-8.534-11.917 11.917c-1.207 1.207-1.207 3.164 0 4.371l18.855 18.855c.638.638 1.523.965 2.422.896l28.094-2.156c1.52-.117 2.728-1.325 2.845-2.845l1.22-15.9c.117-1.52 1.325-2.728 2.845-2.845l15.901-1.221c1.52-.117 2.728-1.325 2.845-2.845l1.221-15.9c.117-1.52 1.325-2.728 2.845-2.845l15.901-1.221c1.52-.117 2.728-1.325 2.845-2.845l1.22-15.9c.117-1.52 1.325-2.728 2.845-2.845l15.9-1.22c1.52-.117 2.728-1.325 2.845-2.845l1.22-15.9c.117-1.52 1.325-2.728 2.845-2.845l15.901-1.221c1.52-.117 2.728-1.325 2.845-2.845l1.221-15.9c.117-1.52 1.325-2.728 2.845-2.845l15.9-1.22c1.52-.117 2.728-1.325 2.845-2.845l2.156-28.094c.069-.899-.258-1.784-.896-2.422z" fill="#fd4755"/></g></g></g><g><g><path d="m298.409 463.355h-142.165c-4.143 0-7.5-3.357-7.5-7.5s3.357-7.5 7.5-7.5h142.165c4.143 0 7.5 3.357 7.5 7.5s-3.357 7.5-7.5 7.5z" fill="#fe99a0"/></g></g><g><g><path d="m227.326 416.997c-21.094 0-40.778-10.831-55.428-30.498-14.156-19.005-21.953-44.156-21.953-70.818 0-26.663 7.797-51.813 21.953-70.819 14.649-19.667 34.334-30.498 55.428-30.498 21.095 0 40.779 10.831 55.429 30.498 14.156 19.006 21.952 44.156 21.952 70.819s-7.796 51.813-21.952 70.818c-14.65 19.667-34.334 30.498-55.429 30.498zm0-187.634c-34.396 0-62.381 38.722-62.381 86.317s27.984 86.316 62.381 86.316 62.381-38.722 62.381-86.316c0-47.595-27.984-86.317-62.381-86.317z" fill="#fe99a0"/></g></g></g><g/><g/><g/><g/><g/><g/><g/><g/><g/><g/><g/><g/><g/><g/><g/></svg>