<svg id="Capa_1" enable-background="new 0 0 512 512" height="512" viewBox="0 0 512 512" width="512" xmlns="http://www.w3.org/2000/svg"><g><path d="m271.97 111.975c0 56.599-41.993 103.39-96.522 110.918-5.051.697-10.211-1.003-15.454-1.003-61.842 0-101.673-48.073-101.673-109.915s39.831-109.915 101.673-109.915c5.243 0 10.402-1.7 15.454-1.003 54.529 7.528 96.522 54.319 96.522 110.918z" fill="#e7f5f5"/><path d="m78.926 111.975c0-56.599 41.993-103.39 96.522-110.917-5.052-.697-10.211-1.058-15.454-1.058-61.842 0-111.975 50.133-111.975 111.975s50.133 111.975 111.975 111.975c5.243 0 10.402-.361 15.454-1.058-54.529-7.527-96.522-54.317-96.522-110.917z" fill="#cedada"/><g><path d="m159.994 199.644c-48.341 0-87.669-39.328-87.669-87.669s39.328-87.669 87.669-87.669c48.34 0 87.669 39.328 87.669 87.669s-39.328 87.669-87.669 87.669zm0-159.884c-39.82 0-72.215 32.396-72.215 72.215s32.396 72.215 72.215 72.215 72.215-32.396 72.215-72.215-32.396-72.215-72.215-72.215z" fill="#6e8a89"/></g><circle cx="159.994" cy="111.975" fill="#cedada" r="47.695"/><path d="m267.397 501.636-59.947 10.303h-129.102l-20.605-1.03c-8.535 0-15.454-5.889-15.454-14.424v-294.248l20.605-10.303 97.1-10.303 128.008 10.303v64.019z" fill="#ffd15b"/><path d="m62.894 496.485v-304.55l-14.875-10.303-16.032 10.303v64.019l20.605 96.036-20.605 95.944v48.55c0 8.535 6.919 15.454 15.454 15.454h30.908c-8.536 0-15.455-6.919-15.455-15.453z" fill="#faab1b"/><path d="m288.002 447.934h-225.108l-20.605-10.302v-171.376l20.605-10.302h225.108z" fill="#f66"/><path d="m31.986 255.954h30.908v191.98h-30.908z" fill="#e94444"/><path d="m288.002 191.919h-225.108l-20.605-.237c-8.837 0-16.001-6.927-16.001-15.764 0-8.837 7.164-15.851 16.001-15.851l20.605-.149h225.108c8.837 0 16.001 7.164 16.001 16.001 0 8.836-7.164 16-16.001 16z" fill="#e7f5f5"/><path d="m46.893 175.918c0-8.837 7.164-16.001 16.001-16.001h-30.908c-8.837 0-16.001 7.164-16.001 16.001s7.164 16.001 16.001 16.001h30.908c-8.837 0-16.001-7.164-16.001-16.001z" fill="#cedada"/><path d="m208.001 351.932-9.375 9.365c-14.485 14.496-34.143 22.635-54.634 22.635-6.666 0-13.249-.865-19.595-2.534-3.4-.886-4.667-5.1-7.912-6.439-2.38-.989-6.769.999-9.035-.216-6.594-3.534-12.693-8.046-18.081-13.445l-4.276-4.265c-2.823-2.823-2.823-7.387 0-10.2l4.276-4.276c5.388-5.388 11.487-9.901 18.081-13.434 3.096-1.664 6.298-.021 9.584-1.245 2.412-.898 4.869-4.767 7.364-5.421 6.346-1.669 12.93-2.534 19.595-2.534 10.241 0 20.286 2.04 29.568 5.883 9.293 3.853 17.823 9.509 25.066 16.752z" fill="#e7f5f5"/><path d="m240 319.922v64.009l-31.999-31.999z" fill="#e7f5f5"/><g><g><path d="m135.718 351.932c0 10.117-3.791 19.987-11.322 29.465-3.4-.886-6.728-2.009-9.973-3.348-2.38-.989-4.708-2.091-6.975-3.307 8.5-8.149 12.816-15.825 12.816-22.81 0-6.995-4.317-14.671-12.816-22.81 5.368-2.885 11.055-5.12 16.948-6.666 7.531 9.479 11.322 19.359 11.322 29.476z" fill="#cedada"/></g></g><path d="m464.56 512h-226.203l-20.605-1.03c-8.535 0-15.454-5.889-15.454-14.424v-144.556l138.858-10.303 138.858 10.303v144.556c0 8.535-6.919 15.454-15.454 15.454z" fill="#f66"/><path d="m222.904 496.546v-144.556l-14.903-10.303-16.004 10.303v31.978l20.605 64.007-20.605 31.999v16.572c0 8.535 6.919 15.454 15.454 15.454h30.908c-8.536 0-15.455-6.919-15.455-15.454z" fill="#e94444"/><path d="m320.004 479.974h-97.1l-20.605-10.303v-75.401l20.605-10.303h97.1c26.511 0 48.003 21.492 48.003 48.003 0 26.512-21.492 48.004-48.003 48.004z" fill="#ffd15b"/><path d="m191.996 383.968h30.908v96.006h-30.908z" fill="#faab1b"/><g><g><g><path d="m448.011 391.695h-48.002c-4.268 0-7.727-3.46-7.727-7.727s3.459-7.727 7.727-7.727h48.002c4.268 0 7.727 3.46 7.727 7.727s-3.459 7.727-7.727 7.727z" fill="#e7f5f5"/></g><g><path d="m448.011 423.698h-48.002c-4.268 0-7.727-3.46-7.727-7.727s3.459-7.727 7.727-7.727h48.002c4.268 0 7.727 3.46 7.727 7.727s-3.459 7.727-7.727 7.727z" fill="#e7f5f5"/></g><g><path d="m448.011 455.702h-48.002c-4.268 0-7.727-3.46-7.727-7.727s3.459-7.727 7.727-7.727h48.002c4.268 0 7.727 3.46 7.727 7.727s-3.459 7.727-7.727 7.727z" fill="#e7f5f5"/></g><g><path d="m448.011 487.706h-48.002c-4.268 0-7.727-3.46-7.727-7.727s3.459-7.727 7.727-7.727h48.002c4.268 0 7.727 3.46 7.727 7.727s-3.459 7.727-7.727 7.727z" fill="#e7f5f5"/></g></g></g><path d="m480.014 351.99h-257.11l-20.605-.26c-8.837 0-16.001-6.904-16.001-15.741 0-8.837 7.164-15.617 16.001-15.617l20.605-.384h257.11c8.837 0 16.001 7.164 16.001 16.001 0 8.837-7.164 16.001-16.001 16.001z" fill="#e7f5f5"/><path d="m206.903 335.989c0-8.837 7.164-16.001 16.001-16.001h-30.908c-8.837 0-16.001 7.164-16.001 16.001 0 8.837 7.164 16.001 16.001 16.001h30.908c-8.837 0-16.001-7.164-16.001-16.001z" fill="#cedada"/></g></svg>