<svg id="Layer_3" enable-background="new 0 0 64 64" height="512" viewBox="0 0 64 64" width="512" xmlns="http://www.w3.org/2000/svg"><g><path d="m62 40c0 2.209-7.163 4-16 4-1.381 0-2.722-.044-4-.126v-9.874c0-2.46-4.936-4.575-12-5.501v-14.499c0 2.209 7.163 4 16 4s16-1.791 16-4z" fill="#d5cec2"/><path d="m46 18c-8.837 0-16-1.791-16-4v14.499c5.52.724 9.729 2.175 11.31 3.948 4.728-3.557 8.188-8.702 9.602-14.641-1.549.125-3.197.194-4.912.194z" fill="#e7e4dd"/><path d="m42 39.064c1.205.599 2.563.936 4 .936 4.971 0 9-4.029 9-9s-4.029-9-9-9c-4.649 0-8.475 3.525-8.95 8.048 3.082 1.056 4.95 2.438 4.95 3.952z" fill="#af4a47"/><path d="m46 22c-4.649 0-8.475 3.525-8.95 8.048 1.987.68 3.459 1.498 4.261 2.398 3.396-2.555 6.137-5.932 7.938-9.832-1.009-.391-2.102-.614-3.249-.614z" fill="#e4725f"/><path d="m2 34v22c0 3.314 8.954 6 20 6s20-2.686 20-6v-22" fill="#758190"/><path d="m2 56c0 2.564 5.372 4.747 12.916 5.605 8.152-4.338 13.704-12.917 13.704-22.795 0-1.645-.16-3.251-.454-4.81h-26.166z" fill="#8892a0"/><ellipse cx="22" cy="34" fill="#d5cec2" rx="20" ry="6"/><path d="m2 34c0 3.314 8.954 6 20 6 2.316 0 4.53-.124 6.598-.341.009-.283.021-.564.021-.849 0-3.805-.83-7.414-2.309-10.666-1.389-.092-2.828-.144-4.31-.144-11.046 0-20 2.686-20 6z" fill="#e7e4dd"/><path d="m37 60v-16-.031c-3.665 1.245-9.026 2.031-15 2.031s-11.335-.786-15-2.031v.031 16l.009-.028c3.665 1.244 9.023 2.028 14.991 2.028s11.326-.784 14.99-2.028z" fill="#a8b0bc"/><path d="m22 46c-5.974 0-11.335-.786-15-2.031v.031 16l.009-.028c2.131.723 4.845 1.284 7.907 1.633 6.167-3.282 10.84-8.993 12.752-15.857-1.799.159-3.695.252-5.668.252z" fill="#c1c8d1"/><path d="m62 6c0 2.209-7.163 4-16 4s-16-1.791-16-4v8c0 2.209 7.163 4 16 4s16-1.791 16-4z" fill="#c66b60"/><path d="m62 40c0 2.209-7.163 4-16 4-1.381 0-2.722-.044-4-.126v10c1.278.082 2.619.126 4 .126 8.837 0 16-1.791 16-4z" fill="#c66b60"/><path d="m54.946 30.006c-.495-4.503-4.311-8.006-8.946-8.006-4.649 0-8.475 3.525-8.95 8.048 1.152.394 2.134.835 2.913 1.31l.79-.526c.813-.542 1.769-.832 2.747-.832h1c.978 0 1.934.29 2.748.832l.504.336c.814.542 1.77.832 2.748.832.978 0 1.934-.29 2.748-.832l1.7-1.133z" fill="#c66b60"/><ellipse cx="13" cy="34" fill="#a8b0bc" rx="4" ry="2"/><g fill="#d5cec2"><path d="m18 54 2.4 1.8c1.039.779 2.302 1.2 3.6 1.2 1.298 0 2.561-.421 3.6-1.2l2.4-1.8-2.4-1.8c-1.039-.779-2.302-1.2-3.6-1.2-1.298 0-2.561.421-3.6 1.2z"/><path d="m18 54-.051.154c-.567 1.7-2.157 2.846-3.949 2.846l1-3-1-3c1.792 0 3.382 1.146 3.949 2.846z"/><ellipse cx="46" cy="6" rx="16" ry="4"/></g><path d="m25.455 51.199c-.475-.119-.96-.199-1.455-.199-1.298 0-2.561.421-3.6 1.2l-2.4 1.8 2.4 1.8c.375.281.786.498 1.211.683 1.492-1.587 2.788-3.359 3.844-5.284z" fill="#e7e4dd"/><path d="m30 6v8c0 2.209 7.163 4 16 4 1.715 0 3.363-.069 4.912-.194.458-1.925.708-3.931.708-5.996 0-.694-.035-1.38-.089-2.06-1.726.159-3.584.25-5.531.25-8.837 0-16-1.791-16-4z" fill="#e47c6e"/><path d="m51.53 9.75c-.212-2.682-.832-5.247-1.801-7.636-1.198-.072-2.443-.114-3.729-.114-8.837 0-16 1.791-16 4s7.163 4 16 4c1.947 0 3.805-.091 5.53-.25z" fill="#e7e4dd"/><g fill="#e47c6e"><path d=""/><path d="m49.252 22.607c-1.009-.391-2.105-.607-3.252-.607-4.649 0-8.475 3.525-8.95 8.048 1.152.394 2.134.835 2.913 1.31l.79-.526c.813-.543 1.769-.832 2.747-.832h.617c2.118-2.131 3.861-4.631 5.135-7.393z"/></g></g></svg>