<svg id="Capa_1" enable-background="new 0 0 512 512" height="512" viewBox="0 0 512 512" width="512" xmlns="http://www.w3.org/2000/svg"><g><path d="m112.22 260.625c0 56.35-106.815 72.804-106.815 123.766 0 21.384 16.168 37.209 52.745 33.741 4.001-.379 12.491.338 12.491.338 5.697-1.152 11.689-2.744 17.955-4.832 31.998-10.666 54.514-14.908 73.38-13.893 0 0 2.409-.025 3.471.068 3.908.342 9.847.362 13.514 1.157 9.806 2.128 19.362 4.224 28.893 9.308 11.679 5.682 29.711 23.21 52.527 31.802 12.018 4.526 14.519 3.879 32.401-.167 8.803-6.048 14.79-15.903 15.74-26.736 1.308-15.289 14.071-25.146 27.996-24.369 0 0 2.07.037 2.921.163 5.209.774 11.252 1.964 16.083 6.024 24.129 20.277 50.029 45.607 74.512 33.305 1.978-.994 8.627-.309 8.627-.309 22.808-17.182-2.809-50.519 17.539-75.543 18.08-22.236 55.8-21.415 55.8-53.35 0-19.974-11.968-34.776-54.6-34.776-21.813 0-38.626-3.711-47.861-17.993z" fill="#fcc16d"/><path d="m41.207 385.819c0 14.969 10.55 27.614 29.433 32.652-44.143 8.931-70.64-8.927-70.64-32.652 0-50.953 102.462-68.847 102.462-125.198l41.166-1.648.041 1.648c0 56.351-102.462 74.245-102.462 125.198z" fill="#fca62f"/><g><path d="m417.697 338.43h-25.755c-4.268 0-7.726-3.459-7.726-7.726s3.459-7.726 7.726-7.726h25.755c4.268 0 7.726 3.459 7.726 7.726s-3.458 7.726-7.726 7.726z" fill="#f98824"/></g><g><path d="m138.845 338.43h-25.755c-4.268 0-7.726-3.459-7.726-7.726s3.459-7.726 7.726-7.726h25.755c4.268 0 7.726 3.459 7.726 7.726s-3.458 7.726-7.726 7.726z" fill="#f98824"/></g><path d="m391.943 338.43c-63.274 0-63.274-20.604-126.547-20.604-63.274 0-63.274 20.604-126.548 20.604l-32.688-69.898s8.342-5.983 12.298-8.054l161.726-85.517c1.988-1.04 13.881 0 13.881 0l49.277 55.654z" fill="#fca62f"/><g fill="#f98824"><path d="m409.539 248.33c0 35.294-17.596 40.497-17.596 90.1l-97.878-163.469c.67-1.381-7.288-9.502-7.288-9.502v-91.14s7.752-3.993 6.773-5.549z"/><circle cx="291.788" cy="317.831" r="20.915"/><circle cx="327.939" cy="321.433" r="15.403"/><circle cx="180.703" cy="334.265" r="15.403"/></g><path d="m295.106 74.23v102.469l-177.562 93.049c-3.956 2.071-8.365 1.298-11.383-1.216-2.225-1.844-3.698-4.636-3.698-7.912v-96.239c0-3.832 2.122-7.345 5.522-9.117l172.04-90.161c5.007-2.627 10.745-.68 13.475 3.585l.052.082c.977 1.556 1.554 3.41 1.554 5.46z" fill="#fcc16d"/><g fill="#fca62f"><path d="m246.213 412.603c10.178 4.955 27.252 19.874 46.567 29.31-8.818 6.099-20.38 8.302-32.444 3.759-22.808-8.592-43.649-27.382-55.331-33.069-14.938-7.963-28.907-12.568-45.998-12.98h36.613c1.349-.031 2.678-.031 3.987 0h.979l-.021.01c16.927.474 30.814 5.058 45.648 12.97z"/><path d="m438.659 429.992c.001.002 0-.003 0 0-1.55 1.181-3.286 2.253-5.304 3.267-24.477 12.3-54.847-14.793-78.974-35.078-6.099-5.12-12.919-7.417-19.398-7.417h27.081c15.852 0 31.211 5.452 43.551 15.401 11.385 9.177 25.206 19.826 33.044 23.827z"/></g></g></svg>