<svg id="Capa_1" enable-background="new 0 0 512 512" viewBox="0 0 512 512" xmlns="http://www.w3.org/2000/svg"><g><g><path d="m295.648 47.411-39.648-10.001-39.648 10.001v55.467l39.648 10.001 39.648-10.001z" fill="#eaf9fa"/><path d="m265.645 39.843v70.604l30.003-7.569v-55.467z" fill="#dcf5f8"/></g><g><path d="m170.667 258.223v187.204l85.333 10.001 85.333-10.001v-187.204l-85.333-10.001z" fill="#6bd9e7"/><path d="m311.33 254.706v195.297l30.003-4.576v-187.204z" fill="#2ed1e2"/></g><path d="m170.667 480.006c0 17.67 14.324 31.994 31.994 31.994h106.678c17.67 0 31.994-14.324 31.994-31.994v-34.579h-170.666z" fill="#d4f2f6"/><path d="m311.33 445.427v4.576c0 17.67-14.324 31.994-31.994 31.994h-106.678c-.648 0-1.29-.025-1.928-.063.997 16.772 14.909 30.066 31.931 30.066h106.678c17.67 0 31.994-14.324 31.994-31.994v-34.579z" fill="#a6e7f0"/><g><path d="m332.584 213.966-28.186-66.685c-5.774-13.662-8.75-28.342-8.75-43.174v-1.228h-79.295v1.229c0 14.832-2.975 29.513-8.75 43.174l-28.186 66.685c-5.774 13.662-8.75 28.343-8.75 43.174v1.083h170.667v-1.083c-.001-14.832-2.976-29.514-8.75-43.175z" fill="#d4f2f6"/><path d="m332.584 213.966-28.186-66.685c-5.774-13.662-8.75-28.342-8.75-43.174v-1.228h-30.003v1.228c0 14.832 2.975 29.513 8.75 43.174l28.186 66.685c5.774 13.662 8.75 28.343 8.75 43.174v1.083h30.003v-1.083c-.001-14.831-2.976-29.513-8.75-43.174z" fill="#a6e7f0"/></g><path d="m299.921 47.411h-87.842c-3.764 0-6.816-3.051-6.816-6.816v-13.436c0-15 12.16-27.159 27.159-27.159h47.155c15 0 27.159 12.16 27.159 27.159v13.436c.001 3.765-3.051 6.816-6.815 6.816z" fill="#6bd9e7"/><path d="m279.578 0h-30.003c15 0 27.159 12.16 27.159 27.159v13.437c0 3.764-3.052 6.815-6.816 6.815h30.003c3.764 0 6.816-3.051 6.816-6.815v-13.437c0-14.999-12.16-27.159-27.159-27.159z" fill="#2ed1e2"/><path d="m285.416 333.786c-3.72 0-7.171-1.879-9.243-4.969-4.355-6.498-11.764-10.776-20.174-10.776s-15.819 4.278-20.174 10.776c-2.071 3.09-5.523 4.969-9.243 4.969h-6.976c-6.129 0-11.097 4.968-11.097 11.097v14.576c0 6.129 4.968 11.097 11.097 11.097h72.784c6.129 0 11.097-4.968 11.097-11.097v-14.576c0-6.129-4.968-11.097-11.097-11.097z" fill="#eaf9fa"/><g fill="#6bd9e7"><circle cx="286.366" cy="189.02" r="7.5"/><circle cx="228.897" cy="213.774" r="7.5"/><circle cx="249.576" cy="149.02" r="7.5"/></g></g><g/><g/><g/><g/><g/><g/><g/><g/><g/><g/><g/><g/><g/><g/><g/></svg>