<svg id="Soda_Can" enable-background="new 0 0 64 64" viewBox="0 0 64 64" xmlns="http://www.w3.org/2000/svg"><g><g><path d="m45.22318 63.99997h-26.44636c-1.51407 0-2.74147-1.2274-2.74147-2.74147v-4.7211h31.9293v4.72109c0 1.51408-1.2274 2.74148-2.74147 2.74148z" fill="#ededf7"/><path d="m45.40103 63.9817c-.0548.0183-.12801.0183-.18281.0183h-26.44117c-1.51763 0-2.74286-1.22522-2.74286-2.74286v-4.71774h15.83548c.80457 1.00569 1.68225 1.91998 2.57824 2.72455 3.1817 2.87087 6.93036 4.58973 10.95312 4.71775z" opacity=".1"/></g><g><path d="m50.73518 23.74386v30.86836c0 2.56645-2.08052 4.64697-4.64697 4.64697h-28.17642c-2.56645 0-4.64697-2.08052-4.64697-4.64697v-30.86843c0-3.15897 1.23691-6.19237 3.44585-8.45061l.95928-.98069h28.66001l.95929.98068c2.20899 2.25825 3.44593 5.29168 3.44593 8.45069z" fill="#9151b2"/><path d="m39.11074 59.26395h-15.1588c.29252-2.45033.42053-5.61372-.10971-9.21595-1.00569-6.98515-2.77946-9.45379-4.20569-13.71428-1.48114-4.44341-2.79777-11.99542 1.49944-22.01606h8.17366c-.62165 3.52913-.87768 8.10055.45714 13.05602 1.75547 6.52801 5.01027 8.83203 7.4423 15.32343 1.33481 3.62053 2.63314 9.03314 1.90166 16.56684z" fill="#ffdc6e"/><path d="m34.44791 59.26395h-16.53023c-.67656 0-1.31663-.14632-1.88348-.40223-1.62734-.71317-2.76116-2.35893-2.76116-4.2423v-30.88458c0-3.1452 1.22522-6.18058 3.43772-8.44799l.95089-.9692h10.78861c-2.65145 5.17489-4.2058 11.55658-4.2058 18.46863 0 9.50859 2.96239 18.02968 7.62522 23.75311.80457 1.0057 1.68225 1.91999 2.57823 2.72456z" opacity=".1"/><path d="m47.62772 25.19938c0 2.35036-1.25423 4.25571-2.8014 4.25571s-2.8014-1.90534-2.8014-4.25571 1.25423-4.2557 2.8014-4.2557c1.54718 0 2.8014 1.90534 2.8014 4.2557zm-2.80997 6.2706c-.95029 0-1.72066 1.0103-1.72066 2.25656 0 1.24627.77037 2.25657 1.72066 2.25657s1.72066-1.0103 1.72066-2.25657-.77036-2.25656-1.72066-2.25656z" fill="#fff" opacity=".4"/></g><path d="m42.42087 1.3845c-.85786-.85798-2.04741-1.3845-3.35385-1.3845-2.61298 0-4.73835 2.12549-4.73835 4.73835v6.86384h9.4767v-6.86384c0-1.30643-.52652-2.49587-1.3845-3.35385zm-3.35385 5.10533c-1.02435 0-1.86698-.82609-1.86698-1.86698 0-1.02435.84263-1.85044 1.86698-1.85044s1.86698.82609 1.86698 1.85044c.00001 1.04089-.84263 1.86698-1.86698 1.86698z" fill="#dbdbe7"/><g><path d="m47.32748 8.55025h-30.65496c-1.5912 0-2.88113 1.28992-2.88113 2.88113v.00001c0 1.5912 1.28992 2.88113 2.88113 2.88113h30.65495c1.5912 0 2.88113-1.28992 2.88113-2.88113v-.00001c0-1.59121-1.28992-2.88113-2.88112-2.88113z" fill="#ededf7"/><path d="m32.2536 8.55773c-1.44453 1.68225-2.72455 3.62053-3.80334 5.75993h-11.776c-1.59085 0-2.88917-1.29821-2.88917-2.88906s1.29833-2.87087 2.88917-2.87087z" opacity=".1"/></g></g></svg>