<svg height="464pt" viewBox="0 0 464 464" width="464pt" xmlns="http://www.w3.org/2000/svg"><path d="m34.648438 464c-19.136719 0-34.648438-15.511719-34.648438-34.648438 0-8.59375 3.191406-16.878906 8.960938-23.246093l265.085937-300.183594c7.769531-8.800781 18.832031-13.996094 30.5625-14.359375s23.089844 4.136719 31.390625 12.4375l24 24c8.300781 8.300781 12.800781 19.660156 12.4375 31.390625s-5.558594 22.792969-14.359375 30.5625l-300.183594 265.085937c-6.367187 5.769532-14.652343 8.960938-23.246093 8.960938zm0 0" fill="#f98500"/><path d="m360 128-.054688-.054688c.191407 13.464844-5.511718 26.34375-15.609374 35.253907l-327.039063 288.800781c-1.53125 1.359375-3.171875 2.589844-4.90625 3.679688 13.15625 11.308593 32.683594 11.023437 45.503906-.664063l300.183594-265.0625c8.800781-7.769531 13.996094-18.832031 14.359375-30.5625s-4.136719-23.089844-12.4375-31.390625zm0 0" fill="#f27900"/><path d="m336 104 104-64 24 24-96 72zm0 0" fill="#69a340"/><path d="m336 104 64-104 24 24-56 112zm0 0" fill="#7eb457"/><g fill="#e66000"><path d="m301.65625 146.34375-33.617188-33.617188-10.613281 12.007813 32.917969 32.921875zm0 0"/><path d="m229.65625 218.34375-29.152344-29.152344-10.609375 12.015625 28.449219 28.449219zm0 0"/><path d="m274.34375 221.65625 22.433594 22.433594 12.015625-10.609375-23.136719-23.136719zm0 0"/><path d="m242.339844 189.660156 11.316406-11.316406 15.996094 16-11.3125 11.3125zm0 0"/><path d="m181.65625 250.34375-18.664062-18.664062-10.617188 12.007812 17.96875 17.96875zm0 0"/><path d="m141.65625 306.34375-23.6875-23.6875-10.609375 12.015625 22.984375 22.984375zm0 0"/><path d="m93.65625 362.34375-24.457031-24.457031-10.613281 12.007812 23.757812 23.761719zm0 0"/><path d="m58.34375 413.65625 21.769531 21.769531 12.015625-10.609375-22.472656-22.472656zm0 0"/><path d="m186.34375 277.660156 11.316406-11.316406 15.996094 16-11.3125 11.3125zm0 0"/></g></svg>