<svg enable-background="new 0 0 64 64" height="64" viewBox="0 0 64 64" width="64" xmlns="http://www.w3.org/2000/svg"><g/><g id="Icons"/><g id="donut"><g id="cashew_nuts_1_"><g id="cashew_nuts"><g><g><path d="m25.918 38.09c-7.675 7.381-19.086 3.074-19.896-1.325-.849-3.678 4.375-3.642 5.375-3.755 4.969-.589 8.724-5.466 7.325-10.822-.259-1.01-5.187-8.159 1.27-7.491 9.921 1.122 14.191 15.46 5.926 23.393z" fill="#edbc7c"/><path d="m25.918 38.09c-5.264 5.062-12.276 4.639-16.436 2.43 16.614 5.095 25.461-18.16 12.166-25.474 8.706 2.411 12.056 15.571 4.27 23.044z" fill="#d4a263"/><path d="m11.82 41.458c17.569 4.293 24.375-21.101 9.939-26.338-.037-.037-.074-.056-.11-.074 15.714 4.352 8.43 31.931-9.829 26.412z" fill="#a97a45"/><path d="m6.022 36.765c-.055-.239-.074-.479-.037-.718 6.773 2.209 16.952-4.785 16.16-12.497 3.387 4.73-7.583 15.534-16.123 13.215z" fill="#d4a263"/><g fill="#f4d0a1"><path d="m10.082 37.861c-.514.001-1.185.1-1.278.605-.403 2.172 9.988 1.658 15.197-5.046 6.692-8.61-.881-16.32-1.969-15.603-.367.242 1.162 2.013 1.313 2.271 4.35 7.408-1.686 17.739-13.263 17.773z"/><path d="m19.947 25.252c.483-2.354 3.091-.661-.301 4.019-5.629 7.766-13.356 6.241-8.176 4.892 1.121-.292 2.198-.75 3.185-1.355 2.792-1.711 4.669-4.519 5.292-7.556z"/></g></g><g><path d="m36.13 26.114c-8.134-11.816.24-23.191 8.854-20.926l-.056.019c.645.036 1.197.331 1.491.975 2.08 4.822-5.577 10.823.663 14.099 2.871 1.51 6.81-.533 9.387 1.583 6.707 5.55-9.115 20.52-20.339 4.25z" fill="#edbc7c"/><path d="m55.052 30.771c-13.8 11.905-32.164-17.329-16.068-25.013-10.723 9.536 3.187 31.374 16.068 25.013z" fill="#d4a263"/><path d="m55.052 30.771c-13.175 11.365-31.014-14.949-17.357-24.277-10.186 9.315 2.265 31.834 17.357 24.277z" fill="#a97a45"/><path d="m58.07 25.102c0 .185 0 .387-.037.59-4.16.662-14.025-.479-15.571-6.516 3.63 5.944 11.808 7.01 15.608 5.926z" fill="#d4a263"/><g fill="#f4d0a1"><path d="m52.923 29.747c2.085-.629 2.426-2.998-1.299-2.438-5.78.867-12.397-4.707-11.078-14.99.498-3.88-3.048-3.034-3.083 3.147-.044 7.597 8.268 16.449 15.46 14.281z"/><path d="m43.438 14.666c-.628 8.176 9.098 6.757 10.271 7.067 6.309 1.722-12.178 5.241-10.271-7.067z"/></g></g><g><path d="m53.246 46.459c.166 10.859-15.369 17.007-26.67 8.945-8.282-5.891-4.785-15.756 1.086-11.485 16.565 12.042 12.831-8.083 20.89-5.393 3.093.939 4.657 4.712 4.694 7.933z" fill="#edbc7c"/><path d="m26.576 55.404c-4.325-3.074-5.429-7.215-4.675-9.902 3.035 12.682 28.796 14.221 31.197-.553 1.999 11.196-14.313 19.164-26.522 10.455z" fill="#d4a263"/><path d="m26.576 55.404c-3.92-2.779-5.19-6.442-4.84-9.093 1.683 13.563 30.189 15.593 31.473-.57.872 11.32-15.096 17.893-26.633 9.663z" fill="#a97a45"/><path d="m35.117 50.177c7.951.441 13.454-5.65 12.405-11.854.184.019.368.037.552.093 2.176 9.793-11.349 13.85-12.957 11.761z" fill="#d4a263"/><g fill="#f4d0a1"><path d="m38.097 53.747c16.042.818 15.017-16.09 10.957-10.787-1.41 1.841-1.299 7.2-7.369 8.899-5.867 1.643-9.098-1.663-12-3.159-10.649-5.493-5.166 4.354 8.412 5.047z"/><path d="m41.325 46.307c.181-.984 1.611-1.948 2.318-2.657 1.453-1.459 1.906-5.063 3.181-3.578.599.697-1.553 4.515-2.109 5.258-2.377 3.171-3.658 2.439-3.39.977z"/></g></g></g></g></g></g></svg>