<svg id="Layer_1" enable-background="new 0 0 512 512" viewBox="0 0 512 512" xmlns="http://www.w3.org/2000/svg"><g><g fill="#e28424"><path d="m1.74 211.696 1.256 2.249c11.362 20.347 11.362 45.144 0 65.491l-1.256 2.249c-6.112 10.945 4.951 23.629 16.527 18.852 33.881-13.981 64.246-44.094 64.246-44.094v-19.504s-30.365-30.113-64.246-44.094c-11.576-4.778-22.639 7.906-16.527 18.851z"/><path d="m255.81 287.216s3.92 13.284-64.565 26.98c0 0-78.598 2.108-104.098-10.697 0 0 22.372-35.49 72.138-40.978s96.525 24.695 96.525 24.695z"/><path d="m348.262 366.41c19.616-12.032 46.061-18.334 108.832-25.934 13.633-1.65 22.413-6.47 26.84-14.733 8.627-16.103-1.255-43.006-5.797-52.025-1.872-3.695-.394-8.208 3.301-10.08 3.694-1.872 8.208-.394 10.08 3.301.812 1.603 19.716 39.538 5.659 65.849-6.802 12.731-19.681 20.329-38.28 22.58-59.566 7.213-85.504 13.225-102.792 23.83-3.406 2.089-8.178 1.01-10.315-2.471-2.166-3.533-1.059-8.151 2.472-10.317z"/><path d="m373.416 186.154s-31.887-35.049-115.138-54.341c-2.198-.509-4 1.777-2.983 3.794 6.194 12.279 24.334 43.72 52.375 54.662 35.156 13.719 65.746-4.115 65.746-4.115z"/></g><path d="m61.29 247.602c0 9.24 7.57 18.29 28.33 19.83 20.21 1.5 97.78 13.93 136.97 22.64 64.96 14.44 127.19 15.48 174.21 11.27 0 0 4.43-8.15 16.98-1.83 17.7-2.22 32.56-5.16 43.71-8.25 26.56-7.35 50.51-17.41 50.51-28.19 0-17.6-16.93-16.9-72.26-51.24s-103.85-43.11-158.9-32.57c-55.06 10.53-121.98 38.36-182 45.97-29.93 3.79-37.55 11.74-37.55 22.37z" fill="#e7a561"/><path d="m439.74 211.832c-46.927-29.125-88.956-39.849-134.224-36.007 32.761 2.913 64.894 14.39 99.724 36.007 55.33 34.34 72.26 33.64 72.26 51.24 0 10.78-23.95 20.84-50.51 28.19-11.15 3.09-42.99 10.654-92.993 11.984 24.353.71 46.939-.125 66.803-1.904 0 0 4.43-8.15 16.98-1.83 17.7-2.22 32.56-5.16 43.71-8.25 26.56-7.35 50.51-17.41 50.51-28.19 0-17.6-16.93-16.9-72.26-51.24z" fill="#e49542"/><path d="m400.8 301.342c5.91-.54 11.58-1.15 16.98-1.83-7.35-10.04-30.91-45.87-21.25-80.51 1.11-3.99-1.23-8.13-5.22-9.24s-8.12 1.22-9.23 5.21c-9.82 35.23 7.85 69.62 18.72 86.37z" fill="#e28424"/><g><circle cx="465.136" cy="231.908" fill="#f6f1f1" r="15.453"/></g><path d="m343.975 274.478c-9.999 6.414-29.641 20.285-49.995 41.775-3.238 3.418-1.494 9.087 3.1 10.1 16.943 3.737 50.918 8.157 65.036-12.043 12.742-18.232 3.561-31.654-4.034-38.608-3.89-3.562-9.668-4.071-14.107-1.224z" fill="#e28424"/></g><g/><g/><g/><g/><g/><g/><g/><g/><g/><g/><g/><g/><g/><g/><g/></svg>