<svg height="464pt" viewBox="0 0 464.12452 464" width="464pt" xmlns="http://www.w3.org/2000/svg"><path d="m139.871094 266.398438 21.597656 4.316406 4.320312 21.601562c7.671876 38.335938-4.339843 77.96875-32 105.601563-27.628906 27.65625-67.261718 39.667969-105.597656 32l-21.601562-4.320313-4.320313-21.601562c-7.667969-38.335938 4.339844-77.96875 32-105.597656 27.632813-27.660157 67.265625-39.671876 105.601563-32zm0 0" fill="#69a340"/><path d="m24.0625 360.125v16h20.6875l-18.34375 18.34375 11.3125 11.3125 18.34375-18.34375v20.6875h16v-36.6875l16-16v36.6875h16v-52.6875l16-16v36.6875h16v-52.6875l31.0625-31.066406-11.3125-11.3125-31.0625 31.066406h-52.6875v16h36.6875l-16 16h-52.6875v16h36.6875l-16 16zm0 0" fill="#7eb457"/><path d="m165.789062 139.933594-4.320312 21.597656-21.597656 4.320312c-38.335938 7.667969-77.96875-4.339843-105.601563-32-27.660156-27.628906-39.667969-67.261718-32-105.597656l4.320313-21.601562 21.601562-4.320313c38.335938-7.667969 77.96875 4.339844 105.597656 32 27.660157 27.632813 39.671876 67.265625 32 105.601563zm0 0" fill="#69a340"/><path d="m24.0625 72.125h36.6875l16 16h-36.6875v16h52.6875l16 16h-35.976562v16h51.976562l31.0625 31.0625 11.3125-11.3125-31.0625-31.0625v-52.6875h-16v36.6875l-16-16v-52.6875h-16v36.6875l-16-16v-36.6875h-16v20.6875l-18.34375-18.34375-11.3125 11.3125 18.34375 18.34375h-20.6875zm0 0" fill="#7eb457"/><path d="m192.0625 352.125h80v112h-80zm0 0" fill="#69a340"/><path d="m192.0625 344.125v56.960938c25.839844 9.386718 54.160156 9.386718 80 0v-56.960938zm0 0" fill="#5f9548"/><path d="m324.253906 165.851562-21.601562-4.320312-4.316406-21.597656c-7.671876-38.335938 4.339843-77.96875 32-105.601563 27.628906-27.660156 67.261718-39.667969 105.597656-32l21.601562 4.320313 4.320313 21.601562c7.667969 38.335938-4.34375 77.96875-32 105.597656-27.632813 27.660157-67.265625 39.667969-105.601563 32zm0 0" fill="#69a340"/><path d="m440.0625 72.125v-16h-20.6875l18.34375-18.34375-11.3125-11.3125-18.34375 18.34375v-20.6875h-16v36.6875l-16 16v-36.6875h-16v52.6875l-16 16v-36.6875h-16v52.6875l-31.0625 31.0625 11.308594 11.3125 31.066406-31.0625h52.6875v-16h-36.6875l16-16h52.6875v-16h-36.6875l16-16zm0 0" fill="#7eb457"/><path d="m298.335938 292.316406 4.316406-21.601562 21.601562-4.316406c38.335938-7.671876 77.96875 4.339843 105.601563 32 27.65625 27.628906 39.667969 67.261718 32 105.597656l-4.320313 21.601562-21.601562 4.320313c-38.335938 7.667969-77.96875-4.34375-105.597656-32-27.660157-27.632813-39.671876-67.265625-32-105.601563zm0 0" fill="#69a340"/><path d="m440.0625 360.125h-36.6875l-16-16h36.6875v-16h-52.6875l-16-16h35.976562v-16h-51.976562l-31.066406-31.066406-11.308594 11.3125 31.0625 31.066406v52.6875h16v-36.6875l16 16v52.6875h16v-36.6875l16 16v36.6875h16v-20.6875l18.34375 18.34375 11.3125-11.3125-18.34375-18.34375h20.6875zm0 0" fill="#7eb457"/><path d="m192.0625 416.125h32v16h-32zm0 0" fill="#7eb457"/><path d="m60.75 315.125c.023438 4.359375.410156 8.707031 1.160156 13h30.839844l16-16h-36.6875v-16h52.6875l27.3125-27.296875-12.167969-2.398437c-32.734375-6.554688-66.710937 1.207031-93.351562 21.328124 4.769531 4.703126 10.011719 8.902344 15.640625 12.535157-.945313 4.886719-1.425782 9.851562-1.433594 14.832031zm0 0" fill="#5f9548"/><path d="m165.789062 292.308594-2.429687-12.183594-27.296875 27.3125v52.6875h-16v-36.6875l-16 16v45.039062c9.742188 4.652344 20.402344 7.070313 31.199219 7.078126 1.601562 0 3.113281-.191407 4.664062-.285157 23.363281-27.265625 32.902344-63.753906 25.863281-98.960937zm0 0" fill="#5f9548"/><path d="m72.0625 296.125v16h36.6875l-16 16h-30.839844c.894532 5.476562 2.378906 10.839844 4.425782 16h10.398437l-7.144531 7.144531c2.539062 4.820313 5.585937 9.359375 9.089844 13.535157l9.382812-9.367188v18.824219c4.875 4.074219 10.25 7.507812 16 10.214843v-45.039062l16-16v36.6875h16v-52.6875l27.296875-27.3125-1.890625-9.425781-9.40625-1.871094-27.3125 27.296875zm0 0" fill="#77ad50"/><path d="m139.871094 165.851562 12.167968-2.398437-27.289062-27.328125h-52v-16h36l-16-16h-30.953125c-1.515625 8.984375-1.386719 18.171875.386719 27.113281-5.796875 3.734375-11.179688 8.074219-16.066406 12.941407 26.691406 20.351562 60.839843 28.246093 93.753906 21.671874zm0 0" fill="#5f9548"/><path d="m104.0625 47.058594v45.753906l16 16v-36.6875h16v52.6875l27.296875 27.3125 2.398437-12.175781c7.136719-35.59375-2.675781-72.480469-26.550781-99.824219-1.320312-.074219-2.632812-.167969-4-.167969-10.78125.019531-21.421875 2.449219-31.144531 7.101563zm0 0" fill="#5f9548"/><path d="m136.0625 72.125h-16v36.6875l-16-16v-45.753906c-5.75 2.707031-11.125 6.136718-16 10.210937v19.542969l-9.703125-9.703125c-3.472656 4.21875-6.484375 8.792969-8.984375 13.648437l7.375 7.367188h-10.671875c-1.992187 5.164062-3.425781 10.527344-4.28125 16h30.953125l16 16h-36v16h52l27.3125 27.296875 9.433594-1.890625 1.863281-9.40625-27.296875-27.3125zm0 0" fill="#77ad50"/><path d="m298.335938 139.933594 2.398437 12.175781 27.328125-27.296875v-52.6875h16v36.6875l16-16v-45.753906c-9.742188-4.652344-20.402344-7.070313-31.199219-7.078125-1.335937 0-2.648437.097656-4 .167969-23.855469 27.339843-33.65625 64.207031-26.527343 99.785156zm0 0" fill="#5f9548"/><path d="m403.375 116.40625c-.027344-4.117188-.378906-8.222656-1.046875-12.28125h-30.953125l-16 16h36.6875v16h-52.6875l-27.3125 27.296875 12.167969 2.398437c32.914062 6.574219 67.0625-1.320312 93.75-21.671874-4.882813-4.867188-10.265625-9.207032-16.0625-12.945313.953125-4.875 1.4375-9.832031 1.457031-14.796875zm0 0" fill="#5f9548"/><path d="m392.0625 136.125v-16h-36.6875l16-16h30.953125c-.855469-5.472656-2.289063-10.835938-4.28125-16h-10.671875l7.375-7.367188c-2.503906-4.855468-5.515625-9.429687-8.984375-13.648437l-9.703125 9.703125v-19.542969c-4.875-4.074219-10.253906-7.503906-16-10.210937v45.753906l-16 16v-36.6875h-16v52.6875l-27.296875 27.3125 1.886719 9.421875 9.410156 1.875 27.3125-27.296875zm0 0" fill="#77ad50"/><path d="m324.253906 266.398438-12.167968 2.398437 27.289062 27.328125h52v16h-36l16 16h30.839844c1.632812-9.214844 1.539062-18.652344-.273438-27.832031 5.628906-3.632813 10.871094-7.832031 15.640625-12.535157-26.628906-20.125-60.59375-27.898437-93.328125-21.359374zm0 0" fill="#5f9548"/><path d="m360.0625 384.476562v-45.039062l-16-16v36.6875h-16v-52.6875l-27.296875-27.3125-2.398437 12.167969c-7.03125 35.210937 2.515624 71.699219 25.886718 98.960937 1.550782.09375 3.089844.285156 4.664063.285156 10.777343-.011718 21.417969-2.425781 31.144531-7.0625zm0 0" fill="#5f9548"/><path d="m355.375 312.125h36v-16h-52l-27.3125-27.296875-9.433594 1.886719-1.863281 9.410156 27.296875 27.3125v52.6875h16v-36.6875l16 16v45.039062c5.746094-2.707031 11.125-6.140624 16-10.214843v-18.824219l9.367188 9.367188c3.503906-4.175782 6.546874-8.714844 9.089843-13.535157l-7.144531-7.144531h10.398438c2.046874-5.160156 3.527343-10.523438 4.425781-16h-30.824219zm0 0" fill="#77ad50"/><path d="m432.0625 215.203125c.132812-31.6875-15.988281-61.234375-42.703125-78.277344.875-4.523437 1.320313-9.121093 1.328125-13.730469.492188-38.585937-30.382812-70.269531-68.96875-70.773437-7.425781.023437-14.792969 1.273437-21.808594 3.703125-16.71875-20.238281-41.597656-31.960938-67.847656-31.960938s-51.132812 11.722657-67.847656 31.960938c-7.019532-2.417969-14.386719-3.660156-21.808594-3.671875-38.585938.503906-69.460938 32.1875-68.96875 70.777344.007812 4.605469.449219 9.203125 1.328125 13.726562-26.613281 17.132813-42.699219 46.613281-42.699219 78.265625 0 31.65625 16.085938 61.136719 42.699219 78.269532-.878906 4.527343-1.320313 9.125-1.328125 13.738281-.488281 38.582031 30.386719 70.261719 68.96875 70.765625 10.996094-.007813 21.820312-2.714844 31.527344-7.878906 33.183594 29.375 83.070312 29.375 116.257812 0 9.707032 5.164062 20.53125 7.871093 31.527344 7.878906 38.582031-.503906 69.457031-32.183594 68.96875-70.765625-.007812-4.613281-.453125-9.210938-1.328125-13.738281 26.722656-17.039063 42.84375-46.59375 42.703125-78.289063zm0 0" fill="#fae998"/><path d="m432.0625 215.203125c.132812-31.6875-15.988281-61.234375-42.703125-78.277344.875-4.523437 1.320313-9.121093 1.328125-13.730469.003906-12.90625-3.476562-25.574218-10.074219-36.671874-43.199219 168.746093-194.800781 230.289062-299.648437 252.714843 11.433594 23.558594 35.253906 38.578125 61.441406 38.734375 10.996094-.007812 21.820312-2.714844 31.527344-7.878906 33.183594 29.375 83.070312 29.375 116.257812 0 9.707032 5.164062 20.53125 7.871094 31.527344 7.878906 38.582031-.503906 69.457031-32.183594 68.96875-70.769531-.007812-4.609375-.453125-9.207031-1.328125-13.734375 26.714844-17.035156 42.835937-46.578125 42.703125-78.265625zm0 0" fill="#f5e082"/><g fill="#edd668"><path d="m176.0625 104.125h16v16h-16zm0 0"/><path d="m128.0625 168.125h16v16h-16zm0 0"/><path d="m128.0625 96.125h16v16h-16zm0 0"/><path d="m336.0625 136.125h16v16h-16zm0 0"/><path d="m304.0625 96.125h16v16h-16zm0 0"/><path d="m272.0625 144.125h16v16h-16zm0 0"/><path d="m280.0625 312.125h16v16h-16zm0 0"/><path d="m320.0625 280.125h16v16h-16zm0 0"/><path d="m272.0625 248.125h16v16h-16zm0 0"/><path d="m192.0625 312.125h16v16h-16zm0 0"/><path d="m72.0625 208.125h16v16h-16zm0 0"/><path d="m128.0625 320.125h16v16h-16zm0 0"/><path d="m104.0625 240.125h16v16h-16zm0 0"/><path d="m384.0625 216.125h16v16h-16zm0 0"/></g></svg>