<svg id="Layer_1" enable-background="new 0 0 512 512" viewBox="0 0 512 512" xmlns="http://www.w3.org/2000/svg"><g><g><circle cx="256" cy="135.984" fill="#eaa598" r="31.936"/></g><path d="m256 104.048c-5.607 0-10.873 1.449-15.453 3.987 9.827 5.445 16.483 15.918 16.483 27.949s-6.656 22.504-16.483 27.949c4.58 2.538 9.846 3.987 15.453 3.987 17.638 0 31.936-14.298 31.936-31.936s-14.298-31.936-31.936-31.936z" fill="#e48e81"/><g><circle cx="223.111" cy="168.435" fill="#eaa598" r="31.936"/></g><path d="m223.111 136.499c-5.607 0-10.873 1.449-15.453 3.987 9.827 5.445 16.483 15.918 16.483 27.949s-6.656 22.504-16.483 27.949c4.58 2.538 9.846 3.987 15.453 3.987 17.638 0 31.936-14.298 31.936-31.936s-14.298-31.936-31.936-31.936z" fill="#e48e81"/><g><circle cx="286.983" cy="168.435" fill="#eaa598" r="31.936"/></g><path d="m286.983 136.499c-5.607 0-10.873 1.449-15.453 3.987 9.827 5.445 16.483 15.918 16.483 27.949s-6.656 22.504-16.483 27.949c4.58 2.538 9.846 3.987 15.453 3.987 17.638 0 31.936-14.298 31.936-31.936s-14.299-31.936-31.936-31.936z" fill="#e48e81"/><g><g><circle cx="192.129" cy="199.855" fill="#eaa598" r="31.936"/></g><path d="m192.129 167.92c-5.607 0-10.873 1.449-15.453 3.987 9.827 5.445 16.483 15.918 16.483 27.949s-6.656 22.504-16.483 27.949c4.58 2.538 9.846 3.987 15.453 3.987 17.638 0 31.936-14.298 31.936-31.936s-14.299-31.936-31.936-31.936z" fill="#e48e81"/><g><circle cx="256" cy="199.855" fill="#eaa598" r="31.936"/></g><path d="m256 167.92c-5.607 0-10.873 1.449-15.453 3.987 9.827 5.445 16.483 15.918 16.483 27.949s-6.656 22.504-16.483 27.949c4.58 2.538 9.846 3.987 15.453 3.987 17.638 0 31.936-14.298 31.936-31.936s-14.298-31.936-31.936-31.936z" fill="#e48e81"/><g><circle cx="319.871" cy="199.855" fill="#eaa598" r="31.936"/></g><path d="m319.871 167.92c-5.607 0-10.873 1.449-15.453 3.987 9.827 5.445 16.483 15.918 16.483 27.949s-6.656 22.504-16.483 27.949c4.58 2.538 9.846 3.987 15.453 3.987 17.638 0 31.936-14.298 31.936-31.936s-14.298-31.936-31.936-31.936z" fill="#e48e81"/></g><g><g><circle cx="160.193" cy="232.306" fill="#eaa598" r="31.936"/></g><path d="m160.193 200.37c-5.607 0-10.873 1.449-15.453 3.987 9.827 5.445 16.483 15.918 16.483 27.949s-6.656 22.504-16.483 27.949c4.58 2.538 9.846 3.987 15.453 3.987 17.638 0 31.936-14.298 31.936-31.936s-14.298-31.936-31.936-31.936z" fill="#e48e81"/><g><circle cx="224.064" cy="232.306" fill="#eaa598" r="31.936"/></g><path d="m224.064 200.37c-5.607 0-10.873 1.449-15.453 3.987 9.827 5.445 16.483 15.918 16.483 27.949s-6.656 22.504-16.483 27.949c4.58 2.538 9.846 3.987 15.453 3.987 17.638 0 31.936-14.298 31.936-31.936s-14.298-31.936-31.936-31.936z" fill="#e48e81"/><g><circle cx="287.936" cy="232.306" fill="#eaa598" r="31.936"/></g><path d="m287.936 200.37c-5.607 0-10.873 1.449-15.453 3.987 9.827 5.445 16.483 15.918 16.483 27.949s-6.656 22.504-16.483 27.949c4.58 2.538 9.846 3.987 15.453 3.987 17.638 0 31.936-14.298 31.936-31.936s-14.299-31.936-31.936-31.936z" fill="#e48e81"/><g><circle cx="351.807" cy="232.306" fill="#eaa598" r="31.936"/></g><path d="m351.807 200.37c-5.607 0-10.873 1.449-15.453 3.987 9.827 5.445 16.483 15.918 16.483 27.949s-6.656 22.504-16.483 27.949c4.58 2.538 9.846 3.987 15.453 3.987 17.638 0 31.936-14.298 31.936-31.936s-14.299-31.936-31.936-31.936z" fill="#e48e81"/></g><g><g><circle cx="128.258" cy="264.242" fill="#eaa598" r="31.936"/></g><path d="m128.258 232.306c-5.607 0-10.873 1.449-15.453 3.987 9.827 5.445 16.483 15.918 16.483 27.949s-6.656 22.504-16.483 27.949c4.58 2.538 9.846 3.987 15.453 3.987 17.638 0 31.936-14.298 31.936-31.936s-14.299-31.936-31.936-31.936z" fill="#e48e81"/><g><circle cx="192.129" cy="264.242" fill="#eaa598" r="31.936"/></g><path d="m192.129 232.306c-5.607 0-10.873 1.449-15.453 3.987 9.827 5.445 16.483 15.918 16.483 27.949s-6.656 22.504-16.483 27.949c4.58 2.538 9.846 3.987 15.453 3.987 17.638 0 31.936-14.298 31.936-31.936s-14.299-31.936-31.936-31.936z" fill="#e48e81"/><g><circle cx="256" cy="264.241" fill="#eaa598" r="31.936"/></g><path d="m256 232.306c-5.607 0-10.873 1.449-15.453 3.987 9.827 5.445 16.483 15.918 16.483 27.949s-6.656 22.504-16.483 27.949c4.58 2.538 9.846 3.987 15.453 3.987 17.638 0 31.936-14.298 31.936-31.936s-14.298-31.936-31.936-31.936z" fill="#e48e81"/><g><circle cx="319.871" cy="264.241" fill="#eaa598" r="31.936"/></g><path d="m319.871 232.306c-5.607 0-10.873 1.449-15.453 3.987 9.827 5.445 16.483 15.918 16.483 27.949s-6.656 22.504-16.483 27.949c4.58 2.538 9.846 3.987 15.453 3.987 17.638 0 31.936-14.298 31.936-31.936s-14.298-31.936-31.936-31.936z" fill="#e48e81"/><g><circle cx="383.742" cy="264.241" fill="#eaa598" r="31.936"/></g><path d="m383.742 232.306c-5.607 0-10.873 1.449-15.453 3.987 9.827 5.445 16.483 15.918 16.483 27.949s-6.656 22.504-16.483 27.949c4.58 2.538 9.846 3.987 15.453 3.987 17.638 0 31.936-14.298 31.936-31.936s-14.298-31.936-31.936-31.936z" fill="#e48e81"/></g><path d="m378.024 407.952h-244.048c-31.694 0-60.465-18.521-73.588-47.371l-29.998-65.949 225.61-15.453 225.61 15.453-29.997 65.949c-13.123 28.85-41.894 47.371-73.589 47.371z" fill="#efe7e4"/><path d="m451.12 292.543-30.413 68.038c-13.123 28.85-41.893 47.371-73.588 47.371h30.905c31.694 0 60.465-18.521 73.588-47.371l29.997-65.949z" fill="#eadfda"/><path d="m496.547 294.632h-481.094c-8.535 0-15.453-6.919-15.453-15.453 0-8.534 6.918-15.453 15.453-15.453h481.095c8.534 0 15.453 6.918 15.453 15.453-.001 8.534-6.919 15.453-15.454 15.453z" fill="#f6f1f1"/><path d="m496.547 263.726h-30.905c8.534 0 15.453 6.919 15.453 15.453s-6.918 15.453-15.453 15.453h30.905c8.534 0 15.453-6.919 15.453-15.453s-6.918-15.453-15.453-15.453z" fill="#efe7e4"/></g><g/><g/><g/><g/><g/><g/><g/><g/><g/><g/><g/><g/><g/><g/><g/></svg>