<svg id="Celery" enable-background="new 0 0 64 64" viewBox="0 0 64 64" xmlns="http://www.w3.org/2000/svg"><g><g><path d="m33.16153 29.38156-5.98624-6.6995c-11.62366 8.66848-19.39029 14.53278-23.1819 18.34915-5.42835 5.47376-4.35974 9.22962-2.38861 11.46737 1.97332 2.24024 6.2807 3.00967 12.11976-1.95788 4.07294-3.47162 9.85066-10.16281 19.43699-21.15914z" fill="#487f2a"/><path d="m14.99588 48.59192c.10971.16462.20111.34743.31082.51205-.54854.53024-1.07878 1.02398-1.59083 1.44452-.42053.36573-.84106.69485-1.2617.98738-3.74851 2.79773-6.80216 3.12686-8.88673 2.32229-.80457-.31082-1.46282-.78626-1.95656-1.35311-1.97488-2.24908-3.05366-5.9977 2.37708-11.46505 2.66972-2.66961 7.25941-6.36332 13.78734-11.30043-2.98055 2.81593-4.8091 6.78396-4.8091 11.19072 0 .43884.0183.87778.0548 1.31662.20112 2.28569.89598 4.44336 1.97488 6.34501z" opacity=".15"/></g><g><path d="m34.61796 30.838 6.6995 5.98624c-8.66848 11.62366-14.53278 19.39029-18.34916 23.1819-5.47376 5.42835-9.22962 4.35974-11.46737 2.38861-2.24024-1.97332-3.00967-6.2807 1.95788-12.11976 3.47164-4.07294 10.16282-9.85067 21.15915-19.43699z" fill="#487f2a"/><path d="m26.29631 56.32666c-1.2434 1.48123-2.35879 2.70633-3.32797 3.6754-5.46735 5.43085-9.23416 4.37027-11.46494 2.3954-.56696-.49363-1.04229-1.152-1.35322-1.95656-.82276-2.08447-.49363-5.13823 2.30399-8.90503.31082-.42053.64006-.84106 1.00568-1.26171.45714-.53024.95088-1.09708 1.53603-1.68224.10971.16462.20111.34743.31082.51205 1.07889 1.71884 2.4868 3.21827 4.11424 4.38845 1.99317 1.46283 4.33365 2.45031 6.87537 2.83424z" opacity=".15"/></g><g><path d="m35.92815 34.96181-6.89042-6.89042c-12.64133 11.07736-19.30387 16.86308-22.52474 20.64742-4.28993 5.0499-3.67474 8.80303-1.85504 10.62273 1.81974 1.81974 5.57283 2.43489 10.62277-1.855 3.78431-3.2209 9.57007-9.8834 20.64743-22.52473z" fill="#579c35"/><path d="m19.42094 53.49243c-1.62744 1.70054-2.96224 2.99885-4.13254 3.98623-1.91996 1.62744-3.6388 2.54171-5.13822 2.96225-2.4868.69486-4.35196.03661-5.48565-1.09709-1.13369-1.13369-1.81025-3.01715-1.09709-5.48565.40223-1.49942 1.3165-3.23657 2.94394-5.13822 1.42632-1.66393 3.51079-3.73021 6.50964-6.47303.20111 2.28569.89597 4.44336 1.97487 6.34502.10971.16462.20111.34743.31082.51205 1.07888 1.71882 2.48679 3.21825 4.11423 4.38844z" opacity=".15"/></g><path d="m49.00781 24.47369c-2.84714 5.04571-11.92357 3.67768-17.70212.41703s-11.64198-10.32274-8.79484-15.36845c.2545-.45102 1.9495-2.89494 4.50397-2.67999 2.14273.18711 3.37957 2.11147 3.56786 2.40349-.09752-.22231-.99388-3.01361.29563-5.46348.36761-.68445 1.64544-2.32332 3.66322-2.2438 2.24869.09821 3.58349 1.94766 3.66443 2.06773.15225-.43443.79972-2.07593 2.58886-3.07311.0216-.01204.04319-.02389.06478-.03555 2.72699-1.47327 6.22621.50258 6.37321 3.59861.00113.02369.00211.04748.00293.07136.07138 2.04702-.98487 3.45785-1.27803 3.81277.14462.00721 2.41781.19364 3.66443 2.06773 1.11124 1.68609.369 3.62718-.04094 4.28774-1.34294 2.21535-3.91633 2.95588-4.42952 3.07505.48396.03151 2.61443.17462 3.82169 1.822 1.4905 2.0675.28893 4.78985.03444 5.24087z" fill="#66b941"/><path d="m39.52583 14.99172c-5.04571 2.84714-3.67769 11.92357-.41703 17.70211 3.26065 5.77854 10.32274 11.64199 15.36845 8.79485.45102-.2545 2.89494-1.9495 2.67999-4.50396-.18711-2.14273-2.11148-3.37957-2.40349-3.56786.22231.09752 3.0136.99388 5.46348-.29563.68445-.36761 2.32332-1.64544 2.2438-3.66322-.09821-2.24869-1.94766-3.58349-2.06773-3.66443.43443-.15225 2.07593-.79973 3.07311-2.58886.01204-.0216.02389-.04319.03555-.06478 1.47327-2.72699-.50258-6.22621-3.59861-6.37321-.02369-.00112-.04748-.0021-.07136-.00294-2.04702-.07138-3.45785.98488-3.81277 1.27803-.00721-.14462-.19365-2.41781-2.06773-3.66443-1.68609-1.11124-3.62717-.369-4.28774.04094-2.21535 1.34294-2.95589 3.91634-3.07505 4.42952-.03151-.48396-.17462-2.61443-1.822-3.82168-2.0675-1.49052-4.78985-.28895-5.24087-.03445z" fill="#66b941"/><path d="m48.75824 36.75446c-4.09667 4.09667-12.47313.34328-17.1648-4.34838s-8.44505-13.06813-4.34838-17.16479c.36619-.36619 2.65482-2.26565 5.05792-1.37312 2.01394.75522 2.68904 2.9409 2.79206 3.27272-.03429-.24033-.14877-3.16978 1.75084-5.18378.5378-.5607 2.20852-1.79658 4.13096-1.17854 2.13986.69802 2.92944 2.83781 2.97519 2.97519.26324-.37764 1.32745-1.7852 3.31854-2.26572.02404-.0058.04802-.01142.07195-.01687 3.0223-.68749 5.86301 2.15487 5.17384 5.17679-.00527.02313-.01071.0463-.01632.06953-.48053 1.9911-1.87663 3.06676-2.25427 3.33.13738.04575 2.27718.83533 2.97519 2.97519.61804 1.92244-.61784 3.59317-1.18999 4.11951-1.88815 1.77374-4.56588 1.79658-5.09222 1.77367.45776.16022 2.47169.86976 3.19262 2.78068.88107 2.39165-1.00694 4.69174-1.37313 5.05792z" fill="#75d64c"/><g fill="#579c35"><path d="m35.72979 29.18434c-.23393 0-.46786-.08928-.64643-.26786-.35714-.35714-.35714-.93571 0-1.29286l9.39821-9.39911c.35714-.35714.93571-.35714 1.29286 0s.35714.93571 0 1.29286l-9.39822 9.39911c-.17856.17857-.41249.26786-.64642.26786z"/><path d="m42.02087 22.89058c-.46607 0-.86607-.35625-.90893-.83125l-.30893-3.39196c-.04643-.50268.325-.94732.82857-.99375.46786-.04911.94643.32321.99286.82768l.30893 3.39196c.04643.50268-.325.94732-.82857.99375-.02679.00268-.05537.00357-.08393.00357z"/><path d="m45.41729 23.20041c-.02857 0-.05714-.00089-.08571-.00357l-3.39286-.30982c-.50179-.04643-.87321-.49107-.82679-.99375.04643-.50447.49643-.86518.99464-.82768l3.39286.30982c.50179.04643.87321.49107.82679.99375-.04286.475-.44285.83125-.90893.83125z"/><path d="m37.29229 27.62005c-.46607 0-.86607-.35714-.90893-.83214l-.30893-3.39107c-.04643-.50268.325-.94732.82857-.99375.46607-.04821.94822.32321.99286.82768l.30893 3.39107c.04643.50357-.325.94821-.82857.99286-.02678.00357-.05535.00535-.08393.00535z"/><path d="m40.68872 27.92898c-.02857 0-.05714-.00179-.08571-.00357l-3.39286-.31071c-.50179-.04464-.87321-.48929-.82679-.99286.04643-.50447.50893-.87857.99464-.82768l3.39286.30982c.50179.04643.87321.49107.82679.99464-.04286.47322-.44286.83036-.90893.83036z"/></g></g></svg>