<svg id="Capa_1" enable-background="new 0 0 512 512" viewBox="0 0 512 512" xmlns="http://www.w3.org/2000/svg"><g><g><g><path d="m321.599 487.736-20.889-3.171c-16.088-2.443-27.977-16.273-27.977-32.545v-205.38h-33.465v205.38c0 16.272-11.889 30.103-27.977 32.545l-20.889 3.171c-9.957 1.512-17.315 10.071-17.315 20.142 0 2.277 1.846 4.122 4.122 4.122h157.583c2.277 0 4.122-1.846 4.122-4.122 0-10.071-7.358-18.631-17.315-20.142z" fill="#f3f0f3"/></g><g><path d="m321.599 487.736-20.889-3.171c-3.761-.571-7.288-1.771-10.492-3.473h-68.435c-3.204 1.701-6.731 2.902-10.492 3.473l-20.89 3.171c-9.957 1.512-17.315 10.071-17.315 20.142 0 2.277 1.846 4.122 4.122 4.122h157.583c2.277 0 4.122-1.846 4.122-4.122.001-10.071-7.357-18.631-17.314-20.142z" fill="#e2dee2"/></g></g><g><g><path d="m197.594 6.894-17.58 152.644 75.986 14.715 75.987-14.716-17.581-152.643c-.452-3.929-3.778-6.894-7.733-6.894h-101.346c-3.955 0-7.281 2.965-7.733 6.894z" fill="#f3f0f3"/></g><g><path d="m301.078 128.629 2.406 20.891c.389 3.374.552 6.716.517 10.017l-.253 5.469 28.239-5.469-17.581-152.643c-.452-3.929-3.778-6.894-7.733-6.894h-20.409z" fill="#e2dee2"/></g></g><g><g><path d="m177.607 180.429c-5.396 46.849 31.234 87.939 78.393 87.939 47.158 0 83.788-41.091 78.392-87.939l-2.406-20.891h-151.972z" fill="#fece85"/></g><g><path d="m334.393 180.429-2.406-20.891h-27.986c-.458 42.535-35.147 77.922-78.909 77.922-13.903 0-26.889-3.574-38.154-9.811 13.381 24.122 39.094 40.72 69.063 40.72 47.157-.001 83.787-41.092 78.392-87.94z" fill="#fec165"/></g></g><g fill="#e2dee2"><circle cx="243.096" cy="119.335" r="7.5"/><circle cx="272.241" cy="84.934" r="7.5"/><circle cx="252.016" cy="51.72" r="7.5"/></g><circle cx="273.242" cy="212.249" fill="#fdb441" r="7.5"/></g><g/><g/><g/><g/><g/><g/><g/><g/><g/><g/><g/><g/><g/><g/><g/></svg>