<svg height="512" viewBox="0 0 512 512" width="512" xmlns="http://www.w3.org/2000/svg"><g id="Flat"><path d="m449.466 132.068a32.671 32.671 0 0 1 16.356 27.15c.325 13.739-8.137 27.62-3.644 40.617 3.838 11.1 15.819 17.308 21.838 27.409a29.37 29.37 0 0 1 .633 28.393 29.715 29.715 0 0 1 -24.086 15.275c-13.175.726-27.783-7.088-38.722.247-9.836 6.6-9.54 20.805-14.277 31.619-6.435 14.695-24.533 23.223-40.051 18.875-11.755-3.294-21.29-12.78-33.357-14.658-11.724-1.824-24.271 4.811-29.3 15.5-4.709 10-3.029 21.933-6.9 32.282a32.534 32.534 0 0 1 -24.336 20.182c-12.528 2.217-25.024-3.074-37.633-4.771a67.805 67.805 0 0 0 -54.415 17.278c-9.369 8.726-16.165 20.109-26.491 27.693-17.108 12.568-42.925 11.64-59.076-2.121 14.579-19.189 33.226-34.88 49.781-52.414s31.482-37.9 35.914-61.54c2.262-12.062 1.693-24.511 3.892-36.585 4.688-25.732 27.167-42.648 52.51-30.464 10.528 5.061 21.834 11.886 33.078 8.69 13.218-3.758 18.86-19.5 19.106-33.161s-2.8-27.767 1.511-40.744a38.285 38.285 0 0 1 14.93-19.4 37.418 37.418 0 0 1 12.686-5.528 38.792 38.792 0 0 1 35.729 10.675c3 3.115 5.528 6.794 9.2 9.1 9.275 5.819 21.734.543 29.706-6.945s14.054-17.22 23.588-22.61a33.072 33.072 0 0 1 31.83-.044z" fill="#809e39"/><path d="m437.311 215.909-5.925-14.862c-.338.134-12.679 5.094-32.015 14.112 8.4-14.961 15.007-28.921 15.43-29.819l-14.471-6.825c-.151.32-14.907 31.486-27.836 49.686-14.185 7.15-30.061 15.581-46.634 25.146 8.345-24.145 12.537-51.973 12.776-53.59l-15.828-2.34c-2.058 13.909-9.726 52.833-20.892 70.29-14.8 9.227-29.756 19.252-44.214 29.979l9.533 12.85c14.945-11.089 30.443-21.413 45.728-30.863 13.878-1.8 45.787 4.108 63.99 8.609l3.843-15.531a400.687 400.687 0 0 0 -42.642-8.02c14.9-8.484 29.142-16.013 41.958-22.464 17.589.348 45.114 5.539 45.395 5.592l2.987-15.718c-.666-.127-9.54-1.8-20.544-3.333 17.783-8.243 29.042-12.772 29.361-12.899z" fill="#85a33e"/><path d="m379.932 62.534a32.671 32.671 0 0 0 -27.15-16.356c-13.739-.325-27.62 8.137-40.617 3.644-11.1-3.838-17.308-15.819-27.409-21.838a29.37 29.37 0 0 0 -28.393-.633 29.715 29.715 0 0 0 -15.275 24.086c-.726 13.175 7.088 27.783-.247 38.722-6.595 9.836-20.805 9.54-31.619 14.277-14.7 6.435-23.223 24.533-18.875 40.051 3.294 11.755 12.78 21.29 14.658 33.357 1.824 11.724-4.811 24.271-15.5 29.3-10 4.709-21.933 3.029-32.282 6.9a32.534 32.534 0 0 0 -20.182 24.336c-2.217 12.528 3.074 25.023 4.771 37.636 3.677 27.355-18.994 41.572-38.027 55.942-35.331 26.684-50.385 78.126-19.785 114.042 18.589-14.124 31.941-36.221 46.016-54.5 17.011-22.1 34.93-40.067 61.918-49.516 19.74-6.911 41.244-10.584 61.733-14.316 25.731-4.688 38.487-28.421 26.3-53.764-5.061-10.528-11.886-21.834-8.69-33.078 3.758-13.218 19.5-18.86 33.161-19.106s27.767 2.8 40.744-1.511a38.285 38.285 0 0 0 19.4-14.93 37.418 37.418 0 0 0 5.528-12.686 38.792 38.792 0 0 0 -10.675-35.729c-3.115-3-6.794-5.528-9.1-9.2-5.819-9.275-.543-21.734 6.945-29.706s17.22-14.054 22.61-23.588a33.072 33.072 0 0 0 .042-31.836z" fill="#8bab43"/><path d="m315.056 184.93-2.11-15.86c-1.517.2-27.523 3.735-50.722 11.655 6.617-11.492 12.706-22.652 18.207-33.138 18.138-11.976 49.611-21.844 49.943-21.947l-4.747-15.28a317.1 317.1 0 0 0 -32.619 12.44c13.584-27.683 21.278-46.485 21.4-46.789l-14.82-6.031c-.109.268-6.189 15.119-17.061 37.773-1.167-13.272-2.485-24.827-2.581-25.668l-15.9 1.822c.04.348 3.885 34.068 4.257 52.325-5.225 10.065-11.028 20.83-17.355 31.967-1.3-18.239-4.507-36.454-5.082-39.629l-15.744 2.852c7.13 39.366 5.42 59.871 4.159 64.451l.224.062q-16.349 26.4-32.963 48.654a86.053 86.053 0 0 0 -2.137-14.637l-15.5 3.968c1.737 6.785 4.448 26.743-3.762 37.461l.009.007c-21.723 25.347-43.4 44.924-64.432 58.018l8.455 13.583q33.99-21.159 68.087-60.926c18.736-10.693 37.661-16.013 56.3-15.824.367 0 .679.007.936.007v-16l-.761-.006a116.871 116.871 0 0 0 -35.237 5.26q17.286-23.1 34.459-50.862c20.72-13.399 66.625-19.645 67.097-19.708z" fill="#94b54a"/><path d="m479.23 386.15-6.72 6.71a29.832 29.832 0 0 0 -7.24 30.58l4.74 14.2a29.939 29.939 0 0 1 -48.12 31.95l-6.5-5.68a23.682 23.682 0 0 0 -36.11 6.05 35.893 35.893 0 0 1 -61.89.66l-5.76-9.58c-11.049-18.375-38.8-18.317-49.82 0l-6.44 10.7a33.588 33.588 0 0 1 -41.608 13.711c-9.871-4.09-16.519-13.627-25.509-19.245a72.756 72.756 0 0 0 -74.523-1.5 55.027 55.027 0 0 1 -46.38 3.82 6.317 6.317 0 0 0 -1.04-.29c-8.35-2.62-20.41-14.94-22.84-23.59-.02-.08-.04-.15-.06-.23l5.13-3.15a93.71 93.71 0 0 1 35.2-14.19c.49-.09.98-.18 1.46-.28a145.043 145.043 0 0 0 102.39-77.45 37.939 37.939 0 0 1 11.429-13.569c19.789-14.563 48.821-6.34 57.961 16.449 7.768 19.367 36.738 15.095 44.98-1.37l16.94-33.8a38.175 38.175 0 0 1 71.9 11.644c3.859 26.922 42.239 7.967 57.24 3.467a29.945 29.945 0 0 1 37.01 19.17l1.41 4.22a29.85 29.85 0 0 1 -7.23 30.593z" fill="#94b54a"/><path d="m435.661 398.964c-1.694-.121-14.485-.994-34.433-1.325 13.942-9.829 25.822-19.455 26.567-20.06l-10.089-12.418c-.264.214-26.412 21.4-45.88 32.457-17.312.256-37.166 1.023-58.343 2.712 20.7-21.9 44.51-51.757 45.777-53.348l-12.52-9.964c-.378.477-37.547 47.081-58.424 65.72-17.524 1.964-35.572 4.614-53.526 8.156a196.026 196.026 0 0 0 21.635-26.946l-13.512-8.569a198.342 198.342 0 0 1 -39.46 42.706c-7.6 2.008-15.112 4.2-22.487 6.6l4.955 15.213c8.854-2.883 17.95-5.454 27.181-7.756 11.974.615 25.291 10.407 29.514 14.234l5.384-5.916 5.4-5.908a85.248 85.248 0 0 0 -11.715-8.631c18.379-3.462 36.892-6 54.8-7.828 15.333 5.909 42.657 27.522 52.222 35.644l10.359-12.194c-.385-.326-9.547-8.1-21.3-16.784q-6.855-5.067-12.875-9.063c17.82-1.2 34.524-1.764 49.267-1.966 12.291 8.753 22.68 24.756 22.786 24.92l13.466-8.64a136.328 136.328 0 0 0 -12.7-16.317c22.338.243 36.375 1.2 36.815 1.23z" fill="#9bbc50"/><path d="m215.624 164.372a38.309 38.309 0 0 1 -10.968 21.865c-9.808 9.541-23.831 13-36.026 19.2s-23.909 18.153-21.535 31.628c2.019 11.464 13.088 18.592 22.231 25.8 22.007 17.341 16.567 44.872-4.559 60.341-9.913 7.259-21.369 12.2-31.245 19.514-19.353 14.324-31.19 36.607-39.766 59.106s-14.582 46.062-25.509 67.517c-19.425-8.425-31.5-31.124-27.64-51.941 2.332-12.564 9.62-23.634 13.4-35.842a67.223 67.223 0 0 0 -8.143-56.27c-7.023-10.54-17.229-19.405-20.69-31.59a32.428 32.428 0 0 1 7.572-30.622c7.63-8 19.1-11.728 26.058-20.324a28.3 28.3 0 0 0 1.189-33.012c-6.946-9.977-19.639-14.354-27.725-23.431-10.674-11.981-10.877-31.911-.45-44.111 7.674-8.976 20.6-14.938 22.251-26.631 1.839-13-11.558-22.654-16.643-34.763a28.994 28.994 0 0 1 29.1-40.122c11.716.961 22.52 8.964 34.188 7.534 13.659-1.674 22.472-15.329 34.984-21.058a32.105 32.105 0 0 1 45.406 31.248c-.7 10.894-6.814 20.6-10.083 31.017s-2.594 23.878 6.685 29.629c3.671 2.276 8.083 2.924 12.195 4.246a38.462 38.462 0 0 1 25.173 27.3 37.11 37.11 0 0 1 .55 13.772z" fill="#9bbc50"/><path d="m102.61 275.127a562.506 562.506 0 0 0 9.525-62.409c18.238-20.408 49.935-49.512 50.271-49.821l-10.812-11.797c-1.087 1-20.177 18.526-37.434 36.135.986-15.989 1.485-32.457 1.468-49.217 11.314-19.168 30.992-43.466 31.208-43.731l-12.419-10.087c-.614.756-9.765 12.055-19.321 25.526-.741-20.338-2.005-32.918-2.077-33.631l-15.919 1.628c.018.177 1.373 13.692 2.09 35.176-8.319-9.391-16.239-16.634-16.808-17.151l-10.765 11.837c5.67 5.156 20.8 20.174 28 32.194-.019 17.027-.57 33.731-1.645 49.9a388.4 388.4 0 0 0 -27.522-36.733l-12.189 10.354c13.086 15.4 34.669 44.289 36.877 56.24l.2-.036c-2.061 18.362-4.847 35.773-8.338 52.096a86.421 86.421 0 0 0 -9.6-13.04l-11.732 10.88c3.92 4.25 13.928 17.626 14.52 29.58-.06.21-.117.424-.177.632a308.9 308.9 0 0 1 -15.374 42.232c-.406.891-.931 1.96-1.606 3.267l14.219 7.338c.8-1.545 1.436-2.848 1.952-3.984a323.223 323.223 0 0 0 15.688-42.751 187.972 187.972 0 0 1 42.171-36.527l-8.124-13.784a189.274 189.274 0 0 0 -26.327 19.684z" fill="#a4c45a"/></g></svg>