<?xml version="1.0" encoding="iso-8859-1"?>
<!-- Generator: Adobe Illustrator 19.0.0, SVG Export Plug-In . SVG Version: 6.00 Build 0)  -->
<svg version="1.1" id="Capa_1" xmlns="http://www.w3.org/2000/svg" xmlns:xlink="http://www.w3.org/1999/xlink" x="0px" y="0px"
	 viewBox="0 0 512 512" style="enable-background:new 0 0 512 512;" xml:space="preserve">
<path style="fill:#FDB62F;" d="M0,238.345v70.621c24.373,0,44.138,19.765,44.138,44.138S24.373,397.241,0,397.241v70.621h300.138
	c0-19.5,15.81-35.31,35.31-35.31s35.31,15.81,35.31,35.31H512V238.345H0z M123.586,317.793c-9.754,0-17.655-7.901-17.655-17.655
	c0-9.754,7.901-17.655,17.655-17.655s17.655,7.901,17.655,17.655C141.241,309.892,133.341,317.793,123.586,317.793z
	 M203.034,423.724c-14.627,0-26.483-11.855-26.483-26.483c0-14.627,11.855-26.483,26.483-26.483s26.483,11.855,26.483,26.483
	C229.517,411.869,217.662,423.724,203.034,423.724z M388.414,353.103c-19.5,0-35.31-15.81-35.31-35.31
	c0-19.5,15.81-35.31,35.31-35.31c19.5,0,35.31,15.81,35.31,35.31C423.724,337.293,407.914,353.103,388.414,353.103z"/>
<g>
	<path style="fill:#FA962A;" d="M512,238.345v-8.828c0-102.382-82.997-185.379-185.379-185.379l0,0L0,238.345H512z"/>
	<rect x="282.483" y="273.655" style="fill:#FA962A;" width="17.655" height="17.655"/>
	<rect x="70.621" y="361.931" style="fill:#FA962A;" width="17.655" height="17.655"/>
	<rect x="467.862" y="361.931" style="fill:#FA962A;" width="17.655" height="17.655"/>
	<rect x="185.379" y="308.966" style="fill:#FA962A;" width="17.655" height="17.655"/>
	<rect x="291.31" y="370.759" style="fill:#FA962A;" width="17.655" height="17.655"/>
	<rect x="432.552" y="406.069" style="fill:#FA962A;" width="17.655" height="17.655"/>
</g>
<g>
</g>
<g>
</g>
<g>
</g>
<g>
</g>
<g>
</g>
<g>
</g>
<g>
</g>
<g>
</g>
<g>
</g>
<g>
</g>
<g>
</g>
<g>
</g>
<g>
</g>
<g>
</g>
<g>
</g>
</svg>
