<svg id="Capa_1" enable-background="new 0 0 512 512" viewBox="0 0 512 512" xmlns="http://www.w3.org/2000/svg"><g><g><path d="m342.825 254.782c0 102.962-72.832 180.552-165.401 183.221-1.512.041-3.024.061-4.547.061-33.131 0-65.522-4.195-91.741-22.188-48.702-33.421-81.136-93.069-81.136-161.094 0-79.579 44.392-147.699 107.296-175.761 8.211-3.664 13.448-11.885 13.448-20.877v-27.301c0-14.939 12.108-27.047 27.047-27.047h10.585l13.036 1.634 13.047-1.634h10.575c14.939 0 27.047 12.108 27.047 27.047v27.301c0 8.992 5.237 17.213 13.458 20.877 9.094 4.06 17.052 10.188 25.293 15.851 48.767 33.39 81.993 91.84 81.993 159.91z" fill="#fea95c"/><path d="m235.536 79.02c8.304 7.451 15.586 14.567 21.957 21.618 2.567 2.841 4.008 6.518 4.008 10.346 0 5.692-3.155 10.907-8.187 13.567-31.515 16.654-58.382 41.982-78.212 73.863-22.47 36.131-34.344 78.391-34.344 122.215 0 27.568 3.041 52.54 10.838 76.188 4.381 13.286-5.518 27.03-19.508 27.141-.424.003-.848.005-1.272.005-17.276 0-33.954-2.831-49.679-8.086 26.218 17.992 57.15 28.386 90.279 28.386 94.669 0 171.413-84.833 171.413-189.48-.001-79.585-44.392-147.698-107.293-175.763z" fill="#fe9738"/><g><g fill="#fe9738"><circle cx="47.849" cy="182.524" r="7.612"/><circle cx="40.237" cy="212.529" r="7.612"/><circle cx="68.799" cy="204.917" r="7.612"/><circle cx="89.851" cy="366.802" r="7.612"/><circle cx="115.661" cy="385.237" r="7.612"/></g></g><path d="m184.459 3.796c7.886 7.52 12.514 18.025 12.514 29.26v18.979c0 4.202-3.41 7.612-7.612 7.612s-7.612-3.41-7.612-7.612v-18.98c0-8.129-3.887-15.64-10.332-20.349-6.445 4.709-10.332 12.219-10.332 20.349v18.979c0 4.202-3.41 7.612-7.612 7.612-4.212 0-7.612-3.41-7.612-7.612v-18.979c0-11.235 4.618-21.739 12.514-29.26h26.084z" fill="#fe9738"/><g><path d="m505.807 320.357c0 94.63-55.351 170.884-137.376 185.022-1.461.254-2.933.376-4.384.376-5.278 0-11.6.816-15.853-2.137-3.055-2.101-5.673-12.981-7.612-16.34-1.939 3.359-4.557 14.239-7.612 16.35-5.42 3.755-12.22 5.369-19.009 4.202-82.025-14.138-144.787-92.57-144.787-187.199 0-79.589 44.392-147.699 107.286-175.761 8.221-3.664 13.458-11.885 13.458-20.877v-27.303c0-14.939 12.108-27.047 27.047-27.047h16.005l7.612 7.013 7.612-7.013h16.015c14.939 0 27.047 12.108 27.047 27.047v27.301c0 8.992 5.237 17.213 13.448 20.877 7.957 3.542 15.609 7.734 22.917 12.504 50.501 32.964 78.186 93.453 78.186 162.985z" fill="#fea95c"/><path d="m309.272 451.545c1.731 7.646-2.62 15.569-10.164 17.702-3.198.904-6.75.76-10.153-.758-52.2-23.283-89.221-80.786-89.221-147.862 0-32.805 8.8-64.293 25.447-91.06 15.969-25.675 38.009-45.314 63.735-56.792.086-.038.171-.077.257-.115 3.053-1.382 6.235-1.652 9.167-1.044 7.903 1.639 12.725 9.724 10.93 17.594l-14.682 64.348c-9.96 43.654-9.997 88.987-.109 132.658z" fill="#fe9738"/><path d="m371.9 189.209c-1.795-7.869 3.027-15.954 10.93-17.594 2.932-.608 6.113-.337 9.167 1.044.085.039.171.077.256.115 25.726 11.479 47.765 31.117 63.735 56.792 16.648 26.768 25.448 58.255 25.448 91.06 0 67.076-37.02 124.579-89.221 147.862-3.403 1.518-6.955 1.662-10.153.758-7.544-2.133-11.895-10.056-10.164-17.702l14.793-65.331c9.888-43.671 9.851-89.004-.109-132.658z" fill="#fe9738"/><path d="m355.889 379.24-14.793 65.331c-.199.878-.364 1.755-.511 2.632-.147-.877-.313-1.755-.511-2.633l-14.793-65.33c-8.791-38.821-8.757-79.853.097-118.66l14.681-64.346c.206-.904.375-1.813.526-2.725.15.911.32 1.821.526 2.724l14.681 64.348c8.854 38.806 8.888 79.838.097 118.659z" fill="#f8f6f6"/><g><path d="m348.194 69.643v433.974c-3.055-2.101-5.673-4.892-7.612-8.251-1.939 3.359-4.557 6.15-7.612 8.261v-433.984z" fill="#f8f6f6"/></g></g></g><path d="m512 320.629c0 94.63-62.762 173.062-144.787 187.199-1.461.254-2.933.376-4.384.376-5.278 0-10.382-1.634-14.635-4.587 172.554-151.597 79.427-346.245 79.427-346.245 50.501 32.964 84.379 93.726 84.379 163.257z" fill="#fe9738"/><path d="m455.987 229.567c-3.195-5.136-6.648-10.051-10.31-14.687 12.911 61.393 16.092 162.329-63.365 254.436 3.134.829 6.586.653 9.902-.826 52.2-23.283 89.221-80.786 89.221-147.862 0-32.806-8.799-64.293-25.448-91.061z" fill="#fe860a"/></g><g/><g/><g/><g/><g/><g/><g/><g/><g/><g/><g/><g/><g/><g/><g/></svg>