<svg id="_&#x5716;&#x5C64;_1" viewBox="0 0 512 512" xmlns="http://www.w3.org/2000/svg"><path id="_5" d="m317.067 39.026c3.538 65.6-25.613 136.243-36.175 181.487-24.562 105.012-10.518 243.575-7.799 253.812 2.35 8.824 19.549 36.7 69.012 37.65 50.975.969 66.675-28.826 69.037-37.65 2.688-10.237 16.737-148.8-7.812-253.812-10.563-45.244-41.125-110.287-36.175-181.487h-50.088z" fill="#2f2021" data-name="5"/><path id="_4" d="m168.217 306.051c-77.062.8-63.887 61.225-63.887 61.225l10.1 104.594c1.399 20.431 20.887 40.131 53.962 40.131s52.562-19.699 53.962-40.131l10.101-104.594s12.824-62.025-64.238-61.225zm223.675-47.014c-20.837 11.163-79.274 13.038-99.738 0-6.787 40.689-6.012 187.213.776 198.388 1.763 2.875 19.962 20.425 49.412 20.375 29.025-.069 47.651-17.5 49.4-20.375 6.775-11.176 7.325-158.1.15-198.388z" fill="#c96796" data-name="4"/><path id="_3" d="m372.536 15.213c1.101-1.837 1.006-3.2 1.006-3.2 0-6.637-14.075-12.013-31.45-12.013s-31.438 5.376-31.438 12.013c0 0-.23 1.281.319 3.05-5.043 1.994-5.743 11.768-5.581 14.038.726 10.762 5.425 10.6 11.3 12.412 10.775 3.356 40.082 2.688 50.85 0 5.925-1.463 10.55-1.65 11.274-12.412.182-2.382-.468-12.451-6.281-13.888z" fill="#c48920" data-name="3"/><path id="_2" d="m398.186 257.907-1.544-8.682-7.781 4.163c-18.868 10.113-74.962 11.913-93.275.244l-8.156-5.194-1.594 9.537c-6.012 36.038-7.475 187.8 1.631 202.788 2.237 3.651 21.812 23.432 54.738 23.432h.143c30.944-.069 51.731-18.3 54.863-23.456 8.499-14.02 7.743-164.819.974-202.831zm-11.8 196.007c-2.025 2.706-18.756 17.425-44.061 17.481h-.113c-25.676 0-41.812-14.595-43.72-17.119-5.268-11.588-6.643-136.919-1.174-185.732 23.649 8.594 65.98 7.432 89.449-.443 6.3 50.255 4.251 175.462-.381 185.812zm-217.993-155.62c-40.787 0-73.969 23.657-73.969 52.739s33.181 52.724 73.969 52.724 73.956-23.651 73.956-52.724-33.175-52.739-73.956-52.739zm0 92.663c-33.732 0-61.169-17.912-61.169-39.924s27.437-39.939 61.169-39.939 61.156 17.919 61.156 39.939-27.437 39.924-61.156 39.924z" fill="#e391b6" data-name="2"/><path id="_1" d="m318.774 331.813-11.237 10.476c-2.588 2.412-2.732 6.461-.319 9.043 1.262 1.357 2.968 2.038 4.681 2.038 1.563 0 3.131-.57 4.362-1.719l11.238-10.476c2.587-2.412 2.73-6.461.319-9.043-2.413-2.593-6.463-2.732-9.044-.319zm-10.806-6.918h26.944v21.1c0 3.538 2.862 6.4 6.4 6.4s6.4-2.862 6.4-6.4v-21.1h23.562c3.538 0 6.4-2.863 6.4-6.4s-2.862-6.4-6.4-6.4h-23.562v-25.001c0-3.537-2.863-6.4-6.4-6.4s-6.4 2.863-6.4 6.4v25.001h-26.944c-3.538 0-6.4 2.862-6.4 6.4s2.862 6.4 6.4 6.4zm55.906 7.168c-2.575-2.406-6.638-2.255-9.044.319-2.413 2.588-2.268 6.638.319 9.044l11.25 10.474c1.231 1.151 2.801 1.719 4.362 1.719 1.713 0 3.425-.687 4.682-2.038 2.412-2.587 2.268-6.637-.319-9.043l-11.25-10.476zm2.524-46.975-11.25 10.469c-2.587 2.413-2.731 6.463-.325 9.05 1.263 1.35 2.975 2.038 4.687 2.038 1.563 0 3.126-.568 4.364-1.713l11.25-10.469c2.587-2.413 2.73-6.463.325-9.05-2.413-2.582-6.456-2.725-9.051-.325zm-59.18.568c-2.413 2.588-2.269 6.638.319 9.044l11.237 10.463c1.238 1.149 2.801 1.718 4.362 1.718 1.713 0 3.425-.687 4.682-2.036 2.412-2.588 2.268-6.638-.319-9.044l-11.238-10.463c-2.587-2.4-6.637-2.255-9.043.319zm-138.825 50.201c-25.082 0-46.831 10.606-58.482 26.237 7.401 16.613 30.669 28.863 58.482 28.863s51.081-12.256 58.474-28.876c-11.656-15.625-33.393-26.225-58.474-26.225zm145.344 78.369c-3.182-1.519-7.007-.195-8.544 2.994l-5.713 11.855c-1.531 3.182-.193 7.007 2.994 8.538.894.438 1.837.637 2.769.637 2.381 0 4.668-1.331 5.775-3.625l5.713-11.855c1.531-3.182.193-7.007-2.994-8.544zm69.717-30.051c-1.206-1.256-2.875-1.969-4.618-1.969h-12.6v-5.806c6.794-.013 12-.063 13.075-.182 3.475-.381 5.932-3.475 5.606-6.949-.332-3.482-3.419-6.044-6.931-5.782-2.868.219-34.556.1-53.856-.031h-.044c-3.514 0-6.376 2.836-6.4 6.355-.026 3.538 2.825 6.419 6.355 6.445 2.894.018 7.407.05 12.582.074v5.875h-11.788c-1.719 0-3.363.687-4.57 1.919-1.199 1.225-1.862 2.881-1.83 4.6 1.074 58.112 1.368 58.756 2.068 60.306 1.069 2.369 3.4 3.763 5.837 3.763.882 0 1.775-.182 2.632-.57 1.9-.856 3.113-2.543 3.549-4.425 13.388-.106 29.901-.169 37.756-.106.594 2.788 2.894 4.975 5.875 5.094 3.569.219 6.519-2.595 6.663-6.125l2.413-57.788c.076-1.743-.568-3.438-1.775-4.7zm-34.03-7.794c1.343.006 2.674.013 4.012.013v5.812h-4.012zm-18.063 18.626h5.263v11.807l-5.001 1.162c-.093-4.431-.18-8.85-.262-12.969zm39.137 39.913c-8.812-.106-25.206-.026-38.237.081-.113-3.987-.23-8.75-.349-13.956l12.562-2.918c2.901-.669 4.951-3.256 4.951-6.232v-16.887h4.012v16.887c0 3.269 2.463 6.013 5.713 6.363l11.987 1.3-.637 15.363zm1.175-28.176-5.437-.594v-11.144h5.925zm-67.586-25.025s5.993 1.413 6.5 1.413c2.875 0 5.487-1.951 6.205-4.869.85-3.432-1.249-6.9-4.681-7.744l-4.963-1.225c-3.393-.881-6.899 1.251-7.744 4.681-.85 3.432 1.251 6.9 4.682 7.744zm41.062 37.875c-3.538 0-6.4 2.862-6.4 6.4s2.862 6.4 6.4 6.4h10.725c3.537 0 6.4-2.862 6.4-6.4s-2.863-6.4-6.4-6.4zm-41.062-19.1s5.993 1.413 6.5 1.413c2.875 0 5.487-1.951 6.205-4.869.85-3.432-1.249-6.9-4.681-7.744l-4.963-1.225c-3.393-.869-6.899 1.251-7.744 4.681-.85 3.432 1.251 6.9 4.682 7.744zm4.38-376.488c.538.212 13.044 5.051 30.888 5.051.369 0 .75 0 1.132-.006 16.512-.188 32.518-3.569 37.238-7.869 2.612-2.381 2.962-6.563.581-9.175s-6.268-2.938-8.876-.549c-1.83 1.169-12.549 4.605-29.093 4.794-15.813.225-27.087-4.119-27.2-4.163-3.276-1.257-7 .343-8.282 3.638-1.281 3.287.332 6.988 3.612 8.28z" fill="#e9d6cd" data-name="1"/></svg>