<svg id="Cherry" enable-background="new 0 0 64 64" viewBox="0 0 64 64" xmlns="http://www.w3.org/2000/svg"><g><g><path d="m34.60612 2.31963c1.96323 1.41275 3.19915 3.0984 3.93182 4.73445 1.28978 2.88005 1.02009 5.60639.41339 6.41972-.5853.78466-2.99379 1.81228-6.02261 1.57856-1.89394-.14614-4.03044-.78548-6.11539-2.28582-1.95302-1.4054-3.18627-3.08085-3.92036-4.70888-1.30289-2.88948-1.03341-5.62957-.42494-6.44528.59459-.79709 3.07046-1.84489 6.16683-1.56656 1.85782.16701 3.93902.81141 5.97126 2.27381z" fill="#66b941"/><path d="m38.95118 14.38776c-.18571 0-.37321-.05625-.53393-.17232l-8.82946-6.35357c-.40982-.29464-.50357-.86607-.20804-1.27589.29375-.41071.86518-.50268 1.27589-.20804l8.82947 6.35357c.41071.29464.50357.86607.20893 1.27589-.17858.24822-.45894.38036-.74286.38036z" fill="#487f2a"/><path d="m48.07405 51.76357c-1.60622.11385-3.14389-.85566-3.65986-2.42851-.94277-2.8723-4.98518-16.33759-3.41347-31.47007-15.03965 8.96521-22.12039 22.64528-22.13436 30.04301-.00249 1.94141-1.59232 3.51801-3.58502 3.50786-1.97619-.00346-3.57447-1.57971-3.57095-3.5207.01963-10.46753 10.10944-29.6768 32.48126-39.60957 1.2369-.54927 2.68091-.36405 3.73373.47762 1.05178.84125 1.5286 2.19468 1.23072 3.49438-2.84578 12.45129-.6635 26.59359 2.0685 34.9214.60718 1.84706-.42645 3.82765-2.30758 4.42307-.27976.08864-.56215.1416-.84297.16151z" fill="#75d64c"/></g><g><ellipse cx="18.507" cy="43.243" fill="#f7524b" rx="15.547" ry="15.27"/><path d="m19.6228 58.47284c-5.2846.38404-10.14855-1.88348-13.23884-5.65034 1.17031.20123 2.37712.25603 3.60223.16462 8.55781-.60345 14.99431-7.91774 14.39096-16.32912-.23772-3.2183-1.46295-6.12578-3.40123-8.46629 6.96685 1.07879 12.50748 6.74743 13.03773 13.95201.62176 8.41138-5.83315 15.72566-14.39085 16.32912z" opacity=".15"/><ellipse cx="11.607" cy="37.633" fill="#fff" opacity=".4" rx="3.283" ry="3.224"/></g><g><ellipse cx="45.487" cy="48.729" fill="#f7524b" rx="15.547" ry="15.27"/><ellipse cx="38.587" cy="43.119" fill="#fff" opacity=".4" rx="3.283" ry="3.224"/><path d="m46.60901 63.95067c-5.2846.38404-10.14855-1.88348-13.23884-5.65034 1.17031.20123 2.37712.25603 3.60223.16462 8.55781-.60346 14.99431-7.91775 14.39096-16.32913-.23772-3.2183-1.46295-6.12578-3.40123-8.46629 6.96685 1.0788 12.50748 6.74743 13.03772 13.95201.62177 8.41138-5.83314 15.72567-14.39084 16.32913z" opacity=".15"/></g></g></svg>