<svg id="Layer_1" height="512" viewBox="0 0 512 512" width="512" xmlns="http://www.w3.org/2000/svg" data-name="Layer 1"><path d="m195.28 376.95-16.49-40.64-17.11-33.9-.01-.01a82.528 82.528 0 0 1 -92.81 24.03 82.376 82.376 0 0 0 108.04 123.54c16.21-11.8 27.08-27.21 31.62-45.22v-.01z" fill="#de3c44"/><path d="m91.71 431.92a82.247 82.247 0 0 1 2.431-100.141 82.307 82.307 0 0 1 -25.281-5.349 82.344 82.344 0 0 0 74.589 137.948 82.168 82.168 0 0 1 -51.739-32.458z" fill="#b7303d"/><path d="m452.93 273.1a88.32 88.32 0 0 0 -23.5-8.84 75.732 75.732 0 0 0 -30.98-.29l-19.48 23.86-29.71 32.29h-.01l-19.66 28.77c1.47 27.62 18.44 54.65 44.56 68.83a82.343 82.343 0 1 0 78.78-144.62z" fill="#e75163"/><path d="m428.41 111.83c-18.56-7.59-37.41-8.73-55.15-3.13l-16.74 25.84-26 35.36-16.39 30.74c3.96 24.14 20.6 46.81 43.27 59.43l41.05 3.9a75.732 75.732 0 0 1 30.98.29 85.3 85.3 0 0 0 44.06-45.08 82.254 82.254 0 0 0 -45.08-107.35z" fill="#de3c44"/><path d="m307.93 351.56-2.26-6.54v-.01c-7.19-19.51-15.52-44.72-23.18-74.35q-2.355-9.09-4.6-18.71a754.422 754.422 0 0 1 -19.22-137.8q-.285-6.3-.44-12.68c-.44-17.52-.23-35.51.8-53.84l-29.31-1.39s.2 31.81 3.96 77.98v.01c.44 5.4.92 11.01 1.47 16.78v.01c4.06 43.3 11.17 96.11 23.59 146.57v.01q2.55 10.335 5.39 20.51c9.83 35.05 22.47 68.12 38.71 95.03l21.4-13.04s-7.53-16.03-16.31-38.54z" fill="#739937"/><path d="m161.45 226.13-26.41-35.05-24.76-24.54c-27.47-3.58-57.17 8.17-75.89 31.23a82.386 82.386 0 0 0 127.28 104.63c.29-.33.57-.66.84-1a89.019 89.019 0 0 0 11.56-18.25 75.821 75.821 0 0 0 7.34-33.56z" fill="#e75163"/><g fill="#4a6d24"><path d="m258.74 287.6q2.55 10.335 5.39 20.51c-11.33 13.67-38.17 38.84-38.17 38.84a26.7 26.7 0 0 0 -7.65-5.89s1.31-4.86-1.57-11.15c.5-.44 32.48-29.16 42-42.31z"/><path d="m338.66 273.01a26.611 26.611 0 0 0 -2.05 9.42s-4.96.9-9.4 6.21c-.44-.23-28.76-15.03-44.72-17.98q-2.355-9.09-4.6-18.71c17.22 4.36 60.77 21.06 60.77 21.06z"/><path d="m314.82 124.22a26.678 26.678 0 0 0 -1 9.59s-4.82 1.43-8.67 7.19c-.46-.39-30.27-25.6-46.48-26.85q-.285-6.3-.44-12.68c17.62 2.49 56.59 22.75 56.59 22.75z"/><path d="m235.15 141.01v.01c-7.45 16.12-51.78 48.23-51.78 48.23a26.8 26.8 0 0 0 -8.91-3.73c0-.09-.02-5.08-4.39-10.36.89-.55 57.79-35.77 63.61-50.93.44 5.4.92 11.01 1.47 16.78z"/></g><path d="m195.28 376.95c-13.95 2.24-28.31-6.45-28.31-6.45 10.62-5.9 11.82-34.19 11.82-34.19a37.245 37.245 0 0 1 -12.06-9.14c-5.72-8.25-6.45-16.98-5.05-24.76l-.01-.01c.29-.33.57-.66.84-1a89.019 89.019 0 0 0 11.56-18.25c1.34 5.34 4.13 13.88 9.3 20.05 16.62 19.85 20.31 8.04 30.9 22.54a24.169 24.169 0 0 1 2.47 4.17c2.88 6.29 1.57 11.15 1.57 11.15a26.7 26.7 0 0 1 7.65 5.89 22.63 22.63 0 0 1 5.95 12.86c.84 7.47-10.08 22.36-7.83 27.56 6.2 14.35 19.41 24.52 19.41 24.52s-20.7 2.83-34.97-7.15c-7.37-5.14-13.02-13.69-13.24-27.79z" fill="#436f1e"/><path d="m378.97 287.83c8.01 11.63 6.3 28.3 6.3 28.3-9.9-7.06-36.01 3.99-36.01 3.99h-.01a37.018 37.018 0 0 1 -3.1 14.8 31.5 31.5 0 0 1 -16.56 13.97c-7.64 2.91-15.73 3.11-21.66 2.67a55.784 55.784 0 0 1 -8.82-1.32 66.749 66.749 0 0 0 6.56-5.22v-.01c4.02-3.62 8.9-8.85 11.66-14.83 10.84-23.5-1.43-21.77 7.16-37.54a24.47 24.47 0 0 1 2.72-4c4.44-5.31 9.4-6.21 9.4-6.21a26.611 26.611 0 0 1 2.05-9.42 22.762 22.762 0 0 1 9.09-10.88c2.19-1.35 5.75-1.84 9.65-2.06 7.48-.43 16.19.11 18.65-2.69 10.33-11.75 13.87-28.02 13.87-28.02s11.44 17.46 8.53 34.61c-1.5 8.85-6.81 17.61-19.48 23.86z" fill="#436f1e"/><path d="m356.52 134.54c9.23 10.69 9.36 27.45 9.36 27.45-10.61-5.93-35.36 7.91-35.36 7.91a37.089 37.089 0 0 1 -1.46 15.04 31.491 31.491 0 0 1 -14.93 15.7c-13.73 7.04-30.15 4.68-30.15 4.68s11.94-10.04 15.91-21.93c8.2-24.55-3.81-21.49 3-38.1a24.172 24.172 0 0 1 2.26-4.29c3.85-5.76 8.67-7.19 8.67-7.19a26.678 26.678 0 0 1 1-9.59 22.733 22.733 0 0 1 7.85-11.8c5.92-4.64 24.36-3.18 27.61-7.82 8.97-12.8 10.7-29.36 10.7-29.36s13.29 16.1 12.28 33.46c-.51 8.96-4.84 18.25-16.74 25.84z" fill="#739937"/><path d="m135.04 191.08a37.259 37.259 0 0 1 -14-5.73 31.405 31.405 0 0 1 -10.76-18.81c-2.78-15.15 4.21-30.16 4.21-30.16s6.19 14.3 16.45 21.53c21.18 14.92 21.7 2.55 35.67 13.85a24.319 24.319 0 0 1 3.46 3.4c4.37 5.28 4.39 10.27 4.39 10.36a26.8 26.8 0 0 1 8.91 3.73 22.8 22.8 0 0 1 9.07 10.9c2.73 7-3.99 24.2-.47 28.65 9.69 12.27 25.08 18.7 25.08 18.7s-19.28 8.05-35.64 2.09c-8.44-3.08-16.11-9.89-19.96-23.46-12.91 5.73-29.02 1.03-29.02 1.03 8.75-8.43 2.61-36.08 2.61-36.08z" fill="#739937"/><path d="m98.86 326.43a82.335 82.335 0 0 1 -34.47-128.66 87.053 87.053 0 0 1 47.451-29.682l-1.561-1.548c-27.47-3.58-57.17 8.17-75.89 31.23a82.327 82.327 0 0 0 79.027 132.746 82.023 82.023 0 0 1 -14.557-4.086z" fill="#bf4358"/><path d="m152.43 227.16c8.75-8.43 2.61-36.08 2.61-36.08a37.259 37.259 0 0 1 -14-5.73 31.405 31.405 0 0 1 -10.76-18.81 42.669 42.669 0 0 1 -.6-9.577c-9.5-7.459-15.186-20.583-15.186-20.583s-6.99 15.01-4.21 30.16a31.405 31.405 0 0 0 10.76 18.81 37.259 37.259 0 0 0 14 5.73s6.14 27.65-2.61 36.08c0 0 11.927 3.474 23.48.8-2.173-.418-3.484-.8-3.484-.8z" fill="#5d772c"/></svg>