<svg id="Chestnut" enable-background="new 0 0 64 64" viewBox="0 0 64 64" xmlns="http://www.w3.org/2000/svg"><g><path d="m60.25874 37.93473c0 14.39158-11.45915 26.06527-28.25878 26.06527s-28.2587-11.67369-28.2587-26.06527c0-19.76608 20.84878-33.90638 26.73052-37.50227.94314-.5766 2.11322-.5766 3.05636 0 5.88175 3.59588 26.7306 17.73619 26.7306 37.50227z" fill="#bf5230"/><path d="m50.20575 26.56912c-.4425 0-.875-.23125-1.11-.645-2.235-3.90625-5.505-7.79875-9.7175-11.5675-.5275-.47125-.5725-1.28-.1025-1.8075.48-.52625 1.2875-.5675 1.8075-.1 4.42 3.9525 7.8625 8.05875 10.2325 12.205.3525.61375.14 1.395-.475 1.74625-.2.115-.41749.16875-.635.16875z" fill="#9e3e28"/><path d="m54.39798 54.27131c-4.96641 5.93922-12.82563 9.72812-22.4 9.72812s-17.43359-3.78891-22.4-9.72812c6.37438-4.40313 14.08-6.98875 22.4-6.98875s16.02563 2.58562 22.4 6.98875z" fill="#f2b583"/></g></svg>