<svg id="Capa_1" enable-background="new 0 0 512 512" viewBox="0 0 512 512" xmlns="http://www.w3.org/2000/svg"><g><g><g><g><g><g><path d="m327.188 47.014v-16.109c0-17.068-13.837-30.905-30.905-30.905h-80.565c-17.069 0-30.905 13.837-30.905 30.905v16.109z" fill="#fe646f"/></g><g><path d="m296.283 0h-13.848c1.027 3.077 1.591 6.365 1.591 9.787 0 8.897-7.212 16.109-16.109 16.109h-82.695c-.266 1.631-.41 3.304-.41 5.01v16.109h142.376v-16.11c0-17.068-13.837-30.905-30.905-30.905z" fill="#fd4755"/></g><g><path d="m188.789 292.056h134.422c44.044-23.892 73.949-70.534 73.949-124.162 0-51.996-28.117-97.418-69.972-121.911h-142.376c-41.854 24.493-69.972 69.915-69.972 121.911 0 53.628 29.906 100.27 73.949 124.162z" fill="#dff6fd"/></g><g><path d="m188.789 292.056h134.422c44.044-23.892 73.949-70.534 73.949-124.162 0-51.996-28.117-97.418-69.972-121.911h-142.376c-41.854 24.493-69.972 69.915-69.972 121.911 0 53.628 29.906 100.27 73.949 124.162z" fill="#dff6fd"/></g><g><g><path d="m355.365 67.653c6.338 16.045 9.834 33.523 9.834 51.823 0 48.702-24.664 91.643-62.183 117.015-6.873 4.648-14.974 7.147-23.271 7.147h-142.868c12.882 20.221 30.763 36.945 51.913 48.419h134.422c44.044-23.892 73.949-70.534 73.949-124.162-.001-39.204-15.991-74.665-41.796-100.242z" fill="#c8effe"/></g></g><g><g><path d="m306.1 155.891c0 5.262-1.492 10.385-4.314 14.818l-.674 1.059c.053.08.106.161.16.24l1.157.259c3.686.825 7.107 2.371 10.167 4.597l.605.441.606-.44c4.755-3.449 10.351-5.272 16.185-5.272 5.624 0 10.859 1.693 15.229 4.59 5.201-5.189 8.42-12.365 8.42-20.292 0-15.831-12.833-28.664-28.664-28.664-9.973 0-18.753 5.096-23.888 12.824 3.152 4.489 5.011 9.95 5.011 15.84z" fill="#62dbfb"/></g><g><path d="m166.779 176.184c4.37-2.897 9.604-4.59 15.229-4.59 5.862 0 11.466 1.818 16.206 5.257l.605.439.605-.439c3.062-2.221 6.482-3.765 10.164-4.587l1.14-.254c.058-.085.114-.172.171-.257l-.667-1.047c-2.834-4.447-4.332-9.569-4.332-14.814 0-5.89 1.858-11.351 5.011-15.84-5.135-7.728-13.915-12.824-23.888-12.824-15.831 0-28.664 12.834-28.664 28.664 0 7.927 3.219 15.103 8.42 20.292z" fill="#ffe177"/></g></g><g><g><path d="m329.992 170.563c-6.674 0-12.81 2.287-17.682 6.113 7.068 5.01 11.694 13.248 11.694 22.552 0 5.067-1.377 9.816-3.767 13.903 5.179 3.476 9.124 8.654 11.024 14.729 15.242-.664 27.396-13.227 27.396-28.632 0-15.832-12.834-28.665-28.665-28.665z" fill="#fe646f"/></g><g><path d="m351.467 180.251c-6.628 13.871-15.454 26.486-26.027 37.403 2.615 2.913 4.624 6.381 5.82 10.206 15.242-.664 27.396-13.227 27.396-28.632.001-7.28-2.718-13.922-7.189-18.977z" fill="#fd4755"/></g><g><g><path d="m191.763 213.131c-2.39-4.087-3.767-8.836-3.767-13.903 0-9.304 4.626-17.542 11.694-22.552-4.872-3.825-11.008-6.113-17.682-6.113-15.831 0-28.664 12.833-28.664 28.664 0 15.405 12.154 27.968 27.396 28.632 1.899-6.074 5.844-11.253 11.023-14.728z" fill="#fff"/></g><g><g><g><path d="m215.63 171.594c7.337 0 14.248 2.847 19.46 8.017l.725.719.725-.719c4.682-4.645 10.878-7.463 17.448-7.937l1.675-.121-.867-1.439c-2.594-4.303-3.965-9.221-3.965-14.223 0-6.38 2.179-12.257 5.824-16.939-5.217-7.108-13.628-11.725-23.12-11.725-15.831 0-28.664 12.834-28.664 28.664 0 6.053 1.881 11.664 5.083 16.291 1.832-.384 3.73-.588 5.676-.588z" fill="#80d261"/></g><g><path d="m256 171.594c7.959 0 15.138 3.387 20.185 8.789 5.047-5.402 12.226-8.789 20.185-8.789 1.945 0 3.843.205 5.676.589 3.202-4.627 5.083-10.238 5.083-16.291 0-15.831-12.833-28.664-28.664-28.664s-28.664 12.834-28.664 28.664c0 5.816 1.737 11.224 4.714 15.743.492-.027.987-.041 1.485-.041z" fill="#fe646f"/></g></g><g><g><path d="m283.634 199.227c0 6.492-2.3 12.802-6.477 17.769l-.557.663.557.663c.888 1.056 1.701 2.181 2.414 3.344l.846 1.378c.015.01.031.019.046.029l.864-1.407c5.077-8.272 13.881-13.209 23.55-13.209 6.053 0 11.655 1.962 16.213 5.276 2.503-4.256 3.944-9.211 3.944-14.505 0-15.831-12.833-28.664-28.664-28.664-8.249 0-15.679 3.49-20.909 9.067 5.044 5.008 8.173 11.943 8.173 19.596z" fill="#fff"/></g><g><path d="m304.879 207.427c-10.765 0-20.139 5.938-25.039 14.714 2.407 4.098 3.795 8.864 3.795 13.951s-1.387 9.853-3.794 13.95c4.9 8.776 14.274 14.714 25.039 14.714 15.831 0 28.664-12.833 28.664-28.664-.001-15.832-12.835-28.665-28.665-28.665z" fill="#ffe177"/></g><g><path d="m326.172 216.905c-6.986 7.321-14.744 13.898-23.155 19.586-6.08 4.112-13.122 6.538-20.409 7.044-.645 2.303-1.58 4.485-2.766 6.504 4.898 8.778 14.271 14.717 25.037 14.717 15.831 0 28.664-12.833 28.664-28.664 0-7.38-2.79-14.106-7.371-19.187z" fill="#ffd15b"/></g><g><path d="m207.122 208.457c9.669 0 18.473 4.938 23.55 13.209l.864 1.407c.015-.01.031-.019.046-.029l.846-1.378c.712-1.162 1.525-2.287 2.413-3.344l.557-.663-.557-.663c-4.176-4.966-6.476-11.277-6.476-17.769 0-7.653 3.129-14.588 8.173-19.597-5.23-5.577-12.66-9.067-20.909-9.067-15.831 0-28.664 12.833-28.664 28.664 0 5.294 1.441 10.249 3.944 14.505 4.558-3.313 10.159-5.275 16.213-5.275z" fill="#fe646f"/></g><g><path d="m228.366 236.092c0-5.087 1.387-9.853 3.795-13.951-4.9-8.776-14.274-14.714-25.039-14.714-15.831 0-28.664 12.833-28.664 28.664s12.833 28.664 28.664 28.664c10.765 0 20.139-5.938 25.039-14.714-2.408-4.097-3.795-8.863-3.795-13.949z" fill="#80d261"/></g><g><path d="m229.422 243.638h-49.954c3.313 12.168 14.435 21.118 27.653 21.118 10.766 0 20.139-5.939 25.037-14.717-1.167-1.989-2.092-4.136-2.736-6.401z" fill="#68ca44"/></g></g></g></g></g><g><path d="m256 208.457c8.539 0 16.184 3.894 21.257 9.999 4.603-5.085 7.407-11.829 7.407-19.228 0-15.831-12.833-28.664-28.664-28.664s-28.664 12.833-28.664 28.664c0 7.399 2.805 14.143 7.407 19.228 5.073-6.105 12.718-9.999 21.257-9.999z" fill="#ffe177"/></g><g><g><circle cx="256" cy="236.091" fill="#62dbfb" r="28.664"/></g></g><g><path d="m279.746 243.638h-51.399c3.313 12.168 14.435 21.118 27.653 21.118 13.29 0 24.464-9.046 27.709-21.315-1.313.126-2.635.197-3.963.197z" fill="#01d0fb"/></g></g><g><path d="m212.217 366.403c0-24.142 19.641-43.783 43.783-43.783s43.783 19.641 43.783 43.783v106.45h89.164l-42.953-173.994c-1.136-4.6-5.263-7.833-10.001-7.833h-159.985c-4.738 0-8.866 3.232-10.002 7.833l-42.953 173.994h89.164z" fill="#fe646f"/></g><g><path d="m348.731 472.853h40.216l-42.953-173.994c-1.136-4.6-5.263-7.833-10.001-7.833h-32.148z" fill="#fd4755"/></g><g><g><path d="m212.217 471.823h-110.744c-5.69 0-10.302 4.612-10.302 10.302v19.573c0 5.69 4.612 10.302 10.302 10.302h110.744z" fill="#fd8087"/></g><g><path d="m410.527 471.823h-110.744v40.177h110.744c5.69 0 10.302-4.612 10.302-10.302v-19.573c0-5.69-4.612-10.302-10.302-10.302z" fill="#fd8087"/></g></g><g><g><path d="m212.217 490.881h-121.046v10.817c0 5.69 4.612 10.302 10.302 10.302h110.744z" fill="#fe646f"/></g><g><path d="m410.527 471.823h-20.604v8.757c0 5.69-4.612 10.302-10.302 10.302h-79.839v21.118h110.744c5.69 0 10.302-4.612 10.302-10.302v-19.573c.001-5.69-4.611-10.302-10.301-10.302z" fill="#fe646f"/></g></g><g><path d="m296.332 420.829h-80.664l-4.481 1.03v90.141h89.626v-90.141z" fill="#fb2b3a"/></g><g><path d="m296.332 420.829h-20.758v59.577c0 5.69-4.612 10.302-10.302 10.302h-54.085v21.292h89.626v-90.141z" fill="#e41f2d"/></g><g><path d="m300.813 421.859h-89.626v-55.456c0-24.749 20.063-44.813 44.813-44.813 24.749 0 44.813 20.063 44.813 44.813z" fill="#fff"/></g><g><g><path d="m275.573 326.102v95.757h25.239v-55.456c.001-17.727-10.301-33.035-25.239-40.301z" fill="#f2fbff"/></g></g><g><circle cx="256" cy="366.744" fill="#fe646f" r="16.998"/></g></g><g><path d="m261.102 350.528c.686 1.844 1.079 3.831 1.079 5.914 0 9.388-7.61 16.998-16.998 16.998-1.778 0-3.491-.275-5.102-.782 2.405 6.467 8.615 11.083 15.919 11.083 9.388 0 16.998-7.61 16.998-16.998 0-7.608-5.002-14.048-11.896-16.215z" fill="#fd4755"/></g></g></g></g><g/><g/><g/><g/><g/><g/><g/><g/><g/><g/><g/><g/><g/><g/><g/></svg>