<svg id="Слой_1" height="512" viewBox="0 0 512 512" width="512" xmlns="http://www.w3.org/2000/svg" data-name="Слой 1"><path d="m300.91 151.1s-21.37-4-24-26.72 20-65.45 45.42-61.45 22.67 48.07 13.31 66.8c-12.02 24.05-34.73 21.37-34.73 21.37z" fill="#f8daa3"/><path d="m303 158a25.89 25.89 0 0 1 -2.86-.13l-.46-.07c-9.1-1.71-27-10.73-29.58-32.64-2.05-17.43 8.42-43.28 23.34-57.62 9.42-9.05 19.77-13 29.94-11.38 8.9 1.41 16 6.71 20.4 15.35 9.48 18.42 4.94 47.41-2 61.26-11.51 22.99-31.4 25.23-38.78 25.23zm-1-13.71c2.36.16 18.51.53 27.6-17.65 6.33-12.66 8.56-36.25 2.06-48.88-2.43-4.73-5.82-7.38-10.36-8.09-7.29-1.15-14 3.57-18.32 7.73-11.8 11.35-20.79 32.92-19.24 46.16 1.84 16.34 16.11 20.28 18.18 20.76z" fill="#601841"/><path d="m324.35 150.67a6.81 6.81 0 0 1 -3.26-.83c-20.77-11.26-13.12-45.72-12.18-49.62a6.84 6.84 0 0 1 13.3 3.21c-1.73 7.22-4.44 29 5.4 34.38a6.84 6.84 0 0 1 -3.27 12.86z" fill="#601841"/><path d="m248.46 309.75s28.81-12.43 44.65 9.63 19.38 76.19-9.3 86.63-25.92-24.59-33.28-48.31c-9.66-31.14-2.07-47.95-2.07-47.95z" fill="#8c796b"/><path d="m273.13 419a34.15 34.15 0 0 1 -19.1-6.18c-20.45-13.68-32.41-46.42-33.19-64.8-1.57-37.18 27.59-49.55 28.83-50.06l.52-.19c10.44-3.47 34.23-4.39 49.52 16.89 12.16 16.93 16.16 49.82 8.91 73.31-4.62 14.8-13.07 24.84-24.56 29.03a31.82 31.82 0 0 1 -10.93 2zm-17.54-105.91c-2.6 1.22-19.52 10.14-18.5 34.22.71 16.8 12 42.59 26 52 5.25 3.51 10.3 4.31 15.43 2.44 8.24-3 12.48-11.76 14.58-18.58 5.74-18.58 2.66-46.17-6.58-59-11.32-15.8-28.28-11.82-30.93-11.08z" fill="#601841"/><path d="m265.88 360.46a8.13 8.13 0 0 1 -7.51-5c-.12-.29-8.93-20.8-25.54-20.8h-.25a8.13 8.13 0 0 1 -.07-16.26h.35c27.57 0 40 29.6 40.55 30.87a8.13 8.13 0 0 1 -7.52 11.21z" fill="#601841"/><path d="m443.2 310.61s-.74 21.73-22.78 27.8-67.73-9.93-67.59-35.63 44.11-29.7 64-23.28c25.59 8.26 26.37 31.11 26.37 31.11z" fill="#f8daa3"/><path d="m409.78 346.52c-15.91 0-35.22-6.08-48-15.9-10.4-7.94-15.85-17.62-15.78-27.88 0-9 4.23-16.79 12.1-22.48 16.78-12.15 46.13-12 60.86-7.28 29.81 9.62 31.07 36.26 31.1 37.39v.47c-.31 9.26-6.53 28.31-27.81 34.16a47.33 47.33 0 0 1 -12.47 1.52zm-12.85-62.93c-11.37 0-23.54 2.48-30.83 7.76-4.31 3.12-6.41 6.87-6.44 11.47 0 7.38 5.64 13.29 10.41 16.94 13 10 35.68 15.59 48.53 12.05 15.84-4.36 17.57-19.06 17.74-21.18-.2-2.36-2.26-18.37-21.61-24.62a60 60 0 0 0 -17.79-2.42z" fill="#601841"/><path d="m412 344.49a6.8 6.8 0 0 1 -3.52-1c-17.07-10.27-13.73-30-9.58-38.92a6.84 6.84 0 0 1 12.43 5.72c-.7 1.55-6.4 15.09 4.2 21.47a6.84 6.84 0 0 1 -3.53 12.73z" fill="#601841"/><path d="m349.76 236.72s-19-10.57-14.35-33 39.74-55.72 62.59-43.86 6.31 52.8-8.48 67.58c-19.06 19.01-39.76 9.28-39.76 9.28z" fill="#e0ac72"/><path d="m362.89 246.08a40.46 40.46 0 0 1 -16-3.17l-.42-.21c-8.09-4.5-22.21-18.73-17.72-40.33 3.57-17.18 21.69-38.38 40.39-47.26 11.8-5.6 22.87-6.06 32-1.32 8 4.15 13 11.42 14.49 21 3.16 20.47-10.33 46.54-21.28 57.48s-22.52 13.81-31.46 13.81zm-10-15.47c2.19.9 17.38 6.37 31.77-8 10-10 19.6-31.68 17.43-45.71-.81-5.26-3.19-8.84-7.27-11-6.55-3.4-14.4-1-19.82 1.53-14.79 7-30.15 24.64-32.86 37.69-3.37 16.12 8.92 24.37 10.73 25.49z" fill="#601841"/><path d="m369.92 204.29s-13.82-17.68-30-7.63" fill="#e0ac72"/><path d="m369.93 211.14a6.83 6.83 0 0 1 -5.38-2.61c-1.06-1.33-10.51-12.58-21-6.05a6.84 6.84 0 0 1 -7.22-11.63c16.93-10.5 32.92 1.44 39 9.23a6.84 6.84 0 0 1 -5.39 11.06z" fill="#601841"/><path d="m483.42 199.18s13.22 10.33 7 26.86-36.94 37.8-52.9 26 1.48-41.04 14.53-50.52c16.77-12.23 31.37-2.34 31.37-2.34z" fill="#8c796b"/><path d="m448.59 262.33a25 25 0 0 1 -15.13-4.73c-6-4.43-9.18-11-9.17-19 0-16.52 13.8-35.34 23.72-42.59 20.41-14.9 38.48-3 39.24-2.48l.38.28c5.94 4.65 15.51 17.87 9.19 34.66-5 13.32-21.47 27.47-37.47 32.21a38 38 0 0 1 -10.76 1.65zm21.18-60.12a22.94 22.94 0 0 0 -13.68 4.79c-8.35 6.1-18.08 21.21-18.1 31.56 0 4.76 2 6.83 3.6 8 4.06 3 9.79 2.17 13.89 1 13-3.84 25.46-15.68 28.55-23.91a16.77 16.77 0 0 0 -4.62-18.9 19.29 19.29 0 0 0 -9.64-2.55z" fill="#601841"/><path d="m464.19 221.52s8.42 15.14 22 9.4" fill="#8c796b"/><path d="m480.06 239.09c-10.77 0-18.7-8.59-21.85-14.24a6.84 6.84 0 0 1 11.94-6.69c.59 1 5.82 9.64 13.33 6.46a6.84 6.84 0 0 1 5.34 12.6 22.31 22.31 0 0 1 -8.76 1.87z" fill="#601841"/><path d="m464.91 117.48s-14.22 8.91-27.64-2.58-22.94-47.61-6.45-58.61 38.08 15.4 42.58 30.9c5.79 19.93-8.49 30.29-8.49 30.29z" fill="#e0ac72"/><path d="m452.61 127.58a29.87 29.87 0 0 1 -19.78-7.48c-10.81-9.25-18.5-29.55-17.5-46.21.67-10.55 4.67-18.61 11.67-23.29 6.21-4.15 13.48-4.88 21-2.14 15.51 5.66 28.52 25 31.95 36.82 7 24.27-10.3 37.2-11 37.74l-.39.26a31.3 31.3 0 0 1 -15.95 4.3zm-13.33-67.1a8.09 8.09 0 0 0 -4.66 1.52c-4.2 2.8-5.38 8.47-5.64 12.73-.81 13.5 6.07 29.28 12.74 35a16.93 16.93 0 0 0 19.33 2.11c1.74-1.42 9.79-8.87 5.77-22.71-2.88-9.93-13.78-24.23-23.5-27.78a11.82 11.82 0 0 0 -4.04-.83z" fill="#601841"/><path d="m434.13 116.06a6.84 6.84 0 0 1 -6.83-6.48c-.87-16.47 14.05-23.26 22.07-24.55a6.84 6.84 0 0 1 2.22 13.5c-1.16.2-11.05 2.18-10.62 10.32a6.84 6.84 0 0 1 -6.47 7.2z" fill="#601841"/><path d="m250.46 69.41s-13.79 9.55-27.73-1.3-25.11-46.5-9.14-58.25 38.75 13.63 44 28.91c6.65 19.64-7.13 30.64-7.13 30.64z" fill="#8c796b"/><path d="m237.22 80.1a29.91 29.91 0 0 1 -18.69-6.59c-11.23-8.75-19.84-28.67-19.61-45.35.15-10.57 3.82-18.81 10.62-23.81 6-4.43 13.24-5.5 20.88-3.1 15.75 4.94 29.64 23.68 33.58 35.31 8.16 23.92-8.58 37.63-9.29 38.2l-.38.28a31.44 31.44 0 0 1 -17.11 5.06zm-14.56-66.41a8.1 8.1 0 0 0 -5 1.68c-4.06 3-5 8.71-5 13-.19 13.52 7.41 29 14.34 34.37a16.93 16.93 0 0 0 19.41 1.21c1.68-1.5 9.37-9.31 4.72-23-3.34-9.79-14.88-23.57-24.75-26.67a12.23 12.23 0 0 0 -3.73-.59z" fill="#601841"/><path d="m219.33 69.42a6.84 6.84 0 0 1 -6.8-6.17c-1.63-16.41 13-23.88 20.91-25.54a6.84 6.84 0 0 1 2.83 13.39c-1.15.26-10.94 2.69-10.13 10.8a6.84 6.84 0 0 1 -6.14 7.49q-.33.03-.67.03z" fill="#601841"/><path d="m28.91 143.59s-13.41-10.09-7.49-26.73 36.23-38.48 52.41-27-.74 41.07-13.6 50.82c-16.53 12.53-31.32 2.91-31.32 2.91z" fill="#f8daa3"/><path d="m42.38 154a33.72 33.72 0 0 1 -17.19-4.67l-.38-.27c-6-4.53-15.84-17.58-9.83-34.49 4.77-13.41 21-27.86 36.87-32.89 10.08-3.19 19.05-2.3 25.94 2.58 6.09 4.32 9.39 10.83 9.52 18.84.27 16.51-13.15 35.59-22.93 43-7.95 6.04-15.6 7.9-22 7.9zm-9.54-16c2 1.13 11.8 5.94 23.26-2.75 8.24-6.25 17.69-21.54 17.52-31.89-.08-4.76-2.17-6.79-3.74-7.9-4.12-2.92-9.83-2-13.9-.7-12.89 4.08-25.16 16.15-28.11 24.43a16.77 16.77 0 0 0 4.97 18.81z" fill="#601841"/><path d="m47.74 127.74a6.84 6.84 0 0 1 -5.91-3.38c-.61-1-6-9.52-13.44-6.21a6.84 6.84 0 1 1 -5.57-12.5c15.06-6.71 26.75 4.79 30.83 11.81a6.85 6.85 0 0 1 -5.91 10.28z" fill="#601841"/><path d="m140.17 448.85s13.22 10.33 7 26.86-36.94 37.8-52.9 26 1.5-41.05 14.53-50.57c16.76-12.14 31.37-2.29 31.37-2.29z" fill="#e0ac72"/><path d="m105.34 512a25 25 0 0 1 -15.13-4.73c-6-4.43-9.18-11-9.17-19 0-16.52 13.8-35.34 23.72-42.59 20.41-14.9 38.48-3 39.24-2.48l.38.28c5.94 4.65 15.51 17.87 9.19 34.66-5 13.32-21.47 27.47-37.47 32.21a38 38 0 0 1 -10.76 1.65zm21.18-60.12a22.94 22.94 0 0 0 -13.68 4.84c-8.35 6.1-18.08 21.21-18.1 31.56 0 4.76 2 6.83 3.6 8 4.06 3 9.79 2.17 13.89 1 13-3.84 25.46-15.68 28.55-23.91a16.77 16.77 0 0 0 -4.62-18.9 19.29 19.29 0 0 0 -9.64-2.59z" fill="#601841"/><path d="m136.8 488.76c-10.77 0-18.7-8.59-21.85-14.24a6.84 6.84 0 0 1 11.94-6.69c.59 1 5.82 9.64 13.33 6.46a6.84 6.84 0 0 1 5.34 12.6 22.31 22.31 0 0 1 -8.76 1.87z" fill="#601841"/><path d="m400.73 393.75s13.22 10.33 7 26.86-36.94 37.8-52.9 26 1.5-41.05 14.53-50.57c16.76-12.18 31.37-2.29 31.37-2.29z" fill="#e0ac72"/><path d="m365.9 456.9a25 25 0 0 1 -15.13-4.73c-6-4.43-9.18-11-9.17-19 0-16.51 13.8-35.34 23.72-42.59 20.41-14.89 38.48-3 39.24-2.48l.38.28c5.94 4.65 15.51 17.87 9.19 34.66-5 13.32-21.47 27.47-37.47 32.21a38 38 0 0 1 -10.76 1.65zm21.18-60.12a22.94 22.94 0 0 0 -13.68 4.84c-8.35 6.1-18.08 21.21-18.1 31.56 0 4.76 2 6.83 3.6 8 4.06 3 9.8 2.17 13.89 1 13-3.84 25.45-15.68 28.55-23.91a16.94 16.94 0 0 0 -4.61-18.89 19.29 19.29 0 0 0 -9.65-2.61z" fill="#601841"/><path d="m397.36 433.66c-10.77 0-18.7-8.59-21.85-14.24a6.84 6.84 0 0 1 11.94-6.69c.59 1 5.82 9.64 13.33 6.46a6.84 6.84 0 0 1 5.34 12.6 22.31 22.31 0 0 1 -8.76 1.87z" fill="#601841"/><path d="m298.15 211.93s-2.69 9.22-17.55 26.59-56.9 22.55-61.71 17.53c-17.78-18.55 19.92-49.31 40-55.13 25.81-7.48 39.26 11.01 39.26 11.01z" fill="#8c796b"/><path d="m245.42 274.23q-1.8 0-3.55-.1c-13-.78-23-5.71-28.68-14.27-5-7.49-5.9-16.28-2.57-25.4 7.1-19.46 31.48-35.8 46.35-40.11 30.09-8.73 46 12.64 46.71 13.56l.26.39c4.92 7.85 10.44 27.11-3.91 43.88-10.76 12.57-34.6 22.05-54.61 22.05zm25.38-68.23a35.88 35.88 0 0 0 -10 1.49c-13.6 3.94-32.44 18.31-37.3 31.65-1.82 5-1.47 9.28 1.09 13.1 4.1 6.14 12.11 7.85 18.11 8.21 16.35.94 38.29-7.06 47-17.19 10.68-12.48 3.89-25.63 2.84-27.48a28.27 28.27 0 0 0 -21.74-9.78z" fill="#601841"/><path d="m286.2 258.66c-18.72 0-26.56-17.44-28.1-26.93a6.84 6.84 0 0 1 13.5-2.22c.29 1.67 3.17 16.08 15.51 15.44a6.84 6.84 0 0 1 .72 13.67q-.83.04-1.63.04z" fill="#601841"/><path d="m160.17 342.74s-22.15 5.5-34.86-14.81-10.19-70.59 15.78-77.83 43.15 35.6 42.61 57.34c-.7 27.96-23.53 35.3-23.53 35.3z" fill="#8c796b"/><path d="m153.54 350.31c-10.42 0-24.77-3.93-34-18.74-9.7-15.5-11.28-44.38-3.53-64.36 4.89-12.62 12.94-20.81 23.27-23.69 9-2.52 18.06-.55 26.09 5.7 17.06 13.29 25.59 42.45 25.2 58.4-.81 32.44-27.15 41.28-28.27 41.65l-.45.13a35.06 35.06 0 0 1 -8.31.91zm-6.67-94.17a14.63 14.63 0 0 0 -3.95.56c-7.59 2.12-11.91 9.57-14.19 15.46-6.17 15.9-5.06 40.28 2.37 52.16 9.31 14.88 25 12.29 27.16 11.85 2.28-.86 18-7.54 18.58-28.88.37-14.7-8.08-38-19.93-47.26a16.22 16.22 0 0 0 -10.04-3.9z" fill="#601841"/><path d="m152 303.78s-23.36-3.58-28.41 15.56" fill="#8c796b"/><path d="m123.58 326.18a6.85 6.85 0 0 1 -6.58-8.58c5.23-19.85 25.87-22.15 36.06-20.58a6.84 6.84 0 0 1 -2 13.53c-1.78-.26-17.44-2.13-20.78 10.54a6.85 6.85 0 0 1 -6.7 5.09z" fill="#601841"/><path d="m167.61 212.18s-10.85-17.73-1.89-42.37c12.88-35.43 45.09-51.53 52.61-45.09 22.37 19.17 9 54.23-6.37 72.67-19.7 23.71-44.35 14.79-44.35 14.79z" fill="#e0ac72"/><g fill="#601841"><path d="m179 220.7a43.5 43.5 0 0 1 -13.77-2.08l-.43-.17c-9.48-4.18-26.68-18.57-23.9-43.13 2.23-19.72 20.45-45.5 40.62-57.48 12.6-7.48 24.87-9.15 35.5-4.82 9.26 3.77 15.54 11.3 18.17 21.78 5.69 22.72-6.81 53.5-18 67-12.87 15.49-27.65 18.9-38.19 18.9zm-8.9-14.88c2.53.79 21.12 5.76 36.55-12.8 10.57-12.66 19.35-38.84 15.35-54.91-1.56-6.25-4.85-10.31-10.05-12.43-8.22-3.35-17.24.28-23.36 3.91-16.37 9.72-32.26 31.8-34 47.25-2.25 19.47 13.27 27.85 15.56 28.98z"/><path d="m187.19 179.88a6.82 6.82 0 0 1 -5-2.13c-1.41-1.47-13.94-13.89-26-4.79a6.84 6.84 0 1 1 -8.19-10.96c17.65-13.36 36.61-1.72 44.17 6.3a6.84 6.84 0 0 1 -5 11.54z"/><path d="m202.76 153.58a6.84 6.84 0 0 1 -6.84-6.84c0-2 0-5.26 16-29.6a6.84 6.84 0 0 1 11.44 7.51c-5.87 8.94-12.68 20.12-13.8 23.12a6.84 6.84 0 0 1 -6.8 5.81z"/><path d="m151.23 283.48a7 7 0 0 1 -1-.07 6.84 6.84 0 0 1 -5.8-7.74c3.11-21.74 7.81-24.9 9.36-25.94a8.14 8.14 0 0 1 6.59-1.2 6.84 6.84 0 0 1 1.39 12.77c-1.21 2.85-2.86 9.82-3.79 16.31a6.84 6.84 0 0 1 -6.75 5.87z"/><path d="m385.27 182.57a6.84 6.84 0 0 1 -4.08-12.34l17.18-12.72a6.84 6.84 0 1 1 8.14 11l-17.18 12.72a6.82 6.82 0 0 1 -4.06 1.34z"/><path d="m249.23 405.68a8.13 8.13 0 0 1 -4.55-14.87l23.32-15.7a8.13 8.13 0 1 1 9.08 13.48l-23.31 15.7a8.09 8.09 0 0 1 -4.54 1.39z"/></g></svg>