<svg id="color" height="512" viewBox="0 0 256 256" width="512" xmlns="http://www.w3.org/2000/svg"><path d="m110.0914 169.2313c-8.0537-22.05-10.9046-31.6895-10.9046-31.6895l-1.5738-1.1285s-10.0442.3908-33.5132-.1665-38.0663 24.5953-38.0663 24.5953a30.8572 30.8572 0 0 0 20.4677 48.4989 30.8574 30.8574 0 0 0 52.5016 3.8342s19.1429-21.8931 11.0886-43.9439z" fill="#ffd169"/><path d="m84.65 194.3309-4.9634-2.3692a31.1847 31.1847 0 0 1 -41.5766 14.7112l-.0559.1171a30.7381 30.7381 0 0 0 8.4474 2.551 30.7446 30.7446 0 0 0 3.9306 5.8623c.3615.011.7226.03 1.0847.03a36.783 36.783 0 0 0 33.1332-20.9024z" fill="#ffbe1d"/><path d="m79.5844 160.3617 12.8794-.3166 7.6914 10.3335 8.9085-3.9367c-7.2813-20.0782-9.8949-28.9118-9.8949-28.9118l-1.5735-1.1285s-9.658.3747-32.1379-.1356l-1.0216 6.9518 12.0162 4.646z" fill="#ffbe1d"/><path d="m134.6814 115.5364c19.3072-13.3531 27.9163-18.5421 27.9163-18.5421l.695-1.8076s-2.91-9.6212-8.2884-32.4723-33.3991-30.6351-33.3991-30.6351a30.8567 30.8567 0 0 0 -41.7707 32.0346 30.8575 30.8575 0 0 0 9.527 51.7723s26.0124 13.0038 45.3199-.3498z" fill="#ffd169"/><path d="m105.019 91.8451a31.1841 31.1841 0 0 1 -24.719-36.524l-.1275-.0247a30.727 30.727 0 0 0 -.3384 8.8174 30.7514 30.7514 0 0 0 -4.6841 5.2855 36.7248 36.7248 0 0 0 28.8282 27.8464z" fill="#ffbe1d"/><path d="m135.5725 83.7791 3.5538 12.3831-8.06 10.0485 6.0553 7.628c17.5941-12.1083 25.4831-16.865 25.4831-16.865l.6953-1.8071s-2.7978-9.2514-7.972-31.1338l-6.9848.7646-1.4662 12.7993z" fill="#ffbe1d"/><path d="m201.0311 133.53c-23.0546-4.4233-32.789-6.9314-32.789-6.9314l-1.7764.77s-4.827 8.8172-17.3666 28.6634 1.5353 45.2947 1.5353 45.2947a30.8572 30.8572 0 0 0 52.1232 7.367 30.857 30.857 0 0 0 30.271-43.0673s-8.9424-27.6729-31.9975-32.0964z" fill="#ffd169"/><g fill="#ffbe1d"><path d="m204.9039 171.2946a31.1846 31.1846 0 0 1 -8.7476 43.2263l.0717.1082a30.7258 30.7258 0 0 0 6.53-5.9356 30.7648 30.7648 0 0 0 7.0531-.3593 36.7263 36.7263 0 0 0 -.3236-40.08z"/><path d="m177.7436 155.1418 6.3476-11.2108 12.8173-1.2874 1.2012-9.665c-20.9661-4.0729-29.8872-6.3707-29.8872-6.3707l-1.7765.77s-4.6419 8.4778-16.6327 27.5l5.4385 4.4489 10.161-7.92z"/></g></svg>