<svg id="Layer_1" enable-background="new 0 0 500 500" viewBox="0 0 500 500" xmlns="http://www.w3.org/2000/svg" xmlns:xlink="http://www.w3.org/1999/xlink"><filter id="Adobe_OpacityMaskFilter" filterUnits="userSpaceOnUse" height="34.486" width="263.891" x="118.054" y="440.514"><feFlood flood-color="#fff" result="back"/><feBlend in="SourceGraphic" in2="back" mode="normal"/></filter><mask id="SVGID_1_" height="34.486" maskUnits="userSpaceOnUse" width="263.891" x="118.054" y="440.514"><g filter="url(#Adobe_OpacityMaskFilter)"><ellipse cx="298.285" cy="83.032" fill="url(#SVGID_2_)" mask="url(#SVGID_1_)" rx="15.525" ry="2.029"/></g></mask><filter id="Adobe_OpacityMaskFilter_1_" filterUnits="userSpaceOnUse" height="4.058" width="31.051" x="282.759" y="81.003"><feFlood flood-color="#fff" result="back"/><feBlend in="SourceGraphic" in2="back" mode="normal"/></filter><mask id="SVGID_1_" height="4.058" maskUnits="userSpaceOnUse" width="31.051" x="282.759" y="81.003"><g filter="url(#Adobe_OpacityMaskFilter_1_)"/></mask><linearGradient id="lg1"><stop offset="0" stop-color="#fff"/><stop offset="1"/></linearGradient><radialGradient id="SVGID_2_" cx="307.642" cy="-1005.498" gradientTransform="matrix(.997 0 0 .13 -8.342 213.948)" gradientUnits="userSpaceOnUse" r="15.58" xlink:href="#lg1"/><radialGradient id="SVGID_3_" cx="259.198" cy="1872.573" gradientTransform="matrix(.997 0 0 .13 -8.342 213.948)" gradientUnits="userSpaceOnUse" r="132.408"><stop offset="0" stop-color="#420000"/><stop offset="1" stop-color="#fff"/></radialGradient><linearGradient id="lg2"><stop offset="0" stop-color="#ff990a"/><stop offset=".3243" stop-color="#ff840a"/><stop offset="1" stop-color="#ffba2e"/></linearGradient><linearGradient id="SVGID_4_" gradientUnits="userSpaceOnUse" x1="161.524" x2="356.433" xlink:href="#lg2" y1="259.439" y2="259.439"/><filter id="Adobe_OpacityMaskFilter_2_" filterUnits="userSpaceOnUse" height="403.384" width="133.609" x="174.247" y="57.747"><feFlood flood-color="#fff" result="back"/><feBlend in="SourceGraphic" in2="back" mode="normal"/></filter><mask id="SVGID_5_" height="403.384" maskUnits="userSpaceOnUse" width="133.609" x="174.247" y="57.747"><g filter="url(#Adobe_OpacityMaskFilter_2_)"><path d="m297.557 83.429c5.822 0 7.477-.853 7.477-.853.021-.024.039-.063.059-.095-4.426-.022-11.059-.785-11.059-5.165 0-6.573.23-11.95 0-18.037s2.896-4.117 2.896-14.127c0-3.453 0-6.564 0-9.187h-2.13v9.187c0 3.861-5.148 6.557-5.148 12.931s-.858 22.987.429 24.494c-.001 0 .244.852 7.476.852z" fill="url(#SVGID_6_)" mask="url(#SVGID_5_)"/></g></mask><filter id="Adobe_OpacityMaskFilter_3_" filterUnits="userSpaceOnUse" height="47.465" width="15.721" x="289.371" y="35.965"><feFlood flood-color="#fff" result="back"/><feBlend in="SourceGraphic" in2="back" mode="normal"/></filter><mask id="SVGID_5_" height="47.465" maskUnits="userSpaceOnUse" width="15.721" x="289.371" y="35.965"><g filter="url(#Adobe_OpacityMaskFilter_3_)"/></mask><linearGradient id="lg3"><stop offset="0" stop-color="#fff"/><stop offset=".9919"/></linearGradient><linearGradient id="SVGID_6_" gradientUnits="userSpaceOnUse" x1="290.816" x2="311.468" xlink:href="#lg3" y1="59.697" y2="59.697"/><linearGradient id="lg4"><stop offset="0" stop-color="#a13300"/><stop offset=".9919" stop-color="#ba5222"/></linearGradient><linearGradient id="SVGID_7_" gradientUnits="userSpaceOnUse" x1="186.524" x2="362.039" xlink:href="#lg4" y1="259.439" y2="259.439"/><filter id="Adobe_OpacityMaskFilter_4_" filterUnits="userSpaceOnUse" height="30.533" width="46.874" x="220.378" y="57.747"><feFlood flood-color="#fff" result="back"/><feBlend in="SourceGraphic" in2="back" mode="normal"/></filter><mask id="SVGID_8_" height="30.533" maskUnits="userSpaceOnUse" width="46.874" x="220.378" y="57.747"><g filter="url(#Adobe_OpacityMaskFilter_4_)"><path d="m300.315 39.471c0-1.341 0-2.583 0-3.507h-5.516v3.593c1.745-.321 3.69-.335 5.516-.086z" fill="url(#SVGID_9_)" mask="url(#SVGID_8_)"/></g></mask><filter id="Adobe_OpacityMaskFilter_5_" filterUnits="userSpaceOnUse" height="3.593" width="5.516" x="294.799" y="35.965"><feFlood flood-color="#fff" result="back"/><feBlend in="SourceGraphic" in2="back" mode="normal"/></filter><mask id="SVGID_8_" height="3.593" maskUnits="userSpaceOnUse" width="5.516" x="294.799" y="35.965"><g filter="url(#Adobe_OpacityMaskFilter_5_)"/></mask><linearGradient id="SVGID_9_" gradientUnits="userSpaceOnUse" x1="297.557" x2="297.557" xlink:href="#lg3" y1="38.171" y2="40.327"/><linearGradient id="lg5"><stop offset="0" stop-color="#421d0c"/><stop offset=".9919" stop-color="#ba5222"/></linearGradient><linearGradient id="SVGID_10_" gradientUnits="userSpaceOnUse" x1="243.815" x2="243.815" xlink:href="#lg5" y1="76.497" y2="94.818"/><linearGradient id="lg6"><stop offset="0" stop-color="#ba5222"/><stop offset=".2243" stop-color="#823918"/><stop offset=".7541" stop-color="#ba5223"/><stop offset=".9919" stop-color="#ba5222"/></linearGradient><linearGradient id="SVGID_11_" gradientUnits="userSpaceOnUse" x1="220.378" x2="267.252" xlink:href="#lg6" y1="53.255" y2="53.255"/><filter id="Adobe_OpacityMaskFilter_6_" filterUnits="userSpaceOnUse" height="18.065" width="46.874" x="220.378" y="63.444"><feFlood flood-color="#fff" result="back"/><feBlend in="SourceGraphic" in2="back" mode="normal"/></filter><mask id="SVGID_12_" height="18.065" maskUnits="userSpaceOnUse" width="46.874" x="220.378" y="63.444"><g filter="url(#Adobe_OpacityMaskFilter_6_)"><path d="m300.315 38.675c0-.563 0-1.125 0-1.675-1.779-.48-3.889-.557-5.516.201v1.56c1.745-.322 3.69-.336 5.516-.086z" fill="url(#SVGID_13_)" mask="url(#SVGID_12_)"/></g></mask><filter id="Adobe_OpacityMaskFilter_7_" filterUnits="userSpaceOnUse" height="2.126" width="5.516" x="294.799" y="36.635"><feFlood flood-color="#fff" result="back"/><feBlend in="SourceGraphic" in2="back" mode="normal"/></filter><mask id="SVGID_12_" height="2.126" maskUnits="userSpaceOnUse" width="5.516" x="294.799" y="36.635"><g filter="url(#Adobe_OpacityMaskFilter_7_)"/></mask><linearGradient id="SVGID_13_" gradientUnits="userSpaceOnUse" x1="297.557" x2="297.557" xlink:href="#lg3" y1="38.401" y2="37.458"/><linearGradient id="SVGID_14_" gradientUnits="userSpaceOnUse" x1="243.815" x2="243.815" xlink:href="#lg5" y1="78.451" y2="70.44"/><filter id="Adobe_OpacityMaskFilter_8_" filterUnits="userSpaceOnUse" height="55.737" width="21.207" x="220.378" y="25.772"><feFlood flood-color="#fff" result="back"/><feBlend in="SourceGraphic" in2="back" mode="normal"/></filter><mask id="SVGID_15_" height="55.737" maskUnits="userSpaceOnUse" width="21.207" x="220.378" y="25.772"><g filter="url(#Adobe_OpacityMaskFilter_8_)"><path d="m296.317 32.202c-1.515.253-1.518.952-1.518.952v5.607c.799-.147 1.643-.222 2.495-.245-.734-1.372-1.573-4.317-.977-6.314z" fill="url(#SVGID_16_)" mask="url(#SVGID_15_)"/></g></mask><filter id="Adobe_OpacityMaskFilter_9_" filterUnits="userSpaceOnUse" height="6.558" width="2.495" x="294.799" y="32.202"><feFlood flood-color="#fff" result="back"/><feBlend in="SourceGraphic" in2="back" mode="normal"/></filter><mask id="SVGID_15_" height="6.558" maskUnits="userSpaceOnUse" width="2.495" x="294.799" y="32.202"><g filter="url(#Adobe_OpacityMaskFilter_9_)"/></mask><linearGradient id="SVGID_16_" gradientUnits="userSpaceOnUse" x1="295.269" x2="291.327" xlink:href="#lg3" y1="35.503" y2="35.802"/><linearGradient id="SVGID_17_" gradientUnits="userSpaceOnUse" x1="224.368" x2="190.872" xlink:href="#lg5" y1="53.827" y2="56.366"/><filter id="Adobe_OpacityMaskFilter_10_" filterUnits="userSpaceOnUse" height="46.668" width="29.712" x="259.268" y="164.53"><feFlood flood-color="#fff" result="back"/><feBlend in="SourceGraphic" in2="back" mode="normal"/></filter><mask id="SVGID_18_" height="46.668" maskUnits="userSpaceOnUse" width="29.712" x="259.268" y="164.53"><g filter="url(#Adobe_OpacityMaskFilter_10_)"><path d="m299.563 48.538c-.966.387 2.084 4.305 2.834 5.179.751.873.573-.254-.267-1.872-.831-1.602-2.185-3.46-2.567-3.307z" fill="url(#SVGID_19_)" mask="url(#SVGID_18_)"/></g></mask><filter id="Adobe_OpacityMaskFilter_11_" filterUnits="userSpaceOnUse" height="5.491" width="3.496" x="299.375" y="48.529"><feFlood flood-color="#fff" result="back"/><feBlend in="SourceGraphic" in2="back" mode="normal"/></filter><mask id="SVGID_18_" height="5.491" maskUnits="userSpaceOnUse" width="3.496" x="299.375" y="48.529"><g filter="url(#Adobe_OpacityMaskFilter_11_)"/></mask><linearGradient id="SVGID_19_" gradientUnits="userSpaceOnUse" x1="301.45" x2="300.517" xlink:href="#lg1" y1="51.113" y2="51.686"/><linearGradient id="lg7"><stop offset="0" stop-color="#ffe4b9"/><stop offset="1" stop-color="#ffe4b9"/></linearGradient><linearGradient id="SVGID_20_" gradientUnits="userSpaceOnUse" x1="276.898" x2="268.975" xlink:href="#lg7" y1="186.483" y2="191.355"/><filter id="Adobe_OpacityMaskFilter_12_" filterUnits="userSpaceOnUse" height="204.121" width="11.458" x="293.932" y="228.689"><feFlood flood-color="#fff" result="back"/><feBlend in="SourceGraphic" in2="back" mode="normal"/></filter><mask id="SVGID_21_" height="204.121" maskUnits="userSpaceOnUse" width="11.458" x="293.932" y="228.689"><g filter="url(#Adobe_OpacityMaskFilter_12_)"><path d="m303.501 56.711s.374 21.419.402 22.904c.027 1.485.826-.564.892-4.795s-.313-17.253-.435-17.836c-.123-.581-1.134-1.558-.859-.273z" fill="url(#SVGID_22_)" mask="url(#SVGID_21_)"/></g></mask><filter id="Adobe_OpacityMaskFilter_13_" filterUnits="userSpaceOnUse" height="24.018" width="1.348" x="303.454" y="56.079"><feFlood flood-color="#fff" result="back"/><feBlend in="SourceGraphic" in2="back" mode="normal"/></filter><mask id="SVGID_21_" height="24.018" maskUnits="userSpaceOnUse" width="1.348" x="303.454" y="56.079"><g filter="url(#Adobe_OpacityMaskFilter_13_)"/></mask><linearGradient id="SVGID_22_" gradientUnits="userSpaceOnUse" x1="304.605" x2="303.467" xlink:href="#lg1" y1="68.088" y2="68.088"/><linearGradient id="SVGID_23_" gradientUnits="userSpaceOnUse" x1="303.711" x2="294.043" xlink:href="#lg7" y1="330.749" y2="330.749"/><filter id="Adobe_OpacityMaskFilter_14_" filterUnits="userSpaceOnUse" height="62.174" width="6.933" x="256.315" y="86.325"><feFlood flood-color="#fff" result="back"/><feBlend in="SourceGraphic" in2="back" mode="normal"/></filter><mask id="SVGID_24_" height="62.174" maskUnits="userSpaceOnUse" width="6.933" x="256.315" y="86.325"><g filter="url(#Adobe_OpacityMaskFilter_14_)"><path d="m299.028 39.887v6.159c0 .827.429 1.073.613-1.118s.366-5.094-.047-5.282-.49-.724-.566.241z" fill="url(#SVGID_25_)" mask="url(#SVGID_24_)"/></g></mask><filter id="Adobe_OpacityMaskFilter_15_" filterUnits="userSpaceOnUse" height="7.316" width=".816" x="299.028" y="39.327"><feFlood flood-color="#fff" result="back"/><feBlend in="SourceGraphic" in2="back" mode="normal"/></filter><mask id="SVGID_24_" height="7.316" maskUnits="userSpaceOnUse" width=".816" x="299.028" y="39.327"><g filter="url(#Adobe_OpacityMaskFilter_15_)"/></mask><linearGradient id="SVGID_25_" gradientUnits="userSpaceOnUse" x1="299.724" x2="299.036" xlink:href="#lg1" y1="42.985" y2="42.985"/><linearGradient id="SVGID_26_" gradientUnits="userSpaceOnUse" x1="262.232" x2="256.382" xlink:href="#lg7" y1="117.412" y2="117.412"/><filter id="Adobe_OpacityMaskFilter_16_" filterUnits="userSpaceOnUse" height="72.34" width="138.993" x="174.258" y="388.791"><feFlood flood-color="#fff" result="back"/><feBlend in="SourceGraphic" in2="back" mode="normal"/></filter><mask id="SVGID_27_" height="72.34" maskUnits="userSpaceOnUse" width="138.993" x="174.258" y="388.791"><g filter="url(#Adobe_OpacityMaskFilter_16_)"><path d="m289.372 74.917c.015 3.919.183 7.045.708 7.659 0 0 .245.853 7.477.853 5.822 0 7.477-.853 7.477-.853.458-.536.644-4.441.694-7.659-6.292 2.231-12.591 1.462-16.356 0z" fill="url(#SVGID_28_)" mask="url(#SVGID_27_)"/></g></mask><filter id="Adobe_OpacityMaskFilter_17_" filterUnits="userSpaceOnUse" height="8.512" width="16.355" x="289.372" y="74.917"><feFlood flood-color="#fff" result="back"/><feBlend in="SourceGraphic" in2="back" mode="normal"/></filter><mask id="SVGID_27_" height="8.512" maskUnits="userSpaceOnUse" width="16.355" x="289.372" y="74.917"><g filter="url(#Adobe_OpacityMaskFilter_17_)"/></mask><linearGradient id="SVGID_28_" gradientUnits="userSpaceOnUse" x1="297.55" x2="297.55" xlink:href="#lg3" y1="82.671" y2="79.141"/><linearGradient id="SVGID_29_" gradientUnits="userSpaceOnUse" x1="243.754" x2="243.754" xlink:href="#lg4" y1="454.686" y2="424.689"/><linearGradient id="lg8"><stop offset="0" stop-color="#780000"/><stop offset=".2373" stop-color="#730000"/><stop offset=".6985" stop-color="#c70000"/><stop offset="1" stop-color="#780000"/></linearGradient><linearGradient id="SVGID_30_" gradientUnits="userSpaceOnUse" x1="117.34" x2="361.342" xlink:href="#lg8" y1="450.327" y2="194.013"/><linearGradient id="SVGID_31_" gradientUnits="userSpaceOnUse" x1="120.278" x2="364.281" xlink:href="#lg8" y1="446.445" y2="190.129"/><linearGradient id="SVGID_32_" gradientUnits="userSpaceOnUse" x1="134.598" x2="351.546" xlink:href="#lg2" y1="431.401" y2="203.507"/><linearGradient id="SVGID_33_" gradientUnits="userSpaceOnUse" x1="138.659" x2="347.935" xlink:href="#lg6" y1="427.136" y2="207.3"/><g><ellipse cx="250" cy="457.757" fill="url(#SVGID_3_)" opacity=".6" rx="131.945" ry="17.243"/><g><path d="m267.252 135.824c0-24.602 0-59.151 0-78.077h-46.874v78.077c0 32.812-43.75 55.729-43.75 109.895 0 54.167-7.292 195.36 3.646 208.165 0 0 2.083 7.247 63.542 7.247 49.478 0 63.541-7.247 63.541-7.247 10.938-12.806 3.646-153.999 3.646-208.165-.001-54.166-43.751-77.083-43.751-109.895z" fill="url(#SVGID_4_)"/><path d="m252.628 457.224c-61.458 0-63.541-7.246-63.541-7.246-10.938-12.806-3.646-153.999-3.646-208.165 0-54.167 43.75-77.083 43.75-109.895 0-22.996 0-54.676 0-74.171h-8.985v78.077c0 32.812-43.75 55.729-43.75 109.895 0 54.167-7.291 195.36 3.646 208.165 0 0 2.083 7.247 63.542 7.247 49.478 0 63.541-7.247 63.541-7.247.297-.347.573-.83.843-1.361-8.79 2.089-25.67 4.701-55.4 4.701z" fill="#fff" opacity=".3"/><path d="m243.815 461.131c49.478 0 63.541-7.247 63.541-7.247.176-.206.334-.535.5-.807-37.615-.187-93.989-6.667-93.989-43.899 0-55.859 1.953-101.562 0-153.291s24.61-34.99 24.61-120.063c0-29.348 0-55.785 0-78.077h-18.099v78.077c0 32.812-43.75 55.729-43.75 109.895 0 54.167-7.292 195.36 3.646 208.165 0 0 2.083 7.247 63.541 7.247z" fill="url(#SVGID_7_)" opacity=".1"/><path d="m267.252 87.55c0-11.401 0-21.953 0-29.803h-46.874v30.533c14.833-2.731 31.358-2.849 46.874-.73z" fill="url(#SVGID_10_)" opacity=".5"/><path d="m220.378 33.86v47.649c14.833-2.731 31.358-2.849 46.874-.729 0-17.584 0-35.232 0-46.92 0 0 0-8.86-23.437-8.86s-23.437 8.86-23.437 8.86z" fill="url(#SVGID_11_)"/><path d="m243.815 27.286c-21.517 0-21.517 8.133-21.517 8.133v.714c3.143-1.456 8.201-2.632 16.377-2.632 21.516 0 21.516 8.134 21.516 8.134v36.351c1.714.173 3.449.276 5.14.507 0-16.142 0-32.344 0-43.075 0 .001 0-8.132-21.516-8.132z" fill="#ffba2e" opacity=".2"/><path d="m267.252 80.78c0-4.785 0-9.563 0-14.235-15.121-4.078-33.054-4.731-46.874 1.707v13.258c14.833-2.732 31.358-2.85 46.874-.73z" fill="url(#SVGID_14_)" opacity=".5"/><path d="m233.276 25.772c-12.877 2.151-12.898 8.088-12.898 8.088v47.649c6.795-1.251 13.961-1.889 21.207-2.08-6.243-11.659-13.369-36.684-8.309-53.657z" fill="url(#SVGID_17_)" opacity=".3"/><path d="m225.977 27.867c-5.587 2.589-5.599 5.993-5.599 5.993v47.649c1.821-.336 3.732-.512 5.599-.768z" fill="#ffba2e" opacity=".1"/><path d="m250 95.898v60.156s33.593 50.551 33.593 76.838 0 165.74 0 186.442c0 20.703 22.286 33.203 22.286-53.125 0-86.327.566-126.952-5.879-146.483s-29.883-37.89-34.375-61.523c-4.492-23.632-3.711-38.476-3.906-51.171-.196-12.696-11.719-33.985-11.719-11.134z" fill="#fff" opacity=".1"/><path d="m260.86 164.605c-8.214 3.285 17.708 36.588 24.088 44.01 6.381 7.422 4.865-2.162-2.267-15.912-7.061-13.612-18.566-29.4-21.821-28.098z" fill="url(#SVGID_20_)" opacity=".4"/><path d="m294.336 234.064s3.179 182.033 3.413 194.654c.233 12.621 7.02-4.792 7.577-40.747.558-35.954-2.658-146.631-3.699-151.579-1.041-4.947-9.635-13.251-7.291-2.328z" fill="url(#SVGID_23_)" opacity=".4"/><path d="m256.315 91.08v52.344s3.646 9.115 5.208-9.505c1.563-18.62 3.107-43.289-.399-44.887-3.507-1.597-4.158-6.155-4.809 2.048z" fill="url(#SVGID_26_)" opacity=".4"/><path d="m174.258 388.791c.129 33.305 1.557 59.873 6.016 65.094 0 0 2.083 7.247 63.542 7.247 49.478 0 63.541-7.247 63.541-7.247 3.891-4.556 5.469-37.738 5.895-65.094-53.47 18.955-106.995 12.419-138.994 0z" fill="url(#SVGID_29_)" opacity=".6"/><ellipse cx="246.492" cy="314.658" fill="url(#SVGID_30_)" opacity=".4" rx="44.502" ry="103.653"/><path d="m293.933 310.776c0 57.246-19.925 103.653-44.503 103.653s-44.502-46.407-44.502-103.653c0-57.247 19.924-103.654 44.502-103.654s44.503 46.407 44.503 103.654z" fill="url(#SVGID_31_)"/><ellipse cx="249.43" cy="310.776" fill="url(#SVGID_32_)" opacity=".6" rx="37.111" ry="93.081"/><ellipse cx="249.43" cy="310.776" fill="url(#SVGID_33_)" rx="34.838" ry="90.131"/></g></g></svg>