<svg id="Artboard_30" enable-background="new 0 0 64 64" height="512" viewBox="0 0 64 64" width="512" xmlns="http://www.w3.org/2000/svg"><g><path d="m10.597 30.493c-.392-.341-.774-.697-1.144-1.067-.93-.93-1.453-2.192-1.453-3.508 0-1.815.992-3.486 2.585-4.355l3.154-1.72c10.036-5.474 22.251-5.076 31.909 1.041l14.552 7.977c1.121.709 1.8 1.943 1.8 3.269 0 2.137-1.733 3.87-3.87 3.87h-13.604z" fill="#f2b9a1"/><path d="m45.648 20.884c-9.658-6.117-21.873-6.515-31.909-1.041l-3.154 1.72c-1.593.869-2.585 2.54-2.585 4.355 0 1.316.523 2.578 1.453 3.508.37.37.752.726 1.144 1.067l4.824.783 20.742-.276h11.782c2.681 0 7.341-.454 9.853-1.391l2.241-.837z" fill="#f4c8ad"/><path d="m51.174 29.152c3.057 0 6.023-.135 8.852-.388l-14.377-7.88c-8.849-5.604-19.84-6.393-29.34-2.277 2.252 5.949 16.997 10.545 34.865 10.545z" fill="#fbdac2"/><path d="m50.13 48h-30.871c-5.928 0-11.614-2.355-15.806-6.547-.93-.93-1.453-2.192-1.453-3.508 0-1.815.992-3.486 2.585-4.355l3.154-1.72c10.036-5.474 22.251-5.076 31.909 1.041l12.552 7.95c1.121.709 1.8 1.943 1.8 3.269 0 2.137-1.733 3.87-3.87 3.87z" fill="#f4c8ad"/><path d="m35 43.986-18-1.268-14.282-2.237c.208.348.443.68.735.972 4.192 4.192 9.877 6.547 15.806 6.547h25.741c-1.015-.889-2.676-2.078-5-2.954-1.876-.707-3.609-.982-5-1.06z" fill="#f2b9a1"/><path d="m7.739 31.87-3.154 1.72c-1.593.869-2.585 2.54-2.585 4.355 0 1.31.52 2.566 1.443 3.496l.012.004c3.168.59 8.618 1.621 11.547 2.176 1.33.252 2.681.379 4.036.379h20.141c2.528 0 5.036-.442 7.411-1.306l5.403-1.965-12.345-7.819c-9.658-6.116-21.873-6.515-31.909-1.04z" fill="#fbdac2"/><g><path d="m26.216 41.621c-1.17-1.479-3.317-3.263-5.744-4.771-2.336-1.452-4.904-2.416-7.633-2.862l.322-1.974c2.991.49 5.806 1.545 8.367 3.138 2.611 1.624 4.95 3.578 6.256 5.229z" fill="#f4c8ad"/></g><g><path d="m37.216 40.621c-1.17-1.479-3.317-3.263-5.744-4.771-2.336-1.452-4.904-2.416-7.633-2.862l.322-1.974c2.991.49 5.806 1.545 8.367 3.138 2.611 1.624 4.95 3.578 6.256 5.229z" fill="#f4c8ad"/></g><g><path d="m34.022 29.211c-1.764-2.456-3.948-4.504-6.494-6.087-2.56-1.591-5.374-2.647-8.366-3.138l-.324 1.974c2.731.448 5.3 1.411 7.634 2.862 1.922 1.195 3.605 2.697 5.045 4.445.563.162 1.121.344 1.676.538z" fill="#f4c8ad"/></g><g><path d="m42.215 28.619c-.18-.228-.358-.461-.541-.7-1.062-1.391-2.162-2.828-4.202-4.097-2.334-1.451-4.902-2.415-7.634-2.862l.324-1.974c2.992.491 5.807 1.546 8.366 3.138 2.35 1.461 3.617 3.118 4.734 4.581.177.23.35.457.522.676z" fill="#f4c8ad"/></g><g><path d="m30 39h2v2h-2z" fill="#774528"/></g><g><path d="m46 25h2v2h-2z" fill="#774528"/></g><g><path d="m34 25h2v2h-2z" fill="#774528"/></g><g><path d="m16 38h2v2h-2z" fill="#774528"/></g><g><path d="m40 36h2v2h-2z" fill="#774528"/></g><path d="m2 37.945c0 .357.046.708.121 1.051l.052-.011c3.895-.684 7.893-1.018 11.819-.985l.016-2c-3.984-.037-7.956.3-11.901.974-.063.317-.107.64-.107.971z" fill="#f4c8ad"/><path d="m20.008 23.973c-3.993-.033-7.97.301-11.9.973-.064.318-.108.641-.108.972 0 .356.045.707.12 1.05l.053-.01c3.896-.684 7.89-1.022 11.819-.985z" fill="#f2b9a1"/><path d="m45.647 33.955c1.384.522 2.755 1.308 3.835 2.045h1.691l.623-.782c-1.245-.993-3.33-2.337-5.444-3.134z" fill="#f4c8ad"/></g></svg>