<svg id="Layer_3" viewBox="0 0 512 512" xmlns="http://www.w3.org/2000/svg" data-name="Layer 3"><g><g><path d="m190.6757812 343.6178172c-4.934082-.0842285-9.4418945-2.7932129-11.5454102-7.2573242l-6.9758301-14.8034668c-14.4806673-12.0631192-14.2461965-7.0201538-22.3274953-5.7856567-5.3417969.81604-9.4161937 2.6156093-9.2948191 16.3022583l8.6665039 18.3914795c2.1037598 4.4639893 1.3232422 9.664917-1.7526855 13.5238037-4.9743652 6.2402344-6.0307617 15.1831055-1.6875 22.7215576 4.9643555 8.6159668 15.7226562 12.3275146 24.9521484 8.6273193 5.9829102-2.3985596 10.1335449-7.2675781 11.8422852-12.9024658 5.4335938 2.269165 11.8308105 2.1678467 17.4892578-.9193115 8.7290039-4.7626953 12.7150879-15.4219971 9.2304688-24.7353516-3.048584-8.1484375-10.6179199-13.0264893-18.5969238-13.1628418z" fill="#f4f4f4"/><path d="m158.0146484 355.387207c6.4620361-.9873657 17.6031494-3.9666138 27.4250488-12.913208-2.7235718-1.2043457-4.9897461-3.3131104-6.3093262-6.1135254l-6.9758301-14.8034668c-14.4806519-12.0631104-14.2462158-7.0201416-22.3275146-5.7856445-5.3417969.81604-9.4161987 2.6156006-9.2947998 16.3022461l8.6665039 18.3914795c.8652954 1.8361206 1.2351074 3.7965698 1.1654663 5.7373657 2.4993286-.156189 5.0530396-.4185791 7.6504517-.8152466z" fill="#ddd"/><path d="m303.2016602 308.8392528c-7.873291-3.8913574-13.2902832-11.9995117-13.2902832-21.3762207 0-12.1259766 9.057373-22.1295166 20.7746582-23.6325684-.1474609-1.1447754-.2316895-2.3093262-.2316895-3.4941406 0-14.9816895 12.1450195-27.126709 27.126709-27.126709 8.0998535 0 15.3659668 3.5545654 20.3361816 9.1837158v-6.659668c0-16.1790771 13.1157227-29.2947998 29.2949219-29.2947998s29.2949219 13.1157227 29.2949219 29.2947998v26.6004639c-.0160612 3.5153395-.4915782 7.0668797-1.4506836 10.4296875 8.447998 3.7531738 14.777832 9.2160645 19.7788086 15.8344727 7.0856934-8.3417969 12.5566406-19.5463867 13.5568848-34.5212402 2.255127-33.7678223-20.2512207-57.3913574-45.0031738-59.0825806 1.0722656-5.2952881 2.0097656-10.8424683 2.796875-16.6539917 1.2641602-9.3366089 1.9770508-18.2139893 2.215332-26.663269.0019531-.0003052.0036621-.000061.0056152-.0003662 16.5405273-2.5750732 27.3349609-17.2119751 27.3349609-17.2119751 6.0222168 19.7870483 31.6672363 31.8313599 36.9931641 21.5076904 9.7416992-18.8832397-7.7426758-13.7648926-7.7426758-63.6626587s-36.1330566-69.6848145-75.2426758-25.9058838c0 0 .0002441.0124512.0002441.0147095-22.5209961-40.177063-60.0305176-56.4187622-82.2055664-56.4187622-15.2485352 0-26.7241211 3.4419556-34.9294434 7.4656372-10.4777832 5.1380615-22.751709 5.1380615-33.2294922 0-8.2053223-4.0236816-19.6809082-7.4656372-34.9294434-7.4656372-22.1750488 0-59.6845703 16.2416992-82.2055664 56.4188232 0-.0023193.0002441-.0147705.0002441-.0147705-39.1096191-43.7789307-75.2426758-23.9918823-75.2426758 25.9058838s-17.484375 44.7794189-7.7426758 63.6626587c5.3259277 10.3236694 30.9709473-1.7206421 36.9931641-21.5076904 0 0 10.7944336 14.6369019 27.3349609 17.2119751.0019531.0003052.0036621.000061.0056152.0003662.2382812 8.4492798.9511719 17.3266602 2.215332 26.663269.7871094 5.8115234 1.7246094 11.3587036 2.796875 16.6539917-24.7519531 1.6912231-47.2583008 25.3147583-45.0029297 59.0825806 3.2429199 48.5581055 53.4697266 57.519043 53.4697266 57.519043s3.2727051 25.2662354 37.3115234 20.0662842c18.3891602-2.8092041 24.4299316-18.8858643 26.1000977-33.0758057 15.5739746 6.9709473 27.2709961 7.5093994 27.2709961 7.5093994s7.9570312 28.8201904 48.239502 28.8201904c32.6091309 0 44.0319824-18.8818359 47.2016602-26.0769043z" fill="#ffded9"/><g fill="#ffebe9"><path d="m145.644043 320.3676758c-15.1542969-.0004883-16.6108398-9.8930664-16.6655273-10.3139648l-1.1308594-8.7255859-8.6621094-1.5454102c-1.6245117-.3051758-41.0419922-8.1396484-43.6044922-46.5053711-1.4921875-22.347168 9.9267578-38.2124023 23.9902344-43.9833984 14.0390625 54.9521484 42.6259766 82.3359375 67.4365234 95.9760742-3.7001953 12.8916016-11.2797852 14.0488281-14.4306641 14.5302734-2.4643555.3764648-4.796875.5673828-6.9316406.5673828z"/><path d="m145.644043 320.3676758c-15.1542969-.0004883-16.6108398-9.8930664-16.6655273-10.3139648l-1.1308594-8.7255859-8.6621094-1.5454102c-1.6245117-.3051758-41.0419922-8.1396484-43.6044922-46.5053711-1.4921875-22.347168 9.9267578-38.2124023 23.9902344-43.9833984 14.0390625 54.9521484 42.6259766 82.3359375 67.4365234 95.9760742-3.7001953 12.8916016-11.2797852 14.0488281-14.4306641 14.5302734-2.4643555.3764648-4.796875.5673828-6.9316406.5673828z"/><path d="m366.355957 320.3676758c15.1542969-.0004883 16.6108398-9.8930664 16.6655273-10.3139648l1.1308594-8.7255859 8.6621094-1.5454102c1.6245117-.3051758 41.0419922-8.1396484 43.6044922-46.5053711 1.4921875-22.347168-9.9267578-38.2124023-23.9902344-43.9833984-14.0390625 54.9521484-42.6259766 82.3359375-67.4365234 95.9760742 3.7001953 12.8916016 11.2797852 14.0488281 14.4306641 14.5302734 2.4643555.3764648 4.796875.5673828 6.9316406.5673828z"/><path d="m48.5683594 147.3632812c-.2685547-.8256836-.2558594-1.1494141-.2548828-1.1723633.0419922-.7163086.9453125-2.7983398 1.7421875-4.6352539 3.3481445-7.7167969 8.9521484-20.6323242 8.9521484-49.2456055 0-18.9716797 6.6425781-38.1142578 21.4833984-38.1142578 7.9750977 0 17.4472656 5.0356445 27.1538086 14.3300781-9.1870117 19.1069336-14.4760742 40.7895508-15.7983398 64.7314453-3.7070312-3.0214844-5.9326172-5.918457-5.9750977-5.9746094l-14.1811523-19.2290039-6.9121094 22.9174805c-2.6806641 8.8076172-11.3354492 14.8515625-16.2099609 16.3920898z"/><path d="m463.4316406 147.3632813c.2685547-.8256836.2558594-1.1494141.2548828-1.1723633-.0419922-.7163086-.9453125-2.7983398-1.7421875-4.6352539-3.3481445-7.7167969-8.9521484-20.6323242-8.9521484-49.2456055 0-18.9716797-6.6425781-38.1142578-21.4833984-38.1142578-7.9750977 0-17.4472656 5.0356445-27.1538086 14.3300781 9.1870117 19.1069336 14.4760742 40.7895508 15.7983398 64.7314453 3.7070313-3.0214844 5.9326172-5.918457 5.9750977-5.9746094l14.1811523-19.2290039 6.9121094 22.9174805c2.6806641 8.8076172 11.3354492 14.8515625 16.2099609 16.3920898z"/><path d="m256 310.9165039c-18.7368164 0-24.0048828-8.8676758-25.1791992-11.5927734l-3.6206055-18.6933594-18.2768555 1.4848633c-2.1235352-.2211914-17.6225586-2.21875-34.0761719-14.5517578-24.1723633-18.1186523-39.3969727-49.2211914-45.25-92.4438477-8.2080078-60.6118164 9.2592773-95.2983398 25.3579102-113.7241211 18.9331055-21.6699219 40.6586914-27.3955078 49.5009766-27.3955078 9.3808594 0 17.5771484 1.6870117 24.3623047 5.0141602 8.4121094 4.125 17.8110352 6.3051758 27.1816406 6.3051758s18.7695312-2.1801758 27.1811523-6.3046875c6.7856445-3.3276367 14.9819336-5.0146484 24.362793-5.0146484 8.8422852 0 30.5678711 5.7255859 49.5009766 27.3955078 16.0986328 18.4257812 33.565918 53.1123047 25.3579102 113.7241211-5.8530273 43.2226562-21.0776367 74.3251953-45.25 92.4438477-16.7011719 12.5185547-32.418457 14.3881836-34.1625977 14.5605469l-19.2709961.3510742-2.5644531 16.9057617c-1.2231445 2.7895508-6.546875 11.5356445-25.1547852 11.5356445z"/></g><path d="m408.0765991 50.1939087c-5.944519 3.8829956-12.0975342 9.2368164-18.3270874 16.210083 0 0 .0002441.0124512.0002441.0147095 11.9418335 21.3040161 19.664917 49.338501 18.6515503 85.2584839.0018921-.0003052.00354-.000061.0054321-.0003662 11.0762329-1.7243652 19.5693359-8.8532715 23.9762573-13.3781128-1.1534424-38.5574341-11.6853027-67.3078613-24.3063965-88.1047974z" fill="#f2c6c2"/><path d="m399.9875488 209.3659668c9.777771 4.7462158 16.5195312 14.7689209 16.5195312 26.3676758v.1170654c4.1887207-10.991394 7.3070679-22.0169678 9.6236572-32.5784912-6.8204346-4.8205566-14.6578369-7.7254028-22.7416992-8.277771-1.0157471 5.0167847-2.1574707 9.7970581-3.4014893 14.371521z" fill="#f2c6c2"/><path d="m108.6109619 194.9944458c-8.0838623.5523682-15.9212646 3.4572144-22.7416992 8.277771 7.9832153 36.3963013 25.5026245 78.3730469 63.4007568 105.0324707 8.038269 5.6546631 15.9057007 9.838501 23.1202393 12.9396362 4.9207153-6.4321289 7.1779175-14.829834 8.0992432-22.6576538-24.4867554-10.960144-58.5640869-37.8321533-71.87854-103.5922241z" fill="#f2c6c2"/><path d="m103.5986938 151.6771851c-1.0133667-35.9199829 6.7097168-63.9544678 18.6515503-85.2584839 0-.0024414.0002441-.0147095.0002441-.0147095-6.2295532-6.9732666-12.3825684-12.3270874-18.3270874-16.210083-12.6210938 20.796936-23.1529541 49.5473633-24.3063965 88.1047974 4.4069214 4.5248413 12.9000244 11.6537476 23.9762573 13.3781128.0018921.0003052.00354.000061.0054321.0003662z" fill="#f2c6c2"/><g fill="#edb4b4"><path d="m256 65.6625977c-3.3134766 0-6 2.6865234-6 6v67.9643555c0 3.3134766 2.6865234 6 6 6s6-2.6865234 6-6v-67.9643555c0-3.3134766-2.6865234-6-6-6z"/><path d="m256 203.3115234c-3.3134766 0-6 2.6865234-6 6v59.3613281c0 3.3134766 2.6865234 6 6 6s6-2.6865234 6-6v-59.3613281c0-3.3134766-2.6865234-6-6-6z"/></g><g><g fill="#edb4b4"><path d="m113.4781494 57.5853882c-6.2728882 10.5743408-11.2531128 22.1752319-14.8746338 34.6870728-1.9485474 7.6622314 9.0245361 10.9215698 11.5274048 3.3358154 3.0304565-10.4709473 7.0848999-20.2331543 12.116333-29.2078247-2.9447632-3.2961426-5.8721924-6.2254639-8.769104-8.8150635z"/><path d="m108.611084 194.9944458c-3.9960938.2730103-7.9311523 1.1258545-11.7154541 2.4926147 2.3151855 11.3890991 5.2942505 22.1261597 8.9359131 32.0427246.8920898 2.4282227 3.1884766 3.9331055 5.6328125 3.9331055.6870117 0 1.3857422-.1186523 2.0678711-.3691406 3.1108398-1.1425781 4.7060547-4.590332 3.5639648-7.7006836-3.4460315-9.3833039-6.2880659-19.559325-8.4834561-30.3966893z"/><path d="m180.4894409 298.5869141c-5.7184448-2.5606079-11.2630615-5.6687012-16.5690308-9.3256836-6.6831055-4.2774658-13.1995239 5.1407471-6.8095093 9.8809204 6.6217041 4.5637817 13.5865479 8.366333 20.7956543 11.401001 1.3133545-3.9140015 2.118103-8.0079346 2.5828857-11.9562378z"/></g><path d="m183.0957031 372.9414062c.6060181 3.2962646.3609009 6.5917969-.5912476 9.6396484.0151978-.0489502.0336914-.0966797.0485229-.145752 3.7619629 1.5710449 7.9855957 2.003418 12.1064453 1.0976562.9122314-4.1068115 1.0338745-8.4342041.2380371-12.7614746-1.7025146-7.7589111-12.9674072-5.6947021-11.8017578 2.1699219z" fill="#ddd"/><path d="m398.5218506 57.5853882c6.2728882 10.5743408 11.2531128 22.1752319 14.8746338 34.6870728 1.9485474 7.6622314-9.0245361 10.9215698-11.5274048 3.3358154-3.0304565-10.4709473-7.0848999-20.2331543-12.116333-29.2078247 2.9447632-3.2961426 5.8721924-6.2254639 8.769104-8.8150635z" fill="#edb4b4"/><path d="m406.8432617 195.3902588c-.2412109-.0365601-.4816895-.0774536-.7235107-.1099243-.9067383-.1223755-1.8166504-.2234497-2.730835-.2858887l-.0016479.0018921c-.9993286 4.9331055-2.1393433 9.7214355-3.4026489 14.368103 3.9692383 1.9261475 7.4329834 4.7253418 10.1537476 8.1432495 1.8996582-6.4082642 3.5574951-13.0917358 4.9660034-20.0206299-1.8054199-.6520386-3.6469727-1.1787109-5.5112915-1.5896606-.2112427-.0463257-.4232788-.0889893-.6351929-.1321411-.7016602-.1436157-1.4069214-.2669678-2.114624-.375z" fill="#edb4b4"/></g></g><g><path d="m381.8937571 453.9099121c0 14.9500732 12.1199951 27.0800781 27.0700073 27.0800781 12.0599976 0 22.2700195-7.8900146 25.7700195-18.7900391 3.8899536 2.1700439 8.3699951 3.4100342 13.1399536 3.4100342 14.9500122 0 27.0700073-12.1199951 27.0700073-27.0799561 0-.2700195-.0100098-.5400391-.0199585-.8200684.8499756-11.1099854 1.5599976-41.9799805-12.210022-76.2799683-17.2600098-43.0100098-14.9099731-94.3099976-78.4699707-94.3099976h-4.7000733c-63.5599976 0-61.2099609 51.2999878-78.4699707 94.3099976-13.7700195 34.2999878-13.0599976 65.1699829-12.210022 76.2799683-.0099487.2800293-.0199585.5500488-.0199585.8200684 0 14.9599609 12.1199951 27.0799561 27.0700073 27.0799561 4.7699585 0 9.25-1.2399902 13.1399536-3.4100342 3.5 10.9000244 13.710022 18.7900391 25.7700195 18.7900391 14.9500122 0 27.0700073-12.1300049 27.0700073-27.0800781z" fill="#fffff5"/><path d="m474.6815186 412.2637939c-1.8187256 13.190918-13.1245117 23.3461914-26.8078003 23.3461914-4.7699585 0-9.25-1.2399902-13.1399536-3.4100342-3.5 10.9000244-13.710022 18.7900391-25.7700195 18.7900391-14.9500122 0-27.0700073-12.1300049-27.0700073-27.0800781 0 14.9500732-12.1199951 27.0800781-27.0700073 27.0800781-12.0599976 0-22.2700195-7.8900146-25.7700195-18.7900391-3.8899536 2.1700439-8.3699951 3.4100342-13.1399536 3.4100342-13.6832886 0-24.9890747-10.1552734-26.8078003-23.3461914-.9728394 11.477417-.6239014 20.4578857-.2422485 25.446167-.0099487.2800293-.0199585.5500488-.0199585.8200684 0 14.9599609 12.1199951 27.0799561 27.0700073 27.0799561 4.7699585 0 9.25-1.2399902 13.1399536-3.4100342 3.5 10.9000244 13.710022 18.7900391 25.7700195 18.7900391 14.9500122 0 27.0700073-12.1300049 27.0700073-27.0800781 0 14.9500732 12.1199951 27.0800781 27.0700073 27.0800781 12.0599976 0 22.2700195-7.8900146 25.7700195-18.7900391 3.8899536 2.1700439 8.3699951 3.4100342 13.1399536 3.4100342 14.9500122 0 27.0700073-12.1199951 27.0700073-27.0799561 0-.2700195-.0100098-.5400391-.0199585-.8200684.3816528-4.9882812.7305908-13.96875-.2422485-25.446167z" fill="#eaeadf"/><path d="m413.6617204 481.2372859c-1.2452393-24.0214844-11.9473267-46.9111328-18.9310913-59.4886475-3.916626 3.475708-8.2415771 6.1090088-12.8381958 7.0058594-4.7355957-.9239502-9.1812134-3.6939697-13.1906128-7.3265381-7.3467407 13.1601562-19.0083008 38.0231934-19.2341309 63.6052246-.0789795 8.947876 6.7631226 16.6882324 15.7072754 16.9592285 5.3048096.1606445 10.0585938-2.2277832 13.1282349-6.0317383 1.8293457-2.2668457 5.3659058-2.2363281 7.2000122.0267334 3.0096436 3.7137451 7.6275635 6.0708008 12.7938232 6.0114746 7.7658691-.0892334 14.5003662-5.8898926 15.7980957-13.5471191.430603-2.5406494.2212524-4.9725342-.4334106-7.2144775z" fill="#fb5657"/><path d="m398.1074219 490c-1.8144531 0-2.8984375-1.0961914-3.2807617-1.5673828-3.1723633-3.9135742-7.8920898-6.1572266-12.9506836-6.1572266-5.0517578 0-9.7578125 2.2412109-12.9111328 6.1489258-.3823242.4736328-1.4677734 1.5756836-3.2866211 1.5756836l-.1401367-.0024414c-2.2290039-.0673828-4.0932617-2.2924805-4.0708008-4.8583984.1503906-17.0317383 6.1577148-34.043457 11.9194336-46.4926758 2.0537109.8496094 4.1245117 1.4794922 6.2084961 1.8857422l2.2978516.4482422 2.2978516-.4482422c1.9296875-.3764648 3.8496094-.9443359 5.753418-1.7011719 5.3144531 11.5375977 10.9106445 27.1582031 11.7333984 43.0273438l.0722656 1.3989258.3930664 1.3447266c.1870117.640625.2255859 1.2265625.1210938 1.84375-.3286133 1.9375-2.1699219 3.5317383-4.1054688 3.5541992h-.0512695z" fill="#ff7b82"/><ellipse cx="345.624" cy="351.278" fill="#845239" rx="8.043" ry="14.32"/><ellipse cx="418.164" cy="351.278" fill="#845239" rx="8.043" ry="14.32"/><path d="m387.2121582 206.4388622c-16.1791992 0-29.2949219 13.1157227-29.2949219 29.2947998v6.659668c-4.9702148-5.6291504-12.2363281-9.1837158-20.3361816-9.1837158-14.9816895 0-27.126709 12.1450195-27.126709 27.126709 0 1.1848145.0842285 2.3493652.2316895 3.4941406-11.7172852 1.5030518-20.7746582 11.5065918-20.7746582 23.6325684 0 13.1635742 10.6713867 23.8347168 23.8349609 23.8347168 1.21875 0 2.4160156-.0925293 3.5859375-.269043 7.1887207-19.4731445 17.543457-35.4942627 40.5849609-41.4306641v10.6796875c0 11.2241211 9.0991211 20.322998 20.3232422 20.322998 19.2988281 0 35.2529297-14.2888184 37.8793945-32.862793.2412807-1.7900589.3822553-3.5891589.387207-5.4038086v-26.6004639c0-16.1790771-13.1157227-29.2947998-29.2949219-29.2947998z" fill="#fb5657"/><path d="m309.4560547 298.4936523c-4.4111328-1.7216797-7.5449219-6.0170898-7.5449219-11.0307617 0-5.9335938 4.4287109-10.9765625 10.3017578-11.7299805l11.9086914-1.5273438-1.5336914-11.9077148c-.0898438-.6982422-.1337891-1.3398438-.1337891-1.9614258 0-8.3408203 6.7861328-15.1269531 15.1269531-15.1269531 4.3310547 0 8.4638672 1.8681641 11.3398438 5.1259766l6.6088867 7.4858398-.6069336.15625c-25.7548828 6.6357422-38.1113281 23.9638672-45.4667969 40.5161133zm68.7841797-9.8930664c-4.5893555 0-8.3232422-3.7333984-8.3232422-8.3227539v-44.5439453c0-9.5366211 7.7583008-17.2949219 17.2949219-17.2949219s17.2949219 7.7583008 17.2949219 17.2949219v26.6000977c-.003418 1.1767578-.0947266 2.4306641-.2792969 3.8012695-1.8066406 12.7739258-12.9833984 22.465332-25.9873047 22.465332z" fill="#ff7b82"/><path d="m411.7999878 398.6999512c-5.3599854 10-16.4799805 27.4300537-29.9099731 30.0500488-13.4200439-2.6199951-24.5400391-20.0500488-29.9100342-30.0500488-2.3499756-4.3999023-.5899658-9.9299316 3.9500122-11.9899902 2.1000366-.9499512 4.210022-1.6699219 5.9899902-2.2099609 1.3900146-.4200439 2.5599976-1.2700195 3.3800049-2.3800049s1.2999878-2.4799805 1.2999878-3.9400635c0-3.1899414 2.2800293-5.9299316 5.4200439-6.5h19.7399902c1.5800171.2800293 2.9299927 1.1101074 3.8999634 2.2700195.960022 1.1500244 1.5300293 2.6300049 1.5300293 4.2299805 0 2.9100342 1.8900146 5.4899902 4.6799927 6.3200684 1.7800293.5400391 3.8900146 1.2600098 5.9799805 2.2099609 4.5500488 2.0600586 6.3099976 7.5900879 3.9500122 11.9899902z" fill="#ffc200"/><path d="m381.8920898 416.1811523c-5.1738281-2.4741211-11.6499023-9.809082-17.5068359-19.8779297.3291016-.1074219.668457-.2138672 1.019043-.3203125 3.847168-1.1621094 7.1533203-3.4916992 9.5478516-6.7329102 1.2631836-1.7099609 2.2109375-3.5869141 2.8237305-5.5703125h8.2558594c1.8154297 5.8022461 6.421875 10.5385742 12.4165039 12.3222656.3251953.0986328.6420898.1982422.9511719.2988281-5.8476562 10.0703125-12.3237305 17.4057617-17.5073242 19.8803711z" fill="#fcdc45"/><g fill="#d13b42"><path d="m400.3256836 432.6884766c-1.9588623-4.1721191-3.8881226-7.8657227-5.5950317-10.9399414-3.916626 3.4758301-8.2415771 6.1091309-12.8381958 7.0058594-4.7355957-.9238281-9.1812134-3.6938477-13.1906128-7.326416-1.7087402 3.060791-3.6513062 6.7612305-5.6286621 10.9499512 4.956543 3.9953613 10.473938 6.9741211 16.5220337 8.1542969l2.2983398.4482422 2.2978516-.4482422c5.8908081-1.1494141 11.2782593-4.0046387 16.1342773-7.84375z"/><path d="m357.9174805 263.628418c0-3.3134766-2.6865234-6-6-6s-6 2.6865234-6 6v10.49646c3.5736084-1.8522949 7.5474854-3.3797607 11.9997559-4.5268555z"/></g></g></g><g fill="#edb4b4"><path d="m88.2583008 145.4855347v-11.0206909c0-15.6845703 4.4453125-24.1625977 4.4726562-24.2143555 1.6064453-2.8979492.5595703-6.5498047-2.3388672-8.15625-2.8979492-1.6074219-6.5507812-.5600586-8.15625 2.3388672-.2441406.4399414-5.9775391 11.0019531-5.9775391 30.0317383 0 0 4.447937 6.0219727 12 11.0206909z"/><path d="m423.7416992 145.4855347v-11.0206909c0-15.6845703-4.4453125-24.1625977-4.4726563-24.2143555-1.6064453-2.8979492-.5595703-6.5498047 2.3388672-8.15625 2.8979492-1.6074219 6.5507812-.5600586 8.15625 2.3388672.2441406.4399414 5.9775391 11.0019531 5.9775391 30.0317383 0 0-4.447937 6.0219727-12 11.0206909z"/></g></svg>