<svg height="464pt" viewBox="0 0 464.00144 464" width="464pt" xmlns="http://www.w3.org/2000/svg"><path d="m323.089844 104h68.910156l72-72h-184l32-32h-92c-28.71875 0-52 23.28125-52 52 .019531 2.453125.210938 4.902344.578125 7.328125.457031 4.828125 1.5625 9.570313 3.277344 14.105469l71.34375 188.167968-99.140625-25.847656c-34.621094-8.882812-71.402344-1.21875-99.59375 20.746094-28.191406 21.96875-44.613282 55.761719-44.464844 91.5-.226562 63.847656 51.355469 115.785156 115.199219 116h267.640625c44.972656-.148438 81.308594-36.726562 81.160156-81.695312 0-.648438-.0625-1.273438-.078125-1.910157-.015625-.640625.078125-1.058593.078125-1.601562v-4.289063c0-14.753906-3.832031-29.257812-11.117188-42.085937zm0 0" fill="#f09e3e"/><path d="m429.496094 291.273438c-133.496094 104.726562-331.703125 125.527343-410.886719 119.832031 21.09375 32.925781 57.488281 52.855469 96.589844 52.894531h267.640625c44.972656-.148438 81.308594-36.726562 81.160156-81.695312 0-.648438-.0625-1.273438-.078125-1.910157-.015625-.640625.078125-1.058593.078125-1.601562v-4.289063c0-14.753906-3.832031-29.257812-11.117188-42.085937zm0 0" fill="#eb922a"/><path d="m144 384h16v16h-16zm0 0" fill="#ffb433"/><path d="m72 304h16v16h-16zm0 0" fill="#ffb433"/><g fill="#d98416"><path d="m328 104c0-4.417969-3.582031-8-8-8h-40c-4.417969 0-8 3.582031-8 8s3.582031 8 8 8h40c4.417969 0 8-3.582031 8-8zm0 0"/><path d="m344 144c0-4.417969-3.582031-8-8-8h-40c-4.417969 0-8 3.582031-8 8s3.582031 8 8 8h40c4.417969 0 8-3.582031 8-8zm0 0"/><path d="m368 184c0-4.417969-3.582031-8-8-8h-40c-4.417969 0-8 3.582031-8 8s3.582031 8 8 8h40c4.417969 0 8-3.582031 8-8zm0 0"/><path d="m392 224c0-4.417969-3.582031-8-8-8h-40c-4.417969 0-8 3.582031-8 8s3.582031 8 8 8h40c4.417969 0 8-3.582031 8-8zm0 0"/><path d="m408 256h-40c-4.417969 0-8 3.582031-8 8s3.582031 8 8 8h40c4.417969 0 8-3.582031 8-8s-3.582031-8-8-8zm0 0"/></g><path d="m248 152h16v16h-16zm0 0" fill="#ffb433"/><path d="m304 400h16v16h-16zm0 0" fill="#ffb433"/><path d="m392 368h16v16h-16zm0 0" fill="#ffb433"/><path d="m192 320h16v16h-16zm0 0" fill="#ffb433"/><path d="m243.222656 261.570312v-.007812c1.03125-4.296875 5.351563-6.941406 9.648438-5.910156l61.21875 14.695312c4.296875 1.03125 6.945312 5.347656 5.914062 9.644532l-.003906.007812c-1.03125 4.296875-5.347656 6.945312-9.644531 5.914062l-61.222657-14.695312c-4.296874-1.03125-6.941406-5.351562-5.910156-9.648438zm0 0" fill="#d98416"/></svg>