<?xml version="1.0" encoding="iso-8859-1"?>
<!-- Generator: Adobe Illustrator 21.0.0, SVG Export Plug-In . SVG Version: 6.00 Build 0)  -->
<svg xmlns="http://www.w3.org/2000/svg" xmlns:xlink="http://www.w3.org/1999/xlink" version="1.1" id="Capa_1" x="0px" y="0px" viewBox="0 0 512 512" style="enable-background:new 0 0 512 512;" xml:space="preserve" width="512" height="512">
<g>
	<path style="fill:#EEEEEE;" d="M255.999,512c-25.553,0-30.486-24.407-30.823-28.145c-0.697-7.733,1.439-14.957,5.491-20.734   c2.864-4.083,4.228-9.036,4.228-14.028l0.002-114.283l42.211-0.001l-0.002,114.73c0,4.776,1.329,9.51,4.097,13.396   c3.623,5.086,5.752,11.312,5.752,18.03C286.954,498.105,273.095,512,255.999,512z"/>
	<path style="fill:#F57C7C;" d="M322.964,271.796c-6.537,7.973-9.028,18.452-6.727,28.493c1.033,4.505,1.578,9.198,1.578,14.02   c0,34.336-27.675,62.182-61.815,62.182s-61.815-27.846-61.815-62.182c0-4.822,0.546-9.514,1.578-14.02   c2.302-10.041-0.19-20.519-6.727-28.493C160.82,237.378,142.5,184.06,142.5,132.78C142.5,47.388,193.317,0,256,0   s113.5,47.388,113.5,132.78C369.5,184.06,351.18,237.378,322.964,271.796z"/>
	<path style="fill:#EF6161;" d="M369.5,132.78C369.5,47.388,318.683,0,256,0c-5.251,0-10.416,0.341-15.477,1   c55.36,7.214,98.023,53.541,98.023,131.78c0,51.28-18.32,104.598-46.536,139.016c-6.537,7.973-9.028,18.452-6.727,28.493   c1.033,4.505,1.579,9.198,1.579,14.02c0,28.961-19.689,53.303-46.338,60.215c4.946,1.283,10.133,1.966,15.477,1.966   c34.14,0,61.815-27.846,61.815-62.182c0-4.821-0.546-9.515-1.579-14.02c-2.301-10.041,0.19-20.52,6.727-28.493   C351.18,237.378,369.5,184.06,369.5,132.78z"/>
	<path style="fill:#FAB2B2;" d="M322.965,271.793c-6.542,7.973-9.028,18.451-6.727,28.495c1.032,4.502,1.579,9.199,1.579,14.021   c0,34.336-27.673,62.182-61.816,62.182s-61.816-27.846-61.816-62.182c0-3.359,0.268-6.665,0.784-9.88   c37.506-11.338,48.384-42.572,38.146-61.501c-8.244-15.226-29.593-25.311-26.993-42.423c3.075-20.181,30.614-20.871,41.015-22.046   c39.209-4.43,76.53-22.592,104.915-49.84c5.2-4.996,10.38-13.413,15.818-21.356c1.073,8.087,1.63,16.596,1.63,25.518   C369.5,184.062,351.185,237.374,322.965,271.793z"/>
	<path style="fill:#F57C7C;" d="M369.5,132.78c0-8.922-0.557-17.431-1.63-25.518c-5.438,7.943-10.617,16.359-15.818,21.356   c-4.35,4.176-8.911,8.135-13.655,11.867c-1.72,48.861-19.577,98.61-46.386,131.307c-6.542,7.973-9.028,18.451-6.727,28.495   c1.032,4.502,1.579,9.199,1.579,14.021c0,28.961-19.688,53.304-46.339,60.216c4.946,1.283,10.132,1.966,15.477,1.966   c34.143,0,61.816-27.846,61.816-62.182c0-4.821-0.547-9.519-1.579-14.021c-2.301-10.044,0.186-20.522,6.727-28.495   C351.185,237.374,369.5,184.062,369.5,132.78z"/>
</g>















</svg>
