<svg id="Layer_1" viewBox="0 0 290 279.41" xmlns="http://www.w3.org/2000/svg" data-name="Layer 1"><g transform="translate(-5 -10.29)"><path d="m189.18 155.22c-4.34 3.14-19 5.49-24 8.58-3.82 5.56.15 15.37-3.41 19.92 12.68-6.92 68.64-36.19 120-42.34 5.17-.73 12.76-2.8 13.25-5-4.84-2.87-78.83 3.12-105.84 18.84z" fill="#73a550"/><path d="m140.51 177.66c-7.21 8-12.83 14.59-20.77 19.51l1.11 7.3c-.86 4.72-7.81 3.71-11.19 7.31l3.8 5.83c.69 3.28 1.86 8.87 2.44 12.16 4.27-4.28 8.93-8.14 14.28-12.57a316.65 316.65 0 0 0 54.69-59.46c-9.87 5.75-31.53 14.85-44.36 19.92z" fill="#81c157"/><path d="m181.9 129.37c12.57-3.74 38.45-18.82 51.41-29.48 4.43-3.64 15.78-15.58 20.27-19a124.57 124.57 0 0 1 21.42-13.44.32.32 0 0 0 .19-.42.31.31 0 0 0 -.38-.24c-5.71.84-13.26 2-16.83 2.6-5.16.91-38.13 23-49.89 31.79-4.42 6.21-19.83 20.39-26.19 28.19z" fill="#a8cc62"/><path d="m237 96.52c-30.82 28.27-80.21 62.41-82.61 63.9-6 6.79-14.09 17.93-19.74 24.2 12.86-5.28 37.58-17.55 47.34-23.5 5.06-3.09 9.75-6.22 14.09-9.36 19.9-14.43 32.54-28.93 41.55-39.28 2.15-2.47 4-4.6 5.75-6.5 6-6.5 16.29-21.09 23-31.75a137.69 137.69 0 0 0 -11.86 8.15c-3.65 2.81-13.69 11.03-17.52 14.14z" fill="#9ccb65"/><path d="m251.64 10.29a11.22 11.22 0 0 0 -8.4 3.78l-57.16 61.09c-3.7 5.68-20.85 24.33-25.55 30.48 15.37-9.37 35.52-23.55 41.17-26 0-.05 5-5.18 5.06-5.24a.85.85 0 0 1 .07-.17s0 0 0-.06c31.34-45.9 41.56-59.69 45.08-63.84z" fill="#a8cc62"/><path d="m83 174.81c13.63-12.34 16.7-15.35 22.8-19.74 4.56-3.28 6.69-5.68 13-12 8.43-9.9 38.4-60 44.25-69.83-3.5 1.71-11.66 7-26.67 23.25-1.77 1.92-4 4.39-6.7 7.32-13.74 15-39.14 42.86-63 65.8 3 .91 8.34 2.79 11.17 3.79z" fill="#81c157"/><path d="m76.5 180c-.39-.13-3.63-2.23-4-2.35-17.6 16.18-41.45 40.85-47.18 45.96 6.49 1.66 13.52 4.4 18.89 8.89 3.79-3.5 28.94-27.97 47.88-45.5-5.69-6.56-11.83-5.72-15.59-7z" fill="#e0f1c5"/><path d="m125.64 134.79a.86.86 0 0 1 -.2.15 145.37 145.37 0 0 1 -16.5 14.76c-6 4.3-15.71 12.56-29 24.56 3.09 1.46 5.73 7.61 8.47 9.46l10.59-6.06c48-40.08 71.13-80.36 71.36-80.66 29.32-36 36.19-62.91 40.34-77.4a2.73 2.73 0 0 0 -3.94-3.15 2.67 2.67 0 0 0 -1.19 1.34c-1.94 4.79-12.17 29.6-22.75 47.06-9.33 15.4-36 48.55-56.92 69.66z" fill="#699854"/><path d="m72.53 179.73c-4.53-5.06-10.34-3.22-12.61-3.36-.3 0-1.7 1.39-1.94 1.37l-1.19 1.09c-20.33 18.61-41.19 37.1-47.09 42.31a127.72 127.72 0 0 1 15.61 2.46c3.37-2.98 28.45-26.67 47.22-43.87z" fill="#c5e383"/><path d="m237.61 96.06c-12.78 10.46-34 23.38-46.5 26.2-8.87 10.79-25.49 31-35.63 42.51 13.26-8.69 62.61-43.91 82.13-68.71z" fill="#81c157"/><path d="m205.51 79.21-53 62.05c-12.91 13.74-28.67 32.74-49.43 52.85 4.19 6.57 8.57 16.18 9.63 20.29 3.12-3.33 6.24-6.7 9.31-10.07l2.88-3.16c27.73-30.4 85.42-93.67 98.65-117.64 9.92-18 15-30.48 17.08-35.95z" fill="#73a550"/><path d="m208.1 76.64a298.13 298.13 0 0 0 -37.74 20.36c-1 1.26-2 2.53-3.05 3.81-.19.28-23.74 34.3-72 74.5l-5 4.85c4.73 2.35 8.91 7.3 11.23 10.07l.57.68a12.93 12.93 0 0 1 2.14 3.72c.19.46.39.92.63 1.42 20.59-20 37.53-37 50.35-50.66 19.58-20.84 45.96-58.68 52.87-68.75z" fill="#81c157"/><path d="m56.94 251.45 46.14-42.64c-3.63-10.27-7.08-15.7-10.08-18.71-18.76 17.37-43.4 39.8-47.45 43.59.62.59 1.23 1.2 1.79 1.85a49.16 49.16 0 0 1 9.6 15.91z" fill="#c5e383"/><path d="m60.75 268.71c.14.75.28 1.5.44 2.25a18.9 18.9 0 0 1 -.77 11.29c9.17-7.65 29.76-25.54 49.24-45.62-.21-2.82-1.05-15.52-1.69-19.5-18.6 19.41-44.13 48.68-47.22 51.58z" fill="#c5e383"/><path d="m58.27 264.94a77.17 77.17 0 0 0 -2.57-11.58 47 47 0 0 0 -9.7-16.65c-10.67-12.28-34.59-13.71-38.11-13.88-.89 1.17-3.89 5.54-2.54 9.76a25.43 25.43 0 0 0 3.28 6c1.79 2.69 3.49 5.24 2.66 7.72-.12.35-.26.76-.43 1.22-1.44 4-4.44 12.34.43 18a43.69 43.69 0 0 0 5.83 5.6 37.93 37.93 0 0 1 8.32 9.12c6.15 9 17.66 10 23.49 9.23a11.82 11.82 0 0 0 4.85-1.83c.06 0 .74-.58 2-1.56a13.24 13.24 0 0 0 1.62-1.9c2.42-3.46 3.17-8 2.11-12.87-.51-2.12-.89-4.32-1.24-6.38z" fill="#81c157"/><path d="m108 220.77c-.86-3.63-3.61-10.31-4.9-13.89l-46.16 44.57a113.26 113.26 0 0 1 3.06 13.19c.11.65.61 3.4.72 4.06 5.28-4.9 29.71-29.54 47.28-47.93z" fill="#e0f1c5"/><path d="m87.06 183.72-50.06 44.16s12.37 6.9 16.44 16.16l45.43-45.48s1.34-11.09-11.81-14.84z" fill="#90d166"/><path d="" fill="#c4a56c"/><path d="m66.64 169.58-6.72 6.78a33.34 33.34 0 0 1 12.61 3.36c.46.17 1 .35 1.54.54a33.3 33.3 0 0 1 16.37 10.88c3.19 3.16 8 7.95 12 19.67a100.32 100.32 0 0 1 3.88 12.8s0 0 0 0l.1.61c.54 3.4 1.57 9.83 2 13.57l7.44-8.09s1.14-23.3-16.86-44.7c0 0-13.23-14.93-32.36-15.42z" fill="#c4a56c"/><path d="m53.49 244s-2.55 1.17-3.19 2.25a6.47 6.47 0 0 0 -.52 7.13c1.86 3.79 7.11 0 7.15-2s-.55-6.47-3.44-7.38z" fill="#67a83d"/><path d="m25.32 223.61s4.93-2.33 11.72 4.28c0 0 1 7.94-7.31 7.13s-8.09-6.68-7.87-9 3.46-2.41 3.46-2.41z" fill="#67a83d"/><g fill="#72b547"><path d="m37 227.88s4-1.26 8.5 2.75 8.29 10.32 7.94 13.41-6.53 6.48-13.95-1.54-5.07-12.29-2.49-14.62z"/><path d="m7.89 222.83s1.34-1.27 1.82-1.69 7.48-3.37 15.61 2.46c0 0-3.08 8.21-10.87 7.4s-8.52-6-6.56-8.17z"/><path d="m56.94 251.45s5.27 5.86 3.81 17.26c0 0-4.11 3.94-7.24-.44s-4.51-12.27-1.35-14.27a25.06 25.06 0 0 1 4.78-2.55z"/></g><path d="m60.75 268.71a7.51 7.51 0 0 0 -5.06 2.82c-1.83 2.56-2.83 5.57-1.38 8.68s2.31 6.18 6.11 2 1.43-12.65.33-13.5z" fill="#67a83d"/><path d="m36.28 246.27a8.41 8.41 0 0 0 -6.12-5.9 5.87 5.87 0 0 0 -2.94.06c-3.41 1-2.67 7.93 0 11s10.39 4.13 9.87-1.07a21.15 21.15 0 0 0 -.81-4.09z" fill="#67a83d"/><path d="m27.49 262.8a6.42 6.42 0 0 0 -4.67-4.5 4.48 4.48 0 0 0 -2.24 0c-2.61.79-2 6.05 0 8.41s7.92 3.15 7.53-.82a16.13 16.13 0 0 0 -.62-3.09z" fill="#9fdd76"/><path d="m45.75 268.06a6.42 6.42 0 0 0 -4.67-4.5 4.48 4.48 0 0 0 -2.24 0c-2.61.79-2 6.05 0 8.41s7.92 3.15 7.53-.82a16.13 16.13 0 0 0 -.62-3.09z" fill="#94d669"/></g></svg>