<svg id="Layer_1" height="512" viewBox="0 0 512 512" width="512" xmlns="http://www.w3.org/2000/svg" data-name="Layer 1"><path d="m347.89 130.65c16.42-33.08 36.56-61.78 47.41-76.32a.739.739 0 0 1 1.24.8c-14.51 25.82-49.05 96.89-62.93 208.73a571.564 571.564 0 0 1 -15.38 78.18 179.344 179.344 0 0 1 -20.94 6.76c14.82-49.78 24.59-104.54 26.43-140.44 6.18-14.82 9.78-31.79 11.63-49.34 3.7-9.65 7.98-19.18 12.54-28.37z" fill="#689b2d"/><path d="m363.78 43.54c2.87 13.35-2.79 17.08-7.11 18.05a13.184 13.184 0 0 1 -4.28.24c3.15-14.98-1.5-35.97-1.5-35.97a2.235 2.235 0 0 1 .73 0c2.88.47 9.05 3.22 12.16 17.68z" fill="#dbe293"/><path d="m356.67 61.59c1.35 6.22-1.89 33.82-8.78 69.06-4.56 9.19-8.84 18.72-12.54 28.37a319.807 319.807 0 0 0 1.53-38.14v-.01c5.46-26.95 12.85-60.11 12.85-60.11a27.776 27.776 0 0 0 2.66 1.07 13.184 13.184 0 0 0 4.28-.24z" fill="#9be147"/><path d="m350.89 25.86s4.65 20.99 1.5 35.97a27.776 27.776 0 0 1 -2.66-1.07c-17.48-8.26-3.98-28.98-.44-33.91a2.452 2.452 0 0 1 1.6-.99z" fill="#ebf4b8"/><path d="m319.03 140.42c8.43-51.91 7.78-89.77 6.57-108.26a.742.742 0 0 1 1.47-.19c3.49 17.74 9.24 52.14 9.81 88.9v.01a319.807 319.807 0 0 1 -1.53 38.14c-1.85 17.55-5.45 34.52-11.63 49.34-14.91 35.79-29.78 89.17-37.06 142.85-6.22 1.24-12.38 2.16-18.45 2.8a561.757 561.757 0 0 1 24.09-106.36 684.852 684.852 0 0 0 26.73-107.23z" fill="#739937"/><path d="m323.72 208.36c-1.84 35.9-11.61 90.66-26.43 140.44q-5.325 1.38-10.63 2.41c7.28-53.68 22.15-107.06 37.06-142.85z" fill="#436f1e"/><path d="m291 28.87c7.83 20.85 23.19 66.04 28.03 111.55a684.852 684.852 0 0 1 -26.73 107.23c17.65-111.31 4.06-189.5-2.72-218.35a.743.743 0 0 1 1.42-.43z" fill="#436f1e"/><path d="m313.85 357.91a537.734 537.734 0 0 1 -31.08 78.51 399.147 399.147 0 0 1 .17-45.72c3.14-8 7.21-17.46 10.03-25.9a145.085 145.085 0 0 0 20.88-6.89z" fill="#689b2d"/><path d="m282.77 436.42c1.03 17.97 3.5 34.92 7.76 49.96a3.176 3.176 0 0 1 -3.5 4.02l-15.4-2.18a3.2 3.2 0 0 1 -2.7-2.58c-.38-2.02-.97-5.4-1.6-10.01a418.137 418.137 0 0 1 -3.62-58.09c.04-14.25.69-30.3 2.38-47.83 6.32-.76 12.62-1.77 18.81-3.05-.84 8.02-1.5 16.05-1.96 24.04a399.147 399.147 0 0 0 -.17 45.72z" fill="#739937"/><path d="m292.97 364.8c-2.82 8.44-6.89 17.9-10.03 25.9.46-7.99 1.12-16.02 1.96-24.04q4.08-.84 8.07-1.86z" fill="#436f1e"/><path d="m268.29 27.22c8.6 31.79 13.17 118.63 8.97 176.2-2.47 33.76-14.68 78.96-23.88 125.64.1-23.69-.6-49.61-2.35-77.01-.08-1.2-.15-2.39-.23-3.58v-.02c16.53-105.17 20.03-191.57 16.04-220.94a.741.741 0 0 1 1.45-.29z" fill="#739937"/><path d="m267.33 475.63h-.01c-4.97-8.16-22.77-25.16-22.77-25.16.36-2.4.71-4.9 1.07-7.49l18.08-25.44h.01a418.137 418.137 0 0 0 3.62 58.09z" fill="#689b2d"/><path d="m253.38 329.06c-.04 9.02-.2 17.72-.46 26.05-6.83.27-13.47.23-19.85-.04-1.4-53.09-7.45-108.73-6.72-146.88 1.1-57.72 13.63-143.76 25.12-174.63a.738.738 0 0 1 1.41.43c-6.59 28.54-8.6 109.94-2.08 214.46v.02c.08 1.19.15 2.38.23 3.58 1.75 27.4 2.45 53.32 2.35 77.01z" fill="#436f1e"/><path d="m252.17 371.04v.02c-1.42 27.93-3.9 52.48-6.55 71.92-.36 2.59-.71 5.09-1.07 7.49-1.74 11.74-3.5 21.21-5.04 27.93a225.758 225.758 0 0 1 -13.73-24.75l.01-.01c5.96-24.54 7.96-53.74 8.08-81.8 5.97-.1 12.1-.35 18.3-.8z" fill="#436f1e"/><path d="m245.8 487.6a3.186 3.186 0 0 1 -1.89 4.99l-15.2 3.34a3.188 3.188 0 0 1 -3.42-1.48c-2.04-3.4-6.31-10.85-11.94-22.59 1.89-8.56 3.97-19.74 5.64-33.42 2.19 5.26 4.44 10.33 6.79 15.21a225.758 225.758 0 0 0 13.73 24.75q3.03 4.74 6.29 9.2z" fill="#739937"/><path d="m228.7 33.11a.741.741 0 0 1 1.37.56c-9.39 28.09-30.17 104.45-22.82 216.9a684.814 684.814 0 0 1 -16.71-108.97c9-44.87 28.44-88.46 38.16-108.49z" fill="#739937"/><path d="m222.15 371.85a470.373 470.373 0 0 1 -3.16 66.59c-1.67 13.68-3.75 24.86-5.64 33.42-1.96 8.86-3.72 14.93-4.63 18.11a3.181 3.181 0 0 1 -2.92 2.32l-15.54.75a3.183 3.183 0 0 1 -3.12-4.33c5.57-14.43 9.72-30.95 12.56-48.61a389.7 389.7 0 0 0 4.47-45.78v-.02c.31-7.65.43-15.37.35-23.07 5.51.31 11.43.54 17.63.62z" fill="#436f1e"/><path d="m207.25 250.57.06.27a590.914 590.914 0 0 1 14.37 103.5c-6.32-.54-12.28-1.27-17.8-2.1v-.01c-2.72-52.3-13.07-107.63-24.25-143.42-4.79-15.33-6.82-32.55-7.04-50.19-.62-49.58 13.05-102.46 19.91-125.77a.74.74 0 0 1 1.44.33c-2.9 18.31-7.02 55.95-3.4 108.42a684.814 684.814 0 0 0 16.71 108.97z" fill="#436f1e"/><path d="m204.52 371.23c.08 7.7-.04 15.42-.35 23.07-2.01-6.93-5.22-16.32-6.98-23.54 2.35.17 4.8.33 7.33.47z" fill="#3c5921"/><path d="m204.17 394.3v.02a389.7 389.7 0 0 1 -4.47 45.78c-2.34-6.08-4.79-12.78-7.24-19.99-3.73-10.94-7.47-23.03-10.85-35.84-1.33-5.01-2.6-10.14-3.8-15.35 5.12.61 11.73 1.29 19.38 1.84 1.76 7.22 4.97 16.61 6.98 23.54z" fill="#739937"/><path d="m203.88 352.23v.01c-3.99-.61-7.74-1.27-11.23-1.94-10.13-50.81-14.48-105.67-13.02-141.49 11.18 35.79 21.53 91.12 24.25 143.42z" fill="#3c5921"/><path d="m181.61 384.27c3.38 12.81 7.12 24.9 10.85 35.84-9.15 35.28-19.82 59.85-22.99 66.53a3.179 3.179 0 0 1 -3.26 1.8l-15.45-1.83a3.188 3.188 0 0 1 -2.37-4.79c15.36-26 26.38-61.42 33.21-97.55z" fill="#3c5921"/><path d="m179.63 208.81c-1.46 35.82 2.89 90.68 13.02 141.49-7.61-1.47-13.95-3.03-18.66-4.32-4.3-24.32-8.38-53.72-9.3-82.82-.43-13.79-1.23-27-2.32-39.61q-.87-10.125-1.99-19.73v-.01c-9.16-79.44-29.38-132.34-39.18-154.31a.742.742 0 0 1 1.31-.69c12.09 19.79 37.18 64.02 50.08 109.81.22 17.64 2.25 34.86 7.04 50.19z" fill="#739937"/><path d="m162.37 223.55h-.01c-17.43-31.38-28.08-48.48-34.41-66.3a13.158 13.158 0 0 0 4.15-1.1 24.243 24.243 0 0 0 2.82-2.46s11.96 26.19 25.46 50.12v.01q1.11 9.615 1.99 19.73z" fill="#9be147"/><path d="m124.27 121.92c4.82 3.54 23.51 18.64 10.65 31.77a24.243 24.243 0 0 1 -2.82 2.46c-12.23-18.53-10.36-34.45-10.36-34.45a2.414 2.414 0 0 1 2.53.22z" fill="#dbe293"/><path d="m132.1 156.15a13.158 13.158 0 0 1 -4.15 1.1c-4.4.41-10.93-1.37-12.32-14.96-1.5-14.71 3.52-19.24 6.11-20.59 0 0-1.87 15.92 10.36 34.45z" fill="#ebf4b8"/><path d="m195.61 384.27c-1.206-4.542-2.355-9.193-3.454-13.9-5.531-.463-10.388-.976-14.346-1.447 1.2 5.21 2.47 10.34 3.8 15.35 3.38 12.81 7.12 24.9 10.85 35.84 2.45 7.21 4.9 13.91 7.24 19.99 1.554-9.654 2.714-19.649 3.514-29.825-2.628-8.211-5.207-16.923-7.604-26.008z" fill="#5e7532"/><path d="m176.18 223.55c-.58-6.75-1.18-13.32-2.18-19.73v-.01c-3-32.3-9.088-60.217-15.027-83.448a535.69 535.69 0 0 0 -36.558-71.552c-.49-.79-1.832-.15-1.452.69 9.8 21.97 30.037 74.87 39.037 154.31v.01c1 6.41 1.6 12.98 2.18 19.73 1.09 12.61 1.985 25.82 2.415 39.61.92 29.1 5.047 58.5 9.348 82.82 3.879 1.062 8.895 2.308 14.79 3.535-4.243-24.223-9.141-57.832-10.043-86.355-.43-13.79-1.42-27-2.51-39.61z" fill="#5e7532"/><path d="m286.66 351.21q5.295-1.035 10.63-2.41a179.344 179.344 0 0 0 20.94-6.76c1.46-.57 2.93-1.17 4.39-1.79a2.456 2.456 0 0 1 .98-.2 2.545 2.545 0 0 1 2.53 2.43 14.25 14.25 0 0 1 -8.19 13.62c-1.34.63-2.71 1.23-4.09 1.81a145.085 145.085 0 0 1 -20.88 6.89q-3.99 1.02-8.07 1.86c-6.19 1.28-12.49 2.29-18.81 3.05-4.65.57-9.3 1.01-13.92 1.33-6.2.45-12.33.7-18.3.8-3.99.06-7.91.06-11.72.01-6.2-.08-12.12-.31-17.63-.62-2.53-.14-4.98-.3-7.33-.47-7.65-.55-14.26-1.23-19.38-1.84-.74-.09-1.45-.18-2.13-.26a11.542 11.542 0 0 1 -10.08-10.75l-.4-6.44a5.738 5.738 0 0 1 7.26-5.91q.735.21 1.53.42c4.71 1.29 11.05 2.85 18.66 4.32 3.49.67 7.24 1.33 11.23 1.94 5.52.83 11.48 1.56 17.8 2.1 3.68.32 7.49.56 11.39.73 6.38.27 13.02.31 19.85.04q7.515-.285 15.29-1.1c6.07-.64 12.23-1.56 18.45-2.8z" fill="#9be147"/><path d="m225.52 371.23c-2.53-.14-4.98-.3-7.33-.47-7.65-.55-14.26-1.23-19.38-1.84-.74-.09-1.45-.18-2.13-.26a11.542 11.542 0 0 1 -10.08-10.75l-.4-6.44a5.728 5.728 0 0 1 .372-2.419c-4.945-1.074-9.192-2.143-12.582-3.071q-.8-.21-1.53-.42a5.738 5.738 0 0 0 -7.26 5.91l.4 6.44a11.542 11.542 0 0 0 10.08 10.75c.68.08 1.39.17 2.13.26 5.12.61 11.73 1.29 19.38 1.84 2.35.17 4.8.33 7.33.47 5.51.31 11.43.54 17.63.62 3.81.05 7.73.05 11.72-.01q2.04-.034 4.107-.095c-4.33-.114-8.502-.293-12.457-.515z" fill="#8ac13a"/><g fill="#bcbf79"><path d="m121.741 124.7a3.01 3.01 0 0 1 -.778-.1 3.1 3.1 0 0 1 -2.155-3.549c.877-4.794-1.216-6.016-1.306-6.066a.734.734 0 0 0 .11.053 3.733 3.733 0 0 1 7.045.629 15.338 15.338 0 0 1 .029 6.592 3 3 0 0 1 -2.945 2.441z"/><path d="m350.892 28.856a3 3 0 0 1 -2.635-1.561 13.456 13.456 0 0 1 -1.842-6.69 3.806 3.806 0 0 1 6.867-2.192l.069-.053c-.357.3-2.019 2 .132 5.988a3.077 3.077 0 0 1 -.882 3.971 2.99 2.99 0 0 1 -1.709.537z"/></g></svg>