<svg height="512pt" viewBox="0 0 512 512.00022" width="512pt" xmlns="http://www.w3.org/2000/svg" xmlns:xlink="http://www.w3.org/1999/xlink"><linearGradient id="a"><stop offset="0" stop-color="#ffb92d"/><stop offset="1" stop-color="#f59500"/></linearGradient><linearGradient id="b" gradientTransform="matrix(1.003319 .0351373 -.0351373 1.003319 16.451249 -8.180074)" gradientUnits="userSpaceOnUse" x1="230.784" x2="291.7607" xlink:href="#a" y1="182.6875" y2="268.993"/><linearGradient id="c"><stop offset="0" stop-color="#be3f45" stop-opacity="0"/><stop offset="1" stop-color="#be3f45"/></linearGradient><linearGradient id="d" gradientTransform="matrix(1.003319 .0351373 -.0351373 1.003319 16.451249 -8.180074)" gradientUnits="userSpaceOnUse" x1="286.4511" x2="232.0155" xlink:href="#c" y1="264.5685" y2="186.8982"/><linearGradient id="e" gradientTransform="matrix(1.003319 .0351373 -.0351373 1.003319 16.451249 -8.180074)" gradientUnits="userSpaceOnUse" x1="189.6467" x2="231.0564" xlink:href="#c" y1="144.8384" y2="209.541"/><linearGradient id="f" gradientTransform="matrix(1.003319 .0351373 -.0351373 1.003319 16.451249 -8.180074)" gradientUnits="userSpaceOnUse" x1="269.1719" x2="210.9961" xlink:href="#c" y1="236.0679" y2="155.5886"/><linearGradient id="g" gradientTransform="matrix(1.003319 .0351373 -.0351373 1.003319 16.451249 -8.180074)" gradientUnits="userSpaceOnUse" x1="210.4377" x2="314.9938" xlink:href="#c" y1="144.7721" y2="280.1971"/><linearGradient id="h" gradientTransform="matrix(1.003319 .0351373 -.0351373 1.003319 16.451249 -8.180074)" gradientUnits="userSpaceOnUse" x1="64.7455" x2="56.7793" xlink:href="#a" y1="324.0182" y2="424.5912"/><linearGradient id="i" gradientTransform="matrix(1.003319 .0351373 -.0351373 1.003319 16.451249 -8.180074)" gradientUnits="userSpaceOnUse" x1="60.3429" x2="60.3429" xlink:href="#c" y1="245.364" y2="381.4789"/><linearGradient id="j" gradientUnits="userSpaceOnUse" x1="442.2879634054" x2="334.8683094054" xlink:href="#c" y1="215.2433659972" y2="171.0707979972"/><linearGradient id="k" gradientTransform="matrix(.916982 -.408596 .408596 .916982 -88.55463 133.488419)" gradientUnits="userSpaceOnUse" x1="239.2155" x2="300.1921" xlink:href="#a" y1="228.6525" y2="314.9579"/><linearGradient id="l" gradientTransform="matrix(.916982 -.408596 .408596 .916982 -88.55463 133.488419)" gradientUnits="userSpaceOnUse" x1="294.8826" x2="240.447" xlink:href="#c" y1="310.5334" y2="232.8631"/><linearGradient id="m" gradientTransform="matrix(.916982 -.408596 .408596 .916982 -88.55463 133.488419)" gradientUnits="userSpaceOnUse" x1="198.0782" x2="239.4878" xlink:href="#c" y1="190.8033" y2="255.5059"/><linearGradient id="n" gradientTransform="matrix(.916982 -.408596 .408596 .916982 -88.55463 133.488419)" gradientUnits="userSpaceOnUse" x1="277.6035" x2="219.4276" xlink:href="#c" y1="282.0328" y2="201.5535"/><linearGradient id="o" gradientTransform="matrix(.916982 -.408596 .408596 .916982 -88.55463 133.488419)" gradientUnits="userSpaceOnUse" x1="218.8692" x2="323.4253" xlink:href="#c" y1="190.737" y2="326.162"/><linearGradient id="p" gradientTransform="matrix(.916982 -.408596 .408596 .916982 -88.55463 133.488419)" gradientUnits="userSpaceOnUse" x1="73.177" x2="65.2108" xlink:href="#a" y1="369.9832" y2="470.5562"/><linearGradient id="q" gradientTransform="matrix(.916982 -.408596 .408596 .916982 -88.55463 133.488419)" gradientUnits="userSpaceOnUse" x1="68.7744" x2="68.7744" xlink:href="#c" y1="291.329" y2="427.4438"/><path d="m78.457031 390.46875c.675781-.234375 1.347657-.476562 2.023438-.714844 17.875-6.675781 31.117187-22.105468 35.78125-22.261718 4.839843-.164063 7.882812-1.390626 7.882812-1.390626 183.007813-46.28125 379.355469-252.679687 379.355469-252.679687 9.605469-8.074219 10.492188-22.589844.105469-30.492187-.613281-.472657-.914063-.703126-1.527344-1.175782-7.394531-5.699218-9.421875-15.273437-5.40625-23.597656.324219-.675781.496094-1.019531.820313-1.710938 7.792968-16.351562-10.300782-33.507812-26.53125-27.433593-.738282.222656-1.109376.339843-1.847657.574219-8.933593 2.808593-18.601562-.421876-23.683593-7.828126-.417969-.605468-.628907-.914062-1.046876-1.527343-8.96875-13.007813-27.988281-11.402344-36.175781 1.242187-6.144531 6.988282-9.289062 10.449219-15.699219 17.316406-1.230468.886719-2.367187 1.917969-3.410156 3.082032-1.195312.199218-2.417968.304687-3.667968.292968-.773438 0-1.152344 0-1.921876-.007812-8.191406-.078125-14.75 3.855469-18.625 9.460938-86.015624 83.515624-187.664062 145.820312-298.53125 188.542968-.019531.011719-.03125.011719-.039062.007813-1.277344.507812-2.554688.992187-3.832031 1.46875-4.0625 2.019531-7.589844 5.363281-9.875 10.085937l-.855469 1.769532c-4.148438 8.589843-13.382812 13.496093-22.828125 12.136718l-1.941406-.277344c-18.832031-2.71875-31.917969 18.230469-21.222657 33.957032l1.101563 1.628906c5.355469 7.890625 4.992187 18.339844-.902344 25.835938l-1.214843 1.550781c-11.765626 14.941406-.175782 36.753906 18.796874 35.355469l1.957032-.140626c9.515625-.699218 18.382812 4.84375 21.925781 13.699219l.726563 1.828125c4.277343 10.691406 15.023437 15.230469 24.660156 13.335938 1.894531-.632813 3.777344-1.277344 5.648437-1.933594zm0 0" fill="url(#b)"/><path d="m503.605469 82.929688c-.613281-.472657-.914063-.703126-1.527344-1.175782-7.394531-5.699218-9.417969-15.273437-5.40625-23.597656.324219-.675781.496094-1.019531.820313-1.710938 0 0-91.894532 140.367188-362.664063 248.96875-55.179687 22.136719-93.183594 41.335938-117.925781 57.78125 2.082031.476563 4.304687.65625 6.636718.484376l1.957032-.140626c9.515625-.695312 18.386718 4.84375 21.925781 13.703126l.726563 1.824218c4.277343 10.691406 15.023437 15.230469 24.660156 13.335938 1.894531-.632813 3.777344-1.277344 5.648437-1.933594.675781-.234375 1.347657-.476562 2.023438-.710938 17.875-6.679687 31.117187-22.109374 35.78125-22.265624 4.839843-.164063 7.882812-1.390626 7.882812-1.390626 183.007813-46.28125 379.355469-252.675781 379.355469-252.675781 9.605469-8.078125 10.492188-22.59375.105469-30.496093zm0 0" fill="url(#d)"/><path d="m389.097656 41.871094c-1.195312.199218-2.417968.304687-3.667968.292968-.773438 0-1.152344 0-1.921876-.007812-8.191406-.078125-14.75 3.855469-18.625 9.460938-86.015624 83.515624-187.664062 145.820312-298.53125 188.542968-.019531.011719-.03125.011719-.039062.007813-1.277344.507812-2.554688.992187-3.832031 1.46875-4.0625 2.019531-7.589844 5.363281-9.875 10.085937l-.855469 1.769532c-4.148438 8.589843-13.382812 13.496093-22.828125 12.136718l-1.941406-.277344c-11.3125-1.632812-20.539063 5.277344-23.796875 14.460938 20.425781-5.136719 48.078125-20.34375 75.0625-31.351562 227.3125-92.746094 329.960937-226.988282 329.960937-226.988282-6.144531 6.988282-9.289062 10.449219-15.699219 17.316406-1.230468.886719-2.367187 1.917969-3.410156 3.082032zm0 0" fill="url(#e)"/><path d="m470.964844 29.011719s-99.898438 144.78125-355.683594 239.640625c-45.246094 16.78125-79.324219 30.613281-104.792969 42.027344.660157 5.621093-.863281 11.429687-4.53125 16.097656l-1.214843 1.546875c-10.320313 13.105469-2.671876 31.484375 12.160156 34.871093 24.746094-16.445312 62.75-35.644531 117.925781-57.777343 270.769531-108.605469 362.664063-248.972657 362.664063-248.972657 7.792968-16.351562-10.300782-33.507812-26.527344-27.433593zm0 0" fill="url(#f)"/><path d="m469.113281 29.585938c-8.933593 2.808593-18.601562-.421876-23.683593-7.828126-.417969-.605468-.628907-.914062-1.046876-1.527343-8.96875-13.007813-27.988281-11.402344-36.175781 1.242187 0 0-102.648437 134.242188-329.960937 226.988282-26.972656 11.007812-54.621094 26.207031-75.046875 31.347656-2.171875 6.105468-1.71875 13.21875 2.558593 19.503906l1.101563 1.628906c2.023437 2.980469 3.226563 6.324219 3.628906 9.738282 25.464844-11.414063 59.546875-25.246094 104.789063-42.027344 255.785156-94.859375 355.6875-239.640625 355.6875-239.640625-.742188.222656-1.113282.339843-1.851563.574219zm0 0" fill="url(#g)"/><path d="m135.027344 332.882812c10.695312 15.726563-2.390625 36.675782-21.222656 33.957032l-1.949219-.277344c-9.4375-1.363281-18.671875 3.546875-22.824219 12.132812l-.859375 1.773438c-2.246094 4.652344-5.710937 7.980469-9.714844 10-1.792969.917969-3.695312 1.5625-5.648437 1.933594-9.636719 1.894531-20.382813-2.644532-24.660156-13.335938l-.726563-1.824218c-3.542969-8.859376-12.410156-14.398438-21.925781-13.703126l-1.957032.140626c-18.972656 1.398437-30.5625-20.414063-18.796874-35.355469l1.214843-1.550781c5.894531-7.496094 6.257813-17.945313.902344-25.835938l-1.101563-1.628906c-10.695312-15.726563 2.390626-36.675782 21.222657-33.957032l1.941406.277344c9.445313 1.363282 18.675781-3.546875 22.828125-12.132812l.855469-1.773438c2.285156-4.71875 5.8125-8.066406 9.875-10.085937 1.230469-.605469 2.519531-1.101563 3.832031-1.464844.007812 0 .019531 0 .039062-.011719 10.027344-2.757812 21.757813 1.664063 26.273438 12.964844l.738281 1.824219c3.539063 8.859375 12.410157 14.398437 21.917969 13.703125l1.964844-.144532c18.972656-1.394531 30.5625 20.417969 18.796875 35.359376l-1.214844 1.546874c-5.902344 7.496094-6.269531 17.949219-.902344 25.835938zm0 0" fill="url(#h)"/><path d="m90.058594 322.25c4.023437 5.917969-.898438 13.804688-7.988282 12.78125l-.734374-.105469c-3.550782-.511719-7.027344 1.335938-8.589844 4.566407l-.324219.667968c-.84375 1.753906-2.148437 3.003906-3.65625 3.765625-.671875.34375-1.390625.585938-2.125.726563-3.628906.714844-7.671875-.992188-9.28125-5.019532l-.273437-.6875c-1.332032-3.332031-4.671876-5.417968-8.253907-5.15625l-.734375.054688c-7.144531.523438-11.507812-7.6875-7.078125-13.3125l.457031-.582031c2.21875-2.820313 2.355469-6.753907.339844-9.722657l-.414062-.613281c-4.023438-5.921875.898437-13.804687 7.988281-12.78125l.730469.101563c3.554687.511718 7.03125-1.335938 8.59375-4.566406l.320312-.667969c.859375-1.777344 2.1875-3.035157 3.71875-3.796875.460938-.226563.949219-.414063 1.441406-.550782.003907 0 .007813 0 .015626-.003906 3.773437-1.039062 8.1875.625 9.890624 4.878906l.273438.6875c1.335938 3.335938 4.671875 5.421876 8.25 5.15625l.742188-.050781c7.140624-.527343 11.503906 7.683594 7.074218 13.308594l-.457031.582031c-2.222656 2.820313-2.359375 6.753906-.339844 9.726563zm0 0" fill="url(#i)"/><path d="m498.4375 118.625c-16.316406 16.542969-70.628906 70.070312-142.003906 123.984375v.007813c-29.980469 22.640624-62.976563 45.347656-97.421875 65.414062 97.320312-131.964844 127.796875-234.164062 136.453125-272.414062 1.90625-2.054688 3.542968-3.84375 5.191406-5.648438 2.507812 5.039062 7.15625 8.792969 13.160156 10.027344.089844.019531.179688.039062.269532.050781.371093.078125.652343.128906.976562.191406v.007813c.1875.042968.390625.082031.640625.132812.230469.039063.453125.089844.671875.148438.179688.039062.363281.082031.542969.132812.082031.019532.160156.039063.242187.070313.210938.046875.421875.109375.621094.179687.28125.089844.5625.179688.84375.28125.089844.03125.179688.058594.261719.089844v.011719c.339843.128906.660156.257812.984375.398437.210937.089844.421875.191406.632812.292969.109375.050781.207032.109375.308594.160156.03125.011719.0625.019531.089844.039063.011718.011718.03125.011718.042968.019531.257813.132813.511719.273437.75.421875.261719.152344.511719.3125.765626.472656.210937.132813.421874.273438.621093.421875.523438.371094 1.015625.761719 1.496094 1.183594.210937.191406.429687.394531.632813.59375.210937.199219.410156.410156.613281.621094.1875.210937.390625.421875.570312.644531zm0 0" fill="url(#j)"/><path d="m168.550781 503.242188c.503907-.503907.996094-1.019532 1.5-1.527344 13.136719-13.84375 18.269531-33.515625 22.394531-35.703125 4.277344-2.273438 6.472657-4.710938 6.472657-4.710938 144.15625-121.863281 230.070312-393.472656 230.070312-393.472656 5.089844-11.472656-.480469-24.90625-13.28125-27.453125-.757812-.152344-1.132812-.230469-1.890625-.382812-9.140625-1.878907-15.164062-9.59375-15.207031-18.832032-.007813-.753906-.003906-1.136718-.015625-1.898437-.167969-18.113281-23.957031-25.59375-35.875-13.019531-.5625.523437-.847656.796874-1.410156 1.328124-6.792969 6.441407-16.898438 7.78125-24.714844 3.351563-.644531-.359375-.964844-.542969-1.613281-.910156-13.761719-7.757813-30.152344 2.03125-31.960938 16.988281-2.457031 8.972656-3.761719 13.460938-6.511719 22.445312-.71875 1.339844-1.289062 2.761719-1.710937 4.265626-.992187.703124-2.042969 1.335937-3.171875 1.871093-.691406.339844-1.035156.503907-1.730469.835938-7.394531 3.523437-11.5625 9.933593-12.589843 16.675781-40.660157 112.78125-104.679688 213.359375-185.566407 300.386719-.015625.015625-.023437.019531-.035156.023437-.925781 1.015625-1.859375 2.011719-2.800781 3-2.761719 3.597656-4.464844 8.152344-4.449219 13.398438l.011719 1.964844c.035156 9.535156-6.109375 18-15.195313 20.917968l-1.863281.601563c-18.117188 5.816406-20.6875 30.382812-4.179688 39.828125l1.707032.980468c8.273437 4.738282 12.527344 14.292969 10.519531 23.613282l-.410156 1.921875c-4.019531 18.589843 15.964843 33.109375 32.402343 23.527343l1.695313-.984374c8.246094-4.800782 18.648437-3.710938 25.714844 2.695312l1.453125 1.320312c8.535156 7.734376 20.179687 7.097657 28.011718 1.167969 1.421876-1.398437 2.832032-2.804687 4.230469-4.214843zm0 0" fill="url(#k)"/><path d="m415.707031 40.375c-.757812-.152344-1.132812-.226562-1.890625-.382812-9.140625-1.878907-15.164062-9.59375-15.207031-18.832032-.007813-.753906-.003906-1.136718-.015625-1.898437 0 0-21.007812 166.453125-216.695312 382.820312-39.878907 44.097657-65.609376 78.019531-80.632813 103.65625 2.078125-.488281 4.15625-1.300781 6.179687-2.476562l1.695313-.984375c8.246094-4.804688 18.648437-3.714844 25.714844 2.691406l1.453125 1.324219c8.535156 7.730469 20.179687 7.09375 28.011718 1.164062 1.421876-1.398437 2.832032-2.804687 4.226563-4.214843.507813-.503907 1-1.019532 1.503906-1.527344 13.136719-13.84375 18.269531-33.515625 22.390625-35.703125 4.28125-2.273438 6.476563-4.710938 6.476563-4.710938 144.15625-121.863281 230.070312-393.472656 230.070312-393.472656 5.089844-11.472656-.480469-24.902344-13.28125-27.453125zm0 0" fill="url(#l)"/><path d="m294.796875 53.710938c-.992187.703124-2.042969 1.335937-3.171875 1.871093-.691406.339844-1.035156.503907-1.730469.835938-7.394531 3.523437-11.5625 9.933593-12.589843 16.671875-40.660157 112.785156-104.679688 213.363281-185.566407 300.390625-.015625.015625-.023437.019531-.035156.023437-.925781 1.015625-1.859375 2.011719-2.800781 3-2.761719 3.597656-4.464844 8.152344-4.449219 13.398438l.011719 1.964844c.035156 9.535156-6.109375 18-15.195313 20.917968l-1.863281.601563c-10.882812 3.496093-16.144531 13.75-15.042969 23.433593 16.105469-13.574218 34.285157-39.371093 53.707031-61.101562 163.585938-183.054688 196.949219-348.722656 196.949219-348.722656-2.460937 8.976562-3.765625 13.464844-6.515625 22.449218-.714844 1.339844-1.285156 2.761719-1.707031 4.265626zm0 0" fill="url(#m)"/><path d="m362.71875 6.242188s-26.265625 173.929687-214.515625 371.375c-33.300781 34.925781-57.855469 62.308593-75.738281 83.734374 3.0625 4.765626 4.238281 10.65625 2.992187 16.457032l-.414062 1.921875c-3.523438 16.300781 11.410156 29.464843 26.226562 26 15.019531-25.632813 40.75-59.554688 80.628907-103.648438 195.6875-216.371093 216.695312-382.820312 216.695312-382.820312-.167969-18.113281-23.957031-25.59375-35.875-13.019531zm0 0" fill="url(#n)"/><path d="m361.308594 7.570312c-6.792969 6.441407-16.898438 7.78125-24.714844 3.351563-.644531-.359375-.964844-.542969-1.613281-.910156-13.761719-7.757813-30.152344 2.03125-31.960938 16.988281 0 0-33.359375 165.664062-196.949219 348.71875-19.417968 21.726562-37.59375 47.515625-53.695312 61.089844.726562 6.441406 4.253906 12.632812 10.851562 16.40625l1.707032.980468c3.125 1.789063 5.675781 4.265626 7.53125 7.160157 17.882812-21.429688 42.4375-48.8125 75.738281-83.734375 188.25-197.449219 214.515625-371.378906 214.515625-371.378906-.5625.523437-.847656.796874-1.410156 1.328124zm0 0" fill="url(#o)"/><path d="m194.125 426.675781c16.507812 9.445313 13.9375 34.007813-4.175781 39.828125l-1.875.605469c-9.078125 2.914063-15.222657 11.375-15.1875 20.914063l.003906 1.96875c.023437 5.164062-1.632813 9.679687-4.339844 13.25-1.210937 1.609374-2.636719 3.023437-4.230469 4.214843-7.832031 5.929688-19.476562 6.566407-28.011718-1.167969l-1.453125-1.320312c-7.066407-6.40625-17.46875-7.496094-25.714844-2.695312l-1.695313.984374c-16.4375 9.582032-36.421874-4.9375-32.402343-23.527343l.414062-1.921875c2.007813-9.320313-2.25-18.875-10.523437-23.613282l-1.707032-.980468c-16.507812-9.445313-13.9375-34.011719 4.179688-39.828125l1.867188-.601563c9.082031-2.917968 15.230468-11.382812 15.191406-20.917968l-.007813-1.964844c-.019531-5.246094 1.683594-9.800782 4.449219-13.398438.839844-1.085937 1.78125-2.09375 2.800781-3 .007813-.003906.015625-.007812.03125-.023437 7.800781-6.878907 20.28125-8.050781 29.296875.121093l1.460938 1.320313c7.070312 6.40625 17.46875 7.496094 25.707031 2.695313l1.703125-.988282c16.441406-9.578125 36.425781 4.941406 32.40625 23.527344l-.414062 1.925781c-2.015626 9.324219 2.238281 18.878907 10.523437 23.613281zm0 0" fill="url(#p)"/><path d="m149.050781 436.847656c6.214844 3.554688 5.246094 12.800782-1.574219 14.988282l-.703124.230468c-3.417969 1.097656-5.730469 4.28125-5.71875 7.871094l.003906.742188c.007812 1.945312-.613282 3.644531-1.632813 4.988281-.457031.605469-.992187 1.136719-1.59375 1.585937-2.949219 2.230469-7.332031 2.472656-10.542969-.441406l-.546874-.496094c-2.660157-2.414062-6.574219-2.820312-9.679688-1.015625l-.636719.371094c-6.1875 3.605469-13.710937-1.859375-12.199219-8.855469l.15625-.722656c.757813-3.511719-.847656-7.105469-3.960937-8.890625l-.640625-.367187c-6.214844-3.554688-5.246094-12.800782 1.570312-14.992188l.703126-.226562c3.417968-1.097657 5.734374-4.28125 5.71875-7.875l-.003907-.738282c-.003906-1.972656.636719-3.6875 1.675781-5.042968.316407-.40625.671876-.789063 1.054688-1.128907.003906 0 .007812 0 .011719-.007812 2.9375-2.589844 7.632812-3.03125 11.027343.046875l.550782.496094c2.660156 2.410156 6.574218 2.820312 9.675781 1.015624l.640625-.375c6.1875-3.601562 13.707031 1.859376 12.195312 8.859376l-.15625.722656c-.757812 3.507812.84375 7.105468 3.960938 8.886718zm0 0" fill="url(#q)"/></svg>