<svg height="512" viewBox="0 0 58 58" width="512" xmlns="http://www.w3.org/2000/svg"><g id="Page-1" fill="none" fill-rule="evenodd"><g id="040---Ciabatta"><path id="Path" d="m1.66 44.89 15.52-32.21c3.7161198-7.60007043 11.3621544-12.49168082 19.82-12.68 11.6 0 21 10.18 21 18.12.0320832 1.2430081-.2867696 2.4698982-.92 3.54l-15.65 32.32z" fill="#f0c419"/><path id="Path" d="m42.481 34.854c-.2237016.0000105-.4409468-.0749866-.617-.213-5.5202623-4.4440384-12.4418159-6.778636-19.526-6.586-1.9881306.0751548-3.9619799.368583-5.886.875-.3530657.116853-.7418136.0281217-1.0092114-.2303516-.2673979-.2584732-.3692692-.6439863-.2644638-1.0008138.1048054-.3568276.3989728-.6260183.7636752-.6988346 2.0659016-.5439112 4.1852538-.8594666 6.32-.941 7.5568387-.2049928 14.9411559 2.2787714 20.838 7.009.3352542.2636921.4663512.7110052.3264719 1.1139477-.1398792.4029425-.5199413.6728096-.9464719.6720523z" fill="#b19046"/><path id="Path" d="m45.181 27.441c-.2164407.0004356-.4271088-.0697871-.6-.2-5.2114617-4.0324323-11.6603989-6.1321274-18.247-5.941-2.1285994.0817263-4.2395437.4201758-6.287 1.008-.5295926.1494135-1.0803919-.1571137-1.2325425-.6859264-.1521505-.5288127.1515238-1.08119.6795425-1.2360736 2.2026718-.6332216 4.4738111-.9978664 6.764-1.086 7.0483863-.2117683 13.9514671 2.0314059 19.529 6.346.3408911.2601102.4780103.7086018.3408531 1.1148677s-.5180595.6798711-.9468531.6801323z" fill="#b19046"/><path id="Path" d="m48.144 21.407c-.214411-.0007208-.4228173-.0708912-.594-.2-5.2708792-4.0664266-11.768865-6.2177272-18.425-6.1-2.0904506.0794895-4.1655592.3914098-6.187.93-.5337832.1424894-1.0820105-.1747168-1.2245-.7085-.1424894-.5337832.1747168-1.0820105.7085-1.2245 2.1652194-.5766216 4.3879151-.9103446 6.627-.995 8.575-.345 15.445 3.349 19.69 6.492.3436191.2577032.4842934.7060511.3494881 1.1138655s-.5149762.683994-.9444881.6861345z" fill="#b19046"/><path id="Path" d="m50.829 15.813c-.2163702 0-.4269038-.0701779-.6-.2-6.113-4.554-12.229-6.741-18.161-6.522-2.1527043.08166649-4.2886586.41288202-6.365.987-.5297059.141057-1.0742368-.17062298-1.2208792-.69880987-.1466425-.52818689.1592702-1.07597855.6858792-1.22819013 2.2260383-.61565355 4.5160454-.97069862 6.824-1.058 6.394-.24 12.944 2.083 19.436 6.918.3443443.2582582.4847973.7078856.3486833 1.1162278-.136114.4083421-.5182529.6837722-.9486833.6837722z" fill="#b19046"/><path id="Path" d="m42 51.08c.0282334.9970442-.166504 1.987813-.57 2.9l-.01.03c0 .01-.01.02-.01.03-2.23 4.69-10.52 3.91-20.41 3.91-11.6 0-21 1.07-21-6.87.03786571-1.8403958.46024202-3.6525264 1.24-5.32l.42-.87c3.19-6.21 10.64-11.93 19.34-11.93 11.6 0 21 10.18 21 18.12z" fill="#f9eab0"/><g fill="#b19046"><circle id="Oval" cx="8" cy="49.962" r="3"/><circle id="Oval" cx="19.5" cy="40.462" r="2.5"/><circle id="Oval" cx="34.5" cy="49.462" r="2.5"/><circle id="Oval" cx="28" cy="40.962" r="2"/><circle id="Oval" cx="18.5" cy="50.462" r="2.5"/><circle id="Oval" cx="26" cy="47.962" r="2"/><circle id="Oval" cx="11" cy="41.962" r="2"/><circle id="Oval" cx="29" cy="52.962" r="1"/><circle id="Oval" cx="15" cy="45.962" r="1"/><circle id="Oval" cx="24" cy="36.962" r="1"/><circle id="Oval" cx="34" cy="42.962" r="1"/><circle id="Oval" cx="14" cy="53.962" r="1"/></g></g></g></svg>