<svg height="512" viewBox="0 0 512 512" width="512" xmlns="http://www.w3.org/2000/svg"><g id="Flat"><path d="m232 215.2v240.8a32 32 0 0 1 -32 32h-128a32 32 0 0 1 -32-32v-240.8a113.939 113.939 0 0 1 33.37-80.57 77.357 77.357 0 0 0 22.63-54.63v-24h80v24a77.357 77.357 0 0 0 22.63 54.63 113.936 113.936 0 0 1 33.37 80.57z" fill="#ebebe9"/><path d="m232 215.2v240.8a32 32 0 0 1 -32 32h-128a32 32 0 0 1 -32-32v-240.8a113.939 113.939 0 0 1 33.37-80.57 76.925 76.925 0 0 0 11.46-14.63h102.34a76.925 76.925 0 0 0 11.46 14.63 113.936 113.936 0 0 1 33.37 80.57z" fill="#d6d6d4"/><path d="m184 64-16 8-16-8-16 8-16-8-16 8-16-8v-24a16 16 0 0 1 16-16h64a16 16 0 0 1 16 16z" fill="#404f66"/><path d="m40 224h192v160h-192z" fill="#404f66"/><path d="m81.274 201.482-15.722-2.964a90.047 90.047 0 0 1 24.788-46.918c1.566-1.566 3.1-3.205 4.559-4.872l12.038 10.542c-1.693 1.932-3.47 3.832-5.285 5.644a74.067 74.067 0 0 0 -20.378 38.567z" fill="#e0e0de"/><path d="m472 176-24 312h-160l-16.79-218.3-7.21-93.7z" fill="#ebebe9"/><path d="m465.5 260.5-17.5 227.5h-160l-16.79-218.3a154.019 154.019 0 0 1 101.72-7.27 153.84 153.84 0 0 0 70.72 2.44z" fill="#dbdbd9"/><path d="m304.476 334.406h15.999v65.192h-15.999z" fill="#ebebe9" transform="matrix(.997 -.077 .077 .997 -27.479 25.297)"/><path d="m299.951 300.451h15.999v16.566h-15.999z" fill="#ebebe9" transform="matrix(.997 -.077 .077 .997 -22.989 24.781)"/><path d="m344 432h16v16h-16z" fill="#ebebe9"/><path d="m376 352h16v16h-16z" fill="#ebebe9"/><path d="m408 384h16v16h-16z" fill="#ebebe9"/><path d="m408 296h16v16h-16z" fill="#ebebe9"/><g fill="#ffe978"><path d="m440 56h16v24h-16z"/><path d="m440 128h16v24h-16z"/><path d="m400 96h24v16h-24z"/><path d="m472 96h24v16h-24z"/><path d="m414.543 66.544h16.001v24h-16.001z" transform="matrix(.707 -.707 .707 .707 68.221 321.789)"/><path d="m465.456 117.456h16.001v24h-16.001z" transform="matrix(.707 -.707 .707 .707 47.133 372.701)"/><path d="m410.544 121.456h24v16.001h-24z" transform="matrix(.707 -.707 .707 .707 32.221 336.7)"/><path d="m461.456 70.543h24v16.001h-24z" transform="matrix(.707 -.707 .707 .707 83.133 357.789)"/><path d="m296 16h16v24h-16z"/><path d="m296 88h16v24h-16z"/><path d="m256 56h24v16h-24z"/><path d="m328 56h24v16h-24z"/><path d="m270.543 26.544h16.001v24h-16.001z" transform="matrix(.707 -.707 .707 .707 54.329 208.25)"/><path d="m321.456 77.456h16.001v24h-16.001z" transform="matrix(.707 -.707 .707 .707 33.24 259.162)"/><path d="m266.544 81.456h24v16.001h-24z" transform="matrix(.707 -.707 .707 .707 18.329 223.161)"/><path d="m317.456 30.543h24v16.001h-24z" transform="matrix(.707 -.707 .707 .707 69.241 244.25)"/></g><path d="m200 344-16.141 3.228a132.742 132.742 0 0 1 -47.859.772 132.742 132.742 0 0 0 -47.859.772l-16.141 3.228v-64l16.141-3.228a132.742 132.742 0 0 1 47.859-.772 132.742 132.742 0 0 0 47.859-.772l16.141-3.228z" fill="#ffb531"/><circle cx="136" cy="280" fill="#f35244" r="24"/><path d="m328 128h16v16h-16z" fill="#ebebe9"/><path d="m392 32h16v16h-16z" fill="#ebebe9"/></g></svg>