<svg id="Capa_1" enable-background="new 0 0 511.991 511.991" height="512" viewBox="0 0 511.991 511.991" width="512" xmlns="http://www.w3.org/2000/svg"><g><g><g><path d="m403.917 80.018-49.909.379c-.555.004-1.012-.433-1.034-.987l-1.085-27.835c-.035-.898-1.126-1.321-1.757-.681l-27.272 27.665c-5.983 6.069-11.256 12.781-15.726 20.004-.617.996-2.144.35-1.85-.784l16.231-62.489c.217-.837-.634-1.551-1.421-1.192l-25.528 11.669c-.504.231-1.101.019-1.347-.478l-22.162-44.718c-.377-.761-1.463-.761-1.84 0l-22.163 44.719c-.246.497-.842.708-1.347.478l-25.528-11.669c-.787-.36-1.638.355-1.421 1.192l16.231 62.489c.295 1.134-1.233 1.78-1.85.784-4.47-7.223-9.743-13.935-15.726-20.004l-27.273-27.665c-.631-.64-1.722-.218-1.757.681l-1.085 27.835c-.022.554-.479.991-1.034.987l-49.908-.379c-.849-.006-1.339.962-.829 1.642l29.925 39.944c.332.444.253 1.071-.181 1.418l-21.149 16.905c-.776.621-.306 1.872.687 1.828l19.553-.872c18.324-.817 36.575 2.807 53.196 10.564l52.579 24.537 52.579-24.537c16.622-7.757 34.872-11.381 53.196-10.564l19.553.872c.993.044 1.463-1.207.687-1.828l-21.149-16.905c-.433-.346-.513-.974-.181-1.418l29.925-39.944c.509-.681.019-1.65-.83-1.643z" fill="#97da7b"/></g></g><g><g><path d="m491.92 371.24-21.679-36.9c-.241-.41-.113-.937.29-1.191l20.206-12.74c.652-.411.498-1.403-.248-1.597l-32.238-8.392c-7.072-1.841-14.317-2.879-21.598-3.101-1.004-.031-1.179-1.442-.211-1.71l53.364-14.739c.715-.197.88-1.136.276-1.566l-19.611-13.954c-.387-.276-.486-.809-.223-1.205l23.707-35.631c.403-.606-.062-1.412-.789-1.366l-42.711 2.715c-.475.03-.887-.322-.932-.795l-2.28-23.961c-.07-.738-.966-1.064-1.494-.544l-39.446 38.845c-.716.705-1.851-.153-1.375-1.038 3.447-6.417 6.171-13.21 8.113-20.255l8.851-32.114c.205-.743-.577-1.372-1.259-1.013l-21.136 11.128c-.421.222-.941.069-1.176-.345l-21.117-37.225c-.359-.634-1.289-.582-1.575.088l-16.833 39.348c-.187.437-.687.647-1.13.474l-21.621-8.456c-.794-.31-1.521.575-1.063 1.294l9.031 14.146c8.463 13.257 13.596 28.364 14.963 44.033l4.322 49.566 40.764 28.525c12.887 9.018 23.403 21.017 30.653 34.975l7.736 14.894c.393.756 1.524.569 1.652-.274l3.486-22.954c.071-.47.503-.799.975-.742l42.493 5.097c.722.087 1.232-.692.863-1.32z" fill="#97da7b"/></g></g><g><g><path d="m18.295 319.892 34.049-19.315c.378-.215.518-.691.315-1.076l-10.179-19.332c-.329-.624.247-1.339.927-1.152l29.375 8.096c6.444 1.776 12.658 4.268 18.527 7.421.81.435 1.594-.603.949-1.258l-35.532-36.081c-.476-.483-.178-1.302.498-1.367l21.917-2.085c.433-.041.755-.419.727-.853l-2.483-39.067c-.042-.665.695-1.091 1.25-.722l32.592 21.684c.362.241.85.151 1.102-.204l12.764-17.938c.393-.553 1.252-.401 1.432.252l13.481 48.812c.245.886 1.536.726 1.564-.193.204-6.66 1.153-13.286 2.837-19.755l7.676-29.488c.178-.682 1.084-.823 1.461-.227l11.653 18.482c.232.368.714.485 1.089.265l33.752-19.83c.574-.337 1.287.129 1.207.79l-4.662 38.868c-.052.432.249.827.679.892l20.996 3.189c.771.117.942 1.151.25 1.511l-13.623 7.076c-12.767 6.631-23.743 16.25-31.991 28.038l-26.092 37.287-45.338 3.953c-14.332 1.25-28.15 5.945-40.277 13.686l-12.94 8.26c-.657.419-1.467-.246-1.183-.972l7.736-19.777c.158-.405-.033-.863-.433-1.034l-35.991-15.397c-.613-.26-.661-1.11-.081-1.439z" fill="#97da7b"/></g></g><g><g><path d="m404.746 81.66c.509-.68.02-1.649-.829-1.642l-49.909.379c-.554.004-1.012-.433-1.034-.987l-.116-2.992-16.182 21.6c-1.703 2.273-1.293 5.488.925 7.261l7.796 6.231c3.977 3.178 1.568 9.589-3.518 9.362l-5.535-.247c-19.006-.847-37.935 2.912-55.174 10.957l-49.848 23.263c-1.134.529-2.445.529-3.58 0l-49.848-23.263c-5.127-2.393-10.404-4.406-15.787-6.032l-17.984 14.376c-.776.621-.306 1.872.687 1.828l19.553-.872c18.324-.817 36.575 2.807 53.196 10.564l52.579 24.537 52.579-24.537c16.622-7.757 34.872-11.381 53.196-10.564l19.553.872c.993.044 1.463-1.207.687-1.828l-21.149-16.905c-.433-.346-.513-.974-.181-1.417z" fill="#80d261"/></g></g><g><g><path d="m470.241 334.341c-.241-.41-.113-.937.29-1.191l20.206-12.74c.652-.411.498-1.402-.248-1.597l-32.238-8.392c-6.452-1.68-13.047-2.69-19.682-3.024l-5.174 3.262c-2.336 1.473-3.08 4.534-1.681 6.915l15.276 26c2.143 3.647-.817 8.17-5.017 7.666l-29.941-3.591c-.057-.007-.114-.012-.171-.017 9.362 8.077 17.128 17.88 22.855 28.907l7.736 14.894c.393.756 1.524.569 1.652-.274l3.487-22.954c.071-.47.503-.799.975-.742l42.493 5.097c.723.087 1.233-.692.864-1.32z" fill="#80d261"/></g></g><g><g><path d="m218.258 258.702-20.996-3.189c-.43-.065-.73-.46-.679-.892l4.662-38.868c.079-.661-.633-1.128-1.207-.79l-33.752 19.83c-.375.22-.857.103-1.089-.265l-7.766-12.317-.964 8.035c-.324 2.701 1.555 5.172 4.245 5.581l4.094.622c4.821.732 5.893 7.204 1.566 9.451l-1.171.608c-8.751 4.545-16.698 10.431-23.567 17.416-.026.531-.047 1.061-.064 1.592-.028.918-1.319 1.079-1.564.193l-.019-.068c-2.993 3.203-5.766 6.621-8.295 10.234l-24.364 34.818c-.718 1.026-1.853 1.681-3.1 1.79l-42.335 3.691c-11.696 1.02-23.066 4.231-33.525 9.434l25.998 11.122c.4.171.592.629.433 1.034l-7.736 19.777c-.284.726.526 1.392 1.183.972l12.94-8.26c12.127-7.741 25.945-12.436 40.277-13.686l45.338-3.953 26.092-37.287c8.248-11.787 19.224-21.406 31.991-28.038l13.623-7.076c.693-.359.521-1.394-.249-1.511z" fill="#80d261"/></g></g><path d="m429.435 274.85c-2.07-3.587-6.659-4.816-10.245-2.745l-55.394 31.981c-25.937 14.975-55.477 23.033-85.427 23.304l-27.008.243c1.279-3.461 2.514-6.943 3.704-10.443 14.977-44.034 22.57-89.945 22.57-136.457v-96.643c0-4.142-3.357-7.5-7.5-7.5s-7.5 3.358-7.5 7.5v96.644c0 70.805-18.776 140.896-53.596 202.243l-1.201-.708c-23.506-13.855-43.142-33.669-56.784-57.299l-29.253-50.668c-2.07-3.588-6.659-4.817-10.245-2.745-3.587 2.071-4.816 6.658-2.745 10.245l29.253 50.668c14.934 25.866 36.427 47.555 62.157 62.721l1.175.693c-7.245 11.736-15.095 23.117-23.53 34.082l-53.809 69.952c-2.525 3.283-1.911 7.992 1.371 10.518 1.363 1.048 2.972 1.556 4.567 1.556 2.249 0 4.474-1.007 5.95-2.928l53.809-69.952c22.81-29.652 41.488-61.991 55.718-96.424l33.03-.298c32.532-.293 64.619-9.046 92.792-25.312l55.394-31.981c3.588-2.073 4.818-6.66 2.747-10.247z" fill="#d5efc8"/></g></svg>