<svg id="Parsley" enable-background="new 0 0 64 64" viewBox="0 0 64 64" xmlns="http://www.w3.org/2000/svg"><g><g><path d="m17.3 27.4c-1.1.8-1.1 2.8-.9 3.4-1.5-2.5-3.8-2.9-5-2.2-1 .6-1.4 2.4-.7 4.1-.4-.2-1.9-1.1-3.8-.6-2 .5-2.9 2.9-1.7 4.6 1.1 1.6 2.8 1.9 3.3 2-1.7.8-2.5 2.5-2.2 3.6.4 1.3 2.4 2.5 5.2 1.6-.5.3-1.9 1.9-1.6 3.2.5 1.7 3.1 2.2 6 1.8 2.4-.4 6.6-2.4 8.5-7.6s.2-9.5-1.4-11.4c-1.9-2.2-4.2-3.5-5.7-2.5z" fill="#75d64c"/><path d="m20.6 46.7c-1.7 1.4-3.5 2.1-4.7 2.3-2.9.4-5.5-.1-6-1.8-.4-1.3 1.1-2.8 1.6-3.2-2.8.9-4.8-.3-5.2-1.6-.3-1.1.5-2.8 2.2-3.6-.4-.1-2.1-.5-3.3-2-1.2-1.8-.3-4.2 1.7-4.7 1.9-.4 3.4.4 3.8.6-.7-1.7-.3-3.5.7-4.2 1-.6 2.7-.4 4.1 1.1-1.1 1.8-1.7 4-1.7 6.3 0 5 2.8 9.2 6.8 10.8z" opacity=".15"/></g><g><path d="m46.7 27.4c1.1.8 1.1 2.8.9 3.4 1.5-2.5 3.8-2.9 5-2.2 1 .6 1.4 2.4.7 4.1.4-.2 1.9-1.1 3.8-.6 2 .5 2.9 2.9 1.7 4.6-1.1 1.6-2.8 1.9-3.3 2 1.7.8 2.5 2.5 2.2 3.6-.4 1.3-2.4 2.5-5.2 1.6.5.3 1.9 1.9 1.6 3.2-.5 1.7-3.1 2.2-6 1.8-2.4-.4-6.6-2.4-8.5-7.6s-.2-9.5 1.4-11.4c1.9-2.2 4.2-3.5 5.7-2.5z" fill="#75d64c"/><path d="m54.1 47.1c-.5 1.7-3.1 2.2-6 1.8-2.4-.4-6.6-2.5-8.5-7.6-1.9-5.2-.2-9.5 1.4-11.4 1.9-2.2 4.2-3.6 5.7-2.6.6.4.9 1.2 1 1.9-1.2 1.9-1.9 4.2-1.9 6.7-.1 5.7 3.6 10.4 8.3 11.2z" opacity=".15"/></g><g><path d="m45.6 12c-1.4-1-3.9 0-4.5.5 2.3-3 1.7-5.9.4-7-1.2-.9-3.6-.6-5.3 1 .1-.6.4-2.8-.9-4.8-1.5-2.2-4.8-2.2-6.3 0-1.4 2.1-1 4.3-.9 4.8-1.8-1.7-4.2-1.9-5.3-1-1.4 1.1-2 4 .4 7-.9-.5-3.4-1.5-4.8-.5-1.9 1.3-1.3 4.7.5 8 1.5 2.8 5.9 6.8 13.1 6.8s11.5-4.1 13.1-6.8c1.8-3.3 2.4-6.7.5-8z" fill="#75d64c"/><path d="m37.5 26c-1.6.6-3.4.9-5.5.9-7.1 0-11.6-4.1-13.1-6.8-1.8-3.3-2.4-6.7-.5-8 1.4-1 3.9 0 4.5.4-2.4-3-1.8-5.9-.4-7 1.2-.9 3.6-.6 5.3 1-.1-.6-.4-2.8.9-4.8 0 0 0 0 0-.1 1.2-1.7 3.6-2.1 5.2-1-3.1 2.7-5.2 6.9-5.2 11.7.2 6.3 3.8 11.7 8.8 13.7z" opacity=".15"/></g><g fill="#487f2a"><path d="m32 64c-.5 0-.9-.4-.9-.9v-51.3c0-.5.4-.9.9-.9s.9.4.9.9v51.3c0 .5-.4.9-.9.9z"/><path d="m32 21.3c-.2 0-.5-.1-.6-.3l-5.2-5.1c-.4-.3-.4-.9 0-1.3.3-.4.9-.4 1.3 0l5.2 5.1c.4.3.4.9 0 1.3-.2.2-.5.3-.7.3z"/><path d="m32 21.3c-.2 0-.5-.1-.6-.3-.3-.4-.3-.9 0-1.3l5.2-5.1c.4-.3.9-.3 1.3 0 .3.4.3.9 0 1.3l-5.2 5.1c-.2.2-.5.3-.7.3z"/><path d="m14.5 42.8c-.3 0-.7-.2-.8-.5-.2-.5 0-1 .4-1.2l5.1-2.4c.5-.2 1 0 1.2.4.2.5 0 1-.4 1.2l-5.1 2.4c-.1.1-.2.1-.4.1z"/><path d="m19.7 40.4c-.3 0-.7-.2-.8-.5l-2.3-5.2c-.2-.5 0-1 .5-1.2s1 0 1.2.5l2.3 5.2c.2.5 0 1-.5 1.2-.2 0-.3 0-.4 0z"/><path d="m32 46.5c-.2 0-.4-.1-.5-.2-2.7-2-5.6-3.5-8.7-4.7l-9.7-3.6c-.5-.2-.7-.7-.5-1.2s.7-.7 1.2-.5l9.6 3.6c3.3 1.2 6.3 2.9 9.2 4.9.4.3.5.9.2 1.3-.2.3-.5.4-.8.4z"/><path d="m49.5 42.8c-.1 0-.3 0-.4-.1l-5.1-2.4c-.5-.2-.6-.7-.4-1.2s.7-.7 1.2-.4l5.1 2.4c.5.2.6.7.4 1.2-.2.3-.5.5-.8.5z"/><path d="m44.3 40.4c-.1 0-.2 0-.4-.1-.5-.2-.7-.7-.5-1.2l2.3-5.2c.2-.5.7-.7 1.2-.5s.7.7.5 1.2l-2.3 5.2c-.1.4-.4.6-.8.6z"/><path d="m32 46.5c-.3 0-.6-.1-.7-.4-.3-.4-.2-1 .2-1.3 2.8-2.1 5.9-3.7 9.2-4.9l9.6-3.6c.5-.2 1 .1 1.2.5.2.5-.1 1-.5 1.2l-9.6 3.6c-3.1 1.2-6 2.7-8.7 4.7-.3.2-.5.2-.7.2z"/></g></g></svg>