<svg id="Layer_1" viewBox="0 0 128 128" xmlns="http://www.w3.org/2000/svg" data-name="Layer 1"><path d="m89 57c-4.35-5.8-10.2-12-16-12s-15 14-29 4c-4.72-3.37-10.65 5.2-15 11a65.61 65.61 0 0 0 -7 12h87s-15.65-9.2-20-15z" fill="#b75337"/><path d="m89 57c-4.35-5.8-10.2-12-16-12s-15 14-29 4c-4.72-3.37-10.65 5.2-15 11a65.61 65.61 0 0 0 -7 12h87s-15.65-9.2-20-15z" fill="none" stroke="#aa4a30" stroke-miterlimit="10" stroke-width="4"/><path d="m20 74c-1.83-5.46 5.46-13.54 14-23 5.76-6.39 7.91-6.87 9-7 3.66-.43 17 1.77 31 17 11.06 12 21.24 13 21 14-2.5 9.84-71 11.06-75-1z" fill="#c56140"/><path d="m20 74c-1.83-5.46 5.46-13.54 14-23 5.76-6.39 7.91-6.87 9-7 3.66-.43 17 1.77 31 17 11.06 12 21.24 13 21 14-2.5 9.84-71 11.06-75-1z" fill="none" stroke="#aa4a30" stroke-miterlimit="10" stroke-width="4"/><path d="m42.61 67.69c1.76-1.87 2.61-4.25 1.9-6.11-1.26-3.34-7.17-4.07-9.72-1.88-3 2.56-1.75 9.44 2 11.91s8.93-.29 11.08-1.46c1.93-1 7.08-3.68 8.26-9.21.9-4.19-.48-10-3.68-10.79-2.77-.65-7.29 2.42-6.9 5.87.22 1.92 1.91 3.61 4.19 4.41" fill="#1f0207"/><path d="m42.61 67.69c1.76-1.87 2.61-4.25 1.9-6.11-1.26-3.34-7.17-4.07-9.72-1.88-3 2.56-1.75 9.44 2 11.91s8.93-.29 11.08-1.46c1.93-1 7.08-3.68 8.26-9.21.9-4.19-.48-10-3.68-10.79-2.77-.65-7.29 2.42-6.9 5.87.22 1.92 1.91 3.61 4.19 4.41" fill="none" stroke="#cf9774" stroke-linecap="round" stroke-miterlimit="10" stroke-width="4"/><path d="m84 34c-.87 1.43-3.25 7.29-8 19-1.45 3.56-.82 2.4-4 11-6.32 17.09-8 19.65-11 21-3.72 1.69-8.84 1.22-10-1-1.5-2.87 4.69-6.75 11-17 2-3.27 4.37-9.22 9-21 5-12.71 3.79-19.76 8-21 2.6-.76 6.16.8 7 3 .71 1.85-.66 3.79-2 6z" fill="#cf9774"/><path d="m14 70v7s0 49 38 49h24c38 0 38-49 38-49v-7z" fill="#925a27"/><path d="m113.87 80h-34.87v8h33.9a80.48 80.48 0 0 0 .97-8z" fill="#b27746"/><path d="m44 72h55v8h-55z" fill="#9b6736"/><path d="m24 80h55v8h-55z" fill="#82532b"/><path d="m74 112v8h21.87a34.2 34.2 0 0 0 7.83-8z" fill="#82532b"/><path d="m15.1 88h8.9v-8h-9.87a80.48 80.48 0 0 0 .97 8z" fill="#9b6736"/><path d="m24 88h55v8h-55z" fill="#9b6736"/><path d="m32.13 120h25.87v-8h-33.7a34.2 34.2 0 0 0 7.83 8z" fill="#b27746"/><path d="m44 104h55v8h-55z" fill="#9b6736"/><path d="m111.09 96h-22.09v8h19.21a61.15 61.15 0 0 0 2.88-8z" fill="#82532b"/><path d="m52 126 24 .31c1 0 2 0 3-.07v-5.94l-46.86-.6c5.06 3.72 11.52 6.15 19.86 6.3z" fill="#9b6736"/><path d="m19.79 104h32.21v-8h-35.09a61.15 61.15 0 0 0 2.88 8z" fill="#b27746"/><path d="m14 77s0 1.12.13 3h29.87v-8h-30z" fill="#b27746"/><path d="m105.65 70h-91.65v7s0 24.66 13.57 39c6.62-1.82 4.57-8.17 4.57-8.17a76.77 76.77 0 0 1 -4.14-22.83v-1a6 6 0 0 1 6-6h65.76a6.19 6.19 0 0 0 6.1-4.71 5.91 5.91 0 0 0 -.21-3.29z" fill="#fff" opacity=".2"/><path d="m14 70v7s0 49 38 49h24c38 0 38-49 38-49v-7z" fill="none" stroke="#7f4f2b" stroke-miterlimit="10" stroke-width="4"/></svg>