<svg id="Capa_1" enable-background="new 0 0 512 512" viewBox="0 0 512 512" xmlns="http://www.w3.org/2000/svg"><g><g><g><g><path d="m301.301 452.48v-79.014c0-28.38 20.095-52.936 47.781-58.389l.227-.045 4.865-3.598c-30.225 6.377-63.394 9.906-98.174 9.906-3.856 0-7.763-.045-11.616-.133l-.567-.007c-13.332 0-24.178 10.869-24.178 24.23v1.869c0 15.872-12.913 28.785-28.785 28.785s-28.785-12.913-28.785-28.785v-10.521c0-13.988-9.41-26.211-22.883-29.726l-.601-.157c-2.602-.683-5.262-1.029-7.908-1.029-16.94 0-30.722 13.795-30.722 30.751v11.408c0 15.745-12.619 28.079-28.729 28.079-.394 0-.792-.007-1.189-.022-15.248-.582-27.653-13.756-27.653-29.366v-62.695c0-12.417-4.956-24.461-13.599-33.044-18.095-17.971-27.27-37.334-27.27-57.552h-1.515v181.145c0 59.212 114.615 123.574 256 123.574 22.852 0 44.997-1.69 66.079-4.759-12.578-9.197-20.778-24.102-20.778-40.905z" fill="#f6a96c"/></g></g><g><g><path d="m300.271 452.48v-3.099c-23.922 4.021-49.341 6.259-75.691 6.259-95.097 0-178.081-29.118-222.225-66.202 16.949 54.623 124.041 108.706 253.645 108.706 22.354 0 44.037-1.613 64.705-4.556-12.281-9.322-20.434-24.084-20.434-41.108z" fill="#ea9b58"/></g></g><path d="m510.981 194.179c-.616 53.627-66.818 99.567-160.175 118.467l-1.923 1.422c-28.303 5.574-48.612 30.553-48.612 59.399v79.014c0 33.32 31.198 58.03 63.557 50.084 87.504-21.486 148.172-78.622 148.172-121.701v-187.439z" fill="#ffbd86"/><g><path d="m468.76 265.425v83.238c0 43.079-60.668 100.215-148.173 121.701-5.633 1.383-11.227 1.756-16.632 1.287 9.159 22.891 34.139 37.233 59.872 30.914 87.505-21.486 148.173-78.622 148.173-121.701v-187.439c0 26.649-15.932 51.415-43.24 72z" fill="#f6a96c"/></g><g><g><path d="m460.212 115.371c3.256 7.82 4.914 15.85 4.914 24.05 0 61.246-93.814 111.074-209.127 111.074s-209.126-49.828-209.126-111.074c0-8.2 1.659-16.23 4.914-24.05-32.497 21.7-51.787 48.737-51.787 78.054 0 21.105 9.996 41.027 27.718 58.629 8.495 8.436 13.151 19.997 13.151 31.969v62.695c0 16.375 12.747 30.255 29.11 30.879 17.276.659 31.49-12.441 31.49-29.571v-11.408c0-19.195 18.162-33.132 36.729-28.258.202.053.404.106.606.158 12.833 3.347 21.751 14.997 21.751 28.259v10.523c0 16.734 13.566 30.3 30.3 30.3 16.734 0 30.3-13.566 30.3-30.3v-1.868c0-12.736 10.461-23.002 23.194-22.709 3.862.089 7.746.134 11.651.134 141.385 0 256-57.948 256-129.431 0-29.318-19.29-56.355-51.788-78.055z" fill="#fff3de"/></g></g><path d="m382.668 49.983-1.612-.267c9.649 10.076 15.096 21.466 15.096 33.518 0 19.179-13.811 37.4-38.889 51.309-19.464 10.795-41.992 16.502-65.144 16.502-.001 0 0 0-.002 0-2.957 0-5.959-.094-8.921-.279-31.545-1.969-61.983-9.546-81.423-20.27-16.261-8.971-25.217-20.333-25.217-31.993s8.956-23.022 25.217-31.993c14.14-7.8 32.992-12.096 53.083-12.096 20.092 0 38.944 4.296 53.084 12.096 9.252 5.104 14.558 11.59 14.558 17.796s-5.306 12.692-14.558 17.796c-8.499 4.689-20.04 7.271-32.494 7.271-12.455 0-23.996-2.583-32.497-7.271-1.256-.693-2.673-1.059-4.099-1.059-3.464 0-6.557 2.079-7.88 5.297-1.65 4.012.133 8.678 4.148 10.854 11 5.965 25.321 9.25 40.327 9.249 15.196 0 29.653-3.358 40.707-9.456 15.055-8.304 23.346-19.911 23.346-32.681s-8.291-24.376-23.345-32.681c-16.51-9.108-38.279-14.125-61.294-14.125-23.016 0-44.784 5.017-61.295 14.125-21.929 12.097-34.006 28.745-34.006 46.878s12.077 34.781 34.006 46.877c.33.182.662.363.996.542 1.278.688 1.091 1.878 1.003 2.227-.195.773-.846 1.554-1.861 1.554-.191 0-.392-.028-.596-.083-47.654-12.738-77.258-38.176-77.258-66.387 0-12.052 5.447-23.442 15.096-33.518l-1.611.267c-50.706 20.466-83.489 52.904-83.489 89.437 0 61.913 94.09 112.104 210.157 112.104s210.157-50.191 210.157-112.104c-.001-36.532-32.784-68.969-83.49-89.436z" fill="#ffe5c2"/><g><g><path d="m129.134 304.783c0-13.262-8.917-24.912-21.751-28.259-.202-.053-.404-.105-.606-.158-18.566-4.874-36.728 9.063-36.728 28.258v11.408c0 16.358-12.966 29.033-29.18 29.567v1.118c0 16.375 12.747 30.255 29.11 30.88 17.276.659 31.49-12.441 31.49-29.571v-11.408c0-16.032 12.672-28.386 27.665-29.186z" fill="#ffe5c2"/></g></g><g><path d="m467.494 120.498c8.481 12.865 13.086 26.626 13.086 40.933 0 71.483-114.615 129.431-256 129.431-3.905 0-7.79-.045-11.651-.134-12.733-.293-23.194 9.973-23.194 22.709v1.868c0 16.358-12.965 29.681-29.18 30.272v1.723c0 16.734 13.566 30.3 30.3 30.3 16.734 0 30.3-13.566 30.3-30.3v-1.868c0-12.736 10.461-23.002 23.194-22.709 3.862.089 7.746.134 11.651.134 141.385 0 256-57.948 256-129.431 0-27.054-16.435-52.16-44.506-72.928z" fill="#ffe5c2"/></g><g><g><path d="m425.086 72.863c6.587 10.869 10.166 22.461 10.166 34.5 0 61.913-94.091 112.104-210.157 112.104-69.326 0-130.803-17.91-169.082-45.525 27.292 45.02 106.504 77.583 199.987 77.583 116.066 0 210.157-50.191 210.157-112.104 0-24.927-15.272-47.944-41.071-66.558z" fill="#fed2a4"/></g></g><path d="m256 7.939c-77.957 0-141.153 33.711-141.153 75.295 0 29.474 31.75 54.99 77.999 67.353 3.438.919 5.32-3.857 2.187-5.544-.331-.178-.66-.358-.987-.538-21.596-11.913-33.489-28.25-33.489-46.002s11.893-34.089 33.489-46.002c16.367-9.029 37.964-14.001 60.813-14.001s44.446 4.972 60.813 14.001c14.721 8.121 22.828 19.416 22.828 31.806s-8.107 23.685-22.829 31.806c-22.431 12.373-57.503 12.442-80.074.204-3.44-1.865-5.188-5.977-3.7-9.595 1.737-4.224 6.69-5.884 10.572-3.743 17.877 9.861 48.083 9.861 65.958 0 9.58-5.285 15.074-12.09 15.074-18.671s-5.494-13.387-15.074-18.672c-29.538-16.294-77.598-16.294-107.134 0-16.595 9.155-25.734 20.828-25.734 32.869s9.139 23.714 25.734 32.868c20.137 11.109 51.128 18.476 81.844 20.393 25.92 1.618 51.903-3.751 74.614-16.347 24.401-13.533 39.404-31.923 39.404-52.183-.002-41.586-63.198-75.297-141.155-75.297z" fill="#fff3de"/></g><g><g><g><g><g><g><path d="m93.231 144.283h-2.061c-4.142 0-7.5-3.358-7.5-7.5s3.358-7.5 7.5-7.5h2.061c4.142 0 7.5 3.358 7.5 7.5s-3.357 7.5-7.5 7.5z" fill="#fff"/></g><g><path d="m152.982 190.099h-2.061c-4.142 0-7.5-3.358-7.5-7.5s3.358-7.5 7.5-7.5h2.061c4.142 0 7.5 3.358 7.5 7.5s-3.358 7.5-7.5 7.5z" fill="#fff"/></g></g><g><g><path d="m420.829 144.283h-2.061c-4.143 0-7.5-3.358-7.5-7.5s3.357-7.5 7.5-7.5h2.061c4.143 0 7.5 3.358 7.5 7.5s-3.357 7.5-7.5 7.5z" fill="#fff"/></g><g><path d="m361.078 190.099h-2.06c-4.143 0-7.5-3.358-7.5-7.5s3.357-7.5 7.5-7.5h2.06c4.143 0 7.5 3.358 7.5 7.5s-3.357 7.5-7.5 7.5z" fill="#fff"/></g></g></g><g><path d="m257.03 207.612h-2.061c-4.142 0-7.5-3.358-7.5-7.5s3.358-7.5 7.5-7.5h2.061c4.143 0 7.5 3.358 7.5 7.5s-3.357 7.5-7.5 7.5z" fill="#fff"/></g></g><g><path d="m164.5 58.236h-2.06c-4.142 0-7.5-3.358-7.5-7.5s3.358-7.5 7.5-7.5h2.06c4.142 0 7.5 3.358 7.5 7.5s-3.358 7.5-7.5 7.5z" fill="#fff"/></g><g><path d="m359.019 100.473h-2.061c-4.143 0-7.5-3.358-7.5-7.5s3.357-7.5 7.5-7.5h2.061c4.143 0 7.5 3.358 7.5 7.5s-3.358 7.5-7.5 7.5z" fill="#fff"/></g><g><path d="m84.99 258.091h-2.06c-4.142 0-7.5-3.358-7.5-7.5s3.358-7.5 7.5-7.5h2.06c4.142 0 7.5 3.358 7.5 7.5s-3.358 7.5-7.5 7.5z" fill="#fff"/></g><g><path d="m195.219 301.358h-2.06c-4.142 0-7.5-3.358-7.5-7.5s3.358-7.5 7.5-7.5h2.06c4.142 0 7.5 3.358 7.5 7.5s-3.358 7.5-7.5 7.5z" fill="#fff"/></g><g><path d="m452.765 232.336h-2.061c-4.143 0-7.5-3.358-7.5-7.5s3.357-7.5 7.5-7.5h2.061c4.143 0 7.5 3.358 7.5 7.5s-3.358 7.5-7.5 7.5z" fill="#fff"/></g><g><path d="m342.535 286.936h-2.061c-4.143 0-7.5-3.358-7.5-7.5s3.357-7.5 7.5-7.5h2.061c4.143 0 7.5 3.358 7.5 7.5s-3.357 7.5-7.5 7.5z" fill="#fff"/></g></g></g></g><g/><g/><g/><g/><g/><g/><g/><g/><g/><g/><g/><g/><g/><g/><g/></svg>