<svg id="Capa_1" enable-background="new 0 0 512 512" height="512" viewBox="0 0 512 512" width="512" xmlns="http://www.w3.org/2000/svg"><g><g><path clip-rule="evenodd" d="m442.47 151.248s-372.973 83.788-400.278 94.371c-88.785 34.439-23.212 203.419 65.544 168.98 25.025-9.706 359.204-200.32 359.204-200.32z" fill="#ac5d2c" fill-rule="evenodd"/></g><g><path clip-rule="evenodd" d="m453.259 147.068-10.786 4.183-374.584 145.348c-.177.037-.719.176-.866.036-.354-.339.77-1.034.973-1.214 1.589-1.408 2.888-3.118 3.88-4.993 3.781-7.129 3.43-17.091.216-25.93-4.852-13.361-16.246-24.168-29.896-18.883l390.511-151.518c11.96-4.626 26.342 3.503 31.977 18.059 5.676 14.566.536 30.297-11.425 34.912z" fill="#d87e49" fill-rule="evenodd"/></g><g><path clip-rule="evenodd" d="m466.939 214.279-370.543 143.771s-2.521 1.935.545 2.414c21.461 3.35 32.691 45.642 10.794 54.135l390.543-151.526c11.928-4.648 17.073-20.348 11.431-34.907s-20.055-22.687-31.982-18.067z" fill="#d87e49" fill-rule="evenodd"/></g><g><path clip-rule="evenodd" d="m453.259 147.068-10.786 4.183-374.584 145.348c-.177.037-.719.176-.866.036-.353-.339.77-1.037.973-1.216 1.589-1.403 2.89-3.12 3.88-4.99 3.76-7.129 3.41-17.08.196-25.919l.021-.01 392.592-152.343c5.675 14.565.535 30.296-11.426 34.911z" fill="#c86d35" fill-rule="evenodd"/></g><g><path clip-rule="evenodd" d="m509.709 228.166-392.618 152.345c4.853 13.331 3.157 29.235-9.355 34.088l390.543-151.526c11.927-4.649 17.073-20.348 11.43-34.907z" fill="#c86d35" fill-rule="evenodd"/></g><g><path clip-rule="evenodd" d="m424.725 399.718c-18.388 2.193-139.624 8.829-187.948-7.075-21.253-6.987-28.036-21.196-15.085-37.099 20.873-25.698 46.249-29.031 100.859-34.322 33.561-3.245 35.841-22.774 63.205-27.627 30.813-5.438 45.576 11.197 61.831 41.339 7.132 13.184 86.416 51.804-22.862 64.784z" fill="#ffd772" fill-rule="evenodd"/></g><g><path clip-rule="evenodd" d="m374.646 311.048c15.319 5.233 25.726 19.529 36.865 40.111 4.794 8.887 42.185 29.235 32.976 45.578 79.079-15.144 9.764-49.524 3.099-61.803-10.407-19.295-20.201-33.036-33.97-39.029-7.747-3.362-16.751-4.268-27.86-2.31-14.53 2.573-22.014 9.297-30.842 15.524 7.483-.761 13.973-.059 19.732 1.929z" fill="#fbba58" fill-rule="evenodd"/></g></g></svg>