<svg id="Layer_1" enable-background="new 0 0 512 512" viewBox="0 0 512 512" xmlns="http://www.w3.org/2000/svg"><g><path d="m511.947 294.013c-.34 15.319-9.189 29.484-23.653 37.766-12.609 7.201-30.143 16.699-50.911 26.506-17.183 8.107-29.576 23.962-32.739 42.69-6.14 36.396-33.13 74.451-148.644 74.451-114.277 0-141.917-37.251-148.438-73.287-3.369-18.625-15.803-34.387-33.017-42.268-20.428-9.344-37.643-18.368-49.994-25.219-14.124-7.84-23.076-21.314-24.075-36.118-.515-7.778-.711-18.111-.082-30.194h.01c.443-.093 12.857-2.771 1.267-16.277l-.01-.01c1.339-12.692 3.585-26.63 7.16-41.124 0 0 9.787-6.871 4.162-15.061 4.595-15.04 10.724-30.4 18.801-45.358h.01c.762-.196 15.988-4.368 7.798-13.341 8.149-12.867 17.904-25.249 29.556-36.664 0 0 22.499 3.101 11.445-10.384 12.918-10.827 27.835-20.511 45.06-28.577 0 0 16.823 9.014 14.237-6.088 14.309-5.553 30.06-10.044 47.367-13.258 0 0 11.826 11.26 15.277-2.431 14.247-1.927 29.463-3.019 45.74-3.173 0 0 8.066 10.137 15.453.134 16.194.443 31.359 1.823 45.534 4.038 0 0 5.357 12.001 15.195 2.761 16.998 3.523 32.471 8.303 46.564 14.093 0 0 0 .01.01.021.258.68 5.718 14.412 14.093 6.336 16.668 8.19 31.183 17.884 43.824 28.629-.093.494-3.286 16.009 11.404 10.425 10.971 10.827 20.315 22.458 28.247 34.501v.01c-.072.36-3.266 16.03 8.066 13.176 8.293 14.618 14.711 29.597 19.645 44.236 0 0-10.013 12.187 4.584 14.927h.01c4.193 15.092 6.902 29.545 8.592 42.546 0 0-14.33 14.546 1.669 16.102.773 10.042.938 18.706.783 25.484z" fill="#f6f1f1"/><path d="m249.129 37.521c-4.018-.288-8.097-.505-12.249-.659 3.74-.134 7.541-.227 11.394-.268 0 0 .309.381.855.927z" fill="#efe7e4"/><path d="m511.947 294.013c-.34 15.319-9.189 29.484-23.653 37.766-12.609 7.201-30.143 16.699-50.911 26.506-17.183 8.107-29.576 23.962-32.739 42.69-6.14 36.396-33.13 74.451-148.644 74.451-5.347 0-10.497-.082-15.463-.237 102.513-3.276 127.34-39.497 133.202-74.214 3.163-18.729 15.556-34.583 32.739-42.69 20.768-9.807 38.302-19.305 50.911-26.506 14.464-8.283 23.313-22.448 23.653-37.766 1.205-54.919-17.874-234.117-218.994-255.37.567-.525 1.123-1.164 1.679-1.916 16.194.443 31.359 1.823 45.534 4.038 0 0 5.357 12.001 15.195 2.761 16.998 3.523 32.471 8.303 46.564 14.093 0 0 0 .01.01.021.258.68 5.718 14.412 14.093 6.336 16.668 8.19 31.183 17.884 43.824 28.629-.093.494-3.286 16.009 11.404 10.425 10.971 10.827 20.315 22.458 28.247 34.501v.01c-.072.36-3.266 16.03 8.066 13.176 8.293 14.618 14.711 29.597 19.645 44.236 0 0-10.013 12.187 4.584 14.927h.01c4.193 15.092 6.902 29.545 8.592 42.546 0 0-14.33 14.546 1.669 16.102.773 10.043.938 18.707.783 25.485z" fill="#efe7e4"/><path d="m359.174 327.085c0 57.801-48.084 84.754-105.884 84.754s-103.43-26.953-103.43-84.754c0-13.372 0-42.584.114-58.175.307-41.906 60.115-46.483 104.543-46.483 41.053 0 102.788 12.91 104.657 51.306 1.109 22.774 0 36.604 0 53.352z" fill="#e7a561"/><path d="m359.174 273.734c-1.869-38.396-63.605-51.306-104.657-51.306-6.104 0-12.498.088-18.988.345 40.094 2.275 91.045 16.133 92.74 50.961 1.108 22.772 0 36.603 0 53.351 0 52.55-39.746 79.599-90.403 84.081 5.025.448 10.173.673 15.424.673 57.801 0 105.884-26.953 105.884-84.754 0-16.748 1.109-30.578 0-53.351z" fill="#e49542"/><g fill="#eadfda"><path d="m263.727 36.727v76.882c0 4.265-3.461 7.726-7.726 7.726s-7.726-3.461-7.726-7.726v-77.015c1.329-.01 2.668-.021 4.018-.021 3.872 0 7.684.051 11.434.154z"/><path d="m213.578 128.341c-4.072.875-8.287-1.797-9.169-5.944l-17.152-80.199c4.965-.927 10.044-1.741 15.277-2.442l16.988 79.416c.886 4.172-1.772 8.272-5.944 9.169z"/><path d="m173.02 138.354c-3.756 1.877-8.499.318-10.374-3.431l-36.994-73.379c4.574-2.143 9.323-4.172 14.237-6.088l36.551 72.514c1.916 3.812.392 8.458-3.42 10.384z"/><path d="m141.167 162.223c-2.955 2.925-7.955 2.944-10.93-.052l-61.089-61.666c3.626-3.564 7.438-7.026 11.445-10.384l60.626 61.182c2.997 3.029 2.977 7.922-.052 10.92z"/><path d="m116.175 196.157c-2.269 3.494-7.207 4.517-10.693 2.266l-73.719-47.903c2.431-4.491 5.038-8.942 7.829-13.351l74.317 48.295c3.574 2.328 4.594 7.108 2.266 10.693z"/><path d="m103.092 244.967c-1.677 3.728-6.473 5.549-10.219 3.863l-84.052-37.9c1.216-4.965 2.596-10.003 4.152-15.071l86.246 38.889c3.893 1.751 5.624 6.325 3.873 10.219z"/><path d="m92.09 299.535c-1.613 3.737-6.402 5.654-10.158 4.028l-81.538-35.222c.268-5.13.68-10.58 1.277-16.277l86.39 37.313c3.915 1.69 5.718 6.243 4.029 10.158z"/><path d="m324.456 43.527s-16.841 78.763-16.864 78.87c-.881 4.122-5.069 6.794-9.169 5.944-4.172-.896-6.83-4.996-5.944-9.169l16.782-78.406c5.192.803 10.26 1.73 15.195 2.761z"/><path d="m385.123 63.976s-35.723 70.858-35.768 70.948c-1.842 3.654-6.711 5.261-10.374 3.431-3.812-1.927-5.336-6.573-3.42-10.384l35.459-70.351c4.862 1.998 9.56 4.12 14.103 6.356z"/><path d="m440.35 103.029s-58.474 59.029-58.586 59.142c-2.865 2.892-7.974 2.968-10.93.052-3.029-2.998-3.049-7.891-.052-10.92l58.174-58.71c3.987 3.38 7.778 6.862 11.394 10.436z"/><path d="m476.664 150.716s-70.011 47.615-70.011 47.615c-3.478 2.372-8.365 1.44-10.734-2.04-2.4-3.534-1.483-8.345 2.04-10.734l70.639-48.027c2.864 4.358 5.552 8.756 8.066 13.186z"/><path d="m500.894 209.879s-81.546 38.843-81.621 38.879c-3.734 1.778-8.47.196-10.291-3.647-1.834-3.853-.206-8.468 3.647-10.302l83.681-39.857c1.699 5.027 3.224 10.013 4.584 14.927z"/><path d="m511.165 268.527s-81.095 35.036-81.096 35.036c-3.872 1.676-8.478-.164-10.157-4.028-1.69-3.915.113-8.468 4.028-10.158l85.556-36.952c.741 5.666 1.277 11.054 1.669 16.102z"/></g><path d="m359.174 273.734c0 57.801-48.084 84.754-105.884 84.754s-103.43-26.953-103.43-84.754 46.857-104.657 104.657-104.657 104.657 46.857 104.657 104.657z" fill="#eaa598"/><path d="m254.517 169.077c-5.251 0-10.409.392-15.453 1.138 50.473 7.47 89.205 50.969 89.205 103.519s-39.746 79.599-90.403 84.08c5.025.448 10.173.673 15.424.673 57.801 0 105.884-26.953 105.884-84.754 0-57.799-46.856-104.656-104.657-104.656z" fill="#e48e81"/></g><g/><g/><g/><g/><g/><g/><g/><g/><g/><g/><g/><g/><g/><g/><g/></svg>