<svg id="Capa_1" enable-background="new 0 0 512.002 512.002" viewBox="0 0 512.002 512.002" xmlns="http://www.w3.org/2000/svg"><g><g><circle cx="132.479" cy="78.691" fill="#fea713" r="78.689"/><circle cx="132.479" cy="78.691" fill="#ffd15b" r="48.686"/></g><g><path d="m361.083 488.448-20.277-3.078c-15.617-2.371-27.158-15.796-27.158-31.592v-235.492h-32.484v235.492c0 15.795-11.541 29.221-27.158 31.592l-20.278 3.078c-9.665 1.468-16.808 9.776-16.808 19.552 0 2.21 1.792 4.001 4.002 4.001h152.967c2.21 0 4.002-1.791 4.002-4.001-.001-9.775-7.143-18.084-16.808-19.552z" fill="#f3f0f3"/></g><g><path d="m361.083 488.448-20.277-3.078c-3.651-.554-7.075-1.719-10.185-3.371h-66.43c-3.11 1.652-6.534 2.817-10.185 3.371l-20.278 3.078c-9.665 1.467-16.808 9.776-16.808 19.552 0 2.21 1.792 4.002 4.002 4.002h152.967c2.21 0 4.001-1.792 4.001-4.002 0-9.775-7.142-18.084-16.807-19.552z" fill="#e2dee2"/></g><g><path d="m456.581 93.184c3.503-3.551.987-9.566-4.001-9.566h-241.581l-27.553 55.038 113.96 26.224 114.328-26.224z" fill="#f3f0f3"/></g><g><path d="m210.999 83.618h-30.081l-18.729 33.631 21.238 21.388c15.796-13.439 26.21-32.998 27.572-55.019z" fill="#fedba6"/><path d="m138.307 93.198 23.882 24.051c10.315-7.96 17.354-19.957 18.729-33.631h-38.623c-4.998 0-7.509 6.033-3.988 9.58z" fill="#fff0ad"/></g><g><path d="m452.58 83.618h-30.003c4.988 0 7.504 6.015 4.001 9.566l-44.849 45.471h30.003l44.849-45.471c3.503-3.551.987-9.566-4.001-9.566z" fill="#e2dee2"/></g><g><g><path d="m313.648 238.102 98.085-99.447h-228.287l97.717 99.447z" fill="#c4573a"/></g><g><path d="m281.163 238.102h32.485l98.085-99.447h-30.003z" fill="#a74b30"/></g></g><g><path d="m325.896 138.655 6.075 4.769 10.436-4.769 25.321-55.037-6.252-4.488-10.26 4.488z" fill="#fece85"/><path d="m397.624.688c-3.766-1.731-8.218-.084-9.948 3.679l-36.459 79.25h16.511l33.575-72.981c1.731-3.763.084-8.216-3.679-9.948z" fill="#fdb441"/><path d="m315.015 162.308c-1.731 3.764-.084 8.217 3.679 9.948 1.016.467 2.081.688 3.13.688 2.838 0 5.554-1.62 6.818-4.367l13.766-29.922h-16.511z" fill="#dd7f66"/></g></g><g/><g/><g/><g/><g/><g/><g/><g/><g/><g/><g/><g/><g/><g/><g/></svg>