<svg id="Capa_1" enable-background="new 0 0 512 512" viewBox="0 0 512 512" xmlns="http://www.w3.org/2000/svg"><g><g><g><path d="m439.154 0h-99.902c-9.196 0-16.65 7.455-16.65 16.65v166.504h33.301v-144.68c0-2.857 2.316-5.173 5.173-5.173h78.079c4.598 0 8.325-3.727 8.325-8.325v-16.651c0-4.598-3.728-8.325-8.326-8.325z" fill="#62dbfb"/></g><g><path d="m322.602 156.098h33.301v41.76h-33.301z" fill="#01d0fb"/></g><g><path d="m479.74 224.78-218.507 55.632-228.973-55.632 5.677-22.708c2.78-11.118 12.769-18.918 24.23-18.918h387.666c11.46 0 21.45 7.8 24.23 18.918z" fill="#f2fbff"/></g><g><path d="m474.063 202.073c-2.78-11.118-12.77-18.918-24.23-18.918h-33.301c11.461 0 21.45 7.8 24.23 18.918l5.677 22.708 14.978 18.028 18.323-18.028z" fill="#dff6fd"/></g><path d="m507.596 241.8c-1.851-9.86-10.439-17.019-20.472-17.019h-37.036l-7.078 7.003-8.222-7.003h-62.874l-5.301 4.424-10-4.424h-279.401l-8.582 5.362-6.718-5.362h-37.037c-10.032 0-18.62 7.159-20.472 17.019-2.889 15.392-4.403 31.269-4.403 47.501 0 88.285 44.695 166.123 112.688 212.143 10.246 6.935 22.376 10.556 34.749 10.556h217.127c12.372 0 24.503-3.621 34.749-10.556 67.992-46.02 112.687-123.858 112.687-212.143 0-16.232-1.514-32.109-4.404-47.501z" fill="#d77f4a"/><g><path d="m507.596 241.8c-1.851-9.86-10.439-17.019-20.472-17.019h-33.301c10.033 0 18.62 7.159 20.472 17.019 2.89 15.392 4.404 31.27 4.404 47.501 0 88.285-44.695 166.123-112.688 212.143-10.246 6.935-22.376 10.556-34.749 10.556h33.301c12.372 0 24.503-3.621 34.749-10.556 67.993-46.02 112.688-123.858 112.688-212.143 0-16.232-1.514-32.109-4.404-47.501z" fill="#c86d36"/></g><g><circle cx="160.116" cy="368.39" fill="#ac5e2e" r="16.65"/></g><g><circle cx="241.535" cy="398.836" fill="#ac5e2e" r="16.65"/></g><g><circle cx="193.417" cy="454.232" fill="#ac5e2e" r="16.65"/></g></g><g><g fill="#c86d36"><path d="m371.914 224.781h-15.3c3.598 16.924 5.431 34.366 5.431 51.858 0 26.037-4.003 51.678-11.898 76.208-1.269 3.943.899 8.168 4.842 9.437.764.246 1.538.363 2.3.363 3.169 0 6.114-2.025 7.138-5.204 8.373-26.018 12.619-53.205 12.619-80.804-.001-17.468-1.741-34.89-5.132-51.858z"/><path d="m61.912 224.781c-3.398 16.997-5.141 34.419-5.141 51.858 0 59.705 19.477 116.01 56.324 162.828 1.479 1.88 3.678 2.862 5.898 2.862 1.623 0 3.259-.525 4.634-1.607 3.255-2.562 3.816-7.277 1.255-10.532-34.746-44.146-53.111-97.244-53.111-153.55 0-17.46 1.837-34.902 5.442-51.858h-15.301z"/><path d="m450.088 224.781h-15.3c3.605 16.957 5.441 34.398 5.441 51.858 0 56.307-18.365 109.404-53.111 153.55-2.562 3.255-2 7.97 1.255 10.532 1.375 1.082 3.01 1.607 4.634 1.607 2.221 0 4.419-.982 5.898-2.862 36.848-46.817 56.324-103.123 56.324-162.828 0-17.439-1.743-34.86-5.141-51.857z"/></g><path d="m365.419 32.21-31.37-31.369c-5.007 1.647-8.959 5.6-10.607 10.607l31.369 31.368c.34.34.707.637 1.091.898v-5.24c0-2.857 2.316-5.173 5.173-5.173h5.242c-.261-.384-.558-.751-.898-1.091z" fill="#01d0fb"/><g><path d="m369.152 0h15v33.301h-15z" fill="#01d0fb"/></g><g><path d="m322.602 46.551h33.301v15h-33.301z" fill="#01d0fb"/></g></g></g><g/><g/><g/><g/><g/><g/><g/><g/><g/><g/><g/><g/><g/><g/><g/></svg>