<svg height="512" viewBox="0 0 512 512" width="512" xmlns="http://www.w3.org/2000/svg" xmlns:xlink="http://www.w3.org/1999/xlink"><clipPath id="clip-path"><path d="m362.94 114.22s-4.94 62.57-27.12 119.72c-25.45 65.48-14.71 206-10.49 228.42.09.45 2.83 2.2 2.13 3.57-4.42 8.68-35.95 8-73.91 7.38-55.54-.9-83.31-1.35-93.89.5 0 0-30.82 5.4-68.64-3.66a7 7 0 0 1 -2.4-1.12 6.78 6.78 0 0 1 -2.78-6c2.61-38.53 18.69-264 39-298.17 22.21-37.35 29.28-69 30.63-87.16.78-10.6 1.11-20 1.24-26.09a6.82 6.82 0 0 1 7.04-6.61l189.86 6.3a6.81 6.81 0 0 1 6.54 6c1.55 12.11 4.72 40.59 2.79 56.92z"/></clipPath><g id="Cocoa_powder" data-name="Cocoa powder"><path d="m355.08 51.22h4.82a6.8 6.8 0 0 1 6.67 5.41c4.87 23.27 24.08 116.23 32.85 175.91 10.1 68.64 2 210-6.56 217-6.79 5.59-47.17 14.6-63.77 18.12a6.82 6.82 0 0 1 -8.16-5.69l-40.31-275.68a6.85 6.85 0 0 1 .73-4.19l67.71-127.27a6.83 6.83 0 0 1 6.02-3.61z" fill="#f89948"/><g clip-path="url(#clip-path)"><path d="m362.94 114.22s-4.94 62.57-27.12 119.72c-25.45 65.48-14.71 206-10.49 228.42a6.52 6.52 0 0 1 -.11 3.21c-3.11 10.23-33.71 8.35-71.67 7.74-55.54-.9-83.31-1.35-93.89.5 0 0-30.82 5.4-68.64-3.66a7 7 0 0 1 -2.4-1.12 6.78 6.78 0 0 1 -2.78-6c2.61-38.53 18.69-264 39-298.17 22.21-37.35 29.28-69 30.63-87.16.78-10.6 1.11-20 1.24-26.09a6.82 6.82 0 0 1 7.04-6.61l189.86 6.3a6.81 6.81 0 0 1 6.54 6c1.55 12.11 4.72 40.59 2.79 56.92z" fill="#fdd59d"/><path d="m78.73 417.08s42.71 10 110.53 10.34 144.55-10.12 144.55-10.12l4 58.11s-150 18.77-151.7 19.52-133 0-133 0z" fill="#f89948"/></g><g fill="#562721"><path d="m354.5 81.05-188.32-8.05a1 1 0 0 1 -.91-1 .94.94 0 0 1 1-.91l188.27 8.07a1 1 0 0 1 0 1.91z"/><path d="m171.61 68.77a1 1 0 0 1 -1-1v-16.55a1 1 0 0 1 1.92 0v16.6a1 1 0 0 1 -.92.95z"/><path d="m183.72 70a1 1 0 0 1 -.95-1v-16.61a1 1 0 0 1 1.91 0v16.61a1 1 0 0 1 -.96 1z"/><path d="m197.18 70a1 1 0 0 1 -1-1v-16.61a1 1 0 0 1 1.91 0v16.61a1 1 0 0 1 -.91 1z"/><path d="m212.83 70a1 1 0 0 1 -1-1v-16.61a1 1 0 0 1 1.91 0v16.61a1 1 0 0 1 -.91 1z"/><path d="m226.12 71.46a1 1 0 0 1 -1-.95v-16.6a1 1 0 1 1 1.91 0v16.6a1 1 0 0 1 -.91.95z"/><path d="m239.08 71.46a1 1 0 0 1 -1-.95v-16.6a1 1 0 1 1 1.92 0v16.6a1 1 0 0 1 -.92.95z"/><path d="m252 73a1 1 0 0 1 -.95-1v-16.58a1 1 0 0 1 1.91 0v16.58a1 1 0 0 1 -.96 1z"/><path d="m265.16 73a1 1 0 0 1 -1-1v-16.58a1 1 0 0 1 1.92 0v16.58a1 1 0 0 1 -.92 1z"/><path d="m280.55 73a1 1 0 0 1 -1-1v-16.58a1 1 0 0 1 1.92 0v16.58a1 1 0 0 1 -.92 1z"/><path d="m294.6 73a1 1 0 0 1 -1-1v-16.58a1 1 0 0 1 1.91 0v16.58a1 1 0 0 1 -.91 1z"/><path d="m306.72 74a1 1 0 0 1 -1-1v-16.57a1 1 0 0 1 1.91 0v16.57a1 1 0 0 1 -.91 1z"/><path d="m319.17 75.33a1 1 0 0 1 -1-1v-16.55a1 1 0 1 1 1.91 0v16.6a.94.94 0 0 1 -.91.95z"/><path d="m329.43 75.33a1 1 0 0 1 -1-1v-16.55a1 1 0 1 1 1.92 0v16.6a1 1 0 0 1 -.92.95z"/><path d="m342.33 75.33a.94.94 0 0 1 -.95-1v-16.55a1 1 0 1 1 1.91 0v16.6a1 1 0 0 1 -.96.95z"/></g><circle cx="215.43" cy="245.94" fill="#fff5eb" r="92.26"/><path d="m265.09 187.43s-15.66 3-18 16.07 3.2 15.7-2 22.54-7.58 13.61-4.44 23-5.7 14 .18 25.38 10.83 20.52 14 19.16 21.38-11.25 25-24.62-4.73-22.91-1.2-28.3 14.32-11.14 8.83-21 1.47-12.62-1.68-19.83-20.69-12.4-20.69-12.4z" fill="#f89948"/><path d="m254.83 294.51a.74.74 0 0 1 -.29-.05 1 1 0 0 1 -.62-1.2c9.66-30.14 15.55-103.28 15.61-104a1 1 0 1 1 1.9.15c-.06.74-6 74.1-15.69 104.44a1 1 0 0 1 -.91.66z" fill="#fff5eb"/><path d="m289.19 173.49c-5.26.44-15.54 3-22.45 15.87a1.92 1.92 0 0 0 .3 2.26l.87.91a1.91 1.91 0 0 0 3-.41c2-3.69 6.93-10.37 15.9-10.25a1.88 1.88 0 0 0 1.65-1l2.49-4.57a1.9 1.9 0 0 0 -1.76-2.81z" fill="#70342a"/><path d="m260.54 180.05c5.33 3.68 13.82 10.83 17.35 22.2 6.22 20.06-6.61 39.71-16.32 51.59-12.95 15.85-25.32 22.36-39.33 33.44s-35.36 14.51-50.3 13.61-14.37-10.15-13.38-14.89-1.54-10.71 20.8-56.6c16.17-33.21 28.64-47.4 42.56-52.11 15.3-5.17 30.22-.67 38.62 2.76z" fill="#70342a"/><path d="m158.27 288.69a.94.94 0 0 1 -1-.88c-.48-6.31 37.2-68.93 58-87.4s47.93-19.08 48.2-19.09a1 1 0 0 1 0 1.92c-.27 0-26.79.71-47 18.61-21.06 18.67-57.76 80.79-57.38 85.81a1 1 0 0 1 -.88 1z" fill="#fff5eb"/><path d="m160.16 297.19a1 1 0 0 1 -.63-.24 1 1 0 0 1 -.09-1.35c.38-.43 38-43.8 58.72-68 20.82-24.33 51.17-39.85 51.47-40a1 1 0 1 1 .87 1.71c-.3.15-30.32 15.5-50.89 39.53-20.71 24.19-58.35 67.56-58.73 68a.94.94 0 0 1 -.72.35z" fill="#fff5eb"/><path d="m167.67 301.29a1 1 0 0 1 0-1.91c8.94-.18 47-21.26 73.5-48.46 26.23-26.9 32.91-55.25 33-55.53a1 1 0 1 1 1.86.42c-.06.29-6.87 29.17-33.47 56.45-26.82 27.52-65.63 48.85-74.83 49z" fill="#fff5eb"/><path d="m273.75 194.82s-6.66 14.49-19.95 13.63-14.46-6.89-22.35-3.53-15 4.08-23.36-1.23-14.92 2.17-24.59-6.29-17.31-15.46-15.22-18.22 16.08-18 29.93-18.35 21.09 10.12 27.18 8 14.26-11.21 22.46-3.52 12.61 1.62 18.85 6.41 7.05 23.1 7.05 23.1z" fill="#f89948"/><path d="m273.21 190.09h-.16c-.72-.12-73.12-12-104.7-9.93a1 1 0 0 1 -1-.89 1 1 0 0 1 .89-1c31.8-2.13 104.42 9.84 105.15 10a1 1 0 0 1 -.16 1.9z" fill="#fff5eb"/><path d="m363.54 460.66a1 1 0 0 1 -1-.9c-.1-1.68-9.53-168.62 0-237.51 6.9-49.89 6.9-99 0-146a1 1 0 1 1 1.89-.28c6.93 47.2 6.93 96.52 0 146.59-9.51 68.71-.09 235.46 0 237.14a1 1 0 0 1 -.9 1z" fill="#562721"/><rect fill="#e80a21" height="22.88" rx="3.87" width="24.32" x="280.55" y="394.06"/><rect fill="#e80a21" height="4.54" rx="2.15" width="71.17" x="99.09" y="394.06"/><rect fill="#e80a21" height="4.54" rx="2.15" width="91.87" x="99.09" y="405.16"/><path d="m118.16 470.25a21.46 21.46 0 1 1 21.45-21.46 21.49 21.49 0 0 1 -21.45 21.46zm0-38.13a16.67 16.67 0 1 0 16.67 16.67 16.69 16.69 0 0 0 -16.67-16.67z" fill="#e80a21"/><path d="m166.28 63.67a56.88 56.88 0 0 1 6.95 23.11 76.53 76.53 0 0 1 -1.55 24 77.6 77.6 0 0 1 -8.68 22.31 57.22 57.22 0 0 1 -16 18l-.16.11a.47.47 0 0 1 -.64-.11.46.46 0 0 1 0-.49q2.81-4.92 5.22-10c1.64-3.39 3.16-6.84 4.52-10.35a137.84 137.84 0 0 0 6.48-21.59 138.54 138.54 0 0 0 3.23-22.31c.23-3.75.31-7.52.25-11.28s-.19-7.54-.5-11.3a.44.44 0 0 1 .41-.49.46.46 0 0 1 .44.22z" fill="#fff"/><path d="m119.05 275.65a114.53 114.53 0 0 1 .73 13.47v6.6s0 4.37-.12 6.54c-.26 8.7-.75 17.29-1.42 25.87s-1.52 17.15-2.57 25.78a213.49 213.49 0 0 1 -4.67 26.21v.12a.38.38 0 0 1 -.47.27.37.37 0 0 1 -.29-.34c-.29-4.38-.56-8.76-.71-13.15s-.17-8.78-.16-13.17c0-8.78.39-17.56 1-26.32s1.73-17.49 3-26.17l1-6.51c.39-2.16.74-4.32 1.15-6.48l2.7-12.89a.39.39 0 0 1 .45-.29.37.37 0 0 1 .3.32z" fill="#fff"/><path d="m331.59 374.31a69.18 69.18 0 0 1 4.16 10.4c1.09 3.45 2 6.89 2.72 10.33a157.48 157.48 0 0 1 2.92 20.56c.54 6.83.67 13.64.56 20.43l-.28 10.15c-.05 1.68-.08 3.36 0 5 0 .83.08 1.64.19 2.45a6 6 0 0 0 .73 2.36l.13.25a.43.43 0 0 1 -.17.59.43.43 0 0 1 -.41 0 6.12 6.12 0 0 1 -2.1-1.9 15.59 15.59 0 0 1 -1.39-2.35 35.58 35.58 0 0 1 -1.91-5 92.6 92.6 0 0 1 -2.3-10.33c-1.18-6.94-1.94-13.93-2.56-20.92s-.82-14-1-21c-.11-3.5-.2-7-.25-10.51s0-7 .07-10.52a.45.45 0 0 1 .46-.44.44.44 0 0 1 .4.24z" fill="#fff"/><path d="m69.63 89.92s6 .67 7.86 4 3.25 16.88 4.5 17.68 3-16.36 4.44-18 10.32-1.84 11.1-3.21-10.09-3.29-10.89-4.94-1.38-15.67-3.21-15.94-4.94 15.25-6.82 16.43-9.18.21-10.2 1.72 3.22 2.26 3.22 2.26z" fill="#ffea52"/><path d="m28 241.41s11.6 1.3 15.18 7.67 6.29 32.61 8.7 34.15 5.69-31.59 8.57-34.77 19.93-3.55 21.43-6.2-19.47-6.28-21-9.48-2.75-30.26-6.28-30.78-9.53 29.45-13.16 31.74-17.74.4-19.71 3.31 6.27 4.36 6.27 4.36z" fill="#ffea52"/><path d="m436.61 76s11.59 1.3 15.18 7.67 6.28 32.61 8.7 34.15 5.69-31.59 8.57-34.77 19.93-3.55 21.43-6.2-19.48-6.28-21-9.48-2.66-30.26-6.19-30.78-9.53 29.45-13.16 31.74-17.75.4-19.71 3.31 6.18 4.36 6.18 4.36z" fill="#ffea52"/><path d="m443.26 411.76s8.34.93 10.92 5.51 4.53 23.47 6.26 24.58 4.1-22.73 6.17-25 14.39-2.58 15.39-4.48-14-4.53-15.14-6.83-1.92-21.77-4.46-22.15-6.86 21.2-9.47 22.84-12.78.29-14.19 2.38 4.52 3.15 4.52 3.15z" fill="#ffea52"/></g></svg>