<svg id="Capa_1" enable-background="new 0 0 512 512" height="512" viewBox="0 0 512 512" width="512" xmlns="http://www.w3.org/2000/svg"><g><ellipse cx="97.867" cy="375.744" fill="#9ec63d" rx="18.355" ry="112.199" transform="matrix(.778 -.628 .628 .778 -214.39 144.968)"/><ellipse cx="104.705" cy="301.121" fill="#b7e546" rx="18.355" ry="112.199" transform="matrix(.93 -.369 .369 .93 -103.685 59.852)"/><path d="m410.711 120.851v346.759c0 13.537-10.971 24.508-24.498 24.508h-253.157c-13.536 0-24.508-10.971-24.508-24.508 0 0 0-347.233.01-347.459l151.609-30.905 150.533 30.904c.011.227.011.464.011.701z" fill="#5ea570"/><path d="m410.711 120.851v346.759c0 13.537-10.971 24.508-24.498 24.508h-30.905c13.526 0 24.498-10.971 24.498-24.508 0 0 0-347.233-.01-347.459h30.904c.011.226.011.463.011.7z" fill="#518f60"/><path d="m486.088 346.501v16.247l-74.838 30.904-75.99-30.904v-16.247c0-23.365 25.517-36.777 36.87-41.588 3.235-1.37 5.336-4.533 5.336-8.046v-37.777h66.416v37.777c0 3.513 2.101 6.676 5.336 8.046 11.354 4.811 36.87 18.224 36.87 41.588z" fill="#91dafa"/><path d="m486.088 346.501v16.247h-27.815v-16.247c0-23.365-25.516-36.777-36.869-41.588-3.235-1.37-5.336-4.533-5.336-8.046v-37.777h27.815v37.777c0 3.513 2.101 6.676 5.336 8.046 11.353 4.811 36.869 18.224 36.869 41.588z" fill="#75cff9"/><path d="m335.261 362.749v134.431c0 8.185 6.636 14.82 14.821 14.82h121.183c8.185 0 14.824-6.635 14.824-14.82v-134.431z" fill="#f0e9e6"/><path d="m486.088 497.18v-134.431h-27.815v134.431c0 8.185-6.639 14.82-14.824 14.82h27.815c8.185 0 14.824-6.635 14.824-14.82z" fill="#dcd2cd"/><path d="m445.335 221.182h-69.325c-11.924 0-21.589 9.666-21.589 21.589v5.243c0 11.924 9.666 21.589 21.589 21.589h69.325c11.923 0 21.589-9.666 21.589-21.589v-5.243c.001-11.923-9.665-21.589-21.589-21.589z" fill="#f0e9e6"/><path d="m445.335 221.182h-27.815c11.924 0 21.589 9.666 21.589 21.589v5.243c0 11.924-9.666 21.589-21.589 21.589h27.815c11.924 0 21.589-9.666 21.589-21.589v-5.243c.001-11.923-9.665-21.589-21.589-21.589z" fill="#dcd2cd"/><path d="m169.507 56.38-49.761 40.807c-6.662 5.463-10.691 13.463-11.153 22.016h302.076c-.462-8.553-4.491-16.552-11.153-22.016l-49.761-40.807-89.587-20.604z" fill="#f0e9e6"/><path d="m379.764 119.202h30.905c-.462-8.553-4.491-16.552-11.153-22.016l-49.761-40.806h-30.905l49.761 40.807c6.662 5.463 10.691 13.463 11.153 22.015z" fill="#dcd2cd"/><path d="m169.507 8.682v47.698h180.248v-47.698c0-4.795-3.887-8.682-8.682-8.682h-162.883c-4.795 0-8.683 3.887-8.683 8.682z" fill="#5ea570"/><path d="m341.073 0h-30.905c4.795 0 8.682 3.887 8.682 8.682v47.698h30.905v-47.698c0-4.795-3.887-8.682-8.682-8.682z" fill="#518f60"/><path d="m205.511 490.064c50.024-28.882 70.262-87.481 41.381-137.505l-14.208-24.609-181.154 104.589 14.208 24.609c28.882 50.024 89.749 61.797 139.773 32.916z" fill="#b57f5f"/><path d="m246.892 352.559-.627-1.087c12.53 45.304-10.774 93.651-56.608 120.113-35.54 20.519-75.703 22.724-107.323 7.062 31.952 31.286 81.352 35.565 123.177 11.418 50.024-28.883 70.263-87.482 41.381-137.506z" fill="#9f6e50"/><g transform="matrix(.866 -.5 .5 .866 -171.083 121.997)"><ellipse cx="142.107" cy="380.244" fill="#f0e9e6" rx="104.589" ry="59.117"/><ellipse cx="142.107" cy="380.244" fill="#dcd2cd" rx="41.355" ry="23.375"/></g></g></svg>