<svg id="Capa_1" enable-background="new 0 0 512 512" viewBox="0 0 512 512" xmlns="http://www.w3.org/2000/svg"><g><g><path d="m208.516 0c-12.688 0-18.983 3.175-24.041 5.727-4.179 2.108-7.479 3.773-15.119 3.773-7.639 0-10.94-1.665-15.119-3.773-5.057-2.552-11.351-5.727-24.04-5.727-4.142 0-7.5 3.358-7.5 7.5s3.358 7.5 7.5 7.5c9.119 0 12.903 1.909 17.285 4.119 3.739 1.886 7.852 3.96 14.375 4.886v32.39c0 4.142 3.358 7.5 7.5 7.5s7.5-3.358 7.5-7.5v-32.39c6.523-.926 10.636-3 14.375-4.886 4.381-2.21 8.166-4.119 17.285-4.119 4.142 0 7.5-3.358 7.5-7.5s-3.359-7.5-7.501-7.5z" fill="#bc7c63"/><g><path d="m332.79 224.65c-2.12 96.44-55.141 141.617-101.151 170.607-15.67 9.86-30.914 19.958-48.664 21.468-24.23 2.08-44.665 3.572-66.055-9.908-3.547-2.234-16.412-6.49-20.045-9.039-44.419-31.17-93.125-86.427-93.125-178.838 0-91.01 73.89-164.77 164.96-164.55 25.783.063 50.09 6.117 71.699 16.821 40.22 19.921 66.973 58.188 80.621 101.661 5.35 17.04 12.17 32.978 11.76 51.778z" fill="#c68d7a"/><path d="m229.133 66.158c33.557 23.681 57.9 59.656 66.885 101.142 1.043 4.815-1.754 9.63-6.438 11.155-73.605 23.973-124.41 93.32-124.41 175.665 0 13.224.899 24.83 3.096 36.109.994 5.105-2.163 10.107-7.229 11.283-21.207 4.923-43.508 3.68-64.162-3.735 3.633 2.55 7.238 4.942 10.785 7.177 37.047 23.346 84.203 23.361 121.253.021 46.012-28.986 101.758-83.884 103.88-180.324 1.566-71.177-41.556-133.424-103.66-158.493z" fill="#bc7c63"/><path d="m75.14 210.138c10.4 4.969 12.008 15.696 7.039 26.096s-13.648 11.736-24.048 6.767c-5.533-2.644-10.464-4.788-12.094-10.233-1.434-4.79-1.161-10.109 1.165-14.976 4.496-9.41 15.123-13.91 24.809-11.001 1.019.306 2.139 2.873 3.129 3.347z" fill="#bc7c63"/><path d="m75.03 207.958c-.992-.474-1.998-.861-3.019-1.168 1.434 4.79 1.176 10.127-1.149 14.994-4.495 9.408-15.14 13.889-24.825 10.982 1.63 5.445 5.465 10.209 10.998 12.852 10.4 4.969 22.859.567 27.828-9.833 4.969-10.399.567-22.858-9.833-27.827z" fill="#aa6a51"/><path d="m149.182 210.138c10.4 4.969 12.008 15.696 7.039 26.096s-13.648 11.736-24.048 6.767c-5.533-2.644-10.464-4.788-12.094-10.233-1.434-4.79-1.161-10.109 1.165-14.976 4.496-9.41 15.123-13.91 24.809-11.001 1.02.306 2.139 2.873 3.129 3.347z" fill="#bc7c63"/><path d="m149.072 207.958c-.992-.474-1.998-.861-3.019-1.168 1.434 4.79 1.176 10.127-1.149 14.994-4.495 9.408-15.14 13.889-24.825 10.982 1.63 5.445 5.465 10.209 10.998 12.852 10.4 4.969 22.859.567 27.828-9.833 4.97-10.399.567-22.858-9.833-27.827z" fill="#aa6a51"/><path d="m112.161 143.346c10.4 4.969 12.008 15.696 7.039 26.096s-13.648 11.736-24.048 6.767c-5.533-2.644-10.464-4.788-12.094-10.233-1.434-4.79-1.161-10.109 1.165-14.976 4.496-9.41 15.123-13.91 24.809-11.001 1.02.306 2.139 2.873 3.129 3.347z" fill="#bc7c63"/><path d="m112.051 141.166c-.992-.474-1.998-.861-3.019-1.168 1.434 4.79 1.176 10.127-1.149 14.994-4.495 9.408-15.14 13.889-24.825 10.982 1.63 5.445 5.465 10.209 10.998 12.852 10.4 4.969 22.859.567 27.828-9.833 4.969-10.399.567-22.858-9.833-27.827z" fill="#aa6a51"/><g><circle cx="350.368" cy="354.118" fill="#f8f6f6" r="150.382"/><path d="m350.368 512c-87.056 0-157.882-70.826-157.882-157.882s70.826-157.882 157.882-157.882 157.882 70.826 157.882 157.882-70.826 157.882-157.882 157.882zm0-300.764c-78.785 0-142.882 64.097-142.882 142.882s64.097 142.882 142.882 142.882 142.882-64.097 142.882-142.882-64.097-142.882-142.882-142.882z" fill="#c68d7a"/></g><path d="m449.177 354.118c0 58.641-40.168 98.822-98.809 98.822-35.189 0-66.381-9.762-85.701-36.126-12.875-17.57-20.478-39.245-20.478-62.697 0-58.641 47.538-106.179 106.179-106.179 23.451 0 45.127 7.603 62.697 20.478 26.363 19.321 36.112 50.513 36.112 85.702z" fill="#ebebeb"/><path d="m413.065 268.418c12.875 17.57 20.48 39.247 20.48 62.698 0 58.641-47.538 106.179-106.179 106.179-23.451 0-45.129-7.604-62.698-20.48 19.32 26.364 50.511 43.482 85.701 43.482 58.641 0 106.179-47.538 106.179-106.179-.001-35.189-17.12-66.381-43.483-85.7z" fill="#e2e2e2"/><path d="m239.651 73.26c-7.81 11.24-17.456 19.06-28.311 19.06-.01 0-.01 0-.02 0-1.51 0-2.87.86-3.46 2.25-6.59 15.32-21.82 26.05-39.56 26.05-17.73 0-32.96-10.73-39.55-26.05-.6-1.39-1.96-2.25-3.46-2.25h-.03c-14.42 0-27.88-8.1-35.91-19.29-2.32-3.24-1.28-7.76 2.24-9.62 23.02-12.15 49.27-19 77.12-18.94 2.74.01 5.46.08 8.16.22 24.19 1.26 40.311 8.38 60.561 19.06 3.46 1.83 4.46 6.29 2.22 9.51z" fill="#9be69d"/></g></g><g fill="#bc7c63"><circle cx="89.375" cy="351.998" r="7.5"/><circle cx="115.496" cy="368.801" r="7.5"/><circle cx="229.327" cy="177.972" r="7.5"/><circle cx="231.639" cy="146.422" r="7.5"/><circle cx="259.051" cy="164.366" r="7.5"/></g><path d="m246.28 72.68c-7.81 11.24-20.55 19.64-34.94 19.64-1.57-32.99-34.48-47.62-34.48-47.62l.01-.01c24.19 1.26 46.94 7.8 67.19 18.48 3.46 1.83 4.46 6.29 2.22 9.51z" fill="#97da7b"/></g><g/><g/><g/><g/><g/><g/><g/><g/><g/><g/><g/><g/><g/><g/><g/></svg>