<svg height="512" viewBox="0 0 512 512" width="512" xmlns="http://www.w3.org/2000/svg"><g id="Flat"><path d="m392.31 487.56-.31.44h-272l-6.53-10.17a329.654 329.654 0 0 1 -50.03-217.4c.18-1.48.36-2.95.56-4.43l88-104h208l88 104 .38 3.02c.06.47.12.95.17 1.42a329.657 329.657 0 0 1 -56.24 227.12z" fill="#e0e0de"/><path d="m392.31 487.56-.31.44h-272l-6.53-10.17q-6.555-10.185-12.3-20.77a329.682 329.682 0 0 1 -37.73-196.63 100.015 100.015 0 0 0 63.92-3.71l40.64-16.35a176.712 176.712 0 0 0 176 0l40.64 16.35a100.245 100.245 0 0 0 63.91 3.72 329.657 329.657 0 0 1 -56.24 227.12z" fill="#7eb457"/><path d="m85.4 312.34c-.232-5.461-.318-11-.255-16.474l16 .183c-.059 5.185.022 10.437.242 15.611z" fill="#88c25e"/><path d="m117.045 435.555a305.483 305.483 0 0 1 -30.506-106.786l15.926-1.538a289.531 289.531 0 0 0 28.913 101.214z" fill="#88c25e"/><path d="m152 152-64-56 40-72h120l56 64-32 64z" fill="#d6d6d4"/><ellipse cx="196" cy="88" fill="#ebebe9" rx="60" ry="40"/><path d="m400 24h-32l-56 128h32z" fill="#4db7e5"/><path d="m392.31 487.56-.31.44h-272l-6.53-10.17q-6.555-10.185-12.3-20.77c111.56-19.77 221.06-76.63 295.71-196.3a100 100 0 0 0 51.67-.32 329.657 329.657 0 0 1 -56.24 227.12z" fill="#79ad54"/></g></svg>