<svg id="Layer_1" enable-background="new 0 0 512 512" viewBox="0 0 512 512" xmlns="http://www.w3.org/2000/svg"><g><path d="m.606 192.435 25.468 45.771c2.703 4.857 2.703 10.778 0 15.635l-25.468 45.77c-1.897 3.408.925 7.511 4.767 6.95 41.582-6.063 86.455-50.724 86.455-50.724v-19.63s-44.873-44.661-86.455-50.724c-3.842-.559-6.663 3.544-4.767 6.952z" fill="#61a2f9"/><path d="m73.66 258.64c62.81 16.58 159.819 43.62 235.869 43.62 20.76 0 41.74-1.08 61.92-3.01 0 0 4.35-7.86 19.16-2.11h.01c77.52-9.7 137.54-31.53 117.48-51.12-32.05-31.3-88.91-56.24-198.569-56.24-76.05 0-173.059 27.05-235.869 43.63-19.341 5.1-19.341 20.12-.001 25.23z" fill="#b9e4ef"/><path d="m508.098 246.02c-24.392-23.821-63.161-43.955-128.632-52.219 46.745 10.032 76.72 27.199 96.876 46.883 20.06 19.59-114.009 56.24-198.569 56.24-21.303 0-44.251-2.123-67.631-5.543 34.122 6.413 68.485 10.878 99.387 10.878 20.76 0 41.74-1.08 61.92-3.01 0 0 4.35-7.86 19.16-2.11h.01c77.519-9.699 137.539-31.529 117.479-51.119z" fill="#93d8e4"/><path d="m338.019 236.78c4.92 26.92 20.49 48.53 33.43 62.47 6.49-.62 12.89-1.32 19.17-2.11-11.97-11.14-32.51-33.9-37.85-63.06-.74-4.07-4.65-6.77-8.72-6.03-4.08.75-6.78 4.65-6.03 8.73z" fill="#7ad0df"/><g><circle cx="451.662" cy="223.583" fill="#f6f1f1" r="17.513"/></g><path d="m159.295 238.553c82.698-7.405 140.74-7.199 141.312-7.194 4.142.021 7.482 3.396 7.461 7.538-.021 4.129-3.375 7.462-7.499 7.462h-.039c-.567-.009-57.957-.203-139.897 7.134-.228.021-.453.03-.678.03-3.83-.001-7.12-3.019-7.461-6.832-.37-4.125 2.675-7.769 6.801-8.138z" fill="#93d8e4"/><path d="m322.836 299.741c1.478 1.099 1.308 3.365-.32 4.227-10.252 5.43-44.548 20.177-98.113 22.594-3.367.152-5.746-3.273-4.473-6.413 3.784-9.336 14.067-25.982 40.533-33.005 30.573-8.112 54.4 6.667 62.373 12.597z" fill="#61a2f9"/><g><path d="m322.836 299.741c-7.973-5.929-31.8-20.709-62.372-12.596-2.296.609-4.461 1.295-6.52 2.038 26.243 4.909 38.077 17.514 45.077 24.372 11.461-3.762 19.401-7.417 23.496-9.586 1.627-.863 1.797-3.129.319-4.228z" fill="#5490f9"/></g></g><g/><g/><g/><g/><g/><g/><g/><g/><g/><g/><g/><g/><g/><g/><g/></svg>