<svg id="Capa_1" enable-background="new 0 0 512 512" height="512" viewBox="0 0 512 512" width="512" xmlns="http://www.w3.org/2000/svg"><g><path d="m362.302 501.698 20.604 10.302h25.883c3.983 0 7.211-3.229 7.211-7.211v-342.602c0-1.451-.204-2.895-.607-4.289l-15.94-55.18-37.151 57.282z" fill="#a15c27"/><path d="m399.453 102.718-15.453-53.493-25.755 53.493-16.547 57.282 10.302 352h30.906v-352z" fill="#78451d"/><path d="m384 49.225-245.698 10.302v-49.225l21.698-10.302h80l16.515 10.302 15.485-10.302h104.789c3.982 0 7.211 3.229 7.211 7.211z" fill="#fad27a"/><path d="m128 7.211v42.013l16 10.302 16-10.302v-49.224h-24.789c-3.982 0-7.211 3.229-7.211 7.211z" fill="#f5b662"/><path d="m352 512h-224l-21.698-10.302v-341.698l32-100.473 21.698-10.302h224l-32 110.775z" fill="#f5b662"/><path d="m160 49.225h-32l-31.393 108.674c-.403 1.394-.607 2.838-.607 4.289v342.601c0 3.983 3.229 7.211 7.211 7.211h24.789v-349.813c0-1.451.204-2.895.607-4.289z" fill="#d28e43"/><path d="m312.789 480h-177.578c-3.983 0-7.211-3.229-7.211-7.211v-273.578c0-3.983 3.229-7.211 7.211-7.211h177.577c3.983 0 7.211 3.229 7.211 7.211v273.577c.001 3.983-3.228 7.212-7.21 7.212z" fill="#fad27a"/><path d="m240 49.225v-49.225h32v49.225l-16 10.302z" fill="#a15c27"/><path d="m250.106 128h-17.283c-4.559 0-7.975-4.178-7.067-8.647l14.244-70.128h32l-14.827 72.999c-.682 3.361-3.637 5.776-7.067 5.776z" fill="#78451d"/><path d="m272 336.062c0 31.858-17.458 58.28-40.315 63.184-2.502.537-5.087.093-7.685-.214-20.394-2.411-37.698-27.624-37.698-62.97s17.304-61.862 37.698-62.97c3.109-.169 6.158-.635 9.107.12 22.154 5.673 38.893 31.655 38.893 62.85z" fill="#a15c27"/><path d="m230.914 339.487c7.94-15.886 16.891-33.799 2.192-66.274-.671-.172-5.147-1.15-9.107-1.15-26.51 0-48 28.654-48 64s21.49 64 48 64c2.451 0 4.859-.245 7.211-.718-.235-.047-.47-.098-.704-.15.52.085.923.106 1.178.051-.095-.895-.348-1.788-.774-2.64-14.274-28.549-7.657-41.789.004-57.119zm-40.491-3.425c0-24.055 9.954-45.01 24.669-55.943 1.624-1.206 3.93-.604 4.731 1.253 10.591 24.548 4.381 36.977-2.731 51.207-5.811 11.628-12.164 24.34-9.4 43.057.49 3.318-3.841 4.977-5.66 2.16-7.236-11.206-11.609-25.789-11.609-41.734z" fill="#78451d"/></g></svg>