<svg height="512" viewBox="0 0 512 512" width="512" xmlns="http://www.w3.org/2000/svg"><g id="Flat"><path d="m144 24h80a8 8 0 0 1 8 8v40a0 0 0 0 1 0 0h-96a0 0 0 0 1 0 0v-40a8 8 0 0 1 8-8z" fill="#572b19"/><path d="m304 203.89v260.11a24.006 24.006 0 0 1 -24 24h-192a24.006 24.006 0 0 1 -24-24v-260.11a105.3 105.3 0 0 1 72-99.89v-32h96v32a105.29 105.29 0 0 1 72 99.89z" fill="#e0e0de"/><path d="m304 203.89v260.11a24.006 24.006 0 0 1 -24 24h-192a24.006 24.006 0 0 1 -24-24v-260.11a105.3 105.3 0 0 1 72-99.89h96a105.29 105.29 0 0 1 72 99.89z" fill="#572b19"/><path d="m304 203.89v260.11a24.006 24.006 0 0 1 -24 24h-80a24.006 24.006 0 0 0 24-24v-260.11a105.29 105.29 0 0 0 -72-99.89h80a105.29 105.29 0 0 1 72 99.89z" fill="#4f2816"/><path d="m136.02 147.7-8.14-13.775a81.711 81.711 0 0 1 15.709-7.156l5.06 15.178a65.751 65.751 0 0 0 -12.629 5.753z" fill="#693924"/><path d="m104.858 193.291-15.79-2.582a81.5 81.5 0 0 1 25.555-47.009l10.754 11.847a65.442 65.442 0 0 0 -20.519 37.744z" fill="#693924"/><path d="m64 216h240v208h-240z" fill="#2eb5b7"/><path d="m224 216h80v208h-80z" fill="#2aa9ab"/><g fill="#229c9e"><path d="m224 312a40 40 0 0 0 -80 0v16a40 40 0 0 0 80 0zm-64 16v-16a24.016 24.016 0 0 1 12.368-20.983 50.787 50.787 0 0 0 4.477 32.561 34.958 34.958 0 0 1 1.909 26.863l-.3.905a24.038 24.038 0 0 1 -18.454-23.346zm48 0a24.016 24.016 0 0 1 -12.368 20.983 50.788 50.788 0 0 0 -4.477-32.561 34.958 34.958 0 0 1 -1.909-26.863l.3-.905a24.038 24.038 0 0 1 18.454 23.346z"/><path d="m184 384a56.218 56.218 0 0 1 -48.513-28.006l-13.85 8.012a72.1 72.1 0 0 0 84.351 32.573l-4.882-15.238a55.984 55.984 0 0 1 -17.106 2.659z"/><path d="m212.9 375.981 8.269 13.7a72.444 72.444 0 0 0 25.2-25.672l-13.85-8.012a56.4 56.4 0 0 1 -19.619 19.984z"/><path d="m184 256a55.775 55.775 0 0 1 43.721 21l12.484-10a72.072 72.072 0 0 0 -82.76-21.938l5.9 14.871a55.714 55.714 0 0 1 20.655-3.933z"/><path d="m151.948 266.073-9.171-13.111a72.35 72.35 0 0 0 -14.977 14.038l12.479 10a56.329 56.329 0 0 1 11.669-10.927z"/><path d="m264 264h40v16h-40z"/><path d="m264 296h40v16h-40z"/><path d="m264 328h40v16h-40z"/><path d="m264 360h40v16h-40z"/><path d="m64 264h40v16h-40z"/><path d="m64 296h40v16h-40z"/><path d="m64 328h40v16h-40z"/><path d="m64 360h40v16h-40z"/></g><path d="m136 72h96v16h-96z" fill="#d6d6d4"/><path d="m448 304v72l-32 112h-112l-32-112v-72z" fill="#e0e0de"/><path d="m448 344v32l-32 112h-112l-32-112v-32z" fill="#572b19"/><path d="m448 344v32l-32 112h-40l32-112v-32z" fill="#4f2816"/><path d="m408 368a31.923 31.923 0 0 0 -24 10.868 31.934 31.934 0 0 0 -48 0 31.968 31.968 0 0 0 -47.85-.2l11.922 10.671a16 16 0 0 1 27.928 10.661v88h16v-88a16 16 0 0 1 32 0v88h16v-88a16 16 0 0 1 27.928-10.665l11.922-10.671a32.048 32.048 0 0 0 -23.85-10.664z" fill="#693924"/><path d="m408 304h40v40h-40z" fill="#d6d6d4"/></g></svg>