<svg id="Capa_1" enable-background="new 0 0 512 512" viewBox="0 0 512 512" xmlns="http://www.w3.org/2000/svg"><g><g><path d="m396.443 424.116 66.315-247.492 30.529-40.807c1.143-1.528 1.985-3.26 2.478-5.103l-187.662-91.695-111.81 417.28 205.779 24.08c.494-1.843.632-3.764.405-5.659z" fill="#cfcfdd"/><path d="m511.485 72.047c2.144-8.002-2.605-16.227-10.607-18.371l-154.548-41.411c-16.004-4.288-32.454 5.209-36.742 21.213l-11.647 43.467 198.015 53.058z" fill="#989eec"/></g><g><path d="m0 75.736c0 1.908.364 3.799 1.073 5.571l18.927 47.318v256.223l-18.927 47.317c-.709 1.772-1.073 3.663-1.073 5.571l205 30 40-223.736-40-208.264z" fill="#f5f5f8"/><path d="m390 384.848v-256.223l18.927-47.318c.709-1.771 1.073-3.663 1.073-5.571l-205-40v432l205-30c0-1.908-.364-3.799-1.073-5.571z" fill="#e2e2eb"/><path d="m15 0c-8.284 0-15 6.716-15 15v60h205l40-39-40-36z" fill="#adcfff"/><path d="m0 497c0 8.284 6.716 15 15 15h190l30-36-30-39h-205z" fill="#adcfff"/><path d="m410 15c0-8.284-6.716-15-15-15h-190v75h205z" fill="#8bbbff"/><path d="m395 512c8.284 0 15-6.716 15-15v-60h-205v75z" fill="#8bbbff"/><g><path d="m190 186v33.787l-30-30v-33.787c0-8.284-6.716-15-15-15s-15 6.716-15 15v25h-25c-8.284 0-15 6.716-15 15s6.716 15 15 15h33.787l30 30h-33.787c-8.284 0-15 6.716-15 15s6.716 15 15 15h33.787l-30 30h-33.787c-8.284 0-15 6.716-15 15s6.716 15 15 15h25v25c0 8.284 6.716 15 15 15s15-6.716 15-15v-33.787l30-30v33.787c0 8.284 6.716 15 15 15l18-84-18-86c-8.284 0-15 6.716-15 15z" fill="#adcfff"/><path d="m305 301h-33.787l-30-30h33.787c8.284 0 15-6.716 15-15s-6.716-15-15-15h-33.787l30-30h33.787c8.284 0 15-6.716 15-15s-6.716-15-15-15h-25v-25c0-8.284-6.716-15-15-15s-15 6.716-15 15v33.787l-30 30v-33.787c0-8.284-6.716-15-15-15v170c8.284 0 15-6.716 15-15v-33.787l30 30v33.787c0 8.284 6.716 15 15 15s15-6.716 15-15v-25h25c8.284 0 15-6.716 15-15s-6.716-15-15-15z" fill="#8bbbff"/></g></g></g><g/><g/><g/><g/><g/><g/><g/><g/><g/><g/><g/><g/><g/><g/><g/></svg>