<svg id="Layer_1" enable-background="new 0 0 406.45 406.45" height="512" viewBox="0 0 406.45 406.45" width="512" xmlns="http://www.w3.org/2000/svg"><g><path d="m140.394 73.602 60.545-10.676c4.215-.743 7.029-4.763 6.286-8.977-.743-4.215 2.071-8.234 6.286-8.977l22.055-3.889-4.466-25.327-151.49 26.712c-4.967.876-8.284 5.612-7.408 10.58 3.077 17.45 19.717 29.101 37.167 26.025z" fill="#c3c6d4"/><path d="m226.101 42.67 97.693-17.226c6.972-1.229 11.627-7.878 10.398-14.849-1.229-6.972-7.878-11.627-14.849-10.398l-97.693 17.226z" fill="#5a617a"/><path d="m74.696 386.557h232.652v19.893h-232.652z" fill="#c3e2e1"/><path d="m74.696 153.639h232.652v232.918h-232.652z" fill="#a1cad5"/><path d="m74.696 246.093h232.652v63.497h-232.652z" fill="#dd455b"/><circle cx="191.022" cy="272.714" fill="#c7dddb" r="80.436"/><g fill="#f9e9d7"><path d="m212.466 322.509h-42.912l-14.614-79.308 10.997-15.171c2.269-3.205 5.952-5.111 9.878-5.111h30.39c3.927 0 7.61 1.905 9.878 5.111l10.997 15.171z"/><path d="m162.755 237.365-20.518 16.686-10.38 8.442c-1.183.962-1.118 2.788.131 3.663l3.812 2.671c4.748 3.328 11.195 2.792 15.329-1.275l7.467-7.345c1.182-1.162 1.895-2.719 2.004-4.373.124-1.874 1.022-3.613 2.48-4.798l6.497-5.283z"/><path d="m219.288 237.365 20.518 16.686 10.38 8.442c1.183.962 1.118 2.788-.131 3.663l-3.812 2.671c-4.748 3.328-11.195 2.792-15.329-1.275l-7.467-7.345c-1.182-1.162-1.895-2.719-2.004-4.373-.124-1.874-1.022-3.613-2.48-4.798l-6.497-5.283z"/></g><path d="m216.083 228.03c-2.269-3.205-5.952-5.111-9.878-5.111h-30.39c-3.927 0-7.61 1.905-9.878 5.111l-10.997 15.171.049.266 11.303 7.253c8.372 5.372 13.435 14.636 13.435 24.584v47.205h22.567v-47.205c0-9.948 5.063-19.212 13.435-24.584l11.303-7.253.049-.266z" fill="#5a617a"/><path d="m178.373 302.124h25.298c4.858 0 8.795 3.938 8.795 8.795v11.589h-42.889v-11.588c0-4.858 3.938-8.796 8.796-8.796z" fill="#f9a4a0"/><path d="m292.417 133.746h-202.791c-8.246 0-14.93 6.684-14.93 14.93v3.295c0 .921.747 1.668 1.668 1.668h107.209c5.54 0 10.031 4.491 10.031 10.031v52.421c0 10.19 7.577 19.028 17.719 20.012 11.667 1.131 21.586-8.112 21.586-19.559v-52.874c0-5.54 4.491-10.031 10.031-10.031 5.54 0 10.031 4.491 10.031 10.031v100.385c0 10.19 7.577 19.028 17.72 20.011 11.667 1.131 21.585-8.112 21.585-19.559v-100.836c0-5.54 4.491-10.031 10.031-10.031h3.372c.921 0 1.668-.747 1.668-1.668v-3.295c0-8.246-6.684-14.931-14.93-14.931z" fill="#fce9d9"/><path d="m118.963 124.512c-10.809 0-19.653-8.844-19.653-19.652v-65.866l39.305-6.987v72.852c0 10.809-8.844 19.653-19.652 19.653z" fill="#fce9d9"/><path d="m158.268 93.913c-10.809 0-19.653-8.844-19.653-19.652v-42.254l39.305-6.987v49.241c0 10.808-8.844 19.652-19.652 19.652z" fill="#fce9d9"/></g></svg>