<svg id="Capa_1" enable-background="new 0 0 512 512" height="512" viewBox="0 0 512 512" width="512" xmlns="http://www.w3.org/2000/svg"><g><g><g><path d="m163.863 375.725h-.016c-21.896 0-39.71-17.814-39.71-39.71v-128.053c0-21.881 17.802-39.695 39.683-39.71h20.647c4.267 0 7.726 3.459 7.726 7.726s-3.459 7.726-7.726 7.726h-20.641c-13.361.009-24.236 10.891-24.236 24.258v128.053c0 13.375 10.882 24.258 24.258 24.258h20.86s7.478 1.824 7.478 7.726c-.001 4.267-24.056 7.726-28.323 7.726z" fill="#f37924"/></g></g><path d="m387.863 329.657v30.617l-10.302 7.726 10.302 7.726v32.533l-10.302 7.722 10.302 7.731v32.523l-10.302 7.729 10.302 7.723v8.375c0 17.638-14.298 31.936-31.936 31.936h-129.226l-20.604-.113c-17.637 0-31.936-14.186-31.936-31.823v-105.452c0-3.466 2.42-6.532 5.829-7.158 5.67-1.04 10.816-3.57 15.011-7.178 6.84-5.862 11.167-14.557 11.167-24.271v-128.021c0-9.715-6.562-18.42-12.476-24.281-4.832-4.801-9.23-7.706-9.23-7.706 6.768 0 12.311-3.121 15.834-7.747 2.689-3.523 4.203-7.922 4.203-12.476 0-3.915-1.123-7.953-3.585-11.641-1.741-2.606-2.802-5.481-3.224-8.406-.793-5.429.628-11.033 4.038-15.453 1.102-1.442 2.421-2.761 3.946-3.904l48.491-36.366v-42.299l53.693 10.302v24.271c0 4.863 2.297 9.437 6.181 12.362l42.31 31.73c1.525 1.144 2.843 2.462 3.946 3.904 1.705 2.21-7.389 4.716-6.707 7.348s11.141 5.39 10.745 8.105c-.422 2.926-1.483 5.8-3.224 8.406l-11.93 17.884c-1.298 1.957-2.225 4.059-2.792 6.233-.658 2.537-11.118 5.163-10.791 7.73.344 2.696 11.525 5.327 12.924 7.723.876 1.504 1.947 2.905 3.224 4.182l17.606 17.606c5.148 5.148 8.216 11.69 9.092 18.501.956 7.432-10.999 15.183-15.407 21.79l-5.666 8.489c-7.15 10.734-7.15 24.704 0 35.438l14.824 22.231c1.672 2.504 13.273 5.219 14.174 8.059.987 3.108 1.496 6.366 1.496 9.66z" fill="#ffd15b"/><path d="m386.367 319.996c-.901-2.839-2.199-5.554-3.869-8.059l-14.823-22.233c-7.153-10.728-7.152-24.706.001-35.434l5.659-8.487c4.406-6.607 6.059-14.357 5.105-21.788l-.007-.005h-151.665l-20.604 10.302v75.388l20.604 10.304 159.596.013z" fill="#ff9b00"/><path d="m195.863 335.999c0 9.709-4.326 18.408-11.156 24.274-4.214 3.62.92 6.16-4.773 7.194-3.372.612-5.769 3.639-5.769 7.065l-10.302 1.193v32.531l10.302 7.731-10.302 7.722v32.53l10.302 7.723-10.302 7.729v8.37c0 17.638 14.298 31.936 31.936 31.936h30.906c-17.638 0-31.936-14.298-31.936-31.936v-105.533c0-3.426 2.396-6.451 5.766-7.065 14.921-2.715 26.234-15.777 26.234-31.482v-15.997l-15.453-10.303-15.453 10.301z" fill="#faab1b"/><path d="m226.768 207.983c0-12.339-7.51-20.229-15.253-25.085-4.552-2.855-4.615-9.414-.136-12.382 9.733-6.451 16.121-17.419 10.145-26.383-4.84-9.68-1.716-22.913 6.942-29.406l40.121-30.091c3.891-2.918 6.181-7.498 6.181-12.362v-24.274l-8-10.302-22.905 10.302v24.273c0 4.864-2.29 9.444-6.181 12.362l-42.307 31.73c-1.526 1.144-2.848 2.462-3.959 3.907-1.78 2.315 7.285 4.954 6.624 7.724-.552 2.313-11.004 4.717-10.734 7.098.357 3.139 1.446 6.238 3.313 9.038 5.091 9.595.48 17.851-6.605 23.554-.265.213-.533.422-.804.628-.543.412 9.203.81 8.638 1.193-4.187 2.837-4.102 9.063.101 11.876 1.015.68-8.312 1.416-7.383 2.204 6.912 5.867 11.298 14.619 11.298 24.395v16.008l15.453 10.302 15.453-10.302v-16.007z" fill="#faab1b"/><path d="m195.863 223.991h30.906v95.993h-30.906z" fill="#f37924"/><path d="m289.202 279.188c0 7.954-6.448 14.401-14.401 14.401s-14.401-6.448-14.401-14.401c0-5.802 7.663-18.465 11.809-24.892 1.216-1.885 3.969-1.885 5.185 0 4.145 6.427 11.808 19.09 11.808 24.892z" fill="#ffd15b"/><path d="m308.651 48h-41.883l-20.604-10.302v-27.396l20.604-10.302h41.883c3.983 0 7.211 3.229 7.211 7.211v33.577c0 3.983-3.228 7.212-7.211 7.212z" fill="#ff9b00"/><path d="m235.863 7.211v33.577c0 3.983 3.229 7.211 7.211 7.211h23.694v-47.999h-23.694c-3.983 0-7.211 3.229-7.211 7.211z" fill="#f37924"/><g><g><path d="m387.863 456.236v15.453h-193.094l-20.607-7.404 20.607-8.049z" fill="#faab1b"/></g></g><g><g><path d="m387.863 408.26v15.453h-193.094l-20.607-7.73 20.607-7.723z" fill="#faab1b"/></g></g><g><g><path d="m387.863 360.274v15.453h-193.094l-20.607-7.747c7.963 0 41.441-7.706 41.441-7.706z" fill="#faab1b"/></g></g><g fill="#ff9b00"><path d="m163.863 456.239h30.906v15.453h-30.906z"/><path d="m163.863 408.256h30.906v15.453h-30.906z"/><path d="m194.769 374.529c0-3.426 2.396-6.451 5.766-7.065 5.69-1.035 10.854-3.575 15.068-7.192h-30.895c-4.214 3.619-9.382 6.16-15.075 7.195-3.371.612-5.769 3.638-5.769 7.065v1.193h30.906v-1.196z"/></g><g><path d="m348.52 183.701h-135.765l-28.291-7.706c6.768 0 29.971-7.747 29.971-7.747h131.953c-1.35 5.202-.598 10.776 2.132 15.453z" fill="#faab1b"/></g><g><path d="m364.334 135.725h-145.036s-21.861-5.21-21.258-7.728c.662-2.77 25.28-7.725 25.28-7.725h136.976c3.409 4.42 4.831 10.024 4.038 15.453z" fill="#faab1b"/></g><path d="m181.546 169.508c-4.187 2.837-4.102 9.063.101 11.876 1.065.713 2.084 1.488 3.054 2.32h28.055c-.412-.277-.825-.546-1.239-.805-4.552-2.855-4.615-9.414-.136-12.382 1.062-.704 2.084-1.462 3.055-2.265h-31.141c-.571.435-1.155.854-1.749 1.256z" fill="#ff9b00"/><path d="m223.32 120.273h-31.904c-3.398 4.419-4.818 10.022-4.028 15.453h31.911c-.358-5.378 1.081-10.947 4.021-15.453z" fill="#ff9b00"/></g></svg>