<svg height="512" viewBox="0 0 64 64" width="512" xmlns="http://www.w3.org/2000/svg"><g id="bottle-beverage-glass-alcohol_drink-drink" data-name="bottle-beverage-glass-alcohol drink-drink"><path d="m42 28.67v30.33a2.006 2.006 0 0 1 -2 2h-16a2.006 2.006 0 0 1 -2-2v-30.33a1.969 1.969 0 0 1 .4-1.2l5.6-7.47v-5h8v5l5.6 7.47a1.969 1.969 0 0 1 .4 1.2z" fill="#ff9811"/><path d="m42 33v10l-20 6v-10z" fill="#57565c"/><rect fill="#ff9811" height="4" rx="1" width="10" x="27" y="11"/><path d="m36 4v7h-8v-7a1 1 0 0 1 1-1h6a1 1 0 0 1 1 1z" fill="#57565c"/><path d="m28 15h8v2h-8z" fill="#ee8700"/></g></svg>