<svg id="Capa_1" enable-background="new 0 0 512 512" height="512" viewBox="0 0 512 512" width="512" xmlns="http://www.w3.org/2000/svg"><path d="m256 480.135c-14.652 0-28.019-1.478-40.23-4.195v15.415c0 11.402 9.243 20.645 20.645 20.645h39.169c11.402 0 20.645-9.243 20.645-20.645v-15.415c-12.21 2.717-25.577 4.195-40.229 4.195z" fill="#62c136"/><path d="m256 0c-64.535 0-101.274 135.439-116.015 240.329 103.706 68.091 115.027 191.428 116.011 228.787h.005.005c.984-37.359 12.304-160.696 116.011-228.787-14.743-104.89-51.482-240.329-116.017-240.329z" fill="#ffe55a"/><path d="m372.016 240.329c-.867-6.167-1.813-12.442-2.832-18.787-62.994 34.83-95.968 89.003-113.184 137.967-17.216-48.964-50.19-103.137-113.183-137.967-1.02 6.345-1.966 12.62-2.832 18.787 103.706 68.091 115.027 191.428 116.011 228.787h.005.005c.982-37.359 12.303-160.696 116.01-228.787z" fill="#ffd91d"/><path d="m256 480.135s8.73-192.439-157.241-261.591c-3.223-1.343-6.832.85-7.126 4.329-3.528 41.647-13.215 257.262 164.367 257.262z" fill="#98db7c"/><path d="m109.529 223.324c-3.512-1.652-7.104-3.248-10.784-4.784-3.217-1.343-6.817.856-7.111 4.33-3.528 41.644-13.219 257.265 164.366 257.265 0 0 .165-3.655.017-10.127-148.069-13.62-149.682-190.942-146.488-246.684z" fill="#82d361"/><path d="m256 480.135s-8.73-192.439 157.241-261.591c3.223-1.343 6.832.85 7.126 4.329 3.528 41.647 13.215 257.262-164.367 257.262z" fill="#98db7c"/><path d="m215.77 475.94v15.415c0 .429.038.848.064 1.27 12.193 2.708 25.54 4.181 40.166 4.181s27.972-1.473 40.166-4.181c.026-.422.064-.841.064-1.27v-15.415c-12.211 2.717-25.578 4.195-40.23 4.195s-28.019-1.478-40.23-4.195z" fill="#5cad32"/><path d="m413.255 218.541c-3.68 1.535-7.272 3.132-10.784 4.784 3.194 55.742 1.581 233.064-146.488 246.683-.148 6.472.017 10.127.017 10.127 177.585 0 167.894-215.621 164.367-257.264-.294-3.474-3.894-5.673-7.112-4.33z" fill="#82d361"/><g fill="#f9cf1e"><path d="m245.459 68.082c0-5.867 4.773-10.641 10.641-10.641s10.642 4.773 10.642 10.641c0 4.284 3.473 7.757 7.757 7.757 4.285 0 7.757-3.473 7.757-7.757 0-14.422-11.734-26.155-26.156-26.155s-26.155 11.733-26.155 26.155c0 4.284 3.473 7.757 7.757 7.757s7.757-3.473 7.757-7.757z"/><path d="m193.149 172.564c0 4.284 3.473 7.757 7.757 7.757 4.285 0 7.757-3.473 7.757-7.757 0-5.867 4.773-10.641 10.641-10.641 5.867 0 10.641 4.773 10.641 10.641 0 4.284 3.473 7.757 7.757 7.757 4.285 0 7.757-3.473 7.757-7.757 0-14.422-11.733-26.155-26.155-26.155s-26.155 11.734-26.155 26.155z"/><path d="m292.896 146.409c-14.422 0-26.155 11.733-26.155 26.155 0 4.284 3.473 7.757 7.757 7.757 4.285 0 7.757-3.473 7.757-7.757 0-5.867 4.773-10.641 10.641-10.641 5.867 0 10.641 4.773 10.641 10.641 0 4.284 3.473 7.757 7.757 7.757s7.757-3.473 7.757-7.757c0-14.421-11.732-26.155-26.155-26.155z"/><path d="m211.547 120.323c0 4.284 3.473 7.757 7.757 7.757 4.285 0 7.757-3.473 7.757-7.757 0-5.867 4.773-10.641 10.641-10.641 5.867 0 10.641 4.773 10.641 10.641 0 4.284 3.472 7.757 7.757 7.757s7.757-3.473 7.757-7.757c0-5.867 4.773-10.641 10.642-10.641 5.867 0 10.641 4.773 10.641 10.641 0 4.284 3.473 7.757 7.757 7.757 4.285 0 7.757-3.473 7.757-7.757 0-14.422-11.733-26.155-26.155-26.155-7.168 0-13.669 2.9-18.399 7.586-4.729-4.686-11.23-7.586-18.398-7.586-14.423 0-26.155 11.733-26.155 26.155z"/><path d="m256.099 250.892c-14.422 0-26.155 11.733-26.155 26.155 0 4.284 3.473 7.757 7.757 7.757 4.285 0 7.757-3.473 7.757-7.757 0-5.867 4.773-10.641 10.641-10.641s10.642 4.773 10.642 10.641c0 4.284 3.473 7.757 7.757 7.757 4.285 0 7.757-3.473 7.757-7.757 0-14.422-11.733-26.155-26.156-26.155z"/><path d="m174.313 224.806c0 4.284 3.472 7.757 7.757 7.757s7.757-3.473 7.757-7.757c0-5.867 4.773-10.641 10.641-10.641 5.867 0 10.641 4.774 10.641 10.641 0 4.284 3.473 7.757 7.757 7.757 4.285 0 7.757-3.473 7.757-7.757 0-5.867 4.773-10.641 10.642-10.641 5.867 0 10.641 4.774 10.641 10.641 0 4.284 3.473 7.757 7.757 7.757s7.757-3.473 7.757-7.757c0-14.422-11.733-26.155-26.155-26.155-7.168 0-13.669 2.9-18.399 7.586-4.729-4.686-11.23-7.586-18.398-7.586-14.423 0-26.155 11.733-26.155 26.155z"/><path d="m285.139 224.806c0 4.284 3.473 7.757 7.757 7.757 4.285 0 7.757-3.473 7.757-7.757 0-5.867 4.773-10.641 10.641-10.641 5.867 0 10.641 4.774 10.641 10.641 0 4.284 3.472 7.757 7.757 7.757s7.757-3.473 7.757-7.757c0-14.422-11.733-26.155-26.155-26.155s-26.155 11.733-26.155 26.155z"/></g></svg>