<svg id="Capa_1" enable-background="new 0 0 512 512" viewBox="0 0 512 512" xmlns="http://www.w3.org/2000/svg"><g><g><path d="m432.911 386.031v-175.82l-176.911-13.422-176.911 13.422v175.82c0 15.503-5.408 30.52-15.292 42.463l-27.632 33.389c-4.542 5.488-7.027 12.389-7.027 19.512 0 16.903 13.702 30.605 30.605 30.605h392.515c16.902 0 30.604-13.702 30.604-30.604 0-7.124-2.485-14.024-7.027-19.512l-27.632-33.389c-9.884-11.944-15.292-26.961-15.292-42.464z" fill="#fdb97e"/><path d="m475.467 461.439-27.264-32.944c-9.884-11.943-15.292-26.96-15.292-42.463v-175.82l-17.265-13.423-16.036 13.423v176.883c0 14.816 5.168 29.168 14.615 40.582l27.942 33.763c4.296 5.192 7.001 11.586 7.352 18.316.92 17.646-13.116 32.244-30.562 32.244h33.301c17.446 0 31.483-14.598 30.562-32.245-.352-6.73-3.057-13.125-7.353-18.316z" fill="#fea95c"/><path d="m427.707 126.959-134.968-113.559c-10.286-8.655-23.297-13.4-36.739-13.4-13.442 0-26.453 4.745-36.739 13.4l-134.968 113.559 171.707 18.925z" fill="#fff0ad"/><path d="m292.739 13.4c-10.286-8.655-23.297-13.4-36.739-13.4-8.964 0-17.73 2.121-25.63 6.093.521-.015 1.042-.034 1.564-.034 12.801 0 25.191 4.519 34.986 12.76l128.528 108.141 18.279 9.864 13.981-9.864z" fill="#ffe177"/><path d="m415.433 208.08 7.143-9.46 6.414-16.214-3.262-42.926-14.808-11.342-4.687-.954-3.596-.225h-328.751c-11.495 0-20.813 9.318-20.813 20.813v41.626c0 11.495 9.318 20.813 20.813 20.813h327.805.953l2.232-.107z" fill="#eaf6ff"/><path d="m438.114 126.959h-36.423c11.495 0 20.813 9.318 20.813 20.813v41.626c0 11.495-9.318 20.813-20.813 20.813h36.423c11.495 0 20.813-9.318 20.813-20.813v-41.626c0-11.494-9.319-20.813-20.813-20.813z" fill="#d8ecfe"/><g><path d="m294.226 393.81 4.862-17.732 27.294-29.121 8.158-26.201 9.238-22.558v-12.571l-6.517-10.815-6.862-5.86c-3.995-1.697-8.39-2.636-13.004-2.636-23.909 0-46.839 9.498-63.745 26.404l-30.257 30.257z" fill="#ffe177"/><path d="m324.433 363.337c16.819-16.894 26.262-39.763 26.262-63.603v-.118c0-13.777-8.367-25.599-20.296-30.665 1.697 3.995 2.636 8.39 2.636 13.004v.118c0 23.839-9.443 46.708-26.262 63.603l-30.207 30.473 17.66 17.66z" fill="#ffd15b"/><path d="m230.37 381.353 34.564-25.767-16.757-60.865c-2.009-7.298-11.894-8.412-15.477-1.744l-15.89 29.574c-5.395 10.041-12.227 19.24-20.281 27.306l-19.962 19.993z" fill="#8bc727"/><path d="m171.523 435.043 14.002 8.848h32.46l58.58-42.464 39.256-27.041-7.119-9.154-56.193-15.471c-27.095-7.46-56.109.208-75.981 20.08-16.587 16.587-19.615 42.085-8.245 61.47z" fill="#a2e62e"/><path d="m322.481 369.025-13.78-3.794c-.593.616-1.305 1.162-2.137 1.61l-29.574 15.89c-10.041 5.395-19.24 12.227-27.306 20.281l-20.592 20.56c-16.489 16.489-41.613 19.061-60.81 7.739 1.938 3.304 4.282 6.436 7.062 9.311 19.499 20.161 51.654 20.365 71.408.61l20.592-20.56c8.066-8.054 17.265-14.886 27.306-20.281l29.574-15.89c6.669-3.582 5.555-13.467-1.743-15.476z" fill="#97d729"/></g></g><g fill="#ffe177"><circle cx="251.02" cy="80.677" r="7.5"/><circle cx="237.541" cy="48.447" r="7.5"/><circle cx="202.967" cy="80.677" r="7.5"/></g></g><g/><g/><g/><g/><g/><g/><g/><g/><g/><g/><g/><g/><g/><g/><g/></svg>