<svg id="Layer_3" viewBox="0 0 512 512" xmlns="http://www.w3.org/2000/svg" data-name="Layer 3"><g><path d="m293.8089007 25.5733038c-62.113661-43.6474375-187.1468489 5.9877599-257.7683013 137.1746396s3.5310726 233.5879857 135.3577838 233.5879857 161.2523164-110.9687213 161.2523164-156.1199304-32.9566778-43.6135535-25.8945326-101.4680553 30.6026294-82.5720102-12.9472663-113.1746396z" fill="#ffebe9"/><path d="m171.3983442 372.3361024c-56.9560547 0-102.2275391-21.1005859-124.2041016-57.8911133-22.2373047-37.2255859-18.6933594-87.059082 9.9794922-140.3208008 23.5498047-43.7480469 54.9248047-80.2714844 90.7324219-105.6230469 31.3320312-22.1821289 64.2080078-34.3984375 92.5712891-34.3984375 15.7431641 0 29.0439453 3.7368164 39.5322266 11.1074219 13.7568359 9.6669922 14.7353516 15.4243164 15.1523438 17.8828125 1.1796875 6.9414062-1.2792969 17.5976562-4.3925781 31.0893555-2.7382812 11.8706055-5.8427734 25.3251953-7.8369141 41.6572266-4.9150391 40.2695312 6.6699219 59.4248047 15.9785156 74.8164062 6.0732422 10.0429688 9.7392578 16.1044922 9.7392578 29.5600586 0 20.1191406-6.9990234 53.4174805-26.7236328 81.046875-24.1943359 33.8896484-61.3808594 51.0732422-110.5283203 51.0732422z" fill="#d13b42"/><path d="m171.3984375 348.3359375c-48.3017578 0-86.0625-16.8388672-103.6005859-46.1987305-17.7333984-29.6860352-14.0009766-71.1083984 10.5087891-116.6367188 21.8027344-40.5039062 50.6660156-74.1884766 83.4677734-97.4116211 27.3125-19.3369141 55.2636719-29.9863281 78.703125-29.9863281 10.7080078 0 19.3652344 2.269043 25.7333984 6.7436523 2.5292969 1.777832 4.1591797 3.1503906 5.1630859 4.0869141-.4648438 4.5771484-2.4638672 13.2392578-3.9902344 19.8525391-2.8740234 12.4619141-6.1279297 26.565918-8.2744141 44.1450195-5.9199219 48.5019531 9.2363281 73.5620117 19.265625 90.1450195 5.4394531 8.9951172 6.2753906 10.3779297 6.2753906 17.1401367 0 13.3432617-4.6875 42.4921875-22.2568359 67.1020508-19.7041016 27.6010742-49.4697266 41.0180664-90.9951172 41.0180664z" fill="#fb5657"/><path d="m350.2599164 138.7479066c7.0622559-57.8544922 30.6025391-82.5719604-12.9472656-113.1746216-14.3325195-10.0715942-32.0175781-15.1688232-51.6101074-15.4465942h-43.2902832l-.0009766.0050049c19.5058594.3161011 37.1174316 5.4067993 51.3977051 15.4415894 43.5498047 30.6026611 20.0092773 55.3201294 12.9472656 113.1746216-7.0622559 57.8545532 25.8945312 56.3168945 25.8945312 101.4680786s-29.4257812 156.1199341-161.2524414 156.1199341h43.5039062c131.8266602 0 161.2521973-110.96875 161.2521973-156.1199341s-32.9567871-43.6135254-25.8945312-101.4680786z" fill="#fb5657"/><path d="m350.2597656 138.7478638c7.0625-57.8544922 30.6025391-82.5719604-12.9472656-113.1746216-.2995605-.2105713-.609375-.4060059-.9118652-.6122437 5.8679199 20.8392944-6.3793945 44.7817993-11.1408691 83.7868652-7.0620117 57.8545532 25.8945312 56.3168945 25.8945312 101.4680786 0 23.8604126-8.2246094 66.0983887-35.4294434 100.6299438-20.4614258 43.0610962-62.8125 85.4899902-144.326416 85.4899902h43.5039062c131.8266602 0 161.2519531-110.96875 161.2519531-156.1199341s-32.956543-43.6135254-25.8945312-101.4680786z" fill="#d13b42"/><path d="m228.2878865 76.1853447c-14.1460704-14.1460704-59.7081268 10.2008765-101.2601986 58.8512104-41.5520719 48.6503339-54.1069967 82.3916945-7.0260284 82.3916945s68.267404-43.1575543 63.5593072-70.6214524c-4.7080968-27.4638982 58.458869-56.8895033 44.7269199-70.6214524z" fill="#ff7b82"/><path d="m120.0019531 193.4282227h-.0000045c-2.122516-.000722-3.5139884-2.2408386-2.5491149-4.131366 3.8021086-7.4496713 11.645035-19.7306467 27.82451-38.6733215.9763408-1.1431508 1.9570329-2.2743737 2.9415782-3.393212 3.7614707-4.274539 10.7175886-2.1586378 11.6568457 3.4572452.0097097.058055.0195449.1161377.0295058.174248 1.2294922 7.1660156-1.2109375 19.3393555-9.4697266 29.1357422-7.5146484 8.9121094-17.7539062 13.4306641-30.4335938 13.4306641z" fill="#ffebe9"/><path d="m245.5509082 111.496071c-12.7423403-4.2474468-21.1864357 14.1242905-31.3873122 28.248581s12.5549249 19.6170701 27.4638982 18.8323873 15.6936561-43.1575543 3.923414-47.0809683z" fill="#ff7b82"/><path d="m218.8716929 189.9643514c-44.2662976 13.2138202-23.5404841 54.1431135-17.2630217 71.4061352s-10.2008765 22.7558013-2.3540484 40.8035058c7.846828 18.0477045 63.5131206-2.3540484 74.5217732-24.3251669 11.0086525-21.9711185-2.3309551-103.5781302-54.9047031-87.8844741z" fill="#ff7b82"/><path d="m247.9815432 271.5731785c-8.0485576 6.2940916-19.9352938 1.5729854-21.3407698-8.5472669-.4308942-3.1026913-1.2179828-6.393251-2.4776875-9.8569663-.6455078-1.777832-1.3671875-3.6254883-2.1298828-5.581543-2.6904297-6.8959961-8.9912109-23.0454102-6.0732422-29.0185547.9619141-1.9711914 4.6171875-4.0668945 9.7773438-5.6074219 2.1943359-.6547852 4.1914062-.9873047 5.9355469-.9873047 1.8847656 0 6.2998047 0 11.6142578 7.8730469 8.5918571 12.7272275 10.766118 32.0399724 9.9406028 42.1403696-.3026938 3.7035391-2.1141795 7.0997196-5.0240798 9.4106299-.073303.0582139-.1473366.1165534-.2220892.1750111z" fill="#ffebe9"/><path d="m74.4900568 259.8011211c16.3187614-16.3187614 56.4971619-11.7702421 75.3295493 3.923414 18.8323873 15.6936561 2.3540484 29.5650032 5.4927796 45.385131s-14.9089733 30.7291011-45.5116027 15.8201278-53.7507721-46.6886269-35.3107262-65.1286728z" fill="#ff7b82"/><path d="m131.4265479 297.4344227c-.730281 5.1938925-6.2495604 8.2734776-10.9709288 5.9890717-.0475807-.0230216-.0952871-.0461849-.1431191-.0694905-10.1899931-4.9643484-17.6726614-11.4931129-22.3899542-17.1074348-4.1114013-4.8932155-.7391228-12.3669675 5.6457487-12.6508591.6597865-.0293362 1.3438696-.0449288 2.0518227-.0449288 12.1464844 0 23.7001953 4.331543 28.8349609 8.6108398.1132812.0947266.21875.1845703.3154297.2695312-.2578125 1.2314453-.6767578 2.8481445-1.015625 4.1508789-.8077633 3.1144393-1.7523755 6.756062-2.3283349 10.8523915z" fill="#ffebe9"/></g><g><path d="m390.8142088 405.4919805c-8.6331915-.5888204-16.8228248 1.0834901-24.0385297 4.4830168-14.2104063 6.6949321-30.7841361 6.6940859-44.9947029-.0005058-7.2149097-3.3989407-15.4035258-5.0710599-24.0357415-4.4826379-24.8831741 1.6961817-44.1535623 21.6174466-45.0873059 46.5408796-1.0358002 27.6475232 21.0699149 50.386625 48.4867212 50.386625h86.2683208c27.416239 0 49.5218672-22.7381609 48.4870339-50.3849079-.9328992-24.923463-20.2026883-44.845336-45.0857959-46.5424698z" fill="#ff7b82"/><path d="m436.6098633 287.9393921c-13.7416992-5.2852783-37.1616211-9.1333008-56.9750977-11.6473999-23.4775391-2.9790649-47.234375-2.9790649-70.7116699 0-19.8134766 2.5140991-43.2336426 6.3621216-56.9753418 11.6473999-27.2021484 10.4624023-23.7885742 89.7173462-13.0778809 117.1792603 2.5556641 6.5529175 15.4638672 28.2130127 17.0927734 30.9373169 6.6352539-17.0169678 22.5236816-29.2513428 41.7824707-30.5641479 8.6323242-.5883789 16.8208008 1.0837402 24.0358887 4.482666 14.2104492 6.6945801 30.7841797 6.6954346 44.9946289.0004883 7.2158203-3.3995361 15.4055176-5.0718384 24.0385742-4.4830322 19.2580566 1.3134766 35.145752 13.5476074 41.7810059 30.5638428 1.6293945-2.7248535 14.5371094-24.3843384 17.0927734-30.9371338 10.7104492-27.4619141 14.1242676-106.7168579-13.078125-117.1792603z" fill="#fffff5"/><path d="m392.4472656 381.5478516c-1.671875-.1142578-3.3652344-.171875-5.0341797-.171875-10.7792969 0-21.1640625 2.3173828-30.8662109 6.8881836-3.7929688 1.7871094-8.0351562 2.7314453-12.2675781 2.7314453-4.2324219.0004883-8.4746094-.9443359-12.2695312-2.7324219-9.7011719-4.5703125-20.0859375-6.8876953-30.8652344-6.8876953-1.6679688 0-3.3603516.0581055-5.0322266.171875-22.4067383 1.5274048-41.8520508 13.0807495-54.0424805 30.1815186 4.7592773 9.0082397 12.6430664 22.2371216 13.8928223 24.3270874 6.6352539-17.0169678 22.5236816-29.2513428 41.7824707-30.5641479 8.6323242-.5883789 16.8208008 1.0837402 24.0358887 4.482666 14.2104492 6.6945801 30.7841797 6.6954346 44.9946289.0004883 7.2158203-3.3995361 15.4055176-5.0718384 24.0385742-4.4830322 19.2580566 1.3134766 35.145752 13.5476074 41.7810059 30.5638428 1.25-2.090332 9.1335449-15.3186646 13.8928223-24.3267822-12.1901855-17.1002197-31.6347656-28.6531982-54.0407715-30.1811523z" fill="#eaeadf"/><path d="m246.7216838 291.0843286-60.1640625 43.4129028s19.4475098 23.1404419 44.4008789 16.2994995c-.0905762-24.9638672 4.1804199-49.9521484 15.7631836-59.7124023z" fill="#845239"/><path d="m441.8359375 291.0843286 60.1640625 43.4129028s-19.4475098 23.1404419-44.4008789 16.2994995c.0905762-24.9638672-4.1804199-49.9521484-15.7631836-59.7124023z" fill="#845239"/><path d="m291.1564983 381.0550928c27.7495117 0 50.2451172-22.4956055 50.2451172-50.2452393v-56.7294922c-10.8491211.111145-21.6933594.8430786-32.4785156 2.2116089-19.8134766 2.5140991-43.2336426 6.3621826-56.9753418 11.6473999-18.7619629 7.2161865-22.958252 47.1566162-20.2424316 80.258667 12.3994141 8.119873 27.2141113 12.8570557 43.142334 12.8570557h16.3088379z" fill="#dba17b"/><ellipse cx="292.911" cy="348.061" fill="#845239" rx="8.043" ry="14.32"/><ellipse cx="395.646" cy="348.061" fill="#845239" rx="8.043" ry="14.32"/><g fill="#d13b42"><path d="m307.3134766 427.480957-6.8203125-3.9980469c-6.9877048-3.7805702-12.7812522 6.1001841-6.0682775 10.3525937-.0000819-.0000546 6.8202306 3.9979923 6.8202306 3.9979923.953125.559082 1.9980469.824707 3.0283203.824707 6.0110264.0318942 8.310441-8.0883186 3.0400391-11.1772461z"/><path d="m396.2744141 425.625c-1.6748047-2.8583984-5.3515625-3.8173828-8.2099609-2.1420898l-6.8203125 3.9980469c-6.7269363 4.2727162-.892391 14.1318555 6.0684463 10.3524881-.0000869.000051 6.8202256-3.9979959 6.8202256-3.9979959 2.8583984-1.6757812 3.8173828-5.3515625 2.1416016-8.2104492z"/></g><path d="m425.7270508 483.6593018c4.3457031-5.5860596 7.4985352-12.1435547 9.0712891-19.2964478-15.8837891 14.8590088-40.5847168 11.9293823-64.487793 9.0819702-9.2197266-1.0981445-17.9287109-2.1352539-26.03125-2.1352539-28.7155762-.0313721-68.6699219 13.6626587-90.5219727-6.9567261 1.5761719 7.1755371 4.7416992 13.7528687 9.1069336 19.3510132 24.9106445 9.0925293 55.7922363.0114136 81.4150391-.3944702 7.390625.0001831 15.7558594.9962769 24.6123047 2.0514526 18.4858398 2.1828003 39.1826172 4.727356 56.8354492-1.7015381z" fill="#d13b42"/><g fill="#845239"><path d="m433.68726 286.8885278c.0632324-.4483032.1130371-.9022827.1254883-1.3701782.4238281-16.1845703-2.8720703-31.2588501-8.7565918-44.3127441-4.5551758-10.1054077-19.1374512-9.045105-22.2802734 1.5846558-2.7045898 9.147583-7.064209 17.1739502-12.4174805 23.7006226-2.6445312 3.2243042-3.3093262 7.3121948-2.2839355 10.9299316 16.3115234 2.2905273 33.720459 5.4281616 45.612793 9.4677124z"/><path d="m254.8703655 286.8885889c11.892334-4.0395508 29.3010254-7.1772461 45.612793-9.4677734 1.0253906-3.6177368.3605957-7.7056274-2.2839355-10.9299316-5.3532715-6.5266724-9.7128906-14.5530396-12.4174805-23.7006226-3.1428223-10.6297607-17.7250977-11.6900635-22.2802734-1.5846558-5.8845215 13.053894-9.1804199 28.1281738-8.7565918 44.3127441.0124512.4678955.0622559.921936.1254883 1.3702393z"/></g></g></svg>