<svg id="icons" height="512" viewBox="0 0 64 64" width="512" xmlns="http://www.w3.org/2000/svg"><path d="m6.64 1h50.72a1.64 1.64 0 0 1 1.64 1.64v58.72a1.64 1.64 0 0 1 -1.64 1.64h-50.72a1.64 1.64 0 0 1 -1.64-1.64v-58.72a1.64 1.64 0 0 1 1.64-1.64z" fill="#e6ecf4"/><path d="m36 29.64v.36a4 4 0 1 1 -8 0v-.36a1.63459 1.63459 0 0 1 1.64-1.64h4.72a1.63459 1.63459 0 0 1 1.64 1.64z" fill="#ff5666"/><path d="m54.05 30h-9.05v7h9.05a.956.956 0 0 0 .95-.95v-5.1a.94954.94954 0 0 0 -.95-.95z" fill="#f3445a"/><path d="m54.05 41h-9.05v2h-11v4.05a.94955.94955 0 0 0 .95.95h19.1a.956.956 0 0 0 .95-.95v-5.1a.94954.94954 0 0 0 -.95-.95z" fill="#f3445a"/><path d="m54.05 19h-19.1a.94323.94323 0 0 0 -.95.95v4.05h11v2h9.05a.94959.94959 0 0 0 .95-.95v-5.1a.94954.94954 0 0 0 -.95-.95z" fill="#f3445a"/><path d="m54.05 8h-19.1a.94323.94323 0 0 0 -.95.95v5.1a.94955.94955 0 0 0 .95.95h19.1a.956.956 0 0 0 .95-.95v-5.1a.94954.94954 0 0 0 -.95-.95z" fill="#f3445a"/><path d="m54.05 52h-19.1a.94323.94323 0 0 0 -.95.95v5.1a.94328.94328 0 0 0 .95.95h19.1a.94959.94959 0 0 0 .95-.95v-5.1a.94954.94954 0 0 0 -.95-.95z" fill="#f3445a"/><path d="m9.95 37h9.05v-7h-9.05a.94323.94323 0 0 0 -.95.95v5.1a.94955.94955 0 0 0 .95.95z" fill="#f3445a"/><path d="m29.05 8h-19.1a.94323.94323 0 0 0 -.95.95v5.1a.94328.94328 0 0 0 .95.95h19.1a.94959.94959 0 0 0 .95-.95v-5.1a.94954.94954 0 0 0 -.95-.95z" fill="#f3445a"/><path d="m29.05 19h-19.1a.94323.94323 0 0 0 -.95.95v5.1a.94328.94328 0 0 0 .95.95h9.05v-2h11v-4.05a.94326.94326 0 0 0 -.95-.95z" fill="#f3445a"/><path d="m29.05 52h-19.1a.94323.94323 0 0 0 -.95.95v5.1a.94328.94328 0 0 0 .95.95h19.1a.94959.94959 0 0 0 .95-.95v-5.1a.94954.94954 0 0 0 -.95-.95z" fill="#f3445a"/><path d="m19 41h-9.05a.94323.94323 0 0 0 -.95.95v5.1a.94955.94955 0 0 0 .95.95h19.1a.94959.94959 0 0 0 .95-.95v-4.05h-11z" fill="#f3445a"/><g fill="#ff5666"><path d="m54.05 28h-9.05v7h9.05a.956.956 0 0 0 .95-.95v-5.1a.94954.94954 0 0 0 -.95-.95z"/><path d="m54.05 39h-9.05v2h-11v4.05a.94955.94955 0 0 0 .95.95h19.1a.956.956 0 0 0 .95-.95v-5.1a.94954.94954 0 0 0 -.95-.95z"/><path d="m54.05 17h-19.1a.94323.94323 0 0 0 -.95.95v4.05h11v2h9.05a.94959.94959 0 0 0 .95-.95v-5.1a.94954.94954 0 0 0 -.95-.95z"/><path d="m54.05 6h-19.1a.94323.94323 0 0 0 -.95.95v5.1a.94955.94955 0 0 0 .95.95h19.1a.956.956 0 0 0 .95-.95v-5.1a.94954.94954 0 0 0 -.95-.95z"/><path d="m54.05 50h-19.1a.94323.94323 0 0 0 -.95.95v5.1a.94328.94328 0 0 0 .95.95h19.1a.94959.94959 0 0 0 .95-.95v-5.1a.94954.94954 0 0 0 -.95-.95z"/><path d="m9.95 35h9.05v-7h-9.05a.94323.94323 0 0 0 -.95.95v5.1a.94955.94955 0 0 0 .95.95z"/><path d="m29.05 6h-19.1a.94323.94323 0 0 0 -.95.95v5.1a.94328.94328 0 0 0 .95.95h19.1a.94959.94959 0 0 0 .95-.95v-5.1a.94954.94954 0 0 0 -.95-.95z"/><path d="m29.05 17h-19.1a.94323.94323 0 0 0 -.95.95v5.1a.94328.94328 0 0 0 .95.95h9.05v-2h11v-4.05a.94326.94326 0 0 0 -.95-.95z"/><path d="m29.05 50h-19.1a.94323.94323 0 0 0 -.95.95v5.1a.94328.94328 0 0 0 .95.95h19.1a.94959.94959 0 0 0 .95-.95v-5.1a.94954.94954 0 0 0 -.95-.95z"/><path d="m19 39h-9.05a.94323.94323 0 0 0 -.95.95v5.1a.94955.94955 0 0 0 .95.95h19.1a.94959.94959 0 0 0 .95-.95v-4.05h-11z"/></g><path d="m37 42h-18v-19h3v10.74a5.25363 5.25363 0 0 0 5.26 5.26h9.48a5.25363 5.25363 0 0 0 5.26-5.26v-10.74h3v19z" fill="#05c9b1"/><path d="m32 34a3.9989 3.9989 0 0 0 4-4v-.36a1.63459 1.63459 0 0 0 -1.64-1.64h-4.72a1.63459 1.63459 0 0 0 -1.64 1.64v.36a3.9989 3.9989 0 0 0 4 4zm2-11h8v10.74a5.25363 5.25363 0 0 1 -5.26 5.26h-9.48a5.25363 5.25363 0 0 1 -5.26-5.26v-10.74z" fill="#1ddabd"/><path d="m35.70215 35h-7.4043a4.30236 4.30236 0 0 1 -4.29785-4.29785v-2.70215a1 1 0 0 1 2 0v2.70215a2.301 2.301 0 0 0 2.29785 2.29785h7.4043a2.301 2.301 0 0 0 2.29785-2.29785v-2.70215a1 1 0 0 1 2 0v2.70215a4.30236 4.30236 0 0 1 -4.29785 4.29785z" fill="#f3445a"/><path d="m30 29a.99943.99943 0 0 1 -1-1v-2a1 1 0 0 1 2 0v2a.99943.99943 0 0 1 -1 1z" fill="#f3445a"/><path d="m34 29a.99943.99943 0 0 1 -1-1v-2a1 1 0 0 1 2 0v2a.99943.99943 0 0 1 -1 1z" fill="#f3445a"/><path d="m32 35a5.00588 5.00588 0 0 1 -5-5v-.35938a2.6436 2.6436 0 0 1 2.64062-2.64062h4.71876a2.6436 2.6436 0 0 1 2.64062 2.64062v.35938a5.00588 5.00588 0 0 1 -5 5zm-2.35938-6a.641.641 0 0 0 -.64062.64062v.35938a3 3 0 0 0 6 0v-.35938a.641.641 0 0 0 -.64062-.64062z" fill="#ff5666"/></svg>