<svg id="Layer_1" enable-background="new 0 0 512 512" viewBox="0 0 512 512" xmlns="http://www.w3.org/2000/svg"><g><g fill="#d82e3d"><g><path d="m38.699 346.141c.893 0 1.802-.161 2.686-.5l45.6-17.498 63.843-1.017c4.142-.066 7.445-3.477 7.379-7.619-.065-4.101-3.41-7.38-7.497-7.38-.041 0-.082 0-.122.001l-65.171 1.038c-.878.014-1.747.182-2.567.497l-46.84 17.974c-3.867 1.484-5.799 5.822-4.315 9.689 1.145 2.984 3.988 4.815 7.004 4.815z"/><path d="m164.173 345.329-63.381 36.962c-1.234.72-2.237 1.777-2.891 3.048l-28.308 55.022c-1.895 3.683-.445 8.205 3.238 10.1 1.098.565 2.27.833 3.425.833 2.72 0 5.345-1.485 6.675-4.07l27.307-53.077 61.491-35.86c3.578-2.087 4.787-6.679 2.701-10.257-2.087-3.579-6.68-4.786-10.257-2.701z"/><path d="m155.342 345.882c4-1.074 6.373-5.188 5.298-9.188-1.074-4-5.19-6.373-9.188-5.298l-57.531 15.45c-.778.208-1.517.542-2.189.985l-65.26 43.113c-3.456 2.283-4.407 6.936-2.124 10.392 1.442 2.183 3.83 3.367 6.265 3.367 1.419 0 2.854-.402 4.127-1.243l64.245-42.443z"/><path d="m361.172 327.126 63.843 1.017 45.6 17.498c.884.339 1.792.5 2.686.5 3.015 0 5.859-1.832 7.003-4.815 1.484-3.867-.448-8.205-4.315-9.689l-46.84-17.974c-.82-.315-1.689-.483-2.567-.497l-65.171-1.038c-4.165-.05-7.553 3.238-7.619 7.379-.065 4.142 3.239 7.554 7.38 7.619z"/><path d="m414.099 385.339c-.653-1.271-1.656-2.328-2.891-3.048l-63.381-36.962c-3.578-2.086-8.17-.877-10.257 2.701-2.086 3.578-.877 8.17 2.701 10.257l61.491 35.86 27.307 53.077c1.33 2.585 3.955 4.07 6.675 4.07 1.155 0 2.327-.268 3.425-.833 3.683-1.895 5.133-6.417 3.238-10.1z"/><path d="m485.528 390.944-65.26-43.113c-.672-.444-1.411-.777-2.189-.985l-57.531-15.45c-4.001-1.074-8.115 1.298-9.188 5.298-1.075 4 1.297 8.114 5.298 9.188l56.356 15.135 64.245 42.443c1.273.841 2.708 1.243 4.127 1.243 2.435 0 4.822-1.184 6.265-3.367 2.284-3.456 1.333-8.108-2.123-10.392z"/></g><path d="m92.625 121.758c24.856-17.189 35.345-33.277 39.515-41.823 1.386-2.84 5.363-3.086 7.058-.419 8.232 12.952 21.11 46.086-21.531 90.36-.001 0-57.817-25.452-25.042-48.118z"/><path d="m419.375 121.758c-24.856-17.189-35.345-33.277-39.515-41.823-1.386-2.84-5.363-3.086-7.058-.419-8.232 12.952-21.11 46.086 21.531 90.36.001 0 57.817-25.452 25.042-48.118z"/><path d="m225.162 387.218s-40.801-3.342-82.147 28.738c0 0-1.913 16.11 13.049 26.755 0 0 42.235-21.711 99.936-43.928z"/><path d="m286.838 387.218s40.801-3.342 82.147 28.738c0 0 1.913 16.11-13.049 26.755 0 0-42.235-21.711-99.936-43.928z"/></g><path d="m133.642 413.085s-32.443 54.558 1.779 85.389c3.307 2.979 8.573 1.844 10.373-2.221 6.118-13.815 18.159-43.357 17.269-60.014-.655-12.244-20.297-30.015-29.421-23.154z" fill="#dd636e"/><path d="m378.358 413.085s32.443 54.558-1.779 85.389c-3.307 2.979-8.573 1.844-10.373-2.221-6.118-13.815-18.159-43.357-17.269-60.014.655-12.244 20.297-30.015 29.421-23.154z" fill="#dd636e"/><ellipse cx="208.744" cy="209.321" fill="#d82e3d" rx="16.404" ry="23.442" transform="matrix(.892 -.452 .452 .892 -72.116 117.087)"/><ellipse cx="300.456" cy="209.321" fill="#d82e3d" rx="23.442" ry="16.404" transform="matrix(.452 -.892 .892 .452 -22.149 382.569)"/><path d="m441.987 255.974s-32.754 51.944-64.241 31.04 20.075-48.565 40.785-52.366 23.456 21.326 23.456 21.326z" fill="#d82e3d"/><path d="m411.874 222.448c0 19.546 14.277 43.544 31.888 43.544s31.888-23.998 31.888-43.544-14.277-27.239-31.888-27.239-31.888 7.693-31.888 27.239z" fill="#dd636e"/><path d="m70.013 255.974s32.754 51.944 64.241 31.04-20.075-48.565-40.785-52.366-23.456 21.326-23.456 21.326z" fill="#d82e3d"/><path d="m125.167 286.851c0-53.44 58.576-72.099 130.833-72.099s130.833 18.659 130.833 72.099-58.576 121.424-130.833 121.424-130.833-67.984-130.833-121.424z" fill="#dd636e"/><path d="m256 214.752c-5.229 0-10.384.101-15.453.303 64.973 2.584 115.38 22.224 115.38 71.796 0 49.573-50.407 111.65-115.38 120.377 5.069.681 10.223 1.047 15.453 1.047 72.257 0 130.833-67.984 130.833-121.424s-58.576-72.099-130.833-72.099z" fill="#da4a54"/><path d="m100.126 222.448c0 19.546-14.277 43.544-31.888 43.544s-31.888-23.998-31.888-43.544 14.277-27.239 31.888-27.239 31.888 7.693 31.888 27.239z" fill="#dd636e"/><path d="m104.767 120.548c-17.492-9.237-28.462-27.351-28.462-47.112v-54.724c0-5.729-6.609-8.924-11.117-5.379-21.171 16.646-65.188 60.117-65.188 133.81 0 97.028 108.343 67.904 128.715 29.916 0 0 5.979-40.706-23.948-56.511z" fill="#dd636e"/><path d="m104.767 120.548c-17.492-9.237-28.462-27.351-28.462-47.112v-54.724c0-5.729-6.61-8.924-11.117-5.379-2.307 1.814-4.885 3.947-7.648 6.402-4.192 15.969-8.79 35.697-9.293 47.087-.945 21.407 8.374 41.734 19.698 57.953 12.211 17.488 21.817 35.733 16.649 61.865-1.864 9.426-18.182 20.085-38.281 25.31 32.087 4.826 71.007-13.641 82.403-34.891-.001 0 5.978-40.706-23.949-56.511z" fill="#da4a54"/><path d="m407.233 120.548c17.492-9.237 28.462-27.351 28.462-47.112v-54.724c0-5.729 6.609-8.924 11.117-5.379 21.171 16.646 65.188 60.117 65.188 133.81 0 97.028-108.343 67.904-128.715 29.916 0 0-5.979-40.706 23.948-56.511z" fill="#dd636e"/><path d="m446.812 13.333c-4.508-3.544-11.117-.35-11.117 5.379v12.911c21.157 22.788 45.4 60.828 45.4 115.52 0 40.388-18.776 58.905-42.161 64.037 35.179 6.599 73.067-6.658 73.067-64.037-.001-73.693-44.018-117.164-65.189-133.81z" fill="#da4a54"/></g><g/><g/><g/><g/><g/><g/><g/><g/><g/><g/><g/><g/><g/><g/><g/></svg>