<svg height="512pt" viewBox="0 -33 512 512" width="512pt" xmlns="http://www.w3.org/2000/svg"><path d="m291.382812 87.414062c0-16.09375-13.046874-29.136718-29.140624-29.136718 16.09375 0 29.140624-13.046875 29.140624-29.136719 0-16.09375-13.046874-29.140625-29.140624-29.140625-16.089844 0-29.136719 13.046875-29.136719 29.140625 0-16.09375-13.046875-29.140625-29.136719-29.140625-16.09375 0-29.140625 13.046875-29.140625 29.140625 0-16.09375-13.042969-29.140625-29.136719-29.140625-16.089844 0-29.136718 13.046875-29.136718 29.140625 0-16.09375-13.046876-29.140625-29.140626-29.140625-16.089843 0-29.136718 13.046875-29.136718 29.140625 0-16.09375-13.046875-29.140625-29.140625-29.140625-16.089844 0-29.136719 13.046875-29.136719 29.140625 0 16.089844 13.046875 29.136719 29.136719 29.136719-16.089844 0-29.136719 13.046875-29.136719 29.136718 0 16.09375 13.046875 29.140626 29.136719 29.140626-16.089844 0-29.136719 13.042968-29.136719 29.136718s13.046875 29.136719 29.136719 29.136719c-16.089844 0-29.136719 13.046875-29.136719 29.140625 0 16.089844 13.046875 29.136719 29.136719 29.136719-16.089844 0-29.136719 13.046875-29.136719 29.140625 0 16.089844 13.046875 29.136718 29.136719 29.136718-16.089844 0-29.136719 13.046876-29.136719 29.136719 0 16.09375 13.046875 29.140625 29.136719 29.140625 16.09375 0 29.140625-13.046875 29.140625-29.140625 0 16.09375 13.042968 29.140625 29.136718 29.140625s29.136719-13.046875 29.136719-29.140625c0 16.09375 13.046875 29.140625 29.140625 29.140625 16.089844 0 29.136719-13.046875 29.136719-29.140625 0 16.09375 13.046875 29.140625 29.136719 29.140625 16.09375 0 29.140625-13.046875 29.140625-29.140625 0 16.09375 13.042969 29.140625 29.136719 29.140625s29.136718-13.046875 29.136718-29.140625c0-16.089843-13.042968-29.136719-29.136718-29.136719 16.09375 0 29.136718-13.046874 29.136718-29.136718 0-16.09375-13.042968-29.140625-29.136718-29.140625 16.09375 0 29.136718-13.042969 29.136718-29.136719s-13.042968-29.136719-29.136718-29.136719c16.09375 0 29.136718-13.046875 29.136718-29.140625 0-16.089844-13.042968-29.136718-29.136718-29.136718 16.09375 0 29.140624-13.046876 29.140624-29.140626zm0 0" fill="#ffe266"/><path d="m291.382812 87.414062c0-16.09375-13.046874-29.136718-29.140624-29.136718 16.09375 0 29.140624-13.046875 29.140624-29.136719 0-16.09375-13.046874-29.140625-29.140624-29.140625-16.089844 0-29.136719 13.046875-29.136719 29.140625 0-16.09375-13.046875-29.140625-29.136719-29.140625-16.09375 0-29.140625 13.046875-29.140625 29.140625 0-16.09375-13.042969-29.140625-29.136719-29.140625-16.089844 0-29.136718 13.046875-29.136718 29.140625 0-16.09375-13.046876-29.140625-29.140626-29.140625-16.089843 0-29.136718 13.046875-29.136718 29.140625 0-16.09375-13.046875-29.140625-29.140625-29.140625-16.089844 0-29.136719 13.046875-29.136719 29.140625 0 16.089844 13.046875 29.136719 29.136719 29.136719-16.089844 0-29.136719 13.046875-29.136719 29.136718 0 16.09375 13.046875 29.140626 29.136719 29.140626-16.089844 0-29.136719 13.042968-29.136719 29.136718s13.046875 29.136719 29.136719 29.136719c-16.089844 0-29.136719 13.046875-29.136719 29.140625 0 16.089844 13.046875 29.136719 29.136719 29.136719-16.089844 0-29.136719 13.046875-29.136719 29.140625 0 16.089844 13.046875 29.136718 29.136719 29.136718-16.089844 0-29.136719 13.046876-29.136719 29.136719 0 16.09375 13.046875 29.140625 29.136719 29.140625 16.09375 0 29.140625-13.046875 29.140625-29.140625 0 16.09375 13.042968 29.140625 29.136718 29.140625s29.136719-13.046875 29.136719-29.140625c0 16.09375 13.046875 29.140625 29.140625 29.140625 16.089844 0 29.136719-13.046875 29.136719-29.140625 0 16.09375 13.046875 29.140625 29.136719 29.140625 16.09375 0 29.140625-13.046875 29.140625-29.140625 0 16.09375 13.042969 29.140625 29.136719 29.140625s29.136718-13.046875 29.136718-29.140625c0-16.089843-13.042968-29.136719-29.136718-29.136719 16.09375 0 29.136718-13.046874 29.136718-29.136718 0-16.09375-13.042968-29.140625-29.136718-29.140625 16.09375 0 29.136718-13.042969 29.136718-29.136719s-13.042968-29.136719-29.136718-29.136719c16.09375 0 29.136718-13.046875 29.136718-29.140625 0-16.089844-13.042968-29.136718-29.136718-29.136718 16.09375 0 29.140624-13.046876 29.140624-29.140626zm0 0" fill="#ffe266"/><path d="m291.382812 87.414062c0-15.878906-13.269531-29.136718-29.140624-29.136718 15.785156 0 28.640624-12.550782 29.125-28.21875.5-16.046875-12.816407-29.921875-28.875-30.058594-6.75-.0546875-12.972657 2.1875-17.9375 5.992188 6.957031 5.324218 11.445312 13.710937 11.445312 23.148437 0 16.089844-18.730469 13.042969-18.730469 29.136719 0 9.726562 6.835938 12.460937 12.25 16.65625-27.433593.128906-49.714843 22.480468-49.714843 49.945312 0 10.863282 3.488281 20.929688 9.398437 29.136719-5.910156 8.207031-9.398437 18.273437-9.398437 29.136719 0 10.867187 3.488281 20.933594 9.398437 29.140625-5.910156 8.203125-9.398437 18.273437-9.398437 29.136719 0 10.867187 3.488281 20.933593 9.398437 29.136718-5.910156 8.207032-9.398437 18.273438-9.398437 29.140625 0 2.222657.148437 4.414063.433593 6.5625.535157 4.039063-4.414062 6.320313-7.203125 3.34375-5.195312-5.542969-7.34375-14.070312-18.207031-14.070312-16.09375 0-13.046875 18.730469-29.136719 18.730469-16.09375 0-13.046875-18.730469-29.136718-18.730469-16.09375 0-13.046876 18.730469-29.140626 18.730469-16.089843 0-13.046874-18.730469-29.136718-18.730469-16.09375 0-13.046875 18.730469-29.136719 18.730469-9.441406 0-17.824219-4.488282-23.148437-11.445313-3.800782 4.96875-6.0468755 11.1875-5.98828175 17.9375.13281275 16.058594 14.00781275 29.375 30.05859375 28.878906 15.664062-.488281 28.214844-13.339843 28.214844-29.125 0 16.089844 13.046875 29.136719 29.136718 29.136719 16.09375 0 29.140626-13.046875 29.140626-29.136719 0 16.089844 13.042968 29.136719 29.136718 29.136719 16.089844 0 29.136719-13.046875 29.136719-29.136719 0 14.933594 11.238281 27.234375 25.714844 28.929688 8.296875.976562 16.742187-1.695313 22.945312-7.300781 6.085938-5.492188 9.617188-13.433594 9.617188-21.628907 0 7.640625 3.0625 15.082031 8.4375 20.507813 5.441406 5.492187 12.96875 8.628906 20.699219 8.628906 16.09375 0 29.140624-13.042969 29.140624-29.136719s-13.046874-29.136719-29.140624-29.136719c16.09375 0 29.140624-13.046874 29.140624-29.140624 0-16.089844-13.046874-29.136719-29.140624-29.136719 16.09375 0 29.140624-13.046875 29.140624-29.136719 0-16.09375-13.046874-29.140625-29.140624-29.140625 16.09375 0 29.140624-13.042969 29.140624-29.136719s-13.046874-29.136718-29.140624-29.136718c16.09375 0 29.140624-13.046876 29.140624-29.140626zm0 0" fill="#f9c450"/><path d="m77.007812 75.96875c0 5.746094-4.65625 10.40625-10.40625 10.40625-5.746093 0-10.40625-4.660156-10.40625-10.40625 0-5.75 4.660157-10.40625 10.40625-10.40625 5.75 0 10.40625 4.65625 10.40625 10.40625zm0 0" fill="#f9c450"/><path d="m112.390625 129.042969c0 5.746093-4.660156 10.40625-10.40625 10.40625s-10.40625-4.660157-10.40625-10.40625c0-5.75 4.660156-10.410157 10.40625-10.410157s10.40625 4.660157 10.40625 10.410157zm0 0" fill="#f9c450"/><path d="m199.804688 129.042969c0 5.746093-4.660157 10.40625-10.40625 10.40625-5.75 0-10.40625-4.660157-10.40625-10.40625 0-5.75 4.65625-10.410157 10.40625-10.410157 5.746093 0 10.40625 4.660157 10.40625 10.410157zm0 0" fill="#f9c450"/><path d="m235.1875 75.96875c0 5.746094-4.660156 10.40625-10.40625 10.40625-5.75 0-10.410156-4.660156-10.410156-10.40625 0-5.75 4.660156-10.40625 10.410156-10.40625 5.746094 0 10.40625 4.65625 10.40625 10.40625zm0 0" fill="#f9c450"/><path d="m156.097656 75.96875c0 5.746094-4.660156 10.40625-10.40625 10.40625s-10.40625-4.660156-10.40625-10.40625c0-5.75 4.660156-10.40625 10.40625-10.40625s10.40625 4.65625 10.40625 10.40625zm0 0" fill="#f9c450"/><path d="m156.097656 174.828125c0 5.75-4.660156 10.410156-10.40625 10.410156s-10.40625-4.660156-10.40625-10.410156c0-5.746094 4.660156-10.40625 10.40625-10.40625s10.40625 4.660156 10.40625 10.40625zm0 0" fill="#f9c450"/><path d="m77.007812 174.828125c0 5.75-4.65625 10.410156-10.40625 10.410156-5.746093 0-10.40625-4.660156-10.40625-10.410156 0-5.746094 4.660157-10.40625 10.40625-10.40625 5.75 0 10.40625 4.660156 10.40625 10.40625zm0 0" fill="#f9c450"/><path d="m77.007812 273.691406c0 5.75-4.65625 10.40625-10.40625 10.40625-5.746093 0-10.40625-4.65625-10.40625-10.40625 0-5.746094 4.660157-10.40625 10.40625-10.40625 5.75 0 10.40625 4.660156 10.40625 10.40625zm0 0" fill="#f9c450"/><path d="m112.390625 220.617188c0 5.75-4.660156 10.410156-10.40625 10.410156s-10.40625-4.660156-10.40625-10.410156c0-5.746094 4.660156-10.40625 10.40625-10.40625s10.40625 4.660156 10.40625 10.40625zm0 0" fill="#f9c450"/><path d="m199.804688 220.617188c0 5.75-4.660157 10.410156-10.40625 10.410156-5.75 0-10.40625-4.660156-10.40625-10.410156 0-5.746094 4.65625-10.40625 10.40625-10.40625 5.746093 0 10.40625 4.660156 10.40625 10.40625zm0 0" fill="#f9c450"/><path d="m156.097656 273.691406c0 5.75-4.660156 10.40625-10.40625 10.40625s-10.40625-4.65625-10.40625-10.40625c0-5.746094 4.660156-10.40625 10.40625-10.40625s10.40625 4.660156 10.40625 10.40625zm0 0" fill="#f9c450"/><path d="m512 183.15625c0-16.09375-13.046875-29.140625-29.136719-29.140625 16.089844 0 29.136719-13.042969 29.136719-29.136719s-13.046875-29.136718-29.136719-29.136718c-16.09375 0-29.140625 13.042968-29.140625 29.136718 0-16.09375-13.042968-29.136718-29.136718-29.136718s-29.136719 13.042968-29.136719 29.136718c0-16.09375-13.046875-29.136718-29.140625-29.136718-16.089844 0-29.136719 13.042968-29.136719 29.136718 0-16.09375-13.046875-29.136718-29.136719-29.136718-16.09375 0-29.140625 13.042968-29.140625 29.136718 0-16.09375-13.042969-29.136718-29.136719-29.136718s-29.136718 13.042968-29.136718 29.136718 13.042968 29.136719 29.136718 29.136719c-16.09375 0-29.136718 13.046875-29.136718 29.140625 0 16.089844 13.042968 29.136719 29.136718 29.136719-16.09375 0-29.136718 13.046875-29.136718 29.136719 0 16.09375 13.042968 29.140624 29.136718 29.140624-16.09375 0-29.136718 13.042969-29.136718 29.136719s13.042968 29.136719 29.136718 29.136719c-16.09375 0-29.136718 13.046875-29.136718 29.140625 0 16.089844 13.042968 29.136719 29.136718 29.136719-16.09375 0-29.136718 13.046875-29.136718 29.136718 0 16.09375 13.042968 29.140626 29.136718 29.140626s29.136719-13.046876 29.136719-29.140626c0 16.09375 13.046875 29.140626 29.140625 29.140626s29.136719-13.046876 29.136719-29.140626c0 16.09375 13.046875 29.140626 29.136719 29.140626 16.09375 0 29.140625-13.046876 29.140625-29.140626 0 16.09375 13.042969 29.140626 29.136719 29.140626s29.136718-13.046876 29.136718-29.140626c0 16.09375 13.046875 29.140626 29.140625 29.140626 16.089844 0 29.136719-13.046876 29.136719-29.140626 0-16.089843-13.046875-29.136718-29.136719-29.136718 16.089844 0 29.136719-13.046875 29.136719-29.136719 0-16.09375-13.046875-29.140625-29.136719-29.140625 16.089844 0 29.136719-13.042969 29.136719-29.136719s-13.046875-29.136719-29.136719-29.136719c16.089844 0 29.136719-13.046874 29.136719-29.140624 0-16.089844-13.046875-29.136719-29.136719-29.136719 16.089844 0 29.136719-13.046875 29.136719-29.136719zm0 0" fill="#ffe266"/><path d="m512 183.15625c0-16.09375-13.046875-29.140625-29.136719-29.140625 16.089844 0 29.136719-13.042969 29.136719-29.136719s-13.046875-29.136718-29.136719-29.136718c-16.09375 0-29.140625 13.042968-29.140625 29.136718 0-16.09375-13.042968-29.136718-29.136718-29.136718s-29.136719 13.042968-29.136719 29.136718c0-16.09375-13.046875-29.136718-29.140625-29.136718-16.089844 0-29.136719 13.042968-29.136719 29.136718 0-16.09375-13.046875-29.136718-29.136719-29.136718-16.09375 0-29.140625 13.042968-29.140625 29.136718 0-16.09375-13.042969-29.136718-29.136719-29.136718s-29.136718 13.042968-29.136718 29.136718 13.042968 29.136719 29.136718 29.136719c-16.09375 0-29.136718 13.046875-29.136718 29.140625 0 16.089844 13.042968 29.136719 29.136718 29.136719-16.09375 0-29.136718 13.046875-29.136718 29.136719 0 16.09375 13.042968 29.140624 29.136718 29.140624-16.09375 0-29.136718 13.042969-29.136718 29.136719s13.042968 29.136719 29.136718 29.136719c-16.09375 0-29.136718 13.046875-29.136718 29.140625 0 16.089844 13.042968 29.136719 29.136718 29.136719-16.09375 0-29.136718 13.046875-29.136718 29.136718 0 16.09375 13.042968 29.140626 29.136718 29.140626s29.136719-13.046876 29.136719-29.140626c0 16.09375 13.046875 29.140626 29.140625 29.140626s29.136719-13.046876 29.136719-29.140626c0 16.09375 13.046875 29.140626 29.136719 29.140626 16.09375 0 29.140625-13.046876 29.140625-29.140626 0 16.09375 13.042969 29.140626 29.136719 29.140626s29.136718-13.046876 29.136718-29.140626c0 16.09375 13.046875 29.140626 29.140625 29.140626 16.089844 0 29.136719-13.046876 29.136719-29.140626 0-16.089843-13.046875-29.136718-29.136719-29.136718 16.089844 0 29.136719-13.046875 29.136719-29.136719 0-16.09375-13.046875-29.140625-29.136719-29.140625 16.089844 0 29.136719-13.042969 29.136719-29.136719s-13.046875-29.136719-29.136719-29.136719c16.089844 0 29.136719-13.046874 29.136719-29.140624 0-16.089844-13.046875-29.136719-29.136719-29.136719 16.089844 0 29.136719-13.046875 29.136719-29.136719zm0 0" fill="#ffe266"/><g fill="#f9c450"><path d="m512 183.15625c0-16.09375-13.046875-29.140625-29.136719-29.140625 16.089844 0 29.136719-13.042969 29.136719-29.136719s-13.046875-29.136718-29.136719-29.136718c-6.65625 0-12.785156 2.234374-17.691406 5.988281 6.957031 5.328125 11.445313 13.710937 11.445313 23.148437 0 16.09375-18.730469 13.046875-18.730469 29.136719 0 16.09375 18.730469 13.046875 18.730469 29.140625 0 16.089844-18.730469 13.042969-18.730469 29.136719s18.730469 13.046875 18.730469 29.136719c0 16.09375-18.730469 13.046874-18.730469 29.140624 0 16.089844 18.730469 13.042969 18.730469 29.136719s-18.730469 13.046875-18.730469 29.136719c0 16.09375 18.730469 13.046875 18.730469 29.140625 0 16.089844-18.730469 13.042969-18.730469 29.136719 0 1.589844.1875 2.988281.515625 4.238281-1.300782-.046875-2.832032-.074219-4.679688-.074219-16.09375 0-13.046875 18.730469-29.136718 18.730469-16.09375 0-13.046876-18.730469-29.140626-18.730469-16.089843 0-13.042968 18.730469-29.136718 18.730469-16.089844 0-13.046875-18.730469-29.136719-18.730469-16.09375 0-13.046875 18.730469-29.140625 18.730469-16.089844 0-13.042969-18.730469-29.136719-18.730469s-13.046875 18.730469-29.136719 18.730469c-9.4375 0-17.824218-4.488281-23.148437-11.445313-3.753906 4.90625-5.992187 11.035157-5.992187 17.691407 0 16.089843 13.046874 29.136719 29.140624 29.136719 16.089844 0 29.136719-13.046876 29.136719-29.136719 0 16.089843 13.046875 29.136719 29.136719 29.136719 16.09375 0 29.140625-13.046876 29.140625-29.136719 0 16.089843 13.046875 29.136719 29.136719 29.136719 16.09375 0 29.136718-13.046876 29.136718-29.136719 0 16.089843 13.046876 29.136719 29.140626 29.136719s29.136718-13.046876 29.136718-29.136719c0 16.265625 13.613282 29.136719 29.136719 29.136719 16.09375 0 29.140625-13.046876 29.140625-29.136719 0-16.09375-13.046875-29.140625-29.140625-29.140625 16.09375 0 29.140625-13.046875 29.140625-29.136719 0-16.09375-13.046875-29.136719-29.140625-29.136719 16.09375 0 29.140625-13.046875 29.140625-29.140625s-13.046875-29.136719-29.140625-29.136719c16.09375 0 29.140625-13.046874 29.140625-29.136718 0-16.09375-13.046875-29.140625-29.140625-29.140625 16.09375 0 29.140625-13.046875 29.140625-29.136719zm0 0"/><path d="m297.628906 171.707031c0 5.75-4.660156 10.40625-10.410156 10.40625-5.746094 0-10.40625-4.65625-10.40625-10.40625 0-5.746093 4.660156-10.40625 10.40625-10.40625 5.75 0 10.410156 4.660157 10.410156 10.40625zm0 0"/><path d="m333.007812 224.78125c0 5.746094-4.65625 10.40625-10.40625 10.40625-5.746093 0-10.40625-4.660156-10.40625-10.40625s4.660157-10.40625 10.40625-10.40625c5.75 0 10.40625 4.660156 10.40625 10.40625zm0 0"/><path d="m420.421875 224.78125c0 5.746094-4.660156 10.40625-10.40625 10.40625s-10.40625-4.660156-10.40625-10.40625 4.660156-10.40625 10.40625-10.40625 10.40625 4.660156 10.40625 10.40625zm0 0"/><path d="m455.804688 171.707031c0 5.75-4.660157 10.40625-10.40625 10.40625-5.75 0-10.40625-4.65625-10.40625-10.40625 0-5.746093 4.65625-10.40625 10.40625-10.40625 5.746093 0 10.40625 4.660157 10.40625 10.40625zm0 0"/><path d="m376.714844 171.707031c0 5.75-4.660156 10.40625-10.40625 10.40625s-10.40625-4.65625-10.40625-10.40625c0-5.746093 4.660156-10.40625 10.40625-10.40625s10.40625 4.660157 10.40625 10.40625zm0 0"/><path d="m376.714844 270.570312c0 5.746094-4.660156 10.40625-10.40625 10.40625s-10.40625-4.660156-10.40625-10.40625c0-5.746093 4.660156-10.40625 10.40625-10.40625s10.40625 4.660157 10.40625 10.40625zm0 0"/><path d="m455.804688 270.570312c0 5.746094-4.660157 10.40625-10.40625 10.40625-5.75 0-10.40625-4.660156-10.40625-10.40625 0-5.746093 4.65625-10.40625 10.40625-10.40625 5.746093 0 10.40625 4.660157 10.40625 10.40625zm0 0"/><path d="m297.628906 270.570312c0 5.746094-4.660156 10.40625-10.410156 10.40625-5.746094 0-10.40625-4.660156-10.40625-10.40625 0-5.746093 4.660156-10.40625 10.40625-10.40625 5.75 0 10.410156 4.660157 10.410156 10.40625zm0 0"/><path d="m297.628906 369.433594c0 5.746094-4.660156 10.40625-10.410156 10.40625-5.746094 0-10.40625-4.660156-10.40625-10.40625 0-5.75 4.660156-10.410156 10.40625-10.410156 5.75 0 10.410156 4.660156 10.410156 10.410156zm0 0"/><path d="m333.007812 316.359375c0 5.746094-4.65625 10.40625-10.40625 10.40625-5.746093 0-10.40625-4.660156-10.40625-10.40625s4.660157-10.40625 10.40625-10.40625c5.75 0 10.40625 4.660156 10.40625 10.40625zm0 0"/><path d="m420.421875 316.359375c0 5.746094-4.660156 10.40625-10.40625 10.40625s-10.40625-4.660156-10.40625-10.40625 4.660156-10.40625 10.40625-10.40625 10.40625 4.660156 10.40625 10.40625zm0 0"/><path d="m455.804688 369.433594c0 5.746094-4.660157 10.40625-10.40625 10.40625-5.75 0-10.40625-4.660156-10.40625-10.40625 0-5.75 4.65625-10.410156 10.40625-10.410156 5.746093 0 10.40625 4.660156 10.40625 10.410156zm0 0"/><path d="m376.714844 369.433594c0 5.746094-4.660156 10.40625-10.40625 10.40625s-10.40625-4.660156-10.40625-10.40625c0-5.75 4.660156-10.410156 10.40625-10.410156s10.40625 4.660156 10.40625 10.410156zm0 0"/></g></svg>