<svg id="Berries" enable-background="new 0 0 64 64" viewBox="0 0 64 64" xmlns="http://www.w3.org/2000/svg"><g><g><path d="m18.10357 14.29998c8.11446 7.01464 6.13811 17.20647 6.13811 17.20647s-9.79897 3.42971-17.91342-3.58493c-6.44127-5.56824-6.5028-13.16198-6.25986-16.02837.06103-.72014.56635-1.30468 1.27009-1.46922 2.80111-.65489 10.32382-1.69217 16.76508 3.87605z" fill="#80d34a"/><path d="m24.24125 32.78625c-.2975 0-.595-.1025-.8375-.31125l-12.015-10.3875c-.535-.4625-.59375-1.27125-.13125-1.80625.46375-.53625 1.27125-.59125 1.80625-.13125l12.015 10.3875c.535.4625.59375 1.27125.13125 1.80625-.25375.2925-.61.4425-.96875.4425z" fill="#66a53d"/></g><g><path d="m45.89643 14.29998c-8.11446 7.01464-6.13811 17.20647-6.13811 17.20647s9.79897 3.42971 17.91342-3.58493c6.44127-5.56824 6.5028-13.16198 6.25986-16.02837-.06103-.72014-.56635-1.30468-1.27009-1.46922-2.80111-.65489-10.32382-1.69217-16.76508 3.87605z" fill="#80d34a"/><path d="m39.7575 32.78625c-.3575 0-.715-.15-.9675-.4425-.4625-.535-.405-1.34375.13-1.80625l12.015-10.3875c.535-.46 1.3425-.4025 1.805.13125.4625.535.405 1.34375-.13 1.80625l-12.015 10.3875c-.2425.20875-.54.31125-.8375.31125z" fill="#66a53d"/></g><g><circle cx="32" cy="24.023" fill="#c42626" r="12.898"/><circle cx="34.396" cy="16.94" fill="#ef3a3a" r="1.28"/></g><g><circle cx="21.562" cy="41.208" fill="#ef3a3a" r="12.898"/><circle cx="16.657" cy="35.641" fill="#c42626" r="1.28"/></g><g><circle cx="42.438" cy="41.208" fill="#fc5959" r="12.898"/><circle cx="46.178" cy="46.839" fill="#ef3a3a" r="1.28"/></g></g></svg>