<svg id="Layer_1" enable-background="new 0 0 412.407 412.407" height="512" viewBox="0 0 412.407 412.407" width="512" xmlns="http://www.w3.org/2000/svg"><g><path d="m342.899 325.959h-204.858l-39.302-148.072h283.461z" fill="#a1cad5"/><path d="m376.991 197.513h-273.042l28.956 109.096h215.13z" fill="#ffebd7"/><path d="m215.54 122.011 61.441-10.834c4.277-.754 7.133-4.833 6.379-9.11-.754-4.277 2.102-8.356 6.379-9.11l22.382-3.947-4.532-25.701-153.733 27.108c-5.041.889-8.406 5.696-7.518 10.736 3.122 17.708 20.009 29.532 37.717 26.41z" fill="#f3efee"/><path d="m302.517 90.621 99.139-17.481c7.075-1.248 11.799-7.994 10.551-15.069-1.247-7.075-7.994-11.799-15.069-10.552l-99.139 17.481z" fill="#c3c6d4"/><path d="m100.511 138.408h244.813c16.816 0 30.449 13.632 30.449 30.449h-244.813c-16.817 0-30.449-13.632-30.449-30.449z" fill="#ffebd7"/><path d="m130.96 107.959h66.656c0 16.816-13.632 30.449-30.449 30.449h-66.656c0-16.816 13.632-30.449 30.449-30.449z" fill="#ffebd7"/><path d="m394.052 157.691h-307.165c-5.094 0-9.224 4.13-9.224 9.224v1.739c0 5.094 4.13 9.224 9.224 9.224h307.165c5.094 0 9.224-4.13 9.224-9.224v-1.739c0-5.094-4.129-9.224-9.224-9.224z" fill="#c3e2e1"/><ellipse cx="240.47" cy="251.923" fill="#dd455b" rx="52.086" ry="36.692"/><path d="m0 344.9h186.722v20.188h-186.722z" fill="#ffab57"/><path d="m186.722 344.9h-186.722v-90.785l186.722 26.136z" fill="#ffe0b3"/><circle cx="54.578" cy="258.079" fill="#dd455b" r="18.941"/></g></svg>