<svg height="464pt" viewBox="-48 0 464 464.02383" width="464pt" xmlns="http://www.w3.org/2000/svg"><path d="m84.714844 464.023438c-26.265625-.363282-49.195313-17.875-56.457032-43.121094-37.660156-123.101563-37.660156-254.648438 0-377.75 4.296876-15.355469 14.644532-28.304688 28.671876-35.882813 14.027343-7.578125 30.53125-9.136719 45.730468-4.316406 31.679688 11.292969 48.707032 45.664063 38.503906 77.710937-30.183593 98.652344-30.183593 204.074219 0 302.726563 10.199219 32.046875-6.828124 66.410156-38.503906 77.707031-5.789062 1.929688-11.847656 2.917969-17.945312 2.925782zm0 0" fill="#5f9548"/><path d="m84.714844 464.023438c-26.265625-.363282-49.195313-17.875-56.457032-43.121094-37.660156-123.101563-37.660156-254.648438 0-377.75 4.296876-15.355469 14.644532-28.304688 28.671876-35.882813 14.027343-7.578125 30.53125-9.136719 45.730468-4.316406 31.679688 11.292969 48.707032 45.664063 38.503906 77.710937-30.183593 98.652344-30.183593 204.074219 0 302.726563 10.199219 32.046875-6.828124 66.410156-38.503906 77.707031-5.789062 1.929688-11.847656 2.917969-17.945312 2.925782zm0 0" fill="#568741"/><path d="m52.632812 109.144531-15.664062-3.25c1.027344-4.925781 2.109375-9.847656 3.25-14.765625l15.582031 3.621094c-1.109375 4.796875-2.164062 9.59375-3.167969 14.394531zm0 0" fill="#5f9548"/><path d="m24.492188 256.335938c-1.746094-44.800782 1.359374-89.660157 9.261718-133.792969l15.753906 2.816406c-7.699218 43-10.726562 86.703125-9.035156 130.351563zm0 0" fill="#5f9548"/><g fill="#43752e"><path d="m40.011719 320.023438h16v16h-16zm0 0"/><path d="m56.011719 352.023438h16v16h-16zm0 0"/><path d="m96.011719 384.023438h16v16h-16zm0 0"/><path d="m88.011719 32.023438h16v16h-16zm0 0"/></g><path d="m141.203125 80.664062c8.214844-26.46875-1.773437-55.199218-24.632813-70.863281-.183593 197.238281-68.273437 306.398438-103.695312 349.792969 4.144531 20.582031 9.207031 41.046875 15.382812 61.308594 7.261719 25.246094 30.191407 42.757812 56.457032 43.121094 6.113281-.003907 12.183594-.992188 17.984375-2.925782 31.675781-11.296875 48.703125-45.660156 38.503906-77.707031-30.183594-98.652344-30.183594-204.074219 0-302.726563zm0 0" fill="#51803d"/><path d="m338.148438 43.152344c-10.722657-32.691406-45.792969-50.632813-78.578126-40.199219-15.738281 4.851563-28.882812 15.789063-36.515624 30.382813-7.632813 14.597656-9.117188 31.632812-4.125 47.328124 15.796874 48.902344 23.859374 99.96875 23.898437 151.359376h125.183594c-.058594-64.128907-10.136719-127.851563-29.863281-188.871094zm0 0" fill="#568741"/><path d="m338.148438 43.152344c-5.128907-15.898438-16.46875-29.050782-31.441407-36.457032 11.703125 111.730469-21.023437 183.503907-52.601562 225.328126h113.90625c-.058594-64.128907-10.136719-127.851563-29.863281-188.871094zm0 0" fill="#51803d"/><path d="m368.011719 232.246094c0-33.585938-28.015625-60.8125-62.570313-60.8125-34.554687 0-62.566406 27.226562-62.566406 60.8125 0 33.589844 28.011719 60.816406 62.566406 60.816406 34.554688 0 62.570313-27.226562 62.570313-60.816406zm0 0" fill="#7eb457"/><path d="m367.960938 274.984375c0-33.589844-28.011719-60.816406-62.566407-60.816406-34.554687 0-62.566406 27.226562-62.566406 60.816406 0 33.585937 28.011719 60.816406 62.566406 60.816406 34.554688 0 62.566407-27.230469 62.566407-60.816406zm0 0" fill="#77ad50"/><path d="m359.960938 317.726562c0-33.585937-28.011719-60.816406-62.566407-60.816406-34.554687 0-62.566406 27.230469-62.566406 60.816406 0 33.589844 28.011719 60.816407 62.566406 60.816407 34.554688 0 62.566407-27.226563 62.566407-60.816407zm0 0" fill="#7eb457"/><path d="m351.960938 360.464844c0-33.589844-28.011719-60.816406-62.566407-60.816406-34.554687 0-62.566406 27.226562-62.566406 60.816406 0 33.585937 28.011719 60.816406 62.566406 60.816406 34.554688 0 62.566407-27.230469 62.566407-60.816406zm0 0" fill="#77ad50"/><path d="m333.105469 403.207031c0-33.585937-28.011719-60.816406-62.566407-60.816406-34.554687 0-62.570312 27.230469-62.570312 60.816406 0 33.589844 28.015625 60.816407 62.570312 60.816407 34.554688 0 62.566407-27.226563 62.566407-60.816407zm0 0" fill="#7eb457"/><path d="m275.835938 383.789062 12.800781-9.601562 21.828125 29.105469-12.796875 9.601562zm0 0" fill="#88c25e"/><path d="m232.164062 403.292969 21.839844-29.109375 12.796875 9.601562-21.839843 29.109375zm0 0" fill="#88c25e"/><path d="m253.121094 414.65625h36.394531v16h-36.394531zm0 0" fill="#88c25e"/><path d="m264.011719 152.984375c-4.339844-29.449219-12.207031-58.269531-23.425781-85.839844l14.730468-6.25c11.871094 28.933594 20.128906 59.214844 24.589844 90.167969zm0 0" fill="#68a34f"/><path d="m288.011719 56.023438h16v16h-16zm0 0" fill="#43752e"/><path d="m312.011719 88.023438h16v16h-16zm0 0" fill="#43752e"/></svg>