<svg id="Capa_1" enable-background="new 0 0 512 512" height="512" viewBox="0 0 512 512" width="512" xmlns="http://www.w3.org/2000/svg"><g><g><path clip-rule="evenodd" d="m153.282 452.745c-159.516 32.7-160.997-265.953-105.734-374.855 6.911-12.749 3.862-76.522 14.752-77.771 10.483-3.136 32.786 56.687 44.17 65.69 93.653 78.351 209.841 353.482 50.355 386.211-1.191.232-2.353.493-3.543.725z" fill="#d87e49" fill-rule="evenodd"/></g><g><path clip-rule="evenodd" d="m109.46 453.007c10.745 2.439 22.535 2.933 35.429 1.162-63.975-190.565-88.891-303.358-83.576-388.709 4.153-35.923-31.102-54.19-31.711 13.591-1.192 131.06 32.843 251.869 79.858 373.956z" fill="#fed1a3" fill-rule="evenodd"/></g><g><path clip-rule="evenodd" d="m197.19 435.002c-8.915 6.476-19.544 11.587-32.089 15.043-16.204-200.38-37.694-313.87-76.171-390.247-17.976-31.393 7.231-62.06 34.499.029 52.678 119.995 68.94 244.434 73.761 375.175z" fill="#fed1a3" fill-rule="evenodd"/></g><g><path clip-rule="evenodd" d="m197.19 435.002c-5.343 3.891-11.326 7.289-17.976 10.135 2.004-88.08-16.001-264.589-63.713-368.467-9.67-21.054-15.769-34.239-29.04-49.688.087-.087.145-.174.232-.261 6.708-7.405 21.402-1.83 36.735 33.106 52.679 119.995 68.941 244.434 73.762 375.175z" fill="#ffbc85" fill-rule="evenodd"/></g><g><path clip-rule="evenodd" d="m155.053 452.368 1.771-.348c2.846-.581 5.605-1.249 8.276-1.975-16.204-200.38-37.694-313.87-76.171-390.247-6.737-11.732-7.405-23.378-4.211-30.115-8.537-16.176-17.017-31.161-22.418-29.564z" fill="#c86d35" fill-rule="evenodd"/></g><g><path clip-rule="evenodd" d="m18.305 187.227c16.582 103.53 43.473 205.201 77.478 261.394 4.356 1.83 8.915 3.282 13.678 4.385-41.644-108.175-73.123-215.364-78.931-329.552-5.372 19.428-9.525 41.093-12.225 63.773z" fill="#c86d35" fill-rule="evenodd"/></g><g><path clip-rule="evenodd" d="m46.386 80.213c.378 85.321 25.903 197.505 83.373 375.03 4.879 0 9.903-.349 15.13-1.074-63.975-190.565-88.891-303.358-83.576-388.709 1.568-13.446-2.41-24.394-7.986-29.331-3.194-2.788-6.882-3.63-10.396-1.888 3.107 6.157 4.879 14.956 3.891 25.004-.32 6.825-.465 13.795-.436 20.968z" fill="#ffbc85" fill-rule="evenodd"/></g><g><path clip-rule="evenodd" d="m377.44 511.291c-162.303-13.097-80.411-300.309 3.02-389.463 10.222-10.338 25.061-72.398 35.864-70.598 10.948-.058 15.681 63.599 24.103 75.418 68.069 101.381 102.888 398.001-59.386 384.933-1.22-.116-2.411-.203-3.601-.29z" fill="#d87e49" fill-rule="evenodd"/></g><g><path clip-rule="evenodd" d="m335.274 499.297c9.641 5.343 20.822 9.119 33.686 11.035-8.247-200.874-.726-316.136 28.198-396.607 14.026-33.339-14.752-60.724-34.238 4.211-37.723 125.514-38.71 250.998-27.646 381.361z" fill="#fed1a3" fill-rule="evenodd"/></g><g><path clip-rule="evenodd" d="m424.571 506.499c-10.396 3.746-22.041 5.663-35.022 5.489 40.336-196.953 51.342-311.925 35.69-395.997-8.48-35.168 24.277-57.587 33.134 9.641 17.105 129.928-2.003 253.96-33.802 380.867z" fill="#fed1a3" fill-rule="evenodd"/></g><g><path clip-rule="evenodd" d="m424.571 506.499c-6.244 2.236-12.923 3.833-20.096 4.705 26.484-84.014 58.428-258.519 41.585-371.574-3.398-22.942-5.605-37.288-14.026-55.845.116-.058.203-.145.29-.203 8.538-5.198 21.083 4.24 26.049 42.051 17.105 129.927-2.003 253.959-33.802 380.866z" fill="#ffbc85" fill-rule="evenodd"/></g><g><path clip-rule="evenodd" d="m379.24 511.436 1.8.145c2.875.232 5.721.348 8.509.407 40.336-196.953 51.342-311.925 35.69-395.997-3.165-13.155-.581-24.51 4.385-30.086-3.688-17.918-7.667-34.703-13.3-34.674z" fill="#c86d35" fill-rule="evenodd"/></g><g><path clip-rule="evenodd" d="m321.887 218.649c-12.981 104.052-15.507 209.179 1.481 272.633 3.688 2.991 7.637 5.663 11.906 8.015-9.815-115.494-10.135-227.213 16.146-338.468-10.571 17.134-20.618 36.795-29.533 57.82z" fill="#c86d35" fill-rule="evenodd"/></g><g><path clip-rule="evenodd" d="m378.688 123.745c-23.435 82.011-30.201 196.866-24.539 383.365 4.675 1.365 9.612 2.439 14.81 3.224-8.247-200.874-.726-316.136 28.198-396.607 5.227-12.487 4.501-24.104.494-30.405-2.265-3.543-5.576-5.402-9.438-4.705 1.278 6.796.494 15.711-3.252 25.091-2.207 6.446-4.298 13.125-6.273 20.037z" fill="#ffbc85" fill-rule="evenodd"/></g></g></svg>