<svg id="Layer_1" enable-background="new 0 0 512 512" height="512" viewBox="0 0 512 512" width="512" xmlns="http://www.w3.org/2000/svg"><g><g><path clip-rule="evenodd" d="m203.966 58.731-4.666 7.479-4.09 6.552h-190.172v-19.11c0-4.904 4.028-8.932 8.932-8.932h181.24z" fill="#ce9874" fill-rule="evenodd"/></g><g><path clip-rule="evenodd" d="m208.128 88.709-12.919 12.105h-181.239c-4.904 0-8.932-4.028-8.932-8.963v-19.089h190.172l4.862 6.006z" fill="#ce9874" fill-rule="evenodd"/></g><g><path d="m200.072 78.768c-1.319 1.071-3.018 1.72-4.862 1.72h-190.172v-15.453h190.172c1.504 0 2.905.433 4.09 1.174l-4.09 6.552z" fill="#c6875e"/></g><g><path clip-rule="evenodd" d="m232.447 32.711v-2.349c0-8.869-8.369-16.122-18.618-16.122s-18.618 7.254-18.618 16.122v2.349 34.094 34.065 110.007h37.236z" fill="#ffd772" fill-rule="evenodd"/></g><g><path clip-rule="evenodd" d="m232.447 30.362c0-8.869-8.369-16.122-18.618-16.122-1.997 0-3.906.294-5.697.793 7.459 2.085 9.485 8.193 9.485 15.329v2.349 34.094 34.065 110.007h14.83v-110.007-34.065-34.094z" fill="#fdb440" fill-rule="evenodd"/></g><g><path clip-rule="evenodd" d="m269.653 210.877v-180.515c0-.117 0-.206 0-.323-.176-8.692-8.487-15.799-18.618-15.799-10.219 0-18.588 7.254-18.588 16.122v2.349 34.094 34.065 110.007z" fill="#ffd772" fill-rule="evenodd"/></g><g><path clip-rule="evenodd" d="m306.889 210.877v-180.838c0-8.839-8.399-16.093-18.618-16.093-10.249 0-18.618 7.253-18.618 16.093v.323 180.515z" fill="#ffd772" fill-rule="evenodd"/></g><g><path clip-rule="evenodd" d="m344.095 210.877v-180.838c0-8.839-8.369-16.093-18.618-16.093-10.219 0-18.588 7.253-18.588 16.093v180.838z" fill="#ffd772" fill-rule="evenodd"/></g><g><path clip-rule="evenodd" d="m269.653 30.362c0-8.869-8.369-16.122-18.618-16.122-1.967 0-3.906.294-5.697.793 7.459 2.085 9.485 8.193 9.485 15.329v2.349 34.094 34.065 110.007h14.83v-110.007-34.065-34.094z" fill="#fdb440" fill-rule="evenodd"/></g><g><path clip-rule="evenodd" d="m306.889 30.362c0-8.869-8.399-16.122-18.618-16.122-1.997 0-3.906.294-5.697.793 7.459 2.085 9.485 8.193 9.485 15.329v2.349 34.094 34.065 110.007h14.83v-110.007-34.065-34.094z" fill="#fdb440" fill-rule="evenodd"/></g><g><path clip-rule="evenodd" d="m344.095 30.362c0-8.869-8.369-16.122-18.618-16.122-1.967 0-3.906.294-5.697.793 7.459 2.085 9.485 8.193 9.485 15.329v2.349 34.094 34.065 110.007h14.83v-110.007-34.065-34.094z" fill="#fdb440" fill-rule="evenodd"/></g><g><path d="m252.562 252.022h-30.276c-4.268 0-7.726-3.459-7.726-7.726s3.459-7.726 7.726-7.726h30.276c4.268 0 7.726 3.459 7.726 7.726s-3.458 7.726-7.726 7.726z"/></g><g><path d="m322.13 252.022h-30.246c-4.268 0-7.726-3.459-7.726-7.726s3.459-7.726 7.726-7.726h30.246c4.268 0 7.726 3.459 7.726 7.726s-3.459 7.726-7.726 7.726z"/></g><g><path clip-rule="evenodd" d="m282.339 195.342-144.772 18.295 43.109 265.942 91.268 7.665 91.268-7.665 43.138-265.942z" fill="#dd636e" fill-rule="evenodd"/></g><g><path clip-rule="evenodd" d="m363.212 479.579h-91.268-91.268v16.21c0 8.927 7.312 16.21 16.21 16.21h150.117c8.927 0 16.21-7.283 16.21-16.21v-16.21z" fill="#90d8f9" fill-rule="evenodd"/></g><g><path clip-rule="evenodd" d="m125.556 183.214c-1.762 0-3.201 1.439-3.201 3.201v12.011c0 8.369 6.842 15.212 15.211 15.212h253.514 15.27c8.34 0 15.182-6.842 15.182-15.212v-12.011c0-1.762-1.41-3.201-3.172-3.201h-6.754-22.112c-87.979 0-175.958 0-263.938 0z" fill="#90d8f9" fill-rule="evenodd"/></g><g><path clip-rule="evenodd" d="m453.1 8.337c-37.324 21.349-64.634 90.537-63.606 174.877l5.491 15.212 16.621-15.212c26.958-124.66 101.576-141.487 94.939-160.018-10.395-29.102-32.536-26.811-53.445-14.859z" fill="#f9f6f6" fill-rule="evenodd"/></g><g><path clip-rule="evenodd" d="m339.955 343.173c0-45.254-30.452-81.932-68.011-81.932-37.529 0-67.981 36.679-67.981 81.932s30.452 81.932 67.981 81.932c37.559 0 68.011-36.679 68.011-81.932z" fill="#ffd772" fill-rule="evenodd"/></g><g><path clip-rule="evenodd" d="m391.08 213.637h-253.513l4.493 27.693h221.886 15.241l-38.616 238.249h22.641l43.138-265.942z" fill="#da4a54" fill-rule="evenodd"/></g><g><path clip-rule="evenodd" d="m339.955 343.173c0-45.254-30.452-81.932-68.011-81.932-4.552 0-8.986.529-13.303 1.556 30.452 8.134 53.24 40.849 53.24 79.994 0 39.791-23.492 72.946-54.679 80.376 4.757 1.263 9.691 1.938 14.742 1.938 37.559 0 68.011-36.679 68.011-81.932z" fill="#fdb440" fill-rule="evenodd"/></g><g><path clip-rule="evenodd" d="m418.361 183.214h-6.754-22.112-9.045c1.733 0 3.171 1.439 3.171 3.201v12.011c0 8.369-6.842 15.212-15.211 15.212h22.67 15.27c8.34 0 15.182-6.842 15.182-15.212v-12.011c0-1.762-1.409-3.201-3.171-3.201z" fill="#75cef8" fill-rule="evenodd"/></g><g><path clip-rule="evenodd" d="m363.212 495.79v-16.21h-22.641v16.21c0 8.927-7.283 16.21-16.21 16.21h22.641c8.928 0 16.21-7.283 16.21-16.21z" fill="#75cef8" fill-rule="evenodd"/></g><g><path clip-rule="evenodd" d="m396.043 183.214h15.564c26.958-124.66 101.576-141.487 94.939-160.018-2.76-7.723-6.343-13.244-10.542-16.944-11.717 20.468-73.943 52.213-99.961 176.962z" fill="#ecdaec" fill-rule="evenodd"/></g><g><path d="m249.278 381.705c-2.265 0-4.508-.99-6.034-2.895-2.668-3.33-2.133-8.192 1.197-10.861 2.781-2.228 7.014-6.861 4.129-12.845-1.153-2.404-2.382-4.667-3.571-6.855-6.072-11.176-12.955-23.842 2.659-40.894 2.88-3.147 7.769-3.362 10.915-.481 3.148 2.882 3.363 7.769.481 10.917-8.17 8.923-6.231 12.491-.478 23.081 1.221 2.247 2.606 4.794 3.92 7.534 5.254 10.893 1.963 23.303-8.39 31.601-1.426 1.142-3.132 1.698-4.828 1.698z" fill="#78c2a4"/></g><g><path d="m290.097 382.028c-2.26 0-4.498-.986-6.025-2.884-2.675-3.324-2.148-8.188 1.177-10.863 2.782-2.238 7.018-6.883 4.139-12.854-1.15-2.392-2.376-4.648-3.562-6.83-6.082-11.194-12.977-23.881 2.65-40.948 2.88-3.148 7.769-3.362 10.915-.481 3.148 2.882 3.363 7.769.481 10.916-8.183 8.938-6.238 12.516-.468 23.135 1.216 2.239 2.596 4.777 3.906 7.506 5.245 10.876 1.96 23.282-8.375 31.597-1.427 1.147-3.138 1.706-4.838 1.706z" fill="#78c2a4"/></g></g></svg>