<?xml version="1.0" encoding="iso-8859-1"?>
<!-- Generator: Adobe Illustrator 19.0.0, SVG Export Plug-In . SVG Version: 6.00 Build 0)  -->
<svg version="1.1" id="Capa_1" xmlns="http://www.w3.org/2000/svg" xmlns:xlink="http://www.w3.org/1999/xlink" x="0px" y="0px"
	 viewBox="0 0 512 512" style="enable-background:new 0 0 512 512;" xml:space="preserve">
<path style="fill:#FFB400;" d="M326.072,94.968c-38.7-38.7-101.445-38.7-140.144,0L33.032,247.863h445.935L326.072,94.968z"/>
<path style="fill:#FFA000;" d="M278.297,68.58c-32.172-7.403-67.304,1.323-92.369,26.388L33.032,247.863h148.645l73.616-152.896
	C261.859,81.333,269.87,72.607,278.297,68.58z"/>
<path style="fill:#A57D5F;" d="M16.516,280.896l35.424,118.08c8.384,27.945,34.104,47.081,63.279,47.081h281.563
	c29.175,0,54.895-19.137,63.279-47.081l35.424-118.08H16.516z"/>
<path style="fill:#9B6E55;" d="M142.804,415.249L126.939,316.3c-1.609-10.037,6.143-19.131,16.308-19.131h347.355l4.882-16.273
	H16.516l35.424,118.08c8.383,27.944,34.104,47.081,63.279,47.081h38.365C148.634,438.043,144.782,427.582,142.804,415.249z"/>
<path style="fill:#B9916E;" d="M495.484,280.896H16.516C7.395,280.896,0,273.501,0,264.38l0,0c0-9.122,7.395-16.516,16.516-16.516
	h478.968c9.122,0,16.516,7.395,16.516,16.516l0,0C512,273.501,504.605,280.896,495.484,280.896z"/>
<path style="fill:#FFB400;" d="M198.274,173.298c-4.565,0-8.298-3.694-8.298-8.258c0-4.565,3.653-8.258,8.218-8.258h0.081
	c4.565,0,8.258,3.694,8.258,8.258C206.532,169.604,202.839,173.298,198.274,173.298z"/>
<g>
	<path style="fill:#FFA000;" d="M313.887,198.072c-4.565,0-8.298-3.694-8.298-8.258s3.653-8.258,8.218-8.258h0.081
		c4.565,0,8.258,3.694,8.258,8.258S318.452,198.072,313.887,198.072z"/>
	<path style="fill:#FFA000;" d="M272.516,123.749c-4.565,0-8.298-3.694-8.298-8.258s3.653-8.258,8.218-8.258h0.081
		c4.565,0,8.258,3.694,8.258,8.258S277.081,123.749,272.516,123.749z"/>
</g>
<path style="fill:#A57D5F;" d="M123.871,264.38c0-9.121,7.395-16.516,16.516-16.516H16.516C7.395,247.863,0,255.258,0,264.38
	c0,9.121,7.395,16.516,16.516,16.516h123.871C131.266,280.896,123.871,273.501,123.871,264.38z"/>
<polygon style="fill:#785353;" points="475.737,346.717 485.647,313.685 26.353,313.685 36.263,346.717 "/>
<path style="fill:#6E4848;" d="M36.263,346.717h95.553l-4.877-30.417c-0.142-0.886-0.125-1.749-0.126-2.615H26.353L36.263,346.717z"
	/>
<g>
</g>
<g>
</g>
<g>
</g>
<g>
</g>
<g>
</g>
<g>
</g>
<g>
</g>
<g>
</g>
<g>
</g>
<g>
</g>
<g>
</g>
<g>
</g>
<g>
</g>
<g>
</g>
<g>
</g>
</svg>
