<svg id="Capa_1" enable-background="new 0 0 504.5 504.5" viewBox="0 0 504.5 504.5" xmlns="http://www.w3.org/2000/svg"><g><path d="m317 180.5-90 150c66.274 0 120-53.726 120-120v-30z" fill="#7587b3"/><path d="m257 210.5c-16.569 0-30 13.431-30 30v40.855c0 8.668-3.4 17.154-9.907 22.881-3.123 2.75-5.093 6.777-5.093 11.264 0 8.284 6.716 15 15 15 49.706 0 90-53.726 90-120v-30z" fill="#87a1c1"/><path d="m310.712 180.5v74.15c20.682-4.059 36.288-22.279 36.288-44.15v-30z" fill="#636da4"/><path d="m317 200.5-15 10c-12.426 0-22.5 10.074-22.5 22.5s10.074 22.5 22.5 22.5c2.981 0 5.893-.297 8.712-.85 4.057-13.665 6.288-28.56 6.288-44.15z" fill="#7587b3"/><path d="m257 .5 60 100 30-10c0-49.706-40.294-90-90-90z" fill="#7587b3"/><path d="m257 .5c-8.284 0-15 6.716-15 15 0 4.487 1.97 8.514 5.093 11.263 6.507 5.727 9.907 14.213 9.907 22.882v70.855l60-20v-10c0-49.706-26.863-90-60-90z" fill="#87a1c1"/><path d="m302 420.5v-30c13.075 0 24.197-8.365 28.305-20.035 1.713-4.867-1.931-9.965-7.091-9.965h-30l-36.214 30v30l36.215 30h30c5.16 0 8.804-5.099 7.091-9.965-4.109-11.67-15.231-20.035-28.306-20.035z" fill="#a8cae0"/><path d="m272 420.5v-30c13.075 0 24.197-8.365 28.305-20.035 1.713-4.867-1.931-9.965-7.091-9.965h-36.214c-16.569 0-30 13.431-30 30 0-16.569-13.431-30-30-30h-1.058c-41.355 0-75.633-33.078-75.939-74.431-.31-41.683 33.386-75.569 74.997-75.569l32-120c0-16.569-13.431-30-30-30h-.33c-107.448 0-196.862 87.908-196.67 195.357.193 107.531 87.423 194.643 195 194.643h2c16.569 0 30-13.431 30-30 0 16.569 13.431 30 30 30h36.215c5.16 0 8.804-5.099 7.091-9.965-4.109-11.67-15.231-20.035-28.306-20.035z" fill="#b9dff0"/><path d="m451.5 398h-44.5c-45 0-45-7.5-90-7.5v30c45 0 45-7.5 90-7.5h44.5c20.953 0 38 17.047 38 38s-17.047 38-38 38c-4.143 0-7.5 3.358-7.5 7.5s3.357 7.5 7.5 7.5c29.225 0 53-23.776 53-53s-23.775-53-53-53z" fill="#87a1c1"/><path d="m317 420.5c8.284 0 15-6.716 15-15s-6.716-15-15-15h-122c-49.706 0-90-40.294-90-90s40.294-90 90-90h182l-30-60c0-33.137-26.863-60-60-60h-92c-91.127 0-165 73.873-165 165s73.873 165 165 165z" fill="#98b6d1"/><path d="m486.553 157.747c-10.936-9.407-19.427-21.238-25.898-34.13h-53.655l-.8 86.883h60.8c16.569 0 30-13.431 30-30 0-9.099-4.05-17.251-10.447-22.753z" fill="#a8cae0"/><path d="m460.655 123.617c-9.868-19.634-30.183-33.117-53.655-33.117h-120c16.569 0 30 13.431 30 30v30c0 33.137 26.863 60 60 60h29.2c33.579 0 60.8-27.221 60.8-60.8 0-9.033-2.288-18.012-6.345-26.083z" fill="#b9dff0"/><circle cx="407" cy="150.5" fill="#515985" r="15"/></g><g/><g/><g/><g/><g/><g/><g/><g/><g/><g/><g/><g/><g/><g/><g/></svg>