<svg height="504pt" viewBox="0 -48 504.71051 504" width="504pt" xmlns="http://www.w3.org/2000/svg"><path d="m503.320312 390.863281s-61.265624 6.25-90.507812-49.550781c.171875-13.625-7.464844-26.988281-4.949219-37.226562 6.769531-27.164063 5.46875-117.5-8.675781-173.5625 26.03125-26.03125 100.402344 51.460937 86.777344 112.816406-17.355469 78.101562-17.355469 130.167968 17.355468 147.523437zm0 0" fill="#ff5364"/><path d="m399.1875 158.726562-26.035156 75.933594c-38.863282 11.902344-78.347656 21.664063-118.28125 29.246094l-121.925782 11.800781c-15.578124-.359375-31.066406-2.484375-46.164062-6.335937-44.085938-11.972656-53.023438-38.789063-49.8125-64.214844l23.777344-57.277344c.261718-.257812.605468-.433594.867187-.691406 26.652344-21.269531 57.058594-37.339844 89.644531-47.382812 7.375-2.257813 14.839844-4.164063 22.128907-5.8125 14.089843-3.125 28.386719-5.210938 42.78125-6.25 6.160156-.433594 12.234375-.695313 18.136719-.78125 12.890624-.253907 25.789062.265624 38.617187 1.5625 3.730469.347656 7.375.78125 10.933594 1.300781 21.5625 2.558593 42.777343 7.476562 63.261719 14.667969l44.171874 45.992187zm0 0" fill="#802d40"/><path d="m391.289062 150.484375c-12.496093 2.863281-27.769531 6.246094-28.289062 6.421875-3.644531.78125-13.886719 2.777344-29.160156 5.03125-6.332032.957031-13.535156 6.25-21.519532 7.117188-6.25.78125-12.929687 1.476562-20.046874 2.082031-12.667969 1.128906-26.640626 1.996093-41.652344 2.515625-5.902344.175781-11.890625.347656-18.136719.347656-21.261719.175781-44.085937-.519531-67.777344-2.601562-5.898437-.519532-11.800781-1.128907-17.789062-1.910157-19.828125-3.773437-39.441407-8.609375-58.75-14.492187-5.53125-3.945313-11.988281-6.394532-18.746094-7.117188-2.6875-.34375-5.292969-.605468-7.808594-.691406 26.652344-21.269531 57.058594-37.339844 89.644531-47.382812 7.375-2.257813 14.839844-4.164063 22.128907-5.8125 14.089843-3.125 28.386719-5.210938 42.78125-6.25 6.160156-.433594 12.234375-.695313 18.136719-.78125 12.890624-.253907 25.789062.265624 38.617187 1.5625 3.730469.347656 7.375.78125 10.933594 1.300781 21.5625 2.558593 42.777343 7.476562 63.261719 14.667969zm0 0" fill="#d75e72"/><path d="m412.8125 341.3125c-.148438 22.359375 1.097656 44.703125 3.730469 66.90625-52.070313-34.710938-52.070313-121.492188-43.390625-173.558594 5.386718-30.371094-.246094-61.667968-15.878906-88.253906-8.777344-8.773438-12.203126-21.5625-8.992188-33.546875 3.214844-11.988281 12.574219-21.347656 24.558594-24.558594 11.988281-3.214843 24.773437.214844 33.550781 8.988281 10.230469 10.53125 17.21875 23.789063 20.132813 38.183594 14.144531 56.058594-3.210938 141.449219-9.980469 168.613282-2.574219 12.238281-3.824219 24.71875-3.730469 37.226562zm0 0" fill="#fb7b76"/><path d="m407.863281 121.847656c0 14.378906-11.65625 26.03125-26.03125 26.03125-14.378906 0-26.035156-11.652344-26.035156-26.03125s11.65625-26.035156 26.035156-26.035156c14.375 0 26.03125 11.65625 26.03125 26.035156zm0 0" fill="#fff"/><path d="m390.507812 121.847656c0 4.792969-3.882812 8.675782-8.675781 8.675782s-8.679687-3.882813-8.679687-8.675782c0-4.792968 3.886718-8.679687 8.679687-8.679687s8.675781 3.886719 8.675781 8.679687zm0 0" fill="#2c2f38"/><path d="m503.320312 278.050781v112.8125c-34.710937-17.355469-52.066406-69.421875-34.710937-147.523437 10.167969-41.238282-6.679687-84.414063-42.085937-107.867188-2.914063-14.394531-9.902344-27.652344-20.132813-38.183594 0 0 53.542969 10.585938 79.574219 41.914063 26.035156 31.328125 17.355468 138.847656 17.355468 138.847656zm0 0" fill="#fb7b76"/><g fill="#802d40"><path d="m312.320312 164.714844c.21875 2.132812-.4375 4.265625-1.824218 5.902344-1.636719 2.070312-4.125 3.285156-6.765625 3.296874-1.964844.015626-3.867188-.660156-5.382813-1.910156-2.167968-1.734375-4.164062-3.46875-6.074218-5.207031-32.28125-29.503906-28.984376-61.4375-22.300782-74.890625.691406-1.351562 1.703125-2.511719 2.949219-3.382812 3.730469.347656 7.375.78125 10.933594 1.300781 2.632812 2.558593 3.296875 6.527343 1.648437 9.808593-.605468 1.300782-13.1875 29.328126 23.605469 58.835938 1.949219 1.5 3.125 3.789062 3.210937 6.246094zm0 0"/><path d="m251.054688 168.449219c-.109376.304687-.257813.59375-.433594.867187-1.515625 2.8125-4.441406 4.578125-7.636719 4.597656-1.101563.007813-2.191406-.195312-3.210937-.605468-2.53125-1.003906-4.96875-2.226563-7.289063-3.644532-8.625-4.855468-15.332031-12.507812-19.007813-21.695312-9.285156-22.390625-1.039062-50.074219 2.691407-60.226562 6.160156-.433594 12.234375-.695313 18.136719-.78125.015624 1.222656-.222657 2.433593-.695313 3.558593-.085937.347657-12.667969 30.199219-4.078125 50.851563 3.046875 7.402344 9.109375 13.148437 16.664062 15.796875 4.417969 1.808593 6.582032 6.824219 4.859376 11.28125zm0 0"/><path d="m171.042969 101.886719c-1.042969 1.128906-21.609375 23.085937-6.769531 60.140625.660156 1.589844.808593 3.347656.433593 5.03125-.671875 2.804687-2.636719 5.125-5.292969 6.25-1.019531.410156-2.109374.613281-3.210937.605468-3.554687.003907-6.753906-2.164062-8.070313-5.464843-.433593-1.128907-.867187-2.257813-1.214843-3.300781-8.726563-21.28125-7.121094-45.402344 4.339843-65.34375 7.375-2.257813 14.839844-4.164063 22.128907-5.8125.617187 2.859374-.265625 5.835937-2.34375 7.894531zm0 0"/></g><path d="m433.898438 17.710938c0 9.585937-7.769532 17.355468-17.355469 17.355468-9.585938 0-17.355469-7.769531-17.355469-17.355468 0-9.585938 7.769531-17.355469 17.355469-17.355469 9.585937 0 17.355469 7.769531 17.355469 17.355469zm0 0" fill="#547580"/><path d="m468.609375 43.746094c0 4.792968-3.882813 8.675781-8.675781 8.675781-4.792969 0-8.679688-3.882813-8.679688-8.675781 0-4.792969 3.886719-8.679688 8.679688-8.679688 4.792968 0 8.675781 3.886719 8.675781 8.679688zm0 0" fill="#84b5cb"/><path d="m147.527344 356.152344c0 9.585937-7.773438 17.355468-17.359375 17.355468-9.582031 0-17.355469-7.769531-17.355469-17.355468 0-9.585938 7.773438-17.355469 17.355469-17.355469 9.585937 0 17.359375 7.769531 17.359375 17.355469zm0 0" fill="#84b5cb"/><path d="m86.78125 373.507812c0 4.792969-3.886719 8.679688-8.679688 8.679688-4.792968 0-8.679687-3.886719-8.679687-8.679688 0-4.792968 3.886719-8.679687 8.679687-8.679687 4.792969 0 8.679688 3.886719 8.679688 8.679687zm0 0" fill="#547580"/><path d="m333.839844 161.9375c-37.746094 20.742188-58.402344 69.25-78.96875 101.96875-15.707032 25.25-35.40625 43.910156-72.632813 40.179688-20.070312-.878907-38.457031-11.464844-49.292969-28.378907-11.539062-17.875-15.621093-41.652343-20.046874-63.871093-2.4375-12.382813-26.464844-24.546876-30.457032-34.710938-3.671875-9.3125 12.921875-16.851562 5.726563-22.171875 99.015625 22.953125 197.425781 14.015625 245.671875 6.984375zm0 0" fill="#fb7b76"/><path d="m381.832031 113.167969c0 4.792969-3.886719 8.679687-8.679687 8.679687-4.792969 0-8.679688-3.886718-8.679688-8.679687s3.886719-8.675781 8.679688-8.675781c4.792968 0 8.679687 3.882812 8.679687 8.675781zm0 0" fill="#fff"/><path d="m112.898438 211.835938c-25.074219-4.371094-50.476563-6.605469-75.929688-6.679688-12.378906.472656-24.71875 1.632812-36.96875 3.46875 0 0 0-64.128906 61.613281-61.4375 2.515625.085938 5.121094.347656 7.808594.691406 6.757813.722656 13.214844 3.171875 18.746094 7.117188 15.011719 11.109375 20.046875 33.0625 24.730469 56.839844zm0 0" fill="#ff5364"/></svg>