<svg height="512pt" viewBox="0 0 512 512.001" width="512pt" xmlns="http://www.w3.org/2000/svg"><path d="m293.789062 224.121094c-1.796874-6.882813-3.496093-13.386719-4.257812-19.746094-.832031-6.929688-.757812-14.261719-.683594-21.351562.105469-10.335938.21875-21.019532-2.398437-31.179688-3.011719-11.691406-8.824219-21.609375-14.449219-31.203125-3.289062-5.613281-6.394531-10.914063-8.71875-16.222656-2.578125-5.890625-4.632812-12.195313-6.617188-18.292969-3.496093-10.753906-7.117187-21.878906-13.75-30.902344-9.289062-12.644531-22.074218-20.238281-33.351562-26.9375-3.355469-1.992187-6.527344-3.875-9.492188-5.8125-1.972656-1.289062-4.464843-2.960937-4.464843-2.960937s-24.535157 28.378906-46.007813 28.378906-46.007812-28.378906-46.007812-28.378906-2.492188 1.671875-4.464844 2.960937c-2.964844 1.9375-6.136719 3.820313-9.492188 5.8125-11.277343 6.699219-24.0625 14.292969-33.355468 26.9375-6.632813 9.023438-10.25 20.148438-13.75 30.902344-1.984375 6.097656-4.035156 12.402344-6.613282 18.292969-2.324218 5.308593-5.433593 10.609375-8.722656 16.222656-5.621094 9.59375-11.433594 19.511719-14.445312 31.203125-2.617188 10.160156-2.507813 20.84375-2.398438 31.179688.074219 7.089843.148438 14.421874-.683594 21.351562-.761718 6.359375-2.460937 12.863281-4.261718 19.746094-2.65625 10.167968-5.402344 20.679687-5.402344 31.878906s2.746094 21.710938 5.402344 31.878906c1.800781 6.886719 3.5 13.390625 4.261718 19.746094.832032 6.929688.753907 14.261719.683594 21.355469-.109375 10.332031-.21875 21.015625 2.398438 31.175781 3.011718 11.691406 8.824218 21.609375 14.445312 31.199219 3.289063 5.613281 6.398438 10.917969 8.722656 16.222656 2.578126 5.890625 4.628907 12.195313 6.613282 18.292969 3.5 10.753906 7.117187 21.878906 13.75 30.902344 9.292968 12.644531 22.074218 20.234374 33.355468 26.9375 3.355469 1.992187 6.523438 3.875 9.488282 5.816406 1.972656 1.289062 3.933594 2.605468 5.890625 3.917968 13.574219 9.121094 27.613281 18.550782 44.585937 18.550782 16.96875 0 31.007813-9.429688 44.582032-18.550782 1.960937-1.3125 3.917968-2.632812 5.890624-3.921874 2.964844-1.9375 6.136719-3.820313 9.492188-5.8125 11.277344-6.703126 24.0625-14.296876 33.351562-26.941407 6.632813-9.023437 10.25-20.144531 13.75-30.898437 1.984376-6.097656 4.035157-12.402344 6.617188-18.292969 2.320312-5.308594 5.429688-10.609375 8.71875-16.222656 5.621094-9.59375 11.4375-19.511719 14.445312-31.199219 2.621094-10.160156 2.507813-20.84375 2.402344-31.179688-.074218-7.089843-.152344-14.421874.679688-21.351562.761718-6.359375 2.460937-12.863281 4.261718-19.746094 2.65625-10.167968 5.402344-20.683594 5.402344-31.882812 0-11.195313-2.746094-21.707032-5.402344-31.875zm0 0" fill="#c97e67"/><g fill="#c0694e"><path d="m293.789062 224.121094c-1.796874-6.882813-3.496093-13.386719-4.257812-19.746094-.832031-6.929688-.757812-14.261719-.683594-21.351562.105469-10.335938.21875-21.019532-2.398437-31.179688-3.011719-11.691406-8.824219-21.609375-14.449219-31.203125-3.289062-5.613281-6.394531-10.914063-8.71875-16.222656-2.578125-5.890625-4.632812-12.195313-6.617188-18.292969-3.496093-10.753906-7.117187-21.878906-13.75-30.902344-9.289062-12.644531-22.074218-20.238281-33.351562-26.9375-3.355469-1.992187-6.527344-3.875-9.492188-5.8125-1.972656-1.289062-3.933593-2.609375-5.890624-3.921875-11.441407-7.6875-23.21875-15.570312-36.792969-17.867187.894531.597656 1.785156 1.199218 2.683593 1.789062 2.964844 1.9375 6.136719 3.820313 9.492188 5.816406 11.277344 6.699219 24.0625 14.289063 33.351562 26.933594 6.632813 9.023438 10.253907 20.148438 13.753907 30.902344 1.980469 6.097656 4.035156 12.40625 6.613281 18.296875 2.324219 5.304687 5.429688 10.605469 8.722656 16.21875 5.621094 9.59375 11.433594 19.515625 14.445313 31.203125 2.617187 10.164062 2.507812 20.847656 2.398437 31.179688-.074218 7.089843-.148437 14.421874.683594 21.355468.761719 6.355469 2.460938 12.859375 4.257812 19.742188 2.65625 10.167968 5.402344 20.679687 5.402344 31.878906s-2.746094 21.710938-5.402344 31.878906c-1.796874 6.886719-3.496093 13.390625-4.261718 19.746094-.832032 6.929688-.753906 14.265625-.679688 21.355469.105469 10.332031.21875 21.015625-2.398437 31.179687-3.011719 11.6875-8.824219 21.605469-14.445313 31.195313-3.292968 5.617187-6.398437 10.917969-8.722656 16.222656-2.578125 5.890625-4.632812 12.195313-6.613281 18.292969-3.5 10.757812-7.121094 21.878906-13.75 30.902344-9.292969 12.644531-22.078125 20.238281-33.355469 26.9375-3.355469 1.996093-6.527344 3.875-9.492188 5.816406-1.972656 1.289062-3.929687 2.605468-5.886718 3.921875-13.578125 9.117187-27.617188 18.546875-44.585938 18.546875-2.667968 0-5.257812-.253906-7.789062-.683594 1.066406.710938 2.136718 1.417969 3.203125 2.132812 13.574219 9.121094 27.613281 18.550782 44.585937 18.550782 16.96875 0 31.007813-9.429688 44.582032-18.550782 1.960937-1.3125 3.917968-2.632812 5.890624-3.921874 2.964844-1.9375 6.136719-3.820313 9.492188-5.8125 11.277344-6.703126 24.0625-14.296876 33.351562-26.941407 6.632813-9.023437 10.25-20.144531 13.75-30.898437 1.984376-6.097656 4.035157-12.402344 6.617188-18.292969 2.320312-5.308594 5.429688-10.609375 8.71875-16.222656 5.621094-9.59375 11.4375-19.511719 14.445312-31.199219 2.621094-10.160156 2.507813-20.84375 2.402344-31.179688-.074218-7.089843-.152344-14.421874.679688-21.351562.761718-6.359375 2.460937-12.863281 4.261718-19.746094 2.65625-10.167968 5.402344-20.683594 5.402344-31.882812 0-11.195313-2.746094-21.707032-5.402344-31.875zm0 0"/><path d="m128.90625 412.070312c-3.855469 0-7.132812-2.957031-7.464844-6.867187-.476562-5.601563-1.09375-11.039063-1.746094-16.792969-1.050781-9.261718-2.136718-18.839844-2.683593-29.75-.46875-9.394531-.449219-19.214844-.425781-29.609375.015624-7.289062.027343-14.824219-.140626-22.144531-.160156-6.761719-.496093-13.457031-.855468-20.542969-.496094-9.804687-1.007813-19.9375-1.007813-30.363281 0-10.421875.511719-20.558594 1.007813-30.359375.359375-7.085937.695312-13.78125.855468-20.542969.09375-4.140625 3.519532-7.4375 7.671876-7.324218 4.140624.097656 7.417968 3.53125 7.324218 7.671874-.164062 6.96875-.523437 14.078126-.871094 20.953126-.488281 9.613281-.988281 19.558593-.988281 29.601562 0 10.046875.5 19.988281.988281 29.605469.347657 6.875.707032 13.984375.871094 20.953125.171875 7.511718.15625 15.140625.144532 22.519531-.023438 10.199219-.042969 19.828125.40625 28.835937.523437 10.4375 1.582031 19.773438 2.605468 28.808594.667969 5.859375 1.296875 11.398438 1.789063 17.214844.347656 4.125-2.714844 7.757812-6.839844 8.105469-.214844.019531-.429687.027343-.640625.027343zm0 0"/><path d="m196.671875 446.121094c-.980469 0-1.980469-.191406-2.9375-.601563-3.8125-1.625-5.582031-6.03125-3.960937-9.839843 2.875-6.738282 4.566406-15.714844 6.363281-25.222657 1.121093-5.945312 2.28125-12.089843 3.808593-18.109375 1.421876-5.597656 3.285157-11.082031 5.089844-16.386718 2.785156-8.195313 5.664063-16.667969 7.046875-25.929688 1.195313-7.988281 1.140625-16.757812 1.085938-26.039062-.023438-4.050782-.050781-8.234376.035156-12.417969.082031-4.140625 3.523437-7.433594 7.644531-7.347657 4.144532.082032 7.433594 3.507813 7.351563 7.648438-.082031 3.984375-.054688 8.074219-.03125 12.027344.054687 9.445312.113281 19.207031-1.25 28.34375-1.582031 10.59375-4.683594 19.71875-7.683594 28.539062-1.785156 5.261719-3.472656 10.230469-4.75 15.253906-1.414063 5.566407-2.53125 11.480469-3.609375 17.199219-1.949219 10.328125-3.789062 20.085938-7.300781 28.320313-1.214844 2.855468-3.988281 4.5625-6.902344 4.5625zm0 0"/></g><path d="m202.917969 436.769531c-2.480469 3.375-5.210938 6.378907-8.089844 9.109375.609375.160156 1.230469.242188 1.84375.242188 2.914063 0 5.6875-1.707032 6.902344-4.558594 1.605469-3.765625 2.851562-7.859375 3.929687-12.167969-1.363281 2.570313-2.875 5.046875-4.585937 7.375zm0 0" fill="#ae583e"/><path d="m508.605469 393.398438c-1.152344-5.425782-2.34375-11.039063-2.953125-16.546876-.554688-4.945312-.519532-10.257812-.480469-15.882812.0625-9.730469.128906-19.789062-2.71875-30.027344-2.480469-8.910156-7.242187-16.957031-11.84375-24.742187-3.121094-5.277344-6.347656-10.734375-8.707031-16.253907-2.160156-5.054687-3.699219-10.65625-5.328125-16.585937-2.4375-8.863281-4.953125-18.03125-9.882813-26.566406-4.929687-8.539063-11.609375-15.300781-18.070312-21.84375-4.320313-4.375-8.402344-8.507813-11.695313-12.90625-3.601562-4.804688-6.714843-10.328125-9.722656-15.667969-4.441406-7.878906-9.03125-16.027344-15.507813-22.628906-7.441406-7.585938-16.1875-12.558594-24.644531-17.367188-4.886719-2.78125-9.507812-5.40625-13.515625-8.355468-4.460937-3.285157-8.726562-7.121094-12.851562-10.832032-7.363282-6.625-14.976563-13.476562-24.035156-17.449218-12.667969-5.558594-25.695313-5.722657-37.1875-5.863282-3.382813-.042968-6.574219-.082031-9.628907-.25-2.039062-.113281-2.339843-.125-2.339843-.125s-14.914063 25.683594-31.492188 35.257813c-6.832031 3.945312-11.296875 8.554687-11.296875 8.554687-10.929687 0-30.707031-1.382812-30.707031-1.378906v-.003906s-.144532.269531-1.0625 2.089844c-1.382813 2.730468-2.941406 5.515624-4.597656 8.464843-5.625 10.023438-11.996094 21.382813-13.519532 35.132813-1.085937 9.832031 1.039063 19.855468 3.097656 29.546875 1.148438 5.425781 2.339844 11.039062 2.953126 16.542969.550781 4.945312.515624 10.257812.480468 15.882812-.0625 9.730469-.128906 19.792969 2.71875 30.03125 2.480469 8.910156 7.238282 16.957031 11.84375 24.742188 3.121094 5.277343 6.347656 10.734374 8.707032 16.253906 2.160156 5.054687 3.699218 10.65625 5.328124 16.585937 2.4375 8.863281 4.953126 18.03125 9.882813 26.566407 4.929687 8.539062 11.609375 15.300781 18.066406 21.84375 4.324219 4.375 8.40625 8.507812 11.699219 12.90625 3.601562 4.804687 6.714844 10.328124 9.722656 15.667968 4.441406 7.878906 9.03125 16.027344 15.507813 22.628906 7.441406 7.585938 16.1875 12.558594 24.644531 17.367188 4.890625 2.78125 9.507812 5.40625 13.515625 8.355469 4.460937 3.285156 8.726563 7.121093 12.851563 10.832031 7.363281 6.628906 14.976562 13.480469 24.035156 17.453125 12.671875 5.558594 25.695312 5.71875 37.1875 5.859375 3.382812.042969 6.578125.082031 9.628906.253906 2.039062.113282 4.082031.25 6.125.390625 4.886719.332031 9.835938.667969 14.746094.667969 9.484375 0 18.839844-1.253906 27.425781-6.207031 13.03125-7.523438 19.5625-20.859375 25.882813-33.75.898437-1.839844 1.800781-3.675781 2.722656-5.5 1.378906-2.730469 2.941406-5.515625 4.597656-8.464844 5.621094-10.023437 11.992188-21.382813 13.515625-35.132813 1.085937-9.832031-1.042969-19.855468-3.097656-29.546874zm0 0" fill="#d29380"/><path d="m72.945312 263.5c-4.140624 0-7.5-3.359375-7.5-7.5 0-10.085938 1.457032-19.707031 2.867188-29.011719.984375-6.484375 1.910156-12.613281 2.335938-18.695312.460937-6.613281.417968-13.523438.378906-20.203125-.058594-9.441406-.117188-19.207032 1.246094-28.339844 1.585937-10.59375 4.6875-19.71875 7.683593-28.539062 1.789063-5.261719 3.476563-10.230469 4.753907-15.25 1.410156-5.566407 2.527343-11.480469 3.605468-17.199219 1.949219-10.332031 3.789063-20.085938 7.300782-28.324219 1.625-3.8125 6.03125-5.582031 9.839843-3.957031 3.8125 1.621093 5.585938 6.027343 3.960938 9.839843-2.875 6.738282-4.566407 15.714844-6.359375 25.222657-1.125 5.941406-2.285156 12.089843-3.8125 18.105469-1.421875 5.601562-3.285156 11.085937-5.089844 16.390624-2.785156 8.191407-5.664062 16.667969-7.046875 25.929688-1.195313 7.984375-1.140625 16.75-1.085937 26.03125.042968 6.957031.085937 14.15625-.414063 21.335938-.464844 6.6875-1.480469 13.40625-2.464844 19.902343-1.328125 8.753907-2.699219 17.808594-2.699219 26.761719 0 4.140625-3.355468 7.5-7.5 7.5zm0 0" fill="#c0694e"/><path d="m508.605469 393.398438c-1.152344-5.425782-2.34375-11.039063-2.953125-16.546876-.554688-4.945312-.519532-10.257812-.480469-15.882812.0625-9.730469.128906-19.789062-2.71875-30.027344-2.480469-8.910156-7.242187-16.957031-11.84375-24.742187-3.121094-5.277344-6.347656-10.734375-8.707031-16.253907-2.160156-5.054687-3.699219-10.65625-5.328125-16.585937-2.4375-8.863281-4.953125-18.03125-9.882813-26.566406-4.929687-8.539063-11.609375-15.300781-18.070312-21.84375-4.320313-4.375-8.402344-8.507813-11.695313-12.90625-3.601562-4.804688-6.714843-10.328125-9.722656-15.667969-4.441406-7.878906-9.03125-16.027344-15.507813-22.628906-7.441406-7.585938-16.1875-12.558594-24.644531-17.367188-4.886719-2.78125-9.507812-5.40625-13.515625-8.355468-4.460937-3.285157-8.726562-7.121094-12.851562-10.832032-7.363282-6.625-14.976563-13.476562-24.035156-17.449218-6.183594-2.714844-12.453126-4.136719-18.585938-4.902344.878906.78125 1.753906 1.566406 2.621094 2.351562 4.125 3.710938 8.390625 7.546875 12.851562 10.832032 4.007813 2.949218 8.628906 5.574218 13.515625 8.355468 8.457031 4.808594 17.203125 9.785156 24.644531 17.367188 6.476563 6.605468 11.066407 14.75 15.507813 22.628906 3.007813 5.339844 6.121094 10.863281 9.722656 15.667969 3.292969 4.398437 7.375 8.53125 11.699219 12.90625 6.457031 6.542969 13.136719 13.304687 18.066406 21.84375 4.929688 8.535156 7.445313 17.703125 9.882813 26.566406 1.628906 5.929687 3.164062 11.53125 5.328125 16.585937 2.359375 5.519532 5.585937 10.976563 8.707031 16.253907 4.601563 7.785156 9.363281 15.832031 11.84375 24.742187 2.847656 10.238282 2.78125 20.296875 2.71875 30.027344-.035156 5.625-.070313 10.9375.480469 15.882812.613281 5.507813 1.800781 11.121094 2.953125 16.546876 2.054687 9.691406 4.183593 19.714843 3.09375 29.546874-1.519531 13.75-7.894531 25.109376-13.515625 35.132813-1.65625 2.949219-3.21875 5.734375-4.597656 8.464844-.921876 1.820312-1.824219 3.660156-2.722657 5.496093-6.320312 12.894532-12.851562 26.226563-25.882812 33.75-8.582031 4.957032-17.941407 6.210938-27.421875 6.210938-4.914063 0-9.859375-.335938-14.75-.667969-2.042969-.140625-4.082032-.277343-6.125-.394531-3.050782-.167969-6.246094-.207031-9.625-.25-5.882813-.074219-12.171875-.15625-18.605469-.960938 6.5625 5.855469 13.429687 11.59375 21.417969 15.097657 12.667968 5.558593 25.695312 5.722656 37.1875 5.863281 3.378906.042969 6.574218.082031 9.625.25 2.039062.113281 4.082031.253906 6.125.394531 4.890625.332031 9.835937.667969 14.75.667969 9.480468 0 18.835937-1.253906 27.421875-6.210938 13.03125-7.523437 19.5625-20.855468 25.882812-33.75.898438-1.835937 1.800781-3.675781 2.722657-5.496093 1.378906-2.730469 2.941406-5.515625 4.597656-8.464844 5.621094-10.023437 11.992187-21.382813 13.515625-35.132813 1.089843-9.832031-1.039063-19.855468-3.09375-29.546874zm0 0" fill="#c97e67"/><path d="m410.238281 279.371094c-43.910156-76.050782-105.019531-122.96875-136.492187-104.796875s-21.390625 94.554687 22.515625 170.605469c43.910156 76.046874 105.019531 122.96875 136.492187 104.796874 31.472656-18.171874 21.394532-94.554687-22.515625-170.605468zm0 0" fill="#ebe1dc"/><path d="m444.238281 437.894531c-.195312-8.851562-2.785156-21.832031-9.628906-41.171875-10.339844-29.210937-27.851563-65.769531-49.3125-102.9375-21.457031-37.167968-44.363281-70.613281-64.492187-94.175781-13.324219-15.59375-23.273438-24.328125-30.839844-28.925781-5.976563-.113282-11.4375 1.136718-16.210938 3.894531-4.773437 2.757813-8.585937 6.859375-11.476562 12.089844.195312 8.855469 2.785156 21.835937 9.628906 41.175781 10.339844 29.210938 27.855469 65.769531 49.3125 102.9375 21.460938 37.167969 44.363281 70.613281 64.492188 94.175781 13.320312 15.589844 23.269531 24.328125 30.835937 28.925781 5.976563.113282 11.441406-1.136718 16.214844-3.894531 4.777343-2.757812 8.589843-6.859375 11.476562-12.09375zm-15.382812 5.320313c-3.507813-.734375-14.558594-7.230469-34.890625-31.75-18.773438-22.636719-39.996094-53.957032-59.753906-88.183594-19.761719-34.230469-36.273438-68.265625-46.492188-95.839844-11.070312-29.871094-11.171875-42.691406-10.054688-46.09375 3.503907.734375 14.558594 7.230469 34.890626 31.753906 18.773437 22.636719 39.992187 53.953126 59.753906 88.183594 19.761718 34.226563 36.273437 68.265625 46.492187 95.839844 11.070313 29.871094 11.171875 42.6875 10.054688 46.089844zm0 0" fill="#dcd2cd"/><path d="m410.25 279.378906c-34.707031-60.109375-80.152344-102.011718-113.222656-107.96875 24.792968 18.945313 51.175781 49.785156 73.222656 87.96875 43.90625 76.054688 53.988281 152.4375 22.511719 170.609375-6.597657 3.808594-14.5 4.75-23.269531 3.167969 24.582031 18.785156 47.601562 25.878906 63.269531 16.832031 31.476562-18.171875 21.394531-94.554687-22.511719-170.609375zm0 0" fill="#dcd2cd"/><path d="m441.9375 441.546875c1.375-1.917969 2.238281-3.550781 2.300781-3.652344-.195312-8.851562-2.785156-21.832031-9.628906-41.171875-8.71875-24.632812-22.546875-54.492187-39.53125-85.527344 9.238281 24.167969 14.582031 46.902344 15.757813 66.085938 2.957031 6.898438 5.632812 13.546875 7.964843 19.84375 11.070313 29.871094 11.171875 42.6875 10.054688 46.089844-2.996094-.625-11.5-5.46875-26.582031-22.140625-2.9375 4.234375-6.636719 7.601562-11.3125 9.859375 10.726562 11.902344 19.050781 18.976562 25.585937 22.945312 11.109375.214844 19.679687-4.367187 25.390625-12.332031zm0 0" fill="#c8beb9"/><path d="m149.597656 0c-17.375 0-31.464844 9.730469-46.011718 19.511719 5.683593 21.316406 24.535156 35.523437 46.011718 35.523437 21.472656 0 40.324219-14.207031 46.007813-35.523437-14.546875-9.78125-28.632813-19.511719-46.007813-19.511719zm0 0" fill="#ebe1dc"/><path d="m169.558594 8.285156c7.898437 4.691406 16.53125 9.828125 24.1875 16.824219.722656-1.804687 1.347656-3.671875 1.859375-5.597656-1.261719-.847657-2.515625-1.695313-3.773438-2.535157-.652343-.4375-1.300781-.871093-1.957031-1.304687-.003906-.003906-.007812-.003906-.011719-.007813-10.101562-6.6875-20.601562-12.972656-32.476562-14.980468.894531.597656 1.785156 1.199218 2.683593 1.789062 2.964844 1.9375 6.132813 3.820313 9.488282 5.8125zm0 0" fill="#dcd2cd"/><path d="m287.492188 113.503906c-17.222657-1.207031-32.367188-2.570312-45.953126 5.269532-13.585937 7.84375-19.976562 21.644531-27.542968 37.160156 0 0 0 0 .003906.003906 8.445312 7.871094 19.355469 11.855469 30.285156 11.855469 7.652344 0 15.316406-1.957031 22.148438-5.898438 16.578125-9.574219 25.46875-29.257812 21.058594-48.390625zm0 0" fill="#ebe1dc"/></svg>