<svg id="Capa_1" enable-background="new 0 0 512.002 512.002" height="512" viewBox="0 0 512.002 512.002" width="512" xmlns="http://www.w3.org/2000/svg"><g><g><path d="m375.313 216.776c-.966 0-1.948-.188-2.895-.584-3.821-1.601-5.621-5.995-4.02-9.815 11.643-27.797 16.192-56.409 13.522-85.042-1.131-12.131-3.6-24.229-7.335-35.958-1.257-3.947.923-8.165 4.87-9.423 3.946-1.256 8.166.924 9.422 4.87 4.063 12.755 6.748 25.916 7.979 39.118 2.86 30.67-2.196 62.563-14.623 92.229-1.203 2.874-3.987 4.605-6.92 4.605z" fill="#a3e5a8"/></g><g><path d="m226.043 61.99c-1.71 0-3.428-.581-4.837-1.771-3.1-2.619-3.544-7.216-1.045-10.376 1.618-2.638 8.652-22.606-5.387-37.129-2.879-2.979-2.798-7.727.18-10.605 2.979-2.879 7.726-2.797 10.605.18 20.3 21 11.718 50.533 6.217 57.043-1.484 1.754-3.601 2.658-5.733 2.658zm-5.725-12.341c-.03.035-.062.073-.096.115.032-.038.064-.077.096-.115z" fill="#a3e5a8"/></g><g><path d="m180.199 55.15c-10.7 0-21.846-2.92-31.194-8.885-3.492-2.228-4.517-6.864-2.289-10.356 2.227-3.493 6.864-4.519 10.357-2.288 14.351 9.154 35.732 8.628 44.86-1.106 2.833-3.021 7.58-3.175 10.601-.341 3.021 2.833 3.174 7.579.341 10.601-7.669 8.18-19.852 12.375-32.676 12.375z" fill="#a3e5a8"/></g><g><path d="m253.9 102.206c-2.33 0-4.626-1.083-6.092-3.118-2.421-3.361-1.658-8.048 1.703-10.469 5.234-3.77 19.319-31.01 10.36-54.422-1.48-3.868.455-8.205 4.324-9.686 3.869-1.478 8.204.455 9.685 4.324 11.833 30.919-5.788 64.887-15.602 71.955-1.327.956-2.86 1.416-4.378 1.416z" fill="#a3e5a8"/></g><g><path d="m313.243 101.325c-1.846 0-3.696-.678-5.146-2.045-12.555-11.845-23.197-35.252-11.871-62.239 1.603-3.818 5.997-5.615 9.818-4.014 3.819 1.604 5.616 5.999 4.013 9.818-8.348 19.892-1.169 36.56 8.333 45.524 3.013 2.843 3.151 7.589.308 10.602-1.474 1.565-3.463 2.354-5.455 2.354z" fill="#a3e5a8"/></g><g><path d="m334.739 57.614c-1.812 0-3.628-.652-5.069-1.974-7.508-6.89-15.696-26.829-5.705-51.004 1.583-3.828 5.968-5.646 9.796-4.067 3.828 1.582 5.649 5.968 4.066 9.796-7.981 19.313-.336 32.094 1.984 34.223 3.052 2.801 3.256 7.545.455 10.597-1.478 1.611-3.499 2.429-5.527 2.429z" fill="#a3e5a8"/></g><g><path d="m333.235 76.343c-3.232 0-6.465-.407-9.64-1.287-3.992-1.104-6.332-5.237-5.227-9.229 1.106-3.99 5.241-6.326 9.229-5.226 12.326 3.407 28.216-5.859 33.664-16.112 1.944-3.657 6.485-5.046 10.142-3.104 3.658 1.943 5.048 6.484 3.104 10.143-7.082 13.329-24.116 24.815-41.272 24.815z" fill="#a3e5a8"/></g><g><path d="m310.813 125.281c-2.781 0-5.663-.184-8.647-.575-4.107-.539-7-4.306-6.46-8.412.539-4.108 4.305-6.996 8.412-6.461 26.566 3.495 38.144-14.078 39.376-16.093 2.163-3.532 6.78-4.643 10.312-2.48 3.533 2.163 4.643 6.78 2.48 10.312-7.039 11.499-22.818 23.709-45.473 23.709z" fill="#a3e5a8"/></g><g><path d="m213.692 95.317c-12.013 0-23.553-4.049-32.229-10.56-3.313-2.486-3.983-7.188-1.498-10.5 2.486-3.312 7.187-3.984 10.5-1.498 12.308 9.235 32.643 11.575 47.695-1.824 3.093-2.753 7.834-2.479 10.589.616 2.754 3.094 2.478 7.835-.616 10.589-10.429 9.283-22.663 13.177-34.441 13.177z" fill="#a3e5a8"/></g><g><path d="m252.765 160.427c-16.01 0-30.187-6.342-40.549-18.548-2.681-3.158-2.294-7.891.863-10.572 3.158-2.68 7.891-2.293 10.571.863 13.896 16.368 32.668 14.712 45.972 10.439 3.941-1.271 8.167.903 9.434 4.848 1.267 3.943-.903 8.167-4.847 9.434-7.379 2.37-14.581 3.536-21.444 3.536z" fill="#a3e5a8"/></g><g><path d="m239.478 157.527c-1.614 0-3.241-.519-4.611-1.59-3.243-2.533-3.836-7.201-1.343-10.463 1.177-1.883 3.054-10.644-1.079-17.741-2.084-3.579-.873-8.171 2.707-10.256 3.579-2.086 8.17-.874 10.255 2.707 7.399 12.706 4.689 28.44-.013 34.46-1.479 1.893-3.686 2.883-5.916 2.883zm-5.905-12.117c-.006.009-.013.017-.019.025.007-.009.013-.017.019-.025z" fill="#a3e5a8"/></g><g><path d="m184.26 117.924c-4.083 0-7.427-3.275-7.497-7.374-.07-4.142 3.231-7.555 7.373-7.625 2.104-.035 6.196-.511 9.957-3.296 5.875-4.351 6.779-11.361 6.901-12.722.369-4.127 4.022-7.148 8.138-6.804 4.125.369 7.171 4.013 6.803 8.138-.312 3.486-2.163 15.48-12.915 23.442-5.28 3.91-11.896 6.126-18.63 6.239-.044.002-.087.002-.13.002z" fill="#a3e5a8"/></g><g><path d="m50.586 147.527c-2.021 0-4.036-.812-5.515-2.415-2.809-3.044-2.617-7.789.427-10.598 3.024-2.789 8.391-8.837 10.365-18.008 1.492-6.931.479-12.935-.634-16.751-1.16-3.977 1.124-8.141 5.101-9.3 3.976-1.157 8.14 1.124 9.3 5.101 2.291 7.857 2.602 16.193.897 24.107-2.844 13.213-10.53 21.884-14.858 25.876-1.441 1.331-3.265 1.988-5.083 1.988z" fill="#a3e5a8"/></g><g><path d="m25.378 136.778c-7.685 0-16.373-2.448-23.294-9.674-2.865-2.991-2.763-7.739.228-10.604 2.992-2.866 7.739-2.763 10.604.228 7.575 7.907 18.899 4.241 20.245 3.441 3.498-2.217 8.125-1.174 10.342 2.325s1.171 8.137-2.328 10.354c-3.364 2.131-9.212 3.93-15.797 3.93z" fill="#a3e5a8"/></g><g><path d="m36.988 173.092c-.335 0-.671-.003-1.01-.011-13.48-.292-23.282-6.395-27.925-10.006-3.27-2.543-3.858-7.256-1.315-10.525s7.255-3.855 10.525-1.314c3.179 2.473 9.879 6.651 19.04 6.85 11.745.265 19.868-6.122 22.813-8.876 3.025-2.83 7.771-2.671 10.601.356 2.829 3.025 2.669 7.771-.356 10.601-4.203 3.928-15.66 12.925-32.373 12.925z" fill="#a3e5a8"/></g><g><path d="m81.821 171.042c-1.381 0-2.777-.381-4.027-1.179-3.492-2.228-4.517-6.864-2.289-10.356 3.493-5.475 7.5-14.176 6.755-24.54-.174-2.405-.6-4.82-1.268-7.177-1.128-3.985 1.187-8.131 5.172-9.26 3.984-1.126 8.131 1.187 9.26 5.172.945 3.337 1.549 6.765 1.796 10.188 1.041 14.461-4.358 26.3-9.07 33.686-1.43 2.241-3.854 3.466-6.329 3.466z" fill="#a3e5a8"/></g><g><path d="m127.521 148.569c-2.354 0-4.673-1.106-6.134-3.176-2.389-3.385-1.582-8.064 1.803-10.452 3.761-2.655 10.516-8.533 13.502-18.075 1.169-3.734 1.659-7.664 1.455-11.679-.21-4.137 2.973-7.661 7.109-7.871 4.138-.218 7.661 2.973 7.871 7.109.294 5.794-.419 11.487-2.12 16.922-4.306 13.758-13.857 22.1-19.167 25.848-1.314.928-2.824 1.374-4.319 1.374z" fill="#a3e5a8"/></g><g><path d="m180.615 192.979c-3.752 0-7.147-.322-10.04-.765-4.095-.627-6.906-4.453-6.28-8.548s4.451-6.901 8.548-6.28c6.691 1.025 16.863 1.226 27.322-3.625 4.004-1.857 7.738-4.317 11.099-7.31 3.093-2.757 7.833-2.482 10.589.612 2.755 3.094 2.481 7.834-.612 10.589-4.458 3.971-9.426 7.239-14.764 9.716-9.265 4.297-18.289 5.611-25.862 5.611z" fill="#a3e5a8"/></g><g><path d="m175.749 173.849c-1.585 0-3.182-.5-4.54-1.534-3.595-2.739-12.189-10.5-14.337-23.373-.994-5.949-.443-12.177 1.592-18.007 1.365-3.911 5.642-5.974 9.553-4.609s5.975 5.643 4.609 9.553c-.842 2.412-1.692 6.207-.959 10.594 1.266 7.584 6.459 12.255 8.633 13.911 3.295 2.511 3.931 7.217 1.42 10.511-1.475 1.937-3.71 2.954-5.971 2.954z" fill="#a3e5a8"/></g><g><path d="m293.06 173.566c-3.231 0-6.184-.232-8.768-.568-4.107-.535-7.003-4.299-6.468-8.406.535-4.108 4.295-6.99 8.406-6.469 7.222.941 18.174.842 29.328-4.978 5.212-2.72 9.865-6.387 13.83-10.898 2.734-3.112 7.474-3.419 10.585-.684 3.111 2.733 3.417 7.473.683 10.584-5.191 5.908-11.3 10.718-18.159 14.297-10.582 5.521-20.962 7.122-29.437 7.122z" fill="#a3e5a8"/></g><g><path d="m77.815 209.45c-8.417 0-15.102-2.36-18.388-3.796-3.795-1.659-5.528-6.08-3.87-9.876s6.081-5.526 9.875-3.87c2.738 1.197 12.507 4.761 23.297.425 12.251-4.924 16.583-16.323 17.327-18.559 1.309-3.93 5.555-6.055 9.485-4.747 3.93 1.309 6.056 5.555 4.748 9.485-1.56 4.686-8.042 20.535-25.966 27.738-5.879 2.364-11.501 3.2-16.508 3.2z" fill="#a3e5a8"/></g><g><path d="m388.886 117.032c-3.027 0-5.878-1.846-7.015-4.844-1.468-3.873.481-8.203 4.354-9.671 2.588-.981 15.72-6.555 20.112-19.965 1.995-6.089 1.534-11.749.795-15.426-.816-4.061 1.815-8.014 5.876-8.83 4.062-.81 8.014 1.815 8.83 5.877 1.567 7.804 1.136 15.774-1.247 23.049-6.354 19.396-23.841 27.346-29.05 29.32-.873.333-1.771.49-2.655.49z" fill="#a3e5a8"/></g><g><path d="m389.305 161.947c-.478 0-.963-.046-1.45-.141-8.986-1.76-17.529-6.257-24.054-12.662-8.112-7.963-11.515-16.935-12.941-23.06-.939-4.034 1.57-8.065 5.604-9.005 4.039-.939 8.066 1.569 9.005 5.604.798 3.427 3.007 10.03 8.839 15.755 6.011 5.901 12.874 7.95 16.429 8.646 4.065.796 6.715 4.736 5.919 8.802-.7 3.579-3.838 6.061-7.351 6.061z" fill="#a3e5a8"/></g><g><path d="m423.836 162.87c-3.789 0-7.042-2.862-7.449-6.714-.908-8.598-.532-17.25 1.118-25.716 1.485-7.624 3.992-15.022 7.45-21.989 1.841-3.71 6.342-5.227 10.052-3.383 3.71 1.842 5.225 6.342 3.383 10.053-2.861 5.763-4.934 11.883-6.162 18.188-1.364 7.002-1.675 14.159-.924 21.273.435 4.119-2.552 7.811-6.671 8.246-.267.027-.533.042-.797.042z" fill="#a3e5a8"/></g><g><path d="m445.921 232.913c-3.51 0-6.645-2.476-7.35-6.049-1.767-8.956-4.403-32.088 9.247-53.407 4.667-7.29 10.712-13.6 17.967-18.755 3.377-2.399 8.059-1.605 10.458 1.771s1.607 8.059-1.77 10.458c-5.679 4.035-10.397 8.952-14.022 14.614-10.716 16.737-8.579 35.238-7.163 42.415.802 4.064-1.842 8.009-5.906 8.811-.491.096-.98.142-1.461.142z" fill="#a3e5a8"/></g><g><path d="m489.837 237.028c-2.913 0-6.048-.342-9.337-1.193-12.367-3.202-19.33-11.74-21.749-15.262-2.345-3.415-1.479-8.084 1.936-10.429 3.414-2.347 8.083-1.479 10.429 1.935 1.464 2.133 5.678 7.301 13.145 9.234 7.855 2.036 14.274-.763 16.669-2.059 3.644-1.974 8.194-.619 10.167 3.023 1.972 3.643.619 8.194-3.024 10.166-2.957 1.601-9.625 4.585-18.236 4.585z" fill="#a3e5a8"/></g><g><path d="m453.002 269.033c-5.935 0-12.499-1.037-19.217-3.959-13.898-6.045-21.208-16.89-24.33-22.815-1.93-3.665-.523-8.201 3.142-10.131 3.665-1.931 8.2-.523 10.131 3.141 2.204 4.185 7.348 11.834 17.04 16.05 14.603 6.351 28.367-.115 30.978-1.476 3.673-1.914 8.203-.488 10.117 3.186s.488 8.203-3.186 10.117c-2.488 1.296-12.189 5.887-24.675 5.887z" fill="#a3e5a8"/></g><g><path d="m267.44 226.275c-8.568 0-22.035-2.983-30.36-14.39-6.446-8.831-6.859-18.394-6.531-23.308.276-4.133 3.853-7.256 7.983-6.984 4.133.275 7.26 3.85 6.984 7.982-.192 2.883.03 8.466 3.68 13.466 6.767 9.271 19.812 8.172 19.945 8.156 4.101-.383 7.784 2.631 8.182 6.743s-2.583 7.771-6.695 8.184c-.956.096-2.027.151-3.188.151z" fill="#a3e5a8"/></g><g><path d="m352.64 246.265c-.608 0-1.227-.075-1.844-.23-6.741-1.704-13.748-10.824-18.057-18.791-4.524-8.362-11.23-24.957-5.318-42.14 1.348-3.916 5.615-6.001 9.532-4.651 3.917 1.348 5.999 5.615 4.651 9.532-6.146 17.861 8.436 38.86 13.279 41.623 3.769 1.182 6.002 5.117 5.022 8.993-.859 3.399-3.912 5.664-7.265 5.664zm2.371-14.587h.01zm-.538-.186c.001.001.004.001.005.002-.002-.001-.003-.001-.005-.002z" fill="#a3e5a8"/></g><g><path d="m372.197 220.714c-.995 0-2.006-.199-2.977-.62-3.801-1.646-5.548-6.062-3.902-9.862 5.198-12.003 1.814-21.225-.666-25.653-3.115-5.563-8.027-9.442-12.819-10.123-4.101-.583-6.953-4.38-6.37-8.481.583-4.1 4.375-6.957 8.48-6.37 9.467 1.346 18.363 7.942 23.796 17.646 6.525 11.652 7.014 25.846 1.342 38.942-1.223 2.83-3.984 4.521-6.884 4.521z" fill="#a3e5a8"/></g><g><path d="m396.262 252.828c-.438 0-.882-.038-1.329-.118-4.077-.729-6.792-4.625-6.063-8.702 1.555-8.698 4.46-17.036 8.635-24.781 3.443-6.388 7.724-12.308 12.722-17.596 2.845-3.013 7.592-3.145 10.603-.299 3.01 2.845 3.144 7.592.299 10.602-4.095 4.332-7.6 9.181-10.419 14.41-3.419 6.343-5.799 13.174-7.073 20.303-.65 3.63-3.811 6.181-7.375 6.181z" fill="#a3e5a8"/></g><g><path d="m261.767 262.625c-3.153 0-6.087-2.004-7.125-5.162-1.292-3.936.851-8.174 4.787-9.466 8.047-2.642 19.479-8.256 28.234-19.992 4.099-5.494 7.124-11.703 8.993-18.456 1.104-3.991 5.237-6.33 9.229-5.228 3.992 1.105 6.333 5.237 5.228 9.229-2.367 8.552-6.211 16.433-11.426 23.423-11.1 14.88-25.474 21.958-35.579 25.275-.776.255-1.566.377-2.341.377z" fill="#a3e5a8"/></g><g><path d="m325.619 297.096c-.997 0-2.01-.2-2.983-.622-9.187-3.989-21.829-25.42-14.917-48.465 1.19-3.968 5.373-6.221 9.338-5.029 3.967 1.189 6.219 5.371 5.029 9.338-4.862 16.211 4.3 28.954 6.645 30.45 3.716 1.69 5.404 6.055 3.772 9.813-1.228 2.827-3.987 4.515-6.884 4.515zm3.153-14.302h.01zm-.162-.08c.015.007.029.013.043.02-.014-.007-.029-.013-.043-.02z" fill="#a3e5a8"/></g><g><path d="m172.696 236.683c-3.979 0-7.414-.429-9.992-.901-4.075-.746-6.772-4.654-6.025-8.729s4.654-6.773 8.729-6.025c5.366.984 15.855 1.721 25.831-4.385 3.915-2.396 7.299-5.574 10.059-9.446 2.403-3.374 7.086-4.159 10.46-1.755 3.374 2.403 4.159 7.087 1.755 10.46-3.938 5.526-8.798 10.08-14.444 13.536-9.321 5.703-18.825 7.245-26.373 7.245z" fill="#a3e5a8"/></g><g><path d="m153.587 252.246c-11.292 0-26.849-2.307-40.906-12.384-4.249-3.047-8.14-6.647-11.568-10.704-2.673-3.163-2.276-7.896.887-10.569 3.165-2.675 7.896-2.276 10.57.888 2.63 3.112 5.608 5.869 8.852 8.195 14.148 10.142 30.685 10.118 39.282 9.199 4.118-.43 7.814 2.543 8.253 6.662s-2.543 7.814-6.662 8.254c-2.437.259-5.388.459-8.708.459z" fill="#a3e5a8"/></g><g><path d="m174.227 292.958c-3.507 0-6.642-2.472-7.349-6.043-.805-4.063 1.836-8.01 5.899-8.815.262-.054 26.873-5.826 26.873-31.566 0-4.143 3.358-7.5 7.5-7.5s7.5 3.357 7.5 7.5c0 31.633-28.121 44.134-38.957 46.281-.493.097-.984.143-1.466.143z" fill="#a3e5a8"/></g><g><path d="m169.198 305.784c-12.609 0-35.475-3.239-48.592-24.693-2.161-3.534-1.047-8.15 2.487-10.311 3.536-2.162 8.151-1.047 10.311 2.486 12.102 19.793 36.962 17.782 41.822 17.183 4.114-.511 7.856 2.408 8.367 6.519.51 4.11-2.408 7.856-6.519 8.366-1.448.18-4.235.45-7.876.45z" fill="#a3e5a8"/></g><g><path d="m195.774 398.313c-1.613 0-3.237-.518-4.607-1.586-3.266-2.548-3.849-7.261-1.301-10.527 9.133-11.708 15.765-25.46 19.177-39.769 2.786-11.685 3.506-23.702 2.14-35.72-.468-4.115 2.489-7.831 6.605-8.299 4.12-.458 7.832 2.49 8.299 6.605 1.563 13.751.737 27.509-2.454 40.892-3.907 16.386-11.494 32.124-21.94 45.517-1.479 1.896-3.688 2.887-5.919 2.887z" fill="#a3e5a8"/></g><g><path d="m250.202 347.964c-3.044 0-5.907-1.867-7.031-4.888-1.444-3.883.533-8.2 4.416-9.644 6.013-2.236 14.676-6.814 21.801-15.93 6.655-8.513 9.098-17.365 9.976-23.293.606-4.096 4.417-6.928 8.518-6.32 4.097.606 6.927 4.42 6.32 8.518-1.142 7.715-4.324 19.24-12.996 30.334-9.284 11.877-20.563 17.84-28.391 20.75-.861.322-1.745.473-2.613.473z" fill="#a3e5a8"/></g><g><path d="m104.537 321.198c-3.452 0-6.559-2.398-7.322-5.909-2.023-9.311-6.197-18.138-12.07-25.527-5.015-6.31-11.145-11.522-18.218-15.492-3.612-2.026-4.897-6.599-2.87-10.21 2.026-3.614 6.598-4.9 10.211-2.87 8.778 4.926 16.389 11.398 22.62 19.237 7.296 9.18 12.478 20.133 14.986 31.676.879 4.048-1.689 8.042-5.737 8.922-.537.116-1.073.173-1.6.173z" fill="#a3e5a8"/></g><g><path d="m18.333 340.609c-.31 0-.62-.002-.931-.007-4.142-.058-7.452-3.463-7.394-7.604.059-4.141 3.426-7.475 7.604-7.394 6.97.094 13.644-1.236 19.848-3.963 13.493-5.933 20.65-16.771 23.715-22.702 1.901-3.68 6.425-5.123 10.106-3.221 3.68 1.901 5.122 6.426 3.22 10.105-3.974 7.692-13.287 21.759-31.004 29.549-7.905 3.476-16.367 5.237-25.164 5.237z" fill="#a3e5a8"/></g><g><path d="m102.902 356.595c-.458 0-.916-.006-1.379-.017-13.322-.328-23.646-5.38-29.961-9.561-3.454-2.287-4.4-6.94-2.114-10.395 2.287-3.452 6.941-4.4 10.394-2.113 4.673 3.094 12.292 6.833 22.049 7.072 16.792.397 28.485-10.053 31.66-13.27 2.909-2.95 7.658-2.979 10.606-.071 2.949 2.909 2.98 7.658.071 10.606-5.325 5.4-19.867 17.749-41.326 17.749z" fill="#a3e5a8"/></g><g><path d="m84.884 382.995c-3.95 0-7.258-3.088-7.481-7.081-.231-4.135 2.933-7.676 7.069-7.907 2.56-.144 9.097-1.062 14.505-6.489 5.238-5.256 6.232-11.581 6.416-14.058.307-4.13 3.888-7.231 8.036-6.923 4.131.308 7.23 3.905 6.923 8.036-.308 4.142-1.972 14.726-10.751 23.534-9.067 9.096-20.007 10.636-24.291 10.876-.143.008-.285.012-.426.012z" fill="#a3e5a8"/></g><g><path d="m332.306 407.336c-12.052 0-21.64-4.03-26.877-6.854-3.646-1.967-5.007-6.516-3.041-10.162s6.515-5.007 10.161-3.041c4.892 2.639 14.926 6.714 27.177 4.345 8.282-1.599 14.398-5.57 18.071-8.62 3.186-2.646 7.915-2.21 10.561.978 2.646 3.187 2.208 7.915-.978 10.562-7.203 5.982-15.782 10.065-24.809 11.81-3.576.688-7.011.982-10.265.982z" fill="#a3e5a8"/></g><g><path d="m340.524 356.007c-3.922 0-7.222-3.049-7.477-7.019-.586-9.096.144-26.858 11.611-43.614 4.999-7.305 11.378-13.497 18.96-18.404 3.476-2.252 8.121-1.257 10.372 2.221 2.25 3.478 1.256 8.121-2.221 10.371-5.904 3.822-10.861 8.628-14.731 14.283-8.924 13.04-9.482 27.013-9.021 34.181.266 4.133-2.869 7.7-7.002 7.966-.165.01-.329.015-.491.015z" fill="#a3e5a8"/></g><g><path d="m392.941 365.651c-5.619 0-12.59-1.113-19.692-5.046-13.198-7.308-17.928-19.342-19.349-24.178-1.168-3.974 1.107-8.143 5.082-9.31 3.972-1.172 8.142 1.106 9.31 5.081.701 2.386 3.655 10.54 12.223 15.283 8.344 4.621 16.632 2.981 18.974 2.37 4.011-1.055 8.105 1.353 9.153 5.359 1.047 4.008-1.353 8.105-5.36 9.152-2.125.557-5.79 1.289-10.341 1.289z" fill="#a3e5a8"/></g><g><path d="m356.395 434.105c-8.151 0-16.069-3.066-21.987-8.782-10.515-10.154-9.662-23.68-9.385-26.288.438-4.119 4.129-7.099 8.252-6.664 4.119.438 7.103 4.133 6.664 8.252-.091.853-.725 8.489 4.889 13.911 4.292 4.144 10.667 5.611 16.635 3.826 3.969-1.187 8.147 1.07 9.333 5.04 1.186 3.969-1.07 8.147-5.039 9.333-3.088.922-6.243 1.372-9.362 1.372z" fill="#a3e5a8"/></g><g><path d="m398.574 326.773c-3.913 0-7.209-3.035-7.476-6.997-.394-5.846-.067-20.777 11.429-33.147 7.044-7.58 15.299-10.912 20.983-12.373 4.008-1.034 8.1 1.384 9.131 5.396 1.031 4.013-1.386 8.101-5.397 9.131-3.741.962-9.159 3.14-13.729 8.057-7.723 8.311-7.655 18.887-7.451 21.931.278 4.133-2.847 7.708-6.979 7.986-.172.01-.342.016-.511.016z" fill="#a3e5a8"/></g><g><path d="m473.368 363.588c-.573 0-1.155-.066-1.738-.204-5.708-1.354-20.012-6.066-29.545-20.537-7.648-11.609-8.215-23.479-7.873-29.521.234-4.137 3.779-7.303 7.912-7.064 4.135.234 7.298 3.777 7.063 7.912-.237 4.191.151 12.418 5.424 20.421 6.578 9.985 16.515 13.253 20.481 14.193 4.03.957 6.522 4.999 5.566 9.029-.817 3.449-3.895 5.771-7.29 5.771z" fill="#a3e5a8"/></g><g><path d="m191.15 429.302c-7.183 0-14.309-.87-21.289-2.606-14.166-3.523-27.462-10.654-38.451-20.62-3.068-2.782-3.3-7.525-.518-10.594s7.525-3.301 10.594-.518c6.388 5.794 17.125 13.477 31.995 17.175 8.576 2.133 17.428 2.691 26.312 1.66 4.112-.474 7.837 2.471 8.315 6.585.478 4.115-2.471 7.838-6.585 8.315-3.462.402-6.924.603-10.373.603z" fill="#a3e5a8"/></g><g fill="#90d196"><path d="m279.635 210.839c.314-1.077.609-2.192.887-3.34 17.974-66.851 45.363-130.741 81.582-190.213 2.154-3.538 1.033-8.152-2.505-10.307-3.538-2.156-8.152-1.033-10.307 2.504-27.891 45.799-50.648 94.167-68.023 144.463-2.848-18.253-8.682-38.199-18.375-58.049-24.333-49.833-63.208-77.178-84.216-89.043-3.606-2.037-8.182-.764-10.219 2.842s-.765 8.182 2.842 10.219c19.493 11.009 55.561 36.375 78.115 82.564 19.061 39.036 21.931 78.844 16.589 101.24-.295 1.096-.584 2.194-.873 3.292-.01.032-.018.067-.028.099-.013.042-.019.083-.031.125-1.657 6.289-3.24 12.6-4.733 18.938-21.598 91.678-25.581 185.687-11.84 279.416.547 3.729 3.751 6.413 7.412 6.413.362 0 .729-.026 1.097-.08 4.099-.602 6.934-4.41 6.333-8.509-13.466-91.851-9.564-183.971 11.599-273.801 1.48-6.283 3.05-12.54 4.694-18.773z"/><path d="m206.052 407.021c-.024-.227-.061-.453-.107-.68-2.483-15.62-5.243-31.169-8.284-46.597-6.295-31.938-13.836-63.713-22.577-95.204-.036-.163-.069-.326-.117-.489-9.569-32.667.627-84.887 23.717-121.468 2.211-3.503 1.164-8.135-2.339-10.345-3.505-2.213-8.135-1.163-10.346 2.339-14.006 22.19-23.535 49.099-27.519 74.977-3.731-11.449-7.613-22.852-11.662-34.197-.093-.341-.211-.669-.348-.988-7.556-21.119-15.648-42.051-24.287-62.749-1.595-3.823-5.989-5.628-9.811-4.032s-5.627 5.987-4.032 9.81c7.271 17.418 14.133 35.009 20.629 52.733-13.645-.315-33.116-3.487-52.532-15.964-25.307-16.263-36.318-39.152-40.629-51.349-1.38-3.906-5.664-5.953-9.571-4.572-3.905 1.381-5.952 5.665-4.572 9.57 4.951 14.006 17.596 40.291 46.662 58.97 23.624 15.181 47.314 18.37 63.048 18.37 1.032 0 2.017-.018 2.979-.042 20.457 58.038 36.755 117.492 48.589 177.531.396 2.007.78 4.018 1.166 6.029-16.344-22.242-40.902-46.364-76.58-61.856-23.721-10.303-49.236-15.418-75.795-15.177-4.142.036-7.47 3.423-7.434 7.565s3.453 7.494 7.565 7.435c24.441-.232 47.907 4.476 69.69 13.935 52.025 22.593 78.453 65.308 89.78 89.429 4.979 31.538 8.802 63.37 11.4 95.108.321 3.921 3.602 6.889 7.467 6.889.205 0 .412-.008.62-.025 4.128-.338 7.201-3.958 6.863-8.086-2.644-32.329-6.545-64.752-11.633-96.87z"/><path d="m505.234 183.047c-2.766-3.084-7.508-3.341-10.591-.575-14.794 13.27-31.065 24.79-48.36 34.242-27.26 14.899-56.795 24.642-87.98 29.076 33.164-51.116 73.345-86.306 96.155-103.889 3.281-2.529 3.89-7.238 1.361-10.52-2.528-3.28-7.237-3.89-10.519-1.361-31.063 23.944-59.852 53.031-83.253 84.115-41.776 55.491-66.004 115.814-72.012 179.294-1.112 11.752-1.584 23.569-1.424 35.416.001.046.001.093.003.138.358 25.736 3.707 51.618 10.028 77.309.842 3.421 3.905 5.71 7.277 5.71.593 0 1.196-.071 1.798-.219 4.022-.99 6.48-5.053 5.491-9.075-6.013-24.438-9.211-49.043-9.585-73.5 8.591-50.861 39.796-77.131 64.524-90.215 42.896-22.698 93.57-21.473 121.455-8.535 3.756 1.744 8.216.111 9.96-3.646 1.744-3.758.111-8.217-3.646-9.96-16.9-7.844-39.219-11.535-62.849-10.401-25.539 1.228-50.413 7.896-71.935 19.283-17.799 9.418-38.583 24.932-53.73 49.88 6.827-43.193 22.178-81.147 40.907-113.522 37.44-3.714 72.806-14.53 105.167-32.216 18.308-10.006 35.528-22.198 51.182-36.238 3.084-2.765 3.342-7.507.576-10.591z"/></g></g></svg>