<?xml version="1.0" encoding="iso-8859-1"?>
<!-- Generator: Adobe Illustrator 19.0.0, SVG Export Plug-In . SVG Version: 6.00 Build 0)  -->
<svg version="1.1" id="Layer_1" xmlns="http://www.w3.org/2000/svg" xmlns:xlink="http://www.w3.org/1999/xlink" x="0px" y="0px"
	 viewBox="0 0 512 512" style="enable-background:new 0 0 512 512;" xml:space="preserve">
<path style="fill:#BC8565;" d="M372.87,512H139.13c-36.826,0-66.783-29.956-66.783-66.783v-244.87
	c0-14.369,4.75-28.603,13.37-40.082l36.717-48.962V83.478c0-9.223,7.479-16.696,16.696-16.696H372.87
	c9.217,0,16.696,7.473,16.696,16.696v27.826l36.728,48.973c8.608,11.468,13.359,25.701,13.359,40.071v244.87
	C439.652,482.044,409.696,512,372.87,512z"/>
<path style="fill:#B37B5A;" d="M389.565,111.304V83.478c0-9.223-7.479-16.696-16.696-16.696H256V512h116.87
	c36.826,0,66.783-29.956,66.783-66.783v-244.87c0-14.369-4.75-28.603-13.359-40.071L389.565,111.304z"/>
<path style="fill:#5C5F66;" d="M372.87,100.174H139.13c-27.619,0-50.087-22.468-50.087-50.087S111.511,0,139.13,0H372.87
	c27.619,0,50.087,22.468,50.087,50.087S400.489,100.174,372.87,100.174z"/>
<path style="fill:#E6EEFF;" d="M356.174,411.826H155.826c-9.217,0-16.696-7.473-16.696-16.696V261.565
	c0-9.223,7.479-16.696,16.696-16.696h200.348c9.217,0,16.696,7.473,16.696,16.696V395.13
	C372.87,404.353,365.391,411.826,356.174,411.826z"/>
<path style="fill:#DAE2F2;" d="M356.174,244.87H256v166.957h100.174c9.217,0,16.696-7.473,16.696-16.696V261.565
	C372.87,252.343,365.391,244.87,356.174,244.87z"/>
<path style="fill:#53565C;" d="M372.87,0H256v100.174h116.87c27.619,0,50.087-22.468,50.087-50.087S400.489,0,372.87,0z"/>
<g>
</g>
<g>
</g>
<g>
</g>
<g>
</g>
<g>
</g>
<g>
</g>
<g>
</g>
<g>
</g>
<g>
</g>
<g>
</g>
<g>
</g>
<g>
</g>
<g>
</g>
<g>
</g>
<g>
</g>
</svg>
