<?xml version="1.0" encoding="iso-8859-1"?>
<!-- Generator: Adobe Illustrator 19.0.0, SVG Export Plug-In . SVG Version: 6.00 Build 0)  -->
<svg version="1.1" id="Capa_1" xmlns="http://www.w3.org/2000/svg" xmlns:xlink="http://www.w3.org/1999/xlink" x="0px" y="0px"
	 viewBox="0 0 512 512" style="enable-background:new 0 0 512 512;" xml:space="preserve">
<path style="fill:#C6946A;" d="M437.02,74.981C388.667,26.629,324.38,0,256,0S123.333,26.629,74.981,74.981
	C26.628,123.333,0,187.62,0,256s26.628,132.667,74.981,181.02S187.62,512,256,512s132.667-26.628,181.02-74.981S512,324.38,512,256
	S485.372,123.333,437.02,74.981z M256,337.264c-44.881,0-81.264-36.384-81.264-81.264s36.383-81.264,81.264-81.264
	s81.264,36.384,81.264,81.264S300.881,337.264,256,337.264z"/>
<path style="fill:#B27C57;" d="M437.02,74.981C388.667,26.629,324.38,0,256,0c-7.191,0-14.332,0.312-21.419,0.895
	c60.303,4.963,116.333,30.818,159.601,74.085c48.352,48.352,74.98,112.639,74.98,181.02s-26.628,132.667-74.98,181.02
	c-43.267,43.267-99.299,69.122-159.601,74.085C241.667,511.689,248.809,512,256,512c68.38,0,132.667-26.628,181.02-74.981
	S512,324.38,512,256S485.372,123.333,437.02,74.981z"/>
<path style="fill:#7C3D1E;" d="M444.894,229.782c-17.858-17.407-26.002-42.474-21.787-67.053c5.891-34.342-7.962-68.4-36.152-88.88
	c-28.19-20.481-64.86-23.131-95.702-6.917c-22.072,11.606-48.431,11.606-70.503,0c-30.842-16.214-67.514-13.564-95.702,6.917
	c-28.19,20.481-42.042,54.538-36.152,88.88c4.215,24.58-3.929,49.646-21.787,67.054c-24.951,24.321-33.763,60.016-22.996,93.155
	s38.877,56.838,73.36,61.849c24.679,3.586,46.002,19.079,57.039,41.441c15.421,31.246,46.647,50.656,81.491,50.656
	s66.069-19.41,81.491-50.656c11.036-22.363,32.359-37.855,57.039-41.441c34.481-5.011,62.592-28.71,73.359-61.848
	C478.657,289.799,469.845,254.104,444.894,229.782z M337.264,256c0,44.881-36.383,81.264-81.264,81.264S174.736,300.881,174.736,256
	s36.383-81.264,81.264-81.264S337.264,211.119,337.264,256z"/>
<path style="fill:#602E18;" d="M256,337.264c-44.881,0-81.264-36.384-81.264-81.264s36.383-81.264,81.264-81.264h-42.838
	c-44.881,0-81.264,36.384-81.264,81.264s36.384,81.264,81.264,81.264H256z"/>
<g>
	<path style="fill:#FFD039;" d="M139.086,132.58c-2.32,0-4.609-1.064-6.092-3.076c-2.477-3.361-1.76-8.094,1.602-10.571
		l22.039-16.239c3.361-2.477,8.095-1.759,10.571,1.602c2.477,3.361,1.76,8.094-1.602,10.571l-22.039,16.239
		C142.215,132.1,140.643,132.58,139.086,132.58z"/>
	<path style="fill:#FFD039;" d="M125.476,335.98c-1.003,0-2.022-0.201-3.002-0.625l-25.121-10.882
		c-3.831-1.659-5.591-6.111-3.931-9.942c1.659-3.831,6.11-5.592,9.942-3.931l25.121,10.882c3.831,1.659,5.591,6.111,3.931,9.942
		C131.182,334.276,128.399,335.98,125.476,335.98z"/>
	<path style="fill:#FFD039;" d="M348.47,367.537c-0.044,0-0.089,0-0.134-0.001c-4.175-0.073-7.499-3.516-7.428-7.69l0.476-27.372
		c0.073-4.174,3.484-7.477,7.69-7.428c4.175,0.073,7.499,3.516,7.428,7.69l-0.476,27.372
		C355.955,364.238,352.584,367.537,348.47,367.537z"/>
	<path style="fill:#FFD039;" d="M243.969,429.8c-1.003,0-2.022-0.201-3.002-0.625c-3.831-1.659-5.591-6.111-3.931-9.942
		l10.882-25.119c1.659-3.831,6.11-5.591,9.942-3.931c3.831,1.66,5.591,6.111,3.931,9.942l-10.882,25.12
		C249.674,428.096,246.891,429.8,243.969,429.8z"/>
	<path style="fill:#FFD039;" d="M406.231,313.23c-0.114,0-0.229-0.002-0.344-0.007l-27.348-1.225c-4.171-0.188-7.4-3.719-7.214-7.89
		c0.186-4.172,3.734-7.401,7.89-7.214l27.348,1.225c4.171,0.188,7.4,3.719,7.214,7.89C413.596,310.065,410.25,313.23,406.231,313.23
		z"/>
	<path style="fill:#FFD039;" d="M362.624,182.908c-0.114,0-0.229-0.002-0.344-0.007l-27.349-1.225
		c-4.171-0.187-7.401-3.719-7.214-7.89c0.186-4.171,3.718-7.404,7.89-7.214l27.349,1.225c4.171,0.188,7.4,3.719,7.214,7.89
		C369.988,179.742,366.642,182.908,362.624,182.908z"/>
	<path style="fill:#FFD039;" d="M216.309,154.678c-0.115,0-0.229-0.002-0.344-0.007l-27.348-1.225
		c-4.171-0.186-7.4-3.719-7.214-7.89c0.186-4.172,3.712-7.393,7.89-7.214l27.348,1.225c4.171,0.187,7.4,3.719,7.214,7.89
		C223.674,151.513,220.328,154.678,216.309,154.678z"/>
	<path style="fill:#FFD039;" d="M196.372,379.047c-2.485,0-4.918-1.224-6.363-3.467l-14.821-23.018
		c-2.261-3.511-1.247-8.189,2.263-10.449c3.512-2.261,8.189-1.247,10.449,2.263l14.821,23.018c2.261,3.511,1.247,8.189-2.263,10.449
		C199.192,378.658,197.774,379.047,196.372,379.047z"/>
	<path style="fill:#FFD039;" d="M144.08,213.525c-2.485,0-4.918-1.224-6.363-3.467l-14.821-23.017
		c-2.261-3.51-1.247-8.189,2.263-10.449c3.51-2.26,8.189-1.247,10.449,2.263l14.821,23.017c2.261,3.51,1.247,8.189-2.263,10.449
		C146.9,213.136,145.482,213.525,144.08,213.525z"/>
	<path style="fill:#FFD039;" d="M270.188,148.718c-0.916,0-1.847-0.167-2.752-0.521c-3.888-1.521-5.808-5.906-4.287-9.794
		l9.972-25.495c1.521-3.888,5.905-5.809,9.794-4.287c3.888,1.521,5.808,5.906,4.287,9.794l-9.972,25.495
		C276.064,146.894,273.21,148.718,270.188,148.718z"/>
	<path style="fill:#FFD039;" d="M305.855,397.837c-2.717,0-5.343-1.47-6.697-4.042l-12.746-24.228
		c-1.943-3.694-0.524-8.266,3.171-10.21c3.693-1.943,8.265-0.525,10.21,3.171l12.746,24.228c1.943,3.694,0.524,8.266-3.171,10.21
		C308.246,397.557,307.041,397.837,305.855,397.837z"/>
	<path style="fill:#FFD039;" d="M367.122,248.653c-2.373,0-4.709-1.114-6.182-3.2c-2.408-3.411-1.595-8.127,1.816-10.535
		l22.366-15.788c3.41-2.408,8.128-1.595,10.535,1.816c2.408,3.411,1.595,8.127-1.816,10.535l-22.365,15.788
		C370.151,248.203,368.629,248.653,367.122,248.653z"/>
	<path style="fill:#FFD039;" d="M114.303,287.242c-2.373,0-4.709-1.114-6.182-3.2c-2.408-3.411-1.595-8.127,1.816-10.535
		l22.366-15.788c3.411-2.407,8.128-1.595,10.535,1.816c2.408,3.411,1.595,8.127-1.816,10.535l-22.365,15.788
		C117.332,286.792,115.811,287.242,114.303,287.242z"/>
	<path style="fill:#FFD039;" d="M363.771,135.969c-2.485,0-4.918-1.224-6.363-3.467l-14.821-23.017
		c-2.261-3.51-1.247-8.189,2.263-10.449c3.511-2.26,8.19-1.247,10.449,2.263l14.821,23.017c2.261,3.51,1.247,8.189-2.263,10.449
		C366.591,135.579,365.173,135.969,363.771,135.969z"/>
</g>
<g>
</g>
<g>
</g>
<g>
</g>
<g>
</g>
<g>
</g>
<g>
</g>
<g>
</g>
<g>
</g>
<g>
</g>
<g>
</g>
<g>
</g>
<g>
</g>
<g>
</g>
<g>
</g>
<g>
</g>
</svg>
