<svg id="Layer_1" viewBox="0 0 48 48" xmlns="http://www.w3.org/2000/svg" data-name="Layer 1"><path d="m12 0h2v11h-2z" fill="#e79165"/><path d="m22 1h3a0 0 0 0 1 0 0 8 8 0 0 1 -8 8h-3a0 0 0 0 1 0 0 8 8 0 0 1 8-8z" fill="#84b749"/><path d="m26 24a14.26 14.26 0 0 1 -5.91 11.73 9.19 9.19 0 0 1 -.93.6 12.18 12.18 0 0 1 -6.16 1.67c-7.18 0-13-6.27-13-14s5.82-14 13-14c6.13 0 11.27 4.57 12.64 10.73.05.23.1.45.14.68a14.68 14.68 0 0 1 .22 2.59z" fill="#c4455e"/><path d="m26 24a14.26 14.26 0 0 1 -5.91 11.73 16.56 16.56 0 0 1 -.09-1.73 16.33 16.33 0 0 1 5.78-12.59 14.68 14.68 0 0 1 .22 2.59z" fill="#b53957"/><ellipse cx="35" cy="34" fill="#c4455e" rx="13" ry="14"/><ellipse cx="35" cy="34" fill="#ffde76" rx="11" ry="12"/><path d="m33.8 40.82c-.39-.29-3.8-2.94-3.8-6.6s3.41-6.31 3.8-6.6l1.2-.89 1.2.89c.39.29 3.8 2.94 3.8 6.6s-3.41 6.31-3.8 6.6l-1.2.9z" fill="#ffba55"/><path d="m38 34.22c0 2.76-3 5-3 5s-3-2.24-3-5 3-5 3-5 3 2.24 3 5z" fill="#c48d66"/></svg>