<svg id="C" viewBox="0 0 696.081 583.461" xmlns="http://www.w3.org/2000/svg"><path d="m382.6 23.386c30.3 5.127 61.16 22.513 85.054 40.152 38.2 28.2 44.884 77.64 44.069 121.582-.508 27.372-3.1 55.677-17.786 79.5-18.918 30.7-55.984 49.819-94.47 57.055s-66.518-5.495-117.723-1.208c-31.821 2.664-64.3-9.988-90.473-26.706-20.079-12.825-35.024-31.39-45.157-51.472-20.58-40.787-17.617-103.749 1.1-144.712 16.986-37.165 45.486-47.762 84.633-67.146 39.747-19.683 108.853-14.131 150.753-7.045z" fill="#dd864a"/><path d="m296.138 134.98c8.739 1.415 18.749.176 25.393 6.026 3.787 3.335 6.446 8.9 11.478 9.283 4.761.361 8.181-4.2 11.524-7.607 6.423-6.549 15.4-10.027 22.139-16.252s10.565-17.717 4.164-24.288c17.211-2.49 35.149 8.308 51.595 2.655 4.757-1.635 8.965-4.551 13.6-6.513s10.149-2.884 14.569-.475c1.075-12.076-9.491-21.224-19.718-27.734-16.16-10.287-45.152-7.874-57.192-9.3 0 0-3.617-2.091-10.366-12.172-3.732-5.575-4.979-12.549-8.858-18.023-8.807-12.429-28.163-13.5-36.993-25.911-1.165-1.637-2.227-3.536-4.075-4.324-3.363-1.433-7.05 1.791-8.2 5.261s-.859 7.3-2.092 10.744c-2.127 5.938-8.14 9.353-13.169 13.159s-9.8 9.868-7.845 15.864c-17.382-6.311-36.419-12.668-53.944-6.766-8.548 2.883-17.048 8.653-25.791 6.443-3.307-.835-6.358-2.8-9.767-2.906s-7.249 3.1-5.9 6.228c9.174 3.3 12.86 13.931 18.287 22.03 10.526 15.708 26.7 18.952 44.185 19.577 16.687.6 14.722 19.717 23.165 30.428 5.888 7.469 14.343 13.039 23.811 14.573z" fill="#947456"/><g fill="#755337"><path d="m354.038 76.944a3.006 3.006 0 0 0 -3.37 2.577 23.783 23.783 0 0 1 -9.109 15.559 3 3 0 0 0 3.6 4.8 29.5 29.5 0 0 0 11.453-19.563 3 3 0 0 0 -2.574-3.373z"/><path d="m341.368 57.561a3.48 3.48 0 0 1 1.487 3.007 3 3 0 0 0 2.79 3.2c.069 0 .137.007.206.007a3 3 0 0 0 2.99-2.8 9.478 9.478 0 0 0 -4.162-8.417 9.119 9.119 0 0 0 -2.563-1.151l3.166-10.171a3 3 0 1 0 -5.729-1.783l-3.859 12.4c-.129.058-.263.1-.389.164a18.038 18.038 0 0 0 -3.892 2.934c-1.166 1.066-2.372 2.167-3.055 2-.591-.141-1.27-1.307-1.926-2.435-.964-1.656-2.162-3.718-4.366-4.874a7.289 7.289 0 0 0 -3.208-.833l-.258-13.209a3 3 0 0 0 -3-2.941h-.06a3 3 0 0 0 -2.94 3.057l.3 14.939a26.059 26.059 0 0 0 -3.069 2.249c-2.357 1.952-4.462 2.814-5.362 2.193a6.3 6.3 0 0 1 -1.419-2.751l-4.95-14.474a3 3 0 0 0 -5.678 1.939l4.947 14.477c.572 1.672 1.435 4.2 3.7 5.754 1.948 1.339 6.176 2.8 12.59-2.517a16.549 16.549 0 0 1 3.438-2.323c.027-.012.055-.02.082-.032a2.483 2.483 0 0 1 2.107-.211 7.265 7.265 0 0 1 1.965 2.576c1.172 2.014 2.631 4.521 5.728 5.256 3.77.9 6.5-1.593 8.484-3.409a15.634 15.634 0 0 1 2.3-1.856c.08.007.162.019.242.019a2.994 2.994 0 0 0 1.651-.506 3.382 3.382 0 0 1 1.712.522z"/><path d="m254.338 57.277a3 3 0 1 0 4.13-4.352 24.367 24.367 0 0 0 -25.594-4.644 3 3 0 0 0 2.339 5.525 18.2 18.2 0 0 1 19.125 3.471z"/><path d="m259.119 70.951-14.2.542c-1.393.054-3.984.152-5.792 2.085a3.007 3.007 0 0 0 2.175 5.079 2.948 2.948 0 0 0 2.159-.939 4.822 4.822 0 0 1 1.686-.229l14.195-.542a3 3 0 0 0 -.228-6z"/><path d="m309.851 100.981h-.018a2.984 2.984 0 0 0 -.885.148 3.056 3.056 0 0 0 -.531.018 24.626 24.626 0 0 1 -23.162-10.5 10.718 10.718 0 0 1 -1.849-4.23 10.3 10.3 0 0 1 1.454-6.15 18.469 18.469 0 0 1 6.6-6.912 3 3 0 0 0 -3.116-5.127 24.491 24.491 0 0 0 -8.752 9.16 15.91 15.91 0 0 0 -2.122 9.921 16.62 16.62 0 0 0 2.774 6.643 29.741 29.741 0 0 0 11.229 9.972l-2.15 7.325a3 3 0 1 0 5.757 1.689l1.993-6.789a29.951 29.951 0 0 0 8.307 1.2c.477 0 .954-.024 1.432-.048l-.07 12.433a3 3 0 0 0 2.983 3.017h.017a3 3 0 0 0 3-2.984l.092-15.767a3 3 0 0 0 -2.983-3.019z"/><path d="m333.987 107.484c-.033 0-.065 0-.1 0a3 3 0 0 0 -2.9 3.094l.5 15.8a3 3 0 0 0 3 2.905h.1a3 3 0 0 0 2.9-3.094l-.5-15.8a3 3 0 0 0 -3-2.905z"/><path d="m365.409 48.2a3.008 3.008 0 0 0 -3.3 2.669c-.743 7.048-2.95 11.977-6.749 15.07a3 3 0 0 0 3.788 4.653c5.09-4.144 8.011-10.39 8.927-19.094a3 3 0 0 0 -2.666-3.298z"/><path d="m371.168 66.5a3 3 0 1 0 -3.151 5.1 15.989 15.989 0 0 1 7.356 13.556 3 3 0 0 0 2.929 3.068h.071a3 3 0 0 0 3-2.931 21.872 21.872 0 0 0 -10.205-18.793z"/><path d="m422.514 84.33a82.193 82.193 0 0 0 -26.068-11.279 3 3 0 1 0 -1.4 5.834 76.244 76.244 0 0 1 24.17 10.458 3 3 0 1 0 3.3-5.013z"/><ellipse cx="321.673" cy="83.02" rx="10.033" ry="17.785" transform="matrix(.068 -.998 .998 .068 216.906 398.281)"/></g><path d="m462.614 127.826a3 3 0 1 0 -4.323 4.16 54.711 54.711 0 0 1 14.928 40.984 3 3 0 0 0 2.791 3.2c.069 0 .138.006.206.006a3 3 0 0 0 2.99-2.8 60.806 60.806 0 0 0 -16.592-45.55z" fill="#fff"/><path d="m197.675 108.449c-14.824 7.473-22.622 26.37-17.384 42.123a3 3 0 0 0 5.694-1.893c-4.337-13.042 2.119-28.685 14.391-34.873a3 3 0 0 0 -2.7-5.357z" fill="#fff"/><path d="m311.138 320.469a3 3 0 0 1 -2.618-1.531 156.91 156.91 0 0 1 -15.307-113.767 3 3 0 1 1 5.821 1.453 150.857 150.857 0 0 0 14.717 109.376 3 3 0 0 1 -2.613 4.47z" fill="#cc7a42"/><path d="m240.334 279c30.578 3.048 62.553 18.288 87.595 34.257 40.032 25.529 50.075 74.4 52.258 118.293 1.36 27.343.7 55.759-12.321 80.532-16.78 31.916-52.456 53.521-90.358 63.365s-66.739-.944-117.532 6.825c-31.566 4.828-64.831-5.579-92.084-20.473-20.907-11.425-37.083-28.927-48.562-48.272-23.314-39.289-24.653-102.306-8.773-144.45 14.41-38.241 42.125-50.758 79.855-72.766 38.312-22.353 107.631-21.533 149.922-17.311z" fill="#e88c4d"/><path d="m161.685 396.226c8.815.816 18.717-1.1 25.745 4.28 4.006 3.069 7.038 8.442 12.084 8.479 4.774.035 7.875-4.747 10.978-8.376 5.961-6.971 14.682-11.054 20.98-17.724s9.331-18.4 2.5-24.515c17-3.659 35.634 5.891 51.656-.87 4.634-1.956 8.634-5.153 13.12-7.426s9.932-3.569 14.5-1.467c.249-12.121-10.916-20.527-21.563-26.325-16.824-9.16-45.584-4.775-57.693-5.374 0 0-3.751-1.839-11.172-11.436-4.1-5.307-5.824-12.18-10.067-17.377-9.634-11.8-29.018-11.547-38.674-23.327-1.274-1.554-2.463-3.376-4.36-4.036-3.454-1.2-6.911 2.267-7.823 5.808s-.36 7.344-1.355 10.862c-1.717 6.069-7.483 9.886-12.241 14.026s-9.1 10.513-6.744 16.362c-17.772-5.11-37.2-10.154-54.28-3.07-8.331 3.454-16.412 9.79-25.286 8.183-3.356-.608-6.533-2.358-9.942-2.234s-7.022 3.584-5.46 6.616c9.378 2.669 13.78 13.021 19.747 20.732 11.571 14.953 27.93 17.083 45.415 16.517 16.69-.543 16.033 18.667 25.187 28.777 6.382 7.05 15.198 12.031 24.748 12.915z" fill="#947456"/><path d="m215.491 334.376a3.013 3.013 0 0 0 -3.186 2.8 23.785 23.785 0 0 1 -8.026 16.145 3 3 0 0 0 3.921 4.541 29.489 29.489 0 0 0 10.092-20.3 3 3 0 0 0 -2.801-3.186z" fill="#755337"/><path d="m206.217 321.8a3 3 0 0 0 3-3 9.476 9.476 0 0 0 -4.726-8.115 9.127 9.127 0 0 0 -2.635-.974l2.464-10.362a3 3 0 1 0 -5.837-1.388l-3 12.633c-.124.066-.255.118-.377.191a18.043 18.043 0 0 0 -3.682 3.192c-1.091 1.142-2.223 2.346-2.911 2.206-.6-.1-1.357-1.217-2.088-2.3-1.075-1.587-2.411-3.561-4.689-4.564a7.286 7.286 0 0 0 -3.256-.612l-1.161-13.163a3 3 0 1 0 -5.977.527l1.313 14.883a26.246 26.246 0 0 0 -2.909 2.453c-2.217 2.108-4.258 3.114-5.2 2.554a6.3 6.3 0 0 1 -1.605-2.648l-5.923-14.1a3 3 0 0 0 -5.532 2.322l5.923 14.1c.684 1.629 1.717 4.09 4.081 5.49 2.036 1.2 6.352 2.37 12.388-3.371a16.615 16.615 0 0 1 3.266-2.548c.031-.015.062-.028.092-.045a2.478 2.478 0 0 1 2.081-.35 7.288 7.288 0 0 1 2.137 2.436c1.307 1.929 2.933 4.332 6.074 4.852a6.821 6.821 0 0 0 1.135.1c3.2 0 5.426-2.327 7.1-4.075a15.606 15.606 0 0 1 2.162-2c.014 0 .029.006.044.006a2.993 2.993 0 0 0 1.828-.627 3.366 3.366 0 0 1 1.738.407 3.477 3.477 0 0 1 1.688 2.9 3 3 0 0 0 2.994 2.99z" fill="#755337"/><path d="m114.681 321.555a3 3 0 0 0 3.826-4.623 24.365 24.365 0 0 0 -25.852-2.888 3 3 0 1 0 2.71 5.353 18.2 18.2 0 0 1 19.316 2.158z" fill="#755337"/><path d="m120.384 334.871-14.125 1.509c-1.385.148-3.963.424-5.636 2.474a3.008 3.008 0 0 0 2.313 4.927 2.943 2.943 0 0 0 2.293-1.091 4.857 4.857 0 0 1 1.668-.344l14.125-1.508a3 3 0 0 0 -.638-5.967z" fill="#755337"/><path d="m173.046 361.371a2.954 2.954 0 0 0 -.89.209 3.1 3.1 0 0 0 -.529.055 24.638 24.638 0 0 1 -23.825-8.9 10.857 10.857 0 0 1 -2.131-4.1 10.282 10.282 0 0 1 1.03-6.233 18.464 18.464 0 0 1 6.117-7.347 3 3 0 0 0 -3.459-4.9 24.484 24.484 0 0 0 -8.107 9.736 15.909 15.909 0 0 0 -1.44 10.043 16.614 16.614 0 0 0 3.219 6.438 29.756 29.756 0 0 0 11.884 9.184l-1.645 7.452a3 3 0 0 0 2.282 3.576 2.993 2.993 0 0 0 3.577-2.283l1.524-6.9a30.177 30.177 0 0 0 6.384.7 28.67 28.67 0 0 0 3.412-.21l.778 12.4a3 3 0 0 0 2.991 2.812c.063 0 .127 0 .191-.006a3 3 0 0 0 2.807-3.181l-.988-15.744a2.993 2.993 0 0 0 -3.182-2.801z" fill="#755337"/><path d="m197.472 366.22a3 3 0 0 0 -2.685 3.286l1.581 15.732a3 3 0 0 0 2.981 2.7c.1 0 .2 0 .3-.015a3 3 0 0 0 2.685-3.285l-1.581-15.732a3 3 0 0 0 -3.281-2.686z" fill="#755337"/><path d="m224.875 304.921a3.032 3.032 0 0 0 -3.108 2.887c-.259 7.082-2.126 12.151-5.7 15.5a3 3 0 1 0 4.1 4.383c4.8-4.482 7.284-10.913 7.6-19.658a3 3 0 0 0 -2.892-3.112z" fill="#755337"/><path d="m231.87 322.792a3 3 0 1 0 -2.8 5.308 15.986 15.986 0 0 1 8.264 13.022 3 3 0 0 0 3 2.865h.137a3 3 0 0 0 2.862-3.132 21.874 21.874 0 0 0 -11.463-18.063z" fill="#755337"/><path d="m284.311 337.074a82.2 82.2 0 0 0 -26.776-9.474 3 3 0 1 0 -1 5.916 76.263 76.263 0 0 1 24.827 8.784 3 3 0 1 0 2.946-5.226z" fill="#755337"/><ellipse cx="183.616" cy="342.645" fill="#755337" rx="17.785" ry="10.033"/><path d="m327.285 377.734a3 3 0 0 0 -4.029 4.445 54.714 54.714 0 0 1 17.689 39.87 3 3 0 0 0 3 3 3 3 0 0 0 3-3 60.8 60.8 0 0 0 -19.66-44.315z" fill="#fff"/><path d="m61.641 376.473c-14.279 8.467-20.77 27.852-14.469 43.211a3 3 0 1 0 5.55-2.277c-5.216-12.716.158-28.764 11.979-35.774a3 3 0 1 0 -3.06-5.16z" fill="#fff"/><path d="m189.1 580.266a3 3 0 0 1 -2.512-1.355 156.917 156.917 0 0 1 -23.032-112.458 3 3 0 0 1 5.908 1.053 150.851 150.851 0 0 0 22.136 108.116 3 3 0 0 1 -2.506 4.644z" fill="#cc7a42"/><path d="m566.9 253.86c30.3 5.127 61.159 22.513 85.054 40.153 38.2 28.2 44.884 77.639 44.068 121.582-.507 27.371-3.1 55.676-17.785 79.5-18.918 30.7-55.984 49.819-94.47 57.055s-66.519-5.494-117.724-1.208c-31.821 2.664-64.3-9.987-90.472-26.705-20.079-12.825-35.024-31.39-45.157-51.473-20.58-40.787-17.617-103.749 1.1-144.711 16.984-37.17 45.488-47.767 84.632-67.151 39.743-19.679 108.844-14.133 150.754-7.042z" fill="#db964b"/><path d="m480.433 365.454c8.739 1.416 18.749.177 25.393 6.027 3.787 3.334 6.446 8.9 11.478 9.283 4.761.361 8.181-4.2 11.524-7.607 6.423-6.549 15.4-10.028 22.139-16.252s10.565-17.718 4.164-24.288c17.211-2.491 35.149 8.307 51.6 2.655 4.756-1.635 8.965-4.552 13.6-6.514s10.152-2.883 14.567-.474c1.075-12.076-9.49-21.224-19.718-27.735-16.159-10.286-45.151-7.873-57.191-9.3 0 0-3.617-2.091-10.366-12.172-3.732-5.574-4.979-12.549-8.858-18.023-8.807-12.428-28.163-13.5-36.994-25.911-1.164-1.637-2.226-3.536-4.074-4.324-3.363-1.433-7.05 1.791-8.2 5.261s-.86 7.3-2.093 10.744c-2.127 5.938-8.139 9.353-13.168 13.16s-9.8 9.867-7.845 15.863c-17.382-6.31-36.419-12.667-53.944-6.765-8.547 2.878-17.042 8.648-25.786 6.439-3.306-.836-6.357-2.8-9.766-2.906s-7.25 3.1-5.9 6.228c9.173 3.3 12.86 13.93 18.287 22.03 10.525 15.708 26.7 18.952 44.185 19.577 16.687.6 14.722 19.716 23.164 30.428 5.879 7.472 14.334 13.043 23.802 14.576z" fill="#947456"/><path d="m538.333 307.418a3 3 0 0 0 -3.37 2.577 23.781 23.781 0 0 1 -9.109 15.559 3 3 0 1 0 3.6 4.8 29.491 29.491 0 0 0 11.453-19.563 3 3 0 0 0 -2.574-3.373z" fill="#755337"/><path d="m525.663 288.036a3.483 3.483 0 0 1 1.487 3.007 3 3 0 0 0 2.79 3.2c.069.005.137.007.206.007a3 3 0 0 0 2.99-2.8 9.477 9.477 0 0 0 -4.162-8.417 9.094 9.094 0 0 0 -2.563-1.152l3.166-10.17a3 3 0 0 0 -5.729-1.784l-3.859 12.4c-.129.058-.263.1-.39.165a18.052 18.052 0 0 0 -3.891 2.933c-1.166 1.065-2.371 2.167-3.055 2-.591-.14-1.27-1.306-1.926-2.435-.964-1.656-2.163-3.718-4.366-4.873a7.275 7.275 0 0 0 -3.208-.833l-.26-13.212a3 3 0 0 0 -6 .119l.294 14.938a26.231 26.231 0 0 0 -3.069 2.249c-2.356 1.951-4.46 2.812-5.362 2.191a6.3 6.3 0 0 1 -1.418-2.749l-4.947-14.476a3 3 0 1 0 -5.678 1.94l4.947 14.475c.571 1.672 1.434 4.2 3.7 5.754 1.948 1.339 6.176 2.8 12.589-2.515a16.519 16.519 0 0 1 3.448-2.327c.022-.009.045-.016.066-.025a2.5 2.5 0 0 1 2.114-.215 7.288 7.288 0 0 1 1.965 2.575c1.172 2.015 2.631 4.523 5.728 5.257 3.773.9 6.5-1.593 8.485-3.409a15.549 15.549 0 0 1 2.3-1.855c.081.006.162.018.243.018a3 3 0 0 0 1.653-.506 3.369 3.369 0 0 1 1.712.525z" fill="#755337"/><path d="m438.633 287.752a3 3 0 0 0 4.13-4.352 24.361 24.361 0 0 0 -25.594-4.644 3 3 0 0 0 2.339 5.525 18.2 18.2 0 0 1 19.125 3.471z" fill="#755337"/><path d="m443.414 301.424-14.2.543c-1.392.054-3.983.153-5.792 2.085a3.007 3.007 0 0 0 2.176 5.079 2.943 2.943 0 0 0 2.158-.938 4.829 4.829 0 0 1 1.687-.229l14.195-.543a3 3 0 0 0 -.228-6z" fill="#755337"/><path d="m494.146 331.456h-.018a5.335 5.335 0 0 1 -1.417.166 24.624 24.624 0 0 1 -23.161-10.5 10.731 10.731 0 0 1 -1.849-4.234 10.291 10.291 0 0 1 1.454-6.147 18.445 18.445 0 0 1 6.6-6.911 3 3 0 0 0 -3.116-5.129 24.472 24.472 0 0 0 -8.752 9.161 15.909 15.909 0 0 0 -2.122 9.92 16.4 16.4 0 0 0 2.773 6.643 29.762 29.762 0 0 0 11.23 9.973l-2.15 7.323a3 3 0 1 0 5.757 1.69l1.993-6.789a29.913 29.913 0 0 0 8.306 1.2c.478 0 .955-.025 1.433-.049l-.07 12.434a3 3 0 0 0 2.983 3.016h.017a3 3 0 0 0 3-2.983l.089-15.774a3 3 0 0 0 -2.98-3.01z" fill="#755337"/><path d="m518.183 337.961a3 3 0 0 0 -2.9 3.093l.5 15.8a3 3 0 0 0 3 2.9h.1a3 3 0 0 0 2.9-3.093l-.5-15.8a2.991 2.991 0 0 0 -3.1-2.9z" fill="#755337"/><path d="m549.7 278.672a3 3 0 0 0 -3.3 2.668c-.742 7.047-2.949 11.977-6.749 15.071a3 3 0 1 0 3.789 4.652c5.091-4.145 8.011-10.391 8.927-19.094a3 3 0 0 0 -2.667-3.297z" fill="#755337"/><path d="m555.463 296.978a3 3 0 0 0 -3.151 5.106 15.989 15.989 0 0 1 7.356 13.555 3 3 0 0 0 2.929 3.069h.071a3 3 0 0 0 3-2.931 21.875 21.875 0 0 0 -10.205-18.799z" fill="#755337"/><path d="m606.809 314.8a82.186 82.186 0 0 0 -26.069-11.278 3 3 0 0 0 -1.4 5.834 76.227 76.227 0 0 1 24.171 10.458 3 3 0 0 0 3.3-5.014z" fill="#755337"/><ellipse cx="505.968" cy="313.494" fill="#755337" rx="10.033" ry="17.785" transform="matrix(.068 -.998 .998 .068 158.693 796.901)"/><path d="m646.909 358.3a3 3 0 1 0 -4.323 4.161 54.71 54.71 0 0 1 14.928 40.984 3 3 0 0 0 2.791 3.195c.069 0 .138.007.205.007a3 3 0 0 0 2.991-2.8 60.806 60.806 0 0 0 -16.592-45.547z" fill="#fff"/><path d="m381.969 338.923c-14.823 7.474-22.622 26.371-17.383 42.124a3 3 0 0 0 5.694-1.893c-4.337-13.042 2.119-28.686 14.391-34.873a3 3 0 0 0 -2.7-5.358z" fill="#fff"/><path d="m495.433 550.944a3 3 0 0 1 -2.618-1.531 156.913 156.913 0 0 1 -15.307-113.768 3 3 0 1 1 5.821 1.453 150.855 150.855 0 0 0 14.717 109.375 3 3 0 0 1 -2.613 4.471z" fill="#cc7a42"/></svg>