<svg id="icons" height="512" viewBox="0 0 340 340" width="512" xmlns="http://www.w3.org/2000/svg"><path d="m191.676 142.877v10.785a19.889 19.889 0 0 0 14.863 19.3 41.521 41.521 0 0 0 10.349 1.191c10.529 0 17.966-3.291 22.87-6.743a19.735 19.735 0 0 0 8.23-14.774l.377-5.316c-6.808-15.256-43.733-15.466-56.689-4.443z" fill="#f2d6c0"/><path d="m248.365 147.32 1.774-25.017-58.463 1.851v18.723c11.237 2.656 34.493 7.057 56.689 4.443z" fill="#d39f88"/><path d="m193.961 313.233c7.623-6.691 15.513-15.738 18.827-26.421 3.164-10.2.031-18.724-4.531-25.1l-23.469 13.367c-7.837 24.726-5.581 41.991 9.173 38.154z" fill="#f2d6c0"/><path d="m192.537 314.459q.708-.6 1.423-1.227a21.952 21.952 0 0 1 -2.69-1.456 8.88 8.88 0 0 1 -1.151-13.894c11.152-10.529 16.014-25.514 18.135-36.171a49.515 49.515 0 0 0 -14.33-13l-49.582 63.116 16.133 7.164a30.5 30.5 0 0 0 32.062-4.532z" fill="#d39f88"/><path d="m191 187.4a80.83 80.83 0 0 0 -15.21-17.013 12.06 12.06 0 0 1 -5.992-4.575 79.3 79.3 0 0 0 -8.686-5.218c-2.725-.144-5.236-1.521-7.65-3.453a80.957 80.957 0 0 0 -23.621-5.281q-.8-.057-1.6-.1s-14.984-2.017-21.142 8.936l-4.313 92.465s3.206 33.228 20.483 53.9c24.915 8.307 50.84-11.878 65.336-39.026 13.512-26.32 16.667-53.091 2.395-80.635z" fill="#a86862"/><path d="m114.168 311.264-8.153-42.7s-40.55-6.882-76.253 28.691c4.517 16.811 19.838 24.016 41.551 25.538 19.868 3.807 33.42-1.042 42.855-11.529z" fill="#a86862"/><path d="m197.214 216.627c4.3 65.742-73.869 90.366-73.869 90.366l.316.516a48.927 48.927 0 0 0 8.719 8.091s16.213 6.648 44.615-20.127a89.006 89.006 0 0 0 23.563-37.768 80.872 80.872 0 0 0 -9.562-70.3 102.622 102.622 0 0 1 6.218 29.222z" fill="#723f3b"/><path d="m116.147 321.63-1.979-10.366c-65.117 17.245-80.958-15.01-80.958-15.01s-1.374.331-3.448 1q-1.746 1.74-3.476 3.617s-3.342 3.962-1 10.007c2.313 5.975 25.388 25.664 81.84 19.721a10.841 10.841 0 0 0 6.043-2.552 8.326 8.326 0 0 0 2.978-6.417z" fill="#723f3b"/><path d="m84.145 160.693a9.764 9.764 0 0 0 -11.106-2.515c-2.452.959-10.726 5.248-20.558 13.532-1.644 3.437-3.69 5.651-6.414 5.8a120.973 120.973 0 0 0 -32.983 56.638c.374 2.961.111 5.479-1.61 6.978a136.7 136.7 0 0 0 -2.434 18.891s-.9 11.841 7.782 16.014c0 0 20.074 8.233 20.526 8.346s64.852-26.954 64.852-26.954-2.045-81.923-18.055-96.73z" fill="#a86862"/><path d="m136.164 29.785s-18.519 2.426-28.851 23.6c-8.194 16.793-6.241 38.134 14.058 55.851 0 0 21.321 22.826 95.252 22.826 46.722 0 82.286-19.866 102.135-34.488a30.052 30.052 0 0 0 6.168-42.289 49.324 49.324 0 0 0 -21.571-16.523s-13.035 5.638-18.029-11.857c0 0-16.393-19.162-49.27-14.251 0 0-17.241 10.718-25.833-3.3 0 0-32.7-6.4-56.061 12.275 0 .002-3.744 11.834-17.998 8.156z" fill="#a86862"/><path d="m136.164 29.785s8.471 2.472 18-8.154a39.49 39.49 0 0 0 6.929 16.177 20.341 20.341 0 0 0 30.2 2.819 66.285 66.285 0 0 0 18.93-31.271 35.83 35.83 0 0 0 25.833 3.3 42.184 42.184 0 0 0 -13.3 13.3c-7.772 12.962 3 29.173 17.917 26.726.169-.028.339-.057.511-.088a22.854 22.854 0 0 0 12.54-6.174 2.315 2.315 0 0 1 3.915 1.5c.571 6.8-1.116 17.935-17.738 19.7a36.771 36.771 0 0 1 -26.621-7.095 17.86 17.86 0 0 0 -26.98 7.285 49.141 49.141 0 0 0 -3.582 13.576 13.928 13.928 0 0 1 -13.758 12.371 22.746 22.746 0 0 1 -10.353-2.835 1.926 1.926 0 0 1 .325-3.559c3.924-1.123 8.858-3.87 8.968-10.582.132-8.01-12.157-18.371-19.132-23.6a32.508 32.508 0 0 1 -10.717-13.839 22.722 22.722 0 0 1 -1.887-9.557z" fill="#f4caba"/><path d="m285.326 26.905s7.764 25.395-6.553 41.659a2.315 2.315 0 0 0 2.238 3.788c5.808-1.3 13.731-4.275 19.145-11.043 4.076-5.095 4.286-14.02 3.2-22.545a21.832 21.832 0 0 1 -18.03-11.859z" fill="#f4caba"/><path d="m84.145 160.693s-6.261 23.19-1.159 34.321a120.154 120.154 0 0 0 6.87 12.734c4.266 6.919 7.326 16.945 5.972 24.96-1.328 7.864-3.938 16.915-12.881 23.143a7.4 7.4 0 0 1 -11.475-5.179c-1.285-8.952-5.632-21.222-19.4-25.993a3.992 3.992 0 0 0 -4.9 5.493 74.149 74.149 0 0 1 4.328 11.353c12.012 41.724-34.678 34.506-34.678 34.506s11.087 10.231 9.464 24.84c0 0 17.427-1.056 27.167-7.317 6.347-4.077 14.347-11.154 24.409-17.46a17.521 17.521 0 0 1 26.45 10.939 61.666 61.666 0 0 1 1.4 11.711 22.345 22.345 0 0 0 1.06 6.4c1.443 4.432 4.432 11.849 9.377 16.486 0 0 5.334-6.725 16.233-6.03a71.634 71.634 0 0 1 -4.527-6.588 34.319 34.319 0 0 1 -5.067-18c.028-5.961-.991-15.8-6.774-24.975a17.942 17.942 0 0 1 -1.662-15.675l.115-.309a11.707 11.707 0 0 1 13.311-7.222l5.507 1.125a11.131 11.131 0 0 0 11.633-4.925c3.086-4.866 7.946-11.413 14.024-15.9a19.345 19.345 0 0 1 16.114-3.149 3.99 3.99 0 0 0 3.94-6.528 36.158 36.158 0 0 0 -11.415-8.334 8.827 8.827 0 0 0 -10.885 2.946c-4.587 6.378-14.267 15.439-30.807 11.763-22.958-5.1-18.784-59.134-18.784-59.134s-11.133 7.187-22.96-.002z" fill="#f4caba"/><g fill="#723f3b"><path d="m24.417 243.374a3.492 3.492 0 0 0 3.226-6.194c-4.572-2.38-10.371-2.965-14.551-3.025-.591 2.27-1.135 4.592-1.616 6.976 3.709-.067 9.212.3 12.941 2.243z"/><path d="m53.018 192.54a3.491 3.491 0 1 0 5.172-4.691c-4.885-5.386-5.622-13-5.708-16.137-2.081 1.753-4.232 3.687-6.412 5.805a30.033 30.033 0 0 0 6.948 15.023z"/><path d="m153.463 157.146a27.752 27.752 0 0 0 -8.439 9.115 3.492 3.492 0 1 0 6.2 3.209c1.849-3.574 6.431-7.121 9.886-8.872a79.486 79.486 0 0 0 -7.647-3.452z"/><path d="m169.8 165.819c-3.1 1.96-6.558 4.744-8.275 7.921a3.492 3.492 0 1 0 6.144 3.32c1.283-2.373 5.317-5.2 8.123-6.667q-2.88-2.419-5.992-4.574z"/><path d="m212.124 106.005a3.491 3.491 0 0 0 -2.856 4.028 101.807 101.807 0 0 1 1.359 13.411 3.492 3.492 0 0 0 6.983 0 106.924 106.924 0 0 0 -1.458-14.583 3.5 3.5 0 0 0 -4.028-2.856z"/><path d="m134.685 74.679c-.513.438-12.59 10.932-14.012 26.943a3.491 3.491 0 0 0 3.169 3.787c.105.01.209.014.313.014a3.493 3.493 0 0 0 3.474-3.183c1.164-13.107 11.487-22.161 11.6-22.259a3.491 3.491 0 0 0 -4.544-5.3z"/><path d="m152.453 97.634a3.493 3.493 0 0 0 -4.819 1.076c-.545.86-5.332 8.6-5.332 15.665a3.492 3.492 0 0 0 6.983 0c0-4.267 3.063-10.051 4.245-11.923a3.492 3.492 0 0 0 -1.077-4.818z"/><path d="m275.023 86.472a3.5 3.5 0 0 0 -4.12 2.717 29.972 29.972 0 0 1 -5.689 11.649 17.578 17.578 0 0 0 -2.14 3.206 31.1 31.1 0 0 0 -11.432-9.5c-6.145-2.931-7.616-6.018-7.858-7.911a3.4 3.4 0 0 0 -2.16-2.682 3.492 3.492 0 0 0 -4.722 3.811c.649 4.13 3.616 9.214 11.735 13.085 5.722 2.729 10.246 7.942 12.8 14.6.161.779 1.15 3.551 1.226 3.853a3.489 3.489 0 0 0 5.1 2.194 3.6 3.6 0 0 0 1.635-4.055q-.5-1.963-1.18-3.821a10.315 10.315 0 0 1 2.337-8.273 36.717 36.717 0 0 0 7.191-14.755 3.49 3.49 0 0 0 -2.723-4.118z"/><path d="m297.315 85.9a3.491 3.491 0 0 0 -5.03 4.843c.049.052 4.9 5.185 5.513 10.672a3.492 3.492 0 0 0 3.466 3.107 3.42 3.42 0 0 0 .389-.022 3.49 3.49 0 0 0 3.085-3.855c-.875-7.886-7.156-14.473-7.423-14.745z"/><path d="m321.2 87.672c-2.281-12.072-11.415-19.844-11.8-20.172a3.491 3.491 0 0 0 -4.491 5.346c.076.064 7.626 6.554 9.436 16.119a3.491 3.491 0 0 0 3.426 2.844 3.544 3.544 0 0 0 .653-.061 3.492 3.492 0 0 0 2.776-4.076z"/><path d="m318.758 97.576a30.059 30.059 0 0 0 9.193-37.35 33.426 33.426 0 0 1 -4.893 15.961c-27.242 38.451-91.874 43.819-124.418 43.946a124.244 124.244 0 0 1 -47.782-9.086c-39.828-16.377-44.481-42.621-42.809-59.094-.248.471-.5.942-.736 1.433-8.194 16.794-6.241 38.135 14.058 55.852 0 0 21.321 22.826 95.252 22.826 46.722 0 82.286-19.864 102.135-34.488z"/><path d="m62.793 306.022a3.492 3.492 0 0 0 -4.478 2.083 52.44 52.44 0 0 0 -2.89 15.865 3.492 3.492 0 0 0 6.983 0 45.949 45.949 0 0 1 2.468-13.47 3.492 3.492 0 0 0 -2.083-4.478z"/><path d="m81.081 298.882a3.492 3.492 0 0 0 -4.617 1.751c-2.249 5-4.653 16.626-5.145 24.884a3.492 3.492 0 0 0 3.281 3.693c.071 0 .141.006.211.006a3.492 3.492 0 0 0 3.482-3.284c.477-8.008 2.833-18.635 4.543-22.433a3.492 3.492 0 0 0 -1.755-4.617z"/><path d="m166.731 273.881c.328-4.248-.16-11.464-6.123-16.218a3.53 3.53 0 0 0 -4.494.061 3.5 3.5 0 0 0 .117 5.381c3.48 2.755 3.748 7.4 3.541 10.185-6.633.587-10.791-.085-13.067-.723a3.484 3.484 0 0 0 -1.947 6.691 37.363 37.363 0 0 0 10.2 1.239 65.359 65.359 0 0 0 7.835-.51c1.233.214 6.519 1.553 10.746 9.141l4.946-5.305c-3.946-6.095-8.596-8.778-11.754-9.942z"/></g></svg>