<svg id="Layer_3" viewBox="0 0 512 512" xmlns="http://www.w3.org/2000/svg" data-name="Layer 3"><g><path d="m452.828125 4h-15.8330078c-7.9537354.2861328-7.9331055 11.7246094.0001221 12-.0001221 0 15.8328857 0 15.8328857 0 38.8974609 1.6054688 38.9088135 57.0483398-.0002441 58.6582031.0002441 0-87.8897705 0-97.5415039 0-.199707 2.019043-.487915 4.0224609-.8740845 6.001709-.3768921 1.965332-.8441162 3.909668-1.3966064 5.8278809.4490967.1074219.9154053.1704102 1.3973999.1704102h98.4150391c54.8171387-2.2644043 54.8237305-80.3916016 0-82.6582031z" fill="#ffee93"/><path d="m112.1322841 179.4299316c0 13.4001465 7.9699707 25.5200195 20.2699585 30.8400879l13.4800415 5.8198242.7799683 52.5700684-49.5100098-16.0500488c-21.7299805-7.0498047-39.9499512-20.6899414-52.75-38.2897949-12.789978-17.5900879-20.1499634-39.1401367-20.1499634-61.9802246 0-58.2197266 47.1900024-105.4099121 105.4099731-105.4099121h40.6500244v98.8701172c0 1.1098633.1499634 2.1799316.4299927 3.1999512l-19.9299927-2.7700195c-1.7300415-.2600098-3.4500122-.3901367-5.1400146-.3901367-18.1900024 0-33.539978 14.7700195-33.539978 33.5900879z" fill="#fcdc45"/><path d="m104.5537109 229.7792969c-16.465332-5.3408203-30.5551758-15.5683594-40.7416992-29.5751953-10.1787109-13.9980469-15.5595703-30.5507812-15.5595703-47.8642578 0-44.8896484 36.5200195-81.4101562 81.409668-81.4101562h16.6503702v50.9140625c-.2133585-.0029297-.4267374-.0039062-.6401163-.0039062-31.7275391 0-57.5400391 25.8349609-57.5400391 57.5898438 0 22.7109375 13.3110352 43.2392578 33.9829102 52.5322266l.0522461 3.5273438-17.6137695-5.7099609z" fill="#ffee93"/><path d="m416.592245 46.9299316-60.9799805 21.1901855c0 4.2397461-.4000244 8.4399414-1.1999512 12.5397949-1.4899902 7.7700195-4.3701172 15.2199707-8.500061 21.9802246-2.0899658 3.4199219-4.5 6.6599121-7.2099609 9.6799316-12.8400269 14.3000488-28.5 25.6799316-45.8600464 33.4699707-17.3599854 7.7900391-36.4299927 12.0100098-56.0999756 12.0100098h-54.4299927c-5.5200195 0-10.1699829-3.7299805-11.5700073-8.8000488-.2800293-1.0200195-.4299927-2.0900879-.4299927-3.1999512v-98.8701171z" fill="#ffa400"/><path d="m403.6459961 18.9589844h-216.9648438c-7.8480785.2423528-8.0294526 11.6919014.0001279 12.0000172-.0001279-.0000172 216.9647158-.0000172 216.9647158-.0000172 18.1088867 0 32.8417969 14.7324219 32.8417969 32.8417969s-14.7329102 32.8417969-32.8417969 32.8417969h-80.4296875c-3.3134766 0-6 2.6865234-6 6s2.6865234 6 6 6h80.4296875c59.4527046-2.4458453 59.5061834-87.2152804 0-89.6835938z" fill="#fff9d6"/><g fill="#ffb600"><path d="m79.043396 59.8598633c4.0212402 18.1176758 16.0527954 61.739502 44.020752 94.7900391 2.9942017-2.734375 6.4769287-4.9243164 10.282959-6.4389648-28.3031006-32.6323242-39.9396362-78.5817871-43.1398926-93.6420898-3.8383179 1.550293-7.5654297 3.3173828-11.1638184 5.2910156z"/><path d="m27.416687 177.9580078c11.7138062 1.1132812 35.1253662 2.9013672 64.6692505 2.9013672 6.423645 0 13.1432495-.0869141 20.0888672-.28125-.0130615-.3833008-.0425415-.7631836-.0425415-1.1484375 0-3.8359375.6471558-7.4995117 1.8168335-10.9082031-42.9332886 1.3349609-77.1132202-1.6352539-88.8431396-2.8496094.5296021 4.1650391 1.3036499 8.2661133 2.31073 12.2861328z"/></g><ellipse cx="276.769" cy="84.071" fill="#e86207" rx="8.043" ry="14.32"/></g><g><path d="m459.2687452 294.1509178s4.2512815 27.2623075-19.5027461 57.2069618c0 0-46.8708118 50.0601432-100.5442377 65.7309058-43.4513092 12.6862621-68.1249841 0-83.2217577 0-15.0967737 0-39.7704485 12.6862621-83.2217577 0-53.6734259-15.6707626-100.5442377-65.7309058-100.5442377-65.7309058-23.7540276-29.9446543-19.5027461-57.2069618-19.5027461-57.2069618z" fill="#ffd5ae"/><path d="m426.2421875 294.1508789c-24.6604004 17.6801758-77.7799072 32.230957-170.2421875 32.230957s-145.5818481-14.5507812-170.2422485-32.230957h-33.0264893s-2.8717651 18.519043 9.406311 41.7915039c7.0801392 4.6704102 14.2821655 8.4570312 20.9093018 11.4658203 39.4262695 17.8984375 97.6162109 26.9736328 172.953125 26.9736328s133.5268555-9.0751953 172.953125-26.9736328c6.6271973-3.0083008 13.8291016-6.7954102 20.9093018-11.4658203 12.2780762-23.2724609 9.4063721-41.7915039 9.4063721-41.7915039h-33.0266113z" fill="#e8b089"/><path d="m308.5942383 391.0908203c-32.419635-16.4375317-73.1053239-16.2754596-105.1884655.0009577-2.9394642 1.5224798-4.0864368 5.1377142-2.5664173 8.0791204 1.5205078 2.9414062 5.1381836 4.0957031 8.081543 2.5771484.2167969-.1113281 21.9643555-11.1679688 47.0791016-11.1679688s46.8623047 11.0566406 47.0791016 11.1679688c2.8807428 1.5058255 6.5511204.3993684 8.0815414-2.5693476 1.5249039-2.9423711.3754898-6.5634649-2.5664047-8.0878789z" fill="#e8b089"/><g><path d="m198.1616858 460.7951686c13.5809485 15.7698446 40.9265878-56.2895002-19.576759-89.5332045-31.2889458-17.1917839-97.4565838-7.0702788-111.6082105 53.2283907s39.4034124 68.7943099 65.0395601 55.6308431c25.6361476-13.1634668 22.0033689-40.3338589 22.0033689-40.3338589s26.0155143-.0402219 44.1420405 21.0078296z" fill="#fb5657"/><path d="m175.0006704 471.067915c-8.5530609 3.6720245-26.5209591-2.5797677-23.2961851-13.0842064 0 0-.001864-.0024306-.0019197-.00243-2.7317738 7.7442301-8.3388421 16.3132802-19.6862737 22.1399347-4.7193361 2.4232231-10.3860507 4.108946-16.4010723 4.8763077 6.1547666 8.8234688 16.541103 17.9733963 32.8648542 16.9192987 30.7681876-1.9869047 35.0736599-34.5207064 26.5205966-30.8489047z" fill="#d13b42"/><path d="m66.9767387 424.49036c6.7942046-28.9495626 25.5793906-46.3274247 46.7367681-54.6758006l.0014018-.003106c-10.0151686-3.1792855-10.3141152-19.4131531-33.6053904-20.3737471-31.2485328-1.2887725-50.2490301 39.4830313-46.8342801 69.293849 2.8844919 25.1814994 20.4876168 31.9971774 31.755585 31.0958057-.8529591-7.175459-.3455767-15.5731413 1.9459154-25.3370009z" fill="#fb5657"/><path d="m43.6113281 419.0068359c-1.6810303 7.1630859-2.5737305 13.7451172-2.8577881 19.7905273 6.8973389 8.9208984 16.9320679 11.6176758 24.2772827 11.0297852-.8529663-7.175293-.3455811-15.5727539 1.9459229-25.3369141 6.7941895-28.9492188 25.5794067-46.3271484 46.7367554-54.6757812l.0014038-.0029297c-7.4925537-2.378418-9.5494385-12.0620117-19.8615112-17.1923828-3.0789185 1.644043-6.0714111 3.421875-8.9403076 5.3574219-20.9702148 14.1494141-35.2519531 35.2529297-41.3017578 61.0302734z" fill="#d13b42"/></g><path d="m97.1522217 252.6098633 49.5100098 16.050293-.7799683-52.5703125-13.4800415-5.8198242c-9.0324707-3.9067383-15.7145386-11.4868164-18.635498-20.5415039-7.5229492 5.3300781-15.4942017 11.6201172-23.9830322 18.9169922-10.5917358 9.1044922-20.039856 18.1464844-27.0338135 25.1201172 9.9873657 8.2119141 21.5767822 14.6831055 34.4023438 18.8442383z" fill="#ffb600"/><path d="m465.1500244 281.7597656c-7.9100342 25.2900391-45.3599854 68.6201172-209.1500244 68.6201172s-201.2399902-43.3300781-209.1500244-68.6201172c-2.789978-8.8896484 3.4900513-18.0400391 12.8000488-18.5498047l8.4499512-.4697266s65.8000488-71.7900391 101.2300415-71.7900391 58.7399902 13.0498047 86.6699829 13.0498047 51.2399902-13.0498047 86.6699829-13.0498047 101.2300415 71.7900391 101.2300415 71.7900391l8.4499512.4697266c9.3099365.5097656 15.5899658 9.6601562 12.8000488 18.5498047z" fill="#fb5657"/><path d="m458.6629639 265.0693359c-16.6876221 24.7651367-65.1378174 55.3129883-202.6629639 55.3129883-137.5250244 0-185.9754028-30.5478516-202.6629639-55.3129883-5.565918 3.2055664-8.5792236 10.0195312-6.4907227 16.6948242 7.9108276 25.2851562 45.3616333 68.6181641 209.1536865 68.6181641s201.2429199-43.3330078 209.1536865-68.6181641c2.088501-6.675293-.9248047-13.4892578-6.4907227-16.6948242z" fill="#d13b42"/><path d="m313.8383142 460.7951686c-13.5809485 15.7698446-40.9265878-56.2895002 19.576759-89.5332045 31.2889458-17.1917839 97.4565838-7.0702788 111.6082105 53.2283907s-39.4034124 68.7943099-65.0395601 55.6308431c-25.6361476-13.1634668-22.0033689-40.3338589-22.0033689-40.3338589s-26.0155143-.0402219-44.1420405 21.0078296z" fill="#fb5657"/><path d="m336.9993296 471.067915c8.5530609 3.6720245 26.5209591-2.5797677 23.2961851-13.0842064 0 0 .001864-.0024306.0019197-.00243 2.7317738 7.7442301 8.3388421 16.3132802 19.6862737 22.1399347 4.7193361 2.4232231 10.3860507 4.108946 16.4010723 4.8763077-6.1547666 8.8234688-16.541103 17.9733963-32.8648542 16.9192987-30.7681876-1.9869047-35.0736599-34.5207064-26.5205966-30.8489047z" fill="#d13b42"/><path d="m445.0232613 424.49036c-6.7942046-28.9495626-25.5793906-46.3274247-46.7367681-54.6758006l-.0014018-.003106c10.0151686-3.1792855 10.3141152-19.4131531 33.6053904-20.3737471 31.2485328-1.2887725 50.2490301 39.4830313 46.8342801 69.293849-2.8844919 25.1814994-20.4876168 31.9971774-31.755585 31.0958057.8529591-7.175459.3455767-15.5731413-1.9459154-25.3370009z" fill="#fb5657"/><g fill="#2a4d74"><path d="m228.0546875 327.1044922c-3.9016275-6.9167783-14.0678025-1.6447702-10.6483973 5.5332947-.0000402-.0000916 10.5058191 20.2167053 10.5058191 20.2167053 3.9276211 6.9346906 14.0657578 1.6159138 10.6483929-5.5332895.0000446.0000863-10.5058148-20.2167105-10.5058148-20.2167105z"/><path d="m292.0361328 324.546875c-2.9414062-1.5273438-6.5629883-.3837891-8.0908203 2.5576172l-10.5058594 20.2167969c-1.527832 2.9404297-.3828125 6.5625 2.5576172 8.0908203 2.8802388 1.5127789 6.5555994.4121694 8.0908185-2.5576289.0000018.0000117 10.5058612-20.2167851 10.5058612-20.2167851 1.527832-2.9404297.3828125-6.5625-2.5576172-8.0908203z"/></g><path d="m465.2915039 310.0483398c-2.3579102-.5893555-4.4831543-1.0932617-6.3968506-1.4921875l-.0001221.0004883c-.739502 5.3061523-2.2319336 11.7890625-5.1225586 18.9790039 10.0588379 5.0717773 21.4007568 11.6469727 27.557373 15.8144531 4.2700195 2.8901367 7.7685547 11.3676758 10.6275635 21.7016602 6.0450439-43.2949219-7.6375732-50.246582-26.6654053-55.003418z" fill="#fb5657"/><path d="m501.7644043 416.2958984c-2.8088379-15.0649414-8.7216797-65.0170898-20.4350586-72.9458008-6.1566162-4.1674805-17.4985352-10.7426758-27.557373-15.8144531h-.0001221c-2.8314209 7.0429688-7.0163574 14.7543945-13.1280518 22.6772461 24.1138916 5.3535156 38.9306641 36.6230469 38.4631348 62.6108398l2.2224121 3.472168s23.2441406 15.0649414 20.4350586 0z" fill="#fb5657"/><path d="m46.7085036 310.0483399c2.3579102-.5893555 4.4831543-1.0932617 6.3968506-1.4921875l.0001221.0004883c.739502 5.3061523 2.2319336 11.7890625 5.1225586 18.9790039-10.0588379 5.0717773-21.4007568 11.6469727-27.557373 15.8144531-4.2700195 2.8901367-7.7685547 11.3676758-10.6275635 21.7016602-6.0450439-43.2949219 7.6375732-50.246582 26.6654053-55.003418z" fill="#fb5657"/><path d="m23.9443359 333.4130859c-1.6858521 1.1411133-3.2820435 2.5224609-4.8168335 4.3369141-.8897705 6.9921875-.680542 15.8701172.9155884 27.3017578 2.8590088-10.3339844 6.3575439-18.8115234 10.6275635-21.7016602 6.1566162-4.1674805 17.4985352-10.7426758 27.557373-15.8144531-1.6574707-4.1225586-2.8435669-8.0019531-3.7032471-11.5708008l-1.6990967.8564453c-10.0869141 5.0849609-21.9638672 11.9082031-28.8813477 16.5917969z" fill="#d13b42"/><path d="m10.2356032 416.2958984c2.8088379-15.0649414 8.7216797-65.0170898 20.4350586-72.9458008 6.1566162-4.1674805 17.4985352-10.7426758 27.557373-15.8144531h.0001221c2.8314209 7.0429687 7.0163574 14.7543945 13.1280518 22.6772461-24.1138916 5.3535156-38.9306641 36.6230469-38.4631348 62.6108398l-2.2224121 3.472168s-23.2441406 15.0649414-20.4350586 0z" fill="#fb5657"/><g fill="#d13b42"><path d="m41.4477539 355.2314453c-14.5898438 16.3574219-22.6650391 42.4248047-20.0942383 64.8652344.0406494.3549805.0953979.6962891.1410522 1.046875 4.7536011-1.9819336 9.1760864-4.8476562 9.1760864-4.8476562l2.2224121-3.472168c-.4675293-25.987793 14.3492432-57.2573242 38.4631348-62.6108398-2.7399902-3.5517578-5.0736694-7.0566406-7.0907593-10.4824219-8.382019 2.7700195-16.1148071 7.9863281-22.817688 15.5009766z"/><path d="m468.3886793 419.0068359c1.6810303 7.1630859 2.5737305 13.7451172 2.8577881 19.7905273-6.8973389 8.9208984-16.9320679 11.6176758-24.2772827 11.0297852.8529663-7.175293.3455811-15.5727539-1.9459229-25.3369141-6.7941895-28.9492188-25.5794067-46.3271484-46.7367554-54.6757813l-.0014038-.0029297c7.4925537-2.378418 9.5494385-12.0620117 19.8615112-17.1923828 3.0789185 1.644043 6.0714111 3.421875 8.9403076 5.3574219 20.9702148 14.1494141 35.2519531 35.2529297 41.3017578 61.0302734z"/><path d="m488.0556715 333.4130859c1.6858521 1.1411133 3.2820435 2.5224609 4.8168335 4.3369141.8897705 6.9921875.680542 15.8701172-.9155884 27.3017578-2.8590088-10.3339844-6.3575439-18.8115234-10.6275635-21.7016602-6.1566162-4.1674805-17.4985352-10.7426758-27.557373-15.8144531 1.6574707-4.1225586 2.8435669-8.0019531 3.7032471-11.5708008l1.6990967.8564453c10.0869141 5.0849609 21.9638672 11.9082031 28.8813477 16.5917969z"/><path d="m470.5522536 355.2314453c14.5898437 16.3574219 22.6650391 42.4248047 20.0942383 64.8652344-.0406494.3549805-.0953979.6962891-.1410522 1.046875-4.7536011-1.9819336-9.1760864-4.8476563-9.1760864-4.8476563l-2.2224121-3.472168c.4675293-25.987793-14.3492432-57.2573242-38.4631348-62.6108398 2.7399902-3.5517578 5.0736694-7.0566406 7.0907593-10.4824219 8.382019 2.7700195 16.1148071 7.9863281 22.817688 15.5009766z"/></g></g></svg>