<svg id="Layer_1" height="512" viewBox="0 0 64 64" width="512" xmlns="http://www.w3.org/2000/svg" data-name="Layer 1"><path d="m42 28v24c-2.71 0-2.71-2-5.43-2-2.71 0-2.71 2-5.42 2-2.72 0-2.72-2-5.43-2a4.008 4.008 0 0 0 -2.72 1.01 4.0668 4.0668 0 0 1 -2.7.99c-2.72 0-2.72-2-5.43-2-2.72 0-2.72 2-5.44 2-2.71 0-2.71-2-5.43-2v-24c2.72 0 2.72 2 5.43 2 2.72 0 2.72-2 5.44-2 2.71 0 2.71 2 5.43 2a4.0668 4.0668 0 0 0 2.7-.99 4.008 4.008 0 0 1 2.72-1.01c2.71 0 2.71 2 5.43 2 2.71 0 2.71-2 5.42-2 2.72 0 2.72 2 5.43 2z" fill="#317e3d"/><path d="m42 28v24c-2.71 0-2.71-2-5.43-2-2.71 0-2.71 2-5.42 2-2.72 0-2.72-2-5.43-2a4.008 4.008 0 0 0 -2.72 1.01v-24a4.008 4.008 0 0 1 2.72-1.01c2.71 0 2.71 2 5.43 2 2.71 0 2.71-2 5.42-2 2.72 0 2.72 2 5.43 2z" fill="#1e5f30"/><path d="m60 14v24c-2.71 0-2.71-2-5.43-2-2.71 0-2.71 2-5.42 2-2.72 0-2.72-2-5.43-2a3.7519 3.7519 0 0 0 -1.72.37v-8.37a4.247 4.247 0 0 1 -1-.11c-1.76-.42-2.09-1.89-4.43-1.89-2.71 0-2.71 2-5.42 2-2.72 0-2.72-2-5.43-2-1.98 0-2.52 1.07-3.72 1.64v-15.64c2.72 0 2.72 2 5.43 2 2.72 0 2.72-2 5.44-2 2.71 0 2.71 2 5.43 2a4.0668 4.0668 0 0 0 2.7-.99 4.008 4.008 0 0 1 2.72-1.01c2.71 0 2.71 2 5.43 2 2.71 0 2.71-2 5.42-2 2.72 0 2.72 2 5.43 2z" fill="#42a047"/><path d="m60 14v24c-2.71 0-2.71-2-5.43-2-2.71 0-2.71 2-5.42 2-2.72 0-2.72-2-5.43-2a3.7519 3.7519 0 0 0 -1.72.37v-8.37a4.247 4.247 0 0 1 -1-.11v-14.88a4.008 4.008 0 0 1 2.72-1.01c2.71 0 2.71 2 5.43 2 2.71 0 2.71-2 5.42-2 2.72 0 2.72 2 5.43 2z" fill="#378e43"/><path d="m15.87 38a1.0029 1.0029 0 0 1 -1 1 3.0918 3.0918 0 0 0 -2.13.81 5.0279 5.0279 0 0 1 -3.31 1.19 5.0725 5.0725 0 0 1 -3.31-1.19 3.0473 3.0473 0 0 0 -2.12-.81v-2a5.0279 5.0279 0 0 1 3.31 1.19 3.0473 3.0473 0 0 0 2.12.81 3.0918 3.0918 0 0 0 2.13-.81 5.0279 5.0279 0 0 1 3.31-1.19 1.0029 1.0029 0 0 1 1 1z" fill="#42a047"/><g fill="#378e43"><path d="m20.2954 47a5.0244 5.0244 0 0 1 -3.3076-1.1948 3.0713 3.0713 0 0 0 -2.1216-.8052 1 1 0 0 1 0-2 5.0248 5.0248 0 0 1 3.3081 1.1948 3.1946 3.1946 0 0 0 4.24.0005 5.0157 5.0157 0 0 1 3.3057-1.1953 1 1 0 1 1 0 2 3.0664 3.0664 0 0 0 -2.1191.8047 5.016 5.016 0 0 1 -3.3055 1.1953z"/><path d="m42 45v2a5.05 5.05 0 0 1 -3.31-1.19 3.0473 3.0473 0 0 0 -2.12-.81 1 1 0 1 1 0-2 4.9754 4.9754 0 0 1 3.31 1.2 3.0876 3.0876 0 0 0 2.12.8z"/><path d="m31.1479 35a5.0231 5.0231 0 0 1 -3.3071-1.1948 3.1938 3.1938 0 0 0 -4.24-.0005 5.016 5.016 0 0 1 -3.3054 1.1953 1 1 0 0 1 0-2 3.0664 3.0664 0 0 0 2.1192-.8047 5.1714 5.1714 0 0 1 6.6127-.0005 3.07 3.07 0 0 0 2.1206.8052 1 1 0 0 1 0 2z"/></g><path d="m60 33a5.05 5.05 0 0 1 -3.31-1.19 3.0473 3.0473 0 0 0 -2.12-.81 1 1 0 1 1 0-2 4.9754 4.9754 0 0 1 3.31 1.2 3.0876 3.0876 0 0 0 2.12.8z" fill="#66bb6a"/><path d="m49.1479 21a5.0231 5.0231 0 0 1 -3.3071-1.1948 3.1938 3.1938 0 0 0 -4.24 0 5.016 5.016 0 0 1 -3.3054 1.1948 1 1 0 0 1 0-2 3.0664 3.0664 0 0 0 2.1192-.8047 5.1714 5.1714 0 0 1 6.6127 0 3.07 3.07 0 0 0 2.1206.8047 1 1 0 0 1 0 2z" fill="#66bb6a"/></svg>