<svg id="Layer_1" height="512" viewBox="0 0 96 96" width="512" xmlns="http://www.w3.org/2000/svg" data-name="Layer 1"><path d="m84.384 27.018c-.47-3.3-3.73-.87-6.76-2.27s-2.61-2.3-5.64-3.7-3.45-.48-6.48-1.88-2.6-2.3-5.63-3.7c-2.82-1.3-3.37-.59-5.9-1.63a7.975 7.975 0 0 0 -.565-1.034c-1.81-2.8-3.755.771-7.091.771s-3.336-1-6.672-1-3.334 1-6.667 1-3.331-1-6.661-1-3.333 1-6.665 1-5.279-3.571-7.084-.771c-2.8 4.345.92 5.44.92 10.609s-1 5.169-1 10.338 1 5.166 1 10.331-1 5.167-1 10.334 1 5.166 1 10.331-3.722 6.262-.92 10.6c1.81 2.8 3.756-.771 7.092-.771s3.336 1 6.672 1 3.333-1 6.667-1 3.331 1 6.661 1a11.02 11.02 0 0 0 1.91-.146c1.434.959 1.707 1.748 4.063 2.846 3.02 1.39 3.44.48 6.47 1.88s3.3 5.45 6.11 3.66c4.36-2.77 2.26-4.55 3.57-9.93 1.23-5.02 3.1-4.36 5.27-9.06s1.25-5.11 3.41-9.8 3.07-4.28 5.24-8.97 1.25-5.11 3.41-9.8 6-4.128 5.27-9.238z" fill="#406525"/><path d="m41.554 75.428h.01c1.44.96 1.71 1.75 4.07 2.85 3.02 1.39 3.44.48 6.47 1.88s3.3 5.45 6.11 3.66c4.36-2.77 2.26-4.55 3.57-9.93 1.23-5.02 3.1-4.36 5.27-9.06s1.25-5.11 3.41-9.8 3.07-4.28 5.24-8.97 1.25-5.11 3.41-9.8 6-4.13 5.27-9.24c-.47-3.3-3.73-.87-6.76-2.27s-2.61-2.3-5.64-3.7-3.45-.48-6.48-1.88-2.6-2.3-5.63-3.7c-2.82-1.3-3.37-.59-5.9-1.63" fill="#405125"/><path d="m57.193 38.483a1 1 0 0 1 -.958-1.288 28.094 28.094 0 0 1 3.816-7.929 1 1 0 1 1 1.649 1.139 26.059 26.059 0 0 0 -3.544 7.366 1 1 0 0 1 -.963.712z" fill="#406525"/><path d="m63.442 53.075a1 1 0 0 1 -.754-1.657 20.7 20.7 0 0 0 3.982-6.946 1 1 0 1 1 1.9.636 22.7 22.7 0 0 1 -4.37 7.624 1 1 0 0 1 -.758.343z" fill="#406525"/><path d="m52.759 66.96a1 1 0 0 1 -.8-1.593q1.665-2.262 3.351-4.522l1.81-2.441a1 1 0 1 1 1.604 1.196l-1.813 2.441q-1.677 2.258-3.347 4.516a1 1 0 0 1 -.805.403z" fill="#406525"/><path d="m53.41 75.349c-1.8 2.8-3.752-.771-7.084-.771s-3.332 1-6.665 1-3.33-1-6.661-1-3.334 1-6.667 1-3.336-1-6.672-1-5.282 3.573-7.092.771c-2.8-4.337.92-5.435.92-10.6s-1-5.165-1-10.331 1-5.167 1-10.334-1-5.165-1-10.331 1-5.169 1-10.338-3.72-6.264-.92-10.609c1.8-2.8 3.752.771 7.084.771s3.332-1 6.665-1 3.33 1 6.661 1 3.333-1 6.667-1 3.336 1 6.672 1 5.281-3.573 7.091-.771c2.8 4.337-.92 5.435-.92 10.6s1 5.165 1 10.331-1 5.167-1 10.334 1 5.165 1 10.331-1.975 5.359-.99 10.433c1.054 5.435 3.711 6.165.911 10.514z" fill="#405625"/><g fill="#406525"><path d="m23.824 34.659a1.016 1.016 0 0 1 -.237-.028 1 1 0 0 1 -.735-1.208 16.466 16.466 0 0 0 .709-5.726 16.533 16.533 0 0 0 -1.3-4.172 1 1 0 1 1 1.849-.758 17.954 17.954 0 0 1 1.437 4.692 18.246 18.246 0 0 1 -.747 6.441 1 1 0 0 1 -.976.759z"/><path d="m44 45.57a1 1 0 0 1 -.995-.914 30.451 30.451 0 0 1 1.145-11.211 1 1 0 1 1 1.916.571 28.426 28.426 0 0 0 -1.066 10.468 1 1 0 0 1 -.91 1.082.857.857 0 0 1 -.09.004z"/><path d="m32.548 53.146a1 1 0 0 1 -.911-1.41 12.584 12.584 0 0 0 -.071-10.315 1 1 0 0 1 1.815-.842 14.613 14.613 0 0 1 .08 11.976 1 1 0 0 1 -.913.591z"/><path d="m27.26 70.7a1 1 0 0 1 -1-.921l-.622-7.879a1 1 0 1 1 1.994-.159l.626 7.885a1 1 0 0 1 -.918 1.074z"/></g></svg>