<svg id="Capa_1" enable-background="new 0 0 512 512" height="512" viewBox="0 0 512 512" width="512" xmlns="http://www.w3.org/2000/svg"><g><path d="m170.915 161.143 25.463 44.561 134.122-41.913-151.473-15.147c-6.779-.679-11.493 6.584-8.112 12.499z" fill="#fbbd80"/><path d="m170.915 350.857 25.463-44.561 134.122 41.913-151.473 15.147c-6.779.678-11.493-6.584-8.112-12.499z" fill="#f4aa73"/><path d="m112.551 280.503-.4-49.073-102.526-15.203c-6.398-.949-11.415 5.4-9.013 11.405l11.347 28.368-11.347 28.367c-2.402 6.006 2.615 12.354 9.013 11.405z" fill="#f4aa73"/><path d="m503.399 243.563c-48.671-49.685-111.993-79.772-181.282-79.772-97.487 0-190.534 48.709-234.095 75.32-9.194 5.617-19.795 8.507-30.57 8.507l-3.833 9.576c10.774 0 21.375 2.89 30.57 8.507 43.561 26.611 136.608 75.32 234.095 75.32 72.366 0 138.224-32.82 187.68-86.508z" fill="#ffd18d"/><path d="m411.085 302.78c-2.456 0-4.887-1.072-6.549-3.135-9.905-12.345-15.357-27.845-15.357-43.645 0-15.799 5.452-31.3 15.357-43.645 2.914-3.61 8.178-4.191 11.788-1.289 3.61 2.894 4.191 8.17 1.293 11.784-7.638 9.516-11.673 20.977-11.673 33.15s4.036 23.634 11.673 33.15c2.898 3.614 2.317 8.89-1.293 11.784-1.547 1.244-3.405 1.846-5.239 1.846z" fill="#fbbd80"/><path d="m447.858 256c-4.633 0-8.383-3.753-8.383-8.383v-8.383c0-4.629 3.749-8.383 8.383-8.383s8.383 3.753 8.383 8.383v8.383c-.001 4.63-3.75 8.383-8.383 8.383z" fill="#f4aa73"/><g fill="#fbbd80"><path d="m169.077 281.84c-2.014 0-4.036-.72-5.64-2.182-3.422-3.111-3.676-8.415-.565-11.841l59.645-65.612c3.127-3.426 8.432-3.672 11.845-.561 3.422 3.111 3.676 8.415.565 11.841l-59.645 65.612c-1.654 1.818-3.929 2.743-6.205 2.743z"/><path d="m204.76 297.913c-2.014 0-4.036-.72-5.64-2.182-3.422-3.111-3.676-8.415-.565-11.841l83.827-92.209c3.119-3.426 8.432-3.663 11.845-.561 3.422 3.111 3.676 8.415.565 11.841l-83.827 92.209c-1.653 1.818-3.929 2.743-6.205 2.743z"/><path d="m255.056 297.913c-2.014 0-4.036-.72-5.64-2.182-3.422-3.111-3.676-8.415-.565-11.841l83.827-92.209c3.119-3.426 8.432-3.663 11.845-.561 3.422 3.111 3.676 8.415.565 11.841l-83.827 92.209c-1.653 1.818-3.929 2.743-6.205 2.743z"/><path d="m313.317 289.15c-2.014 0-4.036-.72-5.64-2.182-3.422-3.115-3.676-8.415-.565-11.841l67.716-74.482c3.119-3.426 8.432-3.667 11.845-.561 3.422 3.115 3.676 8.415.565 11.841l-67.716 74.482c-1.653 1.818-3.929 2.743-6.205 2.743z"/></g><path d="m342.653 272.765h-73.209c-4.771 0-6.878 6.007-3.153 8.988l18.114 14.491c7.66 6.128 18.183 7.242 26.956 2.856l33.548-16.774c4.764-2.382 3.069-9.561-2.256-9.561z" fill="#f4aa73"/><path d="m37.107 256c0 4.629 3.749 8.383 8.383 8.383h11.963c10.774 0 21.375 2.89 30.569 8.506 43.561 26.611 136.608 75.32 234.095 75.32 72.366 0 138.224-32.82 187.68-86.508 2.937-3.189 2.937-8.214 0-11.402-2.123-2.305-4.215-4.509-6.398-6.736l-1.505 1.86c-48.806 55.478-112.626 86.02-179.777 86.02-92.316 0-180.817-45.65-225.358-72.865-11.747-7.171-25.344-10.961-39.31-10.961h-11.959c-4.634 0-8.383 3.754-8.383 8.383z" fill="#fbbd80"/></g></svg>