<svg id="Capa_1" enable-background="new 0 0 512 512" height="512" viewBox="0 0 512 512" width="512" xmlns="http://www.w3.org/2000/svg"><g><g><g><g><path d="m177.93 79.901 78.07 136.165-78.07 171.934c-14.04 0-28.08-.32-34.04-.95-34.8-2.81-64.36-12.09-87.87-27.59-22.28-14.7-38.83-35.14-47.85-59.11-10.42-27.7-10.88-59.44-1.34-91.8 9.42-31.93 28.23-63.04 54.42-89.98 22.217-20.771 43.85-43.312 57.32-70.27h37.399c0 .001 19.374 31.656 21.961 31.601z" fill="#8c4d4d"/></g><path d="m347.65 300.44c-9.05 23.98-25.63 44.42-47.93 59.11-23.51 15.48-53.04 24.73-87.76 27.5-5.96.63-19.99.95-34.03.95v-308.1l22.65-35.769 35.6 1.869c.01.04.03.08.05.12 13.23 27.64 35.19 50.78 57.83 71.92.19.17.38.35.56.54 26.25 27.04 45.09 58.22 54.47 90.17 9.5 32.31 9 64.021-1.44 91.69z" fill="#733333"/><path d="m177.93.061 22.65 32.019-22.65 47.821c-7.93.17-15.89-2.06-22.76-6.68l-36.6-24.92c5.47-10.97 9.59-22.65 11.82-35.21 1.35-7.58 7.97-13.15 15.65-13.09z" fill="#24b383"/><path d="m236.18 46-37.04 27.22c-6.42 4.32-13.8 6.55-21.21 6.68v-79.839h.03l31.86-.061h.03c7.69 0 14.28 5.52 15.63 13.09 2.07 11.681 5.78 22.62 10.7 32.91z" fill="#19805d"/></g></g><g><g><path d="m344.892 169.065 58.929 184.268-58.929 137.436c-12.334 0-24.668-.268-29.376-.804-134.415-10.725-148.259-133.323-65.713-218.213 29.823-27.856 58.672-59.973 66.269-102.746 9.614.019 19.207.039 28.82.059z" fill="#ffeee6"/></g><path d="m374.288 489.964c-4.707.536-17.052.804-29.396.804v-321.703h.01c9.603-.02 19.216-.04 28.83-.06 7.587 42.773 36.437 74.889 66.269 102.746 82.983 85.485 68.047 207.676-65.713 218.213z" fill="#ffccb3"/><g><g><g><g><path d="m344.892 229.177 42.364 121.003-42.364 100.358c-10.398 0-20.785-.179-24.708-.536-.06-.01-.129-.01-.189-.02-.407-.04-.814-.079-1.281-.119-39.843-3.188-66.815-18.442-76.041-42.991-.07-.149-.119-.318-.179-.477-10.567-31.62 2.632-71.036 35.295-105.437.179-.199.378-.387.576-.566 12.374-11.589 28.422-27.39 42.822-46.814 4.36-5.899 8.402-11.907 12.016-17.866 2.453-4.341 7.071-6.515 11.689-6.535z" fill="#ff884d"/></g></g></g></g><path d="m447.37 406.375c-.05.179-.119.348-.189.536-9.266 24.549-36.228 39.813-75.922 42.941-.07.01-.139.01-.218.02-.348.02-.695.06-1.043.099-.109.01-.208.02-.308.03-3.933.358-14.34.536-24.748.536h-.05v-221.36c4.658-.01 9.315 2.165 11.778 6.535 3.615 5.969 7.657 11.977 12.026 17.866 14.36 19.385 30.419 35.205 42.803 46.814.208.179.397.377.586.586 33.03 34.947 45.891 73.37 35.285 105.397z" fill="#ff4d4d"/><circle cx="306.273" cy="373.97" fill="#ff4d4d" r="15"/><circle cx="383.734" cy="373.97" fill="#cc2929" r="15"/><g><g><path d="m326.91 177.576 17.985.04 17.654-16.155-17.654-13.638-29.872-.06c-7.21-.06-13.427 5.164-14.688 12.295-7.19 40.449-35.195 71.255-64.392 98.515-.179.159-.347.328-.516.497-24.579 25.284-42.246 54.501-51.085 84.473-8.958 30.379-8.521 60.182 1.261 86.181 8.461 22.504 23.993 41.69 44.918 55.484 22.067 14.549 49.824 23.268 82.487 25.9 5.581.596 18.73.894 31.888.894l14.901-17.035-14.901-12.748c-12.255 0-24.49-.248-28.8-.735-.159-.02-.328-.04-.497-.05-52.326-4.181-88.594-26.267-102.12-62.198-15.601-41.472 1.311-96.052 43.07-139.143 28.631-26.764 58.752-59.596 70.361-102.517z" fill="#99665c"/></g></g><path d="m504.287 429.802c-8.491 22.514-24.053 41.7-44.997 55.494-22.067 14.529-49.784 23.219-82.377 25.82-5.601.586-18.77.884-31.948.884h-.069v-29.783c12.295 0 24.609-.248 28.929-.735.179-.02.348-.04.516-.05 52.257-4.121 88.505-26.188 102.07-62.148 7.498-19.862 7.726-43.09.645-67.163-7.418-25.264-22.523-50.161-43.676-72.029-28.631-26.764-58.761-59.596-70.361-102.517l-18.025.04h-.099v-29.793h.099l29.902-.06h.03c7.22 0 13.407 5.174 14.668 12.295 7.19 40.449 35.195 71.255 64.392 98.515.179.159.348.338.516.507 24.649 25.393 42.336 54.66 51.144 84.651 8.91 30.33 8.443 60.093-1.359 86.072z" fill="#8c4d4d"/><g><path d="m344.885 307.329 9.678 15-9.678 15c-8.29-.01-14.99-6.71-14.99-15 0-8.28 6.7-14.99 14.99-15z" fill="#ff4d4d"/><path d="m359.895 322.329c0 8.29-6.72 15-15 15h-.01v-30h.01c8.28 0 15 6.72 15 15z" fill="#cc2929"/></g></g></g></svg>