<svg height="512" viewBox="0 0 512 512" width="512" xmlns="http://www.w3.org/2000/svg"><g id="flat_copy" data-name="flat copy"><circle cx="304" cy="176" fill="#c62828" r="16"/><circle cx="168" cy="56" fill="#2e7d32" r="16"/><path d="m392 72v8a40.015 40.015 0 0 1 -40 40v-8a40 40 0 0 1 40-40z" fill="#2e7d32"/><path d="m206.27 122.78a34.239 34.239 0 0 1 13.48 46.51l-6.64 12.05-5.04-2.77a34.251 34.251 0 0 1 -13.48-46.52l6.64-12.05z" fill="#2e7d32"/><path d="m171.52 321.93 2.82 7.48a39.97 39.97 0 0 1 -51.52-23.35l-2.82-7.49a40 40 0 0 1 51.52 23.36z" fill="#2e7d32"/><path d="m328 344a24.006 24.006 0 0 1 24 24c0 16-24 24-24 24s-24-10.75-24-24a24.006 24.006 0 0 1 24-24z" fill="#7e57c2"/><path d="m240 274.36c-5.87 2.84-14.44 3.64-24 3.64-17.67 0-32-2.75-32-16s14.33-24 32-24a39.05 39.05 0 0 1 19.55 5.01 19.235 19.235 0 0 0 -3.55 10.99c0 8.41 5.77 12.59 14.49 14.51a13.791 13.791 0 0 1 -6.49 5.85z" fill="#bdbdbd"/><path d="m78.08 336.96a16 16 0 1 1 -19.05 12.21 16 16 0 0 1 19.05-12.21z" fill="#388e3c"/><path d="m96.4 365.53a16 16 0 1 1 -19.05 12.21 16 16 0 0 1 19.05-12.21z" fill="#388e3c"/><path d="m124.24 388a16 16 0 1 1 -19.04 12.21 15.994 15.994 0 0 1 19.04-12.21z" fill="#388e3c"/><path d="m69.28 302.28a16 16 0 1 1 -19.05 12.21 16.016 16.016 0 0 1 19.05-12.21z" fill="#388e3c"/><path d="m80 144 8 72a16 16 0 0 1 -32 0l-8-72a23.993 23.993 0 0 1 40-17.88 23.927 23.927 0 0 0 -8 17.88z" fill="#c62828"/><path d="m128 144-8 72a16 16 0 0 1 -32 0l-8-72a24 24 0 0 1 48 0z" fill="#c62828"/><path d="m160 144-8 72a16 16 0 0 1 -32 0l8-72a23.927 23.927 0 0 0 -8-17.88 23.993 23.993 0 0 1 40 17.88z" fill="#c62828"/><path d="m408 304h-16c-6.11 0-11.63-72-16-72a32 32 0 1 1 8.03-62.98c-.01-.34-.03-.68-.03-1.02a32 32 0 0 1 64 0 32 32 0 0 1 0 64c-7.97 0-11.79 72-24 72z" fill="#a5d6a7"/><path d="m471.35 336a237.109 237.109 0 0 1 -15.47 32 240.532 240.532 0 0 1 -137.06 109.38 16.064 16.064 0 0 1 -20.33-11.41v-.01a16.068 16.068 0 0 1 10.93-19.22 206.778 206.778 0 0 0 50.58-23.55 209.19 209.19 0 0 0 69.88-74.37 205.5 205.5 0 0 0 14.96-33.57q2.985-8.67 5.19-17.68c1.94-7.91 21.97-17.57 21.97-17.57s9.45 13.11 9.45 22.47a11.064 11.064 0 0 1 -.3 2.68 236.6 236.6 0 0 1 -9.8 30.85z" fill="#388e3c"/><path d="m272 96c8.84 0 16-10.75 16-24s-7.16-24-16-24v-17.56a31.063 31.063 0 0 1 18.67-6.44c20.62 0 37.33 21.49 37.33 48s-16.71 48-37.33 48a31.063 31.063 0 0 1 -18.67-6.44z" fill="#fbc02d"/><ellipse cx="272" cy="72" fill="#f57f17" rx="16" ry="24"/><path d="m264 230c17.67 0 32 10.75 32 24s-14.33 16-32 16a83.169 83.169 0 0 1 -17.51-1.49c-8.72-1.92-14.49-6.1-14.49-14.51a19.235 19.235 0 0 1 3.55-10.99 25.376 25.376 0 0 1 5.08-5.41l14.16-6.59h.01a41.636 41.636 0 0 1 9.2-1.01z" fill="#bdbdbd"/><path d="m256 72c0 13.25 7.16 24 16 24v17.56a31.063 31.063 0 0 1 -18.67 6.44c-20.62 0-37.33-21.49-37.33-48s16.71-48 37.33-48a31.063 31.063 0 0 1 18.67 6.44v17.56c-8.84 0-16 10.75-16 24z" fill="#fbc02d"/><path d="m233.21 392.02a47.815 47.815 0 1 1 -1.21-.02c.4 0 .81 0 1.21.02z" fill="#f57f17"/><path d="m248 326 16-56v3.16a95.3 95.3 0 0 1 -16 52.84z" fill="#fff"/><path d="m256 226a10.064 10.064 0 0 1 -1.2 5.01h-.01a34.992 34.992 0 0 0 -14.16 6.59 81.193 81.193 0 0 1 -8.63.4c-13.25 0-24-2.06-24-12s10.75-18 24-18 24 8.06 24 18z" fill="#bdbdbd"/><path d="m254.79 231.01-14.16 6.59a34.992 34.992 0 0 1 14.16-6.59z" fill="#fff"/><path d="m232 246c-8.808 0-15.152-.908-19.97-2.856-7.758-3.144-12.03-9.228-12.03-17.144 0-14.58 14.056-26 32-26a38.677 38.677 0 0 1 12.409 2 8 8 0 1 1 -5.123 15.158 22.7 22.7 0 0 0 -7.286-1.158c-9.429 0-16 5.27-16 10 0 .992 0 1.489 2.032 2.312 2.808 1.136 7.377 1.688 13.968 1.688a72.741 72.741 0 0 0 7.769-.354 8 8 0 0 1 1.722 15.908 88.483 88.483 0 0 1 -9.491.446z" fill="#efefef"/><path d="m254.792 239.011a8 8 0 0 1 -6.968-11.918 2.35 2.35 0 0 0 .176-1.093c0-3.526-3.5-7.078-8.714-8.84a8 8 0 0 1 5.123-15.16c11.9 4.023 19.591 13.443 19.591 24a17.986 17.986 0 0 1 -2.225 8.926 7.994 7.994 0 0 1 -6.983 4.085z" fill="#8d8d8d"/><path d="m88 134.12a7.972 7.972 0 0 1 -5.337-2.043 15.993 15.993 0 0 0 -18.467-2.046 8 8 0 0 1 -7.832-13.952 31.992 31.992 0 0 1 36.979 4.085 8 8 0 0 1 -5.343 13.956z" fill="#8e0000"/><path d="m72 240a24.028 24.028 0 0 1 -23.995-23.513l-7.956-71.6a8.137 8.137 0 0 1 -.049-.887 32.059 32.059 0 0 1 16.362-27.921 8 8 0 1 1 7.83 13.953 16.045 16.045 0 0 0 -8.187 13.57l7.946 71.515a8.137 8.137 0 0 1 .049.883 8.009 8.009 0 0 0 8 8 8 8 0 0 1 0 16z" fill="#ff5f52"/><path d="m72 240a8 8 0 0 1 0-16 8.009 8.009 0 0 0 8-8 8 8 0 0 1 16 0 24.027 24.027 0 0 1 -24 24z" fill="#8e0000"/><path d="m136 240a24.027 24.027 0 0 1 -24-24 8 8 0 0 1 16 0 8.009 8.009 0 0 0 8 8 8 8 0 0 1 0 16z" fill="#ff5f52"/><path d="m136 240a8 8 0 0 1 0-16 8.009 8.009 0 0 0 8-8 8.137 8.137 0 0 1 .049-.883l7.951-71.517a15.986 15.986 0 0 0 -9.772-14.347 8 8 0 0 1 6.234-14.735 31.955 31.955 0 0 1 19.538 29.482 8.137 8.137 0 0 1 -.049.883l-7.951 71.604a24.028 24.028 0 0 1 -24 23.513z" fill="#8e0000"/><path d="m120 134.12a8 8 0 0 1 -5.343-13.956 32 32 0 0 1 33.8-5.645 8 8 0 0 1 -6.234 14.735 16.007 16.007 0 0 0 -16.883 2.823 7.972 7.972 0 0 1 -5.34 2.043z" fill="#ff5f52"/><path d="m104 128a8 8 0 0 1 -8-8v-8a32.036 32.036 0 0 1 32-32 8 8 0 0 1 0 16 16.019 16.019 0 0 0 -16 16v8a8 8 0 0 1 -8 8z" fill="#00701a"/><path d="m327.993 400a7.974 7.974 0 0 1 -3.264-.7c-4.796-2.148-28.729-13.756-28.729-31.3a32.036 32.036 0 0 1 32-32 8 8 0 0 1 0 16 16.019 16.019 0 0 0 -16 16c0 3.785 7.918 11.576 19.28 16.7a8 8 0 0 1 -3.287 15.3z" fill="#b085f5"/><path d="m328 400a8 8 0 0 1 -2.529-15.591c4.793-1.623 18.529-8.14 18.529-16.409a16.019 16.019 0 0 0 -16-16 8 8 0 0 1 0-16 32.036 32.036 0 0 1 32 32c0 6.515-2.7 16.082-15.562 24.656a64.889 64.889 0 0 1 -13.908 6.933 7.992 7.992 0 0 1 -2.53.411z" fill="#4d2c91"/><path d="m328 352a8 8 0 0 1 -6.657-3.562 136.23 136.23 0 0 0 -37.782-37.782 8 8 0 1 1 8.876-13.312 152.691 152.691 0 0 1 23.2 19.019q3.933 3.935 7.58 8.16a59.449 59.449 0 0 1 29.824-33.988l3.38-1.69a8 8 0 1 1 7.156 14.31l-3.38 1.69a43.538 43.538 0 0 0 -24.197 39.155 8 8 0 0 1 -8 8z" fill="#76d275"/><path d="m328 352a8 8 0 0 1 -8-8v-11.16a87.006 87.006 0 0 0 -14.657-48.4 8 8 0 1 1 13.314-8.874 102.961 102.961 0 0 1 17.343 57.274v11.16a8 8 0 0 1 -8 8z" fill="#76d275"/><path d="m216 286c-13.55 0-28.4-1.313-35.843-11.055a8 8 0 1 1 12.717-9.71c1.66 2.174 7.02 4.765 23.126 4.765 9.854 0 16.564-.93 20.516-2.841 2.2-1.062 2.73-2.064 2.905-2.393a8 8 0 1 1 14.139 7.488 21.645 21.645 0 0 1 -10.082 9.31c-6.338 3.067-14.815 4.436-27.478 4.436z" fill="#8d8d8d"/><path d="m186.521 278.09a7.987 7.987 0 0 1 -6.363-3.144 20.8 20.8 0 0 1 -4.158-12.946c0-17.645 17.944-32 40-32a46.867 46.867 0 0 1 23.571 6.094 8 8 0 1 1 -8.043 13.832 31.306 31.306 0 0 0 -15.528-3.926c-13.01 0-24 7.327-24 16a4.937 4.937 0 0 0 .873 3.234 8 8 0 0 1 -6.352 12.856z" fill="#efefef"/><path d="m235.973 271.689a7.966 7.966 0 0 1 -5.423-2.121 20.574 20.574 0 0 1 -6.55-15.568 27.313 27.313 0 0 1 4.965-15.533 33.344 33.344 0 0 1 6.664-7.111 43.082 43.082 0 0 1 17.408-8.152c.061-.014.121-.026.182-.038a49.7 49.7 0 0 1 10.781-1.166c10.266 0 20.006 3.065 27.427 8.631a8 8 0 0 1 -9.6 12.8c-4.6-3.452-11.1-5.431-17.825-5.431a33.654 33.654 0 0 0 -7.432.812l-.179.039a26.946 26.946 0 0 0 -10.768 5 17.353 17.353 0 0 0 -3.477 3.688 11.262 11.262 0 0 0 -2.146 6.461c0 2.213.673 3.139 1.4 3.81a8 8 0 0 1 -5.426 13.879z" fill="#efefef"/><path d="m264 278a88.8 88.8 0 0 1 -19.249-1.682c-6.076-1.338-10.728-3.546-14.2-6.748a8 8 0 0 1 10.849-11.762c.9.832 2.819 2.009 6.813 2.889a75.018 75.018 0 0 0 15.787 1.303c24 0 24-5.606 24-8 0-5.167-3.868-8.839-6.174-10.569a8 8 0 1 1 9.6-12.8c7.991 5.993 12.574 14.511 12.574 23.369 0 24-30.106 24-40 24z" fill="#8d8d8d"/><path d="m224 334a8 8 0 0 1 -7.588-5.471l-.412-1.229a155.515 155.515 0 0 1 -8-49.3 8 8 0 0 1 16 0 139.541 139.541 0 0 0 7.179 44.239l.41 1.23a8.006 8.006 0 0 1 -7.589 10.531z" fill="#8d8d8d"/><path d="m247.992 334a8 8 0 0 1 -6.649-12.438 87.006 87.006 0 0 0 14.657-48.402v-3.16a8 8 0 0 1 16 0v3.16a102.961 102.961 0 0 1 -17.343 57.277 7.993 7.993 0 0 1 -6.665 3.563z" fill="#8d8d8d"/><path d="m240 310a8 8 0 0 1 -8-8v-32a8 8 0 0 1 16 0v32a8 8 0 0 1 -8 8z" fill="#8d8d8d"/><path d="m232 496a56 56 0 0 1 0-112 8 8 0 0 1 0 16 40 40 0 0 0 0 80 8 8 0 0 1 0 16z" fill="#ffb04c"/><path d="m232 496a8 8 0 0 1 0-16 40 40 0 0 0 1.013-79.982l-.2-.008c-.268-.014-.54-.01-.811-.01a8 8 0 0 1 0-16c.5 0 1 0 1.5.025a56 56 0 0 1 -1.502 111.975z" fill="#bc5100"/><path d="m232 424a8 8 0 0 1 -8-8v-12.22a65.923 65.923 0 0 1 36.421-58.935 8 8 0 0 1 7.158 14.31 49.924 49.924 0 0 0 -27.579 44.625v12.22a8 8 0 0 1 -8 8z" fill="#5f4339"/><path d="m290.67 128a39.128 39.128 0 0 1 -23.449-8.024 8 8 0 1 1 9.558-12.831 22.949 22.949 0 0 0 13.891 4.855c16.173 0 29.33-17.944 29.33-40s-13.157-40-29.33-40a22.949 22.949 0 0 0 -13.891 4.855 8 8 0 1 1 -9.558-12.831 39.128 39.128 0 0 1 23.449-8.024c25 0 45.33 25.122 45.33 56s-20.335 56-45.33 56z" fill="#c88719"/><path d="m253.33 128c-25 0-45.33-25.122-45.33-56s20.335-56 45.33-56a39.128 39.128 0 0 1 23.449 8.024 8 8 0 1 1 -9.558 12.831 22.949 22.949 0 0 0 -13.891-4.855c-16.173 0-29.33 17.944-29.33 40s13.157 40 29.33 40a22.949 22.949 0 0 0 13.891-4.855 8 8 0 1 1 9.558 12.831 39.128 39.128 0 0 1 -23.449 8.024z" fill="#ffe97d"/><path d="m272 104a8 8 0 0 1 0-16c3.262 0 8-6.233 8-16s-4.738-16-8-16a8 8 0 0 1 0-16c13.458 0 24 14.056 24 32s-10.542 32-24 32z" fill="#bc5100"/><path d="m272 104c-13.458 0-24-14.056-24-32s10.542-32 24-32a8 8 0 0 1 0 16c-3.262 0-8 6.233-8 16s4.738 16 8 16a8 8 0 0 1 0 16z" fill="#ffe97d"/><g fill="#bc5100"><path d="m264 30.44h16v17.56h-16z"/><path d="m286.343 44h11.314v16h-11.314z" transform="matrix(.707 -.707 .707 .707 48.763 221.716)"/><path d="m288 72h16v16h-16z"/><path d="m240 72h16v16h-16z"/><path d="m244 46.343h16v11.314h-16z" transform="matrix(.707 -.707 .707 .707 37.04 193.421)"/><path d="m264 96h16v16h-16z"/></g><path d="m298.484 473.962a8 8 0 0 1 -7.755-6.066 24.1 24.1 0 0 1 16.325-28.8 198.824 198.824 0 0 0 48.623-22.64 201.582 201.582 0 0 0 67.211-71.525 198.122 198.122 0 0 0 14.383-32.273c1.9-5.514 3.576-11.227 4.99-17 2.56-10.445 19.22-19.474 26.263-22.871a8 8 0 0 1 6.952 14.412c-8.085 3.911-16.472 9.793-17.71 12.408-1.522 6.191-3.326 12.327-5.362 18.24a213.935 213.935 0 0 1 -15.538 34.863 217.609 217.609 0 0 1 -72.549 77.208 214.777 214.777 0 0 1 -52.531 24.457 8.094 8.094 0 0 0 -5.534 9.642 8.007 8.007 0 0 1 -7.768 9.938z" fill="#76d275"/><path d="m314.092 486.087a24.179 24.179 0 0 1 -11.857-3.1 23.8 23.8 0 0 1 -11.5-15.074 8 8 0 1 1 15.565-3.713 7.933 7.933 0 0 0 3.795 4.855 8.047 8.047 0 0 0 6.376.682 231.975 231.975 0 0 0 156.908-166.484 3.251 3.251 0 0 0 .071-.783c0-4.635-4.646-13.2-7.945-17.8a8 8 0 0 1 12.984-9.348c1.831 2.539 10.961 15.781 10.961 27.148a19.057 19.057 0 0 1 -.539 4.62 248.273 248.273 0 0 1 -167.734 177.935 24.086 24.086 0 0 1 -7.085 1.062z" fill="#00701a"/><path d="m448.008 328a7.989 7.989 0 0 1 -6.668-3.57l-15.995-23.992a8 8 0 1 1 13.31-8.878l16.005 24.008a8 8 0 0 1 -6.652 12.432z" fill="#76d275"/><path d="m432.008 360a7.992 7.992 0 0 1 -6.664-3.563l-16-24a8 8 0 1 1 13.312-8.876l16 24a8 8 0 0 1 -6.648 12.439z" fill="#76d275"/><path d="m488 344h-32a8 8 0 0 1 0-16h32a8 8 0 0 1 0 16z" fill="#00701a"/><path d="m472 376h-32a8 8 0 0 1 0-16h32a8 8 0 0 1 0 16z" fill="#00701a"/><path d="m360 432a8 8 0 0 1 -8-8v-24a8 8 0 0 1 16 0v24a8 8 0 0 1 -8 8z" fill="#76d275"/><path d="m65.419 373.662a7.959 7.959 0 0 1 -4.611-1.468 24 24 0 1 1 31.31-36.075 8 8 0 0 1 -11.642 10.974 8 8 0 1 0 -10.432 12.035 8 8 0 0 1 -4.625 14.534z" fill="#76d275"/><path d="m74.662 376.592a24.052 24.052 0 0 1 -13.855-4.4 8 8 0 0 1 9.238-13.064 8 8 0 0 0 10.43-12.036 8 8 0 0 1 11.644-10.974 24 24 0 0 1 -17.457 40.473z" fill="#00701a"/><path d="m81.867 400.68a7.969 7.969 0 0 1 -5.558-2.247 24 24 0 0 1 30.525-36.874 8 8 0 1 1 -9.234 13.063 8.005 8.005 0 0 0 -10.168 12.306 8 8 0 0 1 -5.561 13.752z" fill="#76d275"/><path d="m93.03 405.168a24.222 24.222 0 0 1 -5.18-.563 23.923 23.923 0 0 1 -11.54-6.171 8 8 0 0 1 11.117-11.507 8 8 0 1 0 10.173-12.306 8 8 0 0 1 9.24-13.061 24.008 24.008 0 0 1 -13.8 43.608z" fill="#00701a"/><path d="m108.982 422.38a7.975 7.975 0 0 1 -5.93-2.629 24 24 0 0 1 31.623-35.73 8 8 0 1 1 -9.233 13.067 8 8 0 0 0 -12.425 4.825 8.024 8.024 0 0 0 1.892 7.1 8 8 0 0 1 -5.927 13.371z" fill="#76d275"/><path d="m120.877 427.638a24.213 24.213 0 0 1 -5.179-.563 23.845 23.845 0 0 1 -12.647-7.325 8 8 0 1 1 11.859-10.739 8 8 0 1 0 10.533-11.922 8 8 0 1 1 9.231-13.069 24.013 24.013 0 0 1 -13.8 43.618z" fill="#00701a"/><path d="m53.453 336a7.982 7.982 0 0 1 -6.215-2.958 24 24 0 1 1 37.465-30 8 8 0 0 1 -12.564 9.907 8 8 0 1 0 -12.481 10.006 8 8 0 0 1 -6.205 13.045z" fill="#76d275"/><path d="m65.918 341.918a24.1 24.1 0 0 1 -18.68-8.872 8 8 0 1 1 12.42-10.087 8 8 0 0 0 12.481-10.006 8 8 0 0 1 12.561-9.907 24.006 24.006 0 0 1 -18.785 38.872z" fill="#00701a"/><path d="m154.785 443.622a8.032 8.032 0 0 1 -2.145-.293l-15.63-4.341a143.366 143.366 0 0 1 -101.675-168.7 8 8 0 0 1 15.631 3.418 127.358 127.358 0 0 0 90.324 149.865l15.631 4.341a8 8 0 0 1 -2.136 15.71z" fill="#a5d6a7"/><path d="m352 128a8 8 0 0 1 0-16 32.015 32.015 0 0 0 32-32v-8a8 8 0 0 1 16 0v8a48.012 48.012 0 0 1 -48 48z" fill="#00701a"/><path d="m352 128a8 8 0 0 1 -8-8v-8a48.054 48.054 0 0 1 48-48 8 8 0 0 1 0 16 32.036 32.036 0 0 0 -32 32v8a8 8 0 0 1 -8 8z" fill="#76d275"/><path d="m160.26 339.98a48.224 48.224 0 0 1 -44.928-31.105l-2.819-7.486a8 8 0 1 1 14.974-5.638l2.821 7.49a32.148 32.148 0 0 0 29.952 20.739 31.784 31.784 0 0 0 11.257-2.055 8 8 0 0 1 5.646 14.971 47.748 47.748 0 0 1 -16.903 3.084z" fill="#00701a"/><path d="m174.341 337.412a8 8 0 0 1 -7.487-5.18l-2.82-7.48a31.994 31.994 0 0 0 -41.217-18.694 8 8 0 0 1 -5.633-14.976 48 48 0 0 1 61.823 28.031l2.818 7.475a8 8 0 0 1 -7.484 10.824z" fill="#76d275"/><path d="m213.1 189.341a7.974 7.974 0 0 1 -3.847-.99l-5.04-2.77a42.311 42.311 0 0 1 -16.636-57.389l6.643-12.053a8 8 0 0 1 14.013 7.722l-6.64 12.05a26.286 26.286 0 0 0 10.334 35.652l5.033 2.766a8 8 0 0 1 -3.86 15.012z" fill="#76d275"/><path d="m213.1 189.341a8 8 0 0 1 -7-11.862l6.639-12.05a26.237 26.237 0 0 0 -10.331-35.64l-5.046-2.784a8 8 0 0 1 7.738-14.005l5.039 2.78a42.239 42.239 0 0 1 16.624 57.374l-6.646 12.046a8 8 0 0 1 -7.017 4.141z" fill="#00701a"/><path d="m157.15 75.764a7.968 7.968 0 0 1 -5.421-2.12 24 24 0 1 1 40.271-17.644 8 8 0 0 1 -16 0 8 8 0 0 0 -16 0 7.919 7.919 0 0 0 2.576 5.883 8 8 0 0 1 -5.426 13.881z" fill="#76d275"/><path d="m168 80a23.929 23.929 0 0 1 -16.272-6.356 8 8 0 1 1 10.849-11.76 8 8 0 0 0 13.423-5.884 8 8 0 0 1 16 0 24.028 24.028 0 0 1 -24 24z" fill="#00701a"/><path d="m292.685 195.315a7.975 7.975 0 0 1 -5.658-2.344 24 24 0 0 1 33.945-33.943 8 8 0 1 1 -11.313 11.314 8 8 0 0 0 -11.317 11.317 8 8 0 0 1 -5.657 13.656z" fill="#ff5f52"/><path d="m304 200a23.847 23.847 0 0 1 -16.972-7.028 8 8 0 1 1 11.313-11.314 8 8 0 0 0 11.317-11.317 8 8 0 0 1 11.315-11.312 24 24 0 0 1 -16.973 40.971z" fill="#8e0000"/><path d="m448 176a8 8 0 0 1 -8-8 24.027 24.027 0 0 0 -24-24 8 8 0 0 1 0-16 40.045 40.045 0 0 1 40 40 8 8 0 0 1 -8 8z" fill="#00701a"/><path d="m480 208a8 8 0 0 1 -8-8 24.027 24.027 0 0 0 -24-24 8 8 0 0 1 0-16 40.045 40.045 0 0 1 40 40 8 8 0 0 1 -8 8z" fill="#76d275"/><path d="m448 240a8 8 0 0 1 0-16 24.027 24.027 0 0 0 24-24 8 8 0 0 1 16 0 40.045 40.045 0 0 1 -40 40z" fill="#00701a"/><path d="m424 312h-16a8 8 0 0 1 0-16h13.9c3.269-5.448 6.908-24.594 8.925-35.209 4.654-24.491 6.99-36.791 17.175-36.791a8 8 0 0 1 4.279 14.76c-1.758 4.085-4.037 16.069-5.737 25.018-5.321 27.995-9.166 48.222-22.542 48.222z" fill="#00701a"/><path d="m408 312h-16c-8.744 0-10.827-10.309-12.666-19.4-1.6-7.909-3.109-18.085-4.57-27.926-1.464-9.862-3.427-23.092-4.737-27.348a8 8 0 0 1 5.973-13.326c7.953 0 9.591 8.554 11.035 16.1 1.147 5.99 2.317 13.874 3.556 22.219 1.54 10.375 3.961 26.689 5.925 33.679h11.484a8 8 0 0 1 0 16z" fill="#76d275"/><path d="m376 240a40.013 40.013 0 0 1 -36.651-56.038 8 8 0 1 1 14.651 6.421 24.015 24.015 0 0 0 22 33.617 8 8 0 0 1 0 16z" fill="#76d275"/><path d="m346.672 195.174a8 8 0 0 1 -7.323-11.213 40.045 40.045 0 0 1 42.2-23.578 8.006 8.006 0 0 1 10.451 7.617c0 .129.007.258.013.387l.013.38a8 8 0 0 1 -10.013 7.994 24.032 24.032 0 0 0 -28.013 13.622 8 8 0 0 1 -7.328 4.791z" fill="#76d275"/><path d="m384 176a8 8 0 0 1 -8-8 40.045 40.045 0 0 1 40-40 8 8 0 0 1 0 16 24.027 24.027 0 0 0 -24 24 8 8 0 0 1 -8 8z" fill="#76d275"/><path d="m408 312a8 8 0 0 1 -8-8v-39.34c0-14.116.515-28.5 1.53-42.739 1.337-18.483 3.55-37.064 6.578-55.236a8 8 0 0 1 15.784 2.63c-2.948 17.685-5.1 35.77-6.4 53.752-.992 13.859-1.492 27.855-1.492 41.593v39.34a8 8 0 0 1 -8 8z" fill="#00701a"/><path d="m408 232a8 8 0 0 1 -5.657-13.657l12.691-12.69a46.941 46.941 0 0 1 32.966-13.653 8 8 0 0 1 0 16 30.83 30.83 0 0 0 -21.652 8.966l-12.691 12.691a7.974 7.974 0 0 1 -5.657 2.343z" fill="#00701a"/><path d="m408 240a8 8 0 0 1 -7.588-5.471 42.824 42.824 0 0 0 -26.942-26.942 8 8 0 0 1 5.062-15.178 58.9 58.9 0 0 1 37.058 37.058 8.006 8.006 0 0 1 -7.59 10.533z" fill="#00701a"/><path d="m104 240a8 8 0 0 1 0-16 8.009 8.009 0 0 0 8-8 8.137 8.137 0 0 1 .049-.883l7.951-71.517a16.016 16.016 0 0 0 -16-15.6 8 8 0 0 1 0-16 32.017 32.017 0 0 1 32 32 8.137 8.137 0 0 1 -.049.883l-7.951 71.604a24.028 24.028 0 0 1 -24 23.513z" fill="#8e0000"/><path d="m104 240a24.028 24.028 0 0 1 -24-23.513l-7.956-71.6a8.137 8.137 0 0 1 -.044-.887 32.016 32.016 0 0 1 32-32 8 8 0 0 1 0 16 16.016 16.016 0 0 0 -16 15.6l7.946 71.515a8.137 8.137 0 0 1 .054.885 8.009 8.009 0 0 0 8 8 8 8 0 0 1 0 16z" fill="#ff5f52"/></g></svg>