<svg id="color" viewBox="0 0 256 256" xmlns="http://www.w3.org/2000/svg"><path d="m154.5608 184.9822c-6.4011-1.3056-15.0515 1.0151-23.1316 4.2725l-2.3868.9748c-8.6991 3.2329-17.4518 7.6931-21.48 13.4093 0 0 6.467 8.8122 27.4891.4671s19.5093-19.1237 19.5093-19.1237z" fill="#fa5b00"/><path d="m153.0715 187.122c-6.4616.9625-13.7966 6.1018-20.2753 11.9264l-1.91 1.7323c-7.0688 6.0132-13.7682 13.198-15.598 19.9471 0 0 9.0909 6.0689 25.9911-8.9629s11.7922-24.6429 11.7922-24.6429z" fill="#f77900"/><path d="m161.6687 137.2037 11.9253-9.6784c3.7248-3.3082 12.1729.2615 15.4811 3.9862a9.045 9.045 0 0 1 -.7556 12.7547c-.0474.0421-24.8578 26.6522-24.8578 26.6522l17.4188 19.6125c16.29-5.9837 35.5436-13.07 35.6754-13.1872a52.5765 52.5765 0 0 0 4.3918-74.14c-19.2295-21.6511-50.72-26.2195-76.36-6.84l-6.1828 6.6734z" fill="#f56900"/><g fill="#f99631"><path d="m172.0425 132.0961c3.1458-5.91 10.0176-4.2045 12.4676-3.3014l6.1938-46.8593a54.6321 54.6321 0 0 0 -43.3925 8.3186l-2.7775 1.9135z"/><path d="m204.5156 86.9408c-.4476-.1935-14.4568 48.15-14.4568 48.15s47.4609 3.3585 47.4679 2.889a54.0438 54.0438 0 0 0 -11.4514-34.325 54.9884 54.9884 0 0 0 -21.5597-16.714z"/><path d="m170.181 160.245-23.565 24.516 9.98 14.898 38.019-11.987z"/><path d="m186.4653 143.1246s-.0652.06-.0957.0922l-9.2826 9.9564 26.4459 30.5989s24.3719-7 31.2659-32.4158a3.084 3.084 0 0 0 -.2256-1.3584z"/></g><path d="m155.3836 185.2914c-5.7428 3.1145-10.8777 10.4526-14.9736 18.1417l-1.2018 2.2809c-4.5858 8.0683-8.4238 17.1111-7.835 24.079 0 0 10.6184 2.5936 21.3581-17.3118s2.6523-27.1898 2.6523-27.1898z" fill="#fa5b00"/><path d="m156.3914 185.4343c-4.3312 4.8908-6.6466 13.5426-7.8657 22.1689l-.3492 2.5544c-1.55 9.15-2.0635 18.96.873 25.3066 0 0 10.8651-1.1945 14.1491-23.5727s-6.8072-26.4572-6.8072-26.4572z" fill="#f77900"/><path d="m92.0288 132.3474c5.6661-3.0809 14.5027-3.3878 23.0715-2.6457l2.5347.231c9.1461.54 18.6971 2.2236 24.15 6.457 0 0-3.5607 10.1866-25.8165 8.3785s-23.9397-12.4208-23.9397-12.4208z" fill="#fa5b00"/><path d="m94.0528 133.9375c6.378-.9572 14.7867 1.7767 22.5849 5.4047l2.3028 1.0841c8.41 3.6357 16.809 8.4842 20.4853 14.3274 0 0-6.83 8.3544-27.1252-.9566s-18.2478-19.8596-18.2478-19.8596z" fill="#f77900"/><path d="m78.764 67.489a9.4049 9.4049 0 0 0 -9.1068 14.8054c.0388.0536 19.2784 32.6959 19.2784 32.6959l-22.1263 16.0227c-15.2182-9.7508-33.201-21.29-33.3087-21.4385a54.6745 54.6745 0 0 1 58.8694-84.7728z" fill="#f56900"/><path d="m83.3092 73.5058a6.8143 6.8143 0 0 0 -7.2173-2.5851 1.878 1.878 0 0 1 -1.5154-.7534 1.7577 1.7577 0 0 1 -.2958-1.3967l10.2313-48.1516a57.222 57.222 0 0 1 26.8579 10.41z" fill="#f99631"/><path d="m66.09 20.358c.4987-.096 3.8637 52.2154 3.8637 52.2154s-49.0167-7.2664-48.9182-7.7454a56.2838 56.2838 0 0 1 19.37-32.3261 57.2685 57.2685 0 0 1 25.6845-12.1439z" fill="#f99631"/><path d="m84.505 102.625 17.908 31.005-13.609 9.609-35.317-18.224z" fill="#f99631"/><path d="m71.8 81.551s.0528.0757.0766.1152l7.1978 12.2138-33.778 25.1626s-23.2073-12.6035-24.4973-39.9991a3.2108 3.2108 0 0 1 .5351-1.3306z" fill="#f99631"/><path d="m91.5164 133.7026c6.1385 1.9786 12.4546 8.1662 17.8264 14.8832l1.5807 1.9949c5.9161 6.9959 11.2836 15.0734 11.9783 21.9418 0 0-9.8324 4.4463-23.871-12.9178s-7.5144-25.9021-7.5144-25.9021z" fill="#fa5b00"/><path d="m90.5644 134.0244c5.0915 3.9588 8.91 11.9335 11.661 20.0827l.803 2.4152c3.1666 8.5974 5.4477 18.0235 3.7514 24.7153 0 0-10.76.8153-18.0133-20.3031s1.7979-26.9101 1.7979-26.9101z" fill="#f77900"/></svg>