<svg id="Layer_3" height="512" viewBox="0 0 64 64" width="512" xmlns="http://www.w3.org/2000/svg" data-name="Layer 3"><g fill="#5d9d4d"><path d="m8 51 4.265-.711a21.3 21.3 0 0 1 3.494-.289 24.756 24.756 0 0 1 11.741 2.959l3.1 1.671a19.84 19.84 0 0 0 9.4 2.37l-6.592 3.3a16.137 16.137 0 0 1 -7.219 1.7 16.139 16.139 0 0 1 -12-5.344l-2.689-2.994a11.817 11.817 0 0 0 -3.5-2.662z"/><path d="m14 42a19.527 19.527 0 0 1 7.255 3.531l2.251 1.752a15.69 15.69 0 0 0 7.894 3.206 15.687 15.687 0 0 0 8.742-1.559l1.858-.93-2.754-.551a10.1 10.1 0 0 1 -4.078-1.823 23.128 23.128 0 0 0 -13.878-4.626 23.111 23.111 0 0 0 -4.536.449z"/><path d="m20 34a20.963 20.963 0 0 1 8.982 4.185l1.985 1.589a14.726 14.726 0 0 0 9.198 3.226 14.716 14.716 0 0 0 5.468-1.053l2.367-.947a23.276 23.276 0 0 1 -9.124-4l-3.321-2.415a13.513 13.513 0 0 0 -7.955-2.585 13.515 13.515 0 0 0 -5.021.967z"/><path d="m28 27a17.075 17.075 0 0 1 7.1 3.715 17.32 17.32 0 0 0 11.407 4.285h5.493a20.21 20.21 0 0 0 -16.817-9 22.03 22.03 0 0 0 -4.324.428z"/><path d="m37 20 4.655-1.035a40.589 40.589 0 0 1 8.795-.965 25.715 25.715 0 0 1 5.05.5 25.715 25.715 0 0 0 5.05.5h1.45l-2.3 1.968a16.747 16.747 0 0 1 -10.9 4.032 14.99 14.99 0 0 1 -8.713-2.792z"/><path d="m7 51 .329-.548a18.744 18.744 0 0 0 2.671-9.644 18.544 18.544 0 0 0 -1.5-7.308 18.544 18.544 0 0 1 -1.5-7.308v-2.192l-2.612 4.7a18.982 18.982 0 0 0 -2.388 9.218 18.979 18.979 0 0 0 3.535 11.031z"/><path d="m14 41-.784-1.829a27.413 27.413 0 0 1 -2.216-10.797 27.429 27.429 0 0 1 .818-6.647l2.182-8.727a24.649 24.649 0 0 0 1.265 7.8l.618 1.854a21.761 21.761 0 0 1 1.117 6.878 21.775 21.775 0 0 1 -1.76 8.575z"/><path d="m22 31a18.256 18.256 0 0 1 -4-11.4 20.2 20.2 0 0 1 2.88-10.4l3.12-5.2-.686 2.745a10.479 10.479 0 0 0 -.314 2.549 10.519 10.519 0 0 0 .539 3.324l.43 1.29a20.072 20.072 0 0 1 1.031 6.351 20.083 20.083 0 0 1 -2.12 8.981z"/><path d="m28 26-1.269-3.643a13.126 13.126 0 0 1 -.731-4.319 13.129 13.129 0 0 1 3.37-8.783l5.63-6.255a27.968 27.968 0 0 0 -2 10.385 16.092 16.092 0 0 1 -2.446 8.528z"/><path d="m37 19v-7.292a10.855 10.855 0 0 1 6-9.708v.779a24.937 24.937 0 0 1 -6 16.221z"/></g><path d="m18.083 54.643a13.949 13.949 0 0 0 9.076 3.357 77.951 77.951 0 0 0 9.645-.6l3.196-.4a19.84 19.84 0 0 1 -9.4-2.37l-3.1-1.671a24.756 24.756 0 0 0 -11.741-2.959 21.3 21.3 0 0 0 -3.494.289l-4.265.711 2.979.426a13.946 13.946 0 0 1 7.104 3.217z" fill="#7eba62"/><path d="m26.5 45a17.863 17.863 0 0 0 9.908 3h5.592l-2.754-.551a10.1 10.1 0 0 1 -4.078-1.823 23.128 23.128 0 0 0 -13.878-4.626 23.111 23.111 0 0 0 -4.536.449l-2.754.551h2.592a17.863 17.863 0 0 1 9.908 3z" fill="#7eba62"/><path d="m33.5 37.5a16.619 16.619 0 0 0 10.2 3.5h4.3a23.276 23.276 0 0 1 -9.124-4l-3.321-2.415a13.517 13.517 0 0 0 -12.972-1.619l-2.583 1.034h3.3a16.619 16.619 0 0 1 10.2 3.5z" fill="#7eba62"/><path d="m41.049 30.892a19.115 19.115 0 0 0 6.47 2.988l4.481 1.12a20.21 20.21 0 0 0 -16.817-9 22.03 22.03 0 0 0 -4.324.428l-2.859.572 4.055.451a19.1 19.1 0 0 1 8.994 3.441z" fill="#7eba62"/><path d="m47.422 21a53.455 53.455 0 0 0 12.959-1.595l1.619-.405h-1.451a25.713 25.713 0 0 1 -5.049-.5 25.713 25.713 0 0 0 -5.049-.5 40.576 40.576 0 0 0 -8.8.965l-4.651 1.035 1.638.273a53.413 53.413 0 0 0 8.784.727z" fill="#7eba62"/><path d="m8.5 33.5a18.544 18.544 0 0 1 -1.5-7.308v-2.192l-.028.138a50.126 50.126 0 0 0 -.972 9.821 36.723 36.723 0 0 0 .5 6.041 36.723 36.723 0 0 1 .5 6.041v4.959l.329-.548a18.744 18.744 0 0 0 2.671-9.644 18.544 18.544 0 0 0 -1.5-7.308z" fill="#7eba62"/><path d="m15.883 22.649-.618-1.849a24.649 24.649 0 0 1 -1.265-7.8l-.557 5.574q-.443 4.426-.443 8.874a89.1 89.1 0 0 0 .689 11.061l.311 2.491 1.24-2.893a21.775 21.775 0 0 0 1.76-8.575 21.761 21.761 0 0 0 -1.117-6.883z" fill="#7eba62"/><path d="m23.969 13.908-.43-1.29a10.512 10.512 0 0 1 -.225-5.873l.686-2.745-.31.826a42.255 42.255 0 0 0 -2.432 19.5l.742 6.674.88-1.76a20.081 20.081 0 0 0 1.089-15.332z" fill="#7eba62"/><path d="m28 25.207v.793l2.554-4.087a16.083 16.083 0 0 0 2.446-8.528 27.968 27.968 0 0 1 2-10.385 38.727 38.727 0 0 0 -7 22.207z" fill="#7eba62"/><path d="m37.144 17.56-.144 1.44a24.937 24.937 0 0 0 6-16.221v-.779a32.3 32.3 0 0 0 -5.856 15.56z" fill="#7eba62"/><path d="m1.917 63.4-1.834-.8a102.225 102.225 0 0 1 41.438-47.279l1.964-1.178 7.015-4.011.992 1.736-8.945 5.168a100.245 100.245 0 0 0 -40.63 46.364z" fill="#5d9d4d"/><path d="m44 15a13.343 13.343 0 0 1 5.079-8.059 22.716 22.716 0 0 1 8.7-4l4.221-.941-2.165 2.165a7.274 7.274 0 0 0 -1.363 1.891 16.181 16.181 0 0 1 -14.472 8.944z" fill="#5d9d4d"/><path d="m44.845 14.05-.845.95a16.181 16.181 0 0 0 14.472-8.944 7.274 7.274 0 0 1 1.363-1.891l2.165-2.165a45.612 45.612 0 0 0 -17.155 12.05z" fill="#7eba62"/></svg>