<svg id="color" viewBox="0 0 256 256" xmlns="http://www.w3.org/2000/svg"><g fill="#3c3f42"><path d="m140.4648 85.2555.6489-21.5182 9.6613.2911-.3576 11.857a9.6659 9.6659 0 0 1 -9.9526 9.3701z"/><path d="m42.3527 89.9547a38.42 38.42 0 0 0 -7.3039 6.0689c8.6814-1.83 18.7129 2.68 24.59 11.8364s5.8 20.1549.52 27.2857a38.4181 38.4181 0 0 0 8.5594-4.113c14.3522-9.212 16.015-23.2633 8.7342-34.6067s-20.7475-15.6833-35.0997-6.4713z"/><path d="m129.6312 56.0426c-7.2808-11.3434-23.5623-13.8771-36.3657-5.6592 10.8463 6.1508 14.1491 16.6647 12.7737 20.8017z"/></g><path d="m173.4434 34.8142c4.7577 7.4125-13.0542 27.33-39.7842 44.4865s-60.3951 30.28-65.1529 22.8678 21.1937-32.5541 47.9237-49.7109 52.2556-25.0559 57.0134-17.6434z" fill="#90adb3"/><path d="m136.0577 41.3665a28.0322 28.0322 0 0 0 15.8592 24.7084c16.0033-13.1584 25.0876-25.7125 21.5265-31.2607s-18.7581-2.5174-37.3857 6.5523z" fill="#a68e7c"/><circle cx="150.244" cy="48.316" fill="#281d19" r="3.534"/><path d="m150.2534 53.2269a4.9593 4.9593 0 0 1 -1.0559-.1144 4.909 4.909 0 1 1 5.1774-7.4481 4.9113 4.9113 0 0 1 -4.1215 7.5625zm-.0131-7.0692a2.1586 2.1586 0 1 0 1.82.9923 2.1453 2.1453 0 0 0 -1.8203-.9923z" fill="#281d19"/><path d="m200.9922 108.4728.9466-21.5072 9.6563.4248-.5216 11.8509a9.6659 9.6659 0 0 1 -10.0813 9.2315z" fill="#3c3f42"/><path d="m102.8245 111.8139a38.4168 38.4168 0 0 0 -7.3872 5.9673c8.7059-1.7095 18.6741 2.9385 24.424 12.1755s5.52 20.2332.1429 27.29a38.42 38.42 0 0 0 8.6154-3.9942c14.4783-9.0125 16.3354-23.04 9.2123-34.4825s-20.5291-15.9686-35.0074-6.9561z" fill="#3c3f42"/><path d="m190.5638 79.1127c-7.1231-11.4427-23.3679-14.2017-36.2838-6.1617 10.76 6.3 13.9172 16.8588 12.4847 20.9764z" fill="#3c3f42"/><path d="m234.6656 58.4926c4.6544 7.4774-13.4311 27.1466-40.3956 43.9318s-60.8083 29.4416-65.4631 21.964 21.6421-32.2577 48.6069-49.0429 52.5971-24.3305 57.2518-16.8529z" fill="#90adb3"/><path d="m197.1929 64.527a28.0322 28.0322 0 0 0 15.5157 24.9255c16.1839-12.9357 25.4411-25.3629 21.957-30.96s-18.7214-2.7766-37.4727 6.0345z" fill="#a68e7c"/><circle cx="211.281" cy="71.672" fill="#281d19" r="3.534"/><path d="m211.2908 76.5831a4.9434 4.9434 0 0 1 -1.122-.13 4.909 4.909 0 1 1 5.28-7.3753 4.9114 4.9114 0 0 1 -4.158 7.505zm-.0132-7.0692a2.1586 2.1586 0 1 0 1.8364 1.0176 2.1593 2.1593 0 0 0 -1.8364-1.0176z" fill="#281d19"/><path d="m125.3285 127.2282 5.4213-20.8343 9.3542 2.4338-2.9872 11.48a9.666 9.666 0 0 1 -11.7883 6.9205z" fill="#68686a"/><path d="m28.6309 109.9761a38.4192 38.4192 0 0 0 -8.4713 4.2914c8.871.148 17.6474 6.7769 21.3395 17.0118s1.169 20.94-5.5645 26.7173a38.4234 38.4234 0 0 0 9.26-2.1051c16.0423-5.7872 20.79-19.1161 16.2164-31.7953s-16.7378-19.9072-32.7801-14.1201z" fill="#68686a"/><path d="m121.2675 96.3369c-4.574-12.6792-19.8833-18.7725-34.1945-13.61 9.2056 8.41 10.0859 19.3956 7.8244 23.1227z" fill="#68686a"/><path d="m168.7052 85.3906c2.9889 8.2854-18.8088 23.7395-48.6864 34.5176s-65.6191 16.081-68.608 7.7956 27.9066-27.0215 57.7842-37.8 56.5213-12.7986 59.5102-4.5132z" fill="#a1d1e8"/><path d="m130.7988 83.459a28.0325 28.0325 0 0 0 9.963 27.6181c18.53-9.2672 30.18-19.4849 27.9434-25.6865s-17.7275-6.6286-37.9064-1.9316z" fill="#c1b0a4"/><circle cx="143.083" cy="93.391" fill="#281d19" r="3.534"/><path d="m143.0792 98.3027a4.91 4.91 0 1 1 4.6208-6.5774 4.9154 4.9154 0 0 1 -4.6211 6.5772zm.0011-7.07a2.1591 2.1591 0 1 0 2.0333 1.4263 2.1475 2.1475 0 0 0 -2.0336-1.4268z" fill="#281d19"/><path d="m182.6945 175.637 6.3574-20.5679 9.2346 2.8541-3.503 11.3334a9.6659 9.6659 0 0 1 -12.089 6.3804z" fill="#3c3f42"/><path d="m86.8755 154.0317a38.4173 38.4173 0 0 0 -8.6566 3.9041c8.8552.5488 17.323 7.5677 20.5487 17.959s.2212 20.9715-6.7665 26.4384a38.4211 38.4211 0 0 0 9.3457-1.6844c16.2875-5.0561 21.6331-18.1567 17.637-31.03s-15.8208-20.6432-32.1083-15.5871z" fill="#3c3f42"/><path d="m180.0339 144.5938c-3.9961-12.873-19.0144-19.6521-33.5443-15.1416 8.816 8.8176 9.1989 19.8315 6.7712 23.4527z" fill="#fff"/><path d="m227.9179 135.8029c2.6113 8.412-19.8626 22.865-50.1969 32.2816s-66.2789 13.0984-68.89 4.6864 29.1-25.7324 59.4339-35.149 57.0417-10.231 59.653-1.819z" fill="#90adb3"/><path d="m190.1376 132.16a28.0321 28.0321 0 0 0 8.7044 28.04c18.93-8.42 31.03-18.1007 29.0759-24.397s-17.4098-7.423-37.7803-3.643z" fill="#a68e7c"/><circle cx="201.96" cy="142.637" fill="#281d19" r="3.534"/><path d="m201.9625 147.5468a4.9132 4.9132 0 1 1 1.4524-.2213 4.9182 4.9182 0 0 1 -1.4524.2213zm0-7.07a2.16 2.16 0 1 0 2.0591 1.52 2.1628 2.1628 0 0 0 -2.0591-1.52z" fill="#281d19"/><path d="m164.8383 149.8354 2.2756-21.4074 9.6115 1.0214-1.2539 11.796a9.6659 9.6659 0 0 1 -10.6332 8.59z" fill="#3c3f42"/><path d="m156.2466 119.8864c-6.4014-11.8619-22.4445-15.62-35.8331-8.3951 10.35 6.9539 12.8474 17.6877 11.1629 21.7087z" fill="#3c3f42"/><path d="m201.54 102.0346c4.1831 7.7513-15.0852 26.2635-43.0369 41.348s-62.5137 25.6227-66.6969 17.8714 23.5966-30.8568 51.5483-45.9414 54.0022-21.0293 58.1855-13.278z" fill="#a1d1e8"/><path d="m66.652 147.0959a38.4188 38.4188 0 0 0 -7.7423 5.4987c8.795-1.1675 18.4565 4.0884 23.6238 13.6635s4.2576 20.536-1.546 27.2468a38.4183 38.4183 0 0 0 8.8461-3.4534c15.0082-8.0994 17.73-21.9846 11.3282-33.8464s-19.5018-17.2086-34.5098-9.1092z" fill="#3c3f42"/><path d="m163.7654 105.7388a28.0324 28.0324 0 0 0 13.9438 25.8378c16.9532-11.91 26.9616-23.74 23.8306-29.542s-18.5138-3.9298-37.7744 3.7042z" fill="#c1b0a4"/><circle cx="177.385" cy="113.742" fill="#281d19" r="3.534"/><path d="m177.3914 118.6535a4.9287 4.9287 0 0 1 -1.4129-.2081 4.9091 4.9091 0 1 1 5.7264-7.0348 4.9131 4.9131 0 0 1 -4.3135 7.2426zm-.01-7.07a2.1587 2.1587 0 1 0 1.9035 1.1331 2.1423 2.1423 0 0 0 -1.9037-1.1331z" fill="#281d19"/><path d="m140.1645 216.237 10.1734-18.9725 8.5184 4.5674-5.6058 10.4543a9.6659 9.6659 0 0 1 -13.086 3.9508z" fill="#68686a"/><path d="m50.2457 176.7064a38.4139 38.4139 0 0 0 -9.2435 2.1765c8.5868 2.2321 15.5561 10.7408 16.7351 21.5572s-3.7934 20.6268-11.6973 24.6565a38.419 38.419 0 0 0 9.4954.1339c16.9538-1.848 24.7061-13.6846 23.2455-27.0842s-11.5809-23.2879-28.5352-21.4399z" fill="#68686a"/><path d="m150.6176 184.07c-1.4606-13.4-14.9053-22.9257-30.03-21.2771 6.9671 10.3409 5.2366 21.2248 2.1612 24.3148z" fill="#68686a"/><path d="m192.171 185.7864c.9545 8.7562-23.8686 18.6446-55.4439 22.0864s-67.5606.1817-68.515-8.5745 33.4834-19.6926 65.0587-23.1344 57.9458.8661 58.9002 9.6225z" fill="#a1d1e8"/><path d="m155.7847 174.9857a28.0319 28.0319 0 0 0 3.1815 29.1872c20.191-4.6445 33.9192-11.8325 33.2048-18.3864s-15.6689-10.6156-36.3863-10.8008z" fill="#c1b0a4"/><circle cx="165.385" cy="187.531" fill="#281d19" r="3.534"/><path d="m165.3755 192.44a4.9231 4.9231 0 1 1 .5414-.03 4.9613 4.9613 0 0 1 -.5414.03zm.0107-7.0689a2.1692 2.1692 0 0 0 -.2352.0129 2.1593 2.1593 0 1 0 2.38 1.9126v-.0005a2.1623 2.1623 0 0 0 -2.1448-1.925z" fill="#281d19"/></svg>