<svg id="flat" height="512" viewBox="0 0 512 512" width="512" xmlns="http://www.w3.org/2000/svg"><path d="m64 356 10.309 10.309a156 156 0 0 0 110.308 45.691h140.768a156 156 0 0 0 102.727-38.6l19.888-17.4z" fill="#bcbbbb"/><ellipse cx="256" cy="316" fill="#dddcdb" rx="248" ry="64"/><path d="m251 332h172.5a21.5 21.5 0 0 0 21.5-21.5 21.5 21.5 0 0 0 -21.5-21.5h-197.36z" fill="#bcbbbb"/><path d="m303 165s34.347-24.372 80.9-11.215a35.917 35.917 0 0 0 35.088-9.312l8.293-11.969a19.255 19.255 0 0 1 29.442-2.649 19.255 19.255 0 0 1 1.42 25.644l-65.217 81.522z" fill="#9b5e15"/><path d="m394 237 79.67-63.289a18.71 18.71 0 0 1 27.194 4.207 18.546 18.546 0 0 1 -1.249 22.293l-74.857 88.628c-7.224 9.254-20.991 19.161-32.758 19.161h-152l11.252 24h-171.588c-47.664 0-47.664-28.494-47.664-28.494 0-78.683 86.7-147.506 192-147.506 73.159 0 132.112 14.535 170.243 81.021z" fill="#d38f29"/><path d="m98.485 284h47.49s56.033-42.485 94.025 24c0 0 4-73-88-52z" fill="#b5741d"/><path d="m176 292h16v16h-16z" fill="#935915"/><path d="m192 236.01-.01 16.7-.02 18.27a56.15 56.15 0 0 0 -16 .5l.02-19.09.01-16.4z" fill="#894909"/><g fill="#935915"><path d="m232 188h16v16h-16z"/><path d="m136.478 204h18.995v16h-18.995z"/><path d="m183.967 196h16.033v16h-16.033z"/></g><path d="m320 332h16v16h-16z" fill="#a5a4a4"/><path d="m272 92h16v16h-16z" fill="#d38f29"/><path d="m152 108h16v16h-16z" fill="#d38f29"/><path d="m360 332h16v16h-16z" fill="#a5a4a4"/><path d="m394.157 236.875a180.7 180.7 0 0 0 -12.291-18.69c-30.441-18.35-58.023-16.139-77.011-10.165a107.033 107.033 0 0 0 -40.185 23.334l11.293 11.334a91.135 91.135 0 0 1 33.694-19.406c27.241-8.568 53.951-1.9 79.39 19.823l5.764-6.749z" fill="#b5741d"/><g opacity=".5"><path d="m274.976 159.152a364.518 364.518 0 0 0 -50.976-3.152c-105.3 0-192 68.823-192 147.506 0 0 0 14.62 17.522 22.915 20.072-100.153 163.042-150.061 225.454-167.269z" fill="#f7c889"/></g></svg>