<svg id="Capa_1" enable-background="new 0 0 512 512" viewBox="0 0 512 512" xmlns="http://www.w3.org/2000/svg"><g><path d="m176.677 151.549-19.698-141.878c-.71-5.111 3.261-9.671 8.421-9.671h21.745c5.159 0 9.129 4.557 8.422 9.667l-19.296 139.44z" fill="#c68d7a"/><path d="m339.938 264.839c-.216.525-.278 1.102-.185 1.658l3.709 22.685c.134.804-.052 1.628-.525 2.287l-13.269 18.78c-.319.453-.515.999-.556 1.556l1.947 25.003c-.051.814-.433 1.576-1.051 2.112l-17.328 15.113c-.412.361-.731.835-.907 1.36l-7.139 21.85c-.258.783-.814 1.432-1.556 1.803l-20.552 10.292c-.484.247-.896.618-1.195 1.082l-12.568 19.233c-.453.701-1.174 1.185-1.999 1.339l-22.561 4.368c-.525.103-1.02.34-1.422.69l-17.699 10.93c-.649.556-1.483.814-2.328.731l-24.127-.082c-.917-.093-1.834.227-2.493.886l-17.523 19.223c-1.205 1.195-3.152 1.195-4.358 0l-19.965-19.398c-.247-.247-.536-.443-.845-.587-.515-.247-1.082-.35-1.659-.288l-22.334 2.349c-.845.093-1.69-.165-2.339-.721l-15.7-12.774c-.402-.34-2.545-.855-3.07-.958l-22.561-4.368c-.824-.154-1.545-.639-2.009-1.339l-12.558-19.233c-.299-.464-.711-.835-1.205-1.082l-20.542-10.292c-.742-.371-1.298-1.02-1.556-1.803l-7.139-21.85c-.175-.525-.495-.999-.907-1.37l-17.328-15.102c-.618-.536-.999-1.298-1.051-2.112l-1.638-22.922c-.041-.566-.237-1.102-.556-1.566l-13.266-18.782c-.474-.659-.659-1.483-.525-2.277l3.709-22.695c.093-.556.021-1.133-.185-1.659l-8.674-21.294c-.299-.752-.299-1.587 0-2.328l8.674-21.304c.206-.525.278-1.102.185-1.658l-3.719-22.685c-.124-.804.062-1.628.536-2.287l13.258-18.78c.33-.453.525-.999.567-1.555l1.638-22.932c.052-.814.433-1.566 1.051-2.112l17.328-15.102c.412-.371.731-.845.907-1.37l7.139-21.84c.258-.783.814-1.432 1.556-1.803l20.55-10.302c.484-.247.896-.618 1.195-1.071l12.558-19.244c.464-.7 1.185-1.185 2.009-1.339l22.561-4.368c.525-.103 1.01-.34 1.422-.68l17.462-14.927c.649-.546 1.483-.814 2.328-.721l22.849 2.38c.525.062 1.061-.021 1.545-.227l21.098-9.076c.783-.33 1.669-.33 2.442 0l21.108 9.076c.484.206 1.02.288 1.545.227l16.545-1.72 6.325 1.102c.845-.093 1.679.175 2.328.721l16.39 16.071c.402.34.896.577 1.422.68l22.561 4.368c.824.165 1.545.649 1.999 1.35l12.568 19.233c.299.453.711.824 1.195 1.071l11.548 6.82 5.47 3.235c.587.299 1.071.783 1.37 1.381l12.063 23.993c.134.268.299.505.505.721l12.97 13.949c.484.515.773 1.185.814 1.885l3.492 20.758c.031.567.227 1.102.556 1.566l13.269 18.77c.464.67.659 1.483.525 2.287l-3.709 22.685c-.093.567-.031 1.143.185 1.669l8.664 21.294c.309.742.309 1.587 0 2.328z" fill="#9be69d"/><path d="m352.196 245.613c.304-.747.304-1.584 0-2.331l-8.669-21.296c-.214-.527-.279-1.103-.188-1.664l3.712-22.686c.131-.8-.058-1.62-.526-2.282l-13.268-18.777c-.325-.46-.519-1.001-.559-1.564l-1.649-23.111c-.05-.703-.339-1.368-.819-1.885l-12.973-13.951c-.199-.214-.367-.455-.498-.717l-12.064-24.001c-.299-.595-.782-1.077-1.377-1.375l-20.787-10.418c-.489-.245-.904-.615-1.203-1.073l-12.559-19.236c-.457-.701-1.179-1.186-2.001-1.345l-22.565-4.366c-.525-.102-1.014-.337-1.421-.685l-17.462-14.922c-.644-.55-1.486-.812-2.329-.724l-6.308.659c15.472 15.065 28.654 33.345 38.848 53.977 3.13 6.335.935 13.973-4.982 17.835-.034.022-.069.045-.103.067l-.062.031-1.473.989c-32.471 21.675-60.214 54.126-80.251 93.85-19.79 39.25-30.246 82.013-30.246 123.663 0 14.92 1.339 29.201 4 42.808 2.24 11.458-5.937 22.296-17.549 23.508-4.89.51-9.84.771-14.842.771-.61 0-1.073.008-1.681 0 .525.102 1.014.338 1.421.685l17.463 14.922c.644.551 1.486.812 2.329.724l22.193-2.318c.923-.096 1.84.227 2.499.881l19.849 19.713c1.205 1.197 3.151 1.197 4.356 0l19.848-19.713c.658-.654 1.576-.977 2.499-.881l22.193 2.318c.843.088 1.684-.174 2.328-.724l17.451-14.912.012-.007c.138-.12.299-.208.457-.301.301-.176.619-.32.964-.387l22.565-4.366c.821-.159 1.543-.644 2-1.345l4.676-7.162 7.888-12.071c.15-.232.328-.441.53-.623.201-.179.426-.332.669-.454l14.234-7.134 6.314-3.162c.74-.37 1.3-1.021 1.557-1.807l.793-2.428 6.348-19.413c.085-.259.205-.503.353-.729.155-.235.34-.45.55-.635l12.996-11.335 4.335-3.78c.103-.09.19-.195.28-.297.044-.05.096-.092.136-.144.019-.025.031-.054.05-.079.121-.167.223-.344.308-.531.151-.332.252-.688.278-1.058l1.636-22.927c.04-.562.233-1.103.559-1.564l13.268-18.777c.468-.662.657-1.482.526-2.283l-3.712-22.685c-.092-.562-.027-1.138.188-1.665z" fill="#97da7b"/><g fill="#97da7b"><circle cx="61.469" cy="319.369" r="7.726"/><circle cx="83.471" cy="343.973" r="7.726"/><circle cx="94.132" cy="310.758" r="7.726"/><circle cx="201.873" cy="97.692" r="7.726"/><circle cx="229.772" cy="114.856" r="7.726"/></g><path d="m363.985 481.761c-15.361-11.388-22.063-26.486-24.42-45.593-2.28 18.736-9.058 34.205-24.42 45.593-12.339 9.147-28.316 24.693-42.741 19.427 20.639 7.146 43.335 10.812 67.161 10.812 23.894 0 46.65-3.688 67.337-10.875-14.397 5.212-30.61-10.241-42.917-19.364z" fill="#9be69d"/><path d="m315.078 179.981h.068c15.361 11.388 22.063 15.927 24.42 35.034 2.28-18.736 9.058-23.646 24.42-35.034l.089-.016c14.557-10.749 33.996-33.855 49.953-25.335-13.876-9.237-28.776-16.139-44.408-20.072-9.589-2.412-15.771-11.729-14.416-21.524l3.656-26.417c.707-5.11-3.263-9.667-8.422-9.667h-21.745c-5.16 0-9.131 4.56-8.421 9.671l3.666 26.402c1.36 9.798-4.824 19.12-14.418 21.533-15.703 3.95-30.668 10.895-44.598 20.195l.078-.041c15.98-8.593 35.482 14.494 50.078 25.271z" fill="#c68d7a"/><path d="m505.472 346.918c0 78.829-36.862 127.598-98.57 149.025-5.048 1.823-10.322 2.73-15.566 2.73-9.725 0-17.313.239-25.307-5.684-7.438-5.512-14.883-7.547-18.736-12.265-4.131-5.027-6.511-21.933-7.726-31.792-1.123 9.241-3.338 25.744-7.149 30.978-.185.247-.381.494-.577.731-3.874 4.739-9.282 8.715-16.699 14.206-12.331 9.148-28.309 11.61-42.742 6.336-61.79-21.397-105.14-73.998-105.14-152.91 0-75.687 39.878-154.95 97.661-193.52l.082-.041c15.978-8.592 35.479-7.201 50.077 3.575l.062.052c7.438 5.501 12.836 9.406 16.699 14.124 4.131 5.027 6.511 23.843 7.726 33.701 1.174-9.704 3.564-28.519 7.726-33.619 3.863-4.739 9.272-8.726 16.689-14.206l.093-.072c14.556-10.745 33.996-12.156 49.953-3.637 57.876 38.529 91.444 116.518 91.444 192.288z" fill="#f8f6f6"/><path d="m347.293 480.724c3.853 4.718 9.251 8.612 16.689 14.124 7.994 5.924 17.626 9.004 27.351 9.004 5.244 0 10.518-.906 15.566-2.73 61.708-21.428 104.975-74.019 104.975-152.848 0-75.77-39.971-155.114-97.847-193.643.002-.001 115.785 258.708-66.734 326.093z" fill="#ebebeb"/><g><g><path d="m304.819 445.927c0 14.885-15.115 25.101-28.871 19.415-13.23-5.468-25.085-12.746-35.113-21.678-25.405-22.629-38.833-55.615-38.833-95.393 0-43.737 16.236-91.305 43.43-127.245 4.11-5.431 9.416-11.828 15.825-18.31 15.983-16.165 43.562-4.692 43.562 18.04z" fill="#ffe177"/></g><g><path d="m374.312 220.756c0-22.732 27.579-34.205 43.562-18.04 6.409 6.482 11.714 12.878 15.824 18.309 1.456 1.924 2.881 3.882 4.273 5.871 24.613 35.152 33.476 78.628 33.476 120.022 0 39.778-9.754 70.364-35.158 92.993-10.028 8.932-18.073 16.902-31.302 22.371-7.155 2.957-16.481 4.672-22.053.607-5.141-3.751-8.622-9.819-8.622-16.962z" fill="#ffe177"/></g><path d="m437.972 226.896c18.058 72.642 27.431 181.437-55.033 235.986 5.572 4.066 13.089 5.417 20.244 2.46 13.23-5.469 25.085-12.746 35.113-21.678 25.405-22.629 38.833-55.615 38.833-95.393 0-41.396-14.543-86.223-39.157-121.375z" fill="#ffd15b"/></g><g><path d="m347.293 172.545v308.179c-1.597-1.937-2.926-4.018-4.028-6.408-1.483-3.183-5.934-3.183-7.428 0-.958 2.05-2.091 3.884-3.42 5.594-.185.247-.381.494-.577.731v-308.178c2.165 2.634 3.848 5.529 5.136 9.105.879 2.442 4.307 2.441 5.198.004 1.283-3.508 2.963-6.385 5.119-9.027z" fill="#ebebeb"/></g><g><path d="m308.673 498.85c1.769-.908 3.487-1.938 5.147-3.083-1.814 1.03-3.529 2.058-5.147 3.083z" fill="#ebebeb"/></g></g><g/><g/><g/><g/><g/><g/><g/><g/><g/><g/><g/><g/><g/><g/><g/></svg>