<svg id="Layer_1" enable-background="new 0 0 500 500" viewBox="0 0 500 500" xmlns="http://www.w3.org/2000/svg"><g><path d="m415.985 167.173c-47.431-11.356-148.027-8.59-197.242-.984-49.215 7.604-96.141 11.987-143.068 10.428-46.925-1.557-47.688 60.546-41.203 75.755 6.486 15.21-12.297 29.996-2.906 70.553s194.807 27.038 250.507 17.322c55.702-9.718 115.218 5.492 155.658-1.268 40.442-6.759 39.423-157.159-21.746-171.806z" fill="#ffc466"/><path d="m443.074 335.318c-40.441 6.759-99.957-8.45-155.658 1.268-55.702 9.716-241.118 23.235-250.509-17.322-9.391-40.556 9.391-55.343 2.905-70.553-4.938-11.579-5.609-50.273 15.03-67.428-26.076 14.471-25.702 58.589-20.371 71.089 6.486 15.21-12.297 29.996-2.906 70.553s194.807 27.038 250.507 17.322c55.702-9.718 115.218 5.492 155.658-1.268 3.68-.616 7.005-2.446 9.984-5.229-1.487.716-3.017 1.296-4.64 1.568z" fill="#ffeed4" opacity=".4"/><path d="m465.045 257.647c-2.539-40.783-18.064-83.051-49.06-90.474-18.927-4.532-46.352-6.786-75.57-7.409-43.422 1.334-75.334 9.752-134.389 16.375-80.371 9.011-92.594-1.128-117.011 1.126-24.826 2.292-40.409 10.681-50.002 21.23-9.616 18.99-8.416 44.785-4.54 53.877 1.589 3.725 1.649 7.43.992 11.49 5.645 3.257 14.399 3.748 31.182.714 24.926-4.507 55.447-2.329 89.019 3.905 33.574 6.234 45.274-11.792 78.846-18.551 33.574-6.759 51.886 6.196 95.633 12.393 43.747 6.196 72.232-7.322 101.229-7.322 17.773-.001 27.501 2.946 33.671 2.646z" fill="#b01700" opacity=".2"/><path d="m446.635 311.377c-47.308 24.786-81.391 6.759-124.628-9.576-43.239-16.336-60.026-1.689-115.471 21.969-55.447 23.658-69.691 11.83-108.351-10.702-32.607-19.005-43.919-36.28-68.622-22.672-1.103 8.692-1.082 19.2 2.004 32.529 9.391 40.557 194.807 27.038 250.507 17.322 55.702-9.718 115.218 5.492 155.658-1.268 11.38-1.902 19.477-15.179 23.875-33.604-5.664 1.783-10.759 3.793-14.972 6.002z" fill="#ffa71c" opacity=".2"/><path d="m465.379 266.059c-18.536 6.153-39.181 10.761-70.63 8.14-47.308-3.943-62.061-9.576-101.229-10.702-39.17-1.128-43.239-9.576-74.269 3.38-31.029 12.956-14.753 28.848-56.971 18.648-42.221-10.2-51.378-10.2-82.407-15.831-14.318-2.599-30.34-4.948-44.325-6.514-.608 4.268-2.055 8.921-3.472 14.412 30.155 1.868 52.351 11.828 74.248 26.461 29.505 19.715 49.343 27.601 83.425 9.013 34.082-18.589 61.043-33.678 103.772-27.542s21.365 12.332 75.793 15.712c35.815 2.224 69.805-3.788 94.706-9.143 1.081-8.208 1.527-17.022 1.359-26.034z" fill="#ffe396" opacity=".2"/><path d="m437.731 338.979c3.801-.635 7.234-2.541 10.285-5.48-15.017 2.409-34.999 3.858-60.389 2.101-65.112-4.507-88.511-23.095-149.246-11.994s-132.058-19.551-90.345-135.589l-51.089-11.133c-7.094.027-14.184-.03-21.272-.266-46.925-1.557-47.688 60.546-41.203 75.755 6.486 15.208-12.297 29.994-2.906 70.553 9.391 40.557 194.807 27.038 250.507 17.322 55.703-9.719 115.219 5.491 155.658-1.269z" fill="#ffb745" opacity=".3"/><path d="m465.381 266.243c-.484-27.374-6.871-56.546-19.908-76.334-12.191-10.124-28.938-17.822-51.742-19.815-77.32-6.759-107.333 5.633-187.705 14.647-80.371 9.011-92.594-1.128-117.011 1.126-30.338 2.8-46.908 14.692-55.545 28.528-3.291 15.459-1.857 31.273 1.003 37.978 2.505 5.875 1.234 11.703-.722 18.963 5.571 4.251 14.324 5.199 32.896 1.842 24.926-4.508 55.447-2.329 89.019 3.905 33.574 6.234 45.274-11.792 78.846-18.552 33.574-6.759 51.886 6.197 95.633 12.393s72.232-7.322 101.229-7.322c18.083 0 27.854 3.064 34.007 2.641z" fill="#ffb745" opacity=".3"/><path d="m447.878 333.616c-23.707 3.875-57.497-2.471-93.315-10.011-56.973-11.994-71.726-10.538-168.884 11.994-97.16 22.532-162.271-43.938-65.62-140.261l-82.407 11.828c-1.007.689-1.904 1.396-2.875 2.091-4.88 16.963-3.482 35.662-.304 43.115 6.486 15.208-12.297 29.994-2.906 70.553 9.391 40.557 194.807 27.038 250.507 17.322 55.702-9.718 115.218 5.492 155.658-1.268 3.744-.627 7.129-2.496 10.146-5.363z" fill="#ffb745" opacity=".1"/><path d="m89.015 167.245c-76.207 7.033-65.722 71.399-60.132 79.989s12.839 11.828 37.764 7.322c24.926-4.506 55.447-2.327 89.019 3.905 33.574 6.234 45.274-11.79 78.846-18.55 33.574-6.761 51.886 6.195 95.633 12.391s72.232-7.322 101.229-7.322c28.995 0 36.625 7.885 42.221-3.38 5.594-11.265-2.545-83.367-79.864-90.126-77.32-6.761-107.333 5.632-187.705 14.645-80.371 9.013-92.594-1.126-117.011 1.126z" fill="#571e16"/><path d="m393.731 151.472c-77.32-6.759-107.333 5.633-187.705 14.647-80.371 9.013-92.594-1.126-117.011 1.126-22.492 2.076-37.39 9.164-47.135 18.321 9.535-6.567 22.651-11.448 40.649-13.109 24.417-2.254 36.638 7.885 117.011-1.128 80.373-9.011 110.386-21.404 187.705-14.645 77.32 6.759 85.458 78.861 79.862 90.126-.113.232-.236.408-.353.623 2.943-.533 5.01-2.148 6.841-5.834 5.594-11.264-2.545-83.365-79.864-90.127z" fill="#ff5840" opacity=".3"/><path d="m473.595 241.6c3.172-6.387 1.914-32.322-13.846-54.824 14.025 22.296 8.212 36.157-23.29 31.094-31.538-5.07-26.96 6.196-82.407 5.633-55.445-.565-57.48-16.9-106.889-13.521-49.409 3.38-40.12 15.773-85.902 14.647s-37.643-18.026-69.689-2.817c-20.171 9.572-57.638 3.512-61.993-18.576-8.021 19.1-3.669 39.429-.697 43.997 5.59 8.59 12.839 11.828 37.764 7.322 24.926-4.506 55.447-2.327 89.019 3.905 33.574 6.234 45.274-11.79 78.846-18.55 33.574-6.761 51.886 6.195 95.633 12.391s72.232-7.322 101.229-7.322c28.996.001 36.626 7.886 42.222-3.379z" fill="#2b0f0b" opacity=".3"/><path d="m433.853 239.065c-28.995 0-57.482 13.519-101.227 7.322-43.747-6.197-62.061-19.151-95.633-12.391-33.574 6.759-45.274 24.784-78.846 18.551-33.574-6.234-64.095-8.412-89.021-3.907-24.924 4.507-32.172 1.268-37.762-7.322-2.811-4.321-6.852-22.755-.484-40.904-9.742 19.872-5.116 42.026-1.997 46.819 5.59 8.59 12.839 11.828 37.764 7.322 24.926-4.506 55.447-2.327 89.019 3.905 33.574 6.234 45.274-11.79 78.846-18.55 33.574-6.761 51.886 6.195 95.633 12.391s72.232-7.322 101.229-7.322c28.995 0 36.625 7.885 42.221-3.38.414-.833.739-2.031.98-3.478-5.565 7.498-14.2.944-40.722.944z" fill="#ff7940" opacity=".3"/><path d="m40.703 226.954c-11.99 9.703 3.053 29.996 25.944 18.378s48.07-.635 58.181.212c10.111.845 7.439-17.745-12.208-20.28-19.649-2.533-38.342 7.738-49.789 4.821-11.445-2.92-17.167-7.146-22.128-3.131z" fill="#ffa278" opacity=".2"/><g fill="#ffd096"><path d="m43.374 230.084c-9.852 4.819 8.394 17.571 16.787 11.445 8.394-6.127 19.266-4.098 27.659-4.689 8.394-.591 8.21-2.494-4.288-3.761-12.499-1.266-17.267 2.958-26.614.846-9.348-2.112-10.872-5.148-13.544-3.841z" opacity=".5"/><path d="m340.001 225.263c-17.116.28-15.452 23.025 2.29 18.378 17.739-4.647 12.208-6.759 31.092-4.436 18.886 2.324 27.852 5.28 33.765-1.056s10.681-10.139-5.531-11.407c-16.215-1.268-11.446 2.535-28.043.844-16.595-1.688-20.602-2.533-33.573-2.323z" opacity=".2"/><path d="m426.986 225.231c-10.543 1.228-13.353 8.02-6.104 9.519 7.249 1.498 9.157 4.031 14.116 1.075s-2.29-11.259-8.012-10.594z" opacity=".2"/><path d="m444.918 223.264c-1.908 5.169-8.394 9.393 1.526 10.237 9.918.844 13.353.346 9.727-3.418-3.623-3.764-11.253-6.819-11.253-6.819z" opacity=".2"/><path d="m385.029 231.72c-9.871-1.167-15.842-1.738-11.456 2.135 4.388 3.871 8.966 6.829 17.359 4.506 8.394-2.324 16.215-2.535 9.538-6.127-6.675-3.591-10.854.028-15.441-.514z" opacity=".7"/><path d="m423.674 229.054c-4.577.553-3.718 4.413 2.242 4.279s8.441-3.061 6.342-3.71c-2.099-.65-8.584-.569-8.584-.569z" opacity=".7"/><path d="m448.016 228.56c-3.671 1.351-4.912 2.83 0 3.253 4.914.421 6.82 1.005 4.723-1.188-2.099-2.192-4.723-2.065-4.723-2.065z" opacity=".7"/></g><path d="m464.266 289.876c-12.586 5.07-28.677 12.546-47.418 14.197-38.562 3.397-42.334-2.573-93.857-11.331-51.523-8.756-54.933 5.28-90.005 15.115-35.072 9.833-66.255 5.246-98.811-3.784-30.533-8.471-71.913-28.192-104.947-10.4-.699 8.04-.372 17.548 2.339 29.252 9.391 40.557 194.807 27.038 250.507 17.322 55.702-9.718 115.218 5.492 155.658-1.268 14.368-2.403 23.47-22.968 26.534-49.103z" fill="#ffb745" opacity=".2"/><path d="m90.843 170.806c-38.59 4.12-67.131 35.983-26.856 34.292 40.275-1.689 34.679-15.75 79.953-4.776 45.272 10.972 67.694-3.11 102.774-9.306s31.519 8.45 92.56 11.83c61.043 3.38 108.478 15.23 105.362-2.524-3.115-17.754-12.272-47.611-48.897-47.611s-80.881.565-135.819 11.267c-54.937 10.702-70.197 16.39-102.753 12.982-32.557-3.405-40.575-8.905-66.324-6.154z" fill="#ff5840" opacity=".2"/><path d="m432.993 319.685c-19.746 16.477-32.522 6.338-84.789 0-52.267-6.336-57.99 2.535-88.129 13.098-30.14 10.562-45.019 7.604-90.801-1.691-45.782-9.293-45.019-10.139-85.742-7.487-34.596 2.252-42.984.521-54.548-19.532.213 5.615.956 11.824 2.582 18.852 9.391 40.557 194.807 27.038 250.507 17.322 55.702-9.718 115.218 5.492 155.658-1.268 10.915-1.825 18.778-14.159 23.286-31.417-10.094 1.961-20.422 5.779-28.024 12.123z" fill="#ffb745" opacity=".4"/><path d="m329.384 157.246c67.303-11.006 98.478-1.037 110.949 14.902 12.472 15.939-14.169 22.487-31.369 10.659-17.201-11.83.729-16.079-29.409-19.024-30.14-2.946-71.566-3.039-50.171-6.537z" fill="#ffaf4d" opacity=".2"/><path d="m66.647 175.007c-38.83 12.057-37.388 51.876 8.139 42.863s45.527-18.576 22.636-17.456-36.625 3.374-33.064-8.737c3.56-12.111 13.686-20.208 2.289-16.67z" fill="#ffaf4d" opacity=".2"/></g></svg>