<svg id="Capa_1" enable-background="new 0 0 497 497" viewBox="0 0 497 497" xmlns="http://www.w3.org/2000/svg"><g><path d="m150 256.005c-57.99 0-105-47.01-105-105 0-57.083 45.552-103.528 102.289-104.966l-.775-29.995c-81.232 1.853-146.514 68.279-146.514 149.956 0 82.843 67.157 150 150 150h30z" fill="#87a1c1"/><path d="m309.5 256.001-159.5.004v29.995c0 16.569 13.431 30 30 30h159.5z" fill="#7587b3"/><path d="m354.5 256-45 .001v29.999c0 16.569 13.431 30 30 30h15c12.426 0 22.5 10.074 22.5 22.5s-10.074 22.5-22.5 22.5v30c37.279 0 67.5-30.221 67.5-67.5s-30.221-67.5-67.5-67.5z" fill="#636da4"/><path d="m354.5 196v45c49.706 0 90 40.294 90 90s-40.294 90-90 90l-45 60h45c78.701 0 142.5-63.799 142.5-142.5s-63.799-142.5-142.5-142.5z" fill="#636da4"/><path d="m195 421-45 60h159.5c24.853 0 45-20.147 45-45v-15z" fill="#7587b3"/><path d="m195 436v-15h-90c-49.706 0-90-40.294-90-90h-15c0 82.843 67.157 150 150 150 24.853 0 45-20.147 45-45z" fill="#87a1c1"/><path d="m354.5 196h-204.5c-16.569 0-30-13.431-30-30s13.431-30 30-30h144.924l67.076-60v-60h-212c-74.558 0-135 60.442-135 135s60.442 135 135 135h204.5c20.711 0 37.5 16.789 37.5 37.5s-16.789 37.5-37.5 37.5h-294.5c-16.569 0-30-13.431-30-30 0-8.284-6.716-15-15-15s-15 6.716-15 15c0 57.99 47.01 105 105 105h249.5c66.274 0 120-53.726 120-120s-53.726-120-120-120z" fill="#a8cae0"/><path d="m294.924 136h67.076v-60h-90c0 23.052 8.671 44.077 22.924 60z" fill="#98b6d1"/><path d="m227 61-30 15c0 16.569 13.431 30 30 30h50.128l11.123-45z" fill="#636da4"/><path d="m302 76-28.749-15c-.818 4.879-1.251 9.889-1.251 15 0 10.52 1.811 20.616 5.128 30h54.872z" fill="#515985"/><path d="m272 46h-30l30 30h30c0-16.569-13.431-30-30-30z" fill="#636da4"/><path d="m242 46h-15c-16.569 0-30 13.431-30 30h75c0-16.569-13.431-30-30-30z" fill="#7587b3"/><path d="m483.777 51.103c-16.853-11.425-35.026-20.052-53.873-25.9v101.594c18.847-5.847 37.02-14.475 53.873-25.899 17.631-11.953 17.631-37.843 0-49.795z" fill="#a8cae0"/><path d="m429.904 25.196c-19.758-6.13-40.258-9.196-60.758-9.196h-7.146c-33.137 0-60 26.863-60 60s26.863 60 60 60h7.146c20.5 0 41-3.066 60.757-9.196 22.159-6.875 37.097-27.604 37.097-50.804s-14.938-43.929-37.096-50.804z" fill="#b9dff0"/><circle cx="407" cy="76" fill="#515985" r="15"/></g><g/><g/><g/><g/><g/><g/><g/><g/><g/><g/><g/><g/><g/><g/><g/></svg>