<svg id="Capa_1" enable-background="new 0 0 512 512" height="512" viewBox="0 0 512 512" width="512" xmlns="http://www.w3.org/2000/svg"><g><g><g><path d="m480 303.968-229.151 20.604-218.849-20.604 14.011-209.944c1.119-16.775 15.053-29.809 31.865-29.809h356.249c16.812 0 30.746 13.034 31.865 29.809z" fill="#fad27a"/></g></g><g><g><path d="m448 303.968-188.807 20.604-184.891-20.604 14.901-193.488c.62-8.05 7.333-13.236 15.407-13.236l20.604-1.03h82.786l48 10.302 48-10.302h113.691c8.074 0 14.787 6.216 15.407 14.266z" fill="#e5aa5c"/></g></g><path d="m125.214 96.214h-30.905c-8.074 0-14.787 6.216-15.407 14.266l-14.902 193.488 14.359 10.302 16.547-10.302 14.901-193.488c.62-8.05 7.333-14.266 15.407-14.266z" fill="#d28e43"/><path d="m330.667 325.119c0 41.237-33.429 74.667-74.667 74.667s-64.365-33.429-64.365-74.667 28.051-123.762 64.365-127.576c5.377-.565 10.562-1.89 15.453.296 37.326 16.688 59.214 90.82 59.214 127.28z" fill="#e7f5f5"/><path d="m212.239 325.119c0-36.46 21.888-110.592 59.214-127.279-4.891-2.187-10.046-3.388-15.453-3.388-46.667 0-74.667 89.429-74.667 130.667s33.429 74.667 74.667 74.667c5.298 0 10.467-.552 15.453-1.601-33.822-7.118-59.214-37.127-59.214-73.066z" fill="#cedada"/><path d="m181.333 325.119c0 35.939-25.392 65.948-59.214 73.066-4.986 1.049-10.155-1.49-15.453-1.49-41.237 0-64.365-30.339-64.365-71.576s17.699-127.576 64.366-127.576c5.406 0 10.562-1.89 15.453.296 37.325 16.688 59.213 90.82 59.213 127.28z" fill="#e7f5f5"/><path d="m62.906 325.119c0-36.46 21.888-110.592 59.214-127.279-4.891-2.187-10.046-3.388-15.453-3.388-46.667 0-74.667 89.43-74.667 130.667s33.429 74.667 74.667 74.667c5.298 0 10.467-.552 15.453-1.601-33.823-7.118-59.214-37.127-59.214-73.066z" fill="#cedada"/><path d="m480 325.119c0 41.237-33.429 74.667-74.667 74.667s-64.365-33.429-64.365-74.667 29.64-122.475 64.365-127.576c5.349-.786 10.562-1.89 15.453.296 37.326 16.688 59.214 90.82 59.214 127.28z" fill="#e7f5f5"/><path d="m361.572 325.119c0-36.46 21.888-110.592 59.214-127.279-4.891-2.187-10.047-3.388-15.453-3.388-46.667 0-74.667 89.429-74.667 130.667s33.429 74.667 74.667 74.667c5.298 0 10.467-.552 15.453-1.601-33.822-7.118-59.214-37.127-59.214-73.066z" fill="#cedada"/><path d="m42.302 345.843 12.09 74.514c2.243 15.738 9.608 21.635 21.314 27.429h66.301c10.438 0 19.403-7.421 21.352-17.676l.344-1.807c2.982-15.691 25.278-16.163 28.921-.613l.778 3.32c2.303 9.827 11.068 16.775 21.161 16.775h78.315c9.733 0 18.279-6.47 20.919-15.838l1.34-4.753c4.336-15.386 26.613-13.901 28.869 1.924 1.527 10.71 10.698 18.667 21.516 18.667h66.707c15.338 0 28.51-10.904 31.374-25.973l12.481-65.668-6.386-10.302h-427.396z" fill="#e5aa5c"/><path d="m74.996 440.96-9.577-67.182c-1.327-9.308 5.896-17.634 15.298-17.634h395.367l3.916-20.603-224-15.453-224 15.453 12.09 84.816c2.243 15.738 15.72 27.429 31.616 27.429h1.044c-.82-2.166-1.415-4.449-1.754-6.826z" fill="#d28e43"/><path d="m304 96.214h-96l14.007 28.014c1.222 2.443 3.719 3.986 6.45 3.986h55.086c2.731 0 5.228-1.543 6.45-3.986z" fill="#d28e43"/><path d="m496.213 335.542h-449.52l-20.604-.239c-8.719 0-15.787-6.829-15.787-15.548 0-8.719 7.068-15.53 15.787-15.53l20.604-.257h449.52c8.719 0 15.787 7.068 15.787 15.787 0 8.719-7.068 15.787-15.787 15.787z" fill="#fad27a"/><path d="m30.906 319.755c0-8.719 7.068-15.787 15.787-15.787h-30.906c-8.719 0-15.787 7.068-15.787 15.787 0 8.719 7.068 15.787 15.787 15.787h30.906c-8.719 0-15.787-7.068-15.787-15.787z" fill="#e5aa5c"/></g></svg>