<svg id="Capa_1" enable-background="new 0 0 512 512" viewBox="0 0 512 512" xmlns="http://www.w3.org/2000/svg"><g><circle cx="255.993" cy="271.346" fill="#dff6fd" r="240.654"/><path d="m415.47 91.117c37.599 42.46 60.425 98.303 60.425 159.477 0 132.909-107.745 240.654-240.654 240.654-61.174 0-117.017-22.826-159.477-60.425 44.09 49.79 108.494 81.177 180.229 81.177 132.909 0 240.654-107.744 240.654-240.654 0-71.735-31.387-136.139-81.177-180.229z" fill="#c8effe"/><circle cx="255.993" cy="271.346" fill="#c8effe" r="154.706"/><path d="m328.054 27.508c-2.978-1.235-6.157-2.196-9.413-3.05-.581-.152-1.094-.495-1.457-.973-4.707-6.2-9.782-11.8-16.555-14.606-6.707-2.778-14.175-2.441-21.81-1.409-.595.08-1.2-.041-1.718-.345-6.649-3.903-13.544-7.125-21.108-7.125-7.489 0-14.324 3.159-20.913 7.01-.519.303-1.124.424-1.719.342-7.561-1.036-15.085-1.339-22.004 1.527-6.987 2.894-12.125 8.51-16.775 14.66-.362.479-.875.823-1.456.977-7.448 1.968-14.476 4.514-19.61 9.648-5.184 5.184-7.729 12.3-9.706 19.829-.152.581-.495 1.094-.973 1.457-6.2 4.707-11.8 9.782-14.606 16.555-2.778 6.707-2.441 14.175-1.409 21.81.08.595-.041 1.2-.345 1.718-3.903 6.649-7.124 13.545-7.124 21.109 0 7.489 3.159 14.324 7.01 20.913.303.519.424 1.124.342 1.719-1.036 7.561-1.339 15.085 1.527 22.004 2.894 6.987 8.51 12.125 14.66 16.775.479.362.823.875.977 1.456 1.968 7.448 4.514 14.476 9.648 19.61 2.967 2.967 6.566 5.069 10.514 6.696l42.315 7.912 75.588 4.181 42.83-40.249 18.124-64.756-13.953-43.826z" fill="#d6694b"/><path d="m365.509 137.749c3.903-6.649 7.124-13.545 7.124-21.109 0-7.489-3.159-14.324-7.01-20.913-.303-.519-.424-1.124-.342-1.719 1.036-7.561 1.339-15.085-1.527-22.004-2.894-6.987-8.51-12.125-14.66-16.775-.479-.362-.823-.875-.977-1.456-1.968-7.448-4.514-14.476-9.648-19.61-2.942-2.942-6.507-5.034-10.416-6.655v26.625c0 6.42 2.609 12.673 7.502 16.829.33.28.669.552 1.015.814 2.897 2.19 6.87 5.413 8.013 8.171 1.13 2.73.62 7.724.138 11.242-.707 5.195.359 10.525 2.997 15.029 1.779 3.045 4.163 7.465 4.163 10.421 0 2.984-2.437 7.482-4.27 10.605-2.64 4.5-3.71 9.821-3.015 14.987.28 2.074 1.127 8.345-.015 11.103-1.153 2.783-6.292 6.686-7.982 7.968-4.162 3.161-7.179 7.682-8.5 12.734-.534 2.033-2.173 8.276-4.304 10.406-2.111 2.111-8.227 3.727-10.237 4.259-5.038 1.329-9.551 4.355-12.7 8.516-2.191 2.897-5.413 6.869-8.168 8.01-1.114.461-2.637.685-4.659.685-1.781 0-3.875-.173-6.588-.545-1.048-.144-2.12-.217-3.182-.217-4.154 0-8.246 1.109-11.832 3.207-3.059 1.788-7.478 4.17-10.435 4.17-2.985 0-7.482-2.436-10.604-4.269-3.593-2.109-7.696-3.224-11.863-3.224-1.048 0-2.107.071-3.145.212-2.852.385-5.028.565-6.84.565h-39.512c2.95 1.215 6.095 2.165 9.315 3.01.581.152 1.094.495 1.457.973 4.707 6.2 9.782 11.8 16.555 14.605 6.707 2.778 14.175 2.441 21.81 1.409.595-.08 1.2.041 1.718.345 6.65 3.903 13.545 7.125 21.109 7.125 7.489 0 14.324-3.159 20.913-7.01.519-.303 1.124-.424 1.719-.342 7.561 1.036 15.085 1.339 22.004-1.527 6.987-2.894 12.125-8.51 16.775-14.66.362-.479.875-.823 1.456-.976 7.448-1.968 14.476-4.514 19.61-9.648 5.184-5.184 7.729-12.3 9.706-19.829.152-.581.495-1.094.973-1.457 6.2-4.707 11.8-9.782 14.605-16.555 2.778-6.707 2.441-14.175 1.409-21.81-.081-.592.041-1.197.345-1.715z" fill="#c4573a"/><path d="m468.956 267.599c-1.507-.715-3.056-1.386-4.629-2.031-.556-.228-1.019-.636-1.316-1.158-3.807-6.704-8.168-12.943-14.718-16.724-6.486-3.745-13.985-4.426-21.616-4.386-.601.003-1.185-.195-1.66-.563-6.03-4.678-12.394-8.702-19.819-9.68-7.499-.987-14.756 1.307-21.858 4.308-.553.234-1.169.275-1.749.118-7.434-2.019-14.794-3.329-21.806-1.45-7.081 1.897-12.844 6.787-18.32 12.32-.422.427-.976.699-1.571.775-7.723.977-15.11 2.571-20.926 7.034-5.76 4.42-9.201 11.055-12.125 18.183-.228.556-.636 1.019-1.158 1.316-6.705 3.807-12.943 8.168-16.724 14.718-3.745 6.486-4.426 13.985-4.386 21.616.003.601-.195 1.185-.563 1.66-4.678 6.03-8.702 12.394-9.68 19.819-.987 7.498 1.307 14.756 4.308 21.858.234.553.275 1.169.118 1.749-2.02 7.434-3.329 14.794-1.45 21.806 1.897 7.081 6.787 12.844 12.32 18.32.427.422.7.976.775 1.571.977 7.723 2.571 15.11 7.034 20.926 4.42 5.76 11.055 9.202 18.183 12.125.556.228 1.019.636 1.316 1.158.084.149.169.297.254.445l67.763 21.311 63.124-16.891 37.087-37.896 11.485-63.259z" fill="#d6694b"/><path d="m501.307 342.067c-.234-.554-.276-1.17-.118-1.75 2.019-7.434 3.328-14.793 1.45-21.805-1.897-7.081-6.787-12.843-12.319-18.319-.427-.423-.7-.977-.776-1.573-.977-7.723-2.571-15.109-7.034-20.925-3.444-4.488-8.234-7.569-13.554-10.094v30.64c0 4.458 1.107 8.896 3.503 12.655.929 1.457 2.019 2.815 3.255 4.039 1.513 1.498 6.099 6.037 6.879 8.95.772 2.881-.887 8.987-1.432 10.994-1.367 5.047-1 10.465 1.031 15.269 1.409 3.334 3.238 8.11 2.848 11.07-.386 2.93-3.326 7.001-5.502 9.808-3.204 4.124-4.954 9.285-4.918 14.52.019 3.52-.127 8.537-1.605 11.097-1.494 2.586-5.852 5.262-9.001 7.05-4.546 2.586-8.132 6.662-10.109 11.485-.79 1.925-3.191 7.778-5.559 9.595-2.39 1.834-8.793 2.644-10.898 2.91-5.18.656-10.051 3.059-13.719 6.767-1.49 1.505-6.028 6.09-8.939 6.871-.497.133-1.13.201-1.88.201-2.786 0-6.541-.932-9.122-1.633-.7-.19-1.4-.367-2.116-.485-4.552-.749-9.014-.229-13.138 1.512-2.957 1.249-7.223 2.907-10.195 2.907-.314 0-.604-.018-.885-.055-2.931-.386-7.001-3.325-9.807-5.501-4.082-3.17-9.186-4.919-14.366-4.919l-36.094.087c3.748 6.535 8.059 12.581 14.464 16.279 6.486 3.745 13.984 4.426 21.616 4.386.601-.003 1.186.195 1.661.564 6.03 4.678 12.394 8.702 19.819 9.679 7.498.987 14.755-1.307 21.857-4.308.554-.234 1.17-.276 1.751-.118 7.434 2.019 14.793 3.328 21.805 1.449 7.081-1.897 12.843-6.787 18.319-12.319.423-.427.977-.7 1.573-.776 7.723-.977 15.109-2.571 20.925-7.034 5.759-4.419 9.201-11.055 12.125-18.182.228-.556.636-1.02 1.159-1.317 6.704-3.807 12.942-8.168 16.723-14.718 3.745-6.486 4.426-13.984 4.386-21.616-.003-.601.195-1.186.564-1.661 4.678-6.03 8.702-12.394 9.68-19.819.988-7.499-1.306-14.756-4.307-21.857z" fill="#c4573a"/><path d="m206.66 275.864c-.053-.031-.107-.061-.16-.092-.522-.298-.929-.761-1.156-1.318-2.883-7.066-6.383-13.733-12.324-18.293-6-4.604-13.432-6.246-21.083-7.198-.596-.074-1.15-.346-1.573-.772-5.429-5.466-11.148-10.28-18.16-12.159-7.081-1.897-14.517-.544-22.025 1.509-.579.158-1.195.118-1.748-.115-7.177-3.016-14.371-5.328-21.64-4.371-7.198.948-13.496 4.973-19.592 9.684-.475.367-1.06.565-1.661.56-7.71-.055-15.293.603-21.843 4.384-6.486 3.745-10.826 9.898-14.606 16.527-.298.522-.761.929-1.318 1.156-7.066 2.883-13.733 6.383-18.293 12.324-4.604 6-6.246 13.432-7.198 21.083-.074.596-.346 1.15-.772 1.573-5.466 5.429-10.28 11.148-12.159 18.16-1.897 7.081-.544 14.516 1.509 22.025.158.579.118 1.195-.115 1.748-3.016 7.177-5.328 14.371-4.371 21.64.948 7.198 4.973 13.496 9.684 19.592.367.475.565 1.06.56 1.661-.055 7.71.603 15.293 4.384 21.843 3.745 6.486 9.898 10.826 16.527 14.606.522.298.929.761 1.156 1.318 2.883 7.066 6.383 13.733 12.324 18.293.126.096.252.191.379.285l82.739 13.223 79.314-40.391 12.485-84.087z" fill="#d6694b"/><path d="m233.285 355.115c3.016-7.177 5.328-14.371 4.371-21.64-.948-7.198-4.974-13.496-9.684-19.592-.367-.475-.565-1.06-.56-1.661.055-7.71-.603-15.293-4.384-21.843-3.714-6.433-9.799-10.755-16.367-14.515v36.208c-.036 5.216 1.696 10.356 4.877 14.482 1.286 1.664 5.155 6.671 5.546 9.632.392 2.985-2.108 8.935-2.929 10.89-2.024 4.805-2.379 10.239-.994 15.283.553 2.022 2.256 8.248 1.475 11.156-.772 2.885-5.262 7.344-6.737 8.809-3.701 3.669-6.099 8.553-6.742 13.742-.447 3.586-1.251 8.638-3.068 11.006-1.8 2.346-6.38 4.401-9.669 5.742-4.832 1.972-8.918 5.555-11.504 10.089-1.759 3.084-4.396 7.358-6.956 8.836-2.495 1.441-7.258 1.608-10.623 1.608l-.862-.003c-5.161 0-10.25 1.738-14.333 4.893-1.645 1.27-6.651 5.139-9.611 5.529-.21.027-.434.041-.683.041-2.816 0-7.174-1.695-10.208-2.969-2.899-1.216-5.95-1.831-9.08-1.831-2.089 0-4.171.28-6.185.831-2.638.721-6.476 1.682-9.297 1.682h-47.691c5.933 4.387 13.214 5.981 20.705 6.913.596.074 1.15.346 1.573.772 5.429 5.466 11.148 10.28 18.16 12.159 7.081 1.897 14.517.544 22.025-1.509.579-.158 1.195-.118 1.748.115 7.177 3.016 14.371 5.328 21.64 4.371 7.198-.948 13.496-4.974 19.592-9.684.475-.367 1.06-.565 1.661-.56 7.71.055 15.293-.603 21.843-4.384 6.486-3.745 10.826-9.898 14.606-16.527.298-.522.761-.929 1.318-1.156 7.066-2.883 13.733-6.383 18.293-12.324 4.604-6 6.246-13.432 7.198-21.083.074-.596.346-1.15.772-1.573 5.466-5.429 10.28-11.148 12.159-18.16 1.897-7.081.544-14.516-1.509-22.025-.159-.581-.119-1.197.114-1.75z" fill="#c4573a"/><path d="m323.23 116.64c0 42.721-29.004 69.871-71.725 69.871-25.33 0-43.327-4.693-57.438-23.51-9.688-12.92-15.427-28.97-15.427-46.362 0-42.721 34.632-77.353 77.353-77.353 17.391 0 33.442 5.739 46.362 15.427 18.817 14.111 20.875 36.597 20.875 61.927z" fill="#fdb441"/><path d="m189.226 348.662c0 42.721-29.004 69.871-71.725 69.871-25.33 0-43.327-4.693-57.438-23.51-9.688-12.92-15.427-28.97-15.427-46.362 0-42.721 34.632-77.353 77.353-77.353 17.391 0 33.442 5.739 46.362 15.427 18.817 14.111 20.875 36.597 20.875 61.927z" fill="#fdb441"/><path d="m457.247 348.723c0 42.721-29.004 69.871-71.725 69.871-25.33 0-43.327-4.693-57.438-23.51-9.688-12.92-15.427-28.97-15.427-46.362 0-42.721 34.632-77.353 77.353-77.353 17.391 0 33.442 5.739 46.362 15.427 18.816 14.112 20.875 36.598 20.875 61.927z" fill="#fdb441"/><g fill="#fea713"><path d="m302.355 54.714c9.688 12.92 15.427 28.97 15.427 46.362 0 42.721-34.632 77.353-77.353 77.353-17.391 0-33.442-5.74-46.361-15.428 14.11 18.817 36.596 30.992 61.925 30.992 42.721 0 77.353-34.632 77.353-77.353 0-25.33-12.174-47.815-30.991-61.926z"/><path d="m436.371 286.798c17.95 24.027 20.974 57.394 5.027 85.014-21.36 36.997-68.669 49.674-105.666 28.313-2.705-1.562-5.281-3.263-7.722-5.088 6.094 8.157 13.909 15.238 23.286 20.652 36.997 21.36 84.306 8.684 105.666-28.313 19.799-34.292 10.356-77.442-20.591-100.578z"/><path d="m189.004 310.023c-5.414-9.377-12.495-17.192-20.652-23.286 1.825 2.442 3.526 5.017 5.088 7.722 21.36 36.997 8.684 84.306-28.313 105.666-27.62 15.947-60.987 12.923-85.014-5.027 23.136 30.947 66.286 40.389 100.578 20.591 36.997-21.361 49.673-68.669 28.313-105.666z"/><path d="m273.066 161.327c-4.268 0-7.726-3.459-7.726-7.726v-11.71c0-16.524 6.435-32.058 18.118-43.742l1.213-1.212c3.017-3.017 7.909-3.016 10.927.002 3.016 3.018 3.015 7.91-.003 10.927l-1.211 1.211c-8.764 8.765-13.591 20.419-13.591 32.815v11.71c0 4.265-3.459 7.725-7.727 7.725z"/><path d="m230.399 110.126c-4.268 0-7.726-3.459-7.726-7.726s3.459-7.726 7.726-7.726c9.856 0 17.874-8.018 17.874-17.874 0-4.267 3.459-7.726 7.726-7.726 4.268 0 7.726 3.459 7.726 7.726.001 18.376-14.949 33.326-33.326 33.326z"/><path d="m238.933 144.26h-17.066c-4.268 0-7.726-3.459-7.726-7.726s3.459-7.726 7.726-7.726h17.066c4.268 0 7.726 3.459 7.726 7.726s-3.459 7.726-7.726 7.726z"/><path d="m89.841 378.685c-1.977 0-3.955-.755-5.464-2.263-3.017-3.017-3.017-7.909 0-10.927l5.489-5.489c14.106-14.105 21.873-32.858 21.873-52.806 0-4.267 3.459-7.727 7.726-7.727 4.268 0 7.726 3.459 7.726 7.726 0 24.076-9.375 46.71-26.399 63.733l-5.488 5.489c-1.508 1.509-3.486 2.264-5.463 2.264z"/><path d="m136.533 397.543c-4.268 0-7.726-3.459-7.726-7.726v-13.911c0-13.353 5.2-25.905 14.641-35.347l4.688-4.688c3.018-3.017 7.909-3.017 10.928 0 3.017 3.017 3.017 7.909 0 10.927l-4.688 4.688c-6.523 6.523-10.116 15.196-10.116 24.421v13.911c0 4.266-3.459 7.725-7.727 7.725z"/><path d="m358.399 349.06c-4.268 0-7.726-3.459-7.726-7.726s3.459-7.726 7.726-7.726c14.561 0 26.407-11.846 26.407-26.407 0-4.267 3.459-7.727 7.726-7.727s7.726 3.459 7.726 7.726c.002 23.082-18.777 41.86-41.859 41.86z"/><path d="m383.825 399.957c-.158 0-.316-.005-.476-.015-4.26-.259-7.502-3.922-7.243-8.181.725-11.938 5.783-23.17 14.24-31.628l4.999-4.999c3.018-3.017 7.909-3.017 10.928 0 3.017 3.017 3.017 7.909 0 10.927l-4.999 4.999c-5.787 5.787-9.247 13.472-9.743 21.639-.25 4.1-3.653 7.258-7.706 7.258z"/><path d="m426.666 346.04c-4.268 0-7.726-3.459-7.726-7.726v-8.562c0-4.267 3.459-7.726 7.726-7.726s7.726 3.459 7.726 7.726v8.562c0 4.267-3.458 7.726-7.726 7.726z"/></g></g><g/><g/><g/><g/><g/><g/><g/><g/><g/><g/><g/><g/><g/><g/><g/></svg>