<svg height="512" viewBox="0 0 512 512" width="512" xmlns="http://www.w3.org/2000/svg"><g id="Flat"><path d="m420.71 196.76c-11.86 50.16-42.17 95.87-73.05 136.35-26.93 35.32-56.84 69.45-90.37 98.73-7.32 6.39-14.87 12.52-22.69 18.28-53.13 39.1-122.67 57.59-175.46 7.46a112.557 112.557 0 0 1 -15.69-144.85c30.75-44.96 85.31-63.4 129.32-92.8 34.42-23 66.54-49.97 92.49-82.34 26.64-33.24 66.61-58.41 110.41-46.65a59.449 59.449 0 0 1 16.81 7.34 57.582 57.582 0 0 1 9.79 7.9c22.03 22.16 25.48 60.81 18.44 90.58z" fill="#34507b"/><path d="m420.71 196.76c-11.86 50.16-42.17 95.87-73.05 136.35-26.93 35.32-56.84 69.45-90.37 98.73-7.32 6.39-14.87 12.52-22.69 18.28-53.13 39.1-122.67 57.59-175.46 7.46a112.52 112.52 0 0 1 -30.95-51.39c142-26.88 298.62-110.36 374.08-300.01 22.03 22.16 25.48 60.81 18.44 90.58z" fill="#2f486e"/><path d="m257.352 204.471-10.873-11.739c4.331-4.011 8.581-8.126 12.631-12.23l11.39 11.241c-4.221 4.273-8.644 8.557-13.148 12.728z" fill="#395a8d"/><path d="m134.009 288.749-7.954-13.883c5.633-3.228 11.5-6.478 17.164-9.621 14.252-7.9 28.968-16.061 42.888-25.362a511.452 511.452 0 0 0 46.551-34.906l10.351 12.2a527.729 527.729 0 0 1 -48.009 36.01c-14.472 9.668-29.482 17.991-44 26.04-5.9 3.273-11.455 6.35-16.991 9.522z" fill="#395a8d"/><path d="m415.453 105.277c29.283-35.109 72.547-57.277 72.547-57.277l-8.286-24c-33.737 5.429-78.234 39.681-103.731 61.5a8.026 8.026 0 0 1 -7.784 1.476c-60.635-20.346-80.842 24.724-108.459 11.976-.718-.331-3.618-2.011-3.74-2.952 0 0 4.049 61.666 70.333 45.667 0 0-16.833 24.833-5.333 63.833 0 0 32 6.5 67.571-29.5 0 0 0 40 58 40-5.321-3-9.571-11.75-8.774-17.929a109.491 109.491 0 0 0 -22.449-82.634 8.01 8.01 0 0 1 .105-10.16z" fill="#9bbc50"/><path d="m349.9 133.406-11.8-10.812c1.249-1.363 12.488-13.43 22.351-17.491l6.092 14.794c-4.989 2.056-12.858 9.377-16.643 13.509z" fill="#a4c45a"/></g></svg>