<svg id="Capa_1" enable-background="new 0 0 512 512" height="512" viewBox="0 0 512 512" width="512" xmlns="http://www.w3.org/2000/svg"><path d="m325.465 512h-173.614c-10.469 0-19.309-7.774-20.647-18.157l-44.5-345.303h303.909l-44.5 345.303c-1.339 10.383-10.18 18.157-20.648 18.157z" fill="#e0e0e0"/><path d="m372.031 148.54-44.5 345.303c-1.338 10.383-10.178 18.157-20.647 18.157h18.581c10.469 0 19.309-7.774 20.647-18.157l44.5-345.303z" fill="#ccc"/><path d="m416.671 78.382h-67.051c-4.276 0-7.742-3.466-7.742-7.742s3.466-7.742 7.742-7.742h67.051c9.265 0 16.802-7.537 16.802-16.802s-7.537-16.802-16.802-16.802h-67.051c-4.276 0-7.742-3.466-7.742-7.742s3.466-7.742 7.742-7.742h67.051c17.802 0 32.286 14.483 32.286 32.286.001 17.802-14.483 32.286-32.286 32.286z" fill="#fc2b3a"/><path d="m358.91 70.64h-92.276v-49.228c0-11.826 9.586-21.412 21.411-21.412h49.453c11.825 0 21.411 9.586 21.411 21.412v49.228z" fill="#ff7b8b"/><path d="m337.498 0h-18.581c11.825 0 21.411 9.586 21.411 21.412v49.228h18.581v-49.228c.001-11.826-9.586-21.412-21.411-21.412z" fill="#f2667e"/><path d="m377.842 70.64h-278.368c-20.12 0-36.431 16.311-36.431 36.431v31.059c0 5.749 4.66 10.409 10.409 10.409h330.413c5.749 0 10.409-4.66 10.409-10.409v-31.059c-.001-20.12-16.312-36.431-36.432-36.431z" fill="#ff4755"/><path d="m377.842 70.64h-18.581c20.121 0 36.431 16.311 36.431 36.431v31.059c0 5.749-4.66 10.409-10.409 10.409h18.581c5.749 0 10.409-4.66 10.409-10.409v-31.059c0-20.12-16.311-36.431-36.431-36.431z" fill="#fc2b3a"/><path d="m95.947 220.27 35.256 273.573c1.339 10.383 10.179 18.157 20.648 18.157h173.614c10.469 0 19.309-7.774 20.647-18.157l35.256-273.573z" fill="#ffe55a"/><path d="m362.787 220.27-35.256 273.573c-1.338 10.383-10.178 18.157-20.647 18.157h18.581c10.469 0 19.309-7.774 20.647-18.157l35.256-273.573z" fill="#ffd91d"/><path d="m228.417 386.742c2.565 0 5.077-1.273 6.555-3.599l26.682-42.008c3.223-5.076-.554-11.916-6.548-11.916h-18.834l19.114-30.092c2.266-3.568 1.179-8.441-2.389-10.707s-8.441-1.178-10.707 2.389l-26.682 42.009c-3.223 5.076.554 11.916 6.548 11.916h18.834l-19.114 30.092c-3.211 5.055.521 11.916 6.541 11.916z" fill="#ff4755"/></svg>