<svg id="Capa_1" enable-background="new 0 0 512 512" height="512" viewBox="0 0 512 512" width="512" xmlns="http://www.w3.org/2000/svg"><path d="m371.611 501.242-19.797-56.705h-191.628l-19.797 56.705c-1.451 4.156 2.699 8.071 6.764 6.379l29.269-12.182 39.789 16.561 39.789-16.56 39.789 16.56 39.789-16.56 29.269 12.182c4.064 1.691 8.215-2.223 6.764-6.38z" fill="#ff4755"/><path d="m371.611 501.242-19.797-56.705h-18.581l19.797 56.705c.187.535.278 1.066.291 1.582l11.526 4.797c4.064 1.692 8.215-2.222 6.764-6.379z" fill="#fc2b3a"/><path d="m371.611 10.758-19.797 56.705h-191.628l-19.797-56.705c-1.451-4.156 2.699-8.071 6.764-6.379l29.269 12.182 39.789-16.561 39.789 16.56 39.789-16.56 39.789 16.56 29.269-12.182c4.064-1.691 8.215 2.223 6.764 6.38z" fill="#ff4755"/><path d="m364.847 4.378-11.526 4.797c-.013.516-.104 1.047-.291 1.582l-19.797 56.705h18.581l19.797-56.705c1.451-4.156-2.7-8.07-6.764-6.379z" fill="#fc2b3a"/><path d="m160.186 67.462h191.628v377.075h-191.628z" fill="#ffe55a"/><path d="m333.234 67.462h18.581v377.075h-18.581z" fill="#ffd91d"/><path d="m160.186 166.886h191.628v178.227h-191.628z" fill="#ff4755"/><path d="m333.234 166.886h18.581v178.227h-18.581z" fill="#fc2b3a"/><path d="m272.119 248.243h-18.122l18.536-29.183c2.266-3.568 1.179-8.441-2.389-10.707-3.568-2.265-8.441-1.178-10.707 2.389l-26.104 41.099c-3.223 5.076.553 11.917 6.548 11.917h18.121l-18.537 29.183c-2.12 3.339-1.327 7.87 1.799 10.292 3.564 2.761 8.883 1.828 11.298-1.973l26.105-41.099c3.224-5.078-.554-11.918-6.548-11.918z" fill="#ffeca1"/><g fill="#cc2539"><path d="m223.953 67.462v-24.266c0-4.276-3.466-7.742-7.742-7.742s-7.742 3.466-7.742 7.742v24.267h15.484z"/><path d="m263.742 67.462v-24.266c0-4.276-3.466-7.742-7.742-7.742s-7.742 3.466-7.742 7.742v24.267h15.484z"/><path d="m303.531 67.462v-24.266c0-4.276-3.466-7.742-7.742-7.742s-7.742 3.466-7.742 7.742v24.267h15.484z"/><path d="m208.469 444.538v24.267c0 4.276 3.466 7.742 7.742 7.742s7.742-3.466 7.742-7.742v-24.267z"/><path d="m248.258 444.538v24.267c0 4.276 3.466 7.742 7.742 7.742s7.742-3.466 7.742-7.742v-24.267z"/><path d="m288.047 444.538v24.267c0 4.276 3.466 7.742 7.742 7.742s7.742-3.466 7.742-7.742v-24.267z"/></g></svg>