<svg id="Layer_1" viewBox="0 0 245.41 290" xmlns="http://www.w3.org/2000/svg" data-name="Layer 1"><g transform="translate(-27.29 -5)"><path d="m235.42 139.63c-1.21.33-2.37 2.72-3.53 2.72-1.35 0-3.73 0-4 0s-.85 1.39-3.72 0c-4.69 3.13-21.71 77.4-26.79 110.44 1.39-3.86 8.42-27.49 10.06-31.26 7.92-18.22 15.28-40 22-52.13 2.03-3.71 4.45-26.63 5.98-29.77z" fill="#eaddc1"/><path d="m237.1 132.39c-4.25-3.51-11.31-5.32-14.86-3.65a9.41 9.41 0 0 0 -5.08 8.64c0 7.3 11.18 9.39 11.29 9.42 2.1.28 8.76 1.86 9.54.14l3.32-5.06c1.1-2.49-.43-7.09-4.21-9.49z" fill="#f4ead0"/><path d="m240 140.86v.06c-.69 1.63-1.45 3.34-2.3 5.16-1.85 4-4.07 8.36-6.78 13.25-15.68 28.36-36.16 97.29-39.77 102.82-.22.33-3.46 3.54-3.83 3.54-.09 0-1.4.33-1.49.3-.54 8.25-.94 16.69-1.93 24.71 10.27-7.29 18.32-22.4 21.76-33.92 8.45-28.32 28.38-82.38 35.09-93.4 7-11.58 15.2-35 16.85-40a20.88 20.88 0 0 1 -11-4.47c-.42 3.28-2.79 12.89-6.6 21.95z" fill="#efe3c7"/><path d="m152.17 96.27-3.42-34.51-.35-19.27c-2.64-1.12-5.15-3.53-7.73-2.86-5 1.29-10 2.91-13.25 3.31.31 7.87 10.07 50.33 10.16 50.73s2.52 19.88 3.63 26.46c.07.39 5.54 44.31 5.71 72.27 2.07 27.46 9.18 30.32 12 49.91.53-26.31 1.92-102.47-6.75-146.04z" fill="#eaddc1"/><path d="m114.31 44.64a24.37 24.37 0 0 1 3.52.88c.1 0 6 1.81 22.26-2.38 3.29-.85 6.39.3 9.38 1.6l.13.06.78.34c4.2 1.85 7.83 3.44 11.48 0 3.45-3.25 5.41-8.69 5.13-14.19-.24-4.7-2.09-8.7-5.06-11-6.76-5.18-26.13-16.32-46.13 1.24.62 1.36-1.59 3.85-1.49 4.17 2.81 5.11 2.76 11.78 0 19.28z" fill="#f4ead0"/><path d="m118.11 24a.93.93 0 0 1 -.08-.19c0-.1-3.23-10.52-13-15.76a26.34 26.34 0 0 0 -12.62-3.05 41.66 41.66 0 0 0 -12.16 2c-12.74 3.9-21.57 17-20.54 30.4 1 13 13.23 24.75 29 26.16l22.22-9.16c6.19-7.24 10.84-24 7.18-30.4z" fill="#fcf5e6"/><path d="m57.61 111.7c-2.24-8.51 1.28-9.62 3.62-11-.94-9.39-7.23-15.21-13.54-16.17a13.73 13.73 0 0 0 -2-.15c-6.27 0-13 4.14-16.27 10.27a22.57 22.57 0 0 0 -1.19 15.75 13.38 13.38 0 0 0 6.93 8.25c8.58 4.26 16.53-1.75 18.28-4.75-.21-.52 1.36-1 1.23-1.46z" fill="#fcf5e6"/><path d="m61.22 100.68c-1.79 1-9.4 5.83-7.82 13.22 66.32 31.07 72.67 170.09 72.87 175 .21.65 1.6 4.45 5 5.28 3.05.74 4.33-3.06 4.55-3.81-4-83.25-24.19-130.45-40.41-155.39-16.13-24.75-31.61-33.04-34.19-34.3z" fill="#f4ead0"/><path d="m214.48 59.46a25.55 25.55 0 0 1 -.17 4.8c-9.76 24.66-26.49 118.31-26.64 119.18l-3.2 23.36 3.06 44.81c17.88-115.8 43-180.73 46.44-186a27 27 0 0 0 -19.49-6.15z" fill="#eaddc1"/><path d="m257.14 94.78a13.61 13.61 0 0 0 -2 .14 15.55 15.55 0 0 0 -7.14 3.08 13.57 13.57 0 0 0 -5.57 9.36 19.51 19.51 0 0 0 2.92 12.56 17.07 17.07 0 0 0 11.3 5c4.15.13 7.88-1.57 11-5.07 6.82-7.58 5.4-11.93 3-16.44a15.65 15.65 0 0 0 -13.51-8.63z" fill="#fcf5e6"/><path d="m146.72 174.08c0-.27 0-.54 0-.81a924.18 924.18 0 0 0 -34-113.93c-.78-2.12-1.28-3.47-1.43-4l-.12-.38c-1.5-4.91-3.77-12.34-9.06-14.64-3-1.29-6.71-.87-11.09 1.27-4.07 2-6.47 4.65-7.14 7.92-1.36 6.63 4.7 13.73 4.76 13.8s0 0 0 .06a.84.84 0 0 1 .1.13c38.46 79.29 55.86 189.91 58.93 222.41a9 9 0 0 0 6.34 7.87 6.58 6.58 0 0 0 6.91-1.57 8.7 8.7 0 0 0 2.31-6.6c-1.77-34.17-7.31-71.79-16.14-110.88a.88.88 0 0 1 -.37-.65z" fill="#f4ead0"/><path d="m177.82 91c7.15-8.63 7.58-17.94 3.46-24.19-4.44-6.72-14.39-10.15-23.14-8-4.54 1.13-11.2 5.47-14.6 11.31a15.68 15.68 0 0 0 -1.73 12.51 17.25 17.25 0 0 0 11.28 12.1.87.87 0 0 1 .29.1c1.75.58 4.73 1.83 5.51 1.91 6.88-6.94 15.91-6.67 18.93-5.74z" fill="#fcf5e6"/><path d="m177.82 91c-2.49-.83-14.36-4.15-18.93 5.78 21 62.57 17 155.58 15.62 186.18-.09 2.13-.17 3.94-.23 5.38a6.38 6.38 0 0 0 3.89 6.29 4.93 4.93 0 0 0 4.65-.51 6.37 6.37 0 0 0 2.75-4.58c11.23-85.36-6.34-190.35-7.75-198.54z" fill="#f4ead0"/><path d="m218.79 61.27a23.29 23.29 0 0 1 15.51 5.82c3.69 3.09 7.51 3.23 10.77.39 4.87-4.24 7.08-14.13 2.75-21-5.69-9.07-13.35-13-24.13-12.4-6.89.39-12.85 3.16-16.79 7.8a14.36 14.36 0 0 0 -3.07 5.58c-2.15 8.16 3.85 12.91 5.73 14.17.64.42 2.21.23 4 0a40.93 40.93 0 0 1 5.23-.36z" fill="#f4ead0"/><path d="m146 84a2.44 2.44 0 0 0 4 .82 29.62 29.62 0 0 1 12.58-7.32 28.49 28.49 0 0 1 14-.07 2.44 2.44 0 0 0 3-2.86c-1.27-5.71-5.65-15.29-20.69-12.42 0 0-14.21 5.36-13.91 17.12a18.67 18.67 0 0 0 1.02 4.73z" fill="#fffcf8"/><path d="m66 45.55a2.08 2.08 0 0 0 3.63-.75c1.45-5.08 7.27-11 17.71-14.82 10.15-3.73 18.66-2.14 24 1.34a2.07 2.07 0 0 0 3.17-2.11c-1.41-7.71-6.69-21.81-26.24-20.51 0 0-17.27 1.94-23.07 18.3-3.54 10-1.39 15.65.8 18.55z" fill="#fffcf8"/><path d="m123.43 31.92s5 0 15.29-.74 21.91 6.82 23.83 2.82-1.06-12.84-9.84-16.12-23.07-4-31.4 4.17c0 .05 3.05 4.66 2.12 9.87z" fill="#fcf4e3"/><path d="m207.75 47.85a2.16 2.16 0 0 0 2.57 2.57c3.87-.86 11.22-1.9 17.26.71 8.63 3.72 15.63 10.64 17.27 10.49s4.91-11.23-1.64-16.59-16.55-10.5-30-4.57a2.33 2.33 0 0 0 -.48.29c-.88.67-4.09 3.36-4.98 7.1z" fill="#fcf4e3"/><path d="m36.84 115.64s4.91.45 4.47-4c-.36-3.55 4.62-12 9.4-15.37a3.68 3.68 0 0 0 .23-6c-2.58-1.87-7-2.82-14.1 1 0 0-6.18 4.37-5.8 14.51s5.8 9.86 5.8 9.86z" fill="#fffcf8"/><path d="m250.43 107.53a3 3 0 0 1 -2-5 12.56 12.56 0 0 1 12.57-3.86c6.47 1.4 7.75 6.69 7.65 11a3 3 0 0 1 -4.74 2.34 27.46 27.46 0 0 0 -13.48-4.48z" fill="#fffcf8"/><path d="m222.1 133c1.64-1.34 4.82-2.69 10.09-.38a22 22 0 0 1 5.8 5.3l-1.12 4.3s-6.12-6-14.26-7.36a1.06 1.06 0 0 1 -.51-1.86z" fill="#fcf4e3"/></g></svg>