<svg id="Fennel" enable-background="new 0 0 64 64" viewBox="0 0 64 64" xmlns="http://www.w3.org/2000/svg"><g><g><path d="m14.56869 24.66442c-.26607 0-.52946-.11518-.71071-.3375-.90982-1.11964-2.08929-2.01786-3.41161-2.59822-.81696-.35982-1.69107-.60268-2.59821-.72232-.50089-.06518-.85357-.525-.7875-1.025.06429-.50089.51786-.85179 1.025-.7875 1.08036.14196 2.12232.43125 3.09732.86071 1.58571.69643 3.00179 1.775 4.09464 3.11875.31786.39196.25893.96786-.13304 1.28661-.16964.13751-.37321.20447-.57589.20447z" fill="#579c35"/><path d="m18.4294 13.82603c-.05446 0-.11071-.00446-.16607-.01518-.49732-.09107-.825-.56786-.73393-1.06429.27321-1.48482.82857-2.86429 1.65178-4.10179.48571-.72946 1.06161-1.40089 1.71161-1.99554.37232-.34196.95-.31518 1.29107.05625.34107.37321.31607.95089-.05625 1.29196-.54107.49554-1.02053 1.05446-1.42411 1.65982-.68482 1.03036-1.14732 2.18125-1.37589 3.41964-.08124.44109-.46517.74913-.89821.74913z" fill="#579c35"/><path d="m23.57455 43.48782c-1.57863 0-3.09907-.87141-3.85283-2.38022-2.76938-5.53876-5.04229-11.35938-6.75538-17.30153-1.60966-5.58272-2.74611-11.35033-3.37834-17.1425-.25858-2.36212 1.44804-4.48635 3.81016-4.74363 2.35824-.26763 4.48635 1.44675 4.74363 3.81016.57922 5.30216 1.62 10.58106 3.0939 15.69187 1.56828 5.43921 3.64855 10.76723 6.18392 15.83797 1.06276 2.12552.2004 4.71002-1.92512 5.77278-.6167.309-1.27349.4551-1.91994.4551z" fill="#75d64c"/></g><g><path d="m34.49369 24.66442c-.14465 0-.29107-.03393-.42679-.10625-.44643-.23571-.61786-.78839-.38125-1.23482.70803-1.34196 1.65625-2.48393 2.81518-3.39286.75179-.58839 1.58036-1.06696 2.46607-1.425.46786-.18661 1 .0375 1.19107.50625.18929.46786-.0375 1.00089-.50536 1.19018-.72857.29286-1.40893.68571-2.02322 1.16786-.95536.74911-1.73928 1.69375-2.32679 2.80714-.16427.31071-.48212.4875-.80891.4875z" fill="#579c35"/><path d="m27.87583 17.05996c-.27411 0-.54464-.12232-.725-.35625-.59018-.76607-1.30357-1.40179-2.11964-1.88929-.51786-.30982-1.07589-.55803-1.65804-.73661-.48214-.14821-.75357-.65982-.60536-1.14286.14911-.48125.65982-.75357 1.14286-.60536.72321.22232 1.41607.53036 2.05893.91518 1.01339.60625 1.89821 1.39464 2.62947 2.34286.30803.4.23393.97411-.16607 1.28214-.16608.12858-.36251.19019-.55715.19019z" fill="#579c35"/><path d="m34.62622 44.14202c-1.9096 0-3.65372-1.27996-4.15924-3.21414-1.56828-5.98223-2.59226-12.14675-3.04477-18.32291-.42536-5.8051-.34908-11.6839.22626-17.4709.23531-2.36471 2.33885-4.09331 4.70743-3.85671 2.3647.23531 4.09201 2.34273 3.8567 4.70743-.5275 5.29699-.59732 10.67802-.20816 15.99182.41502 5.65254 1.35237 11.29473 2.78619 16.77144.60249 2.29877-.77315 4.65054-3.07192 5.25174-.36459.09569-.73177.14223-1.09249.14223z" fill="#75d64c"/></g><g><path d="m49.54548 26.87514c-.25179 0-.50179-.10357-.68214-.30536-.33571-.37679-.30357-.95536.07322-1.29107 1.175-1.04732 2.48571-1.92143 3.89821-2.6.95179-.45625 1.94822-.82322 2.96429-1.09196.49464-.13214.98929.16339 1.11786.65.12857.48839-.1625.98839-.65 1.11786-.90536.23929-1.79286.56697-2.64107.97232-1.25714.60446-2.42678 1.38393-3.47143 2.31607-.17502.15535-.39287.23214-.60894.23214z" fill="#579c35"/><path d="m46.96512 12.24567c-.2625 0-.52322-.1125-.70357-.33125-.66607-.80357-1.40536-1.54375-2.2-2.20089-.52143-.42857-1.07679-.83304-1.65179-1.2-.425-.27232-.55-.8375-.27678-1.2625.27143-.42768.8375-.54821 1.2625-.27857.63572.40714 1.25179.85446 1.83036 1.33125.88393.73036 1.70536 1.55268 2.44286 2.44464.32322.38929.26786.96518-.12143 1.2875-.16965.14107-.37679.20982-.58215.20982z" fill="#579c35"/><path d="m40.74808 44.55704c-.64645 0-1.30324-.1461-1.92124-.45639-2.12552-1.06276-2.98659-3.64725-1.92253-5.77278 2.77197-5.54393 5.04876-11.37231 6.76314-17.32351 1.61483-5.59694 2.75257-11.37102 3.3848-17.16577.25599-2.36083 2.36858-4.08296 4.74363-3.81016 2.36212.25729 4.06874 2.38022 3.81016 4.74363-.68394 6.28347-1.91866 12.54626-3.66924 18.6164-1.86047 6.45413-4.32861 12.7751-7.33718 18.78965-.75376 1.50752-2.27291 2.37893-3.85154 2.37893z" fill="#75d64c"/></g><g><path d="m11.94322 50.45967c2.83085 9.71534 12.14136 12.13616 19.45512 9.54678 6.30056-2.23066 10.96033-7.38091 8.8313-16.06467-2.60912-10.64192-12.54622-17.28507-21.15881-14.54061-6.60648 2.10519-9.9539 11.35878-7.12761 21.0585z" fill="#ffe48d"/><path d="m38.73408 54.75518c-1.70067 2.45022-4.33393 4.18739-7.33259 5.24799-1.11563.40223-2.26741.67656-3.45603.82288-6.54621.85938-13.60469-2.13951-16-10.36808-2.83437-9.69141.51183-18.94397 7.13147-21.06507 2.57812-.82288 5.26607-.80457 7.84464-.09152-1.49955 2.54174-2.37723 5.52232-2.37723 8.68571 0 .67667.03661 1.35324.1279 2.0115.87791 7.51541 6.65603 13.53137 14.06184 14.75659z" opacity=".15"/></g><g><path d="m53.42335 52.54189c-3.085 10.58756-13.23139 13.22572-21.20176 10.40387-6.86621-2.43093-11.94432-8.04355-9.62415-17.50692 2.84336-11.59733 13.6726-18.83689 23.0584-15.84604 7.1996 2.29419 10.84754 12.37855 7.76751 22.94909z" fill="#ffedad"/><path d="m54.1305 49.43398c-.16451 1.02399-.40223 2.0663-.71295 3.10859-3.0721 10.58739-13.22076 13.22054-21.1933 10.40458-1.53594-.54855-2.98058-1.24342-4.27879-2.12109-4.49844-3.01719-7.14978-8.04576-5.33951-15.37835.47545-1.95658 1.17031-3.78516 2.0663-5.4491.8779 7.5154 6.65603 13.53136 14.06183 14.75658.91428.16451 1.86518.23772 2.81607.23772 4.99196 0 9.47187-2.13951 12.58035-5.55893z" opacity=".15"/></g></g></svg>