<svg id="Capa_1" enable-background="new 0 0 512 512" viewBox="0 0 512 512" xmlns="http://www.w3.org/2000/svg"><g><path d="m269.601 131.833c-14.428-8.061-27.667-17.698-39.651-28.643l17.944 25.298c20.9 28.401 32.173 62.739 32.173 98.001 0 28.791-7.518 57.083-21.809 82.077-16.844 29.457-43.43 52.12-75.182 64.088l-11.607 4.375h42.595c71.174 0 128.872-57.698 128.872-128.872h-17.624c0-44.032-4.464-82.899-38.159-106.145-5.554-3.83-11.416-7.244-17.552-10.179z" fill="#a274bf"/><path d="m171.467 377.029h42.595c71.174 0 128.872-57.698 128.872-128.872 0-44.032-22.089-82.899-55.783-106.145-5.601 8.789-11.733 16.952-18.363 24.472 7.405 19.014 11.279 39.35 11.279 60.005 0 28.791-7.518 57.083-21.809 82.077-16.844 29.457-43.43 52.12-75.182 64.088z" fill="#925cb4"/><path d="m258.257 308.565c14.292-24.993 17.224-52.207 17.224-80.998 0-24.204 6.773-45.807-2.374-66.161-4.179-9.299-9.473-18.337-16.027-27.244l-27.13-30.972c-21.463-19.601-38.888-43.409-51.803-69.972-1.282-2.638-3.816-4.4-6.68-4.762l-10.013 50.737v262.785l10.013 35.052 11.607-4.375c31.752-11.97 58.339-34.633 75.183-64.09z" fill="#b289c9"/><path d="m222.698 203.974c-24.489 11.583-45.516 29.208-61.244 51.24v86.764l10.013 35.052 11.607-4.375c31.752-11.968 58.338-34.632 75.182-64.088 14.292-24.993 27.805-52.207 27.805-80.998 0-24.204-3.809-45.807-12.956-66.161-14.302 17.419-31.147 31.663-50.407 42.566z" fill="#a274bf"/><path d="m170.377 28.379c-3.318 0-6.354 1.891-7.792 4.882-12.358 25.695-27.757 48.594-47.31 67.648l-32.191 33.254c-20.9 28.401-29.496 63.953-29.496 99.215 0 28.791 13.864 56.613 28.156 81.606 16.844 29.457 46.365 45.702 78.117 57.671l-11.974-26.778 23.581-103.291v-214.131c-.36-.045-.723-.076-1.091-.076z" fill="#a274bf"/><path d="m171.467 377.029v-134.444c-5.026 5.715-9.666 11.8-13.859 18.236-16.738 25.693-25.586 55.541-25.586 86.317 0 4.572.206 9.096.588 13.571 8.711 4.505 17.881 8.414 27.249 11.945z" fill="#925cb4"/><path d="m84.678 308.565c-14.292-24.993-21.81-53.286-21.81-82.077 0-35.262 11.273-69.6 32.173-98.001l20.234-27.579c-11.897 11.594-25.33 21.766-40.557 30.274v-.001c-44.119 20.459-74.718 65.144-74.718 116.976 0 71.174 57.698 128.872 128.872 128.872h5.994l18.977-2.427 2.393-1.948c-9.656-3.64-15.209-8.268-23.781-13.776-19.616-12.605-36.055-29.814-47.777-50.313z" fill="#b289c9"/><path d="m134.866 377.029h36.601l-11.607-4.375c-9.656-3.64-18.83-8.274-27.402-13.782.453 6.157 1.267 12.214 2.408 18.157z" fill="#a274bf"/><path d="m236.171 230.162c-44.119 20.46-74.717 65.144-74.717 116.976 0 71.174 57.698 128.872 128.872 128.872h85.19c71.174 0 128.872-57.698 128.872-128.872 0-51.288-29.96-95.578-73.333-116.324-40.548-22.654-71.76-57.705-91.874-99.483-1.162-2.414-3.579-3.972-6.259-3.972-2.681 0-5.1 1.558-6.261 3.975-20.034 41.738-49.944 76.175-90.49 98.828z" fill="#f8f6f6"/><g><path d="m431.055 230.814c-8.124-4.539-15.866-9.583-23.227-15.072 14.869 17.403 26.371 38.793 33.004 61.852 4.306 14.969 6.473 30.337 6.473 46.807 0 45.111-16.358 84.86-44.374 114.175-15.172 15.875-34.48 29.426-54.825 37.434h27.41c71.174 0 128.872-57.698 128.872-128.872 0-51.288-29.959-95.578-73.333-116.324z" fill="#ebebeb"/></g><path d="m375.516 483.621h-85.19c-75.257 0-136.484-61.226-136.484-136.484 0-52.867 30.943-101.411 78.861-123.757 37.525-21.032 66.825-53.106 87.097-95.339 2.42-5.038 7.571-8.293 13.123-8.293 5.546 0 10.695 3.25 13.117 8.28 20.028 41.599 50.636 74.8 88.522 96.025 22.809 10.96 42.109 28.021 55.827 49.351 14.138 21.985 21.611 47.482 21.611 73.733 0 75.258-61.226 136.484-136.484 136.484zm-44.288-344.322c-21.603 42.913-52.312 75.701-91.343 97.508-.167.085-.335.17-.502.255-42.716 19.804-70.318 63.012-70.318 110.074 0 66.864 54.397 121.261 121.261 121.261h85.19c66.863 0 121.261-54.397 121.261-121.261 0-46.44-27.084-89.402-69-109.455-.145-.075-.29-.15-.434-.224-39.3-21.956-71.268-55.827-92.717-98.163-.709-1.399-2.692-1.397-3.398.005zm-95.057 90.863h.01z" fill="#b289c9"/><path d="m383.411 442.074c-6.866.001-13.53-1.993-19.274-5.765l-18.283-12.007c-2.837-1.863-6.012-3.206-9.368-3.723-5.709-.879-11.404.376-16.137 3.485l-18.645 12.245c-5.743 3.772-12.407 5.765-19.274 5.765-1.513 0-3.043-.1-4.544-.296-47.323-6.188-83.008-46.874-83.008-94.64 0-37.047 21.728-71.06 55.355-86.654l2.235-1.141c29.604-16.539 55.092-38.837 75.759-66.279l3.326-4.416c.757-1.005 2.263-1.009 3.026-.009l3.353 4.395c21.208 27.8 47.054 50.328 76.82 66.958l1.882.975c8.999 4.304 16.781 10.339 24.197 16.626 13.805 11.703 27.38 41.691 27.38 68.282 0 42.579-37.876 83.697-65.281 92.701-4.795 1.575-9.836 2.53-14.976 3.202-1.5.196-3.028.296-4.543.296z" fill="#f07281"/><path d="m440.824 277.603c4.209 14.814 6.481 30.522 6.481 46.798 0 44.567-16.957 84.917-44.381 114.151 39.676-11.908 68.04-48.838 68.04-91.415 0-26.59-11.29-51.726-30.14-69.534z" fill="#eb5569"/><g><g><path d="m332.922 271.395c-4.204 0-7.611-3.408-7.611-7.612v-18.929c0-4.204 3.407-7.611 7.611-7.611s7.612 3.408 7.612 7.611v18.929c-.001 4.204-3.408 7.612-7.612 7.612z" fill="#e53950"/></g><g><path d="m289.292 306.614c-2.237 0-4.453-.982-5.956-2.867l-11.801-14.8c-2.62-3.287-2.08-8.076 1.206-10.697 3.286-2.62 8.076-2.08 10.697 1.206l11.801 14.8c2.62 3.287 2.08 8.076-1.206 10.697-1.402 1.118-3.078 1.661-4.741 1.661z" fill="#eb5569"/></g><g><path d="m307.954 351.14c-1.771 0-3.55-.614-4.991-1.868l-14.284-12.42c-3.172-2.758-3.508-7.566-.75-10.738s7.567-3.508 10.738-.75l14.284 12.42c3.172 2.758 3.508 7.566.75 10.738-1.505 1.732-3.62 2.618-5.747 2.618z" fill="#e53950"/></g><g><path d="m357.888 351.14c-2.127 0-4.242-.886-5.747-2.617-2.758-3.172-2.422-7.98.75-10.738l14.284-12.42c3.171-2.758 7.98-2.424 10.738.75 2.758 3.172 2.422 7.98-.75 10.738l-14.284 12.42c-1.441 1.253-3.22 1.867-4.991 1.867z" fill="#e53950"/></g><g><path d="m296.472 406.289c-.722 0-1.456-.104-2.183-.321-4.028-1.204-6.316-5.445-5.112-9.473l5.423-18.135c1.204-4.028 5.444-6.316 9.473-5.112 4.028 1.204 6.316 5.445 5.112 9.473l-5.423 18.135c-.988 3.301-4.014 5.433-7.29 5.433z" fill="#eb5569"/></g><g><path d="m249.459 334.507c-1.291 0-2.6-.329-3.799-1.021l-16.393-9.464c-3.641-2.102-4.888-6.757-2.786-10.397s6.757-4.889 10.397-2.786l16.392 9.464c3.641 2.102 4.888 6.757 2.787 10.397-1.409 2.442-3.967 3.807-6.598 3.807z" fill="#eb5569"/></g><g><path d="m231.537 393.325c-2.486 0-4.922-1.216-6.382-3.453-2.297-3.52-1.305-8.237 2.216-10.534l15.853-10.343c3.52-2.297 8.236-1.306 10.534 2.216 2.297 3.52 1.305 8.236-2.216 10.534l-15.853 10.343c-1.284.837-2.726 1.237-4.152 1.237z" fill="#e53950"/></g><g><path d="m376.55 306.614c-1.664 0-3.338-.543-4.74-1.661-3.286-2.621-3.827-7.41-1.206-10.697l11.801-14.8c2.621-3.287 7.408-3.826 10.697-1.206 3.286 2.621 3.827 7.41 1.206 10.697l-11.801 14.8c-1.504 1.885-3.72 2.867-5.957 2.867z" fill="#eb5569"/></g><g><path d="m369.372 406.289c-3.276 0-6.302-2.132-7.289-5.433l-5.424-18.135c-1.204-4.027 1.084-8.269 5.111-9.473 4.026-1.204 8.269 1.084 9.474 5.112l5.424 18.135c1.204 4.027-1.084 8.269-5.111 9.473-.728.218-1.463.321-2.185.321z" fill="#eb5569"/></g><g><path d="m416.384 334.507c-2.63 0-5.188-1.365-6.599-3.807-2.102-3.64-.854-8.296 2.786-10.397l16.392-9.464c3.639-2.103 8.294-.855 10.397 2.786 2.102 3.64.854 8.296-2.786 10.397l-16.392 9.464c-1.198.692-2.507 1.021-3.798 1.021z" fill="#eb5569"/></g><g><path d="m434.306 393.325c-1.426 0-2.868-.4-4.153-1.238l-15.853-10.343c-3.52-2.297-4.512-7.013-2.215-10.534s7.014-4.512 10.534-2.216l15.853 10.343c3.52 2.297 4.512 7.013 2.215 10.534-1.459 2.238-3.895 3.454-6.381 3.454z" fill="#e53950"/></g></g></g><g/><g/><g/><g/><g/><g/><g/><g/><g/><g/><g/><g/><g/><g/><g/></svg>