<svg id="Layer_1" enable-background="new 0 0 511.999 511.999" height="512" viewBox="0 0 511.999 511.999" width="512" xmlns="http://www.w3.org/2000/svg"><g><path d="m200.997 0h110.006v86.407h-110.006z" fill="#ff6326"/><path d="m256 0h55.003v86.407h-55.003z" fill="#ff1f3d"/><path d="m158.384 436.995h195.23v60.004h-195.23z" fill="#824231"/><path d="m256 436.995h97.615v60.004h-97.615z" fill="#623025"/><path d="m368.615 511.999h-225.231v-75.003h30v45.003h165.231v-45.003h30z" fill="#9e5b48"/><path d="m368.615 511.999v-75.003h-30v45.003h-82.615v30z" fill="#824231"/><path d="m353.615 277.12v-10.001l-21.031-38.25c-23.999-43.648-36.582-92.652-36.582-142.462v-11.403h-80.005v11.403c0 49.811-12.583 98.814-36.582 142.462l-21.031 38.25v10.001z" fill="#824231"/><path d="m353.615 267.119-21.031-38.25c-23.999-43.648-36.582-92.652-36.582-142.462v-11.403h-40.002v202.116h97.615z" fill="#623025"/><path d="m368.615 277.12h-30v-6.148l-19.176-34.875c-24.569-44.688-37.821-95.122-38.416-146.093h-50.047c-.595 50.971-13.847 101.405-38.416 146.093l-19.176 34.875v6.148h-30v-13.853l22.887-41.625c22.719-41.32 34.727-88.084 34.727-135.235v-26.404h110.004v26.403c0 47.151 12.008 93.915 34.727 135.236l22.887 41.625v13.853z" fill="#9e5b48"/><path d="m368.615 277.12v-13.853l-22.887-41.625c-22.719-41.321-34.727-88.084-34.727-135.236v-26.403h-55.001v30h25.023c.595 50.971 13.847 101.405 38.416 146.093l19.176 34.875v6.148h30z" fill="#824231"/><path d="m143.384 263.267h225.23v188.729h-225.23z" fill="#ff6326"/><path d="m256 263.267h112.615v188.729h-112.615z" fill="#ff1f3d"/><path d="m317.077 344.732-21.213-21.213-11.302 11.302c-8.457-8.385-20.986-17.301-36.03-17.301-26.776 0-45.588 28.248-47.646 31.469l-5.155 8.073 5.155 8.073c2.057 3.221 20.868 31.47 47.646 31.47 15.044 0 27.573-8.916 36.03-17.302l11.302 11.303 21.213-21.213-12.33-12.33z" fill="#ffffd0"/><path d="m256 395.874c11.73-2.294 21.547-9.615 28.562-16.571l11.302 11.303 21.213-21.213-12.33-12.33 12.33-12.33-21.213-21.213-11.302 11.302c-7.015-6.955-16.832-14.276-28.562-16.57z" fill="#fff17d"/></g></svg>