<svg id="Flat" height="512" viewBox="0 0 512 512" width="512" xmlns="http://www.w3.org/2000/svg"><path d="m384 408-45.13-45.13a38 38 0 0 1 0-53.74l17.553-17.553a39 39 0 0 0 0-55.154l-17.553-17.553a38 38 0 0 1 0-53.74l17.553-17.553a39 39 0 0 0 0-55.154l-44.423-44.423h-176v16l48 48v16l-40 40v48l40 40v24l-40 40v32l56 56z" fill="#f9c468"/><path d="m407.464 271.833-15.924-1.562c.2-2.066.306-4.175.306-6.271a64.785 64.785 0 0 0 -.393-7.113l15.9-1.77a80.65 80.65 0 0 1 .492 8.883c.001 2.615-.128 5.251-.381 7.833z" fill="#ccdce5"/><path d="m388.072 242.413a62.474 62.474 0 0 0 -14.678-22.96l-17.553-17.553a14.018 14.018 0 0 1 0-19.8l17.554-17.554a62.59 62.59 0 0 0 18.451-44.546 63.728 63.728 0 0 0 -1.6-14.221l15.595-3.576a79.793 79.793 0 0 1 2 17.8 78.479 78.479 0 0 1 -23.139 55.861l-16.134 16.136 16.139 16.139a78.358 78.358 0 0 1 18.4 28.8z" fill="#ccdce5"/><path d="m148.686 52.686 39.737 39.737a39 39 0 0 1 0 55.154l-17.553 17.553a38 38 0 0 0 0 53.74l17.553 17.553a39 39 0 0 1 0 55.154l-17.553 17.553a38 38 0 0 0 0 53.74l45.13 45.13h-45.255l-22.5-22.5a69.541 69.541 0 0 1 -20.5-49.6 71.2 71.2 0 0 1 21.154-50.042l16.9-16.9a7 7 0 0 0 0-9.9l-16.9-16.9a71.2 71.2 0 0 1 -21.154-50.042 69.541 69.541 0 0 1 20.5-49.6l17.555-17.566a7 7 0 0 0 0-9.9l-39.741-39.736c-10.079-10.08-2.941-27.314 11.314-27.314a16 16 0 0 1 11.313 4.686z" fill="#ecaf4a"/><g fill="#a3783b"><path d="m272 72v-32a16 16 0 0 0 -16-16 16 16 0 0 0 -16 16v32z"/><path d="m240 160h32v64h-32z"/><path d="m240 304h32v64h-32z"/></g><path d="m240 160h32v16h-32z" fill="#8e672c"/><path d="m240 304h32v16h-32z" fill="#8e672c"/><path d="m240 408h32v88h-32z" fill="#a3783b"/><path d="m240 408h32v16h-32z" fill="#8e672c"/></svg>