<svg id="Layer_1" enable-background="new 0 0 53 53" height="512" viewBox="0 0 53 53" width="512" xmlns="http://www.w3.org/2000/svg"><g id="_x37_4"><g><path d="m22.0630245 13.7686815c0 2.4500132-1.9900513 4.4400034-4.4400024 4.4400034-3.166316 0-5.2380066-3.1872826-4.1800547-5.9500132 1.3834667-3.9005594 6.9590731-3.9220896 8.3500376 0 .1799927.4700318.2700195.9800416.2700195 1.5100098z" fill="#e83d62"/></g><g><path d="m22.0630245 13.7686815c0 2.0800171-1.4300537 3.8200083-3.3600464 4.2999887-.1699829.0500488-.3499756.0800171-.5299683.1000366-.1799927.0299683-.3699951.039978-.5499878.039978-2.9965229 0-5.128293-2.9233007-4.2700205-5.6699839.0200195-.0999756.0499878-.1900024.0899658-.2800293.7836313-2.196517 3.1327543-3.3533001 5.2600107-2.789978-1.0161018.2524652-1.8928013.8554277-2.494339 1.6731596-1.1464052 1.5584221.9036732 3.4957457 2.4821491 2.2610931.8626022-.6747103 1.938942-1.0901585 3.1022167-1.1442747.1799929.4700319.2700197.9800417.2700197 1.5100099z" fill="#ce2955"/></g><g><path d="m30.9529781 13.7686815c0 2.4500132-1.9899902 4.4400034-4.4499512 4.4400034-2.4500122 0-4.4400024-1.9899902-4.4400024-4.4400034 0-.5299683.0899658-1.039978.2699585-1.5100098 1.3890896-3.9168081 6.964407-3.9066534 8.3500366 0 .1799927.4700318.2699585.9800416.2699585 1.5100098z" fill="#e83d62"/></g><g><path d="m39.8329811 13.7686815c0 2.4500132-1.9899902 4.4400034-4.4400024 4.4400034s-4.4400005-1.9899902-4.4400005-4.4400034c0-.5299683.0900269-1.039978.2700195-1.5100098 1.3858547-3.9076824 6.9516277-3.9144669 8.3400249 0 .1799927.4700318.2699585.9800416.2699585 1.5100098z" fill="#e83d62"/></g><g><path d="m39.8329811 13.7686815c0 2.0700073-1.4299927 3.8200083-3.3499756 4.2999887-.1799927.0500488-.3500366.0800171-.5300293.1000366-.1900024.0299683-.3699951.039978-.5599976.039978-2.4500122 0-4.4400005-1.9899902-4.4400005-4.4400034 0-.1300049.0100098-.2600098.0200195-.3900146.0100098-.1199951.0200195-.2299805.039978-.3399658.0300293-.1699829.0700073-.3400269.1199951-.5.0200195-.0999756.0500488-.1900024.0900269-.2800293.7560673-2.1194725 3.0249767-3.3648119 5.2600079-2.789978-1.0229645.2462797-1.9023895.8474245-2.5048141 1.6649656-.5199509.7056208-.3861313 1.7231979.3064194 2.260437.0074196.0057554.0148239.0115299.022213.0173244.6423836.503746 1.5136757.4915762 2.1570625-.0108948.8620987-.6732836 1.9372559-1.0878029 3.0991364-1.1418543.1799926.4700319.2699584.9800417.2699584 1.5100099z" fill="#ce2955"/></g><g><path d="m30.9529781 13.7686815c0 2.0700073-1.4299927 3.8200083-3.3599854 4.2999887-.1699829.0500488-.3499756.0800171-.5299683.1000366-.1800537.0299683-.3700562.039978-.5599976.039978-2.4500122 0-4.4400024-1.9899902-4.4400024-4.4400034 0-.1300049.0099487-.2600098.0199585-.3900146.0100098-.1199951.0200195-.2299805.0400391-.3399658.0299683-.1699829.0699463-.3400269.1199951-.5.0199585-.0999756.0599976-.1900024.0899658-.2800293.7563076-2.1201429 3.0258999-3.3646746 5.2600098-2.789978-1.0168076.2463188-1.8940182.8476143-2.4955921 1.6653538-.5192375.7058163-.3852978 1.7228889.3070641 2.2599363.0074196.0057545.0148239.011529.022213.0173235.6425056.5037947 1.5139008.4916077 2.1573982-.0109196.8620529-.6732016 1.9371414-1.0876675 3.0989437-1.141716.1799927.4700318.2699585.9800416.2699585 1.5100098z" fill="#ce2955"/></g><g><path d="m17.6130123 17.6887264c0 2.4599609-1.9899912 4.4499512-4.4400034 4.4499512-2.8648548 0-4.9050589-2.6791782-4.3800049-5.1999512.3499756-2.0900278 2.1799927-3.6900034 4.3800049-3.6900034 2.1900024 0 4.0199594 1.5999756 4.3699961 3.6900034.0499878.2399903.0700073.4899903.0700073.75z" fill="#e83d62"/></g><g><path d="m14.2610826 21.9881039c.0006714.0001831.0012207.0004272.0018921.0006104-.003479.0009155-.007019.0012207-.010498.0020752-.1367798.0344238-.2752686.0595703-.416748.0809326-.1253662.0196533-.2542114.0302734-.3834229.0387573-.0941772.0059814-.1836548.0281982-.2792969.0281982-2.7301702 0-4.9088335-2.5090446-4.3699951-5.1999512.4208574-2.5133238 2.9292011-4.2006149 5.4599609-3.5500498-2.2780666.5541468-4.23104 3.1946306-2.3255053 4.5985918.0422554.0311337.0840502.062851.1253738.0951424.6301651.4924488 1.5201073.565836 2.1416445.0625439.9165096-.7421494 2.0785246-1.1922588 3.3385172-1.2062283.0499878.2399902.0700073.4899902.0700073.75.0000001 2.0809326-1.4300536 3.8111573-3.3519296 4.2993775z" fill="#ce2955"/></g><g><path d="m26.503027 17.6887264c0 2.4599609-1.9900513 4.4499512-4.4500122 4.4499512-2.4500122 0-4.4400024-1.9899902-4.4400024-4.4499512 0-.2600098.0199585-.5100098.0700073-.75.3499756-2.0900278 2.1799927-3.6900034 4.3699951-3.6900034 2.2000122 0 4.0299683 1.5999756 4.3800049 3.6900034.0499877.2399903.0700073.4899903.0700073.75z" fill="#e83d62"/></g><g><path d="m35.3829689 17.6887264c0 2.4599609-1.9899902 4.4499512-4.4400005 4.4499512-2.4499512 0-4.4399414-1.9899902-4.4399414-4.4499512 0-.2600098.0199585-.5100098.0699463-.75.3500366-2.0900278 2.1800537-3.6900034 4.3699951-3.6900034 2.1900005 0 4.0200176 1.5999756 4.3700542 3.6900034.0499878.2399903.0699463.4899903.0699463.75z" fill="#e83d62"/></g><g><path d="m44.2729836 17.6887264c0 2.4599609-1.9899902 4.4499512-4.4400024 4.4499512-2.4599609 0-4.4500122-1.9899902-4.4500122-4.4499512 0-.2600098.0200195-.5100098.0700073-.75.3500366-2.0900278 2.1799927-3.6900034 4.3800049-3.6900034 2.1900024 0 4.0200195 1.5999756 4.3699951 3.6900034.0500488.2399903.0700073.4899903.0700073.75z" fill="#e83d62"/></g><g><path d="m8.8030138 16.9387264c-.0200195.0999756-.0400391.1999512-.0499878.2999878 0-.1000366.0199585-.2000122.039978-.2999878z" fill="#ce2955"/></g><g><path d="m23.1429195 21.9887142h.000061c-.0001221.000061-.0002441 0-.0003662.000061-.1382446.0349731-.2781372.0609741-.4212036.0826416-.131897.020752-.2650146.0319214-.4003296.0402832-.0904541.0054932-.1762085.0269775-.2680664.0269775-1.2300415 0-2.3400269-.5-3.1400146-1.3099976-.8099976-.8099976-1.2999878-1.9099731-1.2999878-3.1399536 0-.1300049.0100098-.2600098.0199585-.3800049.0100098-.1300049.0300293-.25.0500488-.3699951.3499756-2.0900278 2.1799927-3.6900034 4.3800049-3.6900034.3699951 0 .7399902.0499878 1.0799561.1399536-1.3050842.326293-2.3837967 1.2261-2.939909 2.4175434-.3643684.7806425-.0694427 1.6746569.6238041 2.1861029.038578.0284615.0767632.0574207.114542.0868683.6331367.4935017 1.524889.5697784 2.1496696.0657406.9199104-.7421322 2.0819035-1.1922359 3.3419323-1.2062054.0499878.2399902.0700073.4899902.0700073.75.0000001 2.0816652-1.4311523 3.8125001-3.3601074 4.2999879z" fill="#ce2955"/></g><g><path d="m32.0310097 21.9880428c.0006714.0001831.0012817.0004883.0019531.0006714-.003479.0009155-.0072021.0011597-.0106812.0020752-.1367168.0344238-.2752056.0595703-.4166241.0809326-.1254272.0196533-.2541504.0302734-.3834229.0387573-.0941772.0059814-.1836548.0281982-.2792969.0281982-1.2299805 0-2.3399658-.5-3.1399536-1.3099976-.8099976-.8099976-1.2999878-1.9099731-1.2999878-3.1399536 0-.1300049 0-.2600098.0199585-.3800049.0100098-.1300049.0200195-.25.0499878-.3699951.3500366-2.0900278 2.1800537-3.6900034 4.3699951-3.6900034.3800049 0 .7400513.0499878 1.0900249.1399536-1.3058052.3193588-2.384943 1.2229128-2.9408207 2.4176044-.3634071.7810297-.068552 1.6746054.624651 2.1860151.0393696.0290451.0783291.058609.1168671.0886822.6304188.49193 1.5193367.5671921 2.1407833.0639763.9165173-.7421494 2.078516-1.1922588 3.3385487-1.2062283.0499878.2399902.0699463.4899902.0699463.75.0000001 2.0809328-1.4300536 3.8110354-3.3519286 4.2993166z" fill="#ce2955"/></g><g><path d="m40.9210548 21.9880428c.0006714.0001831.0012817.0004883.0019531.0006714-.003479.0009155-.0072021.0011597-.0106812.0020752-.1367188.0344238-.2752075.0595703-.416626.0809326-.1253662.0196533-.2541504.0302734-.3834229.0387573-.0941772.0059814-.1836548.0281982-.2792969.0281982-2.4599609 0-4.4500122-1.9899902-4.4500122-4.4499512 0-.1500244.0100098-.3100586.0300293-.4500122.0100098-.1000366.0299683-.2000122.0499878-.2999878.3500366-2.0900278 2.1799927-3.6900034 4.3699951-3.6900034.3800049 0 .7399902.0499878 1.0900269.1399536-1.3127823.3193283-2.393898 1.2227373-2.9504242 2.4172573-.3639221.7811193-.0690536 1.6754446.6248856 2.1863623.9131165.6722908 1.7110214.6028767 2.2670174.1526585.9165154-.7421494 2.0784988-1.1922588 3.3384895-1.2062283.0500488.2399902.0700073.4899902.0700073.75.0000002 2.0809327-1.4300536 3.8110353-3.3519286 4.2993165z" fill="#ce2955"/></g><g><path d="m35.462986 16.9387264c-.0200195.0999756-.039978.1999512-.0499878.2999878 0-.1000366.0200195-.2000122.039978-.2999878z" fill="#ce2955"/></g><g><circle cx="8.728" cy="22.379" fill="#e83d62" r="4.443"/></g><g><path d="m9.8130236 26.6787167c-.3500366.0899658-.710022.1399536-1.0900269.1399536-2.4500117 0-4.440002-1.9899902-4.440002-4.4400024 0-2.8934269 2.7336698-5.0187035 5.5300288-4.2999878-1.9300532.4700317-3.3600459 2.2200317-3.3600459 4.2999878.0000001 2.080017 1.4299927 3.830017 3.360046 4.3000488z" fill="#ce2955"/></g><g><circle cx="17.614" cy="22.379" fill="#e83d62" r="4.443"/></g><g><path d="m18.7029781 26.6787167c-2.7920017.71772-5.5299692-1.4028149-5.5299692-4.3000488 0-2.4499512 1.9899902-4.4399414 4.4400034-4.4399414.3800049 0 .7399902.0499878 1.0899658.1399536-1.9400024.4700317-3.3699961 2.2200317-3.3699961 4.2999878.0000001 2.080017 1.4299937 3.830017 3.3699961 4.3000488z" fill="#ce2955"/></g><g><circle cx="26.5" cy="22.379" fill="#e83d62" r="4.443"/></g><g><path d="m27.582983 26.6787167c-.3399658.0899658-.7099609.1399536-1.0799561.1399536-2.460022 0-4.4500122-1.9899902-4.4500122-4.4400024 0-2.4499512 1.9899902-4.4399414 4.4500122-4.4399414.3699951 0 .7399902.0499878 1.0799561.1399536-1.9299927.4800415-3.3599854 2.2200317-3.3599854 4.2999878.0000001 2.080017 1.4299927 3.8200073 3.3599854 4.3000488z" fill="#ce2955"/></g><g><circle cx="35.386" cy="22.379" fill="#e83d62" r="4.443"/></g><g><path d="m36.4729958 26.6787167c-2.7919998.71772-5.5300274-1.4028149-5.5300274-4.3000488 0-2.4499512 1.9900494-4.4399414 4.4400005-4.4399414.3800049 0 .7400513.0499878 1.0900269.1399536-1.9299927.4700317-3.3599854 2.2200317-3.3599854 4.2999878 0 2.080017 1.4299927 3.830017 3.3599854 4.3000488z" fill="#ce2955"/></g><g><circle cx="44.272" cy="22.379" fill="#e83d62" r="4.443"/></g><g><path d="m45.3630104 26.6787167c-2.792099.7176208-5.5300293-1.4027748-5.5300293-4.3000488 0-2.4499512 1.9899902-4.4399414 4.4400024-4.4399414.3800049 0 .7399902.0499878 1.0900269.1399536-1.9400024.4700317-3.3699951 2.2200317-3.3699951 4.2999878 0 2.080017 1.4299927 3.830017 3.3699951 4.3000488z" fill="#ce2955"/></g><g><path d="m19.7945538 43.6751251 13.4500523.0000038c2.5899467 0 5.1642227-.7140732 7.2648354-2.2290878 5.0597649-3.6492271 8.6421242-9.2167969 9.6630669-15.6474094.2904243-1.8292847-1.0955009-3.4981766-2.9476967-3.4981766h-41.4496213c-1.8522091 0-3.2381387 1.6689167-2.9476936 3.4982109.9797735 6.1708584 4.3185463 11.5469837 9.0602217 15.1958714 2.2649037 1.7429237 5.0489385 2.6805877 7.9068353 2.6805877z" fill="#deddff"/></g><g><path d="m24.4165058 43.6723747h-4.623188c-2.8581886 0-5.6366606-.9337578-7.9026957-2.6759567-4.7484283-3.655304-8.0848598-9.030014-9.0641394-15.2019081-.2846792-1.8219185 1.0931234-3.4957981 2.9492371-3.4957981h4.6231866c-1.8447151 0-3.2339163 1.6738796-2.9492373 3.4957981.97928 6.1718941 4.3271089 11.5466042 9.0641403 15.2019081 2.2660349 1.7421989 5.0445059 2.6759567 7.9026964 2.6759567z" fill="#c6c6f7"/></g></g></svg>