<svg id="Capa_1" enable-background="new 0 0 512 512" height="512" viewBox="0 0 512 512" width="512" xmlns="http://www.w3.org/2000/svg"><g><g><g><path d="m473.957 121.611c-1.429-2.313-1.364-5.252.116-7.534l14.402-22.195c3.972-6.122 3.123-14.187-2.037-19.347l-46.974-46.974c-5.16-5.16-13.226-6.009-19.347-2.037l-22.195 14.402c-2.281 1.48-5.22 1.545-7.534.116-38.79-23.963-82.591-36.604-126.668-37.926-62.913 1.891-125.261 26.846-173.279 74.864-85.593 85.593-97.906 216.716-36.938 315.408 1.429 2.313 1.364 5.252-.116 7.534l-14.402 22.195c-3.972 6.122-3.123 14.187 2.037 19.347 48.732 48.477 46.969 47.58 50.174 49.431.566-.327 7.003-4.525 22.883-14.823 2.281-1.48 5.22-1.545 7.534-.116 98.692 60.968 229.815 48.655 315.408-36.938s97.904-216.715 36.936-315.407z" fill="#505559"/><g><path d="m57.576 439.464c-5.16-5.16-6.009-13.226-2.037-19.348l14.402-22.195c1.48-2.281 1.545-5.22.116-7.534-60.967-98.691-48.654-229.814 36.939-315.407 45.914-45.914 104.929-70.74 165.012-74.482-70.744-4.405-142.967 20.422-197.027 74.482-85.593 85.593-97.905 216.716-36.938 315.408 1.429 2.313 1.364 5.252-.116 7.534l-14.402 22.195c-3.972 6.122-3.123 14.187 2.037 19.347l46.974 46.974c5.16 5.16 13.226 6.009 19.347 2.037l8.918-5.787z" fill="#373c42"/></g><ellipse cx="259.917" cy="256" fill="#ebf3ff" rx="220.188" ry="224.071"/><path d="m62.815 256c0-118.573 92.087-215.638 208.645-223.58-130.165-8.869-239.565 94.243-239.565 223.58 0 129.431 109.486 232.443 239.565 223.58-116.558-7.942-208.645-105.007-208.645-223.58z" fill="#dbeafc"/></g><g><path d="m450.151 248.168c0 10.42-5.105 20.202-7.053 30.051-2.007 10.148-1.073 21.132-4.944 30.469-3.939 9.5-12.407 16.59-18.06 25.034-5.696 8.509-9.037 19.03-16.251 26.244s-17.736 10.555-26.244 16.251c-8.444 5.653-15.534 14.121-25.034 18.06-9.337 3.872-20.321 2.937-30.469 4.944-9.849 1.948-19.631 7.053-30.051 7.053s-20.202-5.105-30.051-7.053c-10.148-2.007-21.132-1.072-30.469-4.944-9.5-3.939-16.59-12.407-25.034-18.06-8.509-5.696-19.03-9.037-26.244-16.251s-10.555-17.736-16.251-26.244c-5.653-8.444-14.121-15.534-18.06-25.034-3.872-9.337-2.937-20.321-4.944-30.469-1.948-9.849-7.053-19.631-7.053-30.051s5.105-20.202 7.053-30.051c2.007-10.148 1.072-21.132 4.944-30.469 3.939-9.5 12.407-16.59 18.06-25.034 5.696-8.509 9.037-19.03 16.251-26.244s17.736-10.555 26.244-16.251c8.444-5.653 15.534-14.121 25.034-18.06 9.337-3.872 20.321-2.937 30.469-4.944 9.849-1.948 19.631-7.053 30.051-7.053s20.202 5.105 30.051 7.053c10.148 2.007 21.132 1.072 30.469 4.944 9.5 3.939 16.59 12.407 25.034 18.06 8.509 5.696 19.03 9.037 26.244 16.251s10.555 17.736 16.251 26.244c5.653 8.444 14.121 15.534 18.06 25.034 3.872 9.337 2.937 20.321 4.944 30.469 1.948 9.849 7.053 19.631 7.053 30.051z" fill="#ffdb97"/><g fill="#f7cb86"><circle cx="304.023" cy="143.947" r="16.007"/><circle cx="360.424" cy="313.162" r="16.007"/></g></g><g><path d="m319.641 399.769-82.36-299.513c-13.638 3.121-20.125 12.723-30.79 19.862-5.553 3.718-11.964 6.432-17.753 9.875-.547 1.322-1.034 2.672-1.476 4.044 6.207 3.411 10.413 10.011 10.413 17.593 0 11.631-9.873 20.87-21.561 20.007-3.435 7.487-7.086 14.973-8.083 23.049-1.462 11.847 3.066 24.052 3.981 36.234.889 11.822-1.837 24.564 1.449 36.423s12.18 21.381 17.503 31.975c5.484 10.916 7.884 23.711 15.234 33.115 7.479 9.569 19.351 14.968 28.447 22.795 3.286 2.827 6.308 6.044 9.317 9.281 6.887 7.41 15.021 13.629 24.199 17.882 12.351 5.724 15.984 14.79 20.75 19.484 1.993 1.963 3.92 3.314 5.781 4.294 8.581-.673 16.762-4.39 24.949-6.4z" fill="#f7cb86"/><path d="m205.936 98.713c-1.636-5.906-5.919-10.157-11.073-12.082-1.204.455-2.384 1.049-3.52 1.791-3.523 2.298-7.035 4.547-10.673 6.375-10.916 5.484-23.711 7.884-33.115 15.234-9.569 7.479-14.968 19.351-22.794 28.447-7.887 9.166-18.807 16.285-24.742 26.77s-6.419 23.512-10.219 34.991c-3.771 11.392-11.172 22.131-12.659 34.185-1.462 11.847 3.066 24.052 3.981 36.234.888 11.822-1.836 24.564 1.449 36.423 3.286 11.859 12.18 21.381 17.502 31.975 5.484 10.916 7.884 23.711 15.234 33.116 7.479 9.569 19.351 14.968 28.447 22.794 9.166 7.887 16.285 18.807 26.77 24.742s23.512 6.419 34.991 10.219c11.068 3.664 21.52 10.754 33.16 12.518 8.137-.954 16.38-3.223 24.614-3.842 4.06-.305 8.228-.184 12.432-.027.153.006.305.009.457.011.792-.056 1.589-.097 2.389-.124 10.722-1.267 18.21-11.904 15.21-22.73z" fill="#ffdb97"/><g fill="#f7cb86"><path d="m223.791 429.925c-11.479-3.8-24.507-4.284-34.991-10.219-10.485-5.935-17.604-16.856-26.77-24.742-9.096-7.827-20.968-13.226-28.447-22.795-7.35-9.405-9.75-22.2-15.234-33.115-5.322-10.594-14.217-20.116-17.503-31.975s-.561-24.601-1.449-36.423c-.915-12.182-5.443-24.387-3.981-36.234 1.487-12.054 8.888-22.793 12.659-34.185 3.8-11.479 4.284-24.507 10.219-34.991 5.935-10.485 16.855-17.604 24.742-26.77 7.827-9.096 13.226-20.968 22.795-28.447 10.358-8.096 24.32-9.923 37.102-17.414-5.491-7.242-16.007-9.563-24.234-4.196-3.523 2.298-7.035 4.547-10.672 6.375-10.916 5.484-23.711 7.884-33.115 15.234-9.569 7.479-14.968 19.351-22.795 28.447-7.887 9.166-18.807 16.285-24.742 26.77s-6.419 23.512-10.219 34.991c-3.771 11.392-11.172 22.131-12.659 34.185-1.462 11.847 3.066 24.052 3.981 36.234.889 11.822-1.836 24.564 1.449 36.423 3.286 11.859 12.18 21.381 17.503 31.975 5.484 10.916 7.884 23.711 15.234 33.115 7.479 9.569 19.351 14.968 28.447 22.795 9.166 7.887 16.285 18.807 26.77 24.742s23.512 6.419 34.991 10.219c11.392 3.771 22.131 11.172 34.185 12.659 7.401.913 14.943-.511 22.531-1.932-8.802-2.864-17.11-7.851-25.797-10.726z"/><circle cx="142.021" cy="297.154" r="24.734"/></g></g><path d="m205.936 98.713s-3.764-17.184-21.205.027c-8.606 8.493-18.807 16.285-24.742 26.77-1.527 2.697-2.692 5.563-3.647 8.527 6.207 3.411 10.413 10.011 10.413 17.593 0 11.631-9.873 20.87-21.561 20.007-3.435 7.487-7.086 14.973-8.083 23.049-1.462 11.847 3.066 24.052 3.981 36.234.889 11.822-1.837 24.564 1.449 36.423s12.18 21.381 17.503 31.975c5.484 10.916 7.884 23.711 15.234 33.116 7.479 9.569 19.351 14.968 28.447 22.794 3.285 2.827 6.308 6.044 9.317 9.281 6.887 7.41 15.021 13.629 24.199 17.882 12.351 5.724 15.984 14.79 20.75 19.484 9.782 9.635 17.966 4.522 24.615 13.197 2.463 3.213 7.829 4.507 11.702 3.328l-.248-1.496-4.26-15.522z" fill="#ffeabb"/><path d="m360.217 206.172c0-7.118-10.496-11.51-18.05-11.51-12.34 0-23.746 9.843-23.746 23.709 0 9.165 6.482 19.97 13.385 19.97 3.261 0 7.734-2.58 7.734-7.726 0-6.165-5.666-5.768-5.666-12.232 0-5.565 4.782-8.268 8.28-8.268 5.094 0 5.461 3.783 10.328 3.783 3.373 0 7.735-2.657 7.735-7.726z" fill="#f7cb86"/><path d="m395.377 191.974c0-4.89-4.448-8.522-9.235-7.586-9.231 1.918-7.627 15.316 1.505 15.316 4.272 0 7.73-3.47 7.73-7.73z" fill="#f7cb86"/><path d="m263.834 184.242c-4.253 0-7.731 3.463-7.731 7.732 0 4.242 3.455 7.719 7.73 7.719 4.316 0 7.73-3.497 7.73-7.719 0-4.283-3.463-7.732-7.729-7.732z" fill="#f7cb86"/><path d="m199.705 191.974c0-4.274-3.494-7.732-7.703-7.732-4.362 0-7.757 3.502-7.757 7.732 0 4.218 3.418 7.73 7.72 7.73 4.29 0 7.74-3.512 7.74-7.73z" fill="#ffdb97"/><path d="m315.964 286.982c0-4.321-3.514-7.733-7.729-7.733-4.236 0-7.731 3.436-7.731 7.733 0 4.349 3.572 7.73 7.73 7.73 4.182 0 7.73-3.408 7.73-7.73z" fill="#f7cb86"/><path d="m210.485 280.159c0-4.127-3.35-7.73-7.731-7.73-4.245 0-7.729 3.441-7.729 7.73 0 4.205 3.393 7.73 7.73 7.73 4.567 0 7.73-3.772 7.73-7.73z" fill="#ffdb97"/><g fill="#f7cb86"><path d="m398.1 256.443c-4.213 0-7.731 3.424-7.731 7.73 0 4.93 4.544 8.541 9.245 7.586 3.749-.799 6.215-3.985 6.215-7.586 0-4.347-3.566-7.73-7.729-7.73z"/><path d="m314.912 341.566c-4.173 0-7.729 3.379-7.729 7.73 0 4.944 4.569 8.547 9.235 7.575 3.299-.618 6.225-3.605 6.225-7.575 0-4.29-3.526-7.73-7.731-7.73z"/><path d="m105.499 207.422c-4.133 0-7.696 3.382-7.696 7.722 0 4.253 3.44 7.73 7.73 7.73 4.415 0 7.73-3.609 7.73-7.73-.001-4.395-3.574-7.722-7.764-7.722z"/><path d="m146.722 353.963c-4.177 0-7.693 3.413-7.693 7.732 0 4.212 3.402 7.72 7.73 7.72 4.299 0 7.73-3.51 7.73-7.72 0-4.103-3.299-7.732-7.767-7.732z"/><circle cx="212.299" cy="395.903" r="7.73"/></g></g></g></svg>