<svg id="Capa_1" enable-background="new 0 0 512 512" height="512" viewBox="0 0 512 512" width="512" xmlns="http://www.w3.org/2000/svg"><g><path d="m309.698 170.279c-80 0-171.396 0-267.396 0-37.565 84.521-42.056 158.737-13.476 243.259 3.903 11.543.987 24.301-7.63 32.917l-2.55 2.55c-3.292 3.292-5.272 7.755-5.156 12.409.349 14.077 18.744 8.956 18.744 8.956l1.286-1.286c8.55-8.55 21.219-11.605 32.669-7.718 90.22 30.626 174.112 21.716 253.811-13.389 39.735-89.404 42.465-178.808 8.191-268.211-2.529-6.596-15.561-2.89-18.493-9.487z" fill="#a15c27"/><g><path d="m232.273 302.938c-4.267 0-7.726-3.459-7.726-7.726v-23.234c0-4.268 3.459-7.726 7.726-7.726s7.727 3.458 7.727 7.726v23.234c0 4.267-3.459 7.726-7.727 7.726z" fill="#d28e43"/></g><g><path d="m119.726 302.938c-4.267 0-7.726-3.459-7.726-7.726v-23.234c0-4.268 3.459-7.726 7.726-7.726s7.726 3.459 7.726 7.726v23.234c.001 4.267-3.459 7.726-7.726 7.726z" fill="#d28e43"/></g><path d="m320.547 180.582c2.622 0 5.179-.281 7.643-.815-2.529-6.596-5.259-13.193-8.19-19.789-41.598 0-91.847-20.604-144-20.604-37.551 0-144 20.604-144 20.604-37.561 84.513-42.056 169.027-13.483 253.54 3.905 11.552 1 24.315-7.623 32.938l-6.208 6.208c-6.248 6.249-6.248 16.379 0 22.627 6.248 6.249 16.379 6.249 22.627 0l4.92-4.92c-2.549-5.853-1.429-12.92 3.358-17.707l6.208-6.208c8.549-8.549 11.596-21.213 7.716-32.663-25.173-74.271-24.808-148.542 1.095-222.813 2.169-6.218 8.023-10.397 14.609-10.397h255.328z" fill="#78451d"/><g fill="#f5b662"><path d="m183.211 352h-7.211v-7.211c0-31.364 25.425-56.789 56.789-56.789 3.983 0 7.211 3.229 7.211 7.211 0 31.364-25.425 56.789-56.789 56.789z"/><path d="m181.099 284.704-5.099 5.099-5.099-5.099c-22.177-22.177-22.177-58.134 0-80.311 2.816-2.816 7.382-2.816 10.198 0 22.178 22.177 22.178 58.134 0 80.311z"/><path d="m168.789 352h7.211v-7.211c0-31.364-25.425-56.789-56.789-56.789-3.983 0-7.211 3.229-7.211 7.211 0 31.364 25.425 56.789 56.789 56.789z"/><path d="m183.211 435.052h-7.211v-7.211c0-31.363 25.425-56.789 56.789-56.789 3.983 0 7.211 3.229 7.211 7.211 0 31.364-25.425 56.789-56.789 56.789z"/><path d="m168.789 435.052h7.211v-7.211c0-31.363-25.425-56.789-56.789-56.789-3.983 0-7.211 3.229-7.211 7.211 0 31.364 25.425 56.789 56.789 56.789z"/></g><g><g><path d="m176 442.778c-4.267 0-7.726-3.459-7.726-7.726v-155.551c0-4.268 3.459-7.726 7.726-7.726s7.726 3.459 7.726 7.726v155.551c0 4.267-3.459 7.726-7.726 7.726z" fill="#d28e43"/></g></g><path d="m304 111.977-94.148-68.67c-5.78-4.216-11.994-7.255-18.399-9.118-16.547-4.812-41.335 10.819-56.267 21.71l-76.884 56.078 117.698 20.604z" fill="#fad27a"/><path d="m191.453 34.19c-16.547-4.812-34.373-1.773-49.305 9.118l-94.148 68.669 14.359 10.302 16.547-10.302 94.148-68.67c5.78-4.215 11.994-7.254 18.399-9.117z" fill="#f5b662"/><path d="m320.547 159.977h-258.188l-20.604-.3c-8.534 0-15.453-6.618-15.453-15.153v-17.094c0-8.534 6.918-15.227 15.453-15.227l20.604-.225h258.189c8.534 0 15.453 6.918 15.453 15.453v17.095c-.001 8.533-6.919 15.451-15.454 15.451z" fill="#a15c27"/><path d="m46.906 144.525v-17.095c0-8.534 6.918-15.453 15.453-15.453h-30.906c-8.534 0-15.453 6.918-15.453 15.453v17.095c0 8.534 6.919 15.453 15.453 15.453h30.906c-8.535-.001-15.453-6.919-15.453-15.453z" fill="#78451d"/><path d="m480 239.977-133.698 10.302v-32l20.604-10.302h105.883c3.983 0 7.211 3.229 7.211 7.211z" fill="#f5b662"/><path d="m336 215.189v24.789l30.906 10.302v-42.302h-23.694c-3.983-.001-7.212 3.228-7.212 7.211z" fill="#d28e43"/><g><g><path d="m146.849 90.311h-5.698c-4.267 0-7.726-3.459-7.726-7.726s3.459-7.726 7.726-7.726h5.698c4.267 0 7.726 3.459 7.726 7.726s-3.459 7.726-7.726 7.726z" fill="#f5b662"/></g></g><g><g><path d="m178.849 71.704h-5.698c-4.267 0-7.726-3.459-7.726-7.726s3.459-7.726 7.726-7.726h5.698c4.267 0 7.726 3.459 7.726 7.726s-3.459 7.726-7.726 7.726z" fill="#f5b662"/></g></g><g><g><path d="m210.849 90.311h-5.698c-4.267 0-7.726-3.459-7.726-7.726s3.459-7.726 7.726-7.726h5.698c4.267 0 7.726 3.459 7.726 7.726s-3.459 7.726-7.726 7.726z" fill="#f5b662"/></g></g><path d="m324.604 277.676 16.902-27.397 25.4-10.302h113.094l-9.132 29.151-12.566 33.81-56-4.659-67.396-10.302z" fill="#fad27a"/><path d="m336 239.977-32 48 20.604 10.302 10.302-10.302 32-48z" fill="#f5b662"/><path d="m437.698 469.676h-123.396v-171.397l20.604-10.302h113.094l10.302 63.898-10.302 64.102z" fill="#f5b662"/><path d="m334.906 287.977h-30.906v128c5.168-4.444 10.319 1.877 15.453-1.641 5.169-3.542 10.32-16.918 15.453-19.521z" fill="#d28e43"/><path d="m448 479.977h-113.094l-20.604-10.302v-53.698c10.373-8.918 10.373-15.973 20.604-21.163 38.715-19.64 76.413-12.586 113.095 21.163l10.302 32.676z" fill="#a15c27"/><path d="m334.906 479.977v-85.162c-10.231 5.19-20.533 12.244-30.906 21.162v56.789c0 3.983 3.229 7.211 7.211 7.211z" fill="#78451d"/><path d="m477.567 260.176 17.886 2.981 15.336 23.004c.79 1.185 1.211 2.576 1.211 4v182.605c0 3.983-3.229 7.211-7.211 7.211h-25.883l-20.604-10.302v-181.698z" fill="#f5b662"/><path d="m495.453 263.157-15.453-23.18-32 48v192h30.906v-189.816c0-1.424.421-2.816 1.211-4z" fill="#d28e43"/></g></svg>