<svg height="512" viewBox="0 0 58 58" width="512" xmlns="http://www.w3.org/2000/svg"><g id="Page-1" fill="none" fill-rule="evenodd"><g id="018---Caviar-Bowl" fill-rule="nonzero"><path id="Shape" d="m55 31v4c0 6.0999793-2.4232073 11.9501193-6.736544 16.263456s-10.1634767 6.736544-16.263456 6.736544h-6c-12.7025492 0-23-10.2974508-23-23v-4l26-1.5z" fill="#894b9d"/><path id="Shape" d="m27.064 10.389c-5.664-4.463-2.557-10.389 1.936-10.389s7.6 5.926 1.936 10.389z" fill="#f29c1f"/><path id="Shape" d="m22.064 15.389c-5.664-4.463-2.557-10.389 1.936-10.389s7.6 5.926 1.936 10.389z" fill="#e57e25"/><path id="Shape" d="m32.064 15.389c-5.664-4.463-2.557-10.389 1.936-10.389s7.6 5.926 1.936 10.389z" fill="#e57e25"/><path id="Shape" d="m17.064 20.389c-5.664-4.463-2.557-10.389 1.936-10.389s7.6 5.926 1.936 10.389z" fill="#d25627"/><path id="Shape" d="m27.064 20.389c-5.664-4.463-2.557-10.389 1.936-10.389s7.6 5.926 1.936 10.389z" fill="#d25627"/><path id="Shape" d="m37.064 20.389c-5.664-4.463-2.557-10.389 1.936-10.389s7.6 5.926 1.936 10.389z" fill="#d25627"/><path id="Shape" d="m11.6 25c-5.018-4.41-1.96-10 2.4-10s7.422 5.59 2.4 10z" fill="#e57e25"/><path id="Shape" d="m19 25v-5c0-2.7614237 2.2385763-5 5-5 4.364 0 7.422 5.59 2.4 10z" fill="#e57e25"/><path id="Shape" d="m31.6 25c-5.018-4.41-1.96-10 2.4-10s7.422 5.59 2.4 10z" fill="#e57e25"/><path id="Shape" d="m41.6 25c-5.018-4.41-1.96-10 2.4-10s7.422 5.59 2.4 10z" fill="#e57e25"/><rect id="Rectangle-path" fill="#955ba5" height="6" rx="3" width="58" y="25"/><g fill="#f29c1f"><path id="Shape" d="m4 25c0-2.7614237 2.23857625-5 5-5 2.7614237 0 5 2.2385763 5 5z"/><path id="Shape" d="m14 25c0-2.7614237 2.2385763-5 5-5s5 2.2385763 5 5z"/><path id="Shape" d="m24 25c0-2.7614237 2.2385763-5 5-5s5 2.2385763 5 5z"/><path id="Shape" d="m34 25c0-2.7614237 2.2385763-5 5-5s5 2.2385763 5 5z"/><path id="Shape" d="m44 25c0-2.7614237 2.2385763-5 5-5s5 2.2385763 5 5z"/></g><path id="Shape" d="m14 50.72c-.2302898.0000089-.4535254-.0794658-.632-.225-4.66583449-3.7905325-7.37288771-9.4835007-7.368-15.495 0-.5522847.44771525-1 1-1s1 .4477153 1 1c-.00464124 5.4109447 2.432511 10.5351004 6.633 13.946.3271314.2676161.4506914.7119992.3086524 1.1100673-.142039.3980682-.5190021.6638543-.9416524.6639327z" fill="#b49aca"/></g></g></svg>