<svg id="Layer_1" enable-background="new 0 0 512 512" viewBox="0 0 512 512" xmlns="http://www.w3.org/2000/svg"><path clip-rule="evenodd" d="m126.84 40.45h264.16c51.11 0 92.92 41.81 92.92 92.92v243.92c0 51.11-41.81 92.92-92.92 92.92h-264.16c-51.11 0-92.92-41.81-92.92-92.92v-243.92c0-51.11 41.81-92.92 92.92-92.92z" fill="#f58020" fill-rule="evenodd"/><path clip-rule="evenodd" d="m126.84 40.45h264.16c1.02 0 2.01.03 3.03.06-11.51 53.52-32.54 111.85-62.87 169.99-71.23 136.65-172.63 231.78-252.62 246.1-26.7-16.38-44.62-45.86-44.62-79.31v-243.92c0-51.11 41.81-92.92 92.92-92.92z" fill="#f89931" fill-rule="evenodd"/><path clip-rule="evenodd" d="m113.88 114.46c23.36-12.59 34.02-58.45 78.83-29.79 26.45 18.2 56.83 21.77 88.53 7.82 32.09-9.41 55.84-5.16 70.04 13.29 4.39 5.73 9.35 9.72 15.85 12.81 86.2 40.99-16.5 97.2 7.85 197.97 7.2 41.5 4.17 72.26-9.72 95.02-2.81 4.62-4.88 8.7-6.92 13.63-7.43 17.97-32.29 20.86-73.59 9.04-31.78-9.1-26.31-14.66-65.17 2.24-28.35 13.97-38.61-7.77-63.86-12.98-30.25-6.29-65.4 10.29-76.9-22.37-6.12-17.32 4.11-28.46 5.75-45.86 1.22-12.98 4.51-25.65 9.78-37.84 6.21-14.4 7.82-28.4 5.05-43.88-5.64-31.1-5.98-53.35-1.11-66.81 11.99-32.99-34.27-65.45 15.59-92.29z" fill="#ffc96a" fill-rule="evenodd"/><path clip-rule="evenodd" d="m113.88 114.46c23.36-12.59 34.02-58.45 78.83-29.79 26.45 18.2 56.83 21.77 88.53 7.82 32.09-9.41 55.84-5.16 70.04 13.29 1.5 1.98 3.09 3.74 4.79 5.36-14.26 47.65-39.37 100.06-74.32 151.17-52.02 76-114.6 132.77-170.39 159.96-14.51-.57-26.65-4.37-32.54-21.12-6.12-17.32 4.11-28.46 5.75-45.86 1.22-12.98 4.51-25.65 9.78-37.84 6.21-14.4 7.82-28.4 5.05-43.88-5.64-31.1-5.98-53.35-1.11-66.81 11.99-33-34.27-65.46 15.59-92.3z" fill="#ffd67b" fill-rule="evenodd"/><path d="m427.62 277.62c-.51-3.83 2.18-7.31 6.01-7.82 3.83-.48 7.31 2.21 7.82 6.01.79 6.21 1.36 12.44 1.64 18.65 5.22-2.81 11.03-3.77 16.89-2.55 3.77.77 6.21 4.45 5.44 8.22-.77 3.8-4.45 6.24-8.22 5.44-2.72-.54-5.5 0-7.99 1.47-2.27 1.33-4.34 3.4-6.01 6.09-.23 6.52-.74 13.01-1.53 19.42 5.05-1.5 10.4-1.36 15.59.57 3.6 1.36 5.44 5.36 4.08 8.99-1.33 3.6-5.36 5.44-8.96 4.08-2.66-.99-5.44-.91-7.99.14-2.01.82-3.97 2.27-5.67 4.25-.54 2.58-1.11 5.13-1.73 7.68-1.33 5.44-2.86 10.8-4.62 16.04 5.44-.6 10.97.57 16.04 3.69 3.32 2.01 4.34 6.29 2.32 9.61-1.98 3.29-6.29 4.31-9.58 2.32-2.61-1.59-5.36-2.1-7.99-1.62-2.69.51-5.33 2.07-7.65 4.65-.2.25-.43.51-.65.74-5.75 12.76-12.78 24.63-21.03 35.29-2.35 3.03-6.72 3.6-9.78 1.25s-3.6-6.75-1.25-9.78c7.68-9.95 14.23-21.09 19.59-33.08-1.11-3.34-2.78-6.21-4.79-8.42-2.27-2.55-4.99-4.2-7.88-4.68-3.8-.62-6.38-4.2-5.75-8.02.6-3.8 4.2-6.38 7.99-5.75 6.12.99 11.65 4.22 16.04 9.1.31.34.6.68.91 1.05 1.7-5.13 3.23-10.35 4.54-15.68.26-1.13.54-2.3.79-3.46-1.53-4-3.8-7.2-6.49-9.3-2.41-1.93-5.19-2.95-7.99-2.81-3.86.17-7.11-2.81-7.29-6.66s2.83-7.11 6.66-7.29c6.26-.28 12.22 1.81 17.26 5.81.43.34.85.68 1.25 1.05.74-5.84 1.25-11.71 1.53-17.66-1.81-3.43-4.22-6.04-6.92-7.63-2.49-1.47-5.24-2.01-7.97-1.47-3.77.79-7.46-1.64-8.25-5.44-.77-3.77 1.67-7.46 5.44-8.22 6.15-1.28 12.25-.14 17.66 2.95-.26-5.71-.77-11.47-1.51-17.22z" fill="#8ab95b"/><g clip-rule="evenodd" fill-rule="evenodd"><path d="m146.88 342.42c12.42 0 22.51 10.09 22.51 22.51 0 12.44-10.09 22.51-22.51 22.51s-22.51-10.06-22.51-22.51c0-12.42 10.09-22.51 22.51-22.51z" fill="#d12027"/><path d="m148.3 342.48c11.76.74 21.09 10.52 21.09 22.45 0 5.56-2.04 10.66-5.39 14.6-11.74-.74-21.06-10.52-21.06-22.48 0-5.56 2.01-10.63 5.36-14.57z" fill="#e71e25"/><path d="m218.4 250.55c16.84 0 30.47 13.63 30.47 30.47s-13.63 30.47-30.47 30.47-30.47-13.63-30.47-30.47 13.63-30.47 30.47-30.47z" fill="#d12027"/><path d="m218.4 250.55c16.84 0 30.47 13.63 30.47 30.47 0 4.96-1.19 9.67-3.32 13.8-3.17 1.13-6.6 1.76-10.18 1.76-16.84 0-30.47-13.63-30.47-30.47 0-4.96 1.19-9.67 3.29-13.8 3.21-1.14 6.64-1.76 10.21-1.76z" fill="#e71e25"/><path d="m292.75 346.93c12.42 0 22.51 10.09 22.51 22.51s-10.09 22.51-22.51 22.51-22.51-10.09-22.51-22.51 10.09-22.51 22.51-22.51z" fill="#d12027"/><path d="m292.75 346.93c1.36 0 2.69.14 4 .37 1.39 2.89 2.15 6.15 2.15 9.58 0 12.44-10.09 22.51-22.51 22.51-1.36 0-2.69-.11-4-.34-1.39-2.92-2.15-6.18-2.15-9.61 0-12.42 10.09-22.51 22.51-22.51z" fill="#e71e25"/><path d="m317.98 170.02c12.42 0 22.51 10.06 22.51 22.51 0 12.42-10.09 22.48-22.51 22.48s-22.51-10.06-22.51-22.48c0-12.45 10.09-22.51 22.51-22.51z" fill="#d12027"/><path d="m325.83 171.43c8.56 3.17 14.66 11.42 14.66 21.09 0 7.99-4.2 15.02-10.49 19.02-8.56-3.2-14.66-11.42-14.66-21.09 0-8.02 4.2-15.05 10.49-19.02z" fill="#e71e25"/><path d="m239.49 127.92c12.44 0 22.51 10.09 22.51 22.51s-10.06 22.51-22.51 22.51c-12.42 0-22.48-10.09-22.48-22.51s10.06-22.51 22.48-22.51z" fill="#d12027"/><path d="m239.49 127.92c12.44 0 22.51 10.09 22.51 22.51 0 3.85-.96 7.46-2.64 10.6-1.11.17-2.24.25-3.37.25-12.44 0-22.51-10.06-22.51-22.48 0-3.86.96-7.46 2.66-10.63 1.11-.16 2.21-.25 3.35-.25z" fill="#e71e25"/><path d="m155.87 166.05c12.84 0 23.24 10.4 23.24 23.24s-10.4 23.24-23.24 23.24-23.24-10.4-23.24-23.24 10.39-23.24 23.24-23.24z" fill="#d12027"/><path d="m155.87 166.05c4.56 0 8.84 1.33 12.42 3.6.23 1.28.34 2.58.34 3.91 0 12.81-10.4 23.24-23.24 23.24-4.56 0-8.82-1.33-12.42-3.6-.23-1.28-.34-2.58-.34-3.91-.01-12.84 10.39-23.24 23.24-23.24z" fill="#e71e25"/></g><path d="m132.99 135.6c1.98-3.32 6.26-4.39 9.58-2.41s4.39 6.26 2.41 9.55l-2.24 3.77c-1.98 3.29-6.26 4.37-9.58 2.41-3.32-1.98-4.39-6.26-2.41-9.58zm17.46 166.88c1.96-3.32 6.26-4.39 9.55-2.41 3.32 1.98 4.39 6.26 2.41 9.58l-2.24 3.74c-1.98 3.29-6.26 4.37-9.58 2.41-3.29-1.98-4.37-6.26-2.41-9.58zm43.46 43.82c-.28-3.86 2.64-7.2 6.46-7.46 3.85-.28 7.2 2.61 7.48 6.46.54 7.31 2.58 14.31 5.95 20.61 3.37 6.26 8.05 11.85 13.86 16.36 3.06 2.38 3.6 6.77 1.22 9.84-2.35 3.03-6.75 3.6-9.81 1.22-7.31-5.67-13.27-12.81-17.57-20.86-4.28-8.02-6.91-16.93-7.59-26.17zm42.77-10.82c1.98-3.32 6.26-4.39 9.58-2.41s4.39 6.26 2.41 9.58l-2.24 3.74c-1.98 3.32-6.26 4.39-9.58 2.41s-4.39-6.26-2.41-9.58zm82.89-22.51c1.98-3.29 6.26-4.37 9.58-2.41 3.29 1.98 4.37 6.26 2.41 9.58l-2.27 3.74c-1.98 3.32-6.26 4.39-9.55 2.41-3.32-1.98-4.39-6.26-2.41-9.58zm5.1-44.51c3.77-.79 7.48 1.62 8.28 5.39.82 3.77-1.59 7.48-5.39 8.31-10.89 2.3-19.45 5.95-25.65 10.94-5.81 4.71-9.61 10.69-11.37 17.97-.91 3.74-4.68 6.04-8.42 5.13-3.77-.88-6.07-4.68-5.16-8.42 2.52-10.35 7.91-18.88 16.21-25.57 7.91-6.38 18.43-10.97 31.5-13.75zm-.03 132.64c1.96-3.32 6.26-4.39 9.55-2.41 3.32 1.98 4.39 6.26 2.41 9.58l-2.24 3.74c-1.98 3.32-6.26 4.39-9.58 2.41s-4.39-6.26-2.41-9.58zm-4.88-166.51c1.96-3.29 6.26-4.37 9.55-2.41 3.32 1.98 4.39 6.26 2.41 9.58l-2.24 3.74c-1.98 3.32-6.26 4.39-9.58 2.41s-4.39-6.26-2.41-9.55zm-73.38-13.78c-3.69-1.16-5.7-5.1-4.54-8.76 1.19-3.69 5.13-5.7 8.79-4.51 7.63 2.44 14.63 6.24 20.75 11.17 6.12 4.9 11.34 10.91 15.39 17.8 1.96 3.34.82 7.6-2.49 9.55-3.32 1.96-7.6.82-9.55-2.49-3.15-5.39-7.26-10.12-12.1-13.97-4.8-3.85-10.3-6.86-16.25-8.79zm-78.5 8.76c3.71-1.02 7.57 1.16 8.59 4.88 1.02 3.71-1.16 7.57-4.88 8.59-7.77 2.15-14.34 6.8-18.94 12.95-4.59 6.15-7.2 13.75-7.06 21.83.06 3.86-3.03 7.03-6.86 7.09-3.86.06-7.03-3-7.09-6.86-.2-11.28 3.43-21.91 9.81-30.44s15.55-15.03 26.43-18.04zm38.07-29.85c1.96-3.32 6.26-4.39 9.55-2.41 3.32 1.98 4.39 6.26 2.41 9.58l-2.24 3.74c-1.98 3.32-6.26 4.39-9.58 2.41s-4.39-6.26-2.41-9.58zm98.82-62.7c-3.77-.82-6.18-4.54-5.36-8.31.82-3.8 4.54-6.18 8.31-5.36 9.21 1.98 18.03 5.3 26.19 9.78 8.16 4.51 15.68 10.18 22.31 16.89 2.72 2.75 2.66 7.17-.08 9.86-2.75 2.72-7.17 2.66-9.86-.08-5.64-5.73-12.08-10.57-19.08-14.43-6.98-3.81-14.55-6.65-22.43-8.35zm-126.71 3.35c-.88 3.77-4.62 6.12-8.36 5.24-3.77-.85-6.12-4.59-5.27-8.36 1.5-6.43 4.76-12.13 9.27-16.55 4.54-4.45 10.29-7.63 16.75-8.99 3.77-.77 7.48 1.64 8.25 5.41.79 3.8-1.62 7.48-5.41 8.28-3.77.79-7.14 2.64-9.78 5.24-2.67 2.61-4.6 5.96-5.45 9.73z" fill="#99cc67"/></svg>