<svg id="Capa_1" enable-background="new 0 0 512 512" height="512" viewBox="0 0 512 512" width="512" xmlns="http://www.w3.org/2000/svg"><g><g><path d="m128.649 250.03h365.805c0-54.363-46.268-67.025-46.268-67.025 0-58.057-61.144-63.417-61.144-63.417 17.734-36.06-7.11-68.119-22.109-83.02-4.576-4.546-12.125-3.694-15.728 1.657-20.154 29.927-69.849 58.027-134.998 72.058-63.59 13.695-44.024 77.391-44.024 77.391s-40.586 18.036-41.534 62.356z" fill="#fff1e2"/><path d="m494.45 250.029h-27.521c-10.734-34.292-42.793-43.059-42.793-43.059 0-58.054-61.137-63.421-61.137-63.421 17.73-36.053-7.108-68.112-22.113-83.015-2.612-2.591-6.197-3.431-9.454-2.673 7.293-6.35 13.264-12.946 17.771-19.635 3.605-5.347 11.154-6.207 15.732-1.659 14.995 14.903 39.843 46.962 22.103 83.025 0 0 61.147 5.357 61.147 63.411 0-.001 46.265 12.669 46.265 67.026z" fill="#fee7c9"/><g><path d="m340.076 478.374h-57.049c-89.211 0-161.531-72.32-161.531-161.53v-32.264h380.11v32.264c0 89.211-72.319 161.53-161.53 161.53z" fill="#b3cbea"/><path d="m121.496 284.58h380.11v32.264h-380.11z" fill="#84aee1"/><path d="m501.61 284.576v32.264c0 89.212-72.322 161.533-161.533 161.533h-34.65c89.211 0 161.533-72.322 161.533-161.533v-32.264z" fill="#84aee1"/><g><path d="m501.758 293.217h-380.413c-5.657 0-10.242-4.586-10.242-10.242v-22.702c0-5.657 4.586-10.242 10.242-10.242h380.412c5.657 0 10.242 4.586 10.242 10.242v22.702c.001 5.656-4.585 10.242-10.241 10.242z" fill="#d3e1f4"/><path d="m511.996 260.271v22.707c0 5.654-4.578 10.242-10.242 10.242h-28.494c5.654 0 10.242-4.589 10.242-10.242v-22.707c0-5.654-4.589-10.242-10.242-10.242h28.494c5.663 0 10.242 4.588 10.242 10.242z" fill="#b3cbea"/></g></g><g fill="#ffd496"><path d="m299.214 176.025c-3.74 0-7.028-2.722-7.624-6.533-.66-4.216 2.223-8.168 6.439-8.827 66.78-10.449 81.734-43.705 81.877-44.04 1.597-3.957 6.085-5.833 10.041-4.237 3.957 1.597 5.855 6.136 4.259 10.093-.682 1.69-17.579 41.527-93.789 53.451-.403.062-.806.093-1.203.093z"/><path d="m232.903 226.166c-40.528 0-60.805-10.393-69.989-35.871-1.447-4.015.634-8.442 4.648-9.889 4.017-1.448 8.442.635 9.889 4.648 7.735 21.46 26.19 25.659 55.452 25.659 4.267 0 7.726 3.459 7.726 7.726s-3.459 7.727-7.726 7.727z"/><path d="m413.338 227.567c-3.135.001-6.086-1.922-7.245-5.038-1.485-3.995.715-8.473 4.698-9.989 21.557-8.202 28.412-20.261 30.591-26.995.988-3.055 3.829-5.13 7.037-5.253 5.379-.206 9.296 4.989 7.669 10.12-3.315 10.457-12.832 26.377-40.02 36.654-.899.34-1.822.501-2.73.501z"/><path d="m313.798 222.698c-3.73 0-7.012-2.707-7.62-6.507-.674-4.214 2.196-8.176 6.409-8.85 25.215-4.033 46.88-10.964 62.653-20.045 3.697-2.129 8.422-.858 10.551 2.841 2.129 3.698.857 8.422-2.841 10.551-17.633 10.151-40.486 17.524-67.923 21.911-.412.067-.823.099-1.229.099z"/></g><path d="m249.73 141.838c-4.267 0-7.726-3.459-7.726-7.726v-.106c0-4.267 3.459-7.726 7.726-7.726s7.726 3.459 7.726 7.726v.106c.001 4.267-3.459 7.726-7.726 7.726z" fill="#fee7c9"/><path d="m237.357 170.191c-4.267 0-7.726-3.459-7.726-7.726v-.106c0-4.267 3.459-7.726 7.726-7.726s7.726 3.459 7.726 7.726v.106c0 4.266-3.459 7.726-7.726 7.726z" fill="#fee7c9"/><path d="m278.932 226.272c-4.267 0-7.726-3.459-7.726-7.726v-.106c0-4.267 3.459-7.726 7.726-7.726s7.726 3.459 7.726 7.726v.106c0 4.266-3.459 7.726-7.726 7.726z" fill="#fee7c9"/><path d="m402.171 183.059c-4.267 0-7.726-3.459-7.726-7.726v-.106c0-4.267 3.459-7.726 7.726-7.726s7.726 3.459 7.726 7.726v.106c0 4.267-3.459 7.726-7.726 7.726z" fill="#ffd496"/></g><g><g><path d="m191.321 196.123v272.008c0 5.654-4.589 10.242-10.242 10.242h-170.833c-5.664 0-10.242-4.589-10.242-10.242v-272.008c0-5.654 4.578-10.242 10.242-10.242h170.833c5.654-.001 10.242 4.588 10.242 10.242z" fill="#5591d6"/><path d="m191.321 196.123v272.008c0 5.654-4.589 10.242-10.242 10.242h-29.703c5.654 0 10.242-4.589 10.242-10.242v-272.008c0-5.654-4.589-10.242-10.242-10.242h29.703c5.654-.001 10.242 4.588 10.242 10.242z" fill="#1475cb"/><path d="m.003 406.445v61.686c0 5.654 4.578 10.242 10.242 10.242h170.833c5.654 0 10.242-4.589 10.242-10.242v-61.686z" fill="#fb3a82"/><path d="m191.321 406.441v61.69c0 5.654-4.589 10.242-10.242 10.242h-29.703c5.654 0 10.242-4.589 10.242-10.242v-61.69z" fill="#fb1466"/><g><path d="m111.441 185.88c-8.255 27.47-34.292 81.376-111.438 81.642v-71.4c0-5.654 4.578-10.242 10.242-10.242z" fill="#fff1e2"/></g></g></g><g><path d="m0 424.037v-17.592c.496-23.18 29.916-32.613 29.916-32.613s-10.233-33.314 23.025-40.477c34.074-7.338 51.871-22.035 62.412-37.687 1.885-2.798 5.832-3.244 8.226-.866 7.845 7.793 20.839 24.561 11.563 43.421 0 0 31.979 2.803 31.979 33.168 0 0 24.198 6.622 24.198 35.055v17.592h-191.319z" fill="#fff1e2"/><path d="m102.359 374.003c-3.045 0-5.931-1.811-7.154-4.804-1.615-3.95.277-8.461 4.227-10.076 24.039-9.83 32.475-25.728 32.822-26.399 1.907-3.818 6.534-5.343 10.353-3.436 3.817 1.907 5.354 6.571 3.447 10.388-.438.876-11.064 21.601-40.774 33.75-.957.391-1.947.577-2.921.577z" fill="#fee7c9"/></g><path d="m42.325 390.27c-6.965 0-12.05-1.932-15.545-4.071-.736-.451-1.421-.92-2.059-1.4-4.886-3.681-3.656-11.354 2.077-13.489 2.416-.9 5.121-.559 7.222.936 3.032 2.159 9.189 4.214 20.577.049 3.955-1.446 8.525.247 10.15 4.132 1.701 4.07-.332 8.7-4.426 10.227-7.038 2.623-13 3.616-17.996 3.616z" fill="#fee7c9"/><path d="m151.289 399.291c-2.94 0-5.748-1.686-7.041-4.538-1.762-3.886-.04-8.465 3.846-10.227 14.209-6.443 15.307-15.455 15.312-15.543.224-4.261 3.868-7.528 8.123-7.309 4.261.225 7.533 3.861 7.309 8.123-.039.742-1.225 18.311-24.362 28.802-1.036.47-2.12.692-3.187.692z" fill="#fee7c9"/><g><path d="m191.32 226.74c-5.051-5.123-12.07-8.301-19.832-8.301-15.384 0-27.855 12.471-27.855 27.855s12.471 27.855 27.855 27.855c7.763 0 14.781-3.178 19.832-8.301z" fill="#fb3a82"/><path d="m191.321 226.737v39.116c-5.05 5.121-12.076 8.296-19.829 8.296-3.482 0-6.811-.635-9.874-1.803v-52.103c3.063-1.168 6.391-1.803 9.874-1.803 7.754.001 14.78 3.176 19.829 8.297z" fill="#fb1466"/></g><path d="m43.254 226.166h-13.338c-4.267 0-7.726-3.459-7.726-7.726s3.459-7.726 7.726-7.726h13.337c4.267 0 7.726 3.459 7.726 7.726s-3.458 7.726-7.725 7.726z" fill="#fb3a82"/></g></svg>