<svg id="Nuggets" enable-background="new 0 0 64 64" viewBox="0 0 64 64" xmlns="http://www.w3.org/2000/svg"><g><g><path d="m26.80117 23.38792c.34245.96889-.26893 2.1865-.06642 3.14674.21289 1.00943 1.25773 1.88322 1.32233 2.85948.0684 1.03381-.86014 2.0299-.95052 2.99859-.0968 1.03748.61595 2.20015.3462 3.1288-.29173 1.00431-1.52049 1.57656-2.00296 2.41063-.52094.90058-.4468 2.26214-1.17556 2.91012-.75312.66964-2.07144.41308-3.03009.75191-.95924.33904-1.82426 1.36699-2.83154 1.31909-.97409-.04632-1.77182-1.15223-2.74296-1.52562-.89942-.34581-2.21497-.01906-3.07298-.61715-.79249-.55243-.96778-1.90405-1.69425-2.64938-.67883-.69645-2.02687-.88741-2.62317-1.73422-.56327-.79988-.29967-2.13612-.76845-3.055-.44633-.87488-1.68744-1.43857-2.03018-2.40828-.34245-.96889.26894-2.1865.06642-3.14674-.21289-1.00943-1.25773-1.88322-1.32233-2.85948-.0684-1.03381.86014-2.0299.95052-2.99859.0968-1.03748-.61595-2.20015-.3462-3.12881.29173-1.00431 1.52049-1.57656 2.00296-2.41063.52095-.90058.4468-2.26214 1.17556-2.91012.75312-.66964 2.07144-.41308 3.03009-.75191.95924-.33904 1.82426-1.36699 2.83154-1.31909.97409.04632 1.77182 1.15223 2.74296 1.52562.89942.34581 2.21498.01906 3.07298.61715.79249.55242.96778 1.90404 1.69425 2.64938.67883.69646 2.02687.88742 2.62317 1.73422.56326.79989.29967 2.13613.76845 3.055.44633.8749 1.68744 1.43858 2.03018 2.40829z" fill="#fcdd5e"/><g fill="#e0ad48"><circle cx="14.552" cy="18.852" r="1.28"/><circle cx="11.436" cy="25.415" r="1.28"/></g></g><g><path d="m42.66028 23.38792c.34245.96889-.26894 2.1865-.06642 3.14674.21289 1.00943 1.25774 1.88322 1.32233 2.85948.06841 1.03381-.86014 2.0299-.95052 2.99859-.09679 1.03748.61595 2.20015.3462 3.1288-.29173 1.00431-1.52049 1.57656-2.00296 2.41063-.52095.90058-.4468 2.26214-1.17556 2.91012-.75312.66964-2.07144.41308-3.03009.75191-.95924.33904-1.82426 1.36699-2.83154 1.31909-.97409-.04632-1.77182-1.15223-2.74296-1.52562-.89942-.34581-2.21498-.01906-3.07298-.61715-.79249-.55243-.96778-1.90405-1.69425-2.64938-.67883-.69645-2.02687-.88741-2.62317-1.73422-.56327-.79988-.29967-2.13612-.76845-3.055-.44633-.87488-1.68744-1.43857-2.03018-2.40828-.34245-.96889.26894-2.1865.06642-3.14674-.21289-1.00943-1.25773-1.88322-1.32233-2.85948-.0684-1.03381.86014-2.0299.95052-2.99859.0968-1.03748-.61595-2.20015-.3462-3.12881.29173-1.00431 1.52049-1.57656 2.00296-2.41063.52094-.90058.4468-2.26214 1.17556-2.91012.75312-.66964 2.07144-.41308 3.03009-.75191.95924-.33904 1.82426-1.36699 2.83154-1.31909.97409.04632 1.77182 1.15223 2.74296 1.52562.89942.34581 2.21497.01906 3.07298.61715.79249.55242.96778 1.90404 1.69425 2.64938.67883.69646 2.02687.88742 2.62317 1.73422.56327.79989.29967 2.13613.76845 3.055.44633.8749 1.68743 1.43858 2.03018 2.40829z" fill="#e0ad48"/><circle cx="29.677" cy="20.77" fill="#fcdd5e" r="1.28"/></g><g><path d="m58.51938 23.38792c.34245.96889-.26893 2.1865-.06642 3.14674.21289 1.00943 1.25773 1.88322 1.32233 2.85948.0684 1.03381-.86014 2.0299-.95052 2.99859-.0968 1.03748.61595 2.20015.3462 3.1288-.29173 1.00431-1.52049 1.57656-2.00296 2.41063-.52095.90058-.4468 2.26214-1.17556 2.91012-.75312.66964-2.07144.41308-3.03009.75191-.95924.33904-1.82426 1.36699-2.83154 1.31909-.97409-.04632-1.77182-1.15223-2.74295-1.52562-.89943-.34581-2.21497-.01906-3.07298-.61715-.79249-.55243-.96777-1.90405-1.69425-2.64938-.67883-.69645-2.02686-.88741-2.62317-1.73422-.56327-.79988-.29967-2.13612-.76845-3.055-.44633-.87488-1.68744-1.43857-2.03018-2.40828-.34245-.96889.26894-2.1865.06642-3.14674-.21289-1.00943-1.25773-1.88322-1.32233-2.85948-.06841-1.03381.86014-2.0299.95052-2.99859.0968-1.03748-.61595-2.20015-.3462-3.12881.29173-1.00431 1.52049-1.57656 2.00296-2.41063.52095-.90058.4468-2.26214 1.17556-2.91012.75312-.66964 2.07144-.41308 3.03009-.75191.95924-.33904 1.82426-1.36699 2.83154-1.31909.97409.04632 1.77182 1.15223 2.74295 1.52562.89943.34581 2.21497.01906 3.07298.61715.79249.55242.96778 1.90404 1.69425 2.64938.67883.69646 2.02686.88742 2.62317 1.73422.56327.79989.29967 2.13613.76845 3.055.44634.8749 1.68744 1.43858 2.03018 2.40829z" fill="#fcdd5e"/><g fill="#e0ad48"><circle cx="49.139" cy="25.415" r="1.28"/><circle cx="43.708" cy="19.49" r="1.28"/></g></g><g><path d="m56.2078 52.60334h-48.4156c-1.44899 0-2.72217-.96121-3.11905-2.35479l-4.57655-16.06985c-.45226-1.58803.74035-3.1677 2.39152-3.1677h59.02377c1.65117 0 2.84378 1.57967 2.39152 3.1677l-4.57655 16.06985c-.39689 1.39358-1.67007 2.35479-3.11906 2.35479z" fill="#f75c81"/><path d="m55.75094 44.19419c-.115 0-.2325-.015-.35-.05-.68-.1925-1.075-.9-.88-1.58l1.585-5.5625c.1925-.68.885-1.09 1.58-.88.68.1925 1.075.9.88 1.58l-1.585 5.5625c-.16.5625-.6725.93-1.23.93z" fill="#f8a"/></g></g></svg>