<svg height="512" viewBox="0 0 128 128" width="512" xmlns="http://www.w3.org/2000/svg"><g><path d="m124.029 62.363-3.787-4.337-.805-5.907a9 9 0 0 0 -4.707-6.738l-5.275-2.791-2.779-5.242a9 9 0 0 0 -6.8-4.711l-5.876-.759-4.4-3.737a9 9 0 0 0 -8.288-1.789l-5.549 1.582-5.553-1.582a9 9 0 0 0 -8.288 1.789l-4.408 3.737-5.875.759a9 9 0 0 0 -6.8 4.71l-2.779 5.242-5.275 2.792a9 9 0 0 0 -4.707 6.738l-.806 5.907-.028.033 2.914-.377 4.408-3.736a9 9 0 0 1 8.288-1.79l5.549 1.583 5.549-1.583a9 9 0 0 1 8.288 1.79l4.408 3.736 5.875.76a9 9 0 0 1 6.8 4.71l2.777 5.242 5.274 2.792a8.987 8.987 0 0 1 4.277 5h23.03a7.514 7.514 0 0 0 7.246-5.527 9 9 0 0 0 -1.898-8.296z" fill="#ffb64c"/><path d="m102.577 96.466a9 9 0 0 0 -1.9-8.3l-3.787-4.335-.806-5.907a9 9 0 0 0 -4.707-6.738l-5.277-2.792-2.779-5.242a9 9 0 0 0 -6.8-4.71l-5.875-.76-4.408-3.736a9 9 0 0 0 -8.288-1.79l-5.549 1.583-5.549-1.583a9 9 0 0 0 -8.288 1.79l-4.408 3.736-5.874.76a9 9 0 0 0 -6.8 4.71l-2.772 5.241-5.274 2.792a9 9 0 0 0 -4.707 6.738l-.806 5.908-3.787 4.337a9 9 0 0 0 -1.9 8.3 7.515 7.515 0 0 0 7.246 5.528h85.85a7.513 7.513 0 0 0 7.245-5.53z" fill="#ffd396"/><g fill="#ffb64c"><path d="m45.123 68.059a1.75 1.75 0 0 1 -1.737-1.554l-.75-6.627a1.75 1.75 0 0 1 3.478-.393l.75 6.627a1.749 1.749 0 0 1 -1.542 1.935 1.686 1.686 0 0 1 -.199.012z"/><path d="m33.75 74.178a1.742 1.742 0 0 1 -1.223-.5l-5.625-5.5a1.75 1.75 0 1 1 2.446-2.5l5.625 5.5a1.75 1.75 0 0 1 -1.223 3z"/><path d="m24 84.515a1.737 1.737 0 0 1 -.859-.227l-7-3.958a1.75 1.75 0 0 1 1.722-3.047l7 3.958a1.75 1.75 0 0 1 -.863 3.274z"/><path d="m21.374 94.681h-8.374a1.75 1.75 0 0 1 0-3.5h8.374a1.75 1.75 0 0 1 0 3.5z"/><path d="m59.689 68.059a1.7 1.7 0 0 1 -.2-.012 1.75 1.75 0 0 1 -1.542-1.935l.75-6.627a1.751 1.751 0 0 1 3.479.393l-.75 6.627a1.752 1.752 0 0 1 -1.737 1.554z"/><path d="m71.062 74.178a1.749 1.749 0 0 1 -1.222-3l5.625-5.5a1.75 1.75 0 1 1 2.445 2.5l-5.625 5.5a1.745 1.745 0 0 1 -1.223.5z"/><path d="m80.814 84.515a1.75 1.75 0 0 1 -.863-3.274l7-3.958a1.75 1.75 0 1 1 1.723 3.047l-7 3.958a1.746 1.746 0 0 1 -.86.227z"/><path d="m91.812 94.681h-8.374a1.75 1.75 0 0 1 0-3.5h8.374a1.75 1.75 0 0 1 0 3.5z"/></g><path d="m68.476 42.254a1.752 1.752 0 0 1 -1.738-1.554l-.75-6.627a1.751 1.751 0 0 1 3.479-.393l.75 6.626a1.751 1.751 0 0 1 -1.542 1.936 1.694 1.694 0 0 1 -.199.012z" fill="#e58f22"/><path d="m57.1 48.373a1.74 1.74 0 0 1 -1.222-.5l-5.625-5.5a1.75 1.75 0 1 1 2.445-2.5l5.625 5.5a1.749 1.749 0 0 1 -1.223 3z" fill="#e58f22"/><path d="m83.042 42.254a1.682 1.682 0 0 1 -.2-.011 1.75 1.75 0 0 1 -1.542-1.936l.75-6.626a1.75 1.75 0 0 1 3.478.393l-.75 6.627a1.75 1.75 0 0 1 -1.736 1.553z" fill="#e58f22"/><path d="m94.415 48.373a1.749 1.749 0 0 1 -1.223-3l5.625-5.5a1.75 1.75 0 1 1 2.446 2.5l-5.625 5.5a1.742 1.742 0 0 1 -1.223.5z" fill="#e58f22"/><path d="m104.167 58.711a1.75 1.75 0 0 1 -.863-3.274l7-3.959a1.75 1.75 0 0 1 1.722 3.047l-7 3.959a1.737 1.737 0 0 1 -.859.227z" fill="#e58f22"/><path d="m115.165 68.877h-8.374a1.75 1.75 0 0 1 0-3.5h8.374a1.75 1.75 0 0 1 0 3.5z" fill="#e58f22"/></g></svg>