<?xml version="1.0" encoding="iso-8859-1"?>
<!-- Generator: Adobe Illustrator 19.0.0, SVG Export Plug-In . SVG Version: 6.00 Build 0)  -->
<svg version="1.1" id="Capa_1" xmlns="http://www.w3.org/2000/svg" xmlns:xlink="http://www.w3.org/1999/xlink" x="0px" y="0px"
	 viewBox="0 0 512 512" style="enable-background:new 0 0 512 512;" xml:space="preserve">
<path style="fill:#F78419;" d="M238.345,79.448V35.31C106.708,35.31,0,142.018,0,273.655h44.138
	C44.138,166.4,131.09,79.448,238.345,79.448z"/>
<path style="fill:#FA962A;" d="M44.138,273.655H0C0,405.292,106.708,512,238.345,512v-44.138
	C131.09,467.862,44.138,380.91,44.138,273.655z"/>
<path style="fill:#F78419;" d="M238.345,467.862V512c131.637,0,238.345-106.708,238.345-238.345h-44.138
	C432.552,380.91,345.6,467.862,238.345,467.862z"/>
<path style="fill:#FA962A;" d="M273.655,273.655h-35.31v194.207c107.255,0,194.207-86.952,194.207-194.207h-52.966"/>
<path style="fill:#FCAC2B;" d="M44.138,273.655c0,107.255,86.952,194.207,194.207,194.207V273.655H44.138z"/>
<path style="fill:#FA962A;" d="M44.138,273.655h194.207V79.448C131.09,79.448,44.138,166.4,44.138,273.655z"/>
<path style="fill:#DE4C3C;" d="M141.241,247.172c-14.627,0-26.483-11.855-26.483-26.483s11.855-26.483,26.483-26.483
	s26.483,11.855,26.483,26.483S155.869,247.172,141.241,247.172z"/>
<rect x="185.379" y="220.69" style="fill:#F46B27;" width="17.655" height="17.655"/>
<path style="fill:#88B337;" d="M211.862,158.897h-17.655c0-9.754-7.901-17.655-17.655-17.655c-9.754,0-17.655,7.901-17.655,17.655
	h-17.655c0-19.5,15.81-35.31,35.31-35.31S211.862,139.396,211.862,158.897z"/>
<rect x="105.931" y="167.724" style="fill:#F46B27;" width="17.655" height="17.655"/>
<path style="fill:#DE4C3C;" d="M114.759,353.103c-14.627,0-26.483-11.855-26.483-26.483s11.855-26.483,26.483-26.483
	s26.483,11.855,26.483,26.483S129.386,353.103,114.759,353.103z"/>
<rect x="185.379" y="300.138" style="fill:#F46B27;" width="17.655" height="17.655"/>
<path style="fill:#88B337;" d="M176.552,397.241c-19.5,0-35.31-15.81-35.31-35.31h17.655c0,9.754,7.901,17.655,17.655,17.655
	c9.754,0,17.655-7.901,17.655-17.655h17.655C211.862,381.431,196.052,397.241,176.552,397.241z"/>
<rect x="194.207" y="414.897" style="fill:#F46B27;" width="17.655" height="17.655"/>
<path style="fill:#DE4C3C;" d="M361.931,379.586c-14.627,0-26.483-11.855-26.483-26.483s11.855-26.483,26.483-26.483
	s26.483,11.855,26.483,26.483S376.558,379.586,361.931,379.586z"/>
<path style="fill:#88B337;" d="M300.138,423.724v-17.655c9.754,0,17.655-7.901,17.655-17.655s-7.901-17.655-17.655-17.655v-17.655
	c19.5,0,35.31,15.81,35.31,35.31C335.448,407.914,319.638,423.724,300.138,423.724z"/>
<g>
	<rect x="264.828" y="344.276" style="fill:#F46B27;" width="17.655" height="17.655"/>
	<rect x="273.655" y="379.586" style="fill:#F46B27;" width="17.655" height="17.655"/>
</g>
<path style="fill:#FDB62F;" d="M379.586,238.345h88.276c0-107.255-86.952-194.207-194.207-194.207v256
	c0,9.754,7.901,17.655,17.655,17.655l0,0c9.754,0,17.655-7.901,17.655-17.655v-8.828c0-9.754,7.901-17.655,17.655-17.655l0,0
	c9.754,0,17.655,7.901,17.655,17.655v26.483c0,9.754,7.901,17.655,17.655,17.655l0,0c9.754,0,17.655-7.901,17.655-17.655V238.345z"
	/>
<path style="fill:#FA962A;" d="M273.655,0v44.138c107.255,0,194.207,86.952,194.207,194.207H512C512,106.708,405.292,0,273.655,0z"
	/>
<path style="fill:#DE4C3C;" d="M326.621,185.379c-14.627,0-26.483-11.855-26.483-26.483c0-14.627,11.855-26.483,26.483-26.483
	s26.483,11.855,26.483,26.483C353.103,173.524,341.248,185.379,326.621,185.379z"/>
<path style="fill:#88B337;" d="M370.759,194.207v-17.655c9.754,0,17.655-7.901,17.655-17.655c0-9.754-7.901-17.655-17.655-17.655
	v-17.655c19.5,0,35.31,15.81,35.31,35.31S390.259,194.207,370.759,194.207z"/>
<g>
	<rect x="308.966" y="88.276" style="fill:#F46B27;" width="17.655" height="17.655"/>
	<rect x="423.724" y="194.207" style="fill:#F46B27;" width="17.655" height="17.655"/>
</g>
<g>
</g>
<g>
</g>
<g>
</g>
<g>
</g>
<g>
</g>
<g>
</g>
<g>
</g>
<g>
</g>
<g>
</g>
<g>
</g>
<g>
</g>
<g>
</g>
<g>
</g>
<g>
</g>
<g>
</g>
</svg>
