<svg id="Capa_1" enable-background="new 0 0 512 512" height="512" viewBox="0 0 512 512" width="512" xmlns="http://www.w3.org/2000/svg"><g><g><path d="m477.112 178.646c-3.471-1.262-5.42-5.042-4.293-8.559 2.316-7.226 1.942-15.324-1.675-22.669-5.651-11.476-17.584-17.798-29.603-16.86-3.047.238-5.842-1.512-7.062-4.314-.193-.442-.396-.883-.612-1.32-5.526-11.222-17.059-17.516-28.806-16.912-3.51.181-6.576-2.267-7.235-5.719-.501-2.621-1.358-5.22-2.594-7.73-6.621-13.446-21.866-19.817-35.769-15.724.01-4.523-.995-9.117-3.128-13.45-7.372-14.975-25.266-21.181-40.323-13.979-2.082.996-3.997 2.196-5.734 3.566-3.58 2.823-8.794 1.305-10.702-2.836-.414-.898-.875-1.786-1.385-2.661-7.581-13.002-23.932-18.484-37.823-12.692-.285.119-.568.242-.847.368-3.301 1.492-7.197.179-8.944-2.994-.132-.24-.268-.479-.407-.717-2.547-4.353-6.077-7.861-10.167-10.382-8.13-5.011-14.192-2.166-23.435 1.718-8.862 3.725-17.691 9.594-20.158 18.02-.995 3.398-4.228 5.717-7.734 5.219-5.83-.827-11.962.031-17.644 2.828-9.43 4.644-12.291 14.694-13.592 24.384-.482 3.59-3.597 6.275-7.214 6.081-5.018-.268-10.173.708-15.003 3.086-6.504 3.203-14.106 7.811-16.916 13.922-1.388 3.019-4.653 4.747-7.888 3.99-6.598-1.543-10.061 1.626-16.614 4.852-11.245 5.537-17.541 17.106-16.908 28.878-.012 0-.025 0-.037 0-16.764 0-24.244 8.021-24.244 24.785 0 2.954.422 5.81 1.209 8.51 1.076 3.692-.838 7.66-4.522 8.764-12.509 3.75-21.625 15.35-21.625 29.08 0 16.764 1.911 30.354 18.675 30.354l204.009 16.167 216.374-16.167c16.764 0 30.354-13.59 30.354-30.354.001-13.119-8.323-24.295-19.978-28.533z" fill="#ffeabb"/><g><path d="m77.26 237.534c-16.764 0-30.354-13.59-30.354-30.354 0-13.73 9.116-25.33 21.625-29.08 3.684-1.104 5.599-5.072 4.522-8.765-.787-2.7-1.209-5.556-1.209-8.51 0-14.802 10.648-27.295 24.931-29.869 3.007-.542 5.275-2.928 5.662-5.958.002-.018.005-.036.007-.055 1.265-9.741 7.226-18.686 16.699-23.35 6.553-3.227 13.705-3.872 20.303-2.33 3.235.757 6.5-.971 7.888-3.99 2.81-6.111 7.658-11.332 14.163-14.535 4.83-2.378 9.985-3.354 15.003-3.086 3.616.193 6.732-2.491 7.213-6.081 1.301-9.69 7.251-18.576 16.682-23.219 5.682-2.798 11.813-3.655 17.644-2.828 3.489.495 6.736-1.792 7.721-5.175 2.096-7.201 6.84-13.608 13.696-17.652-8.519-5.029-19.327-5.8-28.865-1.104-8.007 3.943-13.505 10.943-15.779 18.898-.953 3.333-4.247 5.519-7.679 5.032-5.83-.827-11.962.031-17.644 2.828-9.43 4.644-15.381 13.529-16.682 23.219-.482 3.589-3.597 6.274-7.213 6.081-5.019-.269-10.174.708-15.003 3.086-6.504 3.203-11.353 8.424-14.163 14.535-1.388 3.019-4.653 4.747-7.888 3.99-6.598-1.543-13.75-.897-20.303 2.33-11.245 5.537-17.541 17.106-16.908 28.878-.012 0-.025 0-.037 0-16.764 0-30.354 13.59-30.354 30.354 0 2.954.422 5.81 1.209 8.51 1.076 3.692-.838 7.66-4.522 8.765-12.509 3.751-21.625 15.352-21.625 29.081 0 16.764 13.59 30.354 30.354 30.354l204.009 16.167 15.907-1.189z" fill="#ffdb97"/></g><path d="m277.17 258.183-43.385-20.29c-3.502-1.638-5.013-5.804-3.375-9.306l17.324-37.044c1.638-3.502 5.804-5.013 9.306-3.375l37.044 17.324c3.502 1.638 5.013 5.804 3.375 9.306z" fill="#a0d94c"/><path d="m322.102 493.534h-108.298l-23.515-7v-25.222l58.445-17.995 80.367 17.995v25.222c.001 3.866-3.133 7-6.999 7z" fill="#505559"/><path d="m265.723 447.121-16.989-3.804-65.836 17.995v25.223c0 3.866 3.134 7 7 7h23.906v-32.223z" fill="#373c42"/><path d="m512 269.535-253.461-15.339-242.539 15.338c0 106.039 85.961 192 192 192h112c52.847 0 100.707-21.351 135.425-55.897 2.315-2.303-.434-5.684 1.761-8.102 2.593-2.856 10.107-4.772 12.526-7.781 26.456-32.904 42.288-74.713 42.288-120.219z" fill="#fcd258"/><circle cx="128" cy="164.629" fill="#e94442" r="16.33"/><circle cx="360.905" cy="75.232" fill="#e94442" r="16.33"/><circle cx="384" cy="164.629" fill="#a0d94c" r="23.095"/><path d="m236.886 119.917-16.398-16.398c-6.248-6.248-6.248-16.379 0-22.627s16.379-6.248 22.627 0l16.398 16.398c6.248 6.248 6.248 16.379 0 22.627-6.248 6.249-16.379 6.249-22.627 0z" fill="#fcd258"/><g fill="#ffdb97"><path d="m219.15 165.261c3.789 0 6.908-2.742 7.571-6.212.959-4.696-2.648-9.241-7.573-9.241-4.256 0-7.725 3.455-7.725 7.726.001 4.272 3.473 7.727 7.727 7.727z"/><path d="m336.004 213.257c4.229 0 7.726-3.429 7.726-7.726 0-4.106-3.327-7.719-7.731-7.719-4.243 0-7.721 3.434-7.721 7.719 0 4.357 3.522 7.726 7.726 7.726z"/><path d="m175.995 112.35c4.155 0 7.726-3.334 7.726-7.726 0-4.287-3.494-7.726-7.721-7.726-4.243 0-7.721 3.448-7.721 7.726 0 4.358 3.542 7.726 7.716 7.726z"/><path d="m315.74 129.75c4.249 0 7.726-3.448 7.726-7.726 0-4.776-3.978-7.719-7.76-7.719-4.14 0-7.693 3.37-7.693 7.719.001 4.277 3.452 7.726 7.727 7.726z"/><path d="m287.998 165.261c4.211 0 7.726-3.421 7.726-7.726 0-4.176-3.356-7.724-7.731-7.724-4.942 0-8.521 4.568-7.567 9.238.656 3.429 3.747 6.212 7.572 6.212z"/><path d="m74.11 213.257c4.287 0 7.726-3.497 7.726-7.726 0-4.261-3.483-7.719-7.728-7.719-4.321 0-7.725 3.502-7.725 7.719 0 4.33 3.498 7.726 7.727 7.726z"/><path d="m439.301 201.111c3.995 0 7.726-3.177 7.726-7.726 0-3.718-2.933-7.726-7.726-7.726-3.542 0-6.787 2.445-7.572 6.212-.953 4.69 2.644 9.24 7.572 9.24z"/><path d="m182.931 190.879c-4.324 0-7.76 3.486-7.76 7.729 0 4.237 3.448 7.726 7.726 7.726 4.169 0 7.726-3.397 7.726-7.726.001-4.382-3.589-7.729-7.692-7.729z"/></g><path d="m469.618 389.871h-392.941c-2.141 0-4.179-.968-5.493-2.659-25.247-32.503-40.279-73.335-40.279-117.678l235.25-14.878-15.793-.956-250.362 15.834c0 45.561 15.869 87.415 42.382 120.337.511.57 5.506 7.082 13.872 15.446l.007.007c34.743 34.73 82.733 56.21 135.739 56.21h30.906c-46.397 0-88.951-16.457-122.141-43.853-5.037-4.157-2.025-12.357 4.506-12.357h350.469c4.897-4.895 9.531-10.054 13.878-15.453z" fill="#f9b044"/><path d="m512 269.534h-501.534v-22.322l20.439-9.678h473.883c3.983 0 7.211 3.229 7.211 7.211v24.789z" fill="#505559"/><path d="m38.117 237.534h-30.906c-3.983 0-7.211 3.229-7.211 7.211v24.789h30.906v-24.789c0-3.982 3.228-7.211 7.211-7.211z" fill="#373c42"/></g></g></svg>