<svg id="Corndog" enable-background="new 0 0 64 64" viewBox="0 0 64 64" xmlns="http://www.w3.org/2000/svg"><g><path d="m1.30297 62.69674c-1.73731-1.73732-1.73729-4.55406.00003-6.29136l19.6213-19.62109 6.29132 6.29139-19.6213 19.62109c-1.73732 1.7373-4.55405 1.73729-6.29135-.00003z" fill="#ad6340"/><g><path d="m52.79161 31.45224c-.91425.91424-2.07657 1.39738-3.25196 1.52803-.13066 1.17539-.6139 2.33779-1.52815 3.25203s-2.07665 1.39746-3.25204 1.52811c-.13066 1.17539-.6139 2.33779-1.52815 3.25203-.90118.90117-2.06358 1.38439-3.23897 1.51504-.13066 1.17539-.61382 2.33771-1.52807 3.25195-1.01876 1.01875-2.33788 1.52811-3.66999 1.55417-.24824.84896-.67918 1.64563-1.33221 2.29865-1.54113 1.54111-3.76142 1.9329-5.66827 1.2538-2.11572 1.85455-5.32861 1.77617-7.33996-.2352-.27422-.27422-.50929-.56159-.70523-.86196-1.44969.03921-2.87323-.47017-3.97034-1.56729s-1.60647-2.52066-1.56725-3.97036c-.30036-.19594-.58773-.43102-.86195-.70524-2.01135-2.01137-2.08969-5.22427-.23512-7.33996-.67908-1.90686-.28727-4.12715 1.25386-5.66826.65303-.65302 1.4497-1.08395 2.29866-1.33218.02607-1.33211.53546-2.65122 1.55422-3.66997.91425-.91424 2.07657-1.39739 3.25196-1.52803.13066-1.17539.6139-2.33779 1.51507-3.23895.91425-.91424 2.07665-1.39746 3.25205-1.52811.13066-1.17539.6139-2.33779 1.52815-3.25203s2.07665-1.39747 3.25205-1.52811c.13066-1.17539.61382-2.33771 1.52807-3.25195.90118-.90117 2.06358-1.38439 3.23897-1.51504.13066-1.17539.6139-2.33779 1.52814-3.25203 1.01868-1.01867 2.3378-1.52804 3.66999-1.55417.24816-.84888.67918-1.64562 1.3322-2.29864 1.54113-1.54111 3.76143-1.9329 5.66819-1.25372 2.1158-1.85463 5.32869-1.77625 7.34004.23512.27422.27422.50929.56159.70523.86196 1.44969-.03921 2.87323.47017 3.97034 1.56729s1.60648 2.52066 1.56725 3.97035c.30036.19594.58773.43102.86195.70524 2.01134 2.01137 2.08969 5.22427.23503 7.34004.67916 1.90678.28735 4.12707-1.25378 5.66818-.65303.65302-1.44978 1.08403-2.29866 1.33218-.02615 1.33219-.53554 2.65131-1.55421 3.66997-.91425.91424-2.07665 1.39746-3.25204 1.52811-.13065 1.17538-.61389 2.33778-1.51507 3.23895z" fill="#ffdc6e"/><path d="m20.48418 42.18169c-.29462-.29463-.52611-.66004-.66768-1.08221-.48402-1.45208.30102-3.02023 1.75246-3.50488.77993-.25954 1.49736-.39027 2.1287-.50634 1.2748-.23148 2.04325-.37241 3.13949-1.46864 1.10453-1.10452 1.24547-1.87807 1.47888-3.15733.28889-1.58473.68365-3.75488 3.01197-6.08317 2.32194-2.32191 4.48954-2.7141 6.07108-3.00234 1.2799-.23148 2.05281-.37178 3.15799-1.47693 1.09688-1.09687 1.2359-1.86595 1.46549-3.14138.28634-1.58217.67728-3.75105 3.00113-6.07487 2.32577-2.32574 4.49401-2.72111 6.07746-3.00871.45023-.0829.90429-.15687 1.36855-.30992 1.45463-.47509 3.01895.3176 3.49723 1.76777.47701 1.454-.31377 3.02023-1.76777 3.49723-.771.25317-1.48078.38135-2.10574.49613-1.27799.23212-2.04899.37305-3.15161 1.47566-1.09688 1.09687-1.2359 1.86595-1.46549 3.14139-.28635 1.58217-.67728 3.75105-3.00113 6.07487-2.33023 2.3302-4.50166 2.72366-6.08766 3.01126-1.2748.23149-2.04453.37114-3.1414 1.46801-1.10453 1.10452-1.24547 1.87807-1.47888 3.15733-.28889 1.58472-.68365 3.75487-3.01197 6.08316-2.31875 2.31873-4.48189 2.7141-6.06215 3.00106-.51655.09565-.96295.17728-1.37173.31311-1.0293.34308-2.11915.04782-2.83722-.67026z" fill="#f7524b"/><path d="m41.61268 42.09635c-.52454.23322-1.06841.36909-1.61239.42742-.13601 1.18496-.62166 2.35059-1.53463 3.26355-1.02964 1.01019-2.33115 1.51527-3.67155 1.55404-.25255.8353-.67987 1.63183-1.34041 2.29225-1.53462 1.53472-3.74922 1.92325-5.65293 1.24326-2.1175 1.86493-5.34216 1.78713-7.34309-.23315-.27199-.27199-.50509-.56331-.71875-.85475-1.43751.03888-2.85556-.46622-3.96285-1.57352-1.08785-1.08786-1.61238-2.50592-1.57348-3.96287-.29144-.19433-.58275-.42744-.85474-.69943-2.00093-2.02028-2.09801-5.22549-.23306-7.34297-.67997-1.90372-.29141-4.13775 1.26265-5.67236.6411-.66053 1.43751-1.08784 2.29226-1.34039.01945-1.32095.52456-2.64202 1.5542-3.65209.91297-.93252 2.07861-1.39872 3.24412-1.53471.136-1.18496.62166-2.35047 1.51518-3.2441.62165-.62164 1.3793-1.04895 2.17583-1.3015-.03889.29132-.03889.6022-.03889.89364-.00007 10.29576 6.95442 18.99861 16.49253 21.73768z" opacity=".1"/></g></g></svg>