<svg height="464pt" viewBox="-48 0 464 464" width="464pt" xmlns="http://www.w3.org/2000/svg"><path d="m184 304h-48v-288l48-16zm0 0" fill="#ffb433"/><path d="m88 304h-48v-224l48-16zm0 0" fill="#ffb433"/><path d="m88 344h48v-288l-48-16zm0 0" fill="#fc3"/><path d="m280 344h-48v-288l48-16zm0 0" fill="#ffb433"/><path d="m184 320h48v-288l-48-16zm0 0" fill="#fc3"/><path d="m280 312h48v-224l-48-16zm0 0" fill="#fc3"/><path d="m320 464h-272l-48-304c33.773438-9.652344 70.011719 2.386719 91.296875 30.328125l2.78125 3.65625c21.070313 27.644531 54.015625 43.644531 88.769531 43.105469 34.753906-.535156 67.1875-17.542969 87.390625-45.824219 20.371094-28.523437 56.113281-41.679687 90.113281-33.175781l7.648438 1.910156zm0 0" fill="#f05d46"/><path d="m45.441406 249.316406 15.78125-2.632812 10.675782 63.996094-15.78125 2.632812zm0 0" fill="#ff8b78"/><path d="m40.113281 217.3125 15.785157-2.625 2.660156 16.003906-15.78125 2.625zm0 0" fill="#ff8b78"/><path d="m360.351562 158.089844c-14.640624-3.664063-29.996093-3.371094-44.488281.847656-59.535156 156.070312-194.519531 238.09375-272.800781 274.015625l4.9375 31.046875h272l48-304zm0 0" fill="#e3523b"/></svg>