<svg id="Capa_1" enable-background="new 0 0 512 512" height="512" viewBox="0 0 512 512" width="512" xmlns="http://www.w3.org/2000/svg"><g><g><path d="m266.302 216.533c0 3.978-1.051 7.896-3.039 11.331l-.299.516.299.516c1.585 2.737 2.559 5.733 2.898 8.904l.129 1.209 1.172-.327c2.46-.684 5.015-1.031 7.597-1.031 8.657 0 16.726 3.888 22.141 10.667l.366.459.582-.081c1.071-.151 2.142-.227 3.18-.227 5.035 0 9.805 1.621 13.795 4.687l.628.482.628-.482c3.99-3.066 8.76-4.687 13.795-4.687s9.805 1.621 13.795 4.687l1.658 1.275v-34.807c0-2.273 1.848-4.121 4.121-4.121h8.912c-1.762-10.267-9.936-18.696-20.803-20.279-1.753-.256-3.489-.316-5.189-.206.03-.179.066-.356.092-.537 1.969-13.512-7.388-26.062-20.9-28.032-12.73-1.855-24.603 6.345-27.582 18.6-3.129-2.266-6.833-3.836-10.921-4.431-10.907-1.59-21.183 4.203-25.778 13.601 10.624 1.871 18.723 11.161 18.723 22.314z" fill="#c86d36"/></g><g><g><path d="m337.856 195.223c-1.753-.256-3.489-.316-5.189-.206.03-.179.066-.356.092-.537 1.969-13.512-7.388-26.062-20.9-28.032-9.743-1.42-18.978 3.054-24.114 10.724 3.468-1.11 7.235-1.473 11.081-.912 13.512 1.969 22.87 14.519 20.9 28.032-.026.181-.062.358-.092.537 1.7-.11 3.436-.049 5.189.206 10.867 1.584 19.04 10.012 20.803 20.279v-5.691c0-2.273 1.848-4.121 4.121-4.121h8.912c-1.762-10.267-9.936-18.695-20.803-20.279z" fill="#ac5e2e"/></g></g><g><path d="m176.553 234.41c2.068 2.068 3.207 4.819 3.207 7.743s-1.139 5.674-3.207 7.742l-4.589 4.592 3.78-1.055c2.005-.559 4.051-.843 6.083-.843 5.035 0 9.805 1.621 13.795 4.687l.628.482.628-.482c3.99-3.066 8.76-4.687 13.795-4.687.147 0 .294.005.44.01l.842.023.305-.54c5.023-8.901 14.481-14.431 24.683-14.431 6.735 0 13.266 2.411 18.389 6.789l.67.572.669-.571c3.108-2.656 6.738-4.575 10.614-5.684-.232-3.764-1.342-7.29-3.128-10.377 2.017-3.486 3.178-7.53 3.178-11.847 0-13.086-10.608-23.694-23.694-23.694-5.428 0-10.427 1.83-14.423 4.9-3.995-3.071-8.994-4.9-14.423-4.9-5.428 0-10.427 1.83-14.423 4.9-3.995-3.071-8.994-4.9-14.423-4.9-13.086 0-23.694 10.608-23.694 23.694 0 1.335.123 2.64.336 3.914z" fill="#dc8758"/></g><g><g><path d="m267.332 216.533c0-13.086-10.608-23.694-23.694-23.694-3.687 0-7.166.861-10.277 2.364 7.912 3.838 13.368 11.946 13.368 21.33 0 4.317-1.16 8.361-3.178 11.847 1.786 3.087 2.897 6.613 3.128 10.377-.332.095-.66.204-.988.311 3.507 1.142 6.795 2.941 9.64 5.372l.67.572.669-.571c3.108-2.656 6.738-4.575 10.614-5.684-.232-3.764-1.342-7.29-3.128-10.377 2.015-3.486 3.176-7.53 3.176-11.847z" fill="#d77f4a"/></g></g><path d="m304.418 265.981c0-16.215-13.145-29.36-29.36-29.36-7.276 0-13.929 2.653-19.058 7.036-5.129-4.383-11.782-7.036-19.058-7.036-11.379 0-21.238 6.477-26.112 15.942 12.441.086 22.536 10.23 22.536 22.69 0 1.626-.187 3.286-.554 4.934l-.271 1.218h7.304c1.478 0 2.855.795 3.595 2.075l15.587 26.999h43.448c1.25-3.262 1.943-6.8 1.943-10.501 0-6.337-2.014-12.2-5.428-16.998 3.414-4.799 5.428-10.662 5.428-16.999z" fill="#fe7d43"/><g><path d="m359.018 248.468c8.439 0 16.127 4.646 20.064 12.126l.414.788.839-.296c2.423-.853 4.955-1.286 7.527-1.286 5.035 0 9.805 1.621 13.795 4.687l.628.482.628-.482c3.99-3.066 8.76-4.687 13.795-4.687.346 0 .687.026 1.03.042v-40.219c0-2.845-2.306-5.151-5.151-5.151h-62.841c-2.845 0-5.151 2.306-5.151 5.151v34.014l.628-.482c3.99-3.066 8.76-4.687 13.795-4.687z" fill="#ffe177"/></g><g><g><path d="m412.587 214.472h-20.604c2.845 0 5.151 2.306 5.151 5.151v42.162c1.591.713 3.107 1.614 4.523 2.703l.628.482.628-.482c3.99-3.066 8.76-4.687 13.795-4.687.346 0 .687.026 1.03.042v-40.219c0-2.846-2.306-5.152-5.151-5.152z" fill="#ffd15b"/></g></g><g><path d="m139.411 255.577.457 1.156 1.051-.663c3.613-2.277 7.784-3.481 12.063-3.481 5.035 0 9.805 1.621 13.795 4.687l.628.482.628-.482c1.799-1.382 3.762-2.454 5.831-3.233l3.419-3.419c4.679-4.679 4.679-12.264 0-16.943l-18.023-18.023c-4.679-4.679-12.264-4.679-16.943 0l-18.023 18.023c-1.49 1.49-2.501 3.277-3.042 5.169 8.163 2.441 14.897 8.473 18.159 16.727z" fill="#ffe177"/></g><g><g><path d="m177.282 233.682-18.023-18.023c-4.679-4.679-12.264-4.679-16.943 0l-2.343 2.343 15.68 15.68c4.679 4.679 4.679 12.264 0 16.943l-1.992 1.992c4.782.14 9.306 1.732 13.115 4.66l.628.482.628-.482c1.799-1.382 3.762-2.454 5.831-3.233l3.419-3.419c4.678-4.679 4.678-12.265 0-16.943z" fill="#ffd15b"/></g></g><g><path d="m364.574 310.508h104.268c.262-1.411.405-2.863.405-4.35 0-4.317-1.16-8.361-3.178-11.847 2.017-3.486 3.178-7.53 3.178-11.847 0-13.086-10.608-23.694-23.694-23.694-5.429 0-10.427 1.83-14.423 4.9-3.995-3.071-8.994-4.9-14.423-4.9s-10.427 1.83-14.423 4.9c-3.995-3.071-8.994-4.9-14.423-4.9-13.086 0-23.694 10.608-23.694 23.694 0 4.317 1.16 8.361 3.178 11.847-2.017 3.486-3.178 7.53-3.178 11.847.002 1.487.146 2.94.407 4.35z" fill="#fe7d43"/></g><g><g><path d="m469.247 282.464c0-13.086-10.608-23.694-23.694-23.694-3.687 0-7.167.86-10.277 2.364 7.912 3.838 13.368 11.946 13.368 21.33 0 4.317-1.16 8.361-3.178 11.847 2.017 3.486 3.178 7.53 3.178 11.847 0 1.487-.144 2.939-.405 4.35h20.604c.262-1.411.405-2.863.405-4.35 0-4.317-1.16-8.361-3.178-11.847 2.017-3.486 3.177-7.53 3.177-11.847z" fill="#fd6930"/></g></g><g><path d="m132.286 310.479h62.066l15.588-26.999c.739-1.28 2.117-2.075 3.595-2.075h20.019c.528-1.962.812-4.023.812-6.151 0-13.086-10.608-23.694-23.694-23.694-5.429 0-10.427 1.83-14.423 4.9-3.995-3.071-8.994-4.9-14.423-4.9-5.428 0-10.427 1.83-14.423 4.9-3.995-3.071-8.994-4.9-14.422-4.9-13.086 0-23.694 10.608-23.694 23.694 0 4.317 1.16 8.361 3.178 11.847-2.017 3.486-3.178 7.53-3.178 11.847.001 4.187 1.093 8.117 2.999 11.531z" fill="#d77f4a"/><path d="m209.642 275.253c0 4.317-1.16 8.361-3.178 11.847.235.406.456.822.668 1.243l2.808-4.864c.739-1.28 2.117-2.075 3.595-2.075h20.019c.528-1.962.812-4.023.812-6.151 0-13.086-10.608-23.694-23.694-23.694-4.528 0-8.747 1.287-12.344 3.491 6.786 4.167 11.314 11.655 11.314 20.203z" fill="#c86d36"/><g><path d="m283.573 310.508h93.2c3.694-4.179 5.939-9.667 5.939-15.682 0-4.317-1.16-8.361-3.178-11.847 2.017-3.486 3.178-7.53 3.178-11.847 0-13.086-10.608-23.694-23.694-23.694-5.429 0-10.427 1.83-14.423 4.9-3.995-3.071-8.994-4.9-14.423-4.9s-10.427 1.83-14.423 4.9c-3.995-3.071-8.994-4.9-14.423-4.9-13.086 0-23.694 10.608-23.694 23.694 0 4.317 1.16 8.361 3.178 11.847-2.017 3.486-3.178 7.53-3.178 11.847.002 6.016 2.248 11.504 5.941 15.682z" fill="#d77f4a"/></g><g><g><path d="m382.712 271.132c0-13.086-10.608-23.694-23.694-23.694-5.019 0-9.66 1.578-13.491 4.241 6.147 4.28 10.173 11.395 10.173 19.453 0 4.317-1.16 8.361-3.178 11.847 2.017 3.486 3.178 7.53 3.178 11.847 0 6.015-2.246 11.504-5.939 15.682h27.012c3.694-4.179 5.939-9.667 5.939-15.682 0-4.317-1.16-8.361-3.178-11.847 2.018-3.486 3.178-7.53 3.178-11.847z" fill="#c86d36"/></g></g></g><g><path d="m260.199 310.508-15.894-27.529c-.92-1.594-2.621-2.575-4.461-2.575h-26.31c-1.84 0-3.541.982-4.461 2.575l-15.894 27.529z" fill="#ffe177"/></g><g><path d="m244.306 282.979c-.92-1.594-2.621-2.575-4.461-2.575h-20.682c1.84 0 3.541.982 4.461 2.575l15.894 27.529h20.682z" fill="#ffd15b"/></g><path d="m52.045 273.615c.784-.784 1.827-1.216 2.936-1.216 1.108 0 2.151.432 2.935 1.216l27.681 27.682c1.618 1.618 1.618 4.252 0 5.87l-3.312 3.312h58.194c1.25-3.262 1.943-6.8 1.943-10.501 0-6.337-2.014-12.2-5.428-16.998 3.414-4.798 5.428-10.661 5.428-16.998 0-16.215-13.145-29.36-29.36-29.36-7.276 0-13.929 2.653-19.058 7.036-5.129-4.383-11.782-7.036-19.058-7.036-16.215 0-29.36 13.145-29.36 29.36 0 4.149.877 8.087 2.431 11.663z" fill="#fe7d43"/><g><g><path d="m142.423 265.981c0-16.215-13.145-29.36-29.36-29.36-5.835 0-11.268 1.709-15.837 4.646 8.129 5.221 13.519 14.335 13.519 24.714 0 6.337-2.014 12.2-5.428 16.998 3.414 4.798 5.428 10.661 5.428 16.998 0 3.713-.696 7.261-1.954 10.531h31.678c1.257-3.27 1.954-6.818 1.954-10.531 0-6.337-2.014-12.2-5.428-16.998 3.413-4.798 5.428-10.661 5.428-16.998z" fill="#fd6930"/></g></g><g><path d="m26.292 310.508h57.378l2.634-2.634c2.012-2.012 2.012-5.273 0-7.284l-27.681-27.681c-2.012-2.012-5.273-2.012-7.284 0l-27.681 27.681c-2.012 2.011-2.012 5.273 0 7.284z" fill="#ffe177"/></g><g><path d="m86.304 300.59-27.681-27.681c-2.012-2.012-5.273-2.012-7.284 0l-7.175 7.175 20.506 20.506c2.012 2.011 2.012 5.273 0 7.284l-2.634 2.634h21.634l2.634-2.634c2.012-2.012 2.012-5.273 0-7.284z" fill="#ffd15b"/></g><g><path d="m511.994 314.829c.136-2.92-2.232-5.35-5.154-5.35h-501.68c-2.923 0-5.291 2.431-5.154 5.35 2.626 56.252 46.449 101.731 101.982 106.962v26.532c0 5.69 4.612 10.302 10.302 10.302h287.42c5.69 0 10.302-4.612 10.302-10.302v-26.532c55.533-5.231 99.356-50.71 101.982-106.962z" fill="#dff6fd"/></g><g><path d="m506.84 309.478h-52.024c2.923 0 5.291 2.431 5.154 5.35-2.626 56.252-46.449 101.731-101.982 106.962v26.532c0 5.69-4.612 10.302-10.302 10.302h52.024c5.689 0 10.302-4.612 10.302-10.302v-26.532c55.533-5.231 99.356-50.711 101.982-106.962.137-2.919-2.231-5.35-5.154-5.35z" fill="#c8effe"/></g><g><path d="m101.988 421.791v26.532c0 5.69 4.612 10.302 10.302 10.302h287.42c5.69 0 10.302-4.612 10.302-10.302v-26.532z" fill="#c8effe"/></g><g><path d="m347.689 458.625h52.022c5.689 0 10.302-4.612 10.302-10.302v-26.532h-52.024v26.532c-.001 5.689-4.612 10.301-10.3 10.302z" fill="#99e6fc"/></g><g><path d="m105.594 279.662h-7.211c-4.142 0-7.5-3.357-7.5-7.5s3.358-7.5 7.5-7.5h7.211c4.142 0 7.5 3.357 7.5 7.5s-3.358 7.5-7.5 7.5z" fill="#fae2c0"/></g><g><path d="m209.642 228.153h-7.211c-4.142 0-7.5-3.357-7.5-7.5s3.358-7.5 7.5-7.5h7.211c4.142 0 7.5 3.357 7.5 7.5s-3.358 7.5-7.5 7.5z" fill="#fae2c0"/></g><g><path d="m315.75 284.813h-7.211c-4.143 0-7.5-3.357-7.5-7.5s3.357-7.5 7.5-7.5h7.211c4.143 0 7.5 3.357 7.5 7.5s-3.357 7.5-7.5 7.5z" fill="#fae2c0"/></g><g><path d="m353.867 290.994h-7.211c-4.143 0-7.5-3.357-7.5-7.5s3.357-7.5 7.5-7.5h7.211c4.143 0 7.5 3.357 7.5 7.5s-3.357 7.5-7.5 7.5z" fill="#fae2c0"/></g><g><path d="m395.074 242.576h-7.211c-4.143 0-7.5-3.357-7.5-7.5s3.357-7.5 7.5-7.5h7.211c4.143 0 7.5 3.357 7.5 7.5s-3.357 7.5-7.5 7.5z" fill="#fef1da"/></g><g><path d="m300.298 210.641h-7.211c-4.143 0-7.5-3.357-7.5-7.5s3.357-7.5 7.5-7.5h7.211c4.143 0 7.5 3.357 7.5 7.5s-3.358 7.5-7.5 7.5z" fill="#fae2c0"/></g><g><path d="m319.819 234.334c-1.919 0-3.839-.732-5.304-2.196l-5.099-5.099c-2.929-2.93-2.929-7.678 0-10.607 2.93-2.928 7.678-2.928 10.607 0l5.099 5.099c2.929 2.93 2.929 7.678 0 10.607-1.464 1.464-3.384 2.196-5.303 2.196z" fill="#fae2c0"/></g><g><path d="m327.082 118.954h-7.211c-4.143 0-7.5-3.357-7.5-7.5s3.357-7.5 7.5-7.5h7.211c4.143 0 7.5 3.357 7.5 7.5s-3.357 7.5-7.5 7.5z" fill="#fae2c0"/></g><g><path d="m176.676 289.964h-7.211c-4.142 0-7.5-3.357-7.5-7.5s3.358-7.5 7.5-7.5h7.211c4.142 0 7.5 3.357 7.5 7.5s-3.358 7.5-7.5 7.5z" fill="#fae2c0"/></g><g><path d="m435.251 296.146h-7.211c-4.143 0-7.5-3.357-7.5-7.5s3.357-7.5 7.5-7.5h7.211c4.143 0 7.5 3.357 7.5 7.5s-3.357 7.5-7.5 7.5z" fill="#fae2c0"/></g><g><path d="m441.433 200.286c-1.919 0-3.838-.732-5.303-2.196l-5.1-5.099c-2.93-2.929-2.93-7.678-.001-10.606 2.929-2.93 7.676-2.93 10.606-.001l5.1 5.099c2.93 2.929 2.93 7.678.001 10.606-1.465 1.465-3.383 2.197-5.303 2.197z" fill="#fae2c0"/></g><g><path d="m230.246 155.989c-1.919 0-3.839-.732-5.304-2.197l-5.099-5.1c-2.929-2.929-2.928-7.678 0-10.606 2.929-2.928 7.677-2.929 10.607.001l5.099 5.1c2.929 2.929 2.928 7.678 0 10.606-1.465 1.464-3.384 2.196-5.303 2.196z" fill="#fae2c0"/></g><g><path d="m111.774 179.734c-1.919 0-3.839-.732-5.304-2.197-2.929-2.929-2.928-7.678 0-10.606l5.099-5.099c2.929-2.928 7.677-2.929 10.607.001 2.929 2.929 2.928 7.678 0 10.606l-5.099 5.099c-1.464 1.464-3.384 2.196-5.303 2.196z" fill="#fae2c0"/></g><g><path d="m421.663 123.716-27.527 27.527c-1.745 1.745-4.732.841-5.216-1.579l-5.828-29.138c-.203-1.013.115-2.061.845-2.791l27.527-27.527c1.745-1.745 4.732-.841 5.216 1.579l5.828 29.138c.203 1.013-.114 2.061-.845 2.791z" fill="#fe7d43"/></g><g><path d="m68.632 187.012-20.371 20.371c-1.745 1.745-4.732.841-5.216-1.579l-4.237-21.187c-.203-1.013.115-2.061.845-2.791l20.371-20.371c1.745-1.745 4.732-.841 5.216 1.579l4.237 21.187c.203 1.013-.114 2.06-.845 2.791z" fill="#fe7d43"/></g><g><path d="m137.21 120.626 27.527 27.527c1.745 1.745 4.732.841 5.216-1.579l5.828-29.138c.203-1.013-.115-2.061-.845-2.791l-27.527-27.527c-1.745-1.745-4.732-.841-5.216 1.579l-5.828 29.138c-.203 1.013.114 2.06.845 2.791z" fill="#bbec6c"/></g><g><path d="m248.379 92.006-27.527-27.527c-1.745-1.745-.841-4.732 1.579-5.216l29.138-5.828c1.013-.203 2.061.115 2.791.845l27.527 27.527c1.745 1.745.841 4.732-1.579 5.216l-29.138 5.828c-1.013.202-2.061-.115-2.791-.845z" fill="#bbec6c"/></g><g fill="#26a6fe"><path d="m62.326 336.065c-4.142 0-7.5 3.357-7.5 7.5v17.513c0 4.143 3.358 7.5 7.5 7.5s7.5-3.357 7.5-7.5v-17.513c0-4.142-3.358-7.5-7.5-7.5z"/><path d="m110.745 336.065c-4.142 0-7.5 3.357-7.5 7.5v17.513c0 4.143 3.358 7.5 7.5 7.5s7.5-3.357 7.5-7.5v-17.513c0-4.142-3.358-7.5-7.5-7.5z"/><path d="m159.163 336.065c-4.142 0-7.5 3.357-7.5 7.5v17.513c0 4.143 3.358 7.5 7.5 7.5s7.5-3.357 7.5-7.5v-17.513c0-4.142-3.358-7.5-7.5-7.5z"/><path d="m207.582 336.065c-4.142 0-7.5 3.357-7.5 7.5v17.513c0 4.143 3.358 7.5 7.5 7.5s7.5-3.357 7.5-7.5v-17.513c0-4.142-3.358-7.5-7.5-7.5z"/><path d="m256 336.065c-4.142 0-7.5 3.357-7.5 7.5v17.513c0 4.143 3.358 7.5 7.5 7.5 4.143 0 7.5-3.357 7.5-7.5v-17.513c0-4.142-3.357-7.5-7.5-7.5z"/><path d="m304.419 336.065c-4.143 0-7.5 3.357-7.5 7.5v17.513c0 4.143 3.357 7.5 7.5 7.5s7.5-3.357 7.5-7.5v-17.513c0-4.142-3.357-7.5-7.5-7.5z"/><path d="m352.837 336.065c-4.143 0-7.5 3.357-7.5 7.5v17.513c0 4.143 3.357 7.5 7.5 7.5s7.5-3.357 7.5-7.5v-17.513c0-4.142-3.358-7.5-7.5-7.5z"/><path d="m401.256 336.065c-4.143 0-7.5 3.357-7.5 7.5v17.513c0 4.143 3.357 7.5 7.5 7.5s7.5-3.357 7.5-7.5v-17.513c0-4.142-3.358-7.5-7.5-7.5z"/><path d="m449.674 336.065c-4.143 0-7.5 3.357-7.5 7.5v17.513c0 4.143 3.357 7.5 7.5 7.5s7.5-3.357 7.5-7.5v-17.513c0-4.142-3.358-7.5-7.5-7.5z"/></g></g></svg>