<svg id="Layer_1" enable-background="new 0 0 512 512" viewBox="0 0 512 512" xmlns="http://www.w3.org/2000/svg"><g><path d="m284.851 120.876s-8.131-28.348-21.944-48.395c-14.664-21.281-7.213-55.721-5.27-68.499 1.943-12.779 26.331 6.663 41.616 37.443 21.582 43.459 10.533 87.926 10.533 87.926z" fill="#dd636e"/><path d="m309.096 137.049s8.835-28.348 23.844-48.395c15.934-21.281 7.837-55.721 5.726-68.499s-28.611 6.663-45.22 37.443c-23.451 43.459-11.445 87.926-11.445 87.926z" fill="#da4a54"/><path d="m236.821 224.181c0-10.391 6.833-15.635 12.639-18.215 2.033-.903 2.146-3.73.188-4.784-4.752-2.558-9.891-7.781-9.81-18.403.086-11.268 9.309-20.338 20.579-20.33h.024c1.389.001 2.569-1.007 2.787-2.379.062-.392.125-.785.189-1.177 6.169-26.502 10.093-35.027 32.73-32.849 25.169 2.422 24.962 11.45 25.78 19.839.437 4.485 1.172 10.039 2.398 16.493.453 2.383 2.552 4.103 4.978 4.1 11.01-.014 20.496 8.395 21.115 19.387.353 6.272-2.108 11.971-6.233 15.963-.67.648-.207 1.779.725 1.778 10.795-.011 20.178 8.069 21.067 18.827.574 6.939-2.3 13.229-7.094 17.351-1.911 1.643-2.325 4.838-1.01 6.987 15.018 24.55 36.193 51.014 66.035 77.189 2.204 1.933 5.383 2.459 7.995 1.127 3.412-1.74 7.374-2.556 11.557-2.116 9.344.982 16.967 8.413 18.175 17.73.52 4.017-.128 7.834-1.644 11.176-.636 1.401.033 3.078 1.45 3.677 4.469 1.889 12.413 7.413 12.413 22.809 0 4.078-1.161 7.878-3.161 11.106-1.009 1.628-.47 3.744 1.178 4.72 4.47 2.646 11.627 8.749 11.151 20.55-.245 6.082-2.67 11.561-6.713 15.425-1.514 1.447-1.603 3.836-.168 5.362 4.978 5.296 7.751 12.688 6.842 20.714-1.318 11.641-10.59 21.057-22.203 22.608-2.212.296-4.376.303-6.464.061-1.627-.188-3.047 1.094-3.046 2.732v.034c0 14.281-11.663 24.302-25.86 25.857-10.229 1.121-18.643-2.357-23.048-4.749-1.876-1.019-4.223-.699-5.67.87-4.725 5.123-11.497 8.57-19.013 8.335-18.57-.581-27.014-9.863-30.38-15.289-1.242-2.003-3.68-2.822-5.921-2.093-2.856.929-5.976 1.269-9.228.86-9.298-1.17-16.846-8.52-18.25-17.784-.347-2.289-.485-6.521-.54-9.752-.037-2.178-1.903-3.822-4.077-3.687-.406.025-.816.038-1.229.038-11.714 0-21.209-9.495-21.209-21.207 0-3.54.874-6.871 2.412-9.801.81-1.542-.305-3.388-2.046-3.385-10.641.015-19.907-7.858-20.974-18.445-.732-7.261 2.322-13.832 7.419-18.014 2.279-1.87 3.102-5.002 2.124-7.783-15.975-45.412-21.774-90.071-21.087-135.523.046-3.038-1.904-5.674-4.737-6.773-7.685-2.978-13.135-10.43-13.135-19.167z" fill="#e7a561"/><g><path d="m476.142 435.526c-1.435-1.526-1.347-3.915.168-5.362 4.043-3.864 6.468-9.343 6.713-15.425.476-11.8-6.681-17.904-11.151-20.55-1.648-.976-2.187-3.092-1.178-4.72 2-3.229 3.161-7.028 3.161-11.106 0-15.396-7.944-20.92-12.413-22.809-1.417-.599-2.086-2.277-1.45-3.678 1.517-3.342 2.165-7.16 1.645-11.176-1.207-9.317-8.83-16.748-18.175-17.73-4.183-.44-8.145.376-11.557 2.116-2.612 1.332-5.791.806-7.995-1.127-29.842-26.175-51.017-52.639-66.035-77.189-1.315-2.15-.9-5.344 1.01-6.987 4.794-4.122 7.667-10.412 7.094-17.351-.889-10.757-10.272-18.838-21.067-18.827-.932.001-1.395-1.13-.725-1.778 4.125-3.993 6.587-9.692 6.233-15.963-.619-10.992-10.105-19.401-21.116-19.387-2.426.003-4.525-1.716-4.978-4.1-1.226-6.453-1.961-12.008-2.398-16.493-.818-8.39-.61-17.418-25.78-19.839-8.292-.798-14.067-.152-18.367 2.28 12.565 3.84 12.582 10.899 13.232 17.559.437 4.485 1.172 10.039 2.398 16.493.453 2.384 2.552 4.103 4.978 4.1 11.01-.013 20.496 8.395 21.116 19.387.353 6.272-2.108 11.971-6.233 15.963-.67.648-.207 1.779.725 1.778 10.795-.011 20.178 8.069 21.067 18.827.573 6.939-2.3 13.229-7.094 17.351-1.911 1.643-2.325 4.838-1.01 6.987 15.018 24.55 36.193 51.014 66.035 77.189 2.204 1.934 5.383 2.459 7.995 1.127 3.412-1.74 7.374-2.556 11.557-2.116 9.345.982 16.968 8.413 18.175 17.73.52 4.017-.128 7.834-1.645 11.176-.636 1.401.033 3.078 1.45 3.678 4.469 1.889 12.413 7.413 12.413 22.809 0 4.078-1.161 7.878-3.161 11.106-1.009 1.628-.47 3.744 1.178 4.72 4.47 2.646 11.627 8.749 11.151 20.55-.245 6.082-2.67 11.561-6.713 15.425-1.514 1.447-1.603 3.836-.168 5.362 4.979 5.296 7.751 12.688 6.842 20.714-1.318 11.641-10.59 21.057-22.203 22.608-2.212.296-4.376.303-6.464.061-1.627-.188-3.047 1.094-3.046 2.732v.034c0 10.3-6.068 18.382-14.777 22.672 4.735 2.064 11.707 4.075 19.832 3.185 14.197-1.556 25.86-11.576 25.86-25.857v-.034c-.001-1.638 1.419-2.921 3.046-2.732 2.088.241 4.251.234 6.464-.061 11.613-1.551 20.885-10.967 22.203-22.608.909-8.027-1.864-15.419-6.842-20.714z" fill="#e49542"/></g><g><circle cx="359.988" cy="433.903" fill="#e28424" r="18.507"/></g><g><circle cx="364.984" cy="340.015" fill="#e28424" r="16.487"/></g><path d="m227.149 120.876s8.131-28.348 21.944-48.395c14.664-21.281 7.213-55.721 5.27-68.499s-26.331 6.663-41.616 37.443c-21.582 43.459-10.533 87.926-10.533 87.926z" fill="#da4a54"/><path d="m202.903 137.049s-8.835-28.348-23.844-48.395c-15.934-21.281-7.837-55.721-5.726-68.499s28.611 6.663 45.22 37.443c23.451 43.459 11.445 87.926 11.445 87.926z" fill="#dd636e"/><path d="m275.179 224.181c0-10.391-6.833-15.635-12.639-18.215-2.033-.903-2.146-3.73-.188-4.784 4.752-2.558 9.891-7.781 9.81-18.403-.086-11.268-9.309-20.338-20.579-20.33h-.024c-1.389.001-2.569-1.007-2.787-2.379-.062-.392-.125-.785-.189-1.177-6.169-26.502-10.093-35.027-32.73-32.849-25.169 2.422-24.962 11.45-25.78 19.839-.437 4.485-1.172 10.039-2.398 16.493-.453 2.383-2.552 4.103-4.978 4.1-11.01-.014-20.496 8.395-21.115 19.387-.353 6.272 2.108 11.971 6.233 15.963.67.648.207 1.779-.725 1.778-10.795-.011-20.178 8.069-21.067 18.827-.574 6.939 2.3 13.229 7.094 17.351 1.911 1.643 2.325 4.838 1.01 6.987-15.018 24.55-36.193 51.014-66.035 77.189-2.204 1.933-5.383 2.459-7.995 1.127-3.412-1.74-7.374-2.556-11.557-2.116-9.344.982-16.967 8.413-18.175 17.73-.52 4.017.128 7.834 1.644 11.176.636 1.401-.033 3.078-1.45 3.677-4.469 1.889-12.413 7.413-12.413 22.809 0 4.078 1.161 7.878 3.161 11.106 1.009 1.628.47 3.744-1.178 4.72-4.47 2.646-11.627 8.749-11.151 20.55.245 6.082 2.67 11.561 6.713 15.425 1.514 1.447 1.603 3.836.168 5.362-4.978 5.296-7.751 12.688-6.842 20.714 1.318 11.641 10.59 21.057 22.203 22.608 2.212.296 4.376.303 6.464.061 1.627-.188 3.047 1.094 3.046 2.732v.034c0 14.281 11.663 24.302 25.86 25.857 10.229 1.121 18.643-2.357 23.048-4.749 1.876-1.019 4.223-.699 5.67.87 4.725 5.123 11.497 8.57 19.013 8.335 18.57-.581 27.014-9.863 30.38-15.289 1.242-2.003 3.68-2.822 5.921-2.093 2.856.929 5.976 1.269 9.228.86 9.298-1.17 16.846-8.52 18.25-17.784.347-2.289.485-6.521.54-9.752.037-2.178 1.903-3.822 4.077-3.687.406.025.816.038 1.229.038 11.714 0 21.21-9.495 21.21-21.207 0-3.54-.874-6.871-2.412-9.801-.81-1.542.305-3.388 2.046-3.385 10.641.015 19.907-7.858 20.974-18.445.732-7.261-2.322-13.832-7.419-18.014-2.279-1.87-3.102-5.002-2.124-7.783 15.975-45.412 21.774-90.071 21.087-135.523-.046-3.038 1.904-5.674 4.737-6.773 7.684-2.978 13.134-10.43 13.134-19.167z" fill="#e7a561"/><g><path d="m262.54 205.966c-2.033-.903-2.146-3.73-.188-4.784 4.752-2.558 9.891-7.782 9.81-18.403-.086-11.268-9.309-20.338-20.579-20.33h-.024c-1.389.001-2.569-1.008-2.787-2.379-.063-.392-.125-.785-.189-1.177-6.169-26.502-10.093-35.027-32.73-32.85-5.189.499-9.285 1.283-12.548 2.28 7.44 4.207 10.454 13.775 14.363 30.569.063.392.126.785.189 1.177.219 1.371 1.399 2.38 2.787 2.379h.024c11.27-.008 20.493 9.061 20.579 20.33.081 10.621-5.058 15.845-9.81 18.403-1.958 1.054-1.845 3.881.188 4.784 5.807 2.58 12.639 7.823 12.639 18.215 0 8.737-5.45 16.19-13.134 19.17-2.833 1.099-4.783 3.735-4.737 6.773.687 45.453-5.113 90.111-21.087 135.523-.978 2.78-.155 5.913 2.124 7.783 5.096 4.182 8.15 10.753 7.418 18.014-1.067 10.586-10.333 18.46-20.974 18.444-1.742-.003-2.856 1.843-2.046 3.385 1.538 2.93 2.412 6.261 2.412 9.801 0 11.712-9.496 21.207-21.21 21.207-.413 0-.823-.013-1.229-.038-2.174-.135-4.04 1.509-4.077 3.687-.055 3.23-.193 7.463-.54 9.752-1.404 9.265-8.952 16.614-18.25 17.785-3.252.409-6.372.069-9.228-.86-2.241-.729-4.679.09-5.921 2.093-2.066 3.33-6.05 8.109-13.108 11.442 3.962 2.519 8.635 4.004 13.643 3.847 18.57-.581 27.014-9.864 30.38-15.289 1.242-2.003 3.68-2.822 5.921-2.093 2.856.929 5.976 1.269 9.228.86 9.298-1.171 16.846-8.52 18.25-17.785.347-2.289.485-6.521.54-9.752.037-2.178 1.903-3.822 4.077-3.687.406.025.816.038 1.229.038 11.714 0 21.21-9.495 21.21-21.207 0-3.54-.874-6.871-2.412-9.801-.81-1.542.305-3.388 2.046-3.385 10.641.016 19.907-7.858 20.974-18.444.732-7.26-2.322-13.832-7.418-18.014-2.279-1.87-3.102-5.003-2.124-7.783 15.975-45.412 21.774-90.071 21.087-135.523-.046-3.038 1.904-5.674 4.737-6.773 7.684-2.981 13.134-10.433 13.134-19.17 0-10.391-6.833-15.634-12.639-18.214z" fill="#e49542"/><path d="m84.392 503.654c-1.447-1.569-3.794-1.889-5.67-.87-.906.492-1.99 1.03-3.216 1.564 3.366 1.658 7.126 2.751 11.083 3.185.853.094 1.687.144 2.514.177-1.727-1.172-3.31-2.538-4.711-4.056z" fill="#e48e81"/></g><g><circle cx="99.079" cy="407.55" fill="#e28424" r="18.507"/></g><g><circle cx="166.579" cy="359.864" fill="#e28424" r="16.487"/></g></g><g/><g/><g/><g/><g/><g/><g/><g/><g/><g/><g/><g/><g/><g/><g/></svg>