<svg id="Capa_1" enable-background="new 0 0 512 512" height="512" viewBox="0 0 512 512" width="512" xmlns="http://www.w3.org/2000/svg"><g><g><path d="m382.262 512h-228.696l-21.614-7v-24.921l124.592-18.42 132.718 18.42v24.921c0 3.866-3.134 7-7 7z" fill="#505559"/><path d="m271.896 463.79-15.352-2.131-133.807 18.42v24.921c0 3.866 3.134 7 7 7h23.829v-31.921z" fill="#373c42"/><path d="m396.91 473.332 3.216-89.015-25.662-47.881 29.121-47.852 4.038-111.751-157.458-15.557-136.825 15.557 4.037 111.722 30.816 47.881-27.356 47.881 3.216 89.015 22.165 6.747h243.696c3.768 0 6.86-2.982 6.996-6.747z" fill="#b5dbff"/><path d="m170.059 336.436-30.816-47.881-4.037-111.722 126.659-14.401-16.495-1.63-140.993 16.031 4.037 111.722 30.816 47.881-27.356 47.881 3.216 89.015c.136 3.765 3.228 6.747 6.995 6.747h24.077l-3.46-95.762z" fill="#a5cff2"/><path d="m408.603 176.833h-281.377l-20.801-7v-40.881l149.575-15.961 159.603 15.96v40.881c0 3.867-3.134 7.001-7 7.001z" fill="#ebf3ff"/><path d="m271.414 114.533-15.414-1.542-159.603 15.96v40.881c0 3.866 3.134 7 7 7h23.829v-47.881z" fill="#dbeafc"/><path d="m400.126 384.317h-257.423l-23.035-13.642-1.689-75.837 21.264-6.283h264.343z" fill="#ebf3ff"/><path d="m108.414 288.555 3.46 95.762h30.829l-3.46-95.762z" fill="#dbeafc"/><g><path d="m327.486 323.933c-5.657-18.331-23.038-30.781-39.885-35.508-9.12-.341-21.255.284-34.722 4.441-36.319 11.209-59.698 39.945-49.409 73.286 8.469 27.441 52.337 64.655 79.927 73.16 2.831.306 5.364.158 7.515-.505 20.571-6.349 46.863-81.533 36.574-114.874z" fill="#e94442"/><path d="m226.79 364.523c-10.289-33.341 13.089-62.077 49.409-73.286 3.819-1.179 7.629-2.116 11.402-2.812-12.851-2.702-27.474-1.742-42.231 2.812-36.319 11.209-59.698 39.945-49.409 73.286s72.836 81.108 94.95 74.283c2.29-.707 4.652-2.268 7.025-4.528-27.287-12.498-63.53-45.078-71.146-69.755z" fill="#cf3636"/><g fill="#a0d94c"><path d="m245.369 291.235s-15.737-50.994 31.219-70.96c4.175-1.775 8.886.932 9.588 5.414 2.548 16.273 2.738 52.108-40.807 65.546z"/><path d="m245.369 291.235s-15.737-50.994-65.779-41.025c-4.45.886-6.815 5.777-4.869 9.876 7.065 14.878 27.103 44.588 70.648 31.149z"/></g></g><path d="m395.014 7.77c-.766-.766-1.567-1.475-2.397-2.127-9.779-3.452-21.147-.981-28.572 7.271l-75.869 88.237 15.431 9.167 30.6-13.296 59.793-50.773c11.299-10.169 11.762-27.732 1.014-38.479z" fill="#505559"/><path d="m311.497 97.02 75.869-88.237c1.32-1.467 2.765-2.751 4.304-3.852-10.776-7.714-25.963-6.339-35.133 3.852l-75.869 88.237 22.618 13.436 17.805-7.737z" fill="#373c42"/><path d="m424.564 128.952h-313.299l-22.861-7v-17.921l22.861-7h313.298c3.866 0 7 3.134 7 7v17.921c.001 3.866-3.133 7-6.999 7z" fill="#b5dbff"/><path d="m80.436 104.031v17.921c0 3.866 3.134 7 7 7h23.829v-31.921h-23.829c-3.866 0-7 3.134-7 7z" fill="#a5cff2"/><g><g><g><path d="m290.836 333.386-1.562-5.061c-1.255-4.067 1.024-8.383 5.092-9.637 4.067-1.259 8.382 1.023 9.638 5.091l1.562 5.061c1.255 4.067-1.024 8.383-5.092 9.637-4.067 1.256-8.383-1.023-9.638-5.091z" fill="#cf3636"/></g><g><g><path d="m275.875 371.34-.992-3.214c-1.254-4.067 1.026-8.383 5.094-9.637 4.066-1.25 8.381 1.026 9.637 5.093l.992 3.214c1.254 4.067-1.026 8.383-5.094 9.637-4.078 1.255-8.384-1.033-9.637-5.093z" fill="#cf3636"/></g></g><g><g><path d="m233.171 374.554-.992-3.213c-1.255-4.066 1.024-8.382 5.091-9.637 4.068-1.256 8.382 1.024 9.638 5.091l.992 3.213c1.255 4.066-1.024 8.382-5.091 9.637-4.067 1.256-8.382-1.022-9.638-5.091z" fill="#cf3636"/></g></g><g><path d="m249.189 343.77-1.562-5.061c-1.255-4.067 1.024-8.383 5.092-9.637 4.068-1.258 8.382 1.023 9.638 5.091l1.562 5.061c1.255 4.067-1.024 8.383-5.091 9.637-4.068 1.255-8.384-1.023-9.639-5.091z" fill="#cf3636"/></g></g></g></g></g></svg>