<svg id="Layer_1" enable-background="new 0 0 512 512" height="512" viewBox="0 0 512 512" width="512" xmlns="http://www.w3.org/2000/svg"><g><g><path d="m384 88v-24h-256v24c-17.673 0-32 14.327-32 32v344c0 17.673 14.327 32 32 32h256c17.673 0 32-14.327 32-32v-344c0-17.673-14.327-32-32-32z" fill="#dcc8a0"/></g><g><g><path d="m128 64h256v24h-256z" fill="#cda06e"/></g><g><path d="m256 464h-160c0 17.673 14.327 32 32 32h256c17.673 0 32-14.327 32-32v-344h-152c-4.418 0-8 3.582-8 8z" fill="#cda06e"/></g></g><g><path d="m384 16h-256c-4.418 0-8 3.582-8 8v32c0 4.418 3.582 8 8 8h256c4.418 0 8-3.582 8-8v-32c0-4.418-3.582-8-8-8z" fill="#55525b"/></g><g><path d="m256 64h128c4.418 0 8-3.582 8-8v-32h-128c-4.418 0-8 3.582-8 8z" fill="#353744"/></g><g><path d="m96 176h320v224h-320z" fill="#ffdc37"/></g><g><path d="m256 176h160v224h-160z" fill="#fabe19"/></g><g><path d="m128 112c-4.418 0-8 3.582-8 8v56h16v-56c0-4.418-3.582-8-8-8z" fill="#fae6be"/></g><g><path d="m120 400h16v64h-16z" fill="#fae6be"/></g><g><path d="m120 176h16v224h-16z" fill="#fff"/></g><g><circle cx="212" cy="140" fill="#737079" r="12"/></g><g><circle cx="108" cy="429.333" fill="#737079" r="12"/></g><g><circle cx="372" cy="148" fill="#55525b" r="12"/></g><g><circle cx="144" cy="152" fill="#737079" r="8"/></g><g><circle cx="184" cy="456" fill="#737079" r="8"/></g><g><circle cx="328" cy="440" fill="#55525b" r="8"/></g><g><circle cx="256" cy="288" fill="#d7e6e6" r="112"/></g><g><g><path d="m265.552 225.535c-.567-3.133-1.009-6.39-1.268-9.831-.326-4.341-3.931-7.704-8.284-7.704-4.351 0-7.958 3.36-8.284 7.699-.258 3.44-.699 6.697-1.266 9.83-10.442 30.703-70.45 36.038-70.45 94.471 0 22.092 17.909 40 40 40 7.348 0 14.227-1.99 20.144-5.447 5.927 3.502 12.815 5.508 20.198 5.445 7.16-.06 13.865-2.01 19.658-5.362 5.885 3.405 12.712 5.364 20 5.364 22.091 0 40-17.908 40-40 0-58.429-60-63.768-70.448-94.465z" fill="#cda06e"/></g><g><path d="m256 208c-4.351 0-7.958 3.36-8.284 7.699-3.129 41.683-31.055 58.568-31.704 102.73-.333 22.628 17.7 41.76 40.331 41.57 21.933-.184 39.657-18.021 39.657-39.999 0-45.337-28.548-62.126-31.715-104.296-.327-4.34-3.932-7.704-8.285-7.704z" fill="#dcc8a0"/></g></g></g></svg>