<svg id="icons" height="512" viewBox="0 0 340 340" width="512" xmlns="http://www.w3.org/2000/svg"><path d="m191.743 323.67a3.553 3.553 0 1 0 5.025.035 3.554 3.554 0 0 0 -5.025-.035z" fill="#eab198"/><path d="m203.091 310.121a14.712 14.712 0 0 1 -4.654-4.351 11.79 11.79 0 0 1 -1.963-6.68v-3.4a6.331 6.331 0 0 0 -6.331-6.33h-34.382a6.33 6.33 0 0 0 -6.33 6.33v3.252a12.283 12.283 0 0 1 -2.278 7.273 14.993 14.993 0 0 1 -5.479 4.53 3.612 3.612 0 0 0 -1.962 4.237 3.489 3.489 0 0 0 4.862 2.119 21.963 21.963 0 0 0 8.2-6.737 19.317 19.317 0 0 0 3.643-11.422h3.018c0 .07-.021.137-.021.209v2.594c0 .133-.481 13.3-8.189 17.741a3.559 3.559 0 0 0 -1.432 4.595 3.49 3.49 0 0 0 4.864 1.487c11.167-6.381 11.719-22.935 11.739-23.727v-2.69c0-.072-.017-.139-.021-.209h3.157c-.137 6-.406 21.149.067 29.971a3.492 3.492 0 0 0 3.484 3.3h.19a3.492 3.492 0 0 0 3.3-3.674c-.46-8.572-.183-23.822-.053-29.6h2.994v2.989c.01.392.3 9.686 4.974 17.02a3.491 3.491 0 0 0 5.06.9 3.614 3.614 0 0 0 .743-4.792c-3.527-5.65-3.793-13.22-3.795-13.22v-2.9h3v.151a18.728 18.728 0 0 0 3.177 10.613 21.663 21.663 0 0 0 7.072 6.548 3.49 3.49 0 0 0 4.877-1.45 3.634 3.634 0 0 0 -1.531-4.677z" fill="#eab198"/><path d="m146.148 23.048 21.678-15.263s10.849 32 9.412 59.083l-22.745 9.411s-2.516-24.476-10.544-46.04a6.149 6.149 0 0 1 2.199-7.191z" fill="#719b56"/><path d="m159.391 64.2-12.141 4.92a4.359 4.359 0 0 0 -2.617 4.986c1.531 6.92 4.439 22.851 2.95 38.666l14.21-4.967c5.458-15.425 6.035-33.805-2.402-43.605z" fill="#a9db89"/><path d="m159.391 64.2c1.468 7.156 5.494 23.8 2.878 38.024a27.107 27.107 0 0 0 -.476 5.58l7.921-2.769s7.262-22.941 3.341-46.371z" fill="#719b56"/><path d="m191.877 15.105s10.2 30.31-3.539 68.4l-22.462 18.724s9.24-28.649-.82-63.032a6.511 6.511 0 0 1 2.5-7.2z" fill="#a9db89"/><path d="m182.332 122.324s8.746 20.274 39.314 39.495c23.576 14.824 52.232 39.671 59.27 70.951a59.109 59.109 0 0 1 -14.965 53.976q-.54.56-1.1 1.112a49.876 49.876 0 0 1 -34.951 13.981h-22.462c-13.475-71.878-31.597-154.709-25.106-179.515z" fill="#eab198"/><path d="m181.33 97.467s-6.4 38.366 24.663 69.729c32.311 32.628 80.041 86.034 31.649 124.233a48.733 48.733 0 0 1 -30.2 10.409h-28.22s-31.387-148.344 2.108-204.371z" fill="#ffeec8"/><path d="m135.828 301.838h-26.655a47.566 47.566 0 0 1 -25.636-7.4c-12.773-8.164-28.1-24.554-25.641-55.876 3.821-48.586 53.409-80.7 53.409-80.7s32.246-22.049 36.278-45.086z" fill="#eab198"/><path d="m162.269 102.225-14.686 10.547s1.3 23.558-25.6 54.988c-27.726 32.4-57.4 94.5-8.15 127.406a39.587 39.587 0 0 0 21.994 6.672h28.557s6.923-168.852-2.115-199.613z" fill="#ffeec8"/><path d="m188.338 83.5-26.069 18.724s.658 22.736-16.06 60.185c-16.044 35.938-47.793 110.677 4.936 136.446a30.133 30.133 0 0 0 13.24 2.982h14.837a30.289 30.289 0 0 0 17.155-5.209c15.377-10.555 39.007-39.652-1.017-109.142 0 .001-25.645-44.967-7.022-103.986z" fill="#ffeec8"/><g fill="#eab198"><path d="m198.366 183.816c-2.834-4.972-5.229-9.694-7.252-14.113-1.769-3.866-7.592-1.456-6.125 2.534a158.837 158.837 0 0 0 6.678 15.316c28.56 55.4 18.744 84.362 4.523 99.136a3.61 3.61 0 0 0 4.4 5.644c10.372-6.118 20.139-16.459 22.906-33.929 3.744-23.672-7.831-44.241-25.13-74.588z"/><path d="m165.833 108.3-.006.045z"/><path d="m150.378 159.878c6.568-10.539 10.452-19.62 12.686-27.721a2.055 2.055 0 0 0 -3.883-1.32 139.36 139.36 0 0 1 -17.055 30.287c-20.944 28.3-38.769 72.414-22.5 108.733 6.425 14.345 16.532 21.781 25.9 25.6a3.576 3.576 0 0 0 3.474-6.187c-41.7-31.077-17.726-98.741 1.378-129.392z"/><path d="m179.752 153.372a3.553 3.553 0 1 0 5.025.034 3.552 3.552 0 0 0 -5.025-.034z"/></g></svg>