<svg enable-background="new 0 0 512 512" viewBox="0 0 512 512" xmlns="http://www.w3.org/2000/svg"><g id="_x31_1_x2C__gin_tonic_x2C__glass_x2C__drinks_x2C__beverage_x2C__food_x2C__cocktail"><g><g><path d="m359.36 12.641c-19.574-5.228-40.375 2.248-52.03 18.92l2.545 45.44 17.945-6c23.868-7.807 38.262-33.194 31.54-58.36z" fill="#89d66b"/><path d="m314.6 71.001-14.85 6-12.92-6c-23.858-7.815-38.27-33.161-31.54-58.36 16.1-4.3 34-.14 46.63 12.49 12.384 12.385 16.674 29.894 12.68 45.87z" fill="#64ae67"/><path d="m111 71.001 18.42 63.44 220.58 36.561 35-44.891 16-55.11c-92.238 0-201.602 0-290 0z" fill="#e9effb"/><path d="m241.267 155.101-75.048-139.366c-2.614-4.865-.79-10.929 4.075-13.542 4.865-2.616 10.928-.79 13.542 4.075l75.048 139.366c2.614 4.865.79 10.929-4.075 13.542-4.834 2.599-10.912.822-13.542-4.075z" fill="#79d5dd"/><path d="m336 491.001c-58.746 0-69.719-60.959-70-61.401v-58.599c0-5.522-4.478-10-10-10s-10 4.478-10 10v58.599c-1.059 1.681-9.799 61.401-70 61.401-5.522 0-10 4.478-10 10s4.478 10 10 10h160c5.522 0 10-4.478 10-10s-4.478-10-10-10z" fill="#e9effb"/><path d="m365.28 121.001c-22.86 0-22.86 14-45.72 14-22.85 0-22.85-14-45.71-14-22.842 0-22.891 14-45.71 14-22.86 0-22.86-14-45.72-14-24.845 0-25.342 18.072-53 13.44l56.25 193.74c9.08 31.29 37.75 52.82 70.33 52.82s61.25-21.53 70.33-52.82l58.67-202.07c-4.84-2.76-10.36-5.11-19.72-5.11z" fill="#f3dc40"/><path d="m218.57 181.001c-23.471 23.471-23.377 61.473 0 84.85 23.379 23.379 61.374 23.471 84.86 0-.147-.147-79.898-79.888-84.86-84.85z" fill="#faf4c9"/><g fill="#ecbb40"><path d="m310.498 258.783-84.854-84.853c-3.906-3.904-10.236-3.904-14.143 0-27.235 27.236-27.155 71.329-.469 98.528 27.088 27.608 71.907 28.026 99.465.467 3.906-3.905 3.906-10.237.001-14.142zm-91.213-62.927 22.396 22.396-30.556 8.187c-.635-10.613 2.079-21.389 8.16-30.583zm-3.007 49.907 30.58-8.193-8.194 30.581c-9.411-4.692-17.398-12.38-22.386-22.388zm41.711 27.541 8.188-30.557 22.396 22.396c-9.196 6.081-19.972 8.795-30.584 8.161z"/><path d="m233.929 338.073c-3.905-3.905-3.905-10.237 0-14.143l10-10c3.906-3.904 10.236-3.904 14.143 0 3.905 3.905 3.905 10.237 0 14.143l-10 10c-3.908 3.905-10.237 3.904-14.143 0z"/><path d="m293.929 188.073-10-10c-3.905-3.905-3.905-10.237 0-14.143 3.906-3.904 10.236-3.904 14.143 0l10 10c3.905 3.905 3.905 10.237 0 14.143-3.908 3.905-10.237 3.904-14.143 0z"/></g></g></g></g><g id="Layer_1"/></svg>