<svg id="Layer_1" enable-background="new 0 0 74 74" height="512" viewBox="0 0 74 74" width="512" xmlns="http://www.w3.org/2000/svg"><g><g><path d="m43.47 45.61-1.24.27-.57.14-1.43.32c.55-1.24.19-2.7-.31-3.98-2.52-6.41-8.45-11.33-9.83-18.07-.45-2.29-.36-4.64-.61-6.96-.2-1.9-.61-3.89-1.67-5.49-.2-.32-.46-.64-.73-.93.31.09.63.18.93.29 0 0 0 0 .02.01 6.3 2.22 11.18 7.32 13.66 13.55 2.63 6.55 2.81 13.87 1.78 20.85z" fill="#693"/><path d="m42.23 45.88-.57.14c-.05-4.4-.63-9.81-3.02-14.6-.69-1.37-1.54-2.71-2.35-4-.66-1.03-1.35-2.13-1.96-3.24-.81-1.46-1.48-3.01-2.14-4.52-.67-1.56-1.4-3.16-2.22-4.65-.68-1.19-1.39-2.24-2.14-3.16-.2-.32-.46-.64-.73-.93.31.09.63.18.93.29 0 0 0 0 .02.01.85 1 1.66 2.17 2.41 3.5.86 1.53 1.55 3.14 2.25 4.71.65 1.48 1.34 3.04 2.13 4.49.6 1.08 1.27 2.15 1.94 3.18.83 1.32 1.68 2.67 2.4 4.07 2.39 4.83 2.99 10.25 3.05 14.71z" fill="#7dad45"/><g opacity=".1"><path d="m43.47 45.61-1.24.27-.54.12c.14-1.14-.1-2.31-.71-3.28-.52-.81-1.3-1.54-1.34-2.5-.04-.91.59-1.74.62-2.65.03-1.25-1.04-2.24-2.11-2.9s-2.27-1.3-2.77-2.45c-.41-.92-.27-1.98-.2-2.97.04-1-.04-2.12-.75-2.83-.78-.78-2.05-.77-3.01-1.32-.59-.34-1.03-.85-1.41-1.43-.35-2.11-.29-4.24-.51-6.35-.2-1.9-.61-3.89-1.67-5.49-.2-.32-.46-.64-.73-.93.31.09.63.18.93.29 0 0 0 0 .02.01 6.3 2.22 11.18 7.32 13.66 13.55 2.61 6.56 2.79 13.88 1.76 20.86z" fill="#fff"/></g><path d="m41.31 49.1c-2.43-3.67-6.28-6.13-10.16-8.22s-7.94-3.96-11.24-6.87c-5.82-5.13-8.75-13.05-14.91-17.77 2.34-.9 4.36-.82 6.75-.05 7.04 2.28 13.29 6.59 18.65 11.7s9.89 11.01 14.28 16.97z" fill="#7dad45"/><path d="m44.68 44.86-1.4 1.74-.37.48-1.6 2.02c-2.42-3.68-6.28-6.15-10.15-8.23s-7.94-3.96-11.24-6.87c-5.68-4.99-8.62-12.7-14.5-17.42-.13-.12-.26-.24-.4-.34.22-.07.43-.16.65-.21 2.07-.66 3.93-.52 6.1.17 7.02 2.29 13.27 6.6 18.64 11.7 5.35 5.09 9.88 11 14.27 16.96z" fill="#7dad45"/><path d="m43.28 46.6-.37.48c-1.23-1.46-2.51-2.82-3.94-4.06-1.74-1.48-3.7-2.76-5.59-4.02-2.14-1.4-4.35-2.87-6.28-4.64-1.9-1.73-3.51-3.76-5.07-5.74-1.34-1.68-2.71-3.44-4.26-4.97-3.4-3.37-7.73-5.84-12.35-7.08-.13-.12-.26-.24-.4-.34.22-.07.43-.16.65-.21 4.68 1.29 9.07 3.8 12.5 7.21 1.58 1.57 2.97 3.34 4.31 5.04 1.54 1.95 3.14 3.97 5 5.66 1.9 1.73 4.11 3.21 6.22 4.6 1.92 1.25 3.87 2.55 5.65 4.07 1.43 1.21 2.71 2.57 3.93 4z" fill="#693"/><g opacity=".1"><path d="m44.68 44.86-.78.98c-1.72-1.32-3.52-2.5-5.45-3.47-2.51-1.26-5.34-2.27-7.02-4.52-.97-1.27-1.53-2.86-2.8-3.8-1.6-1.18-3.98-.98-5.41-2.34-1.27-1.21-1.41-3.26-2.57-4.58-1.98-2.26-5.97-1.48-8.05-3.65-1.06-1.1-1.37-2.78-2.31-3.99-.81-1.04-2.11-1.61-3.44-1.65-.46-.44-.95-.87-1.44-1.27-.13-.12-.26-.24-.4-.34.22-.07.43-.16.65-.21 2.07-.66 3.93-.52 6.1.17 7.02 2.29 13.27 6.6 18.64 11.7 5.36 5.1 9.89 11.01 14.28 16.97z" fill="#fff"/></g></g><g><path d="m52.27 24.48c-.44 1.08-1.18 2-1.86 2.95-.47.67-.92 1.37-1.49 1.96-.74.72-1.64 1.25-2.43 1.92-.78.67-1.46 1.56-1.5 2.59.47-.56 1.22-.36 1.82.06 1.13.79 1.77 2.07 2.37 3.31.41.84.81 1.69.94 2.61.28 1.86-.65 3.74-1.98 5.06-1.04 1.04-2.31 1.82-3.62 2.51-.53.29-.78.86-.76 1.48.03.65-.29 1.35-.79 1.81-.75.69-1.76.98-2.72 1.28-.55.18-1.22.37-1.68.74-.34.28-.52.67-.9.94-.84.57-1.91.7-2.66 1.39-.67.62-.94 1.55-1.32 2.39-1.12 2.4-3.37 3.98-5.7 5.34-.72.43-1.64.37-2.3-.17l-5.7-4.59c-.39-.32-.67-.76-.74-1.26-.19-1.35.31-2.79 1.34-3.68 1.25-1.09 3.28-1.58 3.68-3.19.22-.86-.17-1.77-.27-2.66-.14-1.23.25-2.45.33-3.68.19-2.7-1.07-5.26-2.17-7.73-1.09-2.47-2.07-5.24-1.32-7.83.66-2.26 2.56-3.99 4.63-5.1 1.74-.93 3.9-1.5 5.65-.56 1.69.92 2.43 3.01 2.39 4.95-.04 1.92-.7 3.78-1.11 5.66-.42 1.88-.56 3.94.34 5.65 1.87-3.08 2.89-6.46 3-10.06.05-1.81-.11-3.68.53-5.37.8-2.1 2.7-3.55 4.54-4.85 1.55-1.09 3.2-2.21 5.09-2.45 1.32-.17 2.67.14 3.82.81.18.1.34.2.5.32.15.1.29.22.43.32.1.09.2.18.29.28.09.08.17.15.24.24.14.14.27.31.39.47 1.26 1.74 1.54 4.15.7 6.14z" fill="#e4bc87"/><g fill="#d6aa76"><path d="m22.73 51.91c2.05-.22 4.17.6 5.78 1.92 1.61 1.33 2.79 3.21 3.15 5.23-.85-1.86-2.03-3.49-3.56-4.74-1.51-1.26-3.34-2.12-5.37-2.41z"/><path d="m24.84 46.57c.82-1.02 2.25-1.46 3.57-1.35 1.35.1 2.59.66 3.69 1.37 2.2 1.46 3.79 3.83 4.18 6.38-.45-1.2-1.04-2.33-1.81-3.32-.78-.98-1.68-1.86-2.72-2.54-1.03-.68-2.18-1.22-3.39-1.42-1.2-.17-2.52.06-3.52.88z"/><path d="m40.88 50.76c.09-1.24-.25-2.44-.8-3.5-.56-1.07-1.28-2.04-2.09-2.95-.8-.92-1.68-1.79-2.46-2.77-.78-.97-1.49-2.04-1.86-3.24 1.21 2.18 3.13 3.72 4.79 5.59.82.94 1.58 1.98 2.06 3.16.49 1.17.71 2.51.36 3.71z"/><path d="m34.67 34.57c1.29-.83 3.19-.68 4.38.45 1.19 1.12 1.72 2.57 2.66 3.71.88 1.2 1.89 2.38 2.57 3.79.67 1.38 1.02 3.05.45 4.49.3-1.5-.17-2.99-.88-4.27-.74-1.28-1.73-2.41-2.65-3.63-.96-1.21-1.52-2.7-2.49-3.74s-2.64-1.38-4.04-.8z"/><path d="m45.29 32.77c-1.37-1.13-2.85-2.03-4.45-2.66-1.6-.65-3.29-1.01-5.06-1.17 1.75-.34 3.62-.08 5.3.58 1.67.68 3.2 1.78 4.21 3.25z"/><path d="m47.38 30.54c.16-1.32-.21-2.61-.87-3.69-.67-1.07-1.61-1.98-2.72-2.58-2.24-1.23-4.93-1.38-7.55-1.14 1.27-.38 2.61-.54 3.95-.47 1.34.06 2.69.4 3.9 1.05 1.2.67 2.22 1.67 2.84 2.89.64 1.22.87 2.67.45 3.94z"/><path d="m50.33 27.22c.21-1.2.11-2.41-.31-3.5-.42-1.08-1.07-2.11-1.93-2.85-.87-.76-1.94-1.31-3.04-1.75-1.11-.44-2.28-.71-3.49-.85 1.21-.12 2.46.04 3.64.39 1.19.35 2.33.91 3.3 1.73.97.85 1.64 1.96 1.99 3.18.35 1.2.31 2.52-.16 3.65z"/><path d="m23.55 39.01c.41-1.64 1.83-3.01 3.52-3.49.85-.24 1.74-.25 2.58-.11s1.64.39 2.42.7c-1.66-.13-3.31-.43-4.82.02-1.52.42-2.83 1.45-3.7 2.88z"/><path d="m32.06 33.48c-.39-1.01-1.34-1.56-2.26-1.98-.94-.42-1.93-.72-2.94-.84-2.03-.28-4.12.11-6.03 1.03.82-.68 1.82-1.16 2.87-1.45s2.16-.36 3.25-.22c1.08.15 2.15.49 3.08 1.04.9.52 1.9 1.31 2.03 2.42z"/><path d="m33.03 30.01c-1.43-1.4-3.02-2.54-4.79-3.34-1.76-.82-3.67-1.28-5.66-1.45 1.98-.34 4.08.03 5.92.87 1.84.85 3.49 2.2 4.53 3.92z"/></g><path d="m32.38 32.97c-.42 1.88-.56 3.94.34 5.65-1.48-.55-2.99-6-2.58-7.88s1.07-3.74 1.11-5.66c.03-.98-.17-2-.56-2.89.01 0 .04.01.05.03.13.04.24.09.36.15.17.09.32.19.46.29.05.04.1.08.14.11.13.1.25.22.37.34.17.18.32.37.46.57.09.13.17.25.23.39.03.04.05.08.06.11.09.17.17.34.24.52 0 .01 0 .03.01.04.22.61.36 1.27.39 1.92-.01.37-.01.76 0 1.18-.14 1.75-.71 3.43-1.08 5.13z" opacity=".1"/><path d="m50.12 39.88c.28 1.86-.65 3.74-1.98 5.06-1.04 1.04-2.31 1.82-3.62 2.51-.53.29-.78.86-.76 1.48.03.65-.29 1.35-.79 1.81-.75.69-1.76.98-2.72 1.28-.55.18-1.22.37-1.68.74-.34.28-.52.67-.9.94-.84.57-1.91.7-2.66 1.39-.67.62-.94 1.55-1.32 2.39-1.12 2.4-3.37 3.98-5.7 5.34-.72.43-1.64.37-2.3-.17l-5.7-4.59c-.32-.25-.56-.59-.66-.97l4.13 3.33c.65.52 1.56.59 2.29.15 2.33-1.35 4.58-2.94 5.7-5.34.39-.83.65-1.77 1.32-2.39.76-.69 1.83-.81 2.66-1.37.38-.27.57-.67.9-.95.46-.36 1.14-.55 1.68-.72.97-.32 1.98-.61 2.72-1.3.5-.46.83-1.16.8-1.81-.03-.6.22-1.18.75-1.46 1.31-.7 2.58-1.48 3.64-2.52 1.32-1.32 2.25-3.2 1.98-5.06-.14-.92-.55-1.77-.95-2.59-.23-.47-.46-.94-.71-1.39.2.06.39.18.58.31 1.13.79 1.77 2.07 2.37 3.31.39.82.8 1.67.93 2.59z" opacity=".1"/><path d="m52.27 24.48c-.44 1.08-1.18 2-1.86 2.95-.47.67-.92 1.37-1.49 1.96-.74.72-1.64 1.25-2.43 1.92-.78.67-1.46 1.56-1.5 2.59-.25-.31-.58-1.81-2.24-2.23.04-1.04.72-1.93 1.51-2.61.78-.66 1.69-1.2 2.42-1.92.57-.59 1.03-1.28 1.5-1.95.66-.95 1.4-1.88 1.86-2.96.74-1.77.61-3.87-.34-5.53.18.1.34.2.5.32.15.1.29.22.43.32.1.09.2.18.29.28.09.08.17.15.24.24.14.14.27.31.39.47 1.28 1.75 1.56 4.16.72 6.15z" opacity=".1"/><g fill="#fff"><path d="m52.59 20.61c-1.11.94-2.38 1.63-3.79 1.95-.88.2-1.84.29-2.49.92-1.12 1.08-.55 3.06-1.4 4.37-.71 1.09-2.15 1.39-3.41 1.7-1.27.32-2.7.97-2.93 2.25-.19 1.06.53 2.05 1.37 2.71.83.67 1.81 1.17 2.48 2 .66.84.89 2.17.1 2.9-.67.62-1.78.51-2.52 1.06-1.26.9-.78 2.85-1.23 4.32-.51 1.65-2.21 2.61-3.84 3.18-1.64.56-3.41.93-4.72 2.06-1.86 1.58-2.45 4.43-4.59 5.62-.75.42-1.62.59-2.4.95-1 .47-1.78 1.23-2.39 2.14l-.85-.69c-.39-.32-.67-.76-.74-1.26-.19-1.35.31-2.79 1.34-3.68 1.25-1.09 3.28-1.58 3.68-3.19.22-.86-.17-1.77-.27-2.66-.14-1.23.25-2.45.33-3.68.19-2.7-1.07-5.26-2.17-7.73-1.09-2.47-2.07-5.24-1.32-7.83.66-2.26 2.56-3.99 4.63-5.1 1.74-.93 3.9-1.5 5.65-.56 1.69.92 2.43 3.01 2.39 4.95-.04 1.92-.7 3.78-1.11 5.66-.42 1.88-.56 3.94.34 5.65 1.87-3.08 2.89-6.46 3-10.06.05-1.81-.11-3.68.53-5.37.8-2.1 2.7-3.55 4.54-4.85 1.55-1.09 3.2-2.21 5.09-2.45 1.32-.17 2.67.14 3.82.81.18.1.34.2.5.32.15.1.29.22.43.32.1.09.2.18.29.28.09.08.17.15.24.24.14.14.27.31.39.47.49.68.83 1.45 1.03 2.28z" opacity=".1"/><path d="m26.71 31.29c-.17 1.08-.34 2.21.08 3.23.41 1 1.37 1.82 1.42 2.9.05 1.35-1.31 2.43-1.25 3.76.05.97.84 1.74 1.06 2.7.3 1.37-.66 2.7-1.56 3.78-.78.93-1.55 1.87-2.38 2.75.08-.15.14-.31.18-.48.22-.86-.17-1.77-.27-2.66-.14-1.23.25-2.45.33-3.68.19-2.7-1.07-5.26-2.17-7.73-1.09-2.47-2.07-5.24-1.32-7.83.66-2.26 2.56-3.99 4.63-5.1.92-.5 1.95-.88 2.96-.99-.41 1.42-.66 2.91-.89 4.35-.28 1.67-.56 3.34-.82 5z" opacity=".1"/><path d="m48.55 16.17c-1.06.94-2 2.03-2.76 3.23-.98 1.54-1.72 3.29-3.14 4.41-1.02.8-2.45 1.48-2.5 2.76-.03.74.42 1.64-.13 2.15-.29.27-.72.27-1.08.43-.83.42-.85 1.56-.92 2.49-.06.93-.62 2.1-1.54 1.92-.47 1.65-.93 3.31-1.4 4.96-.15.56-.32 1.13-.7 1.56s-1.04.69-1.55.42c0-.71.01-1.41.01-2.12 1.79-3.01 2.76-6.32 2.87-9.83.05-1.81-.11-3.68.53-5.37.8-2.1 2.7-3.55 4.54-4.85 1.55-1.09 3.2-2.21 5.09-2.45.92-.1 1.83 0 2.68.29z" opacity=".1"/></g></g><g><path d="m38.04 60.49c1.4.7 3.08-.07 4.38-.94s2.71-1.9 4.26-1.72c1.13.13 2.26.9 3.31.47.76-.31 1.2-1.16 1.97-1.45 1.06-.4 2.15.43 3.22.82 1.21.45 2.54.33 3.83.21 1.86-.18 3.71-.35 5.57-.53 1.08-.1 2.4-.4 2.67-1.45.21-.82-.34-1.85.26-2.44.33-.33.89-.34 1.22-.67.4-.4.3-1.06.17-1.62-.41-1.75-.81-3.49-1.22-5.24-.38-1.62-.94-3.47-2.47-4.11-1.76-.74-4.04.49-5.58-.63-1.21-.88-1.19-2.71-.68-4.11.39-1.08 1.01-2.26.55-3.31-.36-.83-1.32-1.27-2.23-1.27s-1.77.36-2.59.75c-2.67 1.28-5.16 2.94-7.36 4.92.14-.95.04-2.07-.08-3.02s-.52-1.91-1.28-2.49c-.54-.42-1.22-.62-1.82-.95-.58-.32-1.08-.76-1.65-1.09s-1.26-.55-1.89-.36c-.83.25-1.31 1.09-1.69 1.87-1.54 3.18-2.81 6.49-3.78 9.88-.5 1.75-.93 3.54-1.02 5.37-.22 4.64-.02 11.2 3.93 13.11z" fill="#e4bc87"/><path d="m68.72 52.79c-.34.32-.89.34-1.22.67-.6.58-.05 1.62-.26 2.43-.26 1.05-1.59 1.36-2.66 1.45-1.87.18-3.72.35-5.58.54-1.27.12-2.61.23-3.82-.21-1.07-.4-2.16-1.22-3.21-.83-.76.29-1.21 1.15-1.97 1.45-1.05.43-2.19-.34-3.3-.47-1.56-.18-2.97.86-4.27 1.73s-2.98 1.64-4.39.93c-3.94-1.91-4.14-8.47-3.93-13.12.09-1.82.52-3.61 1.02-5.37.96-3.39 2.23-6.7 3.78-9.88.38-.78.86-1.62 1.7-1.88.63-.18 1.31.05 1.9.37.57.34 1.07.78 1.65 1.1.21.12.43.21.64.32.41.17.81.35 1.18.63.75.58 1.16 1.54 1.27 2.49.11.86.2 1.85.11 2.72 0 .11-.02.2-.03.29 2.2-1.97 4.69-3.64 7.35-4.91.83-.4 1.68-.75 2.6-.75.9-.02 1.87.43 2.22 1.27.47 1.05-.15 2.22-.54 3.3-.52 1.41-.53 3.24.67 4.11 1.54 1.12 3.82-.11 5.58.63 1.53.64 2.09 2.49 2.46 4.11.41 1.76.81 3.5 1.22 5.24.12.57.23 1.23-.17 1.64z" fill="#e4bc87"/><path d="m45.59 53.32c-.37 2.37-1.54 4.66-3.27 6.3-1.3.84-2.9 1.56-4.28.87-3.94-1.91-4.14-8.47-3.93-13.12.09-1.83.52-3.62 1.02-5.37.35-1.24.73-2.46 1.18-3.67.06-.03.11-.06.17-.08 1.3-.43 2.75-.05 3.87.73s1.93 1.93 2.63 3.09c2.01 3.4 3.23 7.39 2.61 11.25z" fill="#edd983"/><path d="m44.94 53.13c-.25 1.64-.94 3.24-1.94 4.56-.63.82-1.46 1.5-2.42 1.87-.82.32-1.68.43-2.45.04-3.56-1.73-3.74-7.65-3.55-11.85.08-1.66.47-3.27.93-4.85.18-.62.36-1.24.56-1.85.4-1.22 1.74-1.89 2.96-1.48.42.14.83.35 1.19.61 1.01.7 1.74 1.74 2.37 2.79 1.81 3.07 2.92 6.67 2.35 10.16z" fill="#f3e390"/><g fill="#d6aa76"><path d="m45.12 40.52c.01 1.44.63 2.72 1.26 3.97.66 1.25 1.24 2.61 1.56 4.03s.44 2.88.31 4.33c-.12 1.44-.45 2.87-1.03 4.17.58-2.79.6-5.62-.03-8.33-.29-1.37-.81-2.64-1.35-3.96-.53-1.3-1.04-2.78-.72-4.21z"/><path d="m50.66 56.62c1.72-1.97 2.9-4.3 3.33-6.78.45-2.49.13-5.07-.8-7.52 1.48 2.17 2.02 5 1.55 7.65-.48 2.64-1.95 5.11-4.08 6.65z"/><path d="m54.77 57.02c2.29-1.71 3.97-4.07 4.7-6.73.74-2.66.51-5.54-.57-8.19 1.63 2.37 2.09 5.55 1.3 8.39-.78 2.85-2.81 5.34-5.43 6.53z"/><path d="m58.16 57.4c2.49-1.3 4.49-3.32 5.62-5.78 1.14-2.46 1.38-5.29.75-8.03 1.21 2.56 1.15 5.72-.06 8.35s-3.58 4.72-6.31 5.46z"/></g><path d="m47.35 37.87c-.43.83-.84 1.65-1.25 2.48-.12.24-.24.5-.47.66-.21.15-.55.17-.73-.03-.12-.15-.14-.37-.14-.57.02-2.8.03-5.58.05-8.38.41.17.81.35 1.18.63.75.58 1.16 1.54 1.27 2.49.09.86.18 1.85.09 2.72z" opacity=".1"/><path d="m68.72 52.79c-.34.32-.89.34-1.22.67-.6.58-.05 1.62-.26 2.43-.26 1.05-1.59 1.36-2.66 1.45-1.87.18-3.72.35-5.58.54-1.27.12-2.61.23-3.82-.21-1.07-.4-2.16-1.22-3.21-.83-.76.29-1.21 1.15-1.97 1.45-1.05.43-2.19-.34-3.3-.47-1.56-.18-2.97.86-4.27 1.73s-2.98 1.64-4.39.93c-3.88-1.88-4.13-8.24-3.94-12.87.21 3.72 1.13 7.45 3.94 8.81 1.41.7 3.09-.06 4.39-.93s2.71-1.91 4.27-1.73c1.12.14 2.25.9 3.3.47.76-.31 1.21-1.16 1.97-1.45 1.05-.4 2.14.43 3.21.83 1.21.44 2.55.34 3.82.21 1.86-.18 3.71-.35 5.58-.54 1.07-.09 2.4-.4 2.66-1.45.21-.81-.34-1.85.26-2.43.23-.23.58-.32.87-.44.17.75.35 1.48.52 2.22.12.54.23 1.2-.17 1.61z" opacity=".1"/><path d="m67.47 45.12c-1.67.95-3.27 1.97-4.83 3.1-1.1.8-2.28 1.67-3.64 1.61-1.41-.06-2.69-1.16-4.08-.98-1.59.21-2.6 1.96-4.16 2.25-1.18.21-2.35-.43-3.53-.34-2.09.15-3.33 2.42-5.23 3.3-1.24.57-2.69.52-3.96 1.04-1.16.47-2.03 1.35-2.72 2.4-1.31-2.86-1.36-6.96-1.21-10.14.09-1.82.52-3.61 1.02-5.37.96-3.39 2.23-6.7 3.78-9.88.38-.78.86-1.62 1.7-1.88.63-.18 1.31.05 1.9.37.57.34 1.07.78 1.65 1.1.21.12.43.21.64.32.41.17.81.35 1.18.63.75.58 1.16 1.54 1.27 2.49.11.86.2 1.85.11 2.72 0 .11-.02.2-.03.29 2.2-1.97 4.69-3.64 7.35-4.91.83-.4 1.68-.75 2.6-.75.9-.02 1.87.43 2.22 1.27.47 1.05-.15 2.22-.54 3.3-.52 1.41-.53 3.24.67 4.11 1.54 1.12 3.82-.11 5.58.63 1.28.55 1.87 1.93 2.26 3.32z" fill="#fff" opacity=".1"/><path d="m59.64 34.85c-.49.18-.98.38-1.47.6-2.83 1.22-5.67 3.07-6.67 5.99-.29.86-.47 1.87-1.22 2.37-1.07.69-2.51-.06-3.73.28-1.94.52-2.34 3.33-4.14 4.17-1.38.64-3-.08-4.48.2-1.6.31-2.75 1.7-3.61 3.09-.08.11-.14.23-.2.34-.11-1.56-.08-3.12-.02-4.51.09-1.82.52-3.61 1.02-5.37.96-3.39 2.23-6.7 3.78-9.88.38-.78.86-1.62 1.7-1.88.63-.18 1.31.05 1.9.37.57.34 1.07.78 1.65 1.1.21.12.43.21.64.32.41.17.81.35 1.18.63.75.58 1.16 1.54 1.27 2.49.11.86.2 1.85.11 2.72 0 .11-.02.2-.03.29 2.2-1.97 4.69-3.64 7.35-4.91.83-.4 1.68-.75 2.6-.75.9-.02 1.87.43 2.22 1.27.15.35.19.7.15 1.07z" fill="#fff" opacity=".1"/></g></g></svg>