<svg id="Ginger" enable-background="new 0 0 64 64" viewBox="0 0 64 64" xmlns="http://www.w3.org/2000/svg"><g><path d="m60.14886 50.972c-2.88579-3.61149-4.13672-7.92918-4.37856-10.45445-.2351-2.4548-.02967-4.28631.70349-6.83313 1.10397-3.83505 2.79248-10.07582 2.31116-15.47507-.22128-2.48224-.88577-6.21375-5.04206-7.15351-7.92669-1.79225-9.1898 5.62386-9.52868 7.45493-.46394 2.50688-1.48674 5.59612-2.91399 5.82829-2.19219.35659-3.73481-5.0708-4.52258-6.98781-3.08449-7.50606-4.9389-11.03019-5.91715-12.44322-1.36699-1.97454-4.56317-5.43339-10.2614-4.84067-2.24401.23344-10.80524 2.99545-8.46874 12.09288.66758 2.59929 2.07989 4.62882 2.29648 4.92093 2.06657 2.78671 3.12619 3.56116 4.42888 5.085 1.17369 1.37293-.53396 1.89276-3.23876 1.15249-1.67292-.45785-4.12795-2.02589-7.39771-2.13488-1.2737-.04246-3.68655-.21478-5.44174 2.15804-1.92514 2.60258-.74901 5.71118.16245 6.86813 1.25744 1.59612 3.45267 2.54102 5.87765 3.243 1.23489.35749 4.02742.90809 7.42859 1.42223 1.72409.26063 8.66619 2.17194 12.44544 4.77413 5.20662 3.58499 2.95136 6.08253 1.02311 6.77834-1.18379.42717-3.49478.56139-4.99783.41548-2.65983-.2582-4.71245.23518-6.4338 2.24868-1.7715 2.07216-1.44495 4.99331-1.18822 6.14899.57921 2.60728 2.3687 3.91062 5.19108 4.52979 4.55823.99999 8.5373.57345 13.03051-.10935 4.42299-.67213 6.21171-.23584 9.05043.71402 2.32352.77747 1.49798.55091 4.41228 2.11045 1.05266.56326 3.31342 1.73594 6.23316 1.4763 1.09398-.09732 2.98684-.47327 4.75687-1.88639 2.91096-2.32399 3.55219-7.13325.37964-11.10362z" fill="#f98143"/><g fill="#d95d2e"><path d="m26.25818 13.01372c-.14631.07321-.31082.14631-.45714.23772l-.32912.16462c-3.29135 1.77363-6.78393 3.25475-10.45921 4.40674-.20122-.23772-.38403-.47533-.58515-.74965-.07321-.0914-.27433-.38403-.53035-.82287 3.76679-1.13369 7.36908-2.63311 10.73354-4.44335l.31093-.16462c.16451-.10971.34743-.20111.54854-.29252.45713-.21942 1.00568-.0183 1.20679.43883.21942.45714.01831 1.00568-.43883 1.2251z"/><path d="m9.28936 24.67983c-.73146 2.70632-1.82854 5.28452-3.30966 7.73481-.56684-.25602-1.1155-.54854-1.59082-.89597 1.4079-2.30398 2.45019-4.75428 3.12674-7.31417.12801-.47544.64006-.76807 1.11538-.64006.49374.12802.78637.64006.65836 1.11539z"/><path d="m17.04237 23.61935c-.32912 1.59082-.76796 3.23645-1.28 4.86388-.12801.38403-.47544.64006-.87766.64006-.0914 0-.18292-.0183-.27433-.03661-.47544-.16462-.74965-.67655-.58515-1.15199.49374-1.59082.91427-3.16334 1.2434-4.71767.12801.03661.23772.07321.34743.10971.53034.14631 1.00578.23772 1.42631.29262z"/><path d="m53.59492 18.40794c-.03661.49374-.43883.87778-.91427.87778h-.05491c-2.81591-.12801-5.63183-.38403-8.41125-.80456.0731-.38403.20111-1.02398.42053-1.77374 2.66971.38404 5.37592.62175 8.08224.74977.49363.01818.89596.43882.87766.95075z"/><path d="m58.01997 27.60556c-.12801.62164-.25591 1.20679-.40223 1.79194-2.4686-.21942-4.91879-.65825-7.27768-1.24339-.49363-.12801-.78626-.62175-.65825-1.11539.10971-.47544.60345-.78626 1.09719-.65825 2.35879.60334 4.77248 1.02398 7.24097 1.22509z"/><path d="m15.63033 9.7381c-.37589 0-.72767-.23303-.8607-.60713-.17053-.47499.07768-.9982.55356-1.16784.75624-.27053 1.49462-.55803 2.21693-.84731 2.308-.96606 4.52939-2.10086 6.58918-3.36691.42678-.26607.99195-.13125 1.25712.3.26517.42946.13036.99284-.3 1.25712-2.13925 1.31605-4.44547 2.4946-6.85436 3.50262-.75535.30178-1.51516.59821-2.29461.87588-.10087.0366-.20533.05357-.30712.05357z"/><path d="m36.49809 16.68911c-2.92574 1.93825-5.96107 3.712-8.9599 5.28452-.14631.05491-.27433.09141-.42053.09141-.32912 0-.65836-.18281-.82287-.49363-.21942-.43894-.05491-1.00579.40223-1.2252 3.05375-1.59082 6.10738-3.38276 9.08792-5.37592.23771.54863.47543 1.11548.71315 1.71882z"/><path d="m26.14847 51.83376c-.18281 2.81591-.54854 5.63194-1.11538 8.39295-.58515-.0731-1.1886-.16451-1.81024-.27421.56684-2.70632.93258-5.44913 1.09708-8.22844.03661-.49374.47544-.85947.96918-.85947.51194.03659.89597.47543.85936.96917z"/><path d="m57.61774 46.82357v.01819c-2.76112 1.68234-5.63194 3.25486-8.52107 4.69937-.12801.07321-.27421.09151-.40223.09151-.34743 0-.65825-.18292-.82286-.49374-.21942-.45714-.03661-1.00568.40234-1.22509 2.94393-1.46292 5.83306-3.07205 8.63067-4.79077.1828.56684.43882 1.11538.71315 1.70053z"/><path d="m51.65031 59.93464c-.32678 0-.64285-.17678-.80713-.48749-.2375-.44553-.06786-.99909.37857-1.23569 2.17318-1.15088 4.31243-2.45978 6.36061-3.89012.40892-.2866.98213-.18928 1.27319.22589.28928.41338.1875.98391-.22678 1.2723-2.1089 1.47319-4.31244 2.82138-6.5499 4.00797-.13749.07142-.28392.10714-.42856.10714z"/><path d="m34.83405 55.36283c-.0183 1.48111-.0183 2.94392-.0731 4.37024-.62175.0914-1.22509.18281-1.82854.25591.0365-1.51761.0548-3.07194.0731-4.64446 0-.49374.40234-.91427.91427-.91427.51205.01831.91427.42054.91427.93258z"/><path d="m26.53284 33.16809c-.36607 0-.71249-.22142-.85267-.58392-.18214-.47053.05179-1.00088.52231-1.18302 3.14459-1.21784 6.32758-3.13299 8.3088-4.99814.36696-.34553.94463-.32767 1.29284.03929.34553.36785.32857.94641-.03928 1.29284-2.17407 2.0464-5.5017 4.0544-8.90165 5.37134-.10892.04197-.22053.06161-.33035.06161z"/><path d="m44.76303 34.59061c-2.08445 1.82854-4.33364 3.47417-6.69242 4.91879-2.04796 1.2434-4.20563 2.32217-6.4182 3.23645-.20111-.47544-.54854-.98737-1.07889-1.53591 2.26749-.89597 4.46165-2.01147 6.54622-3.27317 2.26738-1.37141 4.44335-2.96223 6.43651-4.73586.38392-.32912.96907-.29263 1.29819.0914.32923.38403.29262.95087-.09141 1.2983z"/></g><path d="m59.77787 62.08056c-1.77363 1.4079-3.67528 1.79193-4.77247 1.88334-2.90732.25602-5.17481-.91427-6.23528-1.48112-2.90743-1.55421-2.08456-1.3348-4.40685-2.10287-2.83422-.95077-4.62616-1.3896-9.0512-.71305-1.57263.23772-3.07205.43883-4.57136.56684 7.57008-5.83305 12.39746-14.70155 12.39746-24.61222 0-3.96791-.76796-7.77131-2.19427-11.28208.10971.0183.23772.0183.34743 0 1.44462-.23772 2.4503-3.32796 2.92574-5.83306.32912-1.82854 1.59082-9.23412 9.52664-7.44218 4.15083.93257 4.82738 4.66276 5.0468 7.14955.47544 5.39422-1.20679 11.62962-2.32229 15.46951-.73135 2.5417-.93246 4.38855-.69485 6.83873.23772 2.5234 1.48123 6.83873 4.37025 10.44102 3.18163 3.98623 2.54169 8.79531-.36575 11.11759z" opacity=".15"/></g></svg>