<svg id="Layer_3" height="512" viewBox="0 0 64 64" width="512" xmlns="http://www.w3.org/2000/svg" data-name="Layer 3"><path d="m31 8h2v4h-2z" fill="#74574a"/><path d="m28.228 59.848-3.228 2.152 3.475-8.688a7.33 7.33 0 0 0 .525-2.725 7.332 7.332 0 0 0 -2.832-5.787 15.978 15.978 0 0 1 -6.168-12.614v-1.2a18.441 18.441 0 0 1 2.511-9.286l2.311-3.961a7.527 7.527 0 0 1 6.501-3.739 7.528 7.528 0 0 1 7.237 5.459l.247.865a57 57 0 0 1 2.193 15.659 28.656 28.656 0 0 1 -1.1 7.88 28.676 28.676 0 0 1 -11.672 15.985z" fill="#f7c244"/><path d="m22.547 20.45.9-.358 1.376-2.358c.1-.164.209-.313.315-.467l-3.283 1.306a12.066 12.066 0 0 0 -7.783 7.055l1.858.744a10.043 10.043 0 0 1 6.523-5.89.963.963 0 0 0 .094-.032z" fill="#f3a33a"/><path d="m49.785 29.165a8.841 8.841 0 0 0 -6.209-5.148l-4.056-.9a57.09 57.09 0 0 1 1.259 7.947l.221-.064a7.042 7.042 0 0 1 5.085 4.978l1.915 7.022 2.189-8.025a8.844 8.844 0 0 0 -.404-5.81z" fill="#f9ce69"/><path d="m46.085 35.978a7 7 0 0 0 -.513-1.3l-.619 1.308a17.488 17.488 0 0 0 -1.953 8.014h2a15.481 15.481 0 0 1 1.488-6.545z" fill="#f3a33a"/><path d="m50.447 29.105a1 1 0 0 0 -.131-.054l-.706-.235c.057.117.123.229.175.349a8.871 8.871 0 0 1 .625 2.251 6.194 6.194 0 0 1 2.59 5.056v.528h2v-.528a8.191 8.191 0 0 0 -4.553-7.367z" fill="#f3a33a"/><path d="m37 37v-20.383a7.5 7.5 0 0 0 -12.178 1.117l-2.311 3.966a18.441 18.441 0 0 0 -2.511 9.284v1.2a15.946 15.946 0 0 0 2.07 7.816h11.93a3 3 0 0 0 3-3z" fill="#f9ce69"/><path d="m20 32.186v-1.2c0-.332.015-.662.033-.992l-.033.006-2.348.335a8.363 8.363 0 0 0 -6.885 10.479l2.233 8.186 1.915-7.022a7.042 7.042 0 0 1 5.085-4.978h.765a15.709 15.709 0 0 1 -.765-4.814z" fill="#f7c244"/><g fill="#f3a33a"><path d="m10.768 40.818-.475.475a11.169 11.169 0 0 0 -3.293 7.949v.758h2v-.758a9.165 9.165 0 0 1 2.382-6.176z"/><path d="m16.956 38.65a7.049 7.049 0 0 0 -1.339 1.655l.468.78a13.438 13.438 0 0 1 1.915 6.915h2a15.442 15.442 0 0 0 -2.2-7.944z"/><path d="m31.323 14a7.5 7.5 0 0 1 4.677 1.646v-.646a3.992 3.992 0 0 0 -7.978-.22 7.5 7.5 0 0 1 3.301-.78z"/><path d="m26 32h-6v.186a16.074 16.074 0 0 0 .1 1.814h5.9z"/><path d="m30 42h-6.613a15.961 15.961 0 0 0 1.869 2h4.744z"/><path d="m41 36h-6v2h5.928q.072-1 .072-2z"/><path d="m40.117 26h-5.117v2h5.437q-.142-1-.32-2z"/><path d="m29 22v-2h-5.5l-.989 1.7c-.058.1-.108.2-.164.3z"/></g><path d="m20 2h6a6 6 0 0 1 6 6 0 0 0 0 1 0 0h-6a6 6 0 0 1 -6-6 0 0 0 0 1 0 0z" fill="#67ac5c"/><path d="m38 2h6a0 0 0 0 1 0 0 6 6 0 0 1 -6 6h-6a0 0 0 0 1 0 0 6 6 0 0 1 6-6z" fill="#67ac5c"/><path d="m50 17.981h.005a5.443 5.443 0 0 0 3.616-4.093l.379-1.888.379 1.886a5.443 5.443 0 0 0 3.621 4.093h.005a5.443 5.443 0 0 0 -3.618 4.1l-.387 1.921-.382-1.918a5.443 5.443 0 0 0 -3.618-4.101z" fill="#f7c244"/><path d="m6 7.981a5.443 5.443 0 0 0 3.621-4.095l.379-1.886.379 1.886a5.443 5.443 0 0 0 3.621 4.093h.005a5.443 5.443 0 0 0 -3.618 4.1l-.387 1.921-.382-1.918a5.443 5.443 0 0 0 -3.618-4.101z" fill="#f7c244"/></svg>