<svg id="Capa_1" enable-background="new 0 0 512 512" viewBox="0 0 512 512" xmlns="http://www.w3.org/2000/svg"><g><path d="m151.083 67.479 15.301-22.288c4.479-6.525 11.272-10.975 18.867-12.555 4.679-.973 8.937-3.385 12.316-6.764 6.321-6.321 14.894-9.872 23.833-9.872 11.27 0 21.794 5.632 28.045 15.009l21.994 32.991-64 32z" fill="#fd4755"/><path d="m271.442 64.001-64.005 31.997-56.351-28.515 11.981-17.462c.35.134.711.258 1.071.381 10.003 3.461 20.459 5.213 31.06 5.213 9.035 0 18.008-1.277 26.671-3.801 2.548-.745 5.097-1.751 7.634-3.011 2.797-1.39 3.771-4.899 2.039-7.498l-16.472-24.713c2.071-.391 4.183-.597 6.325-.597 5.635 0 11.085 1.411 15.906 3.987 4.821 2.586 9.024 6.336 12.146 11.023l2.102 3.163z" fill="#fb2b3a"/><path d="m480 302.363-224-30.363-224 30.363 30.575 185.02c.822 4.974 5.123 8.622 10.164 8.622h366.522c5.041 0 9.342-3.648 10.164-8.622z" fill="#01c0fa"/><path d="m342.011 397.949c-2.389 0-4.744-1.105-6.257-3.184-2.509-3.452-1.744-8.284 1.707-10.793 12.572-9.139 23.535-20.139 32.583-32.694 2.493-3.463 7.322-4.247 10.785-1.752 3.462 2.495 4.246 7.324 1.751 10.786-10.009 13.889-22.132 26.054-36.034 36.159-1.37.997-2.96 1.478-4.535 1.478z" fill="#97d729"/><path d="m459.574 299.595-28.34 171.496c-.411 2.487-2.561 4.311-5.082 4.311h-365.557l1.98 11.982c.822 4.974 5.123 8.622 10.164 8.622h366.522c5.041 0 9.342-3.648 10.164-8.622l30.575-185.021z" fill="#08a9f1"/><path d="m474.655 238.363c-5.441-6.084-13.797-11.611-21.642-17.94-9.316-7.515-17.074-21.956-31.694-28.039-11.759-4.892-27.856-.871-42.406-4.596-12.731-3.259-24.652-14.703-39.11-16.915-13.223-2.023-28.075 5.221-42.436 4.189-13.498-.97-27.116-10.328-41.368-10.328-14.253 0-27.872 9.358-41.371 10.328-14.361 1.032-29.214-6.212-42.437-4.189-14.456 2.212-26.376 13.655-39.106 16.914-14.547 3.725-30.643-.297-42.401 4.594-14.618 6.082-22.376 20.522-31.692 28.036-7.848 6.33-16.207 11.859-21.65 17.945l218.656 32z" fill="#fd4755"/><path d="m474.655 238.363c-5.441-6.084-13.797-11.611-21.642-17.94-9.316-7.515-17.074-21.956-31.694-28.039-8.311-3.458-18.789-2.463-29.357-2.898 9.754 9.162 16.261 15.273 20.622 19.37 3.402 3.195 1.138 8.903-3.529 8.903h-347.086c-.981.954-1.969 1.847-2.976 2.659-7.848 6.33-16.207 11.859-21.65 17.945l218.656 32z" fill="#fb2b3a"/><path d="m500.41 286.737-490.108 15.626c-5.69 0-10.302-4.612-10.302-10.302v-43.396c0-5.69 4.612-10.302 10.302-10.302h165.698l80 17.637 80-17.637h165.698c5.69 0 10.302 4.612 10.302 10.302z" fill="#01c0fa"/><path d="m501.698 238.363h-10.302v38.245c0 2.845-2.306 5.151-5.151 5.151h-486.245v10.302c0 5.69 4.612 10.302 10.302 10.302h491.396c5.69 0 10.302-4.612 10.302-10.302v-43.396c0-5.689-4.612-10.302-10.302-10.302z" fill="#08a9f1"/><path d="m336 238.363-13.153 26.305c-1.745 3.49-5.312 5.695-9.214 5.695h-115.266c-3.902 0-7.469-2.205-9.214-5.695l-13.153-26.305z" fill="#08a9f1"/><path d="m479.908 39.674c.753 5.64-3.209 10.822-8.849 11.574l-180.052 24.012c-11.497 1.525-21.582 8.489-27.022 18.739-2.998 5.645-6.82 10.786-11.291 15.257-11.59 11.579-27.578 18.749-45.256 18.749-33.337 0-59.06-24.91-63.408-55.001-.567-3.956 3.358-7.057 7.046-5.522 2.071.855 4.183 1.648 6.325 2.39 22.852 7.902 47.414 8.37 70.233 1.718 9.39-2.737 17.978-7.614 25.616-13.723 9.541-7.63 21.11-12.682 33.531-14.337l180.044-24.002c5.639-.752 10.82 3.21 11.573 8.848z" fill="#cbe5e8"/><path d="m478.545 29.464-190.247 25.371c-18.09 2.399-33.982 13.431-42.509 29.5-2.021 3.805-4.599 7.287-7.657 10.345-8.21 8.203-19.111 12.721-30.693 12.721h-47.016c11.505 12.52 28.025 20.604 47.016 20.604 17.678 0 33.666-7.17 45.256-18.749 4.471-4.471 8.293-9.612 11.291-15.257 5.439-10.25 15.525-17.214 27.022-18.739l180.052-24.011c5.64-.752 9.602-5.934 8.849-11.574z" fill="#a8d3d8"/><path d="m183.797 397.337c-11.653-3.122-22.718-7.344-33.112-12.522-10.913-5.437-20.585 9.308-11.213 17.107 18.964 15.779 41.565 27.802 66.961 34.607 45.458 12.18 91.528 5.403 129.818-15.49l-2.498-26.954-20.129-12.238c-38.291 20.893-84.362 27.672-129.827 15.49z" fill="#fd4755"/><path d="m345.591 415.565c11.268-7.075 14.029-22.285 5.815-32.751-7.167-9.132-20.064-11.572-29.957-5.499-2.569 1.577-5.178 3.088-7.824 4.531l22.627 39.192c3.167-1.729 6.282-3.554 9.339-5.473z" fill="#a2e62e"/><g><g><circle cx="256" cy="204.915" fill="#fb2b3a" r="7.726"/></g></g><g><g><circle cx="192" cy="204.915" fill="#fb2b3a" r="7.726"/></g></g><g><g><circle cx="336" cy="204.915" fill="#fb2b3a" r="7.726"/></g></g></g><g/><g/><g/><g/><g/><g/><g/><g/><g/><g/><g/><g/><g/><g/><g/></svg>