<svg height="512" viewBox="0 0 128 128" width="512" xmlns="http://www.w3.org/2000/svg"><g><path d="m1.75 50.052s14.812-30.752 50.812-29.438l73.688 29.438z" fill="#ffc362"/><path d="m1.75 50.052v10.837a14.345 14.345 0 0 1 3.844-.525c6.265 0 11.343 3.9 11.343 8.719s-5.078 8.717-11.343 8.717a14.345 14.345 0 0 1 -3.844-.525v30.15h87.987c.5-4.564 5.778-8.157 12.232-8.157s11.733 3.593 12.232 8.157h12.049v-57.373z" fill="#fff069"/><path d="m72.437 38.489c5.2 0 9.543-2.428 10.654-5.679l-17.85-7.131c-2.289 1.341-3.741 3.3-3.741 5.5 0 4.036 4.9 7.31 10.937 7.31z" fill="#ff965a"/><g fill="#ffc362"><path d="m40.187 107.427h-23.25v-4.688a11.625 11.625 0 0 1 11.625-11.625 11.625 11.625 0 0 1 11.625 11.625z"/><ellipse cx="57.719" cy="80.614" rx="9.656" ry="12"/><path d="m85.375 57.927c0 8.8 4.491 15.937 10.031 15.937s10.031-7.135 10.031-15.937a23.436 23.436 0 0 0 -1.317-7.875h-17.428a23.436 23.436 0 0 0 -1.317 7.875z"/></g></g></svg>