<svg id="Capa_1" enable-background="new 0 0 512 512" viewBox="0 0 512 512" xmlns="http://www.w3.org/2000/svg"><g><path d="m362.043 178.75c0 104.896-68.209 179.275-172.749 179.275-23.961 0-46.886-2.699-67.985-8.748-30.679-8.809-57.512-24.702-78.083-49.708-27.007-32.84-43.224-74.927-43.224-120.819 0-73.902 42.066-137.95 103.475-169.35 20.277-10.362 43.842-12.219 65.53-5.267l12.686 4.07c4.942 1.583 10.26 1.583 15.203 0l12.686-4.07c21.677-6.952 45.253-5.095 65.53 5.267 7.672 3.927 14.827 8.21 21.86 13.112 34.252 23.88 52.357 58.903 60.181 99.801 3.428 17.832 4.89 36.8 4.89 56.437z" fill="#f07281"/><path d="m296.97 22.516c20.015 24.321 33.987 53.646 39.89 85.875 1.118 6.104-3.568 11.733-9.773 11.731h-.118c-114.243 0-206.849 97.608-206.849 186.214v.043c.004 13.014-12.604 22.262-25.041 18.428-18.679-5.758-36.128-14.337-51.852-25.243 34.719 42.212 87.261 69.119 146.066 69.119 104.543 0 189.291-85.038 189.291-189.938 0-64.852-32.178-121.961-81.614-156.229z" fill="#eb5569"/><g><path d="m189.293 49.738c-8.341 0-16.683-1.975-24.286-5.926-3.73-1.938-5.183-6.533-3.245-10.264 1.938-3.73 6.531-5.184 10.264-3.245 10.813 5.617 23.722 5.617 34.535 0 3.731-1.938 8.325-.486 10.264 3.245 1.939 3.73.486 8.326-3.245 10.264-7.604 3.951-15.946 5.926-24.287 5.926z" fill="#eb5569"/></g><g><g><g fill="#eb5569"><circle cx="277.151" cy="101.437" r="7.611"/><circle cx="306.619" cy="86.107" r="7.611"/><circle cx="61.114" cy="101.384" r="7.611"/><circle cx="55.501" cy="136.246" r="7.611"/><circle cx="85.73" cy="123.482" r="7.611"/><circle cx="64.209" cy="276.056" r="7.611"/><circle cx="92.029" cy="297.036" r="7.611"/></g></g></g><g><g><g><circle cx="326.966" cy="326.967" fill="#f8f6f6" r="177.421"/><path d="m449.339 198.504c13.742 25.199 21.554 54.097 21.554 84.82 0 97.987-79.434 177.421-177.421 177.421-47.445 0-90.539-18.623-122.374-48.958 30.086 55.168 88.604 92.601 155.867 92.601 97.987 0 177.421-79.434 177.421-177.421.001-50.542-21.133-96.148-55.047-128.463z" fill="#ebebeb"/><g fill="#f07281"><circle cx="326.966" cy="327.615" r="81.014"/><path d="m326.966 512c-102.027 0-185.033-83.005-185.033-185.033s83.005-185.033 185.033-185.033 185.033 83.005 185.033 185.033-83.006 185.033-185.033 185.033zm0-354.842c-93.634 0-169.81 76.176-169.81 169.81s76.176 169.81 169.81 169.81 169.81-76.176 169.81-169.81-76.176-169.81-169.81-169.81z"/></g></g></g><g fill="#eb5569"><path d="m309.542 183.073c-19.026 2.281-36.917 8.251-52.942 17.17-8.219 4.575-10.574 15.32-5.045 22.93l15.446 45.378 31.584 19.352c8.933 12.295 28.381 5.976 28.381-9.222l10.15-37.073-10.15-42.942c0-9.35-8.139-16.706-17.424-15.593z"/><path d="m458.345 265.717c-7.925-16.971-19.041-32.151-32.576-44.771-6.896-6.43-17.866-5.378-23.408 2.249l-36.188 23.335-10.825 41.373c-8.933 12.295 3.086 28.839 17.541 24.142l44.085.817 32.016-25.544c8.98-2.917 13.351-13.044 9.355-21.601z"/><path d="m204.947 287.321c-8.962-2.912-18.462 2.675-20.257 11.926-1.741 8.972-2.655 18.239-2.655 27.721 0 9.481.914 18.748 2.655 27.72 1.795 9.251 11.295 14.838 20.257 11.926l43.607 2.07 32.49-26.796c14.454-4.696 14.454-25.145 0-29.842l-35.321-25.5z"/></g><path d="m228.163 220.946c-13.536 12.62-24.652 27.8-32.577 44.771-3.996 8.557.375 18.684 9.356 21.603l76.101 24.727c14.454 4.696 26.474-11.847 17.541-24.142l-47.013-64.708c-5.542-7.629-16.512-8.68-23.408-2.251z" fill="#e53950"/><path d="m256.6 453.691c16.025 8.919 33.916 14.889 52.942 17.17 9.285 1.113 17.423-6.243 17.423-15.595l10.15-44.278-10.15-35.737c0-15.198-19.448-21.517-28.381-9.222l-34.538 23.108-12.491 41.622c-5.529 7.612-3.173 18.357 5.045 22.932z" fill="#eb5569"/><path d="m397.331 200.243c-16.025-8.919-33.916-14.889-52.942-17.17-9.285-1.113-17.423 6.243-17.423 15.595v80.015c0 15.198 19.448 21.517 28.381 9.222l47.029-64.73c5.529-7.611 3.174-18.357-5.045-22.932z" fill="#e53950"/><path d="m195.586 388.217c7.925 16.971 19.041 32.151 32.577 44.771 6.896 6.43 17.866 5.378 23.408-2.249l47.013-64.708c8.933-12.295-3.086-28.839-17.541-24.142l-76.101 24.727c-8.981 2.917-13.352 13.045-9.356 21.601z" fill="#e53950"/><path d="m425.768 432.988c13.536-12.62 24.652-27.8 32.577-44.771 3.996-8.557-.375-18.684-9.356-21.603l-29.417-23.557-46.684-1.17c-14.454-4.696-26.474 11.847-17.54 24.142l14.171 40.936 32.842 23.772c5.541 7.63 16.511 8.681 23.407 2.251z" fill="#eb5569"/><path d="m448.985 287.321-76.097 24.726c-14.454 4.696-14.454 25.145 0 29.842l76.098 24.726c8.962 2.912 18.462-2.675 20.257-11.926 1.741-8.972 2.655-18.239 2.655-27.721s-.914-18.749-2.655-27.721c-1.796-9.252-11.296-14.838-20.258-11.926z" fill="#e53950"/><path d="m344.389 470.862c19.026-2.281 36.917-8.251 52.942-17.17 8.219-4.575 10.574-15.32 5.045-22.93l-47.029-64.73c-8.933-12.295-28.381-5.976-28.381 9.222v80.015c0 9.349 8.138 16.706 17.423 15.593z" fill="#e53950"/></g></g><g/><g/><g/><g/><g/><g/><g/><g/><g/><g/><g/><g/><g/><g/><g/></svg>