<svg id="Grape" enable-background="new 0 0 64 64" viewBox="0 0 64 64" xmlns="http://www.w3.org/2000/svg"><g><g><path d="m34.77118 5.81205c-1.44859 1.43942-2.25892 3.01822-2.65806 4.49205-.70262 2.59449-.131 4.8637.47614 5.47471.58573.58947 2.71512 1.15569 5.19824.57869 1.55271-.3608 3.24374-1.16862 4.78214-2.69728 1.44106-1.43193 2.25048-3.00178 2.65181-4.46902.7123-2.6041.1391-4.88495-.46981-5.49774-.59502-.59881-2.78289-1.17363-5.31636-.55047-1.5201.37389-3.1646 1.17905-4.6641 2.66906z" fill="#75d64c"/><path d="m32.58967 16.6929c-.23482 0-.46964-.09018-.64821-.26964-.35625-.35804-.35447-.9375.00357-1.29286l6.51518-6.47411c.35893-.35714.9375-.35357 1.29286.00357.35536.35804.35357.9375-.00357 1.29286l-6.51607 6.47411c-.1768.17768-.41073.26607-.64376.26607z" fill="#579c35"/></g><path d="m32 17.83511c1.78925 0 3.23995-1.4507 3.23995-3.23995 0-6.21214-2.0574-10.90477-6.11604-13.94736-1.43251-1.07339-3.46222-.7827-4.53561.64862s-.78309 3.46222.64862 4.53561c2.37064 1.77778 3.52313 4.64398 3.52313 8.76313 0 1.78925 1.4507 3.23995 3.23995 3.23995z" fill="#be7d59"/><g><circle cx="39.608" cy="21.535" fill="#9151b2" r="9.458"/><path d="m49.06798 21.5336c0 4.6454-3.36517 8.50429-7.77269 9.29069-.54864.10973-1.09728.16465-1.68253.16465-.40241 0-.82301-.0183-1.20712-.09153-.23776-2.19455-.65837-4.27949-1.24362-6.27301-1.02416-3.58451-2.57866-6.80334-4.49906-9.49183 1.71914-1.88368 4.18818-3.05418 6.94979-3.05418 5.21224-.00001 9.45523 4.22467 9.45523 9.45521z" opacity=".15"/></g><g><circle cx="24.392" cy="21.535" fill="#7d46a0" r="9.458"/><circle cx="20.772" cy="18.248" fill="#fff" opacity=".4" r="2.139"/></g><g><circle cx="32" cy="54.539" fill="#a36cc3" r="9.458"/><path d="m41.45982 54.54478c0 5.21223-4.24288 9.45522-9.45522 9.45522-2.26778 0-4.33441-.7864-5.96213-2.12155 3.63954-2.06652 6.73022-5.61453 8.9615-10.07697.80471-1.62772 1.49968-3.38348 2.06663-5.24884 2.17636 1.38985 3.74916 3.63943 4.22469 6.27301.10972.54863.16453 1.13388.16453 1.71913z" opacity=".15"/></g><g><circle cx="39.608" cy="43.538" fill="#9151b2" r="9.458"/><path d="m49.06798 43.53495c0 4.64529-3.36517 8.50429-7.77269 9.29069-.54864.10973-1.09728.16454-1.68253.16454-1.68264 0-3.23713-.43891-4.60878-1.1887.80471-1.62772 1.49968-3.38348 2.06663-5.24884.67667-2.23128 1.1522-4.62709 1.38996-7.13264.12803-1.29853.20115-2.65188.20115-4.00523 0-.43891 0-.85963-.01831-1.28023.31087-.03661.64017-.05481.96935-.05481.58525 0 1.13389.05481 1.68253.16454 4.40752.7864 7.77269 4.64539 7.77269 9.29068z" opacity=".15"/></g><circle cx="24.392" cy="43.538" fill="#7d46a0" r="9.458"/><g><circle cx="16.783" cy="32.537" fill="#9151b2" r="9.458"/><circle cx="13.164" cy="29.249" fill="#fff" opacity=".4" r="2.139"/></g><g><circle cx="47.217" cy="32.537" fill="#7d46a0" r="9.458"/><circle cx="47.217" cy="32.537" opacity=".15" r="9.458"/></g><g><circle cx="32" cy="32.537" fill="#a36cc3" r="9.458"/><circle cx="28.38" cy="29.249" fill="#fff" opacity=".4" r="2.139"/><path d="m41.45982 32.54343c0 .58525-.05481 1.15219-.16454 1.70084-.3658 2.03002-1.38996 3.84069-2.83472 5.17573.12803-1.29853.20115-2.65188.20115-4.00523 0-.43891 0-.85963-.01831-1.28023-.03661-1.09727-.10973-2.17636-.23776-3.23713-.23776-2.19455-.65837-4.27949-1.24362-6.27301 2.12155 1.37165 3.65774 3.60293 4.13326 6.19989.10973.54864.16454 1.13389.16454 1.71914z" opacity=".15"/></g></g></svg>