<svg height="464pt" viewBox="0 -40 464.03104 464" width="464pt" xmlns="http://www.w3.org/2000/svg"><path d="m369.769531 384.039062c-14.328125-.011718-28.054687-5.742187-38.136719-15.921874-3.074218-3.105469-7.261718-4.851563-11.632812-4.851563-4.367188 0-8.558594 1.746094-11.632812 4.851563-10.078126 10.179687-23.808594 15.910156-38.132813 15.921874-23.53125-.054687-44.316406-15.339843-51.378906-37.785156l-37.496094-118.0625c-3.550781-11.195312-5.359375-22.867187-5.359375-34.609375-.230469-62.472656 50.222656-113.304687 112.695312-113.542969h62.609376c62.472656.238282 112.925781 51.070313 112.695312 113.542969.003906 11.742188-1.804688 23.414063-5.359375 34.609375l-37.496094 118.0625c-7.0625 22.445313-27.847656 37.730469-51.375 37.785156zm0 0" fill="#5f9548"/><path d="m360.367188 80.503906c-35.566407 77.351563-118.214844 126.734375-177.285157 153.085938l35.773438 112.664062c5.605469 18.015625 20.246093 31.773438 38.574219 36.25 18.328124 4.476563 37.660156-.984375 50.9375-14.386718 3.074218-3.105469 7.265624-4.851563 11.632812-4.851563 4.371094 0 8.558594 1.746094 11.632812 4.851563 13.277344 13.402343 32.613282 18.863281 50.941407 14.386718 18.328125-4.476562 32.964843-18.234375 38.570312-36.25l37.496094-118.0625c3.554687-11.195312 5.363281-22.867187 5.359375-34.609375.175781-58.929687-44.910156-108.125-103.632812-113.078125zm0 0" fill="#568741"/><path d="m361.730469 109.007812c-1.28125.566407-2.5625 1.167969-3.824219 1.804688-23.851562 11.984375-51.960938 11.984375-75.808594 0-1.265625-.636719-2.542968-1.238281-3.824218-1.804688-35.875-14.761718-76.957032 2.023438-92.226563 37.6875-9.808594 21.882813-12.542969 46.285157-7.820313 69.796876.824219 3.957031 1.871094 7.863281 3.132813 11.699218l37.496094 118.0625c7.0625 22.445313 27.847656 37.730469 51.378906 37.785156h.320313c14.441406-.53125 28.167968-6.4375 38.484374-16.5625 6.167969-5.558593 15.523438-5.617187 21.761719-.132812 4.953125 4.933594 10.671875 9.039062 16.9375 12.148438 14.070313 6.203124 30.117188 6.121093 44.128907-.222657 14.007812-6.34375 24.65625-18.347656 29.277343-33.015625l37.496094-118.0625c1.269531-3.835937 2.316406-7.742187 3.136719-11.699218 4.722656-23.511719 1.984375-47.914063-7.824219-69.796876-15.269531-35.664062-56.347656-52.449218-92.222656-37.6875zm0 0" fill="#e0e0de"/><path d="m261.152344 354.261719 37.496094-118.0625c16.109374-50.640625-4.933594-105.6875-50.710938-132.671875-27.046875 1.800781-50.871094 18.429687-61.890625 43.199218-9.808594 21.882813-12.542969 46.285157-7.820313 69.800782.824219 3.953125 1.871094 7.859375 3.132813 11.695312l37.496094 118.0625c4.351562 13.75 14 25.199219 26.808593 31.816406 7.195313-6.421874 12.542969-14.652343 15.488282-23.839843zm0 0" fill="#d6d6d4"/><path d="m193.769531 384.039062c-14.328125-.011718-28.054687-5.742187-38.136719-15.921874-3.074218-3.105469-7.261718-4.851563-11.632812-4.851563-4.367188 0-8.558594 1.746094-11.632812 4.851563-10.078126 10.179687-23.808594 15.910156-38.132813 15.921874-23.53125-.054687-44.316406-15.339843-51.378906-37.785156l-37.496094-118.0625c-3.550781-11.195312-5.359375-22.867187-5.359375-34.609375-.230469-62.472656 50.222656-113.304687 112.695312-113.542969h62.609376c62.472656.238282 112.925781 51.070313 112.695312 113.542969.003906 11.742188-1.804688 23.414063-5.359375 34.609375l-37.496094 118.0625c-7.0625 22.445313-27.847656 37.730469-51.375 37.785156zm0 0" fill="#7eb457"/><path d="m260.953125 119.902344c-50.785156 138.320312-160.800781 181.085937-228.289063 194.273437l10.191407 32.078125c5.605469 18.015625 20.246093 31.773438 38.574219 36.25 18.328124 4.476563 37.660156-.984375 50.9375-14.386718 3.074218-3.105469 7.265624-4.851563 11.632812-4.851563 4.371094 0 8.558594 1.746094 11.632812 4.851563 13.277344 13.402343 32.613282 18.863281 50.941407 14.386718 18.328125-4.476562 32.964843-18.234375 38.570312-36.25l37.496094-118.0625c3.554687-11.195312 5.363281-22.867187 5.359375-34.609375.035156-26.996093-9.554688-53.117187-27.046875-73.679687zm0 0" fill="#77ad50"/><path d="m296 224.039062h16v24h-16zm0 0" fill="#95573a"/><path d="m328 224.039062h16v24h-16zm0 0" fill="#95573a"/><path d="m42.105469 139.421875 12.800781 9.601563c3.128906-4.160157 6.6875-7.976563 10.621094-11.386719l-10.453125-12.078125c-4.800781 4.148437-9.148438 8.796875-12.96875 13.863281zm0 0" fill="#88c25e"/><path d="m40 193.582031c-.03125-11.460937 2.621094-22.765625 7.746094-33.015625l-14.320313-7.136718c-6.238281 12.464843-9.464843 26.214843-9.425781 40.152343-.003906 9.277344 1.429688 18.503907 4.242188 27.34375l9.359374 29.511719 15.261719-4.800781-9.375-29.550781c-2.316406-7.277344-3.492187-14.867188-3.488281-22.503907zm0 0" fill="#88c25e"/><path d="m143.121094 122.863281c-14.257813.054688-28.414063-2.355469-41.847656-7.128906l5.457031-15.03125c23.5625 8.257813 49.234375 8.257813 72.796875 0l5.457031 15.03125c-13.4375 4.773437-27.601563 7.183594-41.863281 7.128906zm0 0" fill="#69a340"/><path d="m136.328125 114.4375h16v-1.121094c.238281-34.371094-12.632813-67.542968-36-92.757812l-11.6875 10.933594c20.453125 22.335937 31.761719 51.542968 31.6875 81.824218zm0 0" fill="#95573a"/><path d="m215.648438 8.839844-.855469-7.441406-5.601563-.847657c-37.191406-5.601562-75.488281 33.785157-70.007812 71.953125l.800781 5.765625c37.25 10.65625 80.351563-28.894531 75.664063-69.429687zm0 0" fill="#5f9548"/></svg>