<svg id="Capa_1" enable-background="new 0 0 512 512" height="512" viewBox="0 0 512 512" width="512" xmlns="http://www.w3.org/2000/svg"><g id="XMLID_25_"><path id="XMLID_3175_" d="m256.5 290.332 20 38.059-20 44.531-187.05-19.05c-6.33-19.37-14.47-38.15-24.35-56.1l-4.1-7.44z" fill="#4dc3ff"/><path id="XMLID_3193_" d="m471 290.332-4.1 7.44c-9.88 17.95-18.02 36.73-24.35 56.1l-186.05 19.05v-82.59z" fill="#2e8ae6"/><path id="XMLID_3184_" d="m256.5 353.872 20 52.73-20 52.73h-140.84c-16.31 0-29.86-12.57-31.07-28.83-1.75-23.28-5.99-46.24-12.61-68.49-.81-2.72-1.66-5.44-2.53-8.14z" fill="#ebe2df"/><path id="XMLID_3188_" d="m442.55 353.872c-8.08 24.77-13.18 50.49-15.14 76.63-.61 8.13-4.29 15.34-9.87 20.51-5.58 5.18-13.04 8.32-21.2 8.32h-139.84v-105.46z" fill="#d2c5c2"/><path id="XMLID_12_" d="m345.125 52.668c-14.953 0-27.389 10.775-29.968 24.983-2.07 11.404-20.491 82.683-20.491 82.683h60.917l18.12-69.951c4.741-18.303-8.296-36.833-27.184-37.684-.462-.02-.927-.031-1.394-.031z" fill="#ae774e"/><path id="XMLID_3187_" d="m256.5 150.792 11 78.21-11 61.33h-170c-9.25 0-17.62-3.75-23.69-9.81-6.06-6.06-9.81-14.44-9.81-23.69 0-18.5 15-33.5 33.5-33.5h52c-9.25 0-17.62-3.75-23.69-9.81-6.06-6.06-9.81-14.44-9.81-23.69 0-18.5 15-33.5 33.5-33.5h32.5s0-44.37 35.24-77c0 0 4.56 53.8 50.26 71.46z" fill="#f5f3f2"/><path id="XMLID_3201_" d="m459 256.832c0 18.5-15 33.5-33.5 33.5h-169v-139.54c8.98 3.47 19.54 5.54 31.96 5.54h85.04c9.25 0 17.62 3.75 23.69 9.81 6.06 6.06 9.81 14.44 9.81 23.69 0 1.24-.07 2.46-.2 3.67l-27.498 9.437-5.802 20.393h52c1.16 0 2.3.06 3.42.17 7.89.8 14.96 4.34 20.27 9.64 6.06 6.06 9.81 14.44 9.81 23.69z" fill="#ebe2df"/><path id="XMLID_3174_" d="m256.5 275.332 10 14.65-10 15.35h-256.5v-30z" fill="#ebe2df"/><g fill="#d2c5c2"><path id="XMLID_3178_" d="m256.5 275.332h255.5v30h-255.5z"/><path id="XMLID_00000122686250701758226690000009020804246145834131_" d="m373.5 223.332c17.26 0 31.48-13.06 33.3-29.83h-69.13v30z"/><path id="XMLID_4046_" d="m255.873 193.502h41.794v30h-41.794z"/></g></g></svg>