<svg height="512" viewBox="0 0 48 48" width="512" xmlns="http://www.w3.org/2000/svg"><g id="_21-leek" data-name="21-leek"><path d="m6.926 45.967-1.517-3.045c-.01-.02-.031-.031-.042-.05a.72.72 0 0 0 -.134-.158.676.676 0 0 0 -.091-.071.579.579 0 0 0 -.055-.043l-3.033-1.522a.729.729 0 0 0 -.975.314.713.713 0 0 0 .318.964l2.148 1.078-.82.824a.712.712 0 0 0 .008 1.014.733.733 0 0 0 1.026-.008l.8-.8 1.065 2.136a.73.73 0 0 0 .971.326.713.713 0 0 0 .331-.959z" fill="#00ac0d"/><path d="m40 6-9 8 .01.02c-.27.15-.47.27-.59.34 1.29-2.89 2.77-5.92 4-8.36z" fill="#070"/><path d="m31 14 9-8 .03-.05.97-.95 3 1v2c-2.35 0-10.49 4.58-12.99 6.02z" fill="#55e072"/><path d="m47 10-18.46 9.72-.37.19c.56-1.63 1.36-3.56 2.25-5.55.12-.07.32-.19.59-.34 2.5-1.44 10.64-6.02 12.99-6.02z" fill="#00ac0d"/><path d="m45 16s-15.91 10.12-18 8l-.04-.01a8.515 8.515 0 0 0 .46-1.51 18.842 18.842 0 0 1 .75-2.57l.37-.19c5.8-2.93 17.46-8.72 17.46-8.72z" fill="#00ce23"/><path d="m34.42 6c-1.23 2.44-2.71 5.47-4 8.36-.89 1.99-1.69 3.92-2.25 5.55a18.842 18.842 0 0 0 -.75 2.57 8.515 8.515 0 0 1 -.46 1.51 7.857 7.857 0 0 1 -1.71 2.63l-1.95 1.98c1.54-1.56 2-5.05-.69-7.78l-.2-.1a3.724 3.724 0 0 0 .41-1.83c-.18-4.48 8.18-16.89 8.18-16.89l6-1s-1.11 2.08-2.58 5z" fill="#55e072"/><path d="m22.61 20.82c2.69 2.73 2.23 6.22.69 7.78l-7.1 7.21a23.215 23.215 0 0 1 -4.05 6.94 4.866 4.866 0 0 1 -6.97 0 5.059 5.059 0 0 1 0-7.07 22.686 22.686 0 0 1 6.84-4.11l9.65-9.8a3.779 3.779 0 0 0 .74-1.05z" fill="#d4f7dc"/><path d="m40 6-9 8 .01.02c-.27.15-.47.27-.59.34 1.29-2.89 2.77-5.92 4-8.36z" fill="#070"/><path d="m31 14 9-8 .03-.05.97-.95 3 1v2c-2.35 0-10.49 4.58-12.99 6.02z" fill="#55e072"/><path d="m47 10-18.46 9.72-.37.19c.56-1.63 1.36-3.56 2.25-5.55.12-.07.32-.19.59-.34 2.5-1.44 10.64-6.02 12.99-6.02z" fill="#00ac0d"/><path d="m45 16s-15.91 10.12-18 8l-.04-.01a8.515 8.515 0 0 0 .46-1.51 18.842 18.842 0 0 1 .75-2.57l.37-.19c5.8-2.93 17.46-8.72 17.46-8.72z" fill="#00ce23"/><path d="m34.42 6c-1.23 2.44-2.71 5.47-4 8.36-.89 1.99-1.69 3.92-2.25 5.55a18.842 18.842 0 0 0 -.75 2.57 8.515 8.515 0 0 1 -.46 1.51 7.857 7.857 0 0 1 -1.71 2.63l-1.95 1.98c1.54-1.56 2-5.05-.69-7.78l-.2-.1a3.724 3.724 0 0 0 .41-1.83c-.18-4.48 8.18-16.89 8.18-16.89l6-1s-1.11 2.08-2.58 5z" fill="#55e072"/><path d="m22.61 20.82c2.69 2.73 2.23 6.22.69 7.78l-7.1 7.21a23.215 23.215 0 0 1 -4.05 6.94 4.866 4.866 0 0 1 -6.97 0 5.059 5.059 0 0 1 0-7.07 22.686 22.686 0 0 1 6.84-4.11l9.65-9.8a3.779 3.779 0 0 0 .74-1.05z" fill="#d4f7dc"/><path d="m6.18 41.75a5.044 5.044 0 0 1 -.32-6.672 8.632 8.632 0 0 0 -.68.6 5.059 5.059 0 0 0 0 7.07 4.866 4.866 0 0 0 6.97 0c.162-.164.343-.375.532-.61a4.849 4.849 0 0 1 -6.502-.388z" fill="#aaefb8"/><path d="m22.61 20.82-.2-.1a3.779 3.779 0 0 1 -.74 1.05l-.326.331c1.5 1.563 1.641 3.435 1.654 6.806l.3-.307c1.542-1.56 2.002-5.05-.688-7.78z" fill="#aaefb8"/><path d="m6.18 41.75c.012.012.026.02.038.032l16.571-16.571a5.466 5.466 0 0 0 -1.445-3.11l-9.324 9.469a23.886 23.886 0 0 0 -6.449 3.752c.092-.08.186-.16.289-.244a5.044 5.044 0 0 0 .32 6.672z" fill="#ecfcef"/><path d="m6.18 41.75a5.044 5.044 0 0 1 -.32-6.672c-.1.084-.2.164-.289.244-.142.124-.282.247-.391.358a5.059 5.059 0 0 0 0 7.07c.012.012.026.02.038.032l1-1c-.012-.012-.026-.02-.038-.032z" fill="#d4f7dc"/><path d="m24.315 23.685a6.641 6.641 0 0 0 -1.705-2.865l-.2-.1a3.779 3.779 0 0 1 -.74 1.05l-.326.331a5.466 5.466 0 0 1 1.445 3.11z" fill="#d4f7dc"/><path d="m25.477 20.858a4.991 4.991 0 0 0 -2.664-1.758 3.694 3.694 0 0 1 -.4 1.618l.2.1a6.974 6.974 0 0 1 1.322 1.862 6.931 6.931 0 0 0 1.542-1.822z" fill="#55e072"/><path d="m25.477 20.858a3.793 3.793 0 0 0 .523-1.858c0-1.781 6.34-14.655 7.729-17.455l-2.729.455s-8.36 12.41-8.18 16.89c0 .071 0 .141-.007.212a4.991 4.991 0 0 1 2.664 1.756z" fill="#aaefb8"/><path d="m23.932 22.682a5.3 5.3 0 0 1 -.632 5.918l1.95-1.98a7.857 7.857 0 0 0 1.71-2.63c.043-.1.075-.212.113-.317a9.723 9.723 0 0 0 -1.6-2.815 6.931 6.931 0 0 1 -1.541 1.824z" fill="#00ce23"/><path d="m33.729 1.545c-1.389 2.8-7.729 15.674-7.729 17.455a3.793 3.793 0 0 1 -.523 1.858 9.723 9.723 0 0 1 1.6 2.815 8.739 8.739 0 0 0 .347-1.193 18.842 18.842 0 0 1 .75-2.57c.56-1.63 1.36-3.56 2.25-5.55 1.29-2.89 2.77-5.92 4-8.36 1.466-2.92 2.576-5 2.576-5z" fill="#55e072"/><path d="m30.188 18.89.013-.045-1.661.875c.508-.256 1.06-.536 1.648-.83z" fill="none"/><path d="m30.2 18.845 1.072-3.481-1.648.824c-.565 1.329-1.069 2.6-1.455 3.722l.37-.19z" fill="#008906"/><path d="m44.857 8.571-.857-.571c-2.138 0-9.054 3.783-12.17 5.552l-.557 1.812z" fill="#00ce23"/><path d="m30.201 18.845 16.799-8.845-2.143-1.429-13.584 6.793z" fill="#00ac0d"/><path d="m31.83 13.552c-.309.175-.594.338-.82.468-.27.15-.47.27-.59.34-.277.619-.54 1.227-.8 1.828l1.648-.824z" fill="#00ac0d"/><path d="m28.542 24.237c4.573-.679 16.458-8.237 16.458-8.237l.553-2.765-16.253 8.557z" fill="#00ce23"/><path d="m30.188 18.89c-.586.294-1.14.574-1.648.83l-.37.19a18.842 18.842 0 0 0 -.75 2.57c-.025.117-.059.23-.088.345l1.968-1.033z" fill="#00ce23"/><path d="m30.188 18.89-.893 2.9 16.258-8.557.447-2.233s-9.706 4.82-15.812 7.89z" fill="#55e072"/><path d="m27.332 22.825a8.237 8.237 0 0 1 -.372 1.165l.04.01a1.817 1.817 0 0 0 1.542.237l.753-2.445z" fill="#00ac0d"/><path d="m5.233 42.714a.676.676 0 0 0 -.091-.071.579.579 0 0 0 -.055-.043l-3.033-1.522a.729.729 0 0 0 -.975.314.713.713 0 0 0 .318.964l2.148 1.078-.82.824a.711.711 0 0 0 .006 1.011l2.526-2.526a.336.336 0 0 0 -.024-.029z" fill="#00ac0d"/><path d="m6.926 45.967-1.517-3.045c-.01-.02-.031-.031-.042-.05a.709.709 0 0 0 -.11-.129l-2.526 2.526a.733.733 0 0 0 1.026-.008l.8-.8 1.067 2.139a.729.729 0 0 0 .971.327.713.713 0 0 0 .331-.96z" fill="#070"/><g fill="#f6fafd"><ellipse cx="8.077" cy="36.694" rx="2.297" ry="1.65" transform="matrix(.707 -.707 .707 .707 -23.588 16.47)"/><ellipse cx="11.578" cy="34.949" rx=".574" ry=".413" transform="matrix(.707 -.707 .707 .707 -21.327 18.434)"/></g></g></svg>