<svg height="464pt" viewBox="0 -40 464 464" width="464pt" xmlns="http://www.w3.org/2000/svg"><path d="m32 64h400c17.671875 0 32 14.328125 32 32v224c0 17.671875-14.328125 32-32 32h-400c-17.671875 0-32-14.328125-32-32v-224c0-17.671875 14.328125-32 32-32zm0 0" fill="#803a32"/><path d="m72 136h64v96h-64zm0 0" fill="#ffa912"/><path d="m112.132812 135.964844 24 .035156-.132812 96-24-.035156zm0 0" fill="#f7a116"/><path d="m120 136 33.128906-71.511719c9.507813-20.527343 9.136719-44.269531-1.007812-64.488281h-96.234375c-10.148438 20.21875-10.523438 43.960938-1.015625 64.488281l33.128906 71.511719zm0 0" fill="#ffb531"/><path d="m132.921875 66.761719c.078125-.265625.140625-.546875.199219-.800781 3.855468-21.828126 3.769531-44.167969-.257813-65.960938h-16.3125l.449219 1.601562c3.816406 20.152344 3.972656 40.828126.464844 61.039063l-13.464844 45.246094-13.472656-45.269531c-3.480469-19.964844-3.382813-40.390626.289062-60.320313l.695313-2.296875h-16.433594c-4.003906 21.792969-4.074219 44.128906-.199219 65.945312.058594.269532.121094.550782.199219.796876l20.417969 68.640624-.296875.617188h17.152343zm0 0" fill="#ffa912"/><path d="m416 328h-334.703125c-15.109375 0-28.519531-9.667969-33.296875-24v-32c4.777344 14.332031 18.1875 24 33.296875 24h334.703125zm0 0" fill="#6e332c"/><path d="m416 312h-334.703125c-15.109375 0-28.519531-9.667969-33.296875-24v-32c4.777344 14.332031 18.1875 24 33.296875 24h334.703125zm0 0" fill="#ffa912"/><path d="m416 384h-368l-8-32h384zm0 0" fill="#6e332c"/><path d="m224 200c-20.96875-36.695312-32-78.230469-32-120.496094v-23.503906h224v23.503906c0 42.265625-11.03125 83.800782-32 120.496094zm0 0" fill="#3d4d63"/><path d="m378.96875 56c-25.023438 75.742188-80.503906 119.6875-125.929688 144h130.960938c20.96875-36.695312 32-78.230469 32-120.496094v-23.503906zm0 0" fill="#35455c"/><path d="m224 200h160v32h-160zm0 0" fill="#35455c"/><path d="m416 56c0-17.671875-50.144531-32-112-32s-112 14.328125-112 32 50.144531 32 112 32 112-14.328125 112-32zm0 0" fill="#2e3e51"/><path d="m400.894531 72c0-8.835938-43.378906-16-96.894531-16s-96.894531 7.164062-96.894531 16 43.378906 16 96.894531 16 96.894531-7.164062 96.894531-16zm0 0" fill="#7eb457"/><path d="m373.65625 62.769531c-6.539062 8.746094-14.492188 16.34375-23.527344 22.476563 17.800782-1.714844 35.230469-6.183594 51.664063-13.246094-8.992188-4.148438-18.433594-7.246094-28.136719-9.230469zm0 0" fill="#69a340"/><path d="m360 112v16c1.601562 0 33.503906-.273438 54.046875-18.03125 1.25-9.769531 1.902344-19.609375 1.953125-29.457031l-6.625 11.046875c-13.429688 20.097656-49.03125 20.441406-49.375 20.441406zm0 0" fill="#2a3845"/><path d="m408.800781 133.273438c-12.679687 10.789062-28.449219 17.28125-45.046875 18.550781-2.25.175781-3.625.175781-3.753906.175781v16c.160156 0 1.960938 0 4.886719-.214844 13.589843-1.011718 26.789062-4.988281 38.671875-11.65625 2.585937-7.867187 4.761718-15.859375 6.53125-23.945312zm0 0" fill="#2a3845"/><path d="m227.550781 311.894531 188.402344.265625.046875-32-113.199219-.160156zm0 0" fill="#f7a116"/><g fill="#6e332c"><path d="m72 232h64v16h-64zm0 0"/><path d="m224 232h160v16h-160zm0 0"/></g></svg>