<svg enable-background="new 0 0 100 100" height="100" viewBox="0 0 100 100" width="100" xmlns="http://www.w3.org/2000/svg"><g id="Layer_1"/><g id="fruit"><g><g><path d="m61.666 35.557c-.087 0-.176-.007-.266-.021-.927-.146-1.562-1.016-1.416-1.943.075-.479 1.902-11.765 7.408-15.755 1.692-1.226 3.551-1.684 5.533-1.363.927.151 1.556 1.024 1.406 1.951-.151.927-1.026 1.55-1.951 1.406-1.07-.174-2.047.075-2.993.76-3.629 2.63-5.593 10.658-6.043 13.529-.132.837-.855 1.436-1.678 1.436z" fill="#92c220"/></g><path d="m70.021 44.31c.41 10.075-6.581 21.604-13.014 28.01-4.277 4.258-9.455 7.123-14.938 9.051-2.47.869-5.01 1.517-7.595 1.935-2.406.387-5.211.702-7.319-.818-1.431-1.033-1.818-3.013-1.266-4.601.696-2.001 2.615-3.123 4.31-4.195 8.779-5.552 13.975-15.843 15.112-26.095.846-7.625 4.009-15.327 12.752-15.156 4.738.092 9.557 2.617 11.093 7.14.524 1.544.8 3.127.865 4.729z" fill="#5a900d"/><g><path d="m54.591 68.951c-.337 0-.675-.125-.937-.378-.537-.517-.552-1.372-.035-1.909 5.025-5.213 10.302-14.271 10.013-21.841-.028-.745.552-1.372 1.297-1.401.733-.015 1.373.552 1.401 1.297.32 8.36-5.357 18.207-10.768 23.818-.264.275-.617.414-.971.414z" fill="#7cb211"/></g></g></g></svg>