<svg id="Capa_1" enable-background="new 0 0 512 512" viewBox="0 0 512 512" xmlns="http://www.w3.org/2000/svg"><g><path d="m179.091 162.882-21.171-152.488c-.763-5.493 3.504-10.394 9.051-10.394h23.371c5.545 0 9.812 4.898 9.051 10.39l-20.739 149.867z" fill="#c68d7a"/><g><path d="m341.218 288.953c0 89.785-76.328 149.926-166.103 149.926-2.669 0-5.308.03-7.896.071-27.604.457-50.875 2.527-73.456-11.336-46.592-28.589-77.668-79.992-77.668-138.661 0-44.329 17.74-92.952 46.511-130.816 11.813-15.548 26.945-43.365 33.886-61.602l12.006-31.492c5.835-15.304 20.287-24.296 35.297-24.296 6.881 0 13.883 1.888 20.216 5.927 8.931 5.694 20.358 5.694 29.289 0 1.857-1.177 3.755-2.192 5.704-2.994 15.152-6.292 35.602 4.009 43.325 24.276l11.996 31.501c8.383 22.002 19.049 42.472 33.298 61.227.599.791 1.198 1.583 1.786 2.375 28.01 37.408 51.809 82.488 51.809 125.894z" fill="#9be69d"/></g><path d="m294.702 158.137c-14.247-18.751-25.501-39.598-33.886-61.605l-12-31.492c-7.725-20.274-30.584-29.462-49.805-21.361.182.421.307 1.099.471 1.529l3.746 20.201c1.288 7.159 3.358 14.16 6.25 20.833 7.779 17.95 17.555 34.99 29.401 50.58.072.095.144.19.216.285 10.757 14.205 6.47 34.583-8.868 43.651-56.435 33.364-94.287 94.831-94.287 165.133 0 19.381 2.886 38.085 8.243 55.717 4.289 14.117-6 28.539-20.754 28.593-.198.001-.396.001-.595.001-9.924 0-19.641-.89-29.075-2.593 24.71 15.162 53.782 23.907 84.898 23.907 89.781 0 162.562-72.782 162.562-162.562 0-44.328-17.745-92.948-46.517-130.817z" fill="#97da7b"/><g><g fill="#97da7b"><circle cx="182.193" cy="172.433" r="7.611"/><circle cx="211.661" cy="157.103" r="7.611"/><circle cx="55.845" cy="252.194" r="7.611"/><circle cx="50.231" cy="287.057" r="7.611"/><circle cx="77.568" cy="275.943" r="7.611"/><circle cx="89.75" cy="382.597" r="7.611"/><circle cx="117.57" cy="403.577" r="7.611"/></g></g><g><circle cx="329.927" cy="346.022" fill="#eb5569" r="158.366"/><path d="m423.904 218.551c19.413 26.288 30.896 58.79 30.896 93.977 0 38.544-13.77 73.872-36.658 101.333-8.434 10.118-25.991-3.189-36.668 4.561-6.833 4.959-6.191 31.743-13.786 35.576-21.418 10.809-45.625 16.897-71.254 16.897-35.187 0-67.689-11.482-93.977-30.895 28.841 39.055 75.195 64.389 127.471 64.389 87.463 0 158.366-70.903 158.366-158.366-.001-52.277-25.335-98.631-64.39-127.472z" fill="#e53950"/><path d="m329.927 512c-91.521 0-165.978-74.458-165.978-165.978s74.457-165.977 165.978-165.977c91.52 0 165.978 74.457 165.978 165.977s-74.458 165.978-165.978 165.978zm0-316.732c-83.127 0-150.755 67.628-150.755 150.754 0 83.127 67.628 150.755 150.755 150.755 83.126 0 150.755-67.628 150.755-150.755 0-83.126-67.629-150.754-150.755-150.754z" fill="#9be69d"/></g><path d="m443.496 382.919c-5.45 16.776-14.259 31.511-25.443 43.71-4.161 4.547-9.854 6.698-15.436 6.495-5.825-.193-17.369-9.506-21.144-14.703 3.785 5.206 10.448 18.062 8.834 23.664-1.543 5.369-5.338 10.108-10.95 12.666-15.061 6.861-31.796 10.687-49.434 10.687-17.628 0-34.363-3.826-49.424-10.687-5.612-2.557-9.408-7.297-10.95-12.666v-.01c-1.614-5.602 8.048-23.461 11.834-28.667-3.775 5.196-18.319 19.523-24.144 19.716-5.582.203-11.275-1.949-15.436-6.495-11.184-12.199-19.993-26.935-25.443-43.71-5.45-16.766-6.982-33.866-5.115-50.307.7-6.13 4.039-11.204 8.667-14.33 4.831-3.268 18.24-2.309 24.359-.33-6.12-1.979-17.671-8.672-19.661-14.152-1.908-5.247-1.624-11.316 1.421-16.685 8.149-14.401 19.445-27.34 33.704-37.702 14.269-10.362 30.06-17.111 46.278-20.409 6.038-1.228 11.894.376 16.299 3.816 4.597 3.572 7.612 21.533 7.612 27.968 0-6.434 3.014-24.385 7.611-27.968 4.404-3.44 10.27-5.044 16.309-3.816 16.218 3.298 32.009 10.047 46.278 20.409 14.259 10.362 25.554 23.301 33.704 37.702 3.034 5.369 3.319 11.438 1.421 16.685-1.989 5.48-16.592 12.173-22.712 14.152 6.11-1.979 22.57-2.938 27.401.33 4.638 3.115 7.977 8.19 8.677 14.33 1.865 16.441.333 33.542-5.117 50.307z" fill="#f07281"/><g><path d="m387.303 424.996c3.785 5.206 4.618 11.488 3.004 17.09l-25.595-35.236c-2.466-3.4-1.715-8.16 1.685-10.626 3.41-2.476 8.17-1.715 10.636 1.685l25.585 35.216c-5.826-.193-11.54-2.933-15.315-8.129z" fill="#e53950"/></g><g><path d="m295.143 406.85-25.595 35.226c-1.074-3.73-1.064-7.758.18-11.57.303-.927-.758-1.698-1.547-1.124-3.239 2.358-7.067 3.614-10.943 3.742l25.585-35.216c2.466-3.4 7.226-4.161 10.636-1.685 3.399 2.467 4.15 7.227 1.684 10.627z" fill="#eb5569"/></g><g><path d="m439.934 318.282-41.407 13.447c-.771.254-1.573.375-2.344.375-3.37 0-6.484-2.239-7.382-5.724-1.013-3.932 1.408-7.947 5.27-9.202l41.174-13.378c-1.325 3.649-3.707 6.907-6.958 9.261-.79.572-.385 1.819.591 1.819 4.006-.003 7.841 1.228 11.056 3.402z" fill="#eb5569"/></g><g><path d="m337.534 232.82v43.538c0 4.273-3.516 7.727-7.827 7.609-4.173-.115-7.396-3.75-7.396-7.924v-43.223c3.062 2.379 5.421 5.649 6.656 9.469.3.928 1.612.928 1.912 0 1.235-3.816 3.594-7.083 6.655-9.469z" fill="#eb5569"/></g><g><path d="m271.044 326.378c-.897 3.487-4.012 5.727-7.372 5.727-.781 0-1.573-.122-2.354-.365l-41.407-13.457c3.216-2.176 7.054-3.407 11.066-3.403.975.001 1.381-1.247.591-1.819-3.251-2.354-5.633-5.612-6.957-9.261l41.161 13.374c3.862 1.255 6.284 5.271 5.272 9.204z" fill="#eb5569"/></g><g><g><path d="m329.927 417.108c-4.204 0-7.612-3.407-7.612-7.612v-24.862c0-4.204 3.408-7.611 7.612-7.611s7.612 3.407 7.612 7.611v24.862c0 4.205-3.408 7.612-7.612 7.612z" fill="#f8f6f6"/></g><g><path d="m390.296 373.251c-.779 0-1.572-.121-2.354-.375l-23.645-7.683c-3.998-1.299-6.186-5.593-4.887-9.591 1.299-3.999 5.59-6.183 9.591-4.887l23.645 7.683c3.997 1.299 6.186 5.593 4.887 9.591-1.044 3.217-4.028 5.262-7.237 5.262z" fill="#f8f6f6"/></g><g><path d="m352.616 322.396c-1.551 0-3.116-.473-4.467-1.455-3.401-2.471-4.155-7.231-1.684-10.631l14.613-20.114c2.471-3.401 7.231-4.158 10.632-1.684 3.401 2.471 4.155 7.231 1.684 10.631l-14.613 20.114c-1.49 2.05-3.811 3.139-6.165 3.139z" fill="#f8f6f6"/></g><g><path d="m307.238 322.396c-2.354 0-4.675-1.088-6.165-3.139l-14.613-20.114c-2.471-3.4-1.717-8.161 1.684-10.631 3.401-2.472 8.161-1.718 10.632 1.684l14.613 20.114c2.471 3.4 1.717 8.161-1.684 10.631-1.351.983-2.916 1.455-4.467 1.455z" fill="#f8f6f6"/></g><g><path d="m269.558 373.25c-3.209 0-6.192-2.045-7.237-5.262-1.299-3.998.889-8.292 4.887-9.591l23.645-7.682c3.998-1.296 8.291.888 9.591 4.887 1.299 3.998-.889 8.292-4.887 9.591l-23.645 7.682c-.782.254-1.575.375-2.354.375z" fill="#f8f6f6"/></g></g></g><g/><g/><g/><g/><g/><g/><g/><g/><g/><g/><g/><g/><g/><g/><g/></svg>