<svg id="Capa_1" enable-background="new 0 0 512 512" viewBox="0 0 512 512" xmlns="http://www.w3.org/2000/svg"><g><path d="m331.9 236.181c0 117.884-60.029 205.847-155.763 205.847-4.059 0-8.087-.175-12.074-.515-32.913-2.785-66.096-9.064-91.41-31.341-43.983-38.708-72.653-102.106-72.653-173.756 0-98.98 54.723-182.218 128.948-206.366 7.51-2.441 14.134-7.592 18.76-14.629 6.201-9.446 15.38-15.421 25.63-15.421s19.429 5.975 25.631 15.422c4.626 7.036 11.25 12.187 18.76 14.629 5.13 1.668 10.165 3.623 15.097 5.842 37.002 16.648 62.588 49.734 82.878 90.503 16.152 32.42 16.196 68.969 16.196 109.785z" fill="#fea95c"/><path d="m232.825 35.893c18.605 16.379 34.466 37.18 46.577 61.15 7.52 14.883.32 33.089-15.497 38.367-81.733 27.274-139.129 104.876-139.129 196.495 0 28.941 5.472 54.474 15.881 78.13 2.685 6.102-1.716 13.025-8.383 13.032-.049 0-.097 0-.146 0-20.894 0-40.925-4.552-59.474-12.894 28.382 24.98 63.139 39.682 100.685 39.682 95.732 0 173.339-95.559 173.339-213.436-.001-92.144-47.423-170.64-113.853-200.526z" fill="#fe9738"/><g><g><path d="m331.9 151.801c-99.466 0-180.1 80.633-180.1 180.1 0 44.374 16.048 84.999 42.656 116.39 33.036 38.973 85.208 54.642 140.3 54.642 99.467 0 162.636-73.591 162.636-173.057 0-62.642-17.374-115.788-65.9-148.054-28.524-18.97-62.767-30.021-99.592-30.021z" fill="#fea95c"/></g><path d="m431.487 181.829c18.968 28.526 30.029 62.763 30.029 99.587 0 99.466-71.978 185.903-171.444 185.903-36.824 0-67.089-.061-95.615-19.029 32.774 36.049 74.801 63.71 137.443 63.71 99.467 0 180.1-80.633 180.1-180.1 0-62.641-31.987-117.805-80.513-150.071z" fill="#fe9738"/><g><path d="m331.9 184.781c-81.252 0-147.12 65.868-147.12 147.12 0 60.757 36.83 112.912 89.382 135.358 17.727 7.571 37.243 7.547 57.738 7.547 81.252 0 141.903-62.557 141.903-143.809 0-26.139-1.6-49.78-13.552-71.054-25.202-44.857-73.237-75.162-128.351-75.162z" fill="#ffe177"/></g><path d="m460.251 259.942c.837 7.04 1.265 14.209 1.265 21.475 0 99.466-74.702 176.603-171.445 185.903-5.417.521-10.739.002-15.909-.061 17.727 7.571 37.243 11.762 57.738 11.762 81.252 0 147.12-65.868 147.12-147.12 0-26.139-6.816-50.686-18.769-71.959z" fill="#ffd15b"/><g fill="#fea95c"><path d="m296.579 225.098c-33.7 11.139-60.342 37.781-71.481 71.481-3.508 10.615 4.276 21.573 15.455 21.573h61.279c9.013 0 16.319-7.306 16.319-16.319v-61.279c.001-11.18-10.957-18.964-21.572-15.456z"/><path d="m438.702 296.579c-11.139-33.7-37.781-60.342-71.481-71.481-10.615-3.508-21.573 4.276-21.573 15.455v61.279c0 9.013 7.306 16.319 16.319 16.319h61.279c11.18.001 18.964-10.957 15.456-21.572z"/><path d="m367.221 438.702c33.7-11.139 60.342-37.781 71.481-71.481 3.508-10.615-4.276-21.573-15.455-21.573h-61.279c-9.013 0-16.319 7.306-16.319 16.319v61.279c-.001 11.18 10.958 18.964 21.572 15.456z"/><path d="m225.098 367.221c11.139 33.7 37.781 60.342 71.481 71.481 10.615 3.508 21.573-4.276 21.573-15.455v-61.279c0-9.013-7.306-16.319-16.319-16.319h-61.279c-11.18 0-18.964 10.958-15.456 21.572z"/></g><g><g><g fill="#fe9738"><circle cx="220.167" cy="129.765" r="7.726"/><circle cx="250.08" cy="114.203" r="7.726"/><circle cx="58.909" cy="145.217" r="7.726"/><circle cx="47.767" cy="175.616" r="7.726"/><circle cx="78.453" cy="169.237" r="7.726"/><circle cx="73.321" cy="353.375" r="7.726"/><circle cx="101.561" cy="374.672" r="7.726"/></g></g></g></g></g><g/><g/><g/><g/><g/><g/><g/><g/><g/><g/><g/><g/><g/><g/><g/></svg>