<svg height="512" viewBox="0 0 512 512" width="512" xmlns="http://www.w3.org/2000/svg"><g id="Flat"><path d="m488 120v64a95.591 95.591 0 0 1 -24.45 64c-2.66 2.98-10.02 10.69-20.54 21.55-11.54 11.91-26.89 27.63-44.02 45.03l-3.93 3.99c-7.37 7.48-15.04 15.24-22.84 23.11-8.83 8.91-17.84 17.97-26.79 26.94-7.08 7.09-14.14 14.14-21.05 21.02-39.64 39.42-74.7 73.38-84.38 80.34a95.551 95.551 0 0 1 -56 18.02h-64a96 96 0 0 1 -96-96v-64a95.591 95.591 0 0 1 24.45-64c5.99-6.7 35.8-37.42 71.89-74.02 6.85-6.94 13.92-14.09 21.09-21.33 13.2-13.31 26.75-26.91 39.92-40.04 5.66-5.64 11.26-11.2 16.72-16.61 14.19-14.05 27.51-27.11 38.94-38.11 7.12-6.85 13.5-12.9 18.9-17.89 7.45-6.9 13.04-11.79 16.09-13.98a95.551 95.551 0 0 1 56-18.02h64a96.021 96.021 0 0 1 96 96z" fill="#82390a"/><path d="m184 232h-64a96 96 0 0 0 -96 96v64a96 96 0 0 0 96 96h64a96 96 0 0 0 96-96v-64a96 96 0 0 0 -96-96z" fill="#b53715"/><path d="m172 488a76 76 0 0 1 -76-76v-59.233a48.767 48.767 0 0 1 48.767-48.767h14.466a48.767 48.767 0 0 1 48.767 48.767v43.233a20 20 0 0 1 -20 20 20 20 0 0 1 -20-20v-36a16 16 0 0 0 -16-16 16 16 0 0 0 -16 16v40a48 48 0 0 0 48 48 56 56 0 0 0 56-56v-52a68 68 0 0 0 -68-68h-40a68 68 0 0 0 -68 68v36a112 112 0 0 0 112 112z" fill="#c44829"/><path d="m446 174.68v-9.11a108.42 108.42 0 0 0 -24.74-68.98l40.94-42.06a95.2 95.2 0 0 0 -11.85-10.76l-40.11 41.21a110.755 110.755 0 0 0 -63.49-28.41l32.57-32.57h-22.64l-32 32h-68.77c-5.4 4.99-11.78 11.04-18.9 17.89a95.407 95.407 0 0 1 18.99-1.89h52.68l-40 40h-70.61c-5.46 5.41-11.06 10.97-16.72 16.61a94.4 94.4 0 0 1 10.79-.61h60.54l-40 40h-59.22a111.637 111.637 0 0 0 -12.03.65c-7.17 7.24-14.24 14.39-21.09 21.33a93.482 93.482 0 0 1 33.12-5.98h43.22l-48 48h22.64l48-48h16.06a94.01 94.01 0 0 1 58.59 20.42l-48.51 49.84a94.469 94.469 0 0 1 11.4 11.23l48.78-50.11a94.569 94.569 0 0 1 24.36 63.44v11.86l-50 50v22.64l50-50v44a94.569 94.569 0 0 1 -5.52 31.97 2.3 2.3 0 0 0 -.1.35c6.91-6.88 13.97-13.93 21.05-21.02a111.619 111.619 0 0 0 .57-11.3v-60l34-34v40.68a93.923 93.923 0 0 1 -7.78 37.68c7.8-7.87 15.47-15.63 22.84-23.11a111.654 111.654 0 0 0 .94-14.57v-56.68l34-34v30.97a93.282 93.282 0 0 1 -31.51 69.72l.5.57c17.13-17.4 32.48-33.12 44.02-45.03a108.28 108.28 0 0 0 2.99-25.26v-46.97l42-42v-22.64zm-114.68-102.68h4.06a94.858 94.858 0 0 1 63.7 24.44l-41.42 42.55a110.134 110.134 0 0 0 -66.49-26.84zm-26.14 120.91a110.029 110.029 0 0 0 -69.8-24.91h-.06l40-40h10.06a94.112 94.112 0 0 1 61.1 22.48zm74.82 47.77-34.08 34.08a110.5 110.5 0 0 0 -29.11-70.86l40.95-42.07a94.487 94.487 0 0 1 22.24 60.99zm50-50-34 34v-1.86a110.486 110.486 0 0 0 -27.03-72.51l41.05-42.18a92.424 92.424 0 0 1 19.98 57.44z" fill="#965122"/></g></svg>