<svg id="Icons" viewBox="0 0 60 60" xmlns="http://www.w3.org/2000/svg"><path d="m49.11 6.79c1.47 1.33 2.7 2.92 3.63 4.7 2.08 4 4.26 10.17 4.26 18.51 0 18.78-21.15 21.69-26.22 28.6-.4.53-1.16.53-1.56 0-5.07-6.91-26.22-9.82-26.22-28.6 0-8.34 2.18-14.51 4.26-18.51.93-1.78 2.16-3.37 3.63-4.7z" fill="#874713"/><path d="m49.11 6.79c-1.22 1.93-3.89 4.82-9.11 5.41 0 0-3 1.8-10 1.8s-10-1.8-10-1.8c-5.22-.59-7.89-3.48-9.11-5.41 1.61-1.46 3.5-2.61 5.58-3.38 3.31-1.22 7.97-2.41 13.53-2.41s10.22 1.19 13.53 2.41c2.08.77 3.97 1.92 5.58 3.38z" fill="#ffe19f"/><g fill="#6d3812"><path d="m16 47c-.248 0-.496-.092-.69-.276-2.222-2.118-3.94-4.438-5.11-6.895-1.663-3.492-2.424-7.752-2.141-11.994.265-3.958 1.417-7.96 3.333-11.573.259-.487.864-.673 1.353-.415.487.259.674.864.415 1.353-1.786 3.366-2.859 7.09-3.104 10.769-.261 3.906.432 7.813 1.95 11.002 1.064 2.235 2.641 4.356 4.686 6.307.399.381.414 1.014.033 1.414-.196.206-.46.31-.724.31z"/><path d="m21.001 49c-.33 0-.653-.163-.844-.462-3.72-5.834-4.628-11.395-4.986-15.069-.472-4.835-.071-12.177 2.612-16.958.27-.482.881-.653 1.361-.383.481.271.653.88.383 1.361-2.299 4.097-2.845 10.88-2.366 15.785.368 3.764 1.232 8.777 4.682 14.188.297.466.16 1.084-.305 1.381-.167.106-.354.157-.537.157z"/><path d="m26 52c-.396 0-.772-.237-.929-.629-1.837-4.593-2.898-8.802-3.663-14.527-.852-6.374-.355-13.167 1.398-19.126.155-.529.711-.837 1.241-.677.53.155.833.711.677 1.241-1.676 5.696-2.149 12.194-1.334 18.296.741 5.551 1.767 9.622 3.538 14.051.205.513-.045 1.095-.558 1.3-.121.049-.247.071-.371.071z"/><path d="m44 47c-.264 0-.527-.104-.724-.31-.381-.4-.366-1.033.033-1.414 2.045-1.95 3.621-4.071 4.685-6.307 1.52-3.188 2.212-7.096 1.951-11.002-.245-3.679-1.318-7.402-3.104-10.769-.259-.488-.072-1.094.415-1.353s1.093-.074 1.353.415c1.916 3.613 3.068 7.615 3.333 11.573.283 4.242-.478 8.502-2.142 11.994-1.169 2.456-2.888 4.776-5.109 6.895-.194.185-.442.276-.69.276z"/><path d="m38.999 49c-.184 0-.37-.051-.537-.157-.465-.297-.602-.915-.305-1.381 3.449-5.41 4.313-10.424 4.682-14.188.479-4.904-.067-11.688-2.366-15.784-.271-.481-.099-1.091.383-1.361.479-.27 1.091-.1 1.361.383 2.684 4.781 3.084 12.123 2.612 16.957-.358 3.676-1.267 9.236-4.986 15.07-.19.299-.514.462-.844.462z"/><path d="m34 52c-.124 0-.25-.022-.371-.071-.513-.205-.763-.787-.558-1.3 1.771-4.429 2.797-8.5 3.538-14.051.815-6.102.342-12.6-1.334-18.296-.156-.53.146-1.086.677-1.241.533-.159 1.086.148 1.241.677 1.754 5.959 2.25 12.752 1.398 19.126-.765 5.726-1.826 9.935-3.663 14.527-.156.392-.532.629-.929.629z"/><path d="m30 52c-.553 0-1-.447-1-1v-33c0-.553.447-1 1-1s1 .447 1 1v33c0 .553-.447 1-1 1z"/></g></svg>