<svg id="Capa_1" enable-background="new 0 0 512 512" viewBox="0 0 512 512" xmlns="http://www.w3.org/2000/svg"><g><g><path d="m212.421 110.134h87.159v75.587h-87.159z" fill="#fece85"/></g><g><path d="m295.807 52.913-39.807 13.445-39.807-13.445-7.272-38.475c-1.418-7.499 4.333-14.438 11.964-14.438h70.23c7.631 0 13.382 6.939 11.964 14.438z" fill="#d6694b"/></g><g><path d="m180.049 173.48c-25.463 0-46.105 20.642-46.105 46.105v269.565c0 12.62 10.23 22.85 22.85 22.85h198.412c12.62 0 22.85-10.23 22.85-22.85v-269.565c0-25.463-20.642-46.105-46.105-46.105z" fill="#80d261"/></g><g><path d="m345.9 175.634c1.396 4.401 2.154 9.086 2.154 13.949v269.564c0 12.62-10.23 22.85-22.85 22.85h-191.26v7.153c0 12.62 10.23 22.85 22.85 22.85h198.412c12.62 0 22.85-10.23 22.85-22.85v-269.565c0-20.6-13.513-38.04-32.156-43.951z" fill="#68ca44"/></g><g><path d="m300.521 120.878h-89.042c-6.872 0-12.442-5.571-12.442-12.442v-43.081c0-6.872 5.571-12.442 12.442-12.442h89.042c6.872 0 12.442 5.571 12.442 12.442v43.081c0 6.872-5.57 12.442-12.442 12.442z" fill="#ffefd2"/></g><g><path d="m300.521 52.913h-30.003c6.872 0 12.442 5.57 12.442 12.442v43.081c0 6.871-5.57 12.442-12.442 12.442h30.003c6.872 0 12.442-5.571 12.442-12.442v-43.081c0-6.872-5.57-12.442-12.442-12.442z" fill="#fee8c7"/></g><g><ellipse cx="256" cy="342.74" fill="#fff2e2" rx="77.578" ry="96.639"/></g><g><path d="m279.21 317.422h-46.421c-4.142 0-7.5-3.357-7.5-7.5s3.358-7.5 7.5-7.5h46.421c4.142 0 7.5 3.357 7.5 7.5s-3.357 7.5-7.5 7.5z" fill="#dd7f66"/></g><g><path d="m279.21 383.058h-46.421c-4.142 0-7.5-3.357-7.5-7.5s3.358-7.5 7.5-7.5h46.421c4.142 0 7.5 3.357 7.5 7.5s-3.357 7.5-7.5 7.5z" fill="#dd7f66"/></g><g><path d="m291.741 350.24h-71.481c-4.142 0-7.5-3.357-7.5-7.5s3.358-7.5 7.5-7.5h71.481c4.142 0 7.5 3.357 7.5 7.5s-3.358 7.5-7.5 7.5z" fill="#dd7f66"/></g></g><g/><g/><g/><g/><g/><g/><g/><g/><g/><g/><g/><g/><g/><g/><g/></svg>