<svg id="Capa_1" enable-background="new 0 0 497.005 497.005" viewBox="0 0 497.005 497.005" xmlns="http://www.w3.org/2000/svg"><g><path d="m115.776 422h-43.002c-30.012 0-54.842 21.978-59.29 50.734-.774 5.003 3.56 9.33 8.563 8.555 18.271-2.831 33.796-13.899 42.693-29.289z" fill="#63cd5c"/><path d="m115.776 422h43.002c30.012 0 54.842 21.978 59.29 50.734.774 5.003-3.56 9.33-8.563 8.555-18.271-2.831-33.797-13.898-42.694-29.289z" fill="#34ba53"/><path d="m438.195 464.028c-4.185-8.304-5.695-17.7-4.323-26.896l1.548-10.373h-54.016v55.241l27.634 15h33.595c5.586 0 9.211-5.887 6.697-10.876z" fill="#4bd6fa"/><path d="m404.2 432.705.888-5.947h-140.882l1.548 10.373c1.373 9.197-.137 18.592-4.322 26.896l-11.137 22.097c-2.514 4.988 1.112 10.876 6.697 10.876h152.047c5.586 0 9.211-5.887 6.697-10.876l-4.332-8.595c-7.012-13.912-9.503-29.412-7.204-44.824z" fill="#81e2fc"/><path d="m349.813 335.786 54.016 116.258h1.969c14.761 0 27.308-10.736 29.622-25.286l13.578-90.972z" fill="#81e2fc"/><path d="m404.2 432.705 14.466-96.919h-168.038l13.578 90.972c2.314 14.55 14.861 25.286 29.622 25.286h110.001c-.704-6.38-.595-12.867.371-19.339z" fill="#b6ecfa"/><path d="m448.998 335.786 34.53-231.352c.677-4.533-2.835-8.607-7.418-8.607h-30.332l-37.01 60v246.271c21.119-15.361 36.129-38.836 40.23-66.312z" fill="#b6ecfa"/><path d="m223.515 95.827c-4.583 0-8.094 4.074-7.418 8.607l34.53 231.352c7.332 49.124 49.517 85.48 99.185 85.48 21.887 0 42.316-7.067 58.955-19.169l10.559-70.74-15-87.765 39.57-76.853 9.3-62.305c.677-4.533-2.835-8.607-7.418-8.607z" fill="#d9f4fa"/><path d="m349.813 80.75-15 15v105.077h30v-105.077z" fill="#f2334a"/><path d="m364.813 47.039 78.254-17.39-6.508-29.285-78.254 17.39c-13.726 3.05-23.492 15.225-23.492 29.286v48.71h30z" fill="#fa5452"/><circle cx="439.813" cy="15" fill="#f2334a" r="15"/><path d="m276.469 305.694 3.83 25.663c5.138 34.428 34.704 59.909 69.514 59.909s64.375-25.48 69.514-59.909l3.83-25.663z" fill="#ff87b6"/><path d="m306.14 331.266h87.345c14.858 0 27.478-10.876 29.671-25.571l20.74-138.955c.931-6.236-5.782-10.764-11.222-7.576-5.321 3.119-9.053 7.298-19.052 7.298-15.952 0-15.952-10.635-31.903-10.635-15.953 0-15.953 10.635-31.907 10.635s-15.954-10.635-31.907-10.635c-15.951 0-15.951 10.635-31.903 10.635-9.999 0-13.731-4.179-19.052-7.298-5.44-3.188-12.153 1.339-11.222 7.576l20.74 138.955c2.194 14.695 14.814 25.571 29.672 25.571z" fill="#fff"/><path d="m49.039 496.957c37.592-4.314 66.737-36.199 66.737-74.957-38.757 0-70.642 29.145-74.957 66.737-.541 4.716 3.504 8.761 8.22 8.22z" fill="#91e065"/><path d="m115.776 422c0 38.757 29.145 70.642 66.737 74.957 4.716.541 8.761-3.504 8.22-8.22-4.315-37.592-36.199-66.737-74.957-66.737z" fill="#63cd5c"/><path d="m131.048 227h-30.544c-3.033 0-5.768 1.827-6.929 4.63l-16.722 40.37h77.846l-16.722-40.37c-1.161-2.803-3.896-4.63-6.929-4.63z" fill="#f2334a"/><path d="m184.525 316.99-6.199-14.965c-3.009-7.264-2.042-15.508 2.37-22.016.024-.035.048-.07.071-.105h-30c-.024.035-34.967.07-34.991.105v141.991c41.421 0 75-33.579 75-75 0-10.671-2.234-20.82-6.251-30.01z" fill="#f2334a"/><path d="m160.776 347c0-6.264-1.258-12.317-3.739-17.993l-6.427-15.503c-2.704-6.525-4.019-13.403-4.019-20.259.006-4.647 1.412-9.265 4.105-13.237.024-.035.048-.07.071-.105h-99.982c.024.035.048.07.071.105 4.412 6.508 5.378 14.752 2.37 22.016l-6.199 14.965c-4.017 9.19-6.251 19.339-6.251 30.01 0 41.421 33.579 75 75 75 24.853.001 45-33.578 45-74.999z" fill="#fa5452"/><path d="m168.586 257h-30l-20.077 50.339h30c12.496-5.703 23.751-14.843 32.259-27.435 1.584-2.345 2.509-5.171 2.509-8.214-.001-8.113-6.578-14.69-14.691-14.69z" fill="#fa5452"/><path d="m150.696 280.009c.024-.035.048-.07.071-.105 1.584-2.345 2.509-5.171 2.509-8.214 0-8.113-6.577-14.69-14.69-14.69h-75.62c-8.113 0-14.69 6.577-14.69 14.69 0 3.042.925 5.869 2.509 8.213 22.593 33.441 64.54 42.581 97.724 27.435-1.276-4.627-1.918-9.364-1.917-14.093.005-4.646 1.412-9.264 4.104-13.236z" fill="#fb6a8e"/></g><g/><g/><g/><g/><g/><g/><g/><g/><g/><g/><g/><g/><g/><g/><g/></svg>