<svg id="color_copy" height="512" viewBox="0 0 256 256" width="512" xmlns="http://www.w3.org/2000/svg" data-name="color copy"><path d="m125.3851 151.5383-32.7877-18.93-32.7874 18.93v37.86l32.7877 18.93 14.7475-8.5145v9.1589a9.02 9.02 0 0 0 9.02 9.02 9.02 9.02 0 0 0 9.02-9.02z" fill="#ff9200"/><path d="m158.2217 132.6083-32.7877 18.93v37.86l18.6684 10.7782v25.0393a9.02 9.02 0 0 0 9.02 9.02 9.02 9.02 0 0 0 9.02-9.02v-19.1513l10.8265-6.2507v14.0912a9.02 9.02 0 0 0 9.02 9.02 9.02 9.02 0 0 0 9.02-9.02v-62.3667z" fill="#ffb42e"/><path d="m191.034 75.8506-32.7877 18.93v37.86l32.7877 18.93 14.7474-8.5144v32.5415a9.02 9.02 0 0 0 9.02 9.02 9.02 9.02 0 0 0 9.02-9.02v-80.8171z" fill="#ff9200"/><path d="m26.997 94.781v37.86l32.788 18.93 32.788-18.93v-37.86l-32.788-18.93z" fill="#ffb42e"/><path d="m39.0889 128.6592a3 3 0 0 1 -3-3v-23.8975a3.0014 3.0014 0 0 1 1.5-2.5981l20.6963-11.9488a3 3 0 0 1 3 5.1963l-19.1963 11.0826v22.1655a3 3 0 0 1 -3 3z" fill="#fff"/><path d="m92.622 94.781v37.86l32.788 18.93 32.787-18.93v-37.86l-32.787-18.93z" fill="#f37c22"/><path d="m104.7139 128.6592a3 3 0 0 1 -3-3v-23.8975a3.0014 3.0014 0 0 1 1.5-2.5981l20.6953-11.9487a3 3 0 0 1 3 5.1963l-19.1953 11.0825v22.1655a3 3 0 0 1 -3 3z" fill="#fff"/><path d="m170.3379 128.6592a3 3 0 0 1 -3-3v-23.8975a3.0014 3.0014 0 0 1 1.5-2.5981l20.6963-11.9487a3 3 0 0 1 3 5.1963l-19.1963 11.0825v22.1655a3 3 0 0 1 -3 3z" fill="#fff"/><path d="m59.81 37.991v37.86l32.787 18.93 32.788-18.93v-37.86l-32.788-18.93z" fill="#ff9200"/><path d="m71.9014 71.87a3 3 0 0 1 -3-3v-23.8983a3.0014 3.0014 0 0 1 1.5-2.5981l20.6963-11.9488a3 3 0 0 1 3 5.1963l-19.1963 11.0825v22.1664a3 3 0 0 1 -3 3z" fill="#fff"/><path d="m125.434 37.991v37.86l32.788 18.93 32.787-18.93v-37.86l-32.787-18.93z" fill="#ffb42e"/><g fill="#fff"><path d="m137.5254 71.87a3 3 0 0 1 -3-3v-23.8983a3.0014 3.0014 0 0 1 1.5-2.5981l20.6963-11.9487a3 3 0 0 1 3 5.1963l-19.1963 11.0824v22.1664a3 3 0 0 1 -3 3z"/><path d="m71.9014 185.417a3 3 0 0 1 -3-3v-23.897a3.0014 3.0014 0 0 1 1.5-2.5981l20.6963-11.9492a3 3 0 0 1 3 5.1963l-19.1963 11.083v22.165a3 3 0 0 1 -3 3z"/><path d="m137.5254 185.417a3 3 0 0 1 -3-3v-23.897a3.0014 3.0014 0 0 1 1.5-2.5981l20.6963-11.9492a3 3 0 0 1 3 5.1963l-19.1963 11.083v22.165a3 3 0 0 1 -3 3z"/></g></svg>