<svg id="Capa_1" enable-background="new 0 0 512 512" height="512" viewBox="0 0 512 512" width="512" xmlns="http://www.w3.org/2000/svg"><g><path d="m368 79.952v-32h-224v32l-21.698 15.979v384.133c0 17.638 14.298 30.906 31.936 30.906l20.604 1.03h193.223c17.637 0 31.935-14.298 31.935-31.936l-20.604-96.064v-96l20.604-128v-15.393l-20.604-48.676z" fill="#d2f7ff"/><path d="m368 79.952v-32h-224v32l-32 15.979v64.069l20.604 128v96l-20.604 96.064c0 17.638 14.298 31.936 31.936 31.936h30.906c-17.638 0-31.936-14.298-31.936-31.936v-325.218c0-4.506 4.099-7.973 8.518-7.088 2.793.559 5.663.846 8.577.846 11.547 0 22.404-4.497 30.57-12.662.392-.393.874-.593 1.431-.593.555 0 1.037.199 1.43.593 8.166 8.165 19.022 12.662 30.57 12.662s22.405-4.497 30.569-12.662c.393-.393.875-.593 1.432-.593.556 0 1.038.199 1.431.592 8.165 8.166 19.021 12.663 30.57 12.663 11.547 0 22.404-4.497 30.57-12.662.392-.393.874-.593 1.43-.593s1.038.199 1.431.593c8.166 8.165 19.022 12.662 30.57 12.662s22.405-4.497 30.569-12.662c.393-.393.875-.593 1.432-.593s1.038.199 1.431.593c.173.172.345.342.505.496 4.065 3.935 8.89 6.715 14.064 8.17v-48.677z" fill="#99e6fc"/><path d="m400 160h-257.094l-20.604 10.302v299.46l20.604 10.302h257.094v-96.064l-20.604-48 20.604-48z" fill="#ff9b00"/><path d="m112 160v128l20.604 48-20.604 48v96.064h30.906v-320.064z" fill="#f37924"/><path d="m400 384h-257.094l-20.604-10.302v-75.396l20.604-10.302h257.094z" fill="#ffd15b"/><path d="m112 288h30.906v96h-30.906z" fill="#faab1b"/><path d="m344.789 448h-177.578c-3.983 0-7.211-3.229-7.211-7.211v-209.578c0-3.983 3.229-7.211 7.211-7.211h177.577c3.983 0 7.211 3.229 7.211 7.211v209.577c.001 3.983-3.228 7.212-7.21 7.212z" fill="#d2f7ff"/><path d="m153.755 58.302-49.202 46.592c-10.044 11.614 14.017 11.532 17.816 10.56 7.489-1.917 15.769.056 21.632 5.919 8.837 8.837 23.163 8.837 32 0 8.837-8.837 23.163-8.837 32 0 8.837 8.837 23.163 8.837 32 0 8.837-8.837 23.163-8.837 32 0 8.837 8.837 23.163 8.837 32 0 8.837-8.837 23.163-8.837 32 0 8.837 8.837 23.163 8.837 32 0 8.837-8.837 23.163-8.837 32 0 .088.088.177.176.267.262 11.032 10.68 27.526-5.127 17.482-16.741l-34.21-39.557-25.295-7.035z" fill="#a15c27"/><path d="m383.54 65.337-14.993-17.337-113.705-20.604-111.389 20.604-49.202 56.894c-10.044 11.614 6.451 27.421 17.483 16.741.089-.087.178-.174.267-.262 2.974-2.974 6.569-4.947 10.368-5.919-.825-3.362-.167-7.142 2.788-10.56l26.761-30.945c2.935-3.394 7.201-5.345 11.688-5.345h204.941c5.347 0 10.425-1.17 14.993-3.267z" fill="#78451d"/><path d="m236.404 324.661-10.302 11.314 10.302 11.314 9.607 15.848 9.989-4.535 9.725 4.688 9.871-16.001 10.302-11.836-10.302-10.792-9.669-15.884-9.927 4.57-10.618-4.171z" fill="#ff9b00"/><path d="m368.547 48h-194.189l-20.604-.227c-8.534 0-15.453-6.691-15.453-15.226v-17.094c0-8.534 6.918-15.155 15.453-15.155l20.604-.298h194.189c8.535 0 15.453 6.918 15.453 15.453v17.094c0 8.534-6.918 15.453-15.453 15.453z" fill="#a15c27"/><path d="m158.906 32.547v-17.094c0-8.535 6.918-15.453 15.452-15.453h-30.906c-8.533 0-15.452 6.918-15.452 15.453v17.094c0 8.534 6.919 15.453 15.453 15.453h30.906c-8.535 0-15.453-6.919-15.453-15.453z" fill="#78451d"/><path d="m275.596 324.661v22.627l10.298 16.248 9.298-4.934 15.99-9.232c2.231-1.288 3.606-3.669 3.606-6.245v-14.301c0-2.576-1.374-4.957-3.606-6.245l-15.99-9.232-9.294-4.936z" fill="#faab1b"/><path d="m216.808 358.593v18.464c0 2.576 1.374 4.957 3.606 6.245l12.385 7.15c2.231 1.288 4.98 1.288 7.211 0l15.99-9.232 10.302-11.314-10.302-11.313-19.596-11.314-10.302-4.354z" fill="#faab1b"/><path d="m216.808 294.852v18.464l9.308 15.676 10.288-4.362 19.596-11.314 10.302-11.314-10.302-11.313-15.99-9.232c-2.231-1.288-4.98-1.288-7.211 0l-12.385 7.15c-2.231 1.288-3.606 3.669-3.606 6.245z" fill="#faab1b"/><g fill="#ffd15b"><path d="m197.212 328.825v14.301c0 2.576 1.374 4.957 3.606 6.245l15.99 9.232 19.596-11.314v-22.627l-19.596-11.314-15.99 9.232c-2.231 1.288-3.606 3.668-3.606 6.245z"/><path d="m256 358.593v22.627l15.99 9.232c2.231 1.288 4.98 1.288 7.211 0l12.385-7.15c2.231-1.288 3.606-3.669 3.606-6.245v-18.464l-19.596-11.314z"/><path d="m256 290.689v22.627l19.596 11.314 19.596-11.314v-18.464c0-2.576-1.374-4.957-3.606-6.245l-12.385-7.15c-2.231-1.288-4.98-1.288-7.211 0z"/></g></g></svg>