<svg height="512" viewBox="0 0 512 512" width="512" xmlns="http://www.w3.org/2000/svg"><g id="Flat"><path d="m376 128v40h32a40 40 0 0 1 40 40 40 40 0 0 1 -40 40h-56v40h56a80 80 0 0 0 80-80 80 80 0 0 0 -80-80z" fill="#2aa9ab"/><path d="m400 104v62.35a309.776 309.776 0 0 1 -56 177.65h-176a309.774 309.774 0 0 1 -56-177.65v-62.35z" fill="#2eb5b7"/><path d="m400 104v62.35a309.776 309.776 0 0 1 -56 177.65h-83.54a309.776 309.776 0 0 0 56-177.65v-62.35z" fill="#2aa9ab"/><path d="m352 136v96a16 16 0 0 1 -16 16 16 16 0 0 1 -16-16v-8a16 16 0 0 0 -16-16 16 16 0 0 0 -16 16v32a16 16 0 0 1 -16 16 16 16 0 0 1 -16-16v-88z" fill="#92563a"/><path d="m80 344h352a0 0 0 0 1 0 0 64 64 0 0 1 -64 64h-224a64 64 0 0 1 -64-64 0 0 0 0 1 0 0z" fill="#2eb5b7"/><path d="m24 216h192v272h-192z" fill="#7a432a"/><path d="m216 488h-192v-56l144-216h48z" fill="#6e3c26"/><g fill="#92563a"><path d="m56 248h48v48h-48z"/><path d="m136 248h48v48h-48z"/><path d="m56 328h48v48h-48z"/><path d="m136 328h48v48h-48z"/><path d="m56 408h48v48h-48z"/><path d="m136 408h48v48h-48z"/></g><path d="m400 104c0 9.85-3.21 19.28-9.07 28-20.43 30.37-73.13 52-134.93 52s-114.5-21.63-134.93-52c-5.86-8.72-9.07-18.15-9.07-28 0-44.18 64.47-80 144-80s144 35.82 144 80z" fill="#ffb531"/><ellipse cx="256" cy="132" fill="#78462f" rx="134.93" ry="52"/></g></svg>