<svg id="Capa_1" enable-background="new 0 0 512 512" height="512" viewBox="0 0 512 512" width="512" xmlns="http://www.w3.org/2000/svg"><g><path d="m52.888 416.766v48.732c0 8.455-6.854 15.309-15.309 15.309-8.614 0-15.596 6.983-15.596 15.596 0 8.614 6.983 15.596 15.596 15.596h93.731c8.614 0 15.596-6.983 15.596-15.596 0-8.614-6.983-15.596-15.596-15.596h-41.04c-8.457 0-15.312-6.858-15.309-15.315l.011-26.643.24-25.626z" fill="#a3262c"/><g><path d="m107.555 336.962 19.824 5.176 18.352 18.352 7.324 21.972-74.628 53.305c-2.884 2.06-6.835 1.733-9.341-.773l-14.064-14.064c-2.506-2.506-2.833-6.457-.773-9.341z" fill="#f24141"/><path d="m78.427 435.768 74.628-53.305-7.324-21.972-7.324 7.324-79.626 56.875 10.305 10.305c2.506 2.506 6.457 2.833 9.341.773z" fill="#d83939"/><path d="m114.908 284.109 91.001 91.001-24.947 24.947c-2.831 2.831-7.422 2.831-10.254 0l-80.748-80.747c-2.831-2.831-2.831-7.422 0-10.254z" fill="#a3262c"/><path d="m180.961 400.057 24.947-24.947-36.62-36.62-30.074 30.074 31.493 31.493c2.832 2.831 7.422 2.831 10.254 0z" fill="#822029"/><path d="m365.131 3.034 121.853 121.853c4.045 4.045 4.045 10.603 0 14.648l-38.176 38.176-26.637 11.989-140.599 140.598-14.767 29.415-38.176 38.176c-4.045 4.045-10.603 4.045-14.648 0l-121.853-121.853c-4.045-4.045-4.045-10.603 0-14.648l38.176-38.176 29.415-14.767 140.599-140.598 11.988-26.637 38.176-38.176c4.045-4.045 10.604-4.045 14.649 0z" fill="#f24141"/><path d="m160.862 103.94h257.389v193.042h-257.389z" fill="#ffe02f" transform="matrix(.707 -.707 .707 .707 -56.939 263.461)"/><path d="m192.009 361.268c-4.045 4.045-10.603 4.045-14.648 0l36.62 36.62c4.045 4.045 10.603 4.045 14.648 0l38.176-38.176-36.62-36.62z" fill="#d83939"/><path d="m448.807 177.711 38.176-38.176c4.045-4.045 4.045-10.603 0-14.648l-36.62-36.62c4.045 4.045 4.045 10.603 0 14.648l-38.176 38.176z" fill="#d83939"/><path d="m210.802 224.507h257.389v51.789h-257.389z" fill="#fbc700" transform="matrix(.707 -.707 .707 .707 -77.625 313.401)"/><g><g><path d="m244.792 235.712c3.034 3.034 3.034 7.952 0 10.986l-11.375 11.375c-3.034 3.034-7.952 3.034-10.986 0s-3.034-7.952 0-10.986l11.375-11.375c3.034-3.034 7.952-3.034 10.986 0z" fill="#a3262c"/></g></g><path d="m360.281 160.451c3.526 2.267 3.269 7.503-.463 9.413l-9.589 4.909c-13.904 7.118-26.609 16.367-37.654 27.412l-39.05 39.05c-9.459 9.459-24.796 9.459-34.255 0l.029-.029c-9.459-9.459-9.488-24.767-.029-34.226l37.564-37.564c22.245-22.246 56.986-25.978 83.447-8.965z" fill="#f24141"/><path d="m335.582 160.124c-13.904 7.118-26.609 16.367-37.654 27.412l-39.05 39.05c-6.829 6.829-16.721 8.728-25.254 5.696 1.173 3.256 3.065 6.312 5.676 8.923l-.029.029c9.459 9.459 24.796 9.459 34.255 0l39.05-39.05c11.045-11.045 23.75-20.294 37.654-27.412l9.589-4.909c3.731-1.91 3.989-7.146.463-9.413-4.095-2.633-8.389-4.768-12.804-6.416z" fill="#d83939"/></g></g></svg>