<svg id="Layer_1" height="512" viewBox="0 0 64 64" width="512" xmlns="http://www.w3.org/2000/svg" data-name="Layer 1"><path d="m9.5 14.575c2.1-.494 6.729-4.072 8.451-4.839 2.865-1.277 4.929-4.536 8.269-5.125 3.179-.557 6.815 1.673 10.27 1.846 2.909.145 6.48-1.25 9.007-.171 2.778 1.186 6.553 7.568 8.989 8.714l-24.063 16.465h-11.759z" fill="#a0d177"/><path d="m25.746 32 .836-2a2.584 2.584 0 0 1 1.423-1.4l2.77-1.108a2.581 2.581 0 0 0 1.545-1.77l.284-1.135a2.58 2.58 0 0 1 2-1.905l2.632-.527a2.556 2.556 0 0 0 .717-.26l-1.612-4.341a1.657 1.657 0 0 0 -1.554-1.08h-2.531a7.4 7.4 0 0 1 -4.427 1.395c-2.737 0-6.194-1.605-8.426-1.326s-3.621 4.032-3.621 4.032l-7.928 11.7 13.559 4.445 3.9-.976a29.467 29.467 0 0 1 .433-3.744z" fill="#a0d177"/><g fill="#89c458"><path d="m36.339 17.552a1.656 1.656 0 0 0 -1.554-1.08 10.518 10.518 0 0 0 -3.988.815 7.832 7.832 0 0 1 -2.968.58c-2.737 0-6.194-1.605-8.426-1.326a3.605 3.605 0 0 0 -2.236 1.542l-.006.007a9.184 9.184 0 0 0 -.747 1.147 11.245 11.245 0 0 0 -.588 1.225l-.009.021-.035.09-2.057 3.034 4.267 11.993 3.421 1.123 4.173 7.6 1.077.545c-.267-3.59-1.1-11.839-.917-12.862l.836-2a2.58 2.58 0 0 1 1.423-1.4l2.77-1.108a2.581 2.581 0 0 0 1.545-1.77l.284-1.135a2.58 2.58 0 0 1 2-1.905l2.632-.527a2.556 2.556 0 0 0 .717-.26zm-5.559 4.341a28.165 28.165 0 0 0 -5.664 5.9.789.789 0 0 1 -1.389-.26 40.294 40.294 0 0 0 -3.062-6.766 1.156 1.156 0 0 1 1.235-1.695 36.9 36.9 0 0 0 5.926.8 7.783 7.783 0 0 0 3.44-.793 5.929 5.929 0 0 1 2.624-.6h.892a1.656 1.656 0 0 1 1.554 1.08 1 1 0 0 1 -1.084 1.341 5.924 5.924 0 0 0 -4.472.993z"/><path d="m14.134 23.114c1.64-.381 2.9-1.117 1.648-2.541-1.344-1.528-2.462-4.741-3.23-7.49a12.61 12.61 0 0 1 -3.052 1.492z"/><path d="m37.951 21.893-1.612-4.341a1.657 1.657 0 0 0 -1.554-1.08h-2.529a1.658 1.658 0 0 1 -1.451-.857l-.777-1.409a3.744 3.744 0 0 0 -3.486-1.928l-1.5.085a1.587 1.587 0 0 1 -1.617-1.411 1.658 1.658 0 0 0 -1.71-1.385l-3.761.169 4.606-1.072a6.237 6.237 0 0 1 5.189 1.112l7.851 5.983a6.233 6.233 0 0 1 2.346 6.134z"/><path d="m26.22 7.089c3.179-.557 6.815 1.673 10.27 1.846 2.586.129 5.693-.954 8.126-.441a4.782 4.782 0 0 1 .881.27c1.7.725 3.772 3.4 5.683 5.621l.132.1a2.579 2.579 0 0 0 1.548.515h1.626c-2.436-1.146-6.211-7.528-8.986-8.714a4.782 4.782 0 0 0 -.881-.27c-2.433-.513-5.54.57-8.126.441-3.455-.173-7.091-2.4-10.27-1.846-3.34.585-5.4 3.848-8.269 5.125l.519-.023a11.471 11.471 0 0 0 5.335-1.687 7.088 7.088 0 0 1 2.412-.937z"/><path d="m51.172 11.9a11.63 11.63 0 0 0 -6.172-.9c-5 1-5 5-6 6-.473.473-1.394-.173-2.233-.985a2.5 2.5 0 0 0 -3.642.173l-1.132.981 2.792-.7a1.656 1.656 0 0 1 1.554 1.08l1.612 4.341a2.562 2.562 0 0 0 .6-.446l2.149-2.144a2.577 2.577 0 0 1 .67-.483l.564-.282a2.583 2.583 0 0 0 1.35-1.683l.424-1.7a2.583 2.583 0 0 1 1.35-1.683l1.511-.756a2.583 2.583 0 0 1 2.7.244l2.036 1.527a2.579 2.579 0 0 0 1.555.516h1.626a12.894 12.894 0 0 1 -3.314-3.1z"/></g><path d="m24.958 37.071a46.932 46.932 0 0 1 -4.561-10.1 14.429 14.429 0 0 0 -2.232-4.738c-1.383-1.627-3.648-1.841-5.013-3.383-1.526-1.727-3.015-4.31-4.652-4.85a2.378 2.378 0 0 0 -2.839 1.73c-.552 2.1 1.217 3.1.348 5.209a26.058 26.058 0 0 0 -2.009 9.561c0 12.966 10.626 23.672 24.381 25.289l7.837.211z" fill="#a0d177"/><path d="m36.218 56-8.718-14.651c-6.408-3.159-13.034-2.838-15.733 1.118a7.167 7.167 0 0 0 -1.147 4.492 28.787 28.787 0 0 0 17.759 8.83z" fill="#d8ebc8"/><path d="m36.218 56-8.718-14.651a21.917 21.917 0 0 0 -3.969-1.5c-2.171 2.873-2.069 7.9.543 12.42a16 16 0 0 0 2.473 3.245c.605.109 1.214.206 1.832.279z" fill="#d0ebba"/><path d="m23.311 54.748 1.1 1.462a2.965 2.965 0 0 1 .589 1.777v.052a2.961 2.961 0 0 0 2.961 2.961h6.673a3.922 3.922 0 0 0 1.878-.449c1.9-1.039 1.214-2.749 1.926-4.137.611-1.19 1.777-1.49 2.948-1.912a37.446 37.446 0 0 0 4-1.6 28.276 28.276 0 0 0 5.148-3.287 25.868 25.868 0 0 0 7.3-9.253 23.612 23.612 0 0 0 2.166-9.862 23.158 23.158 0 0 0 -1.293-7.5l-.707-2-.868-2.6a2.572 2.572 0 0 1 -.132-.756 2.586 2.586 0 0 0 -2.514-2.644h-1.626a2.579 2.579 0 0 1 -1.548-.516l-2.036-1.527a2.583 2.583 0 0 0 -2.7-.244l-1.511.756a2.583 2.583 0 0 0 -1.35 1.683l-.424 1.7a2.583 2.583 0 0 1 -1.35 1.683l-.563.282a2.582 2.582 0 0 0 -.671.483l-2.151 2.151a2.582 2.582 0 0 1 -1.319.706l-2.637.523a2.58 2.58 0 0 0 -2 1.905l-.28 1.135a2.581 2.581 0 0 1 -1.545 1.77l-2.77 1.11a2.584 2.584 0 0 0 -1.423 1.4l-.836 2a29.34 29.34 0 0 0 3.521 20.035 9.562 9.562 0 0 0 4.507 3.965" fill="#a0d177"/><path d="m46 42c-3.164 5.423-10.207 8.186-16.978 9.592.083.147.16.3.245.443a9.562 9.562 0 0 0 4.507 3.965l-10.463-1.252 1.1 1.462a2.965 2.965 0 0 1 .589 1.777v.052a2.961 2.961 0 0 0 2.961 2.961h6.673a3.922 3.922 0 0 0 1.878-.449c1.905-1.039 1.214-2.749 1.926-4.137.611-1.19 1.777-1.49 2.948-1.912a37.446 37.446 0 0 0 4-1.6 28.287 28.287 0 0 0 3.514-2.081c1.938-7.894 1.452-16.282-2.9-8.821z" fill="#d8ebc8"/><path d="m20.932 50.639a19.227 19.227 0 0 1 -9.329-11.9c1.022-1.494 4.264-6.447 4.522-9.482a1 1 0 0 0 -1.993-.17c-.154 1.806-1.83 4.844-3.182 7a34.277 34.277 0 0 1 -.2-11.328 1 1 0 0 0 -.793-1.159h-.005a1 1 0 0 0 -1.167.8 36.11 36.11 0 0 0 .715 14.233.987.987 0 0 0 .142.507 21.175 21.175 0 0 0 10.341 13.26 1.021 1.021 0 0 0 .286.1 1 1 0 0 0 .663-1.863z" fill="#e8f2df"/><path d="m58.587 26.277a1 1 0 0 0 -1.324.5c-.878 1.936-3.636 3.514-5.6 4.389a33.136 33.136 0 0 0 -.507-9.95 1 1 0 1 0 -1.959.4 31.071 31.071 0 0 1 .271 10.976c0 .022-.009.043-.011.065-.058.371-.113.742-.185 1.111-3.322-2.5-7.706-6.26-8.177-8.041a1 1 0 1 0 -1.933.512c.794 3 7.517 8.115 9.613 9.65a30.771 30.771 0 0 1 -2.017 5.4c-.1.2-.191.412-.294.614-5.827-4.19-11.72-9.206-12.026-10.816a1 1 0 0 0 -1.965.373c.579 3.052 9.78 9.885 13.015 12.206a31.563 31.563 0 0 1 -2.985 4.19 1 1 0 1 0 1.528 1.291 33.245 33.245 0 0 0 4.378-6.673c1.567-.633 7.021-2.939 8.788-5.059a1 1 0 0 0 -1.536-1.282c-.975 1.17-3.819 2.635-6.059 3.65a32.627 32.627 0 0 0 1.751-6.333c1.643-.625 6.273-2.63 7.736-5.851a1 1 0 0 0 -.502-1.322z" fill="#e8f2df"/></svg>