<svg id="Layer_1" enable-background="new 0 0 512 512" height="512" viewBox="0 0 512 512" width="512" xmlns="http://www.w3.org/2000/svg"><g><g fill="#afe73b"><path d="m242.514 130.36c17.231 17.746 3.669 32.666 3.669 32.666s-14.92 13.562-32.666-3.669c-12.484-12.121-10.762-30.303-9.766-36.34.206-1.246 1.176-2.216 2.422-2.422 6.038-.997 24.22-2.719 36.341 9.765z"/><path d="m269.486 130.36c-17.231 17.746-3.669 32.666-3.669 32.666s14.92 13.562 32.666-3.669c12.484-12.121 10.762-30.303 9.766-36.34-.206-1.246-1.176-2.216-2.422-2.422-6.038-.997-24.22-2.719-36.341 9.765z"/></g><path d="m279.777 135.731c-.423 32.473-23.777 33.734-23.777 33.734s-23.354-1.261-23.777-33.734c-.297-22.843 16.024-38.125 21.791-42.805 1.19-.966 2.782-.966 3.972 0 5.767 4.68 22.088 19.961 21.791 42.805z" fill="#c6ec7f"/><path d="m396.9 357.988h-281.8c-30.159 0-54.834-24.675-54.834-54.834v-86.066c0-30.159 24.675-54.834 54.834-54.834h281.8c30.159 0 54.834 24.675 54.834 54.834v86.066c0 30.158-24.675 54.834-54.834 54.834z" fill="#ffb76f"/><path d="m396.9 162.253h-30.905c30.159 0 54.834 24.675 54.834 54.834v86.066c0 30.159-24.675 54.834-54.834 54.834h30.905c30.159 0 54.834-24.676 54.834-54.834v-86.066c0-30.158-24.675-54.834-54.834-54.834z" fill="#ffa847"/><path d="m413.943 419.799h-322.003c-7.803 0-14.129-6.326-14.129-14.129v-36.197h350.262v36.197c-.001 7.803-6.326 14.129-14.13 14.129z" fill="#9ec6d0"/><path d="m397.167 382.712v22.957c0 7.803-6.326 14.129-14.129 14.129h30.905c7.803 0 14.129-6.326 14.129-14.129v-22.957z" fill="#8eb0bf"/><g fill="#ff9902"><path d="m155.011 223.869c2.664 3.172 7.396 3.584 10.566.919 3.172-2.664 3.583-7.395.919-10.566-6.464-7.696-17.072-11.135-26.775-9.138-6.942-5.93-16.978-7.935-25.671-4.698-8.729 3.25-15.022 11.383-16.363 20.452-4.418 2.678-7.881 6.821-9.67 11.75-2.43 6.692-1.565 14.253 2.313 20.225 1.437 2.212 3.842 3.416 6.296 3.416 1.4 0 2.817-.392 4.078-1.211 3.474-2.256 4.461-6.901 2.205-10.375-1.29-1.987-1.602-4.709-.793-6.936s2.794-4.115 5.058-4.812c3.354-1.031 5.545-4.25 5.274-7.75-.345-4.445 2.658-9.147 6.836-10.703 4.177-1.556 9.524.037 12.171 3.625 2.082 2.823 5.839 3.824 9.051 2.417 4.779-2.098 11.148-.611 14.505 3.385z"/><path d="m415.019 229.876c-1.79-4.929-5.251-9.072-9.67-11.75-1.34-9.07-7.634-17.202-16.363-20.452-8.694-3.239-18.729-1.232-25.671 4.698-9.704-1.997-20.312 1.442-26.776 9.138-2.664 3.172-2.252 7.903.919 10.567 3.171 2.663 7.902 2.252 10.567-.919 3.356-3.996 9.729-5.482 14.504-3.385 3.211 1.409 6.971.406 9.052-2.417 2.645-3.588 7.991-5.182 12.17-3.625 4.179 1.556 7.182 6.256 6.836 10.702-.272 3.499 1.919 6.719 5.274 7.75 2.264.696 4.25 2.584 5.058 4.812.809 2.227.498 4.949-.793 6.936-2.256 3.474-1.269 8.119 2.205 10.375 1.262.819 2.678 1.211 4.078 1.211 2.455 0 4.86-1.204 6.297-3.416 3.878-5.972 4.743-13.533 2.313-20.225z"/><path d="m278.045 223.011c.648 4.091 4.495 6.883 8.581 6.235 4.091-.648 6.883-4.49 6.235-8.581-1.307-8.251-5.621-14.932-11.838-18.33-3.532-1.931-7.438-2.719-11.415-2.358-4.664-7.092-12.815-11.757-21.455-11.757h-.107c-9.314.042-18.026 5.505-22.411 13.557-5.071.99-9.75 3.686-13.128 7.695-4.589 5.444-6.384 12.84-4.802 19.783.792 3.478 3.883 5.835 7.306 5.835.552 0 1.112-.061 1.673-.189 4.039-.92 6.566-4.94 5.646-8.979-.526-2.31.12-4.972 1.646-6.784 1.527-1.812 4.044-2.9 6.407-2.772 3.5.188 6.671-2.078 7.623-5.457 1.208-4.292 5.648-7.669 10.106-7.689h.04c4.445 0 8.892 3.331 10.135 7.599.604 2.073 2.071 3.785 4.026 4.698 1.957.915 4.211.941 6.187.073 2.022-.887 3.815-.918 5.328-.092 2.106 1.151 3.643 3.89 4.217 7.513z"/><path d="m351.19 265.217c-3.292-2.319-7.081-3.544-11.074-3.636-3.846-7.606-11.463-13.179-20.092-14.124-9.259-1.01-18.533 3.428-23.802 10.931-5.149.41-10.104 2.558-13.916 6.159-5.176 4.89-7.797 12.035-7.011 19.111.457 4.117 4.168 7.082 8.281 6.627 4.117-.457 7.084-4.165 6.627-8.281-.261-2.354.683-4.927 2.404-6.553 1.722-1.626 4.344-2.424 6.68-2.029 3.457.582 6.863-1.309 8.191-4.558 1.687-4.127 6.479-6.982 10.913-6.495 4.432.485 8.495 4.308 9.249 8.703.365 2.127 1.629 3.995 3.469 5.124 1.84 1.128 4.075 1.412 6.139.773 2.111-.654 3.895-.481 5.304.512 1.962 1.382 3.179 4.277 3.338 7.942.175 4.027 3.495 7.174 7.487 7.174.11 0 .221-.002.332-.007 4.139-.18 7.347-3.681 7.167-7.819-.364-8.347-3.894-15.474-9.686-19.554z"/><path d="m214.57 281.064c-3.48-2.025-7.361-2.917-11.347-2.664-4.49-7.245-12.56-12.138-21.238-12.333-9.289-.203-18.167 5.018-22.768 12.949-5.096.853-9.845 3.422-13.331 7.339-4.733 5.32-6.727 12.665-5.332 19.647.712 3.566 3.844 6.032 7.347 6.032.487 0 .981-.048 1.477-.147 4.062-.812 6.697-4.762 5.885-8.824-.464-2.323.254-4.967 1.829-6.737 1.574-1.77 4.11-2.792 6.479-2.599 3.487.279 6.724-1.898 7.766-5.249 1.324-4.259 5.845-7.54 10.311-7.415 4.458.1 8.835 3.557 9.966 7.87.548 2.088 1.968 3.839 3.899 4.805 1.931.967 4.184 1.054 6.183.24 2.046-.834 3.838-.815 5.328.051 2.074 1.207 3.537 3.986 4.013 7.624.538 4.107 4.302 7.004 8.41 6.463 4.107-.538 7-4.303 6.463-8.41-1.083-8.284-5.217-15.078-11.34-18.642z"/></g><path d="m453.029 382.712h-394.058c-19.854 0-38.859-7.908-52.673-21.916l-5.338-5.413c-2.08-2.109-.558-5.637 2.43-5.637h505.219c2.989 0 4.51 3.528 2.43 5.637l-5.338 5.413c-13.813 14.009-32.819 21.916-52.672 21.916z" fill="#b6dbe0"/><path d="m508.609 349.746h-30.905c2.989 0 4.51 3.528 2.43 5.637l-5.338 5.413c-13.814 14.008-32.819 21.916-52.673 21.916h30.905c19.853 0 38.859-7.908 52.673-21.916l5.338-5.413c2.08-2.108.559-5.637-2.43-5.637z" fill="#9ec6d0"/></g></svg>