<svg id="Layer_1" enable-background="new 0 0 256 256" height="512" viewBox="0 0 256 256" width="512" xmlns="http://www.w3.org/2000/svg"><g><path d="m214.996 101.204h-1.772c-.464 4.748-1.142 9.418-2.023 14h3.795c12.73 0 23.088 10.357 23.088 23.088s-10.357 23.087-23.088 23.087h-21.131c-2.915 4.92-6.105 9.597-9.548 14h30.679c20.45 0 37.088-16.637 37.088-37.087s-16.638-37.088-37.088-37.088z" fill="#f2ad97"/><path d="m238.59 109.698c5.303 6.416 8.494 14.639 8.494 23.594 0 20.45-16.638 37.087-37.088 37.087h-21.967c-1.203 1.702-2.439 3.372-3.713 5h30.679c20.45 0 37.088-16.637 37.088-37.087.001-11.495-5.257-21.786-13.493-28.594z" fill="#e59076"/><g><path d="m20.737 94.39c2.69 50.284 29.336 92.953 66.72 112.522h59.579c37.384-19.569 64.031-62.239 66.721-112.522.153-2.858-2.14-5.258-5.001-5.258h-183.018c-2.862 0-5.154 2.4-5.001 5.258z" fill="#fcc4ae"/></g><g><path d="m46.229 161.077c-.679 0-1.341-.346-1.716-.969-10.013-16.644-16.568-36.111-18.956-56.296-.13-1.097.654-2.091 1.751-2.221 1.089-.123 2.092.654 2.222 1.751 2.321 19.626 8.688 38.542 18.411 54.704.569.947.264 2.176-.683 2.745-.322.193-.678.286-1.029.286zm-19.413-63.467c-1.049 0-1.93-.817-1.994-1.877l-.029-.479c-.067-1.103.771-2.051 1.874-2.118 1.096-.074 2.052.772 2.118 1.874l.029.478c.067 1.103-.771 2.051-1.874 2.119-.041.002-.083.003-.124.003z" fill="#ffd2c0"/></g><g><path d="m208.755 89.132h-5.326c-4.016 47.718-29.655 87.993-65.28 107.189-.729.393-1.548.592-2.376.592h-57.054c-.829 0-1.649-.199-2.379-.593-7.486-4.035-14.526-9.01-21.023-14.78 9.328 10.48 20.18 19.113 32.138 25.373h59.579c37.384-19.569 64.031-62.239 66.721-112.522.154-2.859-2.138-5.259-5-5.259z" fill="#f2ad97"/></g><g><path d="m208.757 89.132c0 .086.004.171 0 .258-2.663 49.782-28.808 92.102-65.606 111.93-.73.393-1.549.592-2.378.592h-57.054c-.828 0-1.647-.199-2.375-.592-8.494-4.578-16.413-10.367-23.615-17.156 8.772 9.299 18.785 17.02 29.728 22.748h59.579c37.384-19.569 64.031-62.239 66.721-112.522.152-2.857-2.139-5.257-5-5.258z" fill="#e59076"/></g><g><path d="m202.721 233.96h-170.948c-10.648 0-20.253-6.403-24.349-16.232l-3.353-8.046c-.549-1.317.419-2.769 1.846-2.769h222.657c1.427 0 2.395 1.452 1.846 2.769l-3.353 8.047c-4.095 9.829-13.698 16.231-24.346 16.231z" fill="#fcc4ae"/></g><g><path d="m200.72 233.96h-166.947v4.006c0 2.761 2.239 4.999 5 4.999h156.947c2.761 0 5-2.239 5-5z" fill="#e59076"/></g><g><path d="m228.575 206.913h-4.083l-2.424 5.816c-4.096 9.829-13.699 16.231-24.347 16.231h-170.948c-5.891 0-11.458-1.967-15.954-5.383 4.914 6.436 12.606 10.383 20.954 10.383h170.948c10.648 0 20.251-6.402 24.347-16.231l3.353-8.047c.549-1.317-.419-2.769-1.846-2.769z" fill="#f2ad97"/></g><g><g><g><path d="m69.338 15.436 8.18 39.904c.191.93 1.009 1.598 1.959 1.598h143.4v-43.903h-151.58c-1.266 0-2.213 1.161-1.959 2.401z" fill="#f79219"/></g><g><path d="m217.878 13.035v33.904c0 2.761-2.239 5-5 5h-136.057l.697 3.402c.191.93 1.009 1.598 1.959 1.598h143.4v-43.904z" fill="#ef7816"/></g><g><g><path d="m192.193 46.41h-63.547c-2.761 0-5-2.239-5-5v-10.53c0-2.761 2.239-5 5-5h63.547c2.761 0 5 2.239 5 5v10.53c0 2.761-2.238 5-5 5z" fill="#ffa91a"/></g><g><g><g><g><ellipse cx="130.332" cy="34.062" fill="#8c3f0a" rx="11.808" ry="16.605"/></g></g><g><path d="m136.16 19.622c2.473 3.044 4.037 7.512 4.037 12.497 0 9.171-5.287 16.605-11.808 16.605-2.12 0-4.109-.79-5.829-2.166 2.077 2.556 4.794 4.108 7.771 4.108 6.522 0 11.808-7.435 11.808-16.605.001-6.188-2.409-11.583-5.979-14.439z" fill="#7c3108"/></g><g><path d="m130.332 17.456c-.465 0-.924.039-1.375.113-2.29 6.703-1.099 13.518-.031 19.613.92 5.251 1.73 9.878.201 13.4.397.057.799.086 1.206.086.605 0 1.199-.064 1.78-.188 1.245-4.038.411-8.799-.461-13.775-1.106-6.311-2.245-12.822.24-19.104-.511-.095-1.032-.145-1.56-.145z" fill="#995222"/></g></g><g><g><g><ellipse cx="111.056" cy="39.152" fill="#7c3108" rx="13.277" ry="9.441" transform="matrix(.708 -.706 .706 .708 4.77 89.844)"/></g></g><g><path d="m120.458 29.777c-.332-.333-.694-.625-1.079-.879 2.568 3.891 1.133 10.279-3.598 14.997-4.724 4.71-11.104 6.131-14.989 3.568.25.379.536.735.863 1.063 3.682 3.692 10.876 2.488 16.068-2.689s6.417-12.368 2.735-16.06z" fill="#6d2e03"/></g><g><path d="m120.458 29.777c-.263-.263-.544-.501-.84-.715-5.088 2.487-8.274 7.009-11.122 11.055-2.454 3.485-4.616 6.556-7.473 7.678.192.256.403.501.632.731.342.343.714.643 1.111.902 2.989-1.575 5.214-4.734 7.539-8.037 2.949-4.189 5.992-8.51 10.952-10.649-.235-.343-.501-.666-.799-.965z" fill="#8c3f0a"/></g></g></g></g><g><path d="m222.877 13.035v43.904h13.955c1.381 0 1.832-1.853.606-2.488l-3.92-2.031c-.864-.447-.962-1.644-.182-2.226l4.247-3.172c.706-.527.706-1.585 0-2.112l-4.519-3.376c-.706-.527-.706-1.585 0-2.112l4.518-3.375c.706-.527.706-1.585 0-2.112l-4.519-3.377c-.706-.527-.706-1.585 0-2.112l4.52-3.377c.705-.527.705-1.585 0-2.112l-4.248-3.174c-.779-.582-.681-1.779.182-2.226l3.922-2.033c1.226-.635.774-2.488-.607-2.488h-13.955z" fill="#7c3108"/></g><g><path d="m237.439 54.45-3.92-2.031c-.864-.448-.962-1.644-.182-2.226l4.247-3.172c.706-.527.706-1.585 0-2.112l-4.519-3.376c-.706-.527-.705-1.585 0-2.112l4.518-3.375c.706-.527.706-1.585 0-2.112l-4.519-3.377c-.706-.527-.706-1.584 0-2.112l4.52-3.377c.705-.527.705-1.585 0-2.112l-4.248-3.174c-.779-.582-.681-1.779.182-2.226l3.922-2.033c1.226-.635.774-2.488-.607-2.488h-5c1.381 0 1.832 1.853.607 2.488l-3.922 2.033c-.864.448-.962 1.644-.182 2.226l4.248 3.174c.706.527.706 1.585 0 2.112l-4.52 3.377c-.705.527-.705 1.585 0 2.112l4.519 3.377c.706.527.706 1.585 0 2.112l-4.518 3.375c-.706.527-.706 1.585 0 2.112l4.519 3.376c.706.527.706 1.585 0 2.112l-4.247 3.172c-.576.43-.67 1.195-.332 1.746h-5.127v5h13.955c1.38-.001 1.832-1.854.606-2.489z" fill="#6d2e03"/></g></g><g><g><path d="m49.482 14.633 8.18 39.904c.254 1.24-.693 2.402-1.959 2.402h-22.58v-43.904h14.4c.949 0 1.768.668 1.959 1.598z" fill="#f79219"/></g><g><path d="m57.662 54.537-8.18-39.904c-.191-.93-1.01-1.598-1.959-1.598h-2.343l7.483 36.502c.254 1.24-.693 2.402-1.959 2.402h-17.58v5h22.58c1.265-.001 2.212-1.162 1.958-2.402z" fill="#ef7816"/></g><g><path d="m33.123 13.035v43.904h-13.956c-1.381 0-1.832-1.853-.606-2.488l3.92-2.031c.864-.447.962-1.644.182-2.226l-4.247-3.172c-.706-.527-.706-1.585 0-2.112l4.519-3.376c.706-.527.706-1.585 0-2.112l-4.518-3.375c-.706-.527-.706-1.585 0-2.112l4.519-3.377c.705-.527.706-1.585 0-2.112l-4.52-3.377c-.705-.527-.705-1.585 0-2.112l4.248-3.174c.779-.582.681-1.779-.182-2.226l-3.922-2.033c-1.226-.635-.774-2.488.607-2.488h13.956z" fill="#7c3108"/></g><g><path d="m18.561 54.45 3.92-2.031c.864-.448.962-1.644.182-2.226l-4.247-3.172c-.706-.527-.706-1.585 0-2.112l4.519-3.376c.706-.527.705-1.585 0-2.112l-4.518-3.375c-.706-.527-.706-1.585 0-2.112l4.519-3.377c.706-.527.706-1.584 0-2.112l-4.52-3.377c-.705-.527-.705-1.585 0-2.112l4.248-3.174c.779-.582.681-1.779-.182-2.226l-3.922-2.033c-1.226-.635-.774-2.488.607-2.488h5c-1.381 0-1.832 1.853-.607 2.488l3.922 2.033c.864.448.962 1.644.182 2.226l-4.248 3.174c-.706.527-.706 1.585 0 2.112l4.52 3.377c.705.527.705 1.585 0 2.112l-4.519 3.377c-.706.527-.706 1.585 0 2.112l4.518 3.375c.706.527.706 1.585 0 2.112l-4.519 3.376c-.706.527-.706 1.585 0 2.112l4.247 3.172c.576.43.67 1.195.332 1.746h5.127v5h-13.955c-1.38-.001-1.832-1.854-.606-2.489z" fill="#6d2e03"/></g></g><g><g><circle cx="61.724" cy="28.898" fill="#8c3f0a" r="3.648"/></g><g><circle cx="69.019" cy="47.357" fill="#8c3f0a" r="3.648"/></g><g><circle cx="62.683" cy="65.241" fill="#8c3f0a" r="2.736"/></g><g><circle cx="77.315" cy="67.978" fill="#8c3f0a" r="3.648"/></g><g><circle cx="63.748" cy="54.238" fill="#8c3f0a" r="2.024"/></g><g><circle cx="68.067" cy="36.155" fill="#8c3f0a" r="2.629"/></g><g><circle cx="73.325" cy="59.032" fill="#8c3f0a" r="2.629"/></g><g><circle cx="66.372" cy="77.359" fill="#8c3f0a" r="3.648"/></g></g></g></g></svg>