<?xml version="1.0" encoding="iso-8859-1"?>
<!-- Generator: Adobe Illustrator 19.0.0, SVG Export Plug-In . SVG Version: 6.00 Build 0)  -->
<svg version="1.1" id="Capa_1" xmlns="http://www.w3.org/2000/svg" xmlns:xlink="http://www.w3.org/1999/xlink" x="0px" y="0px"
	 viewBox="0 0 512.002 512.002" style="enable-background:new 0 0 512.002 512.002;" xml:space="preserve">
<path style="fill:#E93234;" d="M422.414,152.28c-1.921-1.422-4.402-1.847-6.685-1.139c-3.98,1.231-8.107,1.855-12.264,1.855
	c-12.351,0-23.907-5.433-30.912-14.532c-1.424-1.85-3.624-2.933-5.954-2.933c-2.331,0-4.53,1.083-5.954,2.934
	c-7.005,9.099-18.561,14.532-30.912,14.532s-23.906-5.433-30.912-14.532c-1.424-1.85-3.624-2.933-5.954-2.933
	c-2.33,0-4.53,1.083-5.954,2.933c-7.006,9.099-18.561,14.532-30.912,14.532c-12.351,0-23.906-5.433-30.912-14.532
	c-1.424-1.851-3.624-2.933-5.954-2.933c-2.33,0-4.53,1.083-5.954,2.933c-7.006,9.099-18.561,14.532-30.912,14.532
	s-23.906-5.433-30.912-14.532c-1.424-1.851-3.623-2.934-5.954-2.934c-2.33,0-4.53,1.083-5.954,2.933
	c-7.006,9.099-18.561,14.532-30.912,14.532c-4.158,0-8.283-0.624-12.265-1.856c-2.28-0.705-4.762-0.283-6.684,1.141
	c-1.922,1.422-3.055,3.676-3.055,6.072V478.86c0,18.274,14.821,33.141,33.039,33.141h272.86c18.217,0,33.039-14.867,33.039-33.141
	V158.352C425.469,155.955,424.335,153.703,422.414,152.28z"/>
<path style="fill:#CE131C;" d="M422.414,152.28c-1.921-1.423-4.402-1.847-6.685-1.139c-3.98,1.231-8.107,1.855-12.264,1.855
	c-7.856,0-15.384-2.205-21.632-6.146v332.012c0,18.274-14.821,33.141-33.039,33.141h43.634c18.217,0,33.039-14.867,33.039-33.141
	V158.352C425.469,155.955,424.335,153.703,422.414,152.28z"/>
<rect x="86.537" y="217.318" style="fill:#F9ECD4;" width="338.942" height="216.275"/>
<path style="fill:#E93234;" d="M256.001,271.475c-32.824,0-51.649,14.084-51.649,38.643c0,13.014,5.554,32.125,13.82,47.552
	c10.693,19.955,24.127,30.946,37.828,30.946c13.702,0,27.136-10.991,37.828-30.946c8.266-15.428,13.82-34.538,13.82-47.552
	C307.65,285.559,288.825,271.475,256.001,271.475z"/>
<path style="fill:#CE131C;" d="M256.001,271.475c-5.822,0-11.193,0.451-16.107,1.318c22.793,4.016,35.542,17.123,35.542,37.326
	c0,13.014-5.554,32.125-13.82,47.552c-6.429,11.998-13.849,20.75-21.722,25.825c5.222,3.367,10.643,5.12,16.107,5.12
	c13.702,0,27.136-10.991,37.828-30.946c8.266-15.428,13.82-34.538,13.82-47.552C307.65,285.559,288.825,271.475,256.001,271.475z"/>
<rect x="381.835" y="217.318" style="fill:#F7E0BA;" width="43.634" height="216.275"/>
<path style="fill:#8ACC19;" d="M297.576,269.872c-12.745-7.633-25.298-6.213-34.052-3.365v-14.353c0-4.168-3.368-7.546-7.523-7.546
	c-4.155,0-7.523,3.378-7.523,7.546v14.353c-8.754-2.848-21.306-4.267-34.052,3.365c-3.568,2.137-4.733,6.77-2.603,10.348
	c2.13,3.579,6.748,4.748,10.316,2.611c7.024-4.206,14.12-3.972,19.606-2.596c-10.632,10.081-14.998,22.078-15.227,22.722
	c-1.39,3.916,0.642,8.207,4.54,9.618c0.84,0.304,1.698,0.447,2.543,0.447c3.075,0,5.966-1.91,7.082-4.973
	c0.049-0.135,4.592-12.338,15.318-20.11c10.654,7.719,15.208,19.808,15.317,20.105c1.103,3.076,3.994,4.993,7.079,4.993
	c0.838,0,1.69-0.141,2.525-0.439c3.914-1.398,5.956-5.715,4.562-9.641c-0.229-0.644-4.595-12.641-15.226-22.722
	c5.485-1.377,12.583-1.611,19.604,2.595c3.567,2.136,8.185,0.967,10.317-2.61C302.308,276.641,301.143,272.008,297.576,269.872z"/>
<path style="fill:#E93234;" d="M398.156,55.534h-284.31c-4.155,0-7.523,3.378-7.523,7.546v27.698c0,4.168,3.368,7.546,7.523,7.546
	h284.31c4.155,0,7.523-3.378,7.523-7.546v-3.016V63.08C405.679,58.912,402.311,55.534,398.156,55.534z"/>
<path style="fill:#CE131C;" d="M398.156,55.534h-36.111v42.791h36.111c4.155,0,7.523-3.378,7.523-7.546v-3.016V63.08
	C405.679,58.912,402.311,55.534,398.156,55.534z"/>
<path style="fill:#FFD039;" d="M450.161,134.142c-0.686-1.167-1.657-2.104-2.796-2.745l-41.667-43.615l-0.019,0.009H106.323l0,0
	l-41.627,43.573c-1.164,0.642-2.157,1.592-2.854,2.779c-1.352,2.301-1.391,5.149-0.102,7.486
	c9.003,16.32,26.934,26.458,46.796,26.458c13.888,0,27.124-5.102,36.866-13.949c9.741,8.847,22.979,13.949,36.866,13.949
	c13.888,0,27.125-5.101,36.866-13.949c9.741,8.847,22.979,13.949,36.866,13.949s27.124-5.102,36.866-13.949
	c9.742,8.847,22.979,13.949,36.866,13.949s27.125-5.102,36.866-13.949c9.741,8.847,22.979,13.949,36.865,13.949
	c19.862,0,37.793-10.138,46.796-26.458C451.551,139.291,451.513,136.443,450.161,134.142z"/>
<path style="fill:#FFAE47;" d="M450.262,141.629c1.289-2.337,1.25-5.185-0.102-7.486c-0.686-1.167-1.657-2.104-2.796-2.745
	l-41.666-43.616l-0.019,0.009H362.03l66.762,74.329C437.836,157.536,445.369,150.499,450.262,141.629z"/>
<path style="fill:#FFD039;" d="M111.373,70.627h289.256c13.697,0,24.84-11.177,24.84-24.917V24.918
	C425.47,11.178,414.327,0,400.629,0H111.373C97.676,0,86.532,11.178,86.532,24.918V45.71
	C86.532,59.449,97.676,70.627,111.373,70.627z"/>
<path style="fill:#FFAE47;" d="M400.629,0h-41.608c13.697,0,24.84,11.178,24.84,24.918V45.71c0,13.739-11.143,24.917-24.84,24.917
	h41.608c13.697,0,24.84-11.177,24.84-24.917V24.918C425.47,11.178,414.327,0,400.629,0z"/>
<g>
</g>
<g>
</g>
<g>
</g>
<g>
</g>
<g>
</g>
<g>
</g>
<g>
</g>
<g>
</g>
<g>
</g>
<g>
</g>
<g>
</g>
<g>
</g>
<g>
</g>
<g>
</g>
<g>
</g>
</svg>
