<svg id="Capa_1" enable-background="new 0 0 497 497" height="512" viewBox="0 0 497 497" width="512" xmlns="http://www.w3.org/2000/svg"><g id="_x3C_Group_x3E__12_"><path d="m48.955 483.674c13.438 11.626 33.652 11.936 47.401.679 4.97-4.069 8.58-5.086 10.831-10.532 3.924-9.496 3.715-20.296-.623-29.656-2.028-4.376-1.206-9.538 2.204-12.949l18.207-18.207 7.376-44.147-12.373-10.759-38.365 11.496-18.232 18.232c-3.41 3.41-8.573 4.232-12.949 2.204-9.359-4.338-20.16-4.547-29.656-.623-5.446 2.251-6.463 5.861-10.532 10.831-11.257 13.749-10.947 33.963.679 47.401 6.128 7.083 15.241 8.223 23.694 9.436 2.554.367 4.533 2.346 4.9 4.9 1.215 8.453.355 15.566 7.438 21.694z" fill="#ffe8c8"/><path d="m68.955 467.674c-7.083-6.128-11.223-14.241-12.436-22.694-.367-2.554-2.346-4.533-4.9-4.9-8.453-1.213-16.566-5.353-22.694-12.436-9.239-10.678-11.323-25.633-6.145-38.225-5.446 2.251-10.465 5.854-14.535 10.824-11.257 13.749-10.947 33.963.679 47.401 6.128 7.083 14.241 11.223 22.694 12.436 2.554.367 4.534 2.346 4.9 4.9 1.213 8.453 5.353 16.566 12.436 22.694 13.438 11.626 33.652 11.936 47.401.679 4.97-4.069 8.574-9.088 10.824-14.534-12.591 5.178-27.546 3.093-38.224-6.145z" fill="#fdd9b4"/><path d="m166.908 391.71 20.905.118 12.4-6.387c17.043-8.777 36.292-12.344 55.348-10.256 56.442 6.185 112.697-7.747 159.26-38.455 13.492-8.898 7.247-24.617 18.881-36.251l7.371-27.18-228.302-187.161-32.675 3.272c-51.784 51.784-48.535 116.194-45.745 145.834v13.256c2.088 19.056-5.18 44.255-13.957 61.298l-6.638 18.83c-4.977 9.663-10.75 7.186-3.064 14.872l42.894 39.628c7.685 7.686 3.659 13.559 13.322 8.582z" fill="#d77f4a"/><path d="m107.607 345.606-23.993 23.993c.194.208.375.424.577.626l42.784 42.784 24.017-24.017z" fill="#fdd9b4"/><path d="m211.013 32.03-3.379-3.379-16.124 16.124c-51.784 51.783-77.271 124.268-69.294 197.065 2.088 19.056-1.479 38.305-10.256 55.348l-12.317 23.916c-4.977 9.663-3.139 21.435 4.547 29.121l42.986 42.986c7.686 7.686 19.458 9.524 29.121 4.547l11.515-5.931c-3.17-1.229-6.123-3.104-8.636-5.617l-40.404-40.404c-9.224-9.224-11.43-23.352-5.457-34.949l10.645-20.669c8.777-17.043 7.344-42.292 5.256-61.348-1.225-11.18-1.481-22.078-.849-32.706.926-15.571 22.01-19.65 28.569-5.497 12.092 26.092 30.191 51.955 54.032 75.796 56.528 56.528 128.495 81.899 183.845 70.285 13.493-8.898 26.179-19.192 37.813-30.827l16.124-16.124z" fill="#c86d36"/><path d="m428.579 68.823c-72.105-72.106-171.026-90.091-220.945-40.172s3.332 176.321 47.568 214.719c57.702 50.088 163.63 96.317 213.549 46.398 49.919-49.92 31.934-148.84-40.172-220.945z" fill="#ffe8c8"/><path d="m261.806 234.596c-67.499-67.5-87.568-158.495-48.906-210.796-1.808 1.541-3.568 3.153-5.265 4.851-49.919 49.919-31.934 148.84 40.172 220.945s171.026 90.091 220.945 40.172c3.189-3.189 6.096-6.58 8.735-10.149-51.358 43.774-146.028 24.63-215.681-45.023z" fill="#fdd9b4"/><path d="m227.287 129.604c14.452 1.519 8.209-3.802 15.66.62 13.5 8.013 26.578 21.077 52.766 23.83 20.32 2.136 31.737 9.609 42.477 5.156l.002-.002c6.283 8.773 23.637 10.083 25.946 28.888 3.068 24.99-.729 45.811-5.106 60.404-2.211 7.37-7.337 3.571-5.787 16.191 0 0-55.52-24.676-77.277-46.433-27.977-27.976-48.681-88.654-48.681-88.654z" fill="#e03c3e"/><path d="m458.954 183.066c-40.641-4.272-25.919-6.018-66.561-10.289-20.321-2.136-43.463-18.021-54.203-13.567l.002-.002c-6.283-8.773-25.653-24.136-27.962-42.941-4.618-37.609 17.316-41.824 24.365-71.146 23.831 9.882 48.125 26.05 69.881 47.805 27.977 27.977 46.713 60.152 54.724 90.14z" fill="#e03c3e"/><g fill="#c42430"><path d="m343.737 244.641c-17.859-9.728-35.554-22.874-51.828-39.148-18.884-18.884-33.551-39.681-43.558-60.427-4.196-2.49-8.888-14.775-14.769-16.567-4.562-1.39-9.838 7.516-16.152 6.853h-.246c8.011 29.988 26.748 62.164 54.724 90.14 21.756 21.756 46.052 37.925 69.884 47.807l-.003-.001c-.747-6.08 9.165-11.242 9.521-15.783.384-4.886-8.719-9.054-7.573-12.874z"/><path d="m458.954 183.066c-40.641-4.272-38.32-26.356-78.962-30.627-20.321-2.136-31.062 2.317-41.802 6.771l.002-.002c6.283 8.773 12.566 17.546 14.875 36.351 3.068 24.99-4.958 34.488-9.336 49.08-2.211 7.37 3.538 7.773 5.088 20.393 0 0 66.131 17.274 89.191-5.787 13.979-13.979 26.635-27.478 25.46-50.036-.438-8.405-1.874-17.176-4.27-26.143z"/><path d="m220.479 130.819c14.452 1.519 20.423 9.824 27.873 14.246 13.5 8.013 21.849 18.162 48.037 20.914 20.32 2.136 31.061-2.317 41.802-6.77l.002-.002c-6.283-8.773-12.566-17.546-14.875-36.351-4.618-37.609 15.895-40.127 11.278-77.736-7.156-2.967-14.27-5.368-21.261-7.183-32.644-8.474-56.755-.155-75.749 18.839-19.188 19.188-26.442 38.689-17.617 71.721z"/></g><g fill="#a81f2a"><path d="m338.192 159.208-.002.001.003-.001z"/><path d="m446.383 236.926c-23.021 23.021-62.151 24.449-102.647 7.718-2.211 7.37-3.496 16.032-1.946 28.654l.003.001c40.57 16.822 79.794 15.426 102.855-7.635 14.719-14.719 20.602-36.025 18.566-60.06-2.788 12.139-8.337 22.828-16.831 31.322z"/></g><g><path d="m252.249 66.458c13.514-18.455 36.519-27.579 63.77-27.792-33.682-9.422-64.768-5.425-84.282 14.089-19.188 19.188-23.377 49.566-14.553 82.599h.246c14.414 1.515 23.422 5.272 30.86 9.678-11.57-29.444-11.17-57.914 3.959-78.574z" fill="#a81f2a"/></g><path d="m326.181 170.908c-14.495-14.495-20.72-26.681-11.845-35.556 2.71-2.71 3.97-6.556 8.145-6.861 9.496-.693 21.712 4.58 31.78 14.649 9.965 9.965 15.233 22.034 14.668 31.487-.257 4.297-7.295 3.546-10.068 6.319-8.874 8.875-18.185 4.457-32.68-10.038z" fill="#ffe8c8"/><path d="m337.124 160.278c-10.069-10.069-15.336-22.283-14.642-31.78-4.174.305-7.825 1.756-10.534 4.466-8.875 8.875-4.318 27.819 10.177 42.314s33.44 19.051 42.314 10.177c2.71-2.709 4.161-6.361 4.466-10.534-9.498.693-21.712-4.574-31.781-14.643z" fill="#fdd9b4"/></g></svg>