<svg id="Capa_1" enable-background="new 0 0 497 497" viewBox="0 0 497 497" xmlns="http://www.w3.org/2000/svg"><g><path d="m400.261 45v15h-124.3v-60h42.419c8.071 0 15.801 3.252 21.445 9.021l17.547 17.936c11.287 11.539 26.748 18.043 42.889 18.043z" fill="#a4c6db"/><path d="m314.953 26.958c11.287 11.538 26.748 18.042 42.89 18.042v15h-261.104v-15c16.142 0 31.602-6.504 42.89-18.042l17.546-17.936c5.644-5.77 13.374-9.022 21.445-9.022h97.341c8.071 0 15.801 3.252 21.445 9.021z" fill="#b7dced"/><path d="m430.261 75h-30v-30h30c8.284 0 15 6.716 15 15s-6.715 15-15 15z" fill="#b6ecfa"/><path d="m415.261 60c0 8.284-6.716 15-15 15h-333.522c-8.284 0-15-6.716-15-15s6.716-15 15-15h333.523c8.284 0 14.999 6.716 14.999 15z" fill="#d9f4fa"/><path d="m293.5 407v90h30c33.137 0 60-26.863 60-60v-30z" fill="#81e2fc"/><path d="m353.5 437v-30h-240v30c0 33.137 26.863 60 60 60h120c33.137 0 60-26.863 60-60z" fill="#b6ecfa"/><path d="m286 105-22.5 120h60v-112.5c0-4.142-3.358-7.5-7.5-7.5z" fill="#81e2fc"/><path d="m173.5 112.5v112.5h120v-112.5c0-4.142-3.358-7.5-7.5-7.5h-105c-4.142 0-7.5 3.358-7.5 7.5z" fill="#b6ecfa"/><path d="m323.5 135h-30v30h30c8.284 0 15-6.716 15-15s-6.716-15-15-15z" fill="#b6ecfa"/><path d="m308.5 150c0-8.284-6.716-15-15-15h-120c-8.284 0-15 6.716-15 15s6.716 15 15 15h120c8.284 0 15-6.716 15-15z" fill="#d9f4fa"/><path d="m323.5 195h-30v212l54.684 54.684c20.82-9.414 35.316-30.349 35.316-54.684v-152c0-33.137-26.863-60-60-60z" fill="#b6ecfa"/><path d="m293.5 195h-120c-33.137 0-60 26.863-60 60v152c0 33.137 26.863 60 60 60h150c8.802 0 17.153-1.911 24.684-5.316 3.405-7.531 5.316-15.882 5.316-24.684v-30l-30-76 30-67.252v-8.748c0-33.137-26.863-60-60-60z" fill="#d9f4fa"/><path d="m318.502 266.667c-17.5 0-17.5-11.667-34.999-11.667-17.501 0-17.501 11.667-35.003 11.667s-17.501-11.667-35.003-11.667c-17.499 0-17.499 11.667-34.998 11.667-13.248 0-16.467-6.686-24.841-9.935-4.891-1.897-10.158 1.771-10.158 7.017v143.251c0 16.569 13.431 30 30 30h150c16.569 0 30-13.431 30-30v-143.252c0-5.246-5.267-8.914-10.158-7.017-8.374 3.249-11.593 9.936-24.84 9.936z" fill="#ffe2a1"/><path d="m284.165 322.578c-2.575-7.924-9.927-12.958-17.832-12.957-2.442-7.518-9.501-12.955-17.833-12.955s-15.391 5.437-17.833 12.955c-7.905-.001-15.257 5.032-17.832 12.957-2.575 7.926.416 16.322 6.815 20.967-2.442 7.517.067 16.062 6.807 20.959 6.742 4.898 15.647 4.643 22.042-.006 6.395 4.649 15.3 4.904 22.042.006 6.74-4.897 9.25-13.442 6.807-20.959 6.401-4.644 9.392-13.04 6.817-20.967z" fill="#fff"/><circle cx="248.5" cy="334.167" fill="#ffb466" r="7.5"/></g><g/><g/><g/><g/><g/><g/><g/><g/><g/><g/><g/><g/><g/><g/><g/></svg>