<svg id="Layer_1" enable-background="new 0 0 461.72 461.72" height="512" viewBox="0 0 461.72 461.72" width="512" xmlns="http://www.w3.org/2000/svg"><path d="m416.69 391.77c-72.82-.63-23.5-194.75-67.17-210.69h-237.32c-43.67 15.94 5.65 210.06-67.17 210.69-25.45.23-27.54 37.93-2.15 40.89 19.53 2.27 40.84 1.75 56.35-7.34-7 18.99 18.03 37.42 32.95 19.69 34.42-40.88 35.5-86.052 41.8-142.443 4.06 50.3 13.66 90.443-7.81 130.573-11.4 21.31 19.64 40.25 33.25 19.83 46.09-69.21-8.69-135.944 22.29-252.074h18.3c30.98 116.13-23.8 182.864 22.29 252.074 13.61 20.42 44.65 1.48 33.25-19.83-21.47-40.13-11.87-80.273-7.81-130.573 6.3 56.39 7.38 101.563 41.8 142.442 14.92 17.73 39.95-.7 32.95-19.69 15.51 9.09 36.82 9.61 56.35 7.34 25.39-2.959 23.3-40.659-2.15-40.889z" fill="#cbe3fa"/><g fill="#eef7ff"><path d="m288.24 458.73c-8.03 4.82-19.15 4.43-25.94-5.76-46.09-69.21 8.69-135.944-22.29-252.074 5.62-.91 11.03-2.686 15.82-5.306 2.18-1.19 4.48-2.21 6.87-3.05 24.93 117.91-25.03 187.58 19.6 259.76 1.74 2.81 3.76 4.93 5.94 6.43z"/><path d="m186.17 433.14c-5.75 10.76-.7 20.91 7.48 25.69-14.9 9.81-37.46-7.03-27.48-25.69 35.335-66.046-13.498-132.109 16.75-243.57 6.57.23 13.09 1.59 18.93 4.07-27.997 108.976 19.225 174.258-15.68 239.5z"/><path d="m124.84 196.31c-30.44 35.02 8.3 204.87-59.81 205.46-18.11.16-24.39 19.29-17.36 31.38-1.6-.14-3.2-.31-4.79-.49-25.39-2.96-23.3-40.66 2.15-40.89 72.82-.63 23.5-194.75 67.17-210.69 2.33 6.35 6.85 11.78 12.64 15.23z"/></g><path d="m329.54 445.01c-34.42-40.88-35.5-86.052-41.8-142.442 2.62-32.5 2.93-69.257-8.94-112.997 9.47-.33 19.06 1.68 26.98 6.02 4.492 2.456 9.701 4.375 14.84 4.7 28.41 95.26-.79 162.13 39.22 219.98 14.189 20.427-14.037 44.065-30.3 24.739z" fill="#9ec7f0"/><path d="m155.94 195.59c7.92-4.34 17.51-6.35 26.98-6.02-11.87 43.74-11.56 80.497-8.94 112.997-6.3 56.39-7.38 101.563-41.8 142.443-16.268 19.332-44.483-4.321-30.3-24.74 40.01-57.85 10.81-124.72 39.22-219.98 5.135-.325 10.344-2.242 14.84-4.7z" fill="#9ec7f0"/><path d="m127.85 449c-16.435 11.409-38.933-10.07-25.97-28.73 40.01-57.85 10.81-124.72 39.22-219.98 8.35-.529 14.5-4.744 18.16-6.33-25.28 96.62 1.72 165.17-37.38 224.65-7.361 11.167-3.483 24.155 5.97 30.39z" fill="#b5d5f5"/><path d="m347.78 124.763v33.007c12.346 23.398-10.375 49.4-34.88 40.95-2.48-.86-4.87-1.9-7.12-3.13-14.755-8.086-35.256-8.06-49.95 0-14.73 8.057-35.204 8.06-49.94 0-14.694-8.06-35.194-8.086-49.95 0-4.492 2.455-9.701 4.375-14.84 4.7-21.386 1.384-38.128-21.733-27.16-42.52v-33.007z" fill="#80aaff"/><path d="m154.71 196.23c-28.743 14.676-53.515-14.306-40.77-38.46h30c-7.647 14.493-1.925 30.803 10.77 38.46z" fill="#9cbcff"/><path d="m375.8 129.52c2.22 14.73-7.42 28.25-20.22 28.25h-249.4c-12.8 0-22.45-13.52-20.22-28.25 12.61-83.56 80.67-129.52 144.92-129.52 64.24 0 132.31 45.96 144.92 129.52z" fill="#9cbcff"/><path d="m307.81 22.66c-106.765-21.133-179.46 83.601-171.88 135.11h-29.75c-12.8 0-22.45-13.52-20.22-28.25 12.61-83.56 80.67-129.52 144.92-129.52 26.37 0 53.38 7.74 76.93 22.66z" fill="#c2d6ff"/><path d="m143.676 110.602c-5.739 0-9.638-5.912-7.328-11.203 12.966-29.691 38.285-51.354 69.465-59.434 4.277-1.113 8.643 1.46 9.751 5.737s-1.46 8.643-5.737 9.751c-26.392 6.839-47.829 25.189-58.815 50.348-1.314 3.007-4.253 4.801-7.336 4.801z" fill="#fff"/></svg>