<svg id="Capa_1" enable-background="new 0 0 512 512" viewBox="0 0 512 512" xmlns="http://www.w3.org/2000/svg"><g><g><g><g><path d="m411.717 360.509c29.459-6.32 54.578-21.84 72.992-42.904 20.27-23.186 9.149-59.587-20.643-67.392-15.354-4.022-31.901.577-42.398 12.482-6.957 7.89-16.412 13.701-27.487 16.077s-22.081.955-31.663-3.388c-14.088-6.384-30.504-4.709-42.541 5.003l-.764.616c-24.19 19.517-19.415 57.755 8.9 70.574 25.302 11.458 54.362 15.206 83.604 8.932z" fill="#68ca44"/></g><g><path d="m464.066 250.213c-8.006-2.097-16.328-1.83-23.956.574 14.136 14.698 16.296 39.007 1.331 56.125-18.414 21.064-43.533 36.584-72.992 42.904-12.918 2.772-25.801 3.584-38.34 2.643 24.829 10.762 53.132 14.159 81.608 8.049 29.459-6.32 54.578-21.84 72.992-42.904 20.27-23.185 9.149-59.586-20.643-67.391z" fill="#4fc123"/></g><g><path d="m164.06 271.284c28.945 8.363 58.418 6.566 84.604-3.285 28.825-10.844 36.24-48.176 13.681-69.142-11.626-10.805-28.381-14.578-43.261-9.052-9.861 3.662-20.94 4.311-31.822 1.167s-19.907-9.601-26.296-17.958c-9.394-12.287-24.65-18.575-39.849-15.71l-.965.182c-30.544 5.757-44.42 41.707-25.534 66.393 16.877 22.059 40.71 39.104 69.442 47.405z" fill="#ffe177"/></g><g><path d="m262.345 198.857c-3.755-3.49-8.049-6.233-12.638-8.179 1.165 17.282-8.489 34.86-26.801 41.749-26.186 9.851-55.658 11.647-84.604 3.285-19.583-5.658-36.884-15.384-51.264-27.984 1.263 5.617 3.73 11.119 7.58 16.151 16.877 22.06 40.71 39.104 69.441 47.405 28.945 8.363 58.418 6.566 84.604-3.285 28.826-10.844 36.241-48.176 13.682-69.142z" fill="#ffd15b"/></g><g><g><path d="m419.401 98.973c-16.832-24.989-40.587-42.526-66.992-51.775-29.065-10.182-58.71 13.689-54.864 44.246 1.982 15.748 12.411 29.394 27.368 34.705 9.913 3.52 18.826 10.132 25.154 19.526 6.328 9.395 9.106 20.139 8.642 30.648-.681 15.452 6.984 30.065 20.479 37.622l.857.48c27.119 15.186 60.831-3.479 62.19-34.531 1.213-27.75-6.126-56.117-22.834-80.921z" fill="#fe646f"/></g><g><g><path d="m419.401 98.973c-6.695-9.94-14.5-18.68-23.118-26.209 9.777 20.354 14.028 42.291 13.084 63.861-1.17 26.75-26.349 44.285-50.64 38.929-.007.256-.008.513-.019.769-.681 15.452 6.984 30.065 20.479 37.622l.857.48c27.119 15.186 60.831-3.479 62.19-34.531 1.214-27.75-6.125-56.117-22.833-80.921z" fill="#fd4755"/></g></g></g><g><g><path d="m21.878 384.937c8.014 29.044 24.962 53.223 47.056 70.387 24.32 18.894 60.016 5.686 66.084-24.508 3.127-15.561-2.422-31.814-14.915-41.605-8.28-6.489-14.628-15.591-17.641-26.51s-2.231-21.989 1.55-31.806c5.558-14.434 2.936-30.725-7.456-42.18l-.66-.727c-20.884-23.02-58.781-16.041-69.941 12.969-9.973 25.923-12.032 55.151-4.077 83.98z" fill="#62dbfb"/></g><g><g><path d="m120.104 389.211c-2.55-1.998-4.915-4.247-7.057-6.717-.138 1.687-.354 3.375-.692 5.055-6.068 30.194-41.764 43.402-66.084 24.508-8.583-6.668-16.376-14.406-23.183-23.065 8.43 27.237 24.792 49.975 45.847 66.332 24.32 18.894 60.016 5.686 66.084-24.508 3.126-15.561-2.423-31.814-14.915-41.605z" fill="#01d0fb"/></g></g></g><g><path d="m254.686 61.297c22.473-22.473 6.821-61.112-24.961-61.295-22.372-.129-44.783 8.341-61.853 25.41s-25.539 39.481-25.41 61.853c.183 31.781 38.822 47.434 61.295 24.961z" fill="#fe9738"/></g><g><path d="m254.686 18.326-50.928 50.928c-18.142 18.142-46.808 11.43-57.284-8.549-2.71 8.631-4.063 17.595-4.011 26.559.183 31.781 38.822 47.434 61.295 24.961l50.928-50.928c13.764-13.764 13.209-33.58 3.424-46.923-1.028 1.36-2.157 2.685-3.424 3.952z" fill="#fe860a"/></g><g><path d="m344.873 443.421c-27.427 16.058-22.056 57.4 8.646 65.616 21.612 5.783 45.437 3.257 66.268-8.94s34.695-31.738 40.228-53.415c7.861-30.794-25.563-55.711-52.989-39.652z" fill="#fe9738"/></g><g><path d="m439.542 405.076c.003 2.967-.363 6.03-1.161 9.155-5.534 21.677-19.397 41.218-40.228 53.414-20.831 12.197-44.657 14.723-66.268 8.94-1.673-.448-3.257-1.011-4.779-1.646.241 14.91 9.452 29.558 26.412 34.097 21.611 5.783 45.437 3.257 66.268-8.94s34.695-31.738 40.228-53.414c4.744-18.579-5.543-35.014-20.472-41.606z" fill="#fe860a"/></g><g><path d="m229.948 448.36c22.473 22.473 61.112 6.821 61.295-24.961.129-22.372-8.341-44.783-25.41-61.853s-39.481-25.539-61.853-25.41c-31.781.183-47.434 38.822-24.961 61.295z" fill="#6e61b6"/></g><g><path d="m265.833 361.547c-2.627-2.627-5.394-5.026-8.255-7.245 2.471 9.637 3.686 19.53 3.629 29.418-.166 28.761-24.03 47.576-48.671 47.229l17.412 17.411c22.473 22.473 61.112 6.821 61.295-24.96.129-22.372-8.341-44.784-25.41-61.853z" fill="#6354b1"/></g></g></g></g><g/><g/><g/><g/><g/><g/><g/><g/><g/><g/><g/><g/><g/><g/><g/></svg>