<svg height="512" viewBox="0 0 512 512" width="512" xmlns="http://www.w3.org/2000/svg"><g id="Flat"><path d="m88 184h336v296h-336z" fill="#4f657d"/><path d="m424 192a169.458 169.458 0 0 1 -1.18 20.01c-.16 1.33-.33 2.66-.53 3.98a168.011 168.011 0 0 1 -332.58 0c-.2-1.32-.37-2.65-.53-3.98a168.007 168.007 0 1 1 334.82-20.01z" fill="#e05114"/><path d="m422.29 215.99a168.011 168.011 0 0 1 -332.58 0 168.017 168.017 0 0 1 332.58 0z" fill="#fcc50f"/><path d="m88 216v-32h-48a16 16 0 0 0 -16 16v96a16 16 0 0 0 16 16h48v-32h-32v-64z" fill="#3c526e"/><path d="m424 280v32h48a16 16 0 0 0 16-16v-96a16 16 0 0 0 -16-16h-48v32h32v64z" fill="#3c526e"/><path d="m208 168h-56v-4a28 28 0 0 1 28-28 28 28 0 0 1 28 28z" fill="#e05114"/><path d="m280 236.971 39.6-39.6 2.828 2.828a28 28 0 0 1 0 39.6 28 28 0 0 1 -39.6 0z" fill="#e05114"/><rect fill="#914616" height="40" rx="8" width="40" x="240" y="160"/><rect fill="#914616" height="40" rx="8" transform="matrix(.707 -.707 .707 .707 -134.725 268.686)" width="40" x="236.971" y="276.971"/><rect fill="#914616" height="40" rx="8" transform="matrix(0 -1 1 0 -64 376)" width="40" x="136" y="200"/><path d="m232 104h24v24h-24z" fill="#fadd5c"/><path d="m176 272h24v24h-24z" fill="#fadd5c"/><path d="m339.029 259.029h24v24h-24z" fill="#fadd5c" transform="matrix(.707 -.707 .707 .707 -88.833 327.598)"/><path d="m465.373 24a22.627 22.627 0 0 0 -16 6.627l-81.232 81.232c-14.535 14.535-33.933 23.491-54.476 24.191a70.449 70.449 0 0 0 -14.105 1.95 96.113 96.113 0 0 1 74.44 74.427 70.257 70.257 0 0 0 1.95-14.092c.7-20.543 9.656-39.941 24.191-54.476l81.232-81.232a22.627 22.627 0 0 0 -16-38.627z" fill="#dedede"/><g fill="#f5a12c"><path d="m200 208h16v16h-16z"/><path d="m232 232h16v16h-16z"/><path d="m304 296h16v16h-16z"/><path d="m376 232h16v16h-16z"/><path d="m288 104h16v16h-16z"/><path d="m136 264h16v16h-16z"/></g><path d="m112 336h16v16h-16z" fill="#61718a"/><path d="m112 368h16v80h-16z" fill="#61718a"/></g></svg>