<svg id="Capa_1" enable-background="new 0 0 497 497" height="512" viewBox="0 0 497 497" width="512" xmlns="http://www.w3.org/2000/svg"><g><path d="m248.5 0c-8.284 0-15 6.716-15 15v30h30v-30c0-8.284-6.716-15-15-15z" fill="#ff9a42"/><path d="m450.162 208.298c1.336-19.047 9.338-38.34 9.338-58.298 0-74.558-60.441-135-135-135-.455 0-.904.021-1.357.026l-13.643 481.974c17.981 0 37.594-1.112 53.507-15.333 12.665-11.319 18.96-31.52 29.687-50.339 8.818-15.472 23.461-29.989 30.626-49.708 6.272-17.262 4.876-38.258 9.658-58.241 4.354-18.197 15.216-35.934 18.17-55.992 2.759-18.735-2.392-39.047-.986-59.089z" fill="#db2116"/><path d="m422.029 208.298c1.069-19.047 7.471-38.34 7.471-58.298 0-73.872-47.469-133.875-106.357-134.974l1.357-.026c-18.678 0-36.468 3.795-52.644 10.654-14.926 6.329-31.785 6.329-46.711 0-16.177-6.859-33.967-10.654-52.645-10.654-74.558 0-135 60.442-135 135 0 19.957 8.003 39.25 9.338 58.298 1.405 20.042-3.746 40.354-.986 59.089 2.954 20.058 13.815 37.795 18.17 55.992 4.782 19.983 3.386 40.979 9.658 58.241 7.165 19.719 21.807 34.236 30.626 49.708 10.726 18.819 17.021 39.021 29.687 50.339 15.913 14.221 35.526 15.333 53.507 15.333 10.451 0 20.652-2.476 30.5-7.182 9.848 4.706 20.049 7.182 30.5 7.182s20.652-2.476 30.5-7.182c9.848 4.706 20.049 7.182 30.5 7.182 14.385 0 30.075-1.112 42.806-15.333 10.132-11.319 15.168-31.52 23.749-50.339 7.055-15.472 18.769-29.989 24.501-49.708 5.018-17.262 3.901-38.258 7.727-58.241 3.484-18.197 12.173-35.934 14.536-55.992 2.207-18.735-1.914-39.047-.79-59.089z" fill="#ff3a2f"/><g fill="#db2116"><path d="m320.601 438.829c-.681 0-1.373-.093-2.06-.289-3.983-1.135-6.292-5.285-5.157-9.269 1.689-5.928 3.716-11.521 5.861-17.444 3.506-9.677 7.13-19.684 9.286-31.548 1.675-9.219 2.208-19.71 2.771-30.818.448-8.829.912-17.959 1.991-26.974.973-8.132 2.584-16.235 4.143-24.071 2.017-10.142 4.103-20.628 4.91-31.58.719-9.763.316-19.987-.109-30.811-.359-9.127-.73-18.565-.4-27.991.309-8.819 1.314-17.733 2.287-26.354 1.169-10.365 2.378-21.083 2.378-31.681 0-4.142 3.358-7.5 7.5-7.5s7.5 3.358 7.5 7.5c0 11.441-1.257 22.585-2.472 33.362-.983 8.721-1.913 16.958-2.201 25.199-.312 8.868.049 18.022.397 26.875.423 10.764.861 21.895.081 32.502-.875 11.871-3.052 22.817-5.157 33.404-1.572 7.905-3.057 15.371-3.961 22.927-1.018 8.505-1.468 17.375-1.903 25.953-.589 11.605-1.146 22.567-2.994 32.739-2.381 13.105-6.224 23.715-9.941 33.976-2.054 5.669-3.993 11.023-5.539 16.447-.942 3.296-3.946 5.446-7.211 5.446z"/><path d="m248.5 438.827c-4.142 0-7.5-3.358-7.5-7.5v-281.327c0-4.142 3.358-7.5 7.5-7.5s7.5 3.358 7.5 7.5v281.327c0 4.142-3.358 7.5-7.5 7.5z"/><path d="m176.399 438.829c-3.266 0-6.27-2.15-7.209-5.446-1.545-5.423-3.485-10.778-5.539-16.447-3.717-10.26-7.56-20.87-9.941-33.976-1.848-10.171-2.404-21.133-2.994-32.738-.436-8.578-.886-17.447-1.903-25.952-.904-7.557-2.389-15.023-3.961-22.928-2.105-10.586-4.283-21.533-5.157-33.404-.781-10.607-.343-21.738.081-32.502.348-8.853.708-18.007.397-26.875-.289-8.241-1.218-16.478-2.201-25.199-1.215-10.777-2.472-21.921-2.472-33.362 0-4.142 3.358-7.5 7.5-7.5s7.5 3.358 7.5 7.5c0 10.598 1.209 21.316 2.378 31.681.972 8.62 1.978 17.534 2.287 26.354.331 9.425-.041 18.863-.4 27.99-.426 10.824-.828 21.048-.109 30.811.807 10.951 2.892 21.438 4.909 31.58 1.559 7.836 3.17 15.939 4.143 24.072 1.079 9.014 1.542 18.144 1.991 26.973.564 11.108 1.096 21.599 2.771 30.818 2.155 11.865 5.78 21.872 9.286 31.549 2.145 5.922 4.171 11.516 5.861 17.444 1.135 3.984-1.174 8.133-5.157 9.269-.688.195-1.38.288-2.061.288z"/></g></g></svg>