<svg id="Layer_1" enable-background="new 0 0 50 50" height="512" viewBox="0 0 50 50" width="512" xmlns="http://www.w3.org/2000/svg"><g id="_x36_"><g><g><g><path d="m28.0288982 11.7955341c.8150501-2.9691887 2.4840088-5.5269251 5.1264477-7.6261673.625164-.4838078.4357414-1.3997412-.3411446-1.6761875l-4.0167408-1.4170386c-.4167767-.1554682-.8904514-.0690852-1.2126312.2246588-3.263443 2.9765723-5.2178078 6.498127-6.0085735 10.4947348h6.4526424z" fill="#b75f25"/></g></g><g><g><path d="m33.1560402 4.1724253c-2.6523857 2.0910153-4.3197231 4.6485405-5.1345444 7.6208935h-6.4417706c.0945969-.449317.1894226-.8986349.3219509-1.3306551h4.6798344c.8148212-2.9549503 2.4821587-5.5125809 5.1158104-7.6207886.2083893-.1555738.3411465-.3802326.3601131-.6048915l.7576904.2592542c.7768899.2764468.9663125 1.1923799.3409158 1.6761875z" fill="#aa5821"/></g></g></g><g><g><g><g><ellipse cx="38.847" cy="29.156" fill="#5bc658" rx="10.263" ry="19.844"/></g></g><g><g><path d="m49.106266 29.1556625c0 10.954998-4.5916443 19.8437386-10.2627182 19.8437386-2.2501678 0-4.3331146-1.4005852-6.0359573-3.785675.8208923.4021111 1.6724052.6101532 2.5543594.6101532 5.6710739 0 10.262722-8.8888245 10.262722-19.8437386 0-6.6007271-1.6573753-12.4387827-4.2267685-16.0441799 4.4394608 2.204813 7.7083626 9.9704075 7.7083626 19.2197017z" fill="#49a247"/></g></g><g><g><ellipse cx="31.306" cy="29.156" fill="#5bc658" rx="10.263" ry="19.844"/></g></g><g><g><path d="m41.5651283 29.1556625c0 10.954998-4.5916481 19.8437386-10.262722 19.8437386-2.3414803 0-4.5005207-1.5114632-6.2183971-4.0630341.7602005.3605576 1.5508404.5408325 2.3717308.5408325 5.6710758 0 10.2627239-8.8888206 10.2627239-19.8437347 0-6.4343281-1.5810928-12.1614246-4.0443268-15.7807026 4.5307732 2.0661755 7.8909912 9.9148846 7.8909912 19.3029003z" fill="#49a247"/></g></g></g><g><g><g><ellipse cx="11.153" cy="29.156" fill="#5bc658" rx="10.263" ry="19.844"/></g></g><g><g><path d="m.8937321 29.1556625c0 10.954998 4.5916476 19.8437386 10.262722 19.8437386 2.2501669 0 4.3331118-1.4005852 6.0359554-3.785675-.8208904.4021111-1.6724062.6101532-2.5543585.6101532-5.6710739 0-10.262722-8.8888245-10.262722-19.8437386 0-6.6007271 1.657373-12.4387827 4.2267652-16.0441799-4.4394579 2.204813-7.7083621 9.9704075-7.7083621 19.2197017z" fill="#49a247"/></g></g><g><g><ellipse cx="18.694" cy="29.156" fill="#5bc658" rx="10.263" ry="19.844"/></g></g><g><g><path d="m8.4348726 29.1556625c0 10.954998 4.5916471 19.8437386 10.2627211 19.8437386 2.3414803 0 4.5005207-1.5114632 6.2183971-4.0630341-.7602005.3605576-1.5508404.5408325-2.3717308.5408325-5.6710758 0-10.262723-8.8888206-10.262723-19.8437347 0-6.4343281 1.5810938-12.1614246 4.0443239-15.7807026-4.5307712 2.0661755-7.8909883 9.9148846-7.8909883 19.3029003z" fill="#49a247"/></g></g></g></g><g><g><ellipse cx="25" cy="29.156" fill="#49a247" rx="6.279" ry="19.844"/></g></g><g opacity=".3"><g><g><path d="m21.4984665 24.93503c-.0288086 0-.0576172-.0009766-.0869141-.0039063-.550293-.0473633-.9580078-.5317383-.9101563-1.0820313.2924805-3.3979492.8916016-6.487793 1.7314453-8.9360352.1787109-.5219727.7446289-.8022461 1.2705078-.6210938.5219727.1791992.800293.7480469.6210938 1.2705078-.5493164 1.6005859-1.277832 4.3676758-1.6308594 8.4584961-.0449218.5209963-.4814452.9140627-.9951171.9140627z" fill="#fff"/></g></g></g><g opacity=".3"><g><g><path d="m21.2821579 30.1562214c-.5522461 0-1-.4477539-1-1 0-.8081055.0141602-1.5874023.0405273-2.3383789.0195313-.5517578.4663086-.9897461 1.034668-.9643555.5517578.0195313.9833984.4824219.9643555 1.034668-.0253906.7285156-.0395508 1.484375-.0395508 2.2680664 0 .5522461-.4477539 1-1 1z" fill="#fff"/></g></g></g><g opacity=".3"><g><g><path d="m7.5594821 20.3231659c-.0221229-.0036507-.0441222-.0080509-.0662484-.0140152-.4165821-.1061134-.6682892-.5297508-.5618005-.94627.6552491-2.5723076 1.506927-4.8691502 2.4621472-6.6427822.2033901-.3781872.6734953-.5216942 1.0543728-.3159342.3781252.2037649.5197611.6758718.3159342 1.0543728-.6246881 1.1595135-1.5348263 3.1921053-2.3243828 6.2888136-.1005258.3943939-.4855604.6409168-.8800225.5758152z" fill="#fff"/></g></g></g><g opacity=".3"><g><g><path d="m6.7316556 24.3052444c-.4240842-.0699902-.7111797-.4705791-.6411896-.8946648.1024165-.6205654.2120562-1.2172127.3274808-1.7905655.0849266-.4212341.4835277-.7009544.9167681-.6094246.4212346.0849266.6940374.4950981.6094241.916769-.1118279.5562286-.2184973 1.1348782-.3178196 1.7366962-.0699901.4240839-.4705791.7111799-.8946638.6411897z" fill="#fff"/></g></g></g></g></svg>