<svg height="512" viewBox="0 0 48 48" width="512" xmlns="http://www.w3.org/2000/svg"><g id="_27-spinach" data-name="27-spinach"><path d="m22 35.75a57.69 57.69 0 0 1 1 11.25 69.655 69.655 0 0 1 -2.95-10.72 32.869 32.869 0 0 1 -.55-4.01c.16-.18.33-.35.5-.53l.08-.18c.32.14.63.29.92.44a23.689 23.689 0 0 1 1 3.75z" fill="#f6fafd"/><path d="m28.5 32.27a32.869 32.869 0 0 1 -.55 4.01 69.655 69.655 0 0 1 -2.95 10.72c0-10 2-15 2-15 .29-.15.6-.3.92-.44l.08.18c.17.18.34.35.5.53z" fill="#f6fafd"/><path d="m20.05 36.28a32.869 32.869 0 0 1 -.55-4.01c.16-.18.33-.35.5-.53l.08-.18c-3.4-1.56-8.08-3.07-8.08-8.56 0-1.02.03-2.04.1-3.03a36.253 36.253 0 0 1 1.91-9.99 20.972 20.972 0 0 1 1.3-2.91l-.13-.07c-2.59-1.88-5.41-2.56-8.26-1.5-7.049 2.6-7.239 13.21-3.52 23.6a6.567 6.567 0 0 0 4.79 4.4 39.653 39.653 0 0 0 6.02.72s3.37 3.83 6.57 12.78h2.22a69.655 69.655 0 0 1 -2.95-10.72z" fill="#008906"/><path d="m41.08 5.5c-2.85-1.06-5.67-.38-8.26 1.5l-.13.07a20.972 20.972 0 0 1 1.3 2.91 36.253 36.253 0 0 1 1.91 9.99c.07.99.1 2.01.1 3.03a6.978 6.978 0 0 1 -3.22 6.09 30.071 30.071 0 0 1 -4.86 2.47l.08.18c.17.18.34.35.5.53a32.869 32.869 0 0 1 -.55 4.01 69.655 69.655 0 0 1 -2.95 10.72h2.22c3.2-8.95 6.57-12.78 6.57-12.78a39.653 39.653 0 0 0 6.02-.72 6.567 6.567 0 0 0 4.79-4.4c3.719-10.39 3.529-21-3.52-23.6z" fill="#008906"/><path d="m24 1c3.8 0 6.7 2.35 8.69 6.07a20.972 20.972 0 0 1 1.3 2.91 36.253 36.253 0 0 1 1.91 9.99c.07.99.1 2.01.1 3.03a6.978 6.978 0 0 1 -3.22 6.09 30.071 30.071 0 0 1 -4.86 2.47c-.32.14-.63.29-.92.44 0 0-2 5-2 15h-2a57.69 57.69 0 0 0 -1-11.25 23.689 23.689 0 0 0 -1-3.75c-.29-.15-.6-.3-.92-.44-3.4-1.56-8.08-3.07-8.08-8.56 0-1.02.03-2.04.1-3.03a36.253 36.253 0 0 1 1.91-9.99 20.972 20.972 0 0 1 1.3-2.91c1.99-3.72 4.89-6.07 8.69-6.07z" fill="#00ac0d"/><path d="m33 22a11.715 11.715 0 0 0 -8 3.26v-4.26c0-4.64 5.357-5 7-5a1 1 0 0 0 0-2 10.091 10.091 0 0 0 -7 2.312v-3.312c0-3.306 2.719-4 5-4a1 1 0 0 0 0-2 7.877 7.877 0 0 0 -5 1.475v-4.475a1 1 0 0 0 -2 0v4.475a7.877 7.877 0 0 0 -5-1.475 1 1 0 0 0 0 2c2.281 0 5 .694 5 4v3.312a10.091 10.091 0 0 0 -7-2.312 1 1 0 0 0 0 2c1.643 0 7 .36 7 5v4.26a11.715 11.715 0 0 0 -8-3.26 1 1 0 0 0 0 2c3.27 0 8 2.137 8 6a1 1 0 0 0 2 0c0-3.863 4.73-6 8-6a1 1 0 0 0 0-2z" fill="#008906"/><path d="m32.78 29.09a13.435 13.435 0 0 1 -1.345.819 6.241 6.241 0 0 0 -.588 1.21 1 1 0 0 0 .6 1.278.969.969 0 0 0 .337.059 1 1 0 0 0 .941-.663 4.469 4.469 0 0 1 2.449-2.569 8.906 8.906 0 0 1 6.432-.163 1 1 0 1 0 .694-1.875 10.947 10.947 0 0 0 -7.627.089 8.192 8.192 0 0 1 -1.893 1.815z" fill="#070"/><path d="m44.47 12.78a7.4 7.4 0 0 0 -4.813-.335l1.405-3.925a1 1 0 1 0 -1.882-.674l-1.4 3.895a7.215 7.215 0 0 0 -3.394-2.678 1 1 0 0 0 -.772 0c.126.3.255.6.371.919.151.419.275.871.409 1.311 1.486.832 2.742 2.25 1.9 4.61l-.609 1.7c.088.778.165 1.564.214 2.366.053.76.078 1.54.089 2.322h.011a1 1 0 0 0 .688-.274c1.373-1.3 3.842-1.467 6.606-.447a1 1 0 0 0 .693-1.875 9.573 9.573 0 0 0 -6.822-.293l1.015-2.836a3.457 3.457 0 0 1 1.739-2.085 5.092 5.092 0 0 1 3.857.171 1 1 0 1 0 .694-1.875z" fill="#070"/><path d="m13.322 27.275a10.944 10.944 0 0 0 -7.622-.089 1 1 0 1 0 .694 1.875 8.907 8.907 0 0 1 6.432.163 4.469 4.469 0 0 1 2.449 2.569 1 1 0 0 0 .941.663.973.973 0 0 0 .337-.059 1 1 0 0 0 .6-1.278 6.2 6.2 0 0 0 -.584-1.2 9.629 9.629 0 0 1 -3.247-2.644z" fill="#070"/><path d="m12.314 17.6-.609-1.7c-.846-2.36.41-3.778 1.9-4.61.134-.44.258-.892.409-1.311.116-.316.245-.615.371-.919a1 1 0 0 0 -.772 0 7.215 7.215 0 0 0 -3.394 2.678l-1.399-3.892a1 1 0 1 0 -1.883.674l1.406 3.925a7.4 7.4 0 0 0 -4.813.335 1 1 0 1 0 .694 1.875 5.092 5.092 0 0 1 3.857-.171 3.457 3.457 0 0 1 1.739 2.085l1.015 2.836a9.572 9.572 0 0 0 -6.822.293 1 1 0 0 0 .693 1.875c2.766-1.02 5.232-.855 6.606.447a1 1 0 0 0 .688.274h.011c.011-.782.036-1.562.089-2.322.049-.804.126-1.59.214-2.372z" fill="#070"/><path d="m22 35.75a57.69 57.69 0 0 1 1 11.25 69.655 69.655 0 0 1 -2.95-10.72 32.869 32.869 0 0 1 -.55-4.01c.16-.18.33-.35.5-.53l.08-.18c.32.14.63.29.92.44a23.689 23.689 0 0 1 1 3.75z" fill="#f6fafd"/><path d="m28.5 32.27a32.869 32.869 0 0 1 -.55 4.01 69.655 69.655 0 0 1 -2.95 10.72c0-10 2-15 2-15 .29-.15.6-.3.92-.44l.08.18c.17.18.34.35.5.53z" fill="#f6fafd"/><path d="m20.05 36.28a32.869 32.869 0 0 1 -.55-4.01c.16-.18.33-.35.5-.53l.08-.18c-3.4-1.56-8.08-3.07-8.08-8.56 0-1.02.03-2.04.1-3.03a36.253 36.253 0 0 1 1.91-9.99 20.972 20.972 0 0 1 1.3-2.91l-.13-.07c-2.59-1.88-5.41-2.56-8.26-1.5-7.049 2.6-7.239 13.21-3.52 23.6a6.567 6.567 0 0 0 4.79 4.4 39.653 39.653 0 0 0 6.02.72s3.37 3.83 6.57 12.78h2.22a69.655 69.655 0 0 1 -2.95-10.72z" fill="#008906"/><path d="m41.08 5.5c-2.85-1.06-5.67-.38-8.26 1.5l-.13.07a20.972 20.972 0 0 1 1.3 2.91 36.253 36.253 0 0 1 1.91 9.99c.07.99.1 2.01.1 3.03a6.978 6.978 0 0 1 -3.22 6.09 30.071 30.071 0 0 1 -4.86 2.47l.08.18c.17.18.34.35.5.53a32.869 32.869 0 0 1 -.55 4.01 69.655 69.655 0 0 1 -2.95 10.72h2.22c3.2-8.95 6.57-12.78 6.57-12.78a39.653 39.653 0 0 0 6.02-.72 6.567 6.567 0 0 0 4.79-4.4c3.719-10.39 3.529-21-3.52-23.6z" fill="#008906"/><path d="m24 1c3.8 0 6.7 2.35 8.69 6.07a20.972 20.972 0 0 1 1.3 2.91 36.253 36.253 0 0 1 1.91 9.99c.07.99.1 2.01.1 3.03a6.978 6.978 0 0 1 -3.22 6.09 30.071 30.071 0 0 1 -4.86 2.47c-.32.14-.63.29-.92.44 0 0-2 5-2 15h-2a57.69 57.69 0 0 0 -1-11.25 23.689 23.689 0 0 0 -1-3.75c-.29-.15-.6-.3-.92-.44-3.4-1.56-8.08-3.07-8.08-8.56 0-1.02.03-2.04.1-3.03a36.253 36.253 0 0 1 1.91-9.99 20.972 20.972 0 0 1 1.3-2.91c1.99-3.72 4.89-6.07 8.69-6.07z" fill="#00ce23"/><path d="m33 22a11.715 11.715 0 0 0 -8 3.26v-4.26c0-4.64 5.357-5 7-5a1 1 0 0 0 0-2 10.091 10.091 0 0 0 -7 2.312v-3.312c0-3.306 2.719-4 5-4a1 1 0 0 0 0-2 7.877 7.877 0 0 0 -5 1.475v-4.475a1 1 0 0 0 -2 0v4.475a7.877 7.877 0 0 0 -5-1.475 1 1 0 0 0 0 2c2.281 0 5 .694 5 4v3.312a10.091 10.091 0 0 0 -7-2.312 1 1 0 0 0 0 2c1.643 0 7 .36 7 5v4.26a11.715 11.715 0 0 0 -8-3.26 1 1 0 0 0 0 2c3.27 0 8 2.137 8 6a1 1 0 0 0 2 0c0-3.863 4.73-6 8-6a1 1 0 0 0 0-2z" fill="#008906"/><path d="m32.78 29.09a13.435 13.435 0 0 1 -1.345.819 6.241 6.241 0 0 0 -.588 1.21 1 1 0 0 0 .6 1.278.969.969 0 0 0 .337.059 1 1 0 0 0 .941-.663 4.469 4.469 0 0 1 2.449-2.569 8.906 8.906 0 0 1 6.432-.163 1 1 0 1 0 .694-1.875 10.947 10.947 0 0 0 -7.627.089 8.192 8.192 0 0 1 -1.893 1.815z" fill="#070"/><path d="m44.47 12.78a7.4 7.4 0 0 0 -4.813-.335l1.405-3.925a1 1 0 1 0 -1.882-.674l-1.4 3.895a7.215 7.215 0 0 0 -3.394-2.678 1 1 0 0 0 -.772 0c.126.3.255.6.371.919.151.419.275.871.409 1.311 1.486.832 2.742 2.25 1.9 4.61l-.609 1.7c.088.778.165 1.564.214 2.366.053.76.078 1.54.089 2.322h.011a1 1 0 0 0 .688-.274c1.373-1.3 3.842-1.467 6.606-.447a1 1 0 0 0 .693-1.875 9.573 9.573 0 0 0 -6.822-.293l1.015-2.836a3.457 3.457 0 0 1 1.739-2.085 5.092 5.092 0 0 1 3.857.171 1 1 0 1 0 .694-1.875z" fill="#070"/><path d="m13.322 27.275a10.944 10.944 0 0 0 -7.622-.089 1 1 0 1 0 .694 1.875 8.907 8.907 0 0 1 6.432.163 4.469 4.469 0 0 1 2.449 2.569 1 1 0 0 0 .941.663.973.973 0 0 0 .337-.059 1 1 0 0 0 .6-1.278 6.2 6.2 0 0 0 -.584-1.2 9.629 9.629 0 0 1 -3.247-2.644z" fill="#070"/><path d="m12.314 17.6-.609-1.7c-.846-2.36.41-3.778 1.9-4.61.134-.44.258-.892.409-1.311.116-.316.245-.615.371-.919a1 1 0 0 0 -.772 0 7.215 7.215 0 0 0 -3.394 2.678l-1.399-3.892a1 1 0 1 0 -1.883.674l1.406 3.925a7.4 7.4 0 0 0 -4.813.335 1 1 0 1 0 .694 1.875 5.092 5.092 0 0 1 3.857-.171 3.457 3.457 0 0 1 1.739 2.085l1.015 2.836a9.572 9.572 0 0 0 -6.822.293 1 1 0 0 0 .693 1.875c2.766-1.02 5.232-.855 6.606.447a1 1 0 0 0 .688.274h.011c.011-.782.036-1.562.089-2.322.049-.804.126-1.59.214-2.372z" fill="#070"/><path d="m36.3 15.9c.846-2.36-.41-3.778-1.9-4.61a37.726 37.726 0 0 1 1.5 8.679c-.049-.8-.126-1.588-.214-2.366z" fill="#016601"/><path d="m36 22.294h-.011c0 .236.011.471.011.708a6.931 6.931 0 0 1 -1.323 4.275 10.14 10.14 0 0 1 3.162-.7 8.1 8.1 0 0 0 .161-1.577c0-1.02-.03-2.04-.1-3.03-.014-.23-.044-.449-.062-.677a3.714 3.714 0 0 0 -1.15.727 1 1 0 0 1 -.688.274z" fill="#016601"/><path d="m33.844 28.211-.122.113c.041-.038.078-.074.122-.113z" fill="#fef5e6"/><path d="m32.69 7.07a19.655 19.655 0 0 1 .93 1.991 1 1 0 0 1 .771 0c.14.06.258.132.392.195-.033-.06-.06-.128-.093-.188a15.578 15.578 0 0 0 -1.509-2.308c-.12.081-.242.152-.361.238z" fill="#016601"/><path d="m29.92 33.56a30.071 30.071 0 0 0 4.86-2.47 7.717 7.717 0 0 0 2.3-2.424 7.309 7.309 0 0 0 -1.906.558 4.469 4.469 0 0 0 -2.449 2.569 1 1 0 0 1 -.941.663.969.969 0 0 1 -.337-.059 1 1 0 0 1 -.6-1.278 6.241 6.241 0 0 1 .588-1.21c-1.173.637-2.41 1.141-3.515 1.651l.08.18c.17.18.34.35.5.53a32.869 32.869 0 0 1 -.55 4.01 69.655 69.655 0 0 1 -2.95 10.72h2.029c.24-8.663 1.971-13 1.971-13 .29-.15.6-.3.92-.44z" fill="#016601"/><path d="m37.651 19.243c-.035-.284-.089-.553-.13-.833l-.356 1c.157-.068.322-.116.486-.167z" fill="#016601"/><path d="m33.844 28.211c-.04.039-.081.075-.122.113a9.512 9.512 0 0 1 -.942.766 13.435 13.435 0 0 1 -1.345.819 6.241 6.241 0 0 0 -.588 1.21 1 1 0 0 0 .6 1.278.969.969 0 0 0 .337.059 1 1 0 0 0 .941-.663 4.469 4.469 0 0 1 2.449-2.569 7.309 7.309 0 0 1 1.906-.558 6.65 6.65 0 0 0 .755-2.087 10.14 10.14 0 0 0 -3.162.7 7.215 7.215 0 0 1 -.829.932z" fill="#024402"/><path d="m31.435 29.909a13.435 13.435 0 0 0 1.345-.819 13.435 13.435 0 0 1 -1.345.819z" fill="#fef5e6"/><path d="m32.78 29.09a9.512 9.512 0 0 0 .942-.766 9.261 9.261 0 0 1 -.942.766z" fill="#fef5e6"/><path d="m34.677 27.275a7.506 7.506 0 0 1 -.833.936 7.215 7.215 0 0 0 .833-.936z" fill="#fef5e6"/><path d="m33.62 9.061c.125.3.254.6.37.919.151.419.275.871.409 1.311 1.486.832 2.742 2.25 1.9 4.61l-.609 1.7c.088.778.165 1.564.214 2.366.053.76.078 1.54.089 2.322h.011a1 1 0 0 0 .688-.274 3.714 3.714 0 0 1 1.15-.727c-.052-.69-.105-1.379-.187-2.05-.164.051-.329.1-.486.162l.356-1a32.911 32.911 0 0 0 -1.531-6.43 21.462 21.462 0 0 0 -1.207-2.722c-.134-.063-.252-.135-.392-.195a1 1 0 0 0 -.775.008z" fill="#024402"/><path d="m34.4 11.291c-.134-.44-.258-.892-.409-1.311.15.42.274.871.409 1.311z" fill="#fef5e6"/><path d="m35.989 22.292c-.011-.782-.036-1.562-.089-2.322.053.76.078 1.54.089 2.322z" fill="#fef5e6"/><path d="m33.619 9.061c.126.3.255.6.371.919-.116-.316-.245-.615-.37-.919z" fill="#fef5e6"/><path d="m11.705 15.9c-.846-2.36.41-3.778 1.9-4.61a37.673 37.673 0 0 0 -1.5 8.679c.048-.8.125-1.588.214-2.366z" fill="#016601"/><path d="m12 22.294h.011c0 .236-.011.471-.011.708a6.931 6.931 0 0 0 1.323 4.275 10.14 10.14 0 0 0 -3.163-.7 8.179 8.179 0 0 1 -.16-1.577c0-1.02.03-2.04.1-3.03.014-.23.044-.449.061-.677a3.7 3.7 0 0 1 1.15.727 1 1 0 0 0 .689.274z" fill="#016601"/><path d="m14.156 28.211.122.113c-.041-.038-.078-.074-.122-.113z" fill="#fef5e6"/><path d="m15.31 7.07a19.655 19.655 0 0 0 -.93 1.991 1 1 0 0 0 -.771 0c-.14.06-.259.132-.392.195.032-.06.06-.128.093-.188a15.578 15.578 0 0 1 1.509-2.308c.12.081.242.152.361.238z" fill="#016601"/><path d="m18.08 33.56a30.071 30.071 0 0 1 -4.86-2.47 7.717 7.717 0 0 1 -2.3-2.424 7.309 7.309 0 0 1 1.906.558 4.465 4.465 0 0 1 2.448 2.569 1 1 0 0 0 1.883-.674 6.188 6.188 0 0 0 -.589-1.21c1.174.637 2.411 1.141 3.516 1.651l-.08.18c-.17.18-.34.35-.5.53a32.869 32.869 0 0 0 .55 4.01 69.655 69.655 0 0 0 2.946 10.72h-2.03c-.239-8.663-1.97-13-1.97-13-.29-.15-.6-.3-.92-.44z" fill="#016601"/><path d="m10.349 19.243c.035-.284.089-.553.129-.833l.357 1c-.157-.068-.322-.116-.486-.167z" fill="#016601"/><path d="m14.156 28.211c.04.039.081.075.122.113a9.512 9.512 0 0 0 .942.766 13.535 13.535 0 0 0 1.344.819 6.188 6.188 0 0 1 .589 1.21 1 1 0 1 1 -1.883.674 4.465 4.465 0 0 0 -2.448-2.569 7.309 7.309 0 0 0 -1.906-.558 6.675 6.675 0 0 1 -.756-2.087 10.14 10.14 0 0 1 3.163.7 7.215 7.215 0 0 0 .833.932z" fill="#024402"/><path d="m16.564 29.909a13.535 13.535 0 0 1 -1.344-.819 13.535 13.535 0 0 0 1.344.819z" fill="#fef5e6"/><path d="m15.22 29.09a9.512 9.512 0 0 1 -.942-.766 9.261 9.261 0 0 0 .942.766z" fill="#fef5e6"/><path d="m13.323 27.275a7.427 7.427 0 0 0 .833.936 7.215 7.215 0 0 1 -.833-.936z" fill="#fef5e6"/><path d="m14.38 9.061c-.125.3-.254.6-.37.919-.151.419-.275.871-.409 1.311-1.486.832-2.742 2.25-1.9 4.61l.609 1.7c-.089.778-.166 1.564-.214 2.366-.054.76-.078 1.54-.089 2.322h-.011a1 1 0 0 1 -.689-.274 3.7 3.7 0 0 0 -1.15-.727c.052-.69.106-1.379.188-2.05.164.051.329.1.486.162l-.357-1a32.982 32.982 0 0 1 1.532-6.43 21.182 21.182 0 0 1 1.207-2.722c.133-.063.252-.135.392-.195a1 1 0 0 1 .775.008z" fill="#024402"/><path d="m13.6 11.291c.134-.44.258-.892.409-1.311-.15.42-.274.871-.409 1.311z" fill="#fef5e6"/><path d="m12.011 22.292c.011-.782.035-1.562.089-2.322-.054.76-.078 1.54-.089 2.322z" fill="#fef5e6"/><path d="m14.38 9.061c-.125.3-.254.6-.37.919.116-.316.245-.615.37-.919z" fill="#fef5e6"/><path d="m14.38 9.061.004-.009z" fill="#008906"/><path d="m13.078 13.228c-.018.076-.034.154-.052.23.018-.076.035-.158.052-.23z" fill="#008906"/><path d="m12.652 15.293c-.046.259-.081.526-.123.788.041-.263.078-.528.123-.788z" fill="#008906"/><path d="m13.599 11.298.002-.007-.001.001z" fill="#008906"/><path d="m13.217 9.259c.032-.06.06-.128.093-.188a15.578 15.578 0 0 1 1.509-2.308c.12.081.242.152.361.238l.13.07c-.193.35-.371.72-.543 1.1.175-.375.351-.749.543-1.1l-.13-.071a9.285 9.285 0 0 0 -5.848-1.98 38.735 38.735 0 0 0 1.3 6.172 7.372 7.372 0 0 1 2.585-1.933z" fill="#00ac0d"/><path d="m33.844 28.211-.026.024z" fill="#008906"/><path d="m29.379 30.905.32-.145c-.107.048-.214.098-.32.145z" fill="#008906"/><path d="m35.468 16.063c-.04-.255-.074-.514-.119-.766.044.252.08.511.119.766z" fill="#008906"/><path d="m35.688 17.6c0-.022-.006-.043-.009-.065.093.8.171 1.611.221 2.438-.049-.8-.126-1.588-.214-2.366z" fill="#008906"/><path d="m34.783 9.258a7.011 7.011 0 0 1 3 2.483l1.4-3.895a1 1 0 1 1 1.882.674l-1.405 3.925a7.4 7.4 0 0 1 4.813.335 1 1 0 1 1 -.694 1.875 5.092 5.092 0 0 0 -3.857-.171 3.457 3.457 0 0 0 -1.739 2.085l-.659 1.841c.041.28.095.549.13.833a9.922 9.922 0 0 1 6.336.455 1 1 0 0 1 -.693 1.875 7.688 7.688 0 0 0 -5.456-.28c.018.228.048.447.062.677.07.99.1 2.01.1 3.03a8.1 8.1 0 0 1 -.161 1.579 10.946 10.946 0 0 1 4.465.607 1 1 0 1 1 -.694 1.875 9.191 9.191 0 0 0 -4.526-.395 7.717 7.717 0 0 1 -2.3 2.424 30.071 30.071 0 0 1 -4.86 2.47c-.32.14-.63.29-.92.44l-.02.053a38.7 38.7 0 0 0 3.613 1.788 17.139 17.139 0 0 1 1.19-1.621 39.653 39.653 0 0 0 6.02-.72 6.567 6.567 0 0 0 4.79-4.4c3.719-10.39 3.529-21-3.52-23.6a8.4 8.4 0 0 0 -7.9 1.262 15.578 15.578 0 0 1 1.51 2.308c.033.06.06.13.093.188z" fill="#00ac0d"/><path d="m32.69 7.07c.192.348.367.721.541 1.095-.171-.378-.349-.746-.541-1.095z" fill="#008906"/><path d="m34.972 13.448c-.017-.071-.032-.143-.049-.214.017.071.032.143.049.214z" fill="#008906"/><path d="m34.399 11.291v.001z" fill="#008906"/><path d="m35.182 26.47c.031-.059.059-.121.089-.181-.029.06-.058.122-.089.181z" fill="#008906"/><path d="m33.619 9.06.001.001z" fill="#008906"/><path d="m35.854 24.5c.019-.1.044-.2.059-.308-.013.108-.04.208-.059.308z" fill="#008906"/><path d="m35.578 25.559c.032-.091.064-.183.093-.278-.029.095-.061.187-.093.278z" fill="#008906"/><path d="m17.555 24.375a39.062 39.062 0 0 0 5.445 5.56c-.046-2.887-2.731-4.797-5.445-5.56z" fill="#55e072"/><path d="m14.384 9.052v.009c-.126.3-.255.6-.371.919-.151.419-.275.871-.409 1.311v.007c-.191.624-.363 1.27-.521 1.93-.017.076-.034.154-.052.23q-.208.9-.374 1.835c-.045.26-.082.525-.123.788-.005.036-.009.072-.015.107a38.849 38.849 0 0 0 3.305 5.854 11.654 11.654 0 0 1 7.176 3.218v-4.26c0-4.64-5.357-5-7-5a1 1 0 0 1 0-2 10.091 10.091 0 0 1 7 2.312v-3.312c0-3.306-2.719-4-5-4a1 1 0 0 1 0-2 7.877 7.877 0 0 1 5 1.475v-4.475a1 1 0 0 1 2 0v4.475a7.877 7.877 0 0 1 5-1.475 1 1 0 0 1 0 2c-2.281 0-5 .694-5 4v3.312a10.091 10.091 0 0 1 7-2.312 1 1 0 0 1 0 2c-1.643 0-7 .36-7 5v4.26a11.715 11.715 0 0 1 8-3.26 1 1 0 0 1 0 2c-3.27 0-8 2.137-8 6a.987.987 0 0 1 -.737.947q1.21.93 2.495 1.763c.142-.464.242-.71.242-.71.29-.15.6-.3.92-.44.465-.215.962-.432 1.459-.655.106-.047.213-.1.32-.145.579-.264 1.165-.541 1.736-.851a13.435 13.435 0 0 0 1.345-.819 9.512 9.512 0 0 0 .942-.766l.1-.089.026-.024a7.506 7.506 0 0 0 .833-.936 6.7 6.7 0 0 0 .505-.8c.031-.059.06-.121.089-.181a6.363 6.363 0 0 0 .307-.73c.032-.091.064-.183.093-.278a7 7 0 0 0 .183-.78c.019-.1.044-.2.059-.308a8.479 8.479 0 0 0 .083-1.198c0-.237-.008-.472-.011-.708-.011-.782-.036-1.562-.089-2.322-.05-.827-.128-1.637-.221-2.438-.059-.5-.135-.983-.211-1.469-.039-.255-.075-.514-.119-.766q-.168-.944-.377-1.849c-.017-.071-.032-.143-.049-.214-.159-.664-.332-1.314-.524-1.942-.134-.44-.258-.892-.409-1.311-.116-.316-.245-.615-.371-.919q-.187-.456-.388-.9c-.174-.374-.349-.747-.541-1.095-1.99-3.717-4.89-6.067-8.69-6.067s-6.7 2.35-8.69 6.07c-.192.35-.368.724-.543 1.1-.131.288-.26.582-.383.882z" fill="#55e072"/><path d="m25 30c0-3.863 4.73-6 8-6a1 1 0 0 0 0-2 11.715 11.715 0 0 0 -8 3.26v-4.26c0-4.64 5.357-5 7-5a1 1 0 0 0 0-2 10.091 10.091 0 0 0 -7 2.312v-3.312c0-3.306 2.719-4 5-4a1 1 0 0 0 0-2 7.877 7.877 0 0 0 -5 1.475v-4.475a1 1 0 0 0 -2 0v4.475a7.877 7.877 0 0 0 -5-1.475 1 1 0 0 0 0 2c2.281 0 5 .694 5 4v3.312a10.091 10.091 0 0 0 -7-2.312 1 1 0 0 0 0 2c1.643 0 7 .36 7 5v4.26a11.654 11.654 0 0 0 -7.181-3.218c.549.8 1.13 1.577 1.736 2.333 2.714.763 5.4 2.673 5.44 5.56.415.347.839.682 1.268 1.012a.987.987 0 0 0 .737-.947z" fill="#aaefb8"/><path d="" fill="#070"/><path d="m37.084 28.666a9.191 9.191 0 0 1 4.526.395 1 1 0 1 0 .694-1.875 10.946 10.946 0 0 0 -4.465-.607 6.65 6.65 0 0 1 -.755 2.087z" fill="#008906"/><path d="m34.677 27.275a7.506 7.506 0 0 1 -.833.936 7.215 7.215 0 0 0 .833-.936z" fill="#070"/><path d="m37.838 21.293a7.688 7.688 0 0 1 5.456.28 1 1 0 0 0 .693-1.875 9.922 9.922 0 0 0 -6.336-.455c.082.671.135 1.36.187 2.05z" fill="#008906"/><path d="m35.99 11.98a32.911 32.911 0 0 1 1.531 6.43l.659-1.841a3.457 3.457 0 0 1 1.739-2.085 5.092 5.092 0 0 1 3.857.171 1 1 0 1 0 .694-1.875 7.4 7.4 0 0 0 -4.813-.335l1.405-3.925a1 1 0 1 0 -1.882-.674l-1.4 3.895a7.011 7.011 0 0 0 -3-2.483 21.462 21.462 0 0 1 1.21 2.722z" fill="#008906"/><rect fill="#070" height="0" width="0" x="34.399" y="11.291"/><path d="m12.01 11.98a21.106 21.106 0 0 1 1.207-2.721 7.372 7.372 0 0 0 -2.582 1.933q.376 1.263.834 2.489c.166-.581.344-1.154.541-1.701z" fill="#008906"/><path d="m14.38 9.061c-.125.3-.254.6-.37.919-.151.419-.275.871-.409 1.311.134-.44.258-.892.409-1.311.116-.316.245-.615.37-.919z" fill="#070"/><path d="m14.381 9.061c-.125.3-.254.6-.37.919.115-.316.244-.615.37-.919z" fill="#070"/><path d="m13.6 11.291c.134-.44.258-.892.409-1.311-.151.419-.275.871-.409 1.311z" fill="#070"/><path d="m36.3 15.9a3.72 3.72 0 0 0 .163-2.276 4.009 4.009 0 0 0 -2.063-2.333q.288.943.524 1.942c.017.071.032.143.049.214.138.606.267 1.218.377 1.849.045.252.079.511.119.766.074.487.153.97.211 1.469 0 .022.007.043.009.065z" fill="#008906"/><path d="m35.349 15.3c-.11-.631-.239-1.243-.377-1.849q.21.902.377 1.849z" fill="#016601"/><path d="m35.679 17.532c-.058-.5-.137-.982-.211-1.469.076.486.152.971.211 1.469z" fill="#016601"/><path d="m34.923 13.234q-.236-1-.524-1.942c.192.628.365 1.278.524 1.942z" fill="#016601"/><path d="m36.458 13.625a4.009 4.009 0 0 0 -2.058-2.334 4.009 4.009 0 0 1 2.058 2.334z" fill="#016601"/><path d="m35.476 27c.155-.047.316-.084.476-.124.107-.026.212-.054.32-.077.22-.048.444-.085.669-.118l.118-.018q.387-.053.78-.079a8.1 8.1 0 0 0 .161-1.584c0-1.02-.03-2.04-.1-3.03-.014-.23-.044-.449-.062-.677a4.069 4.069 0 0 0 -.614.313 3.545 3.545 0 0 0 -.535.413 1 1 0 0 1 -.688.274h-.011c0 .236.011.471.011.708a8.49 8.49 0 0 1 -.087 1.193c-.015.107-.04.2-.059.308a7.057 7.057 0 0 1 -.183.78c-.029.1-.061.187-.093.278a6.546 6.546 0 0 1 -.307.73c-.03.06-.058.122-.089.181a6.5 6.5 0 0 1 -.505.8c.257-.102.522-.194.798-.271z" fill="#008906"/><g fill="#016601"><path d="m35.182 26.47a6.7 6.7 0 0 1 -.505.8 6.5 6.5 0 0 0 .505-.8z"/><path d="m35.271 26.289a6.546 6.546 0 0 0 .307-.73 6.363 6.363 0 0 1 -.307.73z"/><path d="m35.913 24.193a8.49 8.49 0 0 0 .087-1.193 8.479 8.479 0 0 1 -.087 1.193z"/><path d="m35.671 25.281a7.057 7.057 0 0 0 .183-.78 7 7 0 0 1 -.183.78z"/><path d="m35.989 22.292c0 .236.011.471.011.708 0-.237-.008-.472-.011-.708z"/><path d="m35.952 26.871c-.16.04-.321.077-.476.124.156-.046.316-.085.476-.124z"/><path d="m37.839 26.579q-.393.027-.78.079c.258-.034.518-.058.78-.079z"/><path d="m36.941 26.676c-.225.033-.449.07-.669.118.22-.046.444-.086.669-.118z"/><path d="m37.223 21.607a3.374 3.374 0 0 0 -.535.413 3.545 3.545 0 0 1 .535-.413z"/><path d="m37.837 21.294.001-.001z"/><path d="m33.181 6.762c-.12.081-.242.152-.361.238.119-.086.241-.157.361-.238z"/></g><path d="m33.619 9.06a.992.992 0 0 1 .771 0c.14.06.258.132.392.195-.033-.06-.06-.128-.093-.188a15.578 15.578 0 0 0 -1.509-2.308c-.12.081-.242.152-.361.238l-.13.07c.192.349.37.717.541 1.095.136.294.264.594.389.898z" fill="#008906"/><path d="m33.619 9.06c-.125-.3-.253-.6-.388-.9q.199.44.388.9z" fill="#016601"/><path d="m34.783 9.258c-.134-.063-.252-.135-.392-.195.14.06.258.132.392.195z" fill="#016601"/><path d="m34 8.984a1.009 1.009 0 0 0 -.378.077 1.009 1.009 0 0 1 .378-.077z" fill="#016601"/><path d="m29.92 33.56a30.071 30.071 0 0 0 4.86-2.47 7.717 7.717 0 0 0 2.3-2.424 8.8 8.8 0 0 0 -.927.2c-.033.01-.067.017-.1.027a6.2 6.2 0 0 0 -.879.326 4.469 4.469 0 0 0 -2.449 2.569 1 1 0 0 1 -.941.663.969.969 0 0 1 -.337-.059 1 1 0 0 1 -.6-1.278 6.241 6.241 0 0 1 .588-1.21c-.572.311-1.156.588-1.736.851l-.32.145c-.5.223-.992.44-1.459.655l.08.18c.17.18.34.35.5.53 0 0-.027.507-.142 1.426.206.121.413.241.622.357l.02-.048c.29-.15.6-.3.92-.44z" fill="#008906"/><path d="m27.92 31.56c.467-.215.96-.432 1.459-.655-.497.223-.994.44-1.459.655z" fill="#016601"/><path d="m31.435 29.909c-.571.31-1.157.587-1.736.851.58-.263 1.164-.54 1.736-.851z" fill="#016601"/><path d="m36.157 28.871c-.033.01-.067.017-.1.027.033-.01.067-.017.1-.027z" fill="#016601"/><path d="m37.651 19.243c-.035-.284-.089-.553-.13-.833l-.356 1c.157-.068.322-.116.486-.167z" fill="#016601"/><path d="m37.165 19.405.356-.995z" fill="#016601"/><path d="m33.844 28.211-.026.024c-.031.03-.064.059-.1.089.045-.038.082-.074.126-.113z" fill="#024402"/><path d="m37.084 28.666a8.278 8.278 0 0 0 -.927.2 8.8 8.8 0 0 1 .927-.2z" fill="#024402"/><path d="m36.057 28.9a6.586 6.586 0 0 0 -.879.326 6.2 6.2 0 0 1 .879-.326z" fill="#024402"/><path d="m37.059 26.658-.118.018z" fill="#024402"/><path d="m36.272 26.794c-.108.023-.213.051-.32.077.107-.026.212-.054.32-.077z" fill="#024402"/><path d="m34.677 27.275c.257-.106.526-.2.8-.28-.274.082-.541.174-.8.28z" fill="#024402"/><path d="m33.818 28.235-.1.089a9.512 9.512 0 0 1 -.942.766 9.261 9.261 0 0 0 .942-.766c.036-.03.069-.059.1-.089z" fill="#024402"/><path d="m30.847 31.119a1 1 0 0 0 .6 1.278.969.969 0 0 0 .337.059 1 1 0 0 0 .941-.663 4.469 4.469 0 0 1 2.449-2.569 6.586 6.586 0 0 1 .879-.326c.033-.01.067-.017.1-.027a8.278 8.278 0 0 1 .927-.2 6.65 6.65 0 0 0 .755-2.087c-.262.018-.522.045-.78.079l-.118.018c-.225.032-.449.072-.669.118-.108.023-.213.051-.32.077-.16.039-.32.078-.476.124-.273.083-.542.174-.8.28a7.215 7.215 0 0 1 -.833.936c-.04.039-.081.075-.122.113a9.512 9.512 0 0 1 -.942.766 13.435 13.435 0 0 1 -1.345.819 6.241 6.241 0 0 0 -.583 1.205z" fill="#016601"/><path d="m34.677 27.275a7.215 7.215 0 0 1 -.833.936 7.215 7.215 0 0 0 .833-.936z" fill="#024402"/><path d="m32.78 29.09a13.435 13.435 0 0 1 -1.345.819 13.435 13.435 0 0 0 1.345-.819z" fill="#024402"/><path d="m32.78 29.09a9.512 9.512 0 0 0 .942-.766 9.261 9.261 0 0 1 -.942.766z" fill="#024402"/><path d="m34 8.984a1.018 1.018 0 0 1 .393.079 1.014 1.014 0 0 0 -.393-.079z" fill="#024402"/><path d="m37.837 21.294a3.934 3.934 0 0 0 -.614.313 4.069 4.069 0 0 1 .614-.313z" fill="#024402"/><path d="m37.651 19.243c-.164.051-.329.1-.486.162.157-.063.322-.111.486-.162z" fill="#024402"/><path d="m36 22.294a1 1 0 0 0 .688-.274 3.374 3.374 0 0 1 .535-.413 3.934 3.934 0 0 1 .614-.313c-.052-.69-.105-1.379-.187-2.05-.164.051-.329.1-.486.162l.356-1a32.911 32.911 0 0 0 -1.531-6.43 21.462 21.462 0 0 0 -1.207-2.722c-.134-.063-.252-.135-.392-.195a.992.992 0 0 0 -.771 0c.125.3.254.6.37.919.151.419.275.871.409 1.311a4.009 4.009 0 0 1 2.059 2.334 3.72 3.72 0 0 1 -.157 2.277l-.612 1.7q.136 1.167.212 2.373c.053.76.078 1.54.089 2.322z" fill="#016601"/><path d="m35.9 19.97c.053.76.078 1.54.089 2.322-.011-.782-.036-1.562-.089-2.322z" fill="#024402"/><path d="m35.686 17.6c.088.778.165 1.564.214 2.366q-.074-1.206-.212-2.373z" fill="#024402"/><path d="m34.4 11.291c-.134-.44-.258-.892-.409-1.311.151.419.275.871.409 1.311z" fill="#fef5e6"/><path d="m33.99 9.98c.151.419.275.871.409 1.311-.134-.44-.258-.891-.409-1.311z" fill="#fef5e6"/><path d="m33.62 9.061c.125.3.254.6.37.919-.116-.316-.245-.615-.37-.919z" fill="#fef5e6"/><path d="m33.619 9.061c.126.3.255.6.371.919-.116-.316-.245-.615-.37-.919z" fill="#fef5e6"/><path d="m11.515 13.8c.306.81.641 1.606 1 2.389l.016-.105c.042-.262.077-.529.123-.788.108-.627.237-1.234.374-1.835.018-.076.034-.154.052-.23q.236-.995.521-1.93v-.006a3.913 3.913 0 0 0 -2.086 2.505z" fill="#008906"/><path d="m13.6 11.3q-.287.938-.521 1.93c.157-.662.329-1.308.521-1.93z" fill="#016601"/><path d="m13.026 13.458c-.137.6-.266 1.208-.374 1.835q.165-.936.374-1.835z" fill="#016601"/><path d="m12.513 16.186c.006-.035.01-.071.015-.107z" fill="#016601"/><path d="m13.6 11.292a3.92 3.92 0 0 0 -2.086 2.508 3.913 3.913 0 0 1 2.086-2.508z" fill="#016601"/><path d="m14 8.984a1.013 1.013 0 0 1 .378.077v-.009c.124-.3.25-.6.383-.883.172-.379.35-.749.543-1.1l-.124-.069c-.119-.086-.241-.157-.361-.238a15.578 15.578 0 0 0 -1.509 2.308c-.033.06-.061.128-.093.188.133-.063.252-.135.392-.195a1.014 1.014 0 0 1 .391-.079z" fill="#008906"/><path d="m14.767 8.169c-.133.287-.259.583-.383.883.123-.3.252-.594.383-.883z" fill="#016601"/><path d="m14 8.984a1.013 1.013 0 0 1 .378.077 1.013 1.013 0 0 0 -.378-.077z" fill="#016601"/><path d="m14 8.984a1.014 1.014 0 0 0 -.393.079c-.14.06-.259.132-.392.195.133-.064.252-.136.392-.2a1.014 1.014 0 0 1 .393-.074z" fill="#024402"/><path d="m11.469 13.681c.014.039.031.077.045.116a3.92 3.92 0 0 1 2.086-2.506c.134-.44.258-.892.409-1.311.116-.316.245-.615.37-.919a.992.992 0 0 0 -.771 0c-.14.06-.259.132-.392.2a21.106 21.106 0 0 0 -1.206 2.719c-.197.547-.375 1.12-.541 1.701z" fill="#016601"/><path d="m14.01 9.98c-.151.419-.275.871-.409 1.311.134-.44.258-.891.409-1.311z" fill="#fef5e6"/><path d="m14.38 9.061c-.125.3-.254.6-.37.919.116-.316.245-.615.37-.919z" fill="#fef5e6"/><ellipse cx="28" cy="6" fill="#f6fafd" rx="1.65" ry="2.297" transform="matrix(.707 -.707 .707 .707 3.964 21.565)"/><ellipse cx="31" cy="10" fill="#f6fafd" rx=".825" ry="1.148" transform="matrix(.707 -.707 .707 .707 2.014 24.859)"/><ellipse cx="28.746" cy="10.5" fill="#f6fafd" rx=".413" ry=".574" transform="matrix(.707 -.707 .707 .707 .999 23.411)"/></g></svg>