<svg id="Capa_1" enable-background="new 0 0 512 512" height="512" viewBox="0 0 512 512" width="512" xmlns="http://www.w3.org/2000/svg"><g><path d="m177.323 128.001-53.698 10.302 14.996-100.275c.58-3.477 18.324-5.866 19.11-5.573 2.36.88 4.161 2.965 4.596 5.573z" fill="#f66"/><path d="m158.2 32.649c-.914-.416-1.927-.647-2.986-.647h-19.782c-3.525 0-6.534 2.549-7.113 6.026l-14.996 89.974 14.358 10.302 11.396-10.302 14.996-89.974c.406-2.433 1.999-4.41 4.127-5.379z" fill="#e94444"/><path d="m209.322 160.001-117.697 10.302v-26.849c0-8.534 17.22-15.325 25.755-15.325l10.302-.128h66.188c8.534 0 15.453 6.918 15.453 15.453v16.547z" fill="#e94444"/><path d="m127.682 128.001h-30.906c-8.534 0-15.453 6.919-15.453 15.453v16.547l15.515 10.302 15.39-10.302v-16.547c.001-8.534 6.919-15.453 15.454-15.453z" fill="#d83131"/><path d="m209.387 511.998h-97.222l-20.604-.101c-17.638 0-31.936-14.197-31.936-31.835v-288.126c0-17.638 14.298-31.657 31.936-31.657l20.668-.278h97.158c17.638 0 31.936 14.298 31.936 31.936v64.063l-20.604 109.742 20.604 82.257v32.064c-.001 17.637-14.299 31.935-31.936 31.935z" fill="#f66"/><path d="m80.229 480.062v-288.126c0-17.638 14.298-31.936 31.936-31.936h-30.906c-17.638 0-31.936 14.298-31.936 31.936v64.064l20.604 95.999-20.604 95.999v32.064c0 17.638 14.298 31.936 31.936 31.936h30.905c-17.637 0-31.935-14.298-31.935-31.936z" fill="#e94444"/><path d="m241.322 256h-161.093l-20.604 10.302v171.395l20.604 10.301h161.093z" fill="#ffd15b"/><path d="m49.324 256h30.905v191.998h-30.905z" fill="#faab1b"/><path d="m201.322 368.354c0 22.077-17.134 40.698-40.547 46.49-4.908 1.214-61.151.05-61.151-46.49 0-46.099 56.242-47.704 61.151-46.49 23.413 5.791 40.547 24.413 40.547 46.49z" fill="#e94444"/><path d="m120.229 368.354c0-22.077 17.134-40.698 40.547-46.49-4.908-1.214-10.093-1.865-15.453-1.865-30.928 0-56 21.649-56 48.354s25.072 48.354 56 48.354c5.36 0 10.544-.65 15.453-1.865-23.413-5.79-40.547-24.411-40.547-46.488z" fill="#d83131"/><path d="m193.322 296.274h-9.372c-11.015 0-21.593 2.837-30.901 8.164v-16.438c0-4.268-3.459-7.726-7.726-7.726s-7.726 3.459-7.726 7.726v16.437c-9.308-5.327-19.886-8.164-30.901-8.164h-9.372c-4.267 0-7.726 3.459-7.726 7.726s3.459 7.726 7.726 7.726h9.372c12.528 0 24.306 4.878 33.164 13.736 1.716 1.716 4.243 2.547 6.641 2.17 1.61-.253 3.131-1.018 4.285-2.17 8.858-8.858 20.636-13.736 33.164-13.736h9.372c4.267 0 7.726-3.459 7.726-7.726s-3.459-7.725-7.726-7.725z" fill="#80a100"/><path d="m462.676 367.373v.217c-.082 11.888-6.83 23.035-17.905 28.464-24.972 12.208-40.805 37.571-40.805 65.365v10.858l-10.302 7.726 10.302 7.726v17.06c0 3.976-3.235 7.211-7.211 7.211h-88.791l-21.696-10.302v-40.28c0-13.897-3.956-27.186-11.043-38.529-7.077-11.342-17.276-20.727-29.762-26.836-9.838-4.811-16.256-14.144-17.637-24.487-.185-1.381-.278-2.781-.278-4.193 0-2.555.309-5.14.948-7.716.309-1.257.618-2.514.917-3.771 16.504-67.652 24.848-137.055 24.848-206.695v-117.255c0-17.637 14.299-31.616 31.936-31.616l21.705-.32h96.126c17.637 0 31.936 14.299 31.936 31.936v117.255c0 68.332 8.025 136.416 23.921 202.863.598 2.534-9.086 5.068-8.458 7.603.638 2.575 11.249 5.161 11.249 7.716z" fill="#ffd15b"/><path d="m267.158 396.049c-13.529-6.614-20.599-21.781-16.965-36.396 17.116-68.845 25.77-139.521 25.77-210.461v-117.254c0-17.638 14.298-31.936 31.936-31.936h-32c-17.638 0-31.936 14.298-31.936 31.936v117.254c0 68.422-8.051 136.598-23.979 203.122-.586 2.449 9.119 4.895 8.511 7.339-.658 2.646-11.267 5.309-11.248 7.937.084 11.888 6.831 23.042 17.911 28.459 24.971 12.208 40.805 37.576 40.805 65.371v10.852l10.302 7.731-10.302 7.722v17.062c0 3.983 3.229 7.211 7.211 7.211h24.789v-50.578c0-27.796-15.834-53.163-40.805-65.371z" fill="#faab1b"/><path d="m371.962 479.998h-64.009l14.015-28.015c1.222-2.442 3.718-3.985 6.449-3.985h23.087c2.731 0 5.228 1.543 6.45 3.986z" fill="#ff9b00"/><path d="m396.751 288h-113.577c-3.983 0-7.211-3.229-7.211-7.211v-209.576c0-3.983 3.229-7.211 7.211-7.211h113.576c3.983 0 7.211 3.229 7.211 7.211v209.576c.001 3.982-3.228 7.211-7.21 7.211z" fill="#f66"/><path d="m371.963 152.001c0 9.052-6.681 16.933-16.547 21.021-4.581 1.898-37.151-7.766-37.151-21.021s32.57-22.919 37.151-21.021c9.865 4.088 16.547 11.969 16.547 21.021z" fill="#e94444"/><path d="m338.868 152.001c0-9.052 6.682-16.932 16.547-21.021-4.581-1.898-9.849-2.979-15.453-2.979-17.673 0-32 10.745-32 24s14.327 24 32 24c5.604 0 10.872-1.081 15.453-2.979-9.865-4.089-16.547-11.97-16.547-21.021z" fill="#d83131"/><path d="m403.966 472.276v15.453h-96.003l-21.695-7.726 21.695-7.727z" fill="#faab1b"/><path d="m275.963 472.272v15.452h32v-15.452z" fill="#ff9b00"/><path d="m462.676 367.373v.217c-40.723 16.029-81.724 24.044-122.715 24.044-29.524 0-59.035-4.154-88.447-12.466-7.904-2.234-23.966-10.383-23.966-11.795 0-2.555 15.301-6.873 22.079-4.911 69.199 20.026 142.233 16.09 210.258-10.407.598 2.534 1.216 5.068 1.844 7.603.638 2.574.947 5.16.947 7.715z" fill="#faab1b"/><path d="m249.626 362.463c-9.969-2.884-19.859-6.266-29.643-10.149-.586 2.449-1.183 4.895-1.791 7.339-.658 2.645-.964 5.309-.946 7.937 11.403 4.488 22.828 8.348 34.267 11.579-2.068-5.196-2.784-10.949-1.887-16.706z" fill="#ff9b00"/><path d="m307.954 231.726h64.009c4.267 0 7.726-3.459 7.726-7.726s-3.459-7.726-7.726-7.726h-64.009c-4.267 0-7.726 3.459-7.726 7.726s3.459 7.726 7.726 7.726z" fill="#e7f5f5"/><path d="m313.679 118.219 21.637 15.955c1.166.879 2.589 1.435 4.137 1.536.026.002.052.004.078.005.027.002.055.003.082.004.036.002.072.003.108.004.021.001.043.001.064.002.059.001.119.002.178.002s.119-.001.178-.002c.021-.001.043-.001.064-.002.036-.001.072-.003.108-.004.028-.001.055-.003.082-.004.026-.001.052-.003.078-.005 1.548-.101 2.971-.657 4.137-1.536l21.637-15.955c3.434-2.532 4.165-7.369 1.633-10.804-2.532-3.434-7.37-4.166-10.804-1.633l-9.386 6.922v-.703c0-4.268-3.459-7.726-7.726-7.726s-7.726 3.459-7.726 7.726v.703l-9.386-6.922c-3.434-2.532-8.271-1.802-10.804 1.633-2.535 3.435-1.803 8.272 1.631 10.804z" fill="#80a100"/></g></svg>