<svg id="Layer_1" enable-background="new 0 0 512 512" viewBox="0 0 512 512" xmlns="http://www.w3.org/2000/svg"><g><g fill="#e27a66"><g><path d="m383.255 243.817c4.082-.705 6.819-4.586 6.114-8.667s-4.587-6.817-8.667-6.114l-58.928 10.18c-1.192.206-2.316.697-3.278 1.432l-50.911 38.91c-3.291 2.515-3.92 7.222-1.404 10.513 2.426 3.173 7.236 3.909 10.514 1.405l49.447-37.792z"/><path d="m406.214 260.054c3.828-1.581 5.65-5.966 4.07-9.794-1.581-3.828-5.964-5.652-9.795-4.07l-52.772 21.789c-.972.401-1.848 1.001-2.572 1.763l-45.267 47.59c-2.854 3.001-2.735 7.749.266 10.603 2.966 2.822 7.781 2.701 10.603-.265l44.168-46.435z"/><path d="m421.958 271.628c-2.435-3.353-7.124-4.097-10.476-1.664l-39.584 28.734c-1.174.853-2.076 2.028-2.596 3.383l-14.719 38.363c-1.484 3.867.448 8.205 4.315 9.689 3.719 1.427 8.205-.447 9.689-4.316l13.923-36.287 37.784-27.428c3.352-2.432 4.098-7.122 1.664-10.474z"/></g><path d="m293.229 449.041c2.436 6.242-12.16 19.42-39.457 32.791-39.71 19.452-87.775 44.139-97.013 20.466-9.238-23.672 42.843-38.067 85.232-50.655 29.139-8.652 48.802-8.844 51.238-2.602z"/><path d="m288.569 432.369c-.886 6.642-20.033 11.12-50.393 9.627-44.165-2.172-98.174-3.801-94.816-28.989 3.359-25.188 55.908-12.608 99.099-3.133 29.69 6.514 46.996 15.853 46.11 22.495z"/></g><path d="m276.18 443.887c.832 6.649-16.549 15.847-46.291 22.119-43.267 9.124-95.917 21.276-99.07-3.939s50.867-26.404 95.048-28.217c30.371-1.246 49.481 3.388 50.313 10.037z" fill="#e48e81"/><path d="m507.47 305.68c-10.84 53.19-39.97 88.69-74.86 112.34 0 0-27.57-1.24-18.37 11.15-45.38 24.58-96.31 32.39-128.65 34.62-.49.03-.98.05-1.47.05-11.43 0-20.89-9.23-21.02-20.85-.12-10.67 7.76-19.71 18.34-21.13 37.05-4.98 64.81-17.97 84.84-35.05 0 0 9.73 3.91 11.56-11.2 19.87-21.92 29.45-48.38 31.32-72.94 0 0 8.1-5.51.09-15.39-1.62-20.12-10.95-34.46-23.93-44.66-1.46-11.38-12.63-8.15-12.63-8.15-38.38-20.38-93.01-16.26-93.01-16.26v-127.24s109.37-11.64 178.03 43.15c0 0-7.12 8.14 11.53 10.23h.01c25.32 25.07 42.75 61.44 42.75 114.1 0 10.87-.64 21.18-1.87 30.94 0 0-11.97 7.3-2.66 16.29z" fill="#eaa598"/><path d="m507.47 305.68c-10.83 53.19-39.97 88.69-74.86 112.34 0 0-27.57-1.24-18.37 11.15-45.38 24.58-96.31 32.39-128.65 34.62-3.74.26-7.31-.48-10.46-1.98 75.92-9.4 205.96-48.67 205.96-203.36 0-140.87-124.79-165.21-191.45-168.17 28.5-1.35 111.91-.98 168.07 43.83v.01s-7.12 8.14 11.53 10.23h.01c25.32 25.07 42.75 61.44 42.75 114.1 0 10.87-.64 21.18-1.87 30.94 0 0-11.97 7.3-2.66 16.29z" fill="#e48e81"/><path d="m448.212 5.443c-1.136-3.983-5.288-6.286-9.27-5.155-96.394 27.5-187.408 32.12-260.539 35.832-51.163 2.597-95.35 4.839-126.186 14.494-17.092 5.351-29.565 12.761-38.131 22.654-9.478 10.946-14.086 24.632-14.086 41.839 0 26.779 9.246 48.148 27.48 63.513 26.455 22.292 66.59 27.299 97.329 27.299 23.902 0 42.125-3.03 43.796-3.317 4.081-.703 6.819-4.579 6.118-8.66-.7-4.081-4.58-6.824-8.659-6.124-.868.148-87.273 14.453-128.939-20.686-14.888-12.556-22.125-29.574-22.125-52.025 0-53.309 53.294-58.38 164.164-64.007 73.893-3.75 165.854-8.418 263.894-36.388 3.983-1.136 6.291-5.286 5.154-9.269z" fill="#e27a66"/><g fill="#e27a66"><path d="m230.536 217.93c4.133.264 7.69-2.883 7.95-7.015.26-4.134-2.881-7.696-7.015-7.956-3.075-.192-75.787-4.232-121.423 39.051-3.005 2.851-3.131 7.597-.281 10.603 2.744 2.893 7.609 3.12 10.603.281 40.835-38.73 109.478-35.009 110.166-34.964z"/><path d="m266.326 211.789c-1.83.05-45.375 1.679-93.88 40.907-3.221 2.604-3.72 7.327-1.116 10.547 2.477 3.063 7.388 3.671 10.548 1.116 44.277-35.809 84.42-37.561 84.878-37.576 4.131-.124 7.385-3.568 7.271-7.702-.112-4.141-3.564-7.393-7.701-7.292z"/></g><g fill="#ecbeb4"><path d="m469.24 144.35c-38.74 26.5-72.44 79.11-83.92 98.27-3.91-3.08-8.16-5.78-12.63-8.15 11.91-19.98 45.03-71.59 85.02-100.35 3.99 3.17 7.84 6.58 11.53 10.23z"/><path d="m510.13 289.39c-.69 5.61-1.59 11.03-2.66 16.29-12.26 2.97-25.28 4.08-37.88 4.08-24.43 0-47.36-4.16-60.43-7.09.24-3.03.35-6.04.35-9 0-2.19-.09-4.32-.26-6.39 17.8 4.14 65.31 13.23 100.88 2.11z"/><path d="m432.61 418.02c-5.97 4.06-12.12 7.76-18.37 11.15-19.79-6.41-32.11-18.06-39.42-27.91-3.79-5.09-6.55-10.1-8.54-14.45 4.19-3.56 8.03-7.31 11.56-11.2 4 11.35 17.11 37.11 54.77 42.41z"/></g><path d="m86.86 120.392 192.816-29.422s57.724 3.434 57.724 52.196c0 38.182-32.737 70.281-46.942 82.412-3.934 3.359-9.145 4.808-14.253 3.988-29.513-4.738-134.161-23.311-164.274-52.79-19.036-18.636-27.62-35.686-31.36-45.713-1.77-4.743 1.285-9.907 6.289-10.671z" fill="#eaa598"/><path d="m279.676 90.97-16.573 2.529c17.095 4.494 43.391 16.754 43.391 49.667 0 38.182-32.737 70.281-46.942 82.412-.39.333-.802.632-1.215.927 7.308 1.324 13.439 2.349 17.868 3.06 5.108.82 10.319-.628 14.253-3.988 14.206-12.132 46.942-44.23 46.942-82.412 0-48.761-57.724-52.195-57.724-52.195z" fill="#e48e81"/><g><circle cx="162.996" cy="117.941" fill="#f6f1f1" r="19.784"/></g></g><g/><g/><g/><g/><g/><g/><g/><g/><g/><g/><g/><g/><g/><g/><g/></svg>