<svg id="Layer_1" viewBox="0 0 237.17 290" xmlns="http://www.w3.org/2000/svg" data-name="Layer 1"><g transform="translate(-31.42 -5)"><path d="m83.24 73.58c-7.61 2.42-23.9 15.9-46.24 6.35 9.09 15.19 38.51 27.94 68.46 26.06.07 0-.06-5.45 0-5.44a135.64 135.64 0 0 0 -11-27c-.46.16-10.53-.19-11.22.03z" fill="#9b6948"/><path d="m259.37 88.21c-2.51-2.1-5.24-4.93-8.79-4.8-8 .24-10-4.92-14.4-9.6-5.08-5.38-13-5-13-5-.37-.3-8.38-5.95-8.79-6.25-7.91 12.67-15.27 32.68-19.1 47 33.79 7.8 55.08-2.82 63.83-12.25a2.85 2.85 0 0 0 .28-1.09c.02-1.22 1.52-6.72-.03-8.01z" fill="#9b6948"/><path d="m214.36 69c-5-3.25-12.31-10.15-20.55-12.74l-2-.61a113.3 113.3 0 0 0 -24.81-4.57l-1.84 1.75c-8.52-.32-16.41-1.07-22.22 2.09-10.72 5.81-22.17 12.2-30.9 15.64l.11.66c-6.88 2.63-13.21 6.39-19 7.58 12.85 23.69 18 57.27 20.06 81.44 2.13 24.94-1.58 53.3-4.56 76.09-2.43 18.57-4.72 36.1-2.42 42 2.53 6.43 3.84 6.68 6.22 7.13a16 16 0 0 1 10 5.23c2.66 3 27.11 6.91 40.45 2.06 12.19-4.42 27.65-21.29 27.65-33.94 0-1.55-.1-4.65-.23-8.94-2.84-91.5-2.99-137.65 24.04-180.87z" fill="#ead5b8"/><path d="m55.81 80.5s20.35 16.63 46.86 12.06l-8.23-19z" fill="#c48357"/><path d="m199.91 94.5s11.58 5.43 24.84 2.66a58.18 58.18 0 0 0 22.86-10.78l-26.29-24.92-15.09-3.89z" fill="#c48357"/><path d="m103.88 106.07s23.25-13.29 47.71-12.83 45.21 16.25 45.21 16.25 6.2-22.88 19.95-42.77l-40.92-20.58-49.61 7.77-33.08 11.44-5.56 8.15a85.55 85.55 0 0 1 16.3 32.57z" fill="#e5c9a8"/><g fill="#ddb88c"><path d="m179.86 105.76c2.73-10.47 10.21-36.19 20-46.51l-10.59-4.33s-8.27 27.54-10.27 50.69a.42.42 0 0 0 .86.15z"/><path d="m159.67 52.55s-.87 31.07.87 49.68a.79.79 0 0 0 1.56 0c1.34-11.83 4.58-36.41 9.76-50.62z"/><path d="m129.8 58.64s7.15 27.59 13 44.36a.94.94 0 0 0 1.83-.38c-1-12.41-2.8-38.2-1.67-47.72z"/><path d="m105.44 69.92s12.15 17.68 19.71 34.08a.66.66 0 0 0 1.25-.4c-2-9.2-6.16-26-11.22-38.28z"/></g><path d="m169.68 7c-35.19-4.22-83.48-2.8-113.51 14-.17 0-10.3 5.33-16.26 14.3-.65.84-16.53 21-3.15 44.5 22.42 10.68 44.92 2.32 52.6-.15 1-.33 3.06-.86 3.57-1 .08-.05 6.3-1.53 6.4-1.55 13.54-2.57 30.33-14.79 52.76-20.83 16.72-4.5 50.24 3 63.57 13.69l1.18.83c2.59 1.32 10.47 9.63 11.86 11.1a23.08 23.08 0 0 0 17.78 7.4c.22 0 3.81.2 4 .2a9.59 9.59 0 0 1 6.39 2.86c1.52 1.27 1.65 3.47 2 4.8 5-2.9 7.15-10.69 7.2-10.8.12-.27 9-20.49-7.37-43.16-17.6-24.48-54.88-32.01-89.02-36.19z" fill="#aa7a56"/><path d="m45.78 60a5.65 5.65 0 0 1 -3.45-7.14c2.58-7.45 9.24-21.86 23.76-29.12 14.29-7.15 33.42-9.45 43.31-10.18a1.37 1.37 0 0 1 .74 2.58c-7.57 4-20.69 11.57-27.59 19.25-9.18 10.24-20.28 30.61-36.77 24.61z" fill="#bf8c6a"/></g></svg>