<svg height="464pt" viewBox="0 -48 464 464" width="464pt" xmlns="http://www.w3.org/2000/svg"><g fill="#cf3a3a"><path d="m176 168h-14.65625c-14.851562 0-27.75-10.214844-31.152344-24.671875l-26.191406-111.328125h40zm0 0"/><path d="m288 168h14.65625c14.851562 0 27.75-10.214844 31.152344-24.671875l26.191406-111.328125h-40zm0 0"/><path d="m56 224c-13.253906 0-24 10.746094-24 24v8h80c17.671875 0 32-14.328125 32-32zm0 0"/><path d="m152 192h-120c-17.671875 0-32 14.328125-32 32h120c17.671875 0 32-14.328125 32-32zm0 0"/><path d="m32 160h-32c0 17.671875 14.328125 32 32 32h120c0-17.671875-14.328125-32-32-32zm0 0"/><path d="m407.367188 224c13.253906 0 24 10.746094 24 24v8h-80c-17.671876 0-32-14.328125-32-32zm0 0"/><path d="m312 192h120c17.671875 0 32 14.328125 32 32h-120c-17.671875 0-32-14.328125-32-32zm0 0"/><path d="m432 160h32c0 17.671875-14.328125 32-32 32h-120c0-17.671875 14.328125-32 32-32zm0 0"/></g><path d="m176 32h-72c0-17.671875 14.328125-32 32-32h40zm0 0" fill="#e04343"/><path d="m176 80 24-32h16v-24c0-13.253906-10.746094-24-24-24h-16zm0 0" fill="#e04343"/><path d="m216 56v-8h-16l-24 32h16c13.253906 0 24-10.746094 24-24zm0 0" fill="#cf3a3a"/><path d="m288 32h72c0-17.671875-14.328125-32-32-32h-40zm0 0" fill="#e04343"/><path d="m288 80-24-32h-16v-24c0-13.253906 10.746094-24 24-24h16zm0 0" fill="#e04343"/><path d="m248 56v-8h16l24 32h-16c-13.253906 0-24-10.746094-24-24zm0 0" fill="#cf3a3a"/><path d="m112 349.601562c9.738281 11.671876 24.164062 18.414063 39.367188 18.398438v-32l-68.703126-80h-50.664062zm0 0" fill="#e04343"/><path d="m0 224v112c0 17.671875 14.328125 32 32 32v-144zm0 0" fill="#e04343"/><path d="m0 48v112h32v-144c-17.671875 0-32 14.328125-32 32zm0 0" fill="#e04343"/><path d="m351.367188 349.601562c-9.738282 11.671876-24.164063 18.414063-39.367188 18.398438v-32l68.695312-80h50.671876zm0 0" fill="#e04343"/><path d="m464 224v112c0 17.671875-14.328125 32-32 32v-144zm0 0" fill="#e04343"/><path d="m184 368h-32.632812v-32h64.632812zm0 0" fill="#cf3a3a"/><path d="m64 368 32-32h-64v32zm0 0" fill="#cf3a3a"/><path d="m96 48-32-32h-32v32zm0 0" fill="#cf3a3a"/><path d="m280 368h32v-32h-64zm0 0" fill="#cf3a3a"/><path d="m400 368-32-32h64v32zm0 0" fill="#cf3a3a"/><path d="m368 48 32-32h32v32zm0 0" fill="#cf3a3a"/><path d="m464 48v112h-32v-144c17.671875 0 32 14.328125 32 32zm0 0" fill="#e04343"/><path d="m110.144531 288h-50.785156l13.679687 16h50.847657zm0 0" fill="#cf3a3a"/><path d="m0 321.183594 32-23.886719v-19.976563l-32 23.886719zm0 0" fill="#cf3a3a"/><path d="m32 105.710938v-19.917969l-32-23.703125v19.917968zm0 0" fill="#cf3a3a"/><path d="m339.480469 304h50.839843l13.679688-16h-50.785156zm0 0" fill="#cf3a3a"/><path d="m432 277.585938v20.238281l32 24.792969v-20.25zm0 0" fill="#cf3a3a"/><path d="m464 76v-20l-32 24v20zm0 0" fill="#cf3a3a"/><path d="m144 200h-112c-4.417969 0-8-3.582031-8-8s3.582031-8 8-8h112c4.417969 0 8 3.582031 8 8s-3.582031 8-8 8zm0 0" fill="#ba2727"/><path d="m144 232h-88c-4.417969 0-8-3.582031-8-8s3.582031-8 8-8h88c4.417969 0 8 3.582031 8 8s-3.582031 8-8 8zm0 0" fill="#ba2727"/><path d="m432 200h-112c-4.417969 0-8-3.582031-8-8s3.582031-8 8-8h112c4.417969 0 8 3.582031 8 8s-3.582031 8-8 8zm0 0" fill="#ba2727"/><path d="m408 232h-88c-4.417969 0-8-3.582031-8-8s3.582031-8 8-8h88c4.417969 0 8 3.582031 8 8s-3.582031 8-8 8zm0 0" fill="#ba2727"/><path d="m296 280h-128c-17.671875 0-32-14.328125-32-32v-51.488281c0-8.042969 3.03125-15.792969 8.488281-21.703125l57.976563-62.808594h13.535156l16-16 16 16h13.535156l57.976563 62.808594c5.457031 5.910156 8.488281 13.660156 8.488281 21.703125v51.488281c0 17.671875-14.328125 32-32 32zm0 0" fill="#e94f4f"/><path d="m319.511719 174.808594-57.976563-62.808594h-13.535156l-16-16-16 16h-2.464844l57.976563 62.808594c5.457031 5.910156 8.488281 13.660156 8.488281 21.703125v51.488281c0 17.671875-14.328125 32-32 32h48c17.671875 0 32-14.328125 32-32v-51.488281c0-8.042969-3.03125-15.792969-8.488281-21.703125zm0 0" fill="#e04343"/><path d="m262.71875 185.695312 10.882812-14.496093c2.648438-3.535157 1.933594-8.546875-1.601562-11.199219s-8.550781-1.933594-11.199219 1.601562l-14.402343 19.199219c-1.507813 2.011719-3.878907 3.199219-6.398438 3.199219h-16c-2.519531 0-4.890625-1.1875-6.398438-3.199219l-14.402343-19.199219c-2.648438-3.535156-7.664063-4.253906-11.199219-1.601562s-4.25 7.664062-1.601562 11.199219l10.882812 14.503906c2.386719 3.1875 2.070312 7.640625-.746094 10.457031l-24.535156 24.527344c-3.125 3.125-3.125 8.1875 0 11.3125s8.1875 3.125 11.3125 0l29.65625-29.65625c1.5-1.5 3.535156-2.34375 5.65625-2.34375h18.75c2.121094 0 4.15625.84375 5.65625 2.34375l29.65625 29.65625c3.125 3.125 8.1875 3.125 11.3125 0s3.125-8.1875 0-11.3125l-24.535156-24.535156c-2.816406-2.816406-3.132813-7.269532-.746094-10.457032zm0 0" fill="#cf3a3a"/><path d="m160 184h16v16h-16zm0 0" fill="#e04343"/><path d="m192 248h16v16h-16zm0 0" fill="#e04343"/><path d="m224 232h16v16h-16zm0 0" fill="#e04343"/><path d="m448 112h16v16h-16zm0 0" fill="#cf3a3a"/><path d="m432 48h16v16h-16zm0 0" fill="#cf3a3a"/><path d="m448 248h16v16h-16zm0 0" fill="#cf3a3a"/><path d="m344 312h16v16h-16zm0 0" fill="#cf3a3a"/><path d="m328 64h16v16h-16zm0 0" fill="#e04343"/><path d="m312 112h16v16h-16zm0 0" fill="#e04343"/><path d="m128 80h16v16h-16zm0 0" fill="#e04343"/><path d="m384 160h16v16h-16zm0 0" fill="#e04343"/><path d="m104 160h16v16h-16zm0 0" fill="#e04343"/><path d="m16 256h16v16h-16zm0 0" fill="#cf3a3a"/><path d="m112 320h16v16h-16zm0 0" fill="#cf3a3a"/><path d="m16 120h16v16h-16zm0 0" fill="#cf3a3a"/><path d="m208 136h16v16h-16zm0 0" fill="#e04343"/><path d="m72 232h16v16h-16zm0 0" fill="#e04343"/><path d="m352 200h16v16h-16zm0 0" fill="#e04343"/></svg>