<svg id="Capa_1" enable-background="new 0 0 512 512" viewBox="0 0 512 512" xmlns="http://www.w3.org/2000/svg"><g><path d="m192.249 0h-33.357c-5.339 0-9.89 3.875-10.74 9.146l-6.078 37.682h66.993l-6.078-37.682c-.85-5.271-5.4-9.146-10.74-9.146z" fill="#bc7c63"/><path d="m322.508 191.737v101.009c0 85.083-56.953 147.383-141.315 150.34-1.865.072-3.74.103-5.625.103-39.378 0-75.375-7.421-102.986-31.309-33.376-28.875-54.492-71.539-54.492-119.133v-101.01c0-86.968 70.506-157.473 157.484-157.473 21.742 0 42.695 4.51 61.535 12.479s32.137 22.006 46.384 36.253c25.301 25.312 34.925 56.573 38.355 94.288.444 4.759.66 9.581.66 14.453z" fill="#c68d7a"/><path d="m332.404 177.651c-.006-.122-.004-.247-.016-.368-.006 0-.013.001-.019.001-5.352-58.773-43.212-108.323-95.26-130.543 33.375 28.876 54.73 71.645 54.73 119.242 0 10.59-6.487 20.07-16.328 23.982-68.349 27.172-116.668 93.905-116.668 171.936 0 11.448.825 22.239 2.539 32.58 2.583 15.586-9.363 29.787-25.16 29.972-.62.007-1.241.011-1.863.011-21.929 0-42.808-4.487-61.777-12.585 27.611 23.889 63.611 38.342 102.988 38.342 86.974 0 157.48-70.506 157.48-157.48v-100.999c.001-4.752-.234-9.446-.646-14.091z" fill="#bc7c63"/><g fill="#bc7c63"><circle cx="100.846" cy="123.663" r="7.726"/><circle cx="103.931" cy="156.077" r="7.726"/><circle cx="227.387" cy="176.215" r="7.726"/><circle cx="114.086" cy="377.239" r="7.726"/><circle cx="83.464" cy="354.173" r="7.726"/><circle cx="258.984" cy="162.199" r="7.726"/><circle cx="75.548" cy="144.242" r="7.726"/></g><path d="m484.804 361.899c0 82.898-58.097 142.431-140.995 142.431-51.453 0-96.859-18.219-123.903-57.681-16.528-24.117-26.198-53.304-26.198-84.75 0-82.898 67.202-150.101 150.101-150.101 31.087 0 59.966 9.45 83.923 25.635 39.927 26.975 57.072 72.655 57.072 124.466z" fill="#c68d7a"/><path d="m428.554 238.003c16.528 24.117 26.205 53.299 26.205 84.745 0 82.898-67.202 150.101-150.101 150.101-31.446 0-60.628-9.677-84.745-26.205 27.044 39.462 72.443 65.356 123.896 65.356 82.898 0 150.101-67.202 150.101-150.101 0-51.452-25.894-96.852-65.356-123.896z" fill="#bc7c63"/><path d="m458.152 361.899c0 65.513-48.83 116.913-114.343 116.913-14.859 0-29.081-1.023-42.189-6.013-44.684-17.008-76.433-60.246-76.433-110.9 0-65.513 53.109-118.622 118.622-118.622 50.653 0 93.892 31.749 110.9 76.433 4.99 13.108 3.443 27.33 3.443 42.189z" fill="#9be69d"/><path d="m304.658 472.849c-1.016 0-2.027-.03-3.038-.05 13.109 4.99 27.329 7.722 42.189 7.722 65.513 0 118.622-53.109 118.622-118.622 0-14.86-2.711-29.026-7.701-42.134.02 1.012.029 1.967.029 2.983 0 41.583-16.004 79.595-43.322 106.778-27.142 27.009-65.464 43.323-106.779 43.323z" fill="#97da7b"/><path d="m383.421 362.659-11.404 10.451c-.224.206-.346.5-.333.804l.672 15.458c.026.604-.47 1.1-1.074 1.074l-15.458-.672c-.304-.013-.599.109-.804.333l-10.451 11.404c-.408.446-1.111.446-1.519 0l-10.451-11.404c-.206-.224-.5-.346-.804-.333l-15.458.672c-.604.026-1.1-.47-1.074-1.074l.672-15.458c.013-.304-.109-.599-.333-.804l-11.404-10.451c-.446-.408-.446-1.111 0-1.519l11.404-10.451c.224-.206.346-.5.333-.804l-.672-15.458c-.026-.604.47-1.1 1.074-1.074l15.458.672c.304.013.599-.109.804-.333l10.451-11.404c.408-.446 1.111-.446 1.519 0l10.451 11.404c.206.224.5.346.804.333l15.458-.672c.604-.026 1.1.47 1.074 1.074l-.672 15.458c-.013.304.109.599.333.804l11.404 10.451c.445.408.445 1.11 0 1.519z" fill="#f8f6f6"/><g><g><path d="m343.809 301.219c-4.268 0-7.726-3.459-7.726-7.726v-19.508c0-4.267 3.459-7.726 7.726-7.726s7.726 3.459 7.726 7.726v19.508c0 4.267-3.458 7.726-7.726 7.726z" fill="#97da7b"/></g><g><path d="m295.439 321.255c-1.977 0-3.955-.755-5.464-2.263l-13.794-13.794c-3.017-3.017-3.017-7.909 0-10.927 3.018-3.017 7.909-3.017 10.928 0l13.794 13.794c3.017 3.017 3.017 7.909 0 10.927-1.509 1.508-3.487 2.263-5.464 2.263z" fill="#97da7b"/></g><g><path d="m275.403 369.626h-19.507c-4.267 0-7.726-3.459-7.726-7.726s3.459-7.726 7.726-7.726h19.507c4.268 0 7.726 3.459 7.726 7.726s-3.459 7.726-7.726 7.726z" fill="#97da7b"/></g><g><path d="m281.645 431.79c-1.977 0-3.955-.755-5.464-2.263-3.017-3.017-3.017-7.909 0-10.927l13.794-13.794c3.018-3.017 7.909-3.017 10.928 0 3.017 3.017 3.017 7.909 0 10.927l-13.794 13.794c-1.509 1.508-3.487 2.263-5.464 2.263z" fill="#97da7b"/></g><g><path d="m343.809 457.539c-4.268 0-7.726-3.459-7.726-7.726v-19.507c0-4.267 3.459-7.726 7.726-7.726s7.726 3.459 7.726 7.726v19.507c0 4.267-3.458 7.726-7.726 7.726z" fill="#97da7b"/></g><g><path d="m405.973 431.79c-1.977 0-3.955-.755-5.464-2.263l-13.794-13.794c-3.017-3.017-3.017-7.909 0-10.927 3.018-3.017 7.909-3.017 10.928 0l13.794 13.794c3.017 3.017 3.017 7.909 0 10.927-1.509 1.508-3.487 2.263-5.464 2.263z" fill="#97da7b"/></g><g><path d="m431.723 369.626h-19.507c-4.268 0-7.726-3.459-7.726-7.726s3.459-7.726 7.726-7.726h19.507c4.268 0 7.726 3.459 7.726 7.726s-3.459 7.726-7.726 7.726z" fill="#97da7b"/></g><g><path d="m392.179 321.255c-1.977 0-3.955-.755-5.464-2.263-3.017-3.017-3.017-7.909 0-10.927l13.794-13.794c3.018-3.017 7.909-3.017 10.928 0 3.017 3.017 3.017 7.909 0 10.927l-13.794 13.794c-1.509 1.508-3.487 2.263-5.464 2.263z" fill="#97da7b"/></g></g></g><g/><g/><g/><g/><g/><g/><g/><g/><g/><g/><g/><g/><g/><g/><g/></svg>