<svg id="Layer_1" enable-background="new 0 0 510 510" height="512" viewBox="0 0 510 510" width="512" xmlns="http://www.w3.org/2000/svg"><g><g id="XMLID_597_"><g id="XMLID_634_"><g><path id="XMLID_636_" d="m255 180-7.5-11-7.5 11v120.918l9.25 7.189 5.75-8.107 10-86.5z" fill="#daf466"/></g></g><path id="XMLID_633_" d="m262.5 170-7.5 10v120l7.5 8.607 7.5-7.705v-120.902z" fill="#bedf37"/><g id="XMLID_628_"><path id="XMLID_632_" d="m75 54c0 69.588 56.412 126 126 126h54l-75-90-105-90z" fill="#a0de3a"/><path id="XMLID_631_" d="m129 0h-54l180 180 15-30-15-24c0-69.588-56.412-126-126-126z" fill="#c4ed65"/><path id="XMLID_630_" d="m381 0c-69.588 0-126 56.412-126 126v54l96.25-76.25 83.75-103.75z" fill="#a0de3a"/><path id="XMLID_629_" d="m255 180h54c69.588 0 126-56.412 126-126v-54z" fill="#56c360"/></g><g id="XMLID_617_"><path id="XMLID_623_" d="m180 300c-41.803 0-77.979 24.555-94.861 60l4.861 15-13.932 15c-1.39 9.679-1.458 19.85 0 30l13.932 14.993-4.862 15.004c16.881 35.446 53.057 60.003 94.862 60.003h75l15-105-15-105z" fill="#cb75f6"/><path id="XMLID_619_" d="m433.932 390-13.932-15 4.859-15.003c-16.881-35.442-53.056-59.997-94.859-59.997h-75v210h75c41.803 0 77.979-24.556 94.86-60l-4.86-14.999 13.932-15.001c1.39-9.68 1.458-19.851 0-30z" fill="#b760ea"/></g><g id="XMLID_613_"><g><path id="XMLID_615_" d="m195 360h45v30h-45z" fill="#b760ea"/></g></g><g id="XMLID_608_"><g><path id="XMLID_611_" d="m255 420h45v30h-45z" fill="#a24bdb"/></g></g><g id="XMLID_598_"><path id="XMLID_606_" d="m165 360h-79.855c-4.444 9.329-7.548 19.412-9.069 30h88.924z" fill="#b760ea"/><path id="XMLID_604_" d="m195 420h-118.924c1.521 10.588 4.625 20.672 9.069 30h109.855z" fill="#b760ea"/><g fill="#a24bdb"><path id="XMLID_601_" d="m330 450h94.855c4.443-9.328 7.547-19.412 9.068-30h-103.923z"/><path id="XMLID_599_" d="m300 360v30h133.924c-1.522-10.588-4.625-20.671-9.068-30z"/></g></g></g></g></svg>