<svg id="Radish" enable-background="new 0 0 64 64" viewBox="0 0 64 64" xmlns="http://www.w3.org/2000/svg"><g><g><path d="m46.5078 17.5543c-3.32812 1.1387-4.75804 4.85131-6.07228 6.39066-.19463.23624-.39703.44614-.60528.63636l.39202 1.32954c.27813.04676.56204.1133.85371.20616 1.93916.58005 5.1546 2.92293 8.5681 2.0738 1.87395-.4656 3.19505-1.41507 3.98262-2.12767.51152-.46283 1.20474-.65494 1.88989-.57475 1.09974.12871 2.34814-.12706 3.33527-.59923 3.4619-1.64319 5.63369-4.72221 5.05508-6.68454s-4.07347-3.37044-7.87307-2.87251c-1.08538.13893-2.27282.60139-3.1268 1.30616-.53204.43908-1.21858.65381-1.89938.54255-1.04819-.17132-2.67309-.25213-4.49988.37347z" fill="#66b941"/><path d="m46.3374 24.29984c-.39554 0-.75982-.25804-.87679-.65536-.14286-.48482.13393-.99286.61786-1.13572l6.79821-2.00446c.49286-.14643.99107.13393 1.13572.61786.14286.48482-.13393.99286-.61786 1.13571l-6.79821 2.00447c-.08661.02589-.17411.0375-.25893.0375z" fill="#487f2a"/></g><g><path d="m46.44712 17.49362c-1.1387 3.32812-4.85131 4.75804-6.39066 6.07228-.23624.19463-.44614.39703-.63636.60528l-1.32954-.39203c-.04676-.27813-.1133-.56204-.20616-.85371-.58005-1.93916-2.92294-5.1546-2.0738-8.56811.4656-1.87395 1.41507-3.19505 2.12767-3.98262.46283-.51152.65494-1.20474.57475-1.88989-.1287-1.09974.12706-2.34814.59923-3.33527 1.64319-3.4619 4.72221-5.63369 6.68454-5.05508s3.37045 4.07347 2.87252 7.87307c-.13893 1.08538-.60139 2.27282-1.30616 3.1268-.43908.53204-.65381 1.21859-.54255 1.89938.17131 1.04821.25212 2.67311-.37348 4.4999z" fill="#66b941"/><path d="m40.65258 18.4543c-.08482 0-.17232-.01161-.25893-.0375-.48393-.14286-.76072-.65089-.61786-1.13572l1.96786-6.67411c.14196-.48214.64732-.76161 1.13571-.61786.48393.14286.76072.65089.61786 1.13571l-1.96786 6.67411c-.11696.39733-.48125.65537-.87678.65537z" fill="#487f2a"/></g><g><path d="m48.81765 23.02506c-2.59171 2.37824-6.53608 1.85846-8.5165 2.27646-.30056.05794-.58169.13531-.84834.22723l-.98014-.98014c.09195-.26663.16929-.54778.22723-.84834.418-1.98042-.10178-5.92479 2.27646-8.5165 1.30513-1.42307 2.77079-2.1292 3.77327-2.48006.6511-.22788 1.15135-.7448 1.40861-1.38487.41292-1.02737 1.23459-2.00142 2.12135-2.64252 3.09875-2.25446 6.84148-2.68922 8.28812-1.24258s1.01184 5.18934-1.24261 8.28809c-.6411.88675-1.61514 1.70843-2.6425 2.12135-.64006.25726-1.15699.7575-1.38486 1.4086-.35087 1.00248-1.05701 2.46814-2.48009 3.77328z" fill="#75d64c"/><path d="m38.78561 26.1293c-.23393 0-.46786-.08929-.64643-.26786-.35714-.35714-.35714-.93571 0-1.29286l9.84107-9.84107c.35714-.35714.93571-.35714 1.29285 0s.35714.93571 0 1.29286l-9.84107 9.84107c-.17856.17857-.41249.26786-.64642.26786z" fill="#579c35"/></g><g><path d="m40.68478 44.71359c-5.45442 4.92159-11.94642 9.50667-17.80743 12.8718-5.84706 3.37925-8.91779 4.54306-10.3339 4.94966-3.65961 1.07969-6.68832.603-9.35237 1.304-1.23391.3365-2.10332.1122-2.62211-.40659s-.7431-1.38821-.4066-2.62212c.70099-2.66405.22431-5.69276 1.304-9.35237.42063-1.40207 1.57041-4.48684 4.94966-10.3339 3.37916-5.84698 7.95021-12.35301 12.8718-17.80743 5.80496-6.44989 15.84437-6.73034 21.98583-.58888s5.86101 16.18087-.58888 21.98583z" fill="#ffedad"/><g fill="#ffdc6e"><path d="m28.75738 26.52573c-.16451.18292-.40223.25603-.63996.25603-.23772 0-.47544-.0731-.64007-.25603l-5.54051-5.54051c.51194-.36574 1.0606-.67656 1.60915-.9692l5.21138 5.21149c.36575.36574.36575.93259.00001 1.29822z"/><path d="m35.30169 40.00073c-.23393 0-.46786-.08929-.64643-.26786l-6.19643-6.19643c-.35714-.35714-.35714-.93571 0-1.29286.35714-.35714.93571-.35714 1.29286 0l6.19643 6.19643c.35714.35714.35714.93571 0 1.29286-.17858.17857-.41251.26786-.64643.26786z"/><path d="m33.73115 50.42517c-.49375.36573-.9875.73147-1.48114 1.09721l-13.40346-13.40346c-.34743-.34743-.34743-.93259 0-1.28002.36574-.36574.93259-.36574 1.29833 0z"/><path d="m45.59856 35.32115c-.0914.73147-.23772 1.44464-.43884 2.15781l-4.37031-4.37032c-.34743-.36573-.34743-.93259 0-1.29832.36574-.34743.95089-.34743 1.29832 0z"/><path d="m16.1403 47.93834c-.18292.16462-.42065.25603-.65837.25603-.21942 0-.45714-.09141-.63996-.25603l-7.82634-7.84453c.31094-.53036.64007-1.0606.9692-1.60915l8.15547 8.15536c.34744.34743.34744.93258 0 1.29832z"/><path d="m13.91954 58.69894c-.23393 0-.46786-.08928-.64643-.26786l-4.0625-4.0625c-.35714-.35714-.35714-.93571 0-1.29285s.93571-.35714 1.29286 0l4.0625 4.0625c.35714.35714.35714.93571 0 1.29285-.17857.17858-.4125.26786-.64643.26786z"/></g><path d="m40.68194 44.71075c-5.45442 4.92159-11.94642 9.50668-17.80743 12.8718-5.84706 3.37925-8.91779 4.54306-10.3339 4.94966-3.65961 1.07969-6.68832.603-9.35237 1.304-1.23391.33651-2.10332.1122-2.62211-.4066-.51879-.51879-.7431-1.38821-.4066-2.62211.4487-1.73858.42072-3.61751.6309-5.73478 7.69792.93942 17.40092-2.87441 25.21095-10.68444 7.64169-7.64169 11.48359-17.14837 10.74049-24.79015 1.6405.7431 3.18284 1.78068 4.52895 3.12679 6.14146 6.14146 5.86101 16.18087-.58888 21.98583z" opacity=".15"/></g></g></svg>