<svg id="Capa_1" enable-background="new 0 0 512 512" height="512" viewBox="0 0 512 512" width="512" xmlns="http://www.w3.org/2000/svg"><g><g><g><path d="m337.859 84.726s74.701-54.944 155.934-83.655c3.224-1.139 6.804.124 8.584 3.043 2.433 3.993 5.877 9.645 8.567 14.059 2.209 3.626.828 8.36-2.985 10.229-23.205 11.372-97.728 49.647-143.781 93.621l-26.319-9.87z" fill="#d98a54"/><path d="m352.911 105.291-9.938-14.632c1.585 2.335 0 0-.009-.014-4.639-2.419-12.083-4.517-16.561-1.123 0 0-95.977 56.145-170.434 129.505-50.74 49.993-100.88 97.703-130.618 162.43-9.998 21.762-20.282 53.956-20.282 92.328 0 5.577 33.644 26.694 98.93 33.613 12.634 1.339 25.128 3.845 37.593 3.204 19.855-1.021 39.546-6.683 58.927-12.506 16.099-4.837 32.48-10.539 45.1-21.642 10.502-9.24 17.704-21.641 23.648-34.304 10.768-22.94 18.018-47.528 21.418-72.64 5.874-43.389-.049-88.372 11.447-130.622 10.926-40.156 45.037-84.865 59.578-102.662 3.91-4.785 4.233-11.56.784-16.688z" fill="#ff959b"/><path d="m134.143 509.639c-32.302-5.093-103.225-7.658-103.225-40.36 0-38.372 10.284-70.566 20.282-92.328 29.738-64.727 79.878-112.437 130.618-162.43 60.543-59.651 135.314-107.92 161.145-123.877l-1.586-2.335c-4.506-6.634-13.651-8.137-20.043-3.294 0 0-95.976 56.144-170.434 129.505-50.74 49.993-100.881 97.703-130.618 162.43-9.998 21.763-20.282 53.957-20.282 92.329 0 32.702 70.923 35.267 103.225 40.36 12.733 2.008 25.568 2.128 38.366.962-2.486-.252-4.969-.571-7.448-.962z" fill="#fc8086"/><path d="m274.308 223.327c2.151-8.934 5.443-17.57 9.359-25.871 5.029-10.659 10.712-21.003 16.875-31.047 4.726-7.702 3.073-24.824-.075-22.695-6.708 4.538-13.369 9.259-19.995 13.939-10.868 7.675-21.598 15.547-32.163 23.635-7.082 5.422-12.762 14.149-10.399 23.542.185.736.343 1.448.479 2.15 2.859 3.676 6.239 8.097 7.492 17.589.588 4.45 5.503 24.096 18.333 19.46 8.317-3.004 8.371-13.544 10.094-20.702z" fill="#e94442"/><path d="m240.926 210.447c5.503-5.682 54.077-39.939 59.07-43.144 5.708-9.365 12.302-18.405 5.75-28.43-3.504-5.355-4.663-3.119-8.939-.226-11.041 7.469-33.387 23.204-52.158 37.574-7.082 5.422-12.762 14.149-10.399 23.542 1.039 4.135 3.96 6.56 6.676 10.684z" fill="#cf3636"/><path d="m226.238 257.324c-2.05-7.485-2.488-15.386-5.102-22.693-1.516-4.238-3.816-9.492-6.81-13.879-3.375-2.559-7.274-3.558-11.633-1.613-7.124 3.18-17.692 18.63-23.612 24.463l-6.649 6.544c-46.973 46.214-91.342 89.865-117.323 146.413-6.338 13.796-16.293 34.152-16.312 59.382-.005 6.517 21.317 15.403 26.747 16.258 8.05 1.267 16.269 2.273 23.881 3.204 6.772.828 13.169 1.61 18.804 2.499 5.529.871 11.412 1.314 17.484 1.314 23.029 0 47.134-6.354 65.561-11.891 11.815-3.551 25.092-7.929 33.123-14.996 5.417-4.765 10.285-12.116 15.785-23.832 9.414-20.055 15.692-41.35 18.663-63.3 2.687-19.849 4.824-39.009-4.41-57.37-8.684-17.268-22.988-31.481-28.197-50.503z" fill="#e94442"/><path d="m58.171 455.658c8.849-83.428 73.864-146.988 133.636-205.794l6.649-6.545c4.391-4.326 11.338-13.941 17.541-19.918-4.499-7.696-10.945-14.022-18.934-10.456-7.124 3.18-17.691 18.63-23.612 24.463l-6.649 6.545c-59.957 58.985-124.794 122.431-133.637 205.793-.905 8.53 4.531 16.445 12.841 18.574 1.161.297 2.398.597 3.715.899 5.324 1.216 11 2.235 16.746 3.124-5.658-3.378-9.023-9.834-8.296-16.685z" fill="#cf3636"/></g><path d="m229.518 324.179c-1.641-5.4-6.551-9-10.489-13.044-6.338-6.509-10.369-13.946-13.042-22.574-.957-3.086-1.945-6.222-3.399-9.09-2.729-2.1-6.108-3.303-9.452-2.702-1.931.347-3.71 1.258-5.427 2.208-6.171 3.414-11.355 7.495-16.567 12.098-.028.025-.056.05-.084.074-4.723 4.177-9.463 7.459-10.429 14.241-.428 3.003 35.266 12.909 46.81 33.744.705 1.272 8.537 4.029 11.521 3.072 7.352-2.357 12.803-10.641 10.558-18.027z" fill="#ff959b"/><path d="m195.544 312.769c-3.522-1.507-5.995-1.518-7.896-4.929-1.498-2.689-1.879-6.204-1.451-9.207.967-6.782 5.706-10.064 10.429-14.241.028-.025.056-.05.084-.074 1.936-1.71 3.868-3.347 5.848-4.905-.681-1.335-1.464-2.612-2.394-3.797-2.937-3.746-7.693-6.445-12.377-5.603-1.931.347-3.71 1.258-5.427 2.208-6.171 3.414-11.355 7.495-16.567 12.098-.028.025-.056.05-.084.074-4.723 4.177-9.463 7.459-10.429 14.241-.428 3.003-.047 6.518 1.451 9.207 1.901 3.411 4.374 3.423 7.896 4.929 12.775 5.465 22.369 15.269 32.802 24.113 5.891 4.993 14.18 7.681 21.532 5.324 3.342-1.072 6.291-3.368 8.303-6.247-10.021-8.596-19.388-17.915-31.72-23.191z" fill="#fc8086"/></g></g></svg>