<?xml version="1.0" encoding="iso-8859-1"?>
<!-- Generator: Adobe Illustrator 19.0.0, SVG Export Plug-In . SVG Version: 6.00 Build 0)  -->
<svg version="1.1" id="Capa_1" xmlns="http://www.w3.org/2000/svg" xmlns:xlink="http://www.w3.org/1999/xlink" x="0px" y="0px"
	 viewBox="0 0 512 512" style="enable-background:new 0 0 512 512;" xml:space="preserve">
<path style="fill:#A3603E;" d="M469.628,321.324c-40.015-30.005-63.559-77.1-63.559-127.117v-8.828
	c0-9.754-7.901-17.655-17.655-17.655H82.785c-7.327,0-13.895,4.52-16.499,11.37L18.856,303.607C6.391,336.331,0,371.05,0,406.069
	C0,464.569,47.431,512,105.931,512h300.138C464.569,512,512,464.569,512,406.069C512,372.727,496.305,341.327,469.628,321.324z"/>
<g>
	<path style="fill:#D1D1D1;" d="M423.724,0l-6.524,8.386c-36.343,46.733-61.316,101.288-72.925,159.338h44.138l1.227-5.526
		c10.849-48.799,31.188-94.985,59.851-135.945l9.543-17.426L423.724,0z"/>
	<path style="fill:#D1D1D1;" d="M335.448,0l-6.524,8.386C292.582,55.119,267.608,109.674,256,167.724h44.138l1.227-5.526
		c10.849-48.799,31.188-94.985,59.851-135.945l9.543-17.426L335.448,0z"/>
	<path style="fill:#D1D1D1;" d="M247.172,0l-6.524,8.386c-36.343,46.733-61.316,101.288-72.925,159.338h44.138l1.227-5.526
		c10.849-48.799,31.188-94.985,59.851-135.945l9.543-17.426L247.172,0z"/>
	<path style="fill:#D1D1D1;" d="M158.897,0l-6.524,8.386C116.03,55.119,91.057,109.674,79.448,167.724h44.138l1.227-5.526
		c10.849-48.799,31.188-94.985,59.851-135.945l9.543-17.426L158.897,0z"/>
</g>
<path style="fill:#8F5436;" d="M469.628,321.324c-25.829-19.394-45.135-46.212-55.331-76.862
	C302.786,391.265,120.673,441.679,14.221,458.92c18.865,32.83,53.839,53.071,91.71,53.08h300.138
	C464.569,512,512,464.569,512,406.069C512,372.727,496.305,341.327,469.628,321.324z"/>
<path style="fill:#E68783;" d="M331.114,179.094l-47.431,124.513c-12.465,32.724-18.856,67.443-18.856,102.462l0,0
	c0,58.5,47.431,105.931,105.931,105.931h35.31C464.569,512,512,464.569,512,406.069l0,0c0-33.342-15.695-64.742-42.372-84.745l0,0
	c-40.015-30.005-63.559-77.1-63.559-127.117v-8.828c0-9.754-7.901-17.655-17.655-17.655h-40.801
	C340.286,167.724,333.718,172.244,331.114,179.094z"/>
<path style="fill:#DE7C78;" d="M469.628,321.324l-0.68-0.538c-50.635,61.361-116.392,108.482-190.773,136.704
	c18.661,33.642,54.113,54.51,92.584,54.51h35.31C464.569,512,512,464.569,512,406.069C512,372.727,496.305,341.327,469.628,321.324z
	"/>
<g>
	<path style="fill:#F5A9A2;" d="M376.567,308.966c9.86,0.071,17.902-7.874,17.973-17.726c0.018-2.516-0.494-4.996-1.51-7.3
		c-14.009-30.34-15.484-62.676-20.365-75.794c-1.156-3.09-4.114-5.129-7.415-5.111l0,0c-3.293,0-6.241,2.039-7.415,5.111
		l-29.29,76.879c-3.469,9.11,1.103,19.315,10.214,22.784c2.004,0.768,4.14,1.156,6.285,1.156H376.567z"/>
	<path style="fill:#F5A9A2;" d="M423.724,344.276h-63.082c-33.201-0.018-60.213,26.739-60.504,59.939v1.324
		c-0.212,39.089,31.303,70.938,70.391,71.15c0.079,0,0.15,0,0.23,0h35.31c39.044-0.044,70.665-31.735,70.621-70.78
		c0-2.207-0.106-4.414-0.318-6.612C474.456,378.809,458.478,344.276,423.724,344.276z"/>
</g>
<g>
</g>
<g>
</g>
<g>
</g>
<g>
</g>
<g>
</g>
<g>
</g>
<g>
</g>
<g>
</g>
<g>
</g>
<g>
</g>
<g>
</g>
<g>
</g>
<g>
</g>
<g>
</g>
<g>
</g>
</svg>
