<svg id="Capa_1" enable-background="new 0 0 512 512" viewBox="0 0 512 512" xmlns="http://www.w3.org/2000/svg"><g><path d="m346.158 99.924-8.857 15.341-15.341-8.857c-32.474-18.749-43.6-60.273-24.851-92.747l6.561-11.363c1.268-2.197 4.078-2.95 6.275-1.681l11.363 6.561c32.472 18.748 43.598 60.272 24.85 92.746z" fill="#a2e62e"/><path d="m321.307 7.177-11.364-6.561c-2.197-1.268-5.006-.516-6.275 1.681l-6.561 11.363c-.282.489-.558.98-.826 1.473l17.259 11.457c2.335 1.55 4.492 3.28 6.462 5.159 1.518 1.448 2.05 3.652 1.293 5.608-4.304 11.119-6.285 22.902-5.864 34.751l1.095 30.813c1.738 1.235 3.55 2.399 5.434 3.486l15.341 8.857 8.857-15.341c18.749-32.473 7.622-73.997-24.851-92.746z" fill="#97d729"/><path d="m360.026 99.234-17.111 4.585-4.585-17.111c-9.705-36.22 11.789-73.449 48.009-83.154l12.674-3.396c2.45-.657 4.969.798 5.626 3.248l3.396 12.674c9.706 36.22-11.789 73.449-48.009 83.154z" fill="#a2e62e"/><path d="m408.036 16.08-3.396-12.674c-.657-2.45-3.175-3.905-5.626-3.248l-12.674 3.396c-.546.146-1.088.299-1.627.457l4.103 20.305c4.705 23.283-8.75 46.589-31.267 54.156l-19.636 6.599c.132.546.271 1.092.417 1.637l4.585 17.111 17.111-4.585c36.22-9.705 57.715-46.934 48.01-83.154z" fill="#97d729"/><path d="m342.908 111.546c-1.311 0-2.639-.334-3.856-1.036-3.696-2.134-4.962-6.859-2.828-10.554l32.937-57.047c2.134-3.696 6.858-4.963 10.554-2.828 3.696 2.134 4.962 6.859 2.828 10.554l-32.937 57.047c-1.431 2.479-4.028 3.864-6.698 3.864z" fill="#d1f19e"/><path d="m386.206 112c-1.705-5.861-20.15-1.634-26.822-7.017-1.683-1.358 7.856-11.718 6.201-13.587-3.67-4.144-7.632-8.888-13.489-11.324-6.835-2.844-16.192-.507-24.649-2.672-7.4-1.895-14.33-8.547-22.734-9.832-7.686-1.176-16.319 3.035-24.667 2.435-7.846-.564-15.762-6.003-24.046-6.003-8.285 0-16.201 5.439-24.048 6.003-8.348.6-16.981-3.611-24.668-2.435-8.403 1.286-15.332 7.938-22.731 9.832-8.456 2.165-17.812-.173-24.646 2.671-8.498 3.535-13.007 11.929-18.422 16.297-6.675 5.384-13.985 9.77-15.691 15.632l130.206 32z" fill="#ffefd2"/><path d="m141.485 96.368c-6.675 5.384-13.985 9.77-15.691 15.632l130.206 32 130.206-32c-1.705-5.861-9.014-10.246-15.687-15.629-1.683-1.358-3.279-3.105-4.934-4.974h-219.168c-1.654 1.867-3.249 3.613-4.932 4.971z" fill="#fedba6"/><path d="m400 208-144-16-144 16 15.229 289.359c.432 8.207 7.213 14.641 15.431 14.641h226.678c8.219 0 14.999-6.433 15.431-14.641z" fill="#d6694b"/><path d="m379.488 205.721-14.779 280.795c-.144 2.736-2.404 4.88-5.144 4.88h-232.65l.314 5.963c.432 8.207 7.213 14.641 15.431 14.641h226.678c8.219 0 14.999-6.433 15.431-14.641l15.231-289.359z" fill="#c4573a"/><path d="m414.491 193.509-28.286 5.843-265.473.734-23.224-6.578c-.966-.966-1.509-2.276-1.509-3.642v-72.716c0-2.845 2.306-5.151 5.151-5.151h309.698c2.845 0 5.151 2.306 5.151 5.151v72.716c.001 1.367-.542 2.677-1.508 3.643z" fill="#d6694b"/><g fill="#c4573a"><path d="m410.849 112h-15.453v70.399c0 .683-.271 1.338-.754 1.821l-2.422 2.422c-.483.483-1.138.754-1.821.754h-294.399v2.47c0 1.366.543 2.676 1.509 3.642l14.491 14.492h288l14.491-14.491c.966-.966 1.509-2.276 1.509-3.642v-72.715c0-2.846-2.306-5.152-5.151-5.152z"/><path d="m169.542 487.73c-4.142 0-7.57-3.283-7.717-7.456l-8.427-240c-.149-4.265 3.186-7.843 7.451-7.993 4.257-.182 7.843 3.185 7.993 7.45l8.427 240.002c.15 4.264-3.186 7.842-7.45 7.992-.093.003-.185.005-.277.005z"/><path d="m212.771 487.73c-4.204 0-7.648-3.37-7.723-7.591l-4.213-240.001c-.074-4.267 3.323-7.786 7.59-7.861 4.298-.066 7.786 3.323 7.861 7.59l4.213 240.001c.074 4.267-3.323 7.786-7.59 7.861-.046.001-.092.001-.138.001z"/><path d="m256 487.73c-4.267 0-7.726-3.459-7.726-7.726v-240.001c0-4.268 3.459-7.726 7.726-7.726s7.726 3.459 7.726 7.726v240.001c0 4.268-3.459 7.726-7.726 7.726z"/><path d="m299.229 487.73c-.046 0-.092 0-.138-.001-4.266-.075-7.664-3.595-7.59-7.861l4.213-240.001c.074-4.22 3.519-7.591 7.723-7.591.046 0 .092 0 .138.001 4.266.075 7.664 3.595 7.59 7.861l-4.213 240.001c-.075 4.221-3.519 7.591-7.723 7.591z"/><path d="m342.458 487.73c-.092 0-.184-.002-.276-.005-4.265-.15-7.6-3.728-7.45-7.992l8.427-240.002c.15-4.265 3.748-7.632 7.993-7.45 4.265.15 7.6 3.728 7.451 7.993l-8.427 240c-.148 4.174-3.576 7.456-7.718 7.456z"/></g></g><g/><g/><g/><g/><g/><g/><g/><g/><g/><g/><g/><g/><g/><g/><g/></svg>