<svg id="icons" height="512" viewBox="0 0 64 64" width="512" xmlns="http://www.w3.org/2000/svg"><path d="m10.83.99823h42.34a1.83 1.83 0 0 1 1.83 1.83v58.34a1.83 1.83 0 0 1 -1.83 1.83h-42.34a1.83 1.83 0 0 1 -1.83-1.83v-58.34a1.83 1.83 0 0 1 1.83-1.83z" fill="#e6ecf4"/><path d="m20 14.99822h-6v-.06a3.00022 3.00022 0 0 1 3.07-2.94h29.86a3.00022 3.00022 0 0 1 3.07 2.94v.06z" fill="#d8e0eb"/><g fill="#8fcd5a"><path d="m50 14.99822v39.06a3.00022 3.00022 0 0 1 -3.07 2.94h-3.62a3.45658 3.45658 0 0 0 .69-1.99c0-1.67-1-1.67-1-3.33 0-1.67 1-1.67 1-3.33 0-1.67-1-1.67-1-3.34 0-1.66 1-1.66 1-3.33 0-1.66-1-1.66-1-3.33s1-1.67 1-3.34c0-1.66-1-1.66-1-3.33 0-1.66 1-1.66 1-3.33s-1-1.67-1-3.33c0-1.67 1-1.67 1-3.34s-1-1.67-1-3.34 1-1.67 1-3.34z"/><path d="m20 14.99822h6c0 1.67-1 1.67-1 3.34s1 1.67 1 3.34-1 1.67-1 3.34c0 1.66 1 1.66 1 3.33s-1 1.67-1 3.33c0 1.67 1 1.67 1 3.33 0 1.67-1 1.67-1 3.34s1 1.67 1 3.33c0 1.67-1 1.67-1 3.33 0 1.67 1 1.67 1 3.34 0 1.66-1 1.66-1 3.33 0 1.66 1 1.66 1 3.33a3.45658 3.45658 0 0 1 -.69 1.99h-6a3.45658 3.45658 0 0 0 .69-1.99c0-1.67-1-1.67-1-3.33 0-1.67 1-1.67 1-3.33 0-1.67-1-1.67-1-3.34 0-1.66 1-1.66 1-3.33 0-1.66-1-1.66-1-3.33s1-1.67 1-3.34c0-1.66-1-1.66-1-3.33 0-1.66 1-1.66 1-3.33s-1-1.67-1-3.33c0-1.67 1-1.67 1-3.34s-1-1.67-1-3.34 1-1.67 1-3.34z"/><path d="m32 14.99822h6c0 1.67-1 1.67-1 3.34s1 1.67 1 3.34-1 1.67-1 3.34c0 1.66 1 1.66 1 3.33s-1 1.67-1 3.33c0 1.67 1 1.67 1 3.33 0 1.67-1 1.67-1 3.34s1 1.67 1 3.33c0 1.67-1 1.67-1 3.34 0 1.66 1 1.66 1 3.33 0 1.66-1 1.66-1 3.33 0 1.66 1 1.66 1 3.33a3.45658 3.45658 0 0 1 -.69 1.99h-6a3.45658 3.45658 0 0 0 .69-1.99c0-1.67-1-1.67-1-3.33 0-1.67 1-1.67 1-3.33 0-1.67-1-1.67-1-3.34 0-1.66 1-1.66 1-3.33s-1-1.67-1-3.33c0-1.67 1-1.67 1-3.34 0-1.66-1-1.66-1-3.33 0-1.66 1-1.66 1-3.33s-1-1.67-1-3.33c0-1.67 1-1.67 1-3.34s-1-1.67-1-3.34 1-1.67 1-3.34z"/></g><g fill="#a0d964"><path d="m25 3.99822v4c-1.37 0-1.37 1-2.75 1s-1.38-1-2.75-1c-1.38 0-1.38 1-2.75 1-1.38 0-1.38-1-2.75-1v-4c1.37 0 1.37 1 2.75 1 1.37 0 1.37-1 2.75-1 1.37 0 1.37 1 2.75 1s1.38-1 2.75-1z"/><path d="m38 14.99822h6c0 1.67-1 1.67-1 3.34s1 1.67 1 3.34-1 1.67-1 3.34c0 1.66 1 1.66 1 3.33s-1 1.67-1 3.33c0 1.67 1 1.67 1 3.33 0 1.67-1 1.67-1 3.34s1 1.67 1 3.33c0 1.67-1 1.67-1 3.33 0 1.67 1 1.67 1 3.34 0 1.66-1 1.66-1 3.33 0 1.66 1 1.66 1 3.33a3.45658 3.45658 0 0 1 -.69 1.99h-6a3.45658 3.45658 0 0 0 .69-1.99c0-1.67-1-1.67-1-3.33 0-1.67 1-1.67 1-3.33 0-1.67-1-1.67-1-3.33 0-1.67 1-1.67 1-3.34 0-1.66-1-1.66-1-3.33s1-1.67 1-3.34c0-1.66-1-1.66-1-3.33 0-1.66 1-1.66 1-3.33s-1-1.67-1-3.33c0-1.67 1-1.67 1-3.34s-1-1.67-1-3.34 1-1.67 1-3.34z"/><path d="m14 14.99822h6c0 1.67-1 1.67-1 3.34s1 1.67 1 3.34-1 1.67-1 3.34c0 1.66 1 1.66 1 3.33s-1 1.67-1 3.33c0 1.67 1 1.67 1 3.33 0 1.67-1 1.67-1 3.34s1 1.67 1 3.33c0 1.67-1 1.67-1 3.33 0 1.67 1 1.67 1 3.34 0 1.66-1 1.66-1 3.33 0 1.66 1 1.66 1 3.33a3.45658 3.45658 0 0 1 -.69 1.99h-2.24a3.00022 3.00022 0 0 1 -3.07-2.94z"/><path d="m26 14.99822h6c0 1.67-1 1.67-1 3.34s1 1.67 1 3.34-1 1.67-1 3.34c0 1.66 1 1.66 1 3.33s-1 1.67-1 3.33c0 1.67 1 1.67 1 3.33 0 1.67-1 1.67-1 3.34 0 1.66 1 1.66 1 3.33s-1 1.67-1 3.33c0 1.67 1 1.67 1 3.34 0 1.66-1 1.66-1 3.33 0 1.66 1 1.66 1 3.33a3.45658 3.45658 0 0 1 -.69 1.99h-6a3.45658 3.45658 0 0 0 .69-1.99c0-1.67-1-1.67-1-3.33 0-1.67 1-1.67 1-3.33 0-1.67-1-1.67-1-3.34 0-1.66 1-1.66 1-3.33 0-1.66-1-1.66-1-3.33s1-1.67 1-3.34c0-1.66-1-1.66-1-3.33 0-1.66 1-1.66 1-3.33s-1-1.67-1-3.33c0-1.67 1-1.67 1-3.34s-1-1.67-1-3.34 1-1.67 1-3.34z"/></g><path d="m49.999 5.99805h-19.998a1 1 0 0 1 0-2h19.998a1 1 0 0 1 0 2z" fill="#cad1e1"/><path d="m40.001 8.998h-10a1 1 0 0 1 0-2h10a1 1 0 1 1 0 2z" fill="#cad1e1"/></svg>