<svg height="512" viewBox="0 0 512 512" width="512" xmlns="http://www.w3.org/2000/svg"><g id="Flat"><path d="m288 144v80a80 80 0 0 0 80 80 80 80 0 0 0 80-80v-80a80 80 0 0 0 -80-80 80 80 0 0 0 -80 80zm80 128a48 48 0 0 1 -48-48v-80a48 48 0 0 1 48-48 48 48 0 0 1 48 48v80a48 48 0 0 1 -48 48z" fill="#a0dde5"/><path d="m360 267.7v5.77a161.68 161.68 0 0 1 -72 134.53h-112a161.67 161.67 0 0 1 -71.96-130.99c-.03-1.18-.04-2.36-.04-3.54v-5.77a161.772 161.772 0 0 1 9.22-53.82l28.61-81.06a72.1 72.1 0 0 0 -3.5-56.16l-26.33-52.66h63.03a40.977 40.977 0 0 1 28.97 12 40.971 40.971 0 0 0 28.97 12h87.03l-5.5 38.51a72.106 72.106 0 0 0 3.38 34.15l32.9 93.22a161.772 161.772 0 0 1 9.22 53.82z" fill="#a0dde5"/><path d="m360 267.7v5.77a161.68 161.68 0 0 1 -72 134.53h-112a161.67 161.67 0 0 1 -71.96-130.99c77.82-42.94 148.16-115.27 197.99-229.01h17.97l-5.5 38.51a72.106 72.106 0 0 0 3.38 34.15l32.9 93.22a161.772 161.772 0 0 1 9.22 53.82z" fill="#92d8e0"/><path d="m360 267.7v5.77a161.68 161.68 0 0 1 -72 134.53h-112a161.67 161.67 0 0 1 -71.96-130.99c-.03-1.18-.04-2.36-.04-3.54v-5.77a161.772 161.772 0 0 1 9.22-53.82l28.61-81.06a71.937 71.937 0 0 0 3.93-28.82h168.39a72.609 72.609 0 0 0 3.73 16.66l32.9 93.22a161.772 161.772 0 0 1 9.22 53.82z" fill="#f4d331"/><path d="m360 267.7v5.77a161.68 161.68 0 0 1 -72 134.53h-112a161.67 161.67 0 0 1 -71.96-130.99c64.19-35.42 123.3-90.84 170-173.01h40.11a72.609 72.609 0 0 0 3.73 16.66l32.9 93.22a161.772 161.772 0 0 1 9.22 53.82z" fill="#f0cd22"/><path d="m256 184a47.78 47.78 0 1 1 -2.96-16.64 47.854 47.854 0 0 1 2.96 16.64z" fill="#fce25d"/><path d="m224.25 184.08 28.77 16.61a47.823 47.823 0 0 1 -8 13.86l-29.02-16.76v33.54a48.1 48.1 0 0 1 -16 0v-33.17l-28.76 16.7a47.59 47.59 0 0 1 -8.11-13.78l29.19-16.96-29.3-16.92a47.847 47.847 0 0 1 8.03-13.83l28.95 16.71v-33.41a48.1 48.1 0 0 1 16 0v33.7l29.06-16.88a47.915 47.915 0 0 1 7.98 13.87z" fill="#ffe978"/><path d="m488 248-.16 2.5-4.34 69.5-11.5 168h-128l-11.5-168-4.34-69.5-.16-2.5z" fill="#b7e7eb"/><ellipse cx="408" cy="248" fill="#92d8e0" rx="80" ry="40"/><path d="m483.5 320-11.5 168h-128l-11.5-168z" fill="#f4d331"/><path d="m472 408a47.78 47.78 0 1 1 -2.96-16.64 47.854 47.854 0 0 1 2.96 16.64z" fill="#fce25d"/><path d="m440.25 408.08 28.77 16.61a47.823 47.823 0 0 1 -8 13.86l-29.02-16.76v33.54a48.1 48.1 0 0 1 -16 0v-33.17l-28.76 16.7a47.59 47.59 0 0 1 -8.11-13.78l29.19-16.96-29.3-16.92a47.847 47.847 0 0 1 8.03-13.83l28.95 16.71v-33.41a48.1 48.1 0 0 1 16 0v33.7l29.06-16.88a47.915 47.915 0 0 1 7.98 13.87z" fill="#ffe978"/><path d="m49.707 321.707c-10.423 47.669 28.369 86.776 76.078 76.7l.511-.108.108-.511c10.079-47.712-29.028-86.504-76.697-76.081z" fill="#5f9548"/><path d="m136 296c-42.475 27.234-42.706 84.191-.453 111.7l.453.3.453-.3c42.253-27.509 42.022-84.467-.453-111.7z" fill="#7eb457"/><path d="m41.778 442.286h2.961c8.745 26.433 35.939 45.714 68.15 45.714 39.274 0 71.111-28.654 71.111-64s-31.837-64-71.111-64c-32.211 0-59.4 19.281-68.15 45.714h-2.961a18.037 18.037 0 0 0 -17.778 18.286 18.037 18.037 0 0 0 17.778 18.286z" fill="#f4d331"/><path d="m250.9 457.029-2.095-2.095c12.512-24.88 6.915-57.751-15.868-80.534-27.777-27.777-70.561-30.029-95.561-5.029s-22.748 67.784 5.029 95.561c22.783 22.783 55.654 28.38 80.534 15.868l2.095 2.095a18.3 18.3 0 0 0 25.866-25.866z" fill="#fadb41"/><path d="m304 296a47.78 47.78 0 1 1 -2.96-16.64 47.854 47.854 0 0 1 2.96 16.64z" fill="#fce25d"/><path d="m272.25 296.08 28.77 16.61a47.823 47.823 0 0 1 -8 13.86l-29.02-16.76v33.54a48.1 48.1 0 0 1 -16 0v-33.17l-28.76 16.7a47.59 47.59 0 0 1 -8.11-13.78l29.19-16.96-29.3-16.92a47.847 47.847 0 0 1 8.03-13.83l28.95 16.71v-33.41a48.1 48.1 0 0 1 16 0v33.7l29.06-16.88a47.915 47.915 0 0 1 7.98 13.87z" fill="#ffe978"/></g></svg>