<svg id="Flat" height="512" viewBox="0 0 64 64" width="512" xmlns="http://www.w3.org/2000/svg"><path d="m45 13.384v-6.384h-26v6.384a11.55 11.55 0 0 0 -7 10.616v33a4 4 0 0 0 4 4h32a4 4 0 0 0 4-4v-33a11.55 11.55 0 0 0 -7-10.616z" fill="#e9f5f9"/><path d="m19 7h26v4h-26z" fill="#d9eef4"/><path d="m14 25v35.445a3.955 3.955 0 0 0 2 .555h32a4 4 0 0 0 4-4v-33a11.55 11.55 0 0 0 -7-10.616v-6.384h-24v7.384a11.55 11.55 0 0 0 -7 10.616z" fill="#d9eef4"/><path d="m21 7h24v4h-24z" fill="#cae7ef"/><rect fill="#e9f5f9" height="6" rx="3" width="32" x="16" y="3"/><path d="m18 8a2.983 2.983 0 0 0 .14.86 2.983 2.983 0 0 0 .86.14h26a3 3 0 0 0 3-3 2.962 2.962 0 0 0 -.184-1h-26.816a3 3 0 0 0 -3 3z" fill="#d9eef4"/><path d="m16 53h8v4h-8z" fill="#ffd928"/><path d="m24 53h8v4h-8z" fill="#f4c800"/><path d="m32 53h8v4h-8z" fill="#ffe678"/><path d="m40 53h8v4h-8z" fill="#ffd928"/><path d="m22 45h8v4h-8z" fill="#f4c800"/><path d="m30 45h8v4h-8z" fill="#ffe678"/><path d="m38 45h8v4h-8z" fill="#ffd928"/><path d="m20 41h8v4h-8z" fill="#ffe678"/><path d="m28 41h8v4h-8z" fill="#ffd928"/><path d="m20 49h8v4h-8z" fill="#ffe678"/><path d="m28 49h8v4h-8z" fill="#ffd928"/><path d="m36 49h8v4h-8z" fill="#f4c800"/><circle cx="38" cy="39" fill="#ffe678" r="6"/><g fill="#ffd928"><circle cx="22" cy="27" r="6"/><ellipse cx="38.5" cy="22" rx="6.5" ry="4" transform="matrix(.707 -.707 .707 .707 -4.28 33.667)"/></g></svg>