<svg id="Capa_1" enable-background="new 0 0 512 512" height="512" viewBox="0 0 512 512" width="512" xmlns="http://www.w3.org/2000/svg"><g><ellipse cx="207.192" cy="227.591" fill="#a44f3e" rx="86.883" ry="86.886"/><ellipse cx="86.883" cy="140.705" fill="#ca6e59" rx="86.883" ry="86.886"/><path d="m86.883 53.818c-7.102 0-13.997.872-20.604 2.479 38.035 9.254 66.279 43.523 66.279 84.407s-28.244 75.153-66.279 84.407c6.607 1.608 13.502 2.479 20.604 2.479 47.984 0 86.883-38.9 86.883-86.886s-38.899-86.886-86.883-86.886z" fill="#bb5d4c"/><path d="m41.207 148.431c-4.267 0-7.726-3.459-7.726-7.726 0-29.448 23.956-53.405 53.402-53.405 4.267 0 7.726 3.459 7.726 7.726s-3.459 7.726-7.726 7.726c-20.925 0-37.949 17.025-37.949 37.953 0 4.268-3.46 7.726-7.727 7.726z" fill="#eb9c8d"/><ellipse cx="397.453" cy="344.665" fill="#a44f3e" rx="86.883" ry="86.886"/><ellipse cx="310.57" cy="425.114" fill="#ca6e59" rx="86.883" ry="86.886"/><path d="m310.57 338.227c-7.102 0-13.997.872-20.604 2.479 38.035 9.254 66.279 43.523 66.279 84.407s-28.244 75.153-66.279 84.407c6.607 1.608 13.502 2.479 20.604 2.479 47.984 0 86.883-38.9 86.883-86.886 0-47.985-38.899-86.886-86.883-86.886z" fill="#bb5d4c"/><path d="m356.246 432.84c-4.267 0-7.726-3.459-7.726-7.726 0-20.928-17.024-37.953-37.949-37.953-4.267 0-7.726-3.459-7.726-7.726s3.459-7.726 7.726-7.726c29.446 0 53.402 23.958 53.402 53.405-.001 4.267-3.46 7.726-7.727 7.726z" fill="#eb9c8d"/><ellipse cx="425.114" cy="86.89" fill="#ca6e59" rx="86.883" ry="86.886"/><path d="m511.777 80.727c-3.403-47.865-44.963-83.908-92.826-80.505-4.941.351-9.747 1.131-14.406 2.26 35.691 8.72 63.279 39.627 66.025 78.244 3.052 42.924-25.627 80.757-66.096 90.57 8.547 2.088 17.554 2.918 26.802 2.26 47.863-3.402 83.905-44.964 80.501-92.829z" fill="#bb5d4c"/><path d="m425.023 140.298c-27.84 0-51.198-21.796-53.176-49.62-.303-4.257 2.902-7.953 7.159-8.256 4.247-.315 7.952 2.903 8.255 7.159 1.406 19.774 17.993 35.264 37.763 35.264 4.267 0 7.726 3.459 7.726 7.726s-3.46 7.727-7.727 7.727z" fill="#eb9c8d"/></g></svg>