<svg id="Capa_1" enable-background="new 0 0 512 512" height="512" viewBox="0 0 512 512" width="512" xmlns="http://www.w3.org/2000/svg"><g><g><path d="m187.2 367.615c-1.913-6.755-7.394-11.755-14.303-13.049-25.781-4.829-44.493-27.401-44.493-53.674 0-11.777 3.695-22.997 10.687-32.445l.868-1.172-1.406-.387c-33.964-9.346-58.14-40.476-58.792-75.703-.817-44.143 34.408-80.744 78.521-81.591.523-.01 1.045-.016 1.566-.016 5.496 0 11.003.565 16.368 1.681l1.473.306-.288-1.477c-.993-5.093-1.497-10.278-1.497-15.412 0-4.458.383-8.825 1.087-13.087-19.392-22.983-51.926-32.29-81.525-20.793-37.263 14.474-55.738 56.415-41.265 93.678 1.725 4.442 3.852 8.608 6.303 12.492-6.759 1.13-13.5 3.239-20.039 6.436-32.484 15.879-48.292 53.962-36.655 88.196 11.177 32.88 43.281 52.127 75.889 48.791-2.702 9.896-2.376 20.71 1.623 31.006 8.739 22.499 32.08 35.01 54.977 30.903 6.121-1.098 12.374 1.013 16.431 5.726l55.763 64.789z" fill="#bbec6c"/><path d="m471.515 173.393c-6.534-3.191-13.267-5.297-20.02-6.426 2.452-3.884 4.578-8.051 6.303-12.492 14.474-37.264-4.001-79.205-41.265-93.678-29.598-11.496-62.133-2.19-81.525 20.793.704 4.261 1.087 8.629 1.087 13.087 0 5.135-.504 10.32-1.497 15.412l-.288 1.477 1.473-.306c5.367-1.115 10.878-1.681 16.378-1.681.518 0 1.036.005 1.555.015 44.112.847 79.337 37.447 78.522 81.589-.65 35.229-24.826 66.36-58.792 75.706l-1.405.387.867 1.172c6.991 9.448 10.687 20.668 10.687 32.445 0 26.272-18.712 48.845-44.492 53.673-6.91 1.295-12.39 6.295-14.303 13.05l-21.292 75.195 55.762-64.787c4.057-4.713 10.31-6.824 16.431-5.726 22.897 4.107 46.238-8.403 54.977-30.903 3.999-10.296 4.325-21.111 1.623-31.006 32.621 3.338 64.739-15.928 75.903-48.833 11.614-34.233-4.207-72.298-36.689-88.163z" fill="#97d729"/></g><g><g><path d="m433.238 191.201c.822-44.504-34.999-81.752-79.503-82.607-6.234-.12-12.309.472-18.155 1.686.985-5.051 1.515-10.265 1.515-15.603 0-44.788-36.308-81.096-81.096-81.096s-81.096 36.308-81.096 81.096c0 5.339.531 10.552 1.515 15.603-5.847-1.215-11.922-1.806-18.156-1.686-44.504.855-80.325 38.105-79.501 82.61.678 36.648 25.675 67.334 59.526 76.648-6.836 9.238-10.883 20.665-10.883 33.04 0 27.193 19.518 49.826 45.309 54.657 6.486 1.215 11.727 5.99 13.524 12.339l35.768 126.317c.706 2.493 2.982 4.214 5.573 4.214h56.841c2.591 0 4.867-1.721 5.573-4.214l35.768-126.317c1.798-6.349 7.039-11.124 13.524-12.339 25.791-4.83 45.309-27.464 45.309-54.657 0-12.375-4.047-23.802-10.883-33.04 33.854-9.314 58.852-40.002 59.528-76.651z" fill="#a2e62e"/></g><g><path d="m240.547 374.421c-1.798-6.349-7.039-11.124-13.524-12.339-25.791-4.83-45.309-27.464-45.309-54.657 0-10.068 2.679-19.508 7.358-27.653 1.6-2.785.249-6.297-2.768-7.4-31.774-11.619-54.253-42.53-53.213-78.563 1.189-41.213 33.66-75.321 74.77-78.458 5.512-.421 10.914-.282 16.163.358 3.244.396 6.036-2.376 5.678-5.624-.322-2.915-.489-5.876-.489-8.877 0-38.587 26.959-70.857 63.064-79.059-10.918-5.472-23.233-8.57-36.278-8.57-44.788 0-81.096 36.308-81.096 81.096 0 5.339.531 10.553 1.515 15.604-7.314-1.52-14.985-2.063-22.878-1.46-41.115 3.144-73.583 37.263-74.76 78.481-1.095 38.357 24.461 70.908 59.507 80.55-6.836 9.239-10.883 20.666-10.883 33.04 0 27.193 19.518 49.826 45.309 54.657 6.486 1.215 11.727 5.99 13.524 12.339l35.768 126.317c.706 2.493 2.982 4.214 5.573 4.214h20.92v-95.914z" fill="#97d729"/></g><path d="m322.902 211.923c2.815-3.038 2.635-7.783-.403-10.599s-7.784-2.635-10.599.403l-48.4 52.231v-62.73l33.216-35.846c2.815-3.038 2.635-7.783-.403-10.599s-7.784-2.635-10.599.403l-22.214 23.974v-67.688c0-4.143-3.358-7.5-7.5-7.5s-7.5 3.357-7.5 7.5v67.689l-22.214-23.974c-2.814-3.037-7.56-3.22-10.599-.403-3.038 2.815-3.219 7.561-.404 10.599l33.217 35.847v62.73l-48.4-52.233c-2.814-3.037-7.56-3.219-10.599-.403-3.038 2.815-3.219 7.561-.404 10.599l59.403 64.106v68.295l-48.4-52.233c-2.814-3.037-7.56-3.219-10.599-.403-3.038 2.815-3.219 7.561-.404 10.599l59.403 64.106v132.025h15v-132.026l59.402-64.104c2.815-3.038 2.635-7.783-.403-10.599s-7.784-2.635-10.599.403l-48.4 52.231v-68.296z" fill="#8bc727"/></g></g></svg>