<svg id="Lime" enable-background="new 0 0 64 64" viewBox="0 0 64 64" xmlns="http://www.w3.org/2000/svg"><g><g><path d="m42.2788 48.02842c7.56766-7.56766 9.21101-18.81264 4.93612-27.98102-.80762-1.7321-1.11858-3.6568-.86825-5.55147.20989-1.58857-.21203-3.14125-1.3166-4.24582-1.1046-1.1046-2.65736-1.52654-4.246-1.31663-1.89461.25034-3.81925-.06066-5.5513-.86825-9.16833-4.27485-20.41327-2.63145-27.98093 4.93622-7.56773 7.56773-9.21114 18.81269-4.93627 27.98102.80758 1.73202 1.1186 3.65662.86827 5.5512-.20991 1.58864.21205 3.1414 1.31667 4.24602 1.10458 1.10458 2.65726 1.52652 4.24583 1.31664 1.89463-.25032 3.81929.06065 5.55136.86826 9.16838 4.27491 20.41337 2.63156 27.9811-4.93617z" fill="#75d64c"/><path d="m42.28007 48.03105c-6.47313 6.47313-15.61603 8.61265-23.86294 6.41833 8.17381-3.32803 14.84806-11.08119 17.07898-21.12008 2.35883-10.56924-.84119-20.93726-7.53374-27.35559 2.48684.31083 4.95538 1.0057 7.27771 2.08461 1.71887.82277 3.65716 1.13371 5.54065.87768 1.59085-.21942 3.1451.20112 4.24221 1.31652 1.11552 1.09721 1.53606 2.65146 1.31664 4.24232-.23772 1.90179.0731 3.82178.87768 5.55895 4.27892 9.16122 2.63315 20.40691-4.93719 27.97726z" opacity=".15"/><g fill="#fff"><ellipse cx="11.917" cy="17.141" opacity=".4" rx="3.562" ry="3.249" transform="matrix(.733 -.68 .68 .733 -8.478 12.686)"/><circle cx="6.611" cy="22.016" opacity=".4" r="1.844"/></g></g><g><path d="m43.8737 58.25033c-6.33965-.00845-11.36058-2.07732-14.82253-5.44086-2.9353-2.83818-4.74122-6.61041-5.28311-10.8149-.19164-1.45697.89588-2.76562 2.36985-2.76307l30.08384-.0047 5.38075.00811c1.47405.00261 2.56981 1.29918 2.37506 2.75449-1.19599 9.19512-8.41107 16.26154-20.10386 16.26093z" fill="#9ce370"/><path d="m60.0699 39.22637c0 4.44276-1.52203 8.10392-4.21648 10.68525-.43192.43192-.89471.82272-1.39863 1.1827-2.51963 1.83055-5.80028 2.91043-9.65684 3.05436-.30851.0103-.61702.02059-.93583.02059-.29828 0-.5965-.01029-.89478-.02059-3.86679-.1337-7.14744-1.21352-9.67736-3.05436-.50391-.35998-.96671-.75079-1.39863-1.1827-2.69444-2.58133-4.21654-6.24249-4.21654-10.68525z" fill="#ffe48d"/><path d="m55.85342 49.91162c-.43192.43192-.89471.82272-1.39863 1.1827l-9.65684-9.65684v12.7112c-.30851.0103-.61702.02059-.93583.02059-.29828 0-.5965-.01029-.89478-.02059v-12.7112l-9.67736 9.65684c-.50391-.35998-.96671-.75079-1.39863-1.1827l10.70578-10.68525h2.57104l10.66466 10.66473z" fill="#f5bd53"/><path d="m43.8737 58.25033c-6.33965-.00845-11.36058-2.07732-14.82253-5.44086 8.71561 4.77372 19.78471 1.5739 24.88786-7.26501 1.166-2.01958 1.92443-4.16381 2.28271-6.31766l5.38075.00811c1.47405.00261 2.56981 1.29918 2.37506 2.75449-1.19598 9.19512-8.41106 16.26154-20.10385 16.26093z" opacity=".15"/></g></g></svg>