<svg id="Lollipop" enable-background="new 0 0 64 64" viewBox="0 0 64 64" xmlns="http://www.w3.org/2000/svg"><g><path d="m.81121 63.1891c-1.0812-1.08121-1.0812-2.83419 0-3.91539l35.65966-35.66c1.0812-1.08121 2.83416-1.08121 3.91535 0 1.08119 1.0812 1.08119 2.83418 0 3.91539l-35.65966 35.66c-1.0812 1.0812-2.83416 1.0812-3.91535 0z" fill="#f7bb90"/><g><circle cx="39.933" cy="24.067" fill="#ededf7" r="24.062"/><g fill="#f7524b"><path d="m39.9312 24.05447c-8.88683-.98739-15.28683-7.67991-17.95658-16 3.41953-3.82165 8.06406-6.60112 13.49487-7.62511 1.024-.20112 2.04799-.32913 3.07199-.38393-5.2297 6.56451-5.11999 16.0548 1.38972 24.00904z"/><path d="m39.9312 24.05447c-.98739 8.90524-7.69822 15.30525-16.0183 17.97489-3.82165-3.41942-6.60112-8.06395-7.62511-13.49487-.20111-1.024-.32913-2.04799-.38393-3.07199 6.56451 5.22969 16.0731 5.11998 24.02734-1.40803z"/><path d="m57.88779 40.09108c-3.41942 3.82176-8.06395 6.60112-13.49487 7.62511-1.02399.20123-2.04799.32924-3.07199.38404 5.24799-6.56451 5.13828-16.0731-1.38973-24.04576 8.90514 1.0058 15.30514 7.71663 17.95659 16.03661z"/><path d="m63.95866 22.68304c-6.54631-5.24799-16.0548-5.13828-24.02745 1.37143.9875-8.88683 7.71663-15.28683 16.03661-17.93828 3.82177 3.41953 6.58281 8.06406 7.60681 13.47668.20121 1.04218.32923 2.06617.38403 3.09017z"/></g><path d="m57.61357 40.38371c-3.38292 3.67533-7.93605 6.32679-13.22065 7.33248-13.05592 2.46864-25.6365-6.12567-28.10513-19.1817-2.19431-11.57478 4.3154-22.78393 14.9394-26.89821-4.99196 5.4125-7.424 13.00112-5.96105 20.77254 2.46853 13.05603 15.04911 21.65022 28.10513 19.18169 1.48114-.27433 2.88906-.69486 4.2423-1.2068z" opacity=".1"/></g></g></svg>