<?xml version="1.0" encoding="iso-8859-1"?>
<!-- Generator: Adobe Illustrator 19.0.0, SVG Export Plug-In . SVG Version: 6.00 Build 0)  -->
<svg version="1.1" id="Capa_1" xmlns="http://www.w3.org/2000/svg" xmlns:xlink="http://www.w3.org/1999/xlink" x="0px" y="0px"
	 viewBox="0 0 512 512" style="enable-background:new 0 0 512 512;" xml:space="preserve">
<path style="fill:#FEDBAB;" d="M256,0C115.3,0,0,115.3,0,256s115.3,256,256,256s256-115.3,256-256S396.7,0,256,0z M330.099,117.999
	c0.3,0,0.3,0,0.3,0c16.8-16.8,46.501-16.8,63.6,0c17.401,17.701,17.401,46.201,0,63.9C376,199.6,342.7,204.699,325,187
	C307.301,169.3,312.7,135.7,330.099,117.999z M61,256c0-24.901,20.099-45,45-45c17.401,0,75,14.099,75,45c0,30.899-57.599,45-75,45
	C81.099,301,61,280.899,61,256z M181.601,393.999c-17.401,17.401-45.901,17.401-63.6,0c-17.401-17.699-17.401-46.199,0-63.6
	c0,0,0,0,0-0.3C135.7,312.7,169.3,307,187,325C205,342.7,199.3,376.3,181.601,393.999z M187,187
	c-17.701,17.999-51.301,12.299-69-5.402c-17.401-17.399-17.401-45.899,0-63.6c17.098-16.8,46.8-16.8,63.6,0c0,0,0,0,0.3,0
	C199.3,135.7,205,169.3,187,187z M256,451c-24.901,0-45-20.101-45-45c0-17.401,14.099-75,45-75s45,57.599,45,75
	C301,430.899,280.901,451,256,451z M256,301c-24.901,0-45-20.101-45-45c0-24.901,20.099-45,45-45s45,20.099,45,45
	C301,280.899,280.901,301,256,301z M256,181c-30.901,0-45-57.601-45-75c0-24.901,20.099-45,45-45s45,20.099,45,45
	C301,123.399,286.901,181,256,181z M393.999,393.999c-17.699,17.401-46.199,17.401-63.9,0C312.7,376.3,307,342.7,325,325
	c17.701-17.999,51.301-12.299,69,5.099c0,0.3,0,0.3,0,0.3C411.4,347.8,411.4,376.3,393.999,393.999z M406,301
	c-17.401,0-75-14.101-75-45c0-30.901,57.599-45,75-45c24.901,0,45,20.099,45,45C451,280.899,430.901,301,406,301z"/>
<path style="fill:#FEC478;" d="M256,0v61c24.901,0,45,20.099,45,45c0,17.399-14.099,75-45,75v30c24.901,0,45,20.099,45,45
	c0,24.899-20.099,45-45,45v30c30.901,0,45,57.599,45,75c0,24.899-20.099,45-45,45v61c140.7,0,256-115.3,256-256S396.7,0,256,0z
	 M330.099,117.999c0.3,0,0.3,0,0.3,0c16.8-16.8,46.501-16.8,63.6,0c17.401,17.701,17.401,46.201,0,63.9
	C376,199.6,342.7,204.699,325,187C307.301,169.3,312.7,135.7,330.099,117.999z M393.999,393.999
	c-17.699,17.401-46.199,17.401-63.9,0C312.7,376.3,307,342.7,325,325c17.701-17.999,51.301-12.299,69,5.099c0,0.3,0,0.3,0,0.3
	C411.4,347.8,411.4,376.3,393.999,393.999z M406,301c-17.401,0-75-14.101-75-45c0-30.901,57.599-45,75-45c24.901,0,45,20.099,45,45
	C451,280.899,430.901,301,406,301z"/>
<g>
</g>
<g>
</g>
<g>
</g>
<g>
</g>
<g>
</g>
<g>
</g>
<g>
</g>
<g>
</g>
<g>
</g>
<g>
</g>
<g>
</g>
<g>
</g>
<g>
</g>
<g>
</g>
<g>
</g>
</svg>
