<svg enable-background="new 0 0 512 512" height="512" viewBox="0 0 512 512" width="512" xmlns="http://www.w3.org/2000/svg"><g id="bag_snack_potato_chip_plastic_crunchy"><g><path d="m405.301 85.2v-42.7h-298.899v42.7s-46.882 155.133 0 341.6v42.7h298.898v-42.7c47.552-181.8.001-341.6.001-341.6z" fill="#384850"/><g fill="#9b9c9e"><path d="m373.277 63.85h10.674v21.35h-10.674z"/><path d="m330.576 63.85h21.35v21.35h-21.35z"/><path d="m266.527 63.85h42.699v21.35h-42.699z"/><path d="m202.477 63.85h42.699v21.35h-42.699z"/><path d="m159.777 63.85h21.35v21.35h-21.35z"/><path d="m127.752 63.85h10.674v21.35h-10.674z"/><path d="m127.752 426.8h10.674v21.35h-10.674z"/><path d="m159.777 426.8h21.35v21.35h-21.35z"/><path d="m202.477 426.8h42.699v21.35h-42.699z"/><path d="m266.527 426.8h42.699v21.35h-42.699z"/><path d="m330.576 426.8h21.35v21.35h-21.35z"/><path d="m373.277 426.8h10.674v21.35h-10.674z"/></g><path d="m387.6 405.45h-264.112c-3.963-18.805-10.234-52.177-13.977-90.204 16.936-12.836 66.305-40.977 129.264 6.231 56.57 42.433 116.404 34.053 160.002 13.489-3.716 27.901-8.209 54.124-11.177 70.484z" fill="#e6473c"/><path d="m401.87 309.446c-21.772 13.078-85.751 43.332-150.292-5.044-63.354-47.526-116.777-29.291-144.016-13.213-5.211-77.689 9.982-156.398 15.926-184.64h264.112c5.869 32.349 25.988 123.848 14.27 202.897z" fill="#f3e510"/><path d="m255.852 127.9c-58.963 0-106.75 28.668-106.75 64.05s47.787 64.05 106.75 64.05 106.75-28.668 106.75-64.05-47.788-64.05-106.75-64.05z" fill="#384850"/><path d="m255.852 234.649c-48.883 0-85.4-22.548-85.4-42.699s36.518-42.7 85.4-42.7 85.4 22.549 85.4 42.7-36.518 42.699-85.4 42.699z" fill="#8aba18"/></g></g><g id="Capa_1"/></svg>