<svg height="464pt" viewBox="0 0 464 464" width="464pt" xmlns="http://www.w3.org/2000/svg"><path d="m352 80h112v64h-112zm0 0" fill="#803a32"/><path d="m416 80h32v64h-32zm0 0" fill="#662c26"/><path d="m408 448h-32l8-400h24zm0 0" fill="#e94f4f"/><path d="m440 448h-32v-400h24zm0 0" fill="#cf3a3a"/><path d="m160 0c88.367188 0 160 71.632812 160 160v144c0 88.367188-71.632812 160-160 160s-160-71.632812-160-160v-144c0-88.367188 71.632812-160 160-160zm0 0" fill="#3d4d63"/><path d="m288 160c0-70.691406-57.308594-128-128-128s-128 57.308594-128 128v72h256zm0 0" fill="#2a3845"/><path d="m32 232v72c0 70.691406 57.308594 128 128 128s128-57.308594 128-128v-72zm0 0" fill="#d6d6d4"/><path d="m229.71875 232c-24.976562 92-90.808594 145.992188-144.320312 175.800781 38.933593 28.125 90.34375 32.042969 133.089843 10.140625 42.742188-21.898437 69.597657-65.914062 69.511719-113.941406v-72zm0 0" fill="#c9c9c7"/><path d="m24 224h272v16h-272zm0 0" fill="#3d4d63"/><path d="m64 120c17.671875 0 32 14.328125 32 32v48c0 17.671875-14.328125 32-32 32s-32-14.328125-32-32v-48c0-17.671875 14.328125-32 32-32zm0 0" fill="#803a32"/><path d="m88.289062 131.382812-56.289062 35.183594v19.121094l63.375-39.863281c-1.082031-5.34375-3.523438-10.316407-7.085938-14.441407zm0 0" fill="#662c26"/><path d="m32.609375 206.039062c1.054687 5.355469 3.476563 10.347657 7.03125 14.488282l56.359375-35.511719v-18.910156zm0 0" fill="#662c26"/><path d="m112 120c17.671875 0 32 14.328125 32 32v48c0 17.671875-14.328125 32-32 32s-32-14.328125-32-32v-48c0-17.671875 14.328125-32 32-32zm0 0" fill="#803a32"/><path d="m136.289062 131.382812-56.289062 35.183594v19.121094l63.375-39.863281c-1.082031-5.34375-3.523438-10.316407-7.085938-14.441407zm0 0" fill="#662c26"/><path d="m80.609375 206.039062c1.054687 5.355469 3.476563 10.347657 7.03125 14.488282l56.359375-35.511719v-18.910156zm0 0" fill="#662c26"/><path d="m160 120c17.671875 0 32 14.328125 32 32v48c0 17.671875-14.328125 32-32 32s-32-14.328125-32-32v-48c0-17.671875 14.328125-32 32-32zm0 0" fill="#803a32"/><path d="m184.289062 131.382812-56.289062 35.183594v19.121094l63.375-39.863281c-1.082031-5.34375-3.523438-10.316407-7.085938-14.441407zm0 0" fill="#662c26"/><path d="m128.609375 206.039062c1.054687 5.355469 3.476563 10.347657 7.03125 14.488282l56.359375-35.511719v-18.910156zm0 0" fill="#662c26"/><path d="m208 120c17.671875 0 32 14.328125 32 32v48c0 17.671875-14.328125 32-32 32s-32-14.328125-32-32v-48c0-17.671875 14.328125-32 32-32zm0 0" fill="#803a32"/><path d="m232.289062 131.382812-56.289062 35.183594v19.121094l63.375-39.863281c-1.082031-5.34375-3.523438-10.316407-7.085938-14.441407zm0 0" fill="#662c26"/><path d="m176.609375 206.039062c1.054687 5.355469 3.476563 10.347657 7.03125 14.488282l56.359375-35.511719v-18.910156zm0 0" fill="#662c26"/><path d="m288 200c0 17.671875-14.328125 32-32 32s-32-14.328125-32-32 14.328125-32 32-32 32 14.328125 32 32zm0 0" fill="#69a340"/><path d="m288 152c0 17.671875-14.328125 32-32 32s-32-14.328125-32-32 14.328125-32 32-32 32 14.328125 32 32zm0 0" fill="#7eb457"/><path d="m272 152c0 8.835938-7.164062 16-16 16s-16-7.164062-16-16 7.164062-16 16-16 16 7.164062 16 16zm0 0" fill="#88c25e"/><path d="m272 200c0 8.835938-7.164062 16-16 16s-16-7.164062-16-16 7.164062-16 16-16 16 7.164062 16 16zm0 0" fill="#7eb457"/><path d="m176 80c0 22.089844-17.910156 40-40 40s-40-17.910156-40-40 17.910156-40 40-40 40 17.910156 40 40zm0 0" fill="#ffb531"/><path d="m154.632812 77.113281c0 8.835938-7.164062 16-16 16-8.835937 0-16-7.164062-16-16 0-8.835937 7.164063-16 16-16 8.835938 0 16 7.164063 16 16zm0 0" fill="#f7a116"/><path d="m96 100c0 11.046875-8.953125 20-20 20s-20-8.953125-20-20 8.953125-20 20-20 20 8.953125 20 20zm0 0" fill="#e94f4f"/><path d="m264 100c0 11.046875-8.953125 20-20 20s-20-8.953125-20-20 8.953125-20 20-20 20 8.953125 20 20zm0 0" fill="#e94f4f"/><path d="m184 336c0 13.253906-10.746094 24-24 24s-24-10.746094-24-24 10.746094-24 24-24 24 10.746094 24 24zm0 0" fill="#e94f4f"/><g fill="#ebebe9"><path d="m128 256h16v16h-16zm0 0"/><path d="m224 320h16v16h-16zm0 0"/><path d="m104 368h16v16h-16zm0 0"/><path d="m208 360h16v16h-16zm0 0"/><path d="m216 272h16v16h-16zm0 0"/><path d="m72 296h16v16h-16zm0 0"/><path d="m136 384h16v16h-16zm0 0"/><path d="m160 264h16v16h-16zm0 0"/></g><path d="m32 240h256v16h-256zm0 0" fill="#c9c9c7"/><path d="m232 80c0 22.089844-17.910156 40-40 40s-40-17.910156-40-40 17.910156-40 40-40 40 17.910156 40 40zm0 0" fill="#ffb531"/><path d="m210.632812 77.191406c0 8.835938-7.164062 16-16 16-8.835937 0-16-7.164062-16-16 0-8.835937 7.164063-16 16-16 8.835938 0 16 7.164063 16 16zm0 0" fill="#f7a116"/></svg>