<svg id="Capa_1" enable-background="new 0 0 512 512" viewBox="0 0 512 512" xmlns="http://www.w3.org/2000/svg"><g><path d="m184.037 147.415-19.16-138.008c-.69-4.972 3.172-9.407 8.191-9.407h21.152c5.018 0 8.88 4.433 8.192 9.404l-18.77 135.636z" fill="#c68d7a"/><g><path d="m322.994 269.403c6.181 13.114 2.009 28.588-10.044 37.21l-6.284 4.502c-1.01.721-1.525 1.906-1.329 3.101l1.092 6.902c2.297 14.474-6.408 28.485-20.799 33.481l-6.882 2.39c-1.144.402-1.978 1.35-2.194 2.503l-1.092 5.862c-2.761 14.886-16.442 25.641-32.255 25.353l-6.253-.113c-1.154-.021-2.246.515-2.895 1.432l-2.812 3.966c-9.179 12.949-27.126 14.23-41.621 6.947l-5.285-2.555c-.402-.196 0 0-.443-.031-.639-.062-1.298.052-1.896.35l-4.45 2.235c-14.484 7.283-32.326 6.003-41.515-6.947l-2.812-3.966c-.649-.917-1.731-1.453-2.884-1.432l-6.253.113c-15.813.288-29.494-10.467-32.265-25.353l-1.082-5.862c-.216-1.154-1.051-2.102-2.194-2.503l-6.892-2.39c-14.392-4.996-23.097-19.007-20.789-33.481l1.092-6.902c.185-1.195-.319-2.38-1.329-3.101l-6.284-4.502c-12.053-8.623-16.225-24.086-10.044-37.21l3.214-6.84c.525-1.113.361-2.411-.433-3.369l-5.027-6.047c-9.292-11.177-9.292-27.011 0-38.199l5.027-6.047c.793-.958.958-2.256.433-3.369l-3.214-6.84c-6.191-13.114-2.009-28.577 10.034-37.21l6.294-4.502c1.01-.721 1.514-1.906 1.329-3.101l-1.092-6.902c-2.308-14.474 6.397-28.485 20.789-33.481l6.892-2.39c1.143-.402 1.978-1.35 2.194-2.503l1.082-5.862c2.771-14.886 16.452-25.641 32.265-25.353l6.253.113c1.154.021 2.246-.515 2.884-1.432l2.823-3.966c9.179-12.949 27.073-17.245 41.558-9.962l4.45 2.235c.999.494 2.184.494 3.173 0l4.45-2.235c14.495-7.283 32.389-2.988 41.568 9.962l2.812 3.966c.649.917 1.741 1.453 2.895 1.432l6.253-.113c15.813-.288 29.494 10.467 32.255 25.353l1.092 5.872c.216 1.143 1.051 2.091 2.194 2.493l6.344 3.221c14.392 4.996 21.38 19.941 19.082 34.405l-1.092 6.902c-.196 1.195.319 2.38 1.329 3.101l6.284 4.502c12.053 8.623 15.718 23.075 9.537 36.189l-3.224 6.84c-.525 1.113-.35 2.411.443 3.369l5.017 6.047c.371.453.731.907 1.071 1.37 8.211 11.085 10.611 25.37 1.69 36.094l-5.017 6.047c-.793.958-.968 2.256-.443 3.369z" fill="#f07281"/><path d="m319.77 262.562c-.525-1.113-.35-2.411.443-3.369l5.017-6.047c9.292-11.177 9.292-27.011 0-38.199l-5.017-6.047c-.793-.958-.968-2.256-.443-3.369l3.224-6.84c6.181-13.114 2.009-28.588-10.044-37.21l-6.284-4.502c-1.01-.721-1.525-1.906-1.329-3.101l1.092-6.902c2.297-14.464-6.408-28.485-20.799-33.481l-6.882-2.39s19.529 47.198 2.041 110.905c-1.217 4.432-4.267 8.056-8.704 9.256-12.647 3.42-23.525 11.502-30.455 22.558-1.25 1.994-3.107 3.557-5.29 4.439-7.772 3.142-14.713 8.16-20.279 14.788-5.566 6.636-9.319 14.339-11.067 22.541-.49 2.3-1.704 4.4-3.45 5.975-6.226 5.611-11.02 12.703-13.977 20.83-2.962 8.139-3.847 16.663-2.682 24.975.34 2.423-.215 4.867-1.348 7.036-2.326 4.448-3.985 9.215-4.932 14.183-.615 3.226-2.551 6.045-5.342 7.776-11.282 6.998-23.655 13.574-37.225 19.626 9.189 12.949 27.083 17.245 41.568 9.962l4.45-2.235c.999-.495 2.184-.495 3.173 0l4.45 2.235c14.495 7.283 32.389 2.987 41.568-9.962l2.812-3.966c.649-.917 1.741-1.453 2.895-1.432l6.253.113c15.813.288 29.494-10.467 32.255-25.353l1.092-5.862c.216-1.154 1.051-2.102 2.194-2.503l6.882-2.39c14.392-4.996 23.097-19.007 20.799-33.481l-1.092-6.902c-.196-1.195.319-2.38 1.329-3.101l6.284-4.502c12.053-8.623 16.225-24.096 10.044-37.21z" fill="#eb5569"/><g fill="#eb5569"><circle cx="95.395" cy="316.192" r="7.726"/><circle cx="117.511" cy="336.948" r="7.726"/><circle cx="126.53" cy="308.927" r="7.726"/><circle cx="247.656" cy="179.18" r="7.726"/><circle cx="260.608" cy="208.239" r="7.726"/></g><path d="m467.302 395.036-3.411 3.311c-1.057 1.026-1.336 2.615-.692 3.941l2.053 4.222c5.738 11.802 1.372 24.108-10.61 29.461l-4.287 1.915c-1.345.601-2.153 1.998-2.003 3.464l.483 4.713c1.336 13.038-7.508 24.664-20.58 25.601l-4.725.339c-1.471.106-2.708 1.144-3.066 2.575l-1.145 4.574c-3.186 12.722-15.455 20.087-28.07 16.502l-4.536-1.289c-1.416-.402-2.931.149-3.757 1.367l-2.647 3.904c-7.36 10.855-22.155 13.498-32.773 5.8l-3.82-2.769c-1.195-.866-2.811-.866-4.006 0l-3.82 2.769c-10.618 7.698-24.415 5.225-31.774-5.629l-2.647-3.904c-.826-1.219-2.341-1.77-3.757-1.367l-4.537 1.289c-12.615 3.585-23.948-1.484-27.134-14.205l-3.105-4.934c-.174-.694-1.427-1.431-1.941-1.879-.545-.475-1.239-.778-1.996-.832l-4.725-.339c-13.072-.938-22.78-12.499-21.444-25.536l.483-4.713c.15-1.466-.657-2.863-2.003-3.464l-4.287-1.915c-11.981-5.353-17.153-19.561-11.415-31.363l2.052-4.221c.644-1.325.365-2.914-.692-3.941l-3.411-3.311c-9.398-9.123-9.398-24.209 0-33.333l3.411-3.311c1.057-1.026 1.336-2.615.692-3.941l-2.053-4.222c-5.738-11.802-.566-26.01 11.415-31.363l4.287-1.915c1.345-.601 2.153-1.998 2.003-3.464l-.483-4.713c-1.336-13.038 8.372-24.598 21.444-25.536l4.725-.339c1.471-.106 2.708-1.144 3.066-2.575l1.145-4.574c3.186-12.722 16.266-20.285 28.881-16.7l4.536 1.289c1.416.402 2.931-.149 3.757-1.367l2.647-3.904c7.36-10.855 22.241-13.468 32.858-5.771l3.82 2.769c1.195.866 2.811.866 4.006 0l3.82-2.769c10.618-7.698 25.499-5.084 32.858 5.77l2.647 3.904c.826 1.219 2.341 1.77 3.757 1.367l4.537-1.289c12.615-3.585 25.694 3.978 28.88 16.7l1.146 4.574c.358 1.431 1.595 2.469 3.066 2.575l4.725.339c.919.066 1.821.184 2.703.352 11.679 2.218 18.744 13.854 17.502 25.975l-.483 4.713c-.15 1.466.657 2.863 2.003 3.464l4.287 1.915c11.981 5.353 16.582 18.446 10.844 30.247l-2.052 4.222c-.644 1.325-.365 2.914.692 3.941l3.411 3.312c9.399 9.123 8.643 24.399-.755 33.522z" fill="#f07281"/><circle cx="341.712" cy="378.505" fill="#f8f6f6" r="92.697"/><g><path d="m465.764 402.423c-.644-1.325-.365-2.914.692-3.941l3.411-3.311c9.398-9.123 9.399-24.209 0-33.333l-3.411-3.311c-1.057-1.026-1.336-2.615-.692-3.941l2.052-4.222c5.738-11.802.567-26.01-11.415-31.363l-4.287-1.915c-1.345-.601-2.153-1.998-2.003-3.464l.483-4.713c1.242-12.121-7.064-22.96-18.742-25.179 9.471 18.669 14.813 39.787 14.813 62.154 0 37.424-14.653 72.846-38.898 97.649-24.978 25.553-60.12 39.925-98.676 39.925-16.922 0-33.126-3.064-48.099-8.653.514.448.896 1.048 1.07 1.742l1.146 4.574c3.186 12.722 16.265 20.285 28.88 16.7l4.537-1.289c1.416-.402 2.931.149 3.757 1.367l2.647 3.904c7.36 10.855 22.241 13.468 32.858 5.77l3.82-2.77c1.195-.866 2.811-.866 4.006 0l3.82 2.769c10.618 7.698 25.499 5.084 32.858-5.771l2.647-3.904c.826-1.219 2.341-1.77 3.757-1.367l4.536 1.289c12.615 3.585 25.695-3.978 28.881-16.7l1.145-4.574c.358-1.431 1.595-2.469 3.066-2.575l4.725-.339c13.072-.938 22.781-12.499 21.444-25.536l-.483-4.713c-.15-1.466.657-2.862 2.003-3.464l4.287-1.915c11.981-5.353 17.152-19.561 11.415-31.363z" fill="#eb5569"/></g><path d="m372.676 378.505c0 29.878-10.247 47.003-30.965 47.003-12.929 0-24.331-2.336-31.076-16.69-4.064-8.647-6.437-19.08-6.437-30.313 0-29.878 16.796-54.1 37.514-54.1 3.636 0 7.151.746 10.475 2.137 15.62 6.538 20.489 27.328 20.489 51.963z" fill="#c68d7a"/><path d="m352.187 326.542c4.064 8.647 6.433 19.093 6.433 30.326 0 29.878-16.796 54.1-37.514 54.1-3.635 0-7.147-.76-10.471-2.151 6.745 14.354 18.147 23.787 31.076 23.787 20.718 0 37.514-24.221 37.514-54.1 0-24.635-11.417-45.425-27.038-51.962z" fill="#bc7c63"/></g></g><g/><g/><g/><g/><g/><g/><g/><g/><g/><g/><g/><g/><g/><g/><g/></svg>