<svg id="Macaroni" enable-background="new 0 0 64 64" viewBox="0 0 64 64" xmlns="http://www.w3.org/2000/svg"><g><g><path d="m6.54148 55.29399c-18.79135-17.22284 7.04291-45.40987 25.83426-28.18703-3.05031 3.32811-6.10085 6.65646-9.15116 9.98457-5.47862-5.02132-13.01056 3.19657-7.53194 8.21789-3.05045 3.32825-6.10072 6.65631-9.15116 9.98457z" fill="#ffdc6e"/><path d="m15.69764 45.30946c-3.05351 3.32771-6.10691 6.65541-9.16031 9.98312-11.72012-10.75101-6.08861-25.76223 4.3881-31.35714-.9142 1.5724-1.4444 3.4191-1.4444 5.37551 0 3.8762 2.0478 7.27701 5.1195 9.16031-1.20669 2.02949-1.225 4.7173 1.09711 6.8382z" opacity=".1"/><g fill="#ec9f39"><ellipse cx="27.8" cy="32.099" rx="6.772" ry="3.296" transform="matrix(.676 -.737 .737 .676 -14.647 30.905)"/><ellipse cx="11.117" cy="50.302" rx="6.772" ry="3.296" transform="matrix(.676 -.737 .737 .676 -33.477 24.51)"/></g></g><g><path d="m63.55095 40.69017c4.95042 25.00469-32.55662 32.43031-37.50704 7.42562 4.42855-.87676 8.85741-1.75359 13.28596-2.63035 1.44329 7.29012 12.37842 5.12519 10.93512-2.16493 4.42874-.87679 8.85722-1.75354 13.28596-2.63034z" fill="#ffdc6e"/><path d="m54.40488 61.03367c-10.22081 5.52181-25.34162 2.32211-28.35853-12.9267 4.4247-.85941 8.84951-1.737 13.29252-2.61471.5851 3.05351 2.8889 4.4613 5.2292 4.49791-.0183.0914-.0183.2011-.0183.31079-.00001 5.64981 4.3333 10.27561 9.85511 10.73271z" opacity=".1"/><g fill="#ec9f39"><ellipse cx="32.687" cy="46.801" rx="6.772" ry="3.296" transform="matrix(.981 -.194 .194 .981 -8.467 7.239)"/><ellipse cx="56.908" cy="42.005" rx="6.772" ry="3.296" transform="matrix(.981 -.194 .194 .981 -7.074 11.852)"/></g></g><g><path d="m24.51867 6.97145c17.22284-18.79135 45.40987 7.04292 28.18703 25.83427-3.32811-3.05031-6.65646-6.10085-9.98457-9.15116 5.02132-5.47862-3.19657-13.01056-8.21789-7.53194-3.32826-3.05045-6.65632-6.10072-9.98457-9.15117z" fill="#ffdc6e"/><path d="m41.74639 12.87021c0 .95069.14619 1.86489.4205 2.7243-2.0661-1.737-5.22921-2.12101-7.66112.5302-3.32759-3.0534-6.65519-6.1068-9.983-9.16031 7.75241-8.46551 17.75371-7.86211 24.79324-2.9254-4.24203.40219-7.56962 4.2053-7.56962 8.83121z" opacity=".1"/><g fill="#ec9f39"><ellipse cx="47.641" cy="28.23" rx="3.296" ry="6.772" transform="matrix(.676 -.737 .737 .676 -5.36 44.277)"/><ellipse cx="29.511" cy="11.547" rx="3.296" ry="6.772" transform="matrix(.676 -.737 .737 .676 1.059 25.501)"/></g></g></g></svg>