<svg id="Layer_1" enable-background="new 0 0 512 512" viewBox="0 0 512 512" xmlns="http://www.w3.org/2000/svg"><g><path d="m325.515 217.736c-1.143-1.579-34.801-26.129-97.51-36.871-3.322-.569-6.105 2.525-5.228 5.792 2.606 9.713 10.761 27.469 36.159 37.712 36.248 14.619 66.579-6.633 66.579-6.633z" fill="#ffe07d"/><path d="m.606 217.243 25.468 45.683c2.703 4.848 2.703 10.757 0 15.605l-25.468 45.683c-1.896 3.402.925 7.496 4.767 6.937 41.582-6.051 86.454-50.627 86.454-50.627v-19.592s-44.873-44.576-86.454-50.627c-3.842-.558-6.663 3.536-4.767 6.938z" fill="#ffe07d"/><path d="m74.97 283.31c62.81 16.55 159.819 43.52 235.869 43.52 22.25 0 44.5-1.03 65.67-2.95 2.38-13.11 18.69-1.94 18.69-1.94 74.13-8.77 129.629-28.41 114.219-51.21-27.16-40.17-63.52-61.34-173.189-61.34-76.04 0-198.449 32.21-261.258 48.75-19.341 5.1-19.341 20.08-.001 25.17z" fill="#b9e4ef"/><path d="m509.417 270.73c-24.43-36.132-56.316-56.889-142.291-60.697 62.696 7.198 89.457 26.963 110.624 58.27 15.41 22.8-111.972 56.1-198.579 56.1-4.596 0-9.272-.103-14.009-.292 15.735 1.72 31.093 2.718 45.676 2.718 22.25 0 44.5-1.03 65.67-2.95 2.38-13.11 18.69-1.94 18.69-1.94 74.129-8.769 129.629-28.409 114.219-51.209z" fill="#93d8e4"/><g><circle cx="452.319" cy="248.171" fill="#f6f1f1" r="17.513"/></g><path d="m300.886 270.846c.454-.03.907.014 1.35.129 3.668.955 20.921 5.978 24.42 16.722 3.305 10.147-59.902 13.302-79.837 14.043-2.2.082-3.295-2.805-1.683-4.411 8.221-8.191 27.981-24.618 55.75-26.483z" fill="#b9e4ef"/><path d="m338.718 261.7c5.53 25.89 24.24 48.97 37.01 62.25 6.6-.58 13.11-1.25 19.47-2.01-8.54-7.77-35.6-34.27-41.81-63.369-.86-4.05-4.84-6.63-8.9-5.77-4.05.869-6.63 4.849-5.77 8.899z" fill="#7ad0df"/><path d="m300.886 270.846c.454-.03.907.014 1.35.129 3.668.955 20.921 5.978 24.42 16.722 3.305 10.147-59.902 13.302-79.837 14.043-2.2.082-3.295-2.805-1.683-4.411 8.221-8.191 27.981-24.618 55.75-26.483z" fill="#ffe07d"/><path d="m326.656 287.698c-3.5-10.744-20.752-15.767-24.42-16.722-.442-.115-.896-.16-1.35-.13-10.381.697-19.642 3.43-27.6 7.006.32.009.637.042.95.124 3.668.955 20.92 5.978 24.42 16.722.394 1.209-.166 2.318-1.475 3.336 17.105-2.155 31.074-5.427 29.475-10.336z" fill="#ffd064"/></g><g/><g/><g/><g/><g/><g/><g/><g/><g/><g/><g/><g/><g/><g/><g/></svg>