<svg id="Capa_1" enable-background="new 0 0 496.374 496.374" viewBox="0 0 496.374 496.374" xmlns="http://www.w3.org/2000/svg"><g><path d="m196.59 263.116-21.572 61.267 3.02.809c8.659 2.51 23.973 6.061 31.238 7.712 2.514.572 5.139-.188 6.962-2.011l53.095-53.095z" fill="#7587b3"/><path d="m252.272 156.331c-10.098-7.729-22.052-12.557-34.578-14.05l19.635 85.022 101.201-4.954z" fill="#7587b3"/><g fill="#87a1c1"><path d="m217.693 142.281c-4.451-.531-8.361 2.973-8.361 7.456v82.66l65.496-5.094-41.617-70.972c-4.531-7.729-9.896-12.557-15.518-14.05z"/><path d="m299.332 279.873v66.75c0 4.684 4.261 8.295 8.855 7.381 20.625-4.108 36.145-22.289 36.145-44.131v-30z"/><path d="m134.578 250.336-13.862 51.735c-1.072 4 1.301 8.112 5.301 9.185l48.985 13.142c2.589.695 5.351-.045 7.247-1.941l51.841-51.841z"/><path d="m64.895 220.905-35.521-20.508c-6.43-3.72-13.47-6.195-20.754-7.331-4.975-.776-9.305 3.553-8.529 8.528 1.136 7.284 3.609 14.324 7.322 20.755.01 0 17.331 30 17.331 30l-17.321 30c-3.72 6.43-6.195 13.47-7.331 20.754-.776 4.975 3.553 9.305 8.528 8.529 7.284-1.136 14.324-3.609 20.755-7.322 0-.006 21.198-12.247 35.521-20.518z"/></g><path d="m100.573 273.378v-42.059c-7.714 2.067-15.934.985-22.85-3.008l-12.828-7.406c-6.647 8.736-10.458 19.635-10.459 31.443 0 11.808 3.811 22.709 10.459 31.446 7.307-4.219 12.828-7.407 12.828-7.407 6.917-3.994 15.136-5.076 22.85-3.009z" fill="#7587b3"/><path d="m84.437 252.349c0 9.073 5.379 18.147 16.137 21.03l85.531 22.918c35.933 10.445 73.924 16.052 113.228 16.052 32.071 0 63.263-3.751 93.181-10.801l23.127-79.199z" fill="#c2f0fc"/><path d="m361.259 197.06c-20.19-3.099-40.87-4.711-61.927-4.711-39.303 0-77.295 5.608-113.227 16.052l-85.532 22.918c-10.758 2.883-16.137 11.956-16.137 21.03h331.204c-4.126-27.949-25.833-50.685-54.381-55.289z" fill="#a8cae0"/><path d="m416.147 256.662h-29.773c0-8.284-6.716-15-15-15s-15 6.716-15 15v15.526c0 19.101 17.582 33.24 36.139 29.359 11.153-2.628 22.134-5.7 32.911-9.228z" fill="#98b6d1"/><path d="m488.436 239.124c-11.786-6.235-23.922-11.894-36.362-16.963l-26.281 70.034c21.75-7.144 42.693-16.067 62.642-26.621 10.585-5.6 10.585-20.851.001-26.45z" fill="#b9dff0"/><path d="m452.074 222.16c-28.771-11.724-59.187-20.246-90.815-25.1 14.482 2.336 25.115 14.908 25.115 29.602v37.055c0 20.313 19.745 34.698 39.05 28.603.123-.04.245-.08.368-.121 21.3-6.997 35.583-27.041 35.583-49.461v-6.713z" fill="#c2f0fc"/><circle cx="446.373" cy="236.025" fill="#515985" r="15"/></g><g/><g/><g/><g/><g/><g/><g/><g/><g/><g/><g/><g/><g/><g/><g/></svg>