<svg id="Layer_1" height="512" viewBox="0 0 64 64" width="512" xmlns="http://www.w3.org/2000/svg" data-name="Layer 1"><path d="m32 13.12v4.88s0 11.87-7.19 19.64a10.471 10.471 0 0 1 -4.76 2.93 67.539 67.539 0 0 0 7.95-32.57 5.578 5.578 0 0 1 2.95 1.87 5.463 5.463 0 0 1 1.05 3.25z" fill="#c4804d"/><path d="m28 8a67.539 67.539 0 0 1 -7.95 32.57 11.125 11.125 0 0 1 -3.05.43c6-16 4-37 4-37a2.96 2.96 0 0 1 2.56-1c2.59 0 4.44 2.24 4.44 5z" fill="#d6966b"/><path d="m21 4s2 21-4 37c-6-16-4-37-4-37a4.728 4.728 0 0 1 4-3 4.728 4.728 0 0 1 4 3z" fill="#c4804d"/><path d="m13 4s-2 21 4 37a11.179 11.179 0 0 1 -3.05-.43 67.539 67.539 0 0 1 -7.95-32.57c0-2.76 1.85-5 4.44-5a2.96 2.96 0 0 1 2.56 1z" fill="#d6966b"/><path d="m13.95 40.57a10.471 10.471 0 0 1 -4.76-2.93c-7.19-7.77-7.19-19.64-7.19-19.64v-4.88a5.463 5.463 0 0 1 1.05-3.25 5.578 5.578 0 0 1 2.95-1.87 67.539 67.539 0 0 0 7.95 32.57z" fill="#c4804d"/><circle cx="17" cy="6.5" fill="#d6966b" r="1.5"/><g fill="#c4804d"><circle cx="9" cy="8" r="1"/><circle cx="25" cy="14" r="1"/><path d="m32 50.88v-4.88s0-11.87 7.19-19.64a10.471 10.471 0 0 1 4.76-2.93 67.539 67.539 0 0 0 -7.95 32.57 5.578 5.578 0 0 1 -2.95-1.87 5.463 5.463 0 0 1 -1.05-3.25z"/></g><path d="m36 56a67.539 67.539 0 0 1 7.95-32.57 11.125 11.125 0 0 1 3.05-.43c-6 16-4 37-4 37a2.96 2.96 0 0 1 -2.56 1c-2.59 0-4.44-2.24-4.44-5z" fill="#d6966b"/><path d="m43 60s-2-21 4-37c6 16 4 37 4 37a4.728 4.728 0 0 1 -4 3 4.728 4.728 0 0 1 -4-3z" fill="#c4804d"/><path d="m51 60s2-21-4-37a11.179 11.179 0 0 1 3.05.43 67.539 67.539 0 0 1 7.95 32.57c0 2.76-1.85 5-4.44 5a2.96 2.96 0 0 1 -2.56-1z" fill="#d6966b"/><path d="m50.05 23.43a10.471 10.471 0 0 1 4.76 2.93c7.19 7.77 7.19 19.64 7.19 19.64v4.88a5.463 5.463 0 0 1 -1.05 3.25 5.578 5.578 0 0 1 -2.95 1.87 67.539 67.539 0 0 0 -7.95-32.57z" fill="#c4804d"/><circle cx="47" cy="57.5" fill="#d6966b" r="1.5"/><circle cx="55" cy="56" fill="#c4804d" r="1"/><circle cx="39" cy="50" fill="#c4804d" r="1"/></svg>