<svg id="Layer_1" enable-background="new 0 0 512 512" viewBox="0 0 512 512" xmlns="http://www.w3.org/2000/svg"><g><g><path d="m281.327 346.683v52.393c0 56.008 45.566 101.574 101.574 101.574l34.98-79.087-34.98-74.88z" fill="#ffea00"/><path d="m382.901 346.683v153.967c56.008 0 101.574-45.566 101.574-101.574v-52.393z" fill="#ffd300"/></g><g><path d="m281.625 481.987v30.013h101.276l19.126-13.121-19.126-16.892z" fill="#ffd300"/><path d="m382.901 481.987h101.276v30.013h-101.276z" fill="#ffb02f"/></g><g><g><g><path d="m127.651 29.878-45.896 19.999v100.799l-24.424 25.728c-19.221 22.697-29.806 51.575-29.806 81.317v3.747l100.126 108.418 22.948-199.004z" fill="#f5f8ff"/><path d="m197.97 176.404-24.424-25.728v-100.799l-45.896-23.005v353.014l100.126-118.418v-3.747c0-29.742-10.585-58.62-29.806-81.317z" fill="#dfe8ff"/><path d="m127.651 0h-45.896v49.877h45.896l22.948-33.004z" fill="#555c7c"/></g><path d="m127.651 0h45.896v49.877h-45.896z" fill="#373a5b"/></g><g><path d="m159.191 428.959-31.54-167.49h-100.126v197.777l100.126 17.835z" fill="#d7e183"/><path d="m27.525 459.246v52.754h100.126l20.037-23.029-20.037-29.725z" fill="#f5f8ff"/></g><g><path d="m227.776 261.469h-100.125v220.531l100.125-22.754z" fill="#97ce7e"/><path d="m127.651 459.246h100.126v52.754h-100.126z" fill="#dfe8ff"/></g><g><path d="m71.794 316.839v30.227c0 30.518 24.829 55.347 55.348 55.347h.508l17.174-31.206-17.174-54.368z" fill="#97ce7e"/><path d="m183.873 372.187c0-30.519-24.829-55.348-55.347-55.348h-.874v85.574h56.222v-30.226z" fill="#25ae7f"/></g></g></g><g/><g/><g/><g/><g/><g/><g/><g/><g/><g/><g/><g/><g/><g/><g/></svg>