<svg id="Capa_1" enable-background="new 0 0 512 512" viewBox="0 0 512 512" xmlns="http://www.w3.org/2000/svg"><g><path d="m325.5 175.065c0 44.715-11.915 87.745-33.511 125.194-21.596 37.438-50.118 59.11-88.825 81.508l-3.674 2.131-55.077 31.877c-11.965 6.921-26.457 13.561-37.559 5.32-4.404-3.269-11.084-4.76-13.476-9.501-2.421-4.796-3.722-10.142-3.722-15.634 0-.984.041-1.969.122-2.963.7-8.18 1.055-16.36 1.055-24.539 0-32.902-5.673-65.621-16.806-96.706l-19.709-55.006c-4.405-13.549-6.8-28-6.8-43.01 0-77.708 63.774-140.518 141.848-138.955 5.365.108 10.651.527 15.843 1.231 38.268 5.192 67.133 29.018 88.901 58.837 17.04 23.352 31.39 49.252 31.39 80.216z" fill="#ffe177"/><path d="m205.209 36.011c16.266 8.793 30.577 20.761 42.15 35.046 10.162 12.542 7.338 31.162-6.181 39.983-11.842 7.727-22.831 17.458-34.023 29.033-30.334 31.38-47.039 72.705-47.039 116.364 0 28.602 4.46 56.977 13.089 84.063 3.768 11.827-.881 24.73-11.381 31.35-2.658 1.676-5.354 3.306-8.088 4.888l-58.749 34.004c-.526.304-1.064.577-1.601.852 2.395 4.74 5.87 8.945 10.274 12.212 11.106 8.239 26.048 9.089 38.016 2.161l55.075-31.877c.001.001.001.002.002.003l.011-.01 3.661-2.119c77.406-44.802 125.069-127.461 125.069-216.897.001-70.505-52.051-129.798-120.285-139.056z" fill="#ffd15b"/><path d="m457.792 254.508c0-66.79-40.422-121.978-103.226-135.344-10.268-2.185-20.954-3.236-31.924-3.017-75.857 1.52-136.134 64.416-136.134 140.288 0 89.437 47.663 172.095 125.069 216.897l24.576 14.225 34.044 16.775c11.969 6.927 25.205 6.452 36.312-1.788 9.658-7.165 10.582-16.677 9.553-28.658-3.528-41.08 1.32-82.552 15.228-121.367l19.71-55.005c4.403-13.543 6.792-27.994 6.792-43.006z" fill="#ffe177"/><path d="m354.566 119.165c34.055 25.332 56.122 65.877 56.122 111.582 0 15.012-2.39 29.463-6.792 43.006l-19.71 55.005c-13.908 38.815-19.282 80.173-15.753 121.253 1.029 11.982-4.226 23.641-13.884 30.805-5.472 4.059-11.876 6.316-18.396 6.741l34.173 19.779c11.969 6.927 26.91 6.078 38.016-2.161 9.658-7.165 14.913-18.824 13.884-30.805-3.528-41.08 1.845-82.438 15.753-121.253l19.71-55.005c4.403-13.543 6.792-27.995 6.792-43.006.001-66.79-47.11-122.576-109.915-135.941z" fill="#ffd15b"/><path d="m387.689 486.553c-1.618 0-3.214-.429-4.615-1.24l-58.749-34.004c-34.123-19.75-62.57-48.243-82.264-82.398-19.695-34.155-30.105-73.049-30.105-112.475 0-30.148 11.531-58.68 32.47-80.34 20.932-21.654 48.891-33.909 78.728-34.507.787-.016 1.56-.023 2.343-.023 62.606 0 113.539 50.934 113.539 113.54 0 11.877-1.828 23.581-5.435 34.795l-19.576 54.632c-15.249 42.557-21.02 86.973-17.151 132.015.276 3.21-1.104 6.271-3.691 8.191-2.023 1.499-4.104 1.814-5.494 1.814z" fill="#ffd15b"/><path d="m393.953 164.58c10.676 19.675 16.736 42.208 16.736 66.167 0 15.012-2.39 29.463-6.792 43.006l-19.71 55.005c-13.908 38.815-19.282 80.173-15.753 121.253.717 8.343-1.613 16.529-6.355 23.15l20.995 12.152c1.401.811 2.997 1.24 4.615 1.24 1.39 0 3.47-.315 5.493-1.815 2.587-1.919 3.967-4.981 3.691-8.191-3.868-45.042 1.902-89.458 17.151-132.015l19.576-54.632c3.607-11.215 5.435-22.919 5.435-34.795 0-36.92-17.706-69.776-45.082-90.525z" fill="#ffc344"/><g><path d="m185.144 82.711c-4.204 0-7.611-3.408-7.611-7.611v-20.534c0-15.194-5.038-30.242-14.185-42.371-2.531-3.356-1.863-8.129 1.494-10.66 3.358-2.532 8.129-1.862 10.66 1.494 11.127 14.754 17.255 33.057 17.255 51.538v20.533c-.001 4.203-3.409 7.611-7.613 7.611z" fill="#918291"/></g><g><path d="m185.464 86.949c-13.008 0-26.011-3.079-37.869-9.24-3.73-1.938-5.183-6.533-3.245-10.264 1.938-3.73 6.531-5.184 10.264-3.245 19.316 10.036 42.382 10.037 61.7 0 3.73-1.939 8.326-.485 10.263 3.245 1.938 3.73.485 8.326-3.245 10.264-11.854 6.16-24.864 9.24-37.868 9.24z" fill="#ffd15b"/></g><path d="m329.375 397.761-17.839-13.604c-43.406-33.102-62.22-89.339-47.469-141.896l6.062-21.6c1.464-5.215 7.726-7.31 12.033-4.025l17.839 13.604c43.406 33.102 62.22 89.339 47.469 141.896l-6.062 21.6c-1.464 5.215-7.726 7.31-12.033 4.025z" fill="#ffc344"/></g><g/><g/><g/><g/><g/><g/><g/><g/><g/><g/><g/><g/><g/><g/><g/></svg>