<svg id="Capa_1" enable-background="new 0 0 512 512" viewBox="0 0 512 512" xmlns="http://www.w3.org/2000/svg"><g><g><path d="m233.33 104.316-13.525-25.144c-11.742-21.828-17.888-46.227-17.888-71.012v-4.05c0-2.27-1.84-4.11-4.11-4.11h-23.484c-2.27 0-4.11 1.84-4.11 4.11v4.05c0 24.786-6.146 49.185-17.888 71.012l-13.525 25.144z" fill="#c68d7a"/><path d="m354.836 248.794c0 93.205-75.566 155.23-168.771 155.23-19.252 0-36.22 5.937-53.452 0-20.075-6.91-39.957-13.137-55.798-26.603-36.413-30.954-59.514-77.093-59.514-128.627 0-93.215 75.557-168.772 168.762-168.772 19.805 0 38.816 3.412 56.474 9.681 26.326 9.346 45.312 27.459 63.778 47.662 27.442 30.01 48.521 67.547 48.521 111.429z" fill="#b289c9"/><path d="m242.533 89.715c7.221 6.139 13.918 12.877 20.014 20.135 9.878 11.759 4.611 29.837-10.016 34.519-79.994 25.603-135.042 101.437-135.042 191.258 0 7.682.431 15.263 1.271 22.72 1.707 15.152-12.115 27.359-26.899 23.628-5.111-1.29-10.132-2.809-15.046-4.553 15.84 13.466 34.202 24.052 54.271 30.967.001.001.001.003.001.004.052.018.104.031.155.049 17.188 5.904 35.628 9.117 54.82 9.117 93.274.001 169.068-76.049 168.768-169.323-.235-73.161-47.027-135.35-112.297-158.521z" fill="#a274bf"/><g><circle cx="318.32" cy="335.621" fill="#f07281" r="168.767"/><path d="m398.173 186.912c24.456 29.283 39.18 66.975 39.18 108.111 0 26.998-75.137 41.271-86.409 63.9-18.786 37.716 17.526 78.653-22.145 93.809-18.702 7.145-39.001 11.058-60.213 11.058-28.889 0-56.079-7.264-79.853-20.057 30.958 37.068 77.515 60.656 129.587 60.656 93.208 0 168.767-75.56 168.767-168.767 0-64.319-35.984-120.228-88.914-148.71z" fill="#eb5569"/><path d="m318.32 512c-97.256 0-176.379-79.123-176.379-176.379s79.123-176.379 176.379-176.379 176.379 79.123 176.379 176.379-79.123 176.379-176.379 176.379zm0-337.534c-88.862 0-161.156 72.294-161.156 161.156s72.294 161.156 161.156 161.156c88.861 0 161.156-72.294 161.156-161.156s-72.295-161.156-161.156-161.156z" fill="#b289c9"/></g><ellipse cx="130.579" cy="96.711" fill="#97da7b" rx="34.141" ry="28.457"/><ellipse cx="241.551" cy="96.711" fill="#97da7b" rx="34.141" ry="28.457"/><ellipse cx="186.065" cy="96.711" fill="#9be69d" rx="53.452" ry="44.553"/></g><g fill="#fff"><path d="m357.931 267.013c17.386-30.114-4.092-68.011-38.864-68.197-.249-.001-.498-.002-.747-.002s-.498.001-.747.002c-34.772.186-56.25 38.083-38.864 68.197l39.611 95.053z"/><path d="m397.563 335.621-100.144-20.901 60.528 89.538c17.299 29.962 60.704 30.574 78.285.776.252-.427.501-.855.749-1.285 17.437-30.302-4.458-68.128-39.418-68.128z"/><path d="m199.658 403.749c.247.43.497.858.749 1.285 17.581 29.798 60.986 29.187 78.285-.776l72.252-101.262-111.868 32.625c-34.96 0-56.855 37.826-39.418 68.128z"/></g><path d="m318.32 335.621h79.243c34.961 0 56.855-37.825 39.418-68.127-.247-.43-.497-.858-.749-1.285-17.581-29.798-60.986-29.187-78.285.776z" fill="#ebebeb"/><path d="m318.32 335.621-39.611 68.608c-17.386 30.113 4.092 68.011 38.864 68.197.249.001.498.002.747.002s.498-.001.747-.002c34.772-.186 56.25-38.083 38.864-68.197z" fill="#ebebeb"/><path d="m318.32 335.621-39.627-68.637c-17.299-29.962-60.704-30.574-78.285-.776-.252.427-.501.855-.749 1.285-17.437 30.302 4.458 68.128 39.418 68.128z" fill="#ebebeb"/></g><g/><g/><g/><g/><g/><g/><g/><g/><g/><g/><g/><g/><g/><g/><g/></svg>