<svg id="Capa_1" enable-background="new 0 0 512 512" height="512" viewBox="0 0 512 512" width="512" xmlns="http://www.w3.org/2000/svg"><g><path d="m256 462.395c115.821 0 201.208-131.883 244.109-216.598 25.664-50.679 8.6-112.98-39.763-142.78-86.688-53.413-204.346-53.413-204.346-53.413s-117.659 0-204.346 53.414c-48.363 29.8-65.427 92.101-39.763 142.78 42.901 84.715 128.288 216.597 244.109 216.597z" fill="#ffe4c1"/><path d="m460.346 103.018c-4.63-2.853-9.353-5.544-14.137-8.101 8.748 26.852 7.165 57.03-6.458 83.932-42.901 84.715-128.288 216.598-244.109 216.598-47.039 0-89.057-21.754-125.249-53.266 46.418 63.16 109.428 120.214 185.607 120.214 115.821 0 201.208-131.882 244.109-216.598 25.664-50.678 8.6-112.979-39.763-142.779z" fill="#f1d0a5"/><g><path d="m505.881 232.211c-44.176-37.661-101.39-57.163-144.879-67.143-57.423-13.175-104.44-13.112-104.918-13.133h-.177c-.447 0-47.474-.042-104.908 13.133-43.489 9.98-100.704 29.481-144.879 67.143-4.6-13.175-6.546-26.828-6.036-40.273 13.861-10.084 29.086-19.242 45.612-27.442 28.993-14.392 62.044-25.86 98.227-34.102 60.524-13.778 108.925-13.841 112.078-13.841 3.153-.01 51.554.062 112.078 13.841 36.183 8.242 69.234 19.71 98.227 34.102 16.525 8.2 31.75 17.358 45.612 27.442.508 13.444-1.438 27.098-6.037 40.273z" fill="#e2bcaf"/></g><g><path d="m485.13 273.951c-5.599 10.032-11.686 20.407-18.243 30.886-37.411-31.594-82.805-48.619-118.01-57.694-50.773-13.091-92.347-13.091-92.784-13.071h-.198c-.427.01-41.99-.031-92.774 13.071-35.205 9.074-80.598 26.1-118.01 57.694-6.556-10.479-12.644-20.854-18.243-30.886 12.207-9.865 25.59-18.857 40.086-26.932 26.058-14.507 55.758-26.068 88.278-34.383 54.228-13.851 97.748-13.945 100.766-13.945 3.049.031 46.527.094 100.766 13.945 32.52 8.315 62.22 19.876 88.278 34.383 14.499 8.075 27.881 17.067 40.088 26.932z" fill="#e2bcaf"/></g><path d="m511.916 191.937c-13.861-10.084-29.086-19.242-45.612-27.442-5.849-2.903-11.871-5.682-18.043-8.345-1.96 7.721-4.781 15.333-8.511 22.699-1.657 3.271-3.384 6.62-5.167 10.022 24.797 10.756 49.617 24.857 71.297 43.339 4.6-13.174 6.546-26.828 6.036-40.273z" fill="#d8a595"/><path d="m445.044 247.019c-10.738-5.978-22.104-11.447-34.022-16.404-6.096 10.019-12.633 20.182-19.589 30.289 25.299 9.99 51.951 24.085 75.454 43.934 6.556-10.479 12.644-20.854 18.243-30.886-12.207-9.866-25.589-18.858-40.086-26.933z" fill="#d8a595"/><g fill="#e2bcaf"><path d="m379.739 409.067c-32.962-29.871-76.907-46.322-123.739-46.322s-90.777 16.451-123.739 46.322c-.259.234-.491.487-.71.746 3.943 3.409 7.951 6.708 12.03 9.87 30.01-26.758 69.875-41.485 112.419-41.485s82.409 14.728 112.419 41.485c4.079-3.161 8.087-6.461 12.03-9.87-.22-.259-.451-.511-.71-.746z"/><path d="m406.032 385.186c-.027-.026-.05-.054-.077-.079-1.138-1.062-2.308-2.126-3.497-3.195-39.366-35.176-91.379-54.548-146.458-54.548s-107.093 19.372-146.476 54.565c-1.171 1.052-2.341 2.116-3.479 3.178-.027.025-.05.054-.077.079 3.54 3.761 7.15 7.44 10.824 11.032 1.006-.936 2.033-1.872 3.047-2.784 36.529-32.642 84.885-50.619 136.162-50.619s99.632 17.977 136.143 50.602c1.031.928 2.059 1.864 3.065 2.801 3.674-3.592 7.283-7.271 10.823-11.032z"/><path d="m426.039 355.532c-45.857-40.982-106.244-63.551-170.039-63.551s-124.183 22.569-170.034 63.546c-1.063.947-2.113 1.908-3.151 2.873 3.211 4.023 6.489 8.001 9.838 11.92.103-.087.209-.167.308-.26 1.08-1.01 2.181-2.01 3.296-3.006 43.021-38.447 99.752-59.62 159.743-59.62s116.722 21.173 159.748 59.625c1.11.991 2.21 1.991 3.291 3.001.099.093.205.174.308.261 3.348-3.92 6.627-7.897 9.838-11.921-1.038-.964-2.088-1.925-3.146-2.868z"/></g></g></svg>