<svg id="Maple_Syrup" enable-background="new 0 0 64 64" viewBox="0 0 64 64" xmlns="http://www.w3.org/2000/svg"><g><path d="m41.76203 29.45721c-5.0877 0-9.22742-4.13972-9.22742-9.22742s4.13972-9.22742 9.22742-9.22742 9.22742 4.13972 9.22742 9.22742-4.13972 9.22742-9.22742 9.22742zm0-13.66817c-2.44942 0-4.44075 1.99133-4.44075 4.44075s1.99133 4.44075 4.44075 4.44075 4.44075-1.99133 4.44075-4.44075-1.99133-4.44075-4.44075-4.44075z" fill="#9e3e28"/><g><path d="m57.13301 42.49141c-1.17937-10.59938-9.15263-19.33282-19.37197-21.71961v-15.50208h-11.51826v15.50208c-11.19572 2.61011-19.53359 12.64061-19.53359 24.61755 0 6.27921 2.29032 12.02776 6.08375 16.45832 1.17315 1.37019 2.89697 2.15233 4.70077 2.15233h29.02086c1.78763 0 3.50319-.76367 4.66813-2.11959 4.38813-5.10755 6.77535-11.9744 5.95031-19.389z" fill="#bf5230"/><path d="m54.62737 56.70039h-45.26076c-1.71531-3.40484-2.6625-7.24484-2.6625-11.31515 0-6.06718 2.15047-11.62249 5.7089-15.97437h39.14232c3.0464 3.63515 5.04328 8.1664 5.58078 13.08155.56329 5.12001-.3839 9.98391-2.50874 14.20797z" fill="#ffec9c"/></g><g><path d="m42.17945 44.7522-1.5137-.95251 1.52916-2.10955c.16401-.22626-.01892-.5396-.29658-.508l-2.58877.2946-.08932-1.8695c-.01227-.25679-.30607-.39597-.51254-.24281l-3.56394 2.64373.96555-6.56425c.03819-.25959-.23397-.45309-.46662-.33177l-2.04536 1.06665-1.30215-2.95443c-.11271-.25571-.47553-.25571-.58824 0l-1.30215 2.95443-2.04536-1.06665c-.23265-.12133-.5048.07217-.46662.33177l.96555 6.56423-3.56394-2.64371c-.20647-.15316-.50027-.01397-.51254.24281l-.08932 1.86951-2.58875-.2946c-.27766-.0316-.46059.28173-.29658.508l1.52914 2.10955-1.5137.95251c-.23055.14508-.18743.49319.07155.57763l5.4404 1.77371-1.10105 2.49516c-.10839.24563.11431.50802.37429.44101l5.39322-1.39024 5.3932 1.39024c.25998.06702.48268-.19537.37429-.44101l-1.10106-2.49518 5.44038-1.77369c.25899-.08445.30211-.43257.07156-.57764z" fill="#f48f42"/><path d="m32.00153 54.34497c-.7075 0-1.28-.5725-1.28-1.28v-8.0775c0-.7075.5725-1.28 1.28-1.28s1.28.5725 1.28 1.28v8.0775c-.00001.7075-.57251 1.28-1.28 1.28z" fill="#d66d27"/></g><path d="m38.55149 8.20581h-13.09919c-.72028 0-1.30418-.5839-1.30418-1.30418v-5.59745c0-.72028.58391-1.30418 1.30418-1.30418h13.09919c.72028 0 1.30418.5839 1.30418 1.30418v5.59746c0 .72027-.5839 1.30417-1.30418 1.30417z" fill="#f2b583"/></g></svg>