<svg id="Capa_1" enable-background="new 0 0 512 512" viewBox="0 0 512 512" xmlns="http://www.w3.org/2000/svg"><g><g><g fill="#fff3de"><path d="m116.504 303.961-13.765-3.483-1.273-1.385-65.021-16.453-1.507.682c-17.726-4.487-34.938 8.911-34.938 27.197v13.917c0 12.844 8.722 24.048 21.173 27.199l13.765 3.483.685 1.236 65.454 16.563 1.662-.642c17.727 4.486 34.938-8.913 34.938-27.199v-13.917c.001-12.844-8.721-24.048-21.173-27.198z"/><path d="m490.827 303.961-13.765-3.483-1.273-1.385-65.021-16.453-1.507.682c-17.727-4.486-34.938 8.913-34.938 27.199v13.917c0 12.844 8.722 24.048 21.173 27.199l13.765 3.483.685 1.236 65.454 16.563 1.662-.642c17.726 4.483 34.938-8.915 34.938-27.201v-13.917c0-12.844-8.722-24.047-21.173-27.198z"/><path d="m490.827 160.366-13.765-3.483-.85-1.278-65.701-16.625-1.251.746c-17.727-4.485-34.938 8.913-34.938 27.199v13.917c0 12.844 8.722 24.048 21.173 27.199l13.765 3.483 1.799 1.519 64.394 16.295 1.608-.656c17.727 4.485 34.938-8.913 34.938-27.199v-13.917c.001-12.846-8.721-24.049-21.172-27.2z"/></g><path d="m490.827 160.366-11.277-2.854v11.739c0 18.285-17.211 31.684-34.938 27.199l-70.289-17.787v2.178c0 12.844 8.722 24.048 21.173 27.199l13.765 3.483 1.799 1.519 64.394 16.295 1.608-.656c17.727 4.485 34.938-8.913 34.938-27.199v-13.917c0-12.845-8.722-24.048-21.173-27.199z" fill="#ffe5c2"/><path d="m412.282 59.087h61.758c20.964 0 37.96 16.995 37.96 37.96v32.638c0 18.286-17.212 31.684-34.939 27.199l-81.566-20.64c-12.451-3.151-21.173-14.355-21.173-27.199v-11.999c0-20.964 16.996-37.959 37.96-37.959z" fill="#99e6fc"/><path d="m479.549 59.49v33.257c0 18.286-17.212 31.685-34.939 27.199l-70.288-17.787v6.885c0 12.844 8.722 24.048 21.173 27.199l81.566 20.64c17.727 4.486 34.939-8.913 34.939-27.198v-32.639c0-19.093-14.098-34.887-32.451-37.556z" fill="#62dbfb"/><path d="m409.261 211.523 81.566 20.64c12.451 3.151 21.173 14.355 21.173 27.199v13.917c0 18.286-17.212 31.684-34.939 27.199l-81.566-20.64c-12.451-3.151-21.173-14.355-21.173-27.199v-13.917c0-18.286 17.212-31.685 34.939-27.199z" fill="#99e6fc"/><path d="m490.827 232.163-11.277-2.854v12.013c0 18.285-17.212 31.684-34.939 27.198l-70.288-17.786v1.904c0 12.844 8.722 24.048 21.173 27.198l81.566 20.64c17.727 4.486 34.939-8.913 34.939-27.198v-13.917c-.001-12.843-8.723-24.047-21.174-27.198z" fill="#62dbfb"/><path d="m490.827 303.961-11.277-2.854v11.34c0 18.286-17.212 31.684-34.939 27.199l-70.288-17.787v2.577c0 12.844 8.722 24.048 21.173 27.199l81.566 20.64c17.727 4.486 34.939-8.913 34.939-27.199v-13.917c-.001-12.844-8.723-24.047-21.174-27.198z" fill="#ffe5c2"/><path d="m409.261 355.118 81.566 20.64c12.451 3.151 21.173 14.355 21.173 27.199v11.997c0 20.964-16.995 37.96-37.96 37.96h-61.758c-20.965 0-37.96-16.995-37.96-37.96v-32.638c0-18.285 17.212-31.684 34.939-27.198z" fill="#99e6fc"/><path d="m490.827 375.758-11.277-2.854v9.965c0 20.965-16.995 37.96-37.96 37.96h-66.813c2.824 18.174 18.539 32.084 37.505 32.084h61.759c20.964 0 37.96-16.995 37.96-37.96v-11.997c-.001-12.843-8.723-24.047-21.174-27.198z" fill="#62dbfb"/><g><path d="m184.99 97.046v104.375c0 20.964 16.995 37.96 37.96 37.96h66.1c20.964 0 37.959-16.995 37.959-37.96v-104.375c0-20.964-16.995-37.959-37.959-37.959h-66.1c-20.965 0-37.96 16.995-37.96 37.959z" fill="#fff3de"/><path d="m289.05 59.087h-.23v115.541c0 14.224-11.531 25.755-25.755 25.755h-78.075v1.038c0 20.965 16.995 37.96 37.96 37.96h66.1c20.964 0 37.96-16.995 37.96-37.96v-104.375c0-20.964-16.995-37.959-37.96-37.959z" fill="#ffe5c2"/></g><g><path d="m184.99 310.579v104.375c0 20.964 16.995 37.96 37.96 37.96h66.1c20.964 0 37.959-16.995 37.959-37.96v-104.375c0-20.964-16.995-37.959-37.959-37.959h-66.1c-20.965-.001-37.96 16.994-37.96 37.959z" fill="#fdb4ba"/><path d="m289.05 272.619h-.23v115.542c0 14.224-11.531 25.755-25.755 25.755h-78.075v1.038c0 20.965 16.995 37.96 37.96 37.96h66.1c20.964 0 37.96-16.995 37.96-37.96v-104.375c0-20.965-16.995-37.96-37.96-37.96z" fill="#fe99a0"/></g><path d="m116.504 160.366-13.765-3.483-.85-1.278-65.701-16.625-1.251.746c-17.726-4.486-34.937 8.913-34.937 27.198v13.917c0 12.844 8.722 24.048 21.173 27.199l13.765 3.483 1.799 1.519 64.394 16.295 1.608-.656c17.727 4.485 34.938-8.913 34.938-27.199v-13.917c.001-12.845-8.721-24.048-21.173-27.199z" fill="#fff3de"/><path d="m116.504 160.366-11.277-2.854v11.739c0 18.285-17.211 31.684-34.938 27.199l-70.289-17.787v2.178c0 12.844 8.722 24.048 21.173 27.199l13.765 3.483 1.799 1.519 64.394 16.295 1.608-.656c17.727 4.485 34.938-8.913 34.938-27.199v-13.917c.001-12.845-8.721-24.048-21.173-27.199z" fill="#ffe5c2"/><path d="m37.96 59.087h61.758c20.964 0 37.96 16.995 37.96 37.96v32.638c0 18.286-17.212 31.684-34.939 27.199l-81.566-20.64c-12.451-3.153-21.173-14.357-21.173-27.2v-11.997c0-20.965 16.995-37.96 37.96-37.96z" fill="#fe99a0"/><path d="m105.227 59.49v33.257c0 18.286-17.212 31.685-34.939 27.199l-70.288-17.788v6.885c0 12.844 8.722 24.048 21.173 27.199l81.566 20.64c17.727 4.486 34.939-8.913 34.939-27.198v-32.638c0-19.093-14.098-34.887-32.451-37.556z" fill="#fd8087"/><path d="m34.939 211.523 81.566 20.64c12.451 3.151 21.173 14.355 21.173 27.199v13.917c0 18.286-17.212 31.684-34.939 27.199l-81.566-20.64c-12.451-3.152-21.173-14.356-21.173-27.2v-13.917c0-18.285 17.212-31.684 34.939-27.198z" fill="#fe99a0"/><path d="m116.504 232.163-11.277-2.854v12.013c0 18.285-17.212 31.684-34.939 27.198l-70.288-17.786v1.904c0 12.844 8.722 24.048 21.173 27.198l81.566 20.64c17.727 4.486 34.939-8.913 34.939-27.198v-13.917c0-12.843-8.722-24.047-21.174-27.198z" fill="#fd8087"/><path d="m116.504 303.961-11.277-2.854v11.34c0 18.286-17.212 31.684-34.939 27.199l-70.288-17.788v2.577c0 12.844 8.722 24.048 21.173 27.199l81.566 20.64c17.727 4.486 34.939-8.913 34.939-27.199v-13.917c0-12.843-8.722-24.046-21.174-27.197z" fill="#ffe5c2"/><path d="m34.939 355.118 81.566 20.64c12.451 3.151 21.173 14.355 21.173 27.199v11.997c0 20.964-16.995 37.96-37.96 37.96h-61.758c-20.964 0-37.96-16.995-37.96-37.96v-32.638c0-18.285 17.212-31.684 34.939-27.198z" fill="#fe99a0"/><path d="m116.504 375.758-11.277-2.854v9.965c0 20.965-16.995 37.96-37.96 37.96h-66.813c2.824 18.174 18.539 32.084 37.505 32.084h61.759c20.964 0 37.96-16.995 37.96-37.96v-11.997c0-12.843-8.722-24.047-21.174-27.198z" fill="#fd8087"/></g></g><g/><g/><g/><g/><g/><g/><g/><g/><g/><g/><g/><g/><g/><g/><g/></svg>