<svg id="Mushrooms" enable-background="new 0 0 64 64" height="512" viewBox="0 0 64 64" width="512" xmlns="http://www.w3.org/2000/svg"><g><g><path d="m43.60076 21.80213c-9.90225 6.12599-11.93776 20.73118-11.42477 29.91072.16451 2.94381 2.29333 5.40186 5.17592 6.02137.07072.0152.14161.03043.21263.0457 4.61157.99115 8.76167-3.05928 7.82165-7.68155-1.81282-8.91402-1.45157-20.51273 6.12049-25.54587-1.7746-.92618-4.72911-1.71721-7.90592-2.75037z" fill="#f7bb90"/><path d="m33.11554 39.0143c1.51488-.99751 3.77694-2.08919 6.6833-2.41977 1.91574-.2102 3.61165-.05358 4.96414.23993.69506-5.03346 2.68958-9.5966 6.74072-12.2779-1.77326-.93567-4.73201-1.72353-7.89501-2.75939-5.95431 3.66881-9.07318 10.42124-10.49315 17.21713z" opacity=".09"/></g><g><path d="m21.8492 21.43377c-.33033 5.65686 8.38874 9.4567 19.77294 11.1869s20.83838.69239 22.20364-4.80718c1.61889-6.47103-8.4128-20.44509-18.14101-21.92361-9.72835-1.47853-23.45867 8.88411-23.83557 15.54389z" fill="#ad6340"/><path d="m63.82578 27.8135c-.83481 3.33269-4.60315 5.03274-9.99503 5.45061 1.10005-2.58523 2.76821-7.91254 1.20778-14.26073-1.66177-6.84355-6.12622-11.03204-8.88025-13.01624 9.56989 1.83315 19.26739 15.4534 17.6675 21.82636z" opacity=".09"/></g><g><path d="m16.33492 29.18489c8.28475 4.53323 10.5649 16.27394 10.54638 23.73063-.00594 2.39131-1.62377 4.47414-3.93159 5.10054-.05662.01537-.11337.03077-.17023.04621-3.69205 1.00216-7.22837-2.09882-6.66694-5.88304 1.08272-7.29786.28857-16.67603-6.0617-20.42492 1.39721-.82686 3.75586-1.59528 6.28408-2.56942z" fill="#f7bb90"/><path d="m25.57123 42.6716c-1.27004-.74237-3.14929-1.5287-5.51745-1.67075-1.56065-.0874-2.92739.11279-4.01008.40899-.78059-4.04654-2.59328-7.65597-5.99025-9.65237 1.3957-.83448 3.75792-1.60052 6.27484-2.57624 4.98104 2.71387 7.79902 8.04779 9.24294 13.49037z" opacity=".09"/></g><g><path d="m33.93558 27.94593c.51216 4.56721-6.38509 8.02175-15.53034 9.91534-9.14524 1.8936-16.84706 1.46191-18.19061-2.93315-1.59097-5.17088 5.92939-16.92228 13.74434-18.54043 7.81504-1.61816 19.38336 6.18078 19.97661 11.55824z" fill="#ad6340"/><path d="m33.9288 27.94734c.30468 2.76979-2.0818 5.12501-6.06442 6.96284.10775-2.27615-.1255-6.79774-3.10183-11.18552-3.19305-4.73592-7.76898-6.66258-10.42275-7.39513 7.79452-1.30382 19.00905 6.32025 19.589 11.61781z" opacity=".09"/><path d="m9.79551 25.30815c-.32556 1.24201-1.44944 2.39526-2.51024 2.57585-1.06081.18059-1.65684-.67985-1.33128-1.92186s1.44944-2.39526 2.51024-2.57585c1.0608-.1806 1.65684.67985 1.33128 1.92186zm-5.11082 3.69463c-.65599.13704-1.13543.81628-1.07086 1.51712s.64871 1.15789 1.3047 1.02085 1.13543-.81628 1.07086-1.51712-.64871-1.15789-1.3047-1.02085z" fill="#fff" opacity=".4"/></g></g></svg>