<svg id="Capa_1" enable-background="new 0 0 512 512" height="512" viewBox="0 0 512 512" width="512" xmlns="http://www.w3.org/2000/svg"><g><path d="m311.154 99.902 88.15 254.217c8.248 23.786 7.593 49.756-1.842 73.096l-29.015 71.771c-3.179 7.866-10.813 13.014-19.295 13.014h-186.304c-8.483 0-16.117-5.148-19.296-13.012l-29.015-71.771c-9.436-23.34-10.09-49.31-1.842-73.096l88.15-254.217h110.309z" fill="#fff0af"/><path d="m311.154 99.902 88.15 254.217c8.248 23.786 7.593 49.756-1.842 73.096l-29.015 71.771c-3.179 7.866-10.813 13.014-19.295 13.014h-186.304c-8.483 0-16.117-5.148-19.296-13.012l-29.015-71.771c-9.436-23.34-10.09-49.31-1.842-73.096l88.15-254.217h110.309z" fill="#fff0af"/><path d="m399.305 354.12-35.258-101.68c-5.836 30.129-16.813 61.493-33.107 92.108-47.88 89.962-126.749 145.489-192.462 141.886l5.075 12.555c3.179 7.865 10.813 13.012 19.296 13.012h186.303c8.483 0 16.117-5.148 19.296-13.012l29.015-71.771c9.435-23.342 10.089-49.312 1.842-73.098z" fill="#ffe07d"/><path d="m297.626 33.301h-83.252c-4.598 0-8.325-3.727-8.325-8.325v-16.651c0-4.598 3.727-8.325 8.325-8.325h83.252c4.598 0 8.325 3.727 8.325 8.325v16.65c0 4.598-3.727 8.326-8.325 8.326z" fill="#ffd064"/><path d="m297.626 0h-24.976c4.598 0 8.325 3.727 8.325 8.325v16.65c0 4.598-3.727 8.325-8.325 8.325h24.976c4.598 0 8.325-3.727 8.325-8.325v-16.65c0-4.598-3.727-8.325-8.325-8.325z" fill="#ffc250"/><path d="m311.154 99.902h-110.308v-22.894c0-5.747 4.659-10.407 10.407-10.407h89.496c5.747 0 10.407 4.659 10.407 10.407v22.894z" fill="#ffd064"/><path d="m300.748 66.602h-24.976c5.747 0 10.406 4.659 10.406 10.407v22.894h24.976v-22.895c0-5.747-4.659-10.406-10.406-10.406z" fill="#ffc250"/><path d="m217.496 33.301h77.008v33.301h-77.008z" fill="#ebb044"/><path d="m144.159 365.029c-5.61 16.179-5.165 33.831 1.253 49.706l7.977 19.731c3.179 7.864 10.813 13.012 19.296 13.012h166.632c8.483 0 16.117-5.148 19.296-13.013l7.977-19.732c6.418-15.874 6.863-33.526 1.253-49.705l-31.51-90.873c-2.905-8.377-10.798-13.994-19.664-13.994h-121.336c-8.867 0-16.76 5.617-19.664 13.994z" fill="#b2e5fb"/><circle cx="256" cy="353.821" fill="#ffd064" r="41.333"/></g></svg>