<svg id="Capa_1" enable-background="new 0 0 507.489 507.489" height="512" viewBox="0 0 507.489 507.489" width="512" xmlns="http://www.w3.org/2000/svg"><g><path d="m178.601 99.557-28.78-23.167h-84.469l-61.481 28.48c-.003.171-.004.342-.007.513l-.001 2.311c.603 50.631 41.822 91.482 92.596 91.485 47.236.002 86.261-35.317 91.906-81.028z" fill="#e19974"/><g><g id="XMLID_686_"><path d="m277.842 194.344-117.607 11.531-25.15 29.989c0 51.15 41.46 92.61 92.61 92.61s92.61-41.46 92.61-92.61l-8.25-17.515z" fill="#e19974"/><g><path d="m498.671 507.489c-1.921 0-3.843-.733-5.308-2.201l-73.013-73.129-79.211-77.132c-2.967-2.89-3.031-7.638-.141-10.605 2.891-2.968 7.639-3.029 10.606-.141l79.25 77.169c.025.024.05.049.075.074l73.049 73.166c2.927 2.931 2.923 7.68-.009 10.606-1.463 1.463-3.38 2.193-5.298 2.193z" fill="#fddeb0"/></g><path d="m442.309 385.219-14.16-18.372-87.151-22.425-55.823 12.933 4.568 67.467-2.42 1.07c16.986 20.503 42.641 33.565 71.349 33.565 40.229 0 74.377-25.628 87.162-61.464z" fill="#e19974"/><path d="m316.697 374.164c0-4.113.283-8.16.803-12.131h-51.314c-.082 1.594-.124 3.199-.124 4.814 0 51.15 41.46 92.61 92.61 92.61 4.258 0 8.466-.29 12.571-.846-32.153-14.521-54.546-46.871-54.546-84.447z" fill="#dc8758"/></g><g id="XMLID_712_"><g><path d="m358.465 274.234c51.32-.11 92.94 41.52 92.82 92.84-.03 10.83-1.95 21.24-5.45 30.92l-2.41-2.05-15.43-11.31c-12.96-9.5-30.12-11-44.52-3.89l-6.25 3.08c-12.73 6.28-27.73 5.89-40.11-1.04l-12.2-6.84c-10.28-5.76-22.96 1.67-22.96 13.45v50.66 44.07c0 4.96-2.01 9.45-5.26 12.7-3.25 3.24-7.74 5.25-12.69 5.25-9.91 0-17.94-8.03-17.94-17.95v-116.16c0-51.25 41.15-93.62 92.4-93.73z" fill="#f37c7c"/></g></g><g><path d="m290.879 474.352v-116.16c0-34.753 18.912-65.42 47.075-81.597-41.295 9.579-71.889 47.17-71.889 91.369v116.16c0 9.92 8.03 17.95 17.94 17.95 4.95 0 9.44-2.01 12.69-5.25 1.802-1.802 3.227-3.996 4.135-6.428-5.882-2.946-9.951-9.011-9.951-16.044z" fill="#ee6161"/></g><g><path d="m104.361 114.113c-1.986 0-3.969-.784-5.443-2.339l-64.595-68.113-30.813-30.862c-2.926-2.93-2.922-7.679.009-10.606s7.68-2.924 10.606.009l30.88 30.93c.045.045.09.092.134.138l64.661 68.183c2.851 3.006 2.725 7.753-.281 10.604-1.449 1.373-3.306 2.056-5.158 2.056z" fill="#fddeb0"/></g><g id="XMLID_691_"><g><path d="m189.325 104.894c0 4.5-.32 8.93-.95 13.26l-13.99-5.81c-4.57-1.9-9.4-2.84-14.21-2.84-7 0-13.96 1.99-20.01 5.88-10.62 6.84-24 7.78-35.47 2.51l-4.38-2.02c-11.17-5.13-23.9 3.03-23.9 15.32v64.42 29.79c0 5.38-2.18 10.26-5.71 13.79s-8.41 5.71-13.79 5.71c-10.77 0-19.5-8.73-19.5-19.5v-50.49-38.05c0-12.95-8.47-24.38-20.85-28.17l-12.694-3.823c0-51.15 41.694-92.587 92.844-92.587s92.61 41.46 92.61 92.61z" fill="#f37c7c"/></g></g><g><path d="m64.433 213.12v-50.49-38.05c0-3.561-2.537-7.583-6.215-11.543-23.407-25.2-23.056-64.536 2.081-88.011 3.723-3.477 7.733-6.652 11.989-9.486-39.358 10.705-68.417 46.63-68.417 89.33l12.694 3.823c12.38 3.79 20.85 15.22 20.85 28.17v38.05 49.988c0 10.745 8.478 19.85 19.222 20 5.49.077 10.477-2.117 14.068-5.708 2.311-2.311 4.028-5.208 4.948-8.438-6.624-3.115-11.22-9.83-11.22-17.635z" fill="#ee6161"/></g><path d="m57.061 348.321c-10.853 0-19.651-8.798-19.651-19.651v-27.465c0-10.853 8.798-19.651 19.651-19.651 10.853 0 19.651 8.798 19.651 19.651v27.465c0 10.853-8.798 19.651-19.651 19.651z" fill="#ee6161"/><path d="m178.217 240.867c0-9.32 1.396-18.311 3.958-26.796h-23.01l-24.081 21.792c0 51.15 41.46 92.61 92.61 92.61 3.773 0 7.491-.231 11.146-.67-35.385-13.022-60.623-47.028-60.623-86.936z" fill="#dc8758"/><g id="XMLID_689_"><g><path d="m320.305 235.864-31.9-11.77c-12.81-4.73-27.22-.85-35.92 9.67-6.43 7.78-15.61 11.67-24.79 11.67s-18.36-3.89-24.79-11.67c-6.23-7.53-15.39-11.66-24.79-11.66-3.73 0-7.49.65-11.13 1.99l-31.9 11.77c0-51.14 41.46-92.61 92.61-92.61s92.61 41.47 92.61 92.61z" fill="#f37c7c"/></g></g></g><path d="m259.68 148.928c-9.969-3.669-20.742-5.674-31.985-5.674-51.15 0-92.61 41.47-92.61 92.61l31.9-11.77c3.64-1.34 7.4-1.99 11.13-1.99.673 0 1.344.027 2.013.069 7.921-38.619 39.867-68.483 79.552-73.245z" fill="#ee6161"/></g></svg>