<svg id="Melon" enable-background="new 0 0 64 64" viewBox="0 0 64 64" xmlns="http://www.w3.org/2000/svg"><g><g><path d="m23.13991 22.61254c-1.31976 0-2.3898-1.07004-2.3898-2.3898v-13.79155c0-1.31976 1.07004-2.3898 2.3898-2.3898s2.3898 1.07004 2.3898 2.3898v13.79154c0 1.31976-1.07004 2.38981-2.3898 2.38981z" fill="#ad6340"/><path d="m13.16178 9.47504c-1.28942 0-2.3513-1.02629-2.38747-2.32329-.03734-1.31918 1.00236-2.41839 2.32212-2.45515 7.01188-.19604 15.18132-1.20249 19.86524-2.44815 1.27425-.33607 2.58467.42067 2.92308 1.69608.33957 1.27542-.42009 2.58409-1.6955 2.92366-5.0795 1.3501-13.50332 2.39739-20.95978 2.60568-.02218.00059-.04551.00117-.06769.00117z" fill="#be7d59"/><path d="m46.25466 36.22066c0 12.7735-7.42036 23.13328-23.12139 23.13328-15.71291 0-23.13327-10.35978-23.13327-23.13328s7.42036-23.13327 23.12131-23.13327c15.71299-.00001 23.13335 10.35977 23.13335 23.13327z" fill="#75d64c"/><path d="m46.26206 36.22663c0 12.76339-7.424 23.13147-23.13147 23.13147-7.09487 0-12.47087-2.1029-16.27433-5.59542 1.55435.34743 3.1635.53025 4.80915.53025 12.36116 0 22.4-10.03884 22.4-22.4183 0-7.84453-4.04107-14.75659-10.14855-18.76116 15.17712.34743 22.3452 10.55089 22.3452 23.11316z" opacity=".15"/><g fill="#fff"><ellipse cx="9.281" cy="28.082" opacity=".4" rx="3.681" ry="3.368" transform="matrix(.332 -.943 .943 .332 -20.289 27.498)"/><ellipse cx="6.619" cy="35.075" opacity=".4" rx="2.074" ry="1.898" transform="matrix(.238 -.971 .971 .238 -29.023 33.16)"/></g></g><g><path d="m63.98703 43.35869c-1.14613 11.16325-9.31934 18.4726-21.0806 18.4726-11.74473 0-19.93446-7.30935-21.0807-18.4726-.16618-1.46187 1.01331-2.75766 2.50834-2.75766h7.37889c1.42801 0 2.64179.95668 3.07472 2.31748.96986 3.04855 3.88523 5.27424 8.11876 5.27424 4.23345 0 7.1488-2.22569 8.11866-5.27424.43292-1.3608 1.64671-2.31749 3.07471-2.31749h7.37889c1.49502.00001 2.65788 1.2958 2.50833 2.75767z" fill="#9ce370"/><path d="m59.45197 40.60103c0 9.13663-5.33241 16.54564-16.54554 16.54564-11.19661 0-16.54564-7.40901-16.54564-16.54564h5.35216c1.42801 0 2.64179.95668 3.07472 2.31748.96986 3.04855 3.88523 5.27424 8.11876 5.27424 4.23345 0 7.1488-2.22569 8.11866-5.27424.43292-1.3608 1.64671-2.31749 3.07471-2.31749 0 0 5.35217 0 5.35217.00001z" fill="#ffe48d"/><path d="m63.98093 43.3582c-1.13382 11.17266-9.30748 18.46864-21.08348 18.46864-1.82857 0-3.58404-.18292-5.22969-.53036 5.02857-1.88337 8.59431-6.74732 8.59431-12.41596 0-.40223-.0183-.82288-.07321-1.20681 2.45033-.82288 4.13259-2.57835 4.82745-4.75435.43884-1.35312 1.66395-2.32221 3.09029-2.32221h7.36908c1.49944 0 2.66975 1.29821 2.50525 2.76105z" opacity=".15"/></g></g></svg>