<svg clip-rule="evenodd" fill-rule="evenodd" height="512" image-rendering="optimizeQuality" shape-rendering="geometricPrecision" text-rendering="geometricPrecision" viewBox="0 0 1707 1707" width="512" xmlns="http://www.w3.org/2000/svg"><g id="Layer_x0020_1"><g fill="#99ce19"><path d="m854 852c-5 0-10-2-14-6-242-220-246-612 0-840 8-8 20-8 27 0 247 228 242 620 0 840-4 4-9 6-13 6z"/><path d="m1051 1230c-10 0-18-8-19-18-32-335 232-625 559-628 11 0 19 8 20 18 32 335-232 625-559 628 0 0 0 0-1 0z"/><path d="m656 1230c-156 0-314-75-418-191-106-119-158-278-143-436 1-11 10-19 20-19 337 8 592 297 561 628-1 10-10 18-20 18z"/></g><path d="m863 1706c-13 0-22-10-20-22 65-474 462-789 466-793 21-16 46 16 25 32-4 3-389 309-452 766-1 10-10 17-19 17z" fill="#009e2f"/><path d="m845 1706c-10 0-19-7-20-17-63-458-448-763-452-766-21-16 4-48 25-32 4 4 401 319 466 793 2 12-7 22-19 22z" fill="#009e2f"/><path d="m854 1706c-12 0-20-9-20-20v-1260c0-26 40-26 40 0v1260c0 11-9 20-20 20z" fill="#009e2f"/></g></svg>