<svg id="Layer_1" viewBox="0 0 1000 1000" xmlns="http://www.w3.org/2000/svg" data-name="Layer 1"><path d="m423.56 115.92a40.46 40.46 0 0 1 -13 29.66 42.49 42.49 0 0 1 -46.33 7.42 40.85 40.85 0 0 1 -24.13-37.09c0-22.6 18.69-40.92 41.74-40.92s41.72 18.33 41.72 40.93z" fill="#c49a6c"/><path d="m434.69 182.68c0 22.58-18.69 40.9-41.73 40.9a42.21 42.21 0 0 1 -5.07-.31 41.78 41.78 0 0 0 -12.1-3.27s0 0 0 0a41.06 41.06 0 0 1 -23.79-29.42 40.39 40.39 0 0 1 -.78-7.9 40 40 0 0 1 4.79-19 40.73 40.73 0 0 1 8.22-10.68 42.49 42.49 0 0 0 46.34-7.43 40.87 40.87 0 0 1 24.12 37.11z" fill="#f4c17f"/><path d="m351.23 182.68a40.39 40.39 0 0 0 .78 7.9 41.33 41.33 0 0 1 -12.82 14.34 42.37 42.37 0 0 1 -48.25 0 40.63 40.63 0 0 1 -17.6-33.37c0-22.6 18.69-40.92 41.73-40.92 20.28 0 37.19 14.2 40.95 33a40 40 0 0 0 -4.79 19.05z" fill="#f9f18c"/><path d="m356.8 238.31a40.85 40.85 0 0 1 -24.12 37.09l-.74.33a42.4 42.4 0 0 1 -45.61-7.73 40.42 40.42 0 0 1 4.61-63.05 42.37 42.37 0 0 0 48.25 0 41.3 41.3 0 0 1 14.65 18.21 40.41 40.41 0 0 1 2.96 15.15z" fill="#c49a6c"/><path d="m412.43 260.56c0 20.65-15.61 37.72-35.9 40.51a42.91 42.91 0 0 1 -5.83.4 42.11 42.11 0 0 1 -16.95-3.53 41.68 41.68 0 0 1 -10.47-6.55 40.81 40.81 0 0 0 -10.58-16 40.85 40.85 0 0 0 24.12-37.09 40.41 40.41 0 0 0 -3-15.18 42.4 42.4 0 0 1 16.86-3.48 44.54 44.54 0 0 1 5.07.3s0 0 0 0a41.78 41.78 0 0 1 12.09 3.31 40.9 40.9 0 0 1 24.59 37.31z" fill="#f9f18c"/><path d="m345.35 300a41 41 0 0 0 -27.49 37.61 42.47 42.47 0 0 0 -41.86-2.18 40.51 40.51 0 0 1 10.33-67.43 42.4 42.4 0 0 0 45.61 7.76l.74-.33a40.81 40.81 0 0 1 10.58 16 40.87 40.87 0 0 1 2.09 8.57z" fill="#f4c17f"/><path d="m401.31 338.45a40.83 40.83 0 0 1 -22.67 36.4 42 42 0 0 0 -28-10.54h-1.04c-.54 0-1.07 0-1.62.08s-.89.06-1.33.1l-.63.07-.93.11c-.73.1-1.45.21-2.17.34l-.86.17-1 .22h-.11l-.71.17c-1.34.34-2.65.74-3.93 1.19-1.45-9.66-6.3-19.1-13.31-25.31a41.63 41.63 0 0 0 -5.15-3.89 41 41 0 0 1 27.5-37.56 42.4 42.4 0 0 1 8.4-2 42.11 42.11 0 0 0 16.95 3.53 42.91 42.91 0 0 0 5.83-.4 40.87 40.87 0 0 1 24.78 37.32z" fill="#c49a6c"/><path d="m336.32 366.78a42.51 42.51 0 0 0 -7.6 3.64l-1 .63c-.41.26-.81.53-1.2.8s-1.08.78-1.61 1.18c-.28.22-.56.43-.83.66s-.8.66-1.19 1l-.57.52c-.2.17-.39.35-.57.53-.44.4-.86.82-1.28 1.25s-.64.67-1 1l-.05.05c-.31.34-.62.69-.91 1-.45.53-.89 1.08-1.31 1.64-.12.15-.24.31-.35.47l-.52.7c-.22.32-.45.64-.66 1s-.49.74-.72 1.11-.59 1-.87 1.49-.55 1-.82 1.51q-.51 1-1 2c-.12.26-.24.54-.34.8-.18.41-.34.83-.5 1.25l-.36 1c-.11.31-.22.63-.31.95s-.22.7-.32 1.05c-.19.62-.34 1.24-.49 1.87 0 .19-.09.39-.13.57s-.12.54-.17.8c-.15.77-.28 1.55-.39 2.33-.05.39-.1.76-.14 1.14-.09.76-.14 1.52-.18 2.3v.88s0 .81 0 1.22a40.8 40.8 0 0 0 .32 5.09 40.31 40.31 0 0 1 -6.54 1.74 42.27 42.27 0 0 1 -7.68.7c-23.05 0-41.74-18.32-41.74-40.91a40.83 40.83 0 0 1 22.71-36.31 42.47 42.47 0 0 1 41.88 2.15 41.63 41.63 0 0 1 5.15 3.89c6.97 6.21 11.84 15.65 13.29 25.31z" fill="#f9f18c"/><path d="m336.44 367.72c0-.32-.07-.62-.12-.94" fill="none"/><path d="m392.4 405.21c0 22.6-18.68 40.91-41.72 40.91-21.29 0-38.86-15.63-41.41-35.82a40.8 40.8 0 0 1 -.32-5.09c0-.41 0-.82 0-1.22s0-.59 0-.88c0-.78.09-1.54.18-2.3 0-.38.09-.75.14-1.14.11-.78.24-1.56.39-2.33 0-.26.11-.53.17-.8s.08-.38.13-.57c.15-.63.3-1.25.49-1.87.1-.35.21-.7.32-1.05s.2-.64.31-.95l.36-1c.16-.42.32-.84.5-1.25.1-.26.22-.54.34-.8q.45-1 1-2c.27-.51.54-1 .82-1.51s.57-1 .87-1.49.47-.75.72-1.11.44-.66.66-1l.52-.7c.11-.16.23-.32.35-.47.42-.56.86-1.11 1.31-1.64.29-.35.6-.7.91-1l.05-.05q.48-.52 1-1c.42-.43.84-.85 1.28-1.25.18-.18.37-.36.57-.53l.57-.52c.39-.34.78-.68 1.19-1s.55-.44.83-.66c.53-.4 1.07-.8 1.61-1.18s.79-.54 1.2-.8l1-.63a42.51 42.51 0 0 1 7.6-3.64c1.28-.45 2.59-.85 3.93-1.19l.71-.17h.11l1-.22.86-.17c.72-.13 1.44-.24 2.17-.34l.93-.11.63-.07c.44 0 .89-.08 1.33-.1s1.08-.06 1.62-.08h1.08a42 42 0 0 1 28 10.54 40.47 40.47 0 0 1 13.69 30.25z" fill="#f4c17f"/><path d="m664.71 403.21c-4.39 22.18-26.27 36.52-48.88 32.06a42.73 42.73 0 0 1 -6-1.64c-19.17-6.77-31-26.44-27-46.6a40.39 40.39 0 0 1 18.49-26.58 42.41 42.41 0 0 1 46.9 1.71 40.83 40.83 0 0 1 16.49 41.05z" fill="#f9f18c"/><path d="m667.5 327.66a38.83 38.83 0 0 1 -.77 7.91 39.86 39.86 0 0 1 -8.38 17.73 41 41 0 0 1 -10.12 8.85 42.41 42.41 0 0 0 -46.9-1.71 40.87 40.87 0 0 1 -16.46-41.07c4.38-22.16 26.26-36.5 48.87-32a45.7 45.7 0 0 1 4.9 1.28 42 42 0 0 0 11.21 5.59 41.09 41.09 0 0 1 17.65 33.42z" fill="#c49a6c"/><path d="" fill="none"/><path d="m649.88 294.22a42 42 0 0 1 -11.21-5.59 42 42 0 0 1 11.21 5.59z" fill="none"/><path d="m741 361.59c-4.39 22.16-26.26 36.51-48.87 32-19.91-3.92-33.75-21.13-33.77-40.31a39.86 39.86 0 0 0 8.38-17.73 38.83 38.83 0 0 0 .77-7.91 41.09 41.09 0 0 0 -17.58-33.41 44.89 44.89 0 0 0 4.89 1.27 42.44 42.44 0 0 0 17.22-.15 41.3 41.3 0 0 0 10.83 20.71 42.35 42.35 0 0 1 47.33 9.36 40.61 40.61 0 0 1 10.8 36.17z" fill="#f4c17f"/><path d="m667.51 327.66a41.21 41.21 0 0 1 15.35-11.57" fill="none"/><path d="m753.94 296.09a40.69 40.69 0 0 1 -23.74 29.35 42.35 42.35 0 0 0 -47.33-9.36 41.3 41.3 0 0 1 -10.87-20.71 40.22 40.22 0 0 1 0-15.46 40.82 40.82 0 0 1 30.86-31.7l.78-.19a42.43 42.43 0 0 1 43.36 16.45 40.42 40.42 0 0 1 6.94 31.62z" fill="#f9f18c"/><path d="m702.93 248.21a40.82 40.82 0 0 0 -30.86 31.7 40.22 40.22 0 0 0 0 15.46 42.44 42.44 0 0 1 -17.22.15 44.89 44.89 0 0 1 -4.89-1.27 42 42 0 0 0 -11.21-5.58 40.91 40.91 0 0 1 -16.84-41.33c4-20.26 22.64-34 43.08-32.78a42.21 42.21 0 0 1 30.75 16 40.74 40.74 0 0 0 7.19 17.65z" fill="#f4c17f"/><path d="m777.8 232.75a40.86 40.86 0 0 1 -30.8 31.72 42.43 42.43 0 0 0 -43.29-16.47l-.78.19a40.74 40.74 0 0 1 -7.29-17.73 41.8 41.8 0 0 1 -.38-8.83 41 41 0 0 0 34.27-31.56 42.54 42.54 0 0 0 40.67 10.25l.42.57a40.34 40.34 0 0 1 7.18 31.86z" fill="#c49a6c"/><path d="" fill="none"/><path d="m729.52 190.07a41.43 41.43 0 0 1 -42.89 31.93 42.93 42.93 0 0 0 -21.75-7.49 40.57 40.57 0 0 1 12.24-72.78 42.5 42.5 0 0 0 39.88 16.13 40.37 40.37 0 0 0 8.27 27.38 39.47 39.47 0 0 0 4.25 4.83z" fill="#f9f18c"/><path d="m799.49 169c-3 15.06-15 27.43-28.88 31.9l-.42-.57a42.54 42.54 0 0 1 -40.67-10.25 39.47 39.47 0 0 1 -4.3-4.82 40.37 40.37 0 0 1 -8.22-27.39 39.82 39.82 0 0 0 5.12-1.1 40.79 40.79 0 0 0 29.3-31.31 39.8 39.8 0 0 0 .68-5.27 55.07 55.07 0 0 1 14.43.59c22.55 4.46 37.33 26.05 32.96 48.22z" fill="#f4c17f"/><path d="m770.61 200.89-1.39.41" fill="none"/><g fill="#c49a6c"><path d="m752.05 120.18a39.8 39.8 0 0 1 -.68 5.27 40.79 40.79 0 0 1 -29.3 31.31 39.82 39.82 0 0 1 -5.12 1.1 42.5 42.5 0 0 1 -39.83-16.13 40.44 40.44 0 0 1 -7.61-32.46c4.38-22.17 26.26-36.51 48.86-32 20.81 4.08 34.99 22.73 33.68 42.91z"/><path d="m288.49 412.24a1447.63 1447.63 0 0 0 -31.3 165.11 13.91 13.91 0 0 0 0 3.53h.05l27.58-2.88h.08a1420.2 1420.2 0 0 1 28.94-153.51l-4.15-26.94z"/><path d="m277.89 642.38c-.4 4.56-.78 9.22-1.12 13.9a1421 1421 0 0 0 3.49 253.53 13.78 13.78 0 0 1 -27.41 2.83 1451.51 1451.51 0 0 1 -3.55-258.43c.4-5.42.85-10.84 1.31-16.1 0-.47.11-.92.18-1.36z"/><path d="m623.44 436.07c-.06.32-.13.63-.21.95a1233.22 1233.22 0 0 0 -31.87 183.1c-1 10.52-1.9 21.13-2.64 31.75l-23.24 28.77a13.75 13.75 0 0 1 -5.48-11.71c1-17.1 2.25-34.42 3.9-51.45a1259.44 1259.44 0 0 1 32.52-187 13.6 13.6 0 0 1 1.36-3.55z"/></g><path d="m524.3 759c-13.58 39.62-26.17 95.25-31.45 150.68h-32.26c.52-50.19-6.86-151.43-68.21-209.49-35.56-33.64-82.71-51.48-128-60.87-53.41-11.08-104.3-10.44-130.77-10.12h-.17c31.46-22.53 79.82-44 137.46-50.1 9-1 18.14-1.55 27.52-1.71 121.42-2.01 189.12 92.61 225.88 181.61z" fill="#8dc63f"/><path d="m866.61 503c-37.88 20.25-61.6 36.36-80 51.08s-31.49 28-48.14 42.69c-146.18 128.77-141 209.41-142.34 232.36-.9 15.5-1.92 80.57-1.92 80.57h-101.36c5.28-55.43 17.87-111.06 31.45-150.68 6.69-19.52 13.63-35.18 20-45 0 0 8.93-18.29 29.47-44.32 41.89-53.11 131.97-138.4 292.84-166.7z" fill="#009444"/></svg>