<svg clip-rule="evenodd" fill-rule="evenodd" height="512" image-rendering="optimizeQuality" shape-rendering="geometricPrecision" text-rendering="geometricPrecision" viewBox="0 0 512 512" width="512" xmlns="http://www.w3.org/2000/svg"><g id="Layer_x0020_1"><g id="_448911944"><path d="m467 512h-262c-21 0-39-17-39-39v-280s0 0 0-1c2-15 10-33 26-50 13-15 31-28 48-36v-23c0-4 4-7 7-7h177c4 0 7 3 7 7v22c40 19 72 57 75 87v1 280c0 22-17 39-39 39z" fill="#ffe177"/><path d="m434 90h-197c-16 0-30-14-30-31v-29c0-16 14-30 30-30h197c17 0 31 14 31 30v29c0 17-14 31-31 31z" fill="#7a6d79"/><g fill="#e5e5e5"><path d="m274 90h-14v-90h14z"/><path d="m346 90h-14v-90h14z"/><path d="m418 90h-14v-90h14z"/></g><path d="m166 433v-228h340v228z" fill="#86e8d0"/><path d="m506 240v63h-82c-3 0-7-3-7-7v-49c0-4 4-7 7-7z" fill="#79d1bb"/><path d="m506 334v63h-82c-3 0-7-3-7-7v-49c0-4 4-7 7-7z" fill="#79d1bb"/></g><g id="_448911968" fill="#e6cb6b"><path d="m229 512h-24c-21 0-39-17-39-39v-280s0 0 0-1c2-14 10-31 24-48 5 5 9 11 12 17 8 16 10 35 8 53v1 1c-1 3 0 6 0 8 1 8 4 15 7 22 15 33 48 61 77 80 0 0 0 0 1 1 16 14 35 31 42 52 6 18 6 35-1 53-12 29-40 51-67 65-3 2-7 4-11 5l-2 1c-5 2-11 4-17 6l-9 3z"/><path d="m166 433v-228h45c-1 3-1 6-1 9v1 1c-1 3 0 6 0 8 1 8 4 15 7 22 15 33 48 61 77 80 0 0 0 0 1 1 16 14 35 31 42 52 6 18 6 35-1 53-1 0-1 1-1 1z"/></g><g id="_448910288"><path d="m188 512c26 0 54-6 79-19 31-16 54-39 64-63 7-17 7-33 1-50s-20-34-40-50c-50-33-71-63-80-82-9-21-7-34-7-34 5-47-19-67-20-68s-3-1-5 0l-39 18c-2 1-3 2-3 4 0 1 0 2 1 4 12 20 16 39 10 58-12 39-60 61-64 63-46 14-71 51-72 52v1c-15 29-15 56-2 81 25 49 103 76 161 84 5 1 11 1 16 1z" fill="#fff5cc"/><g fill="#efecb4"><path d="m238 505c5-2 11-4 17-6 19-29 27-71 15-107-10-32-27-55-28-56-2-2-5-2-7 0-2 1-3 4-1 7s17 22 27 52c12 39 1 83-22 108-1 0-1 1-1 2z"/><path d="m188 512h12c14-22 25-51 28-76 2-22 0-45-6-69-10-41-28-70-29-71-1-2-4-3-7-2-2 2-3 5-1 7 0 1 18 29 28 68 12 53 1 105-25 142z"/><path d="m153 508c5 1 9 2 14 3-26-37-41-87-31-128 7-31 23-52 23-52 1-2 1-5-1-7s-5-1-7 1c-1 1-17 22-25 55-4 19-5 39-2 58 3 21 16 49 29 70z"/><path d="m96 491c5 3 10 4 15 6-24-34-41-82-33-113 7-23 21-37 22-37 2-2 2-5 0-7s-5-2-7-1c-1 1-17 16-24 43-5 15-5 31-2 48 3 15 16 41 29 61z"/></g></g></g></svg>