<svg id="Layer_3" viewBox="0 0 512 512" xmlns="http://www.w3.org/2000/svg" data-name="Layer 3"><g><rect fill="#91caed" height="28.249" rx="12" width="222.065" x="10.1" y="80.658"/><path d="m174.5532227 108.9067383h45.6121826c6.6274414 0 12-5.3725586 12-12v-4.2485352c0-6.6274414-5.3725586-12-12-12h-25.6855469c-7.6414795 8.6982422-14.3111572 18.1767578-19.9266357 28.2485352z" fill="#6cacdd"/><rect fill="#91caed" height="28.249" rx="12" width="222.065" x="10.1" y="419.788"/><path d="m220.1654053 448.0366211c6.6274414 0 12-5.3725586 12-12v-4.2485352c0-6.6274414-5.3725586-12-12-12h-63.2054443v28.2485352z" fill="#6cacdd"/><rect fill="#fcdc45" height="310.881" rx="24" width="222.065" x="10.1" y="108.907"/><path d="m-10.308 177.315h262.881v174.065h-262.881z" fill="#ffee93" transform="matrix(0 1 -1 0 385.48 143.215)"/><path d="m208.1654053 419.7880859c13.2547607 0 24-10.7451172 24-24v-262.8813476c0-13.2546387-10.7452393-24-24-24h-33.6121826c-13.272583 23.8051758-20.6132812 50.9399414-20.6132812 79.0737305 0 10.5341797.9926758 20.9208984 2.9648438 31.0957031-14.4584961 4.6757812-24.9448242 18.2685547-24.9448242 34.2636719v93.7001953c0 16.015625 10.5126953 29.6220703 25 34.28125v38.4667969h51.2054443z" fill="#ffc200"/><path d="m232.1653521 243.8584357h-20.4016349c-13.0010613 0-23.5405038-10.5394425-23.5405038-23.5405038v-.0000471c0-13.0010613-10.5394425-23.5405038-23.5405038-23.5405038h-87.0997785c-13.0010613 0-23.5405038 10.5394425-23.5405038 23.5405038v.0000471c0 13.0010613-10.5394425 23.5405038-23.5405038 23.5405038h-20.4017569v73.0229492h20.4017569c13.0010613 0 23.5405038 10.5394425 23.5405038 23.5405038v.0000471c0 13.0010613 10.5394425 23.5405038 23.5405038 23.5405038h87.0997785c13.0010613 0 23.5405038-10.5394425 23.5405038-23.5405038v-.0000471c0-13.0010613 10.5394425-23.5405038 23.5405038-23.5405038h20.4016349z" fill="#fb5657"/><path d="m211.7636719 316.8813477h20.4016113v-73.0229492h-20.4016113c-13.0009766 0-23.5405273-10.5395508-23.5405273-23.5405273 0-13.0009766-10.5393066-23.5405273-23.5404053-23.5405273h-10.5020752c.3991699 7.5263672 1.3032227 14.9682617 2.7241211 22.2988281-14.4584961 4.6757812-24.9448242 18.2685547-24.9448242 34.2636719v93.7001953c0 6.1137695 1.5360107 11.8745117 4.2363281 16.9223633h28.4864502c13.0010986 0 23.5404053-10.5395508 23.5404053-23.5405273 0-13.0009766 10.5395508-23.5405273 23.5405273-23.5405273z" fill="#d13b42"/></g><g><path d="m248.4652789 67.2910605c-42.0997314 23.7595215-70.5296631 68.9013672-70.5296631 120.6896973 0 18.9118652 3.7958984 36.9355469 10.6586914 53.3583984h255.6757812c6.862793-16.4228516 10.6586914-34.4465332 10.6586914-53.3583984 0-51.7883301-28.4299316-96.9301758-70.5296631-120.6896973h-135.9338379z" fill="#caf8ff"/><path d="m181.0673828 217.3388672c1.7932129 8.2998047 4.3203125 16.3266602 7.5268555 24h255.6757812c3.2067871-7.6733398 5.7338867-15.7001953 7.5268555-24z" fill="#afeeff"/><path d="m417.7084429 241.3391563c8.43396-15.9433594 13.2198486-34.1013184 13.2198486-53.3586426 0-63.1337891-51.3623047-114.4960938-114.4960938-114.4960938s-114.496582 51.3623047-114.496582 114.4960938c0 19.2573242 4.7858887 37.4152832 13.2199707 53.3586426h202.5528564z" fill="#91caed"/><path d="m384.3991168 67.2910605c-10.1387939 27.7124023-36.7427979 47.4916992-67.9669189 47.4916992s-57.828125-19.7792969-67.9669189-47.4916992l.0130615-.0073242h135.9077148z" fill="#6cacdd"/><path d="m316.4321978 35.2559043c-17.6884766 0-32.0279541 14.3393555-32.0279541 32.027832h64.0559082c0-17.6884766-14.3394775-32.027832-32.0279541-32.027832z" fill="#caf8ff"/><path d="m205.7678223 217.3388672c2.2365723 8.4155273 5.3979492 16.4580078 9.3876953 24h202.5529785c3.9897461-7.5419922 7.151123-15.5844727 9.3876953-24z" fill="#6cacdd"/><rect fill="#0087ff" height="117.702" rx="12" width="320.935" x="155.965" y="241.339"/><path d="m281.58 163.723h69.703v272.935h-69.703z" fill="#33a6fb" transform="matrix(0 1 -1 0 616.622 -16.241)"/><rect fill="#d13b42" height="117.702" rx="12" width="320.935" x="180.965" y="359.042"/><path d="m306.581 281.426h69.702v272.935h-69.702z" fill="#fb5657" transform="matrix(0 1 -1 0 759.325 76.461)"/><g fill="#d2f7ff"><path d="m398.9682091 300.1904646s-28.719957 19.6855742-64.1478193 19.6855742-64.1478193-19.6855742-64.1478193-19.6855742 28.719957-19.6855742 64.1478193-19.6855742 64.1478193 19.6855742 64.1478193 19.6855742z"/><path d="m270.6725705 300.1904646-36.7763798-21.2328528v42.4657056z"/></g><g fill="#caf8ff"><path d="m423.9682091 417.8928853s-28.719957 19.6855742-64.1478193 19.6855742-64.1478193-19.6855742-64.1478193-19.6855742 28.719957-19.6855742 64.1478193-19.6855742 64.1478193 19.6855742 64.1478193 19.6855742z"/><path d="m295.6725705 417.8928853-36.7763798-21.2328528v42.4657057z"/></g></g></svg>