<?xml version="1.0"?>
<svg xmlns="http://www.w3.org/2000/svg" id="flat1" viewBox="0 0 64 64" width="512" height="512"><path d="M59.575,27.138A5.985,5.985,0,0,0,56.7,23.009,5.988,5.988,0,0,0,52.137,15.1a5.99,5.99,0,0,0-6.993-5.869,5.99,5.99,0,0,0-8.579-3.122,5.99,5.99,0,0,0-9.13,0,5.99,5.99,0,0,0-8.579,3.122A5.99,5.99,0,0,0,11.863,15.1,5.988,5.988,0,0,0,7.3,23.009,5.989,5.989,0,0,0,5.712,32,5.989,5.989,0,0,0,7.3,40.991,5.988,5.988,0,0,0,11.863,48.9a5.99,5.99,0,0,0,6.993,5.869,5.99,5.99,0,0,0,8.579,3.122,5.99,5.99,0,0,0,9.13,0,5.99,5.99,0,0,0,8.579-3.122A5.99,5.99,0,0,0,52.137,48.9,5.988,5.988,0,0,0,56.7,40.991,5.989,5.989,0,0,0,58.288,32,5.985,5.985,0,0,0,59.575,27.138Z" style="fill:#ce6824"/><path d="M32,10.5A22.946,22.946,0,0,0,9.138,31a1,1,0,0,0,.994,1.107H29.608a1,1,0,0,0,1-1V16.468a1,1,0,0,0-1.137-.99,18.007,18.007,0,0,0-5.063,1.477,18.232,18.232,0,0,0-8.953,8.953,1,1,0,0,0,.908,1.418h8.463a1,1,0,0,0,1-1V22.979a1,1,0,0,0-2,0v2.347H18.01a16.251,16.251,0,0,1,7.234-6.555,15.938,15.938,0,0,1,3.364-1.113v12.45H11.275a21,21,0,0,1,41.45,0H35.392V17.658a15.938,15.938,0,0,1,3.364,1.113,16.251,16.251,0,0,1,7.234,6.555H40.174V22.979a1,1,0,0,0-2,0v3.347a1,1,0,0,0,1,1h8.463a1,1,0,0,0,.908-1.418,18.232,18.232,0,0,0-8.953-8.953,18.007,18.007,0,0,0-5.063-1.477,1,1,0,0,0-1.137.99v14.64a1,1,0,0,0,1,1H53.868A1,1,0,0,0,54.862,31,22.946,22.946,0,0,0,32,10.5Z" style="fill:#be5c18"/><path d="M53.868,34.892H34.392a1,1,0,0,0-1,1v14.64a1,1,0,0,0,.343.754.983.983,0,0,0,.794.236,18.169,18.169,0,0,0,14.016-10.43,1,1,0,0,0-.908-1.418H39.174a1,1,0,0,0-1,1v3.347a1,1,0,0,0,2,0V41.674H45.99a16.251,16.251,0,0,1-7.234,6.555,15.919,15.919,0,0,1-3.364,1.113V36.892H52.725a21,21,0,0,1-41.45,0H28.608v12.45a15.938,15.938,0,0,1-3.364-1.113,16.251,16.251,0,0,1-7.234-6.555h5.816v2.347a1,1,0,0,0,2,0V40.674a1,1,0,0,0-1-1H16.363a1,1,0,0,0-.908,1.418,18.232,18.232,0,0,0,8.953,8.953,18.007,18.007,0,0,0,5.063,1.477.98.98,0,0,0,.794-.236,1,1,0,0,0,.343-.754V35.892a1,1,0,0,0-1-1H10.132A1,1,0,0,0,9.138,36a23,23,0,0,0,45.724,0,1,1,0,0,0-.994-1.107Z" style="fill:#be5c18"/><path d="M32,9A22.946,22.946,0,0,0,9.138,29.5a1,1,0,0,0,.994,1.107H29.608a1,1,0,0,0,1-1V14.968a1,1,0,0,0-1.137-.99,18.007,18.007,0,0,0-5.063,1.477,18.232,18.232,0,0,0-8.953,8.953,1,1,0,0,0,.908,1.418h8.463a1,1,0,0,0,1-1V21.479a1,1,0,0,0-2,0v2.347H18.01a16.251,16.251,0,0,1,7.234-6.555,15.938,15.938,0,0,1,3.364-1.113v12.45H11.275a21,21,0,0,1,41.45,0H35.392V16.158a15.938,15.938,0,0,1,3.364,1.113,16.251,16.251,0,0,1,7.234,6.555H40.174V21.479a1,1,0,0,0-2,0v3.347a1,1,0,0,0,1,1h8.463a1,1,0,0,0,.908-1.418,18.232,18.232,0,0,0-8.953-8.953,18.007,18.007,0,0,0-5.063-1.477,1,1,0,0,0-1.137.99v14.64a1,1,0,0,0,1,1H53.868a1,1,0,0,0,.994-1.107A22.946,22.946,0,0,0,32,9Z" style="fill:#d3793c"/><path d="M53.868,33.392H34.392a1,1,0,0,0-1,1v14.64a1,1,0,0,0,.343.754.983.983,0,0,0,.794.236,18.169,18.169,0,0,0,14.016-10.43,1,1,0,0,0-.908-1.418H39.174a1,1,0,0,0-1,1v3.347a1,1,0,0,0,2,0V40.174H45.99a16.251,16.251,0,0,1-7.234,6.555,15.919,15.919,0,0,1-3.364,1.113V35.392H52.725a21,21,0,0,1-41.45,0H28.608v12.45a15.938,15.938,0,0,1-3.364-1.113,16.251,16.251,0,0,1-7.234-6.555h5.816v2.347a1,1,0,0,0,2,0V39.174a1,1,0,0,0-1-1H16.363a1,1,0,0,0-.908,1.418,18.232,18.232,0,0,0,8.953,8.953,18.007,18.007,0,0,0,5.063,1.477.98.98,0,0,0,.794-.236,1,1,0,0,0,.343-.754V34.392a1,1,0,0,0-1-1H10.132A1,1,0,0,0,9.138,34.5a23,23,0,0,0,45.724,0,1,1,0,0,0-.994-1.107Z" style="fill:#d3793c"/><path d="M59.526,32a6.986,6.986,0,0,0-1.659-9.415,6.986,6.986,0,0,0-4.78-8.279,6.987,6.987,0,0,0-7.323-6.145,6.989,6.989,0,0,0-8.985-3.27,6.984,6.984,0,0,0-9.558,0,6.989,6.989,0,0,0-8.985,3.27,6.987,6.987,0,0,0-7.323,6.145,6.986,6.986,0,0,0-4.78,8.279A6.986,6.986,0,0,0,4.474,32a6.986,6.986,0,0,0,1.659,9.415,6.986,6.986,0,0,0,4.78,8.279,6.987,6.987,0,0,0,7.323,6.145,6.989,6.989,0,0,0,8.985,3.27,6.984,6.984,0,0,0,9.558,0,6.989,6.989,0,0,0,8.985-3.27,6.987,6.987,0,0,0,7.323-6.145,6.986,6.986,0,0,0,4.78-8.279A6.986,6.986,0,0,0,59.526,32Zm-2.01.637A4.988,4.988,0,0,1,56.2,40.129a1,1,0,0,0-.435,1.2,4.989,4.989,0,0,1-3.8,6.588,1,1,0,0,0-.818.976,4.989,4.989,0,0,1-5.828,4.889,1.007,1.007,0,0,0-1.1.637,4.99,4.99,0,0,1-7.149,2.6,1,1,0,0,0-1.254.22,4.989,4.989,0,0,1-7.608,0,1,1,0,0,0-1.254-.22,4.99,4.99,0,0,1-7.149-2.6,1.011,1.011,0,0,0-1.1-.637,4.989,4.989,0,0,1-5.828-4.889,1,1,0,0,0-.818-.976,4.989,4.989,0,0,1-3.8-6.588,1,1,0,0,0-.435-1.2,4.988,4.988,0,0,1-1.321-7.492,1,1,0,0,0,0-1.274,4.988,4.988,0,0,1,1.321-7.492,1,1,0,0,0,.435-1.2,4.989,4.989,0,0,1,3.8-6.588,1,1,0,0,0,.818-.976,4.989,4.989,0,0,1,5.828-4.889,1.017,1.017,0,0,0,1.1-.637,4.99,4.99,0,0,1,7.149-2.6,1,1,0,0,0,1.254-.22,4.989,4.989,0,0,1,7.608,0,1,1,0,0,0,1.254.22,4.99,4.99,0,0,1,7.149,2.6,1.011,1.011,0,0,0,1.1.637,4.989,4.989,0,0,1,5.828,4.889,1,1,0,0,0,.818.976,4.989,4.989,0,0,1,3.8,6.588,1,1,0,0,0,.435,1.2,4.988,4.988,0,0,1,1.321,7.492A1,1,0,0,0,57.516,32.637Z" style="fill:#d3793c"/></svg>
