<svg height="512" viewBox="0 0 58 52" width="512" xmlns="http://www.w3.org/2000/svg"><g id="Page-1" fill="none" fill-rule="evenodd"><g id="011---Mozzarella"><path id="Path" d="m10.08 17.81c3.04-9.19 12.38-17.81 23.42-17.81 16.2 0 24.5 12.95 24.5 24s-10.97 16-24.5 16c-2.6962767.007018-5.3896704-.1767744-8.06-.55-.06-.16-.13-.31-.2-.47z" fill="#f3d55b"/><path id="Path" d="m9.99 18.06c-.65646256 1.7384878-.99190005 3.5816999-.99 5.44-.00166213.0901157.00167634.1802542.01.27" fill="#f5efca"/><path id="Path" d="m40 23.5c.0023226 8.2732521-6.4960122 15.0885788-14.76 15.48-1.2526356-2.665126-2.9693783-5.0861733-5.07-7.15-3.57-3.56-7.67-5.78-11.03-6.26-.0788484-.5667423-.12226604-1.1378513-.13-1.71v-.09c.03578835-1.9419632.36622056-3.8672366.98-5.71.0122651-.0449004.0290161-.088453.05-.13.01-.04.03-.08.04-.12 2.7306998-6.927025 10.0010621-10.93366126 17.3157952-9.5425907 7.314733 1.39107055 12.6068455 7.7867603 12.6042048 15.2325907z" fill="#f9eab0"/><path id="Path" d="m9.08 25.57c-.05-.51-.08-1.03-.08-1.57-.00165235-.0468895.00169993-.0938214.01-.14" fill="#f5efca"/><path id="Path" d="m42.031 36.153c-.5100848-.0043042-.9351731-.3918498-.9864891-.8993651s.2875902-.9723101.7864891-1.0786349c7.409-1.567 11.169-4.99 11.169-10.175 0-.5522847.4477153-1 1-1s1 .4477153 1 1c0 6.172-4.413 10.368-12.761 12.132-.0684681.0138627-.1381427.0208971-.208.021z" fill="#b19046"/><path id="Path" d="m25.12 48.1c-5.47 5.47-14.66 5.15-20.51-.71s-6.18-15.04-.71-20.51z" fill="#f0c419"/><path id="Path" d="m25.12 48.1c-3.13 3.12-10.41.91-16.27-4.95s-8.07-13.14-4.95-16.27c1.41813219-1.2393205 3.34320314-1.7261627 5.18-1.31.02-.01.04 0 .06 0 3.36.48 7.46 2.7 11.03 6.26 2.1006217 2.0638267 3.8173644 4.484874 5.07 7.15.07.16.14.31.2.47 1.5 3.56 1.51 6.82-.32 8.65z" fill="#f5efca"/></g></g></svg>