<svg clip-rule="evenodd" fill-rule="evenodd" height="512" stroke-linejoin="round" stroke-miterlimit="2" viewBox="0 0 32 32" width="512" xmlns="http://www.w3.org/2000/svg"><g id="detailed"><g><path d="m7.822 4.935s1.263-3.7 4.739-1.679c3.477 2.021 3.348 6.618 0 12.437-2.511 4.366-1.136 10.506-.919 13.196s-4.183-7.093-1.744-12.656 3.213-7.021 1.744-7.602" fill="#f2e1bf"/><path d="m23.14 4.935s1.263-3.7 4.74-1.679c3.476 2.021 3.347 6.618 0 12.437-2.511 4.366-1.137 10.506-.92 13.196s-4.182-7.093-1.743-12.656c2.438-5.563 3.212-7.021 1.743-7.602" fill="#f2e1bf"/><path d="m9.147 6.217-1.325-1.282s1.263-3.7 4.739-1.679c3.477 2.021 3.348 6.618 0 12.437-2.511 4.366-1.136 10.506-.919 13.196.033.416-.044.534-.189.414-.263-.652-3.256-8.32-.487-13.303 0 0 4.967-7.842 0-9.656 0 0-.853.007-1.819-.127z" fill="#fff" fill-opacity=".5"/><path d="m24.466 6.217-1.326-1.282s1.263-3.7 4.74-1.679c3.476 2.021 3.347 6.618 0 12.437-2.511 4.366-1.137 10.506-.92 13.196.034.416-.043.534-.189.414-.263-.652-3.256-8.32-.486-13.303 0 0 4.967-7.842 0-9.656 0 0-.853.007-1.819-.127z" fill="#fff" fill-opacity=".5"/><path d="m8.326 4.669c-.914.59-1.828.595-2.743.003-1.207-.782-2.822-.437-3.603.77-.782 1.208-.437 2.822.77 3.604 2.801 1.814 5.601 1.809 8.402.003 1.208-.78 1.556-2.394.777-3.603-.78-1.208-2.394-1.557-3.603-.777z" fill="#e3bb6c"/><path d="m23.645 4.669c-.914.59-1.829.595-2.743.003-1.207-.782-2.822-.437-3.604.77-.782 1.208-.436 2.822.771 3.604 2.8 1.814 5.601 1.809 8.401.003 1.209-.78 1.557-2.394.777-3.603-.779-1.208-2.394-1.557-3.602-.777z" fill="#e3bb6c"/><g fill="#f2e1bf"><path d="m5.244 4.486c.116.053.229.114.339.186.915.592 1.829.587 2.743-.003.052-.033.105-.065.158-.094.157.159.311.561.311.719 0 1.017-.825 1.843-1.842 1.843s-1.843-.826-1.843-1.843c0-.158.021-.312.058-.458 0 0 .027-.141.076-.35z"/><path d="m20.563 4.486c.116.053.229.114.339.186.914.592 1.829.587 2.743-.003.052-.033.104-.065.157-.094.157.159.312.561.312.719 0 1.017-.826 1.843-1.843 1.843-1.016 0-1.842-.826-1.842-1.843 0-.158.02-.312.058-.458 0 0 .027-.141.076-.35z"/></g></g></g></svg>