<svg id="color" height="512" viewBox="0 0 256 256" width="512" xmlns="http://www.w3.org/2000/svg"><path d="m111.91 81.0119-11.0563 17.6725a21.7936 21.7936 0 0 1 -30.0352 6.9156 21.7932 21.7932 0 0 1 -6.9153-30.0341l11.0568-17.6723a21.7922 21.7922 0 0 1 30.0341-6.9153 21.7918 21.7918 0 0 1 6.9159 30.0336z" fill="#8b8f21"/><path d="m45.2322 89.2833 21.7792 3.3489a23.0364 23.0364 0 0 1 19.2672 26.2695 23.0369 23.0369 0 0 1 -26.27 19.2683l-21.7793-3.3494a23.036 23.036 0 0 1 -19.2666-26.2695 23.0357 23.0357 0 0 1 26.2695-19.2678z" fill="#a4aa24"/><path d="m49.7488 97.8948 10.3672 1.5942a8.8547 8.8547 0 0 1 7.4062 10.0977 8.8541 8.8541 0 0 1 -10.0977 7.4056l-10.3667-1.5941a8.8541 8.8541 0 0 1 -7.4067-10.0971v-.0011a8.8545 8.8545 0 0 1 10.0977-7.4052z" fill="#ccc76d"/><path d="m50.7 102.996h5.499v8.854h-5.499z" fill="#99951c" transform="matrix(.152 -.988 .988 .152 -60.85 143.92)"/><path d="m180.94 103.3261-19.13-9.423a22.2946 22.2946 0 0 1 -10.149-29.8521v-.001a22.2952 22.2952 0 0 1 29.8515-10.1487l19.1313 9.423a22.2949 22.2949 0 0 1 10.1487 29.852 22.2958 22.2958 0 0 1 -29.8525 10.1498z" fill="#8b8f21"/><path d="m181.9926 88.5443-9.1061-4.4854a8.5692 8.5692 0 0 1 -3.9-11.4748 8.57 8.57 0 0 1 11.4743-3.901l9.1067 4.4854a8.57 8.57 0 0 1 3.9 11.4748 8.57 8.57 0 0 1 -11.4749 3.901z" fill="#a4aa24"/><path d="m178.596 74.389h5.5v8.568h-5.5z" fill="#8b8f21" transform="matrix(.442 -.897 .897 .442 30.647 206.601)"/><path d="m62.8532 211.0971h22.0348a23.0362 23.0362 0 0 0 23.0361-23.0355 23.0366 23.0366 0 0 0 -23.0361-23.0372h-22.0348a23.0371 23.0371 0 0 0 -23.0366 23.0371 23.0367 23.0367 0 0 0 23.0366 23.0356z" fill="#a4aa24"/><path d="m87.9534 210.8881a23.1719 23.1719 0 0 1 -3.0653.2089h-22.0349a23.1866 23.1866 0 0 1 -3.0659-.2089 8.8484 8.8484 0 0 1 8.8387-8.5266h10.4887a8.8484 8.8484 0 0 1 8.8387 8.5266z" fill="#ccc76d"/><path d="m142.3964 75.1138h-20.8464a21.7931 21.7931 0 0 0 -21.7926 21.7933 21.793 21.793 0 0 0 21.7926 21.7929h20.8463a21.7932 21.7932 0 0 0 21.7937-21.7929 21.7932 21.7932 0 0 0 -21.7936-21.7933z" fill="#a4aa24"/><path d="m118.6507 75.3115a22.07 22.07 0 0 1 2.8993-.1977h20.8463a22.0645 22.0645 0 0 1 2.9.1977 8.3708 8.3708 0 0 1 -8.3612 8.0663h-9.9231a8.37 8.37 0 0 1 -8.3613-8.0663z" fill="#ccc76d"/><path d="m211.301 159.3208h-22.0343a23.0367 23.0367 0 0 1 -23.0367-23.0366 23.0371 23.0371 0 0 1 23.0371-23.0366h22.0339a23.0365 23.0365 0 0 1 23.0361 23.0366 23.0362 23.0362 0 0 1 -23.0361 23.0366z" fill="#8b8f21"/><path d="m117.0845 168.1267-15.1045-16.0429a23.0361 23.0361 0 0 1 .98-32.5639 23.0369 23.0369 0 0 1 32.5633.98l15.1057 16.0429a23.0369 23.0369 0 0 1 -.98 32.5634 23.0365 23.0365 0 0 1 -32.5645-.9795z" fill="#8b8f21"/><path d="m118.8242 158.5592-7.19-7.6366a8.8533 8.8533 0 0 1 .3771-12.5162 8.8542 8.8542 0 0 1 12.5162.376l7.19 7.6366a8.855 8.855 0 0 1 -.376 12.5168 8.8556 8.8556 0 0 1 -12.5173-.3766z" fill="#ccc76d"/><path d="m119.02 144.344h5.5v8.854h-5.5z" fill="#99951c" transform="matrix(.728 -.685 .685 .728 -68.868 123.919)"/><path d="m180.6546 192.97-21.1777 6.0871a23.0366 23.0366 0 0 1 -28.5033-15.7771 23.0364 23.0364 0 0 1 15.776-28.5039l21.1777-6.0865a23.0345 23.0345 0 0 1 28.5027 15.7761 23.0363 23.0363 0 0 1 -15.7754 28.5043z" fill="#a4aa24"/><path d="m171.1881 180.9346-10.08 2.8972a8.8535 8.8535 0 0 1 -10.9559-6.064 8.8534 8.8534 0 0 1 6.064-10.9559l10.081-2.8983a8.8549 8.8549 0 0 1 10.9554 6.064 8.8537 8.8537 0 0 1 -6.0645 10.957z" fill="#ccc76d"/><path d="m159.408 171.085h8.854v5.5h-8.854z" fill="#99951c" transform="matrix(.961 -.276 .276 .961 -41.636 52.006)"/></svg>