<svg id="Capa_1" enable-background="new 0 0 512 512" height="512" viewBox="0 0 512 512" width="512" xmlns="http://www.w3.org/2000/svg"><path d="m256 325.833s260.096.091 255.951-108.172c-4.739-123.795-147.778-217.661-255.951-217.661s-251.212 93.866-255.951 217.661c-4.145 108.262 255.951 108.172 255.951 108.172z" fill="#ffaa5c"/><path d="m511.211 207.289c-15.492 95.789-255.211 95.707-255.211 95.707s-239.719.082-255.211-95.707c-.348 3.434-.607 6.889-.74 10.372-4.144 108.262 255.951 108.172 255.951 108.172s260.095.091 255.951-108.172c-.134-3.483-.392-6.938-.74-10.372z" fill="#ff9838"/><path d="m256 325.833s-35.409.011-79.886-5.411c-13.734 36.664-33.462 94.634-33.471 125.127-.016 55.597 80.165 66.451 113.357 66.451s113.373-10.854 113.357-66.451c-.009-30.493-19.737-88.463-33.471-125.127-44.478 5.422-79.886 5.411-79.886 5.411z" fill="#f4e9d3"/><path d="m168.96 340.046c47.774 6.333 87.04 6.321 87.04 6.321s39.266.012 87.041-6.321c-2.471-6.971-4.894-13.59-7.155-19.624-44.478 5.422-79.886 5.411-79.886 5.411s-35.409.011-79.886-5.411c-2.26 6.034-4.684 12.653-7.154 19.624z" fill="#e5d6be"/></svg>