<svg id="Capa_1" enable-background="new 0 0 497 497" height="512" viewBox="0 0 497 497" width="512" xmlns="http://www.w3.org/2000/svg"><g><g><g><path d="m191.591 482.775c5.121 14.988 24.373 19.136 35.214 7.588 83-88.415 346.444-388.466 165.022-454.491-206.542-75.165-309.485 127.179-200.236 446.903z" fill="#383a47"/></g></g><g><g><path d="m216.808 414.088c3.432 10.043 16.331 12.822 23.595 5.085 55.615-59.243 232.14-260.298 110.576-304.538-138.396-50.366-207.375 85.217-134.171 299.453z" fill="#ffac7b"/></g></g><g><g><path d="m391.826 35.872c-35.083-12.767-67.172-17.519-95.744-15.059 20.496 1.649 42.459 6.585 65.744 15.059 181.422 66.024-82.022 366.076-165.022 454.491-.112.119-.23.227-.344.343 7.945 8.098 21.772 8.789 30.344-.343 83-88.415 346.445-388.466 165.022-454.491z" fill="#2e303b"/></g></g><g><g><path d="m350.979 114.634c-25.466-9.268-48.577-12.232-68.889-9.576 12.241 1.451 25.225 4.603 38.889 9.576 117.507 42.764-43.505 232.044-104.615 298.139.149.439.294.875.444 1.315 3.431 10.043 16.331 12.822 23.595 5.085 55.616-59.244 232.14-260.298 110.576-304.539z" fill="#fa955a"/></g></g><g><g><path d="m187.854 488.434c9.938 12.333 22.273-9.916 28.51-24.475 47.759-111.468 187.264-463.953 6.819-463.959-219.793-.008-247.331 225.349-35.329 488.434z" fill="#565b6f"/></g></g><g fill="#6b718a"><path d="m232.638 118.388c-51.287 0-93.46 11.837-125.35 35.182-27.501 20.133-46.149 47.815-55.579 82.416 1.931 8.049 4.177 16.243 6.741 24.573 18.759-91.046 82.807-127.171 174.187-127.171 36.546 0 62.291 8.861 83.348 51.77.997-6.935 1.849-13.792 2.549-20.552-17.266-30.674-46.108-46.218-85.896-46.218z"/><path d="m234.035 303.179c-57.798 2.466-104.699 20.216-135.855 51.352 2.4 4.525 4.871 9.072 7.43 13.644 29.072-28.134 75.311-47.716 129.063-50.009 16.788-.713 34.621 3.391 47.155 9.178 1.336-4.242 2.657-8.513 3.962-12.805-14.512-7.054-32.207-12.194-51.755-11.36z"/></g><g><g><g><path d="m223.183 0c-6.123 0-12.089.185-17.914.531 174.72 15.507 34.992 373.943-11.73 482.992-1.076 2.512-2.555 4.662-4.305 6.451 10.266 10.521 28.344 7.462 34.305-6.451 47.76-111.469 192.707-483.523-.356-483.523z" fill="#454753"/></g></g><g fill="#383a47"><path d="m258.592 305.191c-1.401 4.74-2.826 9.456-4.271 14.145 10.184 1.563 19.839 4.467 27.508 8.008v-.001c1.336-4.241 2.657-8.511 3.961-12.802 0-.001.001-.002.001-.003-8.143-3.957-17.288-7.311-27.199-9.347z"/><path d="m290.592 133.939c-.143 5.198-.399 10.48-.772 15.842 9.608 7.849 18.222 19.187 26.167 35.377.996-6.927 1.847-13.776 2.546-20.529.001-.008.001-.016.002-.023-7.273-12.921-16.609-23.146-27.943-30.667z"/></g></g></g></svg>