<svg id="Capa_1" enable-background="new 0 0 512 512" height="512" viewBox="0 0 512 512" width="512" xmlns="http://www.w3.org/2000/svg"><g><path d="m304 128-27.396 10.302h-44.985l-23.619-10.302 30.634-122.538c.803-3.21 3.687-5.462 6.996-5.462h20.739c3.309 0 6.193 2.252 6.996 5.462z" fill="#ffe02f"/><path d="m266.37 0h-20.74c-3.309 0-6.193 2.252-6.996 5.462l-30.634 122.537 22.932 10.302 18.275-10.302 27.396-109.584-3.238-12.953c-.802-3.21-3.686-5.462-6.995-5.462z" fill="#fbc700"/><path d="m318.13 511.998h-124.26c-29.309 0-54.856-19.947-61.964-48.38-13.04-52.16-12.129-106.833 2.641-158.531l41.453-145.088h160l41.454 145.088c14.771 51.697 15.682 106.37 2.641 158.531-7.109 28.433-32.656 48.38-61.965 48.38z" fill="#ffe02f"/><path d="m388.07 415.997c-1.391 15.999-4.049 31.925-7.974 47.625-3.554 14.216-11.723 26.311-22.654 34.851-10.94 8.541-24.652 13.527-39.312 13.527h-124.26c-29.309 0-54.857-19.944-61.966-48.377-3.925-15.7-6.583-31.627-7.974-47.625-.783-8.891 9.127-17.791 9.127-26.692 0-28.371 3.935-56.711 11.796-84.218l3.719-49.088 27.424-96.003 32.004-10.303h96l32.004 10.302 27.424 96.003 3.719 49.088c10.322 36.139 24.188 73.731 20.923 110.91z" fill="#ffe02f"/><path d="m123.93 415.997h264.14c3.266-37.179-.299-74.771-10.621-110.91l-14.021-49.088h-214.856z" fill="#fff3de"/><path d="m131.904 463.623c7.108 28.433 32.657 48.377 61.966 48.377h51.509c-29.309 0-54.857-19.944-61.966-48.377-3.925-15.7-6.583-31.627-7.974-47.625h-51.509c1.391 15.998 4.049 31.925 7.974 47.625z" fill="#fbc700"/><path d="m227.505 159.996-15.995-10.302-35.514 10.302-27.424 96.003h51.51z" fill="#fbc700"/><path d="m186.061 305.087 14.021-49.088h-51.509l-14.021 49.088c-7.86 27.506-11.796 55.846-11.796 84.218 0 8.901.391 17.802 1.174 26.692h51.509c-.783-8.891-1.174-17.791-1.174-26.692 0-28.371 3.935-56.712 11.796-84.218z" fill="#ffe5c2"/><path d="m352 159.999h-192c-8.837 0-16-7.163-16-16 0-8.837 7.163-16 16-16h192c8.837 0 16 7.163 16 16 0 8.837-7.164 16-16 16z" fill="#fff3de"/><path d="m195.51 144c0-8.837 7.163-16 16-16h-51.51c-8.837 0-16 7.164-16 16s7.163 16 16 16h51.509c-8.836-.001-15.999-7.164-15.999-16z" fill="#ffe5c2"/><circle cx="256" cy="335.968" fill="#f24141" r="32"/></g></svg>