<svg height="512" viewBox="0 0 48 48" width="512" xmlns="http://www.w3.org/2000/svg"><path d="m18.4 5.3c.3-.2.9-.3 1.7-.3 5.9.1 24 6.2 24 10 0 4.3-12 17-16 17s-11.9-24.7-9.7-26.7z" fill="#ffa000"/><path d="m32 20.3c0 2.9-1 7.1-2.5 11.3-.6.2-1 .4-1.5.4-.4 0-1-.3-1.5-.9 1.4-4 2.5-8 2.4-10.7 0-1.6-.2-2.7-1-3-.6-.2-1.4-.4-2.4-.4-.1 0-.2 0-.3 0-1.4 0-3.2.2-5 .5-.3-1-.6-2-.9-2.9 2.1-.3 4.1-.6 5.9-.6h.3c1.5 0 2.6.2 3.5.6 2.9 1.2 3 4.5 3 5.7zm4.1-1.8c0 .8.7 1.5 1.5 1.5s1.5-.7 1.5-1.5-.7-1.5-1.5-1.5-1.5.7-1.5 1.5zm-6-7.5c0 .5.4 1 1 1 .5 0 1-.4 1-1s-.4-1-1-1-1 .5-1 1zm-9.2-2.3c0 .5.4 1 1 1 .5 0 1-.4 1-1s-.4-1-1-1-1 .5-1 1zm16.2 5.3c0 .5.4 1 1 1s1-.4 1-1-.4-1-1-1-1 .5-1 1zm-4.1 10c0 .5.4 1 1 1 .5 0 1-.4 1-1 0-.5-.4-1-1-1-.5 0-1 .5-1 1z" fill="#f57f17"/><path d="m4 22c.9-2.3 15.1-6.1 21.6-6 1 0 1.8.1 2.4.4.8.3 1 1.4 1 3 .1 7.1-6.1 23.6-9 23.6-3.5 0-17.1-18.3-16-21z" fill="#ffc107"/><path d="m24 20c.6 0 1 .4 1 1s-.4 1-1 1-1-.4-1-1 .4-1 1-1zm-9 0c0 .6.4 1 1 1s1-.4 1-1-.4-1-1-1-1 .4-1 1zm-4 6c0 .6.4 1 1 1s1-.4 1-1-.4-1-1-1-1 .4-1 1zm11 .5c0 .8.7 1.5 1.5 1.5s1.5-.7 1.5-1.5-.7-1.5-1.5-1.5-1.5.7-1.5 1.5zm-9.1 5c0 .8.7 1.5 1.5 1.5s1.5-.7 1.5-1.5-.7-1.5-1.5-1.5-1.5.7-1.5 1.5zm7.1.5c0 .5.4 1 1 1 .5 0 1-.4 1-1 0-.5-.4-1-1-1-.5 0-1 .5-1 1zm-1 6c0 .5.4 1 1 1 .5 0 1-.4 1-1 0-.5-.4-1-1-1-.5 0-1 .5-1 1zm-2-12.5c0 .3.2.5.5.5s.5-.2.5-.5-.2-.5-.5-.5-.5.2-.5.5z" fill="#f9a825"/></svg>