<svg id="Lettuce" enable-background="new 0 0 64 64" viewBox="0 0 64 64" xmlns="http://www.w3.org/2000/svg"><g><path d="m47.05608 35.46632c-.26226 1.56924-.87727 3.36813-3.75335 7.10938-4.95631 6.44921-7.67866 7.05203-10.82606 11.73098-.98515 1.46691-2.21172 3.6315-3.18562 6.63953-.44554 1.3761-1.73513 2.30705-3.18156 2.30705h-.00001c-1.44644 0-2.73604-.93097-3.18156-2.30708-.97387-3.00801-2.20045-5.1726-3.18564-6.6395-3.1474-4.67895-5.86974-5.28177-10.81695-11.73098-2.87608-3.74126-3.50014-5.54014-3.75341-7.10938-.15374-.90896-.88632-5.39659 2.00786-8.58291.07762-.08581.15611-.16871.2353-.2488 1.78371-1.80394 2.39326-4.28147 1.83879-6.65521-.63261-2.70824-.36726-6.127 2.56559-8.72136.77842-.68677 1.61622-1.1269 2.42006-1.40248 2.15167-.73764 3.78273-2.38222 4.53709-4.35889.20832-.54587.46936-1.11612.79383-1.69247 2.08922-3.72215 5.27364-3.8042 6.53906-3.8042s4.44978.08205 6.54807 3.8042c.32305.57383.58278 1.14162.78996 1.68532.75435 1.97959 2.38575 3.62764 4.54038 4.36594.80421.27557 1.64211.71572 2.42063 1.40258 2.92959 2.59147 3.19495 6.00551 2.56261 8.71231-.55652 2.38225.06005 4.86551 1.85125 6.67502.07597.07675.1513.15606.22587.23803 2.88514 3.18633 2.15255 7.67395 2.00781 8.58292z" fill="#75d64c"/><g><path d="m54.43103 45.9563c-.88012 1.32541-2.176 2.71642-6.32896 4.95734-7.15755 3.86354-9.88877 3.3023-14.67226 6.28842-1.85685 1.16109-4.48978 3.14903-7.15341 6.60117l-4.62345-2.06794c.7978-4.28668.52456-7.57447.15225-9.7326-.96272-5.55624-3.20169-7.21804-5.08457-15.12513-1.0979-4.58949-.9331-6.4864-.52359-8.0223.23078-.89252 1.39431-5.28816 5.33723-7.01512.10589-.04664.21139-.09027.31637-.13105 2.36479-.91845 3.93278-2.93119 4.39582-5.32445.52828-2.73051 2.16636-5.74299 5.90288-6.91378.99099-.3091 1.93547-.3688 2.78178-.29216 2.26532.20516 4.42572-.63015 5.92139-2.12655.41304-.41324.88416-.82722 1.41567-1.22086 3.42689-2.54475 6.36728-1.31947 7.52242-.80281s4.02849 1.89171 4.42418 6.1462c.0606.65572.06588 1.28008.03302 1.86098-.11964 2.11507.69669 4.28557 2.3621 5.83926.62161.5799 1.20678 1.32381 1.63701 2.26867 1.6162 3.56175.4645 6.78661-1.2179 8.99933-1.48067 1.94741-1.93174 4.466-1.03546 6.84915.03801.10107.0744.20424.109.30951 1.33274 4.08665-1.16827 7.88407-1.67152 8.65472z" fill="#75d64c"/><g fill="#579c35"><path d="m37.3934 30.07348c-.475 0-.875-.36696-.91072-.84822-.13214-1.85089-.625-3.60179-1.4625-5.20446-.45357-.86964-1.00982-1.69107-1.65179-2.44286-.32857-.38304-.28304-.96071.10089-1.28839.38304-.32679.95982-.28393 1.28839.10089.73214.85536 1.36607 1.79197 1.88393 2.78393.95357 1.82589 1.51429 3.81696 1.66607 5.91875.03571.50357-.34286.94197-.84643.97768-.0232.00178-.04463.00268-.06784.00268z"/><path d="m32.78357 38.83598c-.475 0-.87589-.36786-.91071-.84822-.13393-1.85-.62589-3.60178-1.4625-5.20446-.45357-.86964-1.00982-1.69196-1.65268-2.44375-.32857-.38304-.28304-.96071.10089-1.28839.38214-.32857.95982-.28304 1.28839.10089.73214.85625 1.36607 1.79286 1.88482 2.78482.95268 1.82589 1.5125 3.81696 1.66429 5.91875.03661.50357-.34196.94107-.84554.97857-.02231.00179-.04463.00179-.06696.00179z"/><path d="m28.17375 47.59848c-.475 0-.87589-.36786-.91072-.84821-.13393-1.85-.62589-3.6-1.46339-5.20536-.45357-.86786-1.00893-1.68929-1.65178-2.44107-.32857-.38393-.28304-.96072.10089-1.28929.38214-.33036.95982-.28393 1.28839.1.73214.85714 1.36607 1.79285 1.88393 2.78393.95357 1.82857 1.51428 3.81964 1.66518 5.91964.03661.50357-.34196.94107-.84554.97857-.02231.00179-.04463.00179-.06696.00179z"/><path d="m40.0684 31.26901c-.27322 0-.54286-.12232-.72322-.35536-.30893-.4-.23571-.97411.16429-1.28304 1.66964-1.2875 3.52679-2.19732 5.52143-2.70357 1.08036-.27411 2.20179-.42589 3.33215-.45268.525.05714.92321.38929.93571.89286.01072.50536-.3875.92411-.89286.93571-.99286.02321-1.97678.15625-2.925.39732-1.75179.44375-3.38393 1.24375-4.85357 2.37857-.16608.12769-.36251.19019-.55893.19019z"/><path d="m36.60947 40.54669c-.27321 0-.54285-.12143-.72321-.35536-.30893-.4-.23571-.97321.16429-1.28214 1.66428-1.2875 3.52321-2.19643 5.52321-2.70357 1.0875-.27678 2.20893-.42857 3.33214-.45357h.01965c.49643 0 .90357.39643.91428.89464.01072.50357-.38929.92322-.89464.93393-.98571.02143-1.96786.15536-2.92143.39643-1.75536.44643-3.38929 1.24643-4.85536 2.37857-.16608.12857-.3625.19107-.55893.19107z"/><path d="m33.15232 49.82348c-.27411 0-.54464-.12143-.725-.35536-.30804-.4-.23393-.975.16518-1.28214 1.66875-1.2875 3.52589-2.19822 5.52232-2.70357 1.08214-.275 2.20357-.42678 3.33214-.45179h.01964c.49643 0 .90357.39643.91429.89464.01071.50357-.38929.92321-.89465.93393-.99107.02143-1.97321.15536-2.92143.39464-1.75179.44464-3.38571 1.24464-4.85446 2.37857-.16695.12858-.36338.19108-.55803.19108z"/></g><path d="m47.57909 51.19629c-6.78393 3.56573-9.49029 3.09029-14.15312 5.99777-1.84688 1.1702-4.48002 3.16339-7.14967 6.60112l-4.62634-2.0663c.80458-4.27891.53025-7.57031.14632-9.72801-.95089-5.55882-3.2-7.22288-5.08348-15.12232-1.0971-4.58973-.93259-6.49141-.51194-8.02735.21942-.89609 1.38973-5.2846 5.3394-7.00346.09141-.05491.20111-.09141.31083-.14632 2.35893-.91429 3.93147-2.92567 4.38862-5.32109.53024-2.72455 2.176-5.74174 5.90625-6.91205.9875-.31083 1.93828-.36574 2.77946-.29252.71317.0548 1.40804.0183 2.0846-.09141-3.67545 4.64453-5.88806 10.60569-5.88806 17.07879-.00001 11.42857 6.83883 21.19319 16.45713 25.03315z" opacity=".15"/><path d="m42.81385 20.63018c-3.56358-1.59389-21.67399 35.64806-21.67399 35.64806-1.43716 2.68227-.29682 6.02057 2.48101 7.26302h.00001c2.77783 1.24245 6.02642-.1328 7.06784-2.99207.00001 0 15.68871-38.32512 12.12513-39.91901z" fill="#ffedad"/><path d="m37.23999 43.54999c-2.26001 6.22003-4.56 12.04004-5.73999 14.98999l-.01001.01001c-.5 1.27002-.79999 2-.79999 2-.78003 2.14001-2.79999 3.45001-4.92999 3.45001-.71002 0-1.44-.15002-2.14001-.46002-2.77997-1.23999-3.91998-4.57996-2.47998-7.25995 0 0 .34998-.72003.95996-1.95001 1.85004-3.73004 6.10004-12.19 10.33002-19.70001 1.04998 3.29998 2.7 6.33001 4.80999 8.91998z" opacity=".15"/></g></g></svg>