<svg height="512" viewBox="0 0 32 32" width="512" xmlns="http://www.w3.org/2000/svg"><g id="Layer_2" data-name="Layer 2"><path d="m29.047 6-16-.75a1 1 0 0 0 -.094 2l16 .75h.047a1 1 0 0 0 .046-2z" fill="#895146"/><path d="m17 4.5h.042l12-.5a1 1 0 0 0 .958-1.042.976.976 0 0 0 -1.042-.958l-12 .5a1 1 0 0 0 .042 2z" fill="#895146"/><path d="m25.033 18.11a3.906 3.906 0 0 0 -3.773-3.11 3.6 3.6 0 0 0 -1.114.179 4.3 4.3 0 0 0 -8.3-.009 3.7 3.7 0 0 0 -1.1-.17 3.906 3.906 0 0 0 -3.773 3.11 3.983 3.983 0 0 0 -2.973 3.89 4.094 4.094 0 0 0 .967 2.646 1 1 0 0 0 .763.354h20.54a1 1 0 0 0 .763-.354 4.094 4.094 0 0 0 .967-2.646 3.983 3.983 0 0 0 -2.967-3.89z" fill="#ffc552"/><g fill="#fcaa06"><path d="m9 11a1 1 0 0 1 -1-1v-3a1 1 0 0 1 2 0v3a1 1 0 0 1 -1 1z"/><path d="m17 11a1 1 0 0 1 -1-1v-5a1 1 0 0 1 2 0v5a1 1 0 0 1 -1 1z"/><path d="m13 16a1 1 0 0 1 -1-1v-8a1 1 0 0 1 2 0v8a1 1 0 0 1 -1 1z"/><path d="m15 21a1 1 0 0 1 -1-1 3.283 3.283 0 0 1 3.5-3 3.632 3.632 0 0 1 2.962 1.412 1 1 0 1 1 -1.617 1.176 1.667 1.667 0 0 0 -1.345-.588c-.8 0-1.5.468-1.5 1a1 1 0 0 1 -1 1z"/></g><path d="m15 2a3.066 3.066 0 0 0 -2.666 1.359 4.677 4.677 0 0 0 -1.834-.359c-1.995 0-3.5 1.075-3.5 2.5s1.505 2.5 3.5 2.5a3.772 3.772 0 0 0 3.08-1.3 3.511 3.511 0 0 0 1.42.3 2.754 2.754 0 0 0 3-2.5 2.754 2.754 0 0 0 -3-2.5z" fill="#ffc552"/><path d="m28 23h-24a2 2 0 0 0 -2 2 5.006 5.006 0 0 0 5 5h18a5.006 5.006 0 0 0 5-5 2 2 0 0 0 -2-2z" fill="#2d2f35"/></g></svg>