<svg id="Capa_1" enable-background="new 0 0 512 512" height="512" viewBox="0 0 512 512" width="512" xmlns="http://www.w3.org/2000/svg"><g><g><path d="m67.347 416c-3.983 0-7.211-3.229-7.211-7.211v-161.578c0-3.983 3.229-7.211 7.211-7.211h54.54v-32h-54.255c-17.069 0-30.906 13.837-30.906 30.906v178.189c0 17.069 13.837 30.906 30.906 30.906h54.255v-32h-54.54z" fill="#ffeabb"/><path d="m60.109 417.094v-178.188c0-17.069 13.837-30.906 30.906-30.906h-31.974c-17.069 0-30.906 13.837-30.906 30.906v178.189c0 17.069 13.837 30.906 30.906 30.906h31.973c-17.068-.001-30.905-13.838-30.905-30.907z" fill="#ffdb97"/><path d="m243.999 496-122.175-16v-320l133.496-11.321 124.542 11.321v320z" fill="#ffeabb"/><path d="m139.041 480v-320l130.445-10.034-14.166-1.288-147.184 11.322v320l135.863 16 15.453-1.82z" fill="#ffdb97"/><path d="m395.862 144c0-8.837-7.163-16-16-16l-131.64-14.501-131.639 14.501c-8.837 0-16 7.163-16 16s7.163 16 16 16h263.28c8.836 0 15.999-7.163 15.999-16z" fill="#fcd258"/><path d="m123.041 144c0-8.837 7.164-16 16-16l120.41-13.264-15.453-1.702-135.862 14.966c-8.837 0-16 7.163-16 16s7.164 16 16 16h30.906c-8.837 0-16.001-7.163-16.001-16z" fill="#f9b044"/><path d="m121.824 489.258 17.102-9.258h240.936v16.547c0 8.534-6.918 15.453-15.453 15.453h-212.731c-8.534 0-29.854-15.453-29.854-15.453z" fill="#fcd258"/><path d="m139.041 496.547v-16.547h-30.906v16.547c0 8.534 6.918 15.453 15.453 15.453h30.906c-8.534 0-15.453-6.919-15.453-15.453z" fill="#f9b044"/><g fill="#fcd258"><path d="m163.999 448c-8.837 0-16-7.163-16-16v-208c0-8.837 7.163-16 16-16s16 7.163 16 16v208c0 8.837-7.164 16-16 16z"/><path d="m243.999 448c-8.837 0-16-7.163-16-16v-208c0-8.837 7.163-16 16-16s16 7.163 16 16v208c0 8.837-7.164 16-16 16z"/><path d="m323.999 448c-8.837 0-16-7.163-16-16v-208c0-8.837 7.163-16 16-16s16 7.163 16 16v208c0 8.837-7.164 16-16 16z"/></g><path d="m252.135 127.997 126.882-.002c-6.758-17.271-22.784-29.895-41.961-31.756-2.649-.257-4.928-1.976-5.874-4.463-7.216-18.955-25.558-32.423-47.046-32.423-9.042 0-17.526 2.385-24.858 6.559-3.254 1.852-7.454.727-9.342-2.507-8.58-14.695-23.952-24.939-41.811-26.428-23.095 1.923-42.031 18.486-47.501 40.383-.66 2.64-2.791 4.648-5.466 5.149-18.594 3.483-33.585 17.191-38.911 35.064-1.553 5.209 2.455 10.426 7.891 10.426h.019 9.003c8.837 0 16 7.164 16 16v16.001c0 7.27 4.849 13.407 11.489 15.355 6.64-1.948 11.489-8.085 11.489-15.355v-16.002c0-8.836 7.163-16 16-16s16 7.164 16 16l6.4 64.002c0 8.837.762 10.866 9.598 10.866 8.837 0 9.266-2.03 9.266-10.866l6.736-64.003c-.002-8.837 7.161-16 15.997-16z" fill="#ebf3ff"/><g fill="#dbeafc"><path d="m236.132 208v-64.002c0-8.837-7.164-16-16-16-8.761 0-15.877 7.041-15.998 15.773.001.075.002.151.002.227v64.002c0 8.837 7.163 16 16 16 8.761 0 15.877-7.041 15.998-15.773-.001-.076-.002-.151-.002-.227z"/><path d="m172.132 160v-16.001c0-8.837-7.164-16-16-16h-11.873c-3.89 0-6.71-3.636-5.833-7.426 4.472-19.316 20.066-34.371 39.671-38.058 2.686-.505 4.84-2.511 5.502-5.162 4.532-18.131 18.297-32.604 36.01-38.135-5.053-1.578-10.427-2.429-15.999-2.429-25.109 0-46.186 17.264-52.009 40.569-.662 2.65-2.818 4.652-5.502 5.157-22.054 4.148-39.031 22.682-40.811 45.484h18.848c8.837 0 16 7.163 16 16v16.001c0 8.837 7.163 16 16 16 8.761 0 15.877-7.041 15.998-15.773-.001-.076-.002-.151-.002-.227z"/></g><circle cx="332.136" cy="16" fill="#dbeafc" r="16"/><g><path d="m399.702 248.344c-21.249.859-42.244 9.4-58.467 25.623-34.26 34.26-34.26 89.807 0 124.067 16.223 16.223 37.219 24.764 58.467 25.623 21.249-.859 42.244-9.4 58.467-25.623 34.26-34.26 34.26-89.807 0-124.067-16.223-16.223-37.218-24.764-58.467-25.623z" fill="#e94442"/><path d="m365.008 398.034c-34.26-34.26-34.26-89.807 0-124.067 13.183-13.184 29.519-21.294 46.581-24.331-27.277-4.856-56.41 3.254-77.487 24.331-34.26 34.26-34.26 89.807 0 124.067 21.077 21.077 50.21 29.187 77.487 24.331-17.062-3.038-33.398-11.148-46.581-24.331z" fill="#cf3636"/><path d="m435.734 352.971-12.021-12.021c-2.734-2.734-2.734-7.166 0-9.9l12.021-12.021c6.248-6.248 6.248-16.379 0-22.627s-16.379-6.248-22.627 0l-12.021 12.021c-2.734 2.734-7.166 2.734-9.9 0l-12.021-12.021c-6.248-6.248-16.379-6.248-22.627 0s-6.248 16.379 0 22.627l12.021 12.021c2.734 2.734 2.734 7.166 0 9.9l-12.021 12.021c-6.248 6.248-6.248 16.379 0 22.627s16.379 6.248 22.627 0l12.021-12.021c2.734-2.734 7.166-2.734 9.9 0l12.021 12.021c6.248 6.248 16.379 6.248 22.627 0s6.248-16.379 0-22.627z" fill="#ebf3ff"/></g></g><g><g><path d="m272.297 18.366c-4.339 0-7.726-3.554-7.726-7.726 0-4.236 3.47-7.718 7.708-7.718 4.334 0 7.745 3.488 7.745 7.718-.001 4.411-3.581 7.726-7.727 7.726z" fill="#dbeafc"/></g><g><path d="m368.023 70.576c-4.285 0-7.726-3.472-7.726-7.726 0-4.825 4.431-8.522 9.23-7.572 3.801.794 6.222 4.046 6.222 7.572.001 4.247-3.446 7.726-7.726 7.726z" fill="#dbeafc"/></g><g><path d="m388.039 23.723c-4.292 0-7.726-3.477-7.726-7.726 0-4.229 3.421-7.719 7.725-7.719 4.231 0 7.728 3.417 7.728 7.719 0 4.289-3.486 7.726-7.727 7.726z" fill="#dbeafc"/></g></g></g></svg>