<svg id="Icons" viewBox="0 0 60 60" xmlns="http://www.w3.org/2000/svg"><path d="m22 1h16a2 2 0 0 1 2 2v6a0 0 0 0 1 0 0h-20a0 0 0 0 1 0 0v-6a2 2 0 0 1 2-2z" fill="#d4e6e7"/><path d="m14 50v-33a2.973 2.973 0 0 1 .6-1.8l5.4-7.2h20l5.4 7.2a2.973 2.973 0 0 1 .6 1.8v33l-1 4h-30z" fill="#d4e6e7"/><path d="m45.83 16h-31.66a3.092 3.092 0 0 1 .43-.8l5.4-7.2h20l5.4 7.2a3.092 3.092 0 0 1 .43.8z" fill="#c0dadc"/><path d="m46 50v7a2.006 2.006 0 0 1 -2 2h-28a2.006 2.006 0 0 1 -2-2v-7c4 0 4 3 8 3s4-3 8-3 4 3 8 3 4-3 8-3z" fill="#5998ca"/><g fill="#e2b77d"><path d="m33 26.2a3 3 0 0 1 -5.994-.223 8.669 8.669 0 0 1 2.333-4.685.9.9 0 0 1 1.324 0c.884 1.008 2.337 2.957 2.337 4.908z"/><path d="m33 37a23.277 23.277 0 0 1 2.38.1.705.705 0 0 1 .6.87 9.922 9.922 0 0 1 -.526 1.461 4.423 4.423 0 0 1 -4.029 2.569h-2.85a4.423 4.423 0 0 1 -4.029-2.569 9.922 9.922 0 0 1 -.526-1.461.705.705 0 0 1 .6-.87 23.277 23.277 0 0 1 2.38-.1z"/><path d="m33 32a23.277 23.277 0 0 1 2.38.1.705.705 0 0 1 .6.87 9.922 9.922 0 0 1 -.526 1.461 4.423 4.423 0 0 1 -4.029 2.569h-2.85a4.423 4.423 0 0 1 -4.029-2.569 9.922 9.922 0 0 1 -.526-1.461.705.705 0 0 1 .6-.87 23.277 23.277 0 0 1 2.38-.1z"/></g><path d="m30 46a1 1 0 0 1 -1-1v-18a1 1 0 0 1 2 0v18a1 1 0 0 1 -1 1z" fill="#c69d6b"/></svg>