<svg height="482pt" viewBox="0 -13 482.792 482" width="482pt" xmlns="http://www.w3.org/2000/svg"><path d="m368 384.398438v-16c30.785156.015624 61.316406-5.519532 90.136719-16.34375l19.054687-7.152344 5.601563 14.992187-19.058594 7.144531c-30.605469 11.496094-63.039063 17.375-95.734375 17.359376zm0 0" fill="#f98500"/><path d="m48 296.398438h32c26.507812 0 48 21.492187 48 48v32h-32c-26.507812 0-48-21.488282-48-48zm0 0" fill="#ffb531"/><path d="m128 296.398438h32c26.507812 0 48 21.492187 48 48v32h-32c-26.507812 0-48-21.488282-48-48zm0 0" fill="#ffb531"/><path d="m96 376.398438h32v32c0 26.511718-21.492188 48-48 48h-32v-32c0-26.507813 21.492188-48 48-48zm0 0" fill="#f98500"/><path d="m176 376.398438h32v32c0 26.511718-21.492188 48-48 48h-32v-32c0-26.507813 21.492188-48 48-48zm0 0" fill="#f98500"/><path d="m208 296.398438h32c26.507812 0 48 21.492187 48 48v32h-32c-26.507812 0-48-21.488282-48-48zm0 0" fill="#ffb531"/><path d="m256 376.398438h32v32c0 26.511718-21.492188 48-48 48h-32v-32c0-26.507813 21.492188-48 48-48zm0 0" fill="#f98500"/><path d="m288 296.398438h32c26.507812 0 48 21.492187 48 48v32h-32c-26.507812 0-48-21.488282-48-48zm0 0" fill="#ffb531"/><path d="m336 376.398438h32v32c0 26.511718-21.492188 48-48 48h-32v-32c0-26.507813 21.492188-48 48-48zm0 0" fill="#f98500"/><path d="m0 296.398438h48v16h-48zm0 0" fill="#ffb531"/><path d="m0 440.398438h48v16h-48zm0 0" fill="#f98500"/><path d="m104 344.398438h-16c0-3.261719-6.230469-8-16-8v-16c17.945312 0 32 10.535156 32 24zm0 0" fill="#ffcb73"/><path d="m184 344.398438h-16c0-3.261719-6.230469-8-16-8v-16c17.945312 0 32 10.535156 32 24zm0 0" fill="#ffcb73"/><path d="m264 344.398438h-16c0-3.261719-6.230469-8-16-8v-16c17.945312 0 32 10.535156 32 24zm0 0" fill="#ffcb73"/><path d="m344 344.398438h-16c0-3.261719-6.230469-8-16-8v-16c17.945312 0 32 10.535156 32 24zm0 0" fill="#ffcb73"/><path d="m72 432.398438v-16c9.769531 0 16-4.734376 16-8h16c0 13.464843-14.054688 24-32 24zm0 0" fill="#ff9419"/><path d="m152 432.398438v-16c9.769531 0 16-4.734376 16-8h16c0 13.464843-14.054688 24-32 24zm0 0" fill="#ff9419"/><path d="m232 432.398438v-16c9.769531 0 16-4.734376 16-8h16c0 13.464843-14.054688 24-32 24zm0 0" fill="#ff9419"/><path d="m312 432.398438v-16c9.769531 0 16-4.734376 16-8h16c0 13.464843-14.054688 24-32 24zm0 0" fill="#ff9419"/><g fill="#ffb531"><path d="m318.28125 32.496094.117188-8.097656c.101562-6.394532-2.394532-12.558594-6.917969-17.082032-4.523438-4.523437-10.683594-7.019531-17.082031-6.917968l-8.085938.097656c-8.640625.113281-16.894531 3.605468-22.992188 9.726562l-13.585937 13.550782c-12.496094 12.5-12.496094 32.761718 0 45.257812 12.5 12.496094 32.761719 12.496094 45.257813 0l13.550781-13.550781c6.121093-6.097657 9.613281-14.347657 9.738281-22.984375zm0 0"/><path d="m111.902344 114.117188.097656-8.117188c.101562-6.398438-2.394531-12.558594-6.917969-17.082031-4.523437-4.523438-10.6875-7.019531-17.082031-6.917969l-8.097656.085938c-8.636719.121093-16.886719 3.617187-22.980469 9.738281l-13.554687 13.582031c-12.496094 12.496094-12.496094 32.757812 0 45.257812 12.496093 12.496094 32.757812 12.496094 45.257812 0l13.550781-13.554687c6.121094-6.097656 9.613281-14.351563 9.726563-22.992187zm0 0"/><path d="m451.023438 207.023438 5.792968-5.65625c4.589844-4.453126 7.183594-10.574219 7.183594-16.96875 0-6.394532-2.59375-12.515626-7.183594-16.96875l-5.792968-5.65625c-6.191407-6.027344-14.496094-9.390626-23.136719-9.375h-19.199219c-17.671875 0-32 14.328124-32 32 0 17.671874 14.328125 32 32 32h19.199219c8.640625.019531 16.945312-3.347657 23.136719-9.375zm0 0"/><path d="m409.71875 248.496094-8.117188-.097656c-6.398437-.101563-12.558593 2.394531-17.082031 6.917968-4.523437 4.523438-7.019531 10.6875-6.917969 17.082032l.085938 8.097656c.121094 8.636718 3.617188 16.886718 9.738281 22.984375l13.550781 13.550781c12.496094 12.496094 32.757813 12.496094 45.253907 0 12.5-12.496094 12.5-32.757812 0-45.257812l-13.550781-13.550782c-6.089844-6.113281-14.332032-9.605468-22.960938-9.726562zm0 0"/><path d="m160.097656 186.117188-8.097656-.117188c-6.394531-.101562-12.558594 2.394531-17.082031 6.917969-4.523438 4.523437-7.019531 10.683593-6.917969 17.082031l.097656 8.085938c.113282 8.640624 3.605469 16.894531 9.726563 22.992187l13.550781 13.554687c12.5 12.496094 32.761719 12.496094 45.257812 0 12.496094-12.5 12.496094-32.761718 0-45.257812l-13.554687-13.550781c-6.101563-6.109375-14.347656-9.59375-22.980469-9.707031zm0 0"/></g><path d="m334.625 189.375-5.65625-5.792969c-4.453125-4.589843-10.574219-7.183593-16.96875-7.183593s-12.515625 2.59375-16.96875 7.183593l-5.65625 5.792969c-6.027344 6.191406-9.394531 14.496094-9.375 23.136719v19.199219c0 17.671874 14.328125 32 32 32s32-14.328126 32-32v-19.199219c.019531-8.640625-3.347656-16.945313-9.375-23.136719zm0 0" fill="#f7a116"/><path d="m369.71875 42.117188-8.117188-.117188c-6.398437-.105469-12.5625 2.390625-17.085937 6.914062-4.527344 4.523438-7.019531 10.6875-6.914063 17.085938l.085938 8.085938c.121094 8.640624 3.617188 16.894531 9.738281 22.992187l13.550781 13.554687c12.496094 12.496094 32.757813 12.496094 45.253907 0 12.5-12.5 12.5-32.761718 0-45.257812l-13.550781-13.550781c-6.097657-6.101563-14.335938-9.585938-22.960938-9.707031zm0 0" fill="#f7a116"/><path d="m83.023438 247.023438 5.792968-5.65625c4.589844-4.453126 7.183594-10.574219 7.183594-16.96875 0-6.394532-2.59375-12.515626-7.183594-16.96875l-5.792968-5.65625c-6.191407-6.027344-14.496094-9.390626-23.136719-9.375h-19.167969c-17.671875 0-32 14.328124-32 32 0 17.671874 14.328125 32 32 32h19.203125c8.628906.011718 16.917969-3.355469 23.101563-9.375zm0 0" fill="#f7a116"/><path d="m267.023438 167.023438 5.792968-5.65625c4.589844-4.453126 7.183594-10.574219 7.183594-16.96875 0-6.394532-2.59375-12.515626-7.183594-16.96875l-5.792968-5.65625c-6.191407-6.027344-14.496094-9.390626-23.136719-9.375h-19.199219c-17.671875 0-32 14.328124-32 32 0 17.671874 14.328125 32 32 32h19.199219c8.640625.019531 16.945312-3.347657 23.136719-9.375zm0 0" fill="#f7a116"/><path d="m160.097656 10.117188-8.097656-.117188c-6.394531-.101562-12.558594 2.394531-17.082031 6.917969-4.523438 4.523437-7.019531 10.683593-6.917969 17.082031l.097656 8.085938c.113282 8.640624 3.605469 16.894531 9.726563 22.992187l13.550781 13.554687c12.5 12.496094 32.761719 12.496094 45.257812 0 12.496094-12.5 12.496094-32.761718 0-45.257812l-13.554687-13.519531c-6.09375-6.121094-14.34375-9.613281-22.980469-9.738281zm0 0" fill="#f7a116"/></svg>