<svg id="Layer_1" enable-background="new 0 0 512 512" viewBox="0 0 512 512" xmlns="http://www.w3.org/2000/svg"><g><path d="m339.292 277.373c4.918 12.771 3.466 45.384 24.877 60.121 26.441 18.2 56.166-3.177 66.275-21.977s2.894-54.333 1.426-74.899-2.697-42.088 7.558-60.833 35.957-33.346 59.471-27.009c6.307 1.7 12.681 5.62 13.081 11.136.461 6.367-6.834 10.896-12.143 15.489-12.709 10.994-16.211 27.472-14.786 42.694 1.424 15.222 7.091 29.927 10.194 44.975 5.191 25.176 2.952 51.779-9.542 75.104-12.493 23.325-35.795 43.037-64.784 51.311s-63.381 4.041-86.378-12.84c-15.44-11.334-25.043-27.419-29.981-44.069-4.939-16.649-5.536-33.969-5.339-51.119.109-9.458 4.029-28.581 20.582-21.842 14.302 5.823 15.423 3.2 19.489 13.758z" fill="#4a81f6"/><path d="m172.708 276.92c-4.918 12.771-3.466 45.384-24.877 60.121-26.441 18.2-56.166-3.177-66.275-21.977s-2.894-54.333-1.426-74.899 2.697-42.088-7.558-60.833-35.957-33.346-59.471-27.009c-6.307 1.7-12.681 5.62-13.081 11.136-.461 6.367 6.834 10.896 12.143 15.489 12.709 10.994 16.211 27.472 14.786 42.694-1.424 15.222-7.091 29.927-10.194 44.975-5.191 25.176-2.952 51.779 9.542 75.104s35.795 43.037 64.784 51.311 63.381 4.041 86.378-12.84c15.44-11.334 25.043-27.419 29.981-44.069 4.939-16.649 5.536-33.969 5.339-51.119-.109-9.458-4.029-28.581-20.582-21.842-14.302 5.822-15.423 3.2-19.489 13.758z" fill="#4a81f6"/><path d="m350.657 440.057c17.29 8.073 34.825-15.712 43.209-32.548 12.751-25.607 12.148-55.18 12.324-83.656.091-14.832-2.462-64.996 15.708-92.697 23.124-35.252 63.128-33.195 63.128-21.203 0 13.419-17.967 20.241-26.283 39.498-12.209 28.274-7.154 60.827-5.139 91.451 2.016 30.624 4.476 61.739-2.281 91.707-6.757 29.969-24.329 59.232-52.615 72.57-34.985 16.496-77.343 1.151-104.973-25.526-41.008-39.594-34.67-115.26-37.728-169.406-.621-10.994 37.824-25.869 47.527-10.87 3.812 5.893-.196 118.586 47.123 140.68z" fill="#61a2f9"/><g fill="#5490f9"><path d="m272.629 299.377c3.812 5.893-.196 118.585 47.123 140.68 7.832 3.657 15.712.767 22.771-5.043-38.72-30.47-35.41-130.105-38.988-135.637-5.679-8.778-21.197-7.318-32.972-2.397.782.696 1.479 1.49 2.066 2.397z"/><path d="m485.026 209.954c0-3.959-4.362-6.834-11.035-7.642-17.689 14.65-57.687 42.584-44.233 126.144 4.879 30.3-2.582 74.186-9.339 104.154-6.757 29.969-24.329 59.232-52.615 72.57-5.229 2.465-10.624 4.205-16.108 5.317 15.871 2.944 32.111 1.71 47.014-5.317 28.286-13.338 45.858-42.601 52.615-72.57s4.297-61.083 2.281-91.707-7.07-63.177 5.139-91.451c8.314-19.257 26.281-26.079 26.281-39.498z"/></g><path d="m161.343 439.604c-17.29 8.073-34.825-15.712-43.209-32.548-12.751-25.607-12.148-55.18-12.324-83.656-.091-14.832 2.462-64.996-15.708-92.697-23.124-35.252-63.128-33.195-63.128-21.203 0 13.419 17.967 20.241 26.283 39.498 12.209 28.274 7.154 60.827 5.139 91.451-2.016 30.624-4.476 61.739 2.281 91.707s24.329 59.232 52.615 72.57c34.985 16.496 77.343 1.151 104.973-25.526 41.008-39.594 34.67-115.26 37.728-169.406.621-10.994-37.824-25.869-47.527-10.87-3.812 5.893.196 118.585-47.123 140.68z" fill="#61a2f9"/><g fill="#5490f9"><path d="m65.76 231.276c18.013 31.868 16.246 66.23 15.453 81.041-4.121 76.92 18.543 119.158 49.225 127.287 3.095.82 5.606-3.053 8.135-5.043-8.525-7.016-15.852-18.295-20.438-27.504-12.751-25.607-12.148-55.18-12.324-83.656-.091-14.832 2.462-64.996-15.708-92.697-20.046-30.56-52.771-33.079-61.13-25.396 10.445 4.159 28.985 12.165 36.787 25.968z"/><path d="m227.353 292.817c-.246 43.69 7.598 130.633-39.994 186.383-13.913 16.298-34.088 27.482-55.282 31.328 30.473 5.001 63.356-9.284 86.187-31.328 41.008-39.594 34.67-115.26 37.727-169.406.395-6.969-14.907-15.487-28.638-16.977z"/></g><path d="m255.995 317.296c-125.142 0-73.872-48.591-75.087-70.378-1.205-21.787-103.514-53.093-85.394-151.302 18.12-98.201 160.481-95.609 160.481-95.609s142.361-2.591 160.491 95.609c18.12 98.209-84.199 129.515-85.404 151.302-1.204 21.787 50.055 70.378-75.087 70.378z" fill="#61a2f9"/><path d="m416.486 95.616c-18.13-98.201-160.491-95.609-160.491-95.609s-5.902-.107-15.453.551c37.364 2.572 130.599 16.85 145.038 95.059 18.12 98.209-84.199 129.515-85.404 151.302-1.152 20.832 45.654 66.167-59.634 70.102 4.827.18 9.967.276 15.453.276 125.142 0 73.883-48.591 75.087-70.378 1.205-21.788 103.524-53.095 85.404-151.303z" fill="#5490f9"/><g fill="#f6f1f1"><ellipse cx="59.329" cy="291.885" rx="15.453" ry="17.909"/><ellipse cx="55.762" cy="357.013" rx="15.453" ry="17.909"/><ellipse cx="59.329" cy="422.124" rx="15.453" ry="17.909" transform="matrix(.996 -.086 .086 .996 -36.037 6.656)"/><ellipse cx="89.996" cy="483.294" rx="15.453" ry="17.909" transform="matrix(.796 -.605 .605 .796 -274.215 153.108)"/><ellipse cx="452.671" cy="292.338" rx="15.453" ry="17.909"/><ellipse cx="456.238" cy="357.466" rx="15.453" ry="17.909"/><ellipse cx="452.671" cy="422.578" rx="17.909" ry="15.453" transform="matrix(.086 -.996 .996 .086 -7.224 837.281)"/><ellipse cx="422.004" cy="483.747" rx="17.909" ry="15.453" transform="matrix(.605 -.796 .796 .605 -218.501 526.778)"/></g><g fill="#4a81f6"><path d="m222.617 224.522c0 15.362-13.278 26.556-34.454 23.58-19.72-2.771-36.056-12.453-36.056-27.815s16.143-27.815 36.056-27.815 34.454 16.689 34.454 32.05z"/><path d="m289.383 224.522c0 15.362 13.278 26.556 34.454 23.58 19.72-2.771 36.056-12.453 36.056-27.815s-16.143-27.815-36.056-27.815-34.454 16.689-34.454 32.05z"/></g><g><g><circle cx="189.914" cy="244.143" fill="#f6f1f1" r="19.001"/></g><g><circle cx="322.086" cy="244.143" fill="#f6f1f1" r="19.001"/></g></g></g><g/><g/><g/><g/><g/><g/><g/><g/><g/><g/><g/><g/><g/><g/><g/></svg>