<svg id="icons" enable-background="new 0 0 64 64" height="64" viewBox="0 0 64 64" width="64" xmlns="http://www.w3.org/2000/svg"><g><path d="m36 1c.55 0 1 .45 1 1v4.01c0 .55-.45 1-1 1h-8c-.55 0-1-.45-1-1v-4.01c0-.55.45-1 1-1z" fill="#656d78"/><path d="m35 39c0 1.66-1.34 3-3 3s-3-1.34-3-3c0-1.65 3-5 3-5s3 3.35 3 5z" fill="#ffce54"/><path d="m42 34.01v19h-20v-19-4.01h20zm-10 7.99c1.66 0 3-1.34 3-3 0-1.65-3-5-3-5s-3 3.35-3 5c0 1.66 1.34 3 3 3z" fill="#e6e9ed"/><path d="m45.99 24h.01v10.01h-.01-3.99v-4.01h-20v4.01h-4v-9.99-.02c.01-2.2 1.8-3.98 4-3.99h.02 5.98v-13h8v13h5.99c2.2 0 3.99 1.78 4 3.99z" fill="#ffce54"/><path d="m46 34.01v24.99c0 2.21-1.79 4-4 4h-20c-2.21 0-4-1.79-4-4v-24.99h4v19h20v-19h3.99z" fill="#f6bb42"/><g><path d="m42 54.005h-20c-.553 0-1-.447-1-1v-23.004c0-.553.447-1 1-1h20c.553 0 1 .447 1 1v23.004c0 .553-.447 1-1 1zm-19-2h18v-21.004h-18z" fill="#e6e9ed"/></g><g><path d="m32 43.003c-2.206 0-4-1.794-4-4 0-1.941 2.712-5.063 3.256-5.67.379-.422 1.109-.422 1.488 0 .544.606 3.256 3.729 3.256 5.67 0 2.206-1.794 4-4 4zm0-7.453c-1.061 1.326-2 2.815-2 3.453 0 1.103.897 2 2 2s2-.897 2-2c0-.62-.937-2.119-2-3.453z" fill="#ffce54"/></g><g><path d="m38.002 47.002h-12.004c-.553 0-1-.447-1-1s.447-1 1-1h12.004c.553 0 1 .447 1 1s-.447 1-1 1z" fill="#ccd1d9"/></g><g><path d="m35.001 50.002h-6.002c-.553 0-1-.447-1-1s.447-1 1-1h6.002c.553 0 1 .447 1 1s-.447 1-1 1z" fill="#ccd1d9"/></g></g></svg>