<svg id="Olive" enable-background="new 0 0 64 64" viewBox="0 0 64 64" xmlns="http://www.w3.org/2000/svg"><g><g><path d="m19.39732 15.27133c2.59125 1.13961 5.03889 1.38507 7.14274 1.15319 3.70354-.40819 6.34168-2.29562 6.82236-3.38859.46373-1.05444.11524-4.08877-1.88753-7.00018-1.25235-1.82052-3.15153-3.59298-5.90343-4.80324-2.57776-1.13367-5.0134-1.3825-7.10985-1.1568-3.72084.40058-6.3732 2.29594-6.85529 3.39211-.47108 1.07116-.10404 4.1853 1.98379 7.13829 1.2527 1.77179 3.12489 3.48556 5.80721 4.66522z" fill="#75d64c"/><path d="m33.36129 13.9499c-.12232 0-.24732-.025-.36697-.07768l-11.65446-5.125c-.4625-.20268-.67232-.74286-.46875-1.20446.20268-.4625.74018-.67411 1.20446-.46875l11.65446 5.125c.4625.20268.67232.74286.46875 1.20446-.14999.34286-.48571.54643-.83749.54643z" fill="#579c35"/><path d="m33.37138 13.03827c-.49352 1.0972-3.12675 2.98054-6.83875 3.38288-1.37141.14631-2.87072.09141-4.47985-.27433 2.48702-1.75533 4.11423-4.66278 4.11423-7.95414 0-3.32797-1.66382-6.27191-4.20575-8.04565 1.15222.18292 2.3589.53035 3.60241 1.07889 2.76113 1.2251 4.66266 2.98054 5.90617 4.80909 2.01136 2.90733 2.35868 5.94279 1.90154 7.00326z" opacity=".15"/></g><path d="m50.29468 2.58683c-.66348-1.3384-2.28434-1.88485-3.62186-1.22225-3.78201 1.87517-7.3546 4.15863-10.61568 6.78791-12.86305 10.37017-18.07058 23.8747-20.02933 31.00139-.39598 1.43959.45053 2.9267 1.89012 3.32268.23935.066.48045.09768.71804.09768 1.18617 0 2.27554-.78755 2.60464-1.9878 1.42958-5.2007 4.76293-14.12072 12.02073-22.30433.14134 2.70429.56437 5.3746 1.31574 7.98408.7286 2.53073 1.74757 4.99282 3.02877 7.31852.49101.89402 1.41671 1.39999 2.36882 1.39999.44173 0 .88875-.10823 1.30232-.33614 1.3076-.7198 1.78453-2.36441 1.06297-3.67202-1.08585-1.97284-1.94996-4.06095-2.56768-6.20538-1.10389-3.83602-1.39625-7.82943-.94297-11.88093.2102-.17511.40609-.35572.62091-.52896 2.95486-2.38202 6.19307-4.45253 9.6231-6.15171 1.33751-.66347 1.88484-2.28521 1.22136-3.62273z" fill="#ad6340"/><g><ellipse cx="19.393" cy="47.292" fill="#424249" rx="13.149" ry="16.708"/><path d="m32.54863 47.28705c0 9.23414-5.88787 16.71295-13.14716 16.71295-2.02988 0-3.94973-.58515-5.65026-1.60913 5.83307-.93258 10.34975-8.00905 10.34975-16.60324 0-6.60103-2.66983-12.30609-6.54634-15.03072.60357-.10971 1.22499-.16451 1.84685-.16451 7.25929 0 13.14716 7.47869 13.14716 16.69465z" opacity=".15"/><ellipse cx="12.972" cy="41.877" fill="#fff" opacity=".4" rx="2.651" ry="3.197"/></g><g><ellipse cx="44.276" cy="46.422" fill="#424249" rx="13.149" ry="16.708" transform="matrix(.958 -.286 .286 .958 -11.443 14.63)"/><path d="m49.06046 62.42736c-2.6513.80457-5.43073.49374-7.99074-.69486 4.73587-2.15767 8.15547-8.46618 8.15547-15.94488 0-7.25939-3.23656-13.43978-7.77133-15.74377 6.39992-.65836 13.01903 4.58967 15.41453 12.61691 2.65131 8.83192-.84105 17.68214-7.80793 19.7666z" opacity=".15"/><ellipse cx="36.809" cy="41.222" fill="#fff" opacity=".4" rx="2.651" ry="3.197"/></g></g></svg>