<svg height="480pt" viewBox="-8 0 480 480.22461" width="480pt" xmlns="http://www.w3.org/2000/svg"><path d="m184.113281 432c-22.871093-82.398438-35.367187-185.601562-35.367187-292.121094v-43.878906h-132.632813v43.878906c0 106.519532 53.640625 209.722656 168 292.121094zm0 0" fill="#ffb531"/><path d="m177.328125 436.230469c-52.105469-83.4375-80.800781-188.6875-80.800781-296.351563v-43.878906h16v43.878906c0 104.707032 27.832031 206.953125 78.359375 287.890625zm0 0" fill="#f7a116"/><path d="m178.375 437.601562c-81.285156-83.722656-126.054688-189.441406-126.054688-297.722656v-43.878906h16v43.878906c0 104.097656 43.199219 205.855469 121.527344 286.554688zm0 0" fill="#f7a116"/><path d="m331.695312 160h132.417969c0 172.3125-100.90625 312-215.199219 312h-24.800781l28.527344-39.71875c50.398437-70.144531 79.054687-168.855469 79.054687-272.28125zm0 0" fill="#f98500"/><path d="m224.113281 479v-15c105.109375 0 190.621094-130.777344 190.621094-291.519531v-12.480469h16v12.480469c0 169.566406-92.695313 306.519531-206.621094 306.519531zm0 0" fill="#e66000"/><path d="m224.113281 479v-15c77.726563 0 140.96875-130.777344 140.96875-291.519531v-12.480469h16v12.480469c0 172.441406-68.96875 306.519531-156.96875 306.519531zm0 0" fill="#e66000"/><path d="m264.113281 81.769531v-41.769531l-64-1v42.769531c.015625 13.96875-9.0625 26.320313-22.402343 30.46875-86.898438 26.941407-141.066407 113.347657-127.445313 203.300781 13.625 89.957032 90.945313 156.449219 181.925781 156.449219 90.980469 0 168.304688-66.492187 181.925782-156.449219 13.625-89.953124-40.542969-176.359374-127.445313-203.300781-13.382813-4.113281-22.53125-16.464843-22.558594-30.46875zm0 0" fill="#fae998"/><path d="m369.503906 165.71875c-57.902344 141.226562-223.542968 182.730469-306.359375 194.769531 34.375 80.300781 120.496094 125.34375 206.058594 107.769531 85.566406-17.570312 146.964844-92.90625 146.910156-180.257812.054688-45.109375-16.542969-88.652344-46.609375-122.28125zm0 0" fill="#f5e082"/><g fill="#edd668"><path d="m215.640625 479.199219c-2.882813.003906-5.542969-1.539063-6.96875-4.046875l-19.679687-34.726563c-24.75-45.78125-37.441407-97.105469-36.878907-149.144531-.648437-53.601562 12.875-106.417969 39.199219-153.113281 11.3125-20.199219 17.105469-43.019531 16.800781-66.167969 0-4.417969 3.582031-8 8-8s8 3.582031 8 8c.289063 26.011719-6.273437 51.640625-19.03125 74.3125-24.875 44.222656-37.628906 94.234375-36.96875 144.96875-.574219 49.273438 11.402344 97.878906 34.800781 141.246094l19.679688 34.730468c1.402344 2.472657 1.382812 5.507813-.046875 7.964844-1.433594 2.460938-4.0625 3.972656-6.90625 3.976563zm0 0"/><path d="m196.433594 476.480469c-2.050782.003906-4.023438-.785157-5.503906-2.199219l-33.761719-32c-44.535157-42.359375-69.054688-96.015625-69.054688-151.082031 0-56.976563 26.015625-112 73.261719-154.878907 12.714844-11.195312 22.15625-25.625 27.320312-41.761718 2.269532-15.414063 3.414063-30.976563 3.417969-46.558594 0-4.417969 3.582031-8 8-8s8 3.582031 8 8c-.003906 17.148438-1.378906 34.269531-4.113281 51.199219-6 18.910156-17.023438 35.832031-31.886719 48.96875-43.839843 39.832031-68 90.632812-68 143.03125 0 50.640625 22.75 100.175781 64.070313 139.480469l33.753906 32c2.375 2.253906 3.140625 5.726562 1.929688 8.769531-1.214844 3.042969-4.160157 5.039062-7.433594 5.039062zm0 0"/><path d="m249.113281 478.496094c-1.527343.242187-3.085937.128906-4.5625-.335938-3.839843-2.1875-5.179687-7.074218-2.992187-10.910156l19.761718-34.730469c23.390626-43.367187 35.363282-91.96875 34.792969-141.238281.65625-50.730469-12.09375-100.738281-36.960937-144.960938-12.765625-22.671874-19.332032-48.304687-19.039063-74.320312 0-4.417969 3.582031-8 8-8s8 3.582031 8 8c-.308593 23.152344 5.484375 45.976562 16.800781 66.175781 26.320313 46.691407 39.84375 99.507813 39.199219 153.105469.5625 52.039062-12.132812 103.363281-36.882812 149.144531l-19.765625 34.773438c-1.257813 2.28125-3.765625 3.582031-6.351563 3.296875zm0 0"/><path d="m267.640625 475.425781c-2.121094 0-4.082031.214844-5.65625-1.449219-3.035156-3.207031-2.898437-8.265624.304687-11.304687l33.757813-32c41.3125-39.296875 64.066406-88.832031 64.066406-139.472656 0-52.398438-24.160156-103.199219-68-143.03125-14.847656-13.097657-25.855469-29.980469-31.855469-48.847657-.066406-.175781-.128906-.359374-.175781-.542968-2.636719-16.796875-3.960937-33.773438-3.96875-50.777344 0-4.417969 3.582031-8 8-8s8 3.582031 8 8c0 15.296875 1.046875 30.574219 3.136719 45.726562.070312.210938.148438.425782.207031.640626 5.128907 16.222656 14.601563 30.726562 27.390625 41.945312 47.25 42.886719 73.265625 97.910156 73.265625 154.886719 0 55.066406-24.519531 108.722656-69.039062 151.074219l-34.089844 31.597656c-1.492187 1.234375-3.425781 1.792968-5.34375 1.554687zm0 0"/><path d="m232.113281 480c-4.417969 0-8-3.582031-8-8v-400c0-4.417969 3.582031-8 8-8s8 3.582031 8 8v400c0 4.417969-3.582031 8-8 8zm0 0"/></g><path d="m232.113281 472c26.9375-68.804688 40.511719-142.113281 40-216v-32h160v32.390625c0 78.601563-74.746093 154.808594-200 215.609375zm0 0" fill="#ffb531"/><path d="m238.207031 477.175781-12.191406-10.351562c50.15625-58.667969 77.832031-133.25 78.097656-210.433594v-32.390625h16v32.390625c-.261719 80.980469-29.289062 159.230469-81.90625 220.785156zm0 0" fill="#f7a116"/><path d="m237.046875 478.296875-9.871094-12.59375c75.410157-59.117187 116.9375-133.453125 116.9375-209.3125v-32.390625h16v32.390625c0 80.882813-43.703125 159.699219-123.066406 221.90625zm0 0" fill="#f7a116"/><path d="m236.167969 478.894531-8.113281-13.789062c100.632812-59.167969 156.058593-133.289063 156.058593-208.714844v-32.390625h16v32.390625c0 81.328125-58.226562 160.34375-163.945312 222.503906zm0 0" fill="#f7a116"/><path d="m128.113281 272h-128c0 110.457031 97.542969 200 208 200h24l-27.585937-25.457031c-48.710938-44.96875-76.414063-108.246094-76.414063-174.542969zm0 0" fill="#f98500"/><path d="m464.113281 296c0 97.199219-100.90625 176-215.199219 176h-24.800781l28.527344-22.398438c50.398437-39.578124 75.472656-81.601562 83.472656-153.601562zm0 0" fill="#f98500"/><path d="m253.367188 20.082031c-13.207032-14.859375-33.429688-16.195312-45.175782-2.984375-11.648437 15.316406-10.523437 36.808594 2.664063 50.824219 13.207031 14.855469 33.433593 16.191406 45.175781 2.980469 11.652344-15.3125 10.523438-36.808594-2.664062-50.820313zm0 0" fill="#fae998"/><path d="m235.878906 88c-11.953125-.296875-23.214844-5.667969-30.964844-14.777344-15.777343-17.078125-16.898437-43.058594-2.65625-61.4375 6.582032-7.519531 16.09375-11.816406 26.085938-11.785156 11.96875.285156 23.25 5.660156 31.007812 14.777344 15.777344 17.082031 16.898438 43.058594 2.65625 61.4375-6.589843 7.527344-16.121093 11.828125-26.128906 11.785156zm-7.535156-72c-5.433594-.050781-10.613281 2.289062-14.167969 6.398438-8.839843 12.3125-7.726562 29.15625 2.65625 40.195312 3.78125 5.136719 9.582031 8.402344 15.933594 8.976562 6.351563.570313 12.644531-1.609374 17.28125-5.984374 8.839844-12.3125 7.726563-29.15625-2.65625-40.195313-4.730469-5.6875-11.652344-9.101563-19.046875-9.390625zm0 0" fill="#edd668"/><path d="m224.113281 36.503906h16v16h-16zm0 0" fill="#edd668"/><path d="m414.734375 296v7.039062c0 55.761719-33.839844 104.890626-85.007813 133.769532 35.34375-35.488282 54.941407-83.6875 54.386719-133.769532v-7.039062h-16v7.039062c0 86.601563-60.242187 157.242188-135.359375 160.632813-1.320312.054687-2.609375.183594-3.929687.214844-.902344 0-1.816407 0-2.710938-.09375-.417969 0-.800781 0-1.242187-.058594-71.640625-5.109375-128.757813-85.558594-128.757813-183.734375v-8h-16v8c0 64.800781 23.582031 122.542969 60 159.105469-56.871093-32.808594-91.9375-93.449219-92-159.105469v-8h-16v8c.132813 99.214844 72.878907 183.378906 171.03125 197.871094 9.394531 1.550781 18.902344 2.335937 28.421875 2.351562 12.042969.03125 24.039063-1.464844 35.707032-4.453125 93.277343-16.976562 163.460937-87.824219 163.460937-172.730469v-7.039062zm0 0" fill="#e66000"/></svg>