<svg id="Capa_1" enable-background="new 0 0 512 512" height="512" viewBox="0 0 512 512" width="512" xmlns="http://www.w3.org/2000/svg"><g><g><path d="m461.766 345.327h-50.395l-8.188-12.919 8.188-13.857h50.395c12.935 0 23.458-10.523 23.458-23.458v-58.941c0-12.934-10.523-23.457-23.458-23.457h-50.395l-8.188-12.689 8.188-14.088h50.395c27.699 0 50.234 22.535 50.234 50.234v58.941c0 27.7-22.535 50.234-50.234 50.234z" fill="#e7eaf7"/></g><path d="m461.766 185.919h-26.776c27.699 0 50.234 22.535 50.234 50.234v58.941c0 27.699-22.535 50.234-50.234 50.234h26.776c27.699 0 50.234-22.535 50.234-50.234v-58.941c0-27.7-22.535-50.234-50.234-50.234z" fill="#d5daf3"/><path d="m411.372 155.701v191.686c0 34.872-28.268 63.14-63.14 63.14l-52.776 5.099-49.809 4.821-102.575-9.921c-34.872 0-63.14-28.268-63.14-63.14v-191.685c0-6.717 5.439-12.156 12.146-12.156h307.148c6.707 0 12.146 5.439 12.146 12.156z" fill="#e7eaf7"/><path d="m411.372 155.701v191.686c0 34.872-28.268 63.14-63.14 63.14l-52.776 5.099-18.265-5.099c34.872 0 63.14-28.268 63.14-63.14v-191.686c0-6.717-5.439-12.156-12.146-12.156h71.041c6.707 0 12.146 5.439 12.146 12.156z" fill="#d5daf3"/><g><g><path d="m198 111.033c-4.267 0-7.726-3.459-7.726-7.726 0-6.574-3.178-12.803-8.502-16.662-9.32-6.756-14.885-17.661-14.885-29.173v-38.053c0-4.267 3.459-7.726 7.726-7.726s7.726 3.459 7.726 7.726v38.052c0 6.574 3.178 12.803 8.501 16.661 9.321 6.757 14.885 17.663 14.885 29.174.001 4.268-3.458 7.727-7.725 7.727z" fill="#d5daf3"/></g><g><path d="m313.843 110.002c-4.267 0-7.726-3.459-7.726-7.726 0-11.512 5.564-22.418 14.885-29.174 5.323-3.858 8.501-10.087 8.501-16.661 0-4.267 3.459-7.726 7.726-7.726s7.726 3.459 7.726 7.726c0 11.512-5.564 22.418-14.885 29.174-5.323 3.858-8.501 10.087-8.501 16.661 0 4.267-3.459 7.726-7.726 7.726z" fill="#d5daf3"/></g><g><path d="m251.518 64.167c-4.267 0-7.726-3.459-7.726-7.726v-37.022c0-4.267 3.459-7.726 7.726-7.726s7.726 3.459 7.726 7.726v37.021c0 4.268-3.459 7.727-7.726 7.727z" fill="#bec6ed"/></g></g><path d="m143.071 383.753c-20.085 0-36.367-16.282-36.367-36.367v-120.852c0-5.991 4.857-10.848 10.848-10.848h256.195c5.991 0 10.848 4.857 10.848 10.848v120.852c0 20.085-16.282 36.367-36.367 36.367z" fill="#fd9468"/><path d="m373.747 215.687h-33.411v131.7c0 13.545-4.279 26.083-11.539 36.366h19.432c20.085 0 36.367-16.282 36.367-36.367v-120.852c-.002-5.991-4.858-10.847-10.849-10.847z" fill="#fe7d43"/><g><path d="m142.004 410.529-15.762 6.057-10.106-3.091-9.725-2.967-67.168-49.634c-9.406-6.964-15.772-17.286-17.771-28.824l-5.46-31.534-4.584-26.507c-.968-5.583 5.954-8.952 9.756-4.77l27.063 29.824c4.77 5.254 10.559 9.467 17.019 12.393l37.478 16.988c13.176 5.965 22.911 17.606 26.465 31.626z" fill="#9e9797"/><path d="m142.004 410.529-15.762 6.057-10.024-2.761-.082-.33-13.866-53.405c-3.554-14.021-13.289-25.662-26.465-31.626l-37.488-16.988c-5.305-2.4-10.158-5.686-14.371-9.694-1.751-1.658-4.255-2.256-6.593-1.617l-1.339.371-4.584-26.507c-.968-5.583 5.954-8.952 9.756-4.77l27.063 29.824c4.77 5.254 10.559 9.467 17.019 12.393l37.478 16.988c13.176 5.965 22.911 17.606 26.465 31.626z" fill="#8c8383"/><path d="m210.116 218.521v68.816c0 8.025-2.648 15.834-7.541 22.2l-22.612 29.422-16.843 71.567-10.25 5.625-10.87-5.624v-94.622c0-13.021 5.429-25.446 14.989-34.295l19.254-17.822 4.656-7.603 23.983-39.137c1.484-2.431 5.234-1.38 5.234 1.473z" fill="#9e9797"/><path d="m210.116 218.521v68.816c0 8.025-2.648 15.834-7.541 22.2l-22.612 29.422-16.843 71.567-10.25 5.625-10.87-5.624v-24.838l9.138-38.745c1.246-5.264 3.585-10.199 6.882-14.495l17.606-22.911c4.904-6.366 7.551-14.175 7.551-22.2l-.155-28.423c0-1.453-.979-2.431-2.122-2.73l23.983-39.137c1.483-2.431 5.233-1.38 5.233 1.473z" fill="#8c8383"/><path d="m272.576 274.028-10.044 58.04c-1.988 11.538-8.355 21.86-17.771 28.824l-66.292 49.634-18.275 6.366-11.538-4.038-6.656-2.327 4.389-17.307 8.406-33.131c3.554-14.021 13.3-25.662 26.465-31.626l37.488-16.988c6.459-2.926 12.249-7.139 17.008-12.393l3.925-4.327 23.138-25.497c3.802-4.183 10.725-.814 9.757 4.77z" fill="#9e9797"/><path d="m272.576 274.028-10.044 58.04c-1.988 11.538-8.355 21.86-17.771 28.824l-66.292 49.634-18.275 6.366-8.767-6.892 66.395-49.109c9.416-6.964 15.782-17.286 17.771-28.824l5.666-32.348c.35-2.04-.361-3.781-1.576-4.965l23.138-25.497c3.8-4.182 10.723-.813 9.755 4.771z" fill="#8c8383"/><g><path d="m198.557 362.716-49.902 50.139-6.655-2.328 4.389-17.307 41.207-41.403c3.018-3.029 7.902-3.039 10.93-.031 3.029 3.008 3.039 7.901.031 10.93z" fill="#8c8383"/></g></g><path d="m387.183 463.272v3.595c0 4.172-.762 8.169-2.163 11.857-4.79 12.62-16.977 21.582-31.276 21.582h-195.652c-14.289 0-26.486-8.963-31.276-21.582-1.401-3.688-2.163-7.685-2.163-11.857v-3.595l131.266-10.333 97.496 7.675z" fill="#e7eaf7"/><path d="m387.183 463.272v3.595c0 4.172-.762 8.169-2.163 11.857-4.79 12.62-16.977 21.582-31.276 21.582h-41.382c18.461 0 33.44-14.969 33.44-33.44v-3.595l7.613-2.658z" fill="#d5daf3"/><path d="m448.74 463.271h-385.637c-21.649 0-41.965-10.46-54.541-28.082l-6.758-9.469c-4.539-6.36.008-15.19 7.821-15.19h492.592c7.813 0 12.36 8.83 7.821 15.19l-6.758 9.469c-12.575 17.622-32.89 28.082-54.54 28.082z" fill="#bec6ed"/><path d="m502.218 410.529h-41.391c7.813 0 12.36 8.83 7.821 15.19l-6.758 9.469c-12.576 17.622-32.891 28.082-54.541 28.082h41.391c21.649 0 41.965-10.46 54.541-28.082l6.758-9.469c4.539-6.36-.008-15.19-7.821-15.19z" fill="#a2aee6"/></g></svg>