<?xml version="1.0" encoding="iso-8859-1"?>
<!-- Generator: Adobe Illustrator 19.0.0, SVG Export Plug-In . SVG Version: 6.00 Build 0)  -->
<svg version="1.1" id="Capa_1" xmlns="http://www.w3.org/2000/svg" xmlns:xlink="http://www.w3.org/1999/xlink" x="0px" y="0px"
	 viewBox="0 0 512 512" style="enable-background:new 0 0 512 512;" xml:space="preserve">
<path style="fill:#75C5D8;" d="M337.022,496.897c-0.048-0.001-0.096-0.003-0.145-0.004v-38.09H232.183
	c-1.748-1.659-3.442-3.364-5.073-5.122c-1.426-1.535-3.426-2.408-5.52-2.408H73.954c-4.159,0-7.53,3.371-7.53,7.53v45.668
	c0,4.159,3.371,7.53,7.53,7.53h262.924c4.16,0,7.53-3.416,7.53-7.574C344.408,500.323,341.124,496.976,337.022,496.897z"/>
<path style="fill:#BBE2EC;" d="M396.785,2.533C395.357,0.923,393.305,0,391.152,0H19.737c-2.154,0-4.205,0.923-5.633,2.533
	c-1.43,1.611-2.1,3.757-1.843,5.896l54.217,451.272c0.455,3.784,3.665,6.632,7.476,6.632h147.637c2.994,0,5.705-1.774,6.902-4.519
	c0.423-0.969,0.617-1.994,0.617-3.011h107.826l37.27-310.214c1.567-1.131,3.199-2.214,4.931-3.213
	c2.055-1.185,3.433-3.269,3.715-5.625L398.629,8.429C398.885,6.29,398.214,4.145,396.785,2.533z"/>
<path style="fill:#7ED6ED;" d="M300.79,458.802h36.145l37.27-310.214c1.567-1.131,3.199-2.214,4.931-3.213
	c2.055-1.185,3.433-3.269,3.715-5.625L398.629,8.429c0.257-2.138-0.414-4.284-1.843-5.896C395.357,0.923,393.305,0,391.152,0h-35.24
	L300.79,458.802z"/>
<path style="fill:#FFD039;" d="M351.668,99.188c-1.429-1.612-3.481-2.535-5.635-2.535H64.855c-2.155,0-4.206,0.923-5.635,2.535
	c-1.43,1.612-2.099,3.76-1.841,5.899l38.763,320.764c0.458,3.782,3.667,6.627,7.476,6.627h96.138c2.52,0,4.873-1.261,6.269-3.359
	c0.834-1.254,1.251-2.708,1.251-4.171h99.993l22.154-183.322c0.458-0.031,0.914-0.069,1.371-0.096
	c3.631-0.218,6.586-3.001,7.024-6.612l15.69-129.829C353.767,102.948,353.098,100.8,351.668,99.188z"/>
<path style="fill:#FFAE47;" d="M351.668,99.188c-1.429-1.612-3.481-2.535-5.635-2.535h-35.235l-39.674,328.295h36.145
	l22.154-183.322c0.458-0.031,0.914-0.069,1.371-0.096c3.631-0.218,6.586-3.001,7.024-6.612l15.69-129.829
	C353.767,102.948,353.098,100.8,351.668,99.188z"/>
<path style="fill:#FF9017;" d="M453.056,267.117c-29.214-26.418-68.953-40.966-111.894-40.966s-82.682,14.548-111.895,40.966
	c-30.139,27.253-46.736,65.321-46.736,107.195c0,41.991,16.27,77.341,47.052,102.229C257.865,499.407,297.491,512,341.162,512
	s83.297-12.593,111.579-35.46c30.781-24.887,47.051-60.238,47.051-102.229C499.791,332.439,483.194,294.37,453.056,267.117z"/>
<path style="fill:#ED7D0C;" d="M453.056,267.117c-29.214-26.418-68.953-40.966-111.894-40.966c-7.459,0-14.818,0.449-22.046,1.313
	c34.381,4.109,65.71,17.824,89.849,39.653c30.139,27.253,46.736,65.321,46.736,107.195c0,41.991-16.27,77.341-47.051,102.229
	c-23.438,18.95-54.669,30.835-89.533,34.354c7.207,0.727,14.565,1.105,22.046,1.105c43.671,0,83.297-12.593,111.579-35.46
	c30.781-24.887,47.051-60.238,47.051-102.229C499.791,332.439,483.194,294.37,453.056,267.117z"/>
<path style="fill:#8ACC19;" d="M454.509,126.619c-0.487-3.278-3.061-5.852-6.339-6.34c-2.413-0.359-59.513-8.439-90.922,22.968
	c-31.406,31.408-23.326,88.505-22.967,90.921c0.487,3.278,3.061,5.852,6.339,6.34c0.842,0.126,8.341,1.191,19.085,1.191
	c20.047,0,51.387-3.71,71.836-24.158C462.948,186.133,454.868,129.035,454.509,126.619z"/>
<path style="fill:#78AA17;" d="M454.509,126.619c-0.487-3.278-3.061-5.852-6.339-6.34c-0.95-0.142-10.371-1.477-23.362-1.133
	c0.498,19.626-2.191,54.043-24.104,75.957c-19.048,19.047-47.541,23.569-67.559,24.099c0.216,8.503,1.029,14.234,1.138,14.964
	c0.487,3.278,3.061,5.852,6.339,6.34c0.842,0.126,8.341,1.191,19.085,1.191c20.047,0,51.387-3.71,71.836-24.158
	C462.948,186.133,454.868,129.035,454.509,126.619z"/>
<path style="fill:#679102;" d="M406.411,168.378c-2.942-2.941-7.709-2.941-10.65,0l-61.94,61.94c0.217,2.165,0.41,3.52,0.459,3.85
	c0.487,3.278,3.061,5.852,6.339,6.34c0.329,0.049,1.689,0.242,3.851,0.459l61.94-61.94
	C409.351,176.086,409.351,171.318,406.411,168.378z"/>
<path style="fill:#AA5D24;" d="M346.76,297.18c-0.086,0-0.173-0.001-0.259-0.004c-4.156-0.141-7.411-3.621-7.272-7.777l0,0
	c0.034-1.025,2.804-102.911-46.976-134.086c-3.525-2.208-4.592-6.854-2.386-10.378c2.209-3.525,6.855-4.592,10.378-2.386
	c57.129,35.777,54.189,142.816,54.035,147.355C354.145,293.974,350.802,297.18,346.76,297.18z"/>
<path style="fill:#ED7D0C;" d="M347.331,297.187c-5.363,0-10.217-0.922-14.323-2.166c-12.482-3.78-20.656-11.332-20.997-11.652
	c-3.038-2.84-3.198-7.605-0.357-10.644c2.833-3.03,7.582-3.197,10.621-0.378c0.166,0.151,6.399,5.755,15.585,8.404
	c11.727,3.381,23.028,0.49,33.589-8.592c3.151-2.71,7.906-2.354,10.618,0.8c2.712,3.154,2.353,7.908-0.8,10.619
	C369.195,293.96,357.369,297.187,347.331,297.187z"/>
<g>
</g>
<g>
</g>
<g>
</g>
<g>
</g>
<g>
</g>
<g>
</g>
<g>
</g>
<g>
</g>
<g>
</g>
<g>
</g>
<g>
</g>
<g>
</g>
<g>
</g>
<g>
</g>
<g>
</g>
</svg>
