<svg id="Capa_1" enable-background="new 0 0 512 512" viewBox="0 0 512 512" xmlns="http://www.w3.org/2000/svg"><g><path d="m341.523 209.083c0 104.247-76.735 175.108-171.046 175.108-13.183 0-25.726 12.003-38.047 8.887-75.851-19.242-132.43-94.312-132.43-183.995 0-87.532 53.91-161.151 127.031-182.504 7.398-2.162 13.924-6.718 18.481-12.94.85-1.162 1.76-2.261 2.718-3.298 5.931-6.42 13.839-6.957 22.532-6.957 10.098 0 16.257 6.026 22.367 14.378 4.557 6.221 11.082 10.778 18.481 12.94 47.597 13.904 77.141 47.24 98.88 94.857 11.67 25.534 31.033 52.976 31.033 83.524z" fill="#fea95c"/><path d="m341.523 209.085c0-87.538-53.907-161.156-127.026-182.509-7.403-2.162-13.928-6.714-18.484-12.937-6.115-8.352-15.158-13.639-25.251-13.639-8.69 0-16.598 3.923-22.532 10.341 2.697 2.056 5.137 4.55 7.223 7.41 4.558 6.248 11.164 10.75 18.586 12.925 37.715 11.052 70.307 36.014 93.014 69.616 9.302 13.766 3.496 32.56-11.909 38.781-76.952 31.072-131.258 106.471-131.258 194.554 0 20.653 2.984 40.605 8.545 59.451 12.32 3.116 25.148 4.77 38.332 4.77 32.871 0 62.608-10.475 87.409-28.524 50.061-31.776 83.351-90.863 83.351-160.239z" fill="#fe9738"/><g><g><g><circle cx="333.627" cy="333.627" fill="#f8f6f6" r="170.762"/><path d="m426.312 190.193c17.285 26.695 27.328 58.516 27.328 92.686 0 10.099-.877 19.992-2.558 29.609-.626 3.582-10.702 9.005-11.548 12.507-13.456 55.711-51.124 88.841-104.243 108.265-5.986 2.189-5.897 14.096-12.176 15.613-12.903 3.117-26.377 4.768-40.238 4.768-34.17 0-65.991-10.042-92.686-27.328 30.422 46.983 83.295 78.076 143.434 78.076 94.309 0 170.762-76.452 170.762-170.762.001-60.139-31.092-113.011-78.075-143.434z" fill="#ebebeb"/><path d="m333.627 512c-98.356 0-178.374-80.018-178.374-178.373s80.018-178.373 178.374-178.373c98.355 0 178.373 80.018 178.373 178.373s-80.018 178.373-178.373 178.373zm0-341.523c-89.961 0-163.151 73.189-163.151 163.15s73.189 163.15 163.151 163.15 163.15-73.189 163.15-163.15-73.188-163.15-163.15-163.15z" fill="#fea95c"/></g><circle cx="333.627" cy="333.627" fill="#fea95c" r="67.362"/><g><g fill="#fe9738"><path d="m296.937 197.868c-11.93 3.217-23.232 7.966-33.682 14.021-16.439 9.525-19.194 32.173-5.76 45.607l2.826 23.849 31.188 10.165c15.542 15.542 42.117 4.535 42.117-17.446l10.511-24.881-10.511-23.229c.001-19.156-18.194-33.074-36.689-28.086z"/><path d="m468.983 296.864c-3.157-11.483-7.672-22.462-13.355-32.628-9.456-16.913-32.358-20.252-46.06-6.55l-21.316 9.754-12.507 24.069c-15.542 15.542-4.535 42.117 17.446 42.117l25.118 10.511 22.61-10.511c19.186.001 33.15-18.261 28.064-36.762z"/><path d="m333.627 393.19-10.511 26.248 10.511 21.863c0 19.156 18.195 33.073 36.69 28.086 11.93-3.217 23.232-7.966 33.682-14.021 16.439-9.525 19.194-32.173 5.76-45.607l-16.562-27.073-17.452-6.941c-15.543-15.543-42.118-4.535-42.118 17.445z"/><path d="m226.336 333.627c-19.187 0-33.152 18.262-28.065 36.763 3.22 11.711 7.851 22.898 13.695 33.232 9.396 16.617 32.215 19.45 45.714 5.951l25.142-14.631 8.688-19.199c15.542-15.542 4.535-42.117-17.445-42.117l-30.354-10.511z"/></g><path d="m409.758 257.496c13.435-13.435 10.679-36.082-5.76-45.607-10.45-6.055-21.752-10.804-33.682-14.021-18.495-4.988-36.69 8.93-36.69 28.086v48.111c0 21.98 26.575 32.988 42.117 17.446z" fill="#fe860a"/><path d="m375.744 375.744 33.829 33.829c13.499 13.499 36.318 10.666 45.714-5.951 5.843-10.334 10.475-21.521 13.695-33.232 5.086-18.501-8.878-36.763-28.065-36.763h-47.727c-21.98 0-32.988 26.575-17.446 42.117z" fill="#fe860a"/><path d="m263.256 455.365c10.45 6.055 21.752 10.803 33.682 14.021 18.495 4.988 36.69-8.93 36.69-28.086v-48.11c0-21.98-26.575-32.988-42.117-17.446l-34.014 34.014c-13.436 13.435-10.681 36.082 5.759 45.607z" fill="#fe860a"/><path d="m257.68 257.68c-13.499-13.499-36.318-10.666-45.714 5.951-5.843 10.334-10.475 21.521-13.695 33.232-5.086 18.501 8.878 36.763 28.065 36.763h47.728c21.98 0 32.988-26.575 17.446-42.117z" fill="#fe860a"/></g></g><g fill="#fe9738"><circle cx="45.695" cy="137.1" r="7.611"/><circle cx="40.082" cy="166.992" r="7.611"/><circle cx="67.419" cy="158.319" r="7.611"/><circle cx="207.303" cy="129.489" r="7.611"/><circle cx="232.704" cy="112.506" r="7.611"/><circle cx="72.709" cy="273.877" r="7.611"/><circle cx="92.046" cy="296.66" r="7.611"/></g></g></g><g/><g/><g/><g/><g/><g/><g/><g/><g/><g/><g/><g/><g/><g/><g/></svg>