<svg id="圖層_1" height="512" viewBox="0 0 512 512" width="512" xmlns="http://www.w3.org/2000/svg"><path id="_x30_5" d="m345.991 164.506c-3.294 2.049-44.158-10.699-46.856-8.161-12.74-.346-63.158-107.018-156.619-107.915-.758 2.031 7.642 132.805-7.509 130.049-24.593-4.485-65.566 20.587-83.255 35.857-35.732 30.893-55.261 74.234-51.229 86.557 2.621 7.889 89.378 99.735 179.916 77.562 13.147-3.215 23.387-11.567 31.388-22.485 6.666 5.775 106.731 115.727 108.765 116.021.791-.676 45.611-132.942 46.44-132.82 34.724 5.09 67.432-6.576 86.557-25.225 36.966-36.06 43.09-77.925 58.41-87.11-8.164-6.125-76.754-117.867-166.008-62.33z" fill="#2c8645"/><path id="_x30_4" d="m186.991 223.937c17.034 9.122 35.354 9.676 48.683.806l29.61.632c-3.569 4.665-3.491 11.404.477 16.087 2.546 3.023 6.198 4.573 9.853 4.573 2.949 0 5.847-1.058 8.316-3.049 49.74-40.091 141.21-42.875 145.368-46.277-1.718-2.056-78.035-16.074-136.128 10.617 2.501-7.782 4.846-15.415 6.607-17.018 8.744-8.063 31.9-50.208 4.283-89.24-36.51-51.605-101.446-74.875-161.544-52.638 5.292-1.965 110.243 75.847 100.768 153.017-.806 6.602-6.299 11.528-12.801 11.528-.479 0-.932-.025-1.386-.076-7.081-.756-12.146-7.093-11.465-14.199 6.098-62.593-76.527-146.491-75.116-150.271-12.398 32.898-21.192 87.049-11.516 122.528 9.676 35.467 36.714 42.648 55.991 52.98zm120.322 33.022c-14.614-1.184-47.549-.252-80.633 23.648-24.039 17.388-47.323 66.675-24.09 114.199 28.323 57.904 92.931 73.527 118.003 77.183-5.015-.73-13.531-119.769-44.953-155.298-4.713-5.342-4.232-13.48 1.084-18.192 5.266-4.788 13.731-4.485 18.219 1.06 41.678 51.555 27.391 170.944 25.65 172.432 20.411-17.715 80.131-79.45 57.68-149.451-8.192-25.526-54.708-64.245-70.96-65.581zm-67.985 6.816c7.131.326 12.902-5.771 12.902-12.901 0-7.131-5.896-11.503-12.902-12.902-58.46-11.692-154.466 49.062-156.179 54.731 3.174 3.049 77.157-32.557 156.179-28.928z" fill="#6d9d48"/><path id="_x30_3_1_" d="m126.691 239.598c-59.921 4.561-127.453 57.34-126.168 61.295.358 1.1 62.791-26.24 110.352-33.733 5.922-.933 29.549-8.095 29.272-15.213-.328-7.121-5.846-13.269-13.456-12.349zm234.142 4.006c-5.568 4.422-7.131 12.196-2.998 17.992 2.521 3.528 6.502 5.405 10.508 5.405 2.597 0 3.2-1.172 5.367-2.948 37.621-30.642 134.635-35.026 138.289-37.218-1.613-1.21-96.359-26.761-151.166 16.769zm-67.026 11.755c-21.418-14.577-44.702 7.131-44.702 7.131-31.17 36.312 31.12 72.798 47.448 69.724 13.078-2.443 29.608-54.832-2.746-76.855z" fill="#89c147"/><path id="_x30_2" d="m283.93 242.987c-2.471 1.991-5.367 3.049-8.316 3.049-3.653 0-7.307-1.55-9.853-4.573-4.61-5.443-3.981-13.67 1.537-18.181 57.905-47.398 160.01-28.953 162-26.572-8.996-10.835-62.971-67.053-120.928-50.485-57.174 16.329-56.746 52.526-63.902 74.99-.51 1.62-.77 3.533-.836 5.643-11.694-11.938-38.893-32.714-78.236-24.731-51.606 10.483-75.495 68.4-82.248 90.576 1.713-5.669 97.719-66.423 156.179-54.731 7.005 1.398 12.902 5.771 12.902 12.902s-5.771 13.229-12.902 12.901c-79.022-3.629-153.004 31.977-156.179 28.928 64.709 62.038 161.887 19.789 167.634 14.919-10.893-12.733-15.57-28.949-1.679-45.132 0 0 23.283-21.708 44.701-7.131 15.766 10.73 19.921 28.667 18.529 44.526 17.772-1.251 36.21-8.587 48.65-18.57 21.366-17.211 46.34-66.65 68.313-84.604-4.156 3.401-95.626 6.185-145.366 46.276z" fill="#add485"/><path id="_x30_1" d="m285.289 220.51c-9.425-20.007-31.22-40.771-61.231-40.141-18.37 32.683-11.818 69.812-3.049 79.64 41.852 46.957 84.741 4.095 64.28-39.499z" fill="#567a3a"/></svg>