<svg height="512" viewBox="0 0 512 512" width="512" xmlns="http://www.w3.org/2000/svg"><g id="Flat"><path d="m474.884 258.762a50.028 50.028 0 0 1 -1.891-65.189c25.568-31.206 4.764-79.286-34.65-80.081-24-.484-43.748-19.815-45.659-44.706-3.139-40.868-50.54-59.567-78.95-31.144a45.394 45.394 0 0 1 -62.681 1.966c-30.005-26.59-76.237-4.954-77 36.037-.466 24.965-19.053 45.5-42.986 47.486-39.3 3.264-57.277 52.561-29.947 82.108a50.028 50.028 0 0 1 1.891 65.189c-25.568 31.207-4.764 79.287 34.65 80.082 24.005.484 43.748 19.815 45.659 44.706 3.139 40.868 50.54 59.567 78.95 31.144a45.394 45.394 0 0 1 62.681-1.966c30.006 26.59 76.238 4.954 77-36.037.466-24.965 19.053-45.5 42.986-47.486 39.297-3.265 57.277-52.562 29.947-82.109z" fill="#4f657d"/><path d="m152 224v12.393a187.055 187.055 0 0 1 -103.4 167.307 44.5 44.5 0 0 0 -24.6 39.8 44.5 44.5 0 0 0 44.5 44.5h91.5c145.8 0 264-118.2 264-264a136 136 0 0 0 -136-136 136 136 0 0 0 -136 136z" fill="#d0d0d0"/><path d="m287.392 120c-57.387.331-103.392 47.756-103.392 105.144v11.25a218.9 218.9 0 0 1 -32.716 115.164l-.215.348a63.305 63.305 0 0 0 1.384 69.349l.949 1.377c41.951 60.941 133.782 2.282 170.647-34.583a230.481 230.481 0 0 0 67.951-164.049 104.117 104.117 0 0 0 -104.608-104z" fill="#dedede"/><g fill="#ebebeb"><path d="m259.008 407.151-7.863-13.933c4.49-2.534 9.094-5.377 13.683-8.449l8.9 13.294c-4.928 3.298-9.877 6.356-14.72 9.088z"/><path d="m286.316 389.06-9.708-12.719a194.586 194.586 0 0 0 19.157-16.577 192.5 192.5 0 0 0 35.105-47.983l14.224 7.328a204.347 204.347 0 0 1 -58.778 69.951z"/><path d="m252.511 170.991-9.022-13.215a79.506 79.506 0 0 1 17.793-9.111l5.436 15.049a63.407 63.407 0 0 0 -14.207 7.277z"/><path d="m224 225.145h-16a81.557 81.557 0 0 1 20.8-54.481l11.921 10.672a65.582 65.582 0 0 0 -16.721 43.809z"/></g><path d="m151.424 352a2.011 2.011 0 0 0 .057-.2l-15.481-4.045c.269-1.028 2.975-10.314 15.224-19.727 15.1-11.6 37.86-18.6 67.646-20.789 33.729-2.48 54.023-17.866 65.107-30.336 13.337-15 17.48-29.941 17.48-33.685h16c0 8.081-5.732 26.552-21.521 44.314-13.052 14.684-36.814 32.791-75.893 35.664-60.113 4.42-68.543 28.561-68.619 28.804z" fill="#d0d0d0"/></g></svg>