<svg id="icons" height="512" viewBox="0 0 340 340" width="512" xmlns="http://www.w3.org/2000/svg"><path d="m114.216 334.068s-74.846 2.792-83.307-46.061a231.131 231.131 0 0 1 -3.534-42.849h34.145z" fill="#bf977c"/><path d="m21.718 253.336h49.06s1.807-47.25-32.019-47.25c-20.465 0-27.887 17.295-30.557 30.958a13.725 13.725 0 0 0 13.516 16.292z" fill="#bf977c"/><path d="m230.847 101.772-24.087-3.821v151.124l29.784 2.679z" fill="#bf977c"/><path d="m231.452 139.346c-.546 38-4.888 93.4-24.692 109.729v43.716l57.654-29.144c4.029-32.88 6.228-60.849 5.385-90.083 0 0-.66-19.305-1.784-38.474-8.749-8.259-29.646-4.71-36.563 4.256z" fill="#fff4e6"/><path d="m268.014 135.09c-.784-13.372-1.8-26.679-2.967-33.318h-34.2s.914 15.981.6 37.574z" fill="#e2c0a1"/><path d="m289.741 88.736a17.67 17.67 0 0 0 -1.48-4.814c-5.579-11.863-16.788-23.487-39.3-23.487a57.472 57.472 0 0 0 -9.307.726s-23.531 16.61 5.581 31.084c46.658 23.198 44.506-3.509 44.506-3.509z" fill="#fff4e6"/><path d="m272.364 108.9a17.565 17.565 0 0 0 17.368-20.161c-.166 6.573-14.84 7.249-14.84 7.249h-12.882a19.6 19.6 0 0 1 -19.635-19.68 44.544 44.544 0 0 0 -2.719-15.142c-15.979 2.622-25.248 11.946-30.619 21.668a17.553 17.553 0 0 0 15.339 26.066z" fill="#e2c0a1"/><path d="m216.367 313.558h-53.337v-202.595c9.352-13.012 38.339-20 49.413-10.9-.559 63.057 1.083 141.716 3.924 213.495z" fill="#fff4e6"/><path d="m163.03 110.963 49.413-10.9c.19-21.384.633-40.977 1.368-57.9h-50.781z" fill="#e2c0a1"/><path d="m227.633 49.261c-5.534-11.36-15.9-21.2-35.229-21.2a38.29 38.29 0 0 0 -4.634.3c-13.548 5.474-12.605 27.5 0 38.172 24.841 14.254 48.774 3.71 39.863-17.272z" fill="#fff4e6"/><path d="m163.03 313.558h53.337c-1.183-29.881-2.158-60.953-2.852-91.6h-50.485z" fill="#bf977c"/><path d="m114.216 42.166h48.814v175.018h-48.814z" fill="#e2c0a1"/><path d="m232.14 62.726a58.6 58.6 0 0 0 -4.507-13.465c4.706 19.288-19.991 17.28-19.991 17.28h-.578a16.166 16.166 0 0 1 -16.064-17.541 47.037 47.037 0 0 0 -3.23-20.641c-10.141 1.183-33.674 7.013-37.154 35.581a14.353 14.353 0 0 0 16.233 15.986 180.2 180.2 0 0 1 49.356-.068 14.338 14.338 0 0 0 15.935-17.132z" fill="#e2c0a1"/><g fill="#bf977c"><path d="m80.392 84.424-3.073 202.803 55.677 29.867-16.155-117.566v-117.123z"/><path d="m145.008 126.831h36.044v190.263h-36.044z"/><path d="m266.631 173.564h30.718s18.6 137.88-80.982 137.88v-29.322s62.482-6.283 50.264-108.558z"/><path d="m186.875 334.071h38.946s85.418 3.166 90.13-96.1h-27.687s-2.945 66.567-70.985 63.327z"/></g><path d="m177.127 308.327c8.821-1.9 19.206-7.358 22.67-22.08a158.36 158.36 0 0 0 3.219-19.724c3.744-8.977 21.757-13.706 27.8-6.948-.293 19.267-2.841 42.755-12 58.465-5.912 10.136-20.2 16.031-31.937 16.031h-12.33c-5.109-7.954-3.172-21.661 2.578-25.744z" fill="#fff4e6"/><path d="m163.231 308.992-6.3 25.079h17.611c3.648-2.429 6.558-5.941 7.205-10.392a19.307 19.307 0 0 0 -4.622-15.356 43.109 43.109 0 0 1 -13.894.669z" fill="#e2c0a1"/><path d="m81.069 156.245s-15.718 153.378 48.34 149.961l27.525 27.862h-42.718s-63.907 2.28-65.36-106.363c-.42-31.464-.475-54.425-.342-71.169z" fill="#e2c0a1"/><path d="m145.008 228.45v25.98s-.855 38.362 19.777 55.1a14.233 14.233 0 0 1 5.221 12.359 12.932 12.932 0 0 1 -5.394 9.648 14.317 14.317 0 0 1 -12.808 1.778c-11.308-3.734-36.426-17.881-36.426-69.879v-28.159c4.984-10.128 25.154-15.777 29.63-6.827z" fill="#fff4e6"/><path d="m261.789 181.668h40.847a14.089 14.089 0 0 0 11.346-22.468c-6.311-8.43-16.734-16.008-33.81-16.008-19.427 0-27.946 9.808-31.619 19.52a14.073 14.073 0 0 0 13.236 18.956z" fill="#bf977c"/><path d="m179.64 37.269c-.447-14.8-7.515-31.366-36.916-31.366-22.772 0-32.926 9.938-37.095 21.3-2.164 13.963 8.361 21.373 29.371 23.363 29 4.412 42.567-.84 44.64-13.297z" fill="#fff4e6"/><path d="m179.557 42.251c.1-1.619.129-3.29.078-4.982-.671 8.216-13.347 6.731-13.347 6.731s-25.141-1.832-42.707-1.832-17.949-14.968-17.949-14.968a45.086 45.086 0 0 0 -2.541 13.463 15.521 15.521 0 0 0 17.8 16.068 135.615 135.615 0 0 1 40.721-.092 15.512 15.512 0 0 0 17.945-14.388z" fill="#e2c0a1"/><path d="m145.008 228.45v-28.922h-29.63v35.749z" fill="#e2c0a1"/><path d="m164.812 185.365c-5.471-10.459-15.589-20.661-34.247-20.661-14.082 0-23.011 5.811-28.671 13.158-2.835 8.515-1.322 16.471 8.7 23.332 39.847 7.086 58.092 1.906 54.218-15.829z" fill="#fff4e6"/><path d="m79.851 120.129 36.99-7.565v-30.159l-36.449 2.019z" fill="#bf977c"/><path d="m118.229 90.55c-16.578-1.275-34.054-.6-47.152.369a15.5 15.5 0 0 1 -14.825-22.752c5.782-10.852 16.995-21.519 38.719-23.237 25.2-1.992 35.362 12.388 39.391 25.93a15.47 15.47 0 0 1 -16.133 19.69z" fill="#bf977c"/><path d="m94.706 141.177c-4.381-11.59-13.716-23.111-33.516-23.111-11.752 0-20.088 4.059-26 9.782-6.435 15.487-7.135 28.771 21.342 30.854 31.524 3.738 43.208-2.635 38.174-17.525z" fill="#fff4e6"/><path d="m203.807 226.371a256.025 256.025 0 0 1 -.8 40.152l27.805-6.948a268.5 268.5 0 0 0 -1.525-33.2z" fill="#e2c0a1"/><path d="m245.06 213.673c-6.13-8.792-16.833-16.392-35.516-16.392-9.992 0-17.314 3.285-22.678 8.033-6.926 9.454-7.05 19.085 5.213 29.035l52.458-4.23c3.768-4.891 4.31-10.312.523-16.446z" fill="#fff4e6"/><path d="m289.492 244.362h29a13.557 13.557 0 0 0 13.186-16.713c-2.727-11.383-9.794-24.4-27.852-24.4-18.15 0-25.016 13.143-27.557 24.566a13.568 13.568 0 0 0 13.223 16.547z" fill="#bf977c"/><path d="m96.342 146.283a53.54 53.54 0 0 0 -1.638-5.106c2.579 11.612-10.354 11.487-10.354 11.487h-32.019c-17.243-1.823-18.018-16.742-17.141-24.814a44.793 44.793 0 0 0 -10.614 17.222 14.679 14.679 0 0 0 13.816 19.628h43.758a14.665 14.665 0 0 0 14.192-18.417z" fill="#e2c0a1"/><path d="m167.039 190.218a53.107 53.107 0 0 0 -2.23-4.852c2.951 10.6-8.6 10.2-8.6 10.2h-42.85c-15.477-1.408-11.482-17.616-11.461-17.7a44.488 44.488 0 0 0 -6.721 12.885 12.809 12.809 0 0 0 12.147 16.9h47.765a12.784 12.784 0 0 0 11.95-17.433z" fill="#e2c0a1"/><path d="m198.838 116.568c-3.235-11.877-12.266-24.153-35.78-24.153-16.713 0-25.527 7.124-30.07 15.769v.025a40.4 40.4 0 0 0 -4.037 13.217 15.042 15.042 0 0 0 14.929 17.044h41.053c20.29 0 13.907-21.891 13.905-21.902z" fill="#bf977c"/><path d="m250.905 225.8a44.344 44.344 0 0 0 -5.87-12.16c3.984 16.624-14.189 15.683-14.189 15.683h-24.7c-28.773 0-19.415-23.643-19.271-24-6.549 5.8-10.186 13.771-12.2 20.618a10.99 10.99 0 0 0 10.533 14.1h55.208a10.978 10.978 0 0 0 10.489-14.241z" fill="#e2c0a1"/></svg>