<svg id="flat" height="512" viewBox="0 0 512 512" width="512" xmlns="http://www.w3.org/2000/svg"><path d="m504 198.55v249.45c0 30.93-53.73 56-120 56s-120-25.07-120-56v-247.88a60 60 0 0 1 26.73-49.93l42.58-28.38a60.05 60.05 0 0 0 26.72-49.93v-63.88h55.97v65.45a59.347 59.347 0 0 0 1.8 14.55 59.957 59.957 0 0 0 22.91 33.97l38.58 28.06a60.013 60.013 0 0 1 24.71 48.52z" fill="#473315"/><path d="m8 240v48a80 80 0 0 0 80 80h96v-54l-160-74z" fill="#a58855"/><path d="m240 330v51.79a98.21 98.21 0 0 1 -98.21 98.21h-61.79z" fill="#896c3e"/><path d="m504 352c0 30.928-53.726 56-120 56s-120-25.072-120-56v-120c0 30.928 53.726 56 120 56s120-25.072 120-56z" fill="#eadeca"/><path d="m417.8 88h-59.98a59.793 59.793 0 0 0 2.21-16.12v-31.88h55.97v33.45a59.347 59.347 0 0 0 1.8 14.55z" fill="#c68c17"/><circle cx="388" cy="348" fill="#f23f00" r="36"/><path d="m8 480h64.79a92.19 92.19 0 0 0 56-18.958l75.019-57.368a92.19 92.19 0 0 0 36.191-73.232v-10.442a269.959 269.959 0 0 0 -128 40c-65.058 40.439-93.962 97.377-104 120z" fill="#a58855"/><path d="m208 352c-4.479-1.979-43.27-25.039-96 8-52.044 32.608-63.762 90.842-64 96h40z" fill="#f9c050"/><path d="m288 296h16v48h-16z" fill="#8f4c2e"/><path d="m184 328v-24c-6.916-38.039-36.1-64-74.766-64h-101.234l56.194 61.814a80 80 0 0 0 59.196 26.186z" fill="#896c3e"/><path d="m100 264h-70v.2l34.194 37.614c11.959 13.154 29.563 23.1 46.806 26.186h57l-36-48a40 40 0 0 0 -32-16z" fill="#f9c050"/><path d="m153.06 308.08-21.06-28.08a40 40 0 0 0 -32-16h-70l23.045 25.55c63.042-13.45 100.011 18.527 100.015 18.53z" fill="#f7d292"/><path d="m199.52 348.152c-14.859-5.838-47.092-13.483-87.52 11.848a138.048 138.048 0 0 0 -44 44.86c77.088-2.716 119.644-43.432 131.52-56.708z" fill="#f7d292"/><path d="m360 8h56v32h-56z" fill="#8f4c2e"/><g opacity=".3"><path d="m360.03 71.88a60.05 60.05 0 0 1 -26.72 49.93l-42.58 28.38a60 60 0 0 0 -26.73 49.93v247.88c0 16.585 15.453 31.482 40 41.736v-253.515a66.744 66.744 0 0 1 30.369-55.961l19.261-12.52a66.744 66.744 0 0 0 30.37-55.961v-103.779h-23.97z" fill="#fcfcfc"/></g></svg>