<svg height="512" viewBox="0 0 64 64" width="512" xmlns="http://www.w3.org/2000/svg"><g id="Layer_10" data-name="Layer 10"><path d="m41 30.03h2v3.97h-2z" fill="#e9968c"/><path d="m45.12 29.96h2v4.04h-2z" fill="#e9968c"/><path d="m39 25h7.59a9.36 9.36 0 0 1 7.23 3.42 9.61 9.61 0 0 1 2.18 6.1 10.17 10.17 0 0 1 -3.49 7.68l-2.88 2.5a1.25 1.25 0 0 1 -1.37.17 1.28 1.28 0 0 1 -.48-1.87l2.09-2.91a8.53 8.53 0 0 0 1.42-6.6 3.61 3.61 0 0 0 -1.5-2.26 3.49 3.49 0 0 0 -3.67-.15 4.8 4.8 0 0 1 -7.12-4.21z" fill="#e47c6f"/><rect fill="#c1c8d1" height="4" rx="2" width="50" x="12" y="4"/><rect fill="#c1c8d1" height="4" rx="2" width="50" x="12" y="8"/><path d="m4 50a13 13 0 0 1 26 0z" fill="#f7c77c"/><path d="m22 38v-34a2 2 0 0 0 -4 0v33.05a13 13 0 0 1 4 .95z" fill="#f5b95b"/><path d="m8 50a9 9 0 0 1 18 0z" fill="#f7d881"/><path d="m12 50a5 5 0 0 1 10 0z" fill="#f7c77c"/><path d="m34 50a13 13 0 0 1 26 0z" fill="#f7c77c"/><path d="m38 50a9 9 0 0 1 18 0z" fill="#f7d881"/><path d="m42 50a5 5 0 0 1 10 0z" fill="#f7c77c"/><path d="m2 50h60a0 0 0 0 1 0 0 8 8 0 0 1 -8 8h-44a8 8 0 0 1 -8-8 0 0 0 0 1 0 0z" fill="#c1c8d1"/><path d="m19 50a13 13 0 0 1 26 0z" fill="#f5b95b"/><path d="m30 37.17v-33.17a2 2 0 0 0 -4 0v34.47a13 13 0 0 1 4-1.3z" fill="#f7d881"/><path d="m26 38.47v-34.47a2 2 0 0 0 -4 0v34a12.65 12.65 0 0 1 2.49 1.4 13.57 13.57 0 0 1 1.51-.93z" fill="#f7c77c"/><path d="m23 50a9 9 0 0 1 18 0z" fill="#f7d881"/><path d="m27 50a5 5 0 0 1 10 0z" fill="#f5b95b"/><path d="m14 58h35v4h-35z" fill="#a0a8b2"/><path d="m54.84 30-4.22 2.11a3.68 3.68 0 0 1 .67 1.46l.06.42 4.25-2.13a8.86 8.86 0 0 0 -.76-1.86z" fill="#e9968c"/><path d="m47.05 30.68.15.05a3.55 3.55 0 0 1 1.88.18l1.65-4.91a9 9 0 0 0 -1.88-.69z" fill="#e9968c"/><path d="m42 27h2v2h-2z" fill="#c1c8d1"/><path d="m39 27h-3a3 3 0 0 1 0-6h4v2h-4a1 1 0 0 0 0 2h3z" fill="#c1c8d1"/><path d="m2 32 10-10a7.07 7.07 0 0 1 0 10 7.07 7.07 0 0 1 -10 0z" fill="#78b75b"/><path d="m6 28v6a6.7 6.7 0 0 0 2 0v-4.59l3.24 3.24a7.69 7.69 0 0 0 .76-.65 7.69 7.69 0 0 0 .65-.76l-3.24-3.24h4.59a6.7 6.7 0 0 0 0-2h-6z" fill="#96cc7f"/><g fill="#78b75b"><path d="m60 23a6.84 6.84 0 0 1 -4.83 2h-.17v-.17a6.84 6.84 0 0 1 2-4.83 6.84 6.84 0 0 1 4.83-2h.17v.17a6.84 6.84 0 0 1 -2 4.83z"/><path d="m47 20a6.84 6.84 0 0 0 4.83 2h.17v-.17a6.84 6.84 0 0 0 -2-4.83 6.84 6.84 0 0 0 -4.83-2h-.17v.17a6.84 6.84 0 0 0 2 4.83z"/></g></g></svg>