<svg id="Layer_1" enable-background="new 0 0 74 74" height="512" viewBox="0 0 74 74" width="512" xmlns="http://www.w3.org/2000/svg"><g><g><g><path d="m67.42 59.07c-3.37 5.47-10.01 9.53-16.08 11.2-13 3.6-32.07 2.39-42.09-7.78-2.99-3.02-4.48-6.99-4.22-10.79.24 3.25 1.69 6.47 4.21 9.01 10.03 10.17 29.09 11.39 42.09 7.79 6.07-1.67 12.71-5.73 16.08-11.19.92-1.49 1.4-2.95 1.53-4.35.22 1.92-.21 3.99-1.52 6.11z" fill="#45b8e5"/><path d="m35.59 34.43c-9.05-.09-19.5 1.27-26.39 7.25-5.87 5.09-5.31 13.61.05 19.04 10.02 10.16 29.08 11.38 42.09 7.78 6.06-1.68 12.71-5.73 16.08-11.2 4.5-7.3-1.37-13.87-7.83-17.17-7.42-3.8-15.71-5.62-24-5.7z" fill="#6cf"/><path d="m63.74 46.24c-1.15-.98-2.51-1.88-4.01-2.66-6.77-3.46-14.66-5.34-22.85-5.41l-.8-.01c-10.76 0-18.79 2.24-23.86 6.63-2.62 2.28-3.26 4.98-3.33 6.86-.13 3 1.07 6.04 3.3 8.4-.38-.34-.75-.68-1.09-1.03-2.37-2.4-3.65-5.55-3.52-8.65.08-1.87.71-4.59 3.33-6.86 5.06-4.39 13.09-6.63 23.86-6.63l.8.01c8.19.09 16.08 1.96 22.85 5.41 2.14 1.1 3.97 2.46 5.32 3.94z" opacity=".05"/><path d="m66.32 56.67c-2.89 4.7-8.91 8.87-15.33 10.65-4.24 1.18-9.03 1.8-13.86 1.8-11.34 0-21.17-3.37-26.96-9.25-2.39-2.41-3.78-5.53-3.88-8.67.5 2.21 1.65 4.34 3.36 6.06 5.43 5.5 14.63 8.66 25.26 8.66h.01c4.5 0 9-.59 12.97-1.68 6.02-1.67 11.66-5.58 14.37-9.97 1.29-2.09 1.63-4.22 1.02-6.32-.88-3.04-3.83-6.08-7.88-8.15-.78-.39-1.58-.77-2.38-1.12 2.07.73 4.07 1.59 5.98 2.56 4.34 2.21 7.48 5.46 8.42 8.71.64 2.22.28 4.49-1.1 6.72z" opacity=".05"/><path d="m37.07 62.75c-5.81 0-11.83-1.61-15.58-5.42-1.66-1.68-2.56-3.91-2.47-6.11.08-1.97.96-3.78 2.48-5.1 3.21-2.78 8.16-4.17 14.75-4.09 4.76.05 9.36 1.14 13.31 3.16 2.7 1.38 4.61 3.39 5.22 5.51.46 1.57.21 3.14-.73 4.66-2.1 3.41-6.07 5.51-9.09 6.35-2.41.67-5.13 1.04-7.89 1.04zm-1.29-19.49c-6.02 0-10.54 1.27-13.43 3.78-1.28 1.11-1.99 2.57-2.05 4.23-.08 1.87.7 3.77 2.12 5.21 5.19 5.26 15.09 6.02 22.19 4.05 3.5-.97 6.78-3.25 8.35-5.8.75-1.22.95-2.47.6-3.7-.51-1.77-2.23-3.55-4.59-4.75-3.77-1.93-8.17-2.97-12.73-3.02-.16 0-.31 0-.46 0z" fill="#45b8e5"/><g fill="#fff"><path d="m56.46 55.73c-3.58 4.1-9.71 6.59-15.04 7.22-11.45 1.33-27.36-2.1-34.46-11.76-.71-.97-1.27-2-1.65-3.09.08-.37.18-.75.31-1.11.64-1.97 1.82-3.8 3.58-5.33 6.9-5.98 17.34-7.34 26.4-7.24.93.01 1.86.05 2.77.1.67.04 1.34.09 2.01.15 4.19 1.38 8.17 3.33 11.77 5.88 5 3.56 9.07 9.72 4.31 15.18z" opacity=".2"/><path d="m44.94 48.96c-2.95 3.38-8 5.44-12.41 5.95-8.71 1.02-20.53-1.32-26.92-7.91.64-1.97 1.82-3.8 3.58-5.33 6.9-5.98 17.34-7.34 26.4-7.24.93.01 1.86.05 2.77.1 1.04.58 2.05 1.22 3.03 1.91 4.13 2.92 7.49 8.02 3.55 12.52z" opacity=".2"/></g></g><g><path d="m9.92 57.73c-.41 2.98 1.3 6.14 4.02 7.43 1.38.65 2.92.84 4.43 1.03 2.62.32 5.25.64 7.87.96.96.12 1.95.23 2.89.01s1.85-.84 2.14-1.77c.39-1.25-.5-2.6-1.64-3.26s-2.48-.83-3.75-1.16c-2.49-.65-4.88-2.05-6.25-4.24-.6-.97-.99-2.05-1.58-3.02-.47-.78-1.37-1.94-2.38-2.01-.85-.05-1.98.64-2.65 1.1-1.63 1.14-2.83 2.94-3.1 4.93z" fill="#f93"/><path d="m31.28 65.39c-.28.92-1.19 1.55-2.14 1.76-.94.22-1.93.11-2.89-.01-2.62-.32-5.25-.64-7.87-.96-1.51-.18-3.06-.37-4.43-1.02-2.65-1.25-4.34-4.27-4.06-7.18.23 2.48 1.79 4.84 4.06 5.9 1.37.65 2.92.85 4.43 1.03 2.62.32 5.25.64 7.87.96.96.11 1.95.23 2.89.01s1.85-.83 2.13-1.74c.13.4.14.83.01 1.25z" opacity=".05"/><path d="m17.6 61.37c-2.41-1.36-4.47-3.31-5.95-5.62-.08-.12-.18-.26-.33-.26-.2.01-.28.26-.3.46-.16 1.59 0 3.24.7 4.67s1.99 2.63 3.56 3.01c1.36.33 2.8.03 4.2.18 1.74.19 3.36 1.06 5.11 1.14.32.01.64 0 .93-.14.49-.24.77-1.07.07-1.25-.2-.05-.48.03-.69.02-.36-.02-.72-.06-1.08-.11-1.41-.19-2.8-.56-4.12-1.08-.72-.3-1.42-.64-2.1-1.02z" fill="#fff" opacity=".15"/></g><g><path d="m11.06 51.25c-.05-3.81 1.87-7.44 4.55-9.91s6.06-3.9 9.47-4.83c7.42-2.02 15.35-1.83 22.68.54 3.81 1.23 7.6 3.15 10.15 6.46s3.58 8.25 1.67 12.02c-1.58 3.1-4.73 4.84-7.81 6.04-6.01 2.34-12.47 3.28-18.84 2.84-5.83-.4-12.26-1.77-17.32-5.05-2.7-1.75-4.5-4.62-4.55-8.11z" fill="#ffeb97"/><path d="m58.84 55.02c-1.16 2.28-3.44 4.01-7.2 5.46-4.97 1.93-10.23 2.91-15.65 2.91-1 0-2.02-.03-3.02-.11-4.8-.32-11.65-1.43-17.06-4.94-.95-.6-1.74-1.36-2.37-2.22.17.15.35.27.53.39 5.4 3.49 12.26 4.6 17.06 4.92 1 .08 2.02.11 3.02.11 5.42 0 10.69-.98 15.67-2.91 3.74-1.45 6.04-3.18 7.18-5.45.95-1.9 1.12-4.29.42-6.73l-.05-.21v-.21c.02-2.35-.88-4.91-2.34-6.84-.08-.11-.17-.21-.27-.32.8.65 1.49 1.37 2.1 2.16 1.48 1.93 2.35 4.48 2.34 6.84v.21l.06.21c.68 2.46.53 4.84-.42 6.73z" opacity=".05"/><path d="m11.53 47.9c-.05-3.74 1.83-7.3 4.46-9.72s5.94-3.83 9.3-4.74c7.28-1.98 15.06-1.8 22.26.53 3.74 1.21 7.45 3.09 9.96 6.34 2.5 3.25 3.51 8.09 1.63 11.8-1.55 3.05-4.64 4.75-7.67 5.93-5.9 2.3-12.23 3.22-18.48 2.79-5.72-.39-12.03-1.74-17-4.96-2.65-1.73-4.42-4.54-4.46-7.97z" fill="#ffc145"/><path d="m55.3 37.97c-1.69-1.15-3.73-2.11-6.17-2.9-3.91-1.26-8.01-1.9-12.15-1.9-3.5 0-6.99.46-10.35 1.38-3.86 1.05-6.8 2.54-8.97 4.54-2.55 2.34-4.04 5.57-4 8.61.03 2.7 1.34 5.01 3.67 6.53 1 .65 2.06 1.21 3.16 1.72-1.6-.62-3.18-1.39-4.65-2.34-2.36-1.54-3.68-3.88-3.72-6.62-.05-3.08 1.46-6.32 4.04-8.69 2.19-2.03 5.16-3.52 9.07-4.58 3.39-.93 6.91-1.39 10.45-1.39 4.19 0 8.33.65 12.3 1.93 3.01.97 5.44 2.2 7.32 3.71z" fill="#fff" opacity=".1"/><path d="m58.55 51.59c-1.12 2.22-3.38 3.94-7.09 5.39-4.92 1.9-10.13 2.88-15.49 2.88-.98 0-1.99-.05-2.97-.11-4.75-.33-11.53-1.43-16.84-4.89-.91-.59-1.68-1.3-2.26-2.11.17.15.35.27.53.39 5.33 3.44 12.1 4.56 16.86 4.89.98.06 1.98.09 2.97.09 5.36 0 10.57-.97 15.47-2.88 3.73-1.45 5.98-3.15 7.11-5.39 1.54-3.03.91-7.37-1.54-10.55-.11-.14-.21-.26-.33-.39.78.65 1.48 1.36 2.07 2.13 2.43 3.17 3.06 7.51 1.51 10.55z" opacity=".05"/><path d="m40.67 56.3c.62-.06 1.25-.26 1.87-.14.52.1.99.43 1.49.63s1.09.24 1.51-.17c.41-.41.44-1.4-.04-1.66.21-.58.86-.52 1.36-.42.34.06.84.04 1.08-.32.16-.24.12-.63-.02-.87-.24-.4-.47-.11-.78-.22-.12-.04-.23-.15-.26-.31-.03-.19.1-.38.24-.45.44-.2 1.09-.12 1.56-.14.64-.02 1.28-.04 1.92-.09.77-.07 1.65-.31 2.11-1.19.4-.76.24-1.99-.43-2.31-.45-.22-.95.02-1.43.13s-1.08.01-1.26-.57c-.16-.51.17-1.1.57-1.3s.86-.12 1.29-.06c1.02.15 2.09.21 3.05-.25s1.8-1.56 1.84-2.87c.05-1.65-1.19-3.01-2.47-3.27s-2.58.28-3.8.84-2.49 1.17-3.79 1.02c-1.3-.14-2.63-1.28-2.77-2.93-.13-1.51.73-3.1.21-4.47-.29-.76-.95-1.2-1.61-1.31s-1.32.06-1.98.23c-1.19.31-2.5.72-3.19 1.99-.38.7-.5 1.56-.73 2.35-.22.8-.6 1.61-1.24 1.88-.7.3-1.47-.18-2.02-.81s-.98-1.43-1.59-1.97c-1.27-1.14-2.97-.93-4.5-.67-.52.09-1.06.18-1.51.52s-.8 1-.7 1.66c.04.3.17.59.13.88-.06.42-.43.62-.75.75-1.47.58-3 .93-4.54 1.03-1.43.09-3.06.07-4.03 1.42-1.13 1.57-.64 4.26.59 5.71 1.22 1.45 2.94 1.99 4.56 2.49 1.63.49 3.34 1.05 4.55 2.53.58.7 1.03 1.6 1.72 2.1.8.57 1.78.51 2.69.4 2.16-.26 4.3-.7 6.42-1.24.93-.24 1.2.14 2.01.69.83.58 1.76.84 2.67.76z" opacity=".05"/><g fill="#fff"><path d="m53.57 36.73c-.72 2.63-2.66 4.92-5.16 6.01-.92.41-1.95.68-2.64 1.39-.89.92-1.03 2.31-.97 3.59.06 1.27.26 2.58-.12 3.8-.65 1.99-2.72 3.15-4.71 3.79-5.07 1.6-10.84.83-15.3-2.05-2.22-1.43-4.21-3.38-6.76-4.05-1.8-.45-3.7-.23-5.52.02-.24.03-.48.08-.72.11-.08-.47-.12-.95-.12-1.43-.06-3.73 1.83-7.29 4.45-9.72 2.64-2.41 5.95-3.82 9.3-4.74 7.29-1.98 15.06-1.8 22.26.53 2.07.66 4.14 1.54 6.01 2.75z" opacity=".1"/><path d="m45.78 33.45c-.17 1.27-.66 2.54-1.3 3.65-1.13 2.05-2.66 3.89-4.56 5.24-2.38 1.68-5.22 2.54-8.01 3.37-1.66.48-3.34.98-5.06 1.13-1.74.15-3.53-.08-5.04-.95-1.81-1.06-3-2.94-4.72-4.15-.91-.65-1.95-1.09-3.03-1.36.56-.8 1.22-1.54 1.93-2.2 2.64-2.41 5.95-3.82 9.3-4.74 6.69-1.81 13.79-1.81 20.49.01z" opacity=".1"/></g></g><g><path d="m14.67 55c-1.33-.55-1.91-2.38-1.16-3.61s2.62-1.56 3.76-.69c.56.43.94 1.08 1.54 1.45 1.07.65 2.43.22 3.68.24 2.14.03 4.18 1.59 4.75 3.66.3 1.07.19 2.33-.58 3.14-.62.66-1.59.92-2.49.88-1.06-.05-2.12-.49-2.8-1.31-.53-.63-.8-1.44-1.27-2.12-1.23-1.81-3.66-.9-5.43-1.64z" fill="#f93"/><path d="m26.67 59.18c-.63.66-1.59.92-2.5.88-1.05-.05-2.11-.5-2.8-1.31-.53-.63-.8-1.44-1.27-2.12-1.23-1.81-3.66-.9-5.43-1.63-.93-.39-1.5-1.42-1.49-2.42.21.7.69 1.32 1.37 1.6 1.77.73 4.19-.18 5.43 1.63.46.68.74 1.49 1.27 2.12.68.81 1.74 1.26 2.8 1.31.9.04 1.87-.22 2.49-.88.55-.59.76-1.42.72-2.24.27 1.06.15 2.27-.59 3.06z" opacity=".05"/><path d="m23.45 54.86c-1.37-.38-2.45-1.64-3.86-1.8-.4-.05-.83 0-1.2-.18-.38-.19-.62-.58-.91-.89-.65-.71-1.64-1.07-2.58-.93-.37.05-.78.23-.88.59-.08.28.05.58.21.82.38.58.97 1.01 1.63 1.2s1.36.13 2.04.12c.69-.01 1.4.04 1.99.4.68.42 1.07 1.2 1.34 1.96.22.63.43 1.32.96 1.71.43.31.99.36 1.52.37.54.02 1.08.02 1.63 0 .3-.01.62-.03.86-.22.3-.24.36-.67.37-1.06.02-.6-.08-1.35-.68-1.62-.77-.34-1.64-.25-2.44-.47z" fill="#fff" opacity=".15"/></g><g><path d="m15.73 44.29c-.05-3.81 1.87-7.44 4.55-9.91s6.06-3.9 9.47-4.83c7.42-2.02 15.35-1.83 22.68.54 3.81 1.23 7.6 3.15 10.15 6.46s3.58 8.25 1.67 12.02c-1.58 3.1-4.73 4.84-7.81 6.04-6.01 2.34-12.47 3.28-18.84 2.84-5.83-.4-12.26-1.77-17.32-5.05-2.7-1.75-4.5-4.63-4.55-8.11z" fill="#ffeb97"/><path d="m63.51 48.05c-1.16 2.28-3.44 4.01-7.2 5.46-4.97 1.93-10.23 2.91-15.65 2.91-1 0-2.02-.03-3.02-.11-4.8-.32-11.65-1.43-17.06-4.94-.95-.6-1.74-1.36-2.37-2.22.17.15.35.27.53.39 5.4 3.49 12.26 4.6 17.06 4.92 1 .08 2.02.11 3.02.11 5.42 0 10.69-.98 15.67-2.91 3.74-1.45 6.04-3.18 7.18-5.45.95-1.9 1.12-4.29.42-6.73l-.05-.21v-.21c.02-2.35-.88-4.91-2.34-6.84-.08-.11-.17-.21-.27-.32.8.65 1.49 1.37 2.1 2.16 1.48 1.93 2.35 4.48 2.34 6.84v.21l.06.21c.68 2.46.53 4.85-.42 6.73z" opacity=".05"/><path d="m16.2 40.94c-.05-3.74 1.83-7.3 4.46-9.72s5.94-3.83 9.3-4.74c7.28-1.98 15.06-1.8 22.26.53 3.74 1.21 7.45 3.09 9.96 6.34s3.51 8.09 1.63 11.8c-1.55 3.05-4.64 4.75-7.67 5.93-5.9 2.3-12.23 3.22-18.48 2.79-5.72-.39-12.03-1.74-17-4.96-2.65-1.73-4.41-4.55-4.46-7.97z" fill="#ffc145"/><path d="m59.97 31c-1.69-1.15-3.73-2.11-6.17-2.9-3.91-1.26-8.01-1.9-12.15-1.9-3.5 0-6.99.46-10.35 1.38-3.86 1.05-6.8 2.54-8.97 4.54-2.55 2.34-4.04 5.57-4 8.61.03 2.7 1.34 5.01 3.67 6.53 1 .65 2.06 1.21 3.16 1.72-1.6-.62-3.18-1.39-4.65-2.34-2.36-1.54-3.68-3.88-3.72-6.62-.05-3.08 1.46-6.32 4.04-8.69 2.19-2.03 5.16-3.52 9.07-4.58 3.39-.93 6.91-1.39 10.45-1.39 4.19 0 8.33.65 12.3 1.93 3.02.98 5.44 2.2 7.32 3.71z" fill="#fff" opacity=".1"/><path d="m63.22 44.63c-1.12 2.22-3.38 3.94-7.09 5.39-4.92 1.9-10.13 2.88-15.49 2.88-.98 0-1.99-.05-2.97-.11-4.75-.33-11.53-1.43-16.84-4.89-.91-.59-1.68-1.3-2.26-2.11.17.15.35.27.53.39 5.33 3.44 12.1 4.56 16.86 4.89.98.06 1.98.09 2.97.09 5.36 0 10.57-.97 15.47-2.88 3.73-1.45 5.98-3.15 7.11-5.39 1.54-3.03.91-7.37-1.54-10.55-.11-.14-.21-.26-.33-.39.78.65 1.48 1.36 2.07 2.13 2.43 3.17 3.06 7.5 1.51 10.55z" opacity=".05"/><path d="m45.34 49.33c.62-.06 1.25-.26 1.87-.14.52.1.99.43 1.49.63s1.09.24 1.51-.17c.41-.41.44-1.4-.04-1.66.21-.58.86-.52 1.36-.42.34.06.84.04 1.08-.32.16-.24.12-.63-.02-.87-.24-.4-.47-.11-.78-.22-.12-.04-.23-.15-.26-.31-.03-.19.1-.38.24-.45.44-.2 1.09-.12 1.56-.14.64-.02 1.28-.04 1.92-.09.77-.07 1.65-.31 2.11-1.19.4-.76.24-1.99-.43-2.31-.45-.22-.95.02-1.43.13s-1.08.01-1.26-.57c-.16-.51.17-1.1.57-1.3s.86-.12 1.29-.06c1.02.15 2.09.21 3.05-.25s1.8-1.56 1.84-2.87c.05-1.65-1.19-3.01-2.47-3.27s-2.58.28-3.8.84-2.49 1.17-3.79 1.02c-1.3-.14-2.63-1.28-2.77-2.93-.13-1.51.73-3.1.21-4.47-.29-.76-.95-1.2-1.61-1.31s-1.32.06-1.98.23c-1.19.31-2.5.72-3.19 1.99-.38.7-.5 1.56-.73 2.35-.22.8-.6 1.61-1.24 1.88-.7.3-1.47-.18-2.02-.81s-.98-1.43-1.59-1.97c-1.27-1.14-2.97-.93-4.5-.67-.52.09-1.06.18-1.51.52s-.8 1-.7 1.66c.04.3.17.59.13.88-.06.42-.43.62-.75.75-1.47.58-3 .93-4.54 1.03-1.43.09-3.06.07-4.03 1.42-1.13 1.57-.64 4.26.59 5.71 1.22 1.45 2.94 1.99 4.56 2.49 1.63.49 3.34 1.05 4.55 2.53.58.7 1.03 1.6 1.72 2.1.8.57 1.78.51 2.69.4 2.16-.26 4.3-.7 6.42-1.24.93-.24 1.2.14 2.01.69.83.58 1.76.85 2.67.76z" opacity=".05"/><g fill="#fff"><path d="m58.24 29.76c-.72 2.63-2.66 4.92-5.16 6.01-.92.41-1.95.68-2.64 1.39-.89.92-1.03 2.31-.97 3.59.06 1.27.26 2.58-.12 3.8-.65 1.99-2.72 3.15-4.71 3.79-5.07 1.6-10.84.83-15.3-2.05-2.22-1.43-4.21-3.38-6.76-4.05-1.8-.45-3.7-.23-5.52.02-.24.03-.48.08-.72.11-.08-.47-.12-.95-.12-1.43-.06-3.73 1.83-7.29 4.45-9.72 2.64-2.41 5.95-3.82 9.3-4.74 7.29-1.98 15.06-1.8 22.26.53 2.07.67 4.14 1.54 6.01 2.75z" opacity=".1"/><path d="m50.45 26.49c-.17 1.27-.66 2.54-1.3 3.65-1.13 2.05-2.66 3.89-4.56 5.24-2.38 1.68-5.22 2.54-8.01 3.37-1.66.48-3.34.98-5.06 1.13-1.74.15-3.53-.08-5.04-.95-1.81-1.06-3-2.94-4.72-4.15-.91-.65-1.95-1.09-3.03-1.36.56-.8 1.22-1.54 1.93-2.2 2.64-2.41 5.95-3.82 9.3-4.74 6.7-1.82 13.79-1.82 20.49.01z" opacity=".1"/></g></g><g><path d="m11.89 34.87c-.05-3.81 1.87-7.44 4.55-9.91s6.06-3.9 9.47-4.83c7.42-2.02 15.35-1.83 22.68.54 3.81 1.23 7.6 3.15 10.15 6.46s3.58 8.25 1.67 12.02c-1.58 3.1-4.73 4.84-7.81 6.04-6.01 2.34-12.47 3.28-18.84 2.84-5.83-.4-12.26-1.77-17.32-5.05-2.71-1.75-4.5-4.62-4.55-8.11z" fill="#ffeb97"/><path d="m59.66 38.64c-1.16 2.28-3.44 4.01-7.2 5.46-4.97 1.93-10.23 2.91-15.65 2.91-1 0-2.02-.03-3.02-.11-4.8-.32-11.65-1.43-17.06-4.94-.95-.6-1.74-1.36-2.37-2.22.17.15.35.27.53.39 5.4 3.49 12.26 4.6 17.06 4.92 1 .08 2.02.11 3.02.11 5.42 0 10.69-.98 15.67-2.91 3.74-1.45 6.04-3.18 7.18-5.45.95-1.9 1.12-4.29.42-6.73l-.05-.21v-.21c.02-2.35-.88-4.91-2.34-6.84-.08-.11-.17-.21-.27-.32.8.65 1.49 1.37 2.1 2.16 1.48 1.93 2.35 4.48 2.34 6.84v.21l.06.21c.68 2.46.53 4.85-.42 6.73z" opacity=".05"/><path d="m12.35 31.52c-.05-3.74 1.83-7.3 4.46-9.72s5.94-3.83 9.3-4.74c7.28-1.98 15.06-1.8 22.26.53 3.74 1.21 7.45 3.09 9.96 6.34s3.51 8.09 1.63 11.8c-1.55 3.05-4.64 4.75-7.67 5.93-5.9 2.3-12.23 3.22-18.48 2.79-5.72-.39-12.03-1.74-17-4.96-2.65-1.72-4.41-4.54-4.46-7.97z" fill="#ffc145"/><path d="m56.12 21.59c-1.69-1.15-3.73-2.11-6.17-2.9-3.91-1.26-8.01-1.9-12.15-1.9-3.5 0-6.99.46-10.35 1.38-3.86 1.05-6.8 2.54-8.97 4.54-2.55 2.34-4.04 5.57-4 8.61.03 2.7 1.34 5.01 3.67 6.53 1 .65 2.06 1.21 3.16 1.72-1.6-.62-3.18-1.39-4.65-2.34-2.36-1.54-3.68-3.88-3.72-6.62-.05-3.08 1.46-6.32 4.04-8.69 2.19-2.03 5.16-3.52 9.07-4.58 3.39-.93 6.91-1.39 10.45-1.39 4.19 0 8.33.65 12.3 1.93 3.02.97 5.44 2.2 7.32 3.71z" fill="#fff" opacity=".1"/><path d="m59.37 35.22c-1.12 2.22-3.38 3.94-7.09 5.39-4.92 1.9-10.13 2.88-15.49 2.88-.98 0-1.99-.05-2.97-.11-4.75-.33-11.53-1.43-16.84-4.89-.91-.59-1.68-1.3-2.26-2.11.17.15.35.27.53.39 5.33 3.44 12.1 4.56 16.86 4.89.98.06 1.98.09 2.97.09 5.36 0 10.57-.97 15.47-2.88 3.73-1.45 5.98-3.15 7.11-5.39 1.54-3.03.91-7.37-1.54-10.55-.11-.14-.21-.26-.33-.39.78.65 1.48 1.36 2.07 2.13 2.43 3.17 3.07 7.5 1.51 10.55z" opacity=".05"/><path d="m41.49 39.92c.62-.06 1.25-.26 1.87-.14.52.1.99.43 1.49.63s1.09.24 1.51-.17c.41-.41.44-1.4-.04-1.66.21-.58.86-.52 1.36-.42.34.06.84.04 1.08-.32.16-.24.12-.63-.02-.87-.24-.4-.47-.11-.78-.22-.12-.04-.23-.15-.26-.31-.03-.19.1-.38.24-.45.44-.2 1.09-.12 1.56-.14.64-.02 1.28-.04 1.92-.09.77-.07 1.65-.31 2.11-1.19.4-.76.24-1.99-.43-2.31-.45-.22-.95.02-1.43.13s-1.08.01-1.26-.57c-.16-.51.17-1.1.57-1.3s.86-.12 1.29-.06c1.02.15 2.09.21 3.05-.25s1.8-1.56 1.84-2.87c.05-1.65-1.19-3.01-2.47-3.27s-2.58.28-3.8.84-2.49 1.17-3.79 1.02c-1.3-.14-2.63-1.28-2.77-2.93-.13-1.51.73-3.1.21-4.47-.29-.76-.95-1.2-1.61-1.31s-1.32.06-1.98.23c-1.19.31-2.5.72-3.19 1.99-.38.7-.5 1.56-.73 2.35-.22.8-.6 1.61-1.24 1.88-.7.3-1.47-.18-2.02-.81s-.98-1.43-1.59-1.97c-1.27-1.14-2.97-.93-4.5-.67-.52.09-1.06.18-1.51.52s-.8 1-.7 1.66c.04.3.17.59.13.88-.06.42-.43.62-.75.75-1.47.58-3 .93-4.54 1.03-1.43.09-3.06.07-4.03 1.42-1.13 1.57-.64 4.26.59 5.71 1.22 1.45 2.94 1.99 4.56 2.49 1.63.49 3.34 1.05 4.55 2.53.58.7 1.03 1.6 1.72 2.1.8.57 1.78.51 2.69.4 2.16-.26 4.3-.7 6.42-1.24.93-.24 1.2.14 2.01.69.83.58 1.76.84 2.67.76z" opacity=".05"/><g fill="#fff"><path d="m54.39 20.35c-.72 2.63-2.66 4.92-5.16 6.01-.92.41-1.95.68-2.64 1.39-.89.92-1.03 2.31-.97 3.59.06 1.27.26 2.58-.12 3.8-.65 1.99-2.72 3.15-4.71 3.79-5.07 1.6-10.84.83-15.3-2.05-2.22-1.43-4.21-3.38-6.76-4.05-1.8-.45-3.7-.23-5.52.02-.24.03-.48.08-.72.11-.08-.47-.12-.95-.12-1.43-.06-3.73 1.83-7.29 4.45-9.72 2.64-2.41 5.95-3.82 9.3-4.74 7.29-1.98 15.06-1.8 22.26.53 2.07.67 4.14 1.54 6.01 2.75z" opacity=".1"/><path d="m46.6 17.07c-.17 1.27-.66 2.54-1.3 3.65-1.13 2.05-2.66 3.89-4.56 5.24-2.38 1.68-5.22 2.54-8.01 3.37-1.66.48-3.34.98-5.06 1.13-1.74.15-3.53-.08-5.04-.95-1.81-1.06-3-2.94-4.72-4.15-.91-.65-1.95-1.09-3.03-1.36.56-.8 1.22-1.54 1.93-2.2 2.64-2.41 5.95-3.82 9.3-4.74 6.7-1.81 13.79-1.81 20.49.01z" opacity=".1"/></g></g><g><path d="m18.73 27.29c-.05-3.81 1.87-7.44 4.55-9.91s6.06-3.9 9.47-4.83c7.42-2.02 15.35-1.83 22.68.54 3.81 1.23 7.6 3.15 10.15 6.46s3.58 8.25 1.67 12.02c-1.58 3.1-4.73 4.84-7.81 6.04-6.01 2.34-12.47 3.28-18.84 2.84-5.83-.4-12.26-1.77-17.32-5.05-2.71-1.75-4.51-4.62-4.55-8.11z" fill="#ffeb97"/><path d="m66.5 31.06c-1.16 2.28-3.44 4.01-7.2 5.46-4.97 1.93-10.23 2.91-15.65 2.91-1 0-2.02-.03-3.02-.11-4.8-.32-11.65-1.43-17.06-4.94-.95-.6-1.74-1.36-2.37-2.22.17.15.35.27.53.39 5.4 3.49 12.26 4.6 17.06 4.92 1 .08 2.02.11 3.02.11 5.42 0 10.69-.98 15.67-2.91 3.74-1.45 6.04-3.18 7.18-5.45.95-1.9 1.12-4.29.42-6.73l-.05-.21v-.21c.02-2.35-.88-4.91-2.34-6.84-.08-.11-.17-.21-.27-.32.8.65 1.49 1.37 2.1 2.16 1.48 1.93 2.35 4.48 2.34 6.84v.21l.06.21c.68 2.46.53 4.84-.42 6.73z" opacity=".05"/><path d="m19.19 23.94c-.05-3.74 1.83-7.3 4.46-9.72s5.94-3.83 9.3-4.74c7.28-1.98 15.06-1.8 22.26.53 3.74 1.21 7.45 3.09 9.96 6.34 2.5 3.25 3.51 8.09 1.63 11.8-1.55 3.05-4.64 4.75-7.67 5.93-5.9 2.3-12.23 3.22-18.48 2.79-5.72-.39-12.03-1.74-17-4.96-2.65-1.73-4.41-4.55-4.46-7.97z" fill="#ffc145"/><path d="m62.96 14c-1.69-1.15-3.73-2.11-6.17-2.9-3.91-1.26-8.01-1.9-12.15-1.9-3.5 0-6.99.46-10.35 1.38-3.86 1.05-6.8 2.54-8.97 4.54-2.55 2.34-4.04 5.57-4 8.61.03 2.7 1.34 5.01 3.67 6.53 1 .65 2.06 1.21 3.16 1.72-1.6-.62-3.18-1.39-4.65-2.34-2.36-1.54-3.68-3.88-3.72-6.62-.05-3.08 1.46-6.32 4.04-8.69 2.19-2.03 5.16-3.52 9.07-4.58 3.39-.93 6.91-1.39 10.45-1.39 4.19 0 8.33.65 12.3 1.93 3.02.98 5.44 2.21 7.32 3.71z" fill="#fff" opacity=".1"/><path d="m66.21 27.63c-1.12 2.22-3.38 3.94-7.09 5.39-4.92 1.9-10.13 2.88-15.49 2.88-.98 0-1.99-.05-2.97-.11-4.75-.33-11.53-1.43-16.84-4.89-.91-.59-1.68-1.3-2.26-2.11.17.15.35.27.53.39 5.33 3.44 12.1 4.56 16.86 4.89.98.06 1.98.09 2.97.09 5.36 0 10.57-.97 15.47-2.88 3.73-1.45 5.98-3.15 7.11-5.39 1.54-3.03.91-7.37-1.54-10.55-.11-.14-.21-.26-.33-.39.78.65 1.48 1.36 2.07 2.13 2.43 3.17 3.07 7.5 1.51 10.55z" opacity=".05"/><path d="m48.33 32.34c.62-.06 1.25-.26 1.87-.14.52.1.99.43 1.49.63s1.09.24 1.51-.17c.41-.41.44-1.4-.04-1.66.21-.58.86-.52 1.36-.42.34.06.84.04 1.08-.32.16-.24.12-.63-.02-.87-.24-.4-.47-.11-.78-.22-.12-.04-.23-.15-.26-.31-.03-.19.1-.38.24-.45.44-.2 1.09-.12 1.56-.14.64-.02 1.28-.04 1.92-.09.77-.07 1.65-.31 2.11-1.19.4-.76.24-1.99-.43-2.31-.45-.22-.95.02-1.43.13s-1.08.01-1.26-.57c-.16-.51.17-1.1.57-1.3s.86-.12 1.29-.06c1.02.15 2.09.21 3.05-.25s1.8-1.56 1.84-2.87c.05-1.65-1.19-3.01-2.47-3.27s-2.58.28-3.8.84-2.49 1.17-3.79 1.02c-1.3-.14-2.63-1.28-2.77-2.93-.13-1.51.73-3.1.21-4.47-.29-.76-.95-1.2-1.61-1.31s-1.32.06-1.98.23c-1.19.31-2.5.72-3.19 1.99-.38.7-.5 1.56-.73 2.35-.22.8-.6 1.61-1.24 1.88-.7.3-1.47-.18-2.02-.81s-.98-1.43-1.59-1.97c-1.27-1.14-2.97-.93-4.5-.67-.52.09-1.06.18-1.51.52s-.8 1-.7 1.66c.04.3.17.59.13.88-.06.42-.43.62-.75.75-1.47.58-3 .93-4.54 1.03-1.43.09-3.06.07-4.03 1.42-1.13 1.57-.64 4.26.59 5.71 1.22 1.45 2.94 1.99 4.56 2.49 1.63.49 3.34 1.05 4.55 2.53.58.7 1.03 1.6 1.72 2.1.8.57 1.78.51 2.69.4 2.16-.26 4.3-.7 6.42-1.24.93-.24 1.2.14 2.01.69.83.57 1.76.84 2.67.76z" opacity=".05"/><g fill="#fff"><path d="m61.23 12.77c-.72 2.63-2.66 4.92-5.16 6.01-.92.41-1.95.68-2.64 1.39-.89.92-1.03 2.31-.97 3.59.06 1.27.26 2.58-.12 3.8-.65 1.99-2.72 3.15-4.71 3.79-5.07 1.6-10.84.83-15.3-2.05-2.22-1.43-4.21-3.38-6.76-4.05-1.8-.45-3.7-.23-5.52.02-.24.03-.48.08-.72.11-.08-.47-.12-.95-.12-1.43-.06-3.73 1.83-7.29 4.45-9.72 2.64-2.41 5.95-3.82 9.3-4.74 7.28-1.99 15.05-1.81 22.25.51 2.08.68 4.15 1.56 6.02 2.77z" opacity=".1"/><path d="m53.44 9.49c-.17 1.27-.66 2.54-1.3 3.65-1.13 2.05-2.66 3.89-4.56 5.24-2.38 1.68-5.22 2.54-8.01 3.37-1.66.48-3.34.98-5.06 1.13-1.74.15-3.53-.08-5.04-.95-1.81-1.06-3-2.94-4.72-4.15-.91-.65-1.95-1.09-3.03-1.36.56-.8 1.22-1.54 1.93-2.2 2.64-2.41 5.95-3.82 9.3-4.74 6.7-1.82 13.79-1.82 20.49.01z" opacity=".1"/></g></g><g><path d="m22.17 46.11c.58.34 1.04.85 1.63 1.17.86.46 1.88.46 2.85.56 1.24.13 2.45.46 3.59.97.57.25 1.18.63 1.3 1.25.09.46-.15.93-.47 1.28-.78.83-2.12 1.07-3.14.56-.62-.31-1.1-.85-1.7-1.2s-1.45-.46-1.92.05c-.43.46-.34 1.17-.36 1.8-.02.47-.11.94-.28 1.38-.11.28-.31.59-.61.58-.4-.02-.52-.57-.47-.97.07-.61.24-1.2.29-1.81s-.02-1.26-.38-1.76c-.38-.53-1.02-.8-1.63-1.02-.62-.22-1.26-.42-1.74-.86-.61-.57-.81-1.69.02-2.11.91-.48 2.14-.39 3.02.13z" fill="#f93"/><path d="m22.87 51.23c-.01-.45-.12-.9-.38-1.27-.38-.53-1.02-.8-1.63-1.02-.62-.22-1.27-.42-1.74-.86-.39-.35-.6-.92-.52-1.4.04.37.24.74.52 1 .47.44 1.12.64 1.74.86.61.22 1.25.49 1.63 1.02.34.48.42 1.09.38 1.67z" opacity=".05"/><path d="m31.07 51.33c-.78.83-2.12 1.07-3.14.57-.62-.31-1.1-.85-1.7-1.2s-1.45-.46-1.92.04c-.43.46-.34 1.18-.36 1.8-.02.47-.11.94-.28 1.38-.11.28-.32.59-.62.58-.4-.02-.51-.57-.47-.97 0-.02 0-.03.01-.05.03.31.17.6.46.62.3.01.51-.3.62-.58.17-.44.26-.91.28-1.38.02-.63-.07-1.34.36-1.8.47-.51 1.32-.4 1.92-.04.6.35 1.08.89 1.7 1.19 1.02.51 2.36.27 3.14-.56.23-.24.42-.55.46-.89.01.01.01.01.01.02.08.46-.15.93-.47 1.27z" opacity=".05"/><path d="m21.25 46.15c.61.13 1.13.5 1.62.89s.96.8 1.53 1.06c.82.37 1.75.38 2.65.42s1.85.14 2.59.66c.24.17.46.4.5.68.05.4-.29.77-.67.9-.63.21-1.32-.08-1.87-.43-.56-.36-1.09-.8-1.74-.95-.62-.15-1.31.02-1.81.42-.16.13-.33.3-.54.28-.25-.03-.37-.31-.45-.55-.18-.59-.39-1.24-.94-1.53-.33-.18-.72-.18-1.1-.19s-.77-.03-1.08-.24c-.35-.23-.53-.77-.19-1.08.39-.37 1-.45 1.5-.34z" fill="#fff" opacity=".15"/></g><g><path d="m23.59 38.09c.69.41 1.24 1.02 1.95 1.4 1.03.55 2.25.55 3.42.68 1.48.16 2.94.55 4.31 1.16.69.31 1.42.76 1.56 1.5.1.56-.18 1.12-.57 1.53-.93 1-2.54 1.28-3.76.68-.75-.37-1.32-1.02-2.04-1.44s-1.74-.55-2.31.06c-.51.55-.4 1.4-.43 2.15-.02.57-.13 1.13-.34 1.65-.13.34-.37.71-.74.69-.49-.02-.62-.68-.56-1.16.09-.73.28-1.44.35-2.17.06-.73-.03-1.51-.46-2.11-.46-.63-1.22-.96-1.96-1.22s-1.51-.5-2.09-1.03c-.74-.68-.97-2.02.03-2.53 1.1-.57 2.58-.46 3.64.16z" fill="#f93"/><path d="m24.42 44.23c-.01-.54-.14-1.08-.46-1.52-.46-.64-1.22-.96-1.95-1.22-.74-.26-1.52-.5-2.09-1.03-.47-.42-.72-1.1-.62-1.68.05.44.29.89.62 1.2.56.53 1.34.77 2.09 1.03.73.26 1.5.59 1.95 1.22.41.57.51 1.31.46 2z" opacity=".05"/><path d="m34.26 44.35c-.94 1-2.54 1.28-3.77.68-.74-.37-1.32-1.02-2.04-1.44s-1.74-.55-2.3.05c-.52.55-.41 1.42-.43 2.16-.02.56-.13 1.13-.34 1.66-.13.34-.38.71-.74.7-.48-.02-.61-.68-.56-1.16 0-.02 0-.04.01-.06.04.37.2.72.55.74.36.01.61-.36.74-.7.2-.53.31-1.09.34-1.65.02-.76-.08-1.61.43-2.16.56-.61 1.58-.48 2.3-.05.72.42 1.3 1.07 2.04 1.43 1.22.61 2.83.32 3.77-.67.28-.29.5-.66.55-1.07.01.01.01.01.01.02.1.55-.18 1.11-.56 1.52z" opacity=".05"/><path d="m22.49 38.14c.73.16 1.36.6 1.94 1.06s1.15.96 1.83 1.27c.98.45 2.1.45 3.18.5s2.22.16 3.1.79c.28.2.55.48.6.82.06.48-.34.93-.81 1.08-.76.25-1.58-.09-2.25-.52-.66-.43-1.3-.96-2.08-1.14-.75-.17-1.57.02-2.17.51-.19.16-.4.36-.64.33-.3-.03-.45-.37-.54-.66-.21-.71-.47-1.49-1.13-1.84-.4-.21-.87-.21-1.32-.22s-.93-.04-1.3-.29c-.42-.28-.63-.93-.23-1.3.48-.43 1.22-.52 1.82-.39z" fill="#fff" opacity=".15"/></g><g><g><path d="m31.02 26.83c2.64-.48 5.46-.38 7.87.79s4.34 3.53 4.52 6.21c.08 1.13-.14 2.3.28 3.35.54 1.35 2.04 2.12 3.49 2.22 2.51.16 5.03-1.56 5.78-3.96.42-1.33.39-2.9 1.35-3.92 1.33-1.41 3.68-.89 5.39 0 1.71.9 3.49 2.11 5.39 1.8 1.92-.32 3.32-2.29 3.28-4.24-.03-1.95-1.29-3.74-2.95-4.76-1.66-1.01-3.68-1.32-5.62-1.23-1.07.05-2.21.2-3.17-.27-1.04-.51-1.65-1.68-1.71-2.84s.35-2.29.91-3.3c.77-1.39 1.89-2.9 1.39-4.4-.45-1.33-1.95-1.93-3.3-2.32-9.75-2.8-20.56-2.52-29.7 1.87-.99.47-1.99 1.03-2.6 1.94s-.68 2.27.12 3.02c.39.36.92.53 1.37.8.46.27.88.73.83 1.26-.08.69-.88 1.01-1.56 1.18-2.28.56-4.82 1.12-6.14 3.06-1.17 1.72-.9 4.26.61 5.7 1.65 1.57 4.43 1.4 6.44.68 2.57-.95 4.99-2.14 7.73-2.64z" fill="#f93"/><path d="m43.41 31.93c.04.67-.02 1.35.01 2.03-.01-.05-.01-.09-.01-.14-.18-2.67-2.11-5.04-4.52-6.2-2.41-1.17-5.23-1.27-7.87-.79-2.74.5-5.16 1.68-7.75 2.61-2.01.72-4.79.89-6.44-.68-1.11-1.05-1.55-2.72-1.24-4.21.17.88.59 1.7 1.24 2.31 1.65 1.57 4.43 1.41 6.44.69 2.59-.93 5.01-2.12 7.75-2.62 2.64-.48 5.46-.38 7.87.79s4.34 3.53 4.52 6.21z" opacity=".05"/><path d="m68.37 29.07c.03 1.94-1.36 3.92-3.29 4.24-1.9.31-3.68-.9-5.39-1.8-1.71-.89-4.06-1.4-5.39 0-.96 1.02-.93 2.58-1.35 3.92-.76 2.4-3.27 4.12-5.78 3.96-1.45-.09-2.95-.87-3.49-2.22-.4-1-.22-2.12-.26-3.21.02.45.09.89.26 1.32.54 1.35 2.04 2.12 3.49 2.21 2.51.17 5.02-1.56 5.78-3.96.42-1.33.39-2.9 1.35-3.91 1.33-1.41 3.68-.9 5.39 0 1.71.89 3.49 2.11 5.39 1.79 1.6-.27 2.83-1.67 3.18-3.25.07.3.1.6.11.91z" opacity=".05"/></g><g fill="#fff"><path d="m24.31 19.59c.43-.47.7-1.13.52-1.74-.28-1.01-1.55-1.4-2.09-2.29-.47-.77-.27-1.89.45-2.44.41-.31.96-.45 1.45-.29.34.11.62.35.86.62 1.08 1.19 1.42 3 .85 4.49-.51 1.32-1.97 2.73-3.47 2.75.01-.2.49-.37.66-.48.29-.18.55-.38.77-.62z" opacity=".1"/><path d="m16.86 24.01c-.15.47-.2.99-.06 1.47s.47.91.94 1.09c.46.18 1.04.08 1.36-.3.42-.5.31-1.24.16-1.87s-.28-1.37.12-1.88c.2-.26.84-.69.39-.93-.26-.14-1.06.31-1.28.44-.76.43-1.37 1.14-1.63 1.98z" opacity=".1"/><path d="m36.85 23.13c1.35.1 2.73.35 3.88 1.05 1.36.82 2.31 2.22 2.89 3.7s.83 3.07 1.07 4.65c.44-1.82.79-3.7.5-5.55-.28-1.85-1.29-3.68-2.95-4.53-1.27-.65-2.75-.67-4.17-.68-1.53-.01-3.07-.02-4.6-.03-1.15-.01-2.33-.01-3.41.38-.53.19-1.99.93-1.84 1.67.15.73 1.85-.09 2.37-.21 2.05-.46 4.17-.62 6.26-.45z" opacity=".1"/><path d="m56.91 27.34c-.76-.66-1.88-.81-2.83-.49-.87.29-1.58.92-2.08 1.67-.2.3-1.01 1.99.08 1.63.23-.08.61-.89.8-1.1.34-.38.74-.7 1.17-.96.86-.51 1.86-.78 2.86-.75z" opacity=".1"/><path d="m66.21 25.62c.51.4 1.01.88 1.16 1.51s-.17 1.41-.81 1.54c-.46.1-.93-.17-1.24-.53s-.51-.79-.76-1.19c-.52-.8-1.27-1.4-2.08-1.89-.33-.2-1.91-.71-1.25-1.29.9-.8 4.26 1.29 4.98 1.85z" opacity=".1"/><path d="m53.57 10.46c.5.13 1.02.28 1.43.61.41.32.69.87.55 1.37.05-.18-5.02-1.39-5.49-1.48-1.91-.38-3.85-.64-5.8-.77-3.87-.26-7.78-.02-11.59.73-.94.18-1.87.4-2.8.64-.89.24-1.89.74-2.8.84-.62.07-.57-.54-.14-.9.6-.49 1.82-.7 2.55-.93 3.64-1.15 7.46-1.71 11.28-1.76 3.84-.05 7.69.41 11.43 1.3.46.11.92.23 1.38.35z" opacity=".1"/><path d="m43.99 20.09c-1.29-.8-2.83-1.13-4.34-1.21-1.52-.09-3.04.05-4.56.09-.73.02-1.47.02-2.16-.19-.7-.2-1.36-.63-1.69-1.28-.51-.99-.12-2.26.65-3.05.77-.8 1.85-1.22 2.92-1.54 5.09-1.57 10.67-1.53 15.74.12 1.2.39 2.47.97 2.99 2.12.5 1.12.12 2.41-.15 3.6-.28 1.19-.38 2.61.49 3.48.56.56 1.5.9 1.54 1.69.03.61-.56 1.07-1.15 1.24-.87.26-1.79.15-2.7.16-.91.02-1.89.22-2.46.93-.89 1.12-.26 2.8-.67 4.16-.27.89-1.01 1.62-1.91 1.87-.23.07-.5.09-.71-.04-.32-.21-.31-.67-.26-1.05.31-1.98 1.54-3.86 1.43-5.87-.12-2.08-1.22-4.12-3-5.23z" opacity=".1"/></g></g><g><path d="m22.66 28.08c.78.46 1.4 1.15 2.19 1.57 1.16.62 2.53.62 3.84.76 1.67.18 3.31.62 4.84 1.31.77.34 1.6.85 1.75 1.68.11.62-.2 1.26-.64 1.72-1.05 1.12-2.86 1.44-4.23.76-.84-.42-1.48-1.14-2.29-1.62s-1.96-.62-2.6.06c-.57.62-.46 1.58-.49 2.42-.02.64-.15 1.27-.38 1.86-.15.38-.42.8-.83.78-.55-.03-.7-.77-.63-1.31.1-.82.32-1.62.39-2.44s-.03-1.7-.51-2.37c-.51-.71-1.37-1.08-2.2-1.38-.83-.29-1.7-.56-2.35-1.16-.83-.77-1.09-2.27.03-2.84 1.27-.61 2.93-.5 4.11.2z" fill="#f93"/><path d="m23.6 34.99c-.01-.61-.16-1.21-.51-1.71-.51-.71-1.38-1.08-2.2-1.38-.84-.3-1.71-.57-2.35-1.16-.53-.47-.81-1.24-.7-1.89.05.5.32 1 .7 1.35.63.59 1.51.86 2.35 1.16.82.3 1.69.66 2.2 1.38.46.65.57 1.47.51 2.25z" opacity=".05"/><path d="m34.66 35.13c-1.05 1.12-2.86 1.44-4.23.77-.84-.42-1.48-1.15-2.29-1.62s-1.96-.62-2.59.05c-.58.62-.46 1.59-.49 2.43-.03.63-.15 1.27-.38 1.86-.15.38-.43.8-.84.78-.54-.03-.69-.77-.63-1.31 0-.03 0-.04.01-.07.04.42.23.81.62.84.4.01.69-.4.84-.78.23-.59.35-1.23.38-1.86.03-.85-.09-1.81.49-2.43.63-.69 1.78-.54 2.59-.05.81.47 1.46 1.2 2.29 1.6 1.38.69 3.18.36 4.23-.76.31-.32.57-.74.62-1.2.01.01.01.01.01.03.11.62-.2 1.26-.63 1.72z" opacity=".05"/><path d="m21.43 28.14c.82.18 1.53.68 2.19 1.2s1.3 1.08 2.06 1.43c1.11.5 2.36.51 3.58.56s2.49.18 3.49.88c.32.22.62.53.67.92.07.54-.39 1.04-.91 1.21-.85.28-1.77-.1-2.53-.59-.76-.48-1.47-1.08-2.34-1.28-.84-.2-1.77.02-2.44.57-.22.18-.45.4-.72.37-.34-.04-.5-.42-.6-.75-.24-.79-.53-1.68-1.27-2.07-.45-.24-.98-.24-1.48-.25-.51-.01-1.04-.04-1.46-.32-.47-.32-.71-1.04-.26-1.46.51-.46 1.34-.57 2.02-.42z" fill="#fff" opacity=".15"/></g></g><g><g><g><path d="m49.89 10.01c.52.08 1 .31 1.49.48.5.17 1.05.27 1.54.08.52-.2.87-.68 1.32-1 .49-.36 1.08-.52 1.66-.69.82-.23 1.64-.46 2.46-.69-1.59-1.22-3.64-1.95-5.62-1.64-1.2.18-2.34.78-3.17 1.67-.33.35-.92 1.03-.95 1.54-.04.64.85.19 1.27.25z" fill="#9c3"/></g><g><path d="m49.89 10.01c.53.09 1 .32 1.5.48.49.17 1.04.28 1.53.1.25-.1.47-.27.66-.45-.41-.16-.83-.27-1.26-.36-.8-.14-1.62-.18-2.43-.19 1.29-.58 2.75-.8 4.16-.63-1.15-.51-2.51-.56-3.69-.12.38-.51.94-.86 1.5-1.15s1.15-.54 1.66-.92l.31-.25c-.35-.02-.72-.01-1.08.05-1.21.18-2.35.79-3.17 1.68-.33.35-.93 1.03-.96 1.54-.05.61.86.16 1.27.22z" fill="#92bc2a"/></g><g><path d="m49.16 9.63c1.19-.53 1.78-1.88 2.06-3.14.34-1.5.41-3.07.21-4.6-1.41.67-2.53 1.84-3.06 3.31-.52 1.46.12 3.01.79 4.43z" fill="#9c3"/></g><g><path d="m49.15 9.62c-.61-1.35-1.24-2.84-.81-4.25.52.88.85 1.87 1 2.83.24-1.11.24-2.27.04-3.39.62.92.85 2.13.64 3.22.32-.29.67-.59 1.02-.89-.32 1.05-.91 2.04-1.89 2.48z" fill="#92bc2a"/></g></g><path d="m55.43 13.64c.45 2.01-.17 4.22-1.59 5.7-1.03 1.07-2.4 1.74-3.73 2.39-1.7.82-3.39 1.64-5.09 2.46-.99.48-1.98.96-2.99 1.39-.85.36-1.77.7-2.69.59-1.42-.17-2.55-1.4-2.99-2.76-.44-1.37-.32-2.84-.11-4.26.44-2.95 1.26-5.85 2.43-8.6.52-1.22 1.13-2.44 2.13-3.31 1.51-1.33 3.74-1.64 5.68-1.11 1.71.46 3 1.49 4.3 2.63.51.45 1.1.51 1.68.84.71.4 1.34.98 1.83 1.63.55.7.95 1.53 1.14 2.41z" fill="#f33"/><path d="m36.99 23.21c.31 1.05 1.2 2.17 2.42 2.29.24.03.5.01.79-.03.52-.09 1.05-.28 1.55-.5 1-.4 1.92-.86 2.88-1.32l5.18-2.51c1.26-.61 2.59-1.24 3.56-2.24 1.22-1.27 1.79-3.24 1.42-4.98.05 1.46-.46 2.98-1.49 4.02-.91.95-2.17 1.57-3.4 2.18l-4.97 2.38c-.92.46-1.82.91-2.75 1.3-.5.19-1 .4-1.52.49-.26.04-.52.06-.76.03-1.16-.14-2.01-1.23-2.35-2.24-.37-1.21-.26-2.53-.08-3.79.42-2.81 1.2-5.51 2.29-8.13.31-.72.63-1.41 1.09-2.05-.71.75-1.17 1.73-1.58 2.7-1.18 2.7-1.96 5.54-2.41 8.42-.16 1.33-.29 2.72.13 3.98z" opacity=".05"/><g fill="#ffcf47"><path d="m41.72 19.51c-.04-.28.1-.58.35-.73.06-.03.13-.06.19-.03s.09.1.11.16c.09.27.18.69-.1.9-.24.18-.52-.06-.55-.3z"/><path d="m39.1 13.64c-.04-.28.1-.58.35-.73.06-.03.13-.06.19-.03s.09.1.11.16c.09.27.18.69-.1.9-.24.18-.51-.06-.55-.3z"/><path d="m41.81 9.88c-.04-.28.1-.58.35-.73.06-.03.13-.06.19-.03s.09.1.11.16c.09.27.18.69-.1.9-.24.19-.52-.05-.55-.3z"/><path d="m38 19.11c-.01-.09.05-.17.12-.22s.16-.07.25-.08c.2-.04.56-.15.75-.01.13.1.12.26.01.36-.21.17-1.09.34-1.13-.05z"/><path d="m45.36 17.58c-.01-.09.05-.17.12-.22s.16-.07.25-.08c.2-.04.56-.15.75-.01.13.1.12.26.01.36-.21.17-1.09.34-1.13-.05z"/><path d="m44.31 7.77c-.01-.09.05-.17.12-.22s.16-.07.25-.08c.2-.04.56-.15.75-.01.13.1.12.26.01.36-.21.17-1.08.34-1.13-.05z"/><path d="m43.17 14.61c-.01-.09.05-.17.12-.22s.16-.07.25-.08c.2-.04.56-.15.75-.01.13.1.12.26.01.36-.21.17-1.09.34-1.13-.05z"/><path d="m49.15 15.23c-.03-.06-.05-.15 0-.2.03-.05.1-.06.16-.07.1-.02.2-.04.3-.06.32-.06.39.44.2.62-.24.22-.56-.07-.66-.29z"/><path d="m45.94 10.93c-.03-.06-.05-.15 0-.2.03-.05.1-.06.16-.07.1-.02.2-.04.3-.06.32-.06.39.44.2.62-.24.23-.56-.06-.66-.29z"/><path d="m52.6 14.64c-.03-.06-.05-.15 0-.2.03-.05.1-.06.16-.07.1-.02.2-.04.3-.06.32-.06.39.44.2.62-.25.23-.57-.07-.66-.29z"/><path d="m49.63 9.25c-.03-.06-.05-.15 0-.2.03-.05.1-.06.16-.07.1-.02.2-.04.3-.06.32-.06.39.44.2.62-.24.22-.56-.07-.66-.29z"/><path d="m49.49 19.35c-.06.06-.09.13-.1.21-.02.12 0 .25.08.34.17.2.55.1.53-.18-.02-.22-.28-.61-.51-.37z"/><path d="m39.68 22.71c-.11.06-.17.18-.18.31-.02.16.03.32.13.44.2.23.79.28.76-.12-.02-.31-.35-.83-.71-.63z"/><path d="m45.56 21.37c.12-.11.29-.14.44-.12.43.06.56.63.1.75-.37.1-.95-.25-.54-.63z"/></g><path d="m39.86 21.26c.19.53.41 1.06.9 1.35.82.53 1.93-.06 2.42-.88.37-.56.59-1.23 1-1.77s1.14-.93 1.76-.66c.15.71 1.16.94 1.76.57.64-.37.95-1.1 1.13-1.79.18-.7.29-1.42.69-2.05.4-.6 1.16-1.03 1.84-.78-.06.41.34.81.74.84.41.03.8-.2 1.04-.54s.38-.73.44-1.14c.21-1.1.18-2.27.61-3.31-.47-.62-1.06-1.12-1.72-1.51-.59-.33-1.16-.37-1.67-.82-1.3-1.15-2.6-2.16-4.32-2.64-1.93-.54-4.14-.23-5.69 1.1-.96.86-1.56 2.03-2.06 3.22.64 1.39 1.08 2.85.87 4.36-.09 1.02-.5 1.95-.57 2.97-.06 1.2.37 2.36.83 3.48z" fill="#fff" opacity=".1"/><path d="m50.15 9.15c-1.09-1.02-2.21-2.05-3.56-2.68-1.09-.52-2.37-.75-3.52-.39s-2.14 1.4-2.19 2.61c-.06 1.49 1.19 2.75 1.32 4.24.19 2.19-2.08 4.04-1.84 6.22.09.83.73 1.71 1.57 1.64.45-.03.84-.32 1.16-.64.59-.6 1.04-1.33 1.3-2.13.25-.78.34-1.65.85-2.3.48-.61 1.25-.92 2.01-1.09s1.55-.23 2.28-.49c1.03-.37 1.99-1.19 2.45-2.19.55-1.2-1.06-2.08-1.83-2.8z" fill="#fff" opacity=".1"/><path d="m46.4 20.71c.37-.45.7-.96 1.2-1.26.72-.43 1.63-.35 2.45-.56.99-.25 1.82-.93 2.55-1.65.42-.41.84-.87.98-1.44.2-.77-.14-1.57-.54-2.26-.47-.81-1.18-1.63-2.11-1.66-.37-.01-.79.09-1.07-.14-.27-.23-.26-.64-.37-.97-.24-.73-1.2-1.11-1.87-.73-.66.36-.87 1.21-.86 1.96s.2 1.5.08 2.24c-.18 1.09-1.1 2.03-2.19 2.23-.56.1-1.16.04-1.66.32-.66.37-.87 1.2-1 1.95-.13.74-.27 1.57-.87 2.03-.56.42-1.39.42-1.86.94-.32.36-.38.94-.13 1.35.66 1.11 2.86.43 3.79.09 1.34-.49 2.57-1.33 3.48-2.44z" opacity=".05"/></g><g><path d="m26.69 18.86c-.1 1.88.8 3.79 2.32 4.91 1.09.81 2.43 1.21 3.74 1.59 1.66.48 3.32.96 4.98 1.45.97.28 1.93.56 2.91.79.83.2 1.7.36 2.52.12 1.26-.37 2.09-1.66 2.28-2.96s-.15-2.62-.56-3.87c-.85-2.6-2.04-5.09-3.52-7.4-.66-1.02-1.4-2.03-2.43-2.67-1.57-.97-3.64-.91-5.31-.13-1.47.68-2.48 1.8-3.48 3.04-.39.48-.91.63-1.39 1.01-.58.47-1.06 1.09-1.41 1.75-.37.73-.61 1.54-.65 2.37z" fill="#f33"/><path d="m43 24.97c.18.36.06.94-.33 1.12-.21.12-.45.12-.69.06-.21-.06-.42-.15-.63-.27-.48-.24-1.09-.45-1.51-.78-.3-.21-.42-.57-.78-.72-.36-.18-.91.03-.87.42s.63.66.51 1.03c-.12.33-.63.27-.78-.03-.18-.27-.06-.63.06-.97.12-.3.24-.63.18-.97-.09-.33-.54-.54-.75-.33-.27.27-.03.84-.33 1.06-.27.21-.66-.09-.69-.42-.06-.33.06-.63.06-.97 0-.72-.66-1.36-1.39-1.3.15.69.18 1.39.09 2.08 0 .18-.03.36-.15.48-.24.27-.72.09-.9-.21s-.15-.69-.09-1.03c.03-.36.09-.75-.09-1.06-.12-.27-.39-.45-.63-.6-.12-.09-.27-.18-.39-.27-.48-.33-1-.63-1.54-.84.36-.3.18-1.03-.3-1.15-.3-.06-.63.12-.84.39-.18.24-.27.57-.39.87-.24-.21-.15-.63-.03-.94.15-.33.27-.69.09-.97-.18-.27-.57-.27-.91-.18-.33.06-.63.21-.97.12-.39-.12-.6-.57-.6-1 0-.42.18-.81.3-1.21.06-.18.09-.36.09-.54.27-.42.6-.81 1-1.12.48-.39 1-.54 1.39-1.03.66-.84 1.36-1.6 2.17-2.23.36.09.72.15 1.09.24.51.09 1.06.21 1.57 0 .24-.09.48-.24.75-.33.24-.09.57-.03.72.21.15.27-.06.6-.27.84-.21.27-.45.54-.39.87.12.39.72.45 1.06.21.33-.24.51-.63.72-1 .21-.36.57-.72 1-.66.45.06.72.57.66 1.03-.09.45-.39.81-.75 1.09-.21.18-.45.36-.6.57-.18.24-.24.54-.12.78.24.39.81.33 1.21.12.36-.21.69-.54 1.12-.63.42-.09.97.21.87.63-.09.3-.42.45-.72.54-.94.27-1.87.54-2.81.81.63-.03 1.24-.03 1.87-.06.03.12.06.27.09.39.72.03 1.45.06 2.2.09.24 0 .57.06.63.3.09.3-.3.51-.63.57-.75.18-1.51.36-2.29.51.39-.12.78.06 1.15.21.15.09.3.15.45.21.57.27 1.15.54 1.72.81.24.09.51.24.54.51.06.33-.3.6-.63.6s-.66-.15-.97-.24c-.33-.06-.75-.06-.93.24.33.63 1 1.12 1.69 1.27.33.06.75.18.72.51-.06.36-.63.33-.91.57-.18.18-.21.45-.12.66.1.56.7.62.95 1.04z" fill="#ff6e6e"/><path d="m40.88 24.14c-1.36-.84-2.72-1.72-4.04-2.59-1.24-.78-2.47-1.6-3.71-2.38-.51-.36-1.06-.69-1.51-1.15-.33-.3-.94-.94-.94-1.42.03-.72 1.03.09 1.21.3.63.66 1.27 1.33 1.93 1.99.12.15.33.3.51.24.24-.06.27-.42.15-.63-.15-.21-.36-.36-.51-.57l-.03-.03c-.12-.21-.15-.51.06-.63.66.57 1.3 1.15 1.93 1.72.09.09.21.18.36.21.12.03.3 0 .36-.15-.66-.66-1.33-1.33-1.96-2.02-.18-.15-.33-.36-.3-.6 0-.06.03-.12.09-.18.06-.12.15-.21.18-.33.06-.27-.15-.48-.33-.66-.39-.39-.78-.78-1.21-1.18 2.29.94 4.16 2.84 5.04 5.13.42 1.09.69 2.32 1.6 3.08.3.27.66.45.94.75.27.29.42.77.18 1.1z" fill="#f33"/><path d="m37.8 21.01c-1.3-.91-2.52-2.2-3.83-3.08l-.03-.03c-.12-.21-.15-.51.06-.63.66.57 1.3 1.15 1.93 1.72.09.09.21.18.36.21.12.03.3 0 .36-.15-.66-.66-1.33-1.33-1.96-2.02-.18-.15-.33-.36-.3-.6 0-.06.03-.12.09-.18 1.27.72 2.35 1.84 3.05 3.14.27.47.48 1.07.27 1.62z" fill="#ea1818"/><path d="m44.83 24.69c-.12 1-.75 2.14-1.84 2.44-.21.06-.45.09-.72.09-.48 0-1-.09-1.48-.21-.97-.21-1.87-.48-2.81-.75l-5.07-1.48c-1.24-.36-2.53-.72-3.56-1.48-1.3-.97-2.11-2.65-2.05-4.28.18 1.33.87 2.62 1.96 3.41.97.72 2.2 1.09 3.41 1.45l4.86 1.39c.91.27 1.78.54 2.68.75.48.09.97.21 1.45.21.24 0 .48-.03.69-.09 1.03-.3 1.63-1.42 1.78-2.38.15-1.15-.15-2.32-.51-3.44-.81-2.47-1.93-4.8-3.32-7-.39-.6-.78-1.18-1.3-1.69.75.57 1.33 1.39 1.84 2.2 1.48 2.26 2.62 4.71 3.47 7.24.37 1.17.7 2.41.52 3.62z" opacity=".1"/><g fill="#fff"><path d="m41.93 23.36c-.09.51-.21 1.03-.6 1.36-.66.6-1.75.24-2.32-.42-.42-.45-.72-1.03-1.18-1.45-.45-.42-1.18-.66-1.69-.33-.03.66-.91 1.03-1.51.78-.63-.24-1.03-.84-1.3-1.45-.27-.6-.48-1.24-.94-1.75-.45-.48-1.21-.75-1.78-.42.12.36-.18.78-.54.87s-.75-.06-1.03-.33c-.27-.27-.45-.6-.57-.97-.36-.97-.51-2.02-1.06-2.9.33-.63.78-1.18 1.33-1.63.48-.39 1-.51 1.39-1 1-1.24 2.02-2.35 3.5-3.05 1.66-.78 3.71-.84 5.31.12 1 .63 1.72 1.6 2.35 2.59-.36 1.36-.54 2.74-.12 4.07.24.91.75 1.69.97 2.59.25 1.12.04 2.23-.21 3.32z" opacity=".2"/><path d="m30.78 13.99c.83-1.09 1.69-2.19 2.81-2.97.91-.63 2.03-1.04 3.13-.89s2.14.94 2.38 2.02c.29 1.34-.66 2.67-.55 4.03.16 2.01 2.49 3.33 2.62 5.34.05.77-.4 1.65-1.17 1.73-.41.04-.81-.16-1.15-.4-.63-.45-1.15-1.04-1.5-1.73-.35-.67-.56-1.44-1.12-1.95-.53-.48-1.27-.64-1.99-.67-.71-.04-1.43.03-2.14-.1-.99-.17-1.98-.77-2.55-1.6-.68-1 .64-2.04 1.23-2.81z" opacity=".2"/></g></g></g></svg>