<svg id="Flat" enable-background="new 0 0 495.999 463.12" height="512" viewBox="0 0 495.999 463.12" width="512" xmlns="http://www.w3.org/2000/svg"><g><path d="m327.037 50.87c.01 0 .01-.01.01-.01 1.66-2.2 3.17-4.43 4.53-6.83 5.1-9.01 5.74-20.02 2.03-28.77-3.72-8.76-11.78-15.26-24.06-15.26-42.865.886-160.567 24.563-262.28 44.03 0 0-24.9 59.68-32.78 111.09s4.83 240.05 0 263.74c-2.08 10.23-7.32 19.89-12.6 27.55-4.87 7.08.26 16.71 8.85 16.71h245.59c6.59 0 10.54-7.17 7.17-12.84-.73-1.22-1.43-2.55-2.1-3.97 48.788-130.26 85.557-261.215 65.64-395.44z" fill="#ffdbac"/><path d="m478.087 338.52c18.03 14.4 20.82 43.17 15.51 56.66-5.31 13.48-18.59 22.7-35.05 22.7s-30.9-9.46-40.89-8.12c-10 1.33-16.66 12.31-32.36 12.45-15.69.15-29.76-9.56-29.76-9.56-30.949-19.005-43.982-102.738 4.66-159.21h.01s22.48-22.07 42.04-16.56c19.57 5.51 27.81 54.38 36.07 71.59 8.27 17.2 22.34 16.13 39.77 30.05z" fill="#d6eae8"/><path d="m350.887 109.97h-.01c-9.331 12.311-19.792 20.149-31.37 8.63-9.841-21.45-6.78-44.108 7.53-67.73.01 0 .01-.01.01-.01.35.66 13.89 26.48 23.84 59.11z" fill="#c68642"/><path d="m327.037 50.87c-6.25 22.02-8.87 44.59-7.53 67.73-14.01 12.688-26.71 13.008-38.11.98h-.01c19.06-42.49 35.22-54.89 45.65-68.71z" fill="#e0ac69"/><path d="m358.257 139.86c3.37 18.42 3.2 64.43 1.94 113.58-1.81 71.55-5.9 149.77-4.66 159.21.62 4.71 2.18 9.37 4.06 13.59 2.77 6.22-2.8 12.93-9.4 11.25-5.35-1.37-11.46-2.69-17.92-3.64 0 0-53.996-87.266-47.226-183.636 6.78-96.36 65.826-140.244 65.826-140.244h.01c2.9 9.53 5.5 19.65 7.37 29.89z" fill="#e0ac69"/><path d="m319.507 118.6c11.58-1.6 22.04-4.48 31.37-8.63 0 0-31.71 44.59-38.49 140.95-6.77 96.37 19.89 182.93 19.89 182.93-6.05-.9-12.41-1.48-18.75-1.48-28.24 0-52.13 13.94-52.13 13.94-1.94-4.14-3.55-9.14-4.38-15.1-3.22-23.31-1.01-252.2 21.68-305.48.9-2.12 1.8-4.17 2.69-6.15h.01c13.82.95 26.52.63 38.11-.98z" fill="#f1c27d"/><path d="m47.267 0h262.28c-15.2 0-22.21 9.69-23.49 20.26s3.49 23.77 14.75 23.77h-253.54c-8.83 0-15.99-9.86-15.99-22.02s7.16-22.01 15.99-22.01z" fill="#e0ac69"/><path d="m212.127 363.79c10.21 0 18.48 8.27 18.48 18.48 0 5.11-2.07 9.73-5.41 13.07s-7.96 5.41-13.07 5.41h-149c-10.2 0-18.48-8.27-18.48-18.48 0-5.11 2.07-9.73 5.41-13.07 3.35-3.34 7.97-5.41 13.07-5.41z" fill="#604533"/><path d="m166.587 292.6c-28.51-6.28-54.23 2.03-77.18 24.93 7.71-31.49 1.5-57.8-18.63-78.93-9.64 20.99-9.57 42.99.78 66.05v.01c-33.19-30.12-42.42-80.2-19.48-120.9 26.63-47.25 86.52-63.96 133.77-37.33s63.96 86.52 37.33 133.77c-22.94 40.69-70.55 58.73-113.5 45.94 25.1-3.09 43.94-14.43 56.91-33.54zm15.4-50.21c-18.86-3.41-36.98-1.76-54.09 6.85-1.49-19.1-9.47-35.45-22.15-49.82-11.53 25.51-9.58 48.58 11.8 68.17v.01h.01c27.83 8.15 48.58-2.13 64.43-25.21zm-11.97-67.88s-27.38 13.46-32.05 21.76c-4.68 8.29-1.74 18.81 6.55 23.48 8.3 4.68 18.81 1.74 23.49-6.55 4.67-8.3 2.01-38.69 2.01-38.69z" fill="#e7f2f1"/><path d="m308.937 20.89c34.26 42.91-24.47 39.77-24.47 39.77h-243.67c3.83-10.31 6.47-16.63 6.47-16.63h253.54c10.14 0 14.56-10.3 8.13-23.14z" fill="#eac8a0"/><path d="m146.48 216.266c-1.927-1.087-4.364-.404-5.448 1.521l-26.97 47.839c-.009.016-.013.032-.021.048l-28.118 49.892c-1.085 1.925-.404 4.364 1.521 5.448.621.351 1.295.517 1.96.517 1.397 0 2.754-.733 3.488-2.037l28.14-49.93c.007-.013.01-.027.017-.039l26.952-47.81c1.085-1.925.404-4.365-1.521-5.449z" fill="#ffdbac"/><path d="m168.052 177.995c.62.351 1.295.517 1.96.517 1.397 0 2.754-.733 3.488-2.037l5-8.87c1.085-1.924.404-4.363-1.521-5.448-1.924-1.088-4.364-.403-5.448 1.521l-5 8.87c-1.084 1.922-.403 4.362 1.521 5.447z" fill="#ffdbac"/><path d="m105.516 203.414c.078.005.156.007.234.007 2.104 0 3.866-1.643 3.989-3.77.457-7.898 3.39-16 8.717-24.079 1.216-1.845.706-4.325-1.138-5.542-1.847-1.218-4.325-.707-5.542 1.138-6.112 9.271-9.484 18.699-10.023 28.022-.127 2.205 1.557 4.097 3.763 4.224z" fill="#ffdbac"/><path d="m75.401 208.528c-2.054-.807-4.378.202-5.187 2.259-3.688 9.381-4.829 18.94-3.393 28.413.301 1.981 2.006 3.401 3.95 3.401.199 0 .401-.016.604-.046 2.185-.332 3.687-2.371 3.355-4.555-1.224-8.063-.238-16.233 2.928-24.286.81-2.056-.201-4.378-2.257-5.186z" fill="#ffdbac"/><path d="m201.133 217.277c-1.999-.947-4.383-.098-5.33 1.896-4.153 8.745-9.563 15.446-16.08 19.919-1.821 1.25-2.284 3.74-1.034 5.562.775 1.13 2.027 1.736 3.302 1.736.779 0 1.568-.228 2.26-.702 7.693-5.28 14.012-13.047 18.779-23.081.947-1.996.099-4.382-1.897-5.33z" fill="#ffdbac"/><path d="m189.918 273.074c-1.755-1.342-4.266-1.009-5.607.746-5.267 6.883-11.747 11.959-19.261 15.088-2.04.849-3.005 3.19-2.155 5.229.64 1.537 2.127 2.464 3.694 2.464.512 0 1.033-.099 1.535-.309 8.826-3.675 16.41-9.601 22.54-17.611 1.342-1.754 1.008-4.264-.746-5.607z" fill="#ffdbac"/><g fill="#e7f2f1"><path d="m384.498 377.833-9.021 5.489c-1.888 1.148-2.486 3.609-1.338 5.496.753 1.238 2.07 1.922 3.421 1.922.708 0 1.426-.188 2.075-.584l9.021-5.489c1.888-1.148 2.486-3.609 1.338-5.496-1.148-1.886-3.608-2.487-5.496-1.338z"/><path d="m424.236 380.574-9.011 5.49c-1.887 1.149-2.484 3.61-1.335 5.497.754 1.236 2.07 1.92 3.42 1.92.709 0 1.428-.189 2.077-.585l9.011-5.49c1.887-1.149 2.484-3.61 1.335-5.497-1.15-1.886-3.613-2.485-5.497-1.335z"/><path d="m463.18 390.751-5.47-7.79c-1.269-1.808-3.764-2.245-5.572-.975s-2.244 3.764-.975 5.572l5.47 7.79c.778 1.108 2.018 1.701 3.277 1.701.794 0 1.596-.235 2.295-.727 1.808-1.268 2.245-3.762.975-5.571z"/><path d="m455.357 360.701c1.674-1.441 1.862-3.968.42-5.641l-6.53-7.58c-1.44-1.674-3.967-1.863-5.641-.42-1.674 1.441-1.862 3.968-.42 5.641l6.53 7.58c.791.919 1.908 1.39 3.032 1.39.924-.001 1.854-.319 2.609-.97z"/><path d="m416.741 363.99c.794 0 1.596-.235 2.295-.727 1.808-1.27 2.244-3.764.975-5.572l-6.95-9.899c-1.269-1.807-3.763-2.246-5.572-.975-1.808 1.27-2.244 3.764-.975 5.572l6.95 9.899c.778 1.109 2.017 1.702 3.277 1.702z"/><path d="m395.77 260.282c-1.269-1.808-3.765-2.247-5.571-.976-1.809 1.269-2.245 3.764-.976 5.571l6.95 9.9c.778 1.109 2.018 1.702 3.277 1.702.793 0 1.596-.235 2.294-.727 1.809-1.269 2.245-3.764.976-5.571z"/><path d="m388.731 331.77c-1.861-1.189-4.336-.646-5.524 1.216l-5.65 8.84c-1.19 1.861-.646 4.335 1.216 5.524.667.427 1.413.631 2.15.631 1.319 0 2.611-.652 3.374-1.847l5.65-8.84c1.19-1.861.645-4.335-1.216-5.524z"/><path d="m416.796 326.634c.773 1.141 2.033 1.756 3.315 1.756.771 0 1.553-.223 2.24-.688 1.828-1.239 2.307-3.727 1.067-5.556l-6.851-10.11c-1.239-1.827-3.727-2.309-5.556-1.067-1.828 1.239-2.307 3.727-1.067 5.556z"/><path d="m389.583 289.016c-1.979-.982-4.379-.172-5.36 1.808l-5.739 11.58c-.981 1.979-.172 4.379 1.808 5.36.571.283 1.177.417 1.773.417 1.472 0 2.889-.816 3.587-2.225l5.739-11.58c.981-1.979.171-4.378-1.808-5.36z"/></g><path d="m170.017 174.51s2.66 30.39-2.01 38.69c-4.68 8.29-15.19 11.23-23.49 6.55-8.29-4.67-11.23-15.19-6.55-23.48 4.67-8.3 32.05-21.76 32.05-21.76z" fill="#ffc05a"/><path d="m127.897 249.24c17.11-8.61 35.23-10.26 54.09-6.85-15.85 23.08-36.6 33.36-64.43 25.21h-.01v-.01c-.468-11.131 2.797-17.485 10.35-18.35z" fill="#f9b132"/><path d="m89.407 317.53c22.95-22.9 48.67-31.21 77.18-24.93-12.97 19.11-31.81 30.45-56.91 33.54h-.01c-6.92-2.06-13.71-4.92-20.26-8.61z" fill="#ffc05a"/><path d="m70.777 238.6c20.13 21.13 26.34 47.44 18.63 78.93-6.55-3.69-12.51-8.02-17.85-12.87v-.01c-10.35-23.06-10.42-45.06-.78-66.05z" fill="#f9b132"/><path d="m127.897 249.24-10.35 18.35c-21.38-19.59-23.33-42.66-11.8-68.17 12.68 14.37 20.66 30.72 22.15 49.82z" fill="#ffc05a"/></g></svg>