<svg id="Capa_1" enable-background="new 0 0 512 512" viewBox="0 0 512 512" xmlns="http://www.w3.org/2000/svg"><g><g><path d="m177.818 0h-21.691c-3.472 0-6.431 2.52-6.984 5.948l-3.952 24.504h43.564l-3.952-24.504c-.554-3.428-3.513-5.948-6.985-5.948z" fill="#c68d7a"/><path d="m290.709 271.172c0 82.032-60.892 123.083-97.092 140.904-10.23 5.034-18.481 8.21-22.834 9.936-2.172.853-4.557.853-6.718 0-3.714-1.472-10.26 2.821-18.44-1.411-35.409-18.328-101.497-63.977-101.497-149.429 0-25.93 8.007-49.992 21.678-69.843 21.343-30.984 33.034-67.59 33.034-105.201v-1.543c0-32.455 22.55-59.654 52.844-66.758 1.411-.335 2.842-.447 4.283-.447 3.725 0 7.551.792 11.458.792 37.875 0 63.774 33.998 63.774 71.873v1.543c0 15.396 2.426 31.258 6.769 46.735 6.252 22.337 16.461 43.893 29.066 62.191 13.668 19.85 23.675 34.728 23.675 60.658z" fill="#9be69d"/><path d="m290.709 271.172c0-6.106-.561-11.594-1.588-16.684-2.684-19.829-10.061-38.168-21.009-53.837-21.576-30.879-32.56-67.925-32.56-105.595v-.466c0-37.875-30.704-68.58-68.58-68.58-5.416 0-10.683.627-15.737 1.814 19.402 5.129 32.052 12.277 40.033 25.598 9.965 17.954 15.963 37.804 17.892 58.248 2.664 28.234 9.379 58.981 21.765 79.957 1.754 2.97 2.347 6.493 1.623 9.865-4.217 19.631-12.362 38.55-24.187 55.828-17.77 25.95-27.158 56.345-27.158 87.898 0 14.271 1.555 28.147 4.618 41.547 1.287 5.63-1.07 11.462-5.917 14.603-13.342 8.644-25.757 14.919-34.732 19.233 5.348 2.57 15.702 7.397 18.44 8.481 2.162.856 4.553.856 6.716 0 15.224-6.03 78.223-34.08 106.308-94.798 8.616-17.686 14.073-38.562 14.073-63.112z" fill="#97da7b"/><g><path d="m347.816 67.95h-21.691c-3.472 0-6.431 2.52-6.984 5.948l-3.952 24.504h43.564l-3.953-24.505c-.553-3.428-3.512-5.947-6.984-5.947z" fill="#c68d7a"/><g><path d="m405.55 170.163v-1.534c0-37.875-30.704-68.58-68.58-68.58-37.876 0-68.58 30.704-68.58 68.58v1.533c0 37.742-11.913 74.355-33.231 105.499-13.552 19.797-21.48 43.748-21.48 69.551 0 116.719 123.291 159.176 123.291 159.176s123.291-42.457 123.291-159.176c0-25.803-7.928-49.754-21.48-69.551-21.318-31.143-33.231-67.757-33.231-105.498z" fill="#fea95c"/><path d="m438.782 275.662c-21.319-31.144-33.231-67.757-33.231-105.499v-1.534c0-35.892-27.577-65.324-62.696-68.311 17.654 12.408 29.202 32.915 29.202 56.132v1.534c0 37.742 11.913 74.355 33.231 105.499 13.552 19.797 21.48 43.748 21.48 69.551 0 103.771-97.448 148.839-119.069 157.562 16.9 9.527 29.273 13.794 29.273 13.794s123.291-42.457 123.291-159.176c-.002-25.805-7.929-49.755-21.481-69.552z" fill="#fe9738"/><g><path d="m336.971 507.945c-4.204 0-7.612-3.408-7.612-7.612v-333.732c0-4.204 3.408-7.611 7.612-7.611s7.611 3.408 7.611 7.611v333.732c0 4.204-3.408 7.612-7.611 7.612z" fill="#fe9738"/></g><path d="m344.499 501.397c.049-.348.083-.702.083-1.064v-29.047c-5.375 3.457-10.51 6.449-15.223 9.006v20.041c0 .362.034.714.083 1.062 4.737 2.029 7.529 2.993 7.529 2.993s2.798-.966 7.528-2.991z" fill="#fe860a"/><path d="m336.971 512c-.837 0-1.675-.138-2.478-.415-1.311-.451-32.472-11.353-63.986-37.123-42.156-34.471-64.439-79.166-64.439-129.25 0-26.514 7.888-52.051 22.81-73.85 20.87-30.487 31.901-65.482 31.901-101.2v-1.533c0-42.012 34.179-76.191 76.191-76.191s76.191 34.179 76.191 76.191v1.533c0 35.718 11.031 70.713 31.901 101.2 14.923 21.799 22.81 47.336 22.81 73.85 0 50.084-22.282 94.779-64.439 129.25-31.514 25.77-62.674 36.671-63.986 37.123-.801.277-1.639.415-2.476.415zm0-404.339c-33.618 0-60.968 27.35-60.968 60.968v1.533c0 38.8-11.951 76.768-34.562 109.798-13.182 19.256-20.149 41.82-20.149 65.252 0 46.011 19.801 85.532 58.852 117.465 24.491 20.027 49.087 30.554 56.822 33.581 7.779-3.055 32.675-13.731 57.203-33.885 38.805-31.886 58.481-71.304 58.481-117.162 0-23.432-6.967-45.996-20.149-65.252-22.611-33.03-34.562-70.998-34.562-109.798v-1.533c0-33.617-27.35-60.967-60.968-60.967z" fill="#9be69d"/></g><path d="m336.97 448.659c-4.954-3.74-9.137-5.079-14.056-9.385-1.2-1.05-3.172-1.374-4.321-2.419-45.605-41.475-51.562-78.669-51.562-106.618 0-14.386 4.059-27.61 12.065-39.304 14.265-20.839 27.167-42.331 38.675-64.373 2.676-5.127 6.977-8.306 11.586-10.316 6.42-2.8 19.319 2.678 24.771 13.122 11.508 22.041 24.03 42.428 38.295 63.266 8.006 11.694 10.056 22.819 10.056 37.206 0 28.653-2.961 64.353-51.786 107.092-4.919 4.304-8.769 7.99-13.723 11.729z" fill="#918291"/><g fill="#7a6d79"><path d="m394.846 290.931c-14.265-20.839-27.167-42.331-38.675-64.372-5.151-9.866-16.204-14.205-26.814-10.316 11.464 21.926 24.481 41.532 37.571 62.98 8.874 14.54 15.691 33.964 15.691 48.35 0 25.285-5.318 50.264-40.017 87.007-4.622 4.894-9.969 10.119-15.708 15.142-2.881 2.522-5.396 4.804-8.301 7.131 1.413 1.297 2.031 1.838 3.523 3.144 4.153 3.635 8.35 7.066 12.538 10.297 1.363 1.052 3.27 1.052 4.633 0 4.188-3.231 8.384-6.661 12.537-10.297 48.825-42.738 55.086-81.108 55.086-109.762 0-14.385-4.059-27.61-12.064-39.304z"/><g><circle cx="336.971" cy="259.685" r="7.611"/><circle cx="321.992" cy="289.642" r="7.611"/><circle cx="351.949" cy="289.642" r="7.611"/><circle cx="321.992" cy="379.516" r="7.611"/><circle cx="351.949" cy="379.516" r="7.611"/><circle cx="336.97" cy="319.6" r="7.611"/><circle cx="307.013" cy="319.6" r="7.611"/><circle cx="366.928" cy="319.6" r="7.611"/><circle cx="336.97" cy="349.558" r="7.611"/><circle cx="307.013" cy="349.558" r="7.611"/><circle cx="366.928" cy="349.558" r="7.611"/><circle cx="336.97" cy="409.474" r="7.611"/></g></g></g></g></g><g/><g/><g/><g/><g/><g/><g/><g/><g/><g/><g/><g/><g/><g/><g/></svg>