<svg id="Flat" viewBox="0 0 64 64" xmlns="http://www.w3.org/2000/svg"><path d="m9.9 31.1c-1.39 4.75-1.7 8.92-1.7 11.9 0 3.81.51 7.1 1.13 9.73.52 2.22 2.07 4.08 4.19 4.94 3.82 1.55 10.23 2.33 18.48 2.33s14.67-.78 18.48-2.33c2.12-.86 3.66-2.72 4.19-4.94.62-2.62 1.13-5.92 1.13-9.73 0-2.98-.31-7.15-1.7-11.9z" fill="#ecc865"/><path d="m43.26 26.71c6.5.89 10.84 2.53 10.84 4.39 0 2.81-9.89 5.1-22.1 5.1s-22.1-2.29-22.1-5.1 9.89-5.1 22.1-5.1c.21 0 .43 0 .64.01" fill="#edae65"/><path d="m45.77 54.87c-.46 0-.87-.32-.98-.79-.12-.54.22-1.07.76-1.19 1.07-.23 1.96-.5 2.66-.78.3-.12.52-.4.61-.76.2-.83.36-1.68.5-2.52.09-.55.6-.91 1.15-.83.54.09.92.6.83 1.15-.14.88-.32 1.78-.53 2.65-.23.98-.9 1.79-1.8 2.15-.8.33-1.81.62-2.99.88-.07.02-.14.02-.22.02z" fill="#edae65"/><path d="m44.23 24.38-2.79 6.72h-10.83l4.39-10.56c.17-.4.57-.64 1-.61l2.44.18 1.92-4.62c2.04-1.29 3.24-.72 3.69 1.54l-1.92 4.62 1.84 1.6c.32.28.43.74.27 1.14z" fill="#d3dce5"/><path d="m44.69 3.75c1.66 0 3 1.34 3 3v10h-6v-10c0-1.66 1.34-3 3-3z" fill="#a26a55" transform="matrix(.923 .384 -.384 .923 7.36 -16.36)"/><path d="m43.43 32.1h-14.3c-.55 0-1-.45-1-1s.45-1 1-1h14.3c.55 0 1 .45 1 1s-.45 1-1 1z" fill="#d88852"/></svg>