<svg id="Layer_1" height="512" viewBox="0 0 512 512" width="512" xmlns="http://www.w3.org/2000/svg" data-name="Layer 1"><path d="m99.35 214.73c-1.74 10 6.71 25.04 6.71 25.04s4.1 8.25 6.81 3.83c2.24-3.63-2.3-14.69-8.96-21.92a25.1 25.1 0 0 1 -4.56-6.95zm40.45 105.11a56.719 56.719 0 0 1 6.28 9.99c2.39 4.92 4.83 7.99 7.19 9.8 6.69 5.12 14.49-4.98 8-10.36-4.34-3.61-11.15-7.46-21.47-9.43zm16.25-45.4c-3.36 20.07 13.36 42.63 13.36 42.63s8.94 11.66 9.32-1.23-3.05-22.57-18.98-37.7c-1.35-1.28-2.58-2.52-3.7-3.7zm-83.54-23.15s3.25 10.53 9.18 15.36c0 0 17.27 15.11 16.24 2.3-.95-11.84-13.48-14.43-25.42-17.66zm244.58-174.35s-7.82 7.74-9.37 15.25c0 0-5.4 22.35 5.45 15.54 10.02-6.29 6.56-18.65 3.92-30.79zm29.3 283.04c-1.4.59-2.9 1.18-4.53 1.77-19.16 6.93-25.67 13.88-30.12 25s7.47 4.53 7.47 4.53 22.6-12.96 27.18-31.3zm-3 44.74c-9.51-2.19-16.71-1.46-21.75-.02-7.51 2.15-4.64 13.68 2.95 11.82 2.68-.65 5.9-2.35 9.75-5.65a52.1 52.1 0 0 1 9.05-6.15zm-8.32-242.65c-19.29 6.23-31.55 31.53-31.55 31.53s-6.2 13.34 5.38 7.74 18.54-13.1 24.59-34.26q.765-2.68 1.58-5.01zm-47.63 6.41a55.918 55.918 0 0 1 -5.93 10.2c-3.26 4.39-4.85 7.98-5.36 10.92-1.45 8.32 11.08 10.59 12.85 2.33 1.18-5.53 1.45-13.35-1.56-23.45zm138.65 203.02c-11.37-1.71-22.99-4.19-28.18 5.53-5.63 10.53 14.68 4.12 14.68 4.12 6.68-1.85 13.19-9.29 13.5-9.65zm-9.29-41.16a23.525 23.525 0 0 1 -6.46 4.21c-8.35 3.66-16.31 11.39-15.76 15.31.68 4.78 7.22-.71 7.22-.71s12.77-9.65 15-18.81zm-55.04-246.29-.01-.01c-9.63 3.05-19.04 17.51-19.04 17.51s-5.41 7.44-.25 7.83c4.23.33 11.93-8.81 15.25-18.07a24.954 24.954 0 0 1 4.05-7.26zm11.02 36.19v.01l1.59 2.09a8.086 8.086 0 0 1 -4.24 12.71c-14.06 3.81-19.56 12.86-19.56 12.86a22.839 22.839 0 0 1 1.06 14.44 2.142 2.142 0 0 0 1.1 2.45c1.49.74 3.72.98 5.13-2.99 1.98-5.56 4.47-14.42 10.9-18.35a2.142 2.142 0 0 1 3.24 1.74l.29 5.99a1.575 1.575 0 0 0 2.6 1.13c4.4-3.79 15-10.14 33.1-5.26a2.062 2.062 0 0 1 1.31 2.9c-5.12 10.34-12.34 14.48-16.24 16.04a.858.858 0 0 0 .2 1.64c5.44.83 9-1.79 11.09-.7a2.1 2.1 0 0 1 .76 2.9c-8.66 15.17-17.65 13.74-18.24 13.62a25.608 25.608 0 0 1 8.17 5.84 3.705 3.705 0 0 1 -.15 5.31c-8.22 7.53-20.09 10.38-26.23 11.4a.871.871 0 0 0 -.11 1.69c18.46 6.02 22.39 14.79 23.14 19.3a4.629 4.629 0 0 1 -1.78 4.4c-12.21 9.18-23.64 6.39-29.23 4.01a.983.983 0 0 0 -1.24 1.38c.06.11.11.22.17.33a4.668 4.668 0 0 1 -6.32 6.17 360.379 360.379 0 0 0 -38.93-18.07c-21.36-8.6-29.93 5.9-33.34 17.45a210.035 210.035 0 0 1 -11.8 30.76c-14.34 30.22-39.02 92.27-32.87 150.77a4.259 4.259 0 0 0 5.4 3.67c15.07-4.33 59.67-19.5 47.61-44.74a339.217 339.217 0 0 0 -19.08-35.15 4.345 4.345 0 0 1 5.42-6.21c.07.03.13.06.19.08a.916.916 0 0 0 1.22-1.23c-2.54-5.06-5.82-15.53 1.91-27.45a4.257 4.257 0 0 1 3.96-1.94c4.21.42 12.54 3.55 19.22 20.36a.809.809 0 0 0 1.56-.21c.57-5.78 2.47-17 8.91-25.1a3.41 3.41 0 0 1 4.91-.47 23.457 23.457 0 0 1 5.89 7.26s-2.48-8.53 11.45-17.84a1.945 1.945 0 0 1 2.73.52c1.13 1.89-1.07 5.37.03 10.37a.786.786 0 0 0 1.52.09c1.21-3.73 4.59-10.7 13.82-16.11a1.915 1.915 0 0 1 2.76 1.05c5.62 16.56.4 26.81-2.83 31.15a1.464 1.464 0 0 0 1.2 2.34l5.55-.09a2 2 0 0 1 1.81 2.91c-3.23 6.23-11.26 9.09-16.27 11.27-3.58 1.56-3.23 3.62-2.45 4.96a1.969 1.969 0 0 0 2.33.88 20.952 20.952 0 0 1 13.39.1s8.02-5.68 10.68-19.01a7.466 7.466 0 0 1 11.48-4.72l2.03 1.35c.73-7.57 3.52-17.49 12.67-21.53a1.63 1.63 0 0 1 2.01.56 9.7 9.7 0 0 1 1.46 8.92 1.97 1.97 0 0 0 1.85 2.64 2.033 2.033 0 0 0 1.45-.63 21.189 21.189 0 0 1 18.66-6.65 2.847 2.847 0 0 1 2.37 2.3 29.364 29.364 0 0 1 .09 10.97 20.488 20.488 0 0 1 -4.96 9.92l.01.01s11.15 7.69 18.52-6.08c3.86-7.2 13.98-11.4 18.89-13.06a2.452 2.452 0 0 1 3.23 2.03c.48 4.08.63 11.32-3.9 13.89 9.03-4.24 18.11-2.37 22.95-.75a2.449 2.449 0 0 1 .92 4.1c-9.44 8.97-17.29 11.17-17.29 11.17a8.434 8.434 0 0 1 5.41 5.76 1.866 1.866 0 0 1 -.44 1.73c-7.59 8.22-21.81 2.8-27.22 2.18a2.609 2.609 0 0 0 -2.9 2.54v.14a2.624 2.624 0 0 0 2.8 2.67 15.641 15.641 0 0 1 9.7 2.71 4.084 4.084 0 0 1 .29 6.56 36.829 36.829 0 0 1 -12.24 6.76c.89 3.19-1.65 7.08-3.13 9a.54.54 0 0 0 .52.86c6.46-1.02 14.67 2.81 17.19 4.09a.54.54 0 0 1 .07.92c-5.9 4.15-15.37 6.36-20.01 7.24a1.371 1.371 0 0 0 -.87 2.11 10.994 10.994 0 0 1 1.43 4.8 1.359 1.359 0 0 1 -1.05 1.44c-8.55 2.01-9.65-5.77-18.46-9.11-9.18-3.48-7.09 5.01-7.09 5.01 11.8 1.09 9.59 14.26 9.59 14.26a3.369 3.369 0 0 1 -1.69 4.23 23.161 23.161 0 0 1 -2.3.97c-2.98 1.1-3.12 2.59-2.52 3.81a3.573 3.573 0 0 0 3.74 1.84c16.57-2.45 28.25 8.98 28.25 8.98-11.19 14.86-25.79 10.76-25.79 10.76l-.61.25c2.22 2.95 3.03 7.19 3.33 8.64a.993.993 0 0 1 -.68 1.16c-2.84.88-10.96-1.18-18.07-6.48-8.02-5.97-.45 8.58-.58 9.89a1.014 1.014 0 0 1 -.66.85c-33.27 11.93-44.26-17.17-53.19-16.78-8.97.38.78 10.43.78 10.43s20.08 8.74 23.25 23.36a1.749 1.749 0 0 1 -1.33 2.07 8.758 8.758 0 0 1 -8-1.96 1.025 1.025 0 0 0 -1.69.78c0 4.17-1.03 12.16-7.6 20.73a1.769 1.769 0 0 1 -2.42.38c-3.46-2.45-12.17-9.88-12.34-22.52a1.023 1.023 0 0 0 -1.82-.64c-2.14 2.69-5.56 6.39-7.9 5.94-3.64-.69 1.37-7.24-3.21-20.03s-23.78-34.84-55.13-23.65l-22.67 8.45a4.279 4.279 0 0 0 -2.57 5.38c4.23 12.37 10.72 26.27 18.64 37.32a5.886 5.886 0 0 1 1.13 3.43 5.708 5.708 0 0 1 -10.51 3.02c-16.73-26.83-24.85-61.43-27.23-89.52a13.684 13.684 0 0 0 -5.35-9.78c-26.98-20.53-71.41-21.06-80.81-11.08-10 10.62-7.87 19.25-11.76 18.36-2.5-.57-4.28-5.67-5.24-9.25a1.109 1.109 0 0 0 -2.08-.18c-5.59 12.39-17.38 15.94-21.83 16.86a1.9 1.9 0 0 1 -2.21-1.42c-2.81-11.3-.39-19.63 1.39-23.74a1.094 1.094 0 0 0 -1.33-1.49 9.457 9.457 0 0 1 -8.7-1.52 1.924 1.924 0 0 1 -.43-2.66c7.96-11 25.99-12.66 31.38-12.9a8.4 8.4 0 0 0 3.33-.87c3.45-1.72 10.15-5.84 3.47-9.12-8.64-4.25-31.97 19.69-59.64-6.48a1.074 1.074 0 0 1 -.29-1.12c.43-1.35 14.15-12.42 3.68-10.01-9.3 2.15-18.18.67-20.6-1.43a1.06 1.06 0 0 1 -.18-1.44c.9-1.27 3.43-4.97 6.79-6.96l-.29-.62s-16.16-2.29-20.81-21.79c0 0 16.41-6.2 31.7 3.38a3.844 3.844 0 0 0 4.48-.19c1.12-.94 1.62-2.47-.85-4.84-.73-.71-1.34-1.36-1.85-1.96a3.644 3.644 0 0 1 .15-4.91v-.01c.13-.48 3.7-13.85 15.58-9.89 0 0 5.7-7.47-4.84-8.01-10.12-.53-14.54 6.67-22.12.99a1.465 1.465 0 0 1 -.41-1.87 11.571 11.571 0 0 1 3.47-4.11 1.481 1.481 0 0 0 .04-2.47c-4.19-2.88-12.58-9.15-16.62-15.8a.58.58 0 0 1 .47-.87c3.04-.18 12.77-.4 18.71 3.4a.572.572 0 0 0 .88-.61c-.64-2.54-1.47-7.47.77-10.23a39.962 39.962 0 0 1 -9.17-11.97 4.4 4.4 0 0 1 3.11-6.35 16.792 16.792 0 0 1 10.72 1.53 2.816 2.816 0 0 0 3.91-1.41l.06-.14a2.812 2.812 0 0 0 -1.77-3.76c-5.6-1.74-21.94-2.55-25.9-13.94a2.024 2.024 0 0 1 .31-1.9 9.029 9.029 0 0 1 7.8-3.33s-6.79-5.57-12.25-18.5a2.638 2.638 0 0 1 2.67-3.65c5.46.51 15.23 2.59 22.31 10.68-3.37-4.49-.12-11.57 2.11-15.38a2.629 2.629 0 0 1 4.06-.61c4.12 3.77 12.3 12.28 13.01 21.06 1.36 16.77 15.66 14.01 15.66 14.01a22.151 22.151 0 0 1 -.62-11.93 31.482 31.482 0 0 1 4.8-10.78 3.058 3.058 0 0 1 3.32-1.25 22.9 22.9 0 0 1 15.55 14.64 2.146 2.146 0 0 0 1.51 1.37 2.114 2.114 0 0 0 2.61-1.92c.22-4.44 3.44-7.04 5.27-8.17a1.769 1.769 0 0 1 2.22.32c7.28 7.95 5.77 18.95 3.25 26.72l2.58-.46a8.068 8.068 0 0 1 9.29 9.63c-3.03 13.99 2.14 22.98 2.37 23.36a22.672 22.672 0 0 1 13.25 5.7 2.113 2.113 0 0 0 2.67.15c1.34-.99 2.58-2.87-.28-5.95-4-4.32-10.7-10.62-11.21-18.16a2.145 2.145 0 0 1 3.03-2.09l5.44 2.49a1.573 1.573 0 0 0 2.19-1.79c-1.33-5.67-2.07-18.04 10.58-31.94a2.053 2.053 0 0 1 3.17.17c6.78 9.32 7.12 17.67 6.7 21.87a.858.858 0 0 0 1.55.57c3.23-4.46 2.55-8.85 4.48-10.21a2.087 2.087 0 0 1 2.91.65c9.75 15.22 3.64 22.56 3.64 22.56a25.125 25.125 0 0 1 8.91-4.61 3.692 3.692 0 0 1 4.65 2.59c2.86 10.77-.06 22.65-1.99 28.59a.871.871 0 0 0 1.45.88c13.8-13.67 23.36-13.14 27.68-11.74a4.6 4.6 0 0 1 3.08 3.61c2.51 15.11-5.22 24.03-9.9 27.91a1 1 0 0 0 .68 1.75h.23a4.683 4.683 0 0 1 2.66 8.47 363.438 363.438 0 0 0 -33.89 26.39c-18.53 16.04-2.06 39.01 10.36 52.06a7.087 7.087 0 0 0 12.17-4.01c7.82-61.99 35.84-117.05 35.84-117.05 9.74-34.59-15.21-53.74-29.21-57.77s-20.64 1.85-21.64-2.03c-.64-2.5 3.07-6.45 5.79-8.95a1.109 1.109 0 0 0 -.82-1.92c-13.52.72-22.08-8.15-24.95-11.7a1.931 1.931 0 0 1 .24-2.64c8.69-7.69 17.16-9.37 21.61-9.67a1.107 1.107 0 0 0 .72-1.88 9.52 9.52 0 0 1 -2.66-8.45 1.937 1.937 0 0 1 2.2-1.6c15.82 2.45 26.56 23.4 26.56 23.4s11.42 9.81 11.2.1c-.22-9.66-32.12-19.44-21.72-56.16a1.105 1.105 0 0 1 .86-.78c1.39-.23 17.49 6.9 10.54-1.32-6.18-7.3-8.96-15.9-8.22-19.03a1.07 1.07 0 0 1 1.19-.82 26.156 26.156 0 0 1 8.5 2.41l1.16-.22c-.47-1.49-4.59-16.03 9.72-28.46 0 0 13.04 11.78 11.6 29.82a3.863 3.863 0 0 0 2.24 3.9c1.34.57 2.92.31 3.89-2.98a26.734 26.734 0 0 1 .87-2.55 3.6 3.6 0 0 1 4.41-2.12h.01c.45-.11 13.94-3.11 15.92 9.33 0 0 9.22 1.64 4.85-8.01-4.19-9.26-12.59-9.89-11.05-19.26a1.455 1.455 0 0 1 1.46-1.23 11.568 11.568 0 0 1 5.23 1.21 1.477 1.477 0 0 0 2.2-1.1c.61-5.06 2.3-15.43 6.32-22.09a.58.58 0 0 1 .99.01c1.55 2.63 6.22 11.21 5.6 18.25a.569.569 0 0 0 .94.5c1.96-1.73 5.94-4.75 9.41-4.02a39.835 39.835 0 0 1 6.35-13.68 4.359 4.359 0 0 1 7.04-.15 16.929 16.929 0 0 1 3.59 10.26 2.823 2.823 0 0 0 3.05 2.84l.15-.01a2.821 2.821 0 0 0 2.51-3.31c-1.05-5.79-7.85-20.74.4-29.5a2.008 2.008 0 0 1 1.82-.61 9.078 9.078 0 0 1 6.54 5.43s1.79-8.62 10.71-19.43a2.623 2.623 0 0 1 4.46.69c2.07 5.11 4.72 14.77.83 24.81 2.42-5.07 10.17-5.43 14.56-5.2a2.651 2.651 0 0 1 2.41 3.34c-1.43 5.41-5.2 16.62-12.63 21.3-14.2 8.92-5.18 20.4-5.18 20.4l.01.01a21.781 21.781 0 0 1 10.26-6.05 31.1 31.1 0 0 1 11.73-.68 3.063 3.063 0 0 1 2.63 2.39 23.021 23.021 0 0 1 -5.79 20.6 2.165 2.165 0 0 0 -.51 1.97 2.1 2.1 0 0 0 2.9 1.44c4.03-1.84 7.8-.17 9.64.94a1.77 1.77 0 0 1 .74 2.13c-3.68 10.15-14.08 13.87-22.12 15.19z" fill="#739937"/><g fill="#5c752d"><path d="m50.95 204.95a9.029 9.029 0 0 0 -7.8 3.33 2.024 2.024 0 0 0 -.31 1.9c3.96 11.39 20.3 12.2 25.9 13.94a2.812 2.812 0 0 1 1.77 3.76l-.06.14a2.816 2.816 0 0 1 -3.91 1.41 16.792 16.792 0 0 0 -10.72-1.53 4.4 4.4 0 0 0 -3.11 6.35 39.962 39.962 0 0 0 9.17 11.97c-2.24 2.76-1.41 7.69-.77 10.23a.572.572 0 0 1 -.88.61c-5.94-3.8-15.67-3.58-18.71-3.4a.58.58 0 0 0 -.47.87c4.04 6.65 12.43 12.92 16.62 15.8a1.481 1.481 0 0 1 -.04 2.47 11.571 11.571 0 0 0 -3.47 4.11 1.465 1.465 0 0 0 .41 1.87c7.58 5.68 12-1.52 22.12-.99 10.54.54 4.865 8.01 4.865 8.01-11.88-3.96-15.555 9.41-15.555 9.89v.01a3.9 3.9 0 0 0 -.175 4.91c.51.6 1.107 1.25 1.838 1.96.093.09.168.176.253.263 6.11-1.031 16.332-1.358 26.107 4.767a3.842 3.842 0 0 0 4.479-.19c1.12-.94 1.619-2.47-.851-4.84-.73-.71-1.316-1.36-1.826-1.96a3.9 3.9 0 0 1 .175-4.91v-.01c0-.48 3.675-13.85 15.555-9.89 0 0 5.688-7.47-4.853-8.01-10.119-.53-14.546 6.67-22.126.99a1.466 1.466 0 0 1 -.413-1.87 11.568 11.568 0 0 1 3.469-4.11 1.487 1.487 0 0 0 .678-1.274 56.478 56.478 0 0 1 -6.62-4.876 20.081 20.081 0 0 1 -3.489-3.8 40.635 40.635 0 0 1 -7.151-8.318.58.58 0 0 1 .47-.87c.459-.027 1.085-.054 1.812-.069-.542-1.4-.822-2.3-.822-2.3 3.839 1.038 7.737 2.012 11.293 3.247a20.492 20.492 0 0 1 6.427 2.523.572.572 0 0 0 .88-.61c-.64-2.54-1.47-7.47.77-10.23a39.962 39.962 0 0 1 -9.17-11.97 4.4 4.4 0 0 1 3.11-6.35 16.792 16.792 0 0 1 10.72 1.53 2.816 2.816 0 0 0 3.91-1.41l.06-.14a2.832 2.832 0 0 0 .19-.863c-.183-.612-.355-1.232-.514-1.856a2.8 2.8 0 0 0 -1.446-1.041c-5.6-1.74-21.94-2.55-25.9-13.94a2.024 2.024 0 0 1 .31-1.9 9.029 9.029 0 0 1 7.8-3.33s-6.79-5.57-12.25-18.5a2.638 2.638 0 0 1 2.67-3.65 40.174 40.174 0 0 1 4.153.617 61.279 61.279 0 0 0 -5.673-5.927 2.629 2.629 0 0 0 -4.06.61c-2.23 3.81-5.48 10.89-2.11 15.38-7.08-8.09-16.85-10.17-22.31-10.68a2.638 2.638 0 0 0 -2.67 3.65c5.46 12.927 12.25 18.497 12.25 18.497z"/><path d="m214.84 182.28a1.109 1.109 0 0 1 .82 1.92c-2.72 2.5-6.43 6.45-5.79 8.95 1 3.88 7.65-1.99 21.64 2.03s38.95 23.18 29.21 57.77c0 0-.139.273-.391.784a16.566 16.566 0 0 1 9.161.086 4.6 4.6 0 0 1 3.08 3.61 34.02 34.02 0 0 1 .43 7.57 207.49 207.49 0 0 0 8.017-22.326c1.748-5.921 4.859-12.61 10.346-16.572-4.844-17.815-20.036-28.091-29.856-30.918-13.99-4.02-20.64 1.85-21.64-2.03-.64-2.5 3.07-6.45 5.79-8.95a1.109 1.109 0 0 0 -.82-1.92c-13.52.72-22.08-8.15-24.95-11.7a1.931 1.931 0 0 1 .24-2.64 40.033 40.033 0 0 1 12.248-7.547c-4.685-5.931-11.775-12.725-20.375-14.057a1.937 1.937 0 0 0 -2.2 1.6 9.52 9.52 0 0 0 2.66 8.45 1.107 1.107 0 0 1 -.72 1.88c-4.45.3-12.92 1.98-21.61 9.67a1.931 1.931 0 0 0 -.24 2.64c2.87 3.55 11.43 12.42 24.95 11.7z"/><path d="m125.94 382.63a1.094 1.094 0 0 0 -1.33-1.49 9.457 9.457 0 0 1 -8.7-1.52 1.924 1.924 0 0 1 -.43-2.66c7.96-11 25.99-12.66 31.38-12.9a8.4 8.4 0 0 0 3.33-.87c3.45-1.72 10.15-5.84 3.47-9.12-5.1-2.51-15.331 4.811-28.55 5.836a19.969 19.969 0 0 1 -4.92 3.284 8.4 8.4 0 0 1 -3.33.87c-5.39.24-23.42 1.9-31.38 12.9a1.924 1.924 0 0 0 .43 2.66 9.457 9.457 0 0 0 8.7 1.52 1.094 1.094 0 0 1 1.33 1.49c-1.78 4.11-4.2 12.44-1.39 23.74a1.9 1.9 0 0 0 2.21 1.42c4.45-.92 16.24-4.47 21.83-16.86a1.109 1.109 0 0 1 2.08.18 28.594 28.594 0 0 0 2.644 6.858 34.761 34.761 0 0 1 2.626-15.338z"/><path d="m108.057 357.126a48.055 48.055 0 0 1 -14.037-9.536 1.074 1.074 0 0 1 -.29-1.12c.43-1.35 14.15-12.42 3.68-10.01-9.3 2.15-18.18.67-20.6-1.43a1.06 1.06 0 0 1 -.18-1.44c.9-1.27 3.43-4.97 6.79-6.96l-.29-.62s-14.541-2.073-20-18.94c-15.03-8.8-30.808-2.85-30.808-2.85 4.65 19.5 20.81 21.79 20.81 21.79l.29.62c-3.36 1.99-5.89 5.69-6.79 6.96a1.06 1.06 0 0 0 .18 1.44c2.42 2.1 11.3 3.58 20.6 1.43 10.47-2.41-3.25 8.66-3.68 10.01a1.074 1.074 0 0 0 .29 1.12c17.178 16.246 32.678 13.18 44.035 9.536z"/><path d="m293.322 89.024a20.563 20.563 0 0 1 2.258 3.826c1.516 3.349 1.4 5.336.592 6.506 1.2.271 2.506-.3 3.348-3.156a20.867 20.867 0 0 1 .87-2.315c.76-1.88 2.73-2.885 4.41-1.885h.01c.133-1 1.4-.55 3.176-.614 1.3-4.671 4.759-9.393 7.022-12.044a10.219 10.219 0 0 1 -.478-5.693 1.482 1.482 0 0 1 1.46-1.26 11.536 11.536 0 0 1 5.23 1.2 1.48 1.48 0 0 0 2.2-1.108c.6-4.97 2.246-15.06 6.114-21.728a4.334 4.334 0 0 0 -6.5.693 39.829 39.829 0 0 0 -6.35 13.679c-3.47-.73-7.45 2.289-9.41 4.019a.569.569 0 0 1 -.94-.5c.62-7.04-4.05-15.62-5.6-18.25a.58.58 0 0 0 -.99-.01c-4.02 6.66-5.71 17.03-6.32 22.09a1.477 1.477 0 0 1 -2.2 1.1 10 10 0 0 0 -3.8-1.112 38.136 38.136 0 0 1 5.898 16.562z"/><path d="m240.893 158.341c.3-.029.579-.053.847-.071a1.107 1.107 0 0 0 .72-1.88 9.52 9.52 0 0 1 -2.66-8.45 1.937 1.937 0 0 1 2.2-1.6c15.82 2.45 26.56 23.4 26.56 23.4s11.42 9.81 11.2.1c-.22-9.66-32.12-19.44-21.72-56.16a1.105 1.105 0 0 1 .86-.78c1.39-.23 17.49 6.9 10.54-1.32-6.18-7.3-8.96-15.9-8.22-19.03a1.07 1.07 0 0 1 1.19-.82c.275.041.646.092 1.084.16-.284-16.111-11.7-26.43-11.7-26.43-14.31 12.43-10.19 26.97-9.72 28.46l-1.16.22a26.156 26.156 0 0 0 -8.5-2.41 1.07 1.07 0 0 0 -1.19.82c-.74 3.13 2.04 11.73 8.22 19.03 6.95 8.22-9.15 1.09-10.54 1.32a1.105 1.105 0 0 0 -.86.78c-6.721 23.72 4.207 36.194 12.849 44.661z"/><path d="m336.86 64.38-.15.01a2.734 2.734 0 0 1 -.566-.01 17.94 17.94 0 0 1 .186 4.26.569.569 0 0 0 .94.5c1.96-1.73 5.94-4.75 9.41-4.02a39.835 39.835 0 0 1 6.35-13.68 4.359 4.359 0 0 1 7.04-.15 16.929 16.929 0 0 1 3.59 10.26 2.869 2.869 0 0 0 1.737 2.628 23.955 23.955 0 0 1 3.073-2.278c.314-.2.612-.423.913-.643-.007-.063 0-.124-.013-.187-.752-4.149-4.456-13-3.46-20.91a7.022 7.022 0 0 0 -1.78 2.3c3.89-10.04 1.24-19.7-.83-24.81a2.623 2.623 0 0 0 -4.46-.69c-8.92 10.81-10.71 19.43-10.71 19.43a9.078 9.078 0 0 0 -6.54-5.43 2.008 2.008 0 0 0 -1.82.61c-8.25 8.76-1.45 23.71-.4 29.5a2.821 2.821 0 0 1 -2.51 3.31z"/></g></svg>