<svg id="Passion_Fruit" enable-background="new 0 0 64 64" viewBox="0 0 64 64" xmlns="http://www.w3.org/2000/svg"><g><g><path d="m28.75364 3.41451c-1.32793 1.16836-2.11138 2.49073-2.53383 3.74394-.74367 2.20612-.36863 4.19793.12417 4.75805.47543.54037 2.28662 1.14169 4.46365.77324 1.36131-.2304 2.86567-.83999 4.27593-2.08078 1.32102-1.16228 2.10321-2.47696 2.52722-3.72436.75253-2.21392.37675-4.21588-.1175-4.77763-.48297-.54893-2.34427-1.16076-4.56725-.75505-1.33379.24343-2.79779.85317-4.17239 2.06259z" fill="#75d64c"/><path d="m26.34487 12.83091c-.25357 0-.50536-.10446-.68571-.30982-.33393-.37946-.29821-.95714.08214-1.29107l5.97142-5.25535c.37857-.33214.95536-.29732 1.28928.08214s.29821.95714-.08214 1.29107l-5.97142 5.25535c-.17321.15268-.38929.22768-.60357.22768z" fill="#579c35"/></g><path d="m25.16626 15.44739c1.54971 0 2.80619-1.25648 2.80619-2.80619 0-5.38048-1.78196-9.44486-5.29724-12.08012-1.24073-.92969-2.99871-.67791-3.92839.56179s-.67826 2.99871.56179 3.92839c2.05326 1.53977 3.05146 4.02225 3.05146 7.58994 0 1.5497 1.25648 2.80619 2.80619 2.80619z" fill="#be7d59"/><g><ellipse cx="25.166" cy="35.089" fill="#9151b2" rx="21.148" ry="23.923"/><path d="m46.31358 35.09033c0 13.20221-9.47197 23.9176-21.13825 23.9176-1.55424 0-3.05368-.18281-4.51651-.54855 7.16796-4.07767 12.14172-13.00109 12.14172-23.36905 0-10.36807-4.97376-19.29138-12.14172-23.36917 1.46283-.36574 2.96227-.54855 4.51651-.54855 11.66628.00001 21.13825 10.69709 21.13825 23.91772z" opacity=".15"/><g fill="#fff"><ellipse cx="12.084" cy="26.275" opacity=".4" rx="3.407" ry="2.794" transform="matrix(.343 -.939 .939 .343 -16.742 28.611)"/><ellipse cx="9.602" cy="33.069" opacity=".4" rx="2.044" ry="1.677" transform="matrix(.263 -.965 .965 .263 -24.828 33.629)"/></g></g><g><circle cx="43.232" cy="47.25" fill="#a36cc3" r="16.749"/><circle cx="43.232" cy="47.25" fill="#ffdc6e" r="12.471"/><g fill="#ec9f39"><circle cx="43.391" cy="39.894" r=".914"/><circle cx="43.391" cy="44.51" r=".914"/><circle cx="43.391" cy="50.224" r=".914"/><circle cx="43.391" cy="54.84" r=".914"/><circle cx="48.675" cy="42.083" r=".914"/><circle cx="38.106" cy="52.651" r=".914"/><circle cx="50.864" cy="47.367" r=".914"/><circle cx="46.247" cy="47.367" r=".914"/><circle cx="40.534" cy="47.367" r=".914"/><circle cx="35.918" cy="47.367" r=".914"/><circle cx="48.675" cy="52.651" r=".914"/><circle cx="38.106" cy="42.083" r=".914"/></g><path d="m59.97305 47.25025c0 9.25255-7.4972 16.74975-16.74976 16.74975-3.14508 0-6.12566-.87779-8.64909-2.41372 8.88682-.25603 15.99998-7.5337 15.99998-16.47543 0-6.29028-3.52913-11.77599-8.72231-14.55545.45714-.0365.91428-.0548 1.37143-.0548 9.25255 0 16.74975 7.49709 16.74975 16.74965z" opacity=".15"/></g></g></svg>