<svg id="icons" height="512" viewBox="0 0 64 64" width="512" xmlns="http://www.w3.org/2000/svg"><path d="m59.5 60c.33 1 .67 2 1 3h-26c.33-1 .67-2 1-3v-13h24z" fill="#ff5666"/><path d="m48.5 23a3 3 0 0 1 0 6h-2a3 3 0 0 1 0-6z" fill="#e6ecf4"/><path d="m48.5 29a3 3 0 0 0 0-6h-2a3 3 0 0 0 0 6zm7-5v16h-16v-16a5.00043 5.00043 0 0 1 4-4.9 4.71224 4.71224 0 0 1 1-.1h6a4.71224 4.71224 0 0 1 1 .1 5.00043 5.00043 0 0 1 4 4.9z" fill="#ff5666"/><path d="m51.5 9.46a17.6213 17.6213 0 0 0 -8 0 16.93263 16.93263 0 0 0 -4.01 1.47c-.02 0-.03.01-.05.02-1.32.68-2.63 1.36-3.94 2.05v-9c-.33-1-.67-2-1-3h26c-.33 1-.67 2-1 3v9c-1.31-.69-2.62-1.37-3.94-2.05-.02-.01-.03-.02-.05-.02a16.93263 16.93263 0 0 0 -4.01-1.47z" fill="#ff5666"/><path d="m39.5 40h4v7h-4z" fill="#ffbc1c"/><path d="m47.5 40h4v7h-4z" fill="#ffbc1c"/><path d="m55.56 10.95c1.32.68 2.63 1.36 3.94 2.05v34h-4v-36.05l.01-.02c.02 0 .03.01.05.02z" fill="#ffbc1c"/><path d="m51.5 9.46v9.64a4.71224 4.71224 0 0 0 -1-.1h-3v-10a17.412 17.412 0 0 1 4 .46z" fill="#ffbc1c"/><path d="m43.5 9.46v9.64a5.00043 5.00043 0 0 0 -4 4.9v-13.05l-.01-.02a16.93263 16.93263 0 0 1 4.01-1.47z" fill="#ffbc1c"/><path d="m43.5 40h4v7h-4z" fill="#ffcf44"/><path d="m51.5 40h4v7h-4z" fill="#ffcf44"/><path d="m47.5 9v10h-3a4.71224 4.71224 0 0 0 -1 .1v-9.64a17.412 17.412 0 0 1 4-.46z" fill="#ffcf44"/><path d="m39.5 10.95v36.05h-4v-34c1.31-.69 2.62-1.37 3.94-2.05.02-.01.03-.02.05-.02z" fill="#ffcf44"/><path d="m55.51 10.93-.01.02v13.05a5.00043 5.00043 0 0 0 -4-4.9v-9.64a16.93263 16.93263 0 0 1 4.01 1.47z" fill="#ffcf44"/><path d="m28.5 60c.33 1 .67 2 1 3h-26c.33-1 .67-2 1-3v-13h24z" fill="#ff5666"/><path d="m8.5 40v-16a5.00043 5.00043 0 0 1 4-4.9 4.71224 4.71224 0 0 1 1-.1h6a4.71224 4.71224 0 0 1 1 .1 5.00043 5.00043 0 0 1 4 4.9v16zm7-11h2a3 3 0 0 0 0-6h-2a3 3 0 0 0 0 6z" fill="#ff5666"/><path d="m17.5 23a3 3 0 0 1 0 6h-2a3 3 0 0 1 0-6z" fill="#e6ecf4"/><path d="m20.5 40h4v7h-4z" fill="#ffcf44"/><path d="m12.5 40h4v7h-4z" fill="#ffcf44"/><path d="m8.5 10.95v36.05h-4v-34c1.31-.69 2.62-1.37 3.94-2.05.02-.01.03-.02.05-.02z" fill="#ffcf44"/><path d="m24.51 10.93-.01.02v13.05a5.00043 5.00043 0 0 0 -4-4.9v-9.64a16.93263 16.93263 0 0 1 4.01 1.47z" fill="#ffcf44"/><path d="m16.5 9v10h-3a4.71224 4.71224 0 0 0 -1 .1v-9.64a17.412 17.412 0 0 1 4-.46z" fill="#ffcf44"/><path d="m16.5 40h4v7h-4z" fill="#ffbc1c"/><path d="m8.5 40h4v7h-4z" fill="#ffbc1c"/><path d="m24.56 10.95c1.32.68 2.63 1.36 3.94 2.05v34h-4v-36.05l.01-.02c.02 0 .03.01.05.02z" fill="#ffbc1c"/><path d="m20.5 9.46v9.64a4.71224 4.71224 0 0 0 -1-.1h-3v-10a17.412 17.412 0 0 1 4 .46z" fill="#ffbc1c"/><path d="m12.5 9.46v9.64a5.00043 5.00043 0 0 0 -4 4.9v-13.05l-.01-.02a16.93263 16.93263 0 0 1 4.01-1.47z" fill="#ffbc1c"/><path d="m20.5 9.46a17.6213 17.6213 0 0 0 -8 0 16.93263 16.93263 0 0 0 -4.01 1.47c-.02 0-.03.01-.05.02-1.32.68-2.63 1.36-3.94 2.05v-9c-.33-1-.67-2-1-3h26c-.33 1-.67 2-1 3v9c-1.31-.69-2.62-1.37-3.94-2.05-.02-.01-.03-.02-.05-.02a16.93263 16.93263 0 0 0 -4.01-1.47z" fill="#ff5666"/><g fill="#f3445a"><path d="m22.5 54.999h-12a1 1 0 0 1 0-2h12a1 1 0 0 1 0 2z"/><path d="m21.5 36.999h-10a1 1 0 0 1 0-2h10a1 1 0 0 1 0 2z"/><path d="m19.499 32.999h-6a1 1 0 0 1 0-2h6a1 1 0 0 1 0 2z"/><path d="m53.5 54.999h-12a1 1 0 0 1 0-2h12a1 1 0 0 1 0 2z"/><path d="m52.5 36.999h-10a1 1 0 0 1 0-2h10a1 1 0 0 1 0 2z"/><path d="m50.499 32.999h-6a1 1 0 0 1 0-2h6a1 1 0 0 1 0 2z"/></g></svg>