<svg id="Capa_1" enable-background="new 0 0 512 512" viewBox="0 0 512 512" xmlns="http://www.w3.org/2000/svg"><g><g><path d="m146.64 138.931c-.419 0-.843-.035-1.271-.106-4.145-.697-4.753-4.688-4.056-8.834 0 0 6.128-54.921 6.134-54.955 3.084-18.115-4.968-30.182-19.597-36.774-3.833-1.727-8.129-6.568-6.648-10.502 1.482-3.934 12.835-1.704 12.835-1.704 23.198 11.425 32.08 22.486 29.569 50.171l-1.217 14.715-8.252 41.638c-.625 3.718-3.848 6.351-7.497 6.351z" fill="#c68d7a"/></g><path d="m319.799 216.861c0 114.041-124.696 159.184-152.29 169.323-.244.091-.497.173-.741.244-3.106.964-6.434.883-9.499-.244-6.246-2.295-17.256-1.231-31.275-8.187-47.915-23.772-125.994-75.755-125.994-163.982 0-74.735 51.342-135.313 114.68-135.313 10.595 0 20.845 1.695 30.578 4.871 2.446.792 1.218 4.547 3.593 5.521 3.369 1.39 10.321.102 13.538 1.847 14.533-7.855 30.69-12.239 47.719-12.239 3.982 0 7.918.24 11.795.707 40.839 4.923 70.347 37.975 87.067 79.99 6.952 17.446 10.829 36.921 10.829 57.462z" fill="#f07281"/><path d="m313.964 156.567c-.002-.005-.003-.009-.005-.014-16.725-42.01-51.215-72.22-92.055-77.143 23.641 14.351 42.494 38.118 53.029 67.094.931 2.562-.815 5.32-3.525 5.613h-.001c-34.516 6.221-65.905 26.518-88.385 57.147-21.84 29.746-33.866 67.59-33.866 106.561 0 13.103 1.434 25.93 4.264 38.426 1.483 6.547-1.953 13.213-8.095 15.922-8.255 3.641-15.179 6.299-19.33 7.824-.455.167.465-.121 0 0 14.014 6.952 25.035 11.629 31.28 13.923 3.063 1.128 6.393 1.197 9.496.237.001.002.002.004.003.007.002-.001.007-.008.01-.011.244-.076.49-.144.731-.233 27.594-10.139 157.274-63.866 157.274-177.906-.001-20.541-3.885-40.009-10.825-57.447z" fill="#eb5569"/><path d="m407.182 182.079c-12.061-1.061-20.821.136-29.193 9.483l-16.067 17.937c-10.641 11.636-22.443 11.636-33.084 0l-16.067-17.937c-8.372-9.347-23.902-10.543-35.963-9.483-55.042 9.927-97.206 66.029-97.206 133.75 0 127.613 162.394 179.708 162.394 179.708s162.394-52.096 162.394-179.708c-.002-67.721-42.166-123.823-97.208-133.75z" fill="#ffe177"/><g><path d="m407.182 182.079c-3.455-.304-6.632-.411-9.614-.206 34.696 23.265 58.102 67.263 58.102 117.717 0 112.6-126.431 166.405-156.179 177.507 24.258 12.587 42.503 18.441 42.503 18.441s162.394-52.096 162.394-179.708c0-67.722-42.164-123.824-97.206-133.751z" fill="#ffd15b"/></g><path d="m309.385 194.947 16.067 17.937c10.641 11.636 16.542 69.49 16.542 85.258 0-15.768 5.901-73.622 16.542-85.258l16.067-17.937c8.373-9.347 20.517-13.928 32.578-12.868-5.696-1.027-11.53-1.56-17.47-1.56-9.033 0-17.821 1.234-26.252 3.566-14.046 3.885-28.886 3.885-42.932 0-8.43-2.332-17.219-3.566-26.252-3.566-5.94 0-11.774.533-17.47 1.56 12.063-1.061 24.208 3.52 32.58 12.868z" fill="#ffd15b"/><g><path d="m162.389 90.942c-38.24 20.683-62.962 66.362-62.962 116.385 0 4.202-3.4 7.611-7.611 7.611-4.201 0-7.611-3.41-7.611-7.611 0-51.159 23.636-98.412 61.054-123.753 5.915 1.918 11.639 4.394 17.13 7.368z" fill="#eb5569"/></g><path d="m341.995 503.149c-.785 0-1.569-.121-2.325-.364-1.704-.547-42.201-13.724-83.293-43.052-24.326-17.361-43.751-36.796-57.734-57.765-17.686-26.52-26.653-55.501-26.653-86.139 0-78.807 54.858-142.922 122.287-142.922 9.55 0 19.065 1.292 28.281 3.841 12.715 3.516 26.158 3.516 38.874 0 9.215-2.549 18.729-3.841 28.28-3.841 67.429 0 122.287 64.114 122.287 142.922 0 30.638-8.967 59.619-26.653 86.139-13.983 20.969-33.407 40.404-57.733 57.765-41.092 29.328-81.59 42.505-83.293 43.052-.756.243-1.54.364-2.325.364zm-47.718-315.019c-59.036 0-107.064 57.285-107.064 127.699 0 50.215 26.139 94.386 77.691 131.287 33.752 24.161 68 37.157 77.092 40.375 9.087-3.217 43.337-16.213 77.091-40.375 51.552-36.901 77.691-81.073 77.691-131.287 0-70.413-48.029-127.699-107.064-127.699-8.179 0-16.329 1.107-24.223 3.29-15.371 4.251-31.62 4.25-46.989 0-7.896-2.183-16.046-3.29-24.225-3.29z" fill="#f07281"/><path d="m336.677 418.362-15.716-8.56-5.938-4.684c-38.498-30.369-38.498-88.736 0-119.105l21.654-17.081c3.118-2.46 7.517-2.46 10.635 0l21.654 17.081c34.741 28.217 34.782 85.02-3.716 115.389l-17.938 16.96c-3.118 2.46-7.516 2.46-10.635 0z" fill="#c68d7a"/><path d="m368.966 286.013c19.33 32.825 11.296 79.972-20.299 104.895l-21.654 17.081c-1.763 1.39-3.934 1.994-6.052 1.812l15.716 12.397c3.118 2.46 7.517 2.46 10.635 0l21.654-17.081c38.419-30.305 38.262-88.683 0-119.104z" fill="#bc7c63"/><g fill="#bc7c63"><circle cx="330.879" cy="309.985" r="7.611"/><circle cx="316.559" cy="334.789" r="7.611"/><circle cx="341.995" cy="335.906" r="7.611"/><circle cx="325.738" cy="380.57" r="7.611"/></g><path d="m132.989 28.43-2.447 7.821-20.642 20.804c-20.612 20.774-33.754 47.8-37.347 76.846l-2.141 17.293c-.487 3.917-5.064 5.805-8.17 3.369l-37.002-29.055c-22.175-17.415-29.614-47.709-18.014-73.405 15.822-35.094 56.071-52.002 92.221-38.748l22.824 8.383z" fill="#9be69d"/><g><path d="m135.249 31.51-4.707 4.741-29.056 2.71c-24.022 2.233-43.852 18.653-50.52 41.843-.954 3.339-3.999 5.511-7.307 5.511-.7 0-1.411-.091-2.111-.294-4.039-1.167-6.373-5.379-5.206-9.418 8.403-29.259 33.43-49.982 63.734-52.803l22.195-2.06 11.766 4.317c2.271.831 2.916 3.736 1.212 5.453z" fill="#97da7b"/></g></g><g/><g/><g/><g/><g/><g/><g/><g/><g/><g/><g/><g/><g/><g/><g/></svg>