<svg height="464pt" viewBox="-16 0 464 464.02054" width="464pt" xmlns="http://www.w3.org/2000/svg"><path d="m423.03125 294.730469c-8.441406-30.746094-7.648438-63.300781 2.289062-93.597657 7.773438-27.140624 8.898438-55.753906 3.269532-83.417968-14.070313-73.488282-66.679688-125.71875-117.511719-116.703125s-80.613281 76-66.542969 149.472656c1.230469 6.429687 2.753906 12.691406 4.558594 18.785156 8.445312 30.746094 7.648438 63.300781-2.285156 93.597657-7.777344 27.140624-8.898438 55.753906-3.273438 83.417968 14.070313 73.503906 66.679688 125.757813 117.511719 116.71875 50.832031-9.039062 80.617187-76 66.542969-149.472656-1.230469-6.457031-2.726563-12.734375-4.558594-18.800781zm0 0" fill="#ffb531"/><path d="m183.03125 294.730469c-8.441406-30.746094-7.648438-63.300781 2.289062-93.597657 7.773438-27.140624 8.898438-55.753906 3.269532-83.417968-14.070313-73.488282-66.679688-125.71875-117.511719-116.703125s-80.613281 75.96875-66.542969 149.472656c1.230469 6.429687 2.753906 12.691406 4.558594 18.785156 8.445312 30.746094 7.648438 63.300781-2.285156 93.597657-7.777344 27.140624-8.898438 55.753906-3.273438 83.417968 14.070313 73.480469 66.679688 125.710938 117.511719 116.695313s80.617187-76 66.542969-149.472657c-1.230469-6.433593-2.726563-12.710937-4.558594-18.777343zm0 0" fill="#ffb531"/><path d="m188.589844 117.730469c-2.15625-11.152344-5.296875-22.09375-9.375-32.695313-23.648438 103.105469-87.664063 192.417969-177.710938 247.929688.535156 4.40625 1.183594 8.800781 2.03125 13.296875 14.070313 73.503906 66.679688 125.734375 117.511719 116.71875s80.617187-76 66.542969-149.472657c-1.207032-6.332031-2.730469-12.597656-4.566406-18.777343-8.433594-30.75-7.636719-63.300781 2.296874-93.597657 7.773438-27.132812 8.894532-55.742187 3.269532-83.402343zm0 0" fill="#ffa912"/><path d="m76.597656 45.476562c-4.734375-4.449218-11.980468-4.855468-17.183594-.960937-22.496093 17.410156-33.046874 59.664063-24 105.480469 11.058594 55.917968 47.105469 95.886718 80.519532 89.289062 27.875-5.511718 39.464844-37.890625 42.625-62.625 3.777344-29.648437.945312-65.808594-14.757813-92.046875-14.824219-24.746093-40.425781-19.351562-61.113281-34.679687-1.96875-1.464844-4-3.066406-6.089844-4.457032zm0 0" fill="#f98500"/><path d="m74.070312 97.597656-15.65625-3.203125c1.175782-5.90625 3.03125-11.65625 5.539063-17.132812l14.484375 6.8125c-1.964844 4.328125-3.429688 8.863281-4.367188 13.523437zm0 0" fill="#ff9419"/><path d="m80.902344 196.84375c-11.15625-15.261719-18.664063-32.878906-21.941406-51.496094-2.246094-11.089844-3.148438-22.414062-2.691407-33.71875l16 .734375c-.402343 10.019531.402344 20.054688 2.402344 29.878907 2.90625 16.191406 9.382813 31.53125 18.960937 44.90625zm0 0" fill="#ff9419"/><path d="m76.597656 229.476562c-4.734375-4.449218-11.980468-4.855468-17.183594-.960937-22.496093 17.410156-33.046874 59.664063-24 105.480469 11.058594 55.917968 47.105469 95.886718 80.519532 89.289062 27.875-5.511718 39.464844-37.890625 42.625-62.625 3.777344-29.648437.945312-65.808594-14.757813-92.046875-14.824219-24.746093-40.425781-19.351562-61.113281-34.679687-1.96875-1.464844-4-3.066406-6.089844-4.457032zm0 0" fill="#f98500"/><path d="m74.070312 281.597656-15.65625-3.203125c1.175782-5.90625 3.03125-11.65625 5.539063-17.132812l14.484375 6.8125c-1.964844 4.328125-3.429688 8.863281-4.367188 13.523437zm0 0" fill="#ff9419"/><path d="m80.902344 380.84375c-11.15625-15.261719-18.664063-32.878906-21.941406-51.496094-2.246094-11.089844-3.148438-22.414062-2.691407-33.71875l16 .734375c-.402343 10.019531.402344 20.054688 2.402344 29.878907 2.90625 16.191406 9.382813 31.53125 18.960937 44.90625zm0 0" fill="#ff9419"/><path d="m428.589844 117.730469c-2.15625-11.152344-5.296875-22.09375-9.375-32.695313-23.648438 103.105469-87.664063 192.417969-177.710938 247.929688.535156 4.40625 1.183594 8.800781 2.03125 13.296875 14.070313 73.503906 66.679688 125.757812 117.511719 116.71875 50.832031-9.039063 80.617187-76 66.542969-149.472657-1.230469-6.433593-2.753906-12.691406-4.566406-18.785156-8.433594-30.75-7.636719-63.300781 2.296874-93.597656 7.769532-27.132812 8.894532-55.738281 3.269532-83.394531zm0 0" fill="#ffa912"/><g fill="#f98500"><path d="m282.277344 287.738281c-4.203125 1.347657-6.523438 5.84375-5.183594 10.050781 1.097656 3.4375 2.289062 6.621094 3.480469 9.789063 2.46875 6.03125 4.378906 12.277344 5.703125 18.65625.726562 3.765625 4.019531 6.484375 7.851562 6.488281.507813 0 1.019532-.050781 1.519532-.152344 4.339843-.835937 7.175781-5.035156 6.335937-9.375-1.484375-7.265624-3.628906-14.382812-6.402344-21.261718-1.109375-2.929688-2.214843-5.851563-3.199219-9.019532-.636718-2.035156-2.066406-3.734374-3.964843-4.707031-1.902344-.972656-4.113281-1.140625-6.140625-.46875zm0 0"/><path d="m296.0625 166.394531h-.175781c-4.402344.097657-7.898438 3.734375-7.824219 8.136719v3.03125c.148438 8.578125-.792969 17.140625-2.808594 25.480469-.722656 2.777343.09375 5.726562 2.144532 7.734375 2.050781 2.007812 5.015624 2.765625 7.777343 1.984375 2.757813-.78125 4.890625-2.980469 5.582031-5.765625 2.347657-9.621094 3.457032-19.5 3.304688-29.398438v-3.394531c-.101562-4.34375-3.65625-7.808594-8-7.808594zm0 0"/><path d="m280.0625 272.941406h.144531c4.417969-.082031 7.9375-3.726562 7.855469-8.144531v-2.457031c-.152344-8.761719.835938-17.503906 2.945312-26.007813 1.117188-4.273437-1.441406-8.644531-5.714843-9.765625-4.277344-1.117187-8.648438 1.441406-9.765625 5.71875-2.457032 9.824219-3.625 19.929688-3.464844 30.054688v2.753906c.082031 4.355469 3.640625 7.847656 8 7.847656zm0 0"/><path d="m296.289062 347.523438c-4.410156-.246094-8.183593 3.128906-8.433593 7.535156-.429688 9.535156-2.402344 18.9375-5.839844 27.839844-1.519531 4.148437.609375 8.746093 4.757813 10.265624.882812.324219 1.816406.492188 2.753906.488282 3.355468-.003906 6.351562-2.097656 7.503906-5.25 3.980469-10.367188 6.273438-21.308594 6.792969-32.40625.128906-2.125-.59375-4.210938-2.007813-5.800782-1.414062-1.589843-3.40625-2.550781-5.527344-2.671874zm0 0"/><path d="m279.839844 91.773438h.496094c4.234374.007812 7.742187-3.285157 8-7.511719.507812-9.542969 2.539062-18.9375 6.023437-27.832031 1.53125-4.148438-.585937-8.753907-4.730469-10.285157-4.148437-1.535156-8.753906.585938-10.285156 4.730469-4.019531 10.367188-6.375 21.300781-6.976562 32.402344-.28125 4.40625 3.0625 8.210937 7.472656 8.496094zm0 0"/><path d="m280.40625 106.714844c-4.34375.808594-7.210938 4.992187-6.398438 9.335937 1.496094 7.484375 3.6875 14.808594 6.550782 21.882813 1.046875 2.765625 2.089844 5.542968 3.058594 8.511718 1.503906 4.003907 5.894531 6.117188 9.960937 4.792969 4.070313-1.324219 6.375-5.613281 5.238281-9.738281-1.050781-3.199219-2.175781-6.214844-3.304687-9.214844-2.53125-6.203125-4.472657-12.632812-5.792969-19.203125-.851562-4.300781-4.992188-7.132812-9.3125-6.367187zm0 0"/><path d="m330.296875 306.667969c-4.234375 1.25-6.652344 5.695312-5.410156 9.929687 1.039062 3.566406 2.175781 6.886719 3.320312 10.207032 2.566407 6.921874 4.519531 14.054687 5.839844 21.320312.652344 3.84375 3.980469 6.660156 7.878906 6.664062.453125-.003906.902344-.039062 1.34375-.113281 4.363281-.734375 7.300781-4.863281 6.5625-9.222656-1.464843-8.125-3.636719-16.105469-6.496093-23.847656-1.066407-3.097657-2.121094-6.183594-3.105469-9.523438-1.246094-4.238281-5.695313-6.664062-9.933594-5.414062zm0 0"/><path d="m327.808594 89.820312h.511718c4.226563.007813 7.730469-3.269531 8-7.488281.601563-10.582031 2.757813-21.015625 6.398438-30.96875 1.433594-4.179687-.792969-8.734375-4.976562-10.167969-4.179688-1.433593-8.734376.792969-10.167969 4.976563-4.105469 11.300781-6.550781 23.140625-7.261719 35.144531-.140625 2.121094.574219 4.210938 1.980469 5.808594 1.40625 1.59375 3.390625 2.566406 5.515625 2.695312zm0 0"/><path d="m328.359375 107.691406c-4.359375.703125-7.324219 4.808594-6.625 9.167969 1.445313 8.414063 3.667969 16.675781 6.632813 24.679687.984374 2.882813 1.96875 5.753907 2.886718 8.800782 1.019532 3.382812 4.132813 5.699218 7.664063 5.695312.785156 0 1.5625-.113281 2.3125-.335937 4.230469-1.273438 6.628906-5.738281 5.351562-9.96875-.984375-3.261719-2.03125-6.328125-3.078125-9.398438-2.667968-7.144531-4.667968-14.519531-5.96875-22.03125-.710937-4.359375-4.816406-7.316406-9.175781-6.609375zm0 0"/><path d="m343.703125 173.410156c-4.414063.085938-7.929687 3.730469-7.847656 8.144532l.039062 3.679687c.144531 9.414063-.804687 18.808594-2.824219 28-.996093 4.308594 1.6875 8.605469 5.992188 9.601563.597656.132812 1.207031.203124 1.816406.199218 3.71875-.003906 6.945313-2.570312 7.785156-6.191406 2.28125-10.367188 3.355469-20.96875 3.199219-31.582031l-.039062-4c-.222657-4.347657-3.773438-7.777344-8.121094-7.851563zm0 0"/><path d="m327.832031 288.949219h.121094c4.417969-.066407 7.945313-3.703125 7.878906-8.121094v-2.984375c-.140625-9.628906.855469-19.242188 2.976563-28.640625.730468-2.804687-.113282-5.78125-2.207032-7.789063-2.089843-2.003906-5.101562-2.722656-7.871093-1.878906-2.773438.847656-4.867188 3.125-5.484375 5.957032-2.417969 10.605468-3.5625 21.464843-3.414063 32.34375v3.238281c.070313 4.371093 3.628907 7.875 8 7.875zm0 0"/><path d="m343.902344 372.546875c-4.394532-.214844-8.152344 3.128906-8.445313 7.519531-.519531 10.570313-2.617187 21.003906-6.226562 30.953125-1.425781 4.179688.804687 8.722657 4.984375 10.152344.832031.292969 1.703125.4375 2.585937.433594 3.417969-.003907 6.460938-2.179688 7.566407-5.417969 4.082031-11.320312 6.460937-23.179688 7.054687-35.199219.25-4.40625-3.113281-8.183593-7.519531-8.441406zm0 0"/><path d="m375.855469 108.988281h.496093c4.230469.007813 7.738282-3.28125 8-7.503906.503907-9.75 2.566407-19.355469 6.105469-28.457031 1.515625-4.148438-.621093-8.742188-4.773437-10.257813s-8.746094.621094-10.261719 4.769531c-4.070313 10.542969-6.445313 21.667969-7.039063 32.953126-.28125 4.410156 3.0625 8.214843 7.472657 8.496093zm0 0"/><path d="m385.710938 130.972656c-.789063-4.351562-4.953126-7.238281-9.304688-6.449218-4.347656.789062-7.234375 4.953124-6.445312 9.304687 1.488281 7.703125 3.699218 15.25 6.605468 22.535156 1.03125 2.769531 2.058594 5.527344 3.007813 8.496094 1.066406 3.3125 4.148437 5.554687 7.625 5.550781.832031 0 1.65625-.128906 2.449219-.382812 4.1875-1.351563 6.496093-5.835938 5.167968-10.03125-1.03125-3.199219-2.136718-6.167969-3.242187-9.152344-2.578125-6.421875-4.542969-13.078125-5.863281-19.871094zm0 0"/><path d="m376.0625 293.789062h.144531c4.417969-.078124 7.9375-3.726562 7.855469-8.144531v-2.503906c-.15625-8.953125.835938-17.890625 2.953125-26.59375 1.105469-4.277344-1.46875-8.640625-5.75-9.746094-4.277344-1.105469-8.640625 1.46875-9.746094 5.746094-2.453125 10.007813-3.613281 20.289063-3.457031 30.59375v2.785156c.074219 4.363281 3.636719 7.863281 8 7.863281zm0 0"/><path d="m378.320312 309.164062c-4.214843 1.324219-6.558593 5.816407-5.234374 10.03125 1.097656 3.496094 2.289062 6.71875 3.480468 9.960938 2.488282 6.1875 4.40625 12.585938 5.738282 19.121094.824218 4.339844 5.007812 7.191406 9.351562 6.367187 4.339844-.824219 7.191406-5.011719 6.367188-9.351562-1.492188-7.414063-3.652344-14.679688-6.449219-21.703125-1.101563-2.976563-2.207031-5.960938-3.199219-9.1875-.632812-2.03125-2.050781-3.722656-3.9375-4.707032-1.890625-.984374-4.089844-1.175781-6.117188-.53125zm0 0"/><path d="m392.0625 185.394531h-.167969c-2.125.046875-4.148437.933594-5.617187 2.472657-1.472656 1.539062-2.269532 3.601562-2.214844 5.730468l.039062 3.199219c.148438 8.730469-.792968 17.449219-2.796874 25.949219-1.070313 4.292968 1.546874 8.636718 5.839843 9.699218.632813.148438 1.28125.226563 1.933594.230469 3.675781 0 6.875-2.507812 7.761719-6.070312 2.308594-9.792969 3.390625-19.835938 3.222656-29.898438v-3.488281c-.09375-4.347656-3.648438-7.824219-8-7.824219zm0 0"/><path d="m392.277344 370.179688c-4.398438-.21875-8.15625 3.140624-8.429688 7.535156-.441406 9.746094-2.433594 19.359375-5.894531 28.480468-1.496094 4.160157.667969 8.742188 4.824219 10.238282 4.160156 1.492187 8.746094-.667969 10.238281-4.828125 3.980469-10.574219 6.273437-21.703125 6.800781-32.984375.25-4.414063-3.125-8.191406-7.539062-8.441406zm0 0"/></g></svg>