<svg id="Capa_1" enable-background="new 0 0 512 512" viewBox="0 0 512 512" xmlns="http://www.w3.org/2000/svg"><g><path d="m442.726 169.473v-1c0-4.521-1.19-8.962-3.45-12.877l-38.152-66.08h-290.249l-38.151 66.08c-2.26 3.915-3.45 8.356-3.45 12.877v1z" fill="#ffbd86"/><g><path d="m69.274 405.295v1c0 4.521 1.19 8.962 3.45 12.877l46.159 79.95c4.601 7.968 13.103 12.877 22.304 12.877h229.625c9.201 0 17.703-4.909 22.304-12.877l46.16-79.95c2.26-3.915 3.45-8.357 3.45-12.877v-1z" fill="#ffbd86"/></g><g fill="#f6a96c"><path d="m399.722 168.473v1h43.004v-1c0-4.521-1.19-8.962-3.45-12.877l-38.152-66.08h-43.004l38.152 66.08c2.26 3.914 3.45 8.356 3.45 12.877z"/><path d="m399.722 405.295v1c0 4.521-1.19 8.962-3.451 12.878l-28.613 49.559c-2.76 4.781-7.862 7.726-13.382 7.726h-248.478l13.085 22.664c4.601 7.968 13.103 12.877 22.304 12.877h229.625c9.201 0 17.703-4.909 22.304-12.877l46.16-79.95c2.26-3.915 3.45-8.357 3.45-12.877v-1z"/></g><g><path d="m145.432 406.295 30.875 105.705h159.386l30.875-105.705z" fill="#f6a96c"/></g><g><path d="m165.926 476.459 10.381 35.541h159.386l10.381-35.541z" fill="#ea9b58"/></g><g><path d="m219.195 406.295 10.278 105.705h53.054l10.277-105.705z" fill="#ffbd86"/></g><g><path d="m226.017 476.459 3.456 35.541h53.054l3.456-35.541z" fill="#f6a96c"/></g><path d="m378.746 365.229c-2.599 0-4.713-2.114-4.713-4.713v-82.266c0-2.599 2.114-4.713 4.713-4.713h63.98v-105.064h-373.453v237.823h373.453v-41.066h-63.98z" fill="#ffe177"/><g fill="#ffd15b"><path d="m399.722 168.473h43.004v105.065h-43.004z"/><path d="m399.722 365.229h43.004v41.066h-43.004z"/></g><g><path d="m416.522 90.546h-321.044c-2.845 0-5.151-2.306-5.151-5.151v-69.942c0-8.535 6.918-15.453 15.453-15.453h300.44c8.534 0 15.453 6.918 15.453 15.453v69.942c0 2.845-2.306 5.151-5.151 5.151z" fill="#62dbfb"/></g><g><path d="m416.522 90.546h-321.044c-2.845 0-5.151-2.306-5.151-5.151v-69.942c0-8.535 6.918-15.453 15.453-15.453h300.44c8.534 0 15.453 6.918 15.453 15.453v69.942c0 2.845-2.306 5.151-5.151 5.151z" fill="#62dbfb"/></g><g><path d="m334.712 224.793c-44.932-39.534-112.493-39.534-157.425 0-3.265 2.873-8.195 2.727-11.27-.348-12.384-12.384-24.768-24.768-37.153-37.153-3.372-3.372-3.222-8.733.299-11.949 71.744-65.528 181.928-65.528 253.672 0 3.521 3.216 3.671 8.577.299 11.949-12.384 12.384-24.768 24.768-37.153 37.153-3.074 3.075-8.004 3.221-11.269.348z" fill="#fff"/></g><g><path d="m382.836 175.343c-7.53-6.878-15.488-13.023-23.776-18.457-5.565 6.756-11.13 13.511-16.694 20.267-7.625 9.257-20.869 11.757-31.219 5.696-52.146-30.537-119.852-20.505-160.741 25.984l15.612 15.612c3.075 3.075 8.005 3.221 11.27.348 44.932-39.534 112.492-39.534 157.425 0 3.265 2.873 8.195 2.727 11.27-.348 12.384-12.384 24.769-24.768 37.153-37.152 3.371-3.373 3.221-8.734-.3-11.95z" fill="#f2fbff"/></g><g><path d="m442.726 272.538h-63.98c-3.155 0-5.713 2.558-5.713 5.713v82.265c0 3.155 2.558 5.713 5.713 5.713h63.98z" fill="#62dbfb"/></g><g><path d="m399.722 272.538h43.004v93.691h-43.004z" fill="#01d0fb"/></g><g><path d="m137.662 0h47.335v57.411h-47.335z" fill="#99e6fc"/></g><g><path d="m184.997 0h47.335v57.411h-47.335z" fill="#62dbfb"/></g><g><path d="m232.332 0h47.335v57.411h-47.335z" fill="#99e6fc"/></g><g><path d="m279.668 0h47.335v57.411h-47.335z" fill="#62dbfb"/></g><g><path d="m327.003 0h47.335v57.411h-47.335z" fill="#99e6fc"/></g><g><path d="m416.522 90.546h-321.044c-2.845 0-5.151-2.306-5.151-5.151v-27.984h331.346v27.984c0 2.845-2.306 5.151-5.151 5.151z" fill="#01d0fb"/></g><g><path d="m374.338 57.411v33.135h42.184c2.845 0 5.151-2.306 5.151-5.151v-27.984z" fill="#01c0fa"/></g><g><g><path d="m313.612 306.74c-6.101-7.196-14.074-11.653-22.495-13.372-11.611-2.371-20.666-11.425-23.037-23.037-1.719-8.421-6.176-16.394-13.372-22.495-14.956-12.679-37.417-12.43-52.115.547-17.431 15.39-18.051 42.026-1.86 58.216 5.861 5.861 13.091 9.518 20.66 10.971 11.301 2.169 20.315 11.184 22.484 22.484 1.453 7.569 5.109 14.799 10.971 20.66 16.191 16.191 42.826 15.57 58.216-1.86 12.978-14.697 13.227-37.157.548-52.114z" fill="#ffbd86"/></g><g><g><path d="m313.612 306.74c-5.408-6.38-12.289-10.602-19.649-12.677.767 4.022 1.184 8.169 1.184 12.415 0 25.384-14.353 47.403-35.379 58.422 16.269 11.73 39.379 9.717 53.296-6.045 12.978-14.698 13.227-37.158.548-52.115z" fill="#f6a96c"/></g></g><g><path d="m308.542 301.724c-6.944 2.994-11.807 9.895-11.807 17.937 0 10.786 8.744 19.531 19.531 19.531 2.206 0 4.32-.383 6.298-1.057 1.549-10.979-1.421-22.51-8.951-31.394-1.574-1.856-3.273-3.526-5.071-5.017z" fill="#ea9b58"/></g><g><path d="m195.176 266.092c-1.501 0-2.956.185-4.36.506-3.976 12.93-1.244 27.474 8.207 38.172 8.943-1.787 15.684-9.678 15.684-19.147 0-10.787-8.744-19.531-19.531-19.531z" fill="#f6a96c"/></g><g><path d="m266.044 329.705c0-11.095-8.994-20.089-20.089-20.089-7.547 0-14.115 4.167-17.548 10.322 7.885 3.862 13.774 11.282 15.47 20.116.638 3.325 1.727 6.575 3.216 9.681 10.563-.592 18.951-9.319 18.951-20.03z" fill="#f6a96c"/></g><g><path d="m269.525 275.173c-.607-1.555-1.103-3.168-1.444-4.841-1.719-8.421-6.176-16.394-13.372-22.495-2.579-2.186-5.385-3.979-8.332-5.398-5.613 3.563-9.349 9.816-9.349 16.957 0 11.095 8.994 20.089 20.089 20.089 4.687-.001 8.99-1.62 12.408-4.312z" fill="#f6a96c"/></g></g><g fill="#01d0fb"><path d="m138.56 306.478h-32.966c-4.143 0-7.5-3.357-7.5-7.5s3.357-7.5 7.5-7.5h32.966c4.143 0 7.5 3.357 7.5 7.5s-3.358 7.5-7.5 7.5z"/><path d="m169.465 336.354h-63.871c-4.143 0-7.5-3.357-7.5-7.5s3.357-7.5 7.5-7.5h63.871c4.143 0 7.5 3.357 7.5 7.5s-3.358 7.5-7.5 7.5z"/><path d="m169.465 366.229h-63.871c-4.143 0-7.5-3.357-7.5-7.5s3.357-7.5 7.5-7.5h63.871c4.143 0 7.5 3.357 7.5 7.5s-3.358 7.5-7.5 7.5z"/></g></g><g/><g/><g/><g/><g/><g/><g/><g/><g/><g/><g/><g/><g/><g/><g/></svg>