<svg id="Pear" enable-background="new 0 0 64 64" viewBox="0 0 64 64" xmlns="http://www.w3.org/2000/svg"><g><g><path d="m29.18224 2.13938c3.4403 1.71922 3.65558 5.43545 3.65558 5.43545s-3.10128 2.05893-6.54159.33971c-2.73092-1.36472-3.42435-3.99785-3.59362-5.01532-.04253-.25563.08132-.50346.31129-.62291.91533-.47545 3.43742-1.50164 6.16834-.13693z" fill="#80d34a"/><path d="m31.9496 16.1048c-.01103 0-.02206 0-.03309 0-.6924-.01838-1.23897-.59559-1.22181-1.28799l.05025-1.91176c.03309-5.48159 2.44361-10.15314 4.49753-12.48034.45588-.52083 1.25-.56863 1.77205-.11029.51961.45956.56863 1.25245.11029 1.77205-1.90686 2.1593-3.84312 6.35537-3.87008 10.85902l-.05025 1.93751c-.01838.68137-.57597 1.2218-1.25489 1.2218z" fill="#9e3e28"/></g><g><path d="m51.71476 48.02041c0 10.25567-6.92189 15.97959-19.71482 15.97959s-19.71471-5.72392-19.71471-15.97959c0-6.3294 3.52246-12.25264 6.18221-22.33912 2.4441-9.34174 6.1869-12.74339 13.5325-12.74339s11.08851 3.40165 13.53261 12.74339c2.65976 10.08648 6.18221 16.00972 6.18221 22.33912z" fill="#fcdd5e"/><path d="m18.63593 55.02866c-.42524 0-.83946-.21569-1.07598-.60539-1.51102-2.50244-1.51102-5.13723-1.51102-6.40194 0-1.45097.24265-3.02205.76348-4.94606.17892-.67157.86397-1.06862 1.53921-.88235.66912.18137 1.06372.87009.88235 1.53921-.46078 1.70097-.67524 3.06616-.67524 4.2892 0 1.11764 0 3.19852 1.15073 5.10292.35784.59314.16789 1.36519-.42647 1.72303-.20221.12256-.42647.18138-.64706.18138z" fill="#e0ad48"/></g></g></svg>