<svg id="color" height="512" viewBox="0 0 256 256" width="512" xmlns="http://www.w3.org/2000/svg"><path d="m78.1831 215.005c-20.3768-.1988-40.65-10.6444-49.9517-31.2732-8.0615-17.8771-8.9075-38.5446-8.9075-57.851.0006-53.16 13.0792-65.3259 36.2882-86.1024 21.4011-19.1592 23.9051-19.9874 46.22-.0322 23.2316 20.7733 36.3241 32.9592 36.3247 86.1346 0 19.3053-.846 39.9722-8.9074 57.851-9.5026 21.074-30.3387 31.4756-51.0663 31.2732z" fill="#9e7255"/><g fill="#77492a"><path d="m49.4569 45.1661c1.7429 2.7994-.01 6.4642-2.1479 8.9751s-4.8233 4.971-5.124 8.2553c-.2761 3.0116 1.5882 5.97 1.071 8.95-.485 2.793-2.8966 4.7915-4.2909 7.26-1.97 3.4864-1.81 7.859-.5006 11.6424s1.2488 6.4313 3.5605 9.7c.4839.6864-.27 12.4711.55 12.65 1.67.3626 2.8074-1.917 2.3316-3.5583s1.9034-13.2551 1.167-14.7977c-1.7542-3.6808-6.8331-9.7953-4.62-13.2194 2.2134-3.4257 5.2787-5.884 4.74-9.9263-.5457-4.096 2.3219-7.0168 2.8768-11.1112.4909-3.633 2.9681-6.9877 5.6042-9.5369 2.1323-2.062 3.8553-9.335 2.75-11.7332a72.7 72.7 0 0 0 -7.9677 6.4502z"/><path d="m70.4412 55.766a15.3863 15.3863 0 0 0 -2.2 10.6332c1.1 5.8668 5.1337 12.4674 3.6668 17.2337s0 6.6.3668 15.0331-1.8332 9.5332-1.1 15.0332-3.6664 14.3006-2.2 21.6337 4.7668 11.7337 4.4 17.6 2.2 13.5663 4.0331 13.5663.7336-17.2326-1.8331-24.5663-3.3-9.5337-1.4668-14.6668-.3668-12.1006 0-17.9669 3.3-8.4337 1.4668-13.2 1.4663-9.5332.7331-13.9332-3.6664-3.6668-2.9331-12.1-1.1004-2.9331-2.9336-14.3z"/><path d="m84.3749 36.6992s0 6.2332 3.3 17.6 1.1 15.4 1.1 15.4a42.7459 42.7459 0 0 0 1.8331 8.8c1.4668 4.4-1.8327 4.7669-.3664 11.3669s3.3 6.6 3.3 18.3332 4.4 9.5331 4.4 4.0331a108.9887 108.9887 0 0 0 -2.2-19.8c-1.1-4.4 3.3-10.2663 1.1-17.2331s-5.1335-10.6333-5.1335-17.2333-1.4664-12.1005-2.9331-15.0337a35.4621 35.4621 0 0 0 -4.4001-6.2331z"/><path d="m46.2256 142.1751c-.4582-6.007-.897-13.0866 6.1918-13.9063 2.0539 4.6057-2.5706 6.599-2.3988 10.9286.1048 2.6415 2.6748 6.0613 3.2936 8.8005.7783 3.4493.4 6.9932 1.6683 10.47 1.2547 3.44 3.0186 5.2433 3.517 9.72-5.6585 3.9741 1.4341 13.6415-2.9724 20.02.4479 1.7875-.1026 3.7743.2556 5.5773a1.697 1.697 0 0 1 -.9936.3212c-2.9053-5.9968-3.7781-16.22-2.8687-22.7939 1.0227-7.3858.3647-11.6945-2.8627-18.6522-2.1377-.4109-3.0615-2.6281-3.1-5.33z"/><path d="m114.7393 129.71c4.5354-2.0808 6.8267-4.7985 8.185-9.7431-.5941-.0569 3.6083-1.0689-2.2064-15.5746-1.6312-5.579-3.8538-5.898-1.9051-18.4884s.3491-18.0808-5.3437-23.939-2.077 6.0854-2.2381 9.0723c6.4206 3.4407 2.8928 10.7132 3.3918 16.5623.3222 3.7839.02 7.6431.5822 11.4082.1322.87 4.1465 14.1259 4.3517 14.156-2.13-.3153-.1182 10.36-1.1623 10.8867a6.529 6.529 0 0 0 -3.5132 3.9257z"/></g><path d="m224.829 135.0385-8.91 7.74c.7369-5.2787.2788-9.8974-1.4615-13.5722l3.8011-3.8022a5.0718 5.0718 0 0 0 -.02-7.42 5.25 5.25 0 0 0 -7.0828.5715l-3.6749 3.6738c-3.6185-1.7134-8.1528-2.1844-13.3316-1.4953l7.613-8.7624c2.2806-2.6243 1.7547-6.5565-1.1676-7.8773-17.5673-7.9385-59.4951 27.3415-74.9515 44.41-21.7771 24.0491-29.179 48.451-13.7232 65.01.4458.4775 8.5406-.6059 10.2 1.0528 1.7 1.7.2852 9.4617.2852 9.4617 16.5671 16.5671 41.4116 9.2947 65.8909-12.8718 17.0688-15.4564 52.3488-57.3843 44.41-74.951-1.3207-2.9223-5.2523-3.4482-7.8771-1.1676z" fill="#dd7830"/><path d="m201.3552 120.5774-58.1561 58.1566a2.65 2.65 0 0 1 -3.6921.3507l-.181-.181a2.18 2.18 0 0 1 -.5941-1.6489 3.1143 3.1143 0 0 1 .9421-2.0459l54.479-54.479 7.6092-8.7581a5.2 5.2 0 0 0 .2369-6.8654l-66.2137 66.2136a8.5939 8.5939 0 0 0 -2.5475 5.6826 7.5838 7.5838 0 0 0 2.1968 5.7874l.18.18a7.5548 7.5548 0 0 0 5.4081 2.2086q.19 0 .3819-.0091a8.5968 8.5968 0 0 0 5.6826-2.5475l60.3927-60.392a19.0292 19.0292 0 0 0 -6.1248-1.6526z" fill="#ab570e"/><path d="m159.5068 203.2723a8.588 8.588 0 0 0 5.6729-2.5384l66.5527-65.8963a5.1912 5.1912 0 0 0 -6.9034.2009l-8.91 7.74.0032-.0263-54.6219 54.0832a3.1143 3.1143 0 0 1 -2.0458.9421 2.1757 2.1757 0 0 1 -1.65-.5941 2.6525 2.6525 0 0 1 .3481-3.6953l58.156-58.1555a19.0216 19.0216 0 0 0 -1.6516-6.1257l-60.3927 60.3931a8.1337 8.1337 0 0 0 -.348 11.4726 7.5547 7.5547 0 0 0 5.4081 2.2086c.1267-.0002.2546-.0029.3824-.0089z" fill="#ab570e"/><path d="m104.002 148.504h77.87v5.499h-77.87z" fill="#ab570e" transform="matrix(.707 -.707 .707 .707 -65.087 145.372)"/><path d="m147.001 190.726h77.871v5.499h-77.871z" fill="#ab570e" transform="matrix(.707 -.707 .707 .707 -82.348 188.145)"/></svg>