<svg id="Layer_1" enable-background="new 0 0 500 500" viewBox="0 0 500 500" xmlns="http://www.w3.org/2000/svg" xmlns:xlink="http://www.w3.org/1999/xlink"><filter id="Adobe_OpacityMaskFilter" filterUnits="userSpaceOnUse" height="115.338" width="448.366" x="25" y="264.305"><feFlood flood-color="#fff" result="back"/><feBlend in="SourceGraphic" in2="back" mode="normal"/></filter><linearGradient id="SVGID_1_" gradientUnits="userSpaceOnUse" x1="240.276" x2="257.463" y1="102.303" y2="437.445"><stop offset=".1865" stop-color="#ffeaa8"/><stop offset="1" stop-color="#ffbd7d"/></linearGradient><linearGradient id="lg1"><stop offset="0" stop-color="#ffdab5"/><stop offset="1" stop-color="#ffb66e"/></linearGradient><linearGradient id="SVGID_2_" gradientUnits="userSpaceOnUse" x1="265.933" x2="242.74" xlink:href="#lg1" y1="380.651" y2="246.766"/><linearGradient id="SVGID_3_" gradientUnits="userSpaceOnUse" x1="340.519" x2="261.89" xlink:href="#lg1" y1="488.857" y2="328.322"/><mask id="SVGID_4_" height="115.338" maskUnits="userSpaceOnUse" width="448.366" x="25" y="264.305"><g filter="url(#Adobe_OpacityMaskFilter)"><path d="m382.301 176.435c19.108-2.608 24.424-10.495 25.537-16.618-2.705 8.974-46.686 20.345-69.324 11.773-.001 0 11.017 9.317 43.787 4.845z" fill="url(#SVGID_5_)" mask="url(#SVGID_4_)"/></g></mask><filter id="Adobe_OpacityMaskFilter_1_" filterUnits="userSpaceOnUse" height="17.833" width="69.324" x="338.513" y="159.817"><feFlood flood-color="#fff" result="back"/><feBlend in="SourceGraphic" in2="back" mode="normal"/></filter><mask id="SVGID_4_" height="17.833" maskUnits="userSpaceOnUse" width="69.324" x="338.513" y="159.817"><g filter="url(#Adobe_OpacityMaskFilter_1_)"/></mask><linearGradient id="lg2"><stop offset="0"/><stop offset=".9703" stop-color="#fff"/></linearGradient><linearGradient id="SVGID_5_" gradientUnits="userSpaceOnUse" x1="387.297" x2="375.14" xlink:href="#lg2" y1="194.536" y2="169.714"/><linearGradient id="lg3"><stop offset="0" stop-color="#f1edff"/><stop offset=".9703" stop-color="#fff"/></linearGradient><linearGradient id="SVGID_6_" gradientUnits="userSpaceOnUse" x1="340.52" x2="261.89" xlink:href="#lg3" y1="488.857" y2="328.322"/><filter id="Adobe_OpacityMaskFilter_2_" filterUnits="userSpaceOnUse" height="220.094" width="447.972" x="25" y="120.356"><feFlood flood-color="#fff" result="back"/><feBlend in="SourceGraphic" in2="back" mode="normal"/></filter><mask id="SVGID_7_" height="220.094" maskUnits="userSpaceOnUse" width="447.972" x="25" y="120.356"><g filter="url(#Adobe_OpacityMaskFilter_2_)"><path d="m375.513 142.63c26.797-6.364 32.263 11.169 32.263 11.169-.227-1.149-.495-1.837-.495-1.837s-4.084-17.89-33.814-13.79-34.954 33.419-34.954 33.419 10.203-22.597 37-28.961z" fill="url(#SVGID_8_)" mask="url(#SVGID_7_)"/></g></mask><filter id="Adobe_OpacityMaskFilter_3_" filterUnits="userSpaceOnUse" height="34.03" width="69.263" x="338.513" y="137.56"><feFlood flood-color="#fff" result="back"/><feBlend in="SourceGraphic" in2="back" mode="normal"/></filter><mask id="SVGID_7_" height="34.03" maskUnits="userSpaceOnUse" width="69.263" x="338.513" y="137.56"><g filter="url(#Adobe_OpacityMaskFilter_3_)"/></mask><linearGradient id="SVGID_8_" gradientUnits="userSpaceOnUse" x1="371.909" x2="369.098" xlink:href="#lg2" y1="154.816" y2="136.897"/><linearGradient id="SVGID_9_" gradientUnits="userSpaceOnUse" x1="240.994" x2="222.814" xlink:href="#lg3" y1="231.963" y2="116.068"/><filter id="Adobe_OpacityMaskFilter_4_" filterUnits="userSpaceOnUse" height="126.799" width="276.846" x="86.481" y="132.158"><feFlood flood-color="#fff" result="back"/><feBlend in="SourceGraphic" in2="back" mode="normal"/></filter><mask id="SVGID_10_" height="126.799" maskUnits="userSpaceOnUse" width="276.846" x="86.481" y="132.158"><g filter="url(#Adobe_OpacityMaskFilter_4_)"><path d="m351.02 150.813c-8.507 8.914 2.239 12.336 17.647.965s22.157-8.058 22.157-8.058-20.174-13.477-39.804 7.093z" fill="url(#SVGID_11_)" mask="url(#SVGID_10_)"/></g></mask><filter id="Adobe_OpacityMaskFilter_5_" filterUnits="userSpaceOnUse" height="19.605" width="42.805" x="348.019" y="139.385"><feFlood flood-color="#fff" result="back"/><feBlend in="SourceGraphic" in2="back" mode="normal"/></filter><mask id="SVGID_10_" height="19.605" maskUnits="userSpaceOnUse" width="42.805" x="348.019" y="139.385"><g filter="url(#Adobe_OpacityMaskFilter_5_)"/></mask><linearGradient id="SVGID_11_" gradientUnits="userSpaceOnUse" x1="373.645" x2="368.741" xlink:href="#lg2" y1="165.837" y2="147.622"/><linearGradient id="SVGID_12_" gradientUnits="userSpaceOnUse" x1="252.219" x2="220.5" xlink:href="#lg3" y1="303.245" y2="185.433"/><filter id="Adobe_OpacityMaskFilter_6_" filterUnits="userSpaceOnUse" height="46.193" width="75.25" x="365.858" y="149.365"><feFlood flood-color="#fff" result="back"/><feBlend in="SourceGraphic" in2="back" mode="normal"/></filter><mask id="SVGID_13_" height="46.193" maskUnits="userSpaceOnUse" width="75.25" x="365.858" y="149.365"><g filter="url(#Adobe_OpacityMaskFilter_6_)"><path d="m391.293 143.205c-1.085 2.839 9.574 8.426 11.373 4.793 1.798-3.634-10.107-8.106-11.373-4.793z" fill="url(#SVGID_14_)" mask="url(#SVGID_13_)"/></g></mask><filter id="Adobe_OpacityMaskFilter_7_" filterUnits="userSpaceOnUse" height="7.142" width="11.635" x="391.215" y="142.045"><feFlood flood-color="#fff" result="back"/><feBlend in="SourceGraphic" in2="back" mode="normal"/></filter><mask id="SVGID_13_" height="7.142" maskUnits="userSpaceOnUse" width="11.635" x="391.215" y="142.045"><g filter="url(#Adobe_OpacityMaskFilter_7_)"/></mask><linearGradient id="SVGID_14_" gradientUnits="userSpaceOnUse" x1="393.257" x2="398.059" xlink:href="#lg2" y1="152.157" y2="143.682"/><linearGradient id="SVGID_15_" gradientUnits="userSpaceOnUse" x1="379.062" x2="410.123" xlink:href="#lg3" y1="214.765" y2="159.951"/><g><path d="m25 340.45s33.788-189.629 226.071-216.146c192.284-26.515 218.7 89.19 218.7 89.19s50.375 129.366-161.567 158.292c-211.943 28.928-283.204-31.336-283.204-31.336z" fill="url(#SVGID_1_)"/><path d="m308.203 371.788c211.942-28.926 161.567-158.293 161.567-158.293s-.203-.841-.634-2.251c-27.404-3.968-55.339-5.785-82.751-4.988-220.788 6.422-361.385 134.194-361.385 134.194s71.261 60.264 283.203 31.338z" fill="url(#SVGID_2_)" opacity=".2"/><path d="m308.203 371.788c123.58-16.866 157.963-67.876 165.163-107.482-178.325 80.191-448.366 76.144-448.366 76.144s71.261 60.264 283.203 31.338z" fill="url(#SVGID_3_)" opacity=".2"/><path d="m308.203 371.788c123.581-16.866 157.964-67.876 165.163-107.482v.001c-17.497 58.041-301.952 131.586-448.366 76.143 0 0 71.261 60.264 283.203 31.338z" fill="url(#SVGID_6_)" opacity=".3"/><path d="m264.305 153.146c173.316-41.161 208.665 72.235 208.665 72.235l.002-.001c-1.47-7.429-3.202-11.884-3.202-11.884s-26.416-115.706-218.7-89.19c-192.282 26.515-226.07 216.144-226.07 216.144s65.989-146.143 239.305-187.304z" fill="url(#SVGID_9_)" opacity=".3"/><path d="m105.886 206.072c-55.02 57.654 14.484 79.783 114.134 6.239 99.651-73.543 143.307-52.117 143.307-52.117s-130.481-87.16-257.441 45.878z" fill="url(#SVGID_12_)" opacity=".3"/><path d="m366.359 156.867c-7.019 18.364 61.924 54.497 73.556 30.998 11.63-23.499-65.365-52.425-73.556-30.998z" fill="url(#SVGID_15_)" opacity=".3"/></g></svg>