<svg id="Flat" height="512" viewBox="0 0 64 64" width="512" xmlns="http://www.w3.org/2000/svg"><path d="m15.674 8.161a6.679 6.679 0 0 0 -4.063 4.763c-.933 3.86-.762 11.341 9.6 20.138a19.922 19.922 0 0 0 6.056 3.578 10.362 10.362 0 0 0 4.291.763s2.559-.527.158-3.6c-2.306-2.948-6.775-11.7-8.484-20.634a7.784 7.784 0 0 0 -1.391-3.291 5.381 5.381 0 0 0 -6.167-1.717z" fill="#f93232"/><path d="m15.6 13.958a27.969 27.969 0 0 1 -1.087-10.52l.054-.612a2 2 0 0 1 2.166-1.818 2 2 0 0 1 1.819 2.166 30.728 30.728 0 0 0 .166 6.826z" fill="#599f57"/><path d="m15.674 8.161a5.382 5.382 0 0 1 6.171 1.72 7.793 7.793 0 0 1 1.391 3.292c.116.606.247 1.211.387 1.813a5.8 5.8 0 0 1 -4.673-2.4s.415 3.445-1.191 4.759c-1.959-.685-2.748-4.065-2.748-4.065a5.755 5.755 0 0 1 -3.706 3.9 13.35 13.35 0 0 1 .306-4.254 6.679 6.679 0 0 1 4.063-4.765z" fill="#599f57"/><path d="m59.633 17.285a8.345 8.345 0 0 1 3.367 7.065c-.121 4.962-2.748 13.94-18.11 21.207a24.9 24.9 0 0 1 -8.47 2.362 12.983 12.983 0 0 1 -5.429-.467s-2.918-1.464.973-4.393c3.736-2.813 11.963-11.934 16.917-22.169a9.755 9.755 0 0 1 2.744-3.524 6.727 6.727 0 0 1 8.008-.081z" fill="#ea2424"/><path d="m58.742 16.751a6.731 6.731 0 0 0 -7.117.615 9.755 9.755 0 0 0 -2.744 3.524c-4.954 10.235-13.181 19.356-16.92 22.169-2.334 1.757-2.215 2.983-1.748 3.686 4.533-1.114 20.719-6.66 28.529-29.994z" fill="#f93232"/><path d="m60.57 6a2 2 0 0 0 -2 2 30.811 30.811 0 0 1 -1.581 9.743l-.419 1.257h4a27.968 27.968 0 0 0 2-10.385v-.615a2 2 0 0 0 -2-2z" fill="#599f57"/><path d="m59.633 17.285a6.727 6.727 0 0 0 -8.008.081 9.755 9.755 0 0 0 -2.744 3.524c-.336.694-.69 1.382-1.053 2.064a7.25 7.25 0 0 0 6.417-1.384s-1.616 4.025-.1 6.132c2.587-.194 4.632-4.019 4.632-4.019a7.19 7.19 0 0 0 3.215 5.9 16.633 16.633 0 0 0 1.008-5.233 8.345 8.345 0 0 0 -3.367-7.065z" fill="#599f57"/><path d="m5.535 35.777a8.346 8.346 0 0 0 -2.086 7.541c.981 4.866 5.127 13.251 21.517 17.741a24.906 24.906 0 0 0 8.752.854 12.98 12.98 0 0 0 5.265-1.4s2.62-1.949-1.721-4.157c-4.17-2.122-13.856-9.676-20.512-18.894a9.748 9.748 0 0 0 -3.315-2.995 6.727 6.727 0 0 0 -7.9 1.31z" fill="#ea2424"/><path d="m6.32 35.1a6.731 6.731 0 0 1 7.115-.631 9.748 9.748 0 0 1 3.315 2.991c6.656 9.218 16.342 16.772 20.512 18.894 2.6 1.325 2.7 2.553 2.362 3.326-4.658-.31-21.561-2.961-33.304-24.58z" fill="#f93232"/><g fill="#599f57"><path d="m2.653 24.826a2 2 0 0 1 2.317 1.622 30.81 30.81 0 0 0 3.249 9.321l.631 1.164-3.94.7a27.98 27.98 0 0 1 -3.773-9.88l-.106-.606a2 2 0 0 1 1.622-2.321z"/><path d="m5.535 35.777a6.725 6.725 0 0 1 7.9-1.312 9.748 9.748 0 0 1 3.315 2.995q.678.938 1.4 1.85a7.251 7.251 0 0 1 -6.561-.25s2.29 3.684 1.165 6.022c-2.582.258-5.26-3.154-5.26-3.154a7.189 7.189 0 0 1 -2.145 6.372 16.622 16.622 0 0 1 -1.9-4.981 8.346 8.346 0 0 1 2.086-7.542z"/></g></svg>