<?xml version="1.0" encoding="UTF-8"?>
<svg xmlns="http://www.w3.org/2000/svg" viewBox="0 0 512 512" width="512" height="512"><path d="M243.921,409.128l-1.089-1.878-2.125.448a89.67,89.67,0,0,1-18.489,1.968c-39.221,0-66.385-27.431-76.175-39.115l24.727,1.815-4.483-5.419a153.451,153.451,0,0,1-13.705-19.809c-10.474-17.765-13.538-32.593-14.264-41.9a59.131,59.131,0,0,1,.28-12.677l24.783,11-5.695-8.579c-.12-.18-12.1-18.581-16.694-49.208-3.508-23.39.842-45.408,3.137-54.643L166.5,211.213l-1.058-8.044c-.026-.194-2.138-17.543,4.234-42.782-25.561-7.071-43.419-6.206-43.419-6.206l-.954,27.649s-13.921-12.278-46.17-9.95C36.779,174.939,10.4,188.548,10.4,188.548s-6.123,29.049,2.166,70.7c6.311,31.711,21.843,41.875,21.843,41.875L8,309.377s4.22,18.884,19.2,43c15.2,24.475,38.272,41.062,38.272,41.062L40.56,396.43s18.051,23.24,39.329,36.376c25.871,15.973,46.56,18.088,46.56,18.088L106.938,464.4s22.973,13.845,51.328,16.229,46.987-4.471,46.987-4.471l-11.032,14.477s19.793,11.421,54.852.607a137.86,137.86,0,0,0,20.269-7.9h0L262.819,504s37.714-14.241,52.49-50.361C292.541,450.935,262.366,440.915,243.921,409.128Z" style="fill: #4ba55a"/><g><path d="M152.025,377.158a175.419,175.419,0,0,1-29.743,6.934c-14.617,2.062-31.948,2.636-32.121,2.641a8,8,0,0,0,.25,16c.087,0,.173,0,.26,0,.742-.024,18.353-.605,33.846-2.79a195.717,195.717,0,0,0,41.266-10.581A124.534,124.534,0,0,1,152.025,377.158Z" style="fill: #2d873c"/><path d="M137.41,295.391l.836.637c.091-1.339.217-2.508.352-3.472l24.783,11-5.695-8.579a74.265,74.265,0,0,1-3.983-7.287l-6.595-5.026c.177-2.466.37-5.827.481-9.825a152.925,152.925,0,0,1-6.6-27.07,135.167,135.167,0,0,1-.449-34.157c-1.355-5.876-2.2-9.1-2.258-9.33a8,8,0,0,0-15.475,4.065c.024.092,2.454,9.392,5.766,25.589,2.837,13.878,3.249,28.473,3.035,38.919L98.182,245.383a165.406,165.406,0,0,0-2.712-19.578c-3.411-16.68-5.863-26.058-5.966-26.449a8,8,0,0,0-15.475,4.065c.024.092,2.453,9.392,5.765,25.59.186.906.361,1.83.53,2.765L33.3,195.943a8,8,0,1,0-9.7,12.726l47,35.815c-.931.083-1.876.182-2.784.243-16.5,1.1-26.107,1.228-26.2,1.229a8,8,0,0,0,.092,16H41.8c.405,0,10.1-.128,27.084-1.265a165.2,165.2,0,0,0,19.6-2.58l33.428,25.472c-10.015,2.979-24.2,6.454-38.33,7.4-16.494,1.105-26.1,1.229-26.2,1.231a8,8,0,0,0,.091,16h.094c.4,0,10.1-.127,27.084-1.264C106.854,305.459,128.447,298.566,137.41,295.391Z" style="fill: #2d873c"/><path d="M222.218,409.666a83.51,83.51,0,0,1-11.593-.82,235.162,235.162,0,0,1-39.366,19.514c-8.012,3.087-18.853,5.1-24.6,6.03a8,8,0,0,0,1.264,15.9,8.115,8.115,0,0,0,1.283-.1c7.775-1.254,18.91-3.468,27.808-6.9a241.453,241.453,0,0,0,63.01-35.456A89.5,89.5,0,0,1,222.218,409.666Z" style="fill: #2d873c"/><path d="M149.966,342.453a112.4,112.4,0,0,1-6.56-14.635,147.451,147.451,0,0,1-29.425,8.6c-26.823,4.6-42.112,4.191-42.478,4.177a8,8,0,0,0-.577,15.99c.128,0,.811.026,2.03.026,5.232,0,20.332-.413,43.728-4.423A164.849,164.849,0,0,0,149.966,342.453Z" style="fill: #2d873c"/><path d="M263.973,432.915c-3.639,3.057-7.6,6.156-12.03,9.362-9.114,6.6-20.6,11.468-26.639,13.783A8,8,0,1,0,231.032,471c6.768-2.6,19.7-8.094,30.295-15.763,6.225-4.507,11.609-8.813,16.451-13.073A86.323,86.323,0,0,1,263.973,432.915Z" style="fill: #2d873c"/></g><path d="M432.952,377.134c26.838-17.72,42.111-43.866,42.111-43.866l-26.7-2.8s19.378-13.3,36.371-43.122c13.976-24.526,19.262-57.3,19.262-57.3l-26.335,10.535s13.884-28.915,15.668-61.367c1.757-31.977-4.314-52.95-4.314-52.95L458.337,132.4s9.888-18.473-1.075-53.271C442.862,33.428,421.009,8,421.009,8s-33.569.826-77.255,20.746C310.493,43.912,303.35,63.6,303.35,63.6L287.386,36.761S267.7,46.3,245.053,69.005c-22.982,23.041-35.229,52.683-35.229,52.683l-9.779-26.566s-20.878,25.854-29.795,52.626c-10.842,32.551-7.781,55.813-7.781,55.813l-19.95-17.911s-9.255,28.818-4.493,60.565,17.16,50.421,17.16,50.421l-18.809-8.349s-7.415,24.7,13.62,60.374a155.459,155.459,0,0,0,13.979,20.2h0l-24.439-1.794s38.5,56.933,101.791,43.568c32.4,55.844,100.585,46.267,100.585,46.267l-17.694-16.909h0a156.4,156.4,0,0,0,24.4-3.161c40.658-8.292,54.093-30.316,54.093-30.316l-18.809-8.349S406.115,394.854,432.952,377.134Z" style="fill: #87e196"/><path d="M460.75,251.767A8,8,0,0,0,450,248.234c-.176.089-17.732,8.935-33.41,14.835-44.652,16.8-87.129,13.613-105.55,10.974l16.808-37.663c2.46.1,5.62.187,9.344.187,15.972,0,42.195-1.561,66.895-10.03,31.205-10.7,46.936-19.958,47.59-20.347a8,8,0,0,0-8.164-13.76c-.148.088-15.164,8.873-44.616,18.972-23.614,8.1-49.5,9.244-63.973,9.122l17.365-38.911c10.2-1.617,35.75-6.447,58.906-17.152,17.446-8.066,27.1-13.181,27.506-13.4a8,8,0,0,0-7.5-14.131c-.1.05-9.719,5.144-26.717,13C389,157.1,371.93,161.458,360.207,163.877l20.334-45.566a186.9,186.9,0,0,0,21.171-8.163c17.446-8.065,27.1-13.181,27.507-13.395a8,8,0,0,0-7.5-14.131c-.095.05-9.719,5.145-26.717,13q-2.6,1.2-5.383,2.354l30.451-68.235a8,8,0,1,0-14.611-6.52L374.981,91.51q-1-2.835-1.855-5.579c-5.522-17.854-8.168-28.394-8.193-28.5a8,8,0,0,0-15.524,3.875c.11.441,2.763,11.023,8.432,29.351a185.914,185.914,0,0,0,8.084,21.143l-20.35,45.6c-6.044-10.3-14.225-25.879-19.257-42.147-5.522-17.854-8.168-28.394-8.193-28.5A8,8,0,0,0,302.6,90.632c.11.441,2.763,11.023,8.432,29.351,7.519,24.31,21.013,46.469,26.642,55.122L320.3,214.042c-9.772-10.634-26.254-30.584-36.033-53.516-12.169-28.536-15.683-45.532-15.726-45.749a8,8,0,0,0-15.691,3.133c.149.745,3.782,18.6,16.7,48.892,12.605,29.559,34.567,53.785,43.684,63.075l-16.816,37.682c-14.287-11.874-45.108-41.217-62.482-85.561-6.1-15.564-11.258-34.492-11.309-34.681a8,8,0,1,0-15.441,4.19c.218.806,5.431,19.938,11.853,36.327,20.346,51.931,56.828,84.091,70.614,94.882l-16.41,36.772a182.848,182.848,0,0,1-19.991-13.329c-14.208-10.8-35.315-29.745-55.177-58.689-5.535-8.066-10.613-19.519-13.146-25.627a8,8,0,1,0-14.78,6.13c3.388,8.166,8.693,19.748,14.733,28.55,32.263,47.016,67.542,69.784,81.805,77.658l-16.24,36.39A204.621,204.621,0,0,1,203.95,339.86c-13.518-11.629-24.608-29.363-24.819-29.7a8,8,0,0,0-13.609,8.412c.5.815,12.5,20.093,28,33.419a219.306,219.306,0,0,0,50.4,33.2l-6.6,14.8a8,8,0,1,0,14.612,6.521l6.617-14.828a219.761,219.761,0,0,0,58.494,15.141,118.565,118.565,0,0,0,14.687.852A178.676,178.676,0,0,0,360.66,405.2a8,8,0,0,0-2.866-15.741c-.208.038-20.954,3.734-38.752,1.489a204.976,204.976,0,0,1-53.973-13.886l16.239-36.388c11.643,4.006,37.715,11.237,74.278,11.237a289.683,289.683,0,0,0,38.343-2.586c10.6-1.415,22.772-5.234,31.12-8.188a8,8,0,0,0-5.339-15.084c-6.248,2.212-18.18,6.115-27.9,7.413-51.488,6.874-89.194-2.689-103.937-7.5l16.4-36.746a223.527,223.527,0,0,0,37.6,3.058,229.039,229.039,0,0,0,80.353-14.229c16.5-6.211,34.244-15.152,34.991-15.529A8,8,0,0,0,460.75,251.767Z" style="fill: #69c378"/></svg>
