<svg height="512" viewBox="0 0 512 512" width="512" xmlns="http://www.w3.org/2000/svg"><g id="Flat"><path d="m448 184 40 16v-48l-40 16z" fill="#cb4408"/><path d="m456 176a55.993 55.993 0 0 1 -56 56h-320v-112h320a55.976 55.976 0 0 1 56 56z" fill="#cb4408"/><circle cx="80" cy="176" fill="#e05114" r="56"/><path d="m48 144h16v16h-16z" fill="#e46526"/><path d="m56 192h16v16h-16z" fill="#e46526"/><path d="m96 168h16v16h-16z" fill="#e46526"/><path d="m192 120h128v112h-128z" fill="#f5a12c"/><path d="m296 146.4c0 34.023-17.913 61.6-40 61.6s-40-27.577-40-61.6a89.714 89.714 0 0 1 3.85-26.4h72.3a89.714 89.714 0 0 1 3.85 26.4z" fill="#914616"/><path d="m456 176a55.709 55.709 0 0 1 -3.13 18.48c-7.24 6.94-18.86 13.52-36.87 13.52v-16c20 0 28.39-10.91 31.21-15.98-2.87-5.13-11.29-16.02-31.21-16.02v-16c18.01 0 29.63 6.58 36.87 13.52a55.709 55.709 0 0 1 3.13 18.48z" fill="#bf3e02"/><circle cx="416" cy="336" fill="#e05114" r="56"/><circle cx="360" cy="336" fill="#d14809" r="56"/><circle cx="304" cy="336" fill="#e05114" r="56"/><circle cx="248" cy="336" fill="#d14809" r="56"/><circle cx="192" cy="336" fill="#e05114" r="56"/><circle cx="136" cy="336" fill="#d14809" r="56"/><circle cx="80" cy="336" fill="#e05114" r="56"/><g fill="#e46526"><path d="m48 304h16v16h-16z"/><path d="m56 352h16v16h-16z"/><path d="m96 328h16v16h-16z"/><path d="m208 344h16v16h-16z"/><path d="m312 336h16v16h-16z"/><path d="m424 352h16v16h-16z"/><path d="m432 304h16v16h-16z"/></g><path d="m152 312h16v16h-16z" fill="#e05114"/><path d="m256 304h16v16h-16z" fill="#e05114"/><path d="m376 320h16v16h-16z" fill="#e05114"/></g></svg>