<svg id="Capa_1" enable-background="new 0 0 512 512" viewBox="0 0 512 512" xmlns="http://www.w3.org/2000/svg"><g><path d="m154.764 0v63.739l49.338 10.001 20.002-41.87-20.002-31.87z" fill="#404a7f"/><path d="m253.441 0h-49.339v73.74l49.339-10.001z" fill="#283366"/><path d="m154.764 63.739v75.319c-14.052 14.052-25.802 29.976-35.01 47.185l84.348 62.874 20.001-131.391-20.001-53.987z" fill="#fff5f5"/><path d="m289.531 188.317c-9.364-18.002-21.476-34.645-36.09-49.259v-75.319h-49.338v185.378z" fill="#ebe5f1"/><path d="m312.178 346.075-108.076-48.295v160.482l108.076-10.001z" fill="#99503d"/><path d="m96.027 346.075v102.186l108.075 10.001v-160.482z" fill="#c6715a"/><path d="m203.914 187.419c-23.105-10.554-60.024-10.943-84.16-1.176-15.418 28.813-23.706 61.228-23.726 94.5l108.074 10.001 10.001-46.936-10.001-56.304z" fill="#c6715a"/><path d="m289.531 188.317c-24.102 10.225-61.787 9.988-85.24-.726l-.188-.086v103.239l108.074-10.001c-.02-32.478-7.929-64.135-22.646-92.426z" fill="#99503d"/><path d="m96.027 512h108.075l10.001-29.298-10.001-34.441h-108.075z" fill="#99503d"/><path d="m204.102 448.261h108.076v63.739h-108.076z" fill="#804231"/><path d="m96.028 280.743c0 .04-.001.08-.001.119v65.212h42.948c13.288 22.08 37.48 36.854 65.128 36.854l20.001-70.497-20.001-31.69h-108.075z" fill="#ffee94"/><path d="m269.23 346.075h42.948v-65.212c0-.04-.001-.08-.001-.119h-108.075v102.186c27.648 0 51.84-14.775 65.128-36.855z" fill="#fed27d"/><g><path d="m386.776 498.434c-18.087 18.087-47.413 18.087-65.5 0s-18.087-47.413 0-65.5 69.948-40.622 88.035-22.535-4.448 69.948-22.535 88.035z" fill="#fed27d"/><path d="m358.494 465.684c0 25.579-20.736 46.316-46.316 46.316s-46.316-20.736-46.316-46.316 20.736-78.185 46.316-78.185 46.316 52.606 46.316 78.185z" fill="#ffee94"/></g></g><g/><g/><g/><g/><g/><g/><g/><g/><g/><g/><g/><g/><g/><g/><g/></svg>