<svg id="Flat" viewBox="0 0 512 512" xmlns="http://www.w3.org/2000/svg"><path d="m208.341 40.555c7.463 7.43 21.643 13.615 22.461 30.693a.937.937 0 0 0 1.4.769c.935-.531 2.331-1.3 4.125-2.234a8.534 8.534 0 0 1 10.51 2.146c5.368 6.5 13.508 18.329 13.138 29.877a.945.945 0 0 0 1.59.713 33.361 33.361 0 0 1 4.054-3.2 8.574 8.574 0 0 1 11.168 1.46c5.5 6.2 14.108 18.409 12.858 33.068a.936.936 0 0 0 1.336.926c1.471-.7 3.879-1.842 6.63-3.14a8.545 8.545 0 0 1 11.039 3.444c4.538 7.816 10.988 21.2 10.026 32.791a.937.937 0 0 0 1.3.936 89.807 89.807 0 0 1 8.656-3.131 8.542 8.542 0 0 1 10.368 4.958c3.346 8.26 7.627 22.847 2.318 34.464a.94.94 0 0 0 1 1.327c2.413-.38 6.9-1.017 11.39-1.282a8.507 8.507 0 0 1 8.926 7.382c1.137 8.742 1.737 23.445-4.748 33.594a.941.941 0 0 0 .824 1.457 49.091 49.091 0 0 1 9.453.467 8.518 8.518 0 0 1 7.109 9.121c-.738 8.75-3.426 24.12-13.1 31.613a.941.941 0 0 0 .48 1.678 44.291 44.291 0 0 1 7.046 1.292 8.542 8.542 0 0 1 5.858 10.84c-2.7 8.407-8.6 22.172-19.373 27.673a.941.941 0 0 0 .006 1.695 36.559 36.559 0 0 1 4.673 2.651 8.55 8.55 0 0 1 1.753 12.617c-5.614 6.624-15.831 16.5-27.768 17.884a.937.937 0 0 0 -.752 1.28 106.2 106.2 0 0 1 3.807 11.291 8.526 8.526 0 0 1 -7.048 10.612 60.145 60.145 0 0 1 -28.037-2.589.947.947 0 0 0 -1.269.922 104.157 104.157 0 0 0 2 17 .943.943 0 0 1 -.915 1.151c-4.389.01-20.174-.279-30.939-4.678-27.285-11.152-37.487-9.254-45.08-3.559-9.432 7.074-17.511 22.207-20.993 32.225a1.889 1.889 0 0 1 -3.575 0c-3.482-10.018-11.561-25.151-20.993-32.225-7.593-5.7-17.8-7.593-45.08 3.559-6.487 2.651-14.8 3.809-21.337 4.309a8.53 8.53 0 0 1 -9.14-9.432c.4-3.61.562-6.671.623-8.354a.945.945 0 0 0 -1.266-.92 60.156 60.156 0 0 1 -27.991 2.6 8.538 8.538 0 0 1 -7.1-10.618 106.157 106.157 0 0 1 3.807-11.292.937.937 0 0 0 -.752-1.28c-11.937-1.386-22.154-11.26-27.768-17.884a8.55 8.55 0 0 1 1.751-12.622 36.559 36.559 0 0 1 4.673-2.651.941.941 0 0 0 .006-1.695c-10.769-5.5-16.668-19.266-19.373-27.673a8.542 8.542 0 0 1 5.858-10.84 44.291 44.291 0 0 1 7.046-1.292.941.941 0 0 0 .48-1.678c-9.674-7.493-12.362-22.863-13.1-31.613a8.517 8.517 0 0 1 7.11-9.118 49.091 49.091 0 0 1 9.453-.467.941.941 0 0 0 .824-1.457c-6.485-10.149-5.885-24.852-4.748-33.594a8.507 8.507 0 0 1 8.926-7.382c4.495.265 8.977.9 11.39 1.282a.941.941 0 0 0 1-1.327c-5.309-11.616-1.028-26.2 2.318-34.464a8.541 8.541 0 0 1 10.365-4.96 89.743 89.743 0 0 1 8.657 3.131.937.937 0 0 0 1.3-.936c-.962-11.593 5.488-24.975 10.026-32.791a8.545 8.545 0 0 1 11.039-3.444c2.751 1.3 5.159 2.441 6.63 3.14a.936.936 0 0 0 1.336-.926c-1.25-14.659 7.358-26.87 12.858-33.068a8.574 8.574 0 0 1 11.168-1.46 33.361 33.361 0 0 1 4.054 3.2.945.945 0 0 0 1.59-.713c-.37-11.548 7.769-23.373 13.138-29.877a8.534 8.534 0 0 1 10.51-2.146c1.794.931 3.19 1.7 4.125 2.234a.937.937 0 0 0 1.4-.769c.818-17.078 15-23.263 22.461-30.693a6.4 6.4 0 0 1 9.021.002z" fill="#227251"/><g fill="#0f473a"><path d="m203.825 481.306a6 6 0 0 1 -6-6v-353.046a6 6 0 1 1 12 0v353.046a6 6 0 0 1 -6 6z"/><path d="m203.825 242.162a5.991 5.991 0 0 1 -1.963-.332c-20.393-7.059-35.3-22.117-43.116-43.548-7.547-20.7-7.86-45.864-.907-72.778a6 6 0 1 1 11.619 3c-12.881 49.855 1.379 89.887 36.33 101.984a6 6 0 0 1 -1.963 11.672z"/><path d="m203.831 300.749a6.038 6.038 0 0 1 -1.21-.123c-26.674-5.463-50.568-18.144-67.282-35.7-20.581-21.625-30.31-50.578-28.135-83.731a6 6 0 0 1 11.974.786c-4.263 64.975 41.553 97.821 85.851 106.894a6 6 0 0 1 -1.2 11.879z"/><path d="m203.831 364.146a6.11 6.11 0 0 1 -1.238-.128c-32.178-6.747-109.215-30.2-129.5-102.087a6 6 0 1 1 11.549-3.26c18.509 65.575 90.378 87.3 120.419 93.6a6 6 0 0 1 -1.225 11.873z"/><path d="m203.824 242.162a6 6 0 0 1 -1.962-11.672c34.95-12.1 49.21-52.129 36.33-101.984a6 6 0 1 1 11.618-3c6.954 26.914 6.64 52.081-.907 72.778-7.813 21.431-22.722 36.489-43.115 43.548a6 6 0 0 1 -1.964.33z"/><path d="m203.818 300.749a6 6 0 0 1 -1.2-11.879c44.3-9.073 90.113-41.919 85.851-106.894a6 6 0 0 1 11.974-.786c2.175 33.153-7.554 62.106-28.135 83.731-16.714 17.561-40.609 30.242-67.282 35.7a6.048 6.048 0 0 1 -1.208.128z"/><path d="m203.818 364.146a6 6 0 0 1 -1.224-11.873c30.04-6.3 101.91-28.027 120.419-93.6a6 6 0 1 1 11.549 3.26c-20.291 71.886-97.327 95.34-129.506 102.087a6.1 6.1 0 0 1 -1.238.126z"/></g><path d="m444.791 220.851c2.043 6.8 8.472 15.025 3.475 25.42a.632.632 0 0 0 .584.905c.725-.015 1.8-.025 3.164 0a5.757 5.757 0 0 1 5.548 4.646c1.1 5.582 2.131 15.211-1.794 21.944a.637.637 0 0 0 .714.933 22.547 22.547 0 0 1 3.433-.6 5.784 5.784 0 0 1 6.158 4.451c1.273 5.443 2.461 15.45-2.985 23.747a.632.632 0 0 0 .5.978c1.1.057 2.893.152 4.942.265a5.766 5.766 0 0 1 5.445 5.586c.183 6.094-.285 16.1-4.577 22.674a.632.632 0 0 0 .471.972 60.5 60.5 0 0 1 6.141.921 5.76 5.76 0 0 1 4.558 6.269c-.665 5.976-2.807 16-9.686 21.193a.635.635 0 0 0 .167 1.108c1.553.548 4.417 1.609 7.169 2.894a5.74 5.74 0 0 1 2.927 7.245c-2.131 5.552-6.5 14.468-13.6 18.408a.635.635 0 0 0 .022 1.129 33.163 33.163 0 0 1 5.459 3.311 5.746 5.746 0 0 1 1.29 7.693c-3.246 4.955-9.774 13.212-17.918 14.552a.635.635 0 0 0 -.254 1.15 29.967 29.967 0 0 1 3.765 3.028 5.762 5.762 0 0 1 0 8.312c-4.3 4.12-12.221 10.394-20.376 10.2a.635.635 0 0 0 -.541 1.008 24.73 24.73 0 0 1 1.922 3.072 5.768 5.768 0 0 1 -3.01 8.049c-5.456 2.128-14.687 4.708-22.215 1.7a.631.631 0 0 0 -.856.518 71.842 71.842 0 0 1 -1.366 7.921 5.75 5.75 0 0 1 -7.587 4.034 40.574 40.574 0 0 1 -15.8-10.535.64.64 0 0 0 -1.049.14 70.25 70.25 0 0 0 -4.27 10.729.636.636 0 0 1 -.912.389c-2.608-1.4-11.88-6.64-16.856-12.7-12.609-15.374-19.272-17.522-25.6-16.58-7.867 1.169-17.517 7.555-22.8 12.381a1.274 1.274 0 0 1 -2.121-1.147c1.15-7.061 1.213-18.633-2.113-25.858-2.677-5.815-8.121-10.216-27.889-12.357-4.7-.509-10-2.488-14.042-4.291a5.754 5.754 0 0 1 -2.4-8.53c1.4-2.012 2.475-3.777 3.051-4.756a.638.638 0 0 0 -.456-.953 40.555 40.555 0 0 1 -17.441-7.443 5.759 5.759 0 0 1 -.8-8.578 71.864 71.864 0 0 1 5.883-5.477.632.632 0 0 0 -.036-1c-6.637-4.654-9.53-13.791-10.735-19.523a5.768 5.768 0 0 1 5.09-6.924 24.738 24.738 0 0 1 3.623-.072.636.636 0 0 0 .548-1c-4.624-6.719-3.706-16.78-2.613-22.636a5.761 5.761 0 0 1 6.955-4.551 29.873 29.873 0 0 1 4.595 1.494.634.634 0 0 0 .823-.841c-3.334-7.551 0-17.533 2.375-22.961a5.744 5.744 0 0 1 7.144-3.13 33.048 33.048 0 0 1 5.759 2.757.635.635 0 0 0 .957-.6c-.591-8.1 4.484-16.635 7.965-21.456a5.739 5.739 0 0 1 7.665-1.516c2.582 1.6 5.037 3.417 6.346 4.417a.634.634 0 0 0 1.018-.467c.579-8.6 7.8-15.877 12.437-19.7a5.761 5.761 0 0 1 7.742.384 60.394 60.394 0 0 1 4.131 4.636.633.633 0 0 0 1.072-.138c3.15-7.187 11.272-13.057 16.473-16.238a5.764 5.764 0 0 1 7.655 1.5c1.216 1.653 2.278 3.1 2.926 3.991a.632.632 0 0 0 1.09-.121c3.963-9.1 12.989-13.581 18.242-15.493a5.784 5.784 0 0 1 7.1 2.718 22.632 22.632 0 0 1 1.378 3.2.637.637 0 0 0 1.172.087c3.486-6.97 12.111-11.374 17.384-13.51a5.758 5.758 0 0 1 6.924 2.1c.766 1.128 1.347 2.034 1.731 2.65a.632.632 0 0 0 1.077-.007c5.966-9.871 16.365-8.989 23.177-11a4.318 4.318 0 0 1 5.336 2.88z" fill="#3aa53f"/><path d="m302.571 483.349a6 6 0 0 1 -5.272-8.856l113.312-209.469a6 6 0 0 1 10.555 5.709l-113.312 209.467a6 6 0 0 1 -5.283 3.149z" fill="#145442"/><path d="m379.333 341.458a5.983 5.983 0 0 1 -4.426-1.947c-20.339-22.2-15.828-56.679 11.225-85.8a6 6 0 1 1 8.791 8.168c-22.9 24.644-27.281 51.932-11.168 69.521a6 6 0 0 1 -4.422 10.053z" fill="#145442"/><path d="m360.524 376.22a5.974 5.974 0 0 1 -3.852-1.4c-14.376-12.056-24.707-27.6-29.09-43.764-5.417-19.977-1.817-40.814 10.412-60.26a6 6 0 1 1 10.158 6.389c-22.715 36.12-6.509 69.369 16.231 88.44a6 6 0 0 1 -3.859 10.6z" fill="#145442"/><path d="m340.177 413.835a5.977 5.977 0 0 1 -3.874-1.421c-17.2-14.56-55.984-53.848-44.717-104.054a6 6 0 0 1 11.709 2.627c-9.831 43.807 25.231 79.119 40.762 92.269a6 6 0 0 1 -3.88 10.579z" fill="#145442"/><path d="m386.317 342.035a49.141 49.141 0 0 1 -7.958-.656 6 6 0 1 1 1.944-11.842c23.535 3.868 43.98-14.74 52.076-47.392a6 6 0 0 1 11.647 2.888c-8.701 35.093-31.326 57.002-57.709 57.002z" fill="#145442"/><path d="m386.5 380.144a96.015 96.015 0 0 1 -27.712-4.181 6 6 0 0 1 3.475-11.486c28.406 8.6 65.1 3.963 82.905-34.814a6 6 0 0 1 10.906 5.006c-9.583 20.877-25.054 35.293-44.738 41.691a80.47 80.47 0 0 1 -24.836 3.784z" fill="#145442"/><path d="m382.42 420.242a158.166 158.166 0 0 1 -43.951-6.656 6 6 0 0 1 3.422-11.5c19.5 5.8 68.248 15.825 99.532-16.376a6 6 0 1 1 8.606 8.361c-19.816 20.395-45.211 26.171-67.609 26.171z" fill="#145442"/></svg>