<svg id="Capa_1" enable-background="new 0 0 512 512" viewBox="0 0 512 512" xmlns="http://www.w3.org/2000/svg"><g><g><path d="m176.019 129.032-16.771-120.798c-.604-4.352 2.776-8.234 7.17-8.234h18.514c4.392 0 7.773 3.88 7.17 8.231l-16.429 118.722z" fill="#c68d7a"/><path d="m342.659 209.116c0 60.235-37.499 111.661-103.513 132.059-19.676 6.088-36.86 13.506-48.717 30.349l-5.481 7.768c-.804 1.143-1.772 2.071-2.843 2.802-4.739 3.183-11.497 2.246-15.051-2.802l-5.47-7.768c-3.039-4.306-6.418-3.441-10.096-7.119-10.714-10.724-23.983-18.698-38.632-23.231-66.003-20.396-112.856-71.823-112.856-132.058 0-102.647 78.799-141.454 176.006-141.454 88.183 0 153.538 31.946 164.901 114.536 1.154 8.437 1.752 17.4 1.752 26.918z" fill="#fea95c"/><path d="m225.019 71.37c44.96 16.58 77.105 48.806 84.937 101.439 1.257 8.444-3.588 16.657-11.582 19.655-58.795 22.049-103.054 73.824-114.487 137.028-.896 4.951-3.737 9.379-7.972 12.094-9.408 6.031-17.707 13.728-24.428 22.82 3.679 3.683 7.06 7.688 10.092 11.992l5.477 7.774c4.359 6.188 13.533 6.188 17.891 0l5.476-7.774c11.882-16.867 29.103-29.148 48.812-35.249 65.962-20.415 112.768-71.83 112.768-132.036.002-84.68-53.633-125.905-126.984-137.743z" fill="#fe9738"/><g><path d="m164.701 50.888 2.196 18.764c-5.95 22.781-26.528 38.674-50.072 38.674-19.294 0-38.272 4.899-55.155 14.239l-4.967 2.748c-4.211 2.33-8.945-2.087-6.912-6.45l11.68-25.061c12.2-26.178 38.465-42.914 67.346-42.914z" fill="#97da7b"/><path d="m187.304 50.888-2.196 18.764c5.95 22.781 26.528 38.674 50.072 38.674 19.294 0 38.272 4.899 55.155 14.239l4.967 2.748c4.211 2.33 8.945-2.087 6.912-6.45l-11.68-25.061c-12.2-26.178-38.465-42.914-67.346-42.914z" fill="#80d261"/><path d="m198.168 156.035-22.166 19.734-22.37-14.779-2.827-2.527c-18.424-16.47-28.956-40.011-28.956-64.724 0-23.666 19.185-42.851 42.851-42.851h21.5 1.104c16.308 0 36.496 19.329 36.496 42.995 0 24.713-7.208 45.682-25.632 62.152z" fill="#9be69d"/><path d="m187.304 50.888h-.805c7.868 7.769 12.747 18.557 12.747 30.488 0 24.712-10.532 48.254-28.956 64.723l-16.657 14.89 16.847 15.06c3.145 2.811 7.9 2.811 11.045 0l19.673-17.586c18.424-16.47 28.956-40.011 28.956-64.724.001-23.666-19.184-42.851-42.85-42.851z" fill="#97da7b"/></g></g><path d="m497.013 361.899c0 82.898-52.216 140.957-135.114 140.957-51.187 0-96.386-16.481-123.478-55.6-16.784-24.234-26.622-53.646-26.622-85.357 0-82.898 67.202-150.101 150.101-150.101 31.087 0 60.682 9.946 84.638 26.131 39.926 26.975 50.475 72.159 50.475 123.97z" fill="#fea95c"/><path d="m446.537 237.929c16.784 24.234 27.342 54.138 27.342 85.849 0 82.898-67.202 150.101-150.101 150.101-31.711 0-61.123-9.839-85.358-26.624 27.093 39.119 72.292 64.745 123.479 64.745 82.899 0 150.101-67.202 150.101-150.101 0-51.187-26.344-96.877-65.463-123.97z" fill="#fe9738"/><path d="m246.119 367.622 53.717 15.901c3.825 1.132 7.663-1.734 7.663-5.723v-31.802c0-3.989-3.838-6.855-7.663-5.723l-53.717 15.901c-5.699 1.687-5.699 9.759 0 11.446z" fill="#fe9738"/><path d="m367.622 477.679 15.901-53.717c1.132-3.825-1.734-7.663-5.723-7.663h-31.802c-3.989 0-6.855 3.838-5.723 7.663l15.901 53.717c1.687 5.7 9.759 5.7 11.446 0z" fill="#fe9738"/><path d="m367.622 477.679 3.367-11.375c-5.485 1.816-11.103 3.322-16.848 4.502l2.034 6.872c1.688 5.701 9.76 5.701 11.447.001z" fill="#fe860a"/><path d="m477.679 356.176-53.717-15.901c-3.825-1.132-7.663 1.734-7.663 5.723v31.802c0 3.989 3.838 6.855 7.663 5.723l53.717-15.901c5.7-1.687 5.7-9.759 0-11.446z" fill="#fe9738"/><path d="m477.679 367.622c5.699-1.687 5.699-9.759 0-11.446l-6.874-2.035c-1.18 5.745-2.695 11.366-4.511 16.851z" fill="#fe860a"/><g fill="#fe9738"><path d="m356.176 246.119-15.901 53.717c-1.132 3.825 1.734 7.663 5.723 7.663h31.802c3.989 0 6.855-3.838 5.723-7.663l-15.901-53.717c-1.687-5.699-9.759-5.699-11.446 0z"/><path d="m439.746 273.949-26.271 14.27c-2.534 1.376-3.03 4.803-.991 6.841l16.254 16.254c2.039 2.039 5.465 1.542 6.841-.991l14.27-26.271c3.542-6.519-3.583-13.644-10.103-10.103z"/><path d="m273.949 284.052 12.266 22.581c2.377 4.375 8.294 5.233 11.815 1.712l10.315-10.315c3.521-3.521 2.663-9.438-1.712-11.815l-22.581-12.266c-6.519-3.541-13.644 3.584-10.103 10.103z"/><path d="m439.746 449.849-26.271-14.27c-2.534-1.376-3.03-4.803-.991-6.841l16.254-16.254c2.039-2.039 5.465-1.542 6.841.991l14.27 26.271c3.542 6.52-3.583 13.645-10.103 10.103z"/></g><path d="m419.901 439.069 19.846 10.78c6.52 3.541 13.645-3.583 10.103-10.103l-10.78-19.846c-5.803 6.952-12.218 13.367-19.169 19.169z" fill="#fe860a"/><path d="m273.949 439.746 12.266-22.581c2.377-4.375 8.294-5.233 11.815-1.712l10.315 10.315c3.521 3.521 2.663 9.438-1.712 11.815l-22.581 12.266c-6.519 3.542-13.644-3.583-10.103-10.103z" fill="#fe9738"/></g><g/><g/><g/><g/><g/><g/><g/><g/><g/><g/><g/><g/><g/><g/><g/></svg>