<svg id="Capa_1" enable-background="new 0 0 512 512" viewBox="0 0 512 512" xmlns="http://www.w3.org/2000/svg"><g><g><g><path d="m336.13 222.699-124.878 12.156-124.878-12.156v-45.789c0-9.196 7.455-16.65 16.65-16.65h216.456c9.196 0 16.65 7.455 16.65 16.65z" fill="#c8effe"/></g><g><path d="m319.48 160.26h-27.057c9.196 0 16.65 7.455 16.65 16.65v53.779l27.057-7.99v-45.789c0-9.195-7.455-16.65-16.65-16.65z" fill="#99e6fc"/></g><g><path d="m377.756 272.65c0-9.196-7.455-16.65-16.65-16.65h-4.163l-.029-20.784c-.01-6.89-5.598-12.47-12.488-12.47h-8.328l-1.746 2.562-12.661-2.42-1.073-.142h-1.124-241.474c-6.904 0-12.497 5.602-12.488 12.505l.029 20.749h-4.163c-9.196 0-16.65 7.455-16.65 16.65v16.651l11.424 168.785-11.424 20.612v16.651c0 9.196 7.455 16.65 16.65 16.65h299.707c9.196 0 16.65-7.455 16.65-16.65v-16.65l-20.315-59.468 20.315-129.93v-16.651z" fill="#bbec6c"/></g><g><path d="m377.756 289.301v-16.65c0-9.196-7.455-16.65-16.65-16.65h-4.163l-.029-20.784c-.01-6.89-5.598-12.47-12.488-12.47h-24.933c5.736 0 10.388 4.648 10.392 10.384l.029 35.38c.004 5.736 4.656 10.384 10.392 10.384 5.739 0 10.392 4.653 10.392 10.392v212.322c0 5.739-4.653 10.392-10.392 10.392h20.799c9.196 0 16.65-7.455 16.65-16.65v-16.65l-20.315-59.468z" fill="#a2e62e"/></g><g><path d="m44.748 289.301h333.008v189.398h-333.008z" fill="#f2fbff"/></g><g><path d="m350.699 289.301h27.057v189.398h-27.057z" fill="#dff6fd"/></g><g><g><path d="m159.759 407.096 24.241 21.145 36.04-7.32 43.923-31.309 8.869-35.562.76-10.325c-.2-6.463-.731-11.856-1.18-15.432-.358-2.851-2.603-5.096-5.454-5.454-14.823-1.859-60.692-5.206-85.919 20.021-17.268 17.269-21.146 44.202-21.28 64.236z" fill="#97d729"/></g><g><path d="m273.592 343.726c-3.14 18.191-10.312 39.096-26.325 52.151-27.657 22.547-72.956 14.568-87.507 11.219-.101 15.209 1.955 26.442 1.955 26.442s60.301 11.051 90.676-19.324c19.142-19.143 21.829-50.158 21.201-70.488z" fill="#8bc727"/></g></g><g><path d="m211.252 0c-9.891 0-19.272 4.392-25.607 11.988l-47.239 56.648 72.846 8.03 72.846-8.03-47.239-56.648c-6.335-7.596-15.716-11.988-25.607-11.988z" fill="#bbec6c"/></g><g><path d="m236.859 11.988c-6.335-7.596-15.716-11.988-25.607-11.988-4.719 0-9.317 1.01-13.528 2.88 4.616 2.05 8.766 5.136 12.078 9.108l47.239 56.648 12.553 3.364 14.504-3.363z" fill="#a2e62e"/></g><g><path d="m459.252 68.637h-322.927c-4.598 0-8.325 3.727-8.325 8.325v14.569c0 20.69 16.773 37.463 37.463 37.463h91.577c17.078 0 31.477-11.432 35.988-27.057h166.224c4.418 0 8-3.582 8-8v-17.3c0-4.419-3.582-8-8-8z" fill="#ffe5c2"/></g><g><path d="m459.252 68.637h-27.057c4.418 0 8 3.582 8 8v17.301c0 4.418-3.582 8-8 8h27.057c4.418 0 8-3.582 8-8v-17.301c0-4.419-3.582-8-8-8z" fill="#fed2a4"/></g></g><g><g><path d="m148.828 453.924c-1.919 0-3.839-.732-5.304-2.196-2.929-2.93-2.929-7.678 0-10.607l84.999-84.999c2.93-2.928 7.678-2.928 10.607 0 2.929 2.93 2.929 7.678 0 10.607l-84.999 84.999c-1.464 1.463-3.384 2.196-5.303 2.196z" fill="#78a91f"/></g><g><path d="m351.74 198.979h-280.975c-4.143 0-7.5-3.357-7.5-7.5s3.357-7.5 7.5-7.5h280.975c4.143 0 7.5 3.357 7.5 7.5s-3.357 7.5-7.5 7.5z" fill="#dff6fd"/></g></g></g><g/><g/><g/><g/><g/><g/><g/><g/><g/><g/><g/><g/><g/><g/><g/></svg>