<svg id="Layer_1" enable-background="new 0 0 500 500" viewBox="0 0 500 500" xmlns="http://www.w3.org/2000/svg" xmlns:xlink="http://www.w3.org/1999/xlink"><clipPath id="SVGID_2_"><path id="SVGID_1_" d="m359.493 116.833c-.104.104-.104.104 0 .104-5.397 10.171-14.944 19.719-28.749 27.71-44.628 25.739-116.862 25.739-161.386 0-13.906-7.992-23.453-17.539-28.749-27.71 0 0 0 0 0-.104 5.296-10.067 14.843-19.718 28.749-27.71 44.524-25.739 116.758-25.739 161.386 0 13.805 7.992 23.352 17.643 28.749 27.71z"/></clipPath><g><g><path d="m100.588 219.976v191.874l109.379 63.15v-191.873z" fill="#888abf"/><path d="m359.379 260.013v191.874l40.033-86.263v-191.873z" fill="#888abf"/><path d="m209.967 283.127 149.412-23.114v191.874l-149.412 23.113z" fill="#aeb2f4"/></g><path d="m416.438 119.761-121.843-70.346-166.438 25.747-44.595 96.093 121.843 70.345 166.438-25.746z" fill="#d7daff"/><g><path d="m83.562 171.255v213.738l121.843 70.346v-213.739z" fill="#888abf"/><path d="m371.843 215.854v213.738l44.595-96.093v-213.738z" fill="#888abf"/><path d="m205.405 241.6 166.438-25.746v213.738l-166.438 25.747z" fill="#aeb2f4"/></g><path d="m291.538 63.326-155.029 23.983-41.537 89.507v199.085l113.49 65.525 155.029-23.983 41.537-89.505v-199.087z" fill="#f6d13a" opacity=".5"/><g opacity=".8"><g><g enable-background="new"><g><path d="m178.308 214.987 7.812 15.009c-2.031-3.902-6.657-6.452-13.39-6.727-13.301-.544-29.799 8.103-36.895 19.381-3.515 5.586-4.033 10.771-2.022 14.634l-7.812-15.009c-2.011-3.863-1.494-9.048 2.021-14.634 7.096-11.278 23.594-19.924 36.895-19.38 6.733.275 11.36 2.824 13.391 6.726z" fill="#f3ae00"/></g><g><path d="m213.004 196.993 7.812 15.009c4.658 8.949 3.46 20.947-4.708 33.93-16.464 26.166-54.915 46.275-85.955 45.006-15.59-.637-26.335-6.573-31.06-15.651l-7.812-15.009c4.725 9.078 15.47 15.014 31.06 15.651 31.039 1.269 69.491-18.841 85.955-45.007 8.169-12.982 9.366-24.98 4.708-33.929z" fill="#f3ae00"/></g><g><path d="m181.868 181.322c31.039 1.269 42.891 23.434 26.428 49.6-16.464 26.166-54.915 46.276-85.955 45.007-30.963-1.266-42.815-23.432-26.351-49.597 16.464-26.166 54.915-46.275 85.878-45.01zm-42.578 67.669c13.379.547 29.917-8.165 36.973-19.378 7.096-11.278 2.033-20.805-11.345-21.352-13.302-.544-29.799 8.103-36.895 19.38-7.055 11.214-2.034 20.806 11.267 21.35z" fill="#f6d13a"/></g></g></g><g><g enable-background="new"><g><path d="m284.192 231.214-6.027 15.811c1.567-4.11.398-9.262-3.869-14.476-8.431-10.302-25.855-16.887-38.998-14.697-6.511 1.084-10.729 4.143-12.281 8.212l6.027-15.811c1.551-4.07 5.77-7.128 12.28-8.213 13.143-2.19 30.567 4.395 38.998 14.698 4.268 5.214 5.437 10.366 3.87 14.476z" fill="#f3ae00"/></g><g><path d="m320.694 245.189-6.027 15.811c-3.593 9.427-13.356 16.504-28.486 19.024-30.494 5.081-71.071-10.296-90.746-34.336-9.883-12.075-12.585-24.049-8.94-33.612l6.027-15.811c-3.645 9.562-.942 21.537 8.94 33.612 19.675 24.041 60.252 39.417 90.746 34.336 15.129-2.52 24.892-9.597 28.486-19.024z" fill="#f3ae00"/></g><g><path d="m311.717 211.507c19.675 24.041 10.984 47.626-19.51 52.706-30.494 5.081-71.071-10.296-90.746-34.336-19.626-23.981-10.935-47.566 19.559-52.647 30.494-5.08 71.071 10.296 90.697 34.277zm-78.861 13.14c8.48 10.362 25.979 16.934 39.047 14.757 13.143-2.19 16.901-12.304 8.42-22.665-8.431-10.302-25.855-16.887-38.998-14.698-13.068 2.177-16.901 12.303-8.469 22.606z" fill="#f6d13a"/></g></g></g><g><g enable-background="new"><g><path d="m356.292 336.775-13.602 10.065c3.536-2.617 5.33-7.585 4.549-14.277-1.545-13.223-12.666-28.164-24.916-33.408-6.068-2.598-11.269-2.298-14.77.293l13.602-10.065c3.501-2.591 8.703-2.891 14.771-.293 12.25 5.244 23.371 20.185 24.915 33.408.78 6.692-1.013 11.66-4.549 14.277z" fill="#f3ae00"/></g><g><path d="m379.494 368.228-13.602 10.065c-8.11 6.001-20.148 6.695-34.249.659-28.419-12.167-54.298-46.997-57.902-77.853-1.81-15.498 2.371-27.04 10.598-33.127l13.602-10.064c-8.227 6.087-12.408 17.629-10.598 33.126 3.604 30.856 29.483 65.687 57.902 77.853 14.101 6.037 26.139 5.342 34.249-.659z" fill="#f3ae00"/></g><g><path d="m390.098 335.024c3.604 30.856-16.434 46.03-44.853 33.863s-54.298-46.997-57.902-77.853c-3.595-30.779 16.443-45.953 44.862-33.787 28.42 12.166 54.299 46.997 57.893 77.777zm-73.497-31.464c1.553 13.299 12.746 28.271 24.925 33.484 12.249 5.244 20.867-1.247 19.314-14.547-1.544-13.223-12.666-28.164-24.915-33.408-12.179-5.213-20.868 1.248-19.324 14.471z" fill="#f6d13a"/></g></g></g><g><g enable-background="new"><g><path d="m366.841 266.454-16.853-1.507c4.382.392 9.022-2.132 12.882-7.655 7.626-10.912 9.232-29.468 3.556-41.523-2.812-5.972-6.901-9.201-11.239-9.589l16.853 1.507c4.339.388 8.427 3.618 11.239 9.589 5.677 12.055 4.07 30.611-3.556 41.524-3.86 5.522-8.501 8.045-12.882 7.654z" fill="#f3ae00"/></g><g><path d="m363.302 305.378-16.853-1.507c-10.049-.898-19.51-8.373-26.045-22.25-13.17-27.968-9.39-71.196 8.405-96.66 8.938-12.79 19.729-18.643 29.922-17.731l16.853 1.507c-10.193-.911-20.984 4.941-29.921 17.731-17.795 25.464-21.575 68.691-8.404 96.66 6.533 13.877 15.995 21.352 26.043 22.25z" fill="#f3ae00"/></g><g><path d="m393.282 287.593c-17.795 25.464-42.854 23.504-56.024-4.465s-9.39-71.196 8.404-96.66c17.751-25.401 42.809-23.441 55.98 4.528 13.17 27.969 9.39 71.196-8.36 96.597zm-34.061-72.33c-7.67 10.975-9.243 29.601-3.599 41.587 5.676 12.055 16.43 12.924 24.1 1.949 7.626-10.913 9.232-29.469 3.556-41.524-5.644-11.985-16.431-12.924-24.057-2.012z" fill="#f6d13a"/></g></g></g><g><g enable-background="new"><g><path d="m329.13 384.935-5.609 15.964c1.458-4.15.155-9.269-4.248-14.369-8.699-10.077-26.29-16.202-39.371-13.668-6.48 1.256-10.617 4.423-12.061 8.533l5.609-15.964c1.444-4.109 5.581-7.277 12.061-8.532 13.081-2.534 30.671 3.591 39.371 13.668 4.402 5.099 5.706 10.218 4.248 14.368z" fill="#f3ae00"/></g><g><path d="m365.986 397.947-5.609 15.963c-3.344 9.518-12.918 16.849-27.977 19.766-30.35 5.88-71.317-8.424-91.616-31.94-10.196-11.811-13.212-23.711-9.82-33.366l5.609-15.963c-3.393 9.654-.376 21.554 9.82 33.365 20.3 23.515 61.267 37.82 91.616 31.94 15.059-2.916 24.632-10.247 27.977-19.765z" fill="#f3ae00"/></g><g><path d="m356.128 364.512c20.299 23.516 12.231 47.321-18.119 53.201s-71.317-8.425-91.616-31.94c-20.25-23.457-12.181-47.263 18.169-53.142 30.35-5.881 71.316 8.424 91.566 31.881zm-78.489 15.207c8.749 10.136 26.415 16.246 39.421 13.726 13.082-2.535 16.572-12.743 7.822-22.879-8.699-10.077-26.29-16.202-39.371-13.668-13.006 2.52-16.572 12.744-7.872 22.821z" fill="#f6d13a"/></g></g></g><g><g enable-background="new"><g><path d="m239.026 390.975.833 16.9c-.216-4.394-3.356-8.642-9.358-11.702-11.86-6.047-30.461-5.078-41.617 2.208-5.526 3.609-8.161 8.104-7.947 12.454l-.833-16.9c-.214-4.35 2.42-8.845 7.947-12.454 11.156-7.286 29.757-8.255 41.617-2.208 6.002 3.061 9.142 7.309 9.358 11.702z" fill="#f3ae00"/></g><g><path d="m278.067 389.109.833 16.9c.497 10.076-5.601 20.479-18.444 28.865-25.884 16.903-69.22 19.124-96.895 5.012-13.901-7.087-21.186-16.967-21.69-27.189l-.833-16.9c.503 10.221 7.789 20.101 21.69 27.189 27.675 14.111 71.011 11.891 96.895-5.012 12.844-8.385 18.941-18.788 18.444-28.865z" fill="#f3ae00"/></g><g><path d="m256.316 361.871c27.675 14.111 29.191 39.201 3.307 56.104s-69.22 19.123-96.895 5.012c-27.607-14.077-29.123-39.166-3.239-56.069 25.884-16.902 69.22-19.123 96.827-5.047zm-66.939 43.714c11.928 6.082 30.594 5.071 41.686-2.173 11.157-7.286 10.534-18.057-1.395-24.139-11.86-6.047-30.461-5.078-41.617 2.208-11.093 7.244-10.534 18.057 1.326 24.104z" fill="#f6d13a"/></g></g></g><g><g enable-background="new"><g><path d="m194.226 337.281-9.898 13.724c2.573-3.568 2.772-8.846-.007-14.984-5.492-12.127-20.63-22.979-33.894-24.25-6.57-.629-11.434 1.238-13.982 4.771l9.897-13.724c2.548-3.533 7.412-5.401 13.982-4.771 13.264 1.271 28.401 12.123 33.893 24.25 2.78 6.137 2.581 11.415.009 14.984z" fill="#f3ae00"/></g><g><path d="m225.893 360.19-9.898 13.724c-5.901 8.183-17.158 12.505-32.427 11.041-30.773-2.949-66.017-28.262-78.833-56.56-6.437-14.214-5.963-26.481.023-34.781l9.897-13.724c-5.986 8.301-6.46 20.567-.023 34.781 12.815 28.299 48.06 53.612 78.833 56.561 15.27 1.462 26.527-2.86 32.428-11.042z" fill="#f3ae00"/></g><g><path d="m225.899 325.332c12.815 28.299-1.66 48.848-32.433 45.899s-66.018-28.262-78.833-56.561c-12.784-28.229 1.692-48.777 32.465-45.828 30.773 2.948 66.018 28.261 78.801 56.49zm-79.584-7.626c5.523 12.197 20.738 23.057 33.925 24.321 13.264 1.271 19.501-7.533 13.977-19.73-5.492-12.127-20.63-22.979-33.893-24.25-13.188-1.265-19.501 7.532-14.009 19.659z" fill="#f6d13a"/></g></g></g><g><g enable-background="new"><g><path d="m157.994 376.597-16.138 5.089c4.196-1.323 7.509-5.437 8.949-12.019 2.844-13.005-2.808-30.754-12.682-39.699-4.892-4.431-9.908-5.841-14.062-4.531l16.137-5.088c4.154-1.31 9.17.099 14.062 4.53 9.875 8.946 15.527 26.694 12.682 39.699-1.439 6.582-4.752 10.696-8.948 12.019z" fill="#f3ae00"/></g><g><path d="m169.693 413.891-16.137 5.088c-9.622 3.034-21.23-.228-32.597-10.526-22.911-20.755-36.041-62.114-29.404-92.462 3.334-15.243 11.045-24.794 20.805-27.872l16.137-5.089c-9.76 3.078-17.471 12.63-20.804 27.873-6.637 30.347 6.493 71.706 29.404 92.462 11.366 10.297 22.975 13.559 32.596 10.526z" fill="#f3ae00"/></g><g><path d="m190.53 385.947c-6.637 30.348-30.524 38.172-53.435 17.417s-36.041-62.114-29.404-92.462c6.621-30.273 30.507-38.098 53.418-17.343 22.912 20.756 36.042 62.114 29.421 92.388zm-59.251-53.676c-2.861 13.081 2.848 30.88 12.666 39.774 9.875 8.946 20.137 5.614 22.997-7.466 2.844-13.005-2.807-30.753-12.682-39.699-9.818-8.895-20.137-5.615-22.981 7.391z" fill="#f6d13a"/></g></g></g><g><g enable-background="new"><g><path d="m369.197 327.657-16.138 5.089c4.196-1.323 7.509-5.437 8.949-12.019 2.844-13.005-2.808-30.753-12.682-39.699-4.892-4.432-9.908-5.841-14.062-4.531l16.137-5.089c4.154-1.31 9.17.1 14.062 4.531 9.875 8.946 15.527 26.693 12.682 39.699-1.439 6.583-4.753 10.696-8.948 12.019z" fill="#f3ae00"/></g><g><path d="m380.896 364.951-16.137 5.089c-9.622 3.034-21.23-.228-32.598-10.526-22.911-20.756-36.041-62.114-29.404-92.462 3.334-15.243 11.045-24.795 20.805-27.873l16.137-5.088c-9.76 3.078-17.471 12.63-20.804 27.873-6.637 30.348 6.493 71.706 29.404 92.462 11.367 10.296 22.975 13.558 32.597 10.525z" fill="#f3ae00"/></g><g><path d="m401.733 337.007c-6.637 30.348-30.524 38.172-53.435 17.417-22.911-20.756-36.041-62.114-29.404-92.462 6.621-30.273 30.507-38.098 53.418-17.343 22.911 20.756 36.042 62.114 29.421 92.388zm-59.251-53.676c-2.861 13.081 2.848 30.88 12.666 39.775 9.875 8.946 20.137 5.614 22.998-7.466 2.844-13.005-2.807-30.753-12.682-39.699-9.819-8.896-20.138-5.616-22.982 7.39z" fill="#f6d13a"/></g></g></g><g><g enable-background="new"><g><path d="m166.065 245.569-16.138 5.089c4.195-1.323 7.509-5.437 8.948-12.019 2.844-13.005-2.807-30.753-12.682-39.699-4.891-4.432-9.908-5.841-14.061-4.531l16.137-5.088c4.154-1.31 9.17.1 14.062 4.531 9.875 8.946 15.526 26.693 12.682 39.699-1.439 6.582-4.753 10.696-8.948 12.018z" fill="#f3ae00"/></g><g><path d="m177.764 282.863-16.138 5.088c-9.622 3.034-21.23-.228-32.597-10.526-22.911-20.755-36.041-62.114-29.404-92.462 3.334-15.243 11.045-24.795 20.805-27.873l16.137-5.089c-9.76 3.078-17.471 12.63-20.805 27.873-6.637 30.348 6.493 71.706 29.404 92.462 11.368 10.299 22.976 13.561 32.598 10.527z" fill="#f3ae00"/></g><g><path d="m198.6 254.919c-6.637 30.348-30.523 38.172-53.434 17.417-22.911-20.756-36.041-62.114-29.404-92.462 6.621-30.273 30.507-38.098 53.418-17.343 22.911 20.757 36.041 62.115 29.42 92.388zm-59.25-53.676c-2.861 13.081 2.848 30.88 12.666 39.774 9.875 8.946 20.137 5.614 22.997-7.466 2.844-13.005-2.808-30.753-12.682-39.699-9.819-8.895-20.137-5.615-22.981 7.391z" fill="#f6d13a"/></g></g></g><g><g enable-background="new"><g><path d="m263.729 312.044 1.173 16.88c-.305-4.389-3.53-8.573-9.593-11.512-11.98-5.807-30.557-4.463-41.564 3.046-5.453 3.72-7.996 8.267-7.695 12.612l-1.173-16.88c-.302-4.345 2.241-8.892 7.694-12.612 11.007-7.508 29.585-8.853 41.564-3.046 6.065 2.94 9.289 7.124 9.594 11.512z" fill="#f3ae00"/></g><g><path d="m302.724 309.392 1.173 16.88c.7 10.064-5.187 20.587-17.858 29.231-25.538 17.421-68.82 20.514-96.775 6.963-14.041-6.806-21.523-16.538-22.233-26.746l-1.173-16.88c.71 10.209 8.193 19.94 22.233 26.746 27.954 13.551 71.236 10.458 96.775-6.963 12.671-8.644 18.558-19.167 17.858-29.231z" fill="#f3ae00"/></g><g><path d="m280.429 282.597c27.954 13.551 29.975 38.605 4.437 56.026-25.539 17.421-68.821 20.514-96.775 6.963-27.885-13.518-29.906-38.572-4.368-55.992 25.539-17.422 68.821-20.514 96.706-6.997zm-66.046 45.053c12.048 5.841 30.689 4.454 41.634-3.012 11.007-7.509 10.168-18.265-1.881-24.106-11.98-5.807-30.557-4.463-41.564 3.046-10.944 7.466-10.168 18.265 1.811 24.072z" fill="#f6d13a"/></g></g></g></g><path d="m376.619 98.049v37.777c0 18.682-12.352 37.468-37.052 51.685-49.506 28.541-129.628 28.541-179.03 0-24.702-14.217-37.156-33.003-37.156-51.685v-37.777z" fill="#aeb2f4"/><g><ellipse cx="250.015" cy="98.086" fill="#d7daff" rx="126.589" ry="73.087"/><path d="m359.493 116.833c-.104.104-.104.104 0 .104-5.397 10.171-14.944 19.719-28.749 27.71-44.628 25.739-116.862 25.739-161.386 0-13.906-7.992-23.453-17.539-28.749-27.71 0 0 0 0 0-.104-11.519-22.417-1.971-47.739 28.749-65.385 44.524-25.635 116.758-25.635 161.386 0 30.617 17.645 40.166 42.968 28.749 65.385z" fill="#aeb2f4"/><path d="m359.493 116.833c-.104.104-.104.104 0 .104-5.397 10.171-14.944 19.719-28.749 27.71-44.628 25.739-116.862 25.739-161.386 0-13.906-7.992-23.453-17.539-28.749-27.71 0 0 0 0 0-.104 5.296-10.067 14.843-19.718 28.749-27.71 44.524-25.739 116.758-25.739 161.386 0 13.805 7.992 23.352 17.643 28.749 27.71z" fill="#f6d13a"/></g><path d="m376.619 119.761v8.096c0 18.679-12.352 37.465-37.052 51.685-49.506 28.541-129.628 28.541-179.03 0-24.702-14.219-37.156-33.006-37.156-51.685v-8.096c0 18.682 12.454 37.468 37.156 51.685 49.402 28.541 129.524 28.541 179.03 0 24.7-14.217 37.052-33.003 37.052-51.685z" fill="#888abf"/><path d="m376.619 104.889v8.095c0 18.68-12.352 37.465-37.052 51.685-49.506 28.541-129.628 28.541-179.03 0-24.702-14.22-37.156-33.006-37.156-51.685v-8.095c0 18.682 12.454 37.467 37.156 51.685 49.402 28.541 129.524 28.541 179.03 0 24.7-14.217 37.052-33.003 37.052-51.685z" fill="#888abf"/><g opacity=".7"><g clip-path="url(#SVGID_2_)"><g><g enable-background="new"><g><path d="m328.406 142.093-6.027 15.811c1.567-4.111.398-9.262-3.869-14.476-8.431-10.302-25.855-16.887-38.998-14.697-6.511 1.085-10.729 4.143-12.28 8.213l6.026-15.81c1.551-4.07 5.77-7.128 12.281-8.213 13.143-2.19 30.566 4.395 38.998 14.698 4.267 5.212 5.436 10.363 3.869 14.474z" fill="#f3ae00"/></g><g><path d="m364.908 156.068-6.027 15.811c-3.593 9.427-13.356 16.503-28.486 19.024-30.494 5.081-71.071-10.295-90.746-34.336-9.883-12.075-12.585-24.049-8.94-33.612l6.026-15.811c-3.645 9.562-.942 21.537 8.94 33.612 19.675 24.041 60.252 39.417 90.746 34.336 15.13-2.521 24.893-9.597 28.487-19.024z" fill="#f3ae00"/></g><g><path d="m355.932 122.386c19.675 24.041 10.983 47.626-19.511 52.706s-71.07-10.296-90.746-34.336c-19.626-23.981-10.935-47.566 19.559-52.647 30.494-5.08 71.071 10.296 90.698 34.277zm-78.862 13.139c8.48 10.362 25.979 16.934 39.047 14.757 13.144-2.19 16.901-12.303 8.421-22.665-8.432-10.303-25.855-16.888-38.998-14.698-13.069 2.178-16.902 12.304-8.47 22.606z" fill="#f6d13a"/></g></g></g><g><g enable-background="new"><g><path d="m229.418 124.142 9.376 14.086c-2.437-3.662-7.31-5.701-14.033-5.253-13.283.885-28.759 11.25-34.606 23.223-2.896 5.931-2.855 11.141-.441 14.767l-9.376-14.085c-2.413-3.626-2.455-8.836.441-14.767 5.846-11.973 21.322-22.338 34.605-23.223 6.723-.449 11.596 1.59 14.034 5.252z" fill="#f3ae00"/></g><g><path d="m261.986 102.532 9.376 14.086c5.59 8.398 5.685 20.455-1.045 34.239-13.564 27.78-49.639 51.894-80.635 53.96-15.569 1.037-26.888-3.713-32.559-12.232l-9.376-14.086c5.671 8.519 16.99 13.269 32.559 12.232 30.997-2.065 67.072-26.18 80.636-53.96 6.729-13.783 6.634-25.841 1.044-34.239z" fill="#f3ae00"/></g><g><path d="m229.349 90.289c30.997-2.065 45.156 18.702 31.592 46.482-13.564 27.779-49.639 51.894-80.636 53.96-30.92 2.06-45.079-18.708-31.515-46.487 13.565-27.78 49.64-51.895 80.559-53.955zm-35.079 71.842c13.36-.89 28.87-11.324 34.682-23.228 5.846-11.973-.207-20.904-13.568-20.013-13.283.885-28.759 11.25-34.605 23.223-5.813 11.904.208 20.903 13.491 20.018z" fill="#f6d13a"/></g></g></g></g></g></g></svg>