<svg id="Layer_1" enable-background="new 0 0 512 512" height="512" viewBox="0 0 512 512" width="512" xmlns="http://www.w3.org/2000/svg"><g><path d="m259.88 79.933c0 44.146-32.439 79.933-32.439 79.933s-32.439-35.787-32.439-79.933 32.439-79.933 32.439-79.933 32.439 35.787 32.439 79.933z" fill="#15470d"/><path d="m181.114 127.934c-18.104-30.092-44.118-52.494-73.778-66.156 42.627-15.875 91.841.277 116.142 40.67s15.513 91.439-18.482 121.661c1.825-32.605-5.779-66.083-23.882-96.175z" fill="#1f5c16"/><path d="m273.768 127.934c18.104-30.092 44.118-52.494 73.778-66.156-42.627-15.875-91.841.277-116.142 40.67s-15.513 91.439 18.482 121.661c-1.825-32.605 5.778-66.083 23.882-96.175z" fill="#307825"/><path d="m177.619 196.971c-23.937-37.446-57.616-64.891-95.608-81.155 53.379-21.548 116.193-2.807 148.324 47.457 32.13 50.264 22.768 115.142-19.198 154.543 1.189-41.31-9.581-83.399-33.518-120.845z" fill="#419435"/><path d="m277.262 196.971c23.937-37.446 57.616-64.891 95.608-81.155-53.379-21.548-116.193-2.807-148.324 47.457-32.13 50.264-22.768 115.142 19.198 154.543-1.188-41.31 9.582-83.399 33.518-120.845z" fill="#51b542"/><path d="m229.489 473.486h-4.041c-63.413 0-115.297-51.884-115.297-115.297v-70.899c0-63.413 51.884-115.297 115.297-115.297h4.041c63.413 0 115.297 51.884 115.297 115.297v70.899c0 63.413-51.884 115.297-115.297 115.297z" fill="#ffc226"/><path d="m344.782 292.836c-.384.077-.795.178-1.185.29-4.521-8.389-9.501-16.04-14.456-22.821 3.808-5.367 7.615-10.238 11.205-14.336-1.876-6.544-4.268-13.048-7.349-19.025-4.883 4.775-10.298 11.132-15.726 18.445-6.745-8.123-15.689-14.203-23.002-14.203-4.146 0-10.202 1.269-16.221 6.853-4.098-7.869-8.655-15.145-13.26-21.697 9.021-14.84 18.481-28.399 27.62-35.392-11.246-7.387-24.457-13.017-37.676-16.076 3.862 6.314 7.413 12.577 10.323 18.929-3.989 5.004-8.171 10.709-12.244 16.983-7.228-8.86-16.439-16.765-25.202-16.765-8.969 0-17.974 8.026-25.275 16.862-4.049-6.273-8.231-11.966-12.22-16.983 2.889-6.298 6.334-12.619 10.274-18.856.048-.073.097-.157.145-.23-13.683 3.058-26.459 8.57-37.845 16.052 9.957 8.112 18.197 19.945 27.668 35.585-4.617 6.563-9.162 13.864-13.26 21.745-5.995-5.56-12.015-6.817-16.137-6.817-7.88 0-15.982 6.028-22.881 14.118-5.681-7.688-10.891-13.792-16.04-18.747-.145.29-.29.592-.435.894-.024.06-.06.133-.085.193-2.756 5.717-5.053 11.688-6.841 17.853 3.614 4.086 7.385 8.933 11.507 14.747-4.932 6.769-9.887 14.396-14.372 22.76-.545-.186-1.094-.327-1.656-.411v20.742c5.766 5.5 11.555 13.187 18.336 22.954-4.593 6.08-9.307 12.982-13.707 20.548-1.463-.737-3.046-1.197-4.629-1.342-.302 7.282.59 15.545 1.825 22.579 5.33 5.911 12.136 14.191 18.675 24.114-2.442 3.119-4.774 6.273-7.023 9.464 3.085 5.82 6.671 11.38 10.721 16.572.496-.459.931-.979 1.317-1.571 7.542-11.422 15.46-20.669 20.79-26.411 1.62-1.753 3.215-2.708 4.484-2.708s2.865.955 4.484 2.708c7.047 7.591 16.862 19.352 25.42 33.82-5.681 8.026-11.326 17.176-16.161 27.233.097.048.193.097.29.145 5.379 2.659 10.999 4.92 16.813 6.708 9.464-19.207 22.18-34.86 31.342-44.711 1.62-1.753 3.203-2.72 4.472-2.72 1.281 0 2.865.967 4.484 2.72 9.138 9.839 21.842 25.456 31.282 44.638 5.814-1.801 11.435-4.073 16.813-6.745.097-.048.206-.097.302-.157-4.835-10.008-10.468-19.11-16.124-27.112 8.558-14.468 18.373-26.229 25.42-33.82 1.62-1.753 3.215-2.708 4.484-2.708 1.281 0 2.877.955 4.496 2.708 5.318 5.741 13.248 14.988 20.79 26.411.338.532.737.991 1.16 1.402 3.981-5.166 7.75-10.778 10.709-16.632-2.188-3.119-4.484-6.201-6.866-9.235 6.406-9.706 13.054-17.829 18.324-23.715.863-4.693 1.441-9.413 1.704-14.251.154-2.823.214-5.851.193-8.715-1.402.181-2.804.604-4.134 1.245-4.424-7.615-9.174-14.553-13.792-20.657 6.31-9.15 12.583-17.176 17.925-22.47v-20.981zm-121.647-77.722c1.62-1.741 3.203-2.708 4.472-2.708 1.281 0 2.865.967 4.484 2.708 9.972 10.746 23.401 27.499 32.841 47.914-4.001 5.04-8.195 10.758-12.281 17.079-7.168-8.8-16.415-16.584-25.045-16.584-8.884 0-17.877 7.917-25.166 16.717-4.049-6.285-8.231-12.015-12.232-17.043 9.441-20.5 22.919-37.301 32.927-48.083zm41.677 117.15c-4.013 5.065-8.231 10.818-12.317 17.152-7.083-8.691-16.378-16.39-24.888-16.39-8.812 0-17.78 7.808-25.033 16.584-4.073-6.334-8.268-12.075-12.269-17.128 9.44-20.403 22.869-37.12 32.829-47.866 1.62-1.741 3.203-2.695 4.472-2.695 1.281 0 2.865.955 4.484 2.695 9.913 10.685 23.282 27.33 32.722 47.648zm-138.134-27.837c9.223-17.95 21.129-32.563 29.856-41.991 1.596-1.716 3.167-2.659 4.424-2.659 1.233 0 2.804.943 4.4 2.659 6.95 7.506 16.632 19.11 25.093 33.361-4.593 6.551-9.138 13.816-13.248 21.685-6.032-5.669-12.099-6.926-16.245-6.926h-.326c-5.693 0-13.707 3.904-20.004 11.229-4.981-6.866-9.852-12.74-13.95-17.358zm34.268 74.917c-4.545 0-11.35 1.475-17.901 8.522-4.944-7.095-9.887-13.272-14.215-18.3 8.933-16.233 19.811-29.433 27.704-37.966 1.596-1.716 3.167-2.659 4.424-2.659 1.233 0 2.804.943 4.4 2.659 6.986 7.542 16.705 19.207 25.202 33.554-4.545 6.443-9.017 13.586-13.091 21.31-6.116-5.838-12.293-7.12-16.523-7.12zm91.392 39.405c-7.119-8.727-16.27-16.221-24.731-16.221-8.715 0-17.49 7.494-24.719 16.221-4.098-6.382-8.328-12.16-12.353-17.249 9.44-20.198 22.736-36.758 32.599-47.382 1.62-1.741 3.203-2.695 4.472-2.695 1.281 0 2.865.955 4.484 2.695 9.863 10.625 23.159 27.184 32.599 47.382-4.035 5.089-8.253 10.867-12.351 17.249zm59.856-30.883c-6.576-7.047-13.369-8.522-17.926-8.522-4.231 0-10.395 1.281-16.511 7.119-4.122-7.808-8.654-15.025-13.248-21.515 8.522-14.36 18.276-26.036 25.275-33.591 1.62-1.741 3.215-2.695 4.484-2.695 1.281 0 2.877.955 4.496 2.695 7.905 8.534 18.796 21.757 27.789 38.027-4.362 5.065-9.366 11.29-14.359 18.482zm2.551-66.275c-6.515-7.518-14.602-11.326-20.476-11.326-4.182 0-10.298 1.269-16.366 6.999-4.11-7.857-8.655-15.085-13.248-21.624 8.497-14.263 18.179-25.855 25.13-33.349 1.62-1.741 3.215-2.708 4.484-2.708 1.281 0 2.877.967 4.496 2.708 8.727 9.416 20.645 24.042 29.916 41.979-4.085 4.593-8.956 10.456-13.936 17.321z" fill="#ff9824"/><g fill="#ff9824"><circle cx="227.468" cy="237.817" r="7.343"/><circle cx="227.468" cy="307.566" r="7.343"/><circle cx="227.468" cy="377.315" r="7.343"/><circle cx="227.468" cy="447.064" r="7.343"/><g><circle cx="295.026" cy="216.766" r="7.343"/><circle cx="295.026" cy="284.673" r="7.343"/><circle cx="295.026" cy="352.581" r="7.343"/><circle cx="295.026" cy="420.488" r="7.343"/></g><g><circle cx="159.911" cy="216.766" r="7.343"/><circle cx="159.911" cy="284.673" r="7.343"/><circle cx="159.911" cy="352.581" r="7.343"/><circle cx="159.911" cy="420.488" r="7.343"/></g></g><path d="m270.389 331.419c-50.341 24.208-68.064 87.726-38.391 136.558-46.414-14.921-80.256-58.582-80.256-109.788v-70.899c0-57.023 41.957-104.715 96.522-113.749-7.547-1.252-15.042-1.548-22.816-1.548-63.413 0-115.297 51.883-115.297 115.297v70.899c-.122 68.025 58.101 119.168 125.291 115.123.004.006.008.013.013.019 60.78-3.02 109.208-53.34 109.331-115.142v-29.279c-23.468-9.2-50.242-9.106-74.397 2.509z" opacity=".15"/><ellipse cx="328.231" cy="415.565" fill="#ff9824" rx="94.261" ry="96.903" transform="matrix(.901 -.433 .433 .901 -147.671 183.299)"/><ellipse cx="337.722" cy="411.608" fill="#ffc226" rx="90.453" ry="95.991" transform="matrix(.825 -.566 .566 .825 -173.575 263.107)"/><path d="m425.244 407.113c-1.076-10.423-12.234-16.59-22.347-17.391 8.643-7.941 11.352-19.089 5.991-26.908s-16.735-9.31-27.257-4.112c3.351-11.519.158-22.867-8.168-27.112-9.314-4.749-19.573 1.717-24.864 10.278-2.196-9.851-9.981-20.584-20.138-20.062-10.286.529-15.443 10.955-15.798 21.913-8.266-9.293-19.351-12.689-26.722-7.635s-8.2 16.618-2.511 27.678c-10.25-3.559-21.931-2.573-26.135 6.837-4.144 9.276 3.031 20.362 11.454 26.015-9.91 1.874-19.615 9.155-18.55 19.488.959 9.296 10.393 16.366 22.345 17.392-8.641 7.941-11.35 19.088-5.989 26.907s16.736 9.31 27.259 4.111c-2.957 9.946-1.018 22.431 8.166 27.114 9.093 4.636 19.635-1.725 24.864-10.278 2.333 10.212 9.99 20.583 20.137 20.061 10.411-.536 15.449-10.849 15.798-21.913 8.266 9.293 19.351 12.688 26.722 7.634s8.199-16.618 2.511-27.678c10.48 3.669 21.909 2.623 26.134-6.837 4.226-9.461-3.242-20.489-11.454-26.015 9.982-1.808 19.616-9.176 18.552-19.487z" fill="#ffdc14"/><path d="m401.233 420.66c10.446-.537 18.348-6.456 17.651-13.22-.698-6.765-9.731-11.814-20.177-11.277-4.552.234-13.453 1.739-21.99 3.922-.311-.937-.663-1.866-1.041-2.79 8.091-3.4 16.021-7.548 19.724-10.087 8.494-5.824 12.217-15.157 8.316-20.846s-13.949-5.58-22.442.243c-3.703 2.539-10.43 8.441-16.518 14.762-.726-.685-1.466-1.348-2.228-1.976 5.113-7.176 9.725-14.936 11.584-19.098 4.266-9.55 2.812-19.797-3.246-22.886-6.059-3.089-14.428 2.149-18.694 11.699-1.86 4.164-4.608 12.884-6.613 21.65-.94-.239-1.886-.444-2.836-.617.77-9.034.833-18.337.351-23.011-1.105-10.718-7.346-19.132-13.939-18.793s-11.042 9.302-9.937 20.02c.482 4.671 2.451 13.861 5.064 22.717-.901.267-1.793.575-2.678.91-3.782-8.467-8.288-16.811-10.983-20.741-6.18-9.014-15.536-13.341-20.897-9.665s-4.697 13.963 1.483 22.976c2.694 3.93 8.853 11.14 15.388 17.72-.631.705-1.24 1.425-1.814 2.17-7.319-5.63-15.182-10.779-19.365-12.912-9.599-4.894-19.563-3.975-22.256 2.052-2.692 6.028 2.907 14.882 12.506 19.776 4.186 2.134 12.886 5.429 21.591 7.967-.182.949-.331 1.905-.447 2.868-8.9-1.289-18.023-1.869-22.578-1.635-10.446.537-18.348 6.455-17.651 13.22.698 6.765 9.731 11.814 20.177 11.277 4.552-.234 13.453-1.739 21.99-3.922.311.937.663 1.866 1.041 2.79-8.091 3.4-16.021 7.548-19.724 10.087-8.494 5.824-12.217 15.157-8.316 20.846s13.948 5.58 22.442-.243c3.703-2.539 10.43-8.441 16.518-14.762.726.685 1.466 1.348 2.228 1.976-5.113 7.176-9.725 14.936-11.584 19.098-4.266 9.55-2.812 19.797 3.246 22.886 6.059 3.089 14.428-2.149 18.694-11.699 1.86-4.164 4.608-12.884 6.613-21.65.94.239 1.886.444 2.836.617-.77 9.034-.833 18.337-.351 23.011 1.105 10.718 7.346 19.132 13.939 18.794 6.593-.339 11.042-9.302 9.937-20.02-.482-4.671-2.451-13.861-5.064-22.717.901-.267 1.793-.575 2.678-.91 3.782 8.467 8.288 16.811 10.983 20.74 6.18 9.014 15.536 13.341 20.897 9.665s4.697-13.963-1.483-22.976c-2.694-3.93-8.853-11.14-15.387-17.72.631-.705 1.24-1.425 1.814-2.17 7.319 5.63 15.182 10.779 19.365 12.912 9.599 4.894 19.563 3.975 22.256-2.052 2.692-6.028-2.907-14.882-12.506-19.776-4.186-2.134-12.886-5.429-21.591-7.967.182-.949.331-1.905.447-2.868 8.898 1.289 18.022 1.869 22.577 1.635z" fill="#ffecc2"/><ellipse cx="337.722" cy="411.608" fill="#ffc226" rx="16.486" ry="17.495" transform="matrix(.825 -.566 .566 .825 -173.575 263.107)"/><g fill="#ff9824"><ellipse cx="292.143" cy="345.131" rx="2.348" ry="7.589" transform="matrix(.825 -.566 .566 .825 -143.971 225.683)"/><ellipse cx="266.928" cy="375.512" rx="2.381" ry="7.483" transform="matrix(.459 -.888 .888 .459 -189.24 440.094)"/><ellipse cx="260.683" cy="415.565" rx="7.264" ry="2.453" transform="matrix(.999 -.045 .045 .999 -18.304 12.06)"/><ellipse cx="275.08" cy="454.558" rx="7.151" ry="2.492" transform="matrix(.825 -.566 .566 .825 -208.84 235.211)"/><ellipse cx="306.262" cy="482.042" rx="7.264" ry="2.453" transform="matrix(.402 -.916 .916 .402 -258.21 568.832)"/><ellipse cx="345.874" cy="490.654" rx="2.381" ry="7.483" transform="matrix(.994 -.108 .108 .994 -51.128 40.366)"/><ellipse cx="383.301" cy="478.085" rx="2.348" ry="7.589" transform="matrix(.825 -.566 .566 .825 -203.18 300.531)"/><ellipse cx="408.516" cy="447.704" rx="2.381" ry="7.483" transform="matrix(.459 -.888 .888 .459 -176.821 604.883)"/><ellipse cx="414.761" cy="407.651" rx="7.264" ry="2.453" transform="matrix(.999 -.045 .045 .999 -17.797 18.935)"/><ellipse cx="400.364" cy="368.659" rx="7.151" ry="2.492" transform="matrix(.825 -.566 .566 .825 -138.311 291.004)"/><ellipse cx="369.182" cy="341.174" rx="7.264" ry="2.453" transform="matrix(.402 -.916 .916 .402 -91.57 542.178)"/><ellipse cx="329.57" cy="332.562" rx="2.381" ry="7.483" transform="matrix(.994 -.108 .108 .994 -34.094 37.668)"/></g></g></svg>