<svg height="512pt" viewBox="-5 0 512 512.00823" width="512pt" xmlns="http://www.w3.org/2000/svg"><path d="m503.246094 206.566406c.601562-2.597656.101562-5.398437-1.398438-7.699218-1.5-2.300782-3.800781-3.898438-6.398437-4.398438-7-1.300781-13.703125-2.300781-20-3.101562 18.597656-22.5 29-65.699219 27.796875-92.601563-.097656-.296875-.097656-.597656-.097656-.898437 0-2.699219-1.199219-5.300782-3.199219-7.101563-2-1.796875-4.601563-2.796875-7.300781-2.597656-8.402344.398437-16.800782.898437-25.199219 1.199219 9.796875-.898438 18.597656-6.601563 23.398437-15.199219 4.800782-8.601563 5.101563-19 .800782-27.902344-3.5-7.5-8.300782-14.398437-14.101563-20.296875l-.097656-.101562c-5.902344-5.800782-12.800781-10.601563-20.300781-14-8.902344-4.398438-19.300782-4.101563-27.902344.800781-8.597656 4.800781-14.296875 13.597656-15.199219 23.5.300781-8.402344.699219-16.800781 1.300781-25.199219.101563-2.703125-.800781-5.402344-2.699218-7.402344-1.800782-2-4.402344-3.199218-7.101563-3.199218-.300781 0-.597656 0-.898437-.101563-26.800782-1.296875-70 9.203125-92.601563 27.703125-.800781-6.402344-1.800781-13.101562-3.097656-20-.5-2.601562-2.101563-4.902344-4.402344-6.402344-2.300781-1.4999998-5-1.898437-7.597656-1.300781-32.300781 7.203125-85 25-99.601563 46.800781l-.699218-9.699218c-.101563-1.601563-1-3-2.300782-3.800782-1.300781-.800781-3-1-4.398437-.398437-10.402344 3.597656-20.203125 8.800781-29 15.5-13.300781 11.199219-24.402344 24.800781-32.703125 40.199219-.597656-2.398438-2.296875-4.398438-4.597656-5.5-2.300782-1-4.902344-1-7.101563.199218-4.300781 3.800782-7 9.101563-7.398437 14.800782 0 0-.101563 0-.101563.101562.101563-1.101562.199219-2.203125.300781-3.101562.101563-1.199219-.199218-2.5-1.101562-3.398438-.796875-.902344-2-1.5-3.199219-1.5-.699219 0-1.398437.199219-2.097656.5-12.703125 6.5-24 15.398438-33.402344 26.097656-9.398437 10.800782-16.597656 23.101563-21.5 36.601563-.5-1.199219-1-2.300781-1.398437-3.5-1.300782-3.300781-4.300782-5.5-7.800782-5.800781-3.5-.300782-6.898437 1.5-8.601562 4.5-16.796875 30-26.898438 63.300781-29.5 97.5-3.296875 28.898437 6.300781 57.800781 26 79-1.699219-1.601563-3.199219-3.300782-4.898438-4.898438-3-3.402344-8-4.300781-12-2.203125-4.101562 2.101563-6.199218 6.703125-5.101562 11.101563 8.703125 33.601562 24.902344 64.699218 47.300781 91.101562l-20.199219 20.097656c-5.601562 5.601563-10.601562 11.800782-15 18.300782l-12.699218 19.101562c-5.300782 8-4.1992192 18.597656 2.5 25.296875l2.898437 2.902344c4.699219 4.699219 11.402344 6.699219 18 5.5 6.5-1.300781 12-5.699219 14.601563-11.800781l.398437-1.199219c6-14 14.699219-26.800781 25.5-37.601563l11.902344-11.898437c27.097656 23.597656 59.296875 40.597656 94.097656 49.5 4.402344 1 9-1.101563 11.101563-5.101563 2.097656-4 1.097656-9-2.300782-12-1.601562-1.5-3.300781-3.097656-4.898437-4.898437 21.296875 19.800781 50.199219 29.300781 79.097656 26.097656 34.300781-2.597656 67.5-12.699219 97.5-29.597656 3-1.800781 4.800781-5.101563 4.5-8.601563s-2.5-6.5-5.800781-7.800781c-1.296875-.5-2.296875-1-3.597656-1.398437 27.097656-9.699219 49.5-29.300782 62.699218-54.898438v-.101562c.800782-1.398438.699219-3.199219-.199218-4.5-.902344-1.300782-2.5-2.101563-4.101563-1.898438l-3.097656.296875s.097656 0 .097656-.097656c5.699219-.402344 11.101563-3 14.800781-7.402344 1.101563-2.199219 1.199219-4.796875.199219-7.097656s-3-4-5.5-4.601563c15.402344-8.300781 29-19.398437 40.199219-32.699218 6.601562-8.800782 11.902344-18.5 15.5-28.898438.601562-1.5.402344-3.101562-.5-4.5-.796875-1.300781-2.296875-2.203125-3.796875-2.300781l-9.703125-.699219c21.902344-14.5 39.703125-67.101562 47-99.402344zm-328.898438 266.5c-.398437-.300781-.699218-.699218-1-1.199218 1 1 1.898438 2.101562 2.898438 3.101562zm0 0" fill="#59474e"/><path d="m415.347656 10.867188c-.5 8.398437-1 16.800781-1.300781 25.199218-.800781 18.300782-1.300781 36.699219-1.398437 54.5v.199219h-.101563v.101563h-.199219c-32.898437.5-65.898437-1.5-98.5-5.800782v-1c1-18.699218.398438-37.398437-1.800781-56 22.5-18.5 65.800781-29 92.601563-27.800781.300781.101563.597656.101563.898437.101563 2.699219.101562 5.300781 1.300781 7.101563 3.199218 1.898437 1.902344 2.898437 4.601563 2.699218 7.300782zm0 0" fill="#cb8252"/><path d="m313.847656 83.96875v1c-1.300781-.203125-2.699218-.402344-4-.601562-41.300781-6.199219-86.398437-18.101563-112.601562-37.300782 14.601562-21.800781 67.300781-39.597656 99.601562-46.800781 2.601563-.597656 5.398438-.097656 7.601563 1.300781 2.296875 1.5 3.796875 3.800782 4.398437 6.402344 1.300782 6.898438 2.300782 13.699219 3.101563 20 2.398437 18.597656 3 37.296875 1.898437 56zm0 0" fill="#af8066"/><path d="m206.847656 170.265625c-39.398437-15.796875-67.699218-41.398437-78.699218-81.5 8.300781-15.296875 19.398437-28.898437 32.699218-40.199219 8.800782-6.699218 18.601563-11.898437 29-15.5 1.5-.597656 3.101563-.398437 4.398438.402344 1.300781.796875 2.203125 2.296875 2.300781 3.796875l.699219 9.703125 9.203125 119.597656c.199219 1.199219.296875 2.5.398437 3.699219zm0 0" fill="#af8066"/><path d="m333.148438 296.566406c-37.300782-1.699218-74.402344-6-111-12.898437-.601563-.199219-1.199219-.300781-1.800782-.402344l-.199218-.199219c-.101563-.597656-.199219-1.097656-.402344-1.699218-6.898438-36.699219-11.199219-73.800782-12.898438-111.101563 33.5 11.902344 68.601563 18.601563 104.199219 19.902344.601563.097656 1.300781.097656 2 .199219l.101563.101562c.097656.699219.097656 1.296875.199218 2.097656 1.101563 35.402344 7.800782 70.5 19.800782 104zm0 0" fill="#7f5b53"/><path d="m109.246094 95.265625c-.097656 1-.199219 2.101563-.296875 3.101563-.101563.699218-.203125 1.398437-.300781 2.199218v.402344c-4.101563 44.796875-3.699219 95.796875-3.199219 135.597656-28.101563-20.199218-48.402344-49.5-57.5-82.898437v-.199219c4.796875-13.402344 12.097656-25.800781 21.5-36.601562 9.398437-10.699219 20.699219-19.601563 33.398437-26.101563.601563-.296875 1.300782-.5 2.101563-.5 1.199219 0 2.398437.5 3.199219 1.5.898437 1 1.300781 2.300781 1.097656 3.5zm0 0" fill="#af8066"/><path d="m312.949219 188.265625c0 .703125 0 1.402344.097656 2.101563-.597656-.101563-1.300781-.101563-2-.199219-35.5-1.199219-70.699219-7.902344-104.199219-19.902344-.101562-1.199219-.199218-2.5-.398437-3.699219l-9.203125-119.597656c26.101562 19.199219 71.203125 31.097656 112.601562 37.296875 1.300782.203125 2.699219.402344 4 .601563-2.101562 34.5-2.398437 68.898437-.898437 103.398437zm0 0" fill="#cb8252"/><path d="m124.046875 379.167969c-4.699219-1.300781-9.300781-2.800781-13.699219-4.402344-4-1.296875-7.898437-2.796875-11.699218-4.199219-2.699219-1.097656-5.402344-2.199218-8-3.300781-1-.398437-2.101563-.796875-3-1.296875-1-.402344-1.902344-.800781-2.902344-1.300781-.199219-.101563-.296875-.199219-.398438-.300781-3.5-1.5-6.800781-3.199219-10.199218-4.898438-.199219-.101562-.300782-.203125-.402344-.300781-.597656-.300781-1.296875-.601563-1.898438-1-1.898437-.902344-3.699218-1.902344-5.398437-3-1.203125-.601563-2.300781-1.300781-3.402344-2-.097656-.101563-.300781-.199219-.398437-.300781-1.601563-.898438-3.199219-1.800782-4.699219-2.800782-2.5-1.5-4.902344-3.097656-7-4.699218l-1-.699219c-.5-.402344-1.101563-.699219-1.5-1.101563-1.300781-.800781-2.5-1.699218-3.703125-2.597656-1.097656-.800781-2.199219-1.601562-3.097656-2.5l-.101563-.101562c-1-.699219-2-1.5-2.898437-2.199219-.902344-.699219-1.5-1.300781-2.300782-1.902344-1.699218-1.398437-3.300781-3-4.898437-4.398437-1-1-2.101563-2-3.101563-3l-.398437-.398438c-.5-.402344-.902344-.800781-1.300781-1.300781-19.800782-21.300781-29.300782-50.199219-26-79 2.597656-34.300781 12.597656-67.601563 29.5-97.5 1.800781-3 5.097656-4.800781 8.597656-4.5s6.5 2.597656 7.800781 5.800781c.402344 1.199219.902344 2.296875 1.402344 3.5v.199219c9.097656 33.398437 29.398437 62.699219 57.5 82.898437h.097656c-.300781 48.300782 5.902344 96.199219 18.5 142.601563zm0 0" fill="#cb8252"/><path d="m467.449219 89.265625c-18.402344.800781-36.703125 1.300781-54.601563 1.402344h-.199218v-.199219c.199218-17.800781.597656-36.203125 1.398437-54.5.902344-9.800781 6.601563-18.601562 15.199219-23.5 8.601562-4.800781 19.101562-5.101562 27.902344-.800781 7.5 3.5 14.398437 8.199219 20.300781 14l.097656.097656c5.800781 5.902344 10.601563 12.800781 14.101563 20.300781 4.300781 8.902344 4 19.300782-.800782 27.902344-4.800781 8.597656-13.5 14.398438-23.398437 15.296875zm0 0" fill="#7f5b53"/><path d="m503.246094 98.667969c1.203125 26.898437-9.296875 70.097656-27.796875 92.597656-18.601563-2.199219-37.300781-2.796875-56-1.796875h-1c-4.300781-32.703125-6.300781-65.601562-5.800781-98.5v-.203125h.097656v-.097656h.203125c17.898437-.199219 36.199219-.601563 54.597656-1.402344 8.402344-.296875 16.699219-.699219 25.199219-1.199219 2.703125-.199218 5.300781.800782 7.300781 2.601563s3.101563 4.398437 3.199219 7.097656c-.097656.300781-.097656.601563 0 .902344zm0 0" fill="#cb8252"/><path d="m503.246094 206.566406c-7.296875 32.300782-25.097656 84.902344-46.898438 99.5-19.898437-26.898437-31.699218-74.097656-37.898437-116.398437v-.199219h1c18.699219-1 37.398437-.402344 56 1.796875 6.398437.800781 13 1.800781 20 3.101563 2.597656.601562 5 2.199218 6.398437 4.398437 1.5 2.402344 2 5.203125 1.398438 7.800781zm0 0" fill="#af8066"/><path d="m402.046875 395.765625c-.597656 0-1-.398437-1-1 0-.5.402344-1 .902344-1 .097656 0 .296875-.097656.5-.097656.597656 0 1 .398437 1 1 0 .5-.402344 1-.902344 1 0 0-.199219.097656-.5.097656zm0 0"/><path d="m419.847656 386.96875c-3.800781 4.296875-9.101562 7-14.800781 7.398438 0 0 0 .101562-.097656.101562l-2.402344.296875c-44.898437 4.101563-95.898437 3.703125-135.800781 3.203125l-.097656-.101562c-22.5-30.199219-36.300782-68.398438-46-112.699219-.101563-.601563-.199219-1.199219-.402344-1.800781.601562.101562 1.203125.199218 1.800781.398437 36.699219 7 73.800781 11.300781 111 12.902344 15.800781 39.5 41.402344 67.699219 81.5 78.699219 2.402344.601562 4.402344 2.300781 5.5 4.601562 1 2.097656 1 4.699219-.199219 7zm0 0" fill="#cb8252"/><path d="m418.449219 189.46875c-34.402344 2.199219-68.902344 2.5-103.300781 1-.699219 0-1.402344 0-2.101563-.101562l-.097656-.101563c-.101563-.699219-.101563-1.398437-.101563-2.097656-1.5-34.402344-1.199218-68.902344 1-103.300781 32.699219 4.398437 65.601563 6.300781 98.5 5.800781h.199219v.300781c-.398437 32.898438 1.601563 65.898438 5.902344 98.5zm0 0" fill="#7f5b53"/><path d="m470.347656 313.667969c-3.699218 10.398437-8.898437 20.097656-15.5 28.898437-11.199218 13.300782-24.898437 24.402344-40.199218 32.699219-40.101563-11-65.699219-39.199219-81.5-78.699219 1.199218.101563 2.5.199219 3.800781.402344l119.5 9.199219 9.699219.699219c1.597656.101562 3 1 3.800781 2.300781.796875 1.300781 1 3 .398437 4.5zm0 0" fill="#af8066"/><path d="m412.449219 400.46875c-13.203125 25.699219-35.601563 45.296875-62.703125 55h-.097656c-33.402344-9.101562-62.699219-29.402344-82.902344-57.601562 39.902344.398437 90.902344.898437 135.800781-3.199219l2.402344-.300781 3.097656-.300782c1.601563-.199218 3.199219.5 4.101563 1.902344 1 1.398438 1 3.097656.300781 4.5zm0 0" fill="#af8066"/><path d="m456.347656 306.066406-119.5-9.097656c-1.300781-.203125-2.601562-.300781-3.800781-.402344-11.898437-33.5-18.597656-68.597656-19.898437-104.097656-.101563-.703125-.101563-1.300781-.199219-2.101562.699219.101562 1.398437.101562 2.097656.101562 34.402344 1.5 68.902344 1.199219 103.300781-1v.199219c6.300782 42.300781 18.199219 89.5 38 116.398437zm0 0" fill="#cb8252"/><path d="m220.148438 283.066406c-.5-.097656-1.101563-.300781-1.699219-.398437-44.5-9.699219-82.601563-23.402344-112.800781-46h-.101563c-.398437-39.902344-.898437-90.800781 3.199219-135.601563v-.398437c.101562-.800781.203125-1.5.300781-2.199219 0 0 0-.101562.101563-.101562.398437-5.699219 3-11.101563 7.398437-14.800782 2.199219-1.097656 4.800781-1.199218 7.101563-.199218 2.300781 1 4 3 4.597656 5.5 11 40.101562 39.300781 65.699218 78.703125 81.5 1.699219 37.300781 6 74.398437 12.898437 111.101562.101563.5.199219 1 .300782 1.597656zm0 0" fill="#cb8252"/><path d="m266.648438 397.765625c-48.101563.402344-96-5.898437-142.5-18.5l-.101563-.097656c-12.597656-46.402344-18.898437-94.402344-18.5-142.5 30.199219 22.5 68.402344 36.300781 112.800781 46 .601563.097656 1.199219.300781 1.699219.398437l.199219.199219c.203125.601563.300781 1.203125.402344 1.800781 9.699218 44.402344 23.398437 82.601563 46 112.699219zm0 0" fill="#7f5b53"/><path d="m354.546875 473.265625c-29.898437 16.800781-63.199219 26.902344-97.5 29.601563-28.898437 3.199218-57.800781-6.300782-79.097656-26.101563-.402344-.398437-.902344-.796875-1.300781-1.199219l-.402344-.5c-1-1-1.898438-2.097656-2.898438-3.097656-.199218-.203125-.398437-.5-.601562-.703125-1.296875-1.296875-2.597656-2.796875-3.796875-4.199219-.203125-.199218-.300781-.398437-.402344-.5-1.300781-1.5-2.597656-3.097656-3.800781-4.699218-.898438-1-1.796875-2.101563-2.5-3.199219-1.296875-1.699219-2.597656-3.402344-3.796875-5.101563-1.902344-2.597656-3.601563-5.199218-5.300781-8.097656-1.101563-1.5-2-3-2.902344-4.703125-.097656-.199219-.199219-.296875-.296875-.398437-.703125-1-1.402344-2.101563-1.902344-3.199219-1-1.699219-2-3.300781-2.898437-5-.101563-.101563-.101563-.300781-.199219-.402344-.300781-.5-.601563-1.199219-.902344-1.699219-1.5-2.898437-3-5.699218-4.300781-8.699218-.398438-.800782-.796875-1.699219-1.199219-2.601563-.199219-.398437-.398437-.796875-.5-1.199219-.699219-1.5-1.300781-3-2.097656-4.597656-.902344-2.101562-1.800781-4.203125-2.601563-6.402344-1.699218-4.097656-3.199218-8.398437-4.800781-12.800781-.199219-.5-.398437-1-.398437-1.5-1.5-4.199219-2.902344-8.398437-4.101563-12.796875 46.402344 12.597656 94.402344 18.898438 142.5 18.5l.101563.097656c20.199218 28.199219 49.5 48.5 82.898437 57.601563h.101563c1.300781.398437 2.300781.898437 3.597656 1.398437 3.300781 1.300782 5.5 4.300782 5.800781 7.800782.300781 3.300781-1.5 6.601562-4.5 8.398437zm0 0" fill="#cb8252"/><path d="m174.148438 498.667969c-39.902344-10.402344-76.300782-31.101563-105.699219-59.902344l-1.902344-2c-29.800781-29.699219-51.199219-66.699219-61.800781-107.398437-1.097656-4.398438 1.101562-9 5.101562-11.101563 4.101563-2.097656 9-1.199219 12 2.203125 1.601563 1.597656 3.101563 3.296875 4.898438 4.898438.402344.5.800781.898437 1.300781 1.300781l.402344.398437c1 1 2.097656 2 3.097656 3 1.601563 1.402344 3.199219 3 4.902344 4.402344.796875.597656 1.5 1.296875 2.296875 1.898438.800781.601562 1.902344 1.5 2.902344 2.199218l.097656.101563c1 .898437 2 1.699219 3.101562 2.5 1.199219.898437 2.398438 1.800781 3.699219 2.597656.402344.402344 1 .703125 1.5 1.101563l1 .699218c2.199219 1.601563 4.5 3.101563 7 4.699219 1.402344 1 3.101563 1.902344 4.699219 2.800781.101562.101563.203125.199219.402344.300782 1 .800781 2.199218 1.5 3.398437 2 1.699219 1.101562 3.5 2.101562 5.402344 3 .597656.398437 1.199219.699218 1.898437 1 .199219.101562.300782.199218.398438.300781 3.203125 1.800781 6.601562 3.398437 10.203125 4.898437.199219.101563.296875.199219.398437.300782.898438.5 1.898438.898437 2.898438 1.300781.902344.398437 2 .800781 3 1.300781 2.601562 1.199219 5.300781 2.199219 8 3.296875 3.800781 1.5 7.703125 3 11.703125 4.203125 4.5 1.597656 9.097656 3.097656 13.699219 4.398438l.097656.101562c1.300781 4.398438 2.601562 8.597656 4.101562 12.796875.101563.5.199219 1 .398438 1.5 1.5 4.402344 3.101562 8.601563 4.800781 12.800781.800781 2.199219 1.699219 4.300782 2.601563 6.402344.699218 1.597656 1.300781 3.097656 2.097656 4.597656.203125.402344.402344.800782.5 1.199219.300781.902344.703125 1.800781 1.203125 2.601563 1.296875 3 2.796875 5.800781 4.296875 8.699218.300781.5.601562 1.199219.902344 1.699219.097656.101563.097656.300781.199218.402344.898438 1.699219 1.898438 3.300781 2.898438 5 .5 1.097656 1.203125 2.199219 1.902344 3.199219.097656.199218.199218.300781.300781.398437.796875 1.601563 1.796875 3.203125 2.898437 4.703125 1.699219 2.898438 3.398438 5.5 5.300782 8.097656 1.199218 1.699219 2.398437 3.402344 3.800781 5.101563.699219 1.097656 1.597656 2.199219 2.5 3.199219 1.199219 1.601562 2.398437 3.101562 3.796875 4.699218.203125.199219.300781.402344.402344.5 1.199218 1.5 2.398437 2.902344 3.800781 4.199219.199219.300781.398437.5.597656.703125.300781.398438.601563.796875 1 1.199219l1.902344 1.898437.398437.5c.398438.402344.800782.800782 1.300782 1.199219 1.597656 1.703125 3.300781 3.300781 4.898437 4.902344 3.402344 3 4.402344 8 2.300781 12-2.101562 4-6.800781 6-11.199218 5zm0 0" fill="#7f5b53"/><g fill="#59474e"><path d="m182.746094 330.46875c0 5.519531-4.476563 10-10 10-5.519532 0-10-4.480469-10-10 0-5.523438 4.480468-10 10-10 5.523437 0 10 4.476562 10 10zm0 0"/><path d="m97.746094 415.566406c0 5.523438-4.476563 10-10 10-5.519532 0-10-4.476562-10-10 0-5.523437 4.480468-10 10-10 5.523437 0 10 4.476563 10 10zm0 0"/><path d="m282.046875 231.265625c0 5.523437-4.476563 10-10 10s-10-4.476563-10-10c0-5.519531 4.476563-10 10-10s10 4.480469 10 10zm0 0"/><path d="m161.546875 195.867188c0 5.523437-4.476563 10-10 10s-10-4.476563-10-10c0-5.523438 4.476563-10 10-10s10 4.476562 10 10zm0 0"/><path d="m55.246094 259.566406c0 5.523438-4.476563 10-10 10-5.519532 0-10-4.476562-10-10 0-5.523437 4.480468-10 10-10 5.523437 0 10 4.476563 10 10zm0 0"/><path d="m274.949219 124.96875c0 5.519531-4.480469 10-10 10-5.523438 0-10-4.480469-10-10 0-5.523438 4.476562-10 10-10 5.519531 0 10 4.476562 10 10zm0 0"/><path d="m175.648438 82.46875c0 5.519531-4.476563 10-10 10-5.523438 0-10-4.480469-10-10 0-5.523438 4.476562-10 10-10 5.523437 0 10 4.476562 10 10zm0 0"/><path d="m274.949219 39.867188c0 5.523437-4.480469 10-10 10-5.523438 0-10-4.476563-10-10 0-5.523438 4.476562-10 10-10 5.519531 0 10 4.476562 10 10zm0 0"/><path d="m388.347656 124.96875c0 5.519531-4.476562 10-10 10-5.523437 0-10-4.480469-10-10 0-5.523438 4.476563-10 10-10 5.523438 0 10 4.476562 10 10zm0 0"/><path d="m374.148438 39.867188c0 5.523437-4.476563 10-10 10-5.523438 0-10-4.476563-10-10 0-5.523438 4.476562-10 10-10 5.523437 0 10 4.476562 10 10zm0 0"/><path d="m317.449219 351.765625c0 5.523437-4.480469 10-10 10-5.523438 0-10-4.476563-10-10 0-5.519531 4.476562-10 10-10 5.519531 0 10 4.480469 10 10zm0 0"/><path d="m253.648438 458.066406c0 5.523438-4.476563 10-10 10-5.523438 0-10-4.476562-10-10 0-5.523437 4.476562-10 10-10 5.523437 0 10 4.476563 10 10zm0 0"/><path d="m388.347656 238.367188c0 5.523437-4.476562 10-10 10-5.523437 0-10-4.476563-10-10 0-5.523438 4.476563-10 10-10 5.523438 0 10 4.476562 10 10zm0 0"/><path d="m430.847656 337.566406c0 5.523438-4.476562 10-10 10-5.523437 0-10-4.476562-10-10 0-5.523437 4.476563-10 10-10 5.523438 0 10 4.476563 10 10zm0 0"/><path d="m473.347656 238.367188c0 5.523437-4.476562 10-10 10-5.523437 0-10-4.476563-10-10 0-5.523438 4.476563-10 10-10 5.523438 0 10 4.476562 10 10zm0 0"/><path d="m473.347656 139.167969c0 5.523437-4.476562 10-10 10-5.523437 0-10-4.476563-10-10 0-5.523438 4.476563-10 10-10 5.523438 0 10 4.476562 10 10zm0 0"/><path d="m466.246094 46.96875c0 5.519531-4.476563 10-10 10-5.519532 0-10-4.480469-10-10 0-5.523438 4.480468-10 10-10 5.523437 0 10 4.476562 10 10zm0 0"/></g></svg>