<svg id="Layer_32" height="512" viewBox="0 0 64 64" width="512" xmlns="http://www.w3.org/2000/svg"><path d="m16.945 48.646s0 0 0 0c.991.654 2.221.809 3.332.439l15.32-21.935c.728-5.271.644-10.631-.255-15.892-.252-1.474-.151-2.986.295-4.413l.53-1.698-4.165.062c-2.269.034-4.289 1.447-5.097 3.568-.288.754-.733 1.429-1.3 1.984l-10.975 7.017-9.17.181 5.764 22.383 5.723 8.305z" fill="#e7d29d"/><path d="m20.576 42.245.306-2.979c.295-2.876 1.49-5.586 3.415-7.744 4.965-5.566 7.837-12.688 8.123-20.141.066-1.732.673-3.399 1.735-4.768h-2.084c-1.942 0-3.804.779-5.167 2.163-.288.754-.733 1.429-1.3 1.984l-12.342 6.469-7.803.728 5.764 22.383 5.723 8.305c2.053-1.531 3.37-3.853 3.631-6.4z" fill="#bc7639"/><path d="m16.068 46.301s.876 2.344.876 2.344c-6.908.666-13.15-4.139-14.273-10.988-1.259-7.676-.632-15.543 1.825-22.923.881-2.644 2.442-5.01 4.528-6.859 1.359-1.204 2.265-2.837 2.568-4.627.067-.393.612-.442.747-.066.873 2.425 1.193 5.015.937 7.58l-.069.689c-.214 2.141.042 4.303.749 6.335 1.956 5.621 2.377 11.662 1.218 17.499-.731 3.684-.422 7.498.893 11.016z" fill="#e7d29d"/><path d="m28.96 24.66c-1.23 2.46-2.8 4.77-4.66 6.86-1.93 2.16-3.12 4.87-3.42 7.75l-.3 2.98c-.27 2.54-1.58 4.86-3.64 6.4l-.87-2.35c-.85-2.27-1.28-4.66-1.28-7.06 0-1.32.13-2.64.39-3.95.42-2.15.63-4.32.63-6.5 0-3.73-.62-7.45-1.85-11-.16-.44-.29-.9-.4-1.35v-.01l.28-2.25c.32-2.58 1.65-4.93 3.71-6.52.86-.67 1.87-.99 2.88-.99 1.42 0 2.82.65 3.75 1.87 1.16 1.54 2.04 3.24 2.65 5.03.6 1.8.91 3.69.91 5.61v1.59c0 1.4.43 2.75 1.22 3.89z" fill="#c15e5c"/><path d="m28.96 24.66c-.79-1.14-1.22-2.49-1.22-3.89v-1.59c0-1.92-.31-3.81-.91-5.61-.61-1.79-1.49-3.49-2.65-5.03-.93-1.22-2.33-1.87-3.75-1.87-1.01 0-2.02.32-2.88.99-2.06 1.59-3.39 3.94-3.71 6.52l-.28 2.25v.01c.11.45.24.91.4 1.35.252.727.472 1.463.672 2.203.003.002.006.004.009.005l1.354.671c1.651.818 2.556 2.634 2.217 4.445-.155.826-.033 1.68.346 2.43.88 1.742 1.212 3.711.95 5.645-.092.684.816 1.006 1.176.417.772-1.263 2.132-2.049 3.612-2.086h.002s.001-.002.002-.002c1.86-2.09 3.43-4.4 4.66-6.86z" fill="#c1d248"/><path d="m57.217 34.536 1.674.435c2.347.61 3.655 3.112 2.815 5.387l-1.416 3.837c-1.24 3.36-3.202 6.407-5.748 8.927-1.846 1.827-4.035 3.271-6.442 4.247l-6.62 2.687c-3.394 1.378-7.196 1.358-10.576-.054l-5.226-2.183 6.976-10.894 24.564-12.389z" fill="#bc7639"/><path d="m58.891 34.971-1.674-.435-1.982 1c.459.168.923.34 1.367.496l.648.142c2.523.555 3.564 3.584 1.916 5.573-1.977 2.385-4.498 4.26-7.352 5.466l-8.41 3.554c-1.561.66-3.05 1.477-4.446 2.439-2.989 2.061-6.393 3.444-9.973 4.052l-3.307.561 5.226 2.183c3.38 1.412 7.182 1.431 10.576.054l6.62-2.687c2.407-.977 4.596-2.42 6.442-4.247 2.545-2.52 4.508-5.567 5.748-8.927l1.416-3.837c.84-2.275-.468-4.778-2.815-5.387z" fill="#e7d29d"/><path d="m57.64 33.52-1.15 2.78c-.44 1.06-.76 2.17-.97 3.3-.53 2.82-1.81 5.45-3.71 7.61l-8.41 3.56c-1.56.66-3.05 1.47-4.44 2.44-2.99 2.06-6.4 3.44-9.98 4.05l-3.3.56 6.1-22.21 14.68-8.82 6.19-1.48c.18-.04.37-.06.55-.06.57 0 1.12.19 1.56.57.54.46.84 1.13.84 1.82 0 .2-.03.4-.08.6 2.02.89 2.96 3.23 2.12 5.28z" fill="#c15e5c"/><path d="m55.52 28.24c.05-.2.08-.4.08-.6 0-.69-.3-1.36-.84-1.82-.44-.38-.99-.57-1.56-.57-.18 0-.37.02-.55.06l-6.19 1.48-14.68 8.82-2.317 8.437c2.024 1.764 3.649 3.8 4.382 6.281.296 1 1.546 1.332 2.298.609l.341-.328c1.287-1.237 3.08-1.798 4.843-1.517 1.129.18 2.286-.013 3.295-.551 1.453-.774 3.171-.877 4.706-.281l2.483-1.051c1.9-2.16 3.18-4.79 3.71-7.61.21-1.13.53-2.24.97-3.3l1.15-2.78c.84-2.05-.1-4.39-2.12-5.28z" fill="#c1d248"/><path d="m27.449 55.923c1.145-1.226 2.392-2.352 3.728-3.366 6.3-4.784 10.931-11.435 13.232-19.004l2.465-8.108c.258-.849-.653-1.578-1.425-1.14-.554.315-1.152.545-1.775.682l-4.051.894c-9.145 2.019-16.281 9.171-18.279 18.32l-1.078 4.937c-.475 2.174.567 4.395 2.542 5.42 1.33.69 2.354 1.853 2.87 3.26l1.772-1.896z" fill="#e7d29d"/><path d="m55.516 28.26c-.266-.076-.542.076-.619.342-.959 3.319-2.804 6.317-5.334 8.671l-.232.217c-1.315 1.223-2.382 2.662-3.17 4.276-.524 1.072-1.336 1.97-2.35 2.595-1.175.727-2.076 1.785-2.604 3.062-.194.469-.451.908-.763 1.305-.073.093-.139.203-.207.307.362-.012.727.001 1.091.059.023.004.047.002.07.005.289-.404.542-.833.733-1.293.448-1.081 1.21-1.978 2.206-2.593 1.174-.726 2.116-1.765 2.723-3.007.734-1.505 1.728-2.845 2.953-3.983l.232-.217c2.663-2.478 4.604-5.633 5.614-9.126.077-.265-.076-.542-.342-.619z" fill="#9da537"/><path d="m43.673 24.988-4.051.894c-9.145 2.019-16.281 9.171-18.279 18.32l-.754 3.451c.849 1.317 2.071 2.349 3.592 2.676 2.327.5 4.673-.693 6.618-2.064 4.631-3.263 8.36-7.793 10.673-12.964 1.475-3.297 2.365-6.849 2.652-10.448-.151.045-.298.102-.452.136z" fill="#f4e1b8"/><path d="m27.716 18.588c-1.247-.746-2.11-2.017-2.32-3.465l-.122-.839c-.236-1.629-1.352-2.971-2.91-3.501-.358-.122-.599-.458-.599-.836 0-1.223-.876-2.252-2.083-2.449l-1.51-.244c-.214.118-.423.251-.623.406-.169.13-.325.274-.484.414.168.03.31.057.4.078l2.057.334c.72.117 1.243.731 1.243 1.461 0 .806.513 1.522 1.276 1.782 1.201.409 2.061 1.443 2.243 2.699l.122.839c.27 1.862 1.428 3.492 3.099 4.358.079.041.156.095.235.139v-.584c0-.198-.017-.394-.024-.592z" fill="#9da537"/><g fill="#f4e1b8"><path d="m35.342 11.257c-.087-.509-.116-1.021-.12-1.534-.314.7-.546 1.444-.71 2.188-.438 1.991-.464 4.049-.775 6.063-.472 3.056-1.616 6.002-3.31 8.588-.504.77.323 1.709 1.146 1.297.72-.36 1.439-.719 2.159-1.079.676-.338 1.356-.684 2.031-1.042.531-4.815.397-9.69-.422-14.483z"/><path d="m2.221 25.81c.003.307-.004.615.007.922.2 5.719 1.74 11.488 5.058 16.15.435.611.915 1.216 1.56 1.599s1.493.505 2.143.13c.579-.334.901-1.003.984-1.666s-.04-1.333-.162-1.991c-.451-2.429-.903-4.858-1.354-7.287-.992-5.338-1.988-10.759-1.475-16.164.213-2.245.687-4.468.723-6.722.018-1.088-.083-2.199-.347-3.256-.114.114-.211.242-.333.35-2.086 1.849-3.648 4.215-4.528 6.859-1.199 3.602-1.955 7.32-2.276 11.075z"/></g></svg>