<svg height="512pt" viewBox="-80 0 512 512.001" width="512pt" xmlns="http://www.w3.org/2000/svg"><path d="m56.5 36.054688h239v76.234374h-239zm0 0" fill="#b2ebf2"/><path d="m310.722656 512h-269.445312c-22.796875 0-41.277344-18.480469-41.277344-41.277344v-339.820312c0-22.796875 18.480469-41.277344 41.277344-41.277344h269.445312c22.796875 0 41.277344 18.480469 41.277344 41.277344v339.824218c0 22.792969-18.480469 41.273438-41.277344 41.273438zm0 0" fill="#e0f7fa"/><path d="m310.742188 89.625h-30.875c22.785156 0 41.257812 18.488281 41.257812 41.296875v339.785156c0 22.804688-18.472656 41.292969-41.257812 41.292969h30.875c22.789062 0 41.257812-18.488281 41.257812-41.296875v-339.78125c0-22.808594-18.46875-41.296875-41.257812-41.296875zm0 0" fill="#b2ebf2"/><path d="m316.105469 58.71875h-280.210938c-5.6875 0-10.300781-4.609375-10.300781-10.300781v-38.117188c0-5.6875 4.613281-10.300781 10.300781-10.300781h280.210938c5.6875 0 10.300781 4.613281 10.300781 10.300781v38.117188c0 5.691406-4.613281 10.300781-10.300781 10.300781zm0 0" fill="#58c748"/><path d="m316.105469 0h-30.90625c5.691406 0 10.304687 4.613281 10.304687 10.300781v38.117188c0 5.691406-4.613281 10.304687-10.304687 10.304687h30.90625c5.691406 0 10.300781-4.613281 10.300781-10.304687v-38.117188c0-5.6875-4.613281-10.300781-10.300781-10.300781zm0 0" fill="#51b842"/><path d="m0 188.285156v282.417969c0 22.808594 18.472656 41.296875 41.257812 41.296875h269.484376c22.789062 0 41.257812-18.488281 41.257812-41.296875v-282.417969zm0 0" fill="#c5e1a5"/><path d="m321.125 188.285156v282.417969c0 22.808594-18.472656 41.296875-41.257812 41.296875h30.875c22.789062 0 41.257812-18.488281 41.257812-41.296875v-282.417969zm0 0" fill="#aed581"/><g fill="#459e38"><path d="m54.4375 16.195312c-4.140625 0-7.5 3.355469-7.5 7.5v12.359376c0 4.144531 3.359375 7.5 7.5 7.5 4.144531 0 7.5-3.355469 7.5-7.5v-12.359376c0-4.144531-3.355469-7.5-7.5-7.5zm0 0"/><path d="m84.828125 16.195312c-4.140625 0-7.5 3.355469-7.5 7.5v12.359376c0 4.144531 3.359375 7.5 7.5 7.5 4.144531 0 7.5-3.355469 7.5-7.5v-12.359376c0-4.144531-3.355469-7.5-7.5-7.5zm0 0"/><path d="m115.21875 16.195312c-4.140625 0-7.5 3.355469-7.5 7.5v12.359376c0 4.144531 3.359375 7.5 7.5 7.5 4.144531 0 7.5-3.355469 7.5-7.5v-12.359376c0-4.144531-3.355469-7.5-7.5-7.5zm0 0"/><path d="m145.609375 16.195312c-4.140625 0-7.5 3.355469-7.5 7.5v12.359376c0 4.144531 3.359375 7.5 7.5 7.5 4.144531 0 7.5-3.355469 7.5-7.5v-12.359376c0-4.144531-3.355469-7.5-7.5-7.5zm0 0"/><path d="m176 16.195312c-4.140625 0-7.5 3.355469-7.5 7.5v12.359376c0 4.144531 3.359375 7.5 7.5 7.5s7.5-3.355469 7.5-7.5v-12.359376c0-4.144531-3.359375-7.5-7.5-7.5zm0 0"/><path d="m206.390625 16.195312c-4.140625 0-7.5 3.355469-7.5 7.5v12.359376c0 4.144531 3.359375 7.5 7.5 7.5s7.5-3.355469 7.5-7.5v-12.359376c0-4.144531-3.359375-7.5-7.5-7.5zm0 0"/><path d="m236.78125 16.195312c-4.140625 0-7.5 3.355469-7.5 7.5v12.359376c0 4.144531 3.359375 7.5 7.5 7.5s7.5-3.355469 7.5-7.5v-12.359376c0-4.144531-3.359375-7.5-7.5-7.5zm0 0"/><path d="m267.171875 16.195312c-4.140625 0-7.5 3.355469-7.5 7.5v12.359376c0 4.144531 3.359375 7.5 7.5 7.5s7.5-3.355469 7.5-7.5v-12.359376c0-4.144531-3.359375-7.5-7.5-7.5zm0 0"/><path d="m297.5625 16.195312c-4.140625 0-7.5 3.355469-7.5 7.5v12.359376c0 4.144531 3.359375 7.5 7.5 7.5s7.5-3.355469 7.5-7.5v-12.359376c0-4.144531-3.359375-7.5-7.5-7.5zm0 0"/></g><path d="m117.425781 275.128906c9.675781 17.609375-.167969 31.640625-16.792969 40.789063-16.625 9.148437-33.734374 9.949219-43.410156-7.664063-9.675781-17.613281-5.042968-41.121094 11.582032-50.269531s38.945312-.46875 48.621093 17.144531zm0 0" fill="#58c748"/><path d="m117.425781 275.128906c-9.675781-17.613281-31.996093-26.292968-48.621093-17.144531-.078126.042969-.152344.09375-.230469.136719 7.339843 3.566406 13.800781 9.464844 17.945312 17.007812 9.675781 17.609375-.167969 31.640625-16.792969 40.789063-1.386718.761719-2.777343 1.464843-4.171874 2.105469 9.699218 6.941406 22.527343 4.800781 35.078124-2.105469 16.625-9.148438 26.46875-23.179688 16.792969-40.789063zm0 0" fill="#51b842"/><path d="m122.238281 415.503906c-2.761719 19.90625-19.039062 25.273438-37.835937 22.679688-18.792969-2.597656-32.996094-12.179688-30.230469-32.085938 2.761719-19.902344 20.527344-35.984375 39.324219-33.386718 18.792968 2.597656 31.507812 22.886718 28.742187 42.792968zm0 0" fill="#58c748"/><path d="m93.496094 372.710938c-6.925782-.957032-13.703125.625-19.648438 3.992187 12.316406 7.375 19.652344 23.207031 17.484375 38.800781-1.546875 11.144532-7.332031 17.730469-15.421875 20.917969 2.683594.765625 5.53125 1.351563 8.492188 1.761719 18.796875 2.59375 35.074218-2.773438 37.835937-22.679688 2.765625-19.90625-9.949219-40.195312-28.742187-42.792968zm0 0" fill="#51b842"/><path d="m211.230469 333.535156c2.96875 19.875-11.128907 29.621094-29.894531 32.4375-18.765626 2.816406-35.089844-2.363281-38.058594-22.238281s9.53125-40.320313 28.296875-43.136719c18.761719-2.816406 36.6875 13.0625 39.65625 32.9375zm0 0" fill="#58c748"/><path d="m211.230469 333.535156c-2.96875-19.875-20.894531-35.753906-39.660157-32.9375-3.9375.59375-7.59375 1.96875-10.894531 3.941406 10.09375 5.710938 17.792969 16.574219 19.648438 28.996094 2.53125 16.941406-7.34375 26.523438-21.9375 30.726563 6.480469 2.617187 14.460937 2.984375 22.949219 1.710937 18.765624-2.816406 32.863281-12.5625 29.894531-32.4375zm0 0" fill="#51b842"/><path d="m277.9375 288.6875c-10.632812 17.054688-27.683594 15.328125-43.789062 5.300781-16.109376-10.027343-25.175782-24.5625-14.542969-41.617187 10.632812-17.050782 33.402343-24.503906 49.511719-14.476563 16.109374 10.03125 19.453124 33.742188 8.820312 50.792969zm0 0" fill="#58c748"/><path d="m269.117188 237.894531c-9.710938-6.042969-21.839844-5.730469-32.277344-.796875.460937.253906.921875.515625 1.371094.796875 16.109374 10.03125 19.453124 33.742188 8.820312 50.792969-2.226562 3.574219-4.738281 6.308594-7.457031 8.332031 14.414062 7.140625 28.921875 6.816407 38.363281-8.332031 10.632812-17.050781 7.289062-40.761719-8.820312-50.792969zm0 0" fill="#51b842"/><path d="m222.046875 437.980469c7.804687 18.519531-3.4375 31.457031-20.917969 38.835937-17.484375 7.378906-34.585937 6.402344-42.386718-12.117187-7.800782-18.515625-.757813-41.421875 16.722656-48.800781 17.480468-7.378907 38.78125 3.5625 46.582031 22.082031zm0 0" fill="#58c748"/><path d="m222.046875 437.980469c-7.800781-18.519531-29.101563-29.460938-46.582031-22.082031-1.15625.488281-2.265625 1.050781-3.328125 1.667968 8.203125 4.183594 15.207031 11.394532 19.007812 20.414063 7.800781 18.519531-3.441406 31.457031-20.921875 38.835937-.472656.199219-.941406.386719-1.410156.574219 8.730469 5.589844 20.433594 4.441406 32.316406-.574219 17.480469-7.378906 28.722656-20.316406 20.917969-38.835937zm0 0" fill="#51b842"/><path d="m308.476562 396.84375c-8.980468 17.976562-26.121093 17.859375-43.101562 9.390625-16.976562-8.46875-27.371094-22.085937-18.386719-40.0625 8.980469-17.976563 30.953125-27.535156 47.933594-19.066406s22.535156 31.761719 13.554687 49.738281zm0 0" fill="#58c748"/><path d="m294.921875 347.105469c-9.316406-4.648438-20.132813-3.859375-29.484375.761719 15.859375 9.035156 20.859375 31.511718 12.132812 48.976562-2.453124 4.910156-5.519531 8.464844-9.023437 10.875 15.910156 6.929688 31.507813 5.980469 39.929687-10.875 8.980469-17.976562 3.425782-41.269531-13.554687-49.738281zm0 0" fill="#51b842"/></svg>