<svg id="Layer_1" enable-background="new 0 0 512 512" height="512" viewBox="0 0 512 512" width="512" xmlns="http://www.w3.org/2000/svg"><g clip-rule="evenodd" fill-rule="evenodd"><g><path d="m496 367.483c0 29.11-67.833 52.709-151.508 52.709-83.676 0-151.509-23.599-151.509-52.709v-297.782h303.017z" fill="#8ac9fe"/><path d="m496 367.483c0 29.11-67.833 52.709-151.508 52.709-3.361 0-6.694-.042-10-.117 79.012-1.792 141.508-24.651 141.508-52.592v-297.782h20z" fill="#60b7ff"/><ellipse cx="344.491" cy="69.7" fill="#eceff1" rx="151.508" ry="52.709"/><path d="m344.492 16.992c83.675 0 151.508 23.598 151.508 52.709 0 29.11-67.833 52.709-151.508 52.709-3.361 0-6.694-.042-10-.117 79.012-1.792 141.508-24.651 141.508-52.592s-62.496-50.8-141.508-52.592c3.306-.075 6.638-.117 10-.117z" fill="#d1d1d6"/><ellipse cx="263.317" cy="69.7" fill="#d1d1d6" rx="27.481" ry="14.031"/><path d="m263.317 55.67c1.358 0 2.693.051 3.998.148-13.282.989-23.482 6.827-23.482 13.883s10.201 12.894 23.482 13.883c-1.305.097-2.64.148-3.998.148-15.177 0-27.48-6.282-27.48-14.031s12.303-14.031 27.48-14.031z" fill="#b1b1b5"/></g><g><path d="m359.538 334.322c-13.893-6.859-14.443-13.883-23.52-21.625-16.176-13.797-51.203 12.703-58.492 16.085-10.839 5.028-20.507 6.328-30.345-2.35-13.233-11.673-14.505-35.161-10.329-57.312 3.404-18.055 34.336-5.341 41.452-14.5 38.34-49.34 83.101-84.105 141.62-62.758 31.431 19.417 44.386 66.385 27.081 110.682-14.263 36.509-55.037 47.791-87.467 31.778z" fill="#e05c56"/><path d="m359.538 310.878c-13.893-6.229-14.443-12.607-23.52-19.638-16.176-12.529-51.203 11.536-58.492 14.607-10.839 4.566-20.506 5.747-30.345-2.134-24.019-19.241-8.035-49.795 7.817-68.321 38.342-44.808 109.826-74.751 165.268-43.648 31.433 17.635 43.013 58.333 26.74 90.275-16.459 32.306-55.038 43.4-87.468 28.859z" fill="#f57c7c"/><circle cx="399.428" cy="251.541" fill="#eceff1" r="15.912"/><path d="m399.428 235.628c8.788 0 15.912 7.124 15.912 15.912s-7.124 15.912-15.912 15.912c-1.022 0-2.02-.098-2.988-.281 7.359-1.399 12.924-7.864 12.924-15.631s-5.564-14.232-12.924-15.631c.968-.183 1.966-.281 2.988-.281z" fill="#d1d1d6"/></g><g><path d="m319.017 442.299c0 29.11-67.833 52.709-151.508 52.709-83.676 0-151.509-23.598-151.509-52.709v-207.778h303.017z" fill="#c2ed56"/><path d="m319.017 442.299c0 29.11-67.833 52.709-151.508 52.709-3.361 0-6.694-.042-10-.117 79.012-1.792 141.508-24.651 141.508-52.592v-207.778h20.001v207.778z" fill="#b7e546"/><ellipse cx="167.508" cy="234.52" fill="#eceff1" rx="151.508" ry="52.709"/><path d="m167.509 181.812c83.676 0 151.508 23.598 151.508 52.709 0 29.11-67.833 52.709-151.508 52.709-3.361 0-6.694-.042-10-.117 79.012-1.792 141.508-24.651 141.508-52.592s-62.496-50.8-141.508-52.592c3.306-.075 6.638-.117 10-.117z" fill="#d1d1d6"/><ellipse cx="86.334" cy="234.52" fill="#d1d1d6" rx="27.481" ry="14.031"/><path d="m86.334 220.49c1.358 0 2.693.051 3.998.148-13.282.989-23.482 6.827-23.482 13.883s10.201 12.894 23.482 13.883c-1.305.097-2.64.148-3.998.148-15.177 0-27.48-6.282-27.48-14.031 0-7.75 12.303-14.031 27.48-14.031z" fill="#b1b1b5"/></g><g><path d="m272.634 399.376c-45.635 53.78-108.704 59.175-153.631 14.412l-51.356 24.433c-3.511 1.671-7.13-2.13-5.289-5.555l24.7-45.951c.918-1.101.918-2.444 0-3.545l-24.699-45.95c-1.841-3.425 1.778-7.225 5.289-5.555l52.869 25.153c48.609-44.846 111.381-41.053 152.639 13.171l-14.954 14.954z" fill="#d8ecfe"/><path d="m272.634 399.376c-45.635 53.78-108.704 59.175-153.631 14.412l-51.356 24.433c-3.511 1.671-7.13-2.13-5.289-5.555l6.613-12.303c-1.826 3.422 1.788 7.212 5.295 5.543l51.356-24.433c42.014 41.86 99.892 39.852 144.542-4.567zm-184.977-13.775c.226-.821.026-1.682-.598-2.431l-24.7-45.95c-1.841-3.425 1.778-7.225 5.289-5.555l6.67 3.173 19.36 36.017c.918 1.1.918 2.444 0 3.545zm182.991-18.801c.843 1.045 1.681 2.103 2.507 3.189l-14.954 14.954-2.848-2.848z" fill="#c4e2ff"/><path d="m212.402 375.839c5.557 0 10.09-4.533 10.09-10.09s-4.533-10.09-10.09-10.09c-5.558 0-10.09 4.533-10.09 10.09 0 5.558 4.532 10.09 10.09 10.09z" fill="#c4e2ff"/><path d="m212.402 355.66c.945 0 1.859.13 2.726.373-4.248 1.189-7.364 5.089-7.364 9.717s3.116 8.527 7.364 9.717c-.867.243-1.782.373-2.726.373-5.572 0-10.09-4.517-10.09-10.09 0-5.572 4.517-10.09 10.09-10.09z" fill="#add5fa"/></g></g></svg>