<svg id="Layer_1" enable-background="new 0 0 459.402 459.402" height="512" viewBox="0 0 459.402 459.402" width="512" xmlns="http://www.w3.org/2000/svg"><g><path d="m459.186 206.14c-12.225 41.981-107.507 112.688-229.347 117.859-122.38 5.193-221.868-76.64-229.523-118.489-.197-.206-.304-1.634-.314-2.074-.05-2.349.575-6.392 4.104-10.586 81.37-20.53 394.33-28.883 448.94-2.65 4.471 4.196 7.16 10.289 6.14 15.94z" fill="#ffe262"/><path d="m459.186 206.14c-10.479 68.71-69.74 135.51-153.67 144.79-47.24 5.229-102.14 5.359-150.11.409-84.39-8.699-146.74-76.31-155.09-145.829 6.27 27.75 106.63 49.779 229.52 49.779 121.95 0 221.73-21.71 229.35-49.149z" fill="#f6d14f"/><path d="m439.476 174.789c-3.69-9.52-15.4-13.05-23.71-7.12-2.44-7.479-10.18-12.05-18.1-10.39-.491-16.96-24.391-21.347-30.42-4.89-4.47-6.79-13.34-9.07-20.51-5.24-4.14-9.1-15.74-11.99-23.7-5.94-3.89-14.569-24.651-15.688-29.82-1.33-4.66-7.409-14.38-9.42-21.5-4.96 2.176-13.368-12.851-22.903-24.14-15.42 0-17.511-26.4-21.21-30.82-3.239-9.126-10.843-26.932-4.836-27.63 9.319-5.6-4.279-13.32-4.31-19-.06-1.132-20.8-32.557-18.973-31.29 1.819-6.76-2.52-14.52-.079-18.58 6.171-8.24-7.181-21.14-3.94-24.98 6.29-9.3-4.851-20.72.689-22.63 11.01-10.82-7.13-25.36 1.319-24.21 14.479-7.36-3.35-16.33-.489-20.29 6.96-2.54-1.819-5.65-2.88-9.03-2.88-20.14 0-14.93 23.37-15.01 23.48 20.25 24.27 113.61 42.62 225.73 42.62 144.326 0 222.692-30.183 226.047-42.015 2.828-9.114-5.607-22.004-16.407-18.664z" fill="#ff8293"/><g fill="#ff6b7d"><circle cx="145.792" cy="169.917" r="15.672"/><circle cx="243.914" cy="163.966" r="15.672"/><circle cx="348.86" cy="190.186" r="15.672"/></g></g></svg>