<svg id="Capa_1" enable-background="new 0 0 512 512" viewBox="0 0 512 512" xmlns="http://www.w3.org/2000/svg"><g><g><g><path d="m243.193 75.42-34.098 37.839-34.178-38.312 13.595-42.237 14.989-29.257c2.359-4.615 8.952-4.595 11.301.021l14.835 29.247z" fill="#918291"/><path d="m251.302 75.42-42.206 37.839-42.217-38.312 21.634-42.237 5.934 5.336c2.668 2.411 6.83 6.851 10.034 10.353 2.472 2.699 6.717 2.689 9.189-.01 3.132-3.43 7.211-7.768 10.065-10.343l5.903-5.326z" fill="#7a6d79"/><g><path d="m406.396 275.172c0 6.171-.258 12.218-.773 18.121-7.922 91.439-76.038 150.509-171.546 150.509h-49.974c-12.177 0-24.075-.288-35.593-1.205-36.571-2.874-69.259-11.909-94.591-37.241-6.892-6.892-13.238-14.33-18.966-22.242-21.983-30.328-34.953-67.621-34.953-107.942 0-85.907 51.808-159.709 125.888-191.871 2.277-.989 4.584 1.143 6.902.237 3.121-1.226 6.274-5.47 9.467-6.542.814-8.633.67-17.369-.495-26.053l-1.72-12.888c-1.102-8.283 8.695-13.444 14.907-7.86l25.703 23.158c4.502 4.059 12.517 13.33 12.517 13.33s3.317 3.266 7.036 8.005c.062.082.124.165.196.247 1.834 2.359 2.709 7.129 4.368 9.972 1.659 2.854 4.08 3.771 4.862 6.686.072-.175.144-.35.216-.546 3.667-8.787 15.082-24.374 15.082-24.374s8.015-9.189 12.599-13.32l25.703-23.158c6.202-5.584 16.009-.422 14.907 7.86l-1.72 12.888c-1.164 8.684-1.308 17.42-.494 26.053 2.514.845 4.996 4.831 7.458 5.769 2.998 1.143 5.965-.742 8.901.536h.01c16.205 7.036 28.783 14.114 42.557 24.827 15.422 12.002 26.331 29.566 37.859 45.369 25.229 34.552 33.687 75.615 33.687 121.675z" fill="#eb5569"/><path d="m143.924 291.499c-8.715 0-17.142 2.006-23.19 8.269-6.037 6.253-9.055 11.568-9.055 25.088 0 16.675 5.16 41.239 9.47 56.978 4.865 17.764-11.533 34.117-29.227 29.003-20.625-5.962-39.761-15.432-56.718-27.724 5.734 7.91 12.078 15.351 18.97 22.243 33.316 33.316 79.344 53.92 130.184 53.92h48.758c101.864 0 185.307-82.214 185.32-184.078.006-46.069-14.881-88.646-40.115-123.205-12.169-16.665-26.75-31.454-43.221-43.87.669.887 1.354 1.761 2.009 2.658 25.229 34.552 40.115 77.119 40.115 123.179 0 14.819-1.578 22.993-4.775 38.056-2.408 11.341-12.368 19.483-23.962 19.483z" fill="#e53950"/><g><path d="m202.163 145.307c.258 4.265-2.977 7.932-7.242 8.19-.155.01.165 0 0 0-4.049 0-7.932-3.132-8.19-7.232-1.195-19.357 1.988-46.337 10.044-63.984 1.504-3.297 2.689-5.676 3.626-7.345 3.657 4.718 7.665 10.838 9.23 16.658-6.788 15.535-8.519 36.798-7.468 53.713z" fill="#e53950"/></g></g><g fill="#e53950"><circle cx="50.517" cy="232.675" r="7.726"/><circle cx="38.645" cy="268.968" r="7.726"/><circle cx="69.947" cy="261.241" r="7.726"/><circle cx="325.844" cy="236.519" r="7.726"/><circle cx="348.958" cy="213.603" r="7.726"/></g></g><g><path d="m464.351 344.34.966 45.841c0 3.966-.989 7.706-2.74 10.982-3.925 7.345-11.672 12.352-20.583 12.352-8.921 0-16.668-5.007-20.593-12.352-1.751-3.276-10.807-6.923-10.807-10.889l8.067-48.933c0-8.663 4.729-16.222 11.746-20.244 3.414-1.957 7.369-.859 11.587-.859 6.439 0 11.304 3.397 15.528 7.61 4.223 4.223 6.829 10.054 6.829 16.492z" fill="#f07281"/><path d="m458.487 324.847c-4.224-4.214-10.055-6.83-16.493-6.83-4.218 0-8.173 1.122-11.587 3.079 1.777 1.032 3.41 2.295 4.849 3.751 4.164 4.224 6.733 10.055 6.733 16.493v48.841c0 3.966-.975 7.706-2.701 10.982-2.039 3.871-5.131 7.081-8.879 9.262 3.414 1.958 7.365 3.09 11.585 3.09 8.911 0 16.658-5.007 20.583-12.352 1.751-3.276 2.74-7.015 2.74-10.982v-48.841c0-6.438-2.606-12.269-6.83-16.493z" fill="#eb5569"/><path d="m278.963 341.34 5.877 49.216c0 3.966-6.866 7.33-8.618 10.606-3.925 7.345-11.672 12.352-20.583 12.352-8.921 0-16.668-5.007-20.593-12.352-1.751-3.276-8.481-5.959-8.481-9.925l5.74-49.897c0-8.663 4.727-16.225 11.745-20.247 3.414-1.957 7.731-1.392 11.949-1.392 6.439 0 11.182 2.761 15.405 6.975 4.225 4.224 7.559 8.226 7.559 14.664z" fill="#f07281"/><path d="m272.132 324.847c-4.224-4.214-10.055-6.83-16.493-6.83-4.218 0-8.174 1.119-11.589 3.076 1.777 1.032 3.412 2.298 4.85 3.754 4.164 4.224 6.733 10.055 6.733 16.493v48.841c0 3.966-.975 7.706-2.701 10.982-2.039 3.871-5.131 7.081-8.879 9.262 3.414 1.958 7.365 3.09 11.585 3.09 8.911 0 16.658-5.007 20.583-12.352 1.751-3.276 8.618-6.64 8.618-10.606l-5.877-49.216c.001-6.439-2.606-12.27-6.83-16.494z" fill="#eb5569"/><path d="m230.434 342.696-.005 47.124c0 3.966.887 8.067-.864 11.343-3.925 7.345-11.672 12.352-20.583 12.352-8.921 0-16.668-5.007-20.593-12.352-1.751-3.276-2.74-7.015-2.74-10.982v-48.841c0-8.663 4.727-16.225 11.745-20.247 3.414-1.957 7.671-1.931 11.889-1.931 6.439 0 10.098 2.827 14.322 7.04 4.223 4.224 6.829 10.055 6.829 16.494z" fill="#f07281"/><path d="m225.476 324.847c-4.224-4.214-10.055-6.83-16.493-6.83-4.218 0-8.174 1.119-11.589 3.076 1.777 1.032 3.412 2.298 4.85 3.754 4.164 4.224 6.733 10.055 6.733 16.493v48.841c0 3.966-.975 7.706-2.701 10.982-2.039 3.871-5.131 7.081-8.879 9.262 3.414 1.958 7.365 3.09 11.585 3.09 8.911 0 16.658-5.007 20.583-12.352 1.751-3.276 2.74-7.015 2.74-10.982v-48.841c.001-6.438-2.606-12.269-6.829-16.493z" fill="#eb5569"/><path d="m372.283 341.34 5.878 49.16c0 3.966-6.866 7.387-8.618 10.663-3.925 7.345-11.672 12.352-20.583 12.352-8.921 0-16.668-5.007-20.593-12.352-1.751-3.276-8.732-6.923-8.732-10.889l5.991-48.933c0-8.663 4.727-16.225 11.745-20.247 3.414-1.957 7.369-.856 11.587-.856 6.439 0 10.685 3.445 14.908 7.658 4.224 4.223 8.417 7.006 8.417 13.444z" fill="#f07281"/><path d="m365.453 324.847c-4.224-4.214-10.055-6.83-16.493-6.83-4.218 0-8.174 1.119-11.589 3.076 1.777 1.032 3.412 2.298 4.85 3.754 4.164 4.224 6.733 10.055 6.733 16.493v48.841c0 3.966-.975 7.706-2.701 10.982-2.039 3.871-5.131 7.081-8.879 9.262 3.414 1.958 7.365 3.09 11.585 3.09 8.911 0 16.658-5.007 20.583-12.352 1.751-3.276 10.655-8.511 10.655-12.477l-7.915-47.345c.001-6.439-2.605-12.27-6.829-16.494z" fill="#eb5569"/><path d="m323.037 343.093 2.586 47.088c0 3.966-.989 7.706-2.74 10.982-3.925 7.345-11.672 12.352-20.583 12.352-8.921 0-16.668-5.007-20.593-12.352-1.751-3.276-2.74-7.015-2.74-10.982v-48.841c0-8.663 4.727-16.225 11.745-20.247 3.414-1.957 7.369.054 11.587.054 6.439 0 9.685 1.239 13.909 5.452 4.223 4.224 6.829 10.055 6.829 16.494z" fill="#f07281"/><path d="m318.793 324.847c-4.224-4.214-10.055-6.83-16.493-6.83-4.218 0-8.174 1.119-11.589 3.076 1.777 1.032 3.412 2.298 4.85 3.754 4.164 4.224 6.733 10.055 6.733 16.493v48.841c0 3.966-.975 7.706-2.701 10.982-2.039 3.871-5.131 7.081-8.879 9.262 3.414 1.958 7.365 3.09 11.585 3.09 8.911 0 16.658-5.007 20.583-12.352 1.751-3.276 2.74-7.015 2.74-10.982v-48.841c.001-6.438-2.605-12.269-6.829-16.493z" fill="#eb5569"/><path d="m416.094 343.433 2.846 46.748c0 3.966-.989 7.706-2.74 10.982-3.925 7.345-11.672 12.352-20.583 12.352-8.921 0-16.668-5.007-20.593-12.352-1.751-3.276-2.74-7.015-2.74-10.982v-48.841c0-8.663 4.729-16.222 11.746-20.244 3.414-1.957 7.364-2.033 11.582-2.033 6.439 0 9.428 3.663 13.652 7.877 4.223 4.224 6.83 10.055 6.83 16.493z" fill="#f07281"/><path d="m412.11 324.847c-4.224-4.214-10.055-6.83-16.493-6.83-4.218 0-8.173 1.122-11.587 3.079 1.777 1.032 3.41 2.295 4.849 3.751 4.164 4.224 6.733 10.055 6.733 16.493v48.841c0 3.966-.975 7.706-2.701 10.982-2.039 3.871-5.131 7.081-8.879 9.262 3.414 1.958 7.365 3.09 11.585 3.09 8.911 0 16.658-5.007 20.583-12.352 1.751-3.276 2.74-7.015 2.74-10.982v-48.841c0-6.438-2.606-12.269-6.83-16.493z" fill="#eb5569"/><path d="m252.493 396.057 3.235 49.126c.016 4.01-1.038 7.795-2.917 11.114-4.211 7.443-12.561 12.537-22.188 12.575-9.638.038-18.027-4.992-22.296-12.401-1.905-3.305-2.988-7.081-3.004-11.091l-.193-49.379c-.034-8.758 5.043-16.424 12.609-20.52 3.681-1.993 8.133-1.521 12.69-1.539 6.956-.027 12.267 2.222 16.847 6.465 4.58 4.252 5.192 9.141 5.217 15.65z" fill="#f07281"/><path d="m248.092 379.158c-4.58-4.242-10.889-6.863-17.845-6.836-4.557.018-8.826 1.165-12.507 3.159 1.923 1.036 3.694 2.309 5.255 3.775 4.515 4.253 7.314 10.137 7.339 16.647l.193 49.379c.016 4.01-1.023 7.795-2.875 11.114-2.187 3.922-5.515 7.181-9.555 9.402 3.696 1.966 7.969 3.093 12.528 3.075 9.627-.038 17.976-5.132 22.188-12.575 1.879-3.319 14.59 3.825 14.575-.185l-11.85-60.308c-.028-6.511-2.867-12.395-7.446-16.647z" fill="#eb5569"/><path d="m299.731 384.432-.17 47.804c0 3.966 1.745 8.524-.006 11.8-3.925 7.345-11.672 12.352-20.583 12.352-8.921 0-16.668-5.007-20.593-12.352-1.751-3.276-2.74-7.015-2.74-10.982v-48.841c0-8.663 4.727-16.225 11.745-20.247 3.414-1.957 7.546-.8 11.764-.8 6.439 0 10.747 2.761 14.971 6.975 4.221 4.225 5.612 7.853 5.612 14.291z" fill="#f07281"/><path d="m345.493 390.046 11.228 42.871c0 3.966-8.755 7.844-10.506 11.12-3.925 7.345-11.672 12.352-20.583 12.352-8.921 0-16.668-5.007-20.593-12.352-1.751-3.276-10.071-3.581-10.071-7.547l7.331-52.275c0-8.663 4.727-16.225 11.745-20.247 3.414-1.957 7.583-.289 11.801-.289 6.439 0 11.172 2.932 15.396 7.145 4.223 4.222 4.252 12.784 4.252 19.222z" fill="#f07281"/><path d="m342.125 367.721c-4.224-4.214-10.055-6.83-16.493-6.83-4.218 0-8.174 1.119-11.589 3.076 1.777 1.032 3.412 2.298 4.85 3.754 4.164 4.224 6.733 10.055 6.733 16.493v48.841c0 3.966-.975 7.706-2.701 10.982-2.039 3.871-5.131 7.081-8.879 9.262 3.414 1.958 7.365 3.09 11.585 3.09 8.911 0 16.658-5.007 20.583-12.352 1.751-3.276 10.506-3.241 10.506-7.207l-7.766-52.616c.001-6.438-2.605-12.269-6.829-16.493z" fill="#eb5569"/><path d="m295.464 367.721c-4.224-4.214-10.055-6.83-16.493-6.83-4.218 0-8.171 1.125-11.585 3.082 1.777 1.032 3.408 2.292 4.847 3.748 4.164 4.224 6.733 10.055 6.733 16.493v48.841c0 3.966-.975 7.706-2.701 10.982-2.039 3.871-5.131 7.081-8.879 9.262 3.414 1.958 7.365 3.09 11.585 3.09 8.911 0 16.658-5.007 20.583-12.352 1.751-3.276 2.74-7.015 2.74-10.982v-48.841c0-6.438-2.606-12.269-6.83-16.493z" fill="#eb5569"/><path d="m444.164 400.934 1.955 44.249c.016 4.01-1.038 7.795-2.917 11.114-4.211 7.443-12.561 12.537-22.188 12.575-9.638.038-18.027-4.992-22.296-12.401-1.905-3.305-7.389 2.912-7.405-1.098l4.208-59.372c-.034-8.758 5.043-16.424 12.609-20.52 3.681-1.993 9.248-.16 13.805-.178 6.956-.027 10.206 4.743 14.785 8.985 4.58 4.252 7.418 10.137 7.444 16.646z" fill="#f07281"/><path d="m438.482 379.158c-4.58-4.242-10.889-6.863-17.845-6.836-4.557.018-8.826 1.165-12.507 3.159 1.923 1.036 3.694 2.309 5.255 3.775 4.515 4.253 7.314 10.137 7.339 16.647l.193 49.379c.016 4.01-1.023 7.795-2.875 11.114-2.187 3.922-5.515 7.181-9.555 9.402 3.696 1.966 7.969 3.093 12.528 3.075 9.627-.038 17.976-5.132 22.188-12.575 1.879-3.319 2.933-7.104 2.917-11.114l-.193-49.379c-.027-6.511-2.866-12.395-7.445-16.647z" fill="#eb5569"/><path d="m392.787 385.567 2.828 47.488c0 3.966-.989 7.706-2.74 10.982-3.925 7.345-11.672 12.352-20.583 12.352-8.921 0-16.668-5.007-20.593-12.352-1.751-3.276-2.74-7.015-2.74-10.982v-48.841c0-8.663 4.727-16.225 11.745-20.247 3.414-1.957 4.543-1.724 8.761-1.724 6.439 0 12.269 2.617 16.493 6.83 4.223 4.224 6.829 10.055 6.829 16.494z" fill="#f07281"/><path d="m388.785 367.721c-4.224-4.214-10.055-6.83-16.493-6.83-4.218 0-8.174 1.119-11.589 3.076 1.777 1.032 3.412 2.298 4.85 3.754 4.164 4.224 6.733 10.055 6.733 16.493v48.841c0 3.966-.975 7.706-2.701 10.982-2.039 3.871-5.131 7.081-8.879 9.262 3.414 1.958 7.365 3.09 11.585 3.09 8.911 0 16.658-5.007 20.583-12.352 1.751-3.276 2.74-7.015 2.74-10.982v-48.841c.001-6.438-2.605-12.269-6.829-16.493z" fill="#eb5569"/><path d="m300.709 432.917 1.586 47.887c0 3.966-.989 7.706-2.74 10.982-3.925 7.345-11.672 12.352-20.583 12.352-8.921 0-16.668-5.007-20.593-12.352-1.751-3.276-2.74-7.015-2.74-10.982v-48.841c0-4.808 1.456-9.276 3.951-12.989 4.189-6.232 11.306-7.244 19.382-7.244 6.439 0 12.269 2.617 16.493 6.83 4.223 4.224 5.244 7.918 5.244 14.357z" fill="#f07281"/><path d="m345.663 435.809 9.867 44.232c0 3.966-7.583 8.469-9.334 11.745-3.925 7.345-11.672 12.352-20.583 12.352-8.921 0-16.668-5.007-20.593-12.352-1.751-3.276-10.733-7.438-10.733-11.405l7.993-48.418c0-4.808 1.456-9.276 3.951-12.989 4.189-6.232 8.033-6.488 16.109-6.488 6.439 0 12.269 2.617 16.493 6.83 4.224 4.224 6.83 10.055 6.83 16.493z" fill="#f07281"/><path d="m342.106 415.47c-4.224-4.214-10.055-6.83-16.493-6.83-8.076 0-15.192 4.103-19.381 10.335 5.951.309 11.314 2.853 15.269 6.798 4.224 4.224 6.83 10.055 6.83 16.493v48.841c0 3.966-.989 7.706-2.74 10.982-.37.693-.785 1.357-1.22 2.006.413.022.825.044 1.243.044 8.911 0 16.658-5.007 20.583-12.352 1.751-3.276 9.334-7.778 9.334-11.745l-6.594-48.078c-.001-6.44-2.607-12.271-6.831-16.494z" fill="#eb5569"/><path d="m295.464 415.47c-4.224-4.214-10.055-6.83-16.493-6.83-8.076 0-15.192 4.103-19.381 10.335 5.951.309 11.314 2.853 15.269 6.798 4.224 4.224 6.83 10.055 6.83 16.493v48.841c0 3.966-.989 7.706-2.74 10.982-.37.693-.785 1.357-1.22 2.006.413.022.825.044 1.243.044 8.911 0 16.658-5.007 20.583-12.352 1.751-3.276 2.74-7.015 2.74-10.982v-48.841c-.001-6.44-2.607-12.271-6.831-16.494z" fill="#eb5569"/><path d="m394.318 435.809 1.297 44.995c0 3.966-.989 7.706-2.74 10.982-3.925 7.345-11.672 12.352-20.583 12.352-8.921 0-16.668-5.007-20.593-12.352-1.751-3.276-2.74-7.015-2.74-10.982v-48.841c0-4.808 1.456-9.276 3.951-12.989 4.189-6.232 10.009-6.488 18.085-6.488 6.439 0 12.269 2.617 16.493 6.83 4.224 4.224 6.83 10.055 6.83 16.493z" fill="#f07281"/><path d="m388.785 415.47c-4.224-4.214-10.055-6.83-16.493-6.83-8.076 0-15.192 4.103-19.381 10.335 5.951.309 11.314 2.853 15.269 6.798 4.224 4.224 6.83 10.055 6.83 16.493v48.841c0 3.966-.989 7.706-2.74 10.982-.37.693-.785 1.357-1.22 2.006.413.022.825.044 1.243.044 8.911 0 16.658-5.007 20.583-12.352 1.751-3.276 2.74-7.015 2.74-10.982v-48.841c-.001-6.44-2.607-12.271-6.831-16.494z" fill="#eb5569"/><path d="m479.134 325.494c-7.274 0-13.448 5.498-14.102 12.743-6.437 71.346-66.402 127.254-139.424 127.254s-132.987-55.908-139.424-127.254c-.654-7.244-6.828-12.743-14.102-12.743h-8.309l-15.58 3.073c-3.668 0-6.505 3.033-6.505 6.7 0 81.195 83.159 172.163 183.92 172.163s183.032-87.227 183.032-172.673c0-3.668-2.838-6.7-6.505-6.7l-15.878-2.563z" fill="#e53950"/><path d="m505.491 325.494h-19.234l-1.357 20.604c-10.198 80.228-77.646 139.996-159.292 139.996s-149.094-59.769-159.292-139.996l-2.544-20.604h-18.047c-3.668 0-6.635 3.035-6.505 6.7 3.528 99.901 85.626 179.806 186.388 179.806s182.86-79.905 186.388-179.806c.129-3.666-2.838-6.7-6.505-6.7z" fill="#eb5569"/></g></g><g><path d="m142.258 76.996c-1.37 15.216-5.512 29.875-12.311 43.566l-14.206 28.639c-1.35 2.72-4.09 4.296-6.933 4.296-1.154 0-2.328-.258-3.43-.804-3.822-1.895-5.378-6.531-3.482-10.364l14.216-28.639c4.78-9.642 8.066-19.831 9.776-30.39 5.347-2.328 10.807-4.429 16.37-6.304z" fill="#e53950"/></g><g><path d="m312.804 152.694c-1.113.546-2.277.804-3.431.804-2.843 0-5.584-1.576-6.933-4.296l-14.216-28.639c-6.789-13.691-10.93-28.351-12.3-43.566 5.563 1.875 11.013 3.976 16.359 6.305h.01c1.71 10.559 4.996 20.748 9.776 30.39l14.217 28.639c1.896 3.831.34 8.467-3.482 10.363z" fill="#e53950"/></g></g><g/><g/><g/><g/><g/><g/><g/><g/><g/><g/><g/><g/><g/><g/><g/></svg>