<svg id="Capa_1" enable-background="new 0 0 512 512" viewBox="0 0 512 512" xmlns="http://www.w3.org/2000/svg"><g><g><path d="m290.176 33.939c-.029.006-.058.01-.087.016-14.988 3.101-24.624 17.766-21.523 32.754 3.068 14.827 17.452 24.408 32.271 21.61 5.513 10.89 17.808 17.199 30.334 14.607 14.988-3.101 24.624-17.766 21.523-32.754-1.542-7.451-5.943-13.578-11.82-17.476 3.847-5.91 5.455-13.28 3.913-20.732-3.101-14.988-17.766-24.624-32.754-21.523-11.853 2.453-20.352 12.14-21.857 23.498z" fill="#ffefd2"/></g><g><path d="m272.539 27.802c0-.03.002-.059.002-.088.001-15.306-12.407-27.714-27.713-27.714-15.141 0-27.438 12.144-27.701 27.223-11.782 3.192-20.451 13.953-20.451 26.745 0 15.306 12.408 27.713 27.714 27.713 7.609 0 14.5-3.068 19.509-8.033 5.008 4.965 11.899 8.033 19.509 8.033 15.306 0 27.714-12.408 27.714-27.713-.001-12.105-7.765-22.39-18.583-26.166z" fill="#fec165"/></g><g><path d="m312.068 106.823c-.019.022-.04.043-.06.065-10.007 11.582-8.73 29.082 2.852 39.089 11.457 9.899 28.702 8.749 38.759-2.489 11.002 5.287 24.597 2.812 32.96-6.868 10.007-11.582 8.73-29.082-2.852-39.089-5.758-4.975-12.978-7.158-20.014-6.676-.544-7.031-3.752-13.858-9.51-18.833-11.582-10.007-29.082-8.73-39.089 2.852-7.913 9.161-8.762 22.02-3.046 31.949z" fill="#fec165"/></g><g><path d="m220.567 65.818c.02-.022.042-.041.062-.063 10.471-11.164 9.909-28.702-1.254-39.173-11.044-10.358-28.321-9.913-38.828.905-10.777-5.732-24.462-3.813-33.213 5.517-10.471 11.164-9.909 28.702 1.254 39.173 5.55 5.206 12.675 7.682 19.725 7.487.256 7.047 3.183 14 8.733 19.205 11.164 10.471 28.702 9.909 39.173-1.254 8.281-8.829 9.655-21.643 4.348-31.797z" fill="#ffefd2"/></g><g><path d="m255.473 107.719c-.012.027-.026.053-.039.08-6.355 13.924-.22 30.363 13.704 36.719 13.774 6.287 30.004.345 36.504-13.263 12.044 1.988 24.398-4.202 29.71-15.839 6.355-13.924.22-30.363-13.704-36.719-6.922-3.16-14.465-3.23-21.083-.793-2.494-6.596-7.489-12.249-14.412-15.408-13.924-6.355-30.364-.22-36.719 13.704-5.025 11.011-2.234 23.592 6.039 31.519z" fill="#fedba6"/></g><g><path d="m214.021 143.96c.017.025.031.05.048.075 8.592 12.667 25.825 15.97 38.492 7.379 12.531-8.499 15.89-25.453 7.644-38.079 7.958-9.255 9.092-23.027 1.912-33.614-8.592-12.667-25.825-15.97-38.492-7.379-6.297 4.271-10.278 10.679-11.636 17.599-6.932-1.298-14.357.031-20.654 4.303-12.667 8.592-15.97 25.825-7.379 38.492 6.794 10.017 18.993 14.171 30.065 11.224z" fill="#fece85"/></g><g><path d="m194.54 98.839c0-.03.002-.059.002-.089 0-15.306-12.408-27.713-27.714-27.713-15.141 0-27.438 12.144-27.701 27.223-11.782 3.192-20.451 13.953-20.451 26.745 0 15.306 12.408 27.713 27.714 27.713 7.609 0 14.5-3.068 19.509-8.033 5.008 4.965 11.899 8.033 19.509 8.033 15.306 0 27.714-12.408 27.714-27.713-.001-12.105-7.765-22.391-18.582-26.166z" fill="#fedba6"/></g><g><g><g><path d="m150.899 504.213c.421 4.419 4.132 7.787 8.571 7.787h183.058c4.439 0 8.15-3.368 8.571-7.787 1.542-16.195 5.323-55.949 9.767-103.041l-106.083-4.318-113.651 4.318c4.444 47.092 8.225 86.847 9.767 103.041z" fill="#fd5426"/></g><g><path d="m326.902 399.79s-6.282 69.013-6.711 73.515c-.421 4.419-4.132 7.787-8.571 7.787h-162.92c.938 9.875 1.691 17.784 2.199 23.122.421 4.419 4.132 7.787 8.571 7.787h183.058c4.439 0 8.15-3.368 8.571-7.787 1.542-16.195 5.323-55.949 9.767-103.041z" fill="#ef4424"/></g></g><g><g><path d="m135.562 341.97 119.221 10.628 111.653-10.628c1.869-19.939 3.744-40.009 5.525-59.202l-117.178-12.078-124.746 12.078c1.782 19.193 3.656 39.263 5.525 59.202z" fill="#2ed1e2"/></g><g><path d="m338.183 279.286-6.098 65.954 34.351-3.27c1.869-19.939 3.744-40.009 5.525-59.202z" fill="#02c7dd"/></g></g><g><g><path d="m383.074 156.762c0-24.314-19.711-44.025-44.025-44.025-17.09 0-31.905 9.738-39.2 23.967-.903 1.761-2.677 2.904-4.657 2.904h-.336c-1.979 0-3.754-1.143-4.657-2.904-7.295-14.229-22.11-23.967-39.2-23.967s-31.905 9.738-39.2 23.967c-.903 1.761-2.677 2.904-4.657 2.904h-.336c-1.979 0-3.754-1.143-4.657-2.904-7.295-14.229-22.11-23.967-39.2-23.967-24.314 0-44.025 19.71-44.025 44.025 0 3.257 2.294 29.694 5.666 66.804l126.41 6.633 126.408-6.633c3.372-37.11 5.666-63.548 5.666-66.804z" fill="#fd5426"/></g><g><path d="m350.618 114.284c1.002 3.688 1.547 7.564 1.547 11.569 0 1.155-9.012 99.51-9.012 99.51l34.254-1.798c3.372-37.11 5.666-63.547 5.666-66.804.001-20.308-13.755-37.395-32.455-42.477z" fill="#ef4424"/></g></g><g><g><path d="m371.962 282.768c1.974-21.266 3.833-41.454 5.446-59.202h-252.817c1.613 17.748 3.472 37.936 5.446 59.202z" fill="#fee8c7"/></g><g><path d="m343.319 223.565c-1.716 18.657-3.571 38.769-5.458 59.202h34.101c1.974-21.266 3.833-41.454 5.446-59.202z" fill="#fedba6"/></g></g><g><g><path d="m135.562 341.97c1.896 20.218 3.786 40.3 5.57 59.202h219.735c1.784-18.902 3.674-38.984 5.57-59.202z" fill="#fee8c7"/></g><g><path d="m332.387 341.97c-1.949 21.056-3.819 41.231-5.486 59.202h33.965c1.784-18.902 3.674-38.984 5.57-59.202z" fill="#fedba6"/></g></g></g></g><g/><g/><g/><g/><g/><g/><g/><g/><g/><g/><g/><g/><g/><g/><g/></svg>