<svg id="Layer_3" height="512" viewBox="0 0 64 64" width="512" xmlns="http://www.w3.org/2000/svg" data-name="Layer 3"><path d="m15 48 .845 1.268a3.891 3.891 0 0 0 3.237 1.732 3.888 3.888 0 0 0 1.739-.411l1.179-.589 10-1 .2.59a3.526 3.526 0 0 0 3.34 2.41 3.525 3.525 0 0 0 2.492-1.032l.968-.968 8 2 3.208 2.406a2.966 2.966 0 0 0 1.782.594 2.97 2.97 0 0 0 2.757-1.866l1.253-3.134-1-11-42-1z" fill="#be624b"/><g fill="#f9cd80"><path d="m37.537 53.636 12.463-31.636v-15a2 2 0 0 1 2-2h4a2 2 0 0 1 2 2v17l-11 31z"/><path d="m20.537 53.636 12.463-31.636v-15a2 2 0 0 1 2-2h4a2 2 0 0 1 2 2v17l-11 31z"/><path d="m3.537 53.636 12.463-31.636v-15a2 2 0 0 1 2-2h4a2 2 0 0 1 2 2v17l-11 31z"/></g><rect fill="#73412d" height="4" rx="2" width="10" x="3" y="53"/><rect fill="#73412d" height="4" rx="2" width="10" x="20" y="53"/><rect fill="#73412d" height="4" rx="2" width="10" x="37" y="53"/><path d="m20.239 10a11.693 11.693 0 0 1 5.23 1.235l1.531.765h2a9.468 9.468 0 0 1 4.236-1h1.158a11.91 11.91 0 0 1 6.606 2h4a6.826 6.826 0 0 1 4.828-2h5.172a9.652 9.652 0 0 1 7 9.28v6.72l-4.536 22.68a2.886 2.886 0 0 1 -2.83 2.32 2.887 2.887 0 0 1 -2.475-1.4l-1.333-2.222a7.14 7.14 0 0 0 -2.162-2.268 6.608 6.608 0 0 0 -3.664-1.11 12.343 12.343 0 0 0 -3.9.632l-4.1 1.368-1.2-.719a16 16 0 0 0 -8.233-2.281 10.706 10.706 0 0 0 -6.421 2.14l-1.146.86-4.262-2.841a6.9 6.9 0 0 0 -3.827-1.159 6.907 6.907 0 0 0 -3.55.983l-2.8 1.682a2.35 2.35 0 0 1 -1.212.335 2.349 2.349 0 0 1 -2.349-2.349 13.408 13.408 0 0 1 1.851-6.8l4.393-7.468a27.205 27.205 0 0 0 3.756-13.791 4.578 4.578 0 0 1 2.222-3.925 11.694 11.694 0 0 1 6.017-1.667z" fill="#723624"/><path d="m37 47 4.1-1.368a12.343 12.343 0 0 1 3.9-.632 6.608 6.608 0 0 1 3.664 1.109 7.14 7.14 0 0 1 2.162 2.268l1.333 2.223a2.886 2.886 0 0 0 5.305-.919l4.536-22.681v-6.72a9.652 9.652 0 0 0 -7-9.28h-5.172a6.826 6.826 0 0 0 -4.828 2 68.108 68.108 0 0 1 -4.1 23.277z" fill="#73412d"/><path d="m35.313 35.157-1.432-.717a1.869 1.869 0 0 1 -.2-3.227 1.208 1.208 0 0 0 -.671-2.213 2.27 2.27 0 0 1 -2.183-2.894l1.081-3.783a21.409 21.409 0 0 0 .129-11.241 9.449 9.449 0 0 0 -3.037.918h-2l-1.178-.589-6.458 35.165.636.424 1.146-.86a10.706 10.706 0 0 1 6.421-2.14 15.945 15.945 0 0 1 2.293.169 7.833 7.833 0 0 1 5.351-7.569.781.781 0 0 0 .102-1.443z" fill="#89513d"/><path d="m27 12-1.531-.765a11.692 11.692 0 0 0 -11.247.432 4.578 4.578 0 0 0 -2.222 3.925 27.205 27.205 0 0 1 -3.756 13.793l-4.393 7.468a13.408 13.408 0 0 0 -1.851 6.798 2.349 2.349 0 0 0 3.558 2.014l2.8-1.682a6.907 6.907 0 0 1 3.553-.983 6.9 6.9 0 0 1 3.827 1.159l4.262 2.841 3.058-9.612a83.734 83.734 0 0 0 3.942-25.388z" fill="#73412d"/><path d="m14.222 11.667a4.578 4.578 0 0 0 -2.222 3.925 27.205 27.205 0 0 1 -3.756 13.793l-4.393 7.468a13.408 13.408 0 0 0 -1.851 6.798 2.347 2.347 0 0 0 2.31 2.349l.158-.343a29.852 29.852 0 0 1 10.545-12.333.723.723 0 0 0 -.4-1.324 2.408 2.408 0 0 1 -2.223-3.334 33.419 33.419 0 0 0 2.269-17.222c-.143.078-.295.138-.436.223z" fill="#89513d"/><path d="m46.79 45.255.624-3.746a3.445 3.445 0 0 1 4.075-2.809 3.446 3.446 0 0 0 2.743-.622 1.591 1.591 0 0 0 -.609-2.826 4.5 4.5 0 0 1 -3.047-6.4 6.371 6.371 0 0 0 0-5.7 3.524 3.524 0 0 1 1.576-4.728 4.33 4.33 0 0 0 .539-7.424h-2.863a6.826 6.826 0 0 0 -4.828 2 68.108 68.108 0 0 1 -4.1 23.277l-3.9 10.723 4.1-1.368a12.343 12.343 0 0 1 3.9-.632 6.256 6.256 0 0 1 .909.067 6.732 6.732 0 0 1 .881.188z" fill="#89513d"/></svg>