<svg height="511pt" viewBox="0 -104 511.99962 511" width="511pt" xmlns="http://www.w3.org/2000/svg"><path d="m133.398438 11.609375c20.683593 11.511719 40.710937 24.351563 60.332031 37.570313 18.757812 12.640624 37.117187 25.898437 54.8125 40 11.996093 9.5625 21.5 22.0625 34.347656 30.621093 14.304687 9.527344 22.960937 4.546875 38.566406 5.644531 12.449219.875 24.140625 5.382813 31.722657 15.648438 8.675781 11.746094 4.617187 33.5625 20.214843 39.179688 13.699219 4.9375 34.027344 7.816406 48.5 6.910156 0 0 77.503907-9.964844 90.03125 60.859375.515625 2.90625-1.773437 5.558593-4.726562 5.558593h-15.988281s10.417968 24.917969 9.015624 40.515626c-.191406 2.140624-1.828124 3.855468-3.945312 4.210937-14.445312 2.429687-72.140625 9.730469-107.167969-21.222656l-3.847656 23.085937c-.472656 2.828125-3.308594 4.597656-6.066406 3.816406-45.078125-12.75-55.515625-80.3125-109.511719-70.925781l-170.941406 20.519531zm0 0" fill="#ffc1b8"/><path d="m507.207031 253.605469h-13.5625c-20.222656-53.84375-85.851562-45.410157-85.851562-45.410157-14.472657.910157-34.796875-1.96875-48.503907-6.90625-15.589843-5.625-11.535156-27.429687-20.210937-39.179687-7.578125-10.265625-19.265625-14.773437-31.722656-15.652344-15.601563-1.097656-24.257813 3.882813-38.566407-5.644531-12.84375-8.554688-22.351562-21.0625-34.347656-30.617188-17.691406-14.105468-36.046875-27.359374-54.8125-40-16.359375-11.023437-33.003906-21.789062-50.082031-31.726562l3.851563-26.859375c20.683593 11.515625 40.710937 24.351563 60.335937 37.574219 18.753906 12.640625 37.109375 25.894531 54.8125 39.992187 11.996094 9.566407 21.5 22.0625 34.347656 30.625 14.300781 9.527344 22.953125 4.550781 38.566407 5.644531 12.445312.871094 24.132812 5.378907 31.722656 15.652344 8.667968 11.738282 4.621094 33.558594 20.210937 39.171875 13.707031 4.9375 34.027344 7.816407 48.503907 6.914063 0 0 77.5-9.96875 90.027343 60.855468.515625 2.910157-1.769531 5.566407-4.71875 5.566407zm0 0" fill="#ffb3a8"/><path d="m10.664062 56.628906c-10.777343 26.089844-11.78125 55.183594-9.902343 83.351563 1.535156 22.972656 5.023437 46.285156 15.351562 66.863281 14.453125 28.804688 45.121094 50.601562 77.898438 47.449219 8.839843-.851563 17.816406-2.519531 25.492187-6.988281 53.585938-31.21875 56.707032-120.152344 48.046875-173.429688-3.210937-19.777344-10.546875-39.714844-24.726562-54.265625-1.875-1.921875-3.84375-3.757813-5.929688-5.457031-15.886719-12.9375-38.449219-14.53125-58.117187-13.320313-4.039063.25-8.066406.753907-12.023438 1.582031-7.855468 1.644532-15.503906 4.609376-22.011718 9.367188-15.027344 10.996094-27 27.71875-34.078126 44.847656zm0 0" fill="#e57670"/><path d="m119.507812 247.300781c-7.679687 4.472657-16.660156 6.136719-25.492187 6.992188-6.601563.636719-13.113281.257812-19.425781-.976563 6.28125-1.058594 12.433594-2.820312 17.914062-6.015625 53.589844-31.214843 56.714844-120.148437 48.058594-173.429687-3.222656-19.777344-10.554688-39.707032-24.734375-54.257813-13.183594-13.535156-25.710937-16.980469-42.484375-18.273437 5.421875-.667969 10.890625-.8125 16.199219-.597656 22.5.90625 37.410156 2.582031 53.28125 18.871093 14.179687 14.554688 21.511719 34.484375 24.730469 54.257813 8.660156 53.28125 5.53125 142.214844-48.046876 173.429687zm0 0" fill="#e05c56"/><path d="m31.121094 73.734375c-7.542969 19.621094-8.246094 41.5-6.929688 62.679687 1.074219 17.277344 3.515625 34.808594 10.742188 50.285157 10.117187 21.660156 31.574218 38.054687 54.515625 35.683593 6.183593-.640624 12.464843-1.894531 17.835937-5.257812 37.496094-23.472656 39.683594-90.355469 33.625-130.421875-2.25-14.871094-7.382812-29.863281-17.304687-40.808594-6.238281-6.878906-14.59375-11.085937-23.625-12.933593-9.128907-1.867188-19.308594-2.074219-28.449219-.246094-5.96875 1.195312-11.753906 3.511718-16.5625 7.292968-10.515625 8.269532-18.894531 20.847657-23.847656 33.726563zm0 0" fill="#d33737"/><path d="m107.289062 217.125c-5.371093 3.363281-11.660156 4.621094-17.84375 5.257812-5.339843.550782-10.59375.089844-15.644531-1.230468 3.566407-.808594 7.019531-2.058594 10.164063-4.027344 37.5-23.476562 39.683594-90.355469 33.617187-130.417969-2.242187-14.875-7.375-29.871093-17.300781-40.8125-8.511719-9.390625-16.625-12.320312-27.050781-13.480469 4.351562-.726562 8.796875-.890624 13.089843-.707031 15.742188.675781 26.183594 1.9375 37.285157 14.1875 9.925781 10.941407 15.058593 25.9375 17.300781 40.808594 6.066406 40.066406 3.871094 106.945313-33.617188 130.421875zm0 0" fill="#c42626"/><path d="m65.429688 80.675781c-2.605469 6.785157-2.851563 14.355469-2.394532 21.679688.371094 5.976562 1.214844 12.042969 3.714844 17.394531 3.5 7.492188 10.921875 13.164062 18.855469 12.339844 2.140625-.21875 4.3125-.652344 6.171875-1.816406 12.96875-8.121094 13.726562-31.253907 11.628906-45.113282-.777344-5.140625-2.554688-10.328125-5.984375-14.113281-3.84375-4.238281-7.449219-4.671875-12.898437-4.910156-3.714844-.160157-7.769532.457031-10.84375 2.875-3.636719 2.859375-6.535157 7.207031-8.25 11.664062zm0 0" fill="#ffc1b8"/><path d="m91.777344 130.273438c-1.863282 1.167968-4.035156 1.597656-6.175782 1.820312-2.613281.265625-5.171874-.164062-7.550781-1.136719.460938-.183593.902344-.417969 1.332031-.683593 12.96875-8.113282 13.726563-31.253907 11.628907-45.113282-.777344-5.144531-2.550781-10.328125-5.980469-14.117187-2.234375-2.46875-4.394531-3.648438-6.894531-4.242188 2.078125-.59375 4.289062-.757812 6.390625-.664062 5.4375.234375 9.054687.675781 12.898437 4.90625 3.429688 3.789062 5.203125 8.972656 5.980469 14.117187 2.097656 13.859375 1.339844 37-11.628906 45.113282zm0 0" fill="#ffb3a8"/></svg>