<svg id="Layer_1" enable-background="new 0 0 500 500" viewBox="0 0 500 500" xmlns="http://www.w3.org/2000/svg" xmlns:xlink="http://www.w3.org/1999/xlink"><linearGradient id="SVGID_1_" gradientUnits="userSpaceOnUse" x1="54.144" x2="583.012" y1="195.25" y2="370.031"><stop offset="0" stop-color="#8a460a"/><stop offset="1" stop-color="#291503"/></linearGradient><linearGradient id="lg1"><stop offset="0" stop-color="#bf610d"/><stop offset="1" stop-color="#542b06"/></linearGradient><linearGradient id="SVGID_2_" gradientUnits="userSpaceOnUse" x1="68.279" x2="575.129" xlink:href="#lg1" y1="150.255" y2="317.759"/><linearGradient id="SVGID_3_" gradientUnits="userSpaceOnUse" x1="68.279" x2="575.129" xlink:href="#lg1" y1="152.695" y2="320.199"/><linearGradient id="SVGID_4_" gradientUnits="userSpaceOnUse" x1="68.279" x2="575.129" xlink:href="#lg1" y1="155.136" y2="322.64"/><linearGradient id="SVGID_5_" gradientUnits="userSpaceOnUse" x1="68.279" x2="575.129" xlink:href="#lg1" y1="157.577" y2="325.081"/><linearGradient id="SVGID_6_" gradientUnits="userSpaceOnUse" x1="68.279" x2="575.129" xlink:href="#lg1" y1="144.884" y2="312.388"/><g><path d="m474.766 231.044c-.136-1.723-.367-3.432-.705-5.13-.19-1.032-.382-2.061-.641-3.085 0-.001-.001-.003-.001-.004s-.001-.001-.001-.003c-.46-1.71-1.046-3.404-1.69-5.088-.018-.048-.032-.098-.049-.145-.116-.301-.199-.606-.32-.904-4.866-12.352-14.743-23.878-28.62-34.206-.433-.324-.857-.65-1.299-.971-.174-.128-.34-.26-.516-.387-.001 0-.001 0-.001 0-1.9-1.365-3.815-2.72-5.854-4.039 0 0 0 0-.001 0-.466-.303-.957-.599-1.431-.899-2.244-1.44-4.573-2.852-6.999-4.226-.003-.001-.004-.002-.006-.004-.02-.011-.038-.023-.058-.035-.005-.001-.008-.005-.013-.008-2.179-1.232-4.502-2.402-6.805-3.586-1.478-.757-2.958-1.509-4.485-2.242-2.724-1.317-5.492-2.608-8.368-3.857-.013-.005-.025-.01-.038-.015-7.255-3.148-14.994-6.053-23.143-8.729-.187-.062-.351-.137-.537-.198-.001-.001-.004-.001-.005-.001-.127-.042-.264-.077-.391-.118-16.013-5.2-33.622-9.407-52.436-12.518h.001c-.006 0-.01-.001-.017-.003-7.783-1.285-15.745-2.386-23.912-3.27-.674-.075-1.336-.164-2.013-.236-8.41-.872-16.947-1.587-25.695-2.008-.018 0-.034-.003-.053-.004l-.001.001c-7.639-.366-15.384-.57-23.238-.57-6.207 0-12.31.193-18.387.422h.001c-.005 0-.009 0-.014 0-5.74.217-11.377.576-16.983.99-1.045.077-2.105.135-3.145.218-5.425.437-10.748.987-16.027 1.601-1.035.121-2.072.235-3.101.363-5.407.668-10.716 1.427-15.951 2.276-.656.107-1.305.216-1.959.325-5.552.927-10.998 1.935-16.33 3.055-.006.001-.014.003-.022.004l-.001.001c-.004 0-.005.001-.009.001-13.171 2.768-25.604 6.104-37.206 9.952-.253.084-.498.171-.75.255-11.264 3.769-21.683 8.003-31.161 12.66-.434.213-.86.429-1.289.644-9.214 4.607-17.467 9.594-24.674 14.926-.38.282-.756.563-1.13.846-7.096 5.369-13.083 11.054-17.884 17.016-.224.276-.45.552-.667.829-4.729 6.038-8.183 12.334-10.286 18.847-.081.252-.175.502-.253.754-.669 2.189-1.197 4.392-1.549 6.624v.004c-.169 1.067-.339 2.133-.484 3.204-.042.012-.146.041-.146.041v.003c0 .001 0 .526-.003 1.263 0 .138-.001.224-.003.378-.07.767-.165 1.53-.165 2.305 0 .637.118 1.261.154 1.895-.003.664-.004 1.403-.006 2.159-.013.443-.147.872-.147 1.318 0 .411.126.809.136 1.219-.01.411-.136.809-.136 1.221 0 .4.122.787.132 1.186v.071c-.01.397-.132.784-.132 1.184 0 .38.116.747.126 1.125v.196c-.01.377-.126.742-.126 1.12 0 .359.111.707.119 1.065-.023 8.083-.051 17.709-.072 26.409-.006 2.405-.013 4.702-.018 6.902-.001.42-.003.853-.003 1.263-.001.533-.003 1.029-.004 1.544-.013 5.789-.023 10.437-.023 12.612 0 3.232.403 6.418 1.064 9.569.22 1.046.61 2.067.899 3.104.584 2.089 1.222 4.166 2.085 6.212.512 1.212 1.144 2.399 1.75 3.594.927 1.825 1.923 3.634 3.065 5.42.8 1.248 1.658 2.48 2.56 3.708 1.236 1.679 2.576 3.329 4 4.966 1.073 1.237 2.145 2.47 3.323 3.682 1.525 1.567 3.196 3.093 4.891 4.616 1.333 1.201 2.608 2.413 4.045 3.586 1.799 1.467 3.785 2.875 5.741 4.295 3.186 2.319 6.576 4.564 10.159 6.749 1.822 1.11 3.552 2.251 5.473 3.326 2.5 1.401 5.206 2.715 7.868 4.052 1.664.833 3.269 1.689 4.993 2.496 2.851 1.338 5.846 2.604 8.857 3.868 1.691.71 3.364 1.423 5.103 2.109 3.21 1.265 6.514 2.474 9.883 3.655 1.646.575 3.304 1.139 4.985 1.694 3.605 1.191 7.264 2.34 11.031 3.432 1.458.422 2.951.818 4.432 1.224 4.13 1.137 8.288 2.241 12.589 3.255.697.164 1.422.303 2.124.465 22.573 5.176 47.303 8.668 73.511 10.029.268.014.53.041.799.055 8.003.401 16.108.648 24.345.648.347 0 .679-.023 1.025-.024 6.19-.015 12.311-.155 18.354-.422 6.175-.245 12.238-.65 18.257-1.124.39-.03.787-.049 1.176-.081 6.262-.509 12.404-1.155 18.47-1.9.7-.086 1.41-.159 2.105-.246 5.751-.734 11.375-1.586 16.926-2.523.008-.001.015-.003.023-.004.018-.004.037-.006.056-.01.948-.16 1.907-.307 2.851-.474 5.277-.929 10.425-1.959 15.496-3.065 1.187-.259 2.378-.512 3.553-.778 4.786-1.092 9.45-2.265 14.028-3.509 1.361-.37 2.715-.739 4.057-1.121 4.304-1.227 8.49-2.514 12.585-3.87 1.506-.496 2.988-1.003 4.466-1.518 3.804-1.327 7.512-2.698 11.114-4.135 1.629-.648 3.213-1.313 4.799-1.982 1.954-.827 4.037-1.59 5.925-2.448 1.305-.593 2.452-1.255 3.724-1.863 1.694-.808 3.313-1.642 4.946-2.474 2.829-1.446 5.61-2.904 8.253-4.423 1.702-.977 3.299-1.986 4.919-2.991 2.371-1.472 4.724-2.946 6.918-4.479 1.652-1.151 3.163-2.342 4.711-3.525 1.928-1.476 3.869-2.942 5.632-4.466 1.548-1.336 2.914-2.715 4.331-4.086 1.504-1.458 3.058-2.899 4.409-4.395 1.38-1.525 2.536-3.098 3.752-4.66 1.104-1.42 2.295-2.818 3.26-4.268 1.162-1.742 2.052-3.533 3.007-5.314.715-1.336 1.558-2.648 2.152-4.004.913-2.079 1.5-4.206 2.124-6.329.329-1.116.82-2.207 1.067-3.336.715-3.277 1.106-6.598 1.106-9.962 0-9.691 0-65.742 0-65.742s-.127-.037-.233-.066z" opacity=".1"/><g><g><path d="m464.153 265.636c0 55.122-98.307 99.807-219.576 99.807-121.27 0-219.577-44.685-219.577-99.807 0-9.633.169-66.438.169-66.438s119.332-33.37 219.408-33.37c99.947 0 219.576 34.065 219.576 34.065s0 56.05 0 65.743z" fill="url(#SVGID_1_)"/><ellipse cx="244.577" cy="208.517" fill="url(#SVGID_2_)" opacity=".2" rx="219.577" ry="99.808"/><ellipse cx="244.577" cy="210.958" fill="url(#SVGID_3_)" opacity=".2" rx="219.577" ry="99.808"/><path d="m464.153 213.399c0 55.121-98.307 99.807-219.576 99.807-121.27 0-219.577-44.685-219.577-99.807 0-55.123 98.307-99.808 219.577-99.808 121.269 0 219.576 44.686 219.576 99.808z" fill="url(#SVGID_4_)" opacity=".2"/><ellipse cx="244.577" cy="215.84" fill="url(#SVGID_5_)" opacity=".2" rx="219.577" ry="99.807"/><ellipse cx="244.577" cy="203.147" fill="url(#SVGID_6_)" rx="219.577" ry="99.808"/><g fill="#663407" opacity=".5"><path d="m319.505 109.429c-16.438-2.716-33.688-4.658-51.689-5.519l-219.236 144.056c8.052 7.258 17.922 14.011 29.465 20.122z"/><path d="m391.48 129.119c-12.231-5.018-25.601-9.464-40.093-13.14l-248.562 163.325c12.561 4.836 26.345 9.013 41.095 12.481z"/><path d="m152.658 112.594-126.86 83.357c-.376 2.386-.799 4.767-.799 7.195 0 9.455 3.084 18.566 8.489 27.234l192.701-126.62c-26.094.987-50.826 4.064-73.531 8.834z"/><path d="m461.847 216.846c1.359-4.489 2.306-9.039 2.306-13.699 0-8.008-2.297-15.754-6.215-23.217l-185.916 122.163c27.583-1.567 53.633-5.378 77.057-11.149z"/><path d="m444.017 161.58c-7.585-7.505-17.051-14.523-28.305-20.886l-239.367 157.284c16.872 2.507 34.651 4.053 53.045 4.627z"/></g><path d="m152.658 112.594-126.86 83.357c-.376 2.386-.799 4.767-.799 7.195 0 2.109.207 4.194.505 6.267l157.83-101.968c-10.547 1.399-20.834 3.082-30.676 5.149z" fill="#663407" opacity=".3"/><path d="m267.816 103.91-219.236 144.056c2.17 1.956 4.495 3.867 6.926 5.746l236.029-147.95c-7.771-.794-15.642-1.466-23.719-1.852z" fill="#663407" opacity=".3"/><path d="m351.387 115.978-248.562 163.326c5.939 2.286 12.195 4.399 18.654 6.386l250.858-163.624c-6.701-2.206-13.682-4.244-20.95-6.088z" fill="#663407" opacity=".3"/><path d="m415.712 140.693-239.367 157.285c5.154.766 10.541 1.271 15.856 1.857l236.968-150.556c-4.173-2.967-8.615-5.848-13.457-8.586z" fill="#663407" opacity=".3"/><path d="m457.938 179.93-185.916 122.163c7.149-.406 14.183-.978 21.106-1.68l169.737-107.393c-1.054-4.45-2.687-8.822-4.927-13.09z" fill="#663407" opacity=".3"/><path d="m124.143 264.481c-.533 2.555-3.365 4.124-6.325 3.506s-4.927-3.19-4.394-5.743c.533-2.555 3.365-4.124 6.325-3.506s4.927 3.19 4.394 5.743z" fill="#663407" opacity=".3"/><path d="m108.185 153.426c-.533 2.555-3.365 4.125-6.326 3.506-2.96-.618-4.927-3.19-4.394-5.745.533-2.554 3.365-4.123 6.325-3.505s4.928 3.19 4.395 5.744z" fill="#663407" opacity=".3"/><path d="m244.489 176.291c-.533 2.554-3.365 4.123-6.325 3.505-2.96-.617-4.928-3.189-4.395-5.743s3.365-4.123 6.326-3.506 4.928 3.189 4.394 5.744z" fill="#663407" opacity=".3"/><path d="m121.466 206.884c-.533 2.554-3.365 4.123-6.326 3.506-2.96-.618-4.927-3.19-4.394-5.745.533-2.554 3.365-4.123 6.325-3.505s4.928 3.189 4.395 5.744z" fill="#663407" opacity=".3"/><path d="m54.009 245.914c.005.995-1.157 1.807-2.595 1.815-1.438.009-2.608-.792-2.613-1.787-.005-.994 1.157-1.807 2.594-1.815 1.439-.008 2.609.792 2.614 1.787z" fill="#ff8211" opacity=".8"/><path d="m100.073 149.771c.005.996-1.157 1.808-2.595 1.816s-2.608-.794-2.613-1.788 1.156-1.807 2.594-1.815c1.438-.007 2.609.793 2.614 1.787z" fill="#ff8211" opacity=".8"/><path d="m316.622 271.763c.006.994-1.156 1.807-2.594 1.815-1.439.008-2.608-.792-2.615-1.788-.005-.994 1.157-1.807 2.596-1.815 1.438-.008 2.607.792 2.613 1.788z" fill="#ff8211" opacity=".8"/><path d="m324.422 139.791c.006.995-1.155 1.808-2.594 1.816s-2.608-.792-2.615-1.788c-.005-.994 1.157-1.807 2.596-1.815s2.608.792 2.613 1.787z" fill="#ff8211" opacity=".8"/><path d="m310.538 149.311c.005.994-1.157 1.807-2.594 1.815-1.439.008-2.609-.792-2.615-1.788-.005-.994 1.157-1.807 2.595-1.815s2.609.792 2.614 1.788z" fill="#ff8211" opacity=".3"/><path d="m240.238 267.358c.005.994-1.157 1.807-2.596 1.815-1.437.008-2.608-.792-2.613-1.787-.005-.996 1.157-1.808 2.594-1.816 1.439-.008 2.61.792 2.615 1.788z" fill="#ff8211" opacity=".3"/><path d="m356.536 255.192c.005.995-1.157 1.808-2.595 1.816s-2.608-.792-2.613-1.788c-.005-.994 1.157-1.807 2.594-1.815 1.439-.007 2.609.793 2.614 1.787z" fill="#ff8211" opacity=".3"/><path d="m282.755 157.938c.005.994-1.157 1.807-2.594 1.815-1.439.008-2.609-.792-2.615-1.787-.005-.995 1.157-1.808 2.596-1.816 1.437-.008 2.608.792 2.613 1.788z" fill="#ff8211" opacity=".3"/><path d="m131.742 179.634c.005.995-1.157 1.808-2.594 1.816-1.439.008-2.609-.792-2.615-1.788-.005-.994 1.157-1.807 2.596-1.815 1.437-.007 2.607.793 2.613 1.787z" fill="#ff8211" opacity=".3"/><g fill="#663407"><path d="m223.314 117.152c-.533 2.554-3.365 4.123-6.326 3.506-2.96-.618-4.927-3.19-4.394-5.745.533-2.554 3.365-4.123 6.325-3.506 2.96.618 4.928 3.19 4.395 5.745z" opacity=".3"/><path d="m54.542 213.311c-.533 2.555-3.365 4.124-6.325 3.506s-4.928-3.19-4.395-5.744c.533-2.555 3.365-4.124 6.326-3.506 2.96.618 4.927 3.19 4.394 5.744z" opacity=".3"/><path d="m293.764 254.278c-.533 2.554-3.365 4.123-6.325 3.505s-4.927-3.19-4.394-5.743c.533-2.555 3.365-4.125 6.325-3.506 2.961.618 4.928 3.189 4.394 5.744z" opacity=".3"/><path d="m391.392 266.754c-.533 2.555-3.365 4.124-6.325 3.506s-4.927-3.19-4.394-5.745c.533-2.554 3.365-4.123 6.325-3.505 2.961.618 4.928 3.191 4.394 5.744z" opacity=".3"/><path d="m277.382 135.962c-.533 2.555-3.365 4.124-6.325 3.506-2.961-.618-4.928-3.19-4.395-5.743.533-2.555 3.365-4.124 6.326-3.506s4.928 3.189 4.394 5.743z" opacity=".5"/><path d="m102.416 181.05c-.533 2.554-3.365 4.123-6.325 3.505-2.96-.617-4.927-3.189-4.394-5.743s3.365-4.123 6.325-3.506c2.96.618 4.927 3.189 4.394 5.744z" opacity=".5"/><path d="m73.776 166.73c-.533 2.554-3.365 4.123-6.325 3.505-2.96-.617-4.928-3.19-4.395-5.743.533-2.555 3.366-4.124 6.326-3.506s4.927 3.189 4.394 5.744z" opacity=".5"/><path d="m356.905 232.271c-.533 2.555-3.366 4.124-6.326 3.506s-4.927-3.19-4.394-5.743c.533-2.555 3.365-4.124 6.325-3.506 2.96.617 4.928 3.189 4.395 5.743z" opacity=".5"/><path d="m390.752 177.594c-.533 2.555-3.366 4.124-6.326 3.506s-4.927-3.19-4.394-5.745c.533-2.554 3.365-4.123 6.325-3.505 2.961.617 4.929 3.19 4.395 5.744z" opacity=".5"/><path d="m187.448 231.171c-.533 2.555-3.365 4.124-6.325 3.506s-4.928-3.19-4.395-5.745c.533-2.554 3.366-4.123 6.326-3.505 2.961.617 4.928 3.19 4.394 5.744z" opacity=".9"/><path d="m250.804 179.966c-.533 2.554-3.365 4.123-6.325 3.505-2.96-.617-4.928-3.19-4.395-5.743.533-2.554 3.365-4.124 6.326-3.506 2.961.617 4.928 3.189 4.394 5.744z" opacity=".9"/><path d="m192.004 168.032c-.533 2.554-3.365 4.123-6.325 3.506-2.96-.618-4.928-3.19-4.395-5.745.533-2.554 3.366-4.123 6.326-3.505 2.961.617 4.928 3.19 4.394 5.744z" opacity=".9"/><path d="m131.036 137.873c-.533 2.554-3.365 4.123-6.326 3.505-2.96-.617-4.927-3.19-4.394-5.743.533-2.555 3.365-4.124 6.325-3.506s4.928 3.189 4.395 5.744z" opacity=".9"/><path d="m189.618 215.982c-.533 2.555-3.366 4.124-6.326 3.506s-4.927-3.19-4.394-5.743c.533-2.555 3.365-4.125 6.325-3.506 2.961.618 4.929 3.19 4.395 5.743z" opacity=".9"/><path d="m159.99 184.019c-.533 2.555-3.365 4.125-6.325 3.506-2.96-.618-4.928-3.19-4.395-5.743.533-2.555 3.365-4.124 6.326-3.506s4.928 3.189 4.394 5.743z" opacity=".9"/><path d="m227.371 131.364c-.533 2.554-3.365 4.123-6.325 3.505-2.96-.617-4.927-3.19-4.394-5.743.533-2.555 3.365-4.124 6.325-3.506s4.927 3.189 4.394 5.744z" opacity=".9"/><path d="m298.322 231.605c-.533 2.554-3.366 4.123-6.326 3.506-2.96-.618-4.927-3.19-4.394-5.745.533-2.554 3.365-4.123 6.325-3.506 2.96.619 4.928 3.19 4.395 5.745z" opacity=".9"/><path d="m234.097 297.564c-.533 2.555-3.365 4.125-6.325 3.506-2.96-.618-4.927-3.19-4.394-5.745.533-2.554 3.365-4.123 6.325-3.505 2.96.619 4.927 3.191 4.394 5.744z"/></g><path d="m288.124 164.343c-.533 2.555-3.365 4.124-6.325 3.506s-4.928-3.19-4.395-5.743c.533-2.555 3.365-4.124 6.326-3.506 2.96.618 4.927 3.189 4.394 5.743z" fill="#2e1703"/><path d="m145.888 128.474c-.533 2.555-3.366 4.124-6.326 3.506s-4.927-3.19-4.394-5.743c.533-2.555 3.365-4.124 6.325-3.506s4.928 3.189 4.395 5.743z" fill="#2e1703" opacity=".7"/><path d="m83.301 226.832c-.533 2.554-3.365 4.123-6.325 3.505-2.96-.617-4.928-3.189-4.395-5.743s3.366-4.123 6.326-3.506 4.927 3.189 4.394 5.744z" fill="#2e1703"/><path d="m184.845 153.06c-.533 2.555-3.366 4.125-6.326 3.506-2.96-.618-4.927-3.19-4.394-5.743.533-2.555 3.365-4.124 6.325-3.506s4.928 3.19 4.395 5.743z" fill="#663407" opacity=".9"/><path d="m318.164 295.977c-.533 2.555-3.366 4.124-6.326 3.506s-4.927-3.19-4.394-5.743c.533-2.555 3.365-4.125 6.325-3.506 2.96.618 4.929 3.189 4.395 5.743z" fill="#663407" opacity=".9"/><path d="m420.911 203.398c-.533 2.555-3.365 4.124-6.325 3.506s-4.928-3.19-4.395-5.743c.533-2.555 3.366-4.124 6.326-3.506s4.927 3.189 4.394 5.743z" fill="#663407" opacity=".9"/><path d="m216.305 283.027c-.533 2.555-3.365 4.124-6.325 3.506s-4.927-3.19-4.394-5.745c.533-2.554 3.365-4.123 6.325-3.505 2.961.618 4.928 3.191 4.394 5.744z" fill="#663407" opacity=".9"/><path d="m362.351 168.191c-.533 2.554-3.365 4.123-6.325 3.506-2.96-.618-4.928-3.19-4.395-5.745.533-2.554 3.366-4.123 6.326-3.505 2.96.617 4.927 3.189 4.394 5.744z" fill="#663407" opacity=".5"/><path d="m373.448 199.507c-.533 2.554-3.366 4.123-6.326 3.505-2.96-.617-4.927-3.19-4.394-5.743.533-2.554 3.365-4.124 6.325-3.506s4.929 3.189 4.395 5.744z" fill="#663407" opacity=".3"/><path d="m164.512 272.91c-.533 2.555-3.365 4.124-6.325 3.506s-4.927-3.19-4.394-5.743c.533-2.555 3.365-4.124 6.325-3.506 2.961.618 4.928 3.19 4.394 5.743z" fill="#663407" opacity=".3"/><path d="m464.153 265.636c0-9.693 0-65.744 0-65.744s-.128-.036-.234-.066c-.137-1.721-.368-3.43-.705-5.125-.191-1.035-.382-2.066-.643-3.092-.458-1.708-1.044-3.397-1.688-5.078-.02-.055-.034-.109-.055-.163-.114-.297-.198-.599-.319-.895-.735-1.87-1.611-3.71-2.573-5.543-5.257-10.012-13.82-19.415-25.157-28.001-.89-.678-1.782-1.356-2.705-2.024-1.901-1.365-3.816-2.72-5.857-4.039-.466-.303-.957-.599-1.431-.9-2.244-1.439-4.571-2.851-6.999-4.225-12.185-6.899-26.406-12.992-42.155-18.208 28.401 48.502 7.257 101.342-49.213 128.349-99.807 47.733-210.029 36.451-210.029 36.451s105.015 30.377 106.75 59.017c.419 6.907-9.416 12.338-24.726 16.609 15.518 1.58 31.594 2.484 48.16 2.484 121.272 0 219.579-44.685 219.579-99.807z" opacity=".2"/><path d="m463.215 194.701c-.191-1.035-.382-2.066-.643-3.092-.458-1.708-1.044-3.397-1.688-5.078-.02-.055-.034-.109-.055-.163-.114-.297-.198-.599-.319-.895-.735-1.87-1.611-3.71-2.573-5.543-5.257-10.012-13.82-19.415-25.157-28.001-.235-.179-.478-.356-.714-.533 15.856 40.291 18.232 85.356-31.27 109.9-103.28 51.206-196.145 51.206-196.145 51.206s61.62.867 65.092 32.979c.75 6.945-2.368 13.492-7.542 19.557 113.002-4.093 201.949-46.984 201.949-99.402 0-9.693 0-65.744 0-65.744s-.128-.036-.234-.066c-.134-1.721-.365-3.43-.701-5.125z" opacity=".1"/><path d="m82.281 273.446s-70.32-47.837-17.803-113.312c52.518-65.474 282.51-26.419 282.51-26.419s-196.145-8.679-248.218 52.941c-52.072 61.621-16.489 86.79-16.489 86.79z" fill="#ff8211" opacity=".2"/></g><g fill="#ffad63"><path d="m319.43 359.289c-6.061.744-12.198 1.391-18.455 1.898-.406.033-.82.053-1.225.085-12.241.962-24.753 1.567-37.599 1.567-8.232 0-16.331-.245-24.329-.646-.306-.015-.602-.046-.908-.062-7.776-.405-15.408-1.011-22.917-1.775-.003 0-.004-.001-.005-.001-98.074-9.989-171.418-49.731-171.418-97.323 0-6.113.069-31.194.118-48.728-.008-.359-.118-.707-.118-1.067 0-.38.116-.745.124-1.122.001-.063.001-.13.001-.193-.01-.378-.126-.745-.126-1.126 0-.4.122-.785.132-1.185 0-.024-.001-.045 0-.069-.01-.4-.132-.787-.132-1.187 0-.411.124-.81.136-1.22-.011-.41-.136-.809-.136-1.22 0-.445.133-.872.146-1.314.003-.758.005-1.501.006-2.166-.027-.632-.152-1.255-.152-1.889 0-.775.095-1.539.165-2.305.002-.975.005-1.644.005-1.644s.104-.029.145-.041c.145-1.071.316-2.139.484-3.205 5.835-37.079 56.112-68.491 126.86-83.357.004-.001.006-.001.009-.003 4.974-1.045 10.071-1.975 15.237-2.85-4.919.626-9.78 1.304-14.554 2.078-.625.1-1.242.207-1.863.31-5.573.93-11.042 1.942-16.395 3.065-.003.001-.005.001-.009.003-70.747 14.863-121.023 46.275-126.858 83.355-.168 1.068-.339 2.135-.484 3.205-.041.011-.146.041-.146.041s-.001.67-.004 1.644c-.071.766-.165 1.53-.165 2.305 0 .636.124 1.257.152 1.889-.003.667-.005 1.408-.006 2.166-.013.442-.146.871-.146 1.314 0 .413.124.81.135 1.22-.01.411-.135.809-.135 1.22 0 .401.121.787.131 1.187v.07c-.01.399-.131.785-.131 1.185 0 .38.116.747.124 1.126v.192c-.01.378-.124.744-.124 1.122 0 .361.109.707.118 1.067-.051 17.536-.118 42.616-.118 48.731 0 47.592 73.345 87.335 171.418 97.323h-.001.005c7.509.766 15.14 1.37 22.918 1.775.306.016.602.047.908.064 7.997.4 16.096.645 24.329.645 12.846 0 25.358-.604 37.598-1.566.406-.032.82-.052 1.227-.085 6.257-.509 12.394-1.156 18.455-1.9.7-.085 1.409-.156 2.107-.245 5.76-.735 11.392-1.59 16.95-2.528.022-.004.043-.006.065-.01-.517.059-1.034.116-1.549.18z" opacity=".4"/><path d="m28.472 241.335s34.715 65.959 183.777 75.073c149.06 9.112 238.236-58.583 238.236-58.583s-97.638 59.233-240.841 50.121c-143.203-9.114-181.172-66.611-181.172-66.611z" opacity=".3"/></g></g></g></svg>