<svg id="Layer_3" viewBox="0 0 512 512" xmlns="http://www.w3.org/2000/svg" data-name="Layer 3"><g><path d="m293.8089007 25.5733038c-62.113661-43.6474375-187.1468489 5.9877599-257.7683013 137.1746396s3.5310726 233.5879857 135.3577838 233.5879857 161.2523164-110.9687213 161.2523164-156.1199304-32.9566778-43.6135535-25.8945326-101.4680553 30.6026294-82.5720102-12.9472663-113.1746396z" fill="#ffebe9"/><path d="m171.3983442 372.3361024c-56.9560547 0-102.2275391-21.1005859-124.2041016-57.8911133-22.2373047-37.2255859-18.6933594-87.059082 9.9794922-140.3208008 23.5498047-43.7480469 54.9248047-80.2714844 90.7324219-105.6230469 31.3320312-22.1821289 64.2080078-34.3984375 92.5712891-34.3984375 15.7431641 0 29.0439453 3.7368164 39.5322266 11.1074219 13.7568359 9.6669922 14.7353516 15.4243164 15.1523438 17.8828125 1.1796875 6.9414062-1.2792969 17.5976562-4.3925781 31.0893555-2.7382812 11.8706055-5.8427734 25.3251953-7.8369141 41.6572266-4.9150391 40.2695312 6.6699219 59.4248047 15.9785156 74.8164062 6.0732422 10.0429688 9.7392578 16.1044922 9.7392578 29.5600586 0 20.1191406-6.9990234 53.4174805-26.7236328 81.046875-24.1943359 33.8896484-61.3808594 51.0732422-110.5283203 51.0732422z" fill="#d13b42"/><path d="m171.3984375 348.3359375c-48.3017578 0-86.0625-16.8388672-103.6005859-46.1987305-17.7333984-29.6860352-14.0009766-71.1083984 10.5087891-116.6367188 21.8027344-40.5039062 50.6660156-74.1884766 83.4677734-97.4116211 27.3125-19.3369141 55.2636719-29.9863281 78.703125-29.9863281 10.7080078 0 19.3652344 2.269043 25.7333984 6.7436523 2.5292969 1.777832 4.1591797 3.1503906 5.1630859 4.0869141-.4648438 4.5771484-2.4638672 13.2392578-3.9902344 19.8525391-2.8740234 12.4619141-6.1279297 26.565918-8.2744141 44.1450195-5.9199219 48.5019531 9.2363281 73.5620117 19.265625 90.1450195 5.4394531 8.9951172 6.2753906 10.3779297 6.2753906 17.1401367 0 13.3432617-4.6875 42.4921875-22.2568359 67.1020508-19.7041016 27.6010742-49.4697266 41.0180664-90.9951172 41.0180664z" fill="#fb5657"/><path d="m350.2599164 138.7479066c7.0622559-57.8544922 30.6025391-82.5719604-12.9472656-113.1746216-14.3325195-10.0715942-32.0175781-15.1688232-51.6101074-15.4465942h-43.2902832l-.0009766.0050049c19.5058594.3161011 37.1174316 5.4067993 51.3977051 15.4415894 43.5498047 30.6026611 20.0092773 55.3201294 12.9472656 113.1746216-7.0622559 57.8545532 25.8945312 56.3168945 25.8945312 101.4680786s-29.4257812 156.1199341-161.2524414 156.1199341h43.5039062c131.8266602 0 161.2521973-110.96875 161.2521973-156.1199341s-32.9567871-43.6135254-25.8945312-101.4680786z" fill="#fb5657"/><path d="m350.2597656 138.7478638c7.0625-57.8544922 30.6025391-82.5719604-12.9472909-113.1746216-.2995353-.2105713-.6093498-.4060059-.91184-.6122437 5.8679199 20.8392944-6.3793945 44.7817993-11.1408691 83.7868652-7.0620117 57.8545532 25.8945312 56.3168945 25.8945312 101.4680786 0 23.8604126-8.2246094 66.0983887-35.4294434 100.6299438-20.4614258 43.0610962-62.8125 85.4899902-144.326416 85.4899902h43.5039062c131.8266602 0 161.2519531-110.96875 161.2519531-156.1199341s-32.956543-43.6135254-25.8945312-101.4680786z" fill="#d13b42"/><path d="m228.2878865 76.1853447c-14.1460704-14.1460704-59.7081268 10.2008765-101.2601986 58.8512104-41.5520719 48.6503339-54.1069967 82.3916945-7.0260284 82.3916945s68.267404-43.1575543 63.5593072-70.6214524c-4.7080968-27.4638982 58.458869-56.8895033 44.7269199-70.6214524z" fill="#ff7b82"/><path d="m120.0019531 193.4282227h-.0000045c-2.122516-.000722-3.5139884-2.2408386-2.5491149-4.131366 3.8021086-7.4496713 11.645035-19.7306467 27.82451-38.6733215.9763408-1.1431508 1.9570329-2.2743737 2.9415782-3.393212 3.7614707-4.274539 10.7175886-2.1586378 11.6568457 3.4572452.0097097.058055.0195449.1161377.0295058.174248 1.2294922 7.1660156-1.2109375 19.3393555-9.4697266 29.1357422-7.5146484 8.9121094-17.7539062 13.4306641-30.4335938 13.4306641z" fill="#ffebe9"/><path d="m245.5509082 111.496071c-12.7423403-4.2474468-21.1864357 14.1242905-31.3873122 28.248581s12.5549249 19.6170701 27.4638982 18.8323873 15.6936561-43.1575543 3.923414-47.0809683z" fill="#ff7b82"/><path d="m218.8716929 189.9643514c-44.2662976 13.2138202-23.5404841 54.1431135-17.2630217 71.4061352s-10.2008765 22.7558013-2.3540484 40.8035058 63.5131206-2.3540484 74.5217732-24.3251669c11.0086525-21.9711185-2.3309551-103.5781302-54.9047031-87.8844741z" fill="#ff7b82"/><path d="m247.9815432 271.5731785c-8.0485576 6.2940916-19.9352938 1.5729854-21.3407698-8.5472669-.4308942-3.1026913-1.2179828-6.393251-2.4776875-9.8569663-.6455078-1.777832-1.3671875-3.6254883-2.1298828-5.581543-2.6904297-6.8959961-8.9912109-23.0454102-6.0732422-29.0185547.9619141-1.9711914 4.6171875-4.0668945 9.7773438-5.6074219 2.1943359-.6547852 4.1914062-.9873047 5.9355469-.9873047 1.8847656 0 6.2998047 0 11.6142578 7.8730469 8.5918571 12.7272275 10.766118 32.0399724 9.9406028 42.1403696-.3026938 3.7035391-2.1141795 7.0997196-5.0240798 9.4106299-.073303.0582139-.1473366.1165534-.2220892.1750111z" fill="#ffebe9"/><path d="m74.4900568 259.8011211c16.3187614-16.3187614 56.4971619-11.7702421 75.3295493 3.923414 18.8323873 15.6936561 2.3540484 29.5650032 5.4927796 45.385131s-14.9089733 30.7291011-45.5116027 15.8201278-53.7507721-46.6886269-35.3107262-65.1286728z" fill="#ff7b82"/><path d="m131.4265479 297.4344227c-.730281 5.1938925-6.2495604 8.2734776-10.9709288 5.9890717-.0475807-.0230216-.0952871-.0461849-.1431389-.0694905-10.1899734-4.9643484-17.6726417-11.4931129-22.3899344-17.1074348-4.1114013-4.8932155-.7391228-12.3669675 5.6457487-12.6508591.6597865-.0293362 1.3438696-.0449288 2.0518227-.0449288 12.1464844 0 23.7001953 4.331543 28.8349609 8.6108398.1132812.0947266.21875.1845703.3154297.2695312-.2578125 1.2314453-.6767578 2.8481445-1.015625 4.1508789-.8077633 3.1144393-1.7523755 6.756062-2.3283349 10.8523915z" fill="#ffebe9"/></g><g><g><path d="m350.9992767 501.9785887c78.4682805 0 132.611394-43.1575543 132.611394-75.3295492 0-32.171995-15.6936561-53.2103529-15.6936561-53.2103529l-7.0621452-34.8141886s45.5116027-21.0463684 40.8035058-51.6489978c-4.7080968-30.6026294-19.6170701-39.2341402-19.6170701-39.2341402s0-14.1242905-18.0477045-10.9855593-40.8035058 34.8405675-40.8035058 34.8405675c-40.018823-20.0872289-72.190818-19.1469114-72.190818-19.1469114s-32.171995-.9403175-72.190818 19.1469114c0 0-22.7558013-31.7018362-40.8035058-34.8405675-18.0477045-3.1387312-18.0477045 10.9855593-18.0477045 10.9855593s-14.9089733 8.6315109-19.6170701 39.2341402 40.8035058 51.6489978 40.8035058 51.6489978l-7.0621452 34.8141886s-15.6936561 21.0383579-15.6936561 53.2103529 54.1431135 75.3295493 132.611394 75.3295493z" fill="#ffbbb8"/><path d="m350.9992676 471.9785156c-69.9379883 0-120.5506592-34.2840576-130.7286377-64.5172119-1.1482544 5.8109131-1.8827515 12.237915-1.8827515 19.1877441 0 32.1719971 54.1431274 75.3294678 132.6113892 75.3294678s132.6113281-43.1574707 132.6113281-75.3294678c0-6.9498291-.734375-13.3768311-1.8826904-19.1877441-10.1779785 30.2331543-60.7906494 64.5172119-130.7286377 64.5172119z" fill="#f4a2a2"/><path d="m350.9992767 424.294991c-14.9089733 0-22.7558013 3.1387312-39.2341402 3.1387312s-26.6792154-61.7758877 39.2341402-61.7758877 55.7124791 61.7758877 39.2341402 61.7758877-24.3251669-3.1387312-39.2341402-3.1387312z" fill="#ff7b82"/><ellipse cx="301.564" cy="344.798" fill="#845239" rx="8.043" ry="14.32"/><path d="m446.7305908 306.5925293 14.1242676 32.0319824s45.5115967-21.0463867 40.8035889-51.6490479c-4.708252-30.6026001-19.6171875-39.2341309-19.6171875-39.2341309-21.9710693 14.1243286-35.3106689 58.8511963-35.3106689 58.8511963z" fill="#ffebe9"/><path d="m255.2679625 306.5925293-14.1242676 32.0319824s-45.5115967-21.0463867-40.8035889-51.6490478c4.708252-30.6026001 19.6171875-39.2341309 19.6171875-39.2341309 21.9710693 14.1243286 35.3106689 58.8511963 35.3106689 58.8511963z" fill="#ffebe9"/><ellipse cx="400.434" cy="344.798" fill="#845239" rx="8.043" ry="14.32"/></g><path d="m427.9404297 415.4331055c-3.3032227-.2993164-6.2182617 2.1328125-6.5180664 5.4331055-.0605469.6708984-.2407227.9086914-.6484375 1.2177734-1.2734375.9665527-6.7653809 3.5688477-26.7814941.6767578-1.0289307-.8287354-2.3352051-1.3271484-3.7590332-1.3271484-8.046875 0-14.0488281-.8007812-19.8535156-1.5756836-5.7587891-.7685547-11.7138672-1.5629883-19.3803711-1.5629883s-13.6220703.7944336-19.3808594 1.5629883c-5.8046875.7749023-11.8066406 1.5756836-19.8535156 1.5756836-1.423584 0-2.7295532.498291-3.7583618 1.3266602-19.9937207 2.7551622-27.0686718.7498742-27.4307763-1.893774-.2996314-3.2995854-3.2088111-5.7326909-6.5178931-5.4333745-8.7658067 1.3591337-5.4362748 12.5939807-.0877452 16.2098763 3.9456553 2.9947136 9.8924327 4.4820183 18.4021983 4.4820183 6.7901611 0 15.2213745-.9516602 25.5579834-2.8359375 5.8424072-.2779541 10.6186523-.9150391 15.2750244-1.5366211 5.6181641-.7495117 10.9243164-1.4575195 17.7939453-1.4575195 6.8691406 0 12.175293.7080078 17.7929688 1.4575195 4.6568604.621582 9.4331055 1.258667 15.2756348 1.5366211 15.5084006 2.5294836 33.4460752 5.7010323 43.9602682-1.6456054 5.3322841-3.61231 8.6943776-14.8488682-.0879537-16.2103516z" fill="#ff7b82"/><g fill="#d13b42"><path d="m331.4428711 389.9643555c-5.8093343-5.4211151-13.9076169 2.676145-8.4852866 8.4854251-.000065-.0000735 2.0951499 2.0951414 2.0951499 2.0951414 2.3428239 2.3430295 6.1425279 2.3430312 8.4853516-.0000002 2.3432617-2.3432615 2.3432617-6.1420896 0-8.4853513l-2.0952148-2.0952148z"/><path d="m379.0410156 389.9643555c-2.3427734-2.3427734-6.1425781-2.3427734-8.4853516 0l-2.0952148 2.0952148c-5.4348762 5.7811336 2.7060787 13.9196313 8.4854459 8.4852611-.0000943.0000904 2.0951205-2.0951244 2.0951205-2.0951244 2.3432617-2.3432617 2.3432617-6.1420898 0-8.4853516z"/></g></g></svg>