<svg id="圖層_1" height="512" viewBox="0 0 512 512" width="512" xmlns="http://www.w3.org/2000/svg"><path id="_x34_" d="m505.305 232.351c-5.736-34.7-39.745-56.301-67.282-70.037-16.708-8.367-37.799-15.999-56.057-18.307-18.806-2.367-36.298 2.461-54.413-3.151-29.36-9.201-64.326-19.231-91.841-.986-16.487 10.933-30.486 25.994-46.83 36.965-12.338 8.316-25.951 16.104-36.865 25.601-24.763-4.44-47.608 1.246-70.724 19.579-29.139 23.085-71.636-.343-74.712 41.346 0 0 .443 44.782 2.338 63.981 3.887 39.424 76.558 43.701 91.938 53.007 28.351 17.125 46.905 31.153 79.856 33.472 14.963 1.081 29.233-.104 43.584 3.881 13.876 3.891 27.361 12.355 41.859 14.322 42.781 5.745 89.065-36.955 108.331-89.526 35.709 2.666 62.421 1.674 93.755-20.713 9.991-7.14 24.389-19.101 30.269-31.06 5.537-11.27 9.056-44.687 6.794-58.374z" fill="#d77164"/><path id="_x33_" d="m505.305 232.351c-4.199-25.398-23.562-43.728-44.434-57.135-11.157 28.644-19.303 58.541-19.303 89.057v71.951c8.722-3.317 17.496-7.898 26.674-14.439 9.991-7.14 24.389-19.101 30.269-31.06 5.537-11.27 9.056-44.687 6.794-58.374zm-216.02-10.233c-16.36-7.065-33.413-8.25-50.542-8.393-6.867 38.561-18.756 96.246-4.431 126.881 13.778 29.478 18.343 58.616 22.335 89.181 3.136.961 6.287 1.801 9.51 2.237 47.296 6.352 98.876-46.505 113.494-106.452 5.76-23.771 2.731-72.16-4.675-93.762-12.33-35.881-56.159 3.003-85.691-9.692z" fill="#dac3a6"/><path id="_x32_" d="m498.416 191.599c-5.736-34.748-31.821-63.54-59.385-77.292-16.659-8.353-36.467-16.659-54.754-18.966-18.776-2.413-43.36 2.845-61.475-2.81-29.356-9.204-56.109-22.096-83.621-3.835-16.461 10.918-30.513 25.953-46.804 36.905-9.723 6.52-20.244 12.712-29.613 19.694-1.001-.317-2-.64-2.997-.995-32.013-11.415-60.263-8.068-88.907 14.67-29.139 23.08-68.933 60.583-64.525 93.95 4.379 33.329 68.657 55.083 84.085 64.378 28.325 17.132 46.879 31.161 79.807 33.473 14.96 1.028 29.259-.098 43.607 3.887 10.133 2.841 20.057 8.085 30.308 11.48 79.525-9.805 116.608-97.388 123.358-147.138 1.197 1.096 6.705 10.568 7.476 12.811 4.296 12.53 7.114 34.07 7.604 54.593 32.275 1.799 61.231-.739 89.898-21.225 9.966-7.137 23.646-13.782 29.529-25.737 5.538-11.275-1.328-34.162-3.591-47.843z" fill="#efbeb4"/><path id="_x31_" d="m498.416 191.599c-5.736-34.748-31.821-63.54-59.385-77.292-16.659-8.353-36.467-16.659-54.754-18.966-18.776-2.413-43.36 2.845-61.475-2.81-29.356-9.204-56.109-22.096-83.621-3.835-2.865 1.914-5.597 4.057-8.351 6.153 41.179 42.663 133.762 17.739 182.793 49.848 43.571 28.549 47.65 90.854 27.527 136.105 10.564-3.366 20.973-8.218 31.326-15.624 9.966-7.137 23.646-13.782 29.529-25.737 5.54-11.274-1.326-34.161-3.589-47.842zm-219.611-32.531c-38.486-16.584-80.619-1.081-119.036-14.768-32.013-11.415-60.263-8.068-88.907 14.67-10.695 8.465-22.803 18.896-33.654 30.37 47.569 21.061 111.209-13.586 161.741-5.147 37.516 6.274 75.869 15.182 102.397 44.245 44.466 48.705-9.927 107.472-61.212 136.16 5.092 1.925 10.236 3.621 15.54 4.337 66.101 8.953 138.964-71.466 112.906-147.461-12.306-35.931-60.22-49.705-89.775-62.406zm-205.055 65.83c-7.283-.071-12.772 5.239-12.994 12.199-.121 4.112-.541 8.101-.96 12.085-.55 5.342-1.094 10.685-1.13 16.22-.026 3.737-3.715 12.258-9.422 17.05-2.351 1.97-3.881 2.318-4.447 2.24-3.923-.684-7.589.689-10.347 3.151 8.996 6.059 18.714 11.32 27.908 15.8 1.019-.716 2.09-1.058 3.086-1.898 10.584-8.885 18.32-24.085 18.421-36.145.039-4.724.531-9.282.997-13.83.479-4.581.947-9.155 1.094-13.879.211-6.969-5.252-12.771-12.206-12.993zm143.273 17.568c-8.406 8.169-35.194 22.325-40.853 23.252-2.826-.117-6.202-.271-9.891-.586-5.147-.446-10.568-.717-15.849-.619-.703-9.838-1.133-21.731-1.133-31.694 0-6.964-5.632-12.6-12.6-12.6-6.964 0-12.6 5.636-12.6 12.6 0 4.922.159 48.506 5.834 60.885 1.156 2.507 2.67 5.287 4.278 8.191 2.868 5.17 6.439 11.616 6.635 15.602.235 4.802-.146 9.477-.504 14.201-.31 3.962-.603 8.019-.667 12.131 7.225 2.683 15.126 4.652 23.786 5.782.827-1.645 1.394-3.425 1.417-5.385.049-3.621.322-7.137.592-10.637.427-5.756.833-11.44.55-17.347-.504-9.846-5.632-19.095-9.757-26.551l-.01-.032c2.741.153 5.548.375 7.875.573 4.308.364 8.367.684 11.662.684h.896c12.821-.271 47.266-20.029 57.906-30.392 4.988-4.842 5.095-12.821.248-17.816-4.857-4.966-12.833-5.115-17.815-.242z" fill="#e2d2bc"/></svg>