<svg id="Vegetable_Soup" enable-background="new 0 0 64 64" height="512" viewBox="0 0 64 64" width="512" xmlns="http://www.w3.org/2000/svg"><g><g><circle cx="31.767" cy="36.663" fill="#53c496" r="27.329"/><circle cx="31.767" cy="36.663" fill="#ffdc6e" r="22.322"/><path d="m59.0875 36.6637c0 15.0853-12.2328 27.3363-27.3181 27.3363-6.7107 0-12.8546-2.4137-17.6087-6.418 12.0134 2.1027 24.2462-1.8834 32.0722-10.7883 7.6981-8.7586 8.4478-19.2361 7.9541-25.7273 3.0902 4.425 4.9005 9.8008 4.9005 15.5973z" opacity=".09"/><circle cx="42.744" cy="38.921" fill="#f98143" r="2.596"/><path d="m35.2504 45.9095c-.9098.1299-2.8189 5.306-2.2114 5.9955.2551-.0767.52-.1487.7963-.202 1.6034-.3244 3.1809.3539 3.8834.7053.1952.1025.4441.0329.6337-.1624.25-.2534.5749-.7025.858-1.4702.2831-.7676.3277-1.3202.3021-1.6752-.0174-.2716-.1614-.4862-.3765-.535-.7624-.1889-2.4025-.6975-3.4112-1.9853-.1755-.2199-.3303-.4467-.4744-.6707z" fill="#65bf41"/><path d="m30.7347 52.6788c-1.564 1.2769-4.9005-.3907-3.8781-2.7258-4.1675-1.8057-2.4481-8.2876 2.4064-7.1762 1.2863-2.4715 5.3247-1.2288 5.3006 1.4884 1.9948.4453 2.5153 3.5422.0233 5.0205 1.2203 2.1183-1.427 4.7938-3.8522 3.3931z" fill="#75d64c"/><path d="m23.6422 34.4953c.3438-.8522-3.1773-5.0995-4.0785-4.9196-.0615.2591-.1321.5245-.2245.7902-.5233 1.5499-1.9011 2.5747-2.5574 3.0063-.1866.1175-.2511.3678-.1772.6297.0939.3433.3196.8497.8417 1.4795.5222.6299.9779.9455 1.2979 1.1014.2438.1212.5016.1041.6517-.0575.5457-.5649 1.8081-1.7289 3.4281-1.9559.2784-.0415.5522-.0616.8182-.0741z" fill="#65bf41"/><path d="m20.0496 27.1941c-.3205-1.9934 2.7953-4.044 4.3029-1.9886 3.652-2.7004 8.3979 2.0375 5.0022 5.6803 1.4934 2.3522-1.6067 5.2231-3.9456 3.8398-1.3855 1.5026-4.3259.4001-4.3554-2.4972-2.4445-.0063-3.432-3.6383-1.0041-5.0343z" fill="#75d64c"/></g><g><path d="m45.277 28.3742c-.2809.3584-.5853.7151-.9084 1.0641-.7162.7735-1.8676.9629-2.8144.4994-2.99-1.4636-5.7322-3.613-7.8676-6.1668-.6762-.8087-.7674-1.972-.1873-2.8523.2617-.3971.5353-.7778.8163-1.1362 2.0759-2.6485 4.4439-3.0686 6.7418-2.2374l11.1497-15.7231c1.2961-1.8277 3.8697-2.4261 5.6903-1.1201 1.9159 1.3745 2.2175 4.0748.6906 5.8415l-12.7489 14.7498c1.356 2.0327 1.5138 4.4326-.5621 7.0811z" fill="#b9b9c5"/><path d="m58.5938 6.5479-12.763 14.7379c1.3714 2.0479 1.5176 4.4433-.5486 7.0947-.2925.3474-.585.7132-.9143 1.0606-.713.7679-1.865.9691-2.8159.4936-.7132-.3474-1.408-.7313-2.0845-1.1702 3.6387-2.2126 3.1451-5.0833 3.8583-7.1679 1.4993-4.3884 6.1621-8.3745 10.7151-14.4087 1.0788-1.4262 2.4868-3.5838 3.6935-6.5826.0549.0183.1098.0549.1646.0914 1.9199 1.3713 2.2125 4.0776.6948 5.8512z" opacity=".09"/></g></g></svg>