<svg id="Potato_Chips" enable-background="new 0 0 64 64" viewBox="0 0 64 64" xmlns="http://www.w3.org/2000/svg"><g><g fill="#ffdc6e"><circle cx="54.865" cy="14.319" r=".914"/><circle cx="11.91" cy="32.734" r=".914"/><circle cx="4.142" cy="38.991" r=".914"/><circle cx="8.518" cy="46.018" r=".914"/><circle cx="59.873" cy="22.144" r=".914"/></g><g><path d="m37.03487 30.25324c1.1701.42489 4.13097.77405 6.41842.08609 3.30784-.99487 5.52298-3.90418 5.08332-7.30495-.53948-4.17288-6.18149-7.42453-10.61884-8.19632-7.15445-1.2444-13.82265 1.81439-16.43468 3.16783.65862 1.79143 1.88664 4.28987 4.22824 6.50031.59979.56618 1.20212 1.04691 1.78241 1.4553 1.28487.69128 2.56973 1.38261 3.85461 2.0739 2.27017.78028 3.41635 1.43755 5.68652 2.21784z" fill="#f5bd53"/><path d="m37.03487 30.25324c-1.55212-.6735-3.85698-1.82206-6.16957-3.66076-6.35692-5.05431-6.28525-9.06005-10.34116-13.97918-4.12324-5.00082-12.60895-6.72639-16.86749-4.80872-5.4284 2.44446-4.85661 11.51169 2.0083 16.02295 3.55113 2.33362 6.7342 1.09757 16.21224 2.56914 6.34477.98506 11.60556 2.59931 15.15768 3.85657z" fill="#ffdc6e"/><path d="m21.45932 26.34759c-9.14286-1.38973-12.30625-.21942-15.79888-2.52344-6.85714-4.51652-7.424-13.56797-2.01138-16.0183 3.29141-1.48114 9.12455-.78627 13.51317 1.92009-1.28002 1.86507-2.0115 4.02277-2.0115 6.30848 0 4.2423 2.48694 7.99085 6.30859 10.31317z" opacity=".1"/></g><g><path d="m27.23483 56.42551c-1.16296.44406-4.1177.8418-6.41614.19151-3.32374-.9404-5.58637-3.81293-5.20263-7.22046.47086-4.18118 6.0587-7.52506 10.48278-8.36964 7.13304-1.36175 13.85059 1.58709 16.48449 2.89744-.6291 1.80201-1.81591 4.32028-4.12089 6.56889-.59041.57595-1.18476 1.06652-1.75826 1.48438-1.27334.7123-2.54668 1.42464-3.82002 2.13694-2.25705.81746-3.39228 1.49346-5.64933 2.31094z" fill="#f5bd53"/><path d="m27.23483 56.42551c1.54085-.69891 3.82653-1.88517 6.1086-3.76161 6.27303-5.15805 6.13557-9.16207 10.11013-14.14716 4.04055-5.06786 12.49677-6.93259 16.78624-5.08514 5.46782 2.35497 5.04504 11.43037-1.74484 16.05378-3.51232 2.39163-6.71526 1.20804-16.16785 2.8351-6.32772 1.08914-11.56128 2.78959-15.09228 4.10503z" fill="#ffdc6e"/><path d="m47.11423 43.22527c0 3.0721 1.0971 5.88806 2.98058 8.13717-2.0298.16462-4.51663.38404-7.77143.95089-6.3269 1.0971-11.55658 2.79766-15.08571 4.11429 1.53594-.69487 3.82165-1.88348 6.10737-3.76685 6.27199-5.15659 6.12578-9.16116 10.11205-14.15313 2.02969-2.54174 5.17478-4.27891 8.33828-5.13828-2.87087 2.41372-4.68114 5.94285-4.68114 9.85591z" opacity=".1"/></g></g></svg>