<svg id="Potatoes" enable-background="new 0 0 64 64" viewBox="0 0 64 64" xmlns="http://www.w3.org/2000/svg"><g><g><path d="m33.52462 4.45757c-5.65755-1.78925-9.76112.59979-11.46783 2.34531-3.55426 3.63508-4.05205 7.03401-6.34877 9.57304-4.42256 4.88915-9.47036 5.35932-13.46463 11.6369-1.27518 2.00414-3.69397 7.84257-1.07187 13.73246 3.11365 6.99403 10.66485 9.07709 16.69108 8.8152 10.93641-.47528 17.57023-8.83227 19.04056-10.68459 1.24879-1.57316 6.40039-9.08671 6.12593-20.26845-.07496-3.05408-.11413-12.18009-9.50447-15.14987z" fill="#cf9673"/><g fill="#ad6340"><path d="m32.5279 17.14708c-.05357 0-.10893-.00446-.1625-.01429-1.86786-.33393-3.43482-1.05268-4.65893-2.13661-.37768-.33482-.41339-.9125-.07857-1.29107.3375-.37768.91429-.41161 1.29107-.07857.98304.87054 2.21607 1.42857 3.76786 1.70625.49821.08929.82857.56429.73928 1.06071-.07857.44286-.46429.75358-.89821.75358z"/><path d="m21.82522 36.56226c-.02589 0-.05268-.00089-.07946-.00357-1.74643-.15089-3.57589-.93214-5.01786-2.14375-.3875-.32411-.4375-.90089-.1125-1.2875.32322-.3866.9-.43571 1.2875-.1125 1.14464.96072 2.64018 1.60447 4 1.72232.50357.04375.87589.48661.83214.98929-.04107.47678-.44018.83571-.90982.83571z"/><path d="m4.09787 37.24607c-.16451.31094-.47545.49375-.80458.49375-.14621 0-.29252-.03661-.42054-.10971-.63996-.34743-1.97489-1.13371-2.85257-2.28572.0548-.98739.20112-1.90167.42054-2.76116.14632.31094.32913.60346.56685.9692.51205.73136 1.35313 1.73716 2.72455 2.45022.43897.23773.60348.80459.36575 1.24342z"/><path d="m17.62935 21.02665c-.14632.32913-.47545.53036-.82288.53036-.12801 0-.25603-.0183-.38404-.07321-1.27991-.58516-2.34051-1.59085-3.05368-2.92567.47545-.36574.95089-.76797 1.40804-1.22511.0365.0731.0731.14621.10971.21942.53025 1.0423 1.33482 1.82857 2.28571 2.26741.47544.20111.67656.74966.45714 1.2068z"/></g><path d="m36.15976 40.80001c-2.37288 2.8205-8.67167 9.34054-18.30106 9.76208-6.02327.25821-13.57344-1.82687-16.68532-8.82155-2.62278-5.88607-.20351-11.72591 1.0635-13.73365 3.51449-5.52019 7.83674-6.53624 11.83729-10.0444-.22436 1.07139-.35539 2.17287-.39302 3.30446-.35473 10.66892 7.70969 19.5949 18.00139 19.93708 1.5357.05105 3.03722-.08776 4.47722-.40402z" opacity=".15"/></g><g><path d="m57.20261 17.87854c-5.18312-2.88869-9.68279-1.37217-11.70519-.00486-4.21171 2.84747-5.38177 6.07725-8.14149 8.10346-5.31412 3.90167-10.35353 3.34882-15.52682 8.69664-1.65159 1.70731-5.19332 6.94123-3.80713 13.23764 1.64605 7.47675 8.62527 11.03346 14.58138 11.9868 10.80914 1.73012 18.98574-5.12483 20.79802-6.64422 1.53922-1.2904 8.09443-7.61667 10.07053-18.62583.53972-3.00696 2.33359-11.95501-6.2693-16.74963z" fill="#e0b08c"/><g fill="#be7d59"><path d="m49.64765 21.5021c-.14632.34743-.47544.54855-.82288.54855-.12801 0-.25603-.01819-.36574-.0731-1.68225-.73147-3.09029-1.91998-4.00458-3.34632.31083-.23772.67656-.49364 1.0423-.74966.14632-.09141.29252-.20112.45714-.31083h.0183v.01819c.71317 1.15201 1.84687 2.1029 3.2183 2.70636.45716.21942.67658.74967.45716 1.20681z"/><path d="m48.2029 40.53368c-.10714 0-.21607-.01875-.32143-.05893-1.53393-.57679-2.86607-1.50893-3.96071-2.76965-.33036-.38125-.28929-.95893.09286-1.29018.37679-.33125.95893-.28929 1.28928.09196.89286 1.02857 1.97679 1.78839 3.22143 2.25714.47322.17768.7125.70446.53393 1.17768-.13751.36609-.48572.59198-.85536.59198z"/><path d="m30.80111 43.7194c-.17679 0-.35357-.05-.51071-.15625-1.00179-.67411-1.86964-1.60178-2.44197-2.6125-.24911-.43929-.09464-.99732.34464-1.24643.44286-.24732.99643-.09286 1.24643.34464.42946.75804 1.11161 1.48571 1.87232 1.99821.41786.28125.53036.85.24821 1.26875-.17678.26251-.46606.40358-.75892.40358z"/><path d="m32.89575 55.96494c-.1375 0-.275-.03036-.40714-.09554-1.24821-.61964-2.5-1.54821-3.43393-2.54732-.34464-.36875-.325-.94732.04375-1.29197.36786-.34375.94643-.32589 1.29197.04375.78929.84554 1.85178 1.63125 2.9125 2.15804.45179.22411.63572.77322.4125 1.225-.16072.32232-.48393.50804-.81965.50804z"/><path d="m63.45334 34.74094c-.10971.62176-.23772 1.24342-.38404 1.82857-1.51775-.0365-3.65714-.95078-5.19308-2.24911-.40234-.32913-.45714-.89598-.12801-1.28002.32913-.40223.91429-.45714 1.28002-.12801 1.44453 1.18861 3.27311 1.84687 4.20569 1.82857z"/><path d="m55.5539 51.10668c-.63995.73147-1.22511 1.29832-1.64576 1.70056h-.01819c-1.49944-.27422-3.01719-1.13371-4.1875-2.43192-.34743-.36573-.31083-.95089.07321-1.28002.36563-.34743.95078-.31094 1.27991.0548.49375.54855 1.81027 1.79207 3.73036 1.91998.32913.0366.56685.0366.76797.0366z"/></g><path d="m52.48757 54.01004c-2.89084 2.28666-10.37042 7.40932-19.88836 5.88897-5.95247-.95635-12.93028-4.51484-14.57446-11.99187-1.38762-6.2928 2.15487-11.528 3.79917-13.24048 4.55122-4.70218 8.98945-4.82976 13.61289-7.46329-.43489 1.00453-.78441 2.05728-1.04846 3.15827-2.48952 10.38046 3.61861 20.74378 13.63205 23.14529 1.49418.35835 2.99299.52382 4.46717.50311z" opacity=".15"/></g></g></svg>