<svg height="512" viewBox="0 0 64 64" width="512" xmlns="http://www.w3.org/2000/svg"><g id="Flat"><path d="m18 31a4.38 4.38 0 0 1 1 3 4.38 4.38 0 0 1 -1 3v2h28v-2a4.38 4.38 0 0 1 -1-3 4.38 4.38 0 0 1 1-3v-2h-28z" fill="#eebf90"/><path d="m43 11h-22l1-8h20z" fill="#4575c7"/><path d="m47 22h-30l6-11h18z" fill="#fcedd8"/><path d="m17 22h30a0 0 0 0 1 0 0v7a2 2 0 0 1 -2 2h-26a2 2 0 0 1 -2-2v-7a0 0 0 0 1 0 0z" fill="#fae0bb"/><rect fill="#fae0bb" height="24" rx="2" width="30" x="17" y="37"/><path d="m27 3a.45.45 0 0 1 0 .12l-1 7.88h-2a.45.45 0 0 1 0-.12l1-7.88z" fill="#003ba1"/><path d="m31 3a.45.45 0 0 1 0 .12l-1 7.88h-2a.45.45 0 0 1 0-.12l1-7.88z" fill="#003ba1"/><path d="m36 11h-2l-1-7.88a.45.45 0 0 1 0-.12h2l1 7.88a.45.45 0 0 1 0 .12z" fill="#003ba1"/><path d="m40 11h-2l-1-7.88a.45.45 0 0 1 0-.12h2l1 7.88a.45.45 0 0 1 0 .12z" fill="#003ba1"/><g fill="#ef4842"><ellipse cx="32" cy="49" rx="11" ry="5"/><path d="m28 28h-3a1 1 0 0 1 -1-1h-2a1 1 0 0 1 -2 0v-1a1 1 0 0 1 1-1h4a1 1 0 0 1 1 1h1a1 1 0 0 1 2 0v1a1 1 0 0 1 -1 1z"/><path d="m33 28a1 1 0 0 1 -1-1v-1a1 1 0 0 1 2 0v1a1 1 0 0 1 -1 1z"/><path d="m37 28a1 1 0 0 1 -1-1v-1a1 1 0 0 1 2 0v1a1 1 0 0 1 -1 1z"/><path d="m41 28a1 1 0 0 1 -1-1v-1a1 1 0 0 1 2 0v1a1 1 0 0 1 -1 1z"/></g></g></svg>