<svg height="512" viewBox="0 0 512 512" width="512" xmlns="http://www.w3.org/2000/svg"><g id="Flat"><path d="m185.314 97.313c-9.2 46.01 31.364 86.576 77.373 77.374 9.201-46.01-31.364-86.576-77.373-77.374z" fill="#7eb457"/><rect fill="#5f943a" height="45.255" rx="8" transform="matrix(.707 -.707 .707 .707 -30.558 198.225)" width="16" x="216" y="113.373"/><path d="m40 368h432a0 0 0 0 1 0 0 64 64 0 0 1 -64 64h-304a64 64 0 0 1 -64-64 0 0 0 0 1 0 0z" fill="#ebebe9"/><path d="m368 368a64 64 0 0 1 -64 64h104a64 64 0 0 0 64-64z" fill="#e0e0de"/><path d="m408 368h-304l3.75-15.01 38.19-152.75a31.993 31.993 0 0 1 31.04-24.24h158.04a31.993 31.993 0 0 1 31.04 24.24z" fill="#f2dec2"/><path d="m408 368h-304l3.75-15.01c95.4-18.09 188.6-62.9 259-149.99z" fill="#ead7bc"/><path d="m370 216h-14a19.994 19.994 0 0 0 -20 20v40a20 20 0 0 1 -40 0v-24a20 20 0 0 0 -40 0v40a20 20 0 0 1 -40 0v-56a19.994 19.994 0 0 0 -20-20h-54l3.94-15.76a31.993 31.993 0 0 1 31.04-24.24h158.04a31.993 31.993 0 0 1 31.04 24.24z" fill="#f35244"/><path d="m322.95 171.77a37 37 0 0 1 -17.05 4.2l-35.38.03h-.03a30.156 30.156 0 0 1 -25.28-14 30.655 30.655 0 0 1 -1.98-3.5 32.742 32.742 0 0 1 2.85-33.19l21.21-29.43a39.145 39.145 0 0 1 6.06-6.65 37.387 37.387 0 0 1 7.38-5.02c18.82-9.81 41.73-1.89 51.16 17.67l.97 2.01 7.09 14.71c9.43 19.57 1.82 43.37-17 53.17z" fill="#f35244"/><path d="m322.95 171.77a37 37 0 0 1 -17.05 4.2l-35.38.03h-.03a30.156 30.156 0 0 1 -25.28-14c32.76-8.7 63.99-26.55 87.65-58.11l7.09 14.71c9.43 19.57 1.82 43.37-17 53.17z" fill="#e64c3f"/></g></svg>