<svg id="color" height="512" viewBox="0 0 256 256" width="512" xmlns="http://www.w3.org/2000/svg"><path d="m131.9764 119.4182c-4.4494-25.2111-8.4643-40.4024-25.2114-60.0617-13.2392-15.542-21.1132-25.7173-23.975-29.494v-.9072a4.9436 4.9436 0 1 0 -9.8871 0v.9074c-2.8617 3.7767-10.7357 13.952-23.9749 29.4938-16.747 19.6593-20.7619 34.8507-25.2114 60.0617-4.0444 22.9185-5.6316 79.5339 40.9052 91.3134 6.9653 2.19 17.4153 2.19 26.4494 0 46.5363-11.7795 44.9497-68.3949 40.9052-91.3134z" fill="#e0d8b8"/><path d="m117.64 121.5471c-2.6125-14.6794-4.0836-27.0383-11.1225-40.4379-7.5705-14.4128-19.5486-27.3886-28.67-40.8077 0 0-21.1025 26.3949-28.673 40.8077-7.0388 13.4-8.51 25.7584-11.1224 40.4379-2.0271 11.39-1.5786 30.3593 2.4084 45.2338a41.6278 41.6278 0 0 0 36.6453 30.4047c18.0162 1.6132 33.77-14.1566 38.1256-30.4039 3.9886-14.8748 4.4361-33.8447 2.4086-45.2346z" fill="#f4f0d0"/><path d="m117.4584 215.1865c9.4037 10.66 32.9194 17.6851 55.6472 4.8579 15.2668-8.6161 28.67-23.2633 36.1238-34.0979 15.8662-23.0635 22.9722-35.8491 24.4283-61.477a274.0541 274.0541 0 0 1 3.5138-30.8486 273.9052 273.9052 0 0 1 -30.8483 3.5138c-25.6276 1.4566-38.4135 8.5623-61.477 24.4282-10.8346 7.4535-25.4816 20.8576-34.0979 36.1244-12.8273 22.7278-6.579 38.0134-.7638 47.5342a46.4723 46.4723 0 0 0 7.4739 9.965z" fill="#8b8f21"/><path d="m203.3164 183.7532c-6.62 9.487-20.3511 22.5841-33.6886 30.2825-14.568 8.4092-36.8586 8.42-48.458-5.46a41.6277 41.6277 0 0 1 -4.4123-47.4114c7.6984-13.3372 20.7953-27.0676 30.2817-33.6881q.5954-.4153 1.1833-.8279-4.5939-5.8-8.7291-11.5715c-.3615.2522-.72.5011-1.0855.7571-19.0657 13.3461-60.2212 52.2569-35.6442 93.4925a64.1067 64.1067 0 0 0 18.7027 18.703c41.2355 24.5768 80.1464-16.5784 93.4925-35.6442.2562-.3657.5049-.7243.7574-1.0855q-5.7645-4.1342-11.5715-8.7291-.4127.5878-.8284 1.1826z" fill="#e8e1c1"/><path d="m116.7574 161.164a41.6277 41.6277 0 0 0 4.4123 47.4114c11.5994 13.88 33.89 13.87 48.458 5.46 13.3375-7.6984 27.0682-20.7956 33.6886-30.2825q.4157-.5954.8282-1.183a343.9975 343.9975 0 0 1 -29.5453-26.3769 343.9851 343.9851 0 0 1 -26.3769-29.5453q-.5881.4125-1.1833.8279c-9.4863 6.6207-22.5832 20.3512-30.2816 33.6884z" fill="#f4f0d0"/></svg>