<svg id="Capa_1" enable-background="new 0 0 512 512" height="512" viewBox="0 0 512 512" width="512" xmlns="http://www.w3.org/2000/svg"><path d="m281.433 130.975c6.231 0 12.361.501 18.368 1.455 5.801-21.307 16.957-35.702 17.261-36.088 6.768-8.423 5.46-20.741-2.942-27.554-8.421-6.83-20.791-5.539-27.62 2.887-1.144 1.411-20.471 25.699-27.167 61.408 7.193-1.382 14.573-2.108 22.1-2.108z" fill="#98db7c"/><path d="m399.582 157.782c-12.246 0-24.032 2.299-35.068 6.535-22.933-20.892-51.763-33.342-83.081-33.342s-60.149 12.45-83.081 33.342c-11.036-4.235-22.822-6.535-35.068-6.535-62.086 0-112.418 58.876-112.418 131.504 0 72.627 50.331 131.503 112.418 131.503 12.247 0 24.032-2.299 35.068-6.535 22.933 20.892 51.763 33.342 83.081 33.342s60.148-12.45 83.081-33.342c11.036 4.235 22.822 6.535 35.068 6.535 62.087 0 112.418-58.876 112.418-131.503 0-72.628-50.331-131.504-112.418-131.504z" fill="#ffaa5c"/><path d="m281.433 108.653c-5.245 0-10.427.314-15.538.912-2.628 7.083-4.959 14.968-6.562 23.518 7.192-1.383 14.573-2.109 22.099-2.109 6.231 0 12.361.501 18.368 1.455 2.232-8.2 5.257-15.37 8.152-21.117-8.615-1.745-17.476-2.659-26.519-2.659z" fill="#82d361"/><g fill="#ff9838"><path d="m399.582 157.782c-3.131 0-6.231.155-9.297.449 57.743 5.523 103.134 62.084 103.134 131.054s-45.391 125.531-103.134 131.054c3.066.294 6.166.449 9.297.449 62.087 0 112.418-58.876 112.418-131.503s-50.331-131.503-112.418-131.503z"/><path d="m281.377 130.975c-3.123 0-6.22.135-9.29.378 70.451 5.582 126.122 74.152 126.122 157.933s-55.671 152.35-126.122 157.933c3.071.243 6.167.378 9.29.378 74.786 0 135.412-70.878 135.412-158.311s-60.626-158.311-135.412-158.311z"/><path d="m145.965 289.285c0-50.815 20.483-96.03 52.319-124.994-4.488-1.719-9.105-3.099-13.822-4.153-34.541 28.688-57.078 75.84-57.078 129.147s22.536 100.459 57.078 129.147c4.716-1.054 9.334-2.435 13.822-4.154-31.836-28.963-52.319-74.177-52.319-124.993z"/></g><path d="m234.488 289.285c-2.305 0-4.372 1.499-5.009 3.714-8.095 28.158-34.711 48.82-66.314 48.82s-58.218-20.662-66.313-48.819c-.637-2.216-2.703-3.714-5.009-3.714h-91.843c0 87.432 73.052 158.311 163.166 158.311s163.166-70.878 163.166-158.311h-91.844z" fill="#e8834d"/><path d="m163.166 429.016c-83.634 0-152.559-61.055-162.041-139.73h-1.125c0 87.432 73.052 158.311 163.166 158.311s163.166-70.878 163.166-158.311h-1.124c-9.483 78.675-78.408 139.73-162.042 139.73z" fill="#d66e41"/><path d="m234.488 289.285c-2.305 0-4.372 1.499-5.009 3.714-8.095 28.158-34.711 48.82-66.314 48.82s-58.219-20.663-66.314-48.82c-.637-2.216-2.703-3.714-5.009-3.714h-91.842s41.026 111.515 163.166 111.515 163.166-111.515 163.166-111.515z" fill="#ffe55a"/><path d="m163.166 382.22c-90.501 0-136.46-61.215-154.201-92.934h-8.965s41.026 111.515 163.166 111.515 163.166-111.515 163.166-111.515h-8.964c-17.743 31.718-63.701 92.934-154.202 92.934z" fill="#ffd91d"/></svg>