<svg height="512" viewBox="0 0 512 512" width="512" xmlns="http://www.w3.org/2000/svg"><g id="Flat"><path d="m392 229.49a175.515 175.515 0 0 1 -35.11 105.32l-36.89 49.19h-224l-36.89-49.19a175.552 175.552 0 0 1 -13.02-190.57l17.91-32.24h288l17.91 32.24a174.76 174.76 0 0 1 13.74 31.76q1.5 4.695 2.74 9.46a175.541 175.541 0 0 1 5.61 44.03z" fill="#e0e0de"/><path d="m392 229.49a175.515 175.515 0 0 1 -35.11 105.32l-36.89 49.19h-224l-28.15-37.53-8.74-11.66a175.515 175.515 0 0 1 -26.76-158.81h351.3q1.5 4.695 2.74 9.46a175.541 175.541 0 0 1 5.61 44.03z" fill="#fa6d00"/><path d="m392 229.49a175.515 175.515 0 0 1 -35.11 105.32l-36.89 49.19h-224l-28.15-37.53c93.4-23.64 183.57-75.54 252.96-170.47h62.84q1.5 4.695 2.74 9.46a175.541 175.541 0 0 1 5.61 44.03z" fill="#f86400"/><path d="m487.667 360.45a295.424 295.424 0 0 1 -10.389 77.71l-13.561 49.84h-111.767l-13.562-49.84a295.854 295.854 0 0 1 -10.388-77.71q0-8.235.459-16.45c.14-2.64.329-5.28.539-7.91q1.019-12.15 3.014-24.2l3.971-23.89h143.7l3.972 23.89a294.284 294.284 0 0 1 3.553 32.11q.464 8.22.459 16.45z" fill="#e0e0de"/><path d="m487.667 360.45a295.424 295.424 0 0 1 -10.389 77.71l-13.561 49.84h-111.767l-13.562-49.84a295.854 295.854 0 0 1 -10.388-77.71q0-8.235.459-16.45h158.749q.464 8.22.459 16.45z" fill="#fa6d00"/><ellipse cx="407.833" cy="288" fill="#cfcfcd" rx="71.85" ry="24"/><path d="m456 416a40.057 40.057 0 0 1 -32 39.2 40.4 40.4 0 0 1 -16 0 40.014 40.014 0 0 1 0-78.4 40.4 40.4 0 0 1 16 0 39.956 39.956 0 0 1 32 39.2z" fill="#ffae1f"/><path d="m431.99 416.49 21.79 12.68a40.059 40.059 0 0 1 -8.2 13.74l-21.58-12.55v24.84a40.4 40.4 0 0 1 -16 0v-24.88l-21.67 12.49a39.756 39.756 0 0 1 -8.15-13.77l21.88-12.61-22.09-12.85a39.8 39.8 0 0 1 7.92-13.9l22.11 12.86v-25.74a40.4 40.4 0 0 1 16 0v25.83l22.23-12.81a39.882 39.882 0 0 1 7.86 13.93z" fill="#ff9419"/><path d="m192 184a40.057 40.057 0 0 1 -32 39.2 40.4 40.4 0 0 1 -16 0 40.014 40.014 0 0 1 0-78.4 40.4 40.4 0 0 1 16 0 39.956 39.956 0 0 1 32 39.2z" fill="#ffae1f"/><path d="m167.99 184.49 21.79 12.68a40.059 40.059 0 0 1 -8.2 13.74l-21.58-12.55v24.84a40.4 40.4 0 0 1 -16 0v-24.88l-21.67 12.49a39.756 39.756 0 0 1 -8.15-13.77l21.88-12.61-22.09-12.85a39.8 39.8 0 0 1 7.92-13.9l22.11 12.86v-25.74a40.4 40.4 0 0 1 16 0v25.83l22.23-12.81a39.882 39.882 0 0 1 7.86 13.93z" fill="#ff9419"/><path d="m304 312a40.057 40.057 0 0 1 -32 39.2 40.4 40.4 0 0 1 -16 0 40.014 40.014 0 0 1 0-78.4 40.4 40.4 0 0 1 16 0 39.956 39.956 0 0 1 32 39.2z" fill="#ffae1f"/><path d="m279.99 312.49 21.79 12.68a40.059 40.059 0 0 1 -8.2 13.74l-21.58-12.55v24.84a40.4 40.4 0 0 1 -16 0v-24.88l-21.67 12.49a39.756 39.756 0 0 1 -8.15-13.77l21.88-12.61-22.09-12.85a39.8 39.8 0 0 1 7.92-13.9l22.11 12.86v-25.74a40.4 40.4 0 0 1 16 0v25.83l22.23-12.81a39.882 39.882 0 0 1 7.86 13.93z" fill="#ff9419"/><path d="m352 248a40.057 40.057 0 0 1 -32 39.2 40.4 40.4 0 0 1 -16 0 40.014 40.014 0 0 1 0-78.4 40.4 40.4 0 0 1 16 0 39.956 39.956 0 0 1 32 39.2z" fill="#ffae1f"/><path d="m327.99 248.49 21.79 12.68a40.059 40.059 0 0 1 -8.2 13.74l-21.58-12.55v24.84a40.4 40.4 0 0 1 -16 0v-24.88l-21.67 12.49a39.756 39.756 0 0 1 -8.15-13.77l21.88-12.61-22.09-12.85a39.8 39.8 0 0 1 7.92-13.9l22.11 12.86v-25.74a40.4 40.4 0 0 1 16 0v25.83l22.23-12.81a39.882 39.882 0 0 1 7.86 13.93z" fill="#ff9419"/><path d="m424 40a16 16 0 0 1 -16 16h-39.77a16.032 16.032 0 0 0 -13.02 6.7l-78.04 113.3-90.76 131.76a67.571 67.571 0 0 1 -96.34 14.09l-1.32-1.01a65.368 65.368 0 0 1 -15.54-86.51l8.54-13.65 83.45 59.24 72.36-103.92 89.68-128.79a55.994 55.994 0 0 1 45.39-23.21h35.37a15.979 15.979 0 0 1 16 16z" fill="#ffae1f"/><path d="m277.17 176-90.76 131.76a67.571 67.571 0 0 1 -96.34 14.09l-1.32-1.01a65.368 65.368 0 0 1 -15.54-86.51l8.54-13.65 83.45 59.24 72.36-103.92z" fill="#de4132"/><g fill="#fce25d"><path d="m144 144.8a39.908 39.908 0 0 0 -22.11 12.88l22.11 12.86z"/><path d="m191.2 176a39.84 39.84 0 0 0 -1.107-4.25l-7.375 4.25z"/><path d="m182.23 157.82a39.883 39.883 0 0 0 -22.23-13.02v25.83z"/><path d="m113.97 171.58a39.584 39.584 0 0 0 -1.17 4.42h8.765z"/></g><path d="m182.718 176 7.372-4.25a39.882 39.882 0 0 0 -7.86-13.93l-22.23 12.81v-25.83a40.4 40.4 0 0 0 -16 0v25.74l-22.11-12.86a39.8 39.8 0 0 0 -7.92 13.9l7.6 4.42z" fill="#ffbf57"/></g></svg>