<svg id="icons" viewBox="0 0 128 128" xmlns="http://www.w3.org/2000/svg"><path d="m46.31 72.9c-2.27-8.93-9.63-18-9.63-18a9 9 0 0 0 -14.36 0s-7.94 9.76-9.87 19c-.05.23-.09.47-.13.7s-.08.52-.12.78-.07.56-.1.85c0 .49-.07 1-.07 1.45a17.48 17.48 0 0 0 27.76 14.14" fill="#e6e9e3"/><path d="m19.41 82.07v1.33a2.43 2.43 0 0 0 2.43 2.43h.56a2.43 2.43 0 0 0 1.72-.71l1.33-1.33a2.43 2.43 0 0 0 .71-1.72 2.43 2.43 0 0 0 -2.43-2.43h-1.9a2.43 2.43 0 0 0 -2.42 2.43z" fill="#000061"/><path d="m21.51 56.29h7.34a1.9 1.9 0 0 1 1.34.56l1 1a1.9 1.9 0 0 1 0 2.68l-.72.72a1.9 1.9 0 0 0 0 2.68l1.89 1.89a1.9 1.9 0 0 1 .56 1.34v1.11a1.9 1.9 0 0 1 -.56 1.34l-1 1a1.9 1.9 0 0 1 -2.68 0l-1.38-1.38a1.9 1.9 0 0 1 -.56-1.34 1.9 1.9 0 0 0 -1.9-1.9h-1a1.9 1.9 0 0 1 -1.34-.56l-4.91-2.63" fill="#000061"/><path d="m39.6 90.23-1.15-1.15a2.77 2.77 0 0 1 -.81-2v-1.6a2.77 2.77 0 0 0 -.81-2l-.55-.48a2.77 2.77 0 0 1 -.81-2v-4a2.77 2.77 0 0 1 2.77-2.77 2.77 2.77 0 0 1 2.76 2.77v2.38a2.77 2.77 0 0 0 .81 2" fill="#000061"/><path d="m71.33 78.22a17.48 17.48 0 0 0 17.48-17.48c0-.48 0-1-.07-1.45 0-.29-.06-.57-.1-.85s-.07-.51-.12-.77-.08-.47-.13-.7c-1.93-9.24-9.87-19-9.87-19a9 9 0 0 0 -14.35 0s-7.94 9.76-9.87 19c-.05.23-.09.47-.13.7s-.08.52-.12.78-.07.56-.1.85c0 .49-.07 1-.07 1.45a17.6 17.6 0 0 0 .25 3" fill="#e6e9e3" stroke="#000061" stroke-miterlimit="10" stroke-width="2"/><path d="m66 68.16 1.33-1.33a2.43 2.43 0 0 0 .67-1.71 2.43 2.43 0 0 0 -2.43-2.43h-1.9a2.43 2.43 0 0 0 -2.43 2.43" fill="#000061"/><path d="m63.35 39.34h7.34a1.9 1.9 0 0 1 1.34.56l1 1a1.9 1.9 0 0 1 0 2.68l-.72.72a1.9 1.9 0 0 0 0 2.68l1.89 1.89a1.9 1.9 0 0 1 .56 1.34v1.11a1.9 1.9 0 0 1 -.56 1.34l-1 1a1.9 1.9 0 0 1 -2.68 0l-1.35-1.36a1.9 1.9 0 0 1 -.55-1.3 1.9 1.9 0 0 0 -1.9-1.9h-1a1.9 1.9 0 0 1 -1.34-.56l-4.88-2.67" fill="#000061"/><path d="m82.44 74.27-2.14-2.14a2.77 2.77 0 0 1 -.81-2v-1.6a2.77 2.77 0 0 0 -.81-2l-.57-.53a2.77 2.77 0 0 1 -.81-2v-4a2.77 2.77 0 0 1 2.77-2.77 2.77 2.77 0 0 1 2.77 2.77v2.38a2.77 2.77 0 0 0 .81 2l3.46 3.47" fill="#000061"/><path d="m104.19 87.57-4.34-4.34a1.34 1.34 0 0 0 -1.9 0l-4.35 4.34a1.34 1.34 0 0 1 -1.9 0l-4.34-4.34a1.34 1.34 0 0 0 -1.9 0l-3.26 3.26c0 .08 0 .16-.06.25s-.09.47-.13.7-.08.52-.12.78-.07.56-.1.85c0 .49-.07 1-.07 1.45a17.48 17.48 0 1 0 35 0c0-.48 0-1-.07-1.45 0-.29-.06-.57-.1-.85s-.07-.51-.12-.77v-.22l-4-4a1.34 1.34 0 0 0 -1.9 0l-4.34 4.34a1.34 1.34 0 0 1 -2 0z" fill="#e6e9e3"/><path d="m89.11 94.88v1.33a2.43 2.43 0 0 0 2.43 2.43h.56a2.43 2.43 0 0 0 1.72-.71l1.33-1.33a2.43 2.43 0 0 0 .71-1.72 2.43 2.43 0 0 0 -2.43-2.43h-1.89a2.43 2.43 0 0 0 -2.43 2.43z" fill="#000061"/><path d="m108.16 105.84a2.77 2.77 0 0 1 -.81-2v-1.6a2.77 2.77 0 0 0 -.81-2l-.56-.56a2.77 2.77 0 0 1 -.81-2v-4a2.77 2.77 0 0 1 2.76-2.68 2.77 2.77 0 0 1 2.77 2.77v2.38a2.77 2.77 0 0 0 .81 2l2.14 2.14" fill="#000061"/><path d="m74.59 89.06c0-.29-.06-.57-.1-.85s-.07-.51-.12-.77-.08-.47-.13-.7c-1.93-9.24-9.87-19-9.87-19a9 9 0 0 0 -14.35 0s-7.94 9.76-9.87 19c-.05.23-.09.47-.13.7s-.08.52-.12.78-.07.56-.1.85c0 .49-.07 1-.07 1.45a17.48 17.48 0 1 0 35 0c-.07-.52-.1-.97-.14-1.46z" fill="#e6e9e3" stroke="#000061" stroke-miterlimit="10" stroke-width="2"/><g fill="#000061"><path d="m61.18 98v1.3a2.43 2.43 0 0 1 -2.43 2.43h-.56a2.43 2.43 0 0 1 -1.72-.71l-1.33-1.33a2.43 2.43 0 0 1 -.71-1.69 2.43 2.43 0 0 1 2.43-2.43h1.89a2.43 2.43 0 0 1 2.43 2.43z"/><path d="m67.49 72.06h-6.49a2.34 2.34 0 0 0 -1.65.69l-1.35 1.25a2.34 2.34 0 0 0 0 3.31l.89.89a2.34 2.34 0 0 1 0 3.31l-2.29 2.34a2.34 2.34 0 0 0 -.69 1.65v1.37a2.34 2.34 0 0 0 .69 1.65l1.21 1.21a2.34 2.34 0 0 0 3.31 0l1.7-1.7a2.34 2.34 0 0 0 .69-1.65 2.34 2.34 0 0 1 2.34-2.38h1.15a2.34 2.34 0 0 0 1.65-.69l3.25-3.25"/><path d="m52.71 65.34v6.13a3.36 3.36 0 0 1 -1 2.38 3.36 3.36 0 0 1 -4.75 0l-.59-.59"/><path d="m46.17 104 2.14-2.15a2.77 2.77 0 0 0 .81-2v-1.6a2.77 2.77 0 0 1 .81-2l.56-.56a2.77 2.77 0 0 0 .81-2v-4a2.77 2.77 0 0 0 -2.77-2.77 2.77 2.77 0 0 0 -2.77 2.77v2.38a2.77 2.77 0 0 1 -.81 2l-3.46 3.47"/></g></svg>