<svg id="Layer_1" enable-background="new 0 0 512 512" viewBox="0 0 512 512" xmlns="http://www.w3.org/2000/svg"><g clip-rule="evenodd" fill-rule="evenodd"><path d="m222.46 97.18c21.77-6.55 47.91 16.3 58.37 51.02s1.3 68.2-20.44 74.78c-21.77 6.55-47.91-16.3-58.37-51.02-10.48-34.76-1.3-68.23 20.44-74.78z" fill="#d3a158"/><path d="m240.32 97.83c16.67 5.75 32.83 24.83 40.51 50.37 7.71 25.54 4.79 50.37-5.92 64.35-16.67-5.73-32.8-24.83-40.51-50.34-7.69-25.55-4.79-50.38 5.92-64.38z" fill="#f7d888"/><path d="m310.22 96.64c22.62-2.38 43.99 24.94 47.79 61.03s-11.48 67.27-34.07 69.62c-22.62 2.38-44.02-24.94-47.79-61.03-3.8-36.09 11.48-67.27 34.07-69.62z" fill="#d3a158"/><path d="m327.66 100.61c15.28 8.76 27.58 30.56 30.36 57.06s-4.73 50.37-17.86 62.11c-15.31-8.76-27.58-30.53-30.36-57.06-2.81-26.51 4.7-50.38 17.86-62.11z" fill="#f7d888"/><path d="m394.13 100.18c22.54 2.98 36.96 34.55 32.23 70.53-4.73 35.97-26.84 62.7-49.38 59.75-22.54-2.98-36.96-34.55-32.23-70.53 4.73-35.94 26.84-62.7 49.38-59.75z" fill="#d3a158"/><path d="m410.14 108.15c12.81 12.08 19.7 36.11 16.21 62.56-3.49 26.42-16.36 47.88-31.86 56.21-12.84-12.08-19.7-36.11-16.21-62.56 3.46-26.42 16.33-47.88 31.86-56.21z" fill="#f7d888"/><path d="m124.67 103.56c20.32-10.23 50 7.77 66.3 40.17 16.3 32.43 13.07 66.98-7.23 77.19-20.3 10.23-49.97-7.77-66.3-40.17-16.3-32.44-13.07-66.99 7.23-77.19z" fill="#d3a158"/><path d="m142.38 101.12c17.4 2.78 36.6 18.79 48.59 42.6s13.41 48.78 5.27 64.43c-17.4-2.78-36.6-18.82-48.59-42.63-11.98-23.81-13.4-48.78-5.27-64.4z" fill="#f7d888"/><path d="m462.39 154.89c19.45 11.79 19.93 46.49 1.11 77.5-18.85 31.01-49.86 46.6-69.28 34.78-19.45-11.79-19.93-46.49-1.08-77.5 18.82-31.01 49.83-46.6 69.25-34.78z" fill="#d3a158"/><path d="m473.84 168.61c6.89 16.21 3.49 40.99-10.35 63.78-13.86 22.79-34.27 37.25-51.82 38.64-6.89-16.24-3.49-41.02 10.35-63.81 13.86-22.79 34.27-37.25 51.82-38.61z" fill="#f7d888"/><path d="m332.14 157.78c20.52-9.75 49.8 8.93 65.37 41.7 15.56 32.77 11.54 67.24-8.99 76.99s-49.8-8.9-65.37-41.67c-15.56-32.77-11.54-67.27 8.99-77.02z" fill="#d3a158"/><path d="m349.88 155.77c17.35 3.15 36.17 19.62 47.62 43.71 11.45 24.07 12.3 49.07 3.8 64.52-17.32-3.17-36.17-19.64-47.59-43.71-11.46-24.1-12.31-49.1-3.83-64.52z" fill="#f7d888"/><path d="m296.16 153.3c21.32 7.85 28.46 41.81 15.93 75.85-12.53 34.07-40 55.3-61.31 47.45-21.35-7.85-28.49-41.81-15.96-75.88 12.56-34.04 40-55.27 61.34-47.42z" fill="#d3a158"/><path d="m310.03 164.59c9.86 14.6 11.25 39.57 2.07 64.57-9.21 25.03-26.48 43.14-43.46 47.85-9.86-14.6-11.28-39.57-2.07-64.6 9.21-25.01 26.48-43.12 43.46-47.82z" fill="#f7d888"/><path d="m176.34 160.08c20.32-10.23 50 7.77 66.3 40.17s13.07 66.95-7.23 77.19c-20.32 10.2-50-7.77-66.3-40.2-16.29-32.4-13.06-66.96 7.23-77.16z" fill="#d3a158"/><path d="m194.06 157.64c17.4 2.75 36.6 18.79 48.59 42.6s13.41 48.78 5.27 64.4c-17.4-2.75-36.6-18.79-48.59-42.6s-13.41-48.78-5.27-64.4z" fill="#f7d888"/><path d="m81.38 156.9c20.3-10.23 49.97 7.77 66.27 40.17 16.33 32.43 13.07 66.98-7.23 77.19-20.3 10.23-49.97-7.77-66.3-40.17-16.29-32.43-13.06-66.98 7.26-77.19z" fill="#d3a158"/><path d="m99.07 154.47c17.4 2.78 36.62 18.79 48.59 42.6 11.99 23.84 13.44 48.81 5.27 64.43-17.38-2.78-36.6-18.79-48.59-42.63-11.99-23.81-13.4-48.79-5.27-64.4z" fill="#f7d888"/><path d="m378.11 381.29v19.76c0 9.75-9.72 17.74-21.57 17.74h-201.12c-11.88 0-21.6-7.99-21.6-17.74v-19.76c6.55 1.76 13.27 2.69 19.98 2.69h204.35c6.7.01 13.42-.93 19.96-2.69z" fill="#394651"/><path d="m378.11 400.06v.99c0 9.75-9.72 17.74-21.57 17.74h-201.12c-11.88 0-21.6-7.99-21.6-17.74v-.99z" fill="#23313e"/><path d="m55.47 223.04h400.99c6.24 0 11.34 5.1 11.34 11.34v18c0 6.21-5.1 11.31-11.34 11.31h-400.99c-6.24 0-11.31-5.1-11.31-11.31v-18c0-6.24 5.08-11.34 11.31-11.34z" fill="#394651"/><path d="m57.91 223.04h396.11c7.57 0 13.78 5.1 13.78 11.34v10.06h-423.64v-10.06c0-6.24 6.18-11.34 13.75-11.34z" fill="#23313e"/><path d="m153.81 383.99h204.35c36.09 0 72.4-27.07 80.73-60.15l15.14-60.15c-132.04 0-264.08 0-396.11 0l15.14 60.15c8.32 33.08 44.66 60.15 80.75 60.15z" fill="#005c98"/><path d="m225.16 383.99h133c36.09 0 72.4-27.07 80.73-60.15l15.14-60.15c-108.26 0-216.51 0-324.74 0l15.11 60.15c8.33 33.08 44.67 60.15 80.76 60.15z" fill="#337bab"/><path d="m27.3 341.58c.4 23.13 15.85 47.71 41.64 62.19 25.8 14.49 54.79 14.88 74.78 3.17-.4-23.16-15.85-47.74-41.64-62.19-25.8-14.48-54.83-14.88-74.78-3.17z" fill="#67a844"/><path d="m27.3 341.58c.4 23.13 15.85 47.71 41.64 62.19 12.93 7.26 26.65 10.97 39.63 11.4 1.84-.82 3.63-1.73 5.36-2.72-.43-23.16-15.85-47.74-41.64-62.19-12.93-7.26-26.67-10.97-39.66-11.42-1.85.81-3.63 1.75-5.33 2.74z" fill="#92c844"/><path d="m199.28 303.82c9.33 21.17 5.58 49.97-11.76 73.93-17.35 23.95-43.54 36.45-66.56 34.19-9.35-21.17-5.61-49.97 11.74-73.93 17.37-23.95 43.53-36.45 66.58-34.19z" fill="#67a844"/><path d="m199.28 303.82c9.33 21.17 5.58 49.97-11.76 73.93-8.7 11.99-19.59 21.12-31.21 26.96-2.01.03-4.02-.06-6.01-.26-9.33-21.2-5.58-49.97 11.76-73.93 8.7-11.99 19.62-21.12 31.24-26.96 2.01-.02 3.99.07 5.98.26z" fill="#92c844"/></g></svg>