<svg height="512" viewBox="0 0 512 512" width="512" xmlns="http://www.w3.org/2000/svg"><g id="Flat"><path d="m460 112h-.583a8.043 8.043 0 0 1 -5.687-13.73l14.27-14.27a28.284 28.284 0 0 0 0-40 28.284 28.284 0 0 0 -40 0l-14.27 14.27a8.043 8.043 0 0 1 -13.73-5.687c0-15.256-11.962-28.153-27.213-28.571a28 28 0 0 0 -28.787 27.988v56a28 28 0 0 0 -28.787-27.989c-15.251.418-27.213 13.315-27.213 28.571v115.418h116a28 28 0 0 0 28-28 28 28 0 0 0 -28-28h56a28 28 0 0 0 28-28 28 28 0 0 0 -28-28z" fill="#79ad54"/><path d="m432 144v-16h-36.686l34.343-34.343-11.314-11.314-34.343 34.343v-36.686h-16v52.686l-32 32v-36.686h-16v52.686l-117.323 117.323 11.313 11.315 117.324-117.324h52.686v-16h-36.686l32-32z" fill="#89ba66"/><path d="m354.281 439.156a30.767 30.767 0 0 0 -.274-42.006l40.274 41.718a27.339 27.339 0 0 0 40-.287 30.767 30.767 0 0 0 -.274-42.006l-.419-.434c-5.153-5.338-1.588-14.554 5.65-14.606l20.386-.147c15.779-.113 28.483-13.639 28.375-30.209s-12.987-29.913-28.767-29.8l-20.385.146c-7.238.052-10.923-9.112-5.84-14.524 10.823-11.522 11.369-30.174.7-41.851a27.354 27.354 0 0 0 -40.558-.307l-39.729 42.295a30.751 30.751 0 0 0 -.847-42.584c-11.265-11.046-29.016-10.218-39.839 1.305l-81.877 87.168 83.424 86.416a27.339 27.339 0 0 0 40-.287z" fill="#79ad54"/><path d="m424 344h-52.674l26.332-26.345-11.316-11.31-37.637 37.655h-41.391l26.343-26.343-11.314-11.314-37.657 37.657h-68.686v16h68.686l37.657 37.657 11.314-11.314-26.343-26.343h41.354l37.677 37.658 11.31-11.316-26.354-26.342h52.699z" fill="#89ba66"/><path d="m247.156 157.719a30.767 30.767 0 0 0 -42.006.274l41.718-40.274a27.339 27.339 0 0 0 -.287-40 30.767 30.767 0 0 0 -42.006.274l-.434.419c-5.338 5.153-14.554 1.588-14.606-5.65l-.147-20.386c-.113-15.776-13.639-28.483-30.209-28.376s-29.913 12.987-29.8 28.767l.146 20.385c.052 7.238-9.112 10.923-14.524 5.84-11.521-10.822-30.173-11.368-41.85-.692a27.354 27.354 0 0 0 -.307 40.558l42.294 39.727a30.751 30.751 0 0 0 -42.584.847c-11.046 11.265-10.218 29.016 1.3 39.839l87.168 81.877 86.416-83.424a27.339 27.339 0 0 0 -.282-40.005z" fill="#79ad54"/><path d="m194.343 178.343-26.343 26.343v-41.354l37.658-37.677-11.316-11.31-26.342 26.355v-52.7h-16v52.673l-26.345-26.331-11.31 11.316 37.655 37.637v41.391l-26.343-26.343-11.314 11.314 37.657 37.657v68.686h16v-68.686l37.657-37.657z" fill="#89ba66"/><path d="m248 376a112 112 0 0 1 -176.43 91.61l-47.57 20.39 20.39-47.57q-3.075-4.35-5.72-8.99a112.18 112.18 0 0 1 -10.01-87.46 108.447 108.447 0 0 1 6.3-16.34 112.324 112.324 0 0 1 50-51.36 109.972 109.972 0 0 1 15.97-6.67 112.41 112.41 0 0 1 78.31 3.04v.01a112.008 112.008 0 0 1 68.76 103.34z" fill="#bf382e"/><path d="m248 376a112 112 0 0 1 -176.43 91.61l-47.57 20.39 20.39-47.57q-3.075-4.35-5.72-8.99a120.414 120.414 0 0 0 140.57-158.78 112.008 112.008 0 0 1 68.76 103.34z" fill="#b33522"/><g fill="#ab2c22"><path d="m138 317.515h16v16.971h-16z" transform="matrix(.707 -.707 .707 .707 -187.754 198.721)"/><path d="m137.66 306.34-11.32 11.32-41.38-41.38a109.972 109.972 0 0 1 15.97-6.67z"/><path d="m84 303.716h16v56.569h-16z" transform="matrix(.707 -.707 .707 .707 -207.813 162.294)"/><path d="m64 353.373h16v45.255h-16z" transform="matrix(.707 -.707 .707 .707 -244.784 161.04)"/><path d="m53.66 346.34-11.32 11.32-13.68-13.68a108.447 108.447 0 0 1 6.3-16.34z"/><path d="m224.86 444.18-38.52-38.52 11.32-11.32 36.19 36.19z"/><path d="m190.53 473.85-28.19-28.19 11.32-11.32 30.52 30.52z"/><path d="m104 420.686h16v22.627h-16z" transform="matrix(.707 -.707 .707 .707 -272.666 205.726)"/></g></g></svg>