<svg height="512" viewBox="0 0 512 512" width="512" xmlns="http://www.w3.org/2000/svg"><g id="Flat"><path d="m104 440-48 48-32-32 14.34-14.34 11.32-11.32 11.05-11.05 11.29-11.29z" fill="#f2dec2"/><path d="m45.996 431.858h16.009v28.284h-16.009z" fill="#dfcdb3" transform="matrix(.707 -.707 .707 .707 -299.555 168.816)"/><path d="m104 440-17.61 17.61a89.972 89.972 0 0 1 -25.52-37.85c-.05-.15-.11-.31-.16-.47l11.29-11.29z" fill="#e5d2b8"/><path d="m229.953 184.5c-7.974-1.978-16.82-1.021-25.336 6.421-25.578 22.356-10.655 58.744-10.95 80.736-.384 28.875-17.667 73.243-57.667 96.343-47.333 27.333-70.867 23.033-72 24-.02.017 37 69.653 104 55.986 39.969-8.153 53.288-59.469 79.575-93.1 0 0 28.717 34.928 56.292 16.2 7.644-5.192 11.59-11.168 13.293-17.073a19.831 19.831 0 0 1 23.726-13.778c9.086 2.131 19.126 1.6 28.385-5.178 7.088-5.183 10.844-11.214 12.555-17.248a20.479 20.479 0 0 1 25.261-14.372c9.192 2.574 19.089 2.385 27.6-4.413 10.428-8.324 12.065-19.467 10.591-29.375a20.231 20.231 0 0 1 16.451-22.923c11.535-2 23.18-8.077 25.689-23.958 3.489-22.039-9.2-30.529-21.328-33.7a20.394 20.394 0 0 1 -15.313-21.668c1.341-13.856-.453-31.123-15.233-38.783-11.722-6.067-22.942-1.564-31.811 5.342a20.44 20.44 0 0 1 -28.748-3.607c-5.852-7.474-14.928-12.841-28.79-9.155-12.4 3.292-19.7 11.9-23.978 21.384-4.739 10.465-17.065 15.405-27.334 10.3-7-3.476-15.524-4.3-25.36 1.115-8.338 4.593-12.83 10.7-15.012 17.038a20.651 20.651 0 0 1 -24.558 13.466z" fill="#a42f1f"/><path d="m438.952 195.959a8 8 0 1 0 -13.9-7.918c-.157.276-9.721 16.695-30.834 34.487a135.637 135.637 0 0 1 5.376-28 8 8 0 1 0 -15.179-5.057c-.3.89-7.267 22.091-6.509 45.29a186.148 186.148 0 0 1 -44.436 21.649c-33.433 11.146-82.949 18.376-109.489 21.694a8 8 0 0 0 .983 15.939 8.112 8.112 0 0 0 1-.063c27.126-3.391 77.822-10.81 112.563-22.39a208.241 208.241 0 0 0 19.85-7.765c.1.021.2.049.305.067a161.658 161.658 0 0 0 26.511 2.359c17.111 0 28.462-3.416 35.433-6.714a8.034 8.034 0 0 0 -6.885-14.517c-5.1 2.376-14.645 5.367-30.135 5.188 37.78-24.05 54.438-52.656 55.346-54.249z" fill="#ab3321"/><path d="m327.5 282.047c1.978 7.974 1.021 16.82-6.421 25.336-22.356 25.578-58.744 10.655-80.736 10.95-28.875.384-73.243 17.667-96.343 57.667-27.333 47.333-15.033 78.867-16 80-.017.02-88-40-63.986-112 12.906-38.7 59.469-53.288 93.1-79.575 0 0-34.928-28.717-16.2-56.292 5.192-7.644 11.168-11.59 17.073-13.293a19.831 19.831 0 0 0 13.778-23.726c-2.131-9.086-1.6-19.126 5.178-28.385 5.183-7.088 11.214-10.844 17.248-12.555a20.479 20.479 0 0 0 14.372-25.261c-2.574-9.192-2.385-19.089 4.413-27.595 8.324-10.428 19.464-12.065 29.372-10.591a20.231 20.231 0 0 0 22.923-16.451c2-11.535 8.077-23.18 23.958-25.689 22.039-3.489 30.529 9.2 33.7 21.328a20.394 20.394 0 0 0 21.674 15.308c13.856-1.341 31.123.453 38.783 15.233 6.067 11.722 1.564 22.942-5.342 31.811a20.44 20.44 0 0 0 3.607 28.748c7.474 5.852 12.841 14.928 9.155 28.79-3.292 12.4-11.9 19.7-21.384 23.978-10.465 4.739-15.4 17.065-10.3 27.334 3.476 7 4.3 15.524-1.115 25.36-4.593 8.338-10.7 12.83-17.038 15.012a20.651 20.651 0 0 0 -13.469 24.558z" fill="#b33522"/><path d="m356.68 161.125a8 8 0 0 0 -10.874-3.125 157.9 157.9 0 0 1 -43.514 16.679c4.516-13.326 15.351-23.678 15.525-23.842a8 8 0 0 0 -10.928-11.687c-.769.717-17.829 16.86-21.741 38a110.483 110.483 0 0 1 -12.576.222 95.247 95.247 0 0 1 -18.888-2.6c5.429-7.889 10.325-15.472 14.653-22.511 4.994-8.123 9.471-15.872 13.442-23.068a55.2 55.2 0 0 0 7.556.507c12.623 0 32.557-4.05 53.273-24.315a8 8 0 0 0 -11.189-11.438c-16.7 16.339-32.09 19.647-41.419 19.791 9.492-18.549 14.423-30.8 14.742-31.6a8 8 0 1 0 -14.859-5.934c-.2.513-9.209 22.711-26.388 52.721-14.3-13.55-15.947-33.589-15.974-33.957a8 8 0 0 0 -15.966 1.04c.08 1.264 2.112 28.987 23.634 46.941-23.223 37.921-57.765 83.867-102.633 114.894a8 8 0 1 0 9.1 13.16 302.9 302.9 0 0 0 40.463-33.9 172.607 172.607 0 0 0 69.366 14.5 168.214 168.214 0 0 0 42.9-5.545 8 8 0 1 0 -4.072-15.472 152.668 152.668 0 0 1 -41.929 5 80.352 80.352 0 0 0 18.724-26.286 8 8 0 0 0 -14.845-5.966c-.082.2-8.385 20.122-27.608 29.391a8.244 8.244 0 0 0 -.814.458 155.031 155.031 0 0 1 -29.821-8.406 436.616 436.616 0 0 0 29.788-36.163 107.978 107.978 0 0 0 33.213 4.9c19.831 0 46.124-4.684 76.534-21.519a8 8 0 0 0 3.125-10.87z" fill="#bb3e2d"/><path d="m480.32 446.24c-9.86 12.7-22.99 12.4-34.06 8.59a20.232 20.232 0 0 0 -25.47 12.14c-3.49 9.39-10.3 18.36-23.45 20.62-10.73 1.85-19.49-2.76-26.3-9.45a20.479 20.479 0 0 0 -29.06.4c-4.41 4.46-10.61 7.93-19.32 9.05-11.38 1.47-20.43-2.91-27.36-9.16a19.831 19.831 0 0 0 -27.43.62c-4.34 4.35-10.68 7.68-19.88 8.54-33.19 3.1-41.49-41.35-41.49-41.35-38.64 15.28-68.5 15.32-91.21 8.38-1.06-.32-2.114-.77-3.144-1.12-.02-.01-.05-.02-.07-.03-10.41-4.37-42.706-20.41-55.206-56.71 17.97 5.66 33.93 8.43 48.09 8.99 59.6 2.42 87.56-34.15 101.54-58.74 10.87-19.12 8.3-57.88 41.49-65.12 11.05-2.41 19.26 1.02 25.29 6.6a20.65 20.65 0 0 0 28.01.05c4.97-4.5 11.85-7.68 21.37-7.68 11.23 0 18.3 4.84 22.75 11.26 6.53 9.43 19.71 11.05 28.91 4.17 8.32-6.24 18.87-10.26 31.32-7.16 13.92 3.46 19.28 12.54 20.8 21.91a20.44 20.44 0 0 0 23.44 17.03c11.1-1.77 23.1-.3 30.44 10.67 9.25 13.84 2.49 29.83-5.37 41.32a20.393 20.393 0 0 0 2.95 26.37c9.09 8.63 16.11 22.19 2.42 39.81z" fill="#bb3e2d"/><path d="m449.667 425.085a7.976 7.976 0 0 0 -8.407-8.074c-20.807 1.054-35.469-3.988-43.991-8.294a.046.046 0 0 1 0-.083c13.979-7.117 29.315-16.863 46.636-30.316a8 8 0 0 0 -9.814-12.636c-27.427 21.3-49.156 32.649-68.559 38.933a.048.048 0 0 1 -.062-.054c6.283-37.487 36.1-66.829 36.425-67.145a8 8 0 0 0 -11.12-11.5c-1.579 1.524-37.62 36.824-42.034 83.062a.048.048 0 0 1 -.038.042c-13.772 2.781-26.8 3.525-40.507 4.306-3.093.176-6.2.355-9.328.555a.048.048 0 0 1 -.052-.045 140.452 140.452 0 0 1 2.632-32.006.049.049 0 0 1 .029-.035c35.668-14.993 54.182-43.961 54.962-45.2a8 8 0 0 0 -13.55-8.508 113.581 113.581 0 0 1 -36.628 33.54.05.05 0 0 1 -.072-.056 321.91 321.91 0 0 1 16.054-44.5 8 8 0 0 0 -14.489-6.79c-1.174 2.5-27.346 58.966-24.888 104.88a.046.046 0 0 1 -.041.049 214.564 214.564 0 0 0 -48.586 10.647.049.049 0 0 1 -.065-.047c.078-5.244.351-10.333.786-15.248a.047.047 0 0 1 .027-.038c28.029-12.706 42.322-37.11 42.947-38.2a8 8 0 0 0 -13.862-7.99 89 89 0 0 1 -26.343 26.523.05.05 0 0 1 -.076-.051c6.535-35.424 19.947-57.923 20.174-58.3a8 8 0 0 0 -13.653-8.343c-1.117 1.826-26.921 44.752-26 107.851a.042.042 0 0 1 -.025.042l-.641.271a8.132 8.132 0 0 0 -4.288 10.8 8.125 8.125 0 0 0 10.6 4.183c.383-.162.74-.312 1.058-.443 33.395-13.8 60.048-16.186 84.235-17.563l2.3-.132a.042.042 0 0 1 .032.011c6.429 5.431 28.744 22.827 56.157 27.7a8 8 0 0 0 9.379-7.283 8.25 8.25 0 0 0 -6.939-8.536c-13.032-2.385-24.954-8.283-33.852-13.784a.046.046 0 0 1 .02-.086 172.859 172.859 0 0 0 43.39-10.617.041.041 0 0 1 .043 0c5.957 4.578 24.558 16.573 55.987 16.573 1.964 0 3.985-.047 6.051-.146a8.233 8.233 0 0 0 7.986-7.919z" fill="#c84431"/><path d="m223.51 238.72c5.58 6.03 9.01 14.24 6.6 25.29-7.24 33.19-46 30.62-65.12 41.49-25.11 14.27-63.77 39.43-60.03 100.25.88 14.23 4.08 30.41 10.33 48.87-1.06-.32-2.114-.77-3.144-1.12-.02-.01-.05-.02-.07-.03-10.41-4.37-42.706-20.41-55.206-56.71-7.65-22.23-7.88-52.01 8.89-91.26 0 0-44.45-8.3-41.35-41.49.86-9.2 4.19-15.54 8.54-19.88a19.831 19.831 0 0 0 .62-27.43c-6.25-6.93-10.63-15.98-9.16-27.36 1.12-8.71 4.59-14.91 9.05-19.32a20.479 20.479 0 0 0 .4-29.06c-6.69-6.81-11.3-15.57-9.45-26.3 2.26-13.15 11.23-19.96 20.62-23.45a20.232 20.232 0 0 0 12.14-25.47c-3.81-11.07-4.11-24.2 8.59-34.06 17.62-13.69 31.18-6.67 39.81 2.42a20.393 20.393 0 0 0 26.37 2.95c11.49-7.86 27.48-14.62 41.32-5.37 10.97 7.34 12.44 19.34 10.67 30.44a20.44 20.44 0 0 0 17.03 23.44c9.37 1.52 18.45 6.88 21.91 20.8 3.1 12.45-.92 23-7.16 31.32-6.88 9.2-5.26 22.38 4.17 28.91 6.42 4.45 11.26 11.52 11.26 22.75 0 9.52-3.18 16.4-7.68 21.37a20.65 20.65 0 0 0 .05 28.01z" fill="#c84431"/><path d="m198.155 197.635a8 8 0 0 0 -11.135 2 242.086 242.086 0 0 1 -34.872 37.991c-1.485-26.967 6.773-51.68 6.965-52.247a8 8 0 0 0 -15.125-5.219c-.51 1.477-11.824 34.909-6.7 69.392-14.425 10.473-31.222 19.486-49.355 23.211 9.393-27.691 14.842-55.963 17.937-81.339 61.32-26.337 76.28-86.49 76.9-89.088a8 8 0 1 0 -15.565-3.7c-.077.32-4.576 18.432-18.675 38.183-6.236-11.156-8.128-29.592-8.269-36.49a8 8 0 0 0 -8-7.843h-.161a8 8 0 0 0 -7.848 8.15c.068 3.638 1.017 32.432 13.669 49.116a114.8 114.8 0 0 1 -30.138 23.031c.667-7.89 1.123-15.37 1.415-22.29 1.841-43.606-1.925-74.589-2.086-75.887a8 8 0 1 0 -15.878 1.973c.066.536 2.9 24.324 2.33 58.912-19.036-4.96-30.145-21.677-30.38-22.035a8 8 0 0 0 -13.484 8.612c.68 1.068 15.838 24.374 43.356 29.713a489.014 489.014 0 0 1 -6.625 61.587c-24.835-7.594-30.219-27.324-30.48-28.347a8 8 0 0 0 -15.551 3.742c.311 1.312 7.655 30.508 42.954 40.382a330.321 330.321 0 0 1 -16.809 55.21 8.009 8.009 0 0 0 4.3 10.452 7.981 7.981 0 0 0 10.457-4.316l.22-.54c27.432-3.094 56.3-17.742 83.746-42.562a251.629 251.629 0 0 0 34.881-38.618 8 8 0 0 0 -1.994-11.136z" fill="#d15341"/></g></svg>