<svg id="Raisins" enable-background="new 0 0 64 64" viewBox="0 0 64 64" xmlns="http://www.w3.org/2000/svg"><g><g><path d="m36.76049 22.03285c.44307 1.8777-.42174 3.9134-.3001 5.73698.12883 1.93132 1.237 3.84408 1.03119 5.65228-.22018 1.93447-1.74921 3.53171-2.32085 5.24921-.61751 1.85534-.39673 4.06164-1.38478 5.56838-1.06817 1.62892-3.17521 2.24618-4.62644 3.34716-1.50134 1.139-2.7107 2.98706-4.56543 3.42471-1.85533.43779-3.76381-.67482-5.61653-1.02287-1.79053-.33636-3.95158.05302-5.63539-.92696-1.5571-.90623-2.34551-2.97845-3.72701-4.36199-1.27834-1.28022-3.35944-2.02467-4.42063-3.65569-.99247-1.5254-.85633-3.73177-1.60452-5.51691-.70659-1.6859-2.39035-3.1206-2.83351-4.99869-.44307-1.8777.42174-3.91341.3001-5.73698-.12883-1.93132-1.237-3.84408-1.03118-5.65228.22018-1.93447 1.74921-3.53171 2.32085-5.24922.61751-1.85533.39674-4.06164 1.38478-5.56838 1.06817-1.62892 3.17521-2.24617 4.62644-3.34715 1.50134-1.139 2.7107-2.98706 4.56543-3.42471 1.85533-.43779 3.76381.67482 5.61653 1.02287 1.79053.33636 3.95158-.05302 5.63539.92697 1.5571.90623 2.3455 2.97845 3.72701 4.36199 1.27834 1.28022 3.35944 2.02467 4.42063 3.65569.99247 1.5254.85633 3.73177 1.60452 5.51691.70658 1.68588 2.39034 3.12059 2.8335 4.99868z" fill="#ad6340"/><path d="m18.26743 42.79464c-.41429 0-.78929-.28393-.88929-.70357-.19464-.82679-.53572-1.13393-1.00714-1.56071-.55089-.49643-1.23661-1.11428-1.5625-2.49821-.32589-1.38036.01071-2.24107.28125-2.93036.23125-.59286.39911-1.01965.20357-1.84643-.19464-.825-.53482-1.13214-1.00625-1.55714-.55089-.49643-1.23661-1.11518-1.5625-2.49643-.32589-1.38036.01161-2.23928.28214-2.92946.23125-.59018.39821-1.01696.20357-1.84196-.19375-.825-.53482-1.13125-1.00536-1.55536-.55089-.49643-1.23661-1.11339-1.5625-2.49464-.11607-.49107.18839-.98393.68036-1.1.48661-.11428.98304.1875 1.1.68036.19464.82411.53482 1.13125 1.00625 1.55536.55.49643 1.23571 1.11339 1.56161 2.49464.32589 1.38036-.01161 2.23928-.28214 2.92946-.23125.59018-.39821 1.01696-.20357 1.84196.19464.82589.53482 1.13304 1.00625 1.55804.55089.49643 1.23571 1.11429 1.5625 2.49554.325 1.38214-.01071 2.24107-.28125 2.93214-.23214.59107-.39911 1.01786-.20357 1.84464.19464.82857.53572 1.13572 1.00714 1.56071.55089.49643 1.23571 1.11429 1.5625 2.49643.11607.49286-.18839.98393-.68036 1.1-.07053.01785-.14107.02499-.21071.02499z" fill="#883f2b"/><path d="m24.64957 26.21429c-.41429 0-.78929-.28393-.88929-.70446-.32589-1.38125.01161-2.24018.28214-2.93125.23125-.59107.39821-1.01786.20357-1.84375-.19464-.82678-.53571-1.13393-1.00714-1.55982-.55089-.49643-1.23571-1.11518-1.5625-2.49732-.32589-1.38214.01072-2.24107.28125-2.93214.23125-.59107.39911-1.01875.20357-1.84554-.11607-.49107.18839-.98393.68036-1.1.48929-.11518.98304.18839 1.1.68036.32589 1.38214-.01071 2.24107-.28125 2.93214-.23125.59107-.39911 1.01875-.20357 1.84554.19464.82679.53572 1.13393 1.00714 1.55982.55089.49643 1.23571 1.11518 1.5625 2.49732.32589 1.38125-.01161 2.24018-.28214 2.93125-.23125.59107-.39821 1.01786-.20357 1.84375.11518.49107-.18929.98393-.68036 1.1-.07053.01606-.14106.0241-.21071.0241z" fill="#883f2b"/><path d="m37.49902 33.41703c-.21942 1.93827-1.75546 3.52911-2.32231 5.24796-.62165 1.86517-.40223 4.05946-1.38972 5.57708-1.06048 1.62745-3.18167 2.24921-4.6262 3.3463-1.49943 1.1337-2.70634 2.98056-4.5714 3.4194-1.84686.43884-3.76683-.67656-5.61369-1.02399-1.71885-.31083-3.74853.0183-5.39427-.80457 5.21135-5.01023 8.64905-13.60449 8.64905-23.33244 0-10.3131-3.83993-19.32789-9.58164-24.21011.09141-.03661.18292-.0731.27433-.09141 1.84686-.43884 3.76683.67656 5.61369 1.02399 1.79195.34743 3.94964-.05491 5.63188.93258 1.55434.89598 2.35891 2.98056 3.73033 4.35198 1.28001 1.2799 3.36449 2.02967 4.42508 3.65712.98738 1.53593.85948 3.73022 1.60914 5.52217.69486 1.68236 2.37711 3.12688 2.83425 4.99204.43884 1.88336-.42054 3.91303-.31083 5.74159.12803 1.93829 1.24342 3.84006 1.04231 5.65031z" opacity=".15"/></g><g><path d="m60.80495 46.96281c-.8377 1.73791-2.79109 2.77532-3.84447 4.26884-1.11562 1.58177-1.45858 3.76559-2.75672 5.04104-1.38879 1.36452-3.5823 1.64312-5.1076 2.61783-1.64771 1.05293-2.86497 2.90625-4.58117 3.45506-1.85535.59332-3.88112-.2534-5.70179-.31142-1.88354-.06003-3.98655.61469-5.70321-.21276-1.71721-.82771-2.49978-2.89358-3.72029-4.33025-1.17954-1.38845-3.10383-2.44622-3.79531-4.26761-.63945-1.68431.05236-3.79076-.1502-5.73541-.18743-1.79944-1.33587-3.68789-1.13375-5.62322.18903-1.81 1.68367-3.4387 2.22601-5.29675.5122-1.75476.10699-3.92944.94486-5.66771.83769-1.73792 2.79109-2.77532 3.84447-4.26884 1.11562-1.58177 1.45859-3.76559 2.75672-5.04104 1.38879-1.36452 3.5823-1.64313 5.1076-2.61783 1.64771-1.05293 2.86497-2.90625 4.58117-3.45506 1.85535-.59332 3.88112.25339 5.70179.31142 1.88354.06003 3.98655-.61469 5.70321.21276 1.71721.82771 2.49978 2.89358 3.72029 4.33025 1.17954 1.38845 3.10383 2.44622 3.79531 4.26761.63945 1.68431-.05236 3.79076.1502 5.73541.18743 1.79944 1.33587 3.68789 1.13375 5.62322-.18903 1.81-1.68367 3.4387-2.22601 5.29675-.51219 1.75476-.10699 3.92944-.94486 5.66771z" fill="#be7d59"/><g fill="#9a5136"><path d="m47.77368 44.83572c-.13393 0-.26964-.02857-.39643-.09107-.45536-.21964-.64643-.76607-.42678-1.21964.59643-1.2375 1.29286-1.72679 1.85179-2.12143.48571-.34107.86964-.61071 1.25893-1.41786.38929-.80893.36071-1.27678.325-1.86786-.04107-.68393-.09107-1.53393.50536-2.76965.59643-1.23571 1.29286-1.72589 1.85179-2.11964.48571-.34107.86786-.61071 1.25714-1.41786.3875-.80625.36071-1.27232.325-1.86339-.04107-.68304-.09286-1.53304.50357-2.76875.21964-.45536.77143-.64821 1.21964-.42589.45536.21875.64643.76518.42679 1.22054-.3875.80625-.36071 1.27321-.325 1.86429.04107.68303.09286 1.53304-.50357 2.76786-.59464 1.23393-1.29107 1.725-1.85179 2.11786-.48393.34107-.86786.61072-1.25714 1.41786-.38929.80893-.36071 1.27679-.325 1.86786.04107.68393.09107 1.53393-.50536 2.76964-.59643 1.2375-1.29286 1.72679-1.85179 2.12143-.48571.34107-.86964.61071-1.25893 1.41786-.15715.32676-.48393.51784-.82322.51784z"/><path d="m35.87189 54.86607c-.13393 0-.26964-.02857-.39643-.09107-.45536-.21964-.64643-.76607-.42679-1.21964.59643-1.2375 1.29286-1.72679 1.85179-2.12143.48571-.34107.86964-.61071 1.25893-1.41786.38929-.80893.36072-1.27678.325-1.86786-.04107-.68393-.09107-1.53393.50536-2.76965.21964-.45714.76964-.64821 1.21964-.42678.45536.21964.64643.76607.42678 1.21964-.38929.80893-.36071 1.27679-.325 1.86786.04107.68393.09107 1.53393-.50536 2.76964-.59643 1.2375-1.29286 1.72678-1.85179 2.12143-.48571.34107-.86964.61071-1.25893 1.41785-.15712.3268-.48391.51787-.8232.51787z"/><path d="m34.90582 40.72321c-.13393 0-.26964-.02857-.39643-.09107-.45536-.21786-.64643-.76429-.42678-1.21964.59464-1.23571 1.29107-1.72679 1.85178-2.11964.48393-.34107.86786-.61071 1.25714-1.41786.38928-.80893.36071-1.27679.325-1.86786-.04107-.68393-.09107-1.53393.50536-2.77054s1.29285-1.72679 1.85357-2.12054c.48393-.34107.86786-.61071 1.25714-1.41875.21964-.45625.77321-.64286 1.21964-.42589.45536.21875.64643.76518.42678 1.22054-.59643 1.23572-1.29286 1.72589-1.85178 2.11964-.48571.34107-.86964.61071-1.25893 1.41964-.38929.80714-.36071 1.275-.325 1.86697.04107.68214.09107 1.53393-.50536 2.76964s-1.29286 1.72678-1.85179 2.11964c-.48393.34107-.86786.61071-1.25714 1.41785-.15712.3268-.48391.51787-.8232.51787z"/></g><path d="m63.97652 35.99525c-.18281 1.81037-1.68224 3.4377-2.23079 5.30287-.51205 1.75546-.10971 3.93145-.93258 5.66849-.84118 1.73716-2.79775 2.77945-3.85823 4.26057-1.11551 1.59084-1.44463 3.76683-2.74284 5.04684-1.38972 1.37142-3.58402 1.64575-5.12006 2.61483-1.64564 1.0606-2.85255 2.90746-4.5714 3.45601-1.70055.53024-3.5108-.10971-5.19305-.27433 6.8754-4.31537 11.66622-14.22614 11.66622-25.74604 0-8.35653-2.50512-15.83539-6.50967-20.97364 1.64564-.21942 3.40109.42053 4.99193.47544 1.88347.0548 3.98624-.60346 5.7051.21942 1.71885.82287 2.48681 2.88915 3.71203 4.33368 1.1885 1.38972 3.10846 2.43202 3.80333 4.26057.64006 1.68225-.0548 3.78513.14632 5.7417.1828 1.79197 1.33481 3.67533 1.13369 5.61359z" opacity=".15"/></g></g></svg>