<svg id="Rambutan" enable-background="new 0 0 64 64" viewBox="0 0 64 64" xmlns="http://www.w3.org/2000/svg"><g><g><ellipse cx="24.452" cy="28.757" fill="#f7524b" rx="20.974" ry="24.503"/><path d="m45.42688 28.76239c0 13.52859-9.38653 24.49723-20.97745 24.49723-1.77774 0-3.48431-.24891-5.1377-.72883 7.11097-4.03551 12.07094-13.17313 12.07094-23.76841 0-10.61318-4.95997-19.7508-12.07094-23.7862 1.65339-.48003 3.35996-.72894 5.1377-.72894 11.59092.00001 20.97745 10.96865 20.97745 24.51515z" opacity=".15"/><g fill="#a82f2f"><path d="m17.17092 30.03044c-.18055 0-.36371-.05469-.52169-.16927-1.10415-.80467-2.58675-.80207-3.68743-.00087-.39756.28906-.95397.20138-1.24129-.19618-.28906-.39669-.20138-.95311.19618-1.24129 1.72566-1.25605 4.04679-1.25779 5.77766-.00087.39669.28906.48523.8446.19705 1.24216-.17448.23959-.44531.36632-.72048.36632z"/><path d="m20.07537 20.54626c-.42013 0-.79339-.2986-.87325-.72655-.24826-1.34025-1.32376-2.3602-2.67529-2.53728-.48697-.06337-.82984-.50954-.76561-.99651.06337-.48697.5078-.83766.99651-.76561 2.11888.2769 3.80288 1.87496 4.19263 3.97475.08941.48263-.22916.94703-.71179 1.03644-.05469.01041-.10938.01476-.1632.01476z"/><path d="m16.64315 42.00156c-.05382 0-.10851-.00521-.16319-.01562-.48263-.08854-.8012-.55207-.71179-1.0347.38975-2.10065 2.07461-3.69784 4.19176-3.97735.49825-.07291.93314.28125.99738.76561.06423.48784-.27864.93401-.76474.99825-1.3524.17708-2.42703 1.19789-2.67616 2.53641-.07987.42879-.45313.7274-.87326.7274z"/><path d="m36.46567 30.03044c-.18229 0-.36457-.05469-.52256-.16927-1.10588-.80467-2.58675-.80207-3.68743-.00087-.39669.28906-.95311.20138-1.24129-.19618-.28906-.39669-.20139-.95311.19618-1.24129 1.72653-1.25605 4.04679-1.25779 5.77766-.00087.39756.28906.48437.8446.19618 1.24216-.17361.23959-.44444.36632-.71874.36632z"/><path d="m28.82867 20.54626c-.05382 0-.10851-.00434-.16319-.01476-.48263-.09027-.8012-.55381-.71179-1.03644.39062-2.10065 2.07548-3.69784 4.19349-3.97475.48089-.07205.93314.27864.99651.76561.06423.48697-.27864.93314-.76561.99651-1.35154.17708-2.42704 1.19703-2.67616 2.53728-.07986.42794-.45312.72655-.87325.72655z"/><path d="m32.26176 42.00156c-.42013 0-.79339-.29861-.87325-.72742-.24913-1.33852-1.32463-2.35933-2.67703-2.53641-.4861-.06424-.82898-.51041-.76474-.99825.06424-.48436.49825-.83679.99738-.76561 2.11715.27951 3.80288 1.8767 4.19262 3.97735.08941.48263-.22916.94616-.71179 1.0347-.05468.01043-.10937.01564-.16319.01564z"/><path d="m5.0722 24.47847c-.24999 0-.49912-.10503-.67447-.31076-.78471-.91318-2.05638-1.21525-3.1666-.75433-.45225.19097-.97481-.02431-1.1623-.47829-.18923-.45312.02517-.97394.47829-1.1623 1.82548-.76301 3.91485-.26302 5.19955 1.23869.32031.37239.2769.93314-.09635 1.25258-.16754.1441-.37326.21441-.57812.21441z"/><path d="m.88913 35.85064c-.20486 0-.41058-.06944-.57811-.21354-.37326-.31944-.41666-.88193-.09635-1.25345 1.28643-1.50084 3.37667-2.00169 5.19868-1.24043.45312.18836.66839.70919.47916 1.1623-.1875.45311-.71006.66318-1.16144.47916-1.11022-.4618-2.3819-.15799-3.16747.75519-.17535.20487-.42448.31077-.67447.31077z"/><path d="m20.55887 6.89115c-.46266 0-.85328-.3585-.88627-.82724-.09462-1.35935-1.04772-2.49474-2.37061-2.82546-.47655-.11892-.76648-.60068-.64669-1.07724.11805-.47568.59808-.76908 1.07724-.64669 2.07288.51735 3.56503 2.29596 3.71433 4.42613.03385.48957-.33506.91404-.8255.94877-.02083.00086-.04166.00173-.0625.00173z"/><path d="m10.12592 13.56028c-.37239 0-.71874-.23524-.84287-.60763-.39149-1.17185-1.47914-1.95482-2.71262-1.95482-.01042.00174-.0217.00087-.02865 0-.48784 0-.8854-.39322-.88887-.88193-.00346-.4913.39149-.89234.88194-.89581 2.09718-.01302 3.7968 1.25866 4.43394 3.17008.15538.46527-.09635.96873-.56162 1.12411-.09288.03125-.18837.046-.28125.046z"/><path d="m6.54179 48.29483c-.09288 0-.1875-.01389-.28038-.04514-.46614-.15451-.71787-.65797-.56336-1.12498.63714-1.91315 2.41662-3.11452 4.43481-3.17181.49044.00347.8854.4045.88193.89581-.00347.48784-.40103.88193-.88887.88193-.00868-.00174-.01997 0-.02865 0-1.23348 0-2.322.78297-2.71175 1.95656-.12413.37153-.47134.60763-.84373.60763z"/><path d="m17.51814 56.02558c-.02083 0-.04167 0-.06337-.00174-.48957-.03472-.85849-.46006-.82377-.94963.1493-2.13017 1.64233-3.90791 3.71347-4.42526.47308-.11805.95918.17014 1.0781.64756.11805.47742-.17187.95831-.64756 1.0781-1.32289.32986-2.27513 1.46525-2.37148 2.8246-.03211.46874-.42273.82637-.88539.82637z"/><path d="m28.34604 6.89115c-.02083 0-.04167-.00087-.0625-.00174-.49044-.03472-.85936-.45919-.8255-.94877.1493-2.13017 1.64146-3.90878 3.71347-4.42613.47569-.12066.95831.16927 1.07724.64669.11979.47569-.17014.95831-.64669 1.07724-1.32289.33072-2.27513 1.46612-2.36974 2.82546-.03299.46875-.42361.82725-.88628.82725z"/><path d="m38.77986 13.56028c-.09201 0-.1875-.01476-.28124-.04514-.46527-.15538-.717-.65797-.56249-1.12411.6354-1.91142 2.39926-3.19091 4.43394-3.17094.49131.00347.8854.40451.88193.89582-.00347.48871-.40103.88193-.88887.88193-.01215-.00087-.0191 0-.02778 0-1.23435 0-2.32287.78297-2.71175 1.95395-.125.37239-.47048.60849-.84374.60849z"/><path d="m43.83184 24.47847c-.20486 0-.41145-.07031-.57811-.21441-.37326-.31944-.41666-.88019-.09722-1.25258 1.28643-1.50084 3.37667-1.99822 5.20128-1.23869.45312.18836.66665.70919.47916 1.1623-.18923.45312-.70832.66578-1.16317.47829-1.10415-.46006-2.38363-.16059-3.1666.75433-.17708.20573-.42534.31076-.67534.31076z"/><path d="m48.01579 35.85064c-.25 0-.49825-.1059-.67533-.31076-.78123-.91144-2.05551-1.21699-3.1666-.75519-.45485.18402-.97394-.02604-1.16317-.47916-.1875-.45485.02604-.97394.47916-1.16317 1.82983-.75953 3.91659-.25954 5.20129 1.24129.31944.37152.27604.93401-.09722 1.25345-.16668.14236-.37327.21354-.57813.21354z"/><path d="m42.36312 48.29483c-.37152 0-.71873-.23611-.84373-.60763-.39235-1.18053-1.43921-1.91663-2.73258-1.95656-.00174 0-.00521 0-.00695 0-.48783 0-.8854-.39409-.88887-.88193-.00347-.49131.39062-.89234.88193-.89581h.03646c1.99823 0 3.76381 1.27081 4.39748 3.17181.15451.46527-.09722.96873-.56249 1.12498-.09375.03125-.1875.04514-.28125.04514z"/></g></g><g><path d="m42.78893 57.23569c-8.44608 0-15.318-8.23692-15.318-18.36176s6.87191-18.36266 15.318-18.36266c8.44699 0 15.3189 8.23782 15.3189 18.36266s-6.87191 18.36176-15.3189 18.36176z" fill="#ffedad"/><path d="m58.1022 38.87774c0 .46212-.0178.92435-.03559 1.38659-.58679 9.35094-7.05758 16.78189-14.96845 16.97742 3.07546-4.55102 4.94196-10.48862 4.94196-16.99521 0-7.822-2.7022-14.8441-6.98662-19.60844.569-.08897 1.15579-.12445 1.74215-.12445 8.44427-.00001 15.30655 8.23094 15.30655 18.36409z" opacity=".15"/><path d="m57.8813 40.24767c1.62892 0 2.88174 1.4743 2.5886 3.07663-1.74441 9.53503-8.99628 16.68046-17.67725 16.68046-8.68086 0-15.94023-7.14525-17.6862-16.6801-.29342-1.60242.95948-3.07698 2.58855-3.07698h30.1863z" fill="#f56f6b"/><path d="m60.46651 43.3221c-1.74215 9.52867-8.99526 16.67512-17.67087 16.67512-.60415 0-1.19095-.03548-1.77774-.10666.76452-.81769 1.44007-1.70657 2.08025-2.64882 3.07546-4.55102 4.94196-10.48862 4.94196-16.99521h9.84855c.05339 0 .12457 0 .17795.0178 1.52883.08886 2.6844 1.51103 2.3999 3.05777z" opacity=".15"/><g fill="#c23b38"><path d="m27.34259 55.84503c-.09288 0-.1875-.01389-.28124-.04514-.46527-.15625-.717-.65971-.56162-1.12498.56509-1.69962 2.1536-2.81939 3.9409-2.81765.49044.00347.8854.40451.88193.89582-.00434.48957-.37673.85068-.89581.88193-.96092.03993-1.91923.6354-2.24127 1.6024-.12415.37151-.4705.60762-.84289.60762z"/><path d="m36.81115 62.5133c-.02084 0-.04167 0-.0625-.00174-.49131-.03472-.85936-.45832-.82637-.9479.13194-1.89059 1.45483-3.46868 3.29507-3.92874.47916-.11979.96005.17014 1.0781.64756.11805.47569-.17187.95831-.64756 1.0781-1.09026.27083-1.87323 1.20657-1.95135 2.32461-.03297.46874-.42359.82811-.88539.82811z"/><path d="m63.11097 45.11261c-.24999 0-.49825-.10416-.6736-.30902-.64235-.74999-1.68573-.99304-2.59196-.61805-.45485.18402-.97394-.02604-1.16317-.47916-.1875-.45312.02604-.97394.47916-1.16317 1.62671-.67707 3.4791-.22916 4.62317 1.10067.32117.37326.27777.93401-.09375 1.25345-.16839.1441-.37499.21528-.57985.21528z"/><path d="m58.23607 55.84503c-.37152 0-.71873-.2361-.84373-.60762-.32117-.96526-1.23956-1.64059-2.24127-1.6024-.00174 0-.00521 0-.00695 0-.48784 0-.8854-.39409-.88887-.88193-.00347-.49131.39062-.89235.88193-.89582h.03125c1.77948 0 3.34715 1.12845 3.91138 2.81765.15451.46527-.09722.96873-.56249 1.12498-.09375.03125-.1875.04514-.28125.04514z"/><path d="m48.76751 62.5133c-.4618 0-.85241-.35937-.8854-.82811-.07812-1.11803-.86109-2.05378-1.95135-2.32461-.47569-.11979-.76561-.60242-.64756-1.0781.11805-.47742.59373-.76735 1.0781-.64756 1.84024.46006 3.16313 2.03815 3.29507 3.92874.03299.48957-.33506.91317-.82637.9479-.02082.00174-.04165.00174-.06249.00174z"/><path d="m36.05596 50.41805c-.05382 0-.10937-.00521-.16319-.01562-.48263-.08854-.80207-.55207-.71179-1.0347.34548-1.86455 1.84024-3.28292 3.72041-3.52771.47916-.0625.93227.27951.99651.76735.0625.4861-.27951.93227-.76735.99651-1.11282.1441-1.99822.98436-2.20308 2.08677-.07812.4288-.45138.7274-.87151.7274z"/><path d="m49.52271 50.41805c-.42013 0-.79339-.2986-.87151-.72741-.20486-1.10241-1.09026-1.94267-2.20308-2.08677-.48784-.06424-.82985-.51041-.76735-.99651.06424-.4861.51561-.82811.99651-.76735 1.88017.24479 3.37493 1.66316 3.72041 3.52771.09027.48263-.22916.94616-.71179 1.0347-.05382.01043-.10938.01563-.16319.01563z"/><path d="m22.46856 45.11261c-.20486 0-.41058-.07118-.57898-.21354-.37239-.31944-.41492-.88193-.09548-1.25345 1.14321-1.33504 2.99821-1.776 4.62317-1.10241.45312.18923.66839.70832.48002 1.16143-.18923.45485-.70658.67186-1.1623.48089-.91057-.3802-1.95135-.1302-2.59196.61631-.17535.20486-.42448.31077-.67447.31077z"/></g></g></g></svg>