<svg id="Capa_1" enable-background="new 0 0 512 512" height="512" viewBox="0 0 512 512" width="512" xmlns="http://www.w3.org/2000/svg"><g><path d="m422.462 454.839 23.218 23.218c2.932 2.932 6.909 4.579 11.055 4.579h40.614c6.507 0 9.759-7.873 5.149-12.465l-14.694-14.637c-2.855-2.844-2.864-7.464-.02-10.318l22.088-22.173c2.84-2.851 2.836-7.463-.01-10.308l-22.068-22.068c-2.849-2.849-2.849-7.469 0-10.318l22.058-22.058c2.849-2.849 2.849-7.469 0-10.318l-22.058-22.058c-2.849-2.849-2.849-7.469 0-10.318l22.058-22.058c2.849-2.849 2.849-7.469 0-10.318l-22.058-22.058c-2.849-2.849-2.849-7.469 0-10.318l22.059-22.059c2.849-2.849 2.849-7.468.001-10.317l-22.062-22.072c-2.849-2.85-2.848-7.47.002-10.318l22.055-22.044c2.85-2.849 2.851-7.47.001-10.32l-22.057-22.057c-2.849-2.849-2.849-7.469 0-10.318l22.058-22.058c2.849-2.849 2.849-7.469 0-10.318l-22.056-22.064c-2.849-2.849-2.849-7.469 0-10.318l14.762-14.762c4.596-4.596 1.341-12.455-5.159-12.455h-40.662c-4.147 0-8.123 1.647-11.055 4.579l-23.218 23.218c-2.932 2.932-6.909 4.579-11.055 4.579h-310.815c-4.147 0-8.123-1.647-11.055-4.579l-23.218-23.218c-2.932-2.932-6.909-4.579-11.055-4.579h-27.008l-10.423 10.422 21.953 21.953-32.376 32.377 32.377 32.377-32.377 32.376 32.377 32.362-32.377 32.391 32.376 32.377-32.376 32.377 32.377 32.377-32.377 32.376 32.377 32.377-32.377 32.376 32.377 32.501-21.953 21.829 10.423 10.423h27.008c4.147 0 8.123-1.647 11.055-4.579l23.218-23.218c2.932-2.932 6.909-4.579 11.055-4.579h310.813c4.146-.001 8.123 1.646 11.055 4.579z" fill="#e94444"/><path d="m142.682 164.433-25.08-13.657c-4.03 0-7.296-3.267-7.296-7.296v-17.784c0-4.03 3.267-7.296 7.296-7.296h25.08l10.423 16.188z" fill="#e7f5f5"/><path d="m394.398 150.776-122.21 20.69-10.423-36.879 10.423-16.188h122.21c4.03 0 7.296 3.267 7.296 7.296v17.784c0 4.031-3.266 7.297-7.296 7.297z" fill="#e7f5f5"/><path d="m33.406 412.733 22.068-22.068c2.849-2.849 2.849-7.469 0-10.318l-22.058-22.058c-2.849-2.849-2.849-7.469 0-10.318l22.058-22.058c2.849-2.849 2.849-7.469 0-10.318l-22.058-22.058c-2.849-2.849-2.849-7.469 0-10.318l22.058-22.058c2.849-2.849 2.849-7.469 0-10.318l-22.059-22.059c-2.849-2.849-2.849-7.468-.001-10.317l22.062-22.072c2.849-2.85 2.848-7.47-.002-10.318l-22.055-22.047c-2.85-2.849-2.851-7.47-.001-10.32l22.057-22.057c2.849-2.849 2.849-7.469 0-10.318l-22.059-22.058c-2.849-2.849-2.849-7.469 0-10.318l22.058-22.059c2.849-2.849 2.849-7.469 0-10.318l-27.217-27.218h-13.655c-6.5 0-9.756 7.859-5.159 12.455l14.762 14.762c2.849 2.849 2.849 7.469 0 10.318l-22.058 22.059c-2.849 2.849-2.849 7.469 0 10.318l22.058 22.058c2.849 2.849 2.849 7.469 0 10.318l-22.057 22.058c-2.85 2.85-2.849 7.47.001 10.32l22.055 22.044c2.85 2.849 2.851 7.468.002 10.318l-22.061 22.072c-2.848 2.85-2.848 7.468.001 10.317l22.059 22.059c2.849 2.849 2.849 7.469 0 10.318l-22.058 22.059c-2.849 2.849-2.849 7.469 0 10.318l22.058 22.058c2.849 2.849 2.849 7.469 0 10.318l-22.058 22.059c-2.849 2.849-2.849 7.469 0 10.318l22.058 22.058c2.849 2.849 2.849 7.469 0 10.318l-22.068 22.069c-2.845 2.845-2.85 7.457-.01 10.308l22.088 22.173c2.844 2.855 2.835 7.475-.02 10.318l-14.694 14.638c-4.61 4.592-1.358 12.465 5.149 12.465h13.607l27.207-27.103c2.855-2.844 2.864-7.464.02-10.318l-22.088-22.173c-2.84-2.85-2.835-7.462.01-10.308z" fill="#d83131"/><path d="m179.858 155.576-26.753 5.624v-42.8c0-8.941 11.265-15.459 13.583-14.179 4.991 2.758 8.371 8.074 8.371 14.179z" fill="#ffd15b"/><path d="m166.688 104.221c-2.317-1.28-4.982-2.01-7.817-2.01-8.941 0-16.188 7.248-16.188 16.188v32.377l7.817 10.423 7.817-10.423v-32.376c0-6.106 3.38-11.421 8.371-14.179z" fill="#faab1b"/><path d="m215.253 150.776-29.771 10.423v-42.8c0-8.941 11.265-15.459 13.583-14.179 4.991 2.758 8.371 8.074 8.371 14.179z" fill="#ffd15b"/><path d="m199.064 104.221c-2.317-1.28-4.982-2.01-7.817-2.01-8.941 0-16.188 7.248-16.188 16.188v32.377l7.817 10.423 7.817-10.423v-32.376c0-6.106 3.38-11.421 8.371-14.179z" fill="#faab1b"/><path d="m249.072 150.776-31.214 10.423v-42.8c0-8.941 11.265-15.459 13.583-14.179 4.991 2.758 8.371 8.074 8.371 14.179z" fill="#ffd15b"/><path d="m231.441 104.221c-2.317-1.28-4.982-2.01-7.817-2.01-8.941 0-16.188 7.248-16.188 16.188v32.377l7.817 10.423 7.817-10.423v-32.376c0-6.106 3.38-11.421 8.371-14.179z" fill="#faab1b"/><path d="m272.188 150.776-21.953 10.423v-42.8c0-8.941 11.265-15.459 13.583-14.179 4.991 2.758 8.371 8.074 8.371 14.179v32.377z" fill="#ffd15b"/><path d="m263.817 104.221c-2.317-1.28-4.982-2.01-7.817-2.01-8.941 0-16.188 7.248-16.188 16.188v32.377l7.817 10.423 7.817-10.423v-32.376c0-6.106 3.38-11.421 8.371-14.179z" fill="#faab1b"/><path d="m182.876 280.252-29.771 10.424v-117.946l21.954 10.423z" fill="#ffd15b"/><path d="m142.682 183.153v97.1l7.817 10.423 7.818-10.423v-97.1l-7.818-10.423z" fill="#faab1b"/><path d="m219.438 280.252-33.956 10.424v-117.946l21.953 10.423z" fill="#ffd15b"/><path d="m175.059 183.153v97.1l7.817 10.423 7.817-10.423v-97.1l-7.817-10.423z" fill="#faab1b"/><path d="m250.556 280.252-32.698 10.424v-117.946l21.954 10.423z" fill="#ffd15b"/><path d="m207.435 183.153v97.1l7.818 10.423 7.817-10.423v-97.1l-7.817-10.423z" fill="#faab1b"/><path d="m272.188 280.252-21.953 10.424v-117.946l21.953 10.423z" fill="#ffd15b"/><path d="m239.812 183.153v97.1l7.817 10.423 7.817-10.423v-97.1l-7.817-10.423z" fill="#faab1b"/><path d="m394.398 183.153h-276.796c-4.03 0-7.296-3.267-7.296-7.296v-17.784c0-4.03 3.267-7.296 7.296-7.296h276.796c4.03 0 7.296 3.267 7.296 7.296v17.784c0 4.029-3.266 7.296-7.296 7.296z" fill="#cedada"/><path d="m369.32 287.551v17.292l-10.423 7.463c0 2.752 10.308 5.472 10.079 8.172-4.148 50.01-46.06 89.316-97.143 89.316h-32.77l-20.846-.146c-51.094 0-92.995-39.17-97.143-89.17-.229-2.689-.344-5.42-.344-8.172v-21.628l20.846-10.423h220.449c4.022 0 7.295 3.262 7.295 7.296z" fill="#e7f5f5"/><path d="m141.575 312.301v-32.049h-23.973c-4.03 0-7.296 3.267-7.296 7.296v17.293l10.423 7.459c0 2.753-10.309 5.48-10.085 8.176 4.153 50.015 46.062 89.312 97.149 89.312h31.269c-53.84 0-97.487-43.646-97.487-97.487z" fill="#cedada"/><g><g><path d="m369.32 304.843v7.463c0 2.752-.115 5.472-.344 8.172h-227.063s-21.184-5.42-21.184-8.172l20.846-7.463z" fill="#6e8a89"/></g></g><path d="m141.575 304.842h-31.269v7.459c0 2.753.114 5.48.338 8.176h31.269c-.224-2.696-.338-5.422-.338-8.176z" fill="#516667"/></g></svg>