<svg id="Flat" viewBox="0 0 64 64" xmlns="http://www.w3.org/2000/svg"><rect fill="#e26677" height="8" rx="2" width="32" x="13" y="4"/><path d="m16 12h26v5h-26z" fill="#d3dce5"/><path d="m44 50 1 2.5v3.5c0 1.1-.9 2-2 2h-28c-1.1 0-2-.9-2-2v-3.5l1-2.5v-25l-1-2.5v-3.5c0-1.1.9-2 2-2h28c1.1 0 2 .9 2 2v3.5l-1 2.5z" fill="#e26677"/><path d="m14 25h30v25h-30z" fill="#edae65"/><circle cx="29" cy="38" fill="#e26677" r="5"/><path d="m45 52.5v3.5c0 1.1-.9 2-2 2h-23.01c-.54-.74-.69-1.7-.35-2.58.41-1.09 1.43-1.79 2.6-1.79 10.72 0 17.96-6.25 21.53-18.58.07-.23.14-.46.23-.68v15.63z" fill="#d85364"/><path d="m44 34.37v15.63h-9.63c4.26-3.06 7.4-8.05 9.4-14.95.07-.23.14-.46.23-.68z" fill="#d88852"/><path d="m53.09 32.38s-5.92-1.88-7.4 3.23-6.34 20.02-23.46 20.02c-.7 0-1.05.84-.52 1.3 1.92 1.69 6.48 4.05 16.45 2.64 14.79-2.1 19.57-16.76 19.97-18.98s.74-6.72-5.04-8.2z" fill="#e26677"/><path d="m59.22 29.34c-1.79.57-2.87 1.95-3.47 3.09-.25.47-.09 1.04.35 1.35 3.09 2.12 2.8 5.61 2.45 7.52-.09.5-.39 1.59-.96 3.02-.51-.35-1.67-1.27-2.32-2.89-.44-1.08-.49-2.03-.47-2.63-.24.43-.65 1.02-1.26 1.57-.89.82-1.83 1.18-2.39 1.36-.37-.39-1.12-1.27-1.41-2.6-.14-.69-.12-1.31-.06-1.74-2.88 2.85-5.28 1.19-5.28 1.19.3-.91.56-1.79.8-2.63 1.1-3.77 4.43-3.99 6.42-3.76.45.05.87-.2 1.06-.62.77-1.69 2.31-4.04 5.18-5.1.92-.35 1.71.04 2.06 1.28.21.72.01 1.37-.7 1.59z" fill="#78b24c"/></svg>