<svg id="Capa_1" enable-background="new 0 0 497 497" height="512" viewBox="0 0 497 497" width="512" xmlns="http://www.w3.org/2000/svg"><g><path d="m274.333 342c-5.21 0-10.231.792-14.973 2.227l-.027 86.106-86.106.028c-1.435 4.741-2.227 9.762-2.227 14.973 0 28.534 23.132 51.666 51.667 51.666 57.069 0 103.333-46.264 103.333-103.333 0-28.535-23.132-51.667-51.667-51.667z" fill="#a93455"/><path d="m222.667 467c40.5 0 73.333-32.833 73.333-73.333 0-23.307-15.435-43.002-36.639-49.439-11.557 3.497-21.41 10.914-27.983 20.729l6.289 43.711-43.711-6.289c-9.814 6.573-17.231 16.427-20.729 27.983 6.437 21.202 26.133 36.638 49.44 36.638z" fill="#cc3245"/><path d="m222.667 423.667c16.569 0 30-13.431 30-30 0-13.538-8.97-24.978-21.289-28.711-5.5 8.212-8.711 18.085-8.711 28.711-10.626 0-20.499 3.211-28.711 8.711 3.733 12.319 15.172 21.289 28.711 21.289z" fill="#ffe8b5"/><path d="m342.39 272.878c-2.605 4.512-4.43 9.257-5.558 14.08l74.556 43.076-43.029 74.584c3.389 3.613 7.341 6.81 11.853 9.415 24.712 14.267 56.311 5.801 70.578-18.911 28.535-49.424 11.601-112.621-37.823-141.156-24.711-14.267-56.31-5.8-70.577 18.912z" fill="#a93455"/><path d="m424.81 380.122c20.25-35.075 8.233-79.924-26.842-100.175-20.184-11.654-44.959-8.134-61.135 7.011-2.75 11.757-1.253 23.999 3.96 34.598l40.999 16.409-27.302 34.71c.785 11.786 5.61 23.136 13.87 31.943 21.581 5.028 44.796-4.311 56.45-24.496z" fill="#cc3245"/><path d="m387.282 358.456c8.284-14.349 3.368-32.696-10.981-40.981-11.725-6.769-26.116-4.721-35.509 4.082 4.362 8.869 11.307 16.586 20.509 21.899-5.313 9.202-7.468 19.359-6.812 29.22 12.536 2.926 26.024-2.496 32.793-14.22z" fill="#ffe8b5"/><path d="m316.557 179.378c2.605 4.512 5.802 8.464 9.415 11.853l74.583-43.03 43.077 74.557c4.824-1.128 9.568-2.953 14.08-5.558 24.712-14.267 33.179-45.866 18.911-70.578-28.535-49.424-91.732-66.357-141.156-37.822-24.711 14.267-33.178 45.866-18.91 70.578z" fill="#a93455"/><path d="m450.643 161.622c-20.25-35.075-65.1-47.092-100.175-26.842-20.184 11.653-29.524 34.869-24.496 56.45 8.807 8.26 20.157 13.085 31.943 13.87l34.71-27.302 16.409 41c10.599 5.213 22.841 6.71 34.598 3.96 15.145-16.177 18.664-40.951 7.011-61.136z" fill="#cc3245"/><path d="m413.115 183.289c-8.284-14.349-26.632-19.265-40.981-10.981-11.725 6.769-17.147 20.257-14.22 32.793 9.861.657 20.018-1.499 29.22-6.812 5.313 9.202 13.031 16.147 21.9 20.509 8.802-9.393 10.851-23.784 4.081-35.509z" fill="#ffe8b5"/><path d="m222.667 155c5.21 0 10.231-.792 14.973-2.227l.027-86.106 86.106-.028c1.435-4.741 2.227-9.762 2.227-14.973 0-28.534-23.132-51.666-51.667-51.666-57.069 0-103.333 46.264-103.333 103.333 0 28.535 23.132 51.667 51.667 51.667z" fill="#a93455"/><path d="m274.333 30c-40.5 0-73.333 32.833-73.333 73.333 0 23.307 15.435 43.002 36.639 49.439 11.557-3.497 21.41-10.914 27.983-20.729l-6.289-43.711 43.711 6.289c9.814-6.573 17.231-16.427 20.729-27.983-6.437-21.202-26.133-36.638-49.44-36.638z" fill="#cc3245"/><path d="m274.333 73.333c-16.569 0-30 13.431-30 30 0 13.538 8.97 24.978 21.289 28.711 5.5-8.212 8.711-18.085 8.711-28.711 10.626 0 20.499-3.211 28.711-8.711-3.733-12.319-15.172-21.289-28.711-21.289z" fill="#ffe8b5"/><path d="m154.61 224.122c2.605-4.512 4.43-9.257 5.558-14.08l-74.556-43.076 43.029-74.584c-3.389-3.613-7.341-6.81-11.853-9.415-24.712-14.267-56.311-5.801-70.578 18.911-28.535 49.424-11.601 112.621 37.823 141.156 24.711 14.267 56.31 5.8 70.577-18.912z" fill="#a93455"/><path d="m72.19 116.878c-20.25 35.075-8.233 79.924 26.842 100.175 20.184 11.654 44.959 8.134 61.135-7.011 2.75-11.757 1.253-23.999-3.96-34.598l-40.999-16.409 27.302-34.71c-.785-11.786-5.61-23.136-13.87-31.943-21.581-5.028-44.796 4.311-56.45 24.496z" fill="#cc3245"/><path d="m109.718 138.544c-8.284 14.349-3.368 32.696 10.981 40.981 11.725 6.769 26.116 4.721 35.509-4.082-4.362-8.869-11.307-16.586-20.509-21.899 5.313-9.202 7.468-19.359 6.812-29.22-12.536-2.926-26.024 2.496-32.793 14.22z" fill="#ffe8b5"/><path d="m180.443 317.622c-2.605-4.512-5.802-8.464-9.415-11.853l-74.584 43.03-43.077-74.557c-4.824 1.128-9.568 2.953-14.08 5.558-24.712 14.267-33.179 45.866-18.911 70.578 28.535 49.424 91.732 66.357 141.156 37.822 24.712-14.267 33.179-45.866 18.911-70.578z" fill="#a93455"/><path d="m46.357 335.378c20.25 35.075 65.1 47.092 100.175 26.842 20.184-11.653 29.524-34.869 24.496-56.45-8.807-8.26-20.157-13.085-31.943-13.87l-34.71 27.302-16.409-41c-10.599-5.213-22.841-6.71-34.598-3.96-15.145 16.177-18.664 40.951-7.011 61.136z" fill="#cc3245"/><path d="m83.885 313.711c8.284 14.349 26.632 19.265 40.981 10.981 11.725-6.769 17.147-20.257 14.22-32.793-9.861-.657-20.018 1.499-29.22 6.812-5.313-9.202-13.031-16.147-21.899-20.509-8.803 9.393-10.852 23.784-4.082 35.509z" fill="#ffe8b5"/></g></svg>