<svg id="Flat" enable-background="new 0 0 496 355.997" height="512" viewBox="0 0 496 355.997" width="512" xmlns="http://www.w3.org/2000/svg"><g><path d="m96.05 68.75c-8.65.3-13.96 1.33-17.03 2.2-2.16.62-4.42-.29-5.63-2.19-11.63-18.21-45.39-36.94-45.39-60.76l-15.99.41c.03 3.25.46 6.43 1.22 9.55h.01c-2.008 4.062-1.208 6.674 2.58 7.74v.01c10.68 25.38 40.62 46.16 48.76 61.01 3.94 6.96 8.89 13.98 17.81 19.88-.059 2.247 1.216 2.336 2.89 1.78 33.979 3.716 47.917-34.937 10.77-39.6z" fill="#53b79a"/><path d="m67.41 102.76c-8.03-1.65-13.2-1.93-16.29-1.82-2.25.07-4.22-1.35-4.94-3.48-6.89-20.47-30.75-43.79-30.37-71.72l-15.8-1.33c.22 33.45 28.03 68.39 33.29 88.34 2.37 8.51 5.91 17.37 14.86 26.03 39.171 10.25 63.929-13.484 19.25-36.02z" fill="#6fceae"/><path d="m404.72 49.3c-4.97-2.29-14.2-3.37-31-.95 0 0-29.83 5.37-60.22 12.98-12.24 3.07-24.63 5.49-37.11 7.33-41.86 6.14-93.96 10.54-119.73 5.64-29.12-4.96-48.26-5.98-60.61-5.55v.03c8.61 3.57 6.42 9.65 1.58 11.58-1.84.72-2.47 2.32-1.01 3.65 10.17 9.25 4.22 12.46-1.6 12.83-2.38.15-4.27 1.56-4.64 4.62-.63 5.34-4.83 6.84-5.1 6.92 8.777 13.517 21.197 16.528 36.54 11.11 3.71.51 7.67.94 11.9 1.28 0 0 98.04 7.06 179.65-19.36 8.73-2.82 82.48-35.25 90.74-39.26 5.77-2.16 6.21-10.28.61-12.85z" fill="#b72e4f"/><path d="m372.43 158.47c-14.2-4.56-68.73-9.73-113-11.62-17.62-.74-35.18-2.54-52.58-5.42-33.54-5.56-67.67-13.94-85.03-21.94-16.59-2.29-28.15-6.24-36.54-11.11-1.01-.58-1.97-1.17-2.89-1.78-5.84-1.75-10.8-2.98-14.98-3.84 7.47 5.54 4.66 11.1-.5 11.79-1.96.27-2.96 1.66-1.86 3.3 7.64 11.44 1.09 13.12-4.65 12.07-2.34-.43-4.52.48-5.61 3.36-1.97 5.2-6.63 5.5-6.63 5.5 8.53 8.25 21.99 16.32 44.03 23.7 0 0 51.95 18.07 113.97 24.21 56.528 60.1 111.936 65.381 165.66-11.66l-.01-.03c5.84-2.2 12.03-12.87.62-16.53z" fill="#c43b58"/><path d="m210.41 315.08c-18.26 13.95-25.61-7.1-25.61-7.1-10.39 7.1-20.03-.5-20.03-.5-18.25 9.38-19.77-9.13-19.77-9.13-20.79 5.07-24.68-7.48-24.68-7.48-3.34-7.93-.2-14.02 5.67-17.12-5.06-14.95 9.88-19.51 9.88-19.51 3.61-15.16 17.5-14.2 17.5-14.2 1.01-15.21 14.45-13.18 14.45-13.18-4.57-13.69 10.64-16.48 10.64-16.48 2.54-16.23 18.84-11.8 18.84-11.8.85-8.64 4.81-11.42 8.86-11.89 4.84-.57 9.83 2.17 9.83 2.17 4.31-3.32 8.42-4.48 12.1-4.41 4.55-20.21 21.87-9.31 21.87-9.31 10.9-11.92 27.38-3.55 27.38-3.55 14.45-20.79 32.2-.76 32.2-.76 18-14.71 27.46 4.8 27.46 4.8 13.35-10.51 21.22-.33 24.34 3.1 4.01-2 7.48-3.17 10.48-3.7 18.76-3.29 19.26 18.53 19.26 18.53 15.89-4.39 20.46 11.66 20.46 11.66 11.15.34 11.83 10.82 11.83 10.82 13.52-4.23 16.05 10.14 16.05 10.14 21.47 1.18 18.43 18.76 18.43 18.76 17.74 7.44 7.05 29.21-10.31 22.99-3.72 9.29-17.58 5.74-17.58 5.74-6.93 17.41-27.89 10.82-27.89 10.82-3.04 14.37-21.97 9.97-21.97 9.97-7.44 13.19-27.38 5.07-27.38 5.07-5.58 15.05-21.47 11.16-21.47 11.16-9.63 12.17-25.77 6.17-25.77 6.17-8.62 11.15-24.85 3.8-24.85 3.8-7.86 9.13-21.55 2.28-21.55 2.28-15.46 10.4-27.63-.76-27.63-.76-18 9.63-21.04-7.1-21.04-7.1z" fill="#e15c63"/><path d="m495.98 258.49c.31 2.19-2.99 4.46-7.36 5.08s-8.17-.65-8.48-2.84c-.31-2.18 2.98-4.46 7.36-5.08 4.37-.62 8.17.65 8.48 2.84z" fill="#e15c63"/><path d="m488.04 226.66c.31 2.18-2.99 4.46-7.36 5.08-4.38.62-8.17-.65-8.48-2.84s2.98-4.46 7.36-5.08c4.37-.62 8.17.65 8.48 2.84z" fill="#d14b62"/><path d="m481.79 302.01c.31 2.19-2.99 4.47-7.36 5.09-4.38.62-8.18-.66-8.49-2.84-.31-2.19 2.99-4.47 7.36-5.09 4.38-.61 8.18.66 8.49 2.84z" fill="#d14b62"/><path d="m454.99 300.05c.31 2.18-2.98 4.46-7.36 5.08-4.37.62-8.17-.65-8.48-2.84s2.99-4.46 7.36-5.08c4.38-.62 8.17.65 8.48 2.84z" fill="#e15c63"/><path d="m435.71 315.27c.31 2.18-2.99 4.46-7.36 5.08-4.38.62-8.17-.65-8.48-2.84s2.98-4.46 7.36-5.08c4.37-.62 8.17.65 8.48 2.84z" fill="#d14b62"/><path d="m417.12 336.37c.31 2.19-2.98 4.46-7.36 5.08-4.37.62-8.17-.65-8.48-2.84-.31-2.18 2.99-4.46 7.36-5.08s8.17.65 8.48 2.84z" fill="#e15c63"/><path d="m383.51 329.63c.31 2.18-2.98 4.46-7.36 5.08-4.37.62-8.17-.65-8.48-2.84s2.98-4.46 7.36-5.08c4.37-.62 8.17.65 8.48 2.84z" fill="#d14b62"/><path d="m374.18 198.81c.31 2.19-2.98 4.46-7.36 5.08-4.37.62-8.17-.65-8.48-2.83-.31-2.19 2.98-4.47 7.36-5.09 4.37-.62 8.17.65 8.48 2.84z" fill="#d14b62"/><path d="m360.95 350.76c.31 2.19-2.99 4.46-7.36 5.08-4.38.62-8.18-.65-8.49-2.84-.31-2.18 2.99-4.46 7.36-5.08 4.38-.62 8.18.65 8.49 2.84z" fill="#e15c63"/><path d="m329.93 339.88c.31 2.19-2.99 4.47-7.36 5.09-4.38.62-8.18-.65-8.48-2.84-.31-2.19 2.98-4.46 7.35-5.08 4.38-.62 8.18.65 8.49 2.83z" fill="#d14b62"/><path d="m272.33 344.73c.31 2.19-2.98 4.47-7.36 5.09-4.37.62-8.17-.65-8.48-2.84s2.99-4.47 7.36-5.08c4.38-.62 8.17.65 8.48 2.83z" fill="#e15c63"/><path d="m199.5 335.11c.31 2.19-2.99 4.47-7.36 5.09s-8.17-.65-8.48-2.84 2.98-4.46 7.36-5.08c4.37-.62 8.17.65 8.48 2.83z" fill="#d14b62"/><path d="m179.51 281.69c.31 2.19-2.98 4.46-7.36 5.08-4.37.62-8.17-.65-8.48-2.83-.31-2.19 2.99-4.47 7.36-5.09 4.38-.62 8.17.65 8.48 2.84z" fill="#d14b62"/><path d="m156.85 329.63c.31 2.18-2.99 4.46-7.36 5.08-4.38.62-8.17-.65-8.48-2.84s2.98-4.46 7.36-5.08c4.37-.62 8.17.65 8.48 2.84z" fill="#e15c63"/><path d="m28 8c0 4.42-3.58 8-8 8-4.28 0-7.78-3.36-7.99-7.59-.01-.13-.01-.27-.01-.41 0-4.42 3.58-8 8-8s8 3.58 8 8z" fill="#349370"/><path d="m15.82 25.71c0 .01-.01.02-.01.03-.79 3.58-3.99 6.26-7.81 6.26-4.28 0-7.78-3.36-7.99-7.59-.01-.13-.01-.27-.01-.41 0-4.42 3.58-8 8-8 2 0 3.82.74 5.23 1.96h.01c.63 2.63 1.51 5.21 2.58 7.74z" fill="#3fa07f"/><path d="m377.36 259.07c5.96-7.59 8.58-14.31 8.58-14.31 39.36-23.25 5.14-51.2 5.14-51.2 15.89-4.39 20.46 11.66 20.46 11.66 11.15.34 11.83 10.82 11.83 10.82 13.52-4.23 16.05 10.14 16.05 10.14 21.47 1.18 18.43 18.76 18.43 18.76 17.74 7.44 7.05 29.21-10.31 22.99-3.72 9.29-17.58 5.74-17.58 5.74-6.93 17.41-27.89 10.82-27.89 10.82-3.04 14.37-21.97 9.97-21.97 9.97-7.44 13.19-27.38 5.07-27.38 5.07-5.58 15.05-21.47 11.16-21.47 11.16-9.63 12.17-25.77 6.17-25.77 6.17-8.62 11.15-24.85 3.8-24.85 3.8-7.86 9.13-21.55 2.28-21.55 2.28-15.46 10.4-27.63-.76-27.63-.76-18 9.63-21.04-7.1-21.04-7.1s2.28-13.69 18.76-12.17c0 0 .6-14.95 15.13-7.6 0 0 .39-.48 1.11-1.1 14.93 3.1 27.4 3.36 37.64 2.11 27.47-3.36 38.96-17.63 38.96-17.63 28.51 6.23 46.02-7.76 55.35-19.62z" fill="#d14b62"/><path d="m125.99 273.75c1.45-.76 3.06-1.34 4.78-1.71-11.13 31.8 89.4 14.89 89.4 14.89 9.1 3.31 17.5 5.68 25.24 7.28-.72.62-1.11 1.1-1.11 1.1-14.53-7.35-15.13 7.6-15.13 7.6-16.48-1.52-18.76 12.17-18.76 12.17-18.26 13.95-25.61-7.1-25.61-7.1-10.39 7.1-20.03-.5-20.03-.5-18.25 9.38-19.77-9.13-19.77-9.13-20.79 5.07-24.68-7.48-24.68-7.48-3.34-7.93-.2-14.02 5.67-17.12z" fill="#d14b62"/><g fill="#c43b58"><path d="m260.823 186.841c-4.89-2.473-13.16-3.958-19.549 3.433-1.445 1.671-1.261 4.197.41 5.642.756.654 1.688.974 2.614.974 1.122 0 2.237-.469 3.028-1.384 4.349-5.031 9.919-1.606 10.97-.884 1.243.881 2.881.981 4.221.253 5.609-3.042 8.946.029 9.575.695 1.464 1.624 3.967 1.771 5.611.322 1.659-1.46 1.82-3.987.36-5.646-2.452-2.785-8.997-6.735-17.24-3.405z"/><path d="m285.072 292.869c-7.858-4.606-17.423-2.558-21.938-1.149-7.27-6.368-14.652-4.978-19.609-1.135-4.68-1.813-8.71-1.753-12.006.184-3.357 1.973-4.94 5.353-5.686 8.034-5.245.151-9.658 1.772-13.152 4.839-1.66 1.458-1.825 3.985-.368 5.645.791.901 1.896 1.361 3.008 1.361.937 0 1.878-.327 2.637-.994 2.573-2.258 6.224-3.184 10.844-2.761 1.085.1 2.162-.259 2.985-.971s1.321-1.741 1.378-2.828c.071-1.357.756-4.473 2.419-5.436 1.351-.784 3.806-.35 6.909 1.221 1.648.833 3.684.393 4.881-1.012.002-.003.232-.271.652-.632 3.543-3.064 7.196-2.472 11.172 1.807 1.145 1.232 2.949 1.613 4.498.958.103-.043 10.376-4.303 17.343-.222.57.332 1.081.692 1.562 1.103 1.68 1.435 4.205 1.237 5.64-.443s1.236-4.205-.443-5.64c-.839-.716-1.76-1.368-2.726-1.929z"/><path d="m278.02 249.963c-4.233-.617-8.02.876-10.494 2.274-2.949-2.218-6.111-3.273-9.433-3.166-3.817.133-6.909 1.819-8.96 3.358-3.292-1.934-6.719-2.662-10.215-2.166-4.807.681-8.479 3.529-10.694 5.768-3.911-1.668-7.099-1.327-9.247-.625-4.238 1.386-6.88 4.837-8.284 7.28-3.379.341-5.421 1.843-6.597 3.193-1.397 1.605-2.031 3.485-2.284 5.184-2.555.418-4.233 1.535-5.289 2.587-3.301 3.288-2.777 7.954-2.707 8.475.271 2.007 1.988 3.464 3.959 3.464.178 0 .359-.012.542-.037 2.189-.296 3.724-2.311 3.427-4.5-.026-.196.002-1.313.425-1.735.325-.322 1.317-.579 3.13-.327 1.286.179 2.572-.297 3.46-1.241.889-.944 1.26-2.282 1.004-3.553-.178-.883-.148-2.484.372-3.07.365-.411 1.392-.589 2.743-.481 1.774.144 3.426-.917 4.064-2.571.443-1.147 2.123-4.296 4.545-5.073 1.488-.476 3.333 0 5.483 1.417 1.807 1.189 4.245.71 5.487-1.062.032-.046 3.26-4.584 7.619-5.179 2.234-.306 4.467.494 6.834 2.439 1.67 1.374 4.15 1.146 5.573-.481.026-.03 2.646-2.984 5.931-3.072 1.921-.058 3.927.958 5.921 3.005 1.459 1.498 3.846 1.603 5.451.261.993-.831 4.21-2.887 7.11-2.447 1.84.28 3.457 1.537 4.941 3.842 1.197 1.858 3.672 2.394 5.529 1.197 1.857-1.196 2.393-3.672 1.197-5.529-3.462-5.373-7.645-7.005-10.543-7.429z"/><path d="m386.382 252.36c-2.864.404-5.051 1.931-6.6 3.511-.097-.063-.194-.125-.291-.186-4.275-2.692-7.792-2.354-9.99-1.596-2.548.879-4.402 2.655-5.678 4.364-2.765-1.115-5.063-.935-6.689-.46-2.328.68-4.053 2.149-5.28 3.652-2.911-1.527-5.815-2.032-8.671-1.497-5.925 1.107-8.939 6.269-9.263 6.853-1.063 1.917-.373 4.313 1.533 5.396.619.352 1.292.518 1.959.518 1.387 0 2.739-.722 3.485-2.001.015-.025 1.521-2.511 3.796-2.91 1.648-.293 3.629.516 5.883 2.397 1.007.841 2.363 1.134 3.628.784s2.277-1.297 2.71-2.536c.258-.74 1.334-2.648 2.46-2.978.766-.225 2.027.295 3.46 1.422 1.012.795 2.344 1.057 3.578.7 1.236-.355 2.226-1.283 2.66-2.493.285-.793 1.533-3.131 3.035-3.649.791-.273 1.839-.002 3.127.808.765.479 1.604 1.161 2.493 2.026.915.891 2.206 1.274 3.468 1.062 1.259-.214 2.348-1.033 2.917-2.176.46-.923 1.896-2.894 3.401-3.093 1.373-.185 3.372 1.078 5.481 3.455 1.464 1.652 3.993 1.804 5.646.338s1.804-3.994.338-5.646c-4.098-4.625-8.337-6.664-12.596-6.065z"/><path d="m447.644 249.253c-2.583-4.636-5.908-7.373-9.882-8.135-2.69-.519-5.091.007-6.904.727-1.653-1.354-3.331-1.789-4.634-1.872-1.553-.104-2.967.261-4.185.816-2.501-4.154-5.553-6.453-9.111-6.854-6.877-.767-11.827 6.086-12.369 6.871-1.251 1.812-.798 4.285 1.007 5.545s4.295.816 5.564-.983c.922-1.306 3.308-3.658 4.91-3.482 1.131.133 2.993 1.907 4.826 6.489.528 1.319 1.715 2.26 3.12 2.47 1.41.214 2.816-.339 3.708-1.445.48-.595 1.592-1.434 1.964-1.456.003.001.357.168.895 1.042.604.981 1.583 1.671 2.718 1.864 1.137.191 2.281-.098 3.175-.826.019-.015 1.899-1.444 3.853-1.041 1.901.392 3.418 2.48 4.357 4.165.732 1.313 2.094 2.054 3.498 2.053.659 0 1.328-.163 1.944-.506 1.929-1.076 2.621-3.512 1.546-5.442z"/><path d="m337.893 229.312c1.376-.164 2.569-1.028 3.154-2.284.511-1.097 1.889-2.833 2.675-2.891.308-.048 1.652.535 3.552 3.409.724 1.095 1.938 1.765 3.25 1.793 1.322.022 2.555-.589 3.325-1.651.556-.767 2.582-2.854 4.231-2.854h.033c1.338.023 2.687 1.729 3.371 2.743.704 1.043 1.857 1.694 3.114 1.758 1.258.066 2.47-.468 3.275-1.435.042-.05 4.357-5.027 9.507-4.893 3.172.089 6.304 2.188 9.308 6.236.785 1.058 1.992 1.617 3.215 1.617.829 0 1.664-.257 2.38-.788 1.774-1.316 2.146-3.822.829-5.596-4.54-6.119-9.757-9.304-15.507-9.466-5.271-.152-9.695 2.389-12.52 4.605-2.512-2.172-4.985-2.75-6.838-2.781-2.943-.061-5.438 1.201-7.303 2.593-2.441-2.377-5.059-3.473-7.817-3.27-2.557.19-4.59 1.492-6.1 2.964-3.268-2.835-6.684-4.118-10.191-3.829-7.046.585-10.988 7.336-11.415 8.104-1.067 1.923-.376 4.335 1.54 5.415 1.915 1.08 4.35.398 5.442-1.51.565-.989 2.72-3.854 5.115-4.038 2.444-.178 5.03 2.38 6.77 4.566.866 1.087 2.228 1.645 3.605 1.483z"/><path d="m190.441 239.587c-9.187-6.632-18.476-2.809-22.104.139-1.703 1.383-1.957 3.868-.59 5.583s3.876 1.998 5.606.649c.603-.47 6.068-4.46 12.406.115.708.511 1.526.757 2.337.757 1.241 0 2.465-.576 3.247-1.66 1.293-1.79.889-4.291-.902-5.583z"/><path d="m198.722 228.453c.801-.628 5.061-3.513 10.223 1.325.804.754 1.88 1.145 2.985 1.074 1.1-.069 2.123-.588 2.828-1.437.527-.635 3.035-3.046 5.672-3.244 1.441-.104 2.853.464 4.299 1.754.812.725 1.874 1.102 2.953 1.021 1.085-.083 2.073-.587 2.765-1.427.019-.021 1.889-2.142 4.528-2.171h.057c2.751 0 5.403 2.281 7.148 4.202.737.811 1.785 1.274 2.88 1.299 1.124.025 2.164-.412 2.937-1.189.038-.038 3.787-3.75 8.153-3.116 4.413.644 7.905 5.554 10.057 9.559.722 1.344 2.102 2.108 3.527 2.108.639 0 1.288-.154 1.89-.478 1.946-1.045 2.676-3.471 1.63-5.417-4.42-8.229-9.822-12.839-16.053-13.704-4.916-.685-9.104 1.21-11.782 2.954-3.423-2.889-7.013-4.286-10.704-4.215-3.213.078-5.78 1.294-7.565 2.518-2.31-1.291-4.791-1.863-7.317-1.675-3.497.262-6.391 1.9-8.371 3.422-7.482-4.826-14.727-1.905-17.803.644-1.701 1.409-1.958 3.947-.548 5.648 1.409 1.702 3.909 1.955 5.611.545z"/><path d="m317.935 202.932c.024-.025 2.63-2.446 5.397-2.17 1.862.185 3.692 1.608 5.441 4.229.771 1.155 2.039 1.78 3.331 1.78.763 0 1.534-.218 2.216-.673 1.837-1.226 2.333-3.709 1.107-5.547-3.142-4.708-6.945-7.315-11.304-7.749-3.895-.388-7.185 1.104-9.307 2.475-4.156-2.051-8.003-1.921-11.013-.981-3.812-8.474-11.744-9.86-12.136-9.923-2.178-.354-4.263 1.126-4.615 3.307s1.102 4.229 3.283 4.581c.593.115 5.83 1.327 7.149 8.56.264 1.446 1.299 2.63 2.697 3.085 1.397.453 2.932.106 3.996-.907.142-.134 3.506-3.244 8.625.371 1.589 1.12 3.756.936 5.133-.438z"/></g><g fill="#ad1f48"><path d="m175.995 106.882c-.109-2.207-1.978-3.899-4.193-3.797-25.119 1.245-43.072-4.756-43.37-4.857-2.086-.718-4.364.39-5.083 2.478-.72 2.088.389 4.365 2.477 5.085.711.245 16.143 5.468 38.963 5.468 2.392 0 4.864-.057 7.409-.184 2.207-.11 3.906-1.987 3.797-4.193z"/><path d="m222.959 107.28h.043c.985-.011 24.326-.315 42.376-5.474 2.124-.607 3.354-2.821 2.747-4.945s-2.822-3.354-4.945-2.747c-17 4.858-40.033 5.164-40.264 5.166-2.209.024-3.98 1.834-3.957 4.043.025 2.194 1.811 3.957 4 3.957z"/><path d="m335.079 79.951c.403 0 .814-.062 1.219-.191.795-.254 19.558-6.26 25.789-8.833 2.042-.844 3.014-3.183 2.17-5.224s-3.184-3.012-5.224-2.17c-5.928 2.449-24.979 8.546-25.171 8.607-2.104.673-3.265 2.924-2.592 5.028.543 1.7 2.116 2.783 3.809 2.783z"/></g><g fill="#b72e4f"><path d="m133.412 154.495c-24.674-4.849-40.664-15.01-40.917-15.172-1.854-1.201-4.329-.672-5.531 1.18-1.202 1.854-.674 4.331 1.179 5.533.697.452 17.371 11.129 43.726 16.309.261.051.52.076.776.076 1.873 0 3.546-1.322 3.92-3.229.426-2.169-.986-4.271-3.153-4.697z"/><path d="m182.087 170.912c.675.16 16.729 3.933 33.022 4.792.072.003.143.005.214.005 2.112 0 3.878-1.655 3.991-3.79.116-2.206-1.578-4.088-3.784-4.205-15.551-.82-31.439-4.55-31.598-4.587-2.151-.51-4.305.821-4.814 2.97-.51 2.15.82 4.305 2.969 4.815z"/></g></g></svg>