<svg id="Layer_1" enable-background="new 0 0 512 512" height="512" viewBox="0 0 512 512" width="512" xmlns="http://www.w3.org/2000/svg"><circle cx="256" cy="256" fill="#f5f5f5" r="256"/><path d="m256 0c-5.19 0-10.339.173-15.453.478 134.188 7.991 240.548 119.327 240.548 255.522s-106.36 247.531-240.547 255.522c5.113.305 10.262.478 15.452.478 141.385 0 256-114.615 256-256s-114.615-256-256-256z" fill="#e6e6e6"/><circle cx="256" cy="256" fill="#e6e6e6" r="193.674"/><circle cx="163.454" cy="196.62" fill="#4caf50" r="41.912"/><circle cx="348.546" cy="196.62" fill="#f8bbd0" r="41.912"/><circle cx="163.454" cy="315.38" fill="#f8bbd0" r="41.912"/><circle cx="348.546" cy="315.38" fill="#4caf50" r="41.912"/><circle cx="256" cy="142.337" fill="#f2cdae" r="41.912"/><circle cx="256" cy="256" fill="#ffd54f" r="41.912"/><circle cx="256" cy="369.663" fill="#f2cdae" r="41.912"/><path d="m437.37 512c-8.51 0-15.384-6.943-15.301-15.452l4.786-486.137c.058-5.766 4.749-10.411 10.515-10.411 5.767 0 10.457 4.645 10.514 10.411l4.786 486.137c.085 8.509-6.79 15.452-15.3 15.452z" fill="#bf6724"/><path d="m496.699 512c-8.51 0-15.384-6.943-15.301-15.452l4.786-486.137c.057-5.766 4.748-10.411 10.515-10.411 5.767 0 10.457 4.645 10.514 10.411l4.786 486.137c.084 8.509-6.791 15.452-15.3 15.452z" fill="#bf6724"/><path d="m163.454 154.708c-5.46 0-10.67 1.055-15.453 2.954 15.497 6.153 26.459 21.27 26.459 38.958s-10.963 32.805-26.459 38.958c4.783 1.899 9.993 2.954 15.453 2.954 23.147 0 41.912-18.765 41.912-41.912s-18.764-41.912-41.912-41.912z" fill="#43a047"/><path d="m348.546 154.708c-5.46 0-10.67 1.055-15.453 2.954 15.497 6.153 26.459 21.27 26.459 38.958s-10.963 32.805-26.459 38.958c4.783 1.899 9.993 2.954 15.453 2.954 23.147 0 41.912-18.765 41.912-41.912s-18.765-41.912-41.912-41.912z" fill="#f48fb1"/><path d="m163.454 273.468c-5.46 0-10.67 1.055-15.453 2.954 15.497 6.152 26.459 21.27 26.459 38.958s-10.963 32.805-26.459 38.958c4.783 1.899 9.993 2.954 15.453 2.954 23.147 0 41.912-18.765 41.912-41.912 0-23.148-18.764-41.912-41.912-41.912z" fill="#f48fb1"/><path d="m348.546 273.468c-5.46 0-10.67 1.055-15.453 2.954 15.497 6.152 26.459 21.27 26.459 38.958s-10.963 32.805-26.459 38.958c4.783 1.899 9.993 2.954 15.453 2.954 23.147 0 41.912-18.765 41.912-41.912 0-23.148-18.765-41.912-41.912-41.912z" fill="#43a047"/><path d="m256 100.426c-5.46 0-10.67 1.055-15.453 2.954 15.497 6.153 26.459 21.271 26.459 38.958s-10.963 32.805-26.459 38.958c4.783 1.899 9.993 2.954 15.453 2.954 23.147 0 41.912-18.765 41.912-41.912s-18.765-41.912-41.912-41.912z" fill="#e6b793"/><path d="m256 214.088c-5.46 0-10.67 1.055-15.453 2.954 15.497 6.152 26.459 21.27 26.459 38.958s-10.963 32.805-26.459 38.958c4.783 1.899 9.993 2.954 15.453 2.954 23.147 0 41.912-18.765 41.912-41.912s-18.765-41.912-41.912-41.912z" fill="#ffb300"/><path d="m256 327.75c-5.46 0-10.67 1.055-15.453 2.954 15.497 6.152 26.459 21.27 26.459 38.958s-10.963 32.805-26.459 38.958c4.783 1.899 9.993 2.954 15.453 2.954 23.147 0 41.912-18.765 41.912-41.912s-18.765-41.912-41.912-41.912z" fill="#e6b793"/><path d="m177.499 182.575c-2.929-2.928-7.678-2.928-10.606 0l-3.438 3.438-3.438-3.438c-2.929-2.928-7.678-2.928-10.606 0-2.929 2.93-2.929 7.678 0 10.607l3.438 3.438-3.438 3.438c-2.929 2.93-2.929 7.678 0 10.607 2.93 2.929 7.678 2.928 10.606 0l3.438-3.438 3.438 3.438c2.93 2.929 7.678 2.928 10.606 0 2.929-2.93 2.929-7.678 0-10.607l-3.438-3.438 3.438-3.438c2.929-2.929 2.929-7.677 0-10.607z" fill="#388e3c"/><path d="m241.956 156.383c2.929 2.928 7.678 2.929 10.606-.001l3.438-3.438 3.438 3.438c2.928 2.928 7.677 2.931 10.606.001 2.93-2.929 2.93-7.678.001-10.606l-3.439-3.439 3.439-3.439c2.929-2.929 2.929-7.678-.001-10.606-2.928-2.928-7.677-2.929-10.606.001l-3.438 3.437-3.438-3.438c-2.928-2.93-7.677-2.929-10.606-.001-2.929 2.929-2.929 7.678 0 10.606l3.439 3.439-3.439 3.439c-2.93 2.929-2.929 7.678 0 10.607z" fill="#d49f77"/><path d="m359.153 196.62 3.438-3.438c2.929-2.93 2.929-7.678 0-10.607-2.93-2.928-7.678-2.928-10.607 0l-3.438 3.438-3.438-3.438c-2.93-2.928-7.678-2.928-10.607 0-2.929 2.93-2.929 7.678 0 10.607l3.438 3.438-3.438 3.438c-2.929 2.93-2.929 7.678 0 10.607 2.931 2.929 7.678 2.928 10.607 0l3.438-3.438 3.438 3.438c2.931 2.929 7.678 2.928 10.607 0 2.929-2.93 2.929-7.678 0-10.607z" fill="#f06292"/><path d="m270.045 241.955c-2.93-2.928-7.678-2.928-10.607 0l-3.438 3.438-3.438-3.438c-2.929-2.928-7.678-2.928-10.606 0-2.929 2.93-2.929 7.678 0 10.607l3.437 3.438-3.437 3.438c-2.929 2.93-2.929 7.678 0 10.607 2.93 2.929 7.678 2.928 10.606 0l3.438-3.438 3.438 3.438c2.931 2.929 7.678 2.928 10.607 0 2.929-2.93 2.929-7.678 0-10.607l-3.438-3.438 3.438-3.438c2.929-2.929 2.929-7.677 0-10.607z" fill="#ffa000"/><path d="m177.499 301.335c-2.929-2.927-7.678-2.929-10.606 0l-3.438 3.438-3.438-3.438c-2.929-2.928-7.678-2.928-10.606 0-2.929 2.93-2.929 7.678 0 10.607l3.438 3.438-3.438 3.438c-2.929 2.93-2.929 7.678 0 10.607 2.93 2.929 7.678 2.928 10.606 0l3.438-3.438 3.438 3.438c2.93 2.929 7.678 2.928 10.606 0 2.929-2.93 2.929-7.678 0-10.607l-3.438-3.438 3.438-3.438c2.929-2.929 2.929-7.677 0-10.607z" fill="#f06292"/><path d="m270.044 355.617c-2.928-2.928-7.677-2.929-10.606.001l-3.438 3.438-3.438-3.438c-2.928-2.929-7.677-2.93-10.606-.001s-2.929 7.678 0 10.606l3.439 3.439-3.439 3.439c-2.929 2.929-2.929 7.678 0 10.606s7.678 2.929 10.606-.001l3.438-3.438 3.438 3.438c2.928 2.928 7.677 2.931 10.606.001 2.93-2.929 2.93-7.678.001-10.606l-3.439-3.439 3.439-3.439c2.929-2.928 2.929-7.677-.001-10.606z" fill="#d49f77"/><path d="m362.591 301.335c-2.93-2.928-7.678-2.928-10.607 0l-3.438 3.438-3.438-3.438c-2.93-2.928-7.678-2.928-10.607 0-2.929 2.93-2.929 7.678 0 10.607l3.438 3.438-3.438 3.438c-2.929 2.93-2.929 7.678 0 10.607 2.931 2.929 7.678 2.928 10.607 0l3.438-3.438 3.438 3.438c2.931 2.929 7.678 2.928 10.607 0 2.929-2.93 2.929-7.678 0-10.607l-3.438-3.438 3.438-3.438c2.929-2.929 2.929-7.677 0-10.607z" fill="#388e3c"/></svg>