<svg height="512" viewBox="0 0 48 48" width="512" xmlns="http://www.w3.org/2000/svg"><g id="_16-goi_cuon_vietnam" data-name="16-goi cuon , vietnam"><rect fill="#dbe2f8" height="46" rx="6" width="46" x="1" y="1"/><rect fill="#a1afda" height="39" rx="4" width="38" x="5" y="5"/><circle cx="40" cy="26" fill="#f9e6d8" r="7"/><circle cx="40" cy="26" fill="#8b4f2c" r="4"/><path d="m23 3h3v7h-3z" fill="#3ca04b"/><path d="m26 5h3v5h-3z" fill="#3c9344"/><rect fill="#f6d1b0" height="37" rx="4" width="14" x="19" y="10"/><path d="m27 15.989s-.25-4.227 3.994-3.978c.006 0 .253 4.227-3.994 3.978z" fill="#3ca04b"/><path d="m25 15.989s.25-4.227-3.994-3.978c-.006 0-.253 4.227 3.994 3.978z" fill="#3ca04b"/><path d="m25 41.011s.25 4.227-3.994 3.978c-.006 0-.253-4.227 3.994-3.978z" fill="#3ca04b"/><path d="m27 41.011s-.25 4.227 3.994 3.978c.006 0 .253-4.227-3.994-3.978z" fill="#3ca04b"/><path d="m26 31s0-4 4-4c0 0 0 4-4 4z" fill="#3ca04b"/><path d="m26 31s0-4-4-4c0 0 0 4 4 4z" fill="#3ca04b"/><path d="m25 39v3.94a7.476 7.476 0 0 1 -3-.94 4.109 4.109 0 0 1 -2-3.47v-.53h3c.17.86 1.1.99 2 1z" fill="#f6a15b"/><path d="m27 36c2.54 0 4.65.76 4.95 1.74a5.945 5.945 0 0 1 -2.86 4.4l-.09-.14c0-1.66.21-4-2-4l-.21-.09a1.869 1.869 0 0 0 .18-.58 2.035 2.035 0 0 0 -.21-1.28z" fill="#f6a15b"/><path d="m29 42 .09.14a5.906 5.906 0 0 1 -3.09.86 8.386 8.386 0 0 1 -1-.06v-3.94a1.892 1.892 0 0 0 1.79-1.09l.21.09c2.21 0 2 2.34 2 4z" fill="#f8bb8e"/><path d="m26.23 31a5.9 5.9 0 0 1 5.58 4.48 6.246 6.246 0 0 1 .14 2.26c-.3-.98-2.41-1.74-4.95-1.74l-.24.05a2.012 2.012 0 0 0 -1.76-1.05 7.361 7.361 0 0 0 -2.48.62.909.909 0 0 1 -1.05-.15l-.05-.05a.9.9 0 0 1 -.17-1.02c.92-2.04 2.5-3.49 4.98-3.4z" fill="#f8bb8e"/><path d="m27 22v3.94a7.476 7.476 0 0 0 3-.94 4.109 4.109 0 0 0 2-3.47v-.53h-3c-.17.86-1.1.99-2 1z" fill="#f6a15b"/><path d="m25 19c-2.54 0-4.65.76-4.95 1.74a5.945 5.945 0 0 0 2.86 4.4l.09-.14c0-1.66-.21-4 2-4l.21-.09a1.869 1.869 0 0 1 -.18-.58 2.035 2.035 0 0 1 .21-1.28z" fill="#f6a15b"/><path d="m23 25-.09.14a5.906 5.906 0 0 0 3.09.86 8.386 8.386 0 0 0 1-.06v-3.94a1.892 1.892 0 0 1 -1.79-1.09l-.21.09c-2.21 0-2 2.34-2 4z" fill="#f8bb8e"/><path d="m25.766 14a5.9 5.9 0 0 0 -5.58 4.48 6.246 6.246 0 0 0 -.14 2.26c.3-.98 2.41-1.74 4.95-1.74l.24.05a2.012 2.012 0 0 1 1.764-1.05 7.361 7.361 0 0 1 2.48.62.909.909 0 0 0 1.05-.15l.05-.05a.9.9 0 0 0 .17-1.02c-.924-2.04-2.504-3.49-4.984-3.4z" fill="#f8bb8e"/><path d="m9 1h3v5h-3z" fill="#3ca04b"/><path d="m12 1h3v5h-3z" fill="#3c9344"/><rect fill="#f6d1b0" height="37" rx="4" width="14" x="5" y="6"/><path d="m13 11.989s-.247-4.227 4-3.978c0 0 .247 4.227-4 3.978z" fill="#3ca04b"/><path d="m11 11.989s.247-4.227-4-3.978c0 0-.247 4.227 4 3.978z" fill="#3ca04b"/><path d="m11 37.011s.25 4.227-3.994 3.978c-.006 0-.253-4.227 3.994-3.978z" fill="#3ca04b"/><path d="m13 37.011s-.25 4.227 3.994 3.978c.006 0 .253-4.227-3.994-3.978z" fill="#3ca04b"/><path d="m12 27s0-4 4-4c0 0 0 4-4 4z" fill="#3ca04b"/><path d="m12 27s0-4-4-4c0 0 0 4 4 4z" fill="#3ca04b"/><path d="m11 35v3.94a7.476 7.476 0 0 1 -3-.94 4.109 4.109 0 0 1 -2-3.47v-.53h3c.17.86 1.1.99 2 1z" fill="#f6a15b"/><path d="m13 32c2.54 0 4.65.76 4.95 1.74a5.945 5.945 0 0 1 -2.86 4.4l-.09-.14c0-1.66.21-4-2-4l-.21-.09a1.869 1.869 0 0 0 .18-.58 2.035 2.035 0 0 0 -.21-1.28z" fill="#f6a15b"/><path d="m15 38 .09.14a5.906 5.906 0 0 1 -3.09.86 8.386 8.386 0 0 1 -1-.06v-3.94a1.892 1.892 0 0 0 1.79-1.09l.21.09c2.21 0 2 2.34 2 4z" fill="#f8bb8e"/><path d="m12.23 27a5.9 5.9 0 0 1 5.58 4.48 6.246 6.246 0 0 1 .14 2.26c-.3-.98-2.41-1.74-4.95-1.74l-.24.05a2.012 2.012 0 0 0 -1.76-1.05 7.361 7.361 0 0 0 -2.48.62.909.909 0 0 1 -1.05-.15l-.05-.05a.9.9 0 0 1 -.17-1.02c.92-2.04 2.5-3.49 4.98-3.4z" fill="#f8bb8e"/><path d="m13 18v3.94a7.476 7.476 0 0 0 3-.94 4.109 4.109 0 0 0 2-3.47v-.53h-3c-.17.86-1.1.99-2 1z" fill="#f6a15b"/><path d="m11 15c-2.54 0-4.65.76-4.95 1.74a5.945 5.945 0 0 0 2.86 4.4l.09-.14c0-1.66-.21-4 2-4l.21-.09a1.869 1.869 0 0 1 -.18-.58 2.035 2.035 0 0 1 .21-1.28z" fill="#f6a15b"/><path d="m9 21-.09.14a5.906 5.906 0 0 0 3.09.86 8.386 8.386 0 0 0 1-.06v-3.94a1.892 1.892 0 0 1 -1.79-1.09l-.21.09c-2.21 0-2 2.34-2 4z" fill="#f8bb8e"/><path d="m11.766 10a5.9 5.9 0 0 0 -5.58 4.48 6.246 6.246 0 0 0 -.14 2.26c.3-.98 2.41-1.74 4.954-1.74l.24.05a2.012 2.012 0 0 1 1.76-1.05 7.361 7.361 0 0 1 2.48.62.909.909 0 0 0 1.05-.15l.05-.05a.9.9 0 0 0 .17-1.02c-.924-2.04-2.504-3.49-4.984-3.4z" fill="#f8bb8e"/><rect fill="#e9efff" height="46" rx="6" width="46" x="1" y="1"/><rect fill="#ccd5f3" height="42" rx="4" width="42" x="3" y="3"/><rect fill="#8599c9" height="40" rx="4" width="40" x="4" y="4"/><rect fill="#a1afda" height="38" rx="4" width="38" x="5" y="5"/><path d="m23 3h3v7h-3z" fill="#3c9344"/><path d="m26 5h3v5h-3z" fill="#3ca04b"/><rect fill="#f6d1b0" height="37" rx="4" width="14" x="19" y="10"/><path d="m27 15.989s-.25-4.227 3.994-3.978c.006 0 .253 4.227-3.994 3.978z" fill="#3ca04b"/><path d="m25 15.989s.25-4.227-3.994-3.978c-.006 0-.253 4.227 3.994 3.978z" fill="#3ca04b"/><path d="m25 41.011s.25 4.227-3.994 3.978c-.006 0-.253-4.227 3.994-3.978z" fill="#3ca04b"/><path d="m27 41.011s-.25 4.227 3.994 3.978c.006 0 .253-4.227-3.994-3.978z" fill="#3ca04b"/><path d="m26 31s0-4 4-4c0 0 0 4-4 4z" fill="#3ca04b"/><path d="m26 31s0-4-4-4c0 0 0 4 4 4z" fill="#3ca04b"/><path d="m25 39v3.94a7.476 7.476 0 0 1 -3-.94 4.109 4.109 0 0 1 -2-3.47v-.53h3c.17.86 1.1.99 2 1z" fill="#f6a15b"/><path d="m27 36c2.54 0 4.65.76 4.95 1.74a5.945 5.945 0 0 1 -2.86 4.4l-.09-.14c0-1.66.21-4-2-4l-.21-.09a1.869 1.869 0 0 0 .18-.58 2.035 2.035 0 0 0 -.21-1.28z" fill="#f6a15b"/><path d="m29 42 .09.14a5.906 5.906 0 0 1 -3.09.86 8.386 8.386 0 0 1 -1-.06v-3.94a1.892 1.892 0 0 0 1.79-1.09l.21.09c2.21 0 2 2.34 2 4z" fill="#f8bb8e"/><path d="m26.23 31a5.9 5.9 0 0 1 5.58 4.48 6.246 6.246 0 0 1 .14 2.26c-.3-.98-2.41-1.74-4.95-1.74l-.24.05a2.012 2.012 0 0 0 -1.76-1.05 7.361 7.361 0 0 0 -2.48.62.909.909 0 0 1 -1.05-.15l-.05-.05a.9.9 0 0 1 -.17-1.02c.92-2.04 2.5-3.49 4.98-3.4z" fill="#f8bb8e"/><path d="m27 22v3.94a7.476 7.476 0 0 0 3-.94 4.109 4.109 0 0 0 2-3.47v-.53h-3c-.17.86-1.1.99-2 1z" fill="#f6a15b"/><path d="m25 19c-2.54 0-4.65.76-4.95 1.74a5.945 5.945 0 0 0 2.86 4.4l.09-.14c0-1.66-.21-4 2-4l.21-.09a1.869 1.869 0 0 1 -.18-.58 2.035 2.035 0 0 1 .21-1.28z" fill="#f6a15b"/><path d="m23 25-.09.14a5.906 5.906 0 0 0 3.09.86 8.386 8.386 0 0 0 1-.06v-3.94a1.892 1.892 0 0 1 -1.79-1.09l-.21.09c-2.21 0-2 2.34-2 4z" fill="#f8bb8e"/><path d="m25.766 14a5.9 5.9 0 0 0 -5.58 4.48 6.246 6.246 0 0 0 -.14 2.26c.3-.98 2.41-1.74 4.95-1.74l.24.05a2.012 2.012 0 0 1 1.764-1.05 7.361 7.361 0 0 1 2.48.62.909.909 0 0 0 1.05-.15l.05-.05a.9.9 0 0 0 .17-1.02c-.924-2.04-2.504-3.49-4.984-3.4z" fill="#f8bb8e"/><path d="m9 1h3v5h-3z" fill="#3c9344"/><path d="m12 1h3v5h-3z" fill="#3ca04b"/><rect fill="#f6d1b0" height="37" rx="4" width="14" x="5" y="6"/><path d="m13 11.989s-.247-4.227 4-3.978c0 0 .247 4.227-4 3.978z" fill="#3ca04b"/><path d="m11 11.989s.247-4.227-4-3.978c0 0-.247 4.227 4 3.978z" fill="#3ca04b"/><path d="m11 37.011s.25 4.227-3.994 3.978c-.006 0-.253-4.227 3.994-3.978z" fill="#3ca04b"/><path d="m13 37.011s-.25 4.227 3.994 3.978c.006 0 .253-4.227-3.994-3.978z" fill="#3ca04b"/><path d="m12 27s0-4 4-4c0 0 0 4-4 4z" fill="#3ca04b"/><path d="m12 27s0-4-4-4c0 0 0 4 4 4z" fill="#3ca04b"/><path d="m11 35v3.94a7.476 7.476 0 0 1 -3-.94 4.109 4.109 0 0 1 -2-3.47v-.53h3c.17.86 1.1.99 2 1z" fill="#f6a15b"/><path d="m13 32c2.54 0 4.65.76 4.95 1.74a5.945 5.945 0 0 1 -2.86 4.4l-.09-.14c0-1.66.21-4-2-4l-.21-.09a1.869 1.869 0 0 0 .18-.58 2.035 2.035 0 0 0 -.21-1.28z" fill="#f6a15b"/><path d="m15 38 .09.14a5.906 5.906 0 0 1 -3.09.86 8.386 8.386 0 0 1 -1-.06v-3.94a1.892 1.892 0 0 0 1.79-1.09l.21.09c2.21 0 2 2.34 2 4z" fill="#f8bb8e"/><path d="m12.23 27a5.9 5.9 0 0 1 5.58 4.48 6.246 6.246 0 0 1 .14 2.26c-.3-.98-2.41-1.74-4.95-1.74l-.24.05a2.012 2.012 0 0 0 -1.76-1.05 7.361 7.361 0 0 0 -2.48.62.909.909 0 0 1 -1.05-.15l-.05-.05a.9.9 0 0 1 -.17-1.02c.92-2.04 2.5-3.49 4.98-3.4z" fill="#f8bb8e"/><path d="m13 18v3.94a7.476 7.476 0 0 0 3-.94 4.109 4.109 0 0 0 2-3.47v-.53h-3c-.17.86-1.1.99-2 1z" fill="#f6a15b"/><path d="m11 15c-2.54 0-4.65.76-4.95 1.74a5.945 5.945 0 0 0 2.86 4.4l.09-.14c0-1.66-.21-4 2-4l.21-.09a1.869 1.869 0 0 1 -.18-.58 2.035 2.035 0 0 1 .21-1.28z" fill="#f6a15b"/><path d="m9 21-.09.14a5.906 5.906 0 0 0 3.09.86 8.386 8.386 0 0 0 1-.06v-3.94a1.892 1.892 0 0 1 -1.79-1.09l-.21.09c-2.21 0-2 2.34-2 4z" fill="#f8bb8e"/><path d="m11.766 10a5.9 5.9 0 0 0 -5.58 4.48 6.246 6.246 0 0 0 -.14 2.26c.3-.98 2.41-1.74 4.954-1.74l.24.05a2.012 2.012 0 0 1 1.76-1.05 7.361 7.361 0 0 1 2.48.62.909.909 0 0 0 1.05-.15l.05-.05a.9.9 0 0 0 .17-1.02c-.924-2.04-2.504-3.49-4.984-3.4z" fill="#f8bb8e"/><circle cx="40" cy="26" fill="#f9e6d8" r="7"/><circle cx="40" cy="26" fill="#a1afda" r="6"/><circle cx="40" cy="26" fill="#87481c" r="3"/><circle cx="40" cy="26" fill="#eb9962" r="6"/><circle cx="40" cy="26" fill="#f8bb8e" r="5"/><circle cx="40" cy="26" fill="#9e613b" r="4"/><circle cx="40" cy="26" fill="#87481c" r="3"/><path d="m40.5 28.95a3.06 3.06 0 0 1 -.5.05 3 3 0 0 1 -3-3 3.06 3.06 0 0 1 .05-.5 3.9 3.9 0 0 1 -.05-.5 3.977 3.977 0 0 1 .719-2.281 4 4 0 1 0 5.562 5.561 3.971 3.971 0 0 1 -2.281.72 3.9 3.9 0 0 1 -.5-.05z" fill="#68331b"/><path d="m40 29a3.06 3.06 0 0 0 .5-.05 3.976 3.976 0 0 1 -3.45-3.45 3.06 3.06 0 0 0 -.05.5 3 3 0 0 0 3 3z" fill="#68331b"/><ellipse cx="40.746" cy="26.5" fill="#3ca04b" rx=".574" ry=".413" transform="matrix(.707 -.707 .707 .707 -6.808 36.557)"/><ellipse cx="38.746" cy="26.5" fill="#f6d1b0" rx=".574" ry=".413" transform="matrix(.707 -.707 .707 .707 -7.393 35.143)"/><ellipse cx="41.746" cy="25.5" fill="#d44f4f" rx=".413" ry=".574"/><ellipse cx="39.746" cy="24.5" fill="#fa2a2a" rx=".413" ry=".574"/><ellipse cx="39.746" cy="25.5" fill="#3ca04b" rx=".413" ry=".574" transform="matrix(.707 -.707 .707 .707 -6.394 35.558)"/><path d="m9 1h3v5h-3z" fill="#3c9344"/><path d="m12 1h3v5h-3z" fill="#3ca04b"/><rect fill="#f6d1b0" height="37" rx="4" width="14" x="5" y="6"/><path d="m9.383 30.711c.275-8.247 1.879-16.558 1.024-24.711h-1.407-.018a88.47 88.47 0 0 1 -.462 12.44c-.567 5.23-1.6 10.469-1.152 15.711.2 2.34.7 4.658.716 7.007.005.57-.022 1.138-.067 1.706a3.986 3.986 0 0 0 .983.136h.747a114.588 114.588 0 0 1 -.364-12.289z" fill="#c8dc7d"/><path d="m12.821 6h-2.414c.855 8.153-.749 16.464-1.024 24.711a114.588 114.588 0 0 0 .364 12.289h2c-.269-2.9-.528-5.808-.58-8.722-.167-9.445 1.824-18.858 1.654-28.278z" fill="#98c95c"/><path d="m7.368 34.151c-.451-5.242.585-10.481 1.152-15.711a88.47 88.47 0 0 0 .462-12.44 3.971 3.971 0 0 0 -2.982 1.38v34.24a3.978 3.978 0 0 0 2.017 1.244c.045-.568.072-1.136.067-1.706-.018-2.349-.515-4.667-.716-7.007z" fill="#98c95c"/><path d="m5 10v29a3.963 3.963 0 0 0 1 2.62v-34.24a3.963 3.963 0 0 0 -1 2.62z" fill="#ffbb43"/><path d="m19 39v-29a3.964 3.964 0 0 0 -.411-1.735c.392 7.424-.957 14.961-1.206 22.446a109.663 109.663 0 0 0 .288 11.247 3.975 3.975 0 0 0 1.329-2.958z" fill="#ffbb43"/><path d="m17.383 30.711c.249-7.485 1.6-15.022 1.206-22.446a3.989 3.989 0 0 0 -1.753-1.8c-.115 9.448-2.543 18.878-1.6 28.291a67.722 67.722 0 0 0 1.38 7.9 4 4 0 0 0 1.059-.7 109.663 109.663 0 0 1 -.292-11.245z" fill="#b6cf50"/><path d="m15.275 12.146c.064-1.831-.011-3.663-.086-5.494l-.026-.636c-.055-.002-.107-.016-.163-.016h-2.179c.17 9.42-1.818 18.833-1.65 28.278.052 2.914.311 5.82.58 8.722h2.126a50.415 50.415 0 0 1 -1.177-9.346c-.085-7.228 2.322-14.283 2.575-21.508z" fill="#fd853c"/><path d="m16.836 6.466a3.952 3.952 0 0 0 -1.673-.45l.026.636c.075 1.831.15 3.663.086 5.494-.253 7.225-2.66 14.28-2.572 21.508a50.415 50.415 0 0 0 1.174 9.346h1.123a3.978 3.978 0 0 0 1.612-.344 67.722 67.722 0 0 1 -1.38-7.9c-.939-9.412 1.489-18.842 1.604-28.29z" fill="#c8dc7d"/><path d="m10.616 9c-.038-1-.1-2-.209-3h-1.407-.018q.05 1.5.047 3z" fill="#b6cf50"/><path d="m9 40a3.986 3.986 0 0 1 -.983-.136c.031.431.064.861.067 1.294.005.57-.022 1.138-.067 1.706a3.986 3.986 0 0 0 .983.136h.747q-.111-1.5-.2-3z" fill="#b6cf50"/><path d="m9.548 40q.087 1.5.2 3h2q-.139-1.5-.263-3z" fill="#81a54b"/><path d="m12.8 9c.025-1 .043-2 .025-3h-2.418c.105 1 .171 2 .209 3z" fill="#81a54b"/><path d="m9 9h.029q0-1.5-.047-3a3.971 3.971 0 0 0 -2.982 1.38v3a3.972 3.972 0 0 1 3-1.38z" fill="#81a54b"/><path d="m8.017 39.864a3.978 3.978 0 0 1 -2.017-1.244v3a3.978 3.978 0 0 0 2.017 1.244c.045-.568.072-1.136.067-1.706-.003-.433-.036-.858-.067-1.294z" fill="#81a54b"/><path d="m5 36v3a3.963 3.963 0 0 0 1 2.62v-3a3.963 3.963 0 0 1 -1-2.62z" fill="#f8830d"/><path d="m6 7.38a3.963 3.963 0 0 0 -1 2.62v3a3.963 3.963 0 0 1 1-2.62z" fill="#f8830d"/><path d="m17.5 39.1q.073 1.428.174 2.856a3.975 3.975 0 0 0 1.326-2.956v-3a3.977 3.977 0 0 1 -1.5 3.1z" fill="#f8830d"/><path d="m18.589 8.265c.055 1.037.07 2.077.064 3.118a3.967 3.967 0 0 1 .347 1.617v-3a3.964 3.964 0 0 0 -.411-1.735z" fill="#d44f4f"/><path d="m18.653 11.383c.006-1.041-.009-2.081-.064-3.118a3.989 3.989 0 0 0 -1.753-1.8c-.012.98-.053 1.961-.109 2.941a4 4 0 0 1 1.926 1.977z" fill="#81a54b"/><path d="m16.025 39.851q.278 1.405.587 2.805a4 4 0 0 0 1.059-.7q-.1-1.428-.174-2.856a3.967 3.967 0 0 1 -1.472.751z" fill="#81a54b"/><path d="m11.488 40q.123 1.5.263 3h2.126q-.3-1.494-.548-3z" fill="#f8830d"/><path d="m15 9c.093 0 .18.021.271.027q-.032-1.188-.082-2.375l-.026-.636c-.055-.002-.107-.016-.163-.016h-2.179c.018 1 0 2-.025 3z" fill="#f8830d"/><path d="m15 40h-1.671q.249 1.5.548 3h1.123a3.978 3.978 0 0 0 1.612-.344q-.31-1.4-.587-2.8a3.984 3.984 0 0 1 -1.025.144z" fill="#b6cf50"/><path d="m15.271 9.027a3.969 3.969 0 0 1 1.456.38c.056-.98.1-1.961.109-2.941a3.952 3.952 0 0 0 -1.673-.45l.026.636q.049 1.188.082 2.375z" fill="#b6cf50"/><path d="m11.23 28a5.606 5.606 0 0 0 -.889.037l-.026.005a4.922 4.922 0 0 0 -.782.165 5.43 5.43 0 0 0 -3.283 3.193.915.915 0 0 0 -.026.694.85.85 0 0 0 .2.326l.05.05a.909.909 0 0 0 1.05.15 5.084 5.084 0 0 1 .619-.246 7.205 7.205 0 0 1 1.857-.374 2.012 2.012 0 0 1 1.76 1.05 2.035 2.035 0 0 1 .21 1.28 1.869 1.869 0 0 1 -.18.58 1.892 1.892 0 0 1 -1.79 1.09 2.509 2.509 0 0 1 -1.715-.46 1.018 1.018 0 0 1 -.168-.224l-.01-.013a1.053 1.053 0 0 1 -.107-.303h-3v.53a4.109 4.109 0 0 0 2 3.47 7.476 7.476 0 0 0 3 .94 8.386 8.386 0 0 0 1 .06 6 6 0 0 0 5.95-5.26 6.246 6.246 0 0 0 -.14-2.26 5.9 5.9 0 0 0 -5.58-4.48z" fill="#3ca04b"/><path d="m14 18c-.17.86-1.1.99-2 1a1.925 1.925 0 0 1 -1.285-.46 2.228 2.228 0 0 1 -.266-.266 1.923 1.923 0 0 1 -.239-.364 1.869 1.869 0 0 1 -.18-.58 2.035 2.035 0 0 1 .21-1.28 1.956 1.956 0 0 1 .276-.376 2.3 2.3 0 0 1 .345-.3 1.974 1.974 0 0 1 1.139-.374 4.624 4.624 0 0 1 .776.094c.137.026.281.057.427.093l.037.009c.121.03.244.064.365.1l.115.034c.1.031.2.064.291.1l.114.041c.125.048.246.1.355.151a.909.909 0 0 0 1.05-.15l.05-.05a.9.9 0 0 0 .17-1.02c-.92-2.04-2.5-3.49-4.98-3.4a5.507 5.507 0 0 0 -.754.09c-.187.03-.368.071-.549.117a5.824 5.824 0 0 0 -4.277 4.271 6.246 6.246 0 0 0 -.14 2.26 5.945 5.945 0 0 0 2.86 4.4 5.867 5.867 0 0 0 2.393.812 5.332 5.332 0 0 0 .697.048 8.386 8.386 0 0 0 1-.06 7.476 7.476 0 0 0 3-.94 4.109 4.109 0 0 0 2-3.47v-.53z" fill="#3ca04b"/><path d="m13 11.989s-.247-4.227 4-3.978c0 0 .247 4.227-4 3.978z" fill="#3ca04b"/><path d="m11 11.989s.247-4.227-4-3.978c0 0-.247 4.227 4 3.978z" fill="#3ca04b"/><path d="m11 37.011s.25 4.227-3.994 3.978c-.006 0-.253-4.227 3.994-3.978z" fill="#3ca04b"/><path d="m13 37.011s-.25 4.227 3.994 3.978c.006 0 .253-4.227-3.994-3.978z" fill="#3ca04b"/><path d="m12 27s0-4 4-4c0 0 0 4-4 4z" fill="#3ca04b"/><path d="m12 27s0-4-4-4c0 0 0 4 4 4z" fill="#3ca04b"/><path d="m16.989 8.011-3.978 3.978c4.235.243 3.989-3.978 3.989-3.978z" fill="#3ca04b"/><path d="m13 11.989h.008l3.978-3.978c-4.232-.243-3.986 3.978-3.986 3.978z" fill="#45c24e"/><path d="m7 8.011s-.249 4.221 3.986 3.978l-3.975-3.978z" fill="#3ca04b"/><path d="m7.011 8.011 3.978 3.978h.011s.246-4.221-3.989-3.978z" fill="#45c24e"/><path d="m16 23-4 4c4 0 4-4 4-4z" fill="#3ca04b"/><path d="m12 27 4-4c-4 0-4 4-4 4z" fill="#45c24e"/><path d="m12 27-4-4s0 4 4 4z" fill="#3ca04b"/><path d="m8 23 4 4s0-4-4-4z" fill="#45c24e"/><path d="m7 40.989h.008l3.978-3.978c-4.232-.243-3.986 3.978-3.986 3.978z" fill="#45c24e"/><path d="m11 37.011h-.008l-3.981 3.978c4.235.243 3.989-3.978 3.989-3.978z" fill="#3ca04b"/><path d="m17 40.989s.249-4.221-3.986-3.978l3.978 3.978z" fill="#45c24e"/><path d="m13.011 37.011h-.011s-.249 4.221 3.986 3.978z" fill="#3ca04b"/><path d="m11 35v3.94a7.476 7.476 0 0 1 -3-.94 4.109 4.109 0 0 1 -2-3.47v-.53h3c.17.86 1.1.99 2 1z" fill="#f6a15b"/><path d="m13 32c2.54 0 4.65.76 4.95 1.74a5.945 5.945 0 0 1 -2.86 4.4l-.09-.14c0-1.66.21-4-2-4l-.21-.09a1.869 1.869 0 0 0 .18-.58 2.035 2.035 0 0 0 -.21-1.28z" fill="#f6a15b"/><path d="m15 38 .09.14a5.906 5.906 0 0 1 -3.09.86 8.386 8.386 0 0 1 -1-.06v-3.94a1.892 1.892 0 0 0 1.79-1.09l.21.09c2.21 0 2 2.34 2 4z" fill="#f8bb8e"/><path d="m12.23 27a5.9 5.9 0 0 1 5.58 4.48 6.246 6.246 0 0 1 .14 2.26c-.3-.98-2.41-1.74-4.95-1.74l-.24.05a2.012 2.012 0 0 0 -1.76-1.05 7.361 7.361 0 0 0 -2.48.62.909.909 0 0 1 -1.05-.15l-.05-.05a.9.9 0 0 1 -.17-1.02c.92-2.04 2.5-3.49 4.98-3.4z" fill="#f8bb8e"/><path d="m13 18v3.94a7.476 7.476 0 0 0 3-.94 4.109 4.109 0 0 0 2-3.47v-.53h-3c-.17.86-1.1.99-2 1z" fill="#f6a15b"/><path d="m11 15c-2.54 0-4.65.76-4.95 1.74a5.945 5.945 0 0 0 2.86 4.4l.09-.14c0-1.66-.21-4 2-4l.21-.09a1.869 1.869 0 0 1 -.18-.58 2.035 2.035 0 0 1 .21-1.28z" fill="#f6a15b"/><path d="m9 21-.09.14a5.906 5.906 0 0 0 3.09.86 8.386 8.386 0 0 0 1-.06v-3.94a1.892 1.892 0 0 1 -1.79-1.09l-.21.09c-2.21 0-2 2.34-2 4z" fill="#f8bb8e"/><path d="m11.766 10a5.9 5.9 0 0 0 -5.58 4.48 6.246 6.246 0 0 0 -.14 2.26c.3-.98 2.41-1.74 4.954-1.74l.24.05a2.012 2.012 0 0 1 1.76-1.05 7.361 7.361 0 0 1 2.48.62.909.909 0 0 0 1.05-.15l.05-.05a.9.9 0 0 0 .17-1.02c-.924-2.04-2.504-3.49-4.984-3.4z" fill="#f8bb8e"/><path d="m10.33 38.839c.222.041.445.078.67.1v-.3a5.794 5.794 0 0 1 -.67.2z" fill="#ffbb43"/><path d="m8 35a1.925 1.925 0 0 0 1.285-.46 1.014 1.014 0 0 1 -.285-.54h-3c.17.86 1.1.99 2 1z" fill="#ffbb43"/><path d="m14.913 32.156a6.168 6.168 0 0 1 .037 1.584 5.863 5.863 0 0 1 -.287 1.232 7.562 7.562 0 0 1 .337 3.028l.09.14a5.945 5.945 0 0 0 2.86-4.4c-.22-.718-1.416-1.315-3.037-1.584z" fill="#ffbb43"/><path d="m14.663 34.972a5.977 5.977 0 0 1 -2.573 3.168 5.775 5.775 0 0 1 -1.09.5v.3a8.386 8.386 0 0 0 1 .06 5.906 5.906 0 0 0 3.09-.86l-.09-.14a7.562 7.562 0 0 0 -.337-3.028z" fill="#ffeb95"/><path d="m12.23 27a5.159 5.159 0 0 0 -1.7.207 5.826 5.826 0 0 1 4.28 4.273 6.468 6.468 0 0 1 .1.676c1.621.269 2.817.866 3.037 1.584a6.246 6.246 0 0 0 -.14-2.26 5.9 5.9 0 0 0 -5.577-4.48z" fill="#ffeb95"/><path d="m7.224 31.094a.858.858 0 0 0 .2.326l.05.05a.909.909 0 0 0 1.05.15 5.084 5.084 0 0 1 .619-.246 1.974 1.974 0 0 0 -1.143-.374 4.521 4.521 0 0 0 -.776.094z" fill="#ffeb95"/><path d="m15 17v.53a4.109 4.109 0 0 1 -2 3.47v.94a7.476 7.476 0 0 0 3-.94 4.109 4.109 0 0 0 2-3.47v-.53z" fill="#ffbb43"/><path d="m8.126 15.371a2.051 2.051 0 0 0 -.1.959 1.945 1.945 0 0 0 1.335 1.57 1.671 1.671 0 0 1 1.639-.9l.21-.09a1.869 1.869 0 0 1 -.18-.58 2.035 2.035 0 0 1 .21-1.28l-.24-.05a10.706 10.706 0 0 0 -2.874.371z" fill="#ffbb43"/><path d="m9.361 17.9a2.05 2.05 0 0 0 .639.1 2.509 2.509 0 0 0 1.715-.46 1.879 1.879 0 0 1 -.505-.63l-.21.09a1.671 1.671 0 0 0 -1.639.9z" fill="#ffeb95"/><path d="m10.67 21.839a6.007 6.007 0 0 0 1.33.161 8.386 8.386 0 0 0 1-.06v-.94a7.237 7.237 0 0 1 -2.33.839z" fill="#ffeb95"/><path d="m8.236 15.05a2.024 2.024 0 0 0 -.11.321 10.706 10.706 0 0 1 2.874-.371l.24.05a2.04 2.04 0 0 1 .621-.676 7.205 7.205 0 0 0 -1.861-.374 2.012 2.012 0 0 0 -1.764 1.05z" fill="#ffeb95"/><path d="m13.746 13.4a.915.915 0 0 1 .026.694 7.391 7.391 0 0 1 1.7.526.909.909 0 0 0 1.05-.15l.05-.05a.9.9 0 0 0 .17-1.02c-.92-2.04-2.5-3.49-4.98-3.4a6.227 6.227 0 0 0 -1.3.207 5.43 5.43 0 0 1 3.284 3.193z" fill="#ffeb95"/><ellipse cx="16.5" cy="31.5" fill="#f6fafd" rx=".5" ry="6.5"/><path d="m12 4h3v2h-3z" fill="#3c9344"/><path d="m9 4h3v2h-3z" fill="#328745"/><path d="m23 3h3v7h-3z" fill="#3c9344"/><path d="m26 5h3v5h-3z" fill="#3ca04b"/><rect fill="#f6d1b0" height="37" rx="4" width="14" x="19" y="10"/><path d="m23.383 34.711c.275-8.247 1.879-16.558 1.024-24.711h-1.407-.018a88.47 88.47 0 0 1 -.462 12.44c-.567 5.23-1.6 10.469-1.152 15.711.2 2.34.7 4.658.716 7.007 0 .57-.022 1.138-.067 1.706a3.986 3.986 0 0 0 .983.136h.747a114.588 114.588 0 0 1 -.364-12.289z" fill="#c8dc7d"/><path d="m26.821 10h-2.414c.855 8.153-.749 16.464-1.024 24.711a114.588 114.588 0 0 0 .364 12.289h2c-.269-2.9-.528-5.808-.58-8.722-.167-9.445 1.824-18.858 1.654-28.278z" fill="#98c95c"/><path d="m21.368 38.151c-.451-5.242.585-10.481 1.152-15.711a88.47 88.47 0 0 0 .462-12.44 3.971 3.971 0 0 0 -2.982 1.38v34.24a3.978 3.978 0 0 0 2.017 1.244c.045-.568.072-1.136.067-1.706-.018-2.349-.515-4.667-.716-7.007z" fill="#98c95c"/><path d="m19 14v29a3.963 3.963 0 0 0 1 2.62v-34.24a3.963 3.963 0 0 0 -1 2.62z" fill="#d44f4f"/><path d="m33 43v-29a3.964 3.964 0 0 0 -.411-1.735c.392 7.424-.957 14.961-1.206 22.446a109.663 109.663 0 0 0 .288 11.247 3.975 3.975 0 0 0 1.329-2.958z" fill="#ffbb43"/><path d="m31.383 34.711c.249-7.485 1.6-15.022 1.206-22.446a3.989 3.989 0 0 0 -1.753-1.8c-.115 9.448-2.543 18.878-1.6 28.291a67.722 67.722 0 0 0 1.38 7.9 4 4 0 0 0 1.059-.7 109.663 109.663 0 0 1 -.292-11.245z" fill="#b6cf50"/><path d="m29.275 16.146c.064-1.831-.011-3.663-.086-5.494l-.026-.636c-.055 0-.107-.016-.163-.016h-2.179c.17 9.42-1.818 18.833-1.65 28.278.052 2.914.311 5.82.58 8.722h2.126a50.415 50.415 0 0 1 -1.177-9.346c-.085-7.228 2.322-14.283 2.575-21.508z" fill="#fd853c"/><path d="m30.836 10.466a3.952 3.952 0 0 0 -1.673-.45l.026.636c.075 1.831.15 3.663.086 5.494-.253 7.225-2.66 14.28-2.572 21.508a50.415 50.415 0 0 0 1.174 9.346h1.123a3.978 3.978 0 0 0 1.612-.344 67.722 67.722 0 0 1 -1.38-7.9c-.939-9.412 1.489-18.842 1.604-28.29z" fill="#c8dc7d"/><path d="m24.616 13c-.038-1-.1-2-.209-3h-1.407-.018q.05 1.5.047 3z" fill="#b6cf50"/><path d="m23 44a3.986 3.986 0 0 1 -.983-.136c.031.431.064.861.067 1.294 0 .57-.022 1.138-.067 1.706a3.986 3.986 0 0 0 .983.136h.747q-.111-1.5-.2-3z" fill="#b6cf50"/><path d="m23.548 44q.087 1.5.2 3h2q-.14-1.5-.263-3z" fill="#81a54b"/><path d="m26.8 13c.025-1 .043-2 .025-3h-2.418c.105 1 .171 2 .209 3z" fill="#81a54b"/><path d="m23 13h.029q0-1.5-.047-3a3.971 3.971 0 0 0 -2.982 1.38v3a3.972 3.972 0 0 1 3-1.38z" fill="#81a54b"/><path d="m22.017 43.864a3.978 3.978 0 0 1 -2.017-1.244v3a3.978 3.978 0 0 0 2.017 1.244c.045-.568.072-1.136.067-1.706-.003-.433-.036-.858-.067-1.294z" fill="#81a54b"/><path d="m19 40v3a3.963 3.963 0 0 0 1 2.62v-3a3.963 3.963 0 0 1 -1-2.62z" fill="#d44f4f"/><path d="m20 11.38a3.963 3.963 0 0 0 -1 2.62v3a3.963 3.963 0 0 1 1-2.62z" fill="#d44f4f"/><path d="m31.5 43.1q.073 1.428.174 2.856a3.975 3.975 0 0 0 1.326-2.956v-3a3.977 3.977 0 0 1 -1.5 3.1z" fill="#f8830d"/><path d="m32.589 12.265c.055 1.037.07 2.077.064 3.118a3.967 3.967 0 0 1 .347 1.617v-3a3.964 3.964 0 0 0 -.411-1.735z" fill="#f8830d"/><path d="m32.653 15.383c.006-1.041-.009-2.081-.064-3.118a3.989 3.989 0 0 0 -1.753-1.8c-.012.98-.053 1.961-.109 2.941a4 4 0 0 1 1.926 1.977z" fill="#81a54b"/><path d="m30.025 43.851q.278 1.405.587 2.805a4 4 0 0 0 1.059-.7q-.1-1.428-.174-2.856a3.967 3.967 0 0 1 -1.472.751z" fill="#81a54b"/><path d="m25.488 44q.123 1.5.263 3h2.126q-.3-1.494-.548-3z" fill="#f8830d"/><path d="m29 13c.093 0 .18.021.271.027q-.032-1.188-.082-2.375l-.026-.636c-.055 0-.107-.016-.163-.016h-2.179c.018 1 0 2-.025 3z" fill="#f8830d"/><path d="m29 44h-1.671q.249 1.5.548 3h1.123a3.978 3.978 0 0 0 1.612-.344q-.31-1.4-.587-2.8a3.984 3.984 0 0 1 -1.025.144z" fill="#b6cf50"/><path d="m29.271 13.027a3.969 3.969 0 0 1 1.456.38c.056-.98.1-1.961.109-2.941a3.952 3.952 0 0 0 -1.673-.45l.026.636q.05 1.188.082 2.375z" fill="#b6cf50"/><path d="m25.23 32a5.606 5.606 0 0 0 -.889.037l-.026.005a4.922 4.922 0 0 0 -.782.165 5.43 5.43 0 0 0 -3.283 3.193.915.915 0 0 0 -.026.694.85.85 0 0 0 .2.326l.05.05a.909.909 0 0 0 1.05.15 5.084 5.084 0 0 1 .619-.246 7.205 7.205 0 0 1 1.857-.374 2.012 2.012 0 0 1 1.76 1.05 2.035 2.035 0 0 1 .21 1.28 1.869 1.869 0 0 1 -.18.58 1.892 1.892 0 0 1 -1.79 1.09 2.509 2.509 0 0 1 -1.715-.46 1.018 1.018 0 0 1 -.168-.224l-.01-.013a1.053 1.053 0 0 1 -.107-.303h-3v.53a4.109 4.109 0 0 0 2 3.47 7.476 7.476 0 0 0 3 .94 8.386 8.386 0 0 0 1 .06 6 6 0 0 0 5.95-5.26 6.246 6.246 0 0 0 -.14-2.26 5.9 5.9 0 0 0 -5.58-4.48z" fill="#3ca04b"/><path d="m28 22c-.17.86-1.1.99-2 1a1.925 1.925 0 0 1 -1.285-.46 2.228 2.228 0 0 1 -.266-.266 1.923 1.923 0 0 1 -.239-.364 1.869 1.869 0 0 1 -.18-.58 2.035 2.035 0 0 1 .21-1.28 1.956 1.956 0 0 1 .276-.376 2.3 2.3 0 0 1 .345-.3 1.974 1.974 0 0 1 1.139-.374 4.624 4.624 0 0 1 .776.094c.137.026.281.057.427.093l.037.009c.121.03.244.064.365.1l.115.034c.1.031.2.064.291.1l.114.041c.125.048.246.1.355.151a.909.909 0 0 0 1.05-.15l.05-.05a.9.9 0 0 0 .17-1.02c-.92-2.04-2.5-3.49-4.98-3.4a5.507 5.507 0 0 0 -.754.09c-.187.03-.368.071-.549.117a5.824 5.824 0 0 0 -4.277 4.271 6.246 6.246 0 0 0 -.14 2.26 5.945 5.945 0 0 0 2.86 4.4 5.867 5.867 0 0 0 2.393.812 5.332 5.332 0 0 0 .697.048 8.386 8.386 0 0 0 1-.06 7.476 7.476 0 0 0 3-.94 4.109 4.109 0 0 0 2-3.47v-.53z" fill="#3ca04b"/><path d="m27 15.989s-.25-4.227 3.994-3.978c.006 0 .253 4.227-3.994 3.978z" fill="#3ca04b"/><path d="m25 15.989s.25-4.227-3.994-3.978c-.006 0-.253 4.227 3.994 3.978z" fill="#3ca04b"/><path d="m25 41.011s.25 4.227-3.994 3.978c-.006 0-.253-4.227 3.994-3.978z" fill="#3ca04b"/><path d="m27 41.011s-.25 4.227 3.994 3.978c.006 0 .253-4.227-3.994-3.978z" fill="#3ca04b"/><path d="m26 31s0-4 4-4c0 0 0 4-4 4z" fill="#3ca04b"/><path d="m26 31s0-4-4-4c0 0 0 4 4 4z" fill="#3ca04b"/><path d="m30.989 12.011-3.978 3.978c4.235.243 3.989-3.978 3.989-3.978z" fill="#3ca04b"/><path d="m27 15.989h.008l3.978-3.978c-4.232-.243-3.986 3.978-3.986 3.978z" fill="#45c24e"/><path d="m21 12.011s-.249 4.221 3.986 3.978l-3.978-3.978z" fill="#3ca04b"/><path d="m21.011 12.011 3.978 3.978h.011s.246-4.221-3.989-3.978z" fill="#45c24e"/><path d="m30 27-4 4c4 0 4-4 4-4z" fill="#3ca04b"/><path d="m26 31 4-4c-4 0-4 4-4 4z" fill="#45c24e"/><path d="m26 31-4-4s0 4 4 4z" fill="#3ca04b"/><path d="m22 27 4 4s0-4-4-4z" fill="#45c24e"/><path d="m21 44.989h.008l3.978-3.978c-4.232-.243-3.986 3.978-3.986 3.978z" fill="#45c24e"/><path d="m25 41.011h-.008l-3.978 3.978c4.232.243 3.986-3.978 3.986-3.978z" fill="#3ca04b"/><path d="m31 44.989s.249-4.221-3.986-3.978l3.978 3.978z" fill="#45c24e"/><path d="m27.011 41.011h-.011s-.249 4.221 3.986 3.978z" fill="#3ca04b"/><path d="m25 39v3.94a7.476 7.476 0 0 1 -3-.94 4.109 4.109 0 0 1 -2-3.47v-.53h3c.17.86 1.1.99 2 1z" fill="#f6a15b"/><path d="m27 36c2.54 0 4.65.76 4.95 1.74a5.945 5.945 0 0 1 -2.86 4.4l-.09-.14c0-1.66.21-4-2-4l-.21-.09a1.869 1.869 0 0 0 .18-.58 2.035 2.035 0 0 0 -.21-1.28z" fill="#f6a15b"/><path d="m29 42 .09.14a5.906 5.906 0 0 1 -3.09.86 8.386 8.386 0 0 1 -1-.06v-3.94a1.892 1.892 0 0 0 1.79-1.09l.21.09c2.21 0 2 2.34 2 4z" fill="#f8bb8e"/><path d="m26.23 31a5.9 5.9 0 0 1 5.58 4.48 6.246 6.246 0 0 1 .14 2.26c-.3-.98-2.41-1.74-4.95-1.74l-.24.05a2.012 2.012 0 0 0 -1.76-1.05 7.361 7.361 0 0 0 -2.48.62.909.909 0 0 1 -1.05-.15l-.05-.05a.9.9 0 0 1 -.17-1.02c.92-2.04 2.5-3.49 4.98-3.4z" fill="#f8bb8e"/><path d="m27 22v3.94a7.476 7.476 0 0 0 3-.94 4.109 4.109 0 0 0 2-3.47v-.53h-3c-.17.86-1.1.99-2 1z" fill="#f6a15b"/><path d="m25 19c-2.54 0-4.65.76-4.95 1.74a5.945 5.945 0 0 0 2.86 4.4l.09-.14c0-1.66-.21-4 2-4l.21-.09a1.869 1.869 0 0 1 -.18-.58 2.035 2.035 0 0 1 .21-1.28z" fill="#f6a15b"/><path d="m23 25-.09.14a5.906 5.906 0 0 0 3.09.86 8.386 8.386 0 0 0 1-.06v-3.94a1.892 1.892 0 0 1 -1.79-1.09l-.21.09c-2.21 0-2 2.34-2 4z" fill="#f8bb8e"/><path d="m25.766 14a5.9 5.9 0 0 0 -5.58 4.48 6.246 6.246 0 0 0 -.14 2.26c.3-.98 2.41-1.74 4.95-1.74l.24.05a2.012 2.012 0 0 1 1.764-1.05 7.361 7.361 0 0 1 2.48.62.909.909 0 0 0 1.05-.15l.05-.05a.9.9 0 0 0 .17-1.02c-.924-2.04-2.504-3.49-4.984-3.4z" fill="#f8bb8e"/><path d="m24.33 42.839c.222.041.445.078.67.1v-.3a5.794 5.794 0 0 1 -.67.2z" fill="#ffbb43"/><path d="m22 39a1.925 1.925 0 0 0 1.285-.46 1.014 1.014 0 0 1 -.285-.54h-3c.17.86 1.1.99 2 1z" fill="#ffbb43"/><path d="m28.913 36.156a6.168 6.168 0 0 1 .037 1.584 5.863 5.863 0 0 1 -.287 1.232 7.562 7.562 0 0 1 .337 3.028l.09.14a5.945 5.945 0 0 0 2.86-4.4c-.22-.718-1.416-1.315-3.037-1.584z" fill="#ffbb43"/><path d="m28.663 38.972a5.977 5.977 0 0 1 -2.573 3.168 5.775 5.775 0 0 1 -1.09.5v.3a8.386 8.386 0 0 0 1 .06 5.906 5.906 0 0 0 3.09-.86l-.09-.14a7.562 7.562 0 0 0 -.337-3.028z" fill="#ffeb95"/><path d="m26.23 31a5.159 5.159 0 0 0 -1.7.207 5.826 5.826 0 0 1 4.28 4.273 6.468 6.468 0 0 1 .1.676c1.621.269 2.817.866 3.037 1.584a6.246 6.246 0 0 0 -.14-2.26 5.9 5.9 0 0 0 -5.577-4.48z" fill="#ffeb95"/><path d="m21.224 35.094a.858.858 0 0 0 .2.326l.05.05a.909.909 0 0 0 1.05.15 5.084 5.084 0 0 1 .619-.246 1.974 1.974 0 0 0 -1.143-.374 4.521 4.521 0 0 0 -.776.094z" fill="#ffeb95"/><path d="m29 21v.53a4.109 4.109 0 0 1 -2 3.47v.94a7.476 7.476 0 0 0 3-.94 4.109 4.109 0 0 0 2-3.47v-.53z" fill="#ffbb43"/><path d="m22.126 19.371a2.051 2.051 0 0 0 -.1.959 1.945 1.945 0 0 0 1.335 1.57 1.671 1.671 0 0 1 1.639-.9l.21-.09a1.869 1.869 0 0 1 -.18-.58 2.035 2.035 0 0 1 .21-1.28l-.24-.05a10.706 10.706 0 0 0 -2.874.371z" fill="#ffbb43"/><path d="m23.361 21.9a2.05 2.05 0 0 0 .639.1 2.509 2.509 0 0 0 1.715-.46 1.879 1.879 0 0 1 -.5-.63l-.215.09a1.671 1.671 0 0 0 -1.639.9z" fill="#ffeb95"/><path d="m24.67 25.839a6.007 6.007 0 0 0 1.33.161 8.386 8.386 0 0 0 1-.06v-.94a7.237 7.237 0 0 1 -2.33.839z" fill="#ffeb95"/><path d="m22.236 19.05a2.024 2.024 0 0 0 -.11.321 10.706 10.706 0 0 1 2.874-.371l.24.05a2.04 2.04 0 0 1 .621-.676 7.205 7.205 0 0 0 -1.861-.374 2.012 2.012 0 0 0 -1.764 1.05z" fill="#ffeb95"/><path d="m27.746 17.4a.915.915 0 0 1 .026.694 7.391 7.391 0 0 1 1.7.526.909.909 0 0 0 1.05-.15l.05-.05a.9.9 0 0 0 .17-1.02c-.92-2.04-2.5-3.49-4.98-3.4a6.227 6.227 0 0 0 -1.3.207 5.43 5.43 0 0 1 3.284 3.193z" fill="#ffeb95"/><path d="m26 8h3v2h-3z" fill="#3c9344"/><path d="m23 7h3v3h-3z" fill="#328745"/><ellipse cx="6.5" cy="14.5" fill="#f6fafd" rx=".5" ry="5.5"/><ellipse cx="8" cy="23.5" fill="#f6fafd" rx="1" ry="8.5"/><ellipse cx="16" cy="9" fill="#f6fafd" rx="1.65" ry="2.297" transform="matrix(.707 -.707 .707 .707 -1.676 13.956)"/><ellipse cx="17" cy="13" fill="#f6fafd" rx=".825" ry="1.148" transform="matrix(.707 -.707 .707 .707 -4.212 15.836)"/><ellipse cx="8" cy="40" fill="#f6fafd" rx="1.65" ry="2.297" transform="matrix(.707 -.707 .707 .707 -25.949 17.384)"/><ellipse cx="7" cy="36" fill="#f6fafd" rx=".825" ry="1.148" transform="matrix(.707 -.707 .707 .707 -23.413 15.504)"/><ellipse cx="20.5" cy="18.5" fill="#f6fafd" rx=".5" ry="5.5"/><ellipse cx="30.5" cy="35.5" fill="#f6fafd" rx=".5" ry="6.5"/><ellipse cx="22" cy="27.5" fill="#f6fafd" rx="1" ry="8.5"/><ellipse cx="30" cy="13" fill="#f6fafd" rx="1.65" ry="2.297" transform="matrix(.707 -.707 .707 .707 -.401 25.031)"/><ellipse cx="31" cy="17" fill="#f6fafd" rx=".825" ry="1.148" transform="matrix(.707 -.707 .707 .707 -2.938 26.911)"/><ellipse cx="22" cy="44" fill="#f6fafd" rx="1.65" ry="2.297" transform="matrix(.707 -.707 .707 .707 -24.674 28.46)"/><ellipse cx="21" cy="40" fill="#f6fafd" rx=".825" ry="1.148" transform="matrix(.707 -.707 .707 .707 -22.138 26.58)"/><path d="m9 3h-2v3.555a3.955 3.955 0 0 1 2-.555z" fill="#344e75"/><path d="m23 5h-2v5.555a3.955 3.955 0 0 1 2-.555z" fill="#344e75"/><path d="m19 43v-4a3.982 3.982 0 0 1 -2 3.445v2.555a3.955 3.955 0 0 0 .555 2h5.445a4 4 0 0 1 -4-4z" fill="#344e75"/><path d="m7 45h6a3.994 3.994 0 0 0 3.64-2.36 3.961 3.961 0 0 1 -1.64.36h-6a4 4 0 0 1 -4-4v-29a3.961 3.961 0 0 1 .36-1.64 3.994 3.994 0 0 0 -2.36 3.64v29a4 4 0 0 0 4 4z" fill="#344e75"/><path d="m40 33a7 7 0 0 1 -7-7v6.894a6.992 6.992 0 0 0 10.846-1.048 6.963 6.963 0 0 1 -3.846 1.154z" fill="#344e75"/><path d="m34.154 22.154a7.032 7.032 0 0 0 -1.154.952v2.894a6.963 6.963 0 0 1 1.154-3.846z" fill="#344e75"/><path d="m45 37.052c.661.14 1.328.263 2 .373v-11.425a6.972 6.972 0 0 1 -2 4.894z" fill="#f0f8fe"/><path d="m23 3h18a4 4 0 0 1 4 4v14.106a6.972 6.972 0 0 1 2 4.894v-19a6 6 0 0 0 -6-6h-26v2z" fill="#f0f8fe"/><path d="m44 31.74v5.081c.333.079.665.159 1 .231v-6.158a7.027 7.027 0 0 1 -1 .846z" fill="#dbe2f8"/><path d="m40 4a4 4 0 0 1 4 4v12.26a7.027 7.027 0 0 1 1 .846v-14.106a4 4 0 0 0 -4-4h-15v1z" fill="#dbe2f8"/><path d="m15 3h8v1h-8z" fill="#dbe2f8"/><path d="m43.846 31.846a7.1 7.1 0 0 1 -.846 1.031v3.7c.331.087.666.165 1 .244v-5.081c-.052.036-.1.072-.155.106z" fill="#a1afda"/><path d="m29 5h10a4 4 0 0 1 4 4v10.683a6.926 6.926 0 0 1 1 .577v-12.26a4 4 0 0 0 -4-4h-14v1z" fill="#a1afda"/><path d="m43.052 32.292-.052.025c.018-.004.034-.017.052-.025z" fill="#8599c9"/><path d="m21 5h2v-1h-8v1z" fill="#a1afda"/><path d="m42.031 32.7h.013z" fill="#a1afda"/><path d="m40.937 32.93c.075-.01.148-.021.222-.034-.074.013-.148.024-.222.034z" fill="#a1afda"/><path d="m22.037 10.129c-.1.026-.2.058-.29.091.089-.03.177-.06.269-.083z" fill="#a1afda"/><path d="m22.982 10h.018a3.794 3.794 0 0 0 -.679.068 4 4 0 0 1 .661-.068z" fill="#a1afda"/><path d="m29 10a3.931 3.931 0 0 1 1.029.151l.021.006a3.99 3.99 0 0 1 2.539 2.107 3.641 3.641 0 0 1 .154.364 3.96 3.96 0 0 1 .15.482c.016.069.026.139.039.21a3.794 3.794 0 0 1 .068.68v9.106a7.032 7.032 0 0 1 1.154-.952 6.975 6.975 0 0 1 8.846-2.471v-10.683a4 4 0 0 0 -4-4h-10z" fill="#b4bde5"/><path d="m43 32.321-.083.04c.028-.016.056-.027.083-.04z" fill="#a1afda"/><path d="m38.181 34.988a42.46 42.46 0 0 0 4.819 1.589v-3.7a6.953 6.953 0 0 1 -4.819 2.111z" fill="#b4bde5"/><path d="m33.708 22.948c-.022.045-.044.089-.065.135.021-.046.043-.09.065-.135z" fill="#a1afda"/><path d="m16.029 6.151.021.006a3.99 3.99 0 0 1 2.539 2.107 3.641 3.641 0 0 1 .154.364 3.96 3.96 0 0 1 .15.482c.016.069.026.139.039.21a3.794 3.794 0 0 1 .068.68v4a3.454 3.454 0 0 1 .217-1.243c.022-.066.036-.136.062-.2a3.952 3.952 0 0 1 .3-.593l.013-.023a3.979 3.979 0 0 1 1.008-1.125 4.171 4.171 0 0 1 .4-.262v-5.554h-6v1a3.931 3.931 0 0 1 1.029.151z" fill="#b4bde5"/><path d="m33.1 24.841c-.013.074-.024.147-.034.222.014-.075.025-.148.034-.222z" fill="#a1afda"/><path d="m33.305 23.956v.013z" fill="#a1afda"/><path d="m43 32.877a7.1 7.1 0 0 0 .846-1.031 6.918 6.918 0 0 1 -.793.446c-.018.009-.034.021-.052.029z" fill="#344e75"/><path d="m21 10.555c.088-.051.177-.1.27-.146.021-.011.04-.024.062-.034a4.091 4.091 0 0 1 .414-.154c.095-.033.191-.065.29-.091.033-.008.064-.022.1-.029.062-.014.124-.021.187-.032a3.794 3.794 0 0 1 .677-.069v-5h-2z" fill="#4c648c"/><path d="m42.917 32.357a6.914 6.914 0 0 1 -.873.338h-.013a6.848 6.848 0 0 1 -.872.2c-.074.013-.147.024-.222.034a6.952 6.952 0 0 1 -7.937-6.929v6.53a42.809 42.809 0 0 0 5.181 2.458 6.953 6.953 0 0 0 4.819-2.111v-.556c-.027.013-.055.024-.083.036z" fill="#4c648c"/><path d="m33.1 24.841a6.81 6.81 0 0 1 .2-.872v-.013a6.914 6.914 0 0 1 .338-.873c.021-.046.043-.09.065-.135a6.918 6.918 0 0 1 .446-.793 7.032 7.032 0 0 0 -1.149.951v2.894a7.051 7.051 0 0 1 .07-.937c.01-.075.021-.148.03-.222z" fill="#4c648c"/><path d="m45 22.686a5.991 5.991 0 0 1 0 6.628v1.58a6.988 6.988 0 0 0 0-9.788z" fill="#f9e6d8"/><path d="m44 30.463v1.277a7.027 7.027 0 0 0 1-.846v-1.58a6.025 6.025 0 0 1 -1 1.149z" fill="#f9e6d8"/><path d="m44 20.26v1.277a6.025 6.025 0 0 1 1 1.149v-1.58a7.027 7.027 0 0 0 -1-.846z" fill="#f9e6d8"/><path d="m43 31.191v1.126l.052-.025a7 7 0 0 0 .793-.446c.052-.034.1-.07.155-.106v-1.277a6.032 6.032 0 0 1 -1 .728z" fill="#f9e6d8"/><path d="m43 20.809a6.032 6.032 0 0 1 1 .728v-1.277a6.926 6.926 0 0 0 -1-.577z" fill="#f9e6d8"/><path d="m34 26a5.993 5.993 0 0 1 9-5.191v-1.126a6.96 6.96 0 0 0 -9.292 3.265c-.022.045-.044.089-.065.135a6.914 6.914 0 0 0 -.338.873v.013a7.024 7.024 0 0 0 -.2.872c-.013.074-.024.147-.034.222a6.952 6.952 0 0 0 7.867 7.867c.074-.01.148-.021.222-.034a7.024 7.024 0 0 0 .872-.2h.013a6.914 6.914 0 0 0 .873-.338l.083-.04v-1.127a5.993 5.993 0 0 1 -9.001-5.191z" fill="#f9e6d8"/><path d="m43.052 32.292a6.918 6.918 0 0 0 .793-.446 7 7 0 0 1 -.793.446z" fill="#f9e6d8"/><path d="m42.044 32.7a6.914 6.914 0 0 0 .873-.338 6.914 6.914 0 0 1 -.873.338z" fill="#f9e6d8"/><path d="m40 33a7.051 7.051 0 0 0 .937-.07 7.051 7.051 0 0 1 -.937.07z" fill="#f9e6d8"/><path d="m41.159 32.9a6.848 6.848 0 0 0 .872-.2 7.024 7.024 0 0 1 -.872.2z" fill="#f9e6d8"/><path d="m33.3 23.969a6.81 6.81 0 0 0 -.2.872 7.024 7.024 0 0 1 .2-.872z" fill="#f9e6d8"/><path d="m33.07 25.063a7.051 7.051 0 0 0 -.07.937 7.051 7.051 0 0 1 .07-.937z" fill="#f9e6d8"/><path d="m33.643 23.083a6.914 6.914 0 0 0 -.338.873 6.914 6.914 0 0 1 .338-.873z" fill="#f9e6d8"/><path d="m34.154 22.155a6.918 6.918 0 0 0 -.446.793 7 7 0 0 1 .446-.793z" fill="#f9e6d8"/><path d="m45 29.314a5.991 5.991 0 0 0 0-6.628z" fill="#eb9962"/><path d="m44 28.973v1.49a6.025 6.025 0 0 0 1-1.149v-3.314a4.959 4.959 0 0 1 -1 2.973z" fill="#eb9962"/><path d="m44 21.537v1.49a4.959 4.959 0 0 1 1 2.973v-3.314a6.025 6.025 0 0 0 -1-1.149z" fill="#eb9962"/><path d="m43 22.023a4.981 4.981 0 0 1 1 1v-1.49a6.032 6.032 0 0 0 -1-.728z" fill="#eb9962"/><path d="m43 29.977v1.214a6.032 6.032 0 0 0 1-.728v-1.49a4.981 4.981 0 0 1 -1 1.004z" fill="#eb9962"/><path d="m40 31a5 5 0 1 1 3-8.977v-1.214a6 6 0 1 0 0 10.382v-1.214a4.956 4.956 0 0 1 -3 1.023z" fill="#eb9962"/><path d="m43 28.447c.094-.055.192-.105.281-.167a3.951 3.951 0 0 0 -.281-4.9z" fill="#9e613b"/><path d="m41.652 29.634c-.049.023-.1.047-.147.068.051-.021.095-.045.147-.068z" fill="#9e613b"/><path d="m36.072 25.281c.01-.051.018-.1.029-.151-.011.05-.019.1-.029.151z" fill="#9e613b"/><path d="m42.271 29.288c-.043.03-.091.055-.135.084.045-.029.092-.054.135-.084z" fill="#9e613b"/><path d="m40.87 29.9c-.05.011-.1.019-.151.029.051-.011.101-.019.151-.029z" fill="#9e613b"/><path d="m40.5 28.95a3.9 3.9 0 0 0 .5.05 3.954 3.954 0 0 0 2-.553v-2.447a2.99 2.99 0 0 1 -2.5 2.95z" fill="#9e613b"/><path d="m40 22a3.978 3.978 0 0 0 -2.281.72 3.977 3.977 0 0 0 -.719 2.28 3.9 3.9 0 0 0 .05.5 3 3 0 0 1 5.95.5v-2.62a3.972 3.972 0 0 0 -3-1.38z" fill="#9e613b"/><path d="m37.1 23.263c.055-.058.112-.115.17-.169-.063.055-.119.106-.17.169z" fill="#9e613b"/><path d="m36.628 23.865c.029-.045.054-.093.084-.137-.03.044-.055.092-.084.137z" fill="#9e613b"/><path d="m36.3 24.494c.021-.05.045-.1.068-.146-.025.052-.049.096-.068.146z" fill="#9e613b"/><path d="m42.906 28.734c-.054.058-.111.115-.168.169.062-.054.113-.11.168-.169z" fill="#9e613b"/><path d="m40.5 28.95a3 3 0 1 0 -3.45-3.45 3.976 3.976 0 0 0 3.45 3.45zm1.125-4c.217-.093.448.078.514.382a.634.634 0 0 1 -.274.716c-.218.093-.448-.078-.515-.381a.637.637 0 0 1 .276-.716zm-1.277 1.39a.636.636 0 0 1 .7-.313c.22.088.262.372.094.634a.636.636 0 0 1 -.7.313c-.219-.089-.261-.374-.094-.634zm-1.076-1.14a.313.313 0 0 1 .279-.191.565.565 0 0 1 -.2-.338.637.637 0 0 1 .275-.717c.217-.093.448.078.514.382a.634.634 0 0 1 -.274.716.258.258 0 0 1 -.062.009.538.538 0 0 1 .1.045.634.634 0 0 1 .313.7c-.088.22-.372.262-.634.095a.638.638 0 0 1 -.311-.701zm-.924 1.143a.636.636 0 0 1 .7-.313c.22.088.262.372.094.634a.636.636 0 0 1 -.7.313c-.219-.092-.261-.377-.094-.637z" fill="#87481c"/><path d="m43 28.637a4.046 4.046 0 0 0 .281-.357 3.992 3.992 0 0 1 -.281.34z" fill="#68331b"/><path d="m36.366 24.348a4.021 4.021 0 0 1 .262-.483 4.167 4.167 0 0 0 -.262.483z" fill="#68331b"/><path d="m36 26a4.057 4.057 0 0 1 .072-.719 4.057 4.057 0 0 0 -.072.719z" fill="#68331b"/><path d="m40.719 29.928a4.057 4.057 0 0 1 -.719.072 4.047 4.047 0 0 0 .719-.072z" fill="#68331b"/><path d="m36.1 25.13a4.01 4.01 0 0 1 .2-.636 4.01 4.01 0 0 0 -.2.636z" fill="#68331b"/><path d="m42.906 28.734c.031-.033.064-.063.094-.1v-.014c-.032.038-.06.08-.094.114z" fill="#68331b"/><path d="m41.505 29.7a3.966 3.966 0 0 1 -.635.2 3.966 3.966 0 0 0 .635-.2z" fill="#68331b"/><path d="m37.266 23.094a3.964 3.964 0 0 1 .453-.374 4.052 4.052 0 0 0 -.453.374z" fill="#68331b"/><path d="m36.712 23.728a3.984 3.984 0 0 1 .384-.465 4.069 4.069 0 0 0 -.384.465z" fill="#68331b"/><path d="m42.738 28.9a3.914 3.914 0 0 1 -.467.385 4 4 0 0 0 .467-.385z" fill="#68331b"/><path d="m42.136 29.372a3.959 3.959 0 0 1 -.484.262 4.1 4.1 0 0 0 .484-.262z" fill="#68331b"/><path d="m43 28.62a3.992 3.992 0 0 0 .281-.34c-.089.062-.187.112-.281.167z" fill="#68331b"/><path d="m43 28.447a3.954 3.954 0 0 1 -2 .553 3.9 3.9 0 0 1 -.5-.05 3.06 3.06 0 0 1 -.5.05 3 3 0 0 1 -3-3 3.06 3.06 0 0 1 .05-.5 3.9 3.9 0 0 1 -.05-.5 3.977 3.977 0 0 1 .719-2.281 3.964 3.964 0 0 0 -.453.374c-.058.054-.115.111-.17.169a3.984 3.984 0 0 0 -.384.465c-.03.044-.055.092-.084.137a4.021 4.021 0 0 0 -.262.483c-.023.049-.047.1-.068.146a4.01 4.01 0 0 0 -.2.636c-.011.05-.019.1-.029.151a4.057 4.057 0 0 0 -.069.72 4 4 0 0 0 4 4 4.057 4.057 0 0 0 .719-.072c.051-.01.1-.018.151-.029a3.966 3.966 0 0 0 .635-.2c.05-.021.1-.045.147-.068a3.959 3.959 0 0 0 .484-.262c.044-.029.092-.054.135-.084a3.914 3.914 0 0 0 .467-.385c.057-.054.114-.111.168-.169.034-.036.062-.076.094-.114z" fill="#68331b"/><path d="m40 29a3.06 3.06 0 0 0 .5-.05 3.06 3.06 0 0 1 -.5.05z" fill="#68331b"/><path d="m37.05 25.5a3.06 3.06 0 0 0 -.05.5 3.06 3.06 0 0 1 .05-.5z" fill="#68331b"/><path d="m37.05 25.5a3.06 3.06 0 0 0 -.05.5 3 3 0 0 0 3 3 3.06 3.06 0 0 0 .5-.05 3.976 3.976 0 0 1 -3.45-3.45z" fill="#68331b"/><path d="m38.443 26.974a.636.636 0 0 0 .7-.313c.168-.262.126-.546-.094-.634a.636.636 0 0 0 -.7.313c-.168.26-.126.545.094.634z" fill="#f6d1b0"/><path d="m39.866 25.049a.634.634 0 0 0 .274-.716c-.066-.3-.3-.475-.514-.382a.637.637 0 0 0 -.275.717.565.565 0 0 0 .2.338.545.545 0 0 1 .253.052.258.258 0 0 0 .062-.009z" fill="#fa2a2a"/><path d="m18.893 9.111c.017.069.026.14.039.21-.013-.071-.023-.141-.039-.21z" fill="#f6d1b0"/><path d="m18.589 8.265c.057.118.108.24.154.364a3.641 3.641 0 0 0 -.154-.364z" fill="#f6d1b0"/><path d="m16.029 6.151a3.931 3.931 0 0 0 -1.029-.151c.056 0 .108.014.163.016a3.9 3.9 0 0 1 .866.135z" fill="#f6d1b0"/><path d="m18.589 8.264a3.99 3.99 0 0 0 -2.539-2.107 4.014 4.014 0 0 1 2.539 2.107z" fill="#f6d1b0"/><path d="m15.829 14.709v.1c.125.241.243.487.373.726.032-.3.062-.6.093-.9a.892.892 0 0 1 -.466.074z" fill="#d7e99f"/><path d="m16.064 10.91a2.907 2.907 0 0 1 -.609.535 6.051 6.051 0 0 1 .664.839.592.592 0 0 1 .275-.231.788.788 0 0 1 .148-.021c.03-.347.055-.694.081-1.041a2.032 2.032 0 0 1 -.559-.081z" fill="#d7e99f"/><path d="m12.821 6h-.4c.12.458.251.912.386 1.364.006-.455.022-.909.014-1.364z" fill="#98c95c"/><path d="m18.589 8.265c.041.775.053 1.551.059 2.328 0-.777-.018-1.553-.059-2.328z" fill="#98c95c"/><path d="m18.589 8.265v-.001z" fill="#98c95c"/><path d="m16.836 6.466c0 .356-.018.711-.028 1.067a3.144 3.144 0 0 1 .782.825 2.057 2.057 0 0 1 .289 1.882 3.937 3.937 0 0 1 .774 1.143c0-.264 0-.527 0-.79-.006-.777-.018-1.553-.059-2.328a4 4 0 0 0 -1.758-1.799z" fill="#98c95c"/><path d="m16.836 6.466c0 .353-.028.706-.039 1.059l.011.008c.01-.356.024-.711.028-1.067z" fill="#98c95c"/><path d="m12 4h-.052c.016.075.036.149.052.223z" fill="#328745"/><path d="m19.076 13.241a3.955 3.955 0 0 1 .141-.484 3.955 3.955 0 0 0 -.141.484z" fill="#f6d1b0"/><path d="m19.279 12.556a4.049 4.049 0 0 1 .3-.593 3.952 3.952 0 0 0 -.3.593z" fill="#f6d1b0"/><path d="m32.893 13.111c.017.069.026.14.039.21-.013-.071-.023-.141-.039-.21z" fill="#f6d1b0"/><path d="m32.589 12.265c.057.118.108.24.154.364a3.641 3.641 0 0 0 -.154-.364z" fill="#f6d1b0"/><path d="m20.6 10.816a3.979 3.979 0 0 0 -1.015 1.124 3.977 3.977 0 0 1 .415-.56 4.126 4.126 0 0 1 .6-.564z" fill="#f6d1b0"/><path d="m32.589 12.264a3.99 3.99 0 0 0 -2.539-2.107 4.014 4.014 0 0 1 2.539 2.107z" fill="#f6d1b0"/><path d="m22.982 10a4 4 0 0 0 -.661.066c-.033.006-.066.015-.1.022a3.889 3.889 0 0 1 .761-.088z" fill="#f6d1b0"/><path d="m21 10.554a4.171 4.171 0 0 0 -.394.258 4.072 4.072 0 0 1 .566-.345c-.056.033-.116.055-.172.087z" fill="#f6d1b0"/><path d="m22.016 10.137c-.092.023-.18.053-.269.083-.113.039-.226.078-.335.127a3.884 3.884 0 0 1 .604-.21z" fill="#f6d1b0"/><path d="m30.029 10.151a3.931 3.931 0 0 0 -1.029-.151c.056 0 .108.014.163.016a3.9 3.9 0 0 1 .866.135z" fill="#f6d1b0"/><path d="m21.271 10.408c-.093.044-.182.1-.27.146.055-.032.115-.057.172-.087.034-.018.064-.043.098-.059z" fill="#f6d1b0"/><path d="m22.321 10.068c-.063.011-.125.018-.187.032.029-.007.06 0 .088-.01s.066-.016.099-.022z" fill="#f6d1b0"/><path d="m21.747 10.22a4.091 4.091 0 0 0 -.414.154c.025-.012.054-.016.079-.027.109-.047.222-.088.335-.127z" fill="#f6d1b0"/><path d="m24.616 13h-.637a3.385 3.385 0 0 1 .662 1.032c-.006-.344-.012-.688-.025-1.032z" fill="#d7e99f"/><path d="m25.181 19.21a2.031 2.031 0 0 0 -.155 1.12 1.869 1.869 0 0 0 .18.58 1.923 1.923 0 0 0 .247.376 2.32 2.32 0 0 0 .232.233 1.852 1.852 0 0 0 .523.32c.088-.932.165-1.864.241-2.8a3.525 3.525 0 0 0 -.449-.039 1.876 1.876 0 0 0 -.819.21z" fill="#c8dc7d"/><path d="m25.692 27.366.039-.41c-.16.014-.319.024-.479.029.148.13.294.253.44.381z" fill="#c8dc7d"/><path d="m24.616 13c.013.344.019.688.025 1.032.016.038.03.075.045.112.107-.023.217-.037.326-.054a5.488 5.488 0 0 1 .754-.09 5.394 5.394 0 0 1 1 .06c.013-.353.022-.707.031-1.06z" fill="#c8dc7d"/><path d="m20 17.656.007-.01c.019-1.388.086-2.6.181-3.443-.06.062-.131.112-.188.177z" fill="#c8dc7d"/><path d="m21.184 13.461a3.866 3.866 0 0 0 -.436.265 25.774 25.774 0 0 1 .219 2.815c.1-.088.2-.177.3-.258a5.772 5.772 0 0 1 1.022-1.032 3.481 3.481 0 0 1 -1.105-1.79z" fill="#c8dc7d"/><path d="m13.553 9.633a3.233 3.233 0 0 1 .468-.633h-.682c.073.211.139.424.214.633z" fill="#ffbb43"/><path d="m28.48 19.62c-.109-.053-.23-.1-.355-.151l-.114-.041c-.095-.034-.192-.067-.291-.1l-.115-.034c-.121-.036-.244-.07-.365-.1l-.037-.009c-.146-.036-.29-.067-.427-.093-.115-.022-.219-.037-.323-.051-.076.932-.153 1.864-.241 2.8a2.013 2.013 0 0 0 .788.159 2.389 2.389 0 0 0 1.76-.508c.086-.592.161-1.185.23-1.779a.98.98 0 0 1 -.51-.093z" fill="#ffbb43"/><path d="m28.021 13h-1.221c-.009.353-.018.707-.031 1.06a4.787 4.787 0 0 1 .538.113 3.448 3.448 0 0 1 .714-1.173z" fill="#ffbb43"/><path d="m25.731 26.956-.039.41c.394.345.791.687 1.2 1.018a3.3 3.3 0 0 1 .851-.789c.064-.369.127-.737.192-1.106a7.976 7.976 0 0 1 -1.935.451c-.089.011-.179.008-.269.016z" fill="#ffbb43"/><path d="m29.829 18.709a.878.878 0 0 1 -.249.711l-.05.05a.853.853 0 0 1 -.54.243c-.069.594-.144 1.187-.23 1.779a1.017 1.017 0 0 0 .24-.492h1.04q.132-1.182.254-2.365a.892.892 0 0 1 -.465.074z" fill="#d7e99f"/><path d="m29.156 30.1q.02-.3.041-.6a3.431 3.431 0 0 1 -.326.4c.094.062.19.13.285.2z" fill="#d7e99f"/><path d="m30.064 14.91a2.907 2.907 0 0 1 -.609.535 6.051 6.051 0 0 1 .664.839.592.592 0 0 1 .275-.231.788.788 0 0 1 .148-.021c.03-.347.055-.694.081-1.041a2.032 2.032 0 0 1 -.559-.081z" fill="#d7e99f"/><path d="m27.933 26.489c-.065.369-.128.737-.192 1.106a3.833 3.833 0 0 1 1.658-.557q.066-.713.139-1.427a3.933 3.933 0 0 1 -.538.389 6.722 6.722 0 0 1 -1.067.489z" fill="#d7e99f"/><path d="m24.616 13c-.038-1-.1-2-.209-3 .105 1 .171 2 .209 3z" fill="#98c95c"/><path d="m26.8 13c.025-1 .043-2 .025-3h-2.418c.105 1 .171 2 .209 3z" fill="#98c95c"/><path d="m22.982 10c.026.773.031 1.546.036 2.32-.005-.772-.01-1.545-.036-2.32z" fill="#98c95c"/><path d="" fill="#98c95c"/><path d="m22.045 10.128h-.008l-.021.008z" fill="#98c95c"/><path d="m22.134 10.1c-.033.007-.064.021-.1.029h.008c.033-.009.058-.022.092-.029z" fill="#98c95c"/><path d="m21.271 10.408c.021-.011.04-.024.062-.034-.022.01-.041.026-.062.034z" fill="#98c95c"/><path d="m20 14.38c.057-.065.128-.115.188-.177.086-.751.194-1.2.312-1.2.09 0 .175.266.248.726a3.866 3.866 0 0 1 .436-.265 5.22 5.22 0 0 1 -.184-1.273c0-.115 0-.18 0-.18a4.279 4.279 0 0 1 2.015.311c0-.774-.01-1.547-.036-2.32a3.889 3.889 0 0 0 -.76.088c-.059.012-.119.022-.177.038l-.029.009a3.884 3.884 0 0 0 -.6.21c-.082.036-.16.079-.239.12a4.072 4.072 0 0 0 -.566.345 4.126 4.126 0 0 0 -.6.564z" fill="#98c95c"/><path d="m21.412 10.347c-.025.011-.054.015-.079.027s-.041.023-.062.034-.064.041-.1.059c.081-.041.159-.084.241-.12z" fill="#98c95c"/><path d="m22.222 10.09c-.028.005-.059 0-.088.01s-.059.02-.089.028c.055-.016.118-.028.177-.038z" fill="#98c95c"/><path d="m42.14 25.333c-.066-.3-.3-.475-.514-.382a.637.637 0 0 0 -.275.717c.067.3.3.474.515.381a.634.634 0 0 0 .274-.716z" fill="#ff5050"/><path d="m19 10a3.986 3.986 0 0 0 -.068-.679c-.013-.07-.022-.141-.039-.21a3.906 3.906 0 0 0 -.15-.482c-.046-.124-.1-.246-.154-.364.041.775.055 1.551.059 2.328 0 .263.006.527 0 .79a3.967 3.967 0 0 1 .352 1.617z" fill="#ff5050"/><path d="m19.575 11.963a4.049 4.049 0 0 0 -.3.593c-.025.065-.04.134-.062.2a3.955 3.955 0 0 0 -.141.484 4.036 4.036 0 0 0 -.072.76v5.981l.094.132c.03-.211.044-.419.1-.633a5.778 5.778 0 0 1 .806-1.824v-6.276a3.977 3.977 0 0 0 -.412.56z" fill="#ff5050"/><path d="m32.589 12.265c.041.775.053 1.551.059 2.328 0-.777-.018-1.553-.059-2.328z" fill="#98c95c"/><path d="m32.589 12.265v-.001z" fill="#98c95c"/><path d="m30.836 10.466c0 .356-.018.711-.028 1.067a3.144 3.144 0 0 1 .782.825 2.057 2.057 0 0 1 .289 1.882 3.937 3.937 0 0 1 .774 1.143c0-.264 0-.527 0-.79-.006-.777-.018-1.553-.059-2.328a4 4 0 0 0 -1.758-1.799z" fill="#98c95c"/><path d="m30.836 10.466c0 .353-.028.706-.039 1.059l.011.008c.01-.356.024-.711.028-1.067z" fill="#98c95c"/><path d="m15.163 6.016c-.055-.002-.107-.016-.163-.016h-2.179c.008.455-.008.909-.012 1.364.165.55.344 1.095.53 1.636h.682c.023-.024.044-.047.068-.07a1.414 1.414 0 0 1 .7-1.824 1.481 1.481 0 0 1 .415-.092c-.005-.121-.008-.241-.013-.362z" fill="#ff9b23"/><path d="m32.932 13.321c-.013-.07-.022-.141-.039-.21a3.906 3.906 0 0 0 -.15-.482c-.046-.124-.1-.246-.154-.364.041.775.055 1.551.059 2.328 0 .263.006.527 0 .79a3.967 3.967 0 0 1 .352 1.617v-3a3.986 3.986 0 0 0 -.068-.679z" fill="#ff9b23"/><path d="m29.163 10.016c-.055 0-.107-.016-.163-.016h-2.179c.018 1 0 2-.025 3h1.225c.023-.024.044-.047.068-.07a1.414 1.414 0 0 1 .7-1.824 1.481 1.481 0 0 1 .415-.092c-.005-.121-.008-.241-.013-.362z" fill="#ff9b23"/><path d="m17.213 10.894a1.547 1.547 0 0 1 -.59.1c-.026.347-.051.694-.081 1.041a1.321 1.321 0 0 1 1.253.647c.335.523.251 1.091-.189 1.268a.972.972 0 0 1 -.783-.079.868.868 0 0 1 -.247.552l-.05.05a.857.857 0 0 1 -.232.165c-.031.3-.061.6-.093.9.27.5.555.984.844 1.469h.955v.53a3.774 3.774 0 0 1 -.1.833c.124.191.243.387.369.576.21-2.525.373-5.045.386-7.556a3.937 3.937 0 0 0 -.774-1.143 1.2 1.2 0 0 1 -.668.647z" fill="#c8dc7d"/><path d="m16.836 6.466a4.014 4.014 0 0 0 -.786-.309l-.021-.006a3.9 3.9 0 0 0 -.866-.135l.026.636c.005.121.008.241.013.362a2.4 2.4 0 0 1 1.6.511c.006-.353.03-.706.034-1.059z" fill="#c8dc7d"/><path d="m31.879 14.24a1.2 1.2 0 0 1 -.666.654 1.547 1.547 0 0 1 -.59.1c-.026.347-.051.694-.081 1.041a1.321 1.321 0 0 1 1.253.647c.335.523.251 1.091-.189 1.268a.972.972 0 0 1 -.783-.079.868.868 0 0 1 -.247.552l-.05.05a.857.857 0 0 1 -.232.165q-.123 1.179-.254 2.362h1.96v.53a4.109 4.109 0 0 1 -1.752 3.3 4.083 4.083 0 0 1 -.71.78q-.073.714-.139 1.427a5.41 5.41 0 0 1 .601-.037 4.879 4.879 0 0 1 -.8 2.5q-.021.3-.041.6c.331.235.662.471 1 .7.09-1.108.21-1.793.344-1.793.151 0 .286.877.378 2.256.221.141.438.287.661.424.358-5.438 1.086-10.891 1.114-16.3a3.937 3.937 0 0 0 -.777-1.147z" fill="#c8dc7d"/><path d="m24.407 10h-1.407-.018c.026.773.031 1.546.036 2.32a2.931 2.931 0 0 1 .961.678h.637c-.038-.998-.104-1.998-.209-2.998z" fill="#c8dc7d"/><path d="m29.2 11.014a2.4 2.4 0 0 1 1.595.511c.011-.353.035-.706.039-1.059a4.014 4.014 0 0 0 -.786-.309l-.021-.006a3.9 3.9 0 0 0 -.866-.135l.026.636c.007.121.013.241.013.362z" fill="#c8dc7d"/><path d="m41.049 26.027a.636.636 0 0 0 -.7.313c-.167.261-.125.545.095.634a.636.636 0 0 0 .7-.313c.167-.261.125-.546-.095-.634z" fill="#45c24e"/><path d="m39.906 25.1a.538.538 0 0 0 -.1-.045.545.545 0 0 0 -.253-.052.313.313 0 0 0 -.279.191.638.638 0 0 0 .313.7c.262.167.546.125.634-.095a.634.634 0 0 0 -.315-.699z" fill="#45c24e"/><path d="m15 3v-2h-3v2 1h3z" fill="#45c24e"/><path d="m15.828 14.805c0-.032 0-.064 0-.1a.434.434 0 0 1 -.051 0z" fill="#45c24e"/><path d="m14.021 9a3.233 3.233 0 0 0 -.468.633 3.176 3.176 0 0 1 .469-.633c.022-.023.044-.047.067-.07-.024.023-.045.046-.068.07z" fill="#45c24e"/><path d="m15.28 10.532a3.075 3.075 0 0 1 -.441-.371l-.457.457a4.754 4.754 0 0 1 .9.663c.058.055.12.1.176.163a2.907 2.907 0 0 0 .609-.535 2.767 2.767 0 0 1 -.787-.377z" fill="#45c24e"/><path d="m29 5h-3v2 1h3z" fill="#45c24e"/><path d="m23.361 21.9a6.58 6.58 0 0 0 -.367 2.887 6.581 6.581 0 0 1 .365-2.89z" fill="#45c24e"/><path d="m26.453 19.043c.1.014.208.029.323.051.137.026.281.057.427.093l.037.009c.121.03.244.064.365.1l.115.034c.1.031.2.064.291.1l.114.041c.125.048.246.1.355.151a.98.98 0 0 0 .51.093.853.853 0 0 0 .54-.243l.05-.05a.878.878 0 0 0 .249-.711.977.977 0 0 1 -.353-.089c-.109-.053-.23-.1-.356-.151l-.113-.041c-.1-.034-.192-.067-.291-.1l-.116-.03c-.121-.036-.244-.07-.365-.1l-.037-.009c-.146-.036-.29-.067-.427-.093a4.624 4.624 0 0 0 -.771-.098 2.089 2.089 0 0 0 -1.139.374 2.307 2.307 0 0 0 -.346.3 1.994 1.994 0 0 0 -.275.376 1.674 1.674 0 0 0 -.055.16 1.876 1.876 0 0 1 .815-.21 3.525 3.525 0 0 1 .453.043z" fill="#45c24e"/><path d="m20.007 17.646-.007.01a5.778 5.778 0 0 0 -.81 1.824c-.052.214-.066.422-.1.633q.442.615.906 1.212c.025.033.051.066.077.1-.044-.849-.073-1.849-.073-2.925 0-.291 0-.575.007-.854z" fill="#45c24e"/><path d="m20.971 16.668c.089-.136.2-.257.295-.385-.1.081-.2.17-.3.258z" fill="#45c24e"/><path d="m29.579 25.213a7.226 7.226 0 0 1 -1.517.539 8.252 8.252 0 0 1 -1.062.188 8.386 8.386 0 0 1 -1 .06c-.06 0-.118-.009-.178-.012-.175-.006-.349-.014-.519-.036a5.9 5.9 0 0 1 -1.271-.3c-.1-.036-.2-.068-.3-.109.095.094.194.183.289.276.405.394.814.784 1.235 1.162.16 0 .319-.015.479-.029.09-.008.18 0 .269-.016a7.976 7.976 0 0 0 1.933-.451 6.722 6.722 0 0 0 1.063-.485 3.933 3.933 0 0 0 .538-.389 4.083 4.083 0 0 0 .71-.78c-.082.058-.162.119-.248.169-.136.079-.28.143-.421.213z" fill="#45c24e"/><path d="m27.3 14.173a3.451 3.451 0 0 1 .722-1.173c.022-.023.044-.047.067-.07-.024.023-.045.046-.068.07a3.448 3.448 0 0 0 -.721 1.173z" fill="#45c24e"/><path d="m28.382 14.618a4.754 4.754 0 0 1 .9.663c.058.055.12.1.176.163a2.907 2.907 0 0 0 .609-.535 2.767 2.767 0 0 1 -.783-.378 3.075 3.075 0 0 1 -.441-.371z" fill="#45c24e"/><path d="m22.105 13.105-1.094-1.094a4.276 4.276 0 0 1 2.007.311 2.967 2.967 0 0 1 .96.678 3.374 3.374 0 0 1 .663 1.033c.016.037.03.074.044.112-.015-.037-.029-.074-.045-.112a3.385 3.385 0 0 0 -.661-1.033 2.931 2.931 0 0 0 -.961-.678 4.279 4.279 0 0 0 -2.018-.311s0 .065 0 .18c0 .063 0 .14.01.228a5.267 5.267 0 0 0 .174 1.042 3.481 3.481 0 0 0 1.1 1.79 5.969 5.969 0 0 1 .716-.477c.17-.094.352-.166.531-.245l-.516-.516z" fill="#45c24e"/><path d="m27.857 29.143c.334.256.672.5 1.014.751a3.431 3.431 0 0 0 .326-.4 4.879 4.879 0 0 0 .803-2.494l-.658.658z" fill="#45c24e"/><path d="m14.113 9c-.008-.023-.018-.047-.024-.07-.023.023-.045.047-.067.07a3.176 3.176 0 0 0 -.469.634c.088.242.183.48.275.72a4.4 4.4 0 0 1 .554.264l.457-.457a3.037 3.037 0 0 1 -.429-.519 2.673 2.673 0 0 1 -.297-.642z" fill="#8bd845"/><path d="m28.839 14.161a3.037 3.037 0 0 1 -.429-.519 2.673 2.673 0 0 1 -.3-.642c-.008-.023-.018-.047-.024-.07-.023.023-.045.047-.067.07a3.451 3.451 0 0 0 -.719 1.173 4.5 4.5 0 0 1 1.079.445z" fill="#8bd845"/><path d="m23.978 13a2.967 2.967 0 0 0 -.96-.678 4.276 4.276 0 0 0 -2.007-.311l1.094 1.094.908.908.516.516a6.163 6.163 0 0 1 .934-.322c.061-.015.119-.037.181-.051l.041-.011c-.014-.038-.028-.075-.044-.112a3.374 3.374 0 0 0 -.663-1.033z" fill="#8bd845"/><path d="m29.4 27.038a3.833 3.833 0 0 0 -1.658.557 3.3 3.3 0 0 0 -.851.789c.209.169.423.333.635.5.111.086.22.175.332.26l1.485-1.485.657-.659a5.41 5.41 0 0 0 -.6.038z" fill="#8bd845"/><path d="m28.76 21.492a2.389 2.389 0 0 1 -1.76.508v3a4.119 4.119 0 0 0 1.967-3 3.7 3.7 0 0 0 .033-.47v-.53a1.017 1.017 0 0 1 -.24.492z" fill="#f8bb8e"/><path d="m22.714 21.558c.1.891.182 1.976.231 3.181l.049.052a6.58 6.58 0 0 1 .367-2.887 1.9 1.9 0 0 1 -.647-.346z" fill="#f8bb8e"/><path d="m20.852 22.405c.1.125.213.243.317.366a16.391 16.391 0 0 1 .492-3.26 4.841 4.841 0 0 0 -.676.3c-.022 1.001-.069 1.889-.133 2.594z" fill="#f8bb8e"/><path d="m44 23.027a4.919 4.919 0 1 0 1 2.973 4.981 4.981 0 0 0 -1-2.973zm-.719 5.253a4.046 4.046 0 0 1 -.281.357c-.03.034-.063.064-.094.1-.055.059-.11.115-.168.169a4 4 0 0 1 -.467.385c-.043.03-.09.055-.135.084a4.1 4.1 0 0 1 -.484.262c-.049.023-.1.047-.147.068a3.966 3.966 0 0 1 -.635.2c-.05.011-.1.019-.151.029a4.047 4.047 0 0 1 -.719.066 4 4 0 0 1 -4-4 4.057 4.057 0 0 1 .072-.719c.01-.051.018-.1.029-.151a4.01 4.01 0 0 1 .2-.636c.021-.05.045-.1.068-.146a4.167 4.167 0 0 1 .262-.483c.029-.045.054-.093.084-.137a4.069 4.069 0 0 1 .384-.465c.055-.059.111-.114.17-.169a4.052 4.052 0 0 1 .453-.374 3.994 3.994 0 0 1 5.562 5.56z" fill="#f6d1b0"/><path d="m25.207 20.911a1.624 1.624 0 0 0 .25.375 1.923 1.923 0 0 1 -.247-.376z" fill="#f6d1b0"/><path d="m25.689 21.519c.008.006.014.015.022.021a2.109 2.109 0 0 1 -1.367.445h-.083c-.088 0-.176.011-.265.012a2.065 2.065 0 0 1 -.632-.095 6.581 6.581 0 0 0 -.364 2.898c.242.252.481.507.729.752.1.041.2.073.3.109a5.9 5.9 0 0 0 1.271.3c-.214-.028-.426-.066-.633-.113a7.745 7.745 0 0 0 1.2-.318 6.681 6.681 0 0 0 1.133-.53v-3a2.013 2.013 0 0 1 -.788-.161 1.852 1.852 0 0 1 -.523-.32z" fill="#f6d1b0"/><path d="m27.746 17.4a7.425 7.425 0 0 0 -.828-1.408q-.114-.152-.237-.294a5.318 5.318 0 0 0 -.422-.439c-.046-.043-.091-.085-.138-.125a4.559 4.559 0 0 0 -1.37-.818l-.1-.039c-.061-.021-.119-.049-.183-.069a6.163 6.163 0 0 0 -.934.322c-.179.079-.361.151-.531.245a5.969 5.969 0 0 0 -.709.476 5.772 5.772 0 0 0 -1.022 1.032c-.1.128-.206.249-.295.385.018.574.029 1.189.029 1.832 0 .453 0 .892-.015 1.313a4.841 4.841 0 0 1 .676-.3c.106-.325.22-.511.339-.511.067 0 .133.058.2.166a.756.756 0 0 1 .04-.116 2.035 2.035 0 0 1 .617-.672 1.966 1.966 0 0 1 1.137-.38 4.057 4.057 0 0 1 .59.064 8.484 8.484 0 0 1 1.271.31 2.089 2.089 0 0 1 1.139-.374 4.624 4.624 0 0 1 .776.094.915.915 0 0 0 -.03-.694z" fill="#f6d1b0"/><path d="m24.691 14.159c.107-.024.213-.049.321-.068-.109.017-.219.031-.326.054l-.041.011c-.062.014-.12.036-.181.051.06-.015.121-.024.181-.038z" fill="#f6d1b0"/><path d="m18.267 18.939c.237.353.486.7.733 1.042v-6.981a3.967 3.967 0 0 0 -.347-1.617c-.013 2.511-.176 5.031-.386 7.556z" fill="#ffde45"/><path d="m17.9 18.363a3.774 3.774 0 0 0 .1-.833v-.53h-.955c.275.461.562.913.855 1.363z" fill="#ffde45"/><path d="m32.653 15.383c-.028 5.406-.756 10.859-1.114 16.3.48.294.969.574 1.461.85v-15.533a3.967 3.967 0 0 0 -.347-1.617z" fill="#ffde45"/><path d="m32 21h-3v.53a3.7 3.7 0 0 1 -.033.47 4.119 4.119 0 0 1 -1.967 3v.94a8.252 8.252 0 0 0 1.062-.188 7.226 7.226 0 0 0 1.517-.539c.141-.07.285-.134.421-.213.086-.05.166-.111.248-.169a4.109 4.109 0 0 0 1.752-3.301z" fill="#ffde45"/><path d="m25.236 19.05-.236-.05c-.155 0-.3.009-.455.015-.13 0-.262.007-.389.016-.148.011-.291.028-.434.043-.109.012-.219.023-.325.037-.19.027-.376.058-.556.093h-.029l-.088.019c-.154.032-.3.069-.444.107a7.868 7.868 0 0 1 .372 1.7c.023.167.045.342.066.527a1.9 1.9 0 0 0 .647.346 1.7 1.7 0 0 1 .156-.228 1.427 1.427 0 0 1 .157-.19 1.323 1.323 0 0 1 .186-.154 1.356 1.356 0 0 1 .171-.111c.036-.019.08-.031.118-.048l.016-.006a1.637 1.637 0 0 1 .177-.072c.024-.007.042-.021.067-.028a2.412 2.412 0 0 1 .587-.066l.21-.09a1.869 1.869 0 0 1 -.18-.58 2.031 2.031 0 0 1 .155-1.12 1.674 1.674 0 0 1 .051-.16z" fill="#ffde45"/><path d="m16.2 13.321a.958.958 0 0 1 -.086-1.037 6.051 6.051 0 0 0 -.664-.839c-.056-.058-.118-.108-.176-.163a4.754 4.754 0 0 0 -.9-.663 4.4 4.4 0 0 0 -.554-.264c.075.2.153.391.231.587.125.312.245.627.376.935.166.391.346.775.524 1.16.08.175.155.354.238.528.185.386.384.764.58 1.144a.434.434 0 0 0 .051 0 .892.892 0 0 0 .465-.074.857.857 0 0 0 .232-.165l.05-.05a.868.868 0 0 0 .247-.552 1.5 1.5 0 0 1 -.418-.317 1.514 1.514 0 0 1 -.196-.23z" fill="#fff2ba"/><path d="m25.689 21.519a2.32 2.32 0 0 1 -.232-.233 1.624 1.624 0 0 1 -.25-.375l-.207.089a1.966 1.966 0 0 0 -.41.047c-.055.009-.122.007-.174.019-.025.007-.043.021-.067.028a1.558 1.558 0 0 0 -.177.072l-.016.006c-.038.017-.082.029-.118.048a1.356 1.356 0 0 0 -.171.111l-.008.006a1.569 1.569 0 0 0 -.166.137l-.012.011a1.584 1.584 0 0 0 -.157.19l-.02.03a1.748 1.748 0 0 0 -.126.183l-.01.015a2.065 2.065 0 0 0 .632.097c.089 0 .177-.008.265-.012h.083a2.109 2.109 0 0 0 1.367-.445c-.015-.009-.015-.018-.026-.024z" fill="#fff2ba"/><path d="m24.67 25.839c.207.047.419.085.633.113.17.022.344.03.519.036.06 0 .118.012.178.012a8.386 8.386 0 0 0 1-.06v-.94a6.681 6.681 0 0 1 -1.134.521 7.745 7.745 0 0 1 -1.196.318z" fill="#fff2ba"/><path d="m23.718 19.074c.143-.015.286-.032.434-.043.127-.009.259-.011.389-.016.151-.006.3-.015.455-.015l.24.05a1.826 1.826 0 0 1 .275-.376 2.307 2.307 0 0 1 .346-.3 8.484 8.484 0 0 0 -1.271-.31 4.057 4.057 0 0 0 -.586-.064 1.966 1.966 0 0 0 -1.143.378 2.035 2.035 0 0 0 -.617.672.756.756 0 0 0 -.04.116 1.31 1.31 0 0 1 .076.162v.007c.144-.038.29-.075.444-.107l.088-.019h.029c.18-.035.366-.066.556-.093.107-.016.216-.03.325-.042z" fill="#fff2ba"/><path d="m30.405 17.551a1.514 1.514 0 0 1 -.2-.23.958.958 0 0 1 -.086-1.037 6.051 6.051 0 0 0 -.664-.839c-.056-.058-.118-.108-.176-.163a4.754 4.754 0 0 0 -.9-.663 4.5 4.5 0 0 0 -1.079-.445 4.787 4.787 0 0 0 -.538-.113 5.394 5.394 0 0 0 -1-.06 6.442 6.442 0 0 0 -.754.09c-.108.019-.214.044-.321.068l-.047.01c-.06.014-.121.023-.181.038.064.02.122.048.183.069l.1.039a4.559 4.559 0 0 1 1.37.818c.047.04.092.082.138.125a5.318 5.318 0 0 1 .422.439q.123.142.237.294a7.425 7.425 0 0 1 .828 1.408.915.915 0 0 1 .026.694c.137.026.281.057.427.093l.037.009c.121.03.244.064.365.1l.115.034c.1.031.2.064.291.1l.113.041c.126.048.247.1.356.151a.977.977 0 0 0 .353.089.892.892 0 0 0 .465-.074.857.857 0 0 0 .232-.165l.05-.05a.868.868 0 0 0 .247-.552 1.5 1.5 0 0 1 -.409-.318z" fill="#fff2ba"/><path d="m12 1h-.575c.093.672.2 1.338.328 2 .063.334.125.669.2 1h.047z" fill="#45c24e"/><path d="m12 4.223c.057.26.118.519.179.777.079.334.157.669.244 1h2.577v-2h-3z" fill="#45c24e"/><path d="m26 5v-1-1h-3v1 1 2h3z" fill="#45c24e"/><path d="m26 8v2h.821 2.179v-2z" fill="#45c24e"/><path d="m26 10v-2-1h-3v3h1.407z" fill="#3ca04b"/><g fill="#f6fafd"><path d="m16.816 9.46c-.031.112-.067.226-.11.343-.024.4-.053.792-.083 1.188a1.547 1.547 0 0 0 .59-.1 1.2 1.2 0 0 0 .666-.654 4.019 4.019 0 0 0 -1.063-.777z"/><path d="m16.623 10.991c.03-.4.059-.792.083-1.188a3.5 3.5 0 0 1 -.642 1.107 2.032 2.032 0 0 0 .559.081z"/><path d="m17 8.011s0 .065 0 .18a5.213 5.213 0 0 1 -.184 1.269 4.019 4.019 0 0 1 1.063.78 2.057 2.057 0 0 0 -.289-1.882 3.144 3.144 0 0 0 -.782-.825c0 .16-.007.319-.013.479.069.001.13-.006.205-.001z"/><path d="m16.8 8.012c.006-.16.008-.319.013-.479l-.013-.008c0 .162-.012.325-.018.487a.085.085 0 0 1 .018 0z"/><path d="m15.244 8.225c-.014-.4-.026-.808-.042-1.211a1.481 1.481 0 0 0 -.415.092 1.414 1.414 0 0 0 -.7 1.824 3.007 3.007 0 0 1 1.157-.705z"/><path d="m15.244 8.225c-.013-.4-.026-.808-.042-1.211.016.4.028.807.042 1.211z"/><path d="m16.779 8.012c.006-.162.013-.325.018-.487a2.4 2.4 0 0 0 -1.6-.511c.016.4.029.807.042 1.211a4.386 4.386 0 0 1 1.54-.213z"/><path d="m16.706 9.8c.043-.117.079-.231.11-.343-.031.115-.067.229-.11.343z"/><path d="m16.063 10.91a3.5 3.5 0 0 0 .643-1.11 3.485 3.485 0 0 1 -.643 1.11z"/><path d="m16.816 9.46a5.213 5.213 0 0 0 .184-1.269 5.251 5.251 0 0 1 -.184 1.268z"/><path d="m16.989 8.011h.011c-.072 0-.133 0-.2 0 .062.002.12-.004.189 0z"/><path d=""/><path d="m15.244 8.226a3.007 3.007 0 0 0 -1.155.705 3.017 3.017 0 0 1 1.155-.705z"/><path d="m15.244 8.225v.001z"/><path d="m16.779 8.012a4.386 4.386 0 0 0 -1.535.213 4.361 4.361 0 0 1 1.535-.213z"/><path d="m17 8.011s0 .066 0 .18c0-.115 0-.18 0-.18z"/><path d="m16.816 9.459c-.031-.015-.058-.037-.089-.052-.007.131-.012.263-.021.395.043-.116.079-.23.11-.343z"/><path d="m15.283 9.717-.444.444a3.075 3.075 0 0 0 .441.371c-.001-.272.008-.543.003-.815z"/><path d="m15.875 9.125-.592.592c.005.272 0 .543 0 .815a2.767 2.767 0 0 0 .783.378 3.485 3.485 0 0 0 .64-1.11c.009-.132.014-.264.021-.395a3.873 3.873 0 0 0 -.852-.28z"/><path d="m16.789 8.211c-.015.4-.039.8-.062 1.2.031.015.058.037.089.052a5.251 5.251 0 0 0 .184-1.272c0-.114 0-.18 0-.18h-.008z"/><path d="m16.727 9.407c.023-.4.047-.8.062-1.2l-.018.018c-.017.397-.022.789-.044 1.182z"/><path d="m16.771 8.229-.9.9a3.873 3.873 0 0 1 .852.282c.026-.397.031-.789.048-1.182z"/><path d="m15.271 9.027c-.091-.006-.178-.027-.271-.027h-.887a2.673 2.673 0 0 0 .3.642 3.037 3.037 0 0 0 .429.519l.444-.444c-.007-.23-.008-.46-.015-.69z"/><path d="m15.283 9.717.592-.592a4.25 4.25 0 0 0 -.6-.1c.003.232.004.462.008.692z"/><path d="m16.989 8.011c-.069 0-.127 0-.194 0 0 .066 0 .132-.006.2z"/><path d="m16.789 8.211c0-.067 0-.133.006-.2h-.016c0 .072 0 .145-.008.217z"/><path d="m15 9c.093 0 .18.021.271.027-.007-.267-.018-.534-.027-.8a3.017 3.017 0 0 0 -1.155.7c.006.023.016.047.024.07z"/><path d="m15.271 9.027c-.007-.267-.019-.534-.027-.8.009.267.02.534.027.8z"/><path d="m16.771 8.229c0-.072 0-.145.008-.217a4.361 4.361 0 0 0 -1.535.214c.008.267.02.534.027.8a4.25 4.25 0 0 1 .6.1z"/><path d="m16.746 13.4a.934.934 0 0 1 .077.468.972.972 0 0 0 .783.079c.44-.177.524-.745.189-1.268a1.321 1.321 0 0 0 -1.253-.647c-.023.275-.049.549-.075.824.097.178.194.355.279.544z"/><path d="m16.119 12.284c.123.184.24.373.348.572.026-.275.052-.549.075-.824a.788.788 0 0 0 -.148.021.592.592 0 0 0 -.275.231z"/><path d="m16.746 13.4c-.085-.189-.182-.366-.279-.544-.021.231-.04.463-.062.7a1.5 1.5 0 0 0 .418.317.934.934 0 0 0 -.077-.473z"/><path d="m16.2 13.321a1.514 1.514 0 0 0 .2.23c.022-.232.041-.464.062-.7-.108-.2-.225-.388-.348-.572a.958.958 0 0 0 .086 1.042z"/><path d="m20.967 16.541a25.774 25.774 0 0 0 -.219-2.815 4.176 4.176 0 0 0 -.56.477c-.095.84-.162 2.055-.181 3.443a5.7 5.7 0 0 1 .96-1.105z"/><path d="m20.5 13c-.118 0-.226.452-.312 1.2a4.176 4.176 0 0 1 .56-.477c-.073-.457-.158-.723-.248-.723z"/><path d="m20.046 20.74a6.246 6.246 0 0 1 .14-2.26 5.863 5.863 0 0 1 .785-1.812v-.127a5.7 5.7 0 0 0 -.96 1.105c0 .279-.007.563-.007.854 0 1.076.029 2.076.077 2.923l.147.187a5.807 5.807 0 0 1 -.182-.87z"/><path d="m20.046 20.74a5.807 5.807 0 0 0 .178.87c.209.265.413.535.628.8.064-.7.111-1.593.133-2.592a1.8 1.8 0 0 0 -.939.922z"/><path d="m20.985 19.813c.01-.421.015-.86.015-1.313 0-.643-.011-1.258-.029-1.832a5.863 5.863 0 0 0 -.785 1.812 6.246 6.246 0 0 0 -.14 2.26 1.8 1.8 0 0 1 .939-.927z"/><path d="m30.5 29c-.134 0-.254.685-.344 1.793.238.159.481.309.722.463-.092-1.379-.227-2.256-.378-2.256z"/><path d="m22.714 21.558c-.037-.031-.07-.065-.1-.1-.032.327-.053.655-.089.981-.059.55-.126 1.1-.194 1.65.2.22.412.433.619.649-.05-1.204-.133-2.289-.236-3.18z"/><path d="m22.609 21.459a1.832 1.832 0 0 1 -.4-.549 1.869 1.869 0 0 1 -.18-.58 2.051 2.051 0 0 1 .1-.959c-.159.045-.32.088-.465.14a16.391 16.391 0 0 0 -.492 3.26c.378.447.761.888 1.157 1.319.068-.55.135-1.1.194-1.65.033-.326.054-.654.086-.981z"/><path d="m22.2 19.166c-.063-.108-.129-.166-.2-.166-.119 0-.233.186-.339.511.145-.052.306-.095.465-.14.023-.071.047-.137.074-.205z"/><path d="m22.609 21.459c.035.034.068.068.1.1-.021-.185-.043-.36-.066-.527-.008.142-.02.285-.034.427z"/><path d="m22.276 19.335c-.049.013-.1.023-.15.036a2.051 2.051 0 0 0 -.1.959 1.869 1.869 0 0 0 .18.58 1.832 1.832 0 0 0 .4.549c.014-.142.026-.285.039-.428a7.868 7.868 0 0 0 -.369-1.696z"/><path d="m22.272 19.328c-.051.013-.1.029-.146.043.048-.013.1-.023.15-.036z"/><path d="m22.272 19.328a1.31 1.31 0 0 0 -.076-.162c-.023.068-.047.136-.07.2.05-.009.095-.025.146-.038z"/><path d="m30.816 13.46c-.031.112-.067.226-.11.343-.024.4-.053.792-.083 1.188a1.547 1.547 0 0 0 .59-.1 1.2 1.2 0 0 0 .666-.654 4.019 4.019 0 0 0 -1.063-.777z"/><path d="m30.064 14.91a2.032 2.032 0 0 0 .559.081c.03-.4.059-.792.083-1.188a3.5 3.5 0 0 1 -.642 1.107z"/><path d="m31 12.011s0 .065 0 .18a5.213 5.213 0 0 1 -.184 1.269 4.019 4.019 0 0 1 1.063.78 2.057 2.057 0 0 0 -.289-1.882 3.144 3.144 0 0 0 -.782-.825c0 .16-.007.319-.013.479.069.001.13-.006.205-.001z"/><path d="m30.8 12.012c.006-.16.008-.319.013-.479l-.011-.008c0 .162-.012.325-.018.487a.085.085 0 0 1 .016 0z"/><path d="m29.244 12.225c-.014-.4-.026-.808-.042-1.211a1.481 1.481 0 0 0 -.415.092 1.414 1.414 0 0 0 -.7 1.824 3.007 3.007 0 0 1 1.157-.705z"/><path d="m29.244 12.225c-.013-.4-.026-.808-.042-1.211.016.4.028.807.042 1.211z"/><path d="m30.779 12.012c.006-.162.013-.325.018-.487a2.4 2.4 0 0 0 -1.595-.511c.016.4.029.807.042 1.211a4.386 4.386 0 0 1 1.535-.213z"/><path d="m30.706 13.8c.043-.117.079-.231.11-.343-.031.115-.067.229-.11.343z"/><path d="m30.063 14.91a3.5 3.5 0 0 0 .642-1.107 3.485 3.485 0 0 1 -.642 1.107z"/><path d="m30.989 12.011h.011c-.072 0-.133 0-.2 0 .062.002.12-.004.189 0z"/><path d="m30.816 13.46a5.213 5.213 0 0 0 .184-1.269 5.251 5.251 0 0 1 -.184 1.268z"/><path d=""/><path d="m29.244 12.226a3.007 3.007 0 0 0 -1.155.705 3.017 3.017 0 0 1 1.155-.705z"/><path d="m29.244 12.225v.001z"/><path d="m30.779 12.012a4.386 4.386 0 0 0 -1.535.213 4.361 4.361 0 0 1 1.535-.213z"/><path d="m31 12.011s0 .066 0 .18c0-.115 0-.18 0-.18z"/><path d="m30.816 13.459c-.031-.015-.058-.037-.089-.052-.007.131-.012.263-.021.395.043-.116.079-.23.11-.343z"/><path d="m29.283 13.717-.444.444a3.075 3.075 0 0 0 .441.371c-.001-.272.008-.543.003-.815z"/><path d="m29.875 13.125-.592.592v.815a2.767 2.767 0 0 0 .783.378 3.485 3.485 0 0 0 .643-1.108c.009-.132.014-.264.021-.395a3.873 3.873 0 0 0 -.855-.282z"/><path d="m30.789 12.211c-.015.4-.039.8-.062 1.2.031.015.058.037.089.052a5.251 5.251 0 0 0 .184-1.272c0-.114 0-.18 0-.18h-.008z"/><path d="m30.727 13.407c.023-.4.047-.8.062-1.2l-.018.018c-.017.397-.022.789-.044 1.182z"/><path d="m30.771 12.229-.9.9a3.873 3.873 0 0 1 .852.282c.026-.397.031-.789.048-1.182z"/><path d="m29.271 13.027c-.091-.006-.178-.027-.271-.027h-.887a2.673 2.673 0 0 0 .3.642 3.037 3.037 0 0 0 .429.519l.444-.444c-.007-.23-.008-.46-.015-.69z"/><path d="m29.283 13.717.592-.592a4.25 4.25 0 0 0 -.6-.1c.003.232.004.462.008.692z"/><path d="m30.989 12.011c-.069 0-.127 0-.194 0 0 .066 0 .132-.006.2z"/><path d="m30.789 12.211c0-.067 0-.133.006-.2h-.016c0 .072 0 .145-.008.217z"/><path d="m29 13c.093 0 .18.021.271.027-.007-.267-.018-.534-.027-.8a3.017 3.017 0 0 0 -1.155.7c.006.023.016.047.024.07z"/><path d="m29.271 13.027c-.007-.267-.019-.534-.027-.8.009.267.02.534.027.8z"/><path d="m30.771 12.229c0-.072 0-.145.008-.217a4.361 4.361 0 0 0 -1.535.214c.008.267.02.534.027.8a4.25 4.25 0 0 1 .6.1z"/><path d="m30.746 17.4a.934.934 0 0 1 .077.468.972.972 0 0 0 .783.079c.44-.177.524-.745.189-1.268a1.321 1.321 0 0 0 -1.253-.647c-.023.275-.049.549-.075.824.097.178.194.355.279.544z"/><path d="m30.119 16.284c.123.184.24.373.348.572.026-.275.052-.549.075-.824a.788.788 0 0 0 -.148.021.592.592 0 0 0 -.275.231z"/><path d="m30.746 17.4c-.085-.189-.182-.366-.279-.544-.021.231-.04.463-.062.695a1.5 1.5 0 0 0 .418.317.934.934 0 0 0 -.077-.468z"/><path d="m30.205 17.321a1.514 1.514 0 0 0 .2.23c.022-.232.041-.464.062-.695-.108-.2-.225-.388-.348-.572a.958.958 0 0 0 .086 1.037z"/><ellipse cx="39" cy="8" rx="1.65" ry="2.297" transform="matrix(.707 -.707 .707 .707 5.774 29.932)"/><ellipse cx="42" cy="12" rx=".825" ry="1.148" transform="matrix(.707 -.707 .707 .707 3.824 33.226)"/></g></g></svg>