<svg id="Layer_1" height="512" viewBox="0 0 100 100" width="512" xmlns="http://www.w3.org/2000/svg" data-name="Layer 1"><path d="m84.51 40.51v50.69a2.8 2.8 0 0 1 -2.8 2.8h-63.42a2.8 2.8 0 0 1 -2.8-2.8v-50.69l4.28-17.51h60.46z" fill="#dda25b"/><g opacity=".05"><path d="m77 94h-58.71a2.8 2.8 0 0 1 -2.8-2.8v-50.69l4.28-17.51h60.46l.85 3.48h-49.16l-3.43 14v4.94a48.55 48.55 0 0 0 48.51 48.58z"/></g><rect fill="#dda25b" height="11.88" rx="1.85" width="70.42" x="14.79" y="11.62"/><rect fill="#e2e2e2" height="12.64" rx="1.11" width="9.42" x="45.29" y="19.13"/></svg>