<svg id="Layer_1_copy" height="512" viewBox="0 0 64 64" width="512" xmlns="http://www.w3.org/2000/svg" data-name="Layer 1 copy"><path d="m58 33c-6-10.33-28-4-28-4l10.91 6z" fill="#bcbec0"/><path d="m19 58h26v5h-26z" fill="#a06c04"/><path d="m21 61h22v-1h-22z" fill="#a06c04"/><path d="m9 33s6-7 12-6 21 6 21 6z" fill="#e6e7e8"/><g fill="#3bb03c"><path d="m3 18s-1 7 9 6c0 0-1-9-9-6z"/><path d="m5.09 19.48a3 3 0 0 0 .75 1.35 5.36 5.36 0 0 0 3.57 1.25 4.77 4.77 0 0 0 -1.74-2.26 3.61 3.61 0 0 0 -2.58-.34z"/><path d="m50.75 23.22s5.92 3.87 9.25-5.61c0 0-8.58-2.91-9.25 5.61z"/><path d="m53 21.95a3 3 0 0 0 1.54-.11 5.36 5.36 0 0 0 2.65-2.71 4.78 4.78 0 0 0 -2.78.62 3.62 3.62 0 0 0 -1.41 2.2z"/></g><path d="m62 33v7a18 18 0 0 1 -18 18h-24a18 18 0 0 1 -18-18v-7z" fill="#fdca2f"/><path d="m62 33v7a18 18 0 0 1 -18 18h-24a17.81 17.81 0 0 1 -9.78-2.9v-.07a10.87 10.87 0 0 1 1.1-1.58c2.27-2.86 8.31-8.72 20.45-9.94a35.78 35.78 0 0 0 19.33-8.51c.9-.77 1.62-1.45 2.16-2z" fill="#f2b41c"/><path d="m16 10a1 1 0 0 1 -.12-2l47-6a1 1 0 1 1 .25 2l-47 6z" fill="#844215"/><path d="m13 15a1 1 0 0 1 0-2l50-1a1 1 0 0 1 1 1 1 1 0 0 1 -1 1z" fill="#844215"/><path d="m28 32a1 1 0 0 1 -1-1v-20a1 1 0 0 1 2 0v20a1 1 0 0 1 -1 1z" fill="#e6e7e8"/><path d="m21.88 31a1 1 0 0 1 -1-1v-25a1 1 0 0 1 2 0v25a1 1 0 0 1 -1 1z" fill="#e6e7e8"/><path d="m34 33a1 1 0 0 1 -1-1v-29a1 1 0 0 1 2 0v29a1 1 0 0 1 -1 1z" fill="#e6e7e8"/><path d="m13 41h-1a1 1 0 0 1 0-2h1a1 1 0 0 1 0 2z" fill="#f2b41c"/><path d="m17 41h-1a1 1 0 0 1 0-2h1a1 1 0 0 1 0 2z" fill="#f2b41c"/></svg>