<svg id="Flat" viewBox="0 0 64 64" xmlns="http://www.w3.org/2000/svg"><path d="m32 11.95h5.6a6.149 6.149 0 0 0 6.15-6.15v-1.8a1.751 1.751 0 0 0 -1.75-1.75h-3.6a7.158 7.158 0 0 0 -6.4 3.965z" fill="#95dd73"/><path d="m32 6.215a7.158 7.158 0 0 0 -6.4-3.965h-3.6a1.751 1.751 0 0 0 -1.75 1.75v1.8a6.149 6.149 0 0 0 6.15 6.15h5.6z" fill="#a3e588"/><path d="m52.585 15.518a6.712 6.712 0 0 0 -6.585-5.268h-28a6.712 6.712 0 0 0 -6.585 5.268l-8.602 38.232h58.374z" fill="#f7e3a9"/><path d="m14.48 55.675 8-40a6.769 6.769 0 0 1 6.62-5.425h5.8a6.769 6.769 0 0 1 6.619 5.426l8 40z" fill="#fff0b9"/><path d="m.25 53.75a8 8 0 0 0 8 8h47.5a8 8 0 0 0 8-8 1.751 1.751 0 0 0 -1.75-1.75h-60a1.751 1.751 0 0 0 -1.75 1.75z" fill="#e9f5ff"/></svg>