<svg id="Capa_1" enable-background="new 0 0 512 512" viewBox="0 0 512 512" xmlns="http://www.w3.org/2000/svg"><g><g><g><g><g><g><g><path d="m146.179 145.17c21.178-15.746 45.381-26.629 71.212-32.063-1.802-4.453-2.863-9.278-3.008-14.327-.039-1.37-.002-2.734.092-4.088-1.302-1.468-2.693-2.855-4.184-4.132-7.951-6.809-14.91-14.698-20.144-23.764l-4.755-8.236c-1.932-3.346-6.762-3.346-8.694 0l-7.635 13.224c-4.249 7.36-9.408 14.193-15.62 19.992-8.622 8.048-13.905 19.627-13.539 32.435.219 7.639 2.489 14.805 6.275 20.959z" fill="#fff3de"/></g><g><path d="m178.235 90.56c8.434 7.222 14.005 17.678 14.812 29.448 7.916-2.851 16.047-5.155 24.344-6.901-1.802-4.453-2.863-9.278-3.008-14.327-.039-1.37-.002-2.734.092-4.088-1.302-1.468-2.693-2.855-4.184-4.132-7.951-6.809-14.91-14.698-20.144-23.764l-4.755-8.236c-1.932-3.346-6.762-3.346-8.694 0l-7.635 13.224c-1.125 1.949-2.319 3.857-3.574 5.723 3.819 4.727 8.106 9.08 12.746 13.053z" fill="#ffe5c2"/></g><g><path d="m297.634 97.56c0 5.446-1.045 10.731-3.028 15.632 26.183 5.614 50.319 16.807 71.089 32.283 4.067-6.535 6.418-14.249 6.418-22.513 0-12.969-5.79-24.581-14.924-32.402-7.951-6.809-14.91-14.698-20.144-23.764l-4.755-8.236c-1.932-3.346-6.762-3.346-8.694 0l-7.635 13.224c-4.249 7.36-9.408 14.193-15.62 19.992-.986.921-1.923 1.893-2.819 2.903.067.956.112 1.916.112 2.881z" fill="#fff3de"/></g><g><path d="m324.52 90.56c9.134 7.822 14.924 19.433 14.924 32.402 0 2.027-.148 4.019-.422 5.97 9.379 4.763 18.3 10.304 26.672 16.543 4.067-6.535 6.418-14.249 6.418-22.513 0-12.969-5.79-24.581-14.924-32.402-7.951-6.809-14.91-14.698-20.144-23.764l-4.755-8.236c-1.932-3.346-6.762-3.346-8.694 0l-7.635 13.224c-1.207 2.091-2.497 4.133-3.854 6.128 3.737 4.57 7.908 8.789 12.414 12.648z" fill="#ffe5c2"/></g></g><g><path d="m216.388 113.324c12.443-2.69 25.265-4.127 38.316-4.217l1.295-.004c13.595 0 26.846 1.495 39.609 4.307 1.964-4.902 3.056-10.247 3.056-15.851 0-12.969-5.79-24.581-14.924-32.403-7.951-6.809-14.91-14.698-20.144-23.764l-4.755-8.236c-1.932-3.346-6.762-3.346-8.694 0l-7.635 13.224c-4.249 7.36-9.408 14.193-15.62 19.992-8.622 8.048-13.905 19.627-13.539 32.435.146 5.106 1.217 9.996 3.035 14.517z" fill="#fff3de"/></g><g><path d="m251.377 65.158c9.134 7.822 14.924 19.433 14.924 32.403 0 4.078-.578 8.019-1.647 11.753 10.574.492 20.915 1.886 30.954 4.098 1.964-4.902 3.056-10.247 3.056-15.851 0-12.969-5.79-24.581-14.924-32.403-7.951-6.809-14.91-14.698-20.144-23.764l-4.755-8.236c-1.932-3.346-6.762-3.346-8.694 0l-7.635 13.224c-1.166 2.02-2.408 3.995-3.714 5.925 3.778 4.648 8.006 8.934 12.579 12.851z" fill="#ffe5c2"/></g><g><path d="m107.979 399.489h296.033c4.869-3.724 9.043-8.413 12.214-13.89 15.754-27.216 24.776-58.814 24.776-92.523 0-102.608-83.533-185.705-186.305-184.998-102.533.705-184.287 83.551-183.696 186.085.192 33.322 9.199 64.552 24.802 91.486 3.161 5.458 7.324 10.128 12.176 13.84z" fill="#fd8087"/></g><g><path d="m345.686 131.242c25.828 31.81 41.317 72.355 41.317 116.523 0 9.621-.759 19.063-2.176 28.288.732 5.572 1.115 11.253 1.115 17.022 0 14.236-2.236 28.061-6.595 41.148-3.989 11.979-15.339 19.956-27.965 19.956h-270.04c3.85 11 8.703 21.529 14.461 31.47 3.162 5.458 7.324 10.128 12.177 13.84h296.033c4.869-3.724 9.043-8.413 12.214-13.89 15.754-27.216 24.776-58.814 24.776-92.523-.001-69.631-38.475-130.265-95.317-161.834z" fill="#fe646f"/></g><g><path d="m351.382 354.179c12.625 0 23.976-7.977 27.965-19.956 4.358-13.088 6.595-26.912 6.595-41.148 0-71.65-58.292-129.942-129.942-129.942s-129.942 58.292-129.942 129.942c0 14.236 2.237 28.061 6.595 41.148 3.989 11.979 15.339 19.956 27.965 19.956z" fill="#fff3de"/></g><g><path d="m330.63 186.763c14.639 21.027 23.238 46.559 23.238 74.065 0 14.236-2.237 28.061-6.595 41.148-3.989 11.979-15.339 19.956-27.965 19.956h-190.048c.936 4.158 2.051 8.264 3.393 12.292 3.989 11.979 15.339 19.956 27.965 19.956h190.765c12.625 0 23.976-7.977 27.965-19.956 4.358-13.088 6.595-26.912 6.595-41.148-.001-43.899-21.886-82.777-55.313-106.313z" fill="#ffe5c2"/></g><g><path d="m255.965 220.934c35.271 0 64.925 24.513 72.821 57.397 2.146 8.937-4.829 17.485-14.021 17.485h-117.592c-9.389 0-16.166-8.838-13.915-17.953 8.063-32.649 37.603-56.929 72.707-56.929z" fill="#fd8087"/></g><g><path d="m328.786 278.33c-5.981-24.91-24.453-45.006-48.389-53.292 7.819 8.955 13.556 19.771 16.42 31.698 2.146 8.938-4.829 17.485-14.021 17.485h-98.529c-.363 1.203-.706 2.414-1.009 3.641-2.251 9.115 4.526 17.953 13.915 17.953h117.592c9.191 0 16.167-8.547 14.021-17.485z" fill="#fe646f"/></g></g></g><g><g><path d="m66.447 436.612 22.415 33.352c4.784 7.119 12.799 11.389 21.376 11.389h291.525c8.577 0 16.591-4.27 21.376-11.388l22.415-33.352h-379.107z" fill="#dff6fd"/></g><g><path d="m394.044 436.612-30.069 44.74h37.788c8.577 0 16.591-4.27 21.376-11.389l22.415-33.352h-51.51z" fill="#c8effe"/></g><g><path d="m501.698 437.642h-491.396c-5.69 0-10.302-4.612-10.302-10.302v-18.58c0-5.69 4.612-10.302 10.302-10.302h491.396c5.69 0 10.302 4.612 10.302 10.302v18.58c0 5.69-4.612 10.302-10.302 10.302z" fill="#c8effe"/></g></g></g><g><path d="m501.698 398.459h-31.421v8.205c0 5.69-4.612 10.302-10.302 10.302h-459.975v10.374c0 5.69 4.612 10.302 10.302 10.302h491.396c5.69 0 10.302-4.612 10.302-10.302v-18.58c0-5.689-4.612-10.301-10.302-10.301z" fill="#99e6fc"/></g></g></g><g/><g/><g/><g/><g/><g/><g/><g/><g/><g/><g/><g/><g/><g/><g/></svg>