<svg height="512" viewBox="0 0 512 512" width="512" xmlns="http://www.w3.org/2000/svg"><g id="Flat"><path d="m343.639 136.075s55.718-77.875 92.936-61.921c41.625 17.846 72.606 88.158-.969 141.683-45.245 32.915-105.038 58.419-125.85 44.079-13.031-8.979-4.841-65.069 33.883-123.841z" fill="#4c7535"/><path d="m260 93c23-24 94.2-77.718 146.4-45.792s26.6 108.792.6 136.792c-19.243 20.723-266.986 286.749-303 255-76-67 135.887-325.013 156-346z" fill="#537d3a"/><path d="m186.215 329.457-14.43-6.914c36.25-75.651 96.9-136.722 141.4-174.633 48.116-40.992 87.149-63.869 88.788-64.824l8.052 13.827c-.391.228-39.654 23.259-86.72 63.4-43.229 36.859-102.105 96.129-137.09 169.144z" fill="#5f8c46"/><path d="m488 189.73c-2.04 64.13-127.16 230.23-366.9 295.63a77.873 77.873 0 0 1 -18.4 2.6c-.2.01-.41.01-.61.01a80.933 80.933 0 0 1 -54.17-23.93c-14.75-14.85-24.67-35.36-23.88-58 .43-12.28 75.366 11.315 123.96-6.04 42-15 65.95-95.66 79.96-138.61.04-.1.06-.19.09-.26 12.3-38.31 53.85-59.55 92.79-47.44.08.02.16.05.24.07 10.36 3.26 21.42-2.72 23.72-13.17a79.743 79.743 0 0 1 2.64-9.29c.08-.24.17-.48.26-.72 14.58-40.74 59.62-63.48 101.83-51.3q.675.21 1.41.42a52.264 52.264 0 0 1 37.06 50.03z" fill="#58853f"/><path d="m340.26 154.07a71.522 71.522 0 0 1 7.56 33.63c-.02.96-.06 1.93-.12 2.88-2.22 36.69-32.4 66.22-69.24 67.09a70.214 70.214 0 0 1 -8.37-.29 15.754 15.754 0 0 0 -17.02 15.97v.23a63.366 63.366 0 0 1 -63.18 63.55h-.24c-39.19.18-70.84 32.25-70.84 71.67v33.76a71.4 71.4 0 0 1 -16.11 45.4c-.01.01-.02.03-.03.04-.19-.01-.39-.01-.58-.03a80.933 80.933 0 0 1 -54.17-23.93c-14.75-14.85-24.67-35.36-23.88-58 .43-12.28 4.57-32.36 12.13-57.1 26.92-88.1 97.28-235.22 198.64-298.82 23.76-14.91 49.62-25.44 78.03-26.1 27.17-.64 61.05 16.22 63.04 47.02q.06.915.09 1.83a71.515 71.515 0 0 1 -30.67 60.95 15.927 15.927 0 0 0 -5.04 20.25z" fill="#66934c"/><path d="m238.73 170.314c29.22-3.609 52.482-10.106 69.139-19.312l-7.738-14c-23.3 12.876-58.529 17.464-80.394 19.1q8.394-8.439 16.656-16.216l.517-.078c-.018-.12-.033-.24-.05-.36 35.967-33.873 68.48-57.774 82.447-66.7l-4.307-6.748-4.3-6.743c-1.638 1.045-33.552 21.58-75.45 59.819a235.186 235.186 0 0 1 3.6-44.511l-7.85-1.565-7.845-1.569c-.271 1.357-6.061 30.913-3.138 61.93q-7.65 7.375-15.573 15.453a714.107 714.107 0 0 0 -48.9 55.332c1.089-22.666 8-46.457 8.126-46.879l-7.67-2.267-7.672-2.267c-.526 1.781-12.211 41.865-7.974 71.29q-11.289 15.366-21.427 31.037c-29.815 46.165-51.862 94.2-65.527 142.773l15.4 4.334a475.511 475.511 0 0 1 23.009-63.612c44.288-4.935 78.732-24.777 80.219-25.645l-8.062-13.82a212.573 212.573 0 0 1 -64.117 22.175 552.166 552.166 0 0 1 32.373-57.305q2.939-4.554 5.994-9.083c50.854-1.948 112.538-21.4 115.207-22.253l-4.852-15.248c-.58.185-52.474 16.559-98.676 20.711a673.043 673.043 0 0 1 53.619-65.138c6.046-.14 19.265-.664 35.216-2.635z" fill="#74a15a"/><path d="m429.822 195.468c-.836 1.7-1.737 3.586-2.726 5.659a365.925 365.925 0 0 1 -29.843 52.525c4.258-41.66-3.165-68.465-3.561-69.849l-15.392 4.379c.107.383 10.479 38.458-1.811 93.47a607.816 607.816 0 0 1 -41.055 45.972c5.426-30.97.733-61.2.46-62.893l-15.8 2.538c.081.5 7.792 50.09-8.329 83.419-15.173 14.2-32.343 29.244-51.825 45.109-.887.723-1.769 1.455-2.651 2.186a217.088 217.088 0 0 0 7.69-64.435l-15.974.9c.026.466 2.372 46.44-16.954 84.955-5.581 4.634-11.44 9.309-17.831 13.977l9.437 12.92c12.059-8.808 22.147-17.48 31.9-25.867 5-4.3 9.73-8.363 14.483-12.234 124.238-101.158 157.36-170.549 171.495-200.18.96-2.01 1.832-3.84 2.643-5.487z" fill="#66934c"/></g></svg>