<svg id="Flat" enable-background="new 0 0 512 512" viewBox="0 0 512 512" xmlns="http://www.w3.org/2000/svg"><path d="m359.995 496c-1.794 0-3.599-.6-5.09-1.833-42.791-35.349-79.67-82.139-109.611-139.069-23.844-45.337-43.372-97.184-58.042-154.102-24.938-96.762-27.23-176.002-27.25-176.792-.113-4.417 3.375-8.088 7.791-8.202 4.45-.1 8.089 3.374 8.204 7.79.021.774 2.296 78.501 26.842 173.566 22.523 87.233 68.956 207.398 162.256 284.473 3.406 2.813 3.887 7.856 1.073 11.263-1.582 1.916-3.869 2.906-6.173 2.906z" fill="#b1bd70"/><g fill="#499154"><path d="m184.05 104.23c-.04.31-.09.61-.13.9-.51 3.55-3.32 6.33-6.87 6.8-.36.05-.71.07-1.05.07-3.17 0-6.08-1.88-7.35-4.85-.16-.37-.33-.76-.51-1.17-2.54-17.27-4.31-32.51-5.52-45.01-2.22-22.76-2.61-36.44-2.62-36.76-.11-4.42 3.38-8.09 7.79-8.21 4.45-.1 8.09 3.38 8.21 7.79.01.33.42 14.43 2.75 37.8 1.2 11.98 2.9 26.4 5.3 42.64z"/><path d="m212.44 38.66c-16.87 11.24-26.05 50.28-28.39 65.57-.04.31-.09.61-.13.9-.51 3.55-3.32 6.33-6.87 6.8-.36.05-.71.07-1.05.07-3.17 0-6.08-1.88-7.35-4.85-.16-.37-.33-.76-.51-1.17-6.94-15.85-26.99-55.6-44.58-67.32-3.67-2.45-4.67-7.42-2.22-11.1 2.45-3.67 7.42-4.67 11.1-2.22 10.87 7.25 21.48 21.47 30.18 35.63 3.9 6.35 7.42 12.7 10.4 18.4 1.5-5.58 3.39-11.68 5.73-17.78 5.49-14.35 13.49-28.7 24.81-36.25 3.68-2.45 8.65-1.45 11.1 2.22 2.45 3.68 1.45 8.65-2.22 11.1z"/><path d="m175.999 120c-2.415 0-4.719-1.093-6.246-3.002-11.463-14.303-35.109-36.998-49.753-36.998-4.418 0-8-3.582-8-8s3.582-8 8-8c20.293 0 43.17 21.702 54.832 34.416 7.685-11.488 22.788-30.17 45.591-41.571 3.954-1.976 8.758-.374 10.733 3.578 1.976 3.952.374 8.757-3.578 10.733-29.276 14.638-44.274 44.126-44.422 44.422-1.22 2.44-3.6 4.09-6.312 4.378-.283.029-.565.044-.845.044z"/><path d="m191.999 191.999c-2.394 0-4.706-1.076-6.246-3.001-.301-.376-30.726-37.995-59.693-45.236-4.286-1.072-6.892-5.415-5.821-9.702 1.072-4.286 5.414-6.889 9.702-5.821 22.87 5.718 45.061 25.692 57.679 38.831 4.532-16.986 13.902-43.904 30.724-60.726 3.124-3.124 8.189-3.124 11.313 0 3.125 3.124 3.125 8.189 0 11.313-21.87 21.87-29.69 67.208-29.766 67.663-.522 3.111-2.825 5.627-5.878 6.421-.668.173-1.345.258-2.014.258z"/><path d="m199.999 223.999c-2.093 0-4.136-.821-5.656-2.342-.224-.222-23.468-23.09-61.314-38.229-4.102-1.641-6.098-6.296-4.457-10.399s6.296-6.098 10.399-4.457c26.404 10.562 46.006 24.394 56.906 33.192 3.921-11.964 11.032-30.549 21.467-46.202 2.451-3.677 7.418-4.671 11.094-2.219 3.676 2.451 4.67 7.417 2.219 11.094-15.011 22.517-22.819 53.199-22.896 53.506-.701 2.794-2.851 4.997-5.628 5.765-.705.196-1.423.291-2.134.291z"/><path d="m224 295.999c-2.384 0-4.699-1.066-6.247-3.001-.293-.366-30.015-36.998-57.753-36.998-4.418 0-8-3.582-8-8s3.582-8 8-8c22.386 0 43.961 16.46 57.171 29.026 2.194-19.341 8.473-47.737 26.392-59.683 3.676-2.451 8.643-1.458 11.094 2.219s1.458 8.643-2.219 11.094c-16.719 11.146-20.421 50.951-20.438 65.348-.004 3.396-2.151 6.421-5.356 7.544-.867.304-1.761.451-2.644.451z"/><path d="m231.993 319.996c-1.781 0-3.546-.594-4.99-1.749-14.172-11.312-42.039-27.47-56.473-22.658-4.19 1.398-8.722-.868-10.119-5.06-1.397-4.191.868-8.722 5.06-10.119 19.401-6.468 45.051 7.218 59.897 16.979 2.779-16.788 11.198-42.778 36.692-49.151 4.288-1.072 8.63 1.535 9.702 5.821 1.071 4.287-1.535 8.63-5.821 9.702-25.512 6.378-25.939 47.833-25.94 48.251-.01 3.07-1.776 5.871-4.546 7.197-1.102.528-2.286.787-3.462.787z"/></g><path d="m319.99 496.001c-3.818 0-7.198-2.743-7.872-6.634-.23-1.323-22.87-133.579-16.103-241.866 8.01-128.15 54.84-223.1 56.829-227.079 1.976-3.953 6.78-5.553 10.733-3.578 3.951 1.976 5.554 6.781 3.577 10.733-.472.945-47.374 96.172-55.171 220.921-6.648 106.379 15.672 236.829 15.898 238.134.754 4.354-2.163 8.494-6.517 9.249-.46.081-.92.12-1.374.12z" fill="#b1bd70"/><path d="m367.16 27.58c-.21.42-9.51 19.3-20.5 51.04-3.82 11.04-7.85 23.65-11.76 37.57-.4.5-.63.78-.65.81-1.56 1.95-3.88 3-6.25 3-1.2 0-2.42-.27-3.55-.83-3.37-1.67-5.12-5.46-4.21-9.11.35-1.41.63-2.85.84-4.33 4.16-14.31 8.39-27.13 12.36-38.21 10.18-28.42 18.59-45.46 19.4-47.1 1.98-3.95 6.78-5.55 10.74-3.58 3.95 1.98 5.55 6.79 3.58 10.74z" fill="#499154"/><path d="m388.44 62.66c-20.89 13.92-48.93 47.88-53.54 53.53-.4.5-.63.78-.65.81-1.56 1.95-3.88 3-6.25 3-1.2 0-2.42-.27-3.55-.83-3.37-1.67-5.12-5.46-4.21-9.11.35-1.41.63-2.85.84-4.33 4.2-28.72-16.02-69.72-16.24-70.16-1.97-3.95-.36-8.75 3.59-10.73 3.95-1.97 8.75-.37 10.73 3.58.59 1.2 9.02 18.26 14.28 39.1 1.73 6.85 3.12 14.12 3.77 21.36 2.9-3.24 6.09-6.72 9.45-10.26 10.27-10.78 22.23-22.17 32.9-29.28 3.68-2.45 8.65-1.45 11.1 2.22 2.45 3.68 1.45 8.65-2.22 11.1z" fill="#499154"/><path d="m319.999 144c-1.151 0-2.31-.249-3.393-.756-2.811-1.316-4.606-4.14-4.606-7.244 0-17.676-22.13-54.764-30.657-67.563-2.449-3.677-1.455-8.643 2.221-11.093 3.677-2.45 8.643-1.457 11.093 2.219 2.822 4.233 23.776 36.172 30.946 61.623 16.859-13.24 44.562-33.186 58.397-33.186 4.418 0 8 3.582 8 8s-3.582 8-8 8c-8.086 0-36.858 19.801-58.879 38.146-1.466 1.222-3.285 1.854-5.122 1.854z" fill="#499154"/><path d="m311.999 200c-.712 0-1.43-.095-2.135-.29-2.777-.77-4.927-2.974-5.625-5.77l-16-64c-1.072-4.287 1.534-8.63 5.82-9.702 4.292-1.07 8.631 1.535 9.701 5.821l12.573 50.292 38.009-38.009c3.125-3.124 8.189-3.124 11.314 0 3.124 3.124 3.124 8.189 0 11.313l-48 48c-1.52 1.523-3.563 2.345-5.657 2.345z" fill="#499154"/><path d="m304 248c-.535 0-1.073-.054-1.608-.164-2.635-.541-4.82-2.369-5.819-4.865l-32-80c-1.641-4.103.354-8.758 4.457-10.399s8.758.354 10.399 4.457l27.494 68.735 47.421-47.421c3.125-3.124 8.189-3.124 11.314 0 3.124 3.124 3.124 8.189 0 11.313l-56 56c-1.516 1.516-3.558 2.344-5.658 2.344z" fill="#499154"/><path d="m304.005 328c-.426 0-.856-.034-1.288-.104-3.872-.63-6.717-3.973-6.717-7.896 0-28.86-29.944-66.625-30.247-67.002-2.76-3.45-2.201-8.484 1.25-11.245 3.45-2.759 8.484-2.201 11.245 1.25 1.017 1.271 18.892 23.83 28.206 49.389 7.317-16.107 18.303-36.461 31.89-50.048 3.125-3.124 8.189-3.124 11.314 0 3.124 3.124 3.124 8.189 0 11.313-22.36 22.36-37.914 68.413-38.068 68.875-1.106 3.305-4.194 5.468-7.585 5.468z" fill="#499154"/><path d="m304.003 359.998c-.182 0-.364-.006-.548-.019-3.461-.237-6.375-2.674-7.216-6.039-7.228-28.91-36.742-51.317-37.039-51.541-3.535-2.651-4.251-7.666-1.6-11.2 2.65-3.535 7.666-4.252 11.2-1.6 1.138.854 23.159 17.581 35.964 42.282 7.399-13.735 19.463-32.314 34.799-42.539 3.676-2.451 8.645-1.457 11.094 2.219 2.451 3.676 1.458 8.643-2.219 11.094-21.615 14.41-36.86 51.941-37.012 52.319-1.223 3.049-4.175 5.024-7.423 5.024z" fill="#499154"/><path d="m263.992 488c-1.716 0-3.444-.55-4.903-1.685-2.998-2.332-74.169-58.588-138.244-186.737-63.86-127.719-80.613-249.307-80.775-250.521-.584-4.379 2.492-8.401 6.871-8.986 4.374-.582 8.403 2.491 8.988 6.87.159 1.188 16.615 120.26 79.226 245.481 62.311 124.622 133.054 180.715 133.762 181.267 3.481 2.717 4.104 7.742 1.391 11.225-1.578 2.025-3.935 3.086-6.316 3.086z" fill="#b1bd70"/><path d="m72.71 125.42c-.54 2.54-.85 4.08-.87 4.15-.57 2.89-2.7 5.23-5.52 6.09-.76.23-1.55.34-2.32.34-2.07 0-4.09-.8-5.61-2.3-3.21-11.88-5.92-22.83-8.19-32.64-7.34-31.74-10.07-51.52-10.13-52-.58-4.38 2.49-8.4 6.87-8.99 4.38-.58 8.4 2.49 8.99 6.87.06.45 2.39 17.35 8.56 44.89 2.22 9.91 4.94 21.19 8.22 33.59z" fill="#499154"/><path d="m87.16 75.58c-5.98 11.95-12.21 39.38-14.45 49.84-.54 2.54-.85 4.08-.87 4.15-.57 2.89-2.7 5.23-5.52 6.09-.76.23-1.55.34-2.32.34-2.07 0-4.09-.8-5.61-2.3-.02-.01-.03-.02-.05-.04-24.28-24.28-40.33-48.22-41-49.22-2.45-3.68-1.45-8.65 2.22-11.1 3.68-2.45 8.64-1.45 11.09 2.22.07.1 2.91 4.33 7.91 10.93 3.1 4.09 7.03 9.08 11.64 14.57 2.83 3.36 5.91 6.9 9.21 10.53 1.38-5.88 3.12-12.87 5.08-19.76 2.53-8.86 5.42-17.53 8.35-23.41 1.98-3.95 6.79-5.55 10.74-3.58 3.95 1.98 5.55 6.79 3.58 10.74z" fill="#499154"/><path d="m87.997 215.998c-2.977 0-5.775-1.667-7.152-4.42-14.408-28.816-51.452-44.003-51.825-44.153-4.095-1.649-6.084-6.306-4.44-10.402 1.645-4.097 6.292-6.089 10.391-4.45 1.384.554 27.541 11.213 46.894 32.664 2.058-14.096 6.384-32.032 15.479-45.673 2.451-3.677 7.417-4.67 11.094-2.219 3.676 2.451 4.67 7.417 2.219 11.094-14.439 21.656-14.657 59.19-14.657 59.566-.005 3.708-2.558 6.93-6.167 7.779-.613.145-1.229.214-1.836.214z" fill="#499154"/><path d="m111.998 264c-2.977 0-5.776-1.668-7.153-4.423-14.222-28.444-66.521-43.736-67.047-43.887-4.245-1.218-6.702-5.647-5.486-9.893 1.215-4.246 5.642-6.702 9.886-5.491 1.939.554 38.886 11.33 62.493 33.397.899-16.312 2.966-37.972 7.72-52.234 1.397-4.191 5.926-6.456 10.119-5.06 4.191 1.397 6.457 5.928 5.06 10.119-7.494 22.481-7.589 69.004-7.589 69.471-.001 3.71-2.552 6.933-6.163 7.785-.614.147-1.231.216-1.84.216z" fill="#499154"/><path d="m144.003 336c-2.46 0-4.855-1.136-6.403-3.201-21.792-29.055-58.812-36.882-59.183-36.958-4.324-.881-7.125-5.098-6.251-9.423s5.081-7.126 9.403-6.263c1.398.28 28.04 5.82 51.73 25.275-1.296-16.407-1.642-37.698 3.112-51.96 1.396-4.191 5.925-6.458 10.119-5.06 4.191 1.397 6.457 5.928 5.06 10.119-6.047 18.142-1.833 55.349.302 68.155.606 3.638-1.353 7.219-4.744 8.67-1.02.437-2.088.646-3.145.646z" fill="#499154"/><path d="m168 376c-1.338 0-2.676-.335-3.885-1.007l-72-40c-3.862-2.146-5.254-7.016-3.108-10.878 2.145-3.862 7.015-5.256 10.878-3.108l60.115 33.397v-66.404c0-4.418 3.582-8 8-8s8 3.582 8 8v80c0 2.834-1.5 5.458-3.943 6.895-1.251.736-2.654 1.105-4.057 1.105z" fill="#499154"/><path d="m168 376h-56c-4.418 0-8-3.582-8-8s3.582-8 8-8h51.471l21.669-36.116c2.273-3.788 7.186-5.019 10.976-2.744 3.789 2.273 5.017 7.187 2.744 10.976l-24 40c-1.446 2.409-4.05 3.884-6.86 3.884z" fill="#499154"/><path d="m288.005 496c-2.364 0-4.705-1.043-6.284-3.043-2.737-3.467-2.146-8.498 1.322-11.236.532-.422 38.055-30.431 79.874-86.949 38.59-52.155 88.862-138.242 109.208-252.178.776-4.351 4.94-7.244 9.281-6.469 4.35.777 7.246 4.932 6.469 9.282-9.245 51.772-25.225 102.313-47.496 150.216-17.812 38.312-39.665 75.033-64.952 109.142-43.139 58.186-80.884 88.263-82.47 89.515-1.468 1.158-3.216 1.72-4.952 1.72z" fill="#b1bd70"/><path d="m487.88 145.41c-2.95 16.52-6.58 32.91-10.9 49.13-5.63 21.22-12.41 42.15-20.31 62.68l-1.89 3.02c-1.5 2.41-4.1 3.76-6.78 3.76-1.15 0-2.31-.25-3.41-.76-2.98-1.4-4.72-4.44-4.58-7.58 7.07-17.91 13.59-36.95 19.25-57.07 5.02-17.83 9.38-36.51 12.86-56 .78-4.35 4.95-7.24 9.29-6.47 4.35.78 7.24 4.94 6.47 9.29z" fill="#499154"/><path d="m494.78 196.24-38.11 60.98-1.89 3.02c-1.5 2.41-4.1 3.76-6.78 3.76-1.15 0-2.31-.25-3.41-.76-2.98-1.4-4.72-4.44-4.58-7.58.03-.73.16-1.46.4-2.19 14.58-43.73-7.06-81-7.28-81.37-2.25-3.79-1.01-8.7 2.78-10.96 3.78-2.26 8.68-1.04 10.95 2.74.59.98 8.43 14.33 12.4 34.71 1.23 6.28 2.08 13.24 2.25 20.71l15.47-24.76 4.24-6.78c2.34-3.75 7.27-4.89 11.02-2.54 3.75 2.34 4.89 7.27 2.54 11.02z" fill="#499154"/><path d="m448 264c-.827 0-1.657-.128-2.461-.388-2.198-.71-3.982-2.337-4.893-4.46l-24-56c-1.74-4.061.142-8.764 4.202-10.504 4.062-1.742 8.764.141 10.505 4.202l20.39 47.576 32.141-19.285c3.791-2.273 8.702-1.045 10.977 2.744 2.272 3.789 1.044 8.703-2.744 10.976l-40 24c-1.258.753-2.682 1.139-4.117 1.139z" fill="#499154"/><path d="m399.997 360c-1.167 0-2.345-.255-3.449-.784-3.301-1.579-5.11-5.196-4.393-8.784 7.746-38.729 7.845-85.959 7.845-86.432.001-4.417 3.582-7.999 8-7.999h.001c4.418 0 7.999 3.582 7.999 8 0 1.569-.058 31.206-4.019 63.417 15.265-15.043 37.771-34.102 58.078-39.179 4.292-1.069 8.631 1.535 9.701 5.821 1.072 4.287-1.534 8.63-5.82 9.702-29.079 7.27-67.412 52.902-67.796 53.362-1.559 1.868-3.83 2.876-6.147 2.876z" fill="#499154"/><path d="m384 384c-1.444 0-2.882-.391-4.149-1.16-2.149-1.304-3.561-3.542-3.811-6.044l-8-80c-.44-4.396 2.768-8.316 7.164-8.756 4.392-.432 8.316 2.768 8.756 7.165l6.942 69.419 70.127-28.051c4.103-1.642 8.759.355 10.398 4.457 1.641 4.103-.354 8.758-4.457 10.399l-80 32c-.956.382-1.965.571-2.97.571z" fill="#499154"/></svg>