<svg enable-background="new 0 0 48 48" viewBox="0 0 48 48" xmlns="http://www.w3.org/2000/svg"><g id="GRID" display="none" fill="none" stroke="#f15a24" stroke-miterlimit="10" stroke-width=".1"><circle cx="24" cy="24" display="inline" r="20"/><path d="m41 42h-34c-.6 0-1-.5-1-1v-34c0-.6.5-1 1-1h34c.6 0 1 .5 1 1v34c0 .5-.5 1-1 1z" display="inline"/><path d="m43 40h-38c-.6 0-1-.5-1-1v-30c0-.6.5-1 1-1h38c.6 0 1 .5 1 1v30c0 .5-.5 1-1 1z" display="inline"/><path d="m8 43v-38c0-.6.5-1 1-1h30c.6 0 1 .5 1 1v38c0 .6-.5 1-1 1h-30c-.5 0-1-.5-1-1z" display="inline"/><path d="m43 44h-38c-.6 0-1-.5-1-1v-38c0-.6.5-1 1-1h38c.6 0 1 .5 1 1v38c0 .5-.5 1-1 1z" display="inline"/><circle cx="24" cy="24" display="inline" r="20"/><path d="m41 42h-34c-.6 0-1-.5-1-1v-34c0-.6.5-1 1-1h34c.6 0 1 .5 1 1v34c0 .5-.5 1-1 1z" display="inline"/><path d="m43 40h-38c-.6 0-1-.5-1-1v-30c0-.6.5-1 1-1h38c.6 0 1 .5 1 1v30c0 .5-.5 1-1 1z" display="inline"/><path d="m8 43v-38c0-.6.5-1 1-1h30c.6 0 1 .5 1 1v38c0 .6-.5 1-1 1h-30c-.5 0-1-.5-1-1z" display="inline"/><path d="m43 44h-38c-.6 0-1-.5-1-1v-38c0-.6.5-1 1-1h38c.6 0 1 .5 1 1v38c0 .5-.5 1-1 1z" display="inline"/></g><g id="x_00000020391342811747312090000018086493728940466076_"/><g id="x_00000074422694263580340010000005472080185518626956_"/><g id="x_00000049189317245738982500000001864333517881830815_"/><g id="x_00000047739720556165541770000009394875241352112311_"/><g id="x_16_"/><g id="x_17_"/><g id="x_18_"/><g id="x_19_"/><g id="x_20_"/><g id="x_21_"/><g id="x_22_"/><g id="x_23_"/><g id="x_24_"/><g id="x_25_"/><g id="x_15_"><g fill="#bdc3c7"><path d="m28.1 12.2h-8.1c-.6 0-1 .4-1 1v3.9c0 .6.4 1 1 1h8.1c.6 0 1-.4 1-1v-3.9c0-.5-.5-1-1-1z"/><path d="m28.4 16.1h-8.8c-3.6 0-6.6 3-6.6 6.6v20.4c0 .6.4 1 1 1h20c.6 0 1-.4 1-1v-20.4c0-3.7-2.9-6.6-6.6-6.6z"/><path d="m28.1 3.8h-8.1c-.6 0-1 .4-1 1v3.6c0 .6.4 1 1 1h8.1c.6 0 1-.4 1-1v-3.6c0-.6-.5-1-1-1z"/></g><g><g><path d="m16.5 26.3c-.6 0-1-.4-1-1v-2.7c0-2.3 1.8-4.1 4.1-4.1.6 0 1 .4 1 1s-.4 1-1 1c-1.1 0-2.1.9-2.1 2.1v2.7c0 .6-.5 1-1 1z" fill="#e6eaeb"/></g></g><path d="m30.7 7.4h-13.5c-.6 0-1 .4-1 1v4.8c0 .6.4 1 1 1h13.5c.6 0 1-.4 1-1v-4.8c0-.6-.4-1-1-1z" fill="#849091"/><path d="m35 38.6h-13.3c-.5 0-1-.4-1-1v-10.5c0-.6.5-1 1-1h13.3z" fill="#e4c05c"/><g><g fill="#966e3b"><path d="m28.4 29.9c-.4-.4-1-.4-1.4 0l-1 1-1-1c-.4-.4-1-.4-1.4 0s-.4 1 0 1.4l1 1-1 1c-.4.4-.4 1 0 1.4.2.2.5.3.7.3s.5-.1.7-.3l1-1 1 1c.2.2.5.3.7.3s.5-.1.7-.3c.4-.4.4-1 0-1.4l-1-1 1-1c.4-.3.4-1 0-1.4z"/><path d="m35 31.5-1 .9 1 .9v1.6c-.2.1-.4.2-.6.2-.3 0-.5-.1-.7-.3l-1-1-1 1c-.2.2-.5.3-.7.3-.3 0-.5-.1-.7-.3-.4-.4-.4-1 0-1.4l1-1-1-1c-.4-.4-.4-1 0-1.4s1-.4 1.4 0l1 1 1-1c.4-.4.9-.4 1.3-.1z"/></g></g></g><g id="x_14_"/><g id="x_13_"/><g id="x_12_"/><g id="x_11_"/><g id="x_10_"/><g id="x_9_"/><g id="x_8_"/><g id="x_7_"/><g id="x_6_"/><g id="x_5_"/><g id="x_4_"/><g id="x_3_"/><g id="x_2_"/><g id="x_1_"/><g id="x"/></svg>