<svg id="Layer_1" enable-background="new 0 0 504.5 504.5" height="512" viewBox="0 0 504.5 504.5" width="512" xmlns="http://www.w3.org/2000/svg"><g><g><path d="m439.166 94.735c.003-4.143-3.354-7.502-7.495-7.505-.002 0-.003 0-.005 0-4.14 0-7.497 3.355-7.5 7.495l-.236 390.436c-.003 4.143 3.354 7.502 7.495 7.505h.005c4.14 0 7.497-3.355 7.5-7.495z" fill="#fee17f"/></g><path d="m72.943 97.08c-.002 0-.003 0-.005 0-4.14 0-7.497 3.355-7.5 7.495l-.235 380.586c-.003 4.143 3.354 7.502 7.495 7.505h.005c4.14 0 7.497-3.355 7.5-7.495l.235-380.586c.003-4.143-3.353-7.502-7.495-7.505z" fill="#fee17f"/><path d="m252.306 97.08c-.002 0-.003 0-.005 0-4.14 0-7.497 3.355-7.5 7.495l-.235 380.586c-.003 4.143 3.354 7.502 7.495 7.505h.005c4.14 0 7.497-3.355 7.5-7.495l.235-380.586c.003-4.143-3.353-7.502-7.495-7.505z" fill="#fee17f"/><g><g><g fill="#fee17f"><g><path d="m73.366 0c-4.143 0-7.5 3.357-7.5 7.5v58.729c0 4.143 3.357 7.5 7.5 7.5s7.5-3.357 7.5-7.5v-58.729c0-4.143-3.358-7.5-7.5-7.5z"/><g><path d="m27.175 31.805c-4.143 0-7.5 3.357-7.5 7.5v71.275c0 4.143 3.357 7.5 7.5 7.5s7.5-3.357 7.5-7.5v-71.275c0-4.143-3.357-7.5-7.5-7.5z"/><path d="m118.744 31.805c-4.143 0-7.5 3.357-7.5 7.5v71.362c0 4.143 3.357 7.5 7.5 7.5s7.5-3.357 7.5-7.5v-71.362c0-4.143-3.358-7.5-7.5-7.5z"/></g></g><g><path d="m252.688 0c-4.143 0-7.5 3.357-7.5 7.5v58.729c0 4.143 3.357 7.5 7.5 7.5s7.5-3.357 7.5-7.5v-58.729c0-4.143-3.357-7.5-7.5-7.5z"/><g><path d="m206.498 31.805c-4.143 0-7.5 3.357-7.5 7.5v71.275c0 4.143 3.357 7.5 7.5 7.5s7.5-3.357 7.5-7.5v-71.275c0-4.143-3.358-7.5-7.5-7.5z"/><path d="m298.066 31.805c-4.143 0-7.5 3.357-7.5 7.5v71.362c0 4.143 3.357 7.5 7.5 7.5s7.5-3.357 7.5-7.5v-71.362c0-4.143-3.357-7.5-7.5-7.5z"/></g></g><g><path d="m432.011 0c-4.143 0-7.5 3.357-7.5 7.5v58.729c0 4.143 3.357 7.5 7.5 7.5s7.5-3.357 7.5-7.5v-58.729c0-4.143-3.358-7.5-7.5-7.5z"/><g><path d="m385.82 31.805c-4.143 0-7.5 3.357-7.5 7.5v71.275c0 4.143 3.357 7.5 7.5 7.5s7.5-3.357 7.5-7.5v-71.275c0-4.143-3.357-7.5-7.5-7.5z"/><path d="m477.389 31.805c-4.143 0-7.5 3.357-7.5 7.5v71.362c0 4.143 3.357 7.5 7.5 7.5s7.5-3.357 7.5-7.5v-71.362c0-4.143-3.358-7.5-7.5-7.5z"/></g></g></g><g><g><path d="m124.852 219.803c-19.058 18.633-51.931 16.035-51.931 16.035s-1.973-32.807 17.085-51.44 51.931-16.035 51.931-16.035 1.973 32.808-17.085 51.44z" fill="#f7c000"/><path d="m20.896 219.719c19.028 18.664 51.905 16.12 51.905 16.12s2.027-32.804-17.001-51.467-51.905-16.12-51.905-16.12-2.026 32.803 17.001 51.467z" fill="#fed23a"/></g><g><path d="m113.054 145.65c-14.713 14.385-40.091 12.379-40.091 12.379s-1.524-25.327 13.189-39.712 40.091-12.379 40.091-12.379 1.524 25.327-13.189 39.712z" fill="#fed23a"/><path d="m53.782 94.566c.219-20.562 19.584-37.066 19.584-37.066s19.009 16.833 18.789 37.395-19.584 37.066-19.584 37.066-19.009-16.833-18.789-37.395z" fill="#fed23a"/><path d="m32.799 145.584c14.689 14.409 40.071 12.445 40.071 12.445s1.565-25.325-13.125-39.733-40.071-12.445-40.071-12.445-1.564 25.325 13.125 39.733z" fill="#f7c000"/></g><g><path d="m124.797 297.932c-19.058 18.633-51.931 16.035-51.931 16.035s-1.973-32.807 17.085-51.44 51.931-16.035 51.931-16.035 1.973 32.807-17.085 51.44z" fill="#fed23a"/><path d="m20.841 297.847c19.028 18.664 51.905 16.12 51.905 16.12s2.027-32.804-17.001-51.467-51.905-16.12-51.905-16.12-2.027 32.803 17.001 51.467z" fill="#f7c000"/></g></g><g><g><path d="m304.216 219.803c-19.058 18.633-51.931 16.035-51.931 16.035s-1.973-32.807 17.085-51.44 51.931-16.035 51.931-16.035 1.973 32.808-17.085 51.44z" fill="#f7c000"/><path d="m200.26 219.719c19.028 18.664 51.905 16.12 51.905 16.12s2.027-32.804-17.001-51.467-51.904-16.12-51.904-16.12-2.028 32.803 17 51.467z" fill="#fed23a"/></g><g><path d="m292.418 145.65c-14.713 14.385-40.091 12.379-40.091 12.379s-1.524-25.327 13.189-39.712 40.091-12.379 40.091-12.379 1.524 25.327-13.189 39.712z" fill="#fed23a"/><path d="m233.145 94.566c.219-20.562 19.584-37.066 19.584-37.066s19.009 16.833 18.79 37.395-19.584 37.066-19.584 37.066-19.009-16.833-18.79-37.395z" fill="#fed23a"/><path d="m212.163 145.584c14.689 14.409 40.071 12.445 40.071 12.445s1.565-25.325-13.125-39.733c-14.689-14.409-40.071-12.445-40.071-12.445s-1.564 25.325 13.125 39.733z" fill="#f7c000"/></g><g><path d="m304.16 297.932c-19.058 18.633-51.931 16.035-51.931 16.035s-1.973-32.807 17.085-51.44 51.931-16.035 51.931-16.035 1.973 32.807-17.085 51.44z" fill="#fed23a"/><path d="m200.204 297.847c19.028 18.664 51.905 16.12 51.905 16.12s2.027-32.804-17.001-51.467-51.904-16.12-51.904-16.12-2.027 32.803 17 51.467z" fill="#f7c000"/></g></g><g><g><path d="m483.58 219.803c-19.058 18.633-51.931 16.035-51.931 16.035s-1.973-32.807 17.085-51.44 51.931-16.035 51.931-16.035 1.973 32.808-17.085 51.44z" fill="#f7c000"/><path d="m379.624 219.719c19.028 18.664 51.905 16.12 51.905 16.12s2.027-32.804-17.001-51.467c-19.028-18.664-51.905-16.12-51.905-16.12s-2.027 32.803 17.001 51.467z" fill="#fed23a"/></g><g><path d="m471.781 145.65c-14.713 14.385-40.091 12.379-40.091 12.379s-1.523-25.327 13.189-39.712c14.713-14.385 40.091-12.379 40.091-12.379s1.524 25.327-13.189 39.712z" fill="#fed23a"/><path d="m412.509 94.566c.219-20.562 19.584-37.066 19.584-37.066s19.009 16.833 18.79 37.395-19.584 37.066-19.584 37.066-19.01-16.833-18.79-37.395z" fill="#fed23a"/><path d="m391.527 145.584c14.689 14.409 40.071 12.445 40.071 12.445s1.565-25.325-13.125-39.733-40.071-12.445-40.071-12.445-1.565 25.325 13.125 39.733z" fill="#f7c000"/></g><g><path d="m483.524 297.932c-19.058 18.633-51.931 16.035-51.931 16.035s-1.973-32.807 17.085-51.44 51.931-16.035 51.931-16.035 1.973 32.807-17.085 51.44z" fill="#fed23a"/><path d="m379.568 297.847c19.028 18.664 51.905 16.12 51.905 16.12s2.027-32.804-17.001-51.467c-19.028-18.664-51.905-16.12-51.905-16.12s-2.027 32.803 17.001 51.467z" fill="#f7c000"/></g></g><path d="m493.222 504.5c0-14.539-11.805-26.324-26.368-26.324h-67.042c1.543-3.261 2.41-6.905 2.41-10.752 0-13.899-11.267-25.167-25.167-25.167-3.261 0-6.375.627-9.235 1.756.04-.581.068-1.165.068-1.756 0-13.899-11.268-25.167-25.167-25.167-13.862 0-25.104 11.208-25.164 25.056-3.111-1.376-6.549-2.146-10.169-2.146-13.899 0-25.167 11.268-25.167 25.167 0 4.761 1.323 9.213 3.62 13.009h-65.698c1.03-3.404 1.589-7.012 1.589-10.752 0-20.477-16.6-37.076-37.076-37.076-18.756 0-34.25 13.93-36.722 32.008-3.922-7.482-11.757-12.59-20.791-12.59-12.959 0-23.464 10.505-23.464 23.463 0 1.698.185 3.352.527 4.948h-66.616c-14.563 0-26.368 11.786-26.368 26.324" fill="#8f5a46"/><g fill="#7d4f3d"><path d="m327.889 442.257c0 .591-.028 1.176-.068 1.756 2.86-1.129 5.973-1.756 9.235-1.756 13.899 0 25.167 11.268 25.167 25.167 0 3.847-.867 7.491-2.41 10.752h40c1.543-3.261 2.41-6.905 2.41-10.752 0-13.899-11.267-25.167-25.167-25.167-3.261 0-6.375.627-9.235 1.756.04-.581.068-1.165.068-1.756 0-13.899-11.268-25.167-25.167-25.167-8.156 0-15.401 3.882-20 9.897 3.239 4.236 5.167 9.526 5.167 15.27z"/><path d="m181.734 467.424c0 3.74-.559 7.348-1.589 10.752h40c1.03-3.404 1.589-7.012 1.589-10.752 0-20.477-16.6-37.076-37.076-37.076-7.369 0-14.229 2.157-19.999 5.865 10.266 6.592 17.075 18.102 17.075 31.211z"/><path d="m466.855 478.176h-40c14.563 0 26.368 11.786 26.368 26.324h40c-.001-14.539-11.806-26.324-26.368-26.324z"/></g></g><g><path d="m367.222 480.5c9.652 0 9.668-15 0-15-9.652 0-9.667 15 0 15z" fill="#6e4230"/></g><g><path d="m319.222 492.666c9.652 0 9.668-15 0-15-9.652 0-9.667 15 0 15z" fill="#6e4230"/></g><g><path d="m179.222 480.5c9.652 0 9.668-15 0-15-9.652 0-9.667 15 0 15z" fill="#6e4230"/></g></g></g></svg>