<svg id="Layer_1" height="512" viewBox="0 0 512 512" width="512" xmlns="http://www.w3.org/2000/svg" data-name="Layer 1"><path d="m274.33 253.67a7.231 7.231 0 0 0 -.12-1.33h.01l.01-.01c.01 0 .01-.01.02-.01 1.03-.68 26.37-16.84 83.44.06 58.27 17.25 36.35-19.75 72.39-18.29s65.92 26.78 65.92 26.78-41.57 68.65-79.55 57.45-61.57-29.97-82.89-41.52c-21-11.37-60.12-17.6-61.34-17.79a.077.077 0 0 0 -.03-.01l-.01-.01a7.477 7.477 0 0 0 1.51-2.25 7.668 7.668 0 0 0 .64-3.07z" fill="#a674b2"/><path d="m293.39 236.9c14.26-9.48 33.08-24.37 39.92-40.55a40.832 40.832 0 0 0 2.23-6.69s71.26-53.27 110.14-27.31a4.949 4.949 0 0 1 2.16 4.92c-10.17 60.94-72.09 69.72-116.14 69.72-43.61 0-56.8 14.56-57.45 15.33-.01 0-.01.01-.02.01a50.35 50.35 0 0 1 1.58-4.9 204.789 204.789 0 0 0 17.58-10.53z" fill="#9f6fa8"/><path d="m269.11 260.96a7.553 7.553 0 0 0 3.07-1.97l.01.01a.077.077 0 0 1 .03.01c.96.49 27.63 14.07 42.93 42.76 15.58 29.21 62.34 53.07 79.87 61.35 8.76 4.13 8.76 10.83 6.57 16.49a12.24 12.24 0 0 1 -15.28 7.03c-12.01-3.96-36.05-10.21-69.7-10.87-49.67-.97-57.46-55.5-49.74-76.44 7.59-20.6-2.63-37.9-2.96-38.46a7.465 7.465 0 0 0 2.72.5 7.545 7.545 0 0 0 2.48-.41z" fill="#9f6fa8"/><path d="m275.81 247.43a50.35 50.35 0 0 0 -1.58 4.9l-.01.01h-.01a7.685 7.685 0 0 0 -6.73-6.31v-.01s7.32-23.49 3.59-57.99c-3.64-33.6-10.81-136.14 74.9-143.68a6.961 6.961 0 0 1 7.52 6.51c.4 6.2 1.23 15.96 2.92 26.66 5.16 32.49-5.52 65-28.9 95.49q-1.65 2.16-3.39 4.3-4.755 5.88-10.15 11.65c-17.83 19.1-28.04 36.25-33.63 47.87-2.11 4.38-3.56 7.97-4.53 10.6z" fill="#a674b2"/><path d="m330.69 425.25a2.237 2.237 0 0 1 -.48 2.58l-.9.88a2.262 2.262 0 0 1 -3.33-.14c-14.29-17.53-98.15-37.19-119.61-42.84-17.79-4.68-41.7-6.45-50.66-6.97a2.227 2.227 0 0 1 -1.8-3.33l7.44-13.17a2.246 2.246 0 0 1 3.25-.72c4.82 3.43 19.41 11.9 53.11 18.96 42.17 8.85 104.05 26.68 112.98 44.75z" fill="#de5742"/><path d="m279.05 463.55a2.263 2.263 0 0 1 -.48 2.58l-.91.89a2.27 2.27 0 0 1 -3.33-.14c-11.09-13.61-64.05-28.49-97.26-37.12 5.01-1.62 10.18-3.25 15.37-4.82h.01c37.91 9.68 79.41 24.07 86.6 38.61z" fill="#e75163"/><path d="m263.9 246.48a7.478 7.478 0 0 0 -2.43 1.49 7.643 7.643 0 0 0 -2.42 4.41c-9.23-19.88-32.92-51.14-83.09-65.99-25.41-7.52-46.55-15.24-31.3-28.49a36.621 36.621 0 0 1 7.71-5.08 51.52 51.52 0 0 0 22.61-21.5c6.92-12.8 21.28-24.48 49.54-1.1 40.3 33.35 34.31 50.27 42.94 115.8a7.565 7.565 0 0 0 -.83-.04 7.735 7.735 0 0 0 -2.73.5z" fill="#9f6fa8"/><path d="m261.12 259.04a7.742 7.742 0 0 0 2.78 1.83c-.12.51-4.41 19-14.49 19.47-10.23.49-23.87 12.66-34.09 29.7s-24.84 11.2-33.12 8.77-37.01 10.71-37.01-2.92a97.975 97.975 0 0 0 -.99-14.34 55.246 55.246 0 0 1 2.84-27.71c20.39-53.36 111.9-20.17 111.9-20.17a7.623 7.623 0 0 0 .83 3.47 7.718 7.718 0 0 0 1.35 1.9z" fill="#a674b2"/><path d="m175.92 420.97c34.16-11.27 70.31-19.62 83.04-12.25a2.227 2.227 0 0 1 1.03 2.41l-.26 1.24a2.266 2.266 0 0 1 -2.85 1.73c-11.16-3.46-38.1 2.9-64.43 10.84h-.01c-5.19 1.57-10.36 3.2-15.37 4.82-18.8 6.09-35.5 12.16-43.51 14.9-17.4 5.95-38.3 17.72-46.04 22.24a2.228 2.228 0 0 1 -3.35-1.76l-1.09-15.1a2.228 2.228 0 0 1 2.3-2.39c5.92.18 22.76-.85 54.72-13.62 6.72-2.68 14.04-5.47 21.65-8.19 4.64-1.66 9.39-3.29 14.17-4.87z" fill="#cf4239"/><path d="m89.97 384.53c-8.71-.91-15.89-1.58-20.4-2.07-18.29-1.98-42.21-.16-51.14.66a2.23 2.23 0 0 1 -2.28-3.02l5.4-14.14a2.238 2.238 0 0 1 3.1-1.19c5.28 2.67 20.97 8.86 55.34 10.82 6.38.36 13.21.86 20.26 1.5 3.51.31 7.07.66 10.66 1.04q3.39.36 6.79.77c35.81 4.24 72.26 11.98 80.69 24.08a2.239 2.239 0 0 1 -.09 2.62l-.76 1.01a2.254 2.254 0 0 1 -3.31.36c-11.62-10.55-56.52-17.11-90.29-20.94-3.57-.4-7.03-.78-10.3-1.13-1.25-.13-2.48-.25-3.67-.37z" fill="#e75163"/><path d="m188.49 347.12v1.27a2.259 2.259 0 0 1 -2.43 2.27c-12.67-1.16-42.4 13.68-68.36 28.24q-3.4-.4-6.79-.77c3.32-3.74 6.74-7.52 10.18-11.24l.01-.01c28.22-15.64 53.32-26.03 65.88-21.91a2.244 2.244 0 0 1 1.51 2.15z" fill="#cf4239"/><path d="m170.36 324.08a2.257 2.257 0 0 1 -1.57 2.94c-10.92 2.63-29.74 20.48-47.69 39.86l-.01.01c-3.44 3.72-6.86 7.5-10.18 11.24-3.59-.38-7.15-.73-10.66-1.04v-.01c24.19-28.14 52.37-55.58 67.59-55.75a2.252 2.252 0 0 1 2.12 1.55z" fill="#de5742"/><path d="m166.06 418.81c3.18.67 6.48 1.39 9.86 2.16-4.78 1.58-9.53 3.21-14.17 4.87-2.76-.7-5.13-1.31-7.02-1.8-17.79-4.68-41.71-6.45-50.66-6.98a2.225 2.225 0 0 1 -1.81-3.32l7.45-13.17a2.228 2.228 0 0 1 3.24-.72c4.83 3.42 19.42 11.89 53.11 18.96z" fill="#e75163"/><path d="m103.94 386.03v.03c-11.22 12.93-20.68 24.45-25.57 30.19-11.92 14-23.88 34.79-28.23 42.63a2.224 2.224 0 0 1 -3.78.19l-8.65-12.42a2.231 2.231 0 0 1 .76-3.23c5.18-2.87 19.13-12.35 40.09-39.65.83-1.08 1.68-2.18 2.55-3.29l.01-.01c3.89-5 8.11-10.25 12.52-15.57 3.27.35 6.73.73 10.3 1.13z" fill="#de5742"/><path d="m89.97 384.53c1.19.12 2.42.24 3.67.37-4.41 5.32-8.63 10.57-12.52 15.57l-.01.01c-3.49 2.11-7.18 4.24-9.39 5.56-15.8 9.42-33.81 25.25-40.46 31.28a2.219 2.219 0 0 1 -3.63-1.04l-4.19-14.54a2.235 2.235 0 0 1 1.76-2.82c5.82-1.05 22.08-5.53 50.72-24.63 5-3.34 8.43-6.25 14.05-9.76z" fill="#cf4239"/><path d="m295.07 187.03c-3.36-31.012-9.722-120.747 56.7-140.317a6.885 6.885 0 0 0 -5.8-2.363c-85.71 7.54-78.78 110.08-75.14 143.68 3.73 34.5-3.83 57.99-3.83 57.99v.01c4 .37 6.63 2.97 7.21 5.97h.01a.808.808 0 0 0 .01.16c.02-.1.46-1.755 1.58-4.815.97-2.63 2.42-6.178 4.53-10.557a174.781 174.781 0 0 1 15.742-26.138 180.856 180.856 0 0 0 -1.012-23.62z" fill="#835e8c"/><path d="m199.96 185.39c-25.41-7.52-46.55-15.24-31.3-28.49a36.621 36.621 0 0 1 7.71-5.08 51.52 51.52 0 0 0 22.61-21.5 31.106 31.106 0 0 1 9-10.729c-17.618-7.612-27.588 1.714-33 11.729a51.52 51.52 0 0 1 -22.61 21.5 36.621 36.621 0 0 0 -7.71 5.08c-15.25 13.25 5.89 20.97 31.3 28.49 50.17 14.85 73.86 46.11 83.09 65.99a7.643 7.643 0 0 1 2.42-4.41 7.478 7.478 0 0 1 2.43-1.49 7.735 7.735 0 0 1 2.73-.5 7.565 7.565 0 0 1 .83.04c-1.029-7.817-1.85-14.936-2.566-21.479-13.627-14.952-34.354-30.1-64.934-39.151z" fill="#7e5987"/><path d="m169.19 314.89a97.975 97.975 0 0 0 -.99-14.34 55.246 55.246 0 0 1 2.84-27.71c6.94-18.162 22.12-26.291 39.126-29.121-25.3-1.535-52.994 3.605-63.126 30.121a55.246 55.246 0 0 0 -2.84 27.71 97.975 97.975 0 0 1 .99 14.34c0 9.729 14.637 5.814 26.027 3.664a5.487 5.487 0 0 1 -2.027-4.664z" fill="#85618e"/><g fill="#d8a43d"><path d="m262.683 256.489a2.919 2.919 0 0 0 -.076-.324 2.98 2.98 0 0 0 -.917-1.316 2.991 2.991 0 0 0 -3.228-4.138 222.69 222.69 0 0 0 -25.12 5.923c-18.852 5.551-33.836 12.468-44.535 20.558a3 3 0 0 0 3.619 4.787c15.906-12.028 39.657-19.164 54.191-22.662-9.905 4.578-23.882 12.218-34.327 22.661a3 3 0 1 0 4.242 4.243c10.236-10.234 24.5-17.769 34.036-22.078a95.877 95.877 0 0 0 -7.462 7.173 3 3 0 1 0 4.527 3.937c3.527-4.054 15.284-13.809 15.4-13.907a2.968 2.968 0 0 0 -.352-4.857z"/><path d="m360.777 261.441c-48.433-18.94-85.541-11.042-87.1-10.7a2.9 2.9 0 0 0 -2.16 3.936 2.984 2.984 0 0 0 -.83 2.062 3.061 3.061 0 0 0 .049.492 2.973 2.973 0 0 0 -1.93.639c-.048.038-.084.085-.128.125a2.969 2.969 0 0 0 -2.363 4.062c.118.3 11.912 30.265 18.083 49.973a3 3 0 0 0 5.726-1.793c-3.545-11.321-8.909-25.948-12.9-36.524 7.436 9.977 18.116 24.92 26.357 38.941a3 3 0 0 0 5.173-3.04c-12.363-21.033-30.091-44.061-34.633-49.871 3.938.039 33.814.578 53.839 7.824a3 3 0 1 0 2.04-5.638c-10.844-3.924-24.081-5.964-35-7.028a172.289 172.289 0 0 1 63.594 12.128 3 3 0 1 0 2.185-5.588z"/><path d="m266.859 245.966c-3.713-21.135-15.124-45.651-15.608-46.684a3 3 0 1 0 -5.434 2.545 257.282 257.282 0 0 1 10.616 27.45c-11.277-19.476-29.743-40.722-30.773-41.9a3 3 0 0 0 -4.52 3.946c.327.374 32.69 37.6 37.408 57.349a3 3 0 0 0 2.915 2.3 3.06 3.06 0 0 0 .7-.082 2.988 2.988 0 0 0 1.894-1.419 3.266 3.266 0 0 0 .367-.032 3 3 0 0 0 2.435-3.473z"/><path d="m381.552 190.143a3 3 0 0 0 -4.231-.284c-.161.141-14.955 12.764-58.109 30.509 2.007-1.936 3.846-3.861 5.552-5.776 10.131-4.258 30.386-17.293 31.262-17.858a3 3 0 0 0 -3.252-5.042c-.148.1-10.469 6.739-19.9 12.043a49.944 49.944 0 0 0 3.2-6.221c3.689-8.728 4.1-15.744 1.238-20.855a13.232 13.232 0 0 0 -5.54-5.294 2.994 2.994 0 0 0 -4.343 2.214 2.948 2.948 0 0 0 1.534 3.071 7.348 7.348 0 0 1 3.116 2.945c1.886 3.362 1.357 8.75-1.532 15.583-5.02 11.876-17.014 23.173-28.632 31.978a79.366 79.366 0 0 0 16.665-36.324 3 3 0 1 0 -5.9-1.109c-5.48 29.968-26.712 45.845-36.491 51.7 15.038-38.332 15.23-53.579 15.23-54.243a2.994 2.994 0 0 0 -2.987-2.994h-.013a3.006 3.006 0 0 0 -3 2.981c0 .164-.336 16.855-17.522 58.822a3 3 0 0 0 5.3 2.751l.377.877 3.6.493c.381-.2 7.733-4.011 17.3-10.331 18.344-2.6 72.5-21.992 74.825-22.827a3 3 0 1 0 -2.028-5.648c-.409.147-29.722 10.646-52.515 17.341 49.478-19.588 65.8-33.647 66.517-34.273a3 3 0 0 0 .279-4.229z"/></g><path d="m265.614 260.623a8.485 8.485 0 0 1 -4.562-4.12 8.418 8.418 0 0 1 -.917-3.834 8.581 8.581 0 0 1 .122-1.425 8.441 8.441 0 0 1 2.673-4.871 8.266 8.266 0 0 1 2.684-1.646 8.555 8.555 0 0 1 3.016-.552 8.376 8.376 0 0 1 .916.044c.011 0 .011.011.022.011a8.488 8.488 0 0 1 7.432 6.97 7.932 7.932 0 0 1 .133 1.469 8.475 8.475 0 0 1 -.707 3.392 8.492 8.492 0 0 1 -10.8 4.562z" fill="#edb740"/></svg>