<svg height="464pt" viewBox="-40 0 464 464" width="464pt" xmlns="http://www.w3.org/2000/svg"><path d="m128 56.449219v-8.449219h-64v8.449219c0 47.054687-10.953125 93.464843-32 135.550781s-32 88.496094-32 135.550781v136.449219h192v-136.449219c0-47.054687-10.953125-93.464843-32-135.550781s-32-88.496094-32-135.550781zm0 0" fill="#7eb457"/><path d="m138.753906 136h-85.507812c-5.214844 19.324219-12.332032 38.082031-21.246094 56-21.042969 42.089844-32 88.496094-32 135.550781v136.449219h192v-136.449219c0-47.054687-10.957031-93.460937-32-135.550781-8.914062-17.917969-16.03125-36.675781-21.246094-56zm0 0" fill="#69a340"/><path d="m106.753906 136h32c-7.097656-25.921875-10.710937-52.675781-10.753906-79.550781v-8.449219h-32v8.449219c.042969 26.875 3.65625 53.628906 10.753906 79.550781zm0 0" fill="#69a340"/><path d="m160 192c-2.382812-4.800781-4.625-9.628906-6.726562-14.488281-1.273438-2.9375-2.402344-5.910157-3.609376-8.878907-.6875-1.738281-1.40625-3.464843-2.0625-5.207031-1.488281-4-2.867187-7.945312-4.1875-11.953125-.199218-.617187-.40625-1.226562-.605468-1.832031-1.457032-4.519531-2.808594-9.050781-4.054688-13.601563h-32c5.214844 19.308594 12.332032 38.054688 21.246094 55.960938 21.042969 42.089844 32 88.496094 32 135.550781v136.449219h32v-136.449219c0-47.054687-10.957031-93.460937-32-135.550781zm0 0" fill="#5f943a"/><path d="m64 0h64v48h-64zm0 0" fill="#ffb531"/><path d="m104 0h24v48h-24zm0 0" fill="#ffa912"/><path d="m190.273438 296h-158.273438v136h160v-104.449219c-.027344-10.539062-.601562-21.070312-1.726562-31.550781zm0 0" fill="#e0e0de"/><path d="m164 296-132 132v4h160v-104.449219c-.027344-10.539062-.601562-21.070312-1.726562-31.550781zm0 0" fill="#d6d6d4"/><path d="m56 352h16v56h-16zm0 0" fill="#ebebe9"/><path d="m56 320h16v16h-16zm0 0" fill="#ebebe9"/><path d="m376 200h-128c0 15.578125 5.054688 30.738281 14.398438 43.199219l9.601562 12.800781c-21.046875 42.085938-32 88.496094-32 135.550781v72.449219h144v-72.449219c0-47.054687-10.953125-93.464843-32-135.550781l9.601562-12.800781c9.34375-12.460938 14.398438-27.621094 14.398438-43.199219zm0 0" fill="#d6d6d4"/><path d="m352 256 9.601562-12.800781c9.34375-12.460938 14.398438-27.621094 14.398438-43.199219h-32c0 15.578125-5.054688 30.738281-14.398438 43.199219l-9.601562 12.800781c21.042969 42.089844 32 88.496094 32 135.550781v72.449219h32v-72.449219c0-47.054687-10.957031-93.460937-32-135.550781zm0 0" fill="#c9c9c7"/><path d="m300.710938 289.246094-14.75-6.214844c2.296874-5.4375 4.800781-10.917969 7.503906-16.289062l14.3125 7.136718c-2.539063 5.074219-4.914063 10.242188-7.066406 15.367188zm0 0" fill="#ebebe9"/><path d="m285.601562 337.640625-16-1.265625.335938-2.015625c2.589844-12.367187 6.011719-24.546875 10.238281-36.457031l15.082031 5.363281c-3.988281 11.226563-7.210937 22.710937-9.65625 34.375zm0 0" fill="#ebebe9"/><path d="m272 464h-96c-10.597656-31.792969-16-65.085938-16-98.601562v-29.398438h128v29.398438c0 33.515624-5.402344 66.808593-16 98.601562zm0 0" fill="#803a32"/><path d="m256 336v29.398438c0 33.515624-5.402344 66.808593-16 98.601562h32c10.597656-31.792969 16-65.085938 16-98.601562v-29.398438zm0 0" fill="#733029"/><g fill="#914b43"><path d="m184.449219 377.023438c-.296875-5.765626-.449219-11.480469-.449219-17.023438h16c0 5.28125.152344 10.710938.433594 16.191406zm0 0"/><path d="m192.265625 433.902344c-3.1875-13.546875-5.417969-27.304688-6.664063-41.167969l15.917969-1.519531c1.175781 13.09375 3.277344 26.085937 6.296875 38.882812zm0 0"/></g></svg>