<svg id="Capa_1" enable-background="new 0 0 511.707 511.707" height="512" viewBox="0 0 511.707 511.707" width="512" xmlns="http://www.w3.org/2000/svg"><g><g><circle cx="57.355" cy="227.695" fill="#e94442" r="36.064"/><path d="m45.399 193.66c1.046 16.338 14.628 29.266 31.23 29.266 5.708 0 11.058-1.528 15.665-4.198-3.986-15.579-18.118-27.097-34.94-27.097-4.19 0-8.213.715-11.955 2.029z" fill="#cf3636"/><path d="m326.86 57.948c-2.347-3.417-7.143-4.066-10.302-1.382-28.75 24.425-34.926 67.135-13.103 98.909 23.296 33.919 69.679 42.531 103.598 19.235l-18.393-26.78c-19.129 13.138-45.288 8.281-58.426-10.848-11.982-17.446-8.997-40.738 6.131-54.668 2.563-2.36 3.012-6.239 1.04-9.111z" fill="#e94442"/><path d="m410.759 225.813s9.985-57.462 65.762-53.106c4.505.352 7.523 4.785 6.163 9.094-5.254 16.646-22.48 52.604-71.925 44.012z" fill="#96c642"/><path d="m378.847 108.337c-33.716 1.963-60.451 29.927-60.451 64.135 0 31.711 22.975 58.055 53.187 63.297 33.716-1.963 60.451-29.927 60.451-64.135 0-31.711-22.975-58.055-53.187-63.297z" fill="#fcd258"/><path d="m334.432 171.634c0-30.157 20.779-55.461 48.801-62.376-4.947-1.221-10.12-1.869-15.444-1.869-35.481 0-64.245 28.763-64.245 64.245s28.763 64.245 64.245 64.245c5.324 0 10.497-.648 15.444-1.869-28.022-6.915-48.801-32.219-48.801-62.376z" fill="#f9b044"/><circle cx="367.789" cy="171.634" fill="#ffeabb" r="31.7"/><path d="m336.089 212.128c1.936-3.59 4.804-6.606 8.246-8.795 11.057-7.031 16.995-7.198 26.551-3.908 3.469 1.194 7.335-.592 8.658-4.014.73-1.887 2.301-9.194 3.397-10.866 7.676-11.706 23.758-17.509 40.045-8.532 2.597 1.431 4.846 3.454 6.497 5.917 5.009 7.475 6.579 15.186 5.632 22.139-.45 3.302 1.613 6.463 4.788 7.472 13.328 4.236 23.216 16.451 23.804 31.233.702 17.681-12.153 32.759-29.301 35.199-7.885 26.373-38.237 43.381-69.621 27.809-6.043-2.998-11.173-7.633-14.705-13.381-7.743-12.6-9.695-25.494-7.486-36.973-14.527-8.884-17.175-23.511-6.505-43.3z" fill="#a0d94c"/><path d="m296.274 174.717s-73.55-13.891-59.658-87.447c0-.001 73.729 12.942 59.658 87.447z" fill="#96c642"/><circle cx="88.65" cy="176.185" fill="#e94442" r="31.295"/><path d="m246.517 141.79c-1.935-3.589-4.802-6.603-8.243-8.791-11.058-7.032-22.478-7.874-32.035-4.584-3.469 1.194-7.335-.592-8.658-4.014-2.406-6.222-6.935-11.416-12.732-14.654-7.22-2.101-15.66-1.44-24.156 3.243-2.597 1.431-4.846 3.454-6.497 5.917-5.009 7.475-6.579 15.186-5.631 22.139.45 3.302-1.613 6.463-4.789 7.473-13.328 4.236-23.216 16.451-23.803 31.233-.538 13.535 6.869 25.543 18.064 31.526 1.72.536 3.5.94 5.329 1.201.121.405.248.808.379 1.209 1.782.567 3.629.993 5.529 1.263 3.748 12.535 12.57 22.954 24.167 28.765 11.7 3.983 25.52 3.531 39.546-3.428 6.042-2.998 11.172-7.633 14.704-13.38 7.743-12.6 9.695-25.494 7.486-36.974 14.527-8.888 22.011-28.355 11.34-48.144z" fill="#a0d94c"/><g><path d="m174.253 212.477c-17.148-2.441-30.003-17.518-29.301-35.199.59-14.842 10.557-27.096 23.967-31.284 3.189-.996 5.047-4.223 4.609-7.535-.907-6.864.638-14.46 5.52-21.834 1.718-2.595 4.066-4.718 6.801-6.204l.075-.041c-8.408-5.193-19.757-6.163-31.203.172-2.573 1.424-4.796 3.439-6.434 5.882-5.009 7.475-6.579 15.187-5.632 22.139.45 3.302-1.613 6.463-4.789 7.473-13.328 4.236-23.216 16.451-23.804 31.233-.702 17.681 12.153 32.759 29.301 35.199 7.166 23.967 32.886 40.199 61.073 31.275-14.531-4.908-25.81-16.652-30.183-31.276z" fill="#96c642"/></g><path d="m192.171 247.768c0-30.002-20.566-55.201-48.369-62.268-1.195-.066-2.398-.1-3.609-.1-35.481 0-64.245 28.763-64.245 64.245 0 30.002 20.566 55.2 48.369 62.268 1.195.066 2.398.1 3.609.1 35.482 0 64.245-28.763 64.245-64.245z" fill="#fcd258"/><path d="m94.993 247.768c0-30.081 20.674-55.334 48.589-62.324-5.011-1.255-10.256-1.921-15.656-1.921-35.481 0-64.245 28.763-64.245 64.245s28.763 64.245 64.245 64.245c5.4 0 10.644-.666 15.656-1.921-27.915-6.99-48.589-32.242-48.589-62.324z" fill="#f9b044"/><circle cx="127.927" cy="247.768" fill="#ffeabb" r="31.7"/><g><path d="m383.415 183.846c-1.304 1.867-2.39 3.894-3.222 6.045-1.323 3.419-5.163 5.229-8.628 4.032-9.563-3.303-20.997-2.468-32.068 4.572-3.441 2.188-6.308 5.202-8.243 8.791-10.672 19.79-3.187 39.256 11.34 48.143-1.227 6.379-1.169 13.194.453 20.153 5.084-4.624 9.928-9.785 14.43-15.457 19.187-24.172 27.944-52.279 25.938-76.279z" fill="#96c642"/><path d="m331.495 141.524c-5.751-4.565-12.261-7.748-19.26-9.624-27.869-2.185-60.719 13.525-84.247 43.166-32.944 41.503-35.141 94.603-4.906 118.603 5.751 4.565 12.261 7.748 19.26 9.624 27.869 2.185 60.718-13.525 84.247-43.166 32.943-41.504 35.14-94.604 4.906-118.603z" fill="#ebf3ff"/><path d="m243.648 291.82c-30.234-23.999-28.038-77.099 4.906-118.603 17.77-22.387 40.857-36.827 63.099-41.613-29.636-7.289-67.65 8.434-93.987 41.613-32.944 41.503-35.141 94.603-4.906 118.603 13.926 11.054 32.303 14.006 51.296 9.919-7.435-1.828-14.344-5.105-20.408-9.919z" fill="#dbeafc"/><circle cx="259.905" cy="231.712" fill="#fcd258" r="31.656"/></g><g><path d="m321.913 503.622h-108.232l-23.431-7v-25.204l65.603-11.983 73.06 11.983v25.204c0 3.866-3.134 7-7 7z" fill="#505559"/><path d="m271.297 461.968-15.444-2.533-73.06 11.983v25.204c0 3.866 3.134 7 7 7h23.888v-32.204z" fill="#373c42"/><path d="m462.842 407.68c9.323-10.416-8.538-21.855-1.647-34.13 5.373-9.572 36.012-19.65 39.702-30.147 7.002-19.919 10.81-41.341 10.81-63.653l-27.465-20.34-434.458 4.349-18.896 15.991c0 22.422-17.741 43.947-10.673 63.949 3.95 11.178 40.588 21.881 46.441 32 6.631 11.462-17.268 22.175-8.492 31.98 35.136 39.256 86.197 63.962 143.027 63.962h118.626c56.829-.001 107.889-24.705 143.025-63.961z" fill="#b5dbff"/><path d="m79.751 407.679c-8.776-9.805 15.123-20.518 8.492-31.98-5.854-10.119-42.491-20.821-46.441-32-7.068-20.002-10.914-41.526-10.914-63.949l244.217-9.446-15.199-.607-232.722-10.286-27.184 20.339c0 22.422 3.846 43.947 10.914 63.949 3.95 11.178 40.587 21.881 46.441 32 6.631 11.462-17.268 22.175-8.492 31.98 35.136 39.256 86.197 63.961 143.027 63.961h30.888c-56.831 0-107.891-24.705-143.027-63.961z" fill="#a5cff2"/><path d="m511.706 279.75h-480.818l-21.587-4.167v-19.73l21.774-8.085h473.424c3.98 0 7.207 3.227 7.207 7.207z" fill="#505559"/><path d="m38.095 247.768h-30.888c-3.98 0-7.207 3.227-7.207 7.207v24.774h30.888v-24.774c0-3.98 3.227-7.207 7.207-7.207z" fill="#373c42"/><path d="m500.787 343.713h-458.98l-17.49 9.259 26.654 45.8 28.778 8.904h383.095c16.52-18.456 29.519-40.128 37.943-63.963z" fill="#ebf3ff"/><path d="m10.919 343.713c8.424 23.834 21.423 45.507 37.943 63.963h30.888c-16.519-18.457-29.518-40.129-37.943-63.963z" fill="#dbeafc"/></g><g fill="#ffeabb"><circle cx="192.171" cy="55.879" r="15.812"/><circle cx="255.853" cy="23.897" r="15.812"/></g></g></g></svg>