<?xml version="1.0" encoding="iso-8859-1"?>
<!-- Generator: Adobe Illustrator 21.0.0, SVG Export Plug-In . SVG Version: 6.00 Build 0)  -->
<svg xmlns="http://www.w3.org/2000/svg" xmlns:xlink="http://www.w3.org/1999/xlink" version="1.1" id="Capa_1" x="0px" y="0px" viewBox="0 0 512 512" style="enable-background:new 0 0 512 512;" xml:space="preserve" width="512" height="512">
<g>
	<ellipse style="fill:#EF6161;" cx="143.71" cy="376.886" rx="99.928" ry="57.614"/>
	<ellipse style="fill:#F57C7C;" cx="117.956" cy="319.272" rx="99.928" ry="57.614"/>
	<path style="fill:#EF6161;" d="M117.956,261.659c-5.256,0-10.416,0.235-15.453,0.686c47.85,4.283,84.475,28.139,84.475,56.928   s-36.624,52.645-84.475,56.928c5.037,0.451,10.197,0.686,15.453,0.686c55.188,0,99.928-25.795,99.928-57.614   C217.883,287.453,173.144,261.659,117.956,261.659z"/>
	<ellipse style="fill:#FAB2B2;" cx="99.928" cy="266.288" rx="99.928" ry="57.614"/>
	<path style="fill:#F57C7C;" d="M99.928,208.674c-5.256,0-10.416,0.235-15.453,0.686c47.85,4.283,84.475,28.139,84.475,56.928   s-36.624,52.645-84.475,56.928c5.037,0.451,10.197,0.686,15.453,0.686c55.188,0,99.928-25.795,99.928-57.614   C199.855,234.469,155.116,208.674,99.928,208.674z"/>
	<path style="fill:#F57C7C;" d="M512,177.295c0,79.327-41.492,99.795-113.605,99.795H268.877V77.5h129.518   C470.508,77.5,512,97.969,512,177.295z"/>
	<path style="fill:#EF6161;" d="M398.395,77.5H367.49c72.113,0,113.605,20.469,113.605,99.795s-41.492,99.795-113.605,99.795h30.905   c72.113,0,113.605-20.469,113.605-99.795S470.508,77.5,398.395,77.5z"/>
	<ellipse style="fill:#FAB2B2;" cx="268.362" cy="177.296" rx="57.69" ry="99.795"/>
	<g>
		<path style="fill:#EF6161;" d="M269.483,142.397c1.105,3.051,3.984,4.947,7.052,4.947c0.849,0,1.711-0.145,2.555-0.451    c3.895-1.411,5.907-5.711,4.497-9.606l-3.864-10.667c-1.411-3.894-5.707-5.908-9.606-4.497c-3.895,1.411-5.908,5.712-4.497,9.606    L269.483,142.397z"/>
		<path style="fill:#EF6161;" d="M257.194,182.961l-9.934-5.48c-3.626-2.001-8.189-0.683-10.19,2.944    c-2.001,3.627-0.683,8.189,2.944,10.19l9.934,5.48c1.148,0.634,2.391,0.935,3.616,0.935c2.644,0,5.206-1.4,6.573-3.878    C262.139,189.524,260.821,184.962,257.194,182.961z"/>
		<path style="fill:#EF6161;" d="M281.674,222.247c-3.022-2.831-7.77-2.674-10.601,0.349l-7.754,8.282    c-2.831,3.024-2.675,7.77,0.349,10.601c1.446,1.354,3.287,2.025,5.124,2.025c2.003,0,4-0.797,5.477-2.374l7.754-8.282    C284.854,229.824,284.697,225.078,281.674,222.247z"/>
		<path style="fill:#EF6161;" d="M127.77,264.659c-3.723-1.814-8.213-0.268-10.027,3.457l-4.97,10.199    c-1.814,3.723-0.267,8.213,3.457,10.027c1.058,0.516,2.177,0.759,3.28,0.759c2.778,0,5.449-1.55,6.748-4.216l4.97-10.199    C133.042,270.963,131.494,266.473,127.77,264.659z"/>
		<path style="fill:#EF6161;" d="M119.076,241.007c0.746-4.075-1.953-7.982-6.027-8.728l-9.397-1.72    c-4.074-0.746-7.982,1.953-8.728,6.027c-0.746,4.075,1.953,7.982,6.027,8.728l9.397,1.72c0.457,0.083,0.911,0.124,1.359,0.124    C115.259,247.158,118.414,244.625,119.076,241.007z"/>
		<path style="fill:#EF6161;" d="M72.35,254.982l-9.398-1.72c-4.071-0.746-7.981,1.953-8.728,6.027    c-0.746,4.075,1.953,7.982,6.027,8.728l9.398,1.72c0.457,0.083,0.911,0.124,1.359,0.124c3.551,0,6.707-2.534,7.369-6.151    C79.123,259.635,76.424,255.728,72.35,254.982z"/>
	</g>
</g>















</svg>
