<?xml version="1.0" encoding="iso-8859-1"?>
<!-- Generator: Adobe Illustrator 19.0.0, SVG Export Plug-In . SVG Version: 6.00 Build 0)  -->
<svg version="1.1" id="Capa_1" xmlns="http://www.w3.org/2000/svg" xmlns:xlink="http://www.w3.org/1999/xlink" x="0px" y="0px"
	 viewBox="0 0 512 512" style="enable-background:new 0 0 512 512;" xml:space="preserve">
<path style="fill:#BF6015;" d="M315.048,19.799l-19.799,61h-108.6l-19.799-61c-1.802-4.499-0.901-9.6,1.8-13.5
	c2.999-3.9,7.5-6.299,12.299-6.299h120c4.799,0,9.3,2.399,12.299,6.299C315.949,10.199,316.85,15.3,315.048,19.799z"/>
<path style="fill:#994C10;" d="M295.249,80.799h-54.3V0h60c4.799,0,9.3,2.399,12.299,6.299c2.701,3.9,3.602,9.001,1.8,13.5
	L295.249,80.799z"/>
<path style="fill:#C8C6CD;" d="M449.66,119.081C435.348,101.239,414.02,91,391.154,91H285.949v60.009l105.205,0.005
	c4.556,0,8.848,2.065,11.704,5.61c2.842,3.56,3.926,8.203,2.944,12.642l-46.381,208.711l55.887,25.049l49.058-220.767
	C469.318,159.95,463.971,136.908,449.66,119.081z"/>
<path style="fill:#E5E5E5;" d="M327.349,211l-17.701,30H172.25l-17.701-30c7.5-22.5,11.4-46.201,11.4-70.501V139.6l-28.5-57.001
	c-2.1-4.499-2.1-10.199,0.601-14.399c2.999-4.501,7.8-7.2,12.9-7.2h150c8.401,0,15,6.599,15,15v64.499
	C315.949,164.799,319.849,188.5,327.349,211z"/>
<path style="fill:#D9D9D9;" d="M327.349,211l-17.701,30h-68.699V61h60c8.401,0,15,6.599,15,15v64.499
	C315.949,164.799,319.849,188.5,327.349,211z"/>
<path style="fill:#FEDB41;" d="M435.949,376.899c1.199,21.301-6.599,42.001-21.899,57.001l-38.101,38.399V497
	c0,8.399-6.599,15-15,15h-240c-8.401,0-15-6.601-15-15v-24.701L67.848,433.9c-15.3-15-23.099-35.7-21.899-57.001
	c2.1-40.499,32.999-57.599,35.7-60.599c33.3-26.7,59.099-63.001,72.9-105.3h172.8c22.8,69.6,68.699,99.899,80.7,111.299
	C424.549,335.799,434.75,355.6,435.949,376.899z"/>
<path style="fill:#FCBF29;" d="M435.949,376.899c1.199,21.301-6.599,42.001-21.899,57.001l-38.101,38.399V497
	c0,8.399-6.599,15-15,15h-120V211h86.4c22.8,69.6,68.699,99.899,80.7,111.299C424.549,335.799,434.75,355.6,435.949,376.899z"/>
<circle style="fill:#FEA832;" cx="210.95" cy="436" r="15"/>
<circle style="fill:#FF873C;" cx="270.95" cy="286" r="15"/>
<circle style="fill:#FEA832;" cx="150.95" cy="376" r="15"/>
<path style="fill:#FF873C;" d="M300.949,421c-24.814,0-45-20.186-45-45s20.186-45,45-45s45,20.186,45,45S325.763,421,300.949,421z"
	/>
<g>
</g>
<g>
</g>
<g>
</g>
<g>
</g>
<g>
</g>
<g>
</g>
<g>
</g>
<g>
</g>
<g>
</g>
<g>
</g>
<g>
</g>
<g>
</g>
<g>
</g>
<g>
</g>
<g>
</g>
</svg>
