<svg height="512" viewBox="0 0 58 58" width="512" xmlns="http://www.w3.org/2000/svg"><g id="Page-1" fill="none" fill-rule="evenodd"><g id="008---Caviar" fill-rule="nonzero"><path id="Shape" d="m22.064 10.389c-5.664-4.463-2.557-10.389 1.936-10.389s7.6 5.926 1.936 10.389z" fill="#d25627"/><path id="Shape" d="m32.064 10.389c-5.664-4.463-2.557-10.389 1.936-10.389s7.6 5.926 1.936 10.389z" fill="#d25627"/><path id="Shape" d="m16.6 15c-5.022-4.41-1.964-10 2.4-10s7.422 5.59 2.4 10z" fill="#e57e25"/><path id="Shape" d="m26.6 15c-5.022-4.41-1.964-10 2.4-10s7.422 5.59 2.4 10z" fill="#e57e25"/><path id="Shape" d="m36.6 15c-5.022-4.41-1.964-10 2.4-10s7.422 5.59 2.4 10z" fill="#e57e25"/><path id="Shape" d="m7 15h44c1.1045695 0 2 .8954305 2 2v4.083h-48v-4.083c0-1.1045695.8954305-2 2-2z" fill="#547580"/><g fill="#f29c1f"><path id="Shape" d="m9 15c0-2.7614237 2.2385763-5 5-5s5 2.2385763 5 5z"/><path id="Shape" d="m19 15c0-2.7614237 2.2385763-5 5-5s5 2.2385763 5 5z"/><path id="Shape" d="m29 15c0-2.7614237 2.2385763-5 5-5s5 2.2385763 5 5z"/><path id="Shape" d="m39 15c0-2.7614237 2.2385763-5 5-5s5 2.2385763 5 5z"/></g><rect id="Rectangle-path" fill="#3f5c6c" height="38" rx="2" width="58" y="20"/><path id="Shape" d="m55 25c0 .5522847-.4477153 1-1 1h-54v-2h54c.5522847 0 1 .4477153 1 1z" fill="#35495e"/><path id="Shape" d="m9 39c0 .5522847-.44771525 1-1 1h-8v-2h8c.55228475 0 1 .4477153 1 1z" fill="#35495e"/><path id="Shape" d="m58 38v2h-8c-.5522847 0-1-.4477153-1-1s.4477153-1 1-1z" fill="#35495e"/><path id="Shape" d="m58 52v2h-54c-.55228475 0-1-.4477153-1-1s.44771525-1 1-1z" fill="#35495e"/><path id="Shape" d="m24 39c.0056045 1.9450957-.2809239 3.8800051-.85 5.74-2.9394323-1.0065908-5.605775-2.6803284-7.79-4.89-.230228-.2228589-.3602066-.5295768-.3602066-.85s.1299786-.6271411.3602066-.85c2.184225-2.2096716 4.8505677-3.8834092 7.79-4.89.5690761 1.8599949.8556045 3.7949043.85 5.74z" fill="#67b9cc"/><path id="Shape" d="m40.95 42.22c.1194482.4196208.0140502.8711762-.2788227 1.1945568-.292873.3233805-.7318106.4728623-1.1611773.3954432-1.6269928-.2290081-3.1818583-.8201987-4.55-1.73-1.2523813.9245567-2.6165062 1.687257-4.06 2.27.2930247 1.1840937.3474148 2.4146715.16 3.62-.0916885.4172912-.3798192.7643243-.7731336.931185-.3933145.1668607-.8430882.132878-1.2068664-.091185-1.4366051-.8521754-2.5991035-2.0979572-3.35-3.59-.87534-.0622678-1.7408353-.2232901-2.58-.48 1.1333298-3.7427531 1.1333298-7.7372469 0-11.48.8391647-.2567099 1.70466-.4177322 2.58-.48.7508965-1.4920428 1.9133949-2.7378246 3.35-3.59.3637782-.224063.8135519-.2580457 1.2068664-.091185.3933144.1668607.6814451.5138938.7731336.931185.1874148 1.2053285.1330247 2.4359063-.16 3.62 1.4434938.582743 2.8076187 1.3454433 4.06 2.27 1.3681417-.9098013 2.9230072-1.5009919 4.55-1.73.4293667-.0774191.8683043.0720627 1.1611773.3954432.2928729.3233806.3982709.774936.2788227 1.1945568-.2915114 1.0478891-.4296135 2.1324956-.41 3.22-.0196135 1.0875044.1184886 2.1721109.41 3.22z" fill="#2fa8cc"/><circle id="Oval" cx="20" cy="39" fill="#35495e" r="1"/></g></g></svg>