<svg id="Layer_1" enable-background="new 0 0 512 512" viewBox="0 0 512 512" xmlns="http://www.w3.org/2000/svg"><g><g fill="#7ad0df"><path d="m337.498 199.049s-41.578-25.369-56.696-49.935c-.559-.909-1.59-1.411-2.648-1.255-7.493 1.105-37.086 6.763-54.846 28.986-1.091 1.365-.542 3.4 1.081 4.056 9.385 3.795 37.227 15.63 52.672 28.393l60.437-7.3z"/><path d="m180.797 314.777s-31.898 1.661-50.916 32.522c-.527.855-1.634 1.141-2.495.623l-43.67-26.282c-1.222-.735-1.167-2.521.101-3.172 8.38-4.302 31.886-17.488 34.139-31.077z"/><path d="m336.01 333.728s-17.932 16.592-31.533 27.283c-.991.779-2.155 1.301-3.397 1.523-5.129.92-20.639 2.901-50.457.464-2.544-.208-3.716-3.266-1.95-5.102l31.447-32.722z"/></g><path d="m57 261.58v15.57c0 3.8 3.43 7.33 9.09 9.34 31.06 11.05 153.87 48.44 237.81 50.6 31.35.81 62.16-1.78 89.49-5.98-.39-8.78 25.71-4.6 25.71-4.6 13.77-2.81 26.16-5.95 36.66-9.09 2.56-.76 3.42-4 1.52-5.88-9.9-9.85-25.56-17.2-13.45-20.02 29.88-6.96 50.97 8.47 57.2 5.95 10.23-4.14 13.83-11.84 8.56-18.31-21.09-25.85-87.39-85.77-204.97-85.77-91.81 0-208.69 46.3-239.75 59.32-4.96 2.08-7.87 5.37-7.87 8.87z" fill="#b9e4ef"/><g fill="#93d8e4"><path d="m509.589 279.16c-21.09-25.85-87.39-85.77-204.97-85.77-8.286 0-16.778.382-25.39 1.078 110.551 3.667 173.283 60.57 193.689 85.581 2.915 3.579 3.105 7.532.971 11.053 13.763 2.633 23.291 7.925 27.141 6.368 10.229-4.14 13.829-11.84 8.559-18.31z"/><path d="m440.647 292.714c-9.169-2.124-20.497-3.331-33.489-.305-12.11 2.82 3.55 10.17 13.45 20.02 1.9 1.88 1.04 5.12-1.52 5.88-10.5 3.14-51.521 16.135-110.392 18.873 29.69.444 58.759-2.086 84.694-6.072-.39-8.78 25.71-4.6 25.71-4.6 13.77-2.81 26.16-5.95 36.66-9.09 2.56-.76 3.42-4 1.52-5.88-8.726-8.681-21.913-15.418-16.633-18.826z"/></g><path d="m325.136 278.265s-37.715-7.901-55.257-5.325-4.637 49.735 36.755 32.147c30.961-13.156 18.502-26.822 18.502-26.822z" fill="#7ad0df"/><g><circle cx="404.269" cy="259.007" fill="#f6f1f1" r="15.453"/></g><path d="m384.34 325.31c3.04 2.16 6.09 4.09 9.05 5.8 8.98-1.38 17.59-2.93 25.71-4.6-5.96-2.11-16.34-6.43-26.4-13.67-19.58-14.1-28.93-32.39-27.79-54.35.21-4.14-2.97-7.67-7.11-7.88-4.13-.2-7.66 2.97-7.87 7.1-1.41 27.17 10.5 50.54 34.41 67.6z" fill="#7ad0df"/><path d="m0 252.72v32.43s9.56 7.12 0 15.15v33.46c0 2.97 2.52 5.34 5.48 5.12 39.86-3.02 53.29-38.65 57.08-52.88-8.66-3.67 1.31-15.88 1.31-15.88v-2.37s-12.19-10.34-1.31-15.88c-3.79-14.23-17.22-49.87-57.08-52.88-2.96-.22-5.48 2.15-5.48 5.12v33.46s9.89 8.43 0 15.15z" fill="#7ad0df"/><g fill="#93d8e4"><path d="m0 237.57v15.15c17.72 2.66 58.4 13.56 63.87 15.03v-10.06s-.34-2.23-1.31-5.82c-13.68-3.62-47.45-12.36-62.56-14.3z"/><path d="m0 285.15v15.15c15.11-1.94 48.88-10.68 62.56-14.3.97-3.59 1.31-5.82 1.31-5.82v-10.06c-5.47 1.47-46.15 12.37-63.87 15.03z"/></g></g><g/><g/><g/><g/><g/><g/><g/><g/><g/><g/><g/><g/><g/><g/><g/></svg>