<svg id="Layer_1" enable-background="new 0 0 3000 3000" height="512" viewBox="0 0 3000 3000" width="512" xmlns="http://www.w3.org/2000/svg"><g><g><path d="m2731 1367v211.2c0 198.3-50.3 384.8-138.8 547.4-19.4 35.7-40.6 70.3-63.6 103.5-207.1 300.2-553.4 496.9-945.6 496.9h-212.9c-116.4 0-228.7-17.3-334.6-49.5-242.9-73.9-451.7-226.1-596.9-427.3-23.8-33-45.9-67.3-66.2-102.9-95.7-167.5-150.4-361.4-150.4-568.1v-211.2z" fill="#f96b02"/></g><path d="m2731 1367v211.2c0 198.3-50.3 384.8-138.8 547.4-19.4 35.7-40.6 70.3-63.6 103.5-207 300.1-553.3 496.8-945.5 496.8h-213c-116.4 0-228.7-17.3-334.6-49.5 342.8-70.9 796.6-341.1 1064.4-1210.9 10.4-34 21.2-66.9 32.2-98.6z" fill="#cc5900" opacity=".22"/><ellipse cx="1477.9" cy="1367.4" fill="#fdbc59" rx="1255.7" ry="330.5"/><path d="m2592.6 1383.8c0 19-10.5 37.4-30.5 55.1-117.2 103.9-558.4 181.1-1084.7 181.1-553.7 0-1013-85.4-1100.3-197.4-9.9-12.6-14.9-25.5-14.9-38.8 0-130.5 499.3-236.1 1115.3-236.1 615.8-.1 1115.1 105.7 1115.1 236.1z" fill="#ff9a02"/><path d="m2562.3 1439.4c-51.9 46-167.3 86.7-325.7 117.9-46.2 9.1-96.1 17.3-149 24.7-22.7 3.2-46.1 6.1-70.1 9h-1.6c-41.5 4.9-84.7 9.1-129.1 12.9-40.4 3.3-82 6.2-124.7 8.7-43.7 2.5-88.5 4.4-134.2 5.6-31.1.9-62.6 1.5-94.4 1.8h-1.4l-26.9 1s-18.3.1-27.6.1c-46.6 0-92.4-.6-137.4-1.8-36.7-1-72.9-2.3-108.4-4-126.5-6.1-244.9-16.6-351.2-31-56.3-7.6-109.4-16.2-158.2-25.8-26.8-5.3-52.4-10.8-76.6-16.5-138.1-32.7-233.9-73.8-269-119.1 113.7-68.5 279.9-125.3 479.9-163.4 36.3-6.9 73.9-13.3 112.4-18.9 81.7-12.1 167.9-21.3 257.5-27 30.4-2 61.3-3.5 92.5-4.7h-.1s91.3-2.5 137.8-2.5c25.8 0 76.9 1.5 76.9 1.5h-.2c27.1.5 54 1.4 80.6 2.6 3.7.1 7.6.3 11.3.5 22.2 1 44.1 2.3 65.9 3.7 37.1 2.4 73.7 5.5 109.5 9 137.1 13.6 264.6 35.1 377.9 63 3.6.9 7.2 1.8 10.9 2.7 8.7 2.2 17.2 4.4 25.7 6.7 31.5 8.3 61.8 17.2 90.8 26.7.2.1.5.1.8.2 102.9 33.3 189.7 72.7 255.4 116.4z" fill="#dc4400"/><path d="m880.6 1583.4c-56.3-7.6-109.3-16.1-158.1-25.7-91.1-98 1.8-206.8 134.1-297.9 36.3-6.9 73.9-13.3 112.3-18.9-184.4 152.5-170.3 263.9-88.3 342.5z" fill="#732c00" opacity=".33"/><path d="m1226.3 1214c-184.7 122.6-305.8 280.4 5.4 400.3 35.5 1.6 71.6 3.1 108.4 4-152-75.9-263.7-205.6-21.3-409.1z" fill="#732c00" opacity=".33"/><path d="m1626.6 1618.1c-31.3.9-62.9 1.5-95 1.9-327.9-123.2-192-287.3 1.6-411.8 27.1.5 53.9 1.4 80.5 2.6-241.9 201.5-136.3 330.8 12.9 407.3z" fill="#ffbb58" opacity=".22"/><path d="m2562.1 1440.3c-51.9 45.7-167.4 86.2-325.6 117.1-46.1 9-96 17.2-148.9 24.5-22.7 3.2-46.1 6.1-70 9.7-41.8 4.2-85.2 8.5-130 12.2-40.7 3.4-82.7 6.3-125.5 8.7-44 2.4-89.1 4.3-135.1 5.6-31.3.9-63 1.5-95.1 2.1-8.9-.2-17.9-.1-26.9-.1-9.2 0-18.3.1-27.6.1-46.5 0-92.4-.5-137.3-1.8-36.7-1-72.8-2.3-108.4-4-126.5-5.9-244.8-16.5-351-30.6-56.3-7.5-109.3-16-158.1-25.6-26.8-5.2-52.4-10.7-76.5-16.4 2335.5 78.5 1659.4-216.8 1659.4-216.8l1.3-.4c103 33.3 189.6 72.4 255.3 115.7z" fill="#732c00" opacity=".11"/><g><path d="m2368.6 1135.7c-14.8 45.8-27.3 97.1-36.8 154.7l-640.5 30c-5.1-2.5-28.1-50.4-52.6-124.8-17.4-53-35.6-119.4-48.6-192.5-28.8-161.9-32.5-356.4 53.3-509.8 42.8-76.5 107.8-142.8 203-189.6 73.9-36.3 146.6-61.2 217.1-76.5 51.4-11.2 101.7-17.2 150.1-18.9 6.9-.2 13.8-.4 20.6-.5 312.7-2.8 549.2 176.4 576.2 336.7.5 2.8.9 5.6 1.2 8.4 24.9 201.8-307.4 164.5-443 582.8z" fill="#fdc300"/><path d="m1704.1 1221s-385-876.3 450.8-969.2c127.6-14.2 256.3 13.5 367 78.5 147.9 86.8 319 222 168.8 321.1-239 157.7-437.4 467.9-411.9 625.5s-498.4 45.8-498.4 45.8z" fill="#d95c00" opacity=".11"/><path d="m2317.2 1398.2c-66 13-139.5 24.2-219 34.2-41.8 4.2-85.2 8.5-130 12.2-82.5 6.9-169.9 11.7-260.7 14.3-31.3.9-63 1.5-95.1 2.1-8.9-.2-17.9-.1-26.9-.1l68.1-190.3s35-26.5 83.3-44.7c51.9-19.7 119.3-29.8 174.9 12.8 107.3 82.1 321.5-112.6 408.8-12.5 4.4 5.1 8.2 10.3 11.4 15.8 27.8 47.2 11.1 106.2-14.8 156.2z" fill="#dc4400"/><path d="m2332 1240.5c-10 8.5-30.5 13.7-72-8.2-72.6-38.3-269.7 115-339.9 41.8-70.2-73.1-180.3-42.1-180.3-42.1l-2.9-7.8c51.9-19.8 119.3-29.9 174.9 13 107.3 82.7 321.5-113.3 408.8-12.6 4.5 5.2 8.3 10.4 11.4 15.9z" fill="#732c00" opacity=".11"/><path d="m2368.6 1135.7c-14.8 45.8-27.3 97.1-36.8 154.7l-640.5 30c-5.1-2.5-28.1-50.4-52.6-124.8l6.1-3.3s155.5-68.7 300.2 7.2c120.3 63.2 303.1-136.1 423.6-63.8z" fill="#dc4400" opacity=".22"/><path d="m2331.9 1290.4-640.5 30c-8.8-4.3-69.9-141.6-101.2-317.4 90.5-35.7 200-57.8 295.3-17.2 207.5 88.4 407.4 52.7 646.7-307.6 192.6-290-159.3-406.8-318.4-470 322.9-11.1 569.3 172.5 596.8 336.3.5 2.8.9 5.6 1.2 8.4 27.4 223.9-384.6 153.5-479.9 737.5z" fill="#d95c00" opacity=".11"/><path d="m2236.4 216.2c-298.9 24.9-529.7 218.8-592.9 277.1 42.8-76.5 107.8-142.8 203-189.6 73.9-36.3 146.6-61.2 217.1-76.5 51.4-11.2 101.7-17.2 150.1-18.9 6.9-.2 13.8-.4 20.6-.5z" fill="#fff214" opacity=".11"/><g fill="#d95c00"><ellipse cx="1845.9" cy="1095.6" opacity=".22" rx="25.8" ry="25.3" transform="matrix(.237 -.972 .972 .237 343.999 2629.221)"/><ellipse cx="2405.3" cy="939.4" opacity=".22" rx="25.8" ry="25.3" transform="matrix(.237 -.972 .972 .237 922.57 3053.553)"/><ellipse cx="2354.8" cy="643.7" opacity=".22" rx="25.8" ry="25.3" transform="matrix(.237 -.972 .972 .237 1171.359 2778.777)"/><ellipse cx="2071.9" cy="792.3" opacity=".22" rx="25.8" ry="25.3" transform="matrix(.237 -.972 .972 .237 811.111 2617.356)"/><ellipse cx="2044.2" cy="588.5" opacity=".22" rx="25.8" ry="25.3" transform="matrix(.237 -.972 .972 .237 988.006 2435.008)"/><ellipse cx="1868.4" cy="781.2" opacity=".22" rx="38.1" ry="37.7" transform="matrix(.707 -.707 .707 .707 -5.229 1549.837)"/><ellipse cx="2125.6" cy="1135.3" opacity=".22" rx="38.1" ry="37.7" transform="matrix(.707 -.707 .707 .707 -180.237 1835.413)"/><ellipse cx="1937.7" cy="397.3" opacity=".22" rx="38.1" ry="37.7" transform="matrix(.707 -.707 .707 .707 286.518 1486.401)"/><ellipse cx="2200.1" cy="311" opacity=".22" rx="38.1" ry="37.7" transform="matrix(.707 -.707 .707 .707 424.354 1646.659)"/></g></g></g></svg>