<svg id="Capa_1" enable-background="new 0 0 512 512" height="512" viewBox="0 0 512 512" width="512" xmlns="http://www.w3.org/2000/svg"><g><ellipse cx="256" cy="71.733" fill="#e7efff" rx="117.627" ry="71.733"/><g fill="#685e69"><circle cx="286.905" cy="79.839" r="7.726"/><circle cx="225.095" cy="79.839" r="7.726"/><circle cx="194.189" cy="48.933" r="7.726"/><circle cx="256" cy="48.933" r="7.726"/><circle cx="317.811" cy="48.933" r="7.726"/></g><path d="m256 0c-5.238 0-10.395.212-15.453.617 57.66 4.615 102.175 34.694 102.175 71.117s-44.514 66.502-102.175 71.117c5.057.405 10.214.616 15.453.616 64.964 0 117.628-32.116 117.628-71.733 0-39.618-52.664-71.734-117.628-71.734z" fill="#d3dbfe"/><path d="m342.526 512h-173.052c-30.198 0-53.919-25.86-51.318-55.946l5.563-64.351 20.135-54.159-10.03-62.721 10.4-120.296 111.776-15.453 111.775 15.453 10.4 120.296-11.252 48.589 21.357 68.291 5.563 64.351c2.601 30.086-21.119 55.946-51.317 55.946z" fill="#e7efff"/><path d="m393.843 456.054-5.563-64.351-20.638-59.978 10.533-56.903-10.4-120.296h-223.55l-2.672 30.905h185.867c5.346 0 9.803 4.089 10.264 9.414l25.255 292.113c.668 7.724-.41 15.164-2.876 21.965 21.254-7.692 35.849-28.935 33.78-52.869z" fill="#d3dbfe"/><path d="m367.233 108.169h-222.466c-12.801 0-23.179 10.378-23.179 23.179 0 12.801 10.378 23.179 23.179 23.179h222.466c12.801 0 23.179-10.378 23.179-23.179 0-12.801-10.378-23.179-23.179-23.179z" fill="#f3e8ce"/><path d="m367.233 108.169h-30.905c12.801 0 23.179 10.378 23.179 23.179 0 12.801-10.378 23.179-23.179 23.179h30.905c12.801 0 23.179-10.378 23.179-23.179 0-12.801-10.378-23.179-23.179-23.179z" fill="#ffd09d"/><path d="m123.72 391.704h264.56l-20.638-59.978 10.533-56.903h-244.35z" fill="#f3e8ce"/><path d="m378.175 274.823h-33.577l10.104 116.881h33.578z" fill="#ffd09d"/><g fill="#685e69"><path d="m246.984 307.604c-.027-.072-.055-.143-.085-.214-1.363-3.31-4.555-5.447-8.134-5.447-.004 0-.007 0-.011 0-3.583.004-6.774 2.149-8.13 5.465-.024.058-.047.117-.069.176l-17.719 46.525c-1.519 3.988.483 8.452 4.47 9.97 1.465.558 7.689 1.52 9.97-4.47l2.518-6.611h17.804l2.486 6.589c1.507 3.991 5.963 6.007 9.957 4.501 3.992-1.507 6.008-5.965 4.501-9.957zm-11.304 29.941 3.057-8.028 3.03 8.028z"/><path d="m306.512 349.092c-2.958.017-6.065.029-8.755.036v-39.459c0-4.267-3.459-7.726-7.726-7.726s-7.726 3.459-7.726 7.726v47.149c0 3.763 2.711 6.978 6.419 7.615.554.095.903.155 6.241.155 2.55 0 6.24-.014 11.634-.044 4.267-.024 7.707-3.503 7.683-7.77-.024-4.266-3.539-7.724-7.77-7.682z"/><path d="m182.851 326.386c-5.467-2.016-10.579-4.205-12.477-5.032-.523-.551-.926-2.629 2.121-3.546 5.665-1.705 11.099 2.507 11.307 2.672 3.267 2.696 8.102 2.262 10.833-.987 2.745-3.267 2.323-8.14-.943-10.886-4.333-3.642-14.611-8.919-25.654-5.594-7.203 2.17-12.303 7.876-13.31 14.891-.951 6.626 1.923 13.001 7.501 16.638.341.222.7.417 1.072.583.275.123 6.828 3.04 14.202 5.76 2.512.927 5.334 2.632 5.021 4.388-.278 1.556-2.518 3.859-6.444 3.859-4.183 0-8.19-1.666-10.719-4.457-2.865-3.162-7.752-3.402-10.913-.537-3.162 2.866-3.402 7.752-.537 10.913 5.49 6.058 13.571 9.533 22.17 9.533 10.831 0 19.939-6.979 21.656-16.596 1.304-7.306-1.922-16.819-14.886-21.602z"/><path d="m352.365 301.943h-26.061c-4.267 0-7.726 3.459-7.726 7.726s3.459 7.726 7.726 7.726h5.252v39.463c0 4.267 3.459 7.726 7.726 7.726s7.726-3.459 7.726-7.726v-39.463h5.357c4.267 0 7.726-3.459 7.726-7.726.001-4.267-3.459-7.726-7.726-7.726z"/></g></g></svg>