<?xml version="1.0" encoding="iso-8859-1"?>
<!-- Generator: Adobe Illustrator 19.0.0, SVG Export Plug-In . SVG Version: 6.00 Build 0)  -->
<svg version="1.1" id="Capa_1" xmlns="http://www.w3.org/2000/svg" xmlns:xlink="http://www.w3.org/1999/xlink" x="0px" y="0px"
	 viewBox="0 0 512.001 512.001" style="enable-background:new 0 0 512.001 512.001;" xml:space="preserve">
<path style="fill:#B27C57;" d="M468.741,438.328H307.638c-1.493,0-2.952,0.444-4.193,1.275L256,471.405l-47.446-31.801
	c-1.24-0.831-2.699-1.275-4.193-1.275H43.259c-4.16,0-7.53,3.371-7.53,7.53v58.612c0,4.159,3.37,7.53,7.53,7.53h425.482
	c4.16,0,7.53-3.371,7.53-7.53v-58.612C476.271,441.7,472.901,438.328,468.741,438.328z"/>
<path style="fill:#9B6D4E;" d="M468.741,438.328h-45.181v73.673h45.181c4.16,0,7.53-3.371,7.53-7.53v-58.612
	C476.271,441.7,472.901,438.328,468.741,438.328z"/>
<g>
	<path style="fill:#FF9017;" d="M208.555,439.604l-68.939-46.208c-1.24-0.831-2.7-1.275-4.193-1.275h-69.06
		c-16.892,0-30.634,13.743-30.634,30.634s13.743,30.634,30.634,30.634h137.999c3.315,0,6.24-2.168,7.205-5.339
		C212.531,444.878,211.308,441.449,208.555,439.604z"/>
	<path style="fill:#FF9017;" d="M445.637,392.12h-69.06c-1.493,0-2.952,0.444-4.193,1.275l-68.939,46.208
		c-2.753,1.845-3.976,5.275-3.012,8.446c0.965,3.172,3.89,5.339,7.205,5.339h137.999c16.892,0,30.634-13.743,30.634-30.634
		C476.271,405.863,462.529,392.12,445.637,392.12z"/>
</g>
<g>
	<path style="fill:#ED7D0C;" d="M445.637,392.12h-44.107c16.892,0,30.634,13.743,30.634,30.634s-13.743,30.634-30.634,30.634h44.107
		c16.892,0,30.634-13.743,30.634-30.634S462.529,392.12,445.637,392.12z"/>
	<path style="fill:#ED7D0C;" d="M170.416,453.389h33.946c3.315,0,6.24-2.168,7.205-5.339c0.964-3.172-0.259-6.6-3.012-8.446
		l-68.939-46.208c-1.24-0.831-2.7-1.275-4.193-1.275H79.008L170.416,453.389z"/>
</g>
<path style="fill:#FFD039;" d="M383.781,397.459c-0.965-3.172-3.89-5.339-7.205-5.339H135.424c-3.315,0-6.24,2.168-7.205,5.339
	c-0.964,3.172,0.259,6.6,3.012,8.446l120.577,80.819c1.268,0.85,2.731,1.275,4.193,1.275c1.462,0,2.925-0.425,4.193-1.275
	l120.577-80.819C383.522,404.059,384.745,400.631,383.781,397.459z"/>
<path style="fill:#FFAE47;" d="M226.647,469.861l25.16,16.864c1.268,0.85,2.731,1.275,4.193,1.275c1.462,0,2.925-0.425,4.193-1.275
	l120.577-80.819c2.753-1.845,3.976-5.275,3.012-8.446c-0.965-3.172-3.89-5.339-7.205-5.339h-33.946L226.647,469.861z"/>
<path style="fill:#E93234;" d="M471.257,359.757c-1.168-1.779-3.034-2.981-5.135-3.308c-2.106-0.33-4.246,0.25-5.899,1.589
	c-5.788,4.689-13.201,7.315-21.44,7.594c-0.518,0.017-1.037,0.026-1.56,0.026c-12.235,0-23.615-4.932-30.439-13.193
	c-1.431-1.732-3.559-2.734-5.805-2.734c-2.245,0-4.374,1.003-5.805,2.734c-6.825,8.261-18.205,13.194-30.439,13.194
	c-12.236,0-23.615-4.932-30.439-13.193c-1.431-1.732-3.559-2.734-5.805-2.734c-2.245,0-4.374,1.003-5.805,2.734
	c-6.825,8.261-18.205,13.194-30.439,13.194c-12.234,0-23.614-4.932-30.439-13.194c-1.431-1.731-3.559-2.734-5.805-2.734
	c-2.246,0-4.374,1.003-5.805,2.734c-6.825,8.261-18.205,13.194-30.439,13.194c-12.235,0-23.614-4.932-30.439-13.194
	c-1.432-1.731-3.56-2.734-5.805-2.734c-2.246,0-4.374,1.003-5.805,2.734c-6.824,8.261-18.204,13.193-30.439,13.193
	c-12.235,0-23.614-4.932-30.439-13.194c-1.431-1.731-3.56-2.734-5.805-2.734c-2.246,0-4.375,1.003-5.805,2.734
	c-6.824,8.261-18.204,13.193-30.439,13.193c-0.523,0-1.045-0.009-1.56-0.026c-8.239-0.28-15.653-2.907-21.44-7.594
	c-1.653-1.34-3.795-1.92-5.899-1.589c-2.102,0.327-3.968,1.529-5.136,3.308c-3.281,4.997-5.014,10.802-5.014,16.788
	c0,16.892,13.743,30.634,30.634,30.634h379.274c16.892,0,30.634-13.743,30.634-30.634
	C476.271,370.561,474.538,364.754,471.257,359.757z"/>
<path style="fill:#CE131C;" d="M471.257,359.757c-1.168-1.779-3.034-2.981-5.135-3.308c-2.106-0.33-4.246,0.25-5.899,1.589
	c-5.788,4.689-13.201,7.315-21.44,7.594c-0.518,0.017-1.037,0.026-1.56,0.026c-2.484,0-4.93-0.213-7.312-0.606
	c1.473,3.631,2.253,7.519,2.253,11.493c0,16.892-13.743,30.634-30.634,30.634h44.107c16.892,0,30.634-13.743,30.634-30.634
	C476.271,370.561,474.538,364.754,471.257,359.757z"/>
<path style="fill:#8ACC19;" d="M479.128,318.846l-4.022-6.358c-1.38-2.182-3.783-3.505-6.364-3.505H43.259
	c-2.581,0-4.984,1.322-6.364,3.505l-4.022,6.358c-7.432,11.75-7.992,25.491-1.536,37.698c7.552,14.281,23.406,23.532,41.375,24.142
	c0.686,0.023,1.373,0.035,2.066,0.035c13.66,0,26.677-4.68,36.245-12.795c9.568,8.115,22.585,12.795,36.245,12.795
	c13.659,0,26.676-4.681,36.245-12.795c9.568,8.114,22.585,12.795,36.245,12.795c13.659,0,26.676-4.681,36.245-12.795
	c9.568,8.114,22.585,12.795,36.245,12.795c13.66,0,26.676-4.681,36.245-12.795c9.568,8.114,22.585,12.795,36.245,12.795
	c13.659,0,26.676-4.68,36.245-12.795c9.567,8.115,22.584,12.795,36.245,12.795c0.692,0,1.381-0.012,2.071-0.035
	c17.966-0.609,33.818-9.86,41.37-24.142C487.12,344.337,486.559,330.596,479.128,318.846z"/>
<path style="fill:#78AA17;" d="M479.128,318.846l-4.022-6.358c-1.38-2.182-3.783-3.505-6.364-3.505h-54.217
	c2.581,0,4.984,1.322,6.364,3.505l4.022,6.358c7.432,11.75,7.992,25.491,1.536,37.698c-3.792,7.17-9.678,13.069-16.87,17.246
	c8.164,4.455,17.732,6.93,27.646,6.93c0.692,0,1.381-0.012,2.071-0.035c17.966-0.609,33.818-9.86,41.37-24.142
	C487.12,344.337,486.559,330.596,479.128,318.846z"/>
<path style="fill:#FCCC92;" d="M43.259,250.371h425.482c2.305,0,4.366,1.039,5.747,2.671c-0.004-0.005-0.008-0.011-0.013-0.016
	L261.739,2.655C260.308,0.971,258.21,0,256.001,0s-4.307,0.971-5.739,2.655L37.524,253.025c-0.004,0.005-0.008,0.011-0.013,0.016
	C38.893,251.409,40.954,250.371,43.259,250.371z"/>
<path style="fill:#FAB475;" d="M417.159,250.371h51.582c2.305,0,4.366,1.039,5.747,2.671c-0.004-0.005-0.008-0.011-0.013-0.016
	L261.739,2.655C260.308,0.971,258.21,0,256.001,0s-4.307,0.971-5.739,2.655L228.47,28.302L417.159,250.371z"/>
<path style="fill:#B27C57;" d="M468.741,250.371H43.259c-4.16,0-7.53,3.371-7.53,7.53v58.611c0,4.159,3.37,7.53,7.53,7.53h425.482
	c4.16,0,7.53-3.371,7.53-7.53v-58.611C476.271,253.742,472.901,250.371,468.741,250.371z"/>
<path style="fill:#9B6D4E;" d="M468.741,250.371h-45.181v73.672h45.181c4.16,0,7.53-3.371,7.53-7.53v-58.611
	C476.271,253.742,472.901,250.371,468.741,250.371z"/>
<g>
</g>
<g>
</g>
<g>
</g>
<g>
</g>
<g>
</g>
<g>
</g>
<g>
</g>
<g>
</g>
<g>
</g>
<g>
</g>
<g>
</g>
<g>
</g>
<g>
</g>
<g>
</g>
<g>
</g>
</svg>
