<svg id="Flat" enable-background="new 0 0 512 512" viewBox="0 0 512 512" xmlns="http://www.w3.org/2000/svg"><path d="m192 424c0 32-64 24-104-16-44.18-44.18-64-88-64-152 0-93.87 71.7-129.09 85.66-135.05 2.34-.95 82.34 271.05 82.34 303.05z" fill="#eb6f6d"/><path d="m192 72v352c0-32-40-56-80-64-52.62-10.52-48-112-48-112 0-65.35 24.95-99.7 45.66-127.05 32.53-42.98 82.34-48.95 82.34-48.95z" fill="#ff9494"/><path d="m336 424c0 32-64 24-104-16-44.18-44.18-64-88-64-152 0-93.87 71.7-129.09 85.66-135.05 2.34-.95 82.34 271.05 82.34 303.05z" fill="#eb6f6d"/><path d="m336 72v352c0-32-40-56-80-64-52.62-10.52-48-112-48-112 0-65.35 24.95-99.7 45.66-127.05 32.53-42.98 82.34-48.95 82.34-48.95z" fill="#ff9494"/><path d="m488 424c0 32-64 24-104-16-44.18-44.18-64-88-64-152 0-93.87 71.7-129.09 85.66-135.05 2.34-.95 82.34 271.05 82.34 303.05z" fill="#eb6f6d"/><path d="m488 72v352c0-32-40-56-80-64-52.62-10.52-48-112-48-112 0-65.35 24.95-99.7 45.66-127.05 32.53-42.98 82.34-48.95 82.34-48.95z" fill="#ff9494"/><g fill="#f5caa7"><circle cx="112" cy="272" r="16"/><path d="m192 157.859c-2.353 1.361-5.086 2.141-8 2.141-8.837 0-16-7.163-16-16s7.163-16 16-16c2.914 0 5.647.779 8 2.141z"/><circle cx="120" cy="320" r="8"/><circle cx="144" cy="160" r="8"/><circle cx="256" cy="272" r="16"/><path d="m336 157.859c-2.353 1.361-5.086 2.141-8 2.141-8.837 0-16-7.163-16-16s7.163-16 16-16c2.914 0 5.647.779 8 2.141z"/><circle cx="264" cy="320" r="8"/><circle cx="288" cy="160" r="8"/><circle cx="408" cy="272" r="16"/><path d="m488 157.859c-2.353 1.361-5.086 2.141-8 2.141-8.837 0-16-7.163-16-16s7.163-16 16-16c2.914 0 5.647.779 8 2.141z"/><circle cx="416" cy="320" r="8"/><circle cx="440" cy="160" r="8"/></g></svg>