<svg id="Capa_1" enable-background="new 0 0 512 512" viewBox="0 0 512 512" xmlns="http://www.w3.org/2000/svg"><g><g><path d="m156.546 506.647c2.224 3.344 5.974 5.353 9.989 5.353h242.325c4.016 0 7.765-2.009 9.989-5.353l41.07-61.737c1.288-1.936 2.175-4.081 2.66-6.31l-174.882-12.79-174.881 12.79c.485 2.23 1.372 4.374 2.66 6.31z" fill="#ef4424"/></g><g><path d="m406.668 438.6-24.706 37.139c-2.224 3.344-5.974 5.353-9.989 5.353h-232.427l17.001 25.556c2.224 3.344 5.974 5.353 9.989 5.353h242.324c4.016 0 7.765-2.009 9.989-5.353l41.07-61.737c1.288-1.936 2.175-4.081 2.66-6.31h-55.911z" fill="#d73d24"/></g><g><g><path d="m403.082 123.097-115.384-8.087-115.384 8.087-10.049 51.945 125.433 11.417 125.433-11.417z" fill="#e2dee2"/></g><g><path d="m403.082 123.097-30.195-2.117-.714 2.117 10.584 54.71 30.374-2.765z" fill="#cbc4cc"/></g></g><g><path d="m48.991 131.895v176.193c0 4.42 3.583 8.004 8.004 8.004 18.166 0 32.892-14.726 32.892-32.892v-138.951c0-11.682 9.47-21.152 21.152-21.152h94.053v-56.458h-90.845c-36.04 0-65.256 29.216-65.256 65.256z" fill="#cbc4cc"/></g><g><g><path d="m434.021 0h-69.728c-7.687 0-15.161 2.529-21.27 7.196l-19.951 15.244c-6.108 4.667-13.582 7.196-21.27 7.196h-144.038c-4.989 0-8.632 4.716-7.371 9.544l21.921 83.916h230.767l38.157-113.042c1.668-4.937-2.005-10.054-7.217-10.054z" fill="#f3f0f3"/></g><g><path d="m434.021 0h-30.909c5.212 0 8.885 5.117 7.218 10.055l-38.157 113.042h30.908l38.157-113.042c1.668-4.938-2.005-10.055-7.217-10.055z" fill="#e2dee2"/></g></g><g><path d="m112.816 438.6h349.763c.528-2.427.579-4.956.098-7.441l-49.547-256.116h-250.865l-49.547 256.116c-.481 2.485-.43 5.014.098 7.441z" fill="#fd5426"/></g><g><path d="m462.678 431.158-49.547-256.116h-30.908l43.567 225.208c.481 2.485.43 5.014-.098 7.441-.485 2.23-1.372 4.374-2.66 6.31l-16.364 24.599h55.911c.529-2.427.579-4.956.099-7.442z" fill="#ef4424"/></g><g><path d="m364.03 306.447-60.94 68.828c-3.253 3.674-2.513 9.452 1.654 12.044 22.22 13.819 51.814 10.026 69.743-10.224 17.867-20.18 18.109-49.88 1.87-70.257-3.126-3.923-9.002-4.146-12.327-.391z" fill="#fece85"/></g><g><path d="m286.088 271.56-75.138-52.964c-4.011-2.827-9.672-1.453-11.787 2.975-11.28 23.611-4.241 52.605 17.865 68.187 22.03 15.529 51.575 12.488 70.034-5.903 3.553-3.54 3.126-9.405-.974-12.295z" fill="#fece85"/></g><g><path d="m374.623 228.296c2.396.447 4.279 2.335 4.669 4.741 1.098 6.776 1.259 20.846-12.369 32.768s-27.552 9.892-34.122 7.904c-2.333-.706-3.954-2.823-4.079-5.258l-2.142-41.82c-.192-3.758 3.179-6.707 6.878-6.017z" fill="#fea713"/></g><g><path d="m189.881 350.879c-.543-2.377.441-4.855 2.494-6.169 5.781-3.701 18.627-9.444 34.985-1.68s20.032 21.347 20.819 28.166c.28 2.422-1.018 4.751-3.202 5.833l-37.52 18.593c-3.371 1.671-7.418-.25-8.256-3.918z" fill="#fea713"/></g></g><g/><g/><g/><g/><g/><g/><g/><g/><g/><g/><g/><g/><g/><g/><g/></svg>