<svg id="Capa_1" enable-background="new 0 0 496.374 496.374" viewBox="0 0 496.374 496.374" xmlns="http://www.w3.org/2000/svg"><g><path d="m299.332 288.646v53.526c0 11.373 12.26 18.787 22.157 13.184 13.645-7.725 22.843-22.371 22.843-39.185v-27.524h-45z" fill="#98b6d1"/><path d="m243.839 143.497c-9.463-9.404-25.574-2.701-25.574 10.64 0 9.407-2.343 18.571-6.704 26.716l75.399 47.794h42.559z" fill="#7587b3"/><path d="m201.689 194.157-34.49 34.49h119.761l-51.633-51.313c-7.109-7.065-19.038-5.318-23.767 3.518-2.595 4.852-5.908 9.342-9.871 13.305z" fill="#87a1c1"/><path d="m163.575 277.013v52.449c5.719 3.978 9.978 9.884 11.85 16.819 2.847 10.547 16.598 14.993 25.047 6.595 17.269-17.162 69.075-68.647 69.075-68.647z" fill="#87a1c1"/><path d="m134.578 256.634-13.862 51.733c-1.072 4.001 1.302 8.114 5.303 9.186l28.212 7.559c3.399.911 6.552 2.396 9.351 4.346 6.042 4.209 14.173 3.7 19.396-1.491l51.272-50.954z" fill="#98b6d1"/><path d="m64.895 227.202-35.521-20.508c-6.43-3.72-13.47-6.195-20.754-7.331-4.975-.776-9.305 3.553-8.529 8.528 1.136 7.284 3.609 14.324 7.322 20.755.01 0 17.331 30.001 17.331 30.001l-17.321 30c-3.72 6.43-6.195 13.47-7.331 20.754-.776 4.975 3.553 9.305 8.528 8.529 7.284-1.136 14.324-3.609 20.755-7.322 0-.006 21.198-12.247 35.521-20.518z" fill="#87a1c1"/><path d="m100.573 279.676v-42.059c-7.714 2.067-15.934.985-22.85-3.008l-12.828-7.406c-6.647 8.736-10.458 19.635-10.459 31.443 0 11.808 3.811 22.709 10.459 31.446 7.307-4.219 12.828-7.407 12.828-7.407 6.917-3.994 15.136-5.076 22.85-3.009z" fill="#7587b3"/><path d="m84.437 258.646c0 9.073 5.379 18.147 16.137 21.029l85.531 22.918c35.933 10.444 73.924 16.052 113.228 16.052 44.027 0 86.407-7.037 126.091-20.029v-69.971z" fill="#a8cae0"/><path d="m361.259 203.358c-20.19-3.099-40.87-4.712-61.927-4.712-39.303 0-77.295 5.608-113.227 16.052l-85.532 22.918c-10.758 2.883-16.137 11.956-16.137 21.03h331.217c-4.126-27.95-25.845-50.684-54.394-55.288z" fill="#98b6d1"/><path d="m488.436 245.421c-11.737-6.209-23.822-11.846-36.207-16.899v13.8l-26.434 56.169c21.749-7.144 42.692-16.067 62.641-26.62 10.584-5.599 10.584-20.85 0-26.45z" fill="#a8cae0"/><path d="m452.229 228.522c-28.817-11.757-59.286-20.302-90.97-25.165 14.483 2.335 25.115 14.908 25.115 29.602v37.054c0 20.314 19.746 34.699 39.052 28.602.123-.04.245-.08.367-.121 21.299-6.997 35.581-27.04 35.581-49.459v-6.715z" fill="#b9dff0"/><g fill="#515985"><circle cx="446.374" cy="242.322" r="15"/><circle cx="234.556" cy="258.646" r="7.5"/><circle cx="264.556" cy="258.646" r="7.5"/><circle cx="294.556" cy="258.646" r="7.5"/><circle cx="324.556" cy="258.646" r="7.5"/><circle cx="354.556" cy="258.646" r="7.5"/></g></g><g/><g/><g/><g/><g/><g/><g/><g/><g/><g/><g/><g/><g/><g/><g/></svg>