<svg id="Capa_1" enable-background="new 0 0 512 512" height="512" viewBox="0 0 512 512" width="512" xmlns="http://www.w3.org/2000/svg"><g><path d="m480.064 447.969h-144.064l-77.963-20.604-82.037 20.604h-111.544l-22.218-.161c-17.638 0-31.936-14.138-31.936-31.775v-320.066c0-17.638 14.298-31.647 31.936-31.647l22.218-.289h111.544l78.982 20.604 81.018-20.604h144.064c17.638 0 31.936 14.298 31.936 31.936v320.066c0 17.638-14.298 31.936-31.936 31.936z" fill="#e7f5f5"/><path d="m466.46 186.764-7.249-3.628c-8.765-4.387-14.301-13.348-14.301-23.15 0-9.804 5.539-18.767 14.307-23.153l7.245-3.624c4.795-2.398 10.437 1.088 10.437 6.45v40.657c0 5.361-5.644 8.847-10.439 6.448z" fill="#e94444"/><path d="m466.46 282.776-7.249-3.628c-8.765-4.387-14.301-13.348-14.301-23.15 0-9.804 5.539-18.767 14.307-23.153l7.245-3.624c4.795-2.398 10.437 1.088 10.437 6.45v40.657c0 5.361-5.644 8.847-10.439 6.448z" fill="#d83131"/><path d="m466.46 378.838-7.249-3.628c-8.765-4.387-14.301-13.348-14.301-23.15 0-9.804 5.539-18.767 14.307-23.153l7.245-3.624c4.795-2.398 10.437 1.088 10.437 6.45v40.657c0 5.361-5.644 8.848-10.439 6.448z" fill="#e94444"/><path d="m32.52 416.033v-320.066c0-17.638 14.298-31.936 31.936-31.936h-32.52c-17.638 0-31.936 14.298-31.936 31.936v320.066c0 17.638 14.298 31.936 31.936 31.936h32.52c-17.638 0-31.936-14.298-31.936-31.936z" fill="#cedada"/><path d="m46.049 186.764 7.249-3.628c8.765-4.387 14.301-13.348 14.301-23.15 0-9.804-5.539-18.767-14.307-23.153l-7.245-3.624c-4.795-2.398-10.437 1.088-10.437 6.45v40.657c.001 5.361 5.644 8.847 10.439 6.448z" fill="#e65753"/><path d="m46.049 282.776 7.249-3.628c8.765-4.387 14.301-13.348 14.301-23.15 0-9.804-5.539-18.767-14.307-23.153l-7.245-3.624c-4.795-2.398-10.437 1.088-10.437 6.45v40.657c.001 5.361 5.644 8.847 10.439 6.448z" fill="#e94444"/><path d="m46.049 378.838 7.249-3.628c8.765-4.387 14.301-13.348 14.301-23.15 0-9.804-5.539-18.767-14.307-23.153l-7.245-3.624c-4.795-2.398-10.437 1.088-10.437 6.45v40.657c.001 5.361 5.644 8.848 10.439 6.448z" fill="#e65753"/><path d="m400 207.988-139.872 73.834-137.908-73.995c-26.51 0-47.918-21.329-47.918-47.839 0-26.51 21.603-47.911 48.113-47.911l20.491-.089h257.094c26.51 0 48 21.49 48 48 0 26.51-21.49 48-48 48z" fill="#e65753"/><path d="m94.906 159.988c0-26.51 21.49-48 48-48h-30.906c-26.51 0-48 21.49-48 48 0 26.51 21.49 47.991 48 47.991l11.677 8.797 19.229-8.788c-26.51 0-48-21.49-48-48z" fill="#e94444"/><path d="m400 303.979-141.963 64.946-135.735-65.102c-26.51 0-48-21.334-48-47.844 0-26.51 31.555-47.861 58.064-47.861l10.539-.138h257.095c26.51 0 48 21.49 48 48 0 26.509-21.49 47.999-48 47.999z" fill="#e94444"/><path d="m94.906 255.979c0-26.51 21.49-48 48-48h-30.906c-26.51 0-48 21.49-48 48 0 26.51 21.74 48.084 48.25 48.084l13.259 13.231 17.397-13.314c-26.51-.001-48-21.491-48-48.001z" fill="#d83131"/><path d="m400.089 399.974h-264.592c-26.51 0-64.989-21.49-64.989-48 0-26.51 41.872-48 68.381-48h261.199c26.51 0 48 21.49 48 48 .001 26.51-21.49 48-47.999 48z" fill="#e65753"/><path d="m94.906 352.063c0-26.51 21.49-48 48-48h-30.906c-26.51 0-48 21.49-48 48 0 26.51 21.49 48 48 48h30.906c-26.51 0-48-21.491-48-48z" fill="#e94444"/><path d="m336 447.969h-32.247l-45.716-20.604-50.284 20.604h-31.753v-383.938h160z" fill="#ffd15b"/><g><g><path d="m305.018 103.726h-97.018c-4.267 0-7.726-3.459-7.726-7.726s3.459-7.726 7.726-7.726h97.018c4.267 0 7.726 3.459 7.726 7.726s-3.458 7.726-7.726 7.726z" fill="#e7f5f5"/></g></g><g><g><path d="m288 135.726h-64c-4.267 0-7.726-3.459-7.726-7.726s3.459-7.726 7.726-7.726h64c4.267 0 7.726 3.459 7.726 7.726s-3.459 7.726-7.726 7.726z" fill="#e7f5f5"/></g></g><path d="m303.753 447.969h-96v-88.789c0-3.983 3.229-7.211 7.211-7.211h81.577c3.983 0 7.211 3.229 7.211 7.211v88.789z" fill="#e7f5f5"/><g><path d="m271.753 391.695h-32c-4.267 0-7.726-3.459-7.726-7.726s3.459-7.726 7.726-7.726h32c4.267 0 7.726 3.459 7.726 7.726s-3.459 7.726-7.726 7.726z" fill="#cedada"/></g><g><path d="m271.753 423.779h-32c-4.267 0-7.726-3.459-7.726-7.726s3.459-7.726 7.726-7.726h32c4.267 0 7.726 3.459 7.726 7.726s-3.459 7.726-7.726 7.726z" fill="#cedada"/></g><path d="m254.982 202.526-45.255 45.255c-27.425-15.629-43.628-42.481-48.608-80.555-.483-3.696.809-7.41 3.445-10.046 2.53-2.53 6.057-3.835 9.618-3.489 38.185 3.714 64.475 20.711 80.8 48.835z" fill="#ff8f8f"/><path d="m258.037 202.526 45.255 45.255c27.425-15.629 43.628-42.481 48.608-80.555.483-3.696-.809-7.41-3.445-10.046-2.53-2.53-6.057-3.835-9.618-3.489-38.186 3.714-64.475 20.711-80.8 48.835z" fill="#ff8f8f"/><ellipse cx="256" cy="249.626" fill="#fac0b8" rx="96" ry="76.8"/><ellipse cx="256" cy="269.602" fill="#ff8f8f" rx="48" ry="32"/><g><g><path d="m240 279.04c-4.267 0-7.726-3.459-7.726-7.726v-5.678c0-4.268 3.459-7.726 7.726-7.726s7.726 3.459 7.726 7.726v5.678c0 4.268-3.459 7.726-7.726 7.726z" fill="#e65753"/></g></g><g><g><path d="m272 279.04c-4.267 0-7.726-3.459-7.726-7.726v-5.678c0-4.268 3.459-7.726 7.726-7.726s7.726 3.459 7.726 7.726v5.678c.001 4.268-3.459 7.726-7.726 7.726z" fill="#e65753"/></g></g><g><g><g><g><path d="m288 225.597c-4.397 0-7.961-3.564-7.961-7.961 0-4.397 3.564-7.961 7.961-7.961 4.397 0 7.961 3.564 7.961 7.961 0 4.397-3.564 7.961-7.961 7.961z" fill="#e65753"/></g></g><g><g><path d="m224 225.597c-4.397 0-7.961-3.564-7.961-7.961 0-4.397 3.564-7.961 7.961-7.961 4.397 0 7.961 3.564 7.961 7.961 0 4.397-3.564 7.961-7.961 7.961z" fill="#e65753"/></g></g></g></g></g></svg>