<?xml version="1.0" encoding="iso-8859-1"?>
<!-- Generator: Adobe Illustrator 19.0.0, SVG Export Plug-In . SVG Version: 6.00 Build 0)  -->
<svg version="1.1" id="Capa_1" xmlns="http://www.w3.org/2000/svg" xmlns:xlink="http://www.w3.org/1999/xlink" x="0px" y="0px"
	 viewBox="0 0 512.001 512.001" style="enable-background:new 0 0 512.001 512.001;" xml:space="preserve">
<path style="fill:#3E8CC7;" d="M107.56,402.638l21.378,79.193c2.326,12.247,12.907,21.204,25.37,21.491h201.601
	c12.473-0.286,23.044-9.235,25.379-21.491l21.378-79.193H107.56z"/>
<path style="fill:#4398D1;" d="M256.944,503.321c22.524-0.13,43.979-9.591,59.264-26.134l150.678-124.986
	c28.131-28.131,42.513-67.18,39.362-106.837c-0.798-9.817-2.908-19.477-6.275-28.729l0,0c10.494-42.4-8.601-86.579-46.661-108
	l-5.416-2.882l0,0c-9.704-33.095-37.73-57.554-71.832-62.684l-14.964-1.996l-2.205-3.941c-17.594-33.79-59.247-46.913-93.036-29.32
	c-3.107,1.614-6.084,3.472-8.914,5.538h-1.831C224.387-9.165,181.223-2.517,158.7,28.209c-2.074,2.83-3.923,5.807-5.538,8.914
	l-2.205,3.941l-14.964,1.996c-34.119,5.138-62.146,29.615-71.832,62.727l0,0l-5.416,2.882
	c-38.051,21.413-57.138,65.574-46.661,107.957l0,0c-3.368,9.252-5.485,18.913-6.284,28.729
	c-3.142,39.657,11.24,78.698,39.362,106.828L195.84,477.169c15.285,16.543,36.749,26.013,59.273,26.143"/>
<path style="fill:#3570AB;" d="M505.206,209.717c-3.819-2.89-9.252-2.144-12.151,1.675L299.7,466.867l156.146-357.599
	c1.892-4.401-0.139-9.513-4.539-11.405c-4.375-1.883-9.443,0.113-11.37,4.461L283.156,461.355l86.475-418.53
	c0.842-4.722-2.291-9.226-7.013-10.077c-4.557-0.816-8.957,2.092-9.99,6.605l-88.836,429.917V13.358c0-4.791-3.888-8.68-8.68-8.68
	s-8.68,3.888-8.68,8.68v447.051l-86.978-421.09c-1.068-4.67-5.729-7.595-10.398-6.518c-4.513,1.033-7.421,5.433-6.605,9.99
	L228.9,461.32L72.112,102.324c-1.892-4.401-6.996-6.44-11.405-4.539c-4.401,1.892-6.44,6.996-4.539,11.405
	c0.009,0.026,0.026,0.052,0.035,0.087l156.154,357.599L18.976,211.392c-2.89-3.819-8.341-4.574-12.16-1.684
	s-4.574,8.341-1.684,12.16l216.99,286.695c2.595,3.533,7.464,4.487,11.188,2.187c1.337,0.807,2.856,1.241,4.418,1.25
	c1.198,0,2.378-0.243,3.472-0.729c0.304-0.174,0.59-0.373,0.868-0.59c1.302,0.825,2.803,1.285,4.34,1.319
	c0.582,0,1.163-0.061,1.736-0.182c0.929-0.226,1.805-0.599,2.604-1.12c1.302,0.825,2.803,1.276,4.34,1.302
	c1.901-0.035,3.732-0.712,5.208-1.918c1.033,0.851,2.248,1.449,3.55,1.736c0.573,0.121,1.154,0.182,1.736,0.182
	c1.536-0.043,3.038-0.495,4.34-1.319c0.278,0.217,0.564,0.417,0.868,0.59c1.094,0.486,2.274,0.729,3.472,0.729
	c1.562-0.009,3.081-0.443,4.418-1.25c3.732,2.3,8.602,1.345,11.188-2.187l216.99-286.695
	C509.754,218.058,509.017,212.616,505.206,209.717z"/>
<g>
</g>
<g>
</g>
<g>
</g>
<g>
</g>
<g>
</g>
<g>
</g>
<g>
</g>
<g>
</g>
<g>
</g>
<g>
</g>
<g>
</g>
<g>
</g>
<g>
</g>
<g>
</g>
<g>
</g>
</svg>
