<svg id="color_copy" height="512" viewBox="0 0 256 256" width="512" xmlns="http://www.w3.org/2000/svg" data-name="color copy"><path d="m154.097 193.443-11.416-18.266v-95.716l11.416 27.398z" fill="#2f8905"/><path d="m165.514 203.489h-11.416v-155.079l11.416-27.399z" fill="#276e04"/><path d="m177.158 175.177-11.416 18.266v-113.069l11.416-27.398z" fill="#1b5201"/><path d="m178.79 220.8539c0 11.444-8.4489 15.7881-18.8712 15.7881s-18.8712-4.3441-18.8712-15.7881 8.4489-25.6544 18.8712-25.6544 18.8712 14.2105 18.8712 25.6544z" fill="#e7ebd2"/><path d="m174.4561 232.05c-3.8385-4.5-8.939-7.626-14.5368-7.626s-10.6982 3.1259-14.5367 7.626c3.4614 3.2231 8.688 4.5918 14.5367 4.5918s11.0753-1.3685 14.5368-4.5918z" fill="#d6da9d"/><path d="m93.356 193.443-11.416-18.266v-104.855l11.416 27.399z" fill="#3fa007"/><path d="m104.773 203.489h-11.416v-155.079l11.416-27.399z" fill="#276e04"/><path d="m116.417 175.177-11.416 18.266v-126.777l11.416-27.398z" fill="#2f8905"/><path d="m118.0492 220.8539c0 11.444-8.4489 15.7881-18.8712 15.7881s-18.8712-4.3441-18.8712-15.7881 8.4489-25.6544 18.8712-25.6544 18.8712 14.2105 18.8712 25.6544z" fill="#e7ebd2"/><path d="m113.7148 232.05c-3.8385-4.5-8.939-7.626-14.5368-7.626s-10.698 3.126-14.5367 7.626c3.4614 3.2231 8.688 4.5918 14.5367 4.5918s11.0754-1.3685 14.5368-4.5918z" fill="#d6da9d"/></svg>