<svg id="Capa_1" enable-background="new 0 0 497 497" height="512" viewBox="0 0 497 497" width="512" xmlns="http://www.w3.org/2000/svg"><path d="m497 353.5c0-8.199-2.204-15.88-6.035-22.5h-68.965v166h30c24.853 0 45-20.147 45-45 0-11.528-4.34-22.038-11.468-30 7.128-7.962 11.468-18.472 11.468-30z" fill="#fba73f"/><path d="m490.965 331c-7.782-13.447-22.312-22.5-38.965-22.5h-30v45h30c16.653 0 31.183-9.053 38.965-22.5z" fill="#ffd88a"/><path d="m467 353.5c0-.855-.029-1.702-.076-2.545l-460.889-19.955c-3.831 6.62-6.035 14.301-6.035 22.5v38.5c0 11.528 4.34 22.038 11.468 30-7.128 7.962-11.468 18.472-11.468 30 0 24.853 20.147 45 45 45h377c24.853 0 45-20.147 45-45 0-11.528-4.34-22.038-11.468-30 7.128-7.962 11.468-18.472 11.468-30z" fill="#ffc44f"/><path d="m422 308.5h-377c-16.653 0-31.183 9.053-38.965 22.5 7.782 13.447 22.311 22.5 38.965 22.5h407c5.233 0 10.253-.903 14.924-2.545-1.32-23.668-20.926-42.455-44.924-42.455z" fill="#ffd88a"/><path d="m392 0h-30l-65.542 166h194.507c3.831-6.62 6.035-14.301 6.035-22.5v-38.5c0-57.99-47.01-105-105-105z" fill="#fba73f"/><path d="m452 143.5h-155.542l-47.958 105 203.5-60c16.653 0 31.183-9.053 38.965-22.5-7.782-13.447-22.312-22.5-38.965-22.5z" fill="#ffc44f"/><path d="m362 0h-257c-57.99 0-105 47.01-105 105v38.5c0 8.199 2.204 15.879 6.035 22.5l460.889-19.955c.047-.843.076-1.69.076-2.545v-38.5c0-57.99-47.01-105-105-105z" fill="#ffc44f"/><path d="m45 143.5c-16.653 0-31.183 9.053-38.965 22.5 7.782 13.447 22.311 22.5 38.965 22.5l203.5 60 173.5-60c23.998 0 43.604-18.787 44.924-42.455-4.672-1.642-9.691-2.545-14.924-2.545z" fill="#ffd88a"/><circle cx="392" cy="452" fill="#fba73f" r="7.5"/><circle cx="422" cy="422" fill="#fba73f" r="7.5"/><path d="m467 248.5v-40h-218.5l188.5 100h30c16.569 0 30-13.432 30-30 0-16.569-13.431-30-30-30z" fill="#e52929"/><path d="m467 278.5c0-16.569-13.431-30-30-30v-40h-407v40c-16.569 0-30 13.431-30 30 0 16.568 13.431 30 30 30h121v46c0 12.426 10.074 22.5 22.5 22.5 12.427 0 22.5-10.074 22.5-22.5v-46h30v91c0 12.426 10.074 22.5 22.5 22.5 12.427 0 22.5-10.074 22.5-22.5v-91h30v46c0 12.426 10.074 22.5 22.5 22.5 12.427 0 22.5-10.074 22.5-22.5v-46h91c16.569 0 30-13.432 30-30z" fill="#e94c4b"/><path d="m467 188.5h-30l7.729 58.99c6.344.633 13.622 1.01 22.271 1.01 16.569 0 30-13.431 30-30 0-16.568-13.431-30-30-30z" fill="#ffd88a"/><path d="m467 218.5c0-16.568-13.431-30-30-30h-407c-16.569 0-30 13.432-30 30 0 16.569 13.431 30 30 30 54.623 0 54.623-15 109.245-15 54.624 0 54.624 15 109.248 15 54.627 0 54.627-15 109.253-15 45.977 0 53.26 10.625 86.982 13.99 12.823-3.41 22.272-15.094 22.272-28.99z" fill="#ffebc4"/><g fill="#fba73f"><circle cx="173.5" cy="45" r="7.5"/><circle cx="75" cy="75" r="7.5"/></g></svg>