<svg height="511pt" viewBox="0 -86 511.99892 511" width="511pt" xmlns="http://www.w3.org/2000/svg"><path d="m13.84375 322.140625 65.878906-45.792969c3.953125-2.746094 3.320313-8.769531-1.117187-10.636718l-72.929688-30.660157c-8.457031-3.554687-7.15625-15.921875 1.855469-17.640625l77.710938-14.828125c4.726562-.902343 6.597656-6.664062 3.304687-10.167969l-54.15625-57.675781c-6.277344-6.6875-.0625-17.453125 8.871094-15.359375l77.023437 18.0625c4.683594 1.097656 8.738282-3.40625 7.15625-7.949218l-26.015625-74.714844c-3.015625-8.660156 7.042969-15.96875 14.347657-10.425782l63.019531 47.832032c3.832031 2.90625 9.367187.445312 9.769531-4.351563l6.625-78.835937c.765625-9.140625 12.929688-11.722656 17.347656-3.6875l38.117188 69.328125c2.316406 4.214843 8.375 4.214843 10.695312 0l38.117188-69.328125c4.417968-8.039063 16.578125-5.453125 17.347656 3.6875l6.625 78.835937c.402344 4.796875 5.933594 7.257813 9.769531 4.351563l63.015625-47.832032c7.308594-5.542968 17.367188 1.765626 14.351563 10.425782l-26.015625 74.714844c-1.582032 4.542968 2.472656 9.046874 7.15625 7.949218l77.023437-18.0625c8.929688-2.09375 15.148438 8.671875 8.867188 15.359375l-54.152344 57.675781c-3.292969 3.507813-1.421875 9.269532 3.304687 10.167969l77.710938 14.828125c9.011719 1.71875 10.308594 14.085938 1.855469 17.640625l-72.929688 30.660157c-4.4375 1.867187-5.070312 7.890624-1.121093 10.636718l65.882812 45.792969c7.449219 5.175781 3.785156 16.871094-5.289062 16.871094h-473.738282c-9.070312 0-12.734375-11.695313-5.285156-16.871094zm0 0" fill="#b49cdc"/><path d="m182.371094 93.417969c-1.222656-.019531-2.472656-.398438-3.578125-1.238281l-63.015625-47.828126c-7.308594-5.546874-17.367188 1.761719-14.351563 10.425782l26.015625 74.714844c1.582032 4.542968-2.472656 9.042968-7.15625 7.945312l-77.023437-18.058594c-8.933594-2.09375-15.148438 8.671875-8.871094 15.359375l54.15625 57.671875c3.292969 3.507813 1.421875 9.269532-3.304687 10.171875l-77.710938 14.828125c-9.011719 1.71875-10.3125 14.085938-1.855469 17.640625l72.929688 30.660157c4.4375 1.863281 5.070312 7.890624 1.117187 10.636718l-65.878906 45.792969c-7.449219 5.175781-3.785156 16.867187 5.285156 16.867187h297.324219c-76.484375-35.382812-127.308594-145.609374-134.082031-245.589843zm0 0" fill="#908cd6"/><path d="m119.476562 189.5625-32.601562-93.628906c-2.410156-6.921875 5.628906-12.761719 11.464844-8.332032l79.128906 60.058594c2.179688 1.652344 3.214844 4.398438 2.714844 7.089844-3.738282 20.113281-30.246094 42.519531-54.820313 39.582031-2.707031-.324219-4.988281-2.191406-5.886719-4.769531zm0 0" fill="#b49cdc"/><path d="m392.523438 189.5625 32.601562-93.628906c2.410156-6.921875-5.628906-12.761719-11.464844-8.332032l-79.132812 60.058594c-2.179688 1.652344-3.210938 4.398438-2.710938 7.089844 3.738282 20.113281 30.246094 42.519531 54.816406 39.582031 2.710938-.324219 4.992188-2.191406 5.890626-4.769531zm0 0" fill="#908cd6"/><path d="m202.46875 261.785156c0-13.769531-14.015625-24.929687-31.304688-24.929687-17.289062 0-31.304687 11.160156-31.304687 24.929687 0 13.765625 14.015625 24.925782 31.304687 24.925782 17.289063 0 31.304688-11.160157 31.304688-24.925782zm0 0" fill="#eda1ab"/><path d="m372.140625 261.785156c0-13.769531-14.015625-24.929687-31.304687-24.929687-17.289063 0-31.304688 11.160156-31.304688 24.929687 0 13.765625 14.015625 24.925782 31.304688 24.925782 17.289062 0 31.304687-11.160157 31.304687-24.925782zm0 0" fill="#eda1ab"/><g fill="#4e5660"><path d="m176.398438 239.847656c-4.144532 0-7.5-3.355468-7.5-7.5v-13.433594c0-4.144531 3.355468-7.5 7.5-7.5 4.140624 0 7.5 3.355469 7.5 7.5v13.433594c0 4.144532-3.359376 7.5-7.5 7.5zm0 0"/><path d="m281.238281 242.628906c0-15.597656-11.300781-17.0625-25.238281-17.0625s-25.238281 1.464844-25.238281 17.0625 11.300781 28.242188 25.238281 28.242188 25.238281-12.644532 25.238281-28.242188zm0 0"/><path d="m335.605469 239.847656c-4.144531 0-7.5-3.355468-7.5-7.5v-13.433594c0-4.144531 3.355469-7.5 7.5-7.5 4.140625 0 7.5 3.355469 7.5 7.5v13.433594c0 4.144532-3.359375 7.5-7.5 7.5zm0 0"/></g><path d="m256 124.421875c9.386719 0 25.332031-1.882813 35.722656-5.53125 4.449219-1.5625 6.78125-6.4375 5.242188-10.898437l-35.433594-102.894532c-1.8125-5.261718-9.25-5.261718-11.058594 0l-35.4375 102.894532c-1.535156 4.460937.796875 9.335937 5.242188 10.898437 10.390625 3.648437 26.335937 5.53125 35.722656 5.53125zm0 0" fill="#908cd6"/><path d="m131.890625 268.476562c-.789063-8.996093-3.925781-24.125-8.296875-33.773437-1.867188-4.132813-6.738281-5.957031-10.882812-4.113281l-95.648438 42.59375c-4.886719 2.175781-4.265625 9.304687.925781 10.597656l101.589844 25.335938c4.402344 1.097656 8.882813-1.542969 10.007813-5.941407 2.625-10.261719 3.089843-25.703125 2.304687-34.699219zm0 0" fill="#b49cdc"/><path d="m380.109375 268.476562c.789063-8.996093 3.929687-24.125 8.296875-33.773437 1.871094-4.132813 6.742188-5.957031 10.882812-4.113281l95.648438 42.59375c4.890625 2.175781 4.265625 9.304687-.925781 10.597656l-101.589844 25.335938c-4.402344 1.097656-8.882813-1.546876-10.007813-5.941407-2.625-10.261719-3.089843-25.703125-2.304687-34.699219zm0 0" fill="#908cd6"/></svg>