<svg id="Layer_1" enable-background="new 0 0 512 512" viewBox="0 0 512 512" xmlns="http://www.w3.org/2000/svg"><g><g><path d="m397.085 344.04c-93.764-21.703-188.892-21.702-282.653 0-41.778 10.123-93.088-8.389-109.756-50.302-19.345-50.075 24.621-97.152 71.482-107.811 118.841-27.755 240.358-27.755 359.2 0 45.397 11.32 92.509 57.501 71.482 107.811-16.667 41.913-67.978 60.425-109.755 50.302z" fill="#9bd069"/></g><g fill="#8bc852"><path d="m83.526 344.179c-2.569.622-5.174 1.134-7.805 1.541 12.972 1.929 26.263 1.475 38.71-1.541 41.767-9.668 83.806-15.016 125.874-16.071-52.369-1.313-104.784 4.036-156.779 16.071z"/><path d="m435.359 186.065c-64.514-15.067-129.816-21.935-195.051-20.644 54.934 1.088 109.819 7.956 164.146 20.644 45.397 11.32 92.509 57.501 71.482 107.811-11.701 29.425-40.481 47.297-71.046 51.843 40.152 6.214 86.309-12.507 101.951-51.843 21.026-50.31-26.086-96.491-71.482-107.811z"/></g><g fill="#7dbe3b"><path d="m119.78 272.252c-.48.1-.96.14-1.44.14-3.52 0-6.66-2.48-7.35-6.06-7.53-38.61-7.41-70.14-6.56-86.33 5.07-1 10.14-1.94 15.22-2.83-.9 13.74-1.74 46.31 6.06 86.29.79 4.06-1.86 8-5.93 8.79z"/><path d="m277.8 254.282c.16 4.14-3.06 7.62-7.2 7.78-.1.01-.2.01-.3.01-4.01 0-7.33-3.17-7.49-7.21-1.82-46.96-6.52-76.63-9.02-89.6 5.1-.02 10.21.01 15.31.11 2.71 14.77 6.96 44.02 8.7 88.91z"/><path d="m211.73 329.472c-5.06.37-10.12.79-15.18 1.28-11.51-44.23-14.31-93.48-14.44-95.73-.22-4.14 2.95-7.67 7.08-7.9 4.11-.23 7.67 2.95 7.9 7.08.03.55 2.95 51.8 14.64 95.27z"/><path d="m348.13 238.692c-1.52 38.69-7.48 74.88-11.26 94.56-4.98-.66-9.97-1.26-14.95-1.79 3.66-19.01 9.73-55.34 11.23-93.36.16-4.14 3.63-7.37 7.78-7.2 4.14.17 7.37 3.65 7.2 7.79z"/><path d="m426.12 183.972c-.91 18.07-4.39 61.06-17.24 92.25-1.2 2.9-3.99 4.65-6.94 4.65-.95 0-1.92-.19-2.86-.57-3.82-1.58-5.65-5.96-4.07-9.79 12.44-30.21 15.52-74.27 16.23-89.69 4.96 1 9.92 2.04 14.88 3.15z"/></g></g><g/><g/><g/><g/><g/><g/><g/><g/><g/><g/><g/><g/><g/><g/><g/></svg>