<svg id="Layer_3" viewBox="0 0 512 512" xmlns="http://www.w3.org/2000/svg" data-name="Layer 3"><rect fill="#d13b42" height="356.483" rx="12" width="151.444" x="10" y="145.495"/><path d="m161.4438477 489.9785156v-296.8550415c-6.7695312 10.5091553-11.1427002 22.5409546-12.5708008 34.9922485l-27.1630859 236.796875c-1.5032959 13.1065674 1.7855225 26.2514648 9.0759277 37.065918h18.657959c6.6274414 0 12-5.3725586 12-12z" fill="#b7232e"/><path d="m368.6397741 224.1895475c-38.7799122.941293-70.5378344 32.272523-71.970675 71.0373859-.5236945 14.1683204 2.9463534 27.4862749 9.3728652 38.9201918 10.0487777 17.8785778 10.474352 57.8103998.2855622 75.6095582-6.1783669 10.7932083-9.7102276 23.2953698-9.7102276 36.6241763 0 41.4014866 34.0646453 56.8467763 75.6950404 55.8368443h54.7850169c41.630395 1.009932 75.6950404-14.4353576 75.6950404-55.8368443 0-13.3288066-3.5318607-25.830968-9.7102276-36.6241763-10.1887898-17.7991584-9.7632155-57.7309804.2855622-75.6095582 6.4265117-11.433917 9.8965597-24.7518714 9.3728652-38.9201918-1.4328406-38.7648628-33.1907628-70.0960929-71.970675-71.0373859h-62.1301472z" fill="#fb5657"/><path d="m296.6691895 295.2269287c-.5238037 14.168335 2.9462891 27.4862671 9.3728027 38.920166 10.0488281 17.8786011 10.4743652 57.8104248.2855225 75.6094971-6.1783447 10.7932129-9.7102051 23.2954102-9.7102051 36.6242676 0 36.5618896 26.5721436 52.8712158 61.4542236 55.4914551 7.2404785-10.7944336 10.5020752-23.8967285 9.0036621-36.9597168l-26.8657227-234.2026367c-24.8166504 11.2472534-42.4804688 35.84021-43.5402832 64.5169678z" fill="#d13b42"/><path d="m430.875 478.2641602c-1.0585938 0-2.125-.0131836-3.1953125-.0395508l-.2910156-.0068359h-55.3671875l-.2910156.0068359c-1.0722656.0263672-2.1347656.0395508-3.1953125.0395508-15.9570312 0-29.2041016-3.0727539-37.3007812-8.6513672-4.9433594-3.40625-10.6171875-9.1254883-10.6171875-23.2319336 0-8.6860352 2.2617188-17.2275391 6.5390625-24.7016602 14.1621094-24.7387695 14.0673828-73.9208984-.1923828-99.2915039-4.4707031-7.9526367-6.6523438-17.0380859-6.3115234-26.2744141.9667969-26.1513672 22.1630859-47.1518555 48.3076172-47.9238281h61.4892578c26.1445312.7719727 47.3408203 21.7724609 48.3076172 47.9238281.3417969 9.2358398-1.8408203 18.3212891-6.3105469 26.2753906-14.2587891 25.3686523-14.3544922 74.5507812-.1933594 99.2910156 4.2783203 7.4726562 6.5390625 16.0141602 6.5390625 24.7011719 0 14.1083984-5.6738281 19.8271484-10.6162109 23.2329102-8.0947266 5.578125-21.3408203 8.6503906-37.2988281 8.6503906h-.0019531z" fill="#fffff5"/><path d="m320.6523438 296.1132812c-.3408203 9.2363281 1.8408203 18.3217773 6.3115234 26.2744141 14.2597656 25.3706055 14.3544922 74.5527344.1923828 99.2915039-4.2773438 7.4741211-6.5390625 16.015625-6.5390625 24.7016602 0 14.1064453 5.6738281 19.8256836 10.6171875 23.2319336 7.8271484 5.3928223 20.4754639 8.4350586 35.7241211 8.6323242.5686035-4.3876953.6296387-8.8614502.1166992-13.3325195l-23.9259033-208.5751953c-13.0646973 8.5839844-21.8817139 23.1316528-22.4969482 39.7758789z" fill="#f3e1c1"/><g><path d="m300.7221628 197.8561686-.0000289-.0000306c-10.097349-10.698375-15.7220685-24.8526107-15.7220685-39.5635482v-41.8306757s-81.2148437 0-81.2148437 0v41.8306756c0 14.7109376-5.6247195 28.8651733-15.7220685 39.5635483l-.0000289.0000306c-8.5440375 9.0526055-13.9279488 20.6278804-15.3465431 32.9946841l-27.1629537 236.7970439c-2.1157182 18.4440845 12.3071867 34.6160195 30.8722216 34.6160195h135.9335889c18.5650348 0 32.9879398-16.1719349 30.8722216-34.6160195l-27.1629537-236.7970439c-1.4185942-12.3668037-6.8025056-23.9420786-15.3465431-32.9946841z" fill="#ffc200"/><path d="m176.4257812 478.2641602c-2.7578125 0-4.4916992-1.4824219-5.2797852-2.3657227-.7880859-.8837891-2.0629883-2.7753906-1.7485352-5.5151367l27.1630859-236.796875c.8222656-7.1704102 4.0029297-14.0092773 8.956543-19.2578125 14.359375-15.2133789 22.2680664-35.1142578 22.2680664-56.0361328v-17.8305664h33.2148438v17.8305664c0 20.9204102 7.9082031 40.8212891 22.2675781 56.0361328 4.9541016 5.2490234 8.1347656 12.0874023 8.9570312 19.2563477l27.1630859 236.7983398c.3144531 2.7402344-.9599609 4.6313477-1.7480469 5.5151367-.7880859.8833008-2.5224609 2.3657227-5.2802734 2.3657227h-135.9335938z" fill="#fcdc45"/><path d="m203.785 116.462h81.215v24h-81.215z" fill="#ffa400"/><path d="m288.702981 116.4619371h-88.6206747c-6.1234963 0-11.2647516-4.6106443-11.9291563-10.6979896l-1.748378-16.018823c-.7750017-7.1006472 4.7863404-13.3020104 11.9291563-13.3020104h92.1174307c7.1428158 0 12.704158 6.2013632 11.9291563 13.3020104l-1.748378 16.018823c-.6644047 6.0873453-5.80566 10.6979896-11.9291563 10.6979896z" fill="#f3e1c1"/><path d="m335.8911788 403.6557617-10.2612305-89.4537964h-5.7260742c-13.4128418 0-24.8513184-9.7158203-27.0213623-22.9519653v-.000061c-2.1700439-13.236084-13.6085205-22.9519043-27.0213623-22.9519043h-42.9370117c-13.4128418 0-24.8513184 9.7158203-27.0213623 22.9519043v.000061c-2.1700439 13.236145-13.6085205 22.9519653-27.0213623 22.9519653h-5.7260742l-10.2612305 89.4537964h15.9873047c13.4128418 0 24.8513184 9.7158203 27.0213623 22.9519043v.0002441c2.1700439 13.236084 13.6085205 22.9519043 27.0213623 22.9519043h42.9370117c13.4128418 0 24.8513184-9.7158203 27.0213623-22.9519043v-.0002441c2.1700439-13.236084 13.6085205-22.9519043 27.0213623-22.9519043z" fill="#ffee93"/><path d="m300.5531006 306.1896362c-3.9447021-3.9384766-6.7122803-9.0947876-7.6705322-14.9396362v-.000061c-2.170166-13.236084-13.6086426-22.9519043-27.0214844-22.9519043h-42.9370117c-13.4128418 0-24.8513184 9.7158203-27.0212402 22.9519043v.000061c-.958252 5.8448486-3.7258301 11.0011597-7.6706543 14.9396362l-11.3188477 98.6729126c9.729126 2.9853516 17.2700195 11.2573242 18.989502 21.7451172v.0002441c2.1699219 13.236084 13.6083984 22.9519043 27.0212402 22.9519043h42.9370117c13.4128418 0 24.8513184-9.7158203 27.0214844-22.9519043v-.0002441c1.7194824-10.487793 9.2602539-18.7597656 18.9892578-21.7451172z" fill="#fff9d6"/><rect fill="#ffc200" height="38.084" rx="6" width="103.432" x="192.677" y="327.034"/><path d="m290.1083984 379.1777344h-92.5092773c-3.3134766 0-6 2.6865234-6 6s2.6865234 6 6 6h92.5092773c7.9155363-.2624124 7.9647312-11.7185521 0-12z" fill="#ffc200"/><path d="m230.8461813 20.6737108-14.8588111 55.7694044h56.8105469l-14.8588111-55.7694044c-1.6354533-6.1383281-7.1939891-10.4097948-13.5464516-10.4097948h-.0000215c-6.3524625 0-11.9109982 4.2714667-13.5464516 10.4097948z" fill="#fffff5"/><g><rect fill="#fffff5" height="80.822" rx="12" width="133.396" x="333.007" y="143.345"/><path d="m333.007 186.78h133.396v12h-133.396z" fill="#f3e1c1"/><path d="m418.4341723 166.1007226h-37.4586492c-5.4707106 0-10.2489157 3.7000963-11.6180976 8.9967004l-4.5709626 17.6825149h69.8367696l-4.5709626-17.6825149c-1.3691819-5.2966041-6.147387-8.9967004-11.6180976-8.9967004z" fill="#f3e1c1"/><g><path d="m410.8847656 320.9628906c-4.5183654-6.5397077-14.1581559-.3533083-10.1015154 6.477624 1.3515154 2.1073369 1.611281 3.4007939 1.602492 3.8666142-4.7794755 3.3165163-2.3224239 10.9597981 3.453268 10.9120514 3.7008208-.1348098 6.8165028-3.2524276 8.1454972-7.7541902 1.0633442-4.0934081.0203754-8.6358886-3.0997418-13.5020995z" fill="#009da2"/><path d="m403.3053802 336.1516216c-22.5717477 0-19.916248 18.2565606-19.916248 34.8534339s-12.6136237 8.2984366-12.6136237 20.9120604 30.5382469 15.6010609 45.4754328-1.9916248c14.937186-17.5926857 22.2398102-53.7738695-12.9455612-53.7738695z" fill="#fb5657"/><path d="m427.6861572 351.0761108c-2.4177246-8.621521-9.6975098-14.9244995-24.3807373-14.9244995-13.2907715 0-17.8314209 6.3323364-19.3212891 14.9259033.0327148.0309448 19.6401367 18.55896 43.7020264-.0014038z" fill="#93cf00"/></g></g><g><path d="m161.4437256 329.1235352v-56.1173706h-151.4437256v165.1757202h138.9335938z" fill="#fffff5"/><path d="m44.36346 116.4619371h82.7168614c6.6229803 0 12 5.3770197 12 12v17.0332638h-106.7168614v-17.0332638c0-6.6229803 5.3770197-12 12-12z" fill="#ffc200"/><path d="m74.4357689 62.7661186-7.1353449 52.8012642h36.8430176l-7.1354507-52.8012858c-.7633953-5.6490133-5.5857379-9.8635091-11.2860996-9.8635091h-.0000199c-5.70037 0-10.5227169 4.2145077-11.2861025 9.8635307z" fill="#ffee93"/><g><path d="m85.7216797 330.5200195c-18.3222656 0-33.2285156 14.90625-33.2285156 33.2285156 1.8250732 44.0830078 64.6392822 44.0698242 66.4575195-.0002441 0-18.3220215-14.90625-33.2282715-33.2290039-33.2282715z" fill="#fb5657"/><path d="m115.109375 331.4204102c-.7426758-3.2290039-3.965332-5.2451172-7.1923828-4.5019531l-16.1953125 3.7264404v-10.43396c0-3.3134766-2.6865234-6-6-6s-6 2.6865234-6 6v10.43396l-16.1953125-3.7264404c-7.7975828-1.5112133-10.3712466 9.6440146-2.6903351 11.6943651-.0000945-.0000291 18.426175 4.239717 18.426175 4.239717 1.4991347.3578603 11.4197428.3578995 12.9189471-.0000134-.0000018.0000134 18.4262678-4.2397327 18.4262678-4.2397327 3.2294922-.7431641 5.2451172-3.9633789 4.5019531-7.1923828z" fill="#93cf00"/></g></g><path d="m143.7236328 273.0061646-18.9473877 165.1757202h24.1573487l12.5101318-109.0583496v-56.1173706z" fill="#f3e1c1"/></g></svg>