<svg id="Capa_1" enable-background="new 0 0 512 512" height="512" viewBox="0 0 512 512" width="512" xmlns="http://www.w3.org/2000/svg"><g><g><path d="m256.192 288 92.846 30.745s-6.242-27.509-8.98-39.31c-6.102-26.305-6.47-53.06-1.093-79.531l13.225-53.439h-95.998l-10.001 67.203z" fill="#b96a19"/><path d="m256.192 288v-141.536h-95.998l13.224 53.438c5.377 26.472 5.01 53.229-1.092 79.533-2.806 12.096-5.967 25.886-9.217 40.367z" fill="#ca741b"/></g><g><path d="m367.868 407.815c-2.834-14.821-6.227-31.289-9.806-48.006l-101.87 45.524-10 51.667 10.001 55h97.509c12.657-14.25 27.916-32.258 14.166-104.185z" fill="#b96a19"/><path d="m256.191 405.333-101.854-45.312-.046-.065c-3.568 16.667-6.949 33.082-9.775 47.859-13.75 71.927-.657 89.685 14.168 104.185h97.509v-65.712c-.001 0-.001-40.955-.002-40.955z" fill="#ca741b"/></g><g><path d="m352.191 146.464-40.151-70.726h-55.848l-10.666 30.929 10.666 39.797z" fill="#d7d7d7"/><path d="m160.194 146.464h95.998v-70.726h-55.847z" fill="#e6e6e6"/></g><g><path d="m316.141 265.686c-16.829-13.691-38.085-21.231-59.853-21.231-.032 0-.064.002-.096.002l-10.667 96.941 10.667 104.89c24.807 0 48.789-8.93 67.528-25.145 18.296-15.832 30.456-37.585 34.341-61.334-2.951-13.781-6.027-27.727-9.023-41.064-4.692-20.774-16.375-39.617-32.897-53.059z" fill="#ecb500"/><path d="m195.962 265.99c-16.688 13.676-28.355 32.786-32.852 53.812-2.932 13.064-5.935 26.689-8.818 40.154l.046.065c3.951 23.854 16.292 45.691 34.75 61.488 18.669 15.979 42.501 24.779 67.104 24.779h.001v-201.831c-21.923.023-43.31 7.666-60.231 21.533z" fill="#f1cb30"/></g><g><path d="m326.541 0h-70.349l-10.666 47.668 10.666 53.332h70.349z" fill="#ecb500"/><path d="m185.844 0h70.349v101h-70.349z" fill="#f1cb30"/></g></g></svg>