<svg id="Capa_1" enable-background="new 0 0 512 512" height="512" viewBox="0 0 512 512" width="512" xmlns="http://www.w3.org/2000/svg"><g><g><path d="m92.016 305.96v-2.465c0-3.387 2.756-6.144 6.144-6.144h9.275l-.611-1.434c-1.495-3.51-2.253-7.236-2.253-11.076 0-7.751 3.126-14.784 8.18-19.912-6.577-6.325-15.507-10.221-25.353-10.221-20.208 0-36.59 16.382-36.59 36.59 0 5.215 1.098 10.172 3.065 14.661h38.143z" fill="#fd6930"/></g><g><path d="m104.571 284.842c0-7.751 3.126-14.784 8.18-19.912-6.577-6.325-15.507-10.221-25.353-10.221-6.499 0-12.598 1.702-17.888 4.673 11.158 6.267 18.702 18.208 18.702 31.917 0 5.215-1.098 10.172-3.065 14.661h6.868v-2.465c0-3.387 2.756-6.144 6.144-6.144h9.275l-.611-1.434c-1.494-3.509-2.252-7.235-2.252-11.075z" fill="#fd5426"/></g><g><path d="m407.429 284.842c0 6.645-2.363 13.115-6.652 18.215l-1.676 1.992 2.586-.306c1.447-.172 2.868-.259 4.224-.259 8.392 0 16.543 2.986 22.951 8.407l.288.243h16.259v-37.494c0-3.962-3.212-7.175-7.174-7.175h-36.027c3.282 4.631 5.221 10.28 5.221 16.377z" fill="#ffe177"/></g><g><path d="m438.233 268.465h-18.398c3.962 0 7.174 3.212 7.174 7.175v35.8c.63.465 1.25.944 1.851 1.452l.288.243h16.259v-37.495c.001-3.962-3.211-7.175-7.174-7.175z" fill="#ffd15b"/></g><g><path d="m441.47 340.044c0 4.566-.87 9.037-2.587 13.289l-.571 1.415h34.359v-35.468c0-3.962-3.212-7.175-7.175-7.175h-37.628c8.274 6.517 13.602 16.614 13.602 27.939z" fill="#ffe177"/></g><g><path d="m465.496 312.105h-16.311c3.962 0 7.175 3.212 7.175 7.175v35.468h16.311v-35.468c0-3.963-3.212-7.175-7.175-7.175z" fill="#ffd15b"/></g><g><path d="m379.043 255.426c-.884 0-1.755.056-2.62.132 6.83-5.387 11.229-13.717 11.229-23.091 0-16.246-13.17-29.416-29.416-29.416-.884 0-1.755.056-2.62.132 5.576-4.398 9.529-10.759 10.794-18.047h-33.039c-7.734 0-15.154-3.669-19.848-9.815l-4.416-5.781-.047-.047c-4.667-4.668-10.873-7.238-17.473-7.238-6.601 0-12.806 2.57-17.473 7.238l-4.57 4.569c-2.706 2.706-6.303 4.196-10.13 4.196-3.741 0-7.28-1.433-9.964-4.033-3.233-3.132-7.444-4.856-11.857-4.856-4.323 0-8.384 1.681-11.437 4.733l-12.83 12.829c-2.706 2.706-6.304 4.196-10.13 4.196-3.827 0-7.424-1.49-10.13-4.196l-9.735-9.734c-3.084-3.084-7.184-4.782-11.544-4.782h-25.616c-.66 2.448-1.019 5.021-1.019 7.678 0 9.373 4.399 17.704 11.229 23.091-.865-.076-1.735-.132-2.62-.132-16.246 0-29.416 13.17-29.416 29.416 0 9.373 4.399 17.704 11.229 23.091-.865-.076-1.735-.132-2.62-.132-16.246 0-29.416 13.17-29.416 29.416 0 4.479 1.014 8.714 2.808 12.51h49.207c3.388 0 6.144 2.757 6.144 6.144v51.253h149.054l-.071-1.098c-.057-.87-.083-1.581-.083-2.236 0-19.608 15.952-35.56 35.56-35.56 9.595 0 18.59 3.768 25.33 10.61l1.08 1.096.602-1.415c4.88-11.479 15.284-19.41 27.351-21.248 4.914-5.252 7.936-12.292 7.936-20.053.003-16.25-13.167-29.42-29.413-29.42z" fill="#fdf6ec"/></g><g><g><path d="m379.043 255.426c-.884 0-1.755.056-2.62.132 6.83-5.387 11.229-13.717 11.229-23.091 0-16.246-13.17-29.416-29.416-29.416-.884 0-1.755.056-2.62.132 5.576-4.398 9.529-10.759 10.794-18.047h-33.039c-.902 0-1.8-.055-2.69-.153 3.44 12.066 6.47 24.543 9.031 37.365 6.502 32.553 9.374 64.221 9.005 93.604 8.626.609 16.634 4.279 22.771 10.509l1.08 1.096.602-1.415c4.88-11.479 15.284-19.41 27.351-21.248 4.914-5.252 7.936-12.292 7.936-20.053.002-16.245-13.168-29.415-29.414-29.415z" fill="#fef1da"/></g><g><path d="m337.431 150.678c-.884 0-1.755.056-2.62.132 6.83-5.387 11.229-13.717 11.229-23.091 0-16.246-13.17-29.416-29.416-29.416-.884 0-1.755.056-2.62.132 6.83-5.387 11.229-13.717 11.229-23.091 0-16.246-13.17-29.416-29.416-29.416-3.712 0-7.25.717-10.521 1.972-1.191-15.15-13.838-27.081-29.296-27.081s-28.105 11.931-29.298 27.082c-3.271-1.255-6.808-1.972-10.521-1.972-16.246 0-29.416 13.17-29.416 29.416 0 9.373 4.399 17.704 11.229 23.091-.865-.076-1.735-.132-2.62-.132-16.246 0-29.416 13.17-29.416 29.416 0 9.373 4.399 17.704 11.229 23.091-.865-.076-1.735-.132-2.62-.132-13.948 0-25.62 9.711-28.645 22.738h25.865c4.065 0 7.963 1.615 10.837 4.489l9.735 9.735c5.985 5.985 15.689 5.985 21.674 0l12.829-12.829c6.057-6.057 15.739-5.826 21.891.134 5.998 5.81 15.571 5.752 21.497-.174l4.57-4.57c4.447-4.447 10.477-6.945 16.766-6.945 6.288 0 12.319 2.498 16.766 6.945l4.375 5.728c4.914 6.434 12.547 10.208 20.643 10.208h32.838c.409-1.951.636-3.97.636-6.044.003-16.246-13.167-29.416-29.413-29.416z" fill="#ffe177"/></g><g><path d="m337.431 150.678c-.884 0-1.755.056-2.62.132 6.83-5.387 11.229-13.717 11.229-23.091 0-16.246-13.17-29.416-29.416-29.416-.884 0-1.755.056-2.62.132 6.83-5.387 11.229-13.717 11.229-23.091 0-16.246-13.17-29.416-29.416-29.416-3.712 0-7.25.717-10.521 1.972-1.191-15.15-13.838-27.081-29.296-27.081-7.376 0-14.107 2.721-19.264 7.207 38.45 27.877 73.769 85.562 94.238 157.99.794.074 1.594.121 2.399.121h32.838c.409-1.951.636-3.97.636-6.044 0-16.245-13.17-29.415-29.416-29.415z" fill="#ffd15b"/></g></g><g><path d="m381.719 351.414c0 .655-.027 1.366-.083 2.236l-.071 1.098h57.852c1.978-4.501 3.084-9.472 3.084-14.704 0-20.208-16.382-36.59-36.59-36.59-15.54 0-28.807 9.692-34.113 23.357 6.137 6.393 9.921 15.062 9.921 24.603z" fill="#fd6930"/></g><g><path d="m405.91 303.454c-4.609 0-9.009.87-13.069 2.426 13.734 5.271 23.487 18.575 23.487 34.164 0 5.232-1.106 10.203-3.084 14.704h26.172c1.978-4.501 3.084-9.472 3.084-14.704 0-20.208-16.382-36.59-36.59-36.59z" fill="#fd5426"/></g><g><path d="m382.592 354.748c.099-1.099.158-2.21.158-3.334 0-20.208-16.382-36.59-36.59-36.59s-36.59 16.382-36.59 36.59c0 1.125.059 2.236.158 3.334z" fill="#fd6930"/></g><g><path d="m346.16 314.824c-4.727 0-9.238.91-13.385 2.543 13.577 5.348 23.19 18.571 23.19 34.047 0 1.125-.059 2.236-.158 3.334h26.785c.099-1.099.158-2.21.158-3.334 0-20.209-16.382-36.59-36.59-36.59z" fill="#fd5426"/></g><g><path d="m92.016 304.931h-56.992c-3.962 0-7.175 3.212-7.175 7.174v42.643h64.166v-49.817z" fill="#ffe177"/></g><g><path d="m62.326 304.931h29.69v49.817h-29.69z" fill="#ffd15b"/></g><g><path d="m162.731 354.748v-51.252c0-3.962-3.212-7.175-7.175-7.175h-57.396c-3.962 0-7.174 3.212-7.174 7.175v51.252z" fill="#ffe177"/></g><g><path d="m155.557 296.321h-32.413c3.962 0 7.175 3.212 7.175 7.175v51.252h32.413v-51.252c-.001-3.963-3.213-7.175-7.175-7.175z" fill="#ffd15b"/></g><g><path d="m1.308 365.005 75.967 108.59c7.71 11.021 20.314 17.586 33.765 17.586h289.92c13.451 0 26.055-6.565 33.765-17.586l75.967-108.59c3.327-4.755-.075-11.287-5.879-11.287h-497.626c-5.803-.001-9.205 6.531-5.879 11.287z" fill="#685e68"/></g><g><path d="m504.813 353.717h-58.111l-53.699 76.759c-7.71 11.021-20.314 17.586-33.765 17.586h-299.824l17.861 25.532c7.71 11.021 20.314 17.586 33.765 17.586h289.92c13.451 0 26.055-6.565 33.765-17.586l75.967-108.59c3.326-4.755-.076-11.287-5.879-11.287z" fill="#554e56"/></g><g><path d="m227.293 257.319c-3.875 0-7.16-2.982-7.469-6.912-.514-6.537-6.054-11.658-12.611-11.658s-12.098 5.121-12.612 11.658c-.325 4.13-3.936 7.211-8.065 6.889-4.129-.324-7.213-3.936-6.889-8.064 1.125-14.289 13.232-25.482 27.566-25.482 14.333 0 26.441 11.193 27.565 25.482.325 4.129-2.759 7.74-6.889 8.064-.199.016-.398.023-.596.023z" fill="#fae2c0"/></g><g><path d="m304.411 307.928c-3.875 0-7.159-2.982-7.469-6.911-.515-6.538-6.054-11.659-12.612-11.659s-12.097 5.121-12.612 11.659c-.326 4.129-3.941 7.204-8.065 6.888-4.129-.325-7.213-3.936-6.889-8.065 1.125-14.288 13.233-25.481 27.566-25.481s26.441 11.193 27.566 25.481c.325 4.13-2.759 7.74-6.889 8.065-.199.015-.399.023-.596.023z" fill="#fae2c0"/></g><g><path d="m276.081 132c-3.875 0-7.159-2.982-7.469-6.911-.515-6.538-6.054-11.659-12.612-11.659s-12.097 5.121-12.612 11.659c-.326 4.129-3.94 7.211-8.065 6.888-4.129-.325-7.213-3.936-6.889-8.065 1.125-14.289 13.233-25.482 27.566-25.482s26.441 11.193 27.566 25.481c.325 4.13-2.759 7.74-6.889 8.065-.199.016-.399.024-.596.024z" fill="#fff0ad"/></g><g><path d="m334.92 266.514h-7.175c-4.142 0-7.5-3.357-7.5-7.5s3.358-7.5 7.5-7.5h7.175c4.142 0 7.5 3.357 7.5 7.5s-3.358 7.5-7.5 7.5z" fill="#fae2c0"/></g><g><path d="m215.823 159.452h-7.175c-4.142 0-7.5-3.357-7.5-7.5s3.358-7.5 7.5-7.5h7.175c4.142 0 7.5 3.357 7.5 7.5s-3.358 7.5-7.5 7.5z" fill="#fff0ad"/></g><g><path d="m259.587 78.541h-7.175c-4.142 0-7.5-3.357-7.5-7.5s3.358-7.5 7.5-7.5h7.175c4.142 0 7.5 3.357 7.5 7.5s-3.358 7.5-7.5 7.5z" fill="#fff0ad"/></g><g><path d="m270.349 216.111h-7.175c-4.142 0-7.5-3.357-7.5-7.5s3.358-7.5 7.5-7.5h7.175c4.142 0 7.5 3.357 7.5 7.5s-3.358 7.5-7.5 7.5z" fill="#fae2c0"/></g><g><path d="m208.648 322.475h-7.174c-4.142 0-7.5-3.357-7.5-7.5s3.358-7.5 7.5-7.5h7.174c4.142 0 7.5 3.357 7.5 7.5s-3.358 7.5-7.5 7.5z" fill="#fae2c0"/></g></g></svg>