<svg height="512" viewBox="0 0 512 512" width="512" xmlns="http://www.w3.org/2000/svg"><g id="Flat"><path d="m464.53 352.53a78.488 78.488 0 0 1 -55.75 23.2 79.669 79.669 0 0 1 -45.75-14.49.014.014 0 0 1 -.02 0 81.58 81.58 0 0 1 -11.01-9.24l-192-192c-31.29-31.29-31.82-81.24-.53-112.53a80.124 80.124 0 0 1 63.91-23.14l107.41 9.76a162.5 162.5 0 0 1 146.35 140.32c.3 2.26.56 4.52.77 6.8l9.76 107.41a80.124 80.124 0 0 1 -23.14 63.91z" fill="#92563a"/><path d="m464.53 352.53a78.488 78.488 0 0 1 -55.75 23.2 79.669 79.669 0 0 1 -45.75-14.49.014.014 0 0 1 -.02 0 81.58 81.58 0 0 1 -11.01-9.24l-151.61-151.61c86 16.61 181.82 13.67 276.75-25.98.3 2.26.56 4.52.77 6.8l9.76 107.41a80.124 80.124 0 0 1 -23.14 63.91z" fill="#875036"/><path d="m288 288-18.43 22.11-39.11 46.94a212.392 212.392 0 0 0 -35.05 59.69l-6.78 17.62a83.691 83.691 0 0 1 -78.1 53.64h-2.85a83.683 83.683 0 0 1 -26.46-163.07 212.232 212.232 0 0 0 69.98-39.33l50.84-43.02 21.96-18.58z" fill="#f2dec2"/><path d="m288 288-18.43 22.11-67.53-67.53 21.96-18.58z" fill="#e5d2b8"/><path d="m161.479 328h85.041v15.999h-85.041z" fill="#d9c7ae" transform="matrix(.658 -.753 .753 .658 -183.203 268.281)"/><path d="m97.072 333.5h51.856v16h-51.856z" fill="#d9c7ae" transform="matrix(.771 -.636 .636 .771 -189.209 156.361)"/><path d="m169.308 288h35.384v16.001h-35.384z" fill="#d9c7ae" transform="matrix(.735 -.678 .678 .735 -151.176 205.324)"/><path d="m56 384h16v16h-16z" fill="#d9c7ae"/><path d="m72 424h16v16h-16z" fill="#d9c7ae"/><path d="m144 392h16v16h-16z" fill="#d9c7ae"/><g fill="#78462f"><path d="m400 152h16v16h-16z"/><path d="m424 192h16v16h-16z"/><path d="m440 296h16v16h-16z"/><path d="m264 128h16v16h-16z"/><path d="m304 88h16v16h-16z"/><path d="m415.16 331.58c-5.62 11.22-22.78 29.68-50.92 29.68-.4 0-.81 0-1.21-.02a.014.014 0 0 1 -.02 0 81.58 81.58 0 0 1 -11.01-9.24l-8.46-8.46 8.88.47a7.387 7.387 0 0 1 1.15.15c14.2 2.84 26.49.32 36.52-7.47a41.529 41.529 0 0 0 10.75-12.27z"/><path d="m176 167.56 1.05 9.49-16.8-16.8c1.21-18.61 6.91-33.94 16.97-45.64l12.14 10.43c-8.8 10.22-13.29 24.53-13.36 42.52z"/><path d="m197.789 117.442-9.085-13.17a51.608 51.608 0 0 1 17.727-8.117l3.138 15.69-1.569-7.845 1.63 7.832a37.413 37.413 0 0 0 -11.841 5.61z"/><path d="m353.628 321.257-9.251-13.057a51.683 51.683 0 0 0 13.655-14.466l13.936 7.862a67.352 67.352 0 0 1 -18.34 19.661z"/><path d="m353.03 271.78c-12.35 19.48-28.42 31.22-46.89 34.36l-15.14-15.14h5.91c16.83-.39 31.16-9.74 42.61-27.79z"/><path d="m360.431 258.193-14.5-6.754a102.62 102.62 0 0 0 5.83-15.451l15.485 4.012a116.424 116.424 0 0 1 -6.815 18.193z"/></g></g></svg>