<svg id="Capa_1" enable-background="new 0 0 512 512" height="512" viewBox="0 0 512 512" width="512" xmlns="http://www.w3.org/2000/svg"><g><circle cx="182.295" cy="309.75" fill="#ffd15b" r="30.957"/><path d="m191.31 280.13c.867 2.853 1.338 5.879 1.338 9.015 0 17.097-13.86 30.957-30.957 30.957-3.136 0-6.162-.47-9.015-1.338 3.86 12.699 15.659 21.942 29.62 21.942 17.097 0 30.957-13.86 30.957-30.957-.001-13.96-9.244-25.759-21.943-29.619z" fill="#ffc344"/><circle cx="78.572" cy="345.66" fill="#ffd15b" r="30.957"/><path d="m87.587 316.04c.867 2.853 1.338 5.879 1.338 9.015 0 17.097-13.86 30.957-30.957 30.957-3.136 0-6.162-.47-9.015-1.338 3.86 12.699 15.659 21.942 29.62 21.942 17.097 0 30.957-13.86 30.957-30.957 0-13.96-9.243-25.759-21.943-29.619z" fill="#ffc344"/><circle cx="197.371" cy="106.472" fill="#ffd15b" r="30.957"/><path d="m206.386 76.853c.867 2.853 1.338 5.879 1.338 9.015 0 17.097-13.86 30.957-30.957 30.957-3.136 0-6.162-.47-9.015-1.338 3.86 12.699 15.659 21.942 29.62 21.942 17.097 0 30.957-13.86 30.957-30.957-.001-13.961-9.244-25.759-21.943-29.619z" fill="#ffc344"/><circle cx="92.621" cy="65.142" fill="#ffd15b" r="30.957"/><path d="m101.636 35.522c.867 2.853 1.338 5.879 1.338 9.015 0 17.097-13.86 30.957-30.957 30.957-3.136 0-6.162-.47-9.015-1.338 3.86 12.699 15.659 21.942 29.62 21.942 17.097 0 30.957-13.86 30.957-30.957 0-13.96-9.244-25.758-21.943-29.619z" fill="#ffc344"/><circle cx="109.581" cy="207.609" fill="#ffd15b" r="60.12"/><path d="m140.525 156.06c5.438 9.04 8.571 19.625 8.571 30.944 0 33.203-26.917 60.12-60.12 60.12-11.319 0-21.903-3.133-30.944-8.571 10.515 17.48 29.664 29.176 51.549 29.176 33.203 0 60.12-26.917 60.12-60.12 0-21.885-11.697-41.033-29.176-51.549z" fill="#ffc344"/><circle cx="330.738" cy="133.165" fill="#ffd15b" r="60.12"/><path d="m361.681 81.616c5.438 9.04 8.571 19.625 8.571 30.944 0 33.203-26.917 60.12-60.12 60.12-11.319 0-21.903-3.133-30.944-8.571 10.515 17.48 29.664 29.176 51.549 29.176 33.203 0 60.12-26.917 60.12-60.12.001-21.885-11.696-41.033-29.176-51.549z" fill="#ffc344"/><circle cx="310.316" cy="326.13" fill="#ffd15b" r="60.12"/><path d="m341.26 274.581c5.438 9.04 8.571 19.625 8.571 30.944 0 33.203-26.917 60.12-60.12 60.12-11.319 0-21.903-3.133-30.944-8.571 10.515 17.48 29.664 29.176 51.549 29.176 33.203 0 60.12-26.917 60.12-60.12 0-21.885-11.697-41.033-29.176-51.549z" fill="#ffc344"/><g><path d="m504.711 380.094c3.014-.599 5.229-3.168 5.229-6.24v-292.077c0-2.919-2.366-5.285-5.285-5.285l-17.379-2.061h-81.526v67.389l-27.592 56.655v197.847h-61.788l-50.492-16.392h-125.89l-66.728 44.388 1.173 3.08v64l2.06 12.201c0 3.503 2.84 6.342 6.342 6.342h127.925c3.157 0 5.88-2.316 6.276-5.449 2.678-21.195 22.832-37.587 44.754-37.587 16.303 0 30.488 11.126 37.791 24.49 2.517 4.607 6.277 7.663 6.963 13.096.396 3.132 3.118 5.449 6.276 5.449h40.732c3.073 0 5.642-2.215 6.24-5.229 2.43-12.239 15.289-21.464 28.241-21.464 6.441 0 12.349 4.342 16.96 8.14 4.664 3.842 10.062 7.175 11.282 13.33.597 3.01 3.156 5.222 6.225 5.222h81.111c3.499 0 6.328-2.836 6.328-6.335v-60.787c0-3.073-2.215-5.642-5.229-6.24-6.119-1.215-9.425-6.583-13.261-11.205s-9.233-10.56-9.233-17.036c.001-12.953 10.256-25.811 22.495-28.242z" fill="#ffde80"/><g fill="#ffd15b"><path d="m299.577 491.396c-7.304-13.361-21.479-22.427-37.787-22.427-21.922 0-40.012 16.39-42.691 37.581-.402 3.132-3.121 5.45-6.274 5.45h-132.048c-3.503 0-6.346-2.843-6.346-6.346v-14.258h117.781c3.163 0 5.882-2.318 6.284-5.45 2.679-21.191 25.724-37.591 47.646-37.591 33.344 0 53.435 27.357 53.435 43.041z"/><path d="m404.995 491.396h-.01c-4.605-3.812-10.518-6.088-16.957-6.088-12.949 0-23.746 9.22-26.177 21.459-.598 3.018-3.163 5.233-6.243 5.233h-44.854c-3.152 0-5.872-2.318-6.274-5.45-.072-.587-.155-1.174-.258-1.751-.031-.185-.062-.371-.103-.556-.155-.865-.33-1.72-.546-2.565-.072-.319-.155-.639-.247-.958-.082-.309-.175-.628-.268-.937-.103-.381-.227-.752-.34-1.113-.206-.639-.433-1.257-.67-1.885-.237-.618-.484-1.226-.742-1.834-.237-.546-.484-1.082-.742-1.617-.051-.113-.103-.227-.155-.33-.258-.515-.525-1.03-.793-1.535-.01-.021-.031-.052-.041-.072h35.428c3.07 0 5.645-2.215 6.243-5.233 2.431-12.239 16.977-21.459 29.937-21.459 18.205-.001 31.278 14.587 33.812 26.691z"/><path d="m512 79.715v296.198c0 3.07-2.215 5.645-5.233 6.243-12.239 2.431-21.459 13.227-21.459 26.177 0 6.449 2.287 12.352 6.078 16.967-12.105-2.545-26.682-17.183-26.682-33.965 0-12.96 9.22-27.351 21.459-29.783 3.018-.598 5.233-3.173 5.233-6.243v-274.211c0-2.824-1.595-5.405-4.121-6.668h19.44c2.919.001 5.285 2.367 5.285 5.285z"/><path d="m506.772 434.516c-6.15-1.221-11.536-4.558-15.376-9.217v59.76c0 3.499-2.829 6.335-6.328 6.335-24.192 0-55.82 0-80.07 0 4.66 3.841 7.998 9.23 9.218 15.383.597 3.01 3.156 5.222 6.225 5.222h85.232c3.499 0 6.328-2.836 6.328-6.335v-64.908c-.001-3.072-2.216-5.641-5.229-6.24z"/></g><g><path d="m430.28 46.499c3.014-.598 5.228-3.168 5.228-6.24v-31.856c0-3.503-2.84-6.342-6.342-6.342l-17.351-2.061h-49.209c-3.157 0-5.88 2.316-6.276 5.449-2.678 21.195-20.771 37.587-42.693 37.587s-40.015-16.391-42.693-37.587c-.397-3.133-3.119-5.449-6.277-5.449h-44.853c-3.073 0-5.642 2.215-6.24 5.228-2.43 12.239-13.228 21.464-26.181 21.464s-23.75-9.226-26.181-21.464c-.598-3.013-3.161-5.228-6.233-5.228-24.774 0-122.705 0-148.646 0-3.498 0-6.333 2.836-6.333 6.335v64.908c0 3.073 2.215 5.642 5.228 6.24 12.239 2.43 21.464 13.228 21.464 26.181s-9.226 23.75-21.464 26.181c-3.013.599-5.228 3.168-5.228 6.24v254.707c0 3.168 2.334 5.878 5.477 6.277 13.088 1.662 24.337 9.205 31.026 19.894 2.898 4.631 7.003 7.79 7.966 13.38.517 3.004 3.181 5.165 6.23 5.165h57.762c3.157 0 5.88-2.316 6.276-5.449 2.678-21.195 22.832-37.586 44.754-37.586 16.565 0 30.585 10.198 37.779 24.492 2.326 4.622 6.321 7.915 6.975 13.094.396 3.132 3.118 5.449 6.276 5.449h36.419c3.073 0 5.642-2.215 6.24-5.228 2.43-12.239 15.289-21.464 28.241-21.464 6.444 0 12.354 4.344 16.966 8.145 4.659 3.84 10.054 7.169 11.275 13.319.598 3.014 3.163 5.228 6.236 5.228h113.279c3.501 0 6.332-2.838 6.332-6.338v-69.604c0-3.157-2.316-5.88-5.449-6.276-5.45-.689-8.522-4.457-13.14-6.987-13.341-7.309-24.447-21.482-24.447-37.767 0-21.922 16.391-42.076 37.587-44.754 3.132-.396 5.449-3.118 5.449-6.276v-41.515c0-3.073-2.215-5.642-5.228-6.24-6.119-1.215-9.425-6.583-13.261-11.205s-8.203-10.56-8.203-17.036c0-12.953 9.226-25.811 21.464-28.241 3.014-.598 5.228-3.168 5.228-6.24v-37.808c0-3.073-2.215-5.642-5.228-6.24-6.151-1.222-9.481-6.617-13.321-11.278-3.8-4.612-8.143-10.521-8.143-16.964-.001-12.951 9.224-25.81 21.463-28.24zm-349.541 325.768c-16.447 1.297-30.07-12.326-28.774-28.773 1.02-12.938 11.503-23.421 24.441-24.441 16.447-1.297 30.07 12.326 28.773 28.773-1.019 12.938-11.502 23.42-24.44 24.441zm30.73-106.987c-33.361 1.065-60.624-26.199-59.559-59.559.964-30.212 25.571-54.818 55.782-55.783 33.361-1.065 60.625 26.199 59.56 59.56-.965 30.211-25.571 54.818-55.783 55.782zm221.157-74.444c-33.361 1.065-60.624-26.199-59.559-59.559.964-30.212 25.57-54.818 55.782-55.783 33.361-1.065 60.625 26.199 59.56 59.56-.965 30.211-25.571 54.818-55.783 55.782zm-239.269-99.087c-16.447 1.297-30.07-12.326-28.773-28.773 1.02-12.938 11.502-23.421 24.441-24.441 16.447-1.297 30.07 12.326 28.773 28.773-1.02 12.939-11.502 23.421-24.441 24.441zm219.759 288.109c-31.923 1.618-58.146-24.605-56.528-56.528 1.385-27.334 23.595-49.544 50.929-50.929 31.923-1.618 58.146 24.605 56.529 56.528-1.387 27.334-23.597 49.544-50.93 50.929zm-128.655-43.501c-16.447 1.297-30.07-12.326-28.773-28.773 1.02-12.938 11.502-23.421 24.441-24.441 16.447-1.297 30.07 12.326 28.773 28.773-1.02 12.938-11.503 23.42-24.441 24.441zm15.076-203.278c-16.447 1.297-30.07-12.326-28.773-28.773 1.02-12.938 11.502-23.421 24.441-24.441 16.447-1.297 30.07 12.326 28.773 28.773-1.02 12.939-11.503 23.421-24.441 24.441z" fill="#ffde80"/></g><g fill="#ffd15b"><path d="m437.569 213.927v45.637c0 3.163-2.318 5.882-5.45 6.274-41.039 4.968-51.394 61.054-15.195 80.457-46.769-2.387-64.018-88.282-5.408-101.062 3.131-.391 5.449-3.11 5.449-6.273v-40.476c.682.815 1.423 1.601 2.184 2.328 2.892 2.771 6.405 4.879 10.219 6.109 3.845.733 8.316 2.349 8.201 7.006z"/><path d="m437.569 6.346v35.974c0 3.07-2.215 5.645-5.233 6.243-12.239 2.431-21.459 13.227-21.459 26.177 0 6.449 2.287 12.352 6.078 16.967-12.105 0-26.682-16.246-26.682-33.811 0-12.96 9.22-27.516 21.459-29.937 3.018-.608 5.233-3.173 5.233-6.243v-14.107c0-3.351-2.04-6.364-5.151-7.609h19.409c3.505 0 6.346 2.841 6.346 6.346z"/><path d="m432.12 351.23c-5.434-.687-10.549-2.392-15.156-4.91v64.306c0 3.501-2.831 6.338-6.332 6.338-20.644 0-86.16 0-112.247 0 4.659 3.84 7.995 9.226 9.217 15.376.598 3.014 3.163 5.228 6.236 5.228h117.4c3.5 0 6.332-2.838 6.332-6.338v-73.725c-.001-3.157-2.317-5.879-5.45-6.275z"/><path d="m437.569 107.159v41.928c0 3.07-2.215 5.645-5.233 6.243-19.33 3.402-28.266 28.143-15.381 43.144-11.208 0-26.682-16.843-26.682-33.182 0-12.949 9.22-28.134 21.459-30.565 3.018-.598 5.233-3.173 5.233-6.243v-36.767c2.976 3.562 6.836 6.389 11.198 8.004 4.295 1.417 9.245 1.685 9.406 7.438z"/><path d="m298.382 416.955c-14.807-12.908-39.901-3.85-43.144 15.381-.598 3.018-3.163 5.233-6.233 5.233h-40.548c-3.152 0-5.882-2.318-6.274-5.45-.679-5.3-2.338-10.471-4.914-15.154h31.122c3.08 0 5.645-2.215 6.243-5.233 2.431-12.239 16.916-21.459 29.865-21.459 16.576.001 33.883 13.534 33.883 26.682z"/><path d="m197.249 416.925c-19.952-36.266-75.018-26.066-80.447 15.196-.402 3.131-3.122 5.449-6.284 5.449h-61.883c-5.318.01-6.301-4.864-7.108-9.107-1.075-4.056-2.807-7.945-5.024-11.499l53.411.002c3.163 0 5.882-2.318 6.274-5.45 2.679-21.191 27.496-37.591 49.408-37.591 35.673 0 51.653 27.841 51.653 43z"/></g></g></g></svg>