<svg id="Capa_1" enable-background="new 0 0 497 497" viewBox="0 0 497 497" xmlns="http://www.w3.org/2000/svg"><g><path d="m263.5 268.564c0 73.272 53.7 135.846 116.732 135.846s116.768-62.565 116.768-135.846z" fill="#fbe8a8"/><path d="m380.232 374.41c63.033 0 116.768-48.748 116.768-105.846 0-94.903-56.173-175.974-116.759-175.974s-116.741 81.071-116.741 175.974c0 57.091 53.7 105.846 116.732 105.846z" fill="#fff7db"/><path d="m175.667 268.564c0 73.272 53.7 135.846 116.732 135.846 63.033 0 116.768-62.565 116.768-135.846z" fill="#f6d76f"/><path d="m292.399 374.41c63.033 0 116.768-48.748 116.768-105.846 0-94.903-56.173-175.974-116.759-175.974-60.585 0-116.741 81.071-116.741 175.974 0 57.091 53.699 105.846 116.732 105.846z" fill="#fbe8a8"/><path d="m87.833 268.564c0 73.272 53.7 135.846 116.732 135.846s116.768-62.565 116.768-135.846z" fill="#fbe8a8"/><path d="m204.566 374.41c63.033 0 116.768-48.748 116.768-105.846 0-94.903-56.173-175.974-116.759-175.974s-116.741 81.071-116.741 175.974c-.001 57.091 53.699 105.846 116.732 105.846z" fill="#fff7db"/><path d="m116.737 404.41v-29.999c-.005-.001-116.737-105.847-116.737-105.847 0 73.272 53.7 135.846 116.737 135.846z" fill="#d7795c"/><path d="m21.601 169.838c-13.443 28.424-21.601 62.568-21.601 98.726 0 57.091 53.7 105.846 116.732 105.846.005 0 .007-164.221.007-164.221z" fill="#ff835d"/><path d="m61.968 210.189h54.772l.002-117.599c-37.502 0-73.301 31.07-95.14 77.248.008 22.305 18.059 40.351 40.366 40.351z" fill="#fc9f63"/><path d="m116.741 374.41v30c63.029-.006 116.759-62.568 116.759-135.846z" fill="#ae6e5a"/><path d="m116.741 92.59v281.82c63.029-.005 116.759-48.751 116.759-105.846 0-94.903-56.173-175.974-116.759-175.974z" fill="#d7795c"/><path d="m104.901 373.834 11.84 30.575c14.896-.009 28.749-13.99 39.22-36.464z" fill="#d7795c"/><path d="m86.741 326.939 18.16 46.895c3.899.38 7.846.576 11.831.576 13.665 0 26.891-2.294 39.229-6.465 11.685-25.08 19.159-60.736 19.159-99.378z" fill="#ff835d"/><path d="m171.907 213.407-85.165 55.157v58.375h30.004c32.265 0 58.373-26.107 58.375-58.372 0-19.135-1.143-37.703-3.214-55.16z" fill="#fc9f63"/><path d="m171.907 213.407c-8.201-69.137-30.979-120.817-55.165-120.817l-30 175.974h30.004c30.488 0 55.158-24.669 55.161-55.157z" fill="#ff835d"/><path d="m116.732 374.41-39.211-6.461c10.471 22.474 24.323 36.454 39.215 36.46.005 0 .005-29.999-.004-29.999z" fill="#ae6e5a"/><path d="m58.362 268.564c0 38.645 7.474 74.305 19.159 99.385 12.331 4.168 25.551 6.461 39.211 6.461.009 0 .009-281.82.009-281.82-30.293 0-58.379 81.071-58.379 175.974z" fill="#d7795c"/></g><g/><g/><g/><g/><g/><g/><g/><g/><g/><g/><g/><g/><g/><g/><g/></svg>