<svg id="Capa_1" enable-background="new 0 0 512 512" height="512" viewBox="0 0 512 512" width="512" xmlns="http://www.w3.org/2000/svg"><g><path d="m66.064 396.387v-181.677c0-15.863-11.182-29.115-26.094-32.302-3.976-.85-6.938-4.147-6.938-8.213 0-5.068 4.495-9.077 9.511-8.353 31.98 4.611 56.554 32.128 56.554 65.385v99.097c0 18.243 14.789 33.032 33.032 33.032 18.243 0 33.032-14.789 33.032-33.032v-8.258c0-18.243 14.789-33.032 33.032-33.032h16.516v123.871z" fill="#ff98a2" opacity=".7"/><path d="m445.935 396.387v-181.677c0-15.863 11.182-29.115 26.094-32.302 3.976-.85 6.938-4.147 6.938-8.213 0-5.068-4.495-9.077-9.511-8.353-31.98 4.611-56.554 32.128-56.554 65.385v99.097c0 18.243-14.789 33.032-33.032 33.032-18.243 0-33.032-14.789-33.032-33.032v-8.258c0-18.243-14.789-33.032-33.032-33.032h-16.516v123.871z" fill="#ff98a2" opacity=".7"/><path d="m505.42 332.806c-4.984-1.246-9.916 2.228-10.381 7.345-4.963 54.683-50.934 97.526-106.911 97.526h-8.258l-90.839-74.323-16.516-90.839h-33.032l-16.516 90.839-90.839 74.323h-8.258c-55.977 0-101.948-42.842-106.911-97.526-.465-5.117-5.396-8.591-10.381-7.345-3.842.961-6.607 4.476-6.414 8.432 3.537 72.1 63.115 129.471 136.092 129.471 51.688 0 96.649-28.784 119.742-71.194 23.093 42.41 68.054 71.194 119.742 71.194 72.977 0 132.555-57.371 136.092-129.471.196-3.955-2.569-7.471-6.412-8.432z" fill="#ff7e92"/><path d="m502.489 248.421c-31.98 4.611-56.553 32.128-56.553 65.385v14.254c0 35.187-26.553 65.911-61.667 68.184-38.477 2.491-70.462-27.98-70.462-65.922v-78.722c0-7.553 3.51-14.615 9.397-19.348 27.939-22.459 44.434-58.549 39.18-98.239-6.367-48.099-45.671-86.57-93.883-92.015-15.112-1.707-29.687-.273-43.155 3.732-44.355 13.192-69.933 75.855-69.933 102.915 0 33.857 13.079 60.788 37.575 80.451 5.868 4.71 7.819 16.367 7.819 23.891l2.824 79.71c0 37.942-37.758 71.559-76.235 69.068-34.371-2.225-60.218-37-61.296-71.471-.023-.745-.035-1.49-.035-2.235v-14.254c0-33.257-24.574-60.774-56.553-65.385-5.017-.722-9.512 3.287-9.512 8.355 0 4.066 2.962 7.363 6.938 8.213 14.912 3.187 26.094 16.439 26.094 32.302v37.161c0 57.653 47.265 104.267 105.16 103.208 56.827-1.04 101.292-49.796 101.292-106.632v-16.337c0-8.227 5.622-15.852 13.742-17.173 10.348-1.683 19.29 6.259 19.29 16.29v17.221c0 56.836 44.465 105.592 101.292 106.632 57.895 1.06 105.16-45.554 105.16-103.208v-37.162c0-15.864 11.182-29.115 26.094-32.302 3.976-.85 6.938-4.148 6.938-8.213 0-5.068-4.495-9.077-9.511-8.354z" fill="#ff98a2"/><path d="m181.677 132.129c0-35.408 17.232-66.844 43.669-86.399-44.325 13.211-76.701 54.298-76.701 102.915 0 33.857 15.715 63.992 40.211 83.655 4.846 3.89 7.924 9.409 8.896 15.442.205 1.273.442 2.54.442 3.851v78.73c0 37.942-31.985 68.413-70.462 65.922-34.354-2.224-60.517-31.724-61.632-65.949-9.202 0-16.206 8.58-14.064 17.529 8.352 34.907 37.652 62.508 74.596 64.9 48.097 3.114 88.078-34.975 88.078-82.402v-90.637c0-16.422-4.326-32.792-13.737-46.251-12.149-17.375-19.296-38.493-19.296-61.306z" fill="#ff7e92"/><g fill="#615260"><circle cx="198.194" cy="247.742" r="16.516"/><circle cx="313.806" cy="247.742" r="16.516"/></g></g></svg>