<svg id="Capa_1" enable-background="new 0 0 512 512" height="512" viewBox="0 0 512 512" width="512" xmlns="http://www.w3.org/2000/svg"><g><path d="m483.014 392.274c-.814 2.153-11.95 4.306-12.805 6.459-.33.834-.505 1.731-.505 2.637l10.302 6.356v49.058c0 3.987-3.225 7.211-7.211 7.211h-17.07l-7.726-10.302-7.726 10.302h-16.545l-7.728-10.301-7.726 10.302h-16.545l-7.726-10.302-7.726 10.302h-16.545l-7.726-10.302-7.726 10.302h-16.555l-7.726-10.302-7.726 10.302h-3.665l-84.602-20.604v-43.392c-37.005-99.795-26.703-206.461 10.302-319.999v-53.703l13.969-6.665 7.634-3.637h24.364l7.726 10.302 7.726-10.302h16.545l7.726 10.302 7.726-10.302h16.555l7.726 10.302 7.726-10.302h16.545l7.726 10.302 7.726-10.302h16.545l7.727 10.302 7.726-10.302h16.545l7.726 10.302 7.726-10.302h17.07c3.987 0 7.211 3.224 7.211 7.211v49.068l-10.302 6.356c0 .907.175 1.803.505 2.637.855 2.153 11.991 4.306 12.805 6.459 38.655 101.516 38.645 203.032.002 304.547z" fill="#a1c203"/><path d="m308.605 145.216v-70.367c0-8.534-6.918-15.453-15.453-15.453h-21.792c-8.534 0-15.453-6.918-15.453-15.453v-27.944h-24.695c-3.983 0-7.211 3.229-7.211 7.211v56.789c-37.001 113.535-37.001 220.202 0 320.001v64h84.604v-33.216c0-2.399-.559-4.765-1.631-6.911l-12.737-25.475c-1.073-2.146-1.631-4.512-1.631-6.911v-206.975c0-2.399.559-4.765 1.631-6.911l12.737-25.475c1.073-2.145 1.631-4.511 1.631-6.91z" fill="#88ab00"/><path d="m333.048 236.41c24.994 24.994 55.214 24.994 80.208 0l-72.35-72.35-18.16-7.858c-24.993 24.994-14.691 55.215 10.302 80.208z" fill="#ffd15b"/><path d="m353.652 236.41c-19.567-19.567-23.815-48.65-12.746-72.35l-12.736-12.736c-3.054-3.054-8.121-2.779-10.77.632-19.499 25.106-17.717 61.39 5.345 84.453 16.458 16.458 39.65 22.079 60.708 16.861-10.919-2.704-21.265-8.324-29.801-16.86z" fill="#faab1b"/><path d="m438.629 269.318c-8.535 8.535-18.882 14.156-29.802 16.862-21.057 5.217-37.96-9.833-47.118-20.15l76.92-76.92c5.427 5.427 9.676 1.284 12.746 7.858 11.069 23.699 6.821 52.783-12.746 72.35z" fill="#ffd15b"/><path d="m384.45 263.892 66.924-66.924c-1.964-4.206-4.411-8.242-7.34-12.025-2.668-3.447-7.747-3.794-10.829-.711l-79.663 79.663c-3.051 3.051-2.783 8.115.625 10.763 15.815 12.288 36.069 16.128 54.659 11.522-8.443-2.092-16.543-5.926-23.728-11.503-3.418-2.654-3.708-7.725-.648-10.785z" fill="#faab1b"/><g><g><path d="m483.014 87.728h-195.015c-4.265 0-7.726-3.461-7.726-7.726s3.461-7.726 7.726-7.726h192.007v6.356c0 .907.175 1.803.505 2.637.855 2.153 1.689 4.306 2.503 6.459z" fill="#88ab00"/></g></g><g><g><path d="m483.014 392.274c-.814 2.153-1.648 4.306-2.503 6.459-.33.834-.505 1.731-.505 2.637v6.356h-208.006c-4.265 0-7.726-3.462-7.726-7.726 0-4.265 3.461-7.726 7.726-7.726z" fill="#88ab00"/></g></g><g><g><g><path d="m327.723 431.998v31.998h-15.453v-31.998c0-4.265 3.461-7.726 7.726-7.726 4.276 0 7.727 3.461 7.727 7.726z" fill="#88ab00"/></g><g><path d="m359.731 431.998v31.998h-15.453v-31.998c0-4.265 3.451-7.726 7.726-7.726 4.266 0 7.727 3.461 7.727 7.726z" fill="#88ab00"/></g><g><path d="m391.729 431.998v31.998h-15.453v-31.998c0-4.265 3.461-7.726 7.726-7.726s7.727 3.461 7.727 7.726z" fill="#88ab00"/></g><g><path d="m423.727 431.998v31.998h-15.453v-31.998c0-4.265 3.461-7.726 7.726-7.726s7.727 3.461 7.727 7.726z" fill="#88ab00"/></g><g><path d="m455.724 431.998v31.998h-15.453v-31.998c0-4.265 3.461-7.726 7.726-7.726 4.276 0 7.727 3.461 7.727 7.726z" fill="#88ab00"/></g></g></g><g><g><path d="m448.647 327.79h-128.646c-4.267 0-7.726-3.459-7.726-7.726s3.459-7.726 7.726-7.726h128.646c4.267 0 7.726 3.459 7.726 7.726 0 4.266-3.459 7.726-7.726 7.726z" fill="#ffd15b"/></g></g><path d="m272 177.705v214.569l-10.302 6.027c0 1.113.258 2.225.762 3.225l13.403 6.202 11.373 22.747c.505 1.01.762 2.112.762 3.224v55.095c0 3.977-3.225 7.211-7.211 7.211h-17.06l-7.726-10.302-7.726 10.302h-16.545l-7.726-10.302-7.726 10.302h-16.545l-7.726-10.302-7.726 10.302h-16.555l-7.726-10.302-7.726 10.302h-16.545l-7.726-10.302-7.726 10.302h-16.545l-7.726-10.302-7.726 10.302h-16.55l-7.726-10.302-7.726 10.302h-25.374l-20.604-10.303v-53.704l12.136-24.271 3.863-7.727v-224.005l-12.136-24.271-3.863-7.726v-53.694l20.604-10.302h25.374l7.726 10.302 7.726-10.302h16.545l7.726 10.302 7.726-10.302h16.545l7.726 10.302 7.726-10.302h16.545l7.726 10.302 7.726-10.302h16.555l7.726 10.302 7.726-10.302h16.545l7.724 10.302 7.729-10.302h16.545l7.726 10.302 7.726-10.302h17.06c3.987 0 7.211 3.225 7.211 7.211v49.058l-10.302 6.027c0 1.123-.258 2.225-.762 3.225l7.201 6.202-11.373 22.757c-.501.998-.758 2.1-.758 3.223z" fill="#ffd15b"/><path d="m46.906 396.353v-216.705c0-2.399-.559-4.765-1.631-6.911l-12.737-25.474c-1.073-2.146-1.631-4.512-1.631-6.911v-60.353h-23.696c-3.982 0-7.211 3.229-7.211 7.212v49.063l10.302 6.024c0 1.12.261 2.224.761 3.225l-7.2 6.204 11.375 22.751c.501 1.001.761 2.105.761 3.225v214.572l10.302 6.024c0 1.12-.261 2.224-.761 3.225l-13.404 6.204-11.375 22.75c-.5 1.001-.761 2.105-.761 3.225v55.086c0 3.983 3.229 7.211 7.211 7.211h23.694v-60.352c0-2.399.559-4.765 1.631-6.911l12.737-25.475c1.074-2.144 1.633-4.51 1.633-6.909z" fill="#faab1b"/><g><g><path d="m287.999 136.271v6.027c0 1.123-.258 2.225-.762 3.225l-3.101 6.202h-249.367l-24.469-7.728 20.606-7.726z" fill="#faab1b"/></g></g><g><g><path d="m275.863 407.727h-232.82l-16.744-7.727 20.607-7.726h225.094v6.027c0 1.113.258 2.225.762 3.225z" fill="#faab1b"/></g></g><path d="m46.906 396.353v-4.079h-30.906v6.024c0 1.12-.261 2.224-.761 3.225l-3.102 6.204h30.906l2.232-4.464c1.072-2.145 1.631-4.511 1.631-6.91z" fill="#ff9b00"/><path d="m32.537 147.262c-1.073-2.146-1.631-4.512-1.631-6.911v-4.078h-30.906v6.024c0 1.12.261 2.224.761 3.225l3.102 6.204h30.906z" fill="#ff9b00"/><g><g><g><path d="m71.73 80.002v31.998c0 4.265-3.461 7.726-7.726 7.726-4.275 0-7.726-3.461-7.726-7.726v-31.998z" fill="#faab1b"/></g><g><path d="m103.728 80.002v31.998c0 4.265-3.461 7.726-7.726 7.726s-7.726-3.461-7.726-7.726v-31.998z" fill="#faab1b"/></g><g><path d="m135.726 80.002v31.998c0 4.265-3.461 7.726-7.726 7.726s-7.726-3.461-7.726-7.726v-31.998z" fill="#faab1b"/></g><g><path d="m167.724 80.002v31.998c0 4.265-3.451 7.726-7.726 7.726-4.265 0-7.726-3.461-7.726-7.726v-31.998z" fill="#faab1b"/></g><g><path d="m199.732 80.002v31.998c0 4.265-3.461 7.726-7.726 7.726-4.275 0-7.726-3.461-7.726-7.726v-31.998z" fill="#faab1b"/></g><g><path d="m231.73 80.002v31.998c0 4.265-3.461 7.726-7.726 7.726s-7.726-3.461-7.726-7.726v-31.998z" fill="#faab1b"/></g><g><path d="m263.727 80.002v31.998c0 4.265-3.461 7.726-7.726 7.726s-7.726-3.461-7.726-7.726v-31.998z" fill="#faab1b"/></g></g></g><g><g><g><path d="m71.73 463.996v32.008h-15.453v-32.008c0-4.265 3.451-7.726 7.726-7.726 4.266 0 7.727 3.461 7.727 7.726z" fill="#faab1b"/></g><g><path d="m103.728 463.996v32.008h-15.453v-32.008c0-4.265 3.461-7.726 7.726-7.726s7.727 3.461 7.727 7.726z" fill="#faab1b"/></g><g><path d="m135.726 463.996v32.008h-15.453v-32.008c0-4.265 3.461-7.726 7.726-7.726s7.727 3.461 7.727 7.726z" fill="#faab1b"/></g><g><path d="m167.724 463.996v32.008h-15.453v-32.008c0-4.265 3.461-7.726 7.726-7.726 4.276 0 7.727 3.461 7.727 7.726z" fill="#faab1b"/></g><g><path d="m184.279 496.004v-32.008c0-4.265 3.451-7.726 7.726-7.726 4.265 0 7.726 3.461 7.726 7.726v32.008z" fill="#faab1b"/></g><g><path d="m231.73 463.996v32.008h-15.453v-32.008c0-4.265 3.461-7.726 7.726-7.726s7.727 3.461 7.727 7.726z" fill="#faab1b"/></g><g><path d="m263.727 463.996v32.008h-15.453v-32.008c0-4.265 3.461-7.726 7.726-7.726 4.266 0 7.727 3.461 7.727 7.726z" fill="#faab1b"/></g></g></g><path d="m208.001 256.063c0 30.018-20.666 55.21-48.547 62.122-4.949 1.227-10.125-.182-15.453-.182-35.346 0-53.698-26.594-53.698-61.94s18.352-61.94 53.698-61.94c5.328 0 10.504-1.409 15.453-.182 27.88 6.912 48.547 32.104 48.547 62.122z" fill="#f66"/><path d="m110.906 256.063c0-30.018 20.666-55.209 48.547-62.122-4.949-1.227-10.125-1.878-15.453-1.878-35.346 0-64 28.654-64 64s28.654 64 64 64c5.328 0 10.504-.651 15.453-1.878-27.881-6.913-48.547-32.104-48.547-62.122z" fill="#e94444"/><path d="m214.399 284.439c-46.932-16.585-93.864-16.585-140.797 0-4.687 1.656-9.602-1.823-9.602-6.794v-43.192c0-4.964 4.901-8.443 9.585-6.8 46.943 16.463 93.887 16.463 140.83 0 4.684-1.643 9.585 1.836 9.585 6.8v43.192c.001 4.971-4.914 8.45-9.601 6.794z" fill="#d2f7ff"/><path d="m214.416 227.653c-33.611 11.787-67.223 15.134-100.834 10.042-1.74 5.818-2.675 11.984-2.675 18.368 0 6.346.924 12.477 2.644 18.265 33.616-5.138 67.232-1.768 100.848 10.111 4.687 1.656 9.602-1.823 9.602-6.794v-43.192c0-4.964-4.901-8.443-9.585-6.8z" fill="#d2f7ff"/><path d="m113.582 237.695c-13.332-2.02-26.664-5.367-39.996-10.042-4.684-1.643-9.585 1.836-9.585 6.8v43.192c0 4.971 4.915 8.45 9.602 6.794 13.316-4.706 26.632-8.075 39.948-10.111-1.72-5.788-2.644-11.919-2.644-18.265-.001-6.384.934-12.55 2.675-18.368z" fill="#99e6fc"/><g><g><path d="m208.001 359.79h-128.001c-4.267 0-7.726-3.459-7.726-7.726s3.459-7.726 7.726-7.726h128c4.267 0 7.726 3.459 7.726 7.726s-3.458 7.726-7.725 7.726z" fill="#d2f7ff"/></g></g><g><g><path d="m176.001 391.79h-64c-4.267 0-7.726-3.459-7.726-7.726s3.459-7.726 7.726-7.726h64c4.267 0 7.726 3.459 7.726 7.726s-3.459 7.726-7.726 7.726z" fill="#d2f7ff"/></g></g><g><g><path d="m295.725 15.996v32.008c0 4.265-3.461 7.726-7.726 7.726s-7.726-3.461-7.726-7.726v-32.008z" fill="#88ab00"/></g><g><path d="m327.723 15.996v32.008c0 4.265-3.451 7.726-7.726 7.726-4.265 0-7.726-3.461-7.726-7.726v-32.008z" fill="#88ab00"/></g><g><path d="m359.731 15.996v32.008c0 4.265-3.461 7.726-7.726 7.726-4.275 0-7.726-3.461-7.726-7.726v-32.008z" fill="#88ab00"/></g><g><path d="m391.729 15.996v32.008c0 4.265-3.461 7.726-7.726 7.726s-7.726-3.461-7.726-7.726v-32.008z" fill="#88ab00"/></g><g><path d="m423.727 15.996v32.008c0 4.265-3.461 7.726-7.726 7.726s-7.726-3.461-7.726-7.726v-32.008z" fill="#88ab00"/></g><g><path d="m455.724 15.996v32.008c0 4.265-3.451 7.726-7.726 7.726-4.265 0-7.726-3.461-7.726-7.726v-32.008z" fill="#88ab00"/></g></g></g></svg>