<svg id="Layer_3" enable-background="new 0 0 64 64" height="512" viewBox="0 0 64 64" width="512" xmlns="http://www.w3.org/2000/svg"><g><path d="m19 4v13.392c0 2.315-.896 4.54-2.5 6.208-1.604 1.669-2.5 3.894-2.5 6.208v29.192c0 1.657 1.343 3 3 3h6 6c1.657 0 3-1.343 3-3v-29.191c0-2.315-.896-4.54-2.5-6.208-1.604-1.669-2.5-3.894-2.5-6.208v-13.393c0-1.105-.895-2-2-2h-4c-1.104 0-2 .895-2 2z" fill="#719301"/><path d="m31.221 61c.479-.532.779-1.228.779-2v-29.191c0-2.315-.896-4.539-2.5-6.208s-2.5-3.894-2.5-6.209v-13.392c0-1.105-.895-2-2-2h-2.722c-.172.295-.278.634-.278 1v13.392c0 2.315-.896 4.539-2.5 6.208s-2.5 3.894-2.5 6.209v29.191c0 1.657 1.343 3 3 3h6z" fill="#82ab00"/><path d="m27 4c0-1.105-.895-2-2-2h-4c-1.105 0-2 .895-2 2v5h8z" fill="#8dbf00"/><path d="m14 51c.597 1.792 2.274 3 4.162 3h9.675c1.888 0 3.565-1.208 4.162-3v-19h-17.999z" fill="#c1cfe8"/><path d="m32 32h-15v21.832c.374.103.761.168 1.162.168h9.675c1.888 0 3.565-1.208 4.162-3v-19z" fill="#d7e0ef"/><path d="m24.45 43.214c.301-.734.746-1.41 1.318-1.982l1.232-1.232 1.232 1.232c1.132 1.132 1.768 2.667 1.768 4.268 0 1.601-.636 3.136-1.768 4.268l-.232.232" fill="#719301"/><g><path d="m19 5h8v2h-8z" fill="#a5badb"/></g><g><path d="m48 27h2v2h-2z" fill="#8dbf00"/></g><g><path d="m44 27h2v2h-2z" fill="#8dbf00"/></g><g><path d="m46 25h2v2h-2z" fill="#8dbf00"/></g><g><path d="m46 29h2v2h-2z" fill="#8dbf00"/></g><g><path d="m40 34h2v2h-2z" fill="#8dbf00"/></g><g><path d="m36 34h2v2h-2z" fill="#8dbf00"/></g><g><path d="m38 32h2v2h-2z" fill="#8dbf00"/></g><g><path d="m38 36h2v2h-2z" fill="#8dbf00"/></g><path d="m35.884 60.003c.066 1.121.995 1.997 2.118 1.997h8.998c1.124 0 2.053-.876 2.119-1.998l.878-14.945c.002-.038.003-.076.003-.114 0-1.073-.87-1.943-1.943-1.943h-11.114c-1.073 0-1.943.87-1.943 1.943 0 .038.001.076.003.114z" fill="#c1cfe8"/><path d="m49.119 59.988.877-14.932c.003-.037.004-.075.004-.113 0-1.073-.87-1.943-1.943-1.943h-11.055c.001.019.001.038.002.057l.88 14.945c.066 1.122.995 1.998 2.118 1.998h8.998c.041 0 .079-.009.119-.012z" fill="#d7e0ef"/><path d="m20 43h3c2.761 0 5 2.239 5 5v3h-3c-2.761 0-5-2.239-5-5z" fill="#82ab00"/><path d="m20 46c0 2.761 2.239 5 5 5h3l-8-8z" fill="#8dbf00"/><path d="m29 48v.825c.647-.979 1-2.134 1-3.325 0-1.601-.636-3.136-1.768-4.268l-1.232-1.232-1.232 1.232c-.329.329-.603.7-.845 1.089 2.367.804 4.077 3.043 4.077 5.679z" fill="#82ab00"/><path d="m42.5 58c-2.29 0-4.537-.622-6.501-1.801l-.352-.211.236 4.014c.067 1.122.996 1.998 2.119 1.998h8.998c1.124 0 2.053-.876 2.119-1.998l.236-4.015-.353.212c-1.965 1.179-4.212 1.801-6.502 1.801z" fill="#95afd1"/><path d="m49.119 59.988.235-4.001-.353.212c-1.964 1.179-4.211 1.801-6.501 1.801-1.606 0-3.189-.313-4.67-.902l.053.904c.067 1.122.996 1.998 2.119 1.998h8.998c.041 0 .079-.009.119-.012z" fill="#a5badb"/><g><g><path d="m28.276 25.514c.708 1.744-.424 2.568-1.316 2.48s-1.576-.869-2.74-1.823c-1.163-.954-2.159-1.977-.856-2.692 1.304-.716 4.204.292 4.912 2.035z" fill="#fff"/></g><circle cx="28.84" cy="29.228" fill="#fff" r="1.25"/></g><g><g><path d="m48.229 48.427c-.379 1.843-1.778 1.9-2.471 1.332-.693-.569-.829-1.598-1.266-3.037-.438-1.439-.698-2.843.783-2.714 1.481.128 3.333 2.576 2.954 4.419z" fill="#fff"/></g><circle cx="46.637" cy="51.829" fill="#fff" r="1.25"/></g></g></svg>