<svg id="Layer_1" viewBox="0 0 1000 1000" xmlns="http://www.w3.org/2000/svg" data-name="Layer 1"><path d="m580.89 398.45-5.64 428.72c-.11 6.67-7.42-41.19-11-57.57-1-4.58-2.12-9.19-3.24-13.83-4-16.93-8.55-34.24-13.44-51.41l4.34-274.26c1.05-2.24 2.12-4.43 3.22-6.55-1.07 1.36-2.12 2.68-3.18 4l.47-29.48a14.22 14.22 0 0 1 .55-3.71 24.11 24.11 0 0 0 7.86 3.36 22.61 22.61 0 0 0 5.83.57 29.1 29.1 0 0 0 12.9-3.75l.72-.41a14.11 14.11 0 0 1 .61 4.32z" fill="#f9ee6e"/><path d="m555.12 423.51c-1.1 2.12-2.17 4.31-3.22 6.55v-2.57c1.1-1.3 2.15-2.62 3.22-3.98z" fill="#231f20"/><path d="m547.56 704.32c4.89 17.17 9.39 34.48 13.44 51.41 1.12 4.64 2.19 9.25 3.24 13.83z" fill="#231f20"/><path d="m580.21 393.9a.7.7 0 0 1 .06.17l-.72.41a29.1 29.1 0 0 1 -12.9 3.75 22.61 22.61 0 0 1 -5.83-.57 24.11 24.11 0 0 1 -7.82-3.36z" fill="#231f20"/><path d="m308.09 704.63c0 4.76-1.73-8.42-5.84-16.89-2.86-4.22-5.64-8-8.4-11.5a162.16 162.16 0 0 0 -14.36-15.89l-1.65-240.57v-.11a13.87 13.87 0 0 1 .22-2.51 22.9 22.9 0 0 0 5.14 2 23.42 23.42 0 0 0 8.88.52 34.44 34.44 0 0 0 13.31-5.09 14.27 14.27 0 0 1 .93 5.08z" fill="#f9ee6e"/><path d="m279.49 660.35a162.16 162.16 0 0 1 14.36 15.89c2.76 3.47 5.54 7.28 8.4 11.5z" fill="#231f20"/><path d="m278.06 417.16a22.9 22.9 0 0 0 5.14 2 23.42 23.42 0 0 0 8.88.52 34.44 34.44 0 0 0 13.31-5.09z" fill="#231f20"/><path d="m343.33 238.51c9.17-17.31 2.83-22.75 1.63-30.84-1.53-10.41-8.37-3.14-14.75-20.44-2.92-7.93 3-11.61 0-26.87-1-5-2.74-13.31-9-20.54-6.56-7.54-10.36-5.07-19.85-13-6.31-5.25-5.71-7.24-18.24-22.16-11.45-13.66-13.64-14-15-13.69-4.76 1.09-3 11.37-9.44 26.79-5.7 13.74-10.43 13.72-15.58 25.71-4 9.35-2.08 11.58-4.65 35.53-2.61 24.35-3.92 36.52-9.87 47.24-8.4 15.14-16.08 14.33-16.83 23.91-1.17 14.93 17.21 20 18.34 39.57.57 10-4.09 10.63-4 23 0 13 5.27 22.79 10.22 31.81 12.34 22.47 23.9 24.43 26 40.91.86 6.85-.71 9.76 1.9 16.14.4.95 4.58 10.71 13.91 15.56a22.9 22.9 0 0 0 5.14 2 23.42 23.42 0 0 0 8.88.52 34.44 34.44 0 0 0 13.31-5.09 93.91 93.91 0 0 0 9.89-7.18 49.68 49.68 0 0 0 14-16.51c3.82-7.47 3-11 5.58-22.73 3.87-17.84 7.81-19.17 10.51-32.91 1.29-6.55 1.57-12.24.52-29.95-3.13-50.29-8.54-55.6-2.62-66.78zm-78.2-80.57 1.87-1 1-1.86a14.22 14.22 0 0 1 25 0l1 1.86 1.86 1a14.23 14.23 0 0 1 0 25l-1.86 1.06-1 1.87a14.23 14.23 0 0 1 -25 0l-1-1.87-1.87-1a14.24 14.24 0 0 1 0-25zm-16.28 91.12a14.24 14.24 0 0 1 0-25l1.87-1 1-1.86a14.23 14.23 0 0 1 25 0l1 1.86 1.87 1a14.24 14.24 0 0 1 0 25l-1.87 1-1 1.87a14.24 14.24 0 0 1 -25 0l-1-1.87zm13.07 74.11-1-1.87-1.88-1a14.26 14.26 0 0 1 0-25l1.88-1 1-1.86a14.24 14.24 0 0 1 25 0l1 1.86 1.86 1a14.24 14.24 0 0 1 0 25l-1.86 1-1 1.87a14.24 14.24 0 0 1 -25 0zm48.23 48-1.86 1-1 1.87a14.25 14.25 0 0 1 -25 0l-1-1.87-1.87-1a14.25 14.25 0 0 1 0-25l1.87-1 1-1.86a14.24 14.24 0 0 1 25 0l1 1.86 1.86 1a14.25 14.25 0 0 1 0 25zm10.17-91.57-1.86 1-1 1.87a14.24 14.24 0 0 1 -25 0l-1-1.87-1.87-1a14.24 14.24 0 0 1 0-25l1.87-1 1-1.86a14.23 14.23 0 0 1 25 0l1 1.86 1.86 1a14.23 14.23 0 0 1 0 25z" fill="#f4ed98"/><path d="m251.75 252-1-1.87-1.87-1a14.24 14.24 0 0 1 0-25l1.87-1 1-1.86a14.23 14.23 0 0 1 25 0l1 1.86 1.87 1a14.24 14.24 0 0 1 0 25l-1.87 1-1 1.87a14.24 14.24 0 0 1 -25 0z" fill="none"/><path d="m274.42 330.58a14.24 14.24 0 0 1 -12.5-7.41l-1-1.87-1.88-1a14.26 14.26 0 0 1 0-25l1.88-1 1-1.86a14.24 14.24 0 0 1 25 0l1 1.86 1.86 1a14.24 14.24 0 0 1 0 25l-1.86 1-1 1.87a14.22 14.22 0 0 1 -12.5 7.41z" fill="none"/><path d="m257.72 170.43a14.24 14.24 0 0 1 7.41-12.49l1.87-1 1-1.86a14.22 14.22 0 0 1 25 0l1 1.86 1.86 1a14.23 14.23 0 0 1 0 25l-1.86 1.06-1 1.87a14.23 14.23 0 0 1 -25 0l-1-1.87-1.87-1a14.24 14.24 0 0 1 -7.41-12.57z" fill="none"/><path d="m317.56 358.64a14.26 14.26 0 0 1 -7.41 12.51l-1.86 1-1 1.87a14.25 14.25 0 0 1 -25 0l-1-1.87-1.87-1a14.25 14.25 0 0 1 0-25l1.87-1 1-1.86a14.24 14.24 0 0 1 25 0l1 1.86 1.86 1a14.25 14.25 0 0 1 7.41 12.49z" fill="none"/><path d="m327.74 267.08a14.25 14.25 0 0 1 -7.42 12.5l-1.86 1-1 1.87a14.24 14.24 0 0 1 -25 0l-1-1.87-1.87-1a14.24 14.24 0 0 1 0-25l1.87-1 1-1.86a14.23 14.23 0 0 1 25 0l1 1.86 1.86 1a14.25 14.25 0 0 1 7.42 12.5z" fill="none"/><path d="m624.05 273.38c-4.34-50.19-13.52-46.57-7.89-57.89 8.7-17.56-6.38-20.54-7.8-28.61-1.81-10.37.15-5.19-6.68-22.32-3.14-7.84 7.32-11.59 3.91-26.76-1.12-5-7.74-13.33-14.23-20.4-6.75-7.35-4.75-10-14.44-17.64-6.46-5.08-4.26-4.88-17.17-19.47-11.81-13.34-26.07 2.72-27.4 3-4.73 1.21 1.94-1.89-4.05 13.71-5.33 13.88-10.06 14-14.88 26.1-3.77 9.46-10.88 13.6-12.81 37.61-2 24.42.63 22.27-5 33.16-8 15.35 8.46 27.31 8 36.9-.77 15-5.2 19.25-3.55 38.76.84 9.94.49 10.85.86 23.21.39 13 5.87 22.65 11 31.53 12.94 22.14 18.49 21.58 21 38 1.06 6.82 5.62 12 8.41 18.3a34.07 34.07 0 0 0 11.67 13.73 24.11 24.11 0 0 0 7.86 3.36 22.61 22.61 0 0 0 5.83.57 29.1 29.1 0 0 0 12.9-3.75c.22-.21.45-.4.66-.58 2.13-1.84 4-3.06 5.55-3.38 2.53-1.84 4.82-3.78 6.82-5.46a50 50 0 0 0 13.52-16.87c3.62-7.57-.26-16.4 2-28.16 3.41-17.94 10.29-14.07 12.63-27.9 1.04-6.57 4.81-21.13 3.28-38.75zm-38-69.5 1 1.86 1.86 1a14.24 14.24 0 0 1 0 25l-1.86 1-1 1.88a14.25 14.25 0 0 1 -25 0l-1-1.88-1.88-1a14.26 14.26 0 0 1 0-25l1.88-1 1-1.86a14.23 14.23 0 0 1 25 0zm-47.25-88.67 1.88-1 1-1.86a14.23 14.23 0 0 1 25 0l1 1.86 1.86 1a14.23 14.23 0 0 1 0 25l-1.86 1-1 1.87a14.24 14.24 0 0 1 -25 0l-1-1.87-1.88-1a14.25 14.25 0 0 1 0-25zm-13.22 50.86 1.87-1 1-1.86a14.22 14.22 0 0 1 25 0l1 1.86 1.86 1a14.24 14.24 0 0 1 0 25l-1.86 1-1 1.87a14.23 14.23 0 0 1 -25 0l-1-1.87-1.87-1a14.25 14.25 0 0 1 0-25zm15.42 116.69a14.22 14.22 0 0 1 -12.49-7.41l-1-1.87-1.87-1a14.24 14.24 0 0 1 0-25l1.87-1 1-1.86a14.22 14.22 0 0 1 25 0l1 1.86 1.86 1a14.23 14.23 0 0 1 0 25l-1.86 1-1 1.87a14.22 14.22 0 0 1 -12.51 7.41zm39.8 60.92-1.86 1-1 1.87a14.25 14.25 0 0 1 -25 0l-1-1.87-1.87-1a14.25 14.25 0 0 1 0-25l1.87-1 1-1.86a14.24 14.24 0 0 1 25 0l1 1.86 1.86 1a14.24 14.24 0 0 1 0 25zm20.35-50.87-1.86 1-1 1.87a14.24 14.24 0 0 1 -25 0l-1-1.87-1.87-1a14.26 14.26 0 0 1 0-25l1.87-1 1-1.87a14.24 14.24 0 0 1 25 0l1 1.87 1.86 1a14.24 14.24 0 0 1 0 25z" fill="#f4ed98"/><path d="m563.77 260a14.25 14.25 0 0 1 -7.42 12.5l-1.86 1-1 1.87a14.23 14.23 0 0 1 -25 0l-1-1.87-1.87-1a14.24 14.24 0 0 1 0-25l1.87-1 1-1.86a14.22 14.22 0 0 1 25 0l1 1.86 1.86 1a14.25 14.25 0 0 1 7.42 12.5z" fill="none"/><path d="m563.77 178.57a14.25 14.25 0 0 1 -7.42 12.5l-1.86 1-1 1.87a14.23 14.23 0 0 1 -25 0l-1-1.87-1.87-1a14.25 14.25 0 0 1 0-25l1.87-1 1-1.86a14.22 14.22 0 0 1 25 0l1 1.86 1.86 1a14.28 14.28 0 0 1 7.42 12.5z" fill="none"/><path d="m577 127.7a14.25 14.25 0 0 1 -7.42 12.5l-1.86 1-1 1.87a14.24 14.24 0 0 1 -25 0l-1-1.87-1.88-1a14.25 14.25 0 0 1 0-25l1.88-1 1-1.86a14.23 14.23 0 0 1 25 0l1 1.86 1.86 1a14.25 14.25 0 0 1 7.42 12.5z" fill="none"/><path d="m585.76 390.52a49.2 49.2 0 0 1 -5.49 3.55l-.72.41c.22-.21.45-.4.66-.58 2.13-1.84 4.02-3.06 5.55-3.38z" fill="none"/><path d="m588.19 331.18a14.26 14.26 0 0 1 -7.42 12.5l-1.86 1-1 1.87a14.25 14.25 0 0 1 -25 0l-1-1.87-1.87-1a14.25 14.25 0 0 1 0-25l1.87-1 1-1.86a14.24 14.24 0 0 1 25 0l1 1.86 1.86 1a14.26 14.26 0 0 1 7.42 12.5z" fill="none"/><path d="m596.33 219.26a14.28 14.28 0 0 1 -7.42 12.51l-1.86 1-1 1.88a14.25 14.25 0 0 1 -25 0l-1-1.88-1.88-1a14.26 14.26 0 0 1 0-25l1.88-1 1-1.86a14.23 14.23 0 0 1 25 0l1 1.86 1.86 1a14.25 14.25 0 0 1 7.42 12.49z" fill="none"/><path d="m608.54 280.31a14.25 14.25 0 0 1 -7.42 12.5l-1.86 1-1 1.87a14.24 14.24 0 0 1 -25 0l-1-1.87-1.87-1a14.26 14.26 0 0 1 0-25l1.87-1 1-1.87a14.24 14.24 0 0 1 25 0l1 1.87 1.86 1a14.28 14.28 0 0 1 7.42 12.5z" fill="none"/><path d="m566 921.91.24.1c.26.11.5.2.74.28a6.09 6.09 0 0 0 .75.26l.48.14.42.11.54.13.45.08h.37a6 6 0 0 0 .61.06 7.23 7.23 0 0 0 3.05-.4 6.34 6.34 0 0 0 1-.47l.35-.2a3 3 0 0 0 .36-.26 7.69 7.69 0 0 0 .82-.73c.14-.15.29-.31.43-.48a13.87 13.87 0 0 0 2.19-3.67c.07-.15.13-.3.19-.47.19-.46.38-1 .55-1.49" fill="none"/><path d="m849.65 406.13c-12.65 72.08-43.14 234.58-160.15 396.92-30.83 42.77-79.22 92.36-110 111.85.11-.34.22-.68.33-1s.21-.73.3-1.11c.16-.61.31-1.25.45-1.91.06-.28.12-.56.17-.85s.11-.6.16-.9.12-.62.17-1c.36-2.37.65-5 .82-7.86q.06-.81.09-1.65c0-.56.05-1.12.07-1.7.59-16.85-1.74-40.77-6.26-68.54a1224.32 1224.32 0 0 1 71.88-153c18.74-33.38 15.69-23.5 74.32-120.7 75-124.37 88.83-155.21 97.49-183.37 5.89-19.14 13.21-39.84 27.86-81.25 11.85-33.51 14.53-39.78 16.24-39.45 6.14 1.13-1.77 86.48-13.94 155.52z" fill="#006838"/><path d="m565.37 921.65c-.27-.12-.53-.24-.8-.38l-.75-.39" fill="none"/><path d="m561.17 919.3c-.29-.18-.58-.38-.88-.59" fill="none"/><path d="m582.09 896.92c0 .58 0 1.14-.07 1.7s0 1.11-.09 1.65c-.17 2.87-.46 5.49-.82 7.86-.05.33-.11.64-.17 1s-.11.61-.16.9-.11.57-.17.85c-.14.66-.29 1.3-.45 1.91q-.13.57-.3 1.11c-.11.37-.22.71-.33 1a72.17 72.17 0 0 1 -13.57 7l-.58-.26-.8-.38-.75-.39c-.85-.46-1.74-1-2.65-1.58l-.88-.59c-.6-.4-1.21-.84-1.83-1.3a87.1 87.1 0 0 1 -7.32-6.18c-27.08-25.41-66.28-86.68-82.85-137.06 1.54-11.6 3-30 9.5-77.41 5.86-42.82 8.79-64.24 10.47-70.64a243.15 243.15 0 0 1 16.22-43.91c14.87 37.68 16.77 39.87 25.56 65.71 6.2 18.21 12.09 37.23 17.52 56.4 4.89 17.17 9.39 34.48 13.44 51.41 1.12 4.64 2.19 9.25 3.24 13.83 4.69 20.65 8.62 40.55 11.59 58.78 4.51 27.82 6.84 51.74 6.25 68.59z" fill="#39b54a"/><path d="m566 921.91.24.1c.25.1.5.2.74.28s.5.19.75.26l.48.14.42.11.54.13.45.08h.37l.61.06a7.23 7.23 0 0 0 3.05-.4 6.34 6.34 0 0 0 1-.47 4.25 4.25 0 0 0 .35-.2 2.7 2.7 0 0 0 .36-.26 7.69 7.69 0 0 0 .82-.73c.14-.15.29-.3.43-.48a13.87 13.87 0 0 0 2.19-3.67c.07-.15.13-.3.19-.47.19-.46.38-1 .55-1.49" fill="none"/><path d="m473.42 500.9c-11.77 9.42-22.25 19.06-32.25 33.66-12.39 18.07-16.91 33.34-18.73 50a493.21 493.21 0 0 0 -20.73-60.83c-27.1-64.67-24.71-169.73-18.44-169.73 1.74 0 15.05-156.41 20.61-121.3 6.87 43.38 10.29 65.07 12.6 84.95 3.27 28.18 10.79 59.66 56.94 183.25z" fill="#39b54a"/><path d="m340.63 854.45c-4.05 35.91-14.67 64.31-27.09 69.64a30.23 30.23 0 0 1 -7.66.14c-2.66-1.17-5.09-3.73-7.57-7.56-12.14-18.67-25.51-68.09-74.31-138.22-33.68-48.44-47.47-53.88-62.79-91.57-13-31.93-14.93-62.71-18.31-123-3.13-55.86-1.58-102.34 0-149.12 2.17-64.51 4.83-70.83 2.62-104.64-1.14-17.26-3-33.47-7.86-91.57-3.8-45.68-4-52-2.61-52.32 4.51-.92 25.33 61.25 36.62 130.81 13.25 81.51 0 90.69 13.09 172.66 11.84 74.2 17.75 111.3 47.12 146.55 16.71 20 31.69 28.63 47.61 44.1a162.16 162.16 0 0 1 14.36 15.89c2.76 3.47 5.54 7.28 8.4 11.5q1.42 2.12 2.88 4.37a236 236 0 0 1 31.78 76.7c6.09 28.46 6.71 59.09 3.72 85.64z" fill="#39b54a"/><path d="m313.51 924.11a10.91 10.91 0 0 1 -3.15.84 8.74 8.74 0 0 1 -4.51-.7 30.23 30.23 0 0 0 7.66-.14z" fill="none"/><path d="m298.27 916.69a6 6 0 0 0 1.62 5.07 10 10 0 0 0 5.95 2.49" fill="none"/><path d="m555.12 423.51c-1.1 2.12-2.17 4.31-3.22 6.55-21.65 46.49-32.62 121.09-47.42 152.15a243.15 243.15 0 0 0 -16.22 43.91c-1.68 6.4-4.61 27.82-10.47 70.64-6.49 47.43-8 65.81-9.5 77.41-.31 2.31-.61 4.36-1 6.31-13.66 76.25-114.61 138.61-153.79 143.63 12.42-5.33 23-33.73 27.09-69.64 27.64-38.66 60.91-94.47 74.41-170.78 8.1-45.78 4.68-74 7.43-99.16 1.82-16.63 6.34-31.9 18.73-50 10-14.6 20.48-24.24 32.25-33.66 20.68-16.58 45.37-32.48 78.52-73.41 1.07-1.27 2.12-2.59 3.19-3.95z" fill="#006838"/><path d="m555.28 423.23a2.54 2.54 0 0 0 -.16.28" fill="none"/><g fill="#58595b"><path d="m563.77 260a14.25 14.25 0 0 1 -7.42 12.5l-1.86 1-1 1.87a14.23 14.23 0 0 1 -25 0l-1-1.87-1.87-1a14.24 14.24 0 0 1 0-25l1.87-1 1-1.86a14.22 14.22 0 0 1 25 0l1 1.86 1.86 1a14.25 14.25 0 0 1 7.42 12.5z"/><path d="m608.54 280.31a14.25 14.25 0 0 1 -7.42 12.5l-1.86 1-1 1.87a14.24 14.24 0 0 1 -25 0l-1-1.87-1.87-1a14.26 14.26 0 0 1 0-25l1.87-1 1-1.87a14.24 14.24 0 0 1 25 0l1 1.87 1.86 1a14.28 14.28 0 0 1 7.42 12.5z"/><path d="m588.19 331.18a14.26 14.26 0 0 1 -7.42 12.5l-1.86 1-1 1.87a14.25 14.25 0 0 1 -25 0l-1-1.87-1.87-1a14.25 14.25 0 0 1 0-25l1.87-1 1-1.86a14.24 14.24 0 0 1 25 0l1 1.86 1.86 1a14.26 14.26 0 0 1 7.42 12.5z"/><path d="m317.56 358.64a14.26 14.26 0 0 1 -7.41 12.51l-1.86 1-1 1.87a14.25 14.25 0 0 1 -25 0l-1-1.87-1.87-1a14.25 14.25 0 0 1 0-25l1.87-1 1-1.86a14.24 14.24 0 0 1 25 0l1 1.86 1.86 1a14.25 14.25 0 0 1 7.41 12.49z"/><path d="m297.22 307.78a14.26 14.26 0 0 1 -7.42 12.5l-1.86 1-1 1.87a14.24 14.24 0 0 1 -25 0l-1-1.87-1.88-1a14.26 14.26 0 0 1 0-25l1.88-1 1-1.86a14.24 14.24 0 0 1 25 0l1 1.86 1.86 1a14.26 14.26 0 0 1 7.42 12.5z"/><path d="m327.74 267.08a14.25 14.25 0 0 1 -7.42 12.5l-1.86 1-1 1.87a14.24 14.24 0 0 1 -25 0l-1-1.87-1.87-1a14.24 14.24 0 0 1 0-25l1.87-1 1-1.86a14.23 14.23 0 0 1 25 0l1 1.86 1.86 1a14.25 14.25 0 0 1 7.42 12.5z"/><path d="m287 236.56a14.26 14.26 0 0 1 -7.41 12.5l-1.87 1-1 1.87a14.24 14.24 0 0 1 -25 0l-1-1.87-1.87-1a14.24 14.24 0 0 1 0-25l1.87-1 1-1.86a14.23 14.23 0 0 1 25 0l1 1.86 1.87 1a14.26 14.26 0 0 1 7.41 12.5z"/><path d="m596.33 219.26a14.28 14.28 0 0 1 -7.42 12.51l-1.86 1-1 1.88a14.25 14.25 0 0 1 -25 0l-1-1.88-1.88-1a14.26 14.26 0 0 1 0-25l1.88-1 1-1.86a14.23 14.23 0 0 1 25 0l1 1.86 1.86 1a14.25 14.25 0 0 1 7.42 12.49z"/><path d="m563.77 178.57a14.25 14.25 0 0 1 -7.42 12.5l-1.86 1-1 1.87a14.23 14.23 0 0 1 -25 0l-1-1.87-1.87-1a14.25 14.25 0 0 1 0-25l1.87-1 1-1.86a14.22 14.22 0 0 1 25 0l1 1.86 1.86 1a14.28 14.28 0 0 1 7.42 12.5z"/><path d="m577 127.7a14.25 14.25 0 0 1 -7.42 12.5l-1.86 1-1 1.87a14.24 14.24 0 0 1 -25 0l-1-1.87-1.88-1a14.25 14.25 0 0 1 0-25l1.88-1 1-1.86a14.23 14.23 0 0 1 25 0l1 1.86 1.86 1a14.25 14.25 0 0 1 7.42 12.5z" stroke="#414042" stroke-miterlimit="10"/><path d="m303.32 170.43a14.25 14.25 0 0 1 -7.42 12.5l-1.9 1.07-1 1.87a14.23 14.23 0 0 1 -25 0l-1-1.87-1.87-1a14.24 14.24 0 0 1 0-25l1.87-1 1-1.86a14.22 14.22 0 0 1 25 0l1 1.86 1.86 1a14.25 14.25 0 0 1 7.46 12.43z"/></g></svg>