<svg id="Soup" enable-background="new 0 0 64 64" height="512" viewBox="0 0 64 64" width="512" xmlns="http://www.w3.org/2000/svg"><g><g><path d="m42.86891 44.85293v14.66951c0 1.29709-.82514 2.4598-2.06019 2.85616-3.26432 1.0476-7.05087 1.6214-11.40257 1.6214-4.36374 0-8.14458-.57419-11.41404-1.62249-1.23561-.39618-2.06155-1.55901-2.06155-2.85658v-14.668z" fill="#a4dbee"/><path d="m58.35329 28.66667c0 16.78979-7.67736 30.39438-28.95003 30.39438s-28.95011-13.60459-28.95011-30.39438z" fill="#b9eded"/><path d="m10.9222 44.2058c.61153 1.72583.20868 3.16471-.89979 3.21382-1.10847.04912-2.50281-1.31013-3.11434-3.03596s-.20868-3.16471.89979-3.21383 2.50281 1.31014 3.11434 3.03597zm1.25516 4.24184c-.60846.15205-.79439.86822-.4153 1.59962s1.17966 1.20105 1.78812 1.049.79439-.86822.4153-1.59962-1.17966-1.20105-1.78812-1.049z" fill="#fff" opacity=".4"/><path d="m58.35918 28.67378c0 16.77474-7.68275 30.38368-28.95524 30.38368-2.20051 0-4.266-.15434-6.17702-.42462 9.96336-.74533 26.03331-10.98772 26.83179-29.95906z" opacity=".1"/></g><g fill="#f0f0fc"><path d="m8.59468 17.07754c-.1919 0-.38556-.06074-.54928-.1875-.39436-.30369-.46742-.8697-.16373-1.26406.11091-.14348.22975-.27904.34858-.41372.35651-.40228.57129-.64435.57129-1.20068 0-.55985-.21743-.8028-.57833-1.20684-.43749-.48943-1.03607-1.16019-1.03607-2.40752 0-1.2535.60034-1.92426 1.03871-2.41368.09419-.10563.18838-.2095.27552-.32218.30193-.39612.8697-.47006 1.26406-.16373.39436.30369.46742.8697.16373 1.26406-.11356.14788-.23679.28608-.36003.42428-.36091.40316-.57921.64699-.57921 1.21124 0 .55985.21743.8028.57833 1.20684.43749.48943 1.03607 1.16019 1.03607 2.40752 0 1.23941-.59242 1.90841-1.02463 2.39608-.09243.10387-.18486.20774-.27024.31866-.17693.23064-.44453.35123-.71477.35123z"/><path d="m15.6764 15.98073c-.1919 0-.38468-.06074-.54928-.1875-.39436-.30281-.46742-.86882-.16373-1.26406.1875-.24383.3882-.47182.59066-.69981.66636-.75263 1.19276-1.34768 1.19276-2.60294 0-1.26406-.53256-1.86088-1.20772-2.61615-.74206-.83097-1.66546-1.86528-1.66546-3.81771 0-1.96299.92516-2.99642 1.66898-3.82739.17869-.19982.35827-.39876.52288-.61266.30193-.39524.8697-.47006 1.26406-.16373.39436.30369.46742.8697.16373 1.26406-.1919.24911-.39876.4815-.60738.71477-.67604.75527-1.20948 1.35121-1.20948 2.62495 0 1.26494.53256 1.86176 1.20772 2.61703.74206.83097 1.66546 1.8644 1.66546 3.81683 0 1.93834-.91283 2.97001-1.6461 3.79834-.17429.19718-.34946.39348-.51231.60474-.17695.23064-.44454.35123-.71479.35123z"/><path d="m23.42009 14.88304c-.1919 0-.38556-.06074-.54929-.1875-.39436-.30369-.46742-.8697-.16373-1.26406.14876-.19278.30809-.37411.46742-.55369.50967-.57569.87762-.99118.87762-1.89081 0-.90667-.37235-1.32304-.88731-1.90049-.59946-.67076-1.34592-1.50613-1.34592-3.10029 0-1.60296.74734-2.43833 1.34857-3.10997.13556-.15141.272-.30281.397-.46478.30193-.39524.86882-.47094 1.26406-.16373.39436.30369.46742.8697.16373 1.26406-.15141.19718-.31602.38203-.4815.56689-.51583.57657-.88907.99382-.88907 1.90753 0 .90579.37235 1.32304.88731 1.89961.59946.67076 1.34592 1.50701 1.34592 3.10117 0 1.5836-.73766 2.41633-1.33096 3.08621-.13292.14964-.26584.29841-.38908.45862-.17693.23064-.44453.35123-.71477.35123z"/></g><g><ellipse cx="29.403" cy="28.673" fill="#a4dbee" rx="28.948" ry="9.468"/><path d="m54.75422 33.2467c-4.9191 2.91291-14.4294 4.89991-25.34799 4.89991-15.99194 0-28.95522-4.24397-28.95522-9.47179 0-3.60735 6.15373-6.73243 15.18176-8.33359-.69455.96453-1.63978 2.64281-1.4468 4.64912.40503 4.57188 6.19223 6.38521 6.55876 6.48164 2.04481.61732 3.76171.38584 4.10893.34722 3.41448-.42434 11.63234-.25079 29.90056 1.42749z" opacity=".1"/><path d="m57.00226 31.54231c-3.71387 3.82996-14.66202 6.60242-27.59611 6.60242-12.93401 0-23.88216-2.77246-27.59603-6.60242 3.71387-3.84279 14.66202-6.61533 27.59603-6.61533 12.93409 0 23.88224 2.77254 27.59611 6.61533z" fill="#ffdc6e"/><path d="m62.45331 7.38228-19.78082 19.06151c-.33998.32761-.39689.82889-.19931 1.25769.40395.87666.5988 1.80684.51319 2.77261-.05271.59462-.54488 1.06176-1.14184 1.06176h-13.06537c-.78196 0-1.3316-.77181-1.07809-1.51153.59082-1.72396 1.61201-3.44232 2.9824-4.85794 2.48935-2.57709 4.88414-2.92946 7.05635-2.02271.43447.18137.93207.1054 1.24581-.24564l18.30589-20.4828c1.36341-1.5194 3.70089-1.61677 5.1618-.19486 1.4609 1.40253 1.4609 3.74-.00001 5.16191z" fill="#f0f0fc"/></g></g></svg>