<svg id="Layer_1" height="512" viewBox="0 0 512 512" width="512" xmlns="http://www.w3.org/2000/svg" data-name="Layer 1"><path d="m32 176s18-7 42 1l-22 83s-26-60-20-84z" fill="#631c18"/><path d="m256 120c-136-8-218 89-218 89l10 112 168 11 80-181z" fill="#fd7c26"/><path d="m70.4 244.8-12.8-9.6c49.508-66.01 122.437-74.809 125.517-75.151l1.768 15.9-.885-7.949.9 7.95c-.692.078-69.273 8.55-114.5 68.85z" fill="#7f2a23"/><path d="m141.657 237.657-11.314-11.313c1.076-1.076 26.657-26.344 53.657-26.344v16c-16.97 0-36.319 15.633-42.343 21.657z" fill="#7f2a23"/><path d="m124.736 287.036-15.473-4.072c5.9-22.417 30.387-33.774 31.426-34.247l6.621 14.565-3.31-7.282 3.331 7.273c-.185.086-18.646 8.759-22.595 23.763z" fill="#7f2a23"/><path d="m216 152h32v16h-32z" fill="#7f2a23"/><path d="m184 312-136.4 4.48-9.6-107.48s12.61-14.92 36.14-32.57c2.18 6.76 31.13 92.37 109.86 135.57z" fill="#3a0d0c" opacity=".2"/><path d="m184 312c32.17-59.61 32.11-178.75 32.01-191.38a267.125 267.125 0 0 1 39.99-.62l26.3 20.38z" fill="#3a0d0c" opacity=".2"/><path d="m24 236.506c-10.34 18.494-16 38.546-16 59.494 0 92.784 111.033 120 248 120s248-27.216 248-120-71.033-168-208-168l-48-40c40 40-64 224-64 224s-152-40-152-136z" fill="#af4732"/><path d="m348.422 318.667-8.845-13.333c.954-.634 97.366-67.109 112.423-127.334l11 10c-16.562 66.249-110.471 127.943-114.578 130.667z" fill="#7f2a23"/><g fill="#fd7c26"><path d="m320 320s-32-32-72 24c0 0 72 16 72-24z"/><path d="m347.682 278.813s-43.382 26.032-67.682-9.545c0 0 43.386-26.031 67.682 9.545z"/><path d="m385.563 312s22.071 45.529-15.525 66.566c0 0-22.071-45.529 15.525-66.566z"/><path d="m424.7 271.124s33.084 38.281 2.2 68.317c0 0-33.084-38.281-2.2-68.317z"/><path d="m464.622 232s33.084 38.281 2.2 68.317c-.001 0-33.085-38.281-2.2-68.317z"/><path d="m387.66 238.889s-43.446 25.931-67.66-9.7c0-.002 43.446-25.933 67.66 9.7z"/><path d="m436.338 190.785s-39.972 31.015-68.338-1.405c0 0 39.972-31.02 68.338 1.405z"/></g></svg>