<svg id="Capa_1" enable-background="new 0 0 512 512" height="512" viewBox="0 0 512 512" width="512" xmlns="http://www.w3.org/2000/svg"><path d="m143.706 48.761h229.466v-28.136c-.001-11.391-9.235-20.625-20.626-20.625h-188.215c-11.391 0-20.625 9.234-20.625 20.625z" fill="#c6c6c6"/><path d="m143.706 30.18h229.466v18.581h-229.466z" fill="#bababa"/><path d="m308.201 512h104.438c11.391 0 20.625-9.234 20.625-20.625v-331.896h-125.063z" fill="#19b2db"/><path d="m412.639 493.419h-104.438v18.581h104.438c11.391 0 20.625-9.234 20.625-20.625v-18.581c0 11.391-9.234 20.625-20.625 20.625z" fill="#17a1c1"/><path d="m433.264 159.479-60.093-110.718-64.97 110.718z" fill="#c6c6c6"/><path d="m373.171 48.761h-229.465l-64.97 110.718h229.465z" fill="#e0e0e0"/><path d="m308.201 512h-208.84c-11.391 0-20.625-9.234-20.625-20.625v-331.896h229.466v352.521z" fill="#73cdff"/><path d="m78.736 472.794v18.581c0 11.391 9.234 20.625 20.625 20.625h208.84v-18.581h-208.84c-11.391 0-20.625-9.234-20.625-20.625z" fill="#40c5ff"/><path d="m78.736 252.382h229.466v152.451h-229.466z" fill="#b3e8ff"/><path d="m308.201 252.382h125.063v152.451h-125.063z" fill="#7ed6ed" transform="matrix(-1 0 0 -1 741.466 657.214)"/><path d="m78.736 386.252h229.466v18.581h-229.466z" fill="#99e5ff"/><path d="m308.201 386.252h125.063v18.581h-125.063z" fill="#5ecfea"/><path d="m146.592 322.771c5.965 1.277 12.118 1.277 18.084 0 12.002-2.569 24.268-.044 30.63 12.377 7.987 15.594-6.904 40.725-39.672 40.725s-47.659-25.131-39.671-40.725c6.361-12.421 18.627-14.946 30.629-12.377z" fill="#ffeca1"/><path d="m155.633 357.292c-21.115 0-34.792-10.437-39.723-22.031-7.86 15.602 7.033 40.612 39.723 40.612s47.583-25.01 39.723-40.612c-4.93 11.594-18.607 22.031-39.723 22.031z" fill="#ffdf85"/><path d="m210.838 330.001c5.121-3.315 9.472-7.666 12.787-12.787 6.67-10.303 17.128-17.191 30.41-12.906 16.674 5.379 23.915 33.678.745 56.849-23.17 23.17-51.47 15.929-56.849-.745-4.284-13.282 2.604-23.74 12.907-30.411z" fill="#ffeca1"/><path d="m254.78 342.576c-22.383 22.383-49.548 16.384-56.217.919-2.177 4.933-2.668 10.605-.632 16.917 5.379 16.674 33.678 23.915 56.849.745 13.813-13.813 16.814-29.447 13.456-40.962-1.939 7.389-6.211 15.136-13.456 22.381z" fill="#ffdf85"/><path d="m195.305 335.148c2.122 4.144 2.606 8.96 1.588 13.798l.042-.03.002.002c1.259-7.621 6.407-13.857 13.157-18.423-1.144-2.3-2.571-4.521-4.209-6.625-3.748-4.813-6.428-10.352-7.877-16.278-2.915-11.923-10.53-21.864-24.482-22.181-14.295-.324-27.663 15.837-24.341 37.824 5.144.777 10.385.627 15.489-.465 12.004-2.568 24.269-.043 30.631 12.378z" fill="#ffe55a"/><path d="m195.305 335.148c2.122 4.144 2.606 8.96 1.588 13.798l.042-.03.002.002c1.259-7.621 6.407-13.857 13.157-18.423-1.144-2.3-2.571-4.521-4.209-6.625-3.748-4.813-6.428-10.352-7.877-16.278-2.915-11.923-10.53-21.864-24.482-22.181-14.295-.324-27.663 15.837-24.341 37.824 5.144.777 10.385.627 15.489-.465 12.004-2.568 24.269-.043 30.631 12.378z" fill="#ffe55a"/><path d="m195.305 335.148c2.122 4.144 2.607 8.96 1.588 13.798l.042-.03.002.002c1.259-7.621 6.407-13.858 13.157-18.423-.983-1.976-2.185-3.888-3.539-5.723-11.559-.013-16.25-9.778-27.725-12.262-9.74-2.108-24.065.327-30.137 2.738-.078 2.557.075 5.226.492 7.988 5.144.777 10.385.627 15.489-.465 12.004-2.569 24.269-.044 30.631 12.377z" fill="#ffd91d"/><g fill="#cc624e"><path d="m239.421 326.214c-3.506 0-6.292 2.318-7.433 5.517-1.222 2.826-3.938 5.711-6.84 6.84-1.846.868-3.418 1.859-4.423 3.746-.997 1.873-1.175 4.131-.491 6.139 1.434 4.206 6.293 6.381 10.388 4.631 1.453-.547 5.392-2.293 9.489-6.39 4.647-4.647 6.272-9.095 6.551-9.94 1.722-5.022-1.736-10.543-7.241-10.543z"/><path d="m163.945 338.132c-1.325 0-2.572.334-3.663.92-3.047.841-6.653 1.343-9.683-.013-3.939-1.92-8.787-.499-10.686 3.58-1.855 3.984.059 8.462 3.866 10.353.794.4 5.089 2.395 11.658 2.395 6.275 0 10.466-1.816 11.523-2.328 3.465-1.463 5.41-5.332 4.523-8.986-.835-3.435-4.005-5.921-7.538-5.921z"/></g></svg>