<svg id="Capa_1" enable-background="new 0 0 512 512" height="512" viewBox="0 0 512 512" width="512" xmlns="http://www.w3.org/2000/svg"><g><g><path d="m293.741 85.37h67.338v56.25h-67.338z" fill="#dff6fd"/></g><g><path d="m328.885 85.37h32.194v56.25h-32.194z" fill="#c8effe"/></g><g><path d="m375.811 190.272c-8.742-2.586-14.732-10.625-14.732-19.741v-29.911h-67.338v29.912c0 9.117-5.99 17.155-14.732 19.741-25.581 7.567-44.246 31.237-44.246 59.272v166.465h85.63c2.272 0 4.121 1.849 4.121 4.121v3.532c0 30.272-24.628 54.899-54.899 54.899h-1.03v28.288c0 2.272-1.849 4.121-4.121 4.121v1.029h124.541c17.15 0 31.053-13.903 31.053-31.053v-231.403c-.001-28.035-18.666-51.705-44.247-59.272z" fill="#9e5528"/></g><g><path d="m420.057 480.947v-231.403c0-28.035-18.665-51.705-44.246-59.272-8.742-2.586-14.732-10.625-14.732-19.741v-29.911h-32.194v51.166c0 9.117 5.99 17.155 14.732 19.741 25.581 7.567 44.246 31.237 44.246 59.272v231.403c0 3.425-.563 6.718-1.587 9.799h2.728c17.15-.001 31.053-13.904 31.053-31.054z" fill="#904d24"/></g><g><path d="m234.762 257.067v158.942h85.63c2.272 0 4.121 1.849 4.121 4.121v3.532c0 6.678-1.202 13.08-3.395 19.005h98.94v-185.6z" fill="#fd6930"/></g><g><path d="m387.863 270.798v171.868h32.194v-185.6h-33.737c1.002 4.418 1.543 9.011 1.543 13.732z" fill="#fd5426"/></g><g><path d="m362.314 86.4h-69.809c-5.69 0-10.302-4.612-10.302-10.302v-65.796c0-5.69 4.612-10.302 10.302-10.302h69.809c5.69 0 10.302 4.612 10.302 10.302v65.796c0 5.69-4.612 10.302-10.302 10.302z" fill="#ffe177"/></g><g><path d="m362.314 0h-32.141c5.69 0 10.302 4.612 10.302 10.302v65.796c0 5.69-4.612 10.302-10.302 10.302h32.141c5.69 0 10.302-4.612 10.302-10.302v-65.796c0-5.69-4.612-10.302-10.302-10.302z" fill="#ffd15b"/></g><g><path d="m309.287 38.342c.024 3.492.094 7.341.094 8.016 0 9.957 8.072 18.028 18.028 18.028s18.028-8.071 18.028-18.028c0-.675.071-4.524.094-8.016z" fill="#ffc344"/></g><g><path d="m329.143 38.342c-.024 3.492-.094 7.341-.094 8.016 0 7.003-4.001 13.059-9.833 16.044 2.461 1.259 5.241 1.984 8.195 1.984 9.957 0 18.028-8.071 18.028-18.028 0-.675.071-4.524.094-8.016z" fill="#feb237"/></g><g><path d="m362.314 0h-69.809c-5.689 0-10.302 4.612-10.302 10.302v29.07h90.413v-29.07c0-5.69-4.612-10.302-10.302-10.302z" fill="#ffd15b"/></g><g><path d="m362.314 0h-32.141c5.69 0 10.302 4.612 10.302 10.302v29.07h32.141v-29.07c0-5.69-4.612-10.302-10.302-10.302z" fill="#ffc344"/></g><g><path d="m371.775 311.467h-12.571c.053.586.09 1.176.09 1.776 0 10.804-8.79 19.594-19.594 19.594h-24.58c-10.804 0-19.594-8.79-19.594-19.594 0-.599.037-1.19.09-1.776h-12.571c-8.403 0-15.216 6.812-15.216 15.216v44.235c0 8.403 6.812 15.216 15.216 15.216h88.73c8.404 0 15.216-6.812 15.216-15.216v-44.235c0-8.404-6.813-15.216-15.216-15.216z" fill="#ffe177"/></g><g><g><path d="m371.775 311.467h-12.571c.053.586.09 1.176.09 1.776 0 4.708-1.671 9.032-4.448 12.414.023.341.052.68.052 1.026v44.235c0 8.403-6.812 15.216-15.216 15.216h32.093c8.403 0 15.216-6.812 15.216-15.216v-44.235c0-8.404-6.813-15.216-15.216-15.216z" fill="#ffd15b"/></g></g><g><path d="m339.7 333.867h-24.581c-11.39 0-20.624-9.234-20.624-20.624 0-11.39 9.234-20.624 20.624-20.624h24.581c11.39 0 20.624 9.234 20.624 20.624 0 11.39-9.234 20.624-20.624 20.624z" fill="#fff"/></g><g><path d="m339.7 292.619h-20.982c11.39 0 20.624 9.234 20.624 20.624 0 11.39-9.234 20.624-20.624 20.624h20.982c11.39 0 20.624-9.234 20.624-20.624 0-11.391-9.234-20.624-20.624-20.624z" fill="#f9f3f1"/></g><g><path d="m353.164 364.458h-51.509c-4.142 0-7.5-3.358-7.5-7.5s3.358-7.5 7.5-7.5h51.509c4.142 0 7.5 3.358 7.5 7.5s-3.358 7.5-7.5 7.5z" fill="#fff"/></g><g><g><path d="m147.872 478.561v28.288c0 2.845 2.306 5.151 5.151 5.151h111.439c2.845 0 5.151-2.306 5.151-5.151v-28.288z" fill="#c8effe"/></g><g><path d="m227.155 478.561v28.288c0 2.845-2.306 5.151-5.151 5.151h42.459c2.845 0 5.151-2.306 5.151-5.151v-28.288z" fill="#99e6fc"/></g><g><path d="m269.613 479.591h-121.741c-30.889 0-55.929-25.04-55.929-55.929v-3.532c0-2.845 2.306-5.151 5.151-5.151h223.298c2.845 0 5.151 2.306 5.151 5.151v3.532c0 30.889-25.041 55.929-55.93 55.929z" fill="#dff6fd"/></g><g><path d="m320.392 414.979h-43.009c2.845 0 5.151 2.306 5.151 5.151v3.533c0 30.889-25.04 55.929-55.929 55.929h43.009c30.889 0 55.929-25.04 55.929-55.929v-3.533c0-2.845-2.306-5.151-5.151-5.151z" fill="#c8effe"/></g></g></g></svg>