<svg height="512" viewBox="0 0 64 64" width="512" xmlns="http://www.w3.org/2000/svg"><g id="_20-Canned-food" data-name="20-Canned-food"><path d="m61 17h-58a1 1 0 0 0 -1 1v28c0 9 13.18 16 30 16s30-7 30-16v-28a1 1 0 0 0 -1-1z" fill="#fc6067"/><path d="m62 46v-28a1 1 0 0 0 -1-1h-3.06c0 .33.06.66.06 1v28c0 8.61-12.15 15.43-28 16h2c16.82 0 30-7 30-16z" fill="#fb4b5b"/><ellipse cx="32" cy="18" fill="#e7eaef" rx="30" ry="16"/><ellipse cx="32" cy="18" fill="#d8dbe0" rx="26" ry="12"/><path d="m10 18c0-6.08 11-11.45 24-12-.66 0-1.33 0-2 0-13.85 0-26 5.61-26 12s12.15 12 26 12h2c-13-.55-24-5.92-24-12z" fill="#cccfd4"/><path d="m24 13a4.84 4.84 0 0 0 -1.21.17l-5.91.83a4.13 4.13 0 0 0 -3.88 4 4.13 4.13 0 0 0 3.84 4l5.95.86a4.84 4.84 0 0 0 1.21.14 5 5 0 0 0 0-10zm0 8a3 3 0 1 1 3-3 3 3 0 0 1 -3 3z" fill="#e7eaef"/><ellipse cx="32" cy="47" fill="#fcb860" rx="15" ry="10"/><path d="m32 37c-.68 0-1.34 0-2 .1 7.33.65 13 4.84 13 9.9s-5.67 9.25-13 9.9c.66.06 1.32.1 2 .1 8.27 0 15-4.49 15-10s-6.73-10-15-10z" fill="#fcaa52"/></g></svg>