<svg id="Layer_1" enable-background="new 0 0 512 512" viewBox="0 0 512 512" xmlns="http://www.w3.org/2000/svg"><g><g fill="#4a81f6"><path d="m375.989 215.689s-9.941-32.815-27.267-54.016c-1.791-2.191-4.964-2.641-7.29-1.031-8.765 6.064-30.898 20.086-53.117 23.896-2.629.451-4.705 2.465-5.134 5.089l-4.286 26.226z"/><path d="m358.894 298.369s-1.374 45.361-41.551 53.952h-10.676c-3.256 0-5.767-2.871-5.335-6.101l6.396-47.852h51.166z"/><g><path d="m200.167 229.05s-17.548-20.633-41.114-32.467c-5.68-2.852-12.187-3.598-18.341-2.011l-28.479 7.346c-3.566.92-4.998 5.214-2.697 8.092l23.364 29.236z"/><path d="m196.389 287.734s-17.548 20.633-41.114 32.467c-5.68 2.852-12.187 3.598-18.341 2.011l-28.479-7.346c-3.566-.92-4.998-5.214-2.697-8.092l23.364-29.236z"/></g><path d="m.606 205.454 25.468 45.534c2.703 4.832 2.703 10.722 0 15.554l-25.468 45.534c-1.897 3.391.925 7.472 4.767 6.915 41.582-6.031 86.455-50.461 86.455-50.461v-19.528s-44.873-44.43-86.455-50.461c-3.842-.559-6.663 3.522-4.767 6.913z"/></g><path d="m73.66 269.96c63.05 13.65 159.82 38.73 235.869 38.73 28.09 0 56.58-1.76 82.96-4.76 0 0 5.19-11.52 17.96-2.28 67.55-9.48 115.96-27.01 97.65-42.88-32.05-27.79-88.91-49.93-198.569-49.93-76.05 0-172.729 25.51-235.869 38.73-10.431 2.18-12.491 19.69-.001 22.39z" fill="#61a2f9"/><path d="m508.098 258.77c-32.05-27.79-88.91-49.93-198.569-49.93-4.521 0-9.118.096-13.773.269 96.434 2.587 148.176 23.648 178.176 49.661 17.077 14.802-104.203 45.417-182.382 49.471 6.096.282 12.105.448 17.979.448 28.09 0 56.58-1.76 82.96-4.76 0 0 5.19-11.52 17.96-2.28 67.55-9.479 115.959-27.009 97.649-42.879z" fill="#5490f9"/><path d="m374.129 283.05 18.36 20.88c6.11-.69 12.11-1.45 17.96-2.28l-25.06-28.51c-3.94-4.48-5.72-10.45-4.89-16.37l1.62-11.54c.57-4.1-2.28-7.89-6.39-8.47-4.09-.57-7.89 2.28-8.47 6.38l-1.62 11.54c-1.44 10.26 1.65 20.59 8.49 28.37z" fill="#4a81f6"/><g><circle cx="450.351" cy="239.259" fill="#f6f1f1" r="15.453"/></g></g><g/><g/><g/><g/><g/><g/><g/><g/><g/><g/><g/><g/><g/><g/><g/></svg>