<svg id="Capa_1" enable-background="new 0 0 497 497" viewBox="0 0 497 497" xmlns="http://www.w3.org/2000/svg"><g><path d="m273.094 0h-31.623l5.406 60h51.623l-18.291-54.872c-1.02-3.062-3.886-5.128-7.115-5.128z" fill="#4771c9"/><path d="m216.791 5.128-18.291 54.872h68.377l-18.29-54.872c-1.021-3.062-3.887-5.128-7.115-5.128h-17.566c-3.229 0-6.095 2.066-7.115 5.128z" fill="#338fda"/><path d="m233.5 90h75v90h-75z" fill="#b6ecfa"/><path d="m188.5 90h90v90h-90z" fill="#d9f4fa"/><path d="m339.033 180.533-30.533-30.533h-30l-30 105 101.823-60c-3.132-5.223-6.911-10.088-11.29-14.467z" fill="#63cd5c"/><path d="m287.287 171.213c-5.626-5.626-8.787-13.257-8.787-21.213h-90l-30.533 30.533c-4.379 4.379-8.158 9.244-11.29 14.467l164.397 60v-60z" fill="#91e065"/><path d="m301 407v90h30c16.569 0 30-13.431 30-30z" fill="#63cd5c"/><path d="m331 467v-60l-195 60c0 16.569 13.431 30 30 30h135c16.569 0 30-13.431 30-30z" fill="#91e065"/><path d="m301 377 30 90h30v-60z" fill="#d9f4fa"/><path d="m136 407v60h172.5l7.5-90z" fill="#20aceb"/><path d="m308.5 407c-4.142 0-7.5 3.358-7.5 7.5v45c0 4.142 3.358 7.5 7.5 7.5h22.5v-90z" fill="#fff"/><path d="m350.323 195h-39.249v106l19.926 106h30v-173.434c0-13.699-3.749-27.011-10.677-38.566z" fill="#4e54ba"/><path d="m317.82 201.746-6.746-6.746h-164.397c-6.928 11.555-10.677 24.867-10.677 38.566v173.434h195v-173.435c0-11.934-4.741-23.38-13.18-31.819z" fill="#4771c9"/><path d="m263.5 60 22.5 60h30c4.142 0 7.5-3.358 7.5-7.5v-52.5z" fill="#4e54ba"/><path d="m173.5 60v52.5c0 4.142 3.358 7.5 7.5 7.5h105c4.142 0 7.5-3.358 7.5-7.5v-52.5z" fill="#4771c9"/><path d="m323.5 45h-30v30h30c8.284 0 15-6.716 15-15s-6.716-15-15-15z" fill="#42488c"/><path d="m308.5 60c0-8.284-6.716-15-15-15h-120c-8.284 0-15 6.716-15 15s6.716 15 15 15h120c8.284 0 15-6.716 15-15z" fill="#4e54ba"/><path d="m301 301c0-8.284-6.716-15-15-15h-22.5v-46c0-8.284-6.716-15-15-15-5.407 0-10.131 2.87-12.771 7.16-.017-.005-37.517 60.995-37.517 60.995-1.39 2.298-2.212 4.972-2.212 7.845 0 8.284 6.716 15 15 15h22.5v46c0 8.284 6.716 15 15 15 5.407 0 10.131-2.87 12.771-7.16.017.005 37.517-60.995 37.517-60.995 1.39-2.299 2.212-4.972 2.212-7.845z" fill="#fff"/></g><g/><g/><g/><g/><g/><g/><g/><g/><g/><g/><g/><g/><g/><g/><g/></svg>