<svg height="512" viewBox="0 0 512 512" width="512" xmlns="http://www.w3.org/2000/svg"><g id="Flat"><path d="m289.736 104.484c4.327-6.7 7.8-72.484 54.61-72.484s42.3 42.82 70.212 64.43c31.206 24.162 66.736 15.237 65.406 63.9-1.106 40.435-54.741 37.839-62.542 62s12.739 43.227-10.665 67.388c-24.67 25.469-84.55-9.36-109.22 16.108-46.808 48.323-109.22 104.7-148.227 64.43s15.6-104.7 62.412-136.914c41.563-28.606-2.188-59.915 15.6-96.646 15.605-32.212 46.811-8.051 62.414-32.212z" fill="#809e39"/><path d="m446.421 153.418a8 8 0 0 0 -10.49-4.237c-19.417 8.242-46.769 10.193-62.109.31l31.835-31.834a8 8 0 0 0 -11.314-11.314l-30.974 30.975c-7.091-14.636-6.348-35.927-5.9-48.542a91.708 91.708 0 0 1 1.626-16.007 8 8 0 0 0 -15.631-3.417 105.853 105.853 0 0 0 -1.985 18.86c-.546 15.467-1.482 42.125 10.126 60.873l-14.595 14.592a8 8 0 1 0 11.313 11.313l14.02-14.019c9.374 7.1 22.284 10.956 37.619 11.166q.638.009 1.277.009a108.361 108.361 0 0 0 40.944-8.238 8 8 0 0 0 4.238-10.49z" fill="#8bab43"/><path d="m112 440-48 48-40-40 14.34-14.34 11.32-11.32 22.34-22.34z" fill="#f2dec2"/><path d="m102.537 406.166c-15.778-20.745 0-48.5 15.733-64.673s55.066-24.253 62.933-48.5-1.3-60.74 30.483-84.548c38.677-28.968 60.432-7.947 84.566-14.147 31.466-8.084 48.517-60.551 89.154-48.5 34.089 10.1 28.189 36.379 43.922 68.716 14.926 30.667 58.672 31.28 58.672 70.386 0 56.59-46.346 53.431-86.533 48.505-35.727-4.379-25.329 36.989-67.194 56.253-43.921 20.21-69.439-21.928-90.138-7.748-23.599 16.172-93.283 87.782-141.598 24.256z" fill="#85a33e"/><path d="m452.793 277.191a8 8 0 0 0 -9.6-5.984c-.307.072-28.036 6.2-62.25-8.567 22.092-14.877 36.38-24.9 36.658-25.094a8 8 0 0 0 -9.2-13.092c-.275.193-14.437 10.127-36.342 24.878-8.783-34.907 6.244-58.83 6.97-59.954a8 8 0 0 0 -13.374-8.783c-.9 1.371-21.353 33.16-7.6 78.114-19.049 12.682-41.959 27.637-65.935 42.625-101.537 63.474-143.347 78.739-160.541 80.366a8 8 0 0 0 .745 15.965q.379 0 .764-.036c27.515-2.607 83.893-30.453 167.569-82.764 23.486-14.683 45.948-29.33 64.8-41.866a135.155 135.155 0 0 0 62.133 15.544 91.6 91.6 0 0 0 19.218-1.752 8 8 0 0 0 5.985-9.6z" fill="#8bab43"/><path d="m105.179 402.609c20.219 15.5 64.891 17.414 83.981 6.421 54.581-31.431 54.581-70.72 70.175-86.436 22.732-22.909 55.71-14.994 70.174-39.288 23.392-39.289-21.637-54.873-15.594-78.578 7.879-30.907 53.074-35.288 45.159-79.559-6.145-34.369-35.574-28.087-67.092-43.541-29.9-14.66-30.497-57.628-68.615-57.628-55.154 0-52.076 45.522-47.275 84.994 4.268 35.092-36.051 24.879-54.826 66-19.7 43.141 21.372 68.205 7.551 88.535-15.759 23.18-85.554 91.624-23.638 139.08z" fill="#8bab43"/><path d="m329.937 138.094a8 8 0 0 0 -11.124-2.071c-.377.26-34.458 23.354-68.183 24.547 2.915-6.534 25.4-59.262 26.19-61.208a8 8 0 1 0 -14.828-6.01c-.169.415-5.155 12.671-13.05 31.053-28.49-29.927-21.443-64.924-21.108-66.493a8 8 0 1 0 -15.621-3.462c-.451 2.035-10.19 48.618 29.907 85.678-20.43 46.615-52.5 115.591-76.155 146.7a8 8 0 1 0 12.737 9.683c9.858-12.966 20.935-31.815 32-52.78a124.761 124.761 0 0 0 15.234.935c36.523 0 62.092-15.921 63.35-16.72a8 8 0 1 0 -8.578-13.506c-.284.18-26.264 16.354-62.1 13.97 8.666-17.157 17.143-35.07 24.832-51.91 1.482.076 2.964.122 4.446.122 39.544 0 78.212-26.192 79.976-27.4a8 8 0 0 0 2.075-11.128z" fill="#94b54a"/><path d="m45.996 423.858h16.009v28.284h-16.009z" fill="#e5d2b8" transform="matrix(.707 -.707 .707 .707 -293.898 166.473)"/><path d="m251.671 288.908c-43.735 8.853-47.112 71.522-80.809 92.395-29.486 18.265-68.377 18.277-107.636 10.33 0 0 31.407 72 118.1 63.179a177.059 177.059 0 0 0 29.227-5.225c13.447 8.122 21.113 30.046 44.668 30.046 39.259 0 43.556-32 67.111-32 18.507 0 31.408 40 70.667 40 31.407 0 34.025-27.2 39.259-39.787s54.963 0 54.963-47.681c0-20.232-12.212-32.142-30.991-36.227-13.45-2.927-42.6 6.229-47.433-12.508-.9-3.486-.9-7.133-1.107-10.73-.377-6.645-1.488-13.336-4.242-19.381a30.48 30.48 0 0 0 -18.3-16.515c-23.56-7.949-31.412 7.945-62.819 7.945-25.877 0-31.399-31.788-70.658-23.841z" fill="#94b54a"/><path d="m411.449 424.436c-.641-.234-9.564-3.459-23.56-7.14 8.983-12.086 19.262-16.545 19.348-16.582a8 8 0 1 0 -6.022-14.823c-.769.312-17.59 7.346-29.947 27.442-7.148-1.532-14.968-2.989-23.249-4.186a152.719 152.719 0 0 0 -40.044-.5c15.093-46.25 46.076-55.194 47.6-55.605a8 8 0 0 0 -3.984-15.5c-1.857.471-44.549 12.007-61.192 74.125-16.384 3.675-31.478 9.364-45.681 15.172-7.192-43.961 26.416-93.829 26.778-94.359a8 8 0 0 0 -13.2-9.041c-1.678 2.448-39.394 58.292-28.68 109.665-4.209 1.746-8.307 3.424-12.419 5.024a8 8 0 1 0 5.803 14.915c5.959-2.32 12.06-4.865 17.959-7.326 17.818-7.431 35.981-15 55.826-19.089.038 0 .077.007.114.007a7.953 7.953 0 0 0 3.101-.635 138.86 138.86 0 0 1 45.729-1.018 339.826 339.826 0 0 1 60.237 14.485 8 8 0 1 0 5.483-15.031z" fill="#9bbc50"/><path d="m198.884 188.84c0-31.4 15.894-39.248 7.945-62.8a30.475 30.475 0 0 0 -16.515-18.291c-6.045-2.753-12.736-3.864-19.381-4.241-3.6-.2-7.244-.207-10.73-1.106-18.738-4.836-9.581-33.974-12.508-47.419-4.085-18.774-15.995-30.983-36.227-30.983-47.681 0-35.1 49.714-47.681 54.947s-39.787 7.853-39.787 39.247c0 39.248 40 52.144 40 70.646 0 23.548-32 23.548-32 62.8 0 23.548 21.924 35.507 30.046 48.95-46.046 92.341 49.189 140.7 49.189 140.7-7.947-39.247.83-71.535 19.1-101.012 20.873-33.688 83.542-37.064 92.395-80.785 7.941-39.255-23.846-44.776-23.846-70.653z" fill="#9bbc50"/><path d="m93.117 243.7a7.881 7.881 0 0 0 .855-.246c39.132-13.754 69.114-51.8 79.1-67.489a7.821 7.821 0 0 0 -2.866-11.071l-.341-.186a7.831 7.831 0 0 0 -10.333 2.658c-8.058 12.545-31.129 41.882-60.413 56.518a155.468 155.468 0 0 0 3.98-55.94 7.866 7.866 0 0 0 2.842-1.282c17.733-12.764 28.6-33.538 33.532-44.868a7.823 7.823 0 0 0 -4.7-10.545l-.351-.118a7.828 7.828 0 0 0 -9.654 4.3c-3.863 8.836-11.972 24.561-24.336 35.2a341.793 341.793 0 0 0 -13.232-50.878 8 8 0 0 0 -15.031 5.481 339.522 339.522 0 0 1 14.486 60.221c5.856 40.489-7.4 71.75-20.213 101.981-2.532 5.97-5.137 12.131-7.534 18.224a7.829 7.829 0 0 0 -.614 1.408l-.109.339a7.836 7.836 0 0 0 5.982 10.093c4.846.933 20.125 1.167 24.833 1.167 27.517 0 51.569-12.471 62.98-20.4a7.822 7.822 0 0 0 1.511-11.47l-.24-.284a7.82 7.82 0 0 0 -10.428-1.394c-10 6.915-39.907 18.606-65.521 17.739 1.252-3.01 2.541-6.051 3.866-9.179 4.045-9.539 8.257-19.479 11.949-29.979z" fill="#a4c45a"/></g></svg>