<svg id="Capa_1" enable-background="new 0 0 512 512" height="512" viewBox="0 0 512 512" width="512" xmlns="http://www.w3.org/2000/svg"><g><path d="m373.544 475.883c-6.676 6.078-17.08 5.491-23.467-.896l-13.763-13.774c-8.88-8.88-23.282-8.88-32.162 0l-33.718 33.728c-21.84 21.84-57.412 22.716-79.582 1.216-22.458-21.778-22.777-57.68-.968-79.87l-11.071 8.163-75.506 76.385c-3.075 3.075-7.368 4.939-11.398 5.104-4.111.168-7.931.575-11.235-2.292-.299-.258-.587-.525-.876-.814-3.255-3.255-4.873-7.51-4.873-11.765 0-4.265 1.617-8.53 4.873-11.775l-27.613 25.114c-3.323 3.323-7.159 4.135-11.568 4.168-3.874.029-8.329 2.163-11.432-.53-.103-.082-.206-.165-.299-.258-7.077-6.439-7.263-17.41-.577-24.096-.134.134-.278.268-.412.391-3.19 2.985-7.441 2.118-11.523 2.121-3.893.003-7.616 1.012-10.739-1.698-.494-.433-.968-.896-1.422-1.391-6.037-6.634-5.45-16.957.886-23.292l27.609-27.619c-2.558 2.558-5.745 1.484-9.061 2.029-4.738.778-9.744 2.125-13.592-1.215-.299-.247-.598-.525-.886-.814-3.255-3.255-4.873-7.51-4.873-11.765 0-3.966 1.401-7.932 4.224-11.085.206-.237.422-.464.649-.69l93.281-93.24c-10.58 10.58-30.749 22.415-44.646 22.786-15.195.422-30.524-5.264-41.959-17.06-21.5-22.17-20.624-57.742 1.216-79.582l33.718-33.718c8.89-8.88 8.89-23.282 0-32.162l-14.093-14.103c-6.748-6.737-6.552-17.781.587-24.271 6.676-6.078 17.08-5.491 23.468.896l13.763 13.763c21.984 21.984 21.984 57.618 0 79.602l-34.326 34.315c-9.076 9.076-8.86 23.972.628 32.78 9.035 8.365 23.22 7.696 31.925-1.01l32.956-32.956c10.085-10.075 24.003-15.36 38.23-14.505.999.062 1.999.093 2.987.093 13.186 0 25.878-5.233 35.243-14.608l43.956-43.949 27.278-19.349 80.356 83.613-63.131 74.153c-10.086 10.075-15.37 23.993-14.515 38.23.062.999.093 1.998.093 2.987 0 13.176-3.518 22.265-12.882 31.639l-33.347 33.347c-9.076 9.076-7.182 27.825 2.316 36.633 4.029 3.735 11.389 5.112 16.524 5.339 6.38.282 12.885-2.074 17.709-6.897l33.924-33.934c21.984-21.984 57.628-21.984 79.602 0l14.103 14.103c6.735 6.741 6.539 17.795-.589 24.285z" fill="#838383"/><path d="m441.985 252.741-35.276-10.277-50.703-86.468-86.468-50.703-10.278-35.277c-5.411-18.573 6.981-37.607 26.156-40.173l88.111-11.794 11.273 37.63 71.523 71.523 37.63 11.275-11.794 88.108c-2.567 19.175-21.6 31.567-40.174 26.156z" fill="#838383"/><path d="m343.576 262.584-16.967-16.967-77.192-77.191-23.315 23.312c13.109 30.751 33.322 56.426 59.611 75.111 6.024 4.281 6.679 12.991 1.454 18.217l-27.819 27.823c-10.086 10.075-13.87 30.852-13.015 45.089.062.999.093 1.999.093 2.988 0 13.176-5.233 25.868-14.598 35.242l-33.347 33.347c-12.751 14.744-6.569 33.344-1.069 39.241 7.545 8.089 12.539 9.54 31.381 9.54-5.141-.227-10.189-2.163-14.217-5.903-9.498-8.808-9.704-23.694-.628-32.77l33.347-33.347c9.364-9.375 14.598-22.066 14.598-35.242 0-.989-.031-1.988-.093-2.987-.855-14.237 4.43-28.155 14.515-38.23z" fill="#6d6d6d"/><path d="m429.987 10.491-56.461 7.557c-1.079.863-2.151 1.738-3.211 2.628l-100.778 84.616 30.946 106.225 106.225 30.947 84.615-100.778c.89-1.06 1.765-2.131 2.628-3.209l7.558-56.463z" fill="#6d6d6d"/><path d="m336.571 264.876c-9.531-3.521-19.606-2.962-28.153-8.145-.171-.104-.342-.208-.513-.312-30.029-18.368-53.337-46.43-65.74-80-3.593-9.725-.693-20.658 7.246-27.324l134.153-112.638c28.678-24.078 65.073-37.015 102.514-36.438 1.635.025 3.233.203 4.783.513 11.921 2.385 18.757 13.594 18.951 26.173.577 37.441-14.199 68.632-38.277 97.31l-107.64 133.614c-6.666 7.94-17.599 10.839-27.324 7.247z" fill="#9c9c9c"/><path d="m511.982 25.923c-.194-12.579-9.2-23.005-21.12-25.391.31 1.55.49 3.15.515 4.786.577 37.441-12.359 73.837-36.438 102.515l-119.473 140.988c-6.658 7.93-17.844 11.169-27.561 7.597 8.696 5.319 17.956 9.826 27.678 13.417 9.724 3.593 20.658.693 27.324-7.246l112.637-134.152c24.078-28.678 37.015-65.073 36.438-102.514z" fill="#838383"/><path d="m216.935 234.995c-7.5 7.5-18.729 9.024-27.733 4.564-2.297-1.133-.366-6.452-2.282-8.368s-7.515-.265-8.638-2.563c-4.461-9.004-2.936-20.222 4.564-27.722 9.406-9.416 24.673-9.416 34.089 0 9.406 9.417 9.406 24.674 0 34.089z" fill="#f8f6f6"/><path d="m311.094 329.154c-7.5 7.5-18.718 9.024-27.722 4.564-2.297-1.123-2.074-4.576-3.99-6.493-1.916-1.916-5.818-2.14-6.941-4.438-4.461-9.004-2.936-20.222 4.564-27.722 9.416-9.405 24.673-9.405 34.089 0 9.416 9.416 9.416 24.684 0 34.089z" fill="#f8f6f6"/><g><g><path d="m135.273 329.638-102.565 102.565c-6.212 6.212-16.112 6.49-22.654.814l114.299-114.299c3.008-3.018 7.901-3.018 10.92 0 3.018 3.019 3.018 7.902 0 10.92z" fill="#6d6d6d"/></g><g><path d="m182.362 376.728-102.564 102.565-27.619 27.609c-6.243 6.243-16.359 6.902-22.994 1.143l142.247-142.247c3.018-3.018 7.912-3.018 10.93 0 3.019 3.018 3.019 7.911 0 10.93z" fill="#6d6d6d"/></g><g><path d="m144.235 367.745-116.338 116.338c-6.233 5.831-15.865 5.975-22.262.423l127.681-127.681c3.018-3.018 7.912-3.018 10.92 0 3.018 3.008 3.018 7.901-.001 10.92z" fill="#6d6d6d"/></g><g><path d="m126.321 291.552-30.256 30.225c-10.58 10.58-24.364 16.061-38.261 16.431l57.587-57.587c3.018-3.018 7.912-3.018 10.93 0 3.018 3.02 3.018 7.913 0 10.931z" fill="#6d6d6d"/></g><g><path d="m220.191 385.979-116.854 116.853c-6.212 6.212-16.122 6.49-22.664.814l128.587-128.597c3.018-3.008 7.912-3.008 10.93 0 3.019 3.018 3.019 7.911.001 10.93z" fill="#6d6d6d"/></g><g><path d="m202.76 226.002-13.557 13.557c-2.297-1.133-4.44-2.648-6.356-4.564s-3.441-4.069-4.564-6.367l13.547-13.547c3.018-3.018 7.912-3.018 10.93 0 3.018 3.019 3.018 7.903 0 10.921z" fill="#9c9c9c"/></g><g><path d="m296.919 320.171-13.547 13.547c-2.297-1.123-4.45-2.648-6.367-4.564-1.916-1.916-3.441-4.069-4.564-6.367l13.557-13.547c3.018-3.018 7.902-3.018 10.92 0 3.019 3.019 3.019 7.912.001 10.931z" fill="#9c9c9c"/></g></g></g></svg>