<svg height="512pt" viewBox="-24 0 512 512" width="512pt" xmlns="http://www.w3.org/2000/svg"><path d="m445.195312 159.339844-48.417968-60.242188h-338.582032l-40.164062 60.242188c-16.519531 24.78125-22.003906 55.3125-15.140625 84.292968l57.539063 242.949219c3.53125 14.898438 16.835937 25.417969 32.144531 25.417969h278.078125c15.308594 0 28.613281-10.519531 32.144531-25.417969l57.539063-242.949219c6.863281-28.980468 1.378906-59.511718-15.140626-84.292968zm0 0" fill="#f9eac7"/><path d="m445.195312 159.339844-48.417968-60.242188h-338.582032l-40.164062 60.242188c-16.519531 24.78125-22.003906 55.3125-15.140625 84.292968l57.542969 242.949219c3.527344 14.898438 16.832031 25.417969 32.140625 25.417969h50.707031l-33.992188-268.367188c-2.191406-17.300781-2.007812-35.140624.367188-51.988281.964844-6.847656 4.917969-12.882812 10.792969-16.527343.027343-.019532.054687-.035157.082031-.050782 9.261719-5.75 15.949219-9.90625 31.191406-9.90625 15.25 0 21.945313 4.15625 31.207032 9.90625 10.675781 6.625 23.960937 14.871094 48.628906 14.871094 24.660156 0 37.945312-8.246094 48.617187-14.871094 9.257813-5.75 15.949219-9.90625 31.191407-9.90625 15.257812 0 21.957031 4.15625 31.226562 9.90625 10.675781 6.625 23.964844 14.871094 48.640625 14.871094 24.671875 0 37.960937-8.246094 48.636719-14.871094 3.886718-2.410156 7.308594-4.453125 11.039062-6.089844-1.730468-3.292968-3.632812-6.511718-5.714844-9.636718zm0 0" fill="#f4dbb3"/><path d="m88.664062 478.96875h285.898438c7.65625 0 14.308594-5.261719 16.074219-12.710938l53.628906-226.433593c5.730469-24.203125 1.203125-49.941407-12.425781-70.734375l-42.980469-53.476563h-321.824219l-35.261718 52.890625c-13.980469 20.964844-18.617188 46.800782-12.8125 71.320313l53.628906 226.433593c1.765625 7.449219 8.417968 12.710938 16.074218 12.710938zm0 0" fill="#ffc269"/><path d="m436.527344 177.117188c-1.417969-2.746094-2.980469-5.425782-4.6875-8.027344l-42.980469-53.476563h-321.824219l-35.261718 52.890625c-13.980469 20.96875-18.617188 46.800782-12.8125 71.320313l53.628906 226.433593c1.765625 7.449219 8.417968 12.710938 16.074218 12.710938h50.433594l-29.808594-235.335938c-2.191406-17.300781-2.007812-35.140624.367188-51.988281.964844-6.847656 4.917969-12.882812 10.792969-16.53125.027343-.015625.054687-.03125.082031-.050781 9.261719-5.746094 15.949219-9.902344 31.191406-9.902344 15.25 0 21.945313 4.15625 31.207032 9.90625 10.675781 6.625 23.960937 14.867188 48.628906 14.867188 24.660156 0 37.945312-8.246094 48.617187-14.871094 9.257813-5.746094 15.949219-9.902344 31.191407-9.902344 15.257812 0 21.957031 4.15625 31.226562 9.90625 10.675781 6.625 23.964844 14.867188 48.640625 14.867188 22.183594 0 35.140625-6.65625 45.292969-12.816406zm0 0" fill="#ffa95f"/><path d="m405.03125 0h-346.835938c-9.121093 0-16.515624 7.394531-16.515624 16.515625v33.03125c0 9.121094 7.394531 16.515625 16.515624 16.515625h346.839844c9.121094 0 16.515625-7.394531 16.515625-16.515625v-33.03125c-.003906-9.121094-7.394531-16.515625-16.519531-16.515625zm0 0" fill="#ff8b5a"/><path d="m458.878906 136.425781c4.648438 4.648438 2.214844 12.457031-4.199218 13.917969-24.535157 5.589844-29.898438 23.074219-63.445313 23.074219-39.933594 0-39.933594-24.773438-79.867187-24.773438-39.90625 0-39.90625 24.773438-79.808594 24.773438-39.917969 0-39.917969-24.773438-79.835938-24.773438-39.902344 0-39.902344 24.773438-79.808594 24.773438-33.507812 0-38.871093-17.480469-63.375-23.074219-6.410156-1.460938-8.84375-9.265625-4.195312-13.914062l30.078125-30.078126c4.644531-4.644531 10.945313-7.253906 17.515625-7.253906h359.347656c6.570313 0 12.871094 2.609375 17.519532 7.253906zm0 0" fill="#ff8b5a"/><path d="m302.207031 90.839844h-18.117187l12.257812 27.140625c1.378906 3.050781 4.378906 4.859375 7.53125 4.859375 1.128906 0 2.289063-.234375 3.386719-.734375 4.160156-1.875 6.007813-6.765625 4.128906-10.921875zm0 0" fill="#ff7350"/><path d="m159.195312 99.097656h-107.253906c-6.570312 0-12.871094 2.609375-17.519531 7.253906l-30.078125 30.078126c-4.648438 4.648437-2.214844 12.453124 4.195312 13.914062 24.503907 5.59375 29.867188 23.078125 63.378907 23.078125 35.445312 0 39.464843-19.511719 67.875-23.878906zm0 0" fill="#ff7350"/><path d="m109.5625 90.839844-21.265625 34.929687c-2.371094 3.894531-1.136719 8.976563 2.769531 11.347657 1.335938.820312 2.820313 1.207031 4.28125 1.207031 2.789063 0 5.507813-1.414063 7.0625-3.964844l26.492188-43.519531zm0 0" fill="#ff8b5a"/><path d="m132.515625 24.773438v-24.773438h-74.320313c-9.121093 0-16.515624 7.394531-16.515624 16.515625v33.03125c0 9.125 7.394531 16.515625 16.515624 16.515625h346.839844c9.121094 0 16.515625-7.394531 16.515625-16.515625h-264.261719c-13.679687 0-24.773437-11.089844-24.773437-24.773437zm0 0" fill="#ff7350"/><path d="m396.773438 99.097656h-330.320313c-9.121094 0-16.515625-7.394531-16.515625-16.515625 0-9.121093 7.394531-16.515625 16.515625-16.515625h330.324219c9.121094 0 16.515625 7.394532 16.515625 16.515625-.003907 9.121094-7.398438 16.515625-16.519531 16.515625zm0 0" fill="#9f6e50"/><path d="m396.773438 66.066406h-264.257813c-4.558594 0-8.257813 3.695313-8.257813 8.257813 0 4.558593 3.699219 8.257812 8.257813 8.257812h280.773437c0-9.121093-7.394531-16.515625-16.515624-16.515625zm0 0" fill="#b57f5f"/></svg>