<svg id="Capa_1" enable-background="new 0 0 512 512" viewBox="0 0 512 512" xmlns="http://www.w3.org/2000/svg"><g><g><path d="m359.18 78.309-22.01-36.683v-29.138c.001-6.897-5.59-12.488-12.487-12.488h-287.22c-6.897 0-12.488 5.591-12.488 12.488v29.138l-22.009 36.683c-1.941 3.234-2.966 6.936-2.966 10.708v402.17c0 11.495 9.318 20.813 20.813 20.813h78.122l50.608-34.899 48.443 34.899h143.348c11.495 0 20.813-9.318 20.813-20.813v-402.17c-.001-3.772-1.026-7.474-2.967-10.708z" fill="#b3dafe"/><path d="m359.18 78.309-22.01-36.683v-29.138c.001-6.897-5.59-12.488-12.487-12.488h-27.057c6.897 0 12.488 5.591 12.488 12.488v21.638h-285.138v7.5l-4.5 7.5h294.138l17.51 29.183c1.941 3.235 2.966 6.936 2.966 10.708v402.17c0 11.495-9.318 20.813-20.813 20.813h27.057c11.495 0 20.813-9.318 20.813-20.813v-402.17c-.001-3.772-1.026-7.474-2.967-10.708z" fill="#8ac9fe"/><g><path d="m503.675 314.276h-131.122l-49.951-12.373-49.951 12.373v68.683c0 5.747 4.659 10.407 10.406 10.407h79.089c5.747 0 10.406-4.659 10.406-10.407v-35.382h131.122c4.598 0 8.325-3.727 8.325-8.325v-16.65c.001-4.598-3.726-8.326-8.324-8.326z" fill="#fd8087"/><path d="m503.675 314.276h-27.057c4.598 0 8.325 3.727 8.325 8.325v16.65c0 4.598-3.727 8.325-8.325 8.325h27.057c4.598 0 8.325-3.727 8.325-8.325v-16.65c0-4.597-3.727-8.325-8.325-8.325z" fill="#fe646f"/><path d="m335.582 273.134-18.347-12.162h-7.122c-1.715 1.148-3.282 2.536-4.644 4.144l-26.094 30.813c-4.342 5.127-6.725 11.629-6.725 18.348h74.927l4.416-20.37z" fill="#eaf6ff"/><path d="m365.828 295.928-26.094-30.813c-4.266-5.037-10.531-7.941-17.132-7.941-4.493 0-8.83 1.349-12.488 3.798 1.715 1.148 3.282 2.536 4.644 4.144l26.094 30.813c4.342 5.127 6.725 11.629 6.725 18.348h24.976c0-6.72-2.383-13.221-6.725-18.349z" fill="#d8ecfe"/></g><g><path d="m448.761 223.873h-385.522c-11.495 0-20.813-9.318-20.813-20.813v-77.008c0-11.495 9.318-20.813 20.813-20.813h385.522c11.495 0 20.813 9.318 20.813 20.813v77.008c0 11.495-9.318 20.813-20.813 20.813z" fill="#ffe177"/><path d="m448.761 105.239h-26.016c11.495 0 20.813 9.318 20.813 20.813v77.008c0 11.495-9.318 20.813-20.813 20.813h26.016c11.495 0 20.813-9.318 20.813-20.813v-77.008c0-11.495-9.318-20.813-20.813-20.813z" fill="#ffd15b"/></g><path d="m197.986 378.667h-19.021l-13.512 22.489 3.317 110.714h29.216c36.783 0 66.602-29.819 66.602-66.602-.001-36.782-29.819-66.601-66.602-66.601z" fill="#fea95c"/><path d="m98.935 511.871h69.835c17.329-17.938 26.873-41.466 26.873-66.472 0-16.278-4.173-32.368-12.066-46.529-3.145-5.644-4.737-12.003-4.602-18.395.012-.599-.009-1.204-.01-1.806h-80.03z" fill="#fe9738"/><path d="m92.553 510.879 12.665-1.269 27.5-14.424 16.824-18.085 8.494-36.682-7.238-27.143-6.831-19.91-2.197-29.176-13.396-17.969-17.879-12.132-14.655-3.666h-8.414c-21.55 5.541-37.477 25.095-37.477 48.374 0 .458.006.914.019 1.369.315 11.616-2.838 22.994-8.446 33.172-5.486 9.957-8.499 21.466-8.203 33.706.764 31.643 24.009 58.008 54.186 63.77z" fill="#fdb97e"/><path d="m158.124 413.054c-5.662-10.158-8.528-21.562-8.282-33.189.037-1.753-.017-3.529-.167-5.323-2.035-24.347-21.804-43.863-46.176-45.57-5.582-.391-10.982.142-16.072 1.451 20.136 5.214 35.492 22.818 37.272 44.119.15 1.794.204 3.57.167 5.323-.246 11.627 2.62 23.031 8.282 33.189 5.337 9.575 8.38 20.602 8.38 32.344 0 32.482-23.254 59.533-54.022 65.414 3.716.71 7.531 1.125 11.428 1.181 37.226.528 67.569-29.49 67.569-66.595.001-11.741-3.042-22.768-8.379-32.344z" fill="#fea95c"/></g><g><g fill="#918291"><path d="m216.905 134.6c-.025-.068-.052-.135-.079-.202-1.357-3.305-4.542-5.439-8.115-5.439-.003 0-.006 0-.009 0-3.576.003-6.761 2.145-8.113 5.455-.022.056-.044.111-.065.167l-21.102 55.404c-1.475 3.871.469 8.204 4.339 9.678 3.87 1.473 8.204-.468 9.679-4.339l3.416-8.968h23.55l3.376 8.946c1.133 3.003 3.987 4.854 7.018 4.854.88 0 1.775-.156 2.647-.485 3.875-1.462 5.831-5.79 4.368-9.665zm-14.337 36.755 6.116-16.058 6.06 16.058z"/><path d="m438.354 128.958c-4.143 0-7.5 3.358-7.5 7.5v19.634h-23.888v-19.634c0-4.142-3.357-7.5-7.5-7.5s-7.5 3.358-7.5 7.5v56.195c0 4.142 3.357 7.5 7.5 7.5s7.5-3.358 7.5-7.5v-21.562h23.888v21.562c0 4.142 3.357 7.5 7.5 7.5s7.5-3.358 7.5-7.5v-56.195c0-4.142-3.357-7.5-7.5-7.5z"/><path d="m372.809 178.976c-3.172-2.662-7.903-2.248-10.565.926-.477.568-.988 1.097-1.522 1.572-2.741 2.442-6.252 3.68-10.433 3.68-11.357 0-20.598-9.24-20.598-20.598s9.24-20.598 20.598-20.598c4.129 0 8.109 1.215 11.511 3.513 3.436 2.32 8.095 1.417 10.414-2.016 2.318-3.432 1.416-8.094-2.016-10.413-5.892-3.98-12.776-6.084-19.909-6.084-19.629 0-35.598 15.969-35.598 35.598s15.969 35.598 35.598 35.598c7.858 0 14.915-2.586 20.408-7.478 1.074-.956 2.097-2.011 3.039-3.135 2.661-3.173 2.246-7.904-.927-10.565z"/><path d="m100.703 157.962-2.489-.917c-6.572-2.417-9.871-3.63-12.867-5.262-.922-.502-1.324-1.392-1.195-2.643.172-1.655 1.396-3.738 4.318-4.618 7.66-2.305 14.801 3.308 15.027 3.488 3.169 2.628 7.872 2.208 10.525-.95 2.665-3.171 2.256-7.902-.915-10.567-.538-.452-13.369-11.03-28.964-6.334-8.22 2.476-14.072 9.32-14.912 17.437-.755 7.293 2.672 13.945 8.941 17.359 3.961 2.158 7.833 3.582 14.863 6.167l2.477.912c1.835.677 7.766 3.19 7.064 7.121-.526 2.948-4.167 5.998-9.349 5.998-5.453 0-10.696-2.193-14.025-5.867-2.782-3.07-7.524-3.301-10.595-.521-3.068 2.782-3.302 7.524-.521 10.594 6.218 6.859 15.381 10.793 25.141 10.793 12.073 0 22.215-7.722 24.115-18.361 1.434-8.023-2.185-18.497-16.639-23.829z"/><path d="m170.533 128.958h-31.034c-4.143 0-7.5 3.358-7.5 7.5s3.357 7.5 7.5 7.5h7.955v48.695c0 4.142 3.357 7.5 7.5 7.5s7.5-3.358 7.5-7.5v-48.695h8.079c4.143 0 7.5-3.358 7.5-7.5s-3.357-7.5-7.5-7.5z"/><path d="m300.271 151.063c0-12.188-10.287-22.104-22.932-22.104h-14.933c-4.141 0-7.497 3.355-7.5 7.495l-.019 56.2c0 4.142 3.357 7.5 7.5 7.5s7.5-3.358 7.5-7.5v-14.648l17.253 19.603c1.482 1.685 3.553 2.545 5.633 2.545 1.76 0 3.527-.616 4.952-1.87 3.109-2.736 3.411-7.476.675-10.585l-13.796-15.675c9.094-2.937 15.667-11.22 15.667-20.961zm-22.931 7.104c-1.739 0-4.65.011-7.446.024l.009-14.233h7.438c4.3 0 7.932 3.253 7.932 7.104s-3.633 7.105-7.933 7.105z"/></g><g><path d="m97.468 379.271h-10.406c-4.143 0-7.5-3.358-7.5-7.5s3.357-7.5 7.5-7.5h10.406c4.143 0 7.5 3.358 7.5 7.5s-3.358 7.5-7.5 7.5z" fill="#fe9738"/></g><g><path d="m124.814 430.058h-10.406c-4.143 0-7.5-3.358-7.5-7.5s3.357-7.5 7.5-7.5h10.406c4.143 0 7.5 3.358 7.5 7.5s-3.357 7.5-7.5 7.5z" fill="#fe9738"/></g><g><path d="m87.062 470.298h-10.408c-4.143 0-7.5-3.358-7.5-7.5s3.357-7.5 7.5-7.5h10.407c4.143 0 7.5 3.358 7.5 7.5s-3.357 7.5-7.499 7.5z" fill="#fe9738"/></g></g></g><g/><g/><g/><g/><g/><g/><g/><g/><g/><g/><g/><g/><g/><g/><g/></svg>