<svg id="Capa_1" enable-background="new 0 0 497 497" height="512" viewBox="0 0 497 497" width="512" xmlns="http://www.w3.org/2000/svg"><g><path d="m308.5 0h-29.999l-.001 75h45v-60c0-8.284-6.716-15-15-15z" fill="#ffb464"/><path d="m278.501 0c-.001 0-30.001 15-30.001 15l-30-15h-30c-8.284 0-15 6.716-15 15v60h120v-60c0-8.284-6.715-14.999-14.999-15z" fill="#ffd36e"/><path d="m248.5 30c16.569 0 30-13.431 30-30h-60c0 16.569 13.431 30 30 30z" fill="#ff985f"/><path d="m339.74 180-31.24-30 16.409-30c-.9-9.007-1.409-18.918-1.409-30 8.284 0 15-6.716 15-15s-6.716-15-15-15h-30l-45 241 53.5 196h37.5c16.569 0 30-13.431 30-30v-165c0-63.526-16.52-88.984-29.76-122z" fill="#66dfff"/><path d="m203.5 60h-30c-8.284 0-15 6.716-15 15s6.716 15 15 15c0 11.082-.509 20.993-1.409 30l16.409 30-31.24 30c-13.24 33.016-29.76 58.474-29.76 122v165c0 16.569 13.431 30 30 30h144.5c16.569 0 37.5-13.431 37.5-30v-7.5z" fill="#9feaff"/><path d="m248.5 393 61 74h22.5c4.142 0 7.5-3.358 7.5-7.5v-157.5z" fill="#fff1d6"/><path d="m318.979 207.943c-11.943-27.521-25.479-58.714-25.479-117.943v-30h-30l-15 333c50.258 0 91-40.742 91-91 0-46.771-9.51-68.684-20.521-94.057z" fill="#9feaff"/><path d="m157.5 302v157.5c0 4.142 3.358 7.5 7.5 7.5h144.5v-97.475z" fill="#fff"/><path d="m291.46 219.887c-12.458-28.705-27.96-64.428-27.96-129.887v-30h-60v30c0 59.229-13.537 90.422-25.479 117.943-11.012 25.373-20.521 47.286-20.521 94.057 0 50.258 40.742 91 91 91 23.469 0 44.861-8.886 61-23.475v-67.525c0-40.541-7.567-57.979-18.04-82.113z" fill="#d9f5ff"/><path d="m324.909 120h-30.125l-15 30 30.044 35.883c7.686-3.464 16.959-5.883 29.912-5.883-6.543-16.315-12.28-34.486-14.831-60z" fill="#cc3245"/><path d="m172.091 120c-2.551 25.514-8.288 43.685-14.831 60 45.62 0 45.62 30 91.24 30 32.667 0 41.944-15.382 61.328-24.117-6.622-17.402-12.531-37.922-15.044-65.883z" fill="#ff3e3a"/><g fill="#cc3245"><circle cx="278.5" cy="157.5" r="7.5"/><circle cx="248.5" cy="157.5" r="7.5"/><circle cx="218.5" cy="157.5" r="7.5"/></g></g></svg>