<svg id="Capa_1" enable-background="new 0 0 512 512" height="512" viewBox="0 0 512 512" width="512" xmlns="http://www.w3.org/2000/svg"><g><path d="m370.471 220.618v-12.488c0-5.747-4.659-10.407-10.406-10.407l-47.87-52.033h-112.39l-47.87 52.033c-5.747 0-10.407 4.659-10.407 10.407v12.488c0 5.747 4.659 10.406 10.407 10.406v247.675c-5.747 0-10.407 4.659-10.407 10.406v12.488c0 5.747 4.659 10.406 10.407 10.406h208.13c5.747 0 10.406-4.659 10.406-10.406v-12.488c0-5.747-4.659-10.406-10.406-10.406v-247.675c5.747 0 10.406-4.659 10.406-10.406z" fill="#c77e67"/><path d="m370.471 220.618v-12.488c0-5.747-4.659-10.407-10.406-10.407l-47.87-52.033h-112.39l-47.87 52.033c-5.747 0-10.407 4.659-10.407 10.407v12.488c0 5.747 4.659 10.406 10.407 10.406v247.675c-5.747 0-10.407 4.659-10.407 10.406v12.488c0 5.747 4.659 10.406 10.407 10.406h208.13c5.747 0 10.406-4.659 10.406-10.406v-12.488c0-5.747-4.659-10.406-10.406-10.406v-247.675c5.747 0 10.406-4.659 10.406-10.406z" fill="#c77e67"/><g fill="#ffd064"><path d="m326.764 278.894c0-8.046-6.523-14.569-14.569-14.569h-112.39c-8.046 0-14.569 6.523-14.569 14.569v53.073l141.528-20.813z"/><path d="m185.236 430.829c0 8.046 6.523 14.569 14.569 14.569h112.39c8.046 0 14.569-6.523 14.569-14.569v-53.073l-141.528 20.813z"/></g><path d="m185.236 398.569v-66.602l141.528-20.813v66.602z" fill="#fcf3e3"/><path d="m301.789 381.429 24.975-3.673v-66.602l-24.975 3.673z" fill="#fbe2dd"/><path d="m312.195 33.301v-22.894c0-5.748-4.659-10.407-10.406-10.407h-91.577c-5.747 0-10.407 4.659-10.407 10.407v22.894c-5.747 0-10.407 4.659-10.407 10.407v12.488c0 5.747 4.659 10.407 10.407 10.407v79.089h112.39v-79.09c5.747 0 10.406-4.659 10.406-10.407v-12.488c.001-5.747-4.658-10.406-10.406-10.406z" fill="#61a2f9"/><path d="m312.195 33.301v-22.895c0-5.747-4.659-10.406-10.406-10.406h-27.424c5.748 0 10.407 4.659 10.407 10.406v7.894h-84.967v15h84.967c5.747 0 10.406 4.659 10.406 10.406v12.488c0 5.747-4.659 10.406-10.406 10.406h-84.967v15h84.967v64.089h27.424v-79.087c5.748 0 10.406-4.659 10.406-10.406v-12.489c0-5.747-4.659-10.406-10.407-10.406z" fill="#5490f9"/><path d="m370.472 220.618v-12.488c0-5.747-4.659-10.406-10.407-10.406l-47.87-52.033h-27.436l34.07 37.033h-153.094l-13.8 15h180.693c5.748 0 10.407 4.659 10.407 10.406v12.488c0 5.747-4.659 10.407-10.407 10.407h-180.693v15h180.693v232.675c5.748 0 10.407 4.659 10.407 10.407v12.488c0 5.747-4.659 10.406-10.407 10.406h27.437c5.748 0 10.407-4.659 10.407-10.406v-12.488c0-5.747-4.659-10.407-10.407-10.407v-247.676c5.747 0 10.407-4.659 10.407-10.406z" fill="#be694e"/><path d="m360.066 478.699h-.001v-15h-208.13v15h-.001.001 208.13z" fill="#be694e"/><g fill="#ffc250"><path d="m301.789 278.894v35.933l24.976-3.673v-32.26c0-8.046-6.523-14.569-14.569-14.569h-24.976c8.046 0 14.569 6.523 14.569 14.569z"/><path d="m301.789 430.829c0 8.046-6.523 14.569-14.569 14.569h24.976c8.046 0 14.569-6.523 14.569-14.569v-53.073l-24.976 3.673z"/></g></g></svg>