<svg enable-background="new 0 0 64 64" height="512" viewBox="0 0 64 64" width="512" xmlns="http://www.w3.org/2000/svg"><g id="bb" display="none"><g display="inline"><path d="m-8-50h80v80h-80z"/><path d="m-8 34h80v80h-80z"/></g></g><g id="Layer_5" display="none"><path d="m-272-20h692v356h-692z" display="inline" fill="#37464b"/></g><g id="Filled_copy" display="none"><g display="inline"><g stroke="#000" stroke-linecap="round" stroke-linejoin="round" stroke-miterlimit="10" stroke-width="2"><path d="m43 7h12v54h-12z" fill="#d3e0fb"/><g fill="#b6ccf8"><path d="m9 7h34v54h-34z"/><path d="m49 57-6 4h12z"/><path d="m49 11-6-4h12z"/></g><path d="m49 11v46" fill="none"/></g></g><g stroke="#000" stroke-linecap="round" stroke-linejoin="round" stroke-miterlimit="10" stroke-width="2"><path d="m15 3h12v4h-12z" display="inline" fill="#4880ed"/><path d="m19 3h4v4h-4z" display="inline" fill="#4880ed"/><path d="m30 52h8v4h-8z" display="inline" fill="#fff"/><g display="inline"><path d="m35 30c-2.21 0-4-1.79-4-4v-2h8v2c0 2.21-1.79 4-4 4z" fill="#edf7ff"/><path d="m17 30c-2.21 0-4-1.79-4-4v-2h8v2c0 2.21-1.79 4-4 4z" fill="#edf7ff"/><path d="m27 24c4.42 0 8-3.58 8-8" fill="none"/><path d="m25 24c-4.42 0-8-3.58-8-8" fill="none"/><path d="m26 41c-2.4 0-4.55-1.5-5.37-3.76l-2.53-6.96c-1.99-5.48 2.07-11.28 7.9-11.28 5.83 0 9.89 5.8 7.9 11.28l-2.53 6.96c-.82 2.26-2.97 3.76-5.37 3.76z" fill="#fff"/><path d="m34.24 25.78c-.69-3.45-3.52-6.3-7.27-6.72-.6.83-.97 1.84-.97 2.94 0 2.76 2.24 5 5 5 1.24 0 2.36-.47 3.24-1.22z" fill="#4b5b61"/><ellipse cx="26" cy="38.5" fill="#dec8a8" rx="5.5" ry="3.5"/></g><path d="m14 56h7" display="inline" fill="none"/><path d="m14 52h7" display="inline" fill="none"/></g></g><g id="flat"><g><path d="m43 7h12v54h-12z" fill="#ebaf5b"/><g><path d="m48 10h2v48h-2z" fill="#e69b32"/></g><g><path d="m50.11 55.34-1.11-.74-1.11.74-4.89 3.26v2.4l6-4 6 4v-2.4z" fill="#e69b32"/></g><g><path d="m55 7-6 4-6-4v2.4l4.89 3.26 1.11.74 1.11-.74 4.89-3.26z" fill="#e69b32"/></g><path d="m49 11-6-4h12z" fill="#efc27b"/><path d="m49 57 6 4h-12z" fill="#efc27b"/><path d="m43 7h12v54h-12z" fill="#b6ccf8"/><path d="m9 7h34v54h-34z" fill="#c4d6fa"/><g><path d="m48 10h2v48h-2z" fill="#a3c0f6"/></g><path d="m15 3h12v4h-12z" fill="#4880ed"/><g fill="#5a8def"><path d="m18 3h2v4h-2z"/><path d="m14 3h2v4h-2z"/><path d="m22 3h2v4h-2z"/><path d="m26 3h2v4h-2z"/></g><path d="m30 52h8v4h-8z" fill="#fff"/><g><path d="m21 57h-7c-.55 0-1-.45-1-1s.45-1 1-1h7c.55 0 1 .45 1 1s-.45 1-1 1z" fill="#fff"/></g><g><path d="m21 53h-7c-.55 0-1-.45-1-1s.45-1 1-1h7c.55 0 1 .45 1 1s-.45 1-1 1z" fill="#fff"/></g><g><path d="m50.11 55.34-1.11-.74-1.11.74-4.89 3.26v2.4l6-4 6 4v-2.4z" fill="#a3c0f6"/></g><g><path d="m55 7-6 4-6-4v2.4l4.89 3.26 1.11.74 1.11-.74 4.89-3.26z" fill="#a3c0f6"/></g><path d="m49 11-6-4h12z" fill="#c4d6fa"/><path d="m49 57 6 4h-12z" fill="#c4d6fa"/></g><g><path d="m35 30c-2.21 0-4-1.79-4-4v-2h8v2c0 2.21-1.79 4-4 4z" fill="#fff"/><path d="m17 30c-2.21 0-4-1.79-4-4v-2h8v2c0 2.21-1.79 4-4 4z" fill="#fff"/><g><path d="m27 25c-.55 0-1-.45-1-1s.45-1 1-1c3.86 0 7-3.14 7-7 0-.55.45-1 1-1s1 .45 1 1c0 4.96-4.04 9-9 9z" fill="#8c6445"/></g><g><path d="m25 25c-4.96 0-9-4.04-9-9 0-.55.45-1 1-1s1 .45 1 1c0 3.86 3.14 7 7 7 .55 0 1 .45 1 1s-.45 1-1 1z" fill="#8c6445"/></g><path d="m26 41c-2.4 0-4.55-1.5-5.37-3.76l-2.53-6.96c-1.99-5.48 2.07-11.28 7.9-11.28 5.83 0 9.89 5.8 7.9 11.28l-2.53 6.96c-.82 2.26-2.97 3.76-5.37 3.76z" fill="#fff"/><path d="m34.24 25.78c-.69-3.45-3.52-6.3-7.27-6.72-.6.83-.97 1.84-.97 2.94 0 2.76 2.24 5 5 5 1.24 0 2.36-.47 3.24-1.22z" fill="#4b5b61"/><ellipse cx="26" cy="38.5" fill="#dec8a8" rx="5.5" ry="3.5"/></g></g></svg>