<svg height="464pt" viewBox="0 0 464 464.01334" width="464pt" xmlns="http://www.w3.org/2000/svg"><path d="m323.421875 322.960938c3.019531-3.503907 5.242187-7.613282 6.519531-12.058594 21.089844-47.441406 27.25-100.171875 17.664063-151.199219l-30.285157 29.671875c3.480469-29.128906 2.195313-58.632812-3.800781-87.351562l-28.503906 22.839843c-4.578125-27.710937-14.171875-54.351562-28.304687-78.625l-22.398438 28.851563c-12.605469-24.332032-29.761719-46.023438-50.539062-63.890625l-14.503907 32.625c-20.082031-18.773438-43.492187-33.632813-69.023437-43.824219l-5.503906 33.847656c-25.867188-11.617187-53.511719-18.78125-81.765626-21.191406l-.339843-.34375c2.410156 28.300781 9.554687 55.996094 21.144531 81.925781l-33.7734375 5.515625c10.1523435 25.570313 24.9882815 49.019532 43.7421875 69.148438l-32.542969 14.546875c17.824219 20.796875 39.46875 37.984375 63.769531 50.628906l-28.800781 22.441406c24.207031 14.160157 50.804688 23.773438 78.472657 28.359375l-22.800782 28.5625c28.664063 6.007813 58.121094 7.292969 87.199219 3.796875l-29.601563 30.355469c50.929688 9.601562 103.578126 3.425781 150.90625-17.699219 4.421876-1.289062 8.515626-3.515625 12-6.535156zm0 0" fill="#5f9548"/><path d="m329.453125 318.398438-66.398437-66.527344c28.703124-57.6875 21.984374-103.566406 21.664062-105.550782l-15.800781 2.488282c2.394531 31.425781-3.753907 62.917968-17.792969 91.136718l-35-35.074218c16.089844-30.804688 21.585938-66.050782 15.640625-100.296875l-15.574219 3.683593c4.679688 28.789063.496094 58.320313-12 84.679688l-35.382812-35.511719c9.699218-26.019531 13.222656-53.933593 10.292968-81.546875l-15.832031 2.273438c2.238281 22.488281-.136719 45.195312-6.976562 66.734375l-34.484375-34.488281c5.714844-16.234376 7.726562-33.542969 5.886718-50.65625l-15.839843 2.265624c1.195312 11.941407.242187 23.996094-2.816407 35.601563l-43.777343-43.890625-11.328125 11.296875 43.800781 43.886719c-11.589844 3.046875-23.625 4.007812-35.550781 2.839844l-1.113282 7.921874-1.136718 7.921876c3.925781.480468 7.878906.703124 11.832031.671874 13.183594.03125 26.277344-2.203124 38.703125-6.601562l34.488281 34.558594c-21.5 6.828125-44.164062 9.207031-66.613281 6.992187l-2.265625 15.847657c6.085937.75 12.214844 1.101562 18.34375 1.050781 21.519531.042969 42.867187-3.816407 63.007813-11.394531l35.488281 35.5625c-26.289063 12.515624-55.777344 16.703124-84.511719 12l-3.695312 15.566406c8.472656 1.730468 17.105468 2.535156 25.75 2.398437 25.855468-.117187 51.320312-6.308593 74.347656-18.070312l35.039062 35.113281c-28.140625 14.058594-59.570312 20.21875-90.9375 17.824219l-2.503906 15.796875c5.078125.691406 10.203125 1.003906 15.328125.9375 31.328125-.554688 62.109375-8.300782 89.96875-22.640625l66.398437 66.554687zm0 0" fill="#43752e"/><path d="m262.976562 372.054688c-30.871093-9.46875-53.257812-36.238282-57.113281-68.292969l-13.234375-116.9375c-1.601562-14.175781-.101562-28.535157 4.402344-42.070313 18.570312-53.421875 76.429688-82.207031 130.238281-64.800781l59.304688 18.710937c25.8125 7.753907 47.414062 25.574219 59.933593 49.441407 12.519532 23.867187 14.898438 51.773437 6.601563 77.414062-4.535156 13.621094-11.949219 26.105469-21.734375 36.609375l-81.054688 87.199219c-22.320312 23.75-56.28125 32.585937-87.34375 22.726563zm0 0" fill="#e94f4f"/><path d="m205.351562 299.296875.503907 4.464844c3.855469 32.054687 26.242187 58.824219 57.109375 68.292969 31.066406 9.863281 65.035156 1.023437 87.355468-22.726563l81.054688-87.199219c9.785156-10.503906 17.199219-22.988281 21.734375-36.609375 8.445313-25.308593 6.21875-52.960937-6.167969-76.589843-61.839844 95.117187-170.472656 134.398437-241.589844 150.367187zm0 0" fill="#e04646"/><path d="m411.796875 151.199219c18.515625 6.117187 38.527344-3.679688 45.050781-22.054688l-57.640625-18.207031 64.800781-31.738281c-10.027343-18.175781-32.558593-25.285157-51.199218-16.152344l-56.3125 27.570313-29.066406-54.503907c-10.023438-18.179687-32.554688-25.292969-51.199219-16.160156l33.449219 62.75-57.671876-18.191406c-2.804687 8.855469-1.925781 18.46875 2.441407 26.671875 4.363281 8.199218 11.84375 14.296875 20.757812 16.921875l25.601563 8.078125-67.578125 33.082031c10.027343 18.175781 32.558593 25.28125 51.199219 16.148437l56.378906-27.566406 29.046875 54.496094c10.027343 18.175781 32.554687 25.285156 51.199219 16.152344l-34.855469-65.390625zm0 0" fill="#68a34f"/><path d="m356.222656 116.753906-15.199218-5.050781 11.046874-33.261719c9.625-28.898437 30.453126-52.722656 57.808594-66.121094l5.253906-2.609374 7.128907 14.328124-5.253907 2.609376c-23.527343 11.511718-41.445312 31.992187-49.730468 56.839843zm0 0" fill="#68a34f"/><g fill="#f26666"><path d="m299.582031 236.457031 8.292969-24.953125 15.191406 5.046875-8.292968 24.953125zm0 0"/><path d="m248.375 220.300781 8.292969-24.953125 15.191406 5.046875-8.292969 24.957031zm0 0"/><path d="m350.796875 252.613281 8.292969-24.949219 15.191406 5.050782-8.292969 24.945312zm0 0"/><path d="m308.613281 294.441406 8.292969-24.957031 15.191406 5.050781-8.292968 24.953125zm0 0"/><path d="m257.398438 278.285156 8.292968-24.953125 15.191406 5.046875-8.292968 24.953125zm0 0"/><path d="m266.433594 336.261719 8.292968-24.953125 15.191407 5.046875-8.292969 24.957031zm0 0"/><path d="m215.503906 387-.746094-.753906"/><path d="m212.527344 384.214844 3.464844 1.9375-.984376-1.398438"/></g><path d="m272.519531 257.734375c-12.910156-34.105469-43.121093-58.667969-79.144531-64.351563l12.480469 110.402344c3.855469 32.054688 26.242187 58.824219 57.109375 68.292969 17.121094 5.335937 35.488281 5.125 52.480468-.597656-.285156-.839844-.4375-1.695313-.75-2.527344zm0 0" fill="#e04646"/><path d="m264.007812 440c-22.820312 22.816406-56.894531 30.128906-87.066406 18.679688l-111.199218-42.167969c-13.472657-5.109375-25.707032-13.015625-35.894532-23.199219-39.75-39.769531-39.75-104.230469 0-144l43.40625-43.410156c39.777344-39.777344 104.265625-39.777344 144.039063 0 10.1875 10.191406 18.09375 22.425781 23.203125 35.898437l42.167968 111.199219c11.425782 30.144531 4.125 64.191406-18.65625 87zm0 0" fill="#e94f4f"/><path d="m216.566406 378-10.398437-27.441406 35.917969 15.519531 6.320312-14.636719-50.160156-21.679687-9.839844-26.035157 34.640625-12.460937-5.601563-14.984375-34.703124 12.519531-7.695313-20.402343 20.960937-36.878907-14-7.917969-17.121093 30.238282c-8.71875-7.152344-20.628907-9.023438-31.121094-4.878906l-12.160156-36.480469-15.199219 5.121093 13.761719 41.277344-36.5625 36.5625-42.160157-13.042968-4.796874 15.28125 36.636718 11.28125c-4.648437 10.863281-2.722656 23.421874 4.960938 32.398437l-30.558594 16.640625 7.679688 14 38-20.640625 20.238281 7.679687-13.277344 34.320313 14.878906 5.761719 13.359375-34.402344 26.824219 10.167969 20 49.371093 14.816406-6.050781-14.34375-35.574219 26.144531 9.925782c1.382813.492187 2.851563.710937 4.320313.640625l26.957031 27.441406 11.441406-11.28125-27.441406-27.839844c-.074218-1.199219-.316406-2.386719-.71875-3.519531zm0 0" fill="#f26666"/></svg>