<svg height="456pt" viewBox="-63 0 456 456" width="456pt" xmlns="http://www.w3.org/2000/svg"><path d="m237.402344 136c-22.09375 0-40-17.910156-40-40s17.90625-40 40-40c22.089844 0 40 17.910156 40 40-.027344 22.082031-17.921875 39.972656-40 40zm0-64c-13.253906 0-24 10.746094-24 24s10.746094 24 24 24 24-10.746094 24-24-10.746094-24-24-24zm0 0" fill="#faac2b"/><path d="m290.839844 285.199219c0 3.441406-.078125 6.878906-.398438 10.320312l-10.640625 131.074219c-1.347656 16.613281-15.230469 29.410156-31.902343 29.40625h-164.992188c-16.671875.003906-30.554688-12.792969-31.90625-29.40625l-10.636719-131.074219c-4.242187-51.96875 24.144531-101.136719 71.277344-123.441406l13.761719-124.078125h80l13.757812 124.078125c43.71875 20.722656 71.613282 64.746094 71.679688 113.121094zm0 0" fill="#faac2b"/><path d="m90.28125 416-10.015625-123.679688c-2.601563-32.066406 13.03125-62.871093 40.445313-79.703124 27.417968-16.832032 61.964843-16.832032 89.378906 0 27.417968 16.832031 43.050781 47.636718 40.449218 79.703124l-10.015624 123.679688zm0 0" fill="#0093b9"/><path d="m1.609375 312.648438-1.121094-13.878907c-3.964843-51.613281 16.28125-102.132812 54.792969-136.722656l10.6875 11.90625c-34.800781 31.242187-53.105469 76.886719-49.527344 123.519531l1.128906 13.878906zm0 0" fill="#ffc018"/><path d="m322.683594 392.648438-15.953125-1.296876 7.589843-93.519531c.464844-4.886719.519532-9.3125.519532-12.632812-.007813-14.527344-2.164063-28.972657-6.398438-42.871094l15.3125-4.65625c4.683594 15.410156 7.066406 31.421875 7.070313 47.527344 0 3.664062-.0625 8.578125-.574219 14.023437zm0 0" fill="#ffc018"/><path d="m125.402344 0h80v48h-80zm0 0" fill="#01687f"/><path d="m197.402344 320c0 17.671875-14.328125 32-32 32s-32-14.328125-32-32c0-32 32-72 32-72s32 40 32 72zm0 0" fill="#ffc018"/><path d="m109.402344 376h16v16h-16zm0 0" fill="#01687f"/><path d="m141.402344 376h80v16h-80zm0 0" fill="#01687f"/><path d="m120.082031 96-5.328125 48h101.296875l-5.328125-48zm0 0" fill="#0093b9"/></svg>