<svg id="Capa_1" enable-background="new 0 0 512 512" height="512" viewBox="0 0 512 512" width="512" xmlns="http://www.w3.org/2000/svg"><g><path d="m46.551 37.695h410.958v325.368h-410.958z" fill="#60b7ff"/><path d="m434.541 37.695h30.907v325.367h-30.907z" fill="#26a6fe"/><path d="m294.91 98.1-27.817-2.06h-1.03-51.062c-2.845 0-5.151 2.306-5.151 5.151v97.423l20.618-10.302h40.746l10.318-2.06 18.529 12.363v-95.362c0-2.847-2.307-5.153-5.151-5.153z" fill="#f8f6f6"/><g><path d="m296.97 96.04h-30.907c2.845 0 5.151 2.306 5.151 5.151v87.12h10.318l20.589 10.302v-97.423c0-2.844-2.306-5.15-5.151-5.15z" fill="#ebebeb"/></g><path d="m366.592 190.372-27.817-2.06h-1.03-56.213v92.271l43.923 10.302 46.288-10.302v-85.06c0-2.845-2.306-5.151-5.151-5.151z" fill="#f8f6f6"/><path d="m368.652 188.311h-30.907c2.845 0 5.151 2.306 5.151 5.151v93.706l30.907-6.586v-87.12c0-2.845-2.306-5.151-5.151-5.151z" fill="#ebebeb"/><path d="m228.407 190.372-28.847-2.06h-56.213c-2.845 0-5.151 2.306-5.151 5.151v87.12l51.201 10.302 39.01-10.302z" fill="#f8f6f6"/><path d="m199.561 188.311v100.025l30.907-7.754v-92.271z" fill="#ebebeb"/><g><path d="m30.473 280.582c-2.845 0-5.151 2.306-5.151 5.151v67.583h61.365l28.847-3.091 9.272-33.276-9.272-33.276-28.847-3.091z" fill="#f8f6f6"/><path d="m117.594 280.582h-30.908v72.735h30.908l10.302-36.368z" fill="#ebebeb"/><path d="m484.618 287.794c0-2.845-2.306-5.151-5.151-5.151l-27.817-2.06h-1.03-56.212l-10.302 36.367 10.302 36.367h90.21z" fill="#f8f6f6"/><path d="m481.527 280.582h-30.907c2.845 0 5.151 2.306 5.151 5.151v67.583h30.907v-67.583c0-2.844-2.306-5.151-5.151-5.151z" fill="#ebebeb"/><path d="m209.865 280.582-10.302 41.869 10.302 30.866h61.364l28.847-2.061 10.302-31.527-10.302-37.086-28.847-2.061z" fill="#f8f6f6"/><path d="m271.229 280.582v72.735h30.907l10.303-34.495-10.303-38.24z" fill="#ebebeb"/><path d="m302.136 280.582v72.735h61.364l28.847-2.061v-68.613l-28.847-2.061z" fill="#f8f6f6"/><path d="m363.5 280.582h30.907v72.734h-30.907z" fill="#ebebeb"/><path d="m117.594 280.582v72.735h61.364l28.847-2.061v-68.613l-28.847-2.061z" fill="#f8f6f6"/><path d="m178.958 280.582h30.907v72.734h-30.907z" fill="#ebebeb"/></g><path d="m504.789 498.459-27.817 2.06h-1.03-470.791c-2.845 0-5.151-2.306-5.151-5.151v-157.505c0-2.845 2.306-5.151 5.151-5.151h470.791 1.03l27.817 2.06c2.845 0 5.151 2.306 5.151 5.151v153.385c0 2.845-2.307 5.151-5.151 5.151z" fill="#8ac9fe"/><path d="m506.849 332.712h-30.907c2.845 0 5.151 2.306 5.151 5.151v157.506c0 2.845-2.306 5.151-5.151 5.151h30.907c2.845 0 5.151-2.306 5.151-5.151v-157.506c0-2.845-2.306-5.151-5.151-5.151z" fill="#60b7ff"/><path d="m493.04 13.541-27.817-2.06h-1.03-447.294c-3.275 0-5.93 2.655-5.93 5.93v12.324c0 19.652 15.931 35.583 35.583 35.583h174.843c1.536 0 2.927-.864 3.65-2.22 5.894-11.068 17.542-18.606 30.956-18.606 13.415 0 25.062 7.538 30.957 18.606.722 1.356 2.113 2.22 3.65 2.22h143.935 1.03l29.877-2.06c19.652 0 33.522-11.81 33.522-31.462v-12.325c-.001-3.275-2.656-5.93-5.932-5.93z" fill="#8ac9fe"/><g><path d="m495.101 11.48h-30.907c3.275 0 5.93 2.655 5.93 5.93v12.324c0 19.652-15.931 35.583-35.583 35.583h30.907c19.652 0 35.583-15.931 35.583-35.583v-12.323c0-3.276-2.655-5.931-5.93-5.931z" fill="#60b7ff"/></g><g fill="#f8f6f6"><path d="m347.607 382.502c-1.422-3.771-5.085-6.305-9.115-6.305-4.018 0-7.676 2.523-9.103 6.275l-24.408 64.087c-1.519 3.987.482 8.451 4.47 9.97 3.989 1.52 8.452-.483 9.97-4.471l4.306-11.307h29.344l4.259 11.286c1.168 3.094 4.108 5 7.23 5 .906 0 1.828-.161 2.726-.5 3.992-1.506 6.008-5.964 4.501-9.957zm-17.993 42.796 8.854-23.246 8.773 23.246z"/><path d="m288.901 408.889h-19.559c-4.267 0-7.726 3.459-7.726 7.726s3.459 7.726 7.726 7.726h11.005c-2.01 9.062-7.871 17.239-19.667 17.239-13.766 0-24.966-11.199-24.966-24.966s11.2-24.966 24.966-24.966c5.004 0 9.828 1.473 13.953 4.26 3.535 2.387 8.338 1.459 10.727-2.076 2.389-3.536 1.459-8.339-2.076-10.728-6.688-4.519-14.505-6.907-22.604-6.907-22.287 0-40.419 18.132-40.419 40.419s18.132 40.419 40.419 40.419c21.165 0 35.948-16.621 35.948-40.419-.001-4.268-3.46-7.727-7.727-7.727z"/><path d="m112.337 409.817-.963-.328c-8.922-3.037-12.993-4.424-16.405-6.592-2.374-1.508-2.217-4.107-2.112-4.867.174-1.264 1.057-4.347 5.486-5.681 9.46-2.855 18.183 4.062 18.405 4.241 3.266 2.71 8.113 2.28 10.848-.974 2.745-3.267 2.323-8.141-.943-10.886-.61-.512-15.133-12.487-32.769-7.178-8.886 2.677-15.146 9.716-16.337 18.371-1.11 8.061 2.39 15.731 9.133 20.016 4.971 3.159 9.897 4.836 19.712 8.177l.961.328c2.755.939 9.066 3.704 8.172 9.104-.645 3.894-4.845 8.033-11.357 8.033-6.623 0-13.001-2.674-17.06-7.154-2.865-3.162-7.752-3.402-10.913-.537-3.162 2.865-3.402 7.751-.537 10.913 6.94 7.658 17.598 12.23 28.511 12.23 13.402 0 24.59-8.815 26.602-20.961 1.444-8.721-2.516-20.832-18.434-26.255z"/><path d="m198.375 376.197c-4.267 0-7.726 3.459-7.726 7.726v42.668c0 8.266-6.724 14.99-14.99 14.99s-14.99-6.724-14.99-14.99v-42.668c0-4.268-3.459-7.726-7.726-7.726s-7.726 3.459-7.726 7.726v42.668c0 16.786 13.656 30.443 30.443 30.443s30.443-13.657 30.443-30.443v-42.668c-.002-4.267-3.461-7.726-7.728-7.726z"/><path d="m419.432 424.84c10.885-2.877 18.911-12.51 18.911-23.924 0-13.631-11.52-24.719-25.681-24.719h-17.355c-4.267 0-7.726 3.459-7.726 7.726v34.071 31.313c0 4.268 3.459 7.726 7.726 7.726s7.726-3.459 7.726-7.726v-19.73l21.775 24.825c1.527 1.741 3.664 2.632 5.811 2.632 1.809 0 3.625-.632 5.092-1.918 3.208-2.814 3.527-7.696.713-10.903zm-16.398-33.19h9.629c5.544 0 10.228 4.243 10.228 9.267 0 5.069-4.684 9.352-10.228 9.352h-9.629z"/></g></g></svg>