<svg id="color" height="512" viewBox="0 0 256 256" width="512" xmlns="http://www.w3.org/2000/svg"><path d="m97.0317 86.846c-12.9148-45.4539-18.6417-68.7527-31.6132-57.3901-12.9718-11.3626-18.6985 11.9362-31.6132 57.3901-6.3153 22.2251-13.6453 45.7123-13.4953 69.3699.141 22.2361 11.14 60.3617 34.6471 55.022 2.1428-.4869 10.4613-3.7616 10.4613-7.5555 0 3.7939 8.3188 7.0687 10.4613 7.5555 23.5074 5.34 34.5063-32.7859 34.6473-55.022.1502-23.6576-7.1803-47.1448-13.4953-69.3699z" fill="#3f3d3d"/><path d="m86.7538 88.62q-.9068-3.2919-1.7888-6.5261c-2.1082-7.7677-3.7267-14.6131-5.1546-20.6527-3.1121-13.1626-5.4655-23.0962-10.4128-32.4112q-.1374-.9833-.282-1.9529a12.7758 12.7758 0 0 0 -3.6972 2.3791 12.776 12.776 0 0 0 -3.6972-2.3791q-.145.97-.282 1.9535c-4.9472 9.3152-7.3008 19.2494-10.4128 32.4123-1.4279 6.039-3.0462 12.8839-5.1541 20.6511q-.8774 3.2331-1.7891 6.5267c-5.52 20.04-11.2278 40.7615-10.862 61.8839a149.7341 149.7341 0 0 0 5.77 38.037c3.4179 11.1942 7.91 18.9229 13.4116 23.1064a20.4954 20.4954 0 0 0 2.554-.41 21.792 21.792 0 0 0 3.4015-1.2154c-14.3972-5.8368-20.3784-38.85-20.738-59.5942-.355-20.4885 5.2674-40.9 10.7046-60.6391q.9091-3.3 1.7934-6.5425c2.127-7.837 3.7541-14.7192 5.19-20.7915 1.4832-6.2737 2.79-11.7893 4.2848-16.8274-.4182 4.5493-.8309 9.4956-1.2912 15.0133-.4445 5.3254-.948 11.3617-1.5364 17.9561-1.9881 22.2857-4.2418 47.5452-4.0984 72.7474.0886 15.5542 4.953 42.4679 8.7552 57.1007a9.5055 9.5055 0 0 0 3.6692-3.4459c-3.6526-14.8948-7.9449-39.72-8.0244-53.68-.1423-24.9936 2.1014-50.1427 4.0812-72.3312.5895-6.607 1.0936-12.65 1.5383-17.9813.9585-11.4912 1.71-20.4953 2.732-28.5315 1.0226 8.0359 1.7735 17.039 2.732 28.5294.4447 5.3321.9488 11.3757 1.5382 17.9835 1.98 22.1869 4.2238 47.3341 4.0815 72.3312-.0795 13.9605-4.3718 38.7855-8.0247 53.68a9.5053 9.5053 0 0 0 3.6693 3.4459c3.8025-14.6327 8.6668-41.5465 8.7554-57.1007.1434-25.2057-2.11-50.463-4.0987-72.7474-.5887-6.5952-1.0922-12.632-1.5364-17.9583-.46-5.5172-.8728-10.4631-1.2912-15.0119 1.4947 5.0378 2.8013 10.5531 4.2845 16.8265 1.4357 6.0726 3.0629 12.9554 5.19 20.7931q.88 3.2408 1.7934 6.542c5.4372 19.74 11.06 40.1508 10.7046 60.64-.36 20.7442-6.3409 53.7574-20.7381 59.5942a21.7815 21.7815 0 0 0 3.4013 1.2154 20.4953 20.4953 0 0 0 2.5539.41c5.5011-4.1835 9.9937-11.9123 13.4116-23.1064a149.7233 149.7233 0 0 0 5.7707-38.037c.3659-21.1229-5.342-41.845-10.8621-61.885z" fill="#666"/><path d="m185.2841 161.16c9.838-12.8332 23.3411-29.3 27.9713-45.4738 1.1545-4.0313 3.3739-10.95 1.4416-14.1526 4.4771-5.3579 3.2081-7.531 1.151-9.5882s-4.2305-3.326-9.5885 1.1508c-3.2028-1.9323-10.1208.2876-14.1526 1.4416-16.1734 4.63-32.6406 18.1336-45.4736 27.9713-24.1223 18.493-82.0974 61.7493-52.616 91.2584h-.0005l.0046.0043.0041.0041c29.5093 29.4806 72.7656-28.4941 91.2586-52.6159z" fill="#fcdc97"/><path d="m200.8049 77.3921s-105.123 134.5518-105.4549 134.9758c-2.2964 2.94-10.7231.4415-12.6779-.4786-21.4433-10.0915-6.8879-46.2851 6.462-63.5973 14.2028-18.4191 34.0981-32.1776 52.4426-45.5734 37.518-27.3965 56.0566-41.9807 59.2282-25.3265z" fill="#4c4b4b"/><path d="m230.4332 107.02s-134.5518 105.1232-134.9761 105.4548c-2.9393 2.2964-.4413 10.7231.4786 12.6779 10.0917 21.4433 46.2851 6.8877 63.5973-6.4622 18.4191-14.2028 32.1776-34.0981 45.5737-52.4423 27.3966-37.5182 41.9807-56.0562 25.3265-59.2282z" fill="#4c4b4b"/><path d="m156.8992 108.8557q-2.74 1.82-5.5478 3.6593c-16.702 10.98-33.9725 22.3336-45.45 38.1235-10.7859 14.8395-22.9114 41.2924-16.0823 57.2537 5.1624-15.3162 18.498-35.62 25.8626-45.5133 14.4469-19.4084 31.4977-35.3925 47.9869-50.8505l.1746-.1641c4.66-4.3683 8.8771-8.4068 12.5976-11.97 5.9077-5.6579 10.8829-10.4216 15.56-14.557-5.717 3.1483-11.322 7.2008-17.9757 12.0173-4.9228 3.5639-10.5023 7.603-17.1259 12.0011z" fill="none"/><path d="m200.5458 76.2467c-10.2924 3.4367-18.3812 9.2839-29.1008 17.0438-4.8891 3.5393-10.43 7.551-16.98 11.9q-2.7312 1.8136-5.5306 3.6478c-17.0315 11.1966-34.6427 22.7742-46.5915 39.2135-8.8809 12.2182-27.3768 46.0665-14.5748 65.3382a13.7163 13.7163 0 0 0 5.6888.1134c-.1877-.2006-.3717-.4036-.5492-.61 3.6564-14.7678 18.457-37.3458 26.3034-47.8868 14.213-19.094 31.1182-34.9419 47.4668-50.2678l.1748-.1638c4.6769-4.3847 8.9029-8.4318 12.6315-12.0025 2.2913-2.1943 4.44-4.2521 6.4837-6.1891l14.8371-18.9908c-.0766-.4026-.165-.7804-.2592-1.1459zm-24.1049 23.1476c-3.7206 3.5632-7.9377 7.6017-12.5976 11.97l-.1746.1641c-16.4893 15.458-33.54 31.4421-47.9869 50.8505-7.3646 9.8936-20.7 30.1971-25.8626 45.5133-6.8293-15.9613 5.2964-42.4142 16.0827-57.2537 11.4772-15.79 28.7477-27.1437 45.45-38.1235q2.8029-1.8426 5.5478-3.6593c6.6236-4.3981 12.2031-8.4372 17.126-12.0012 6.6537-4.8165 12.2587-8.869 17.9757-12.0173-4.6776 4.1355-9.6529 8.8991-15.5605 14.5571z" fill="#666"/><path d="m208.4316 131.3837c-3.5634 3.7208-7.6023 7.9379-11.9708 12.5981l-.1641.1748c-15.458 16.4893-31.4421 33.54-50.85 47.9867-9.9013 7.37-30.2277 20.72-45.5474 25.8739a26.7669 26.7669 0 0 0 10.754 2.0281c17.0521 0 37.2732-11.3913 46.5333-18.1221 15.79-11.477 27.1436-28.7475 38.1235-45.4494q1.8426-2.8029 3.66-5.5481c4.3981-6.6236 8.4372-12.2031 12.0012-17.126 4.8171-6.6542 8.87-12.2589 12.0178-17.9765-4.1362 4.6776-8.8998 9.6528-14.5575 15.5605z" fill="none"/><path d="m231.5784 107.2793c-.3655-.0943-.7434-.1826-1.1452-.2592 0 0-7.5131 5.87-18.9914 14.8376-1.9368 2.0435-3.9939 4.1916-6.188 6.4827-3.571 3.7286-7.6184 7.9548-12.0034 12.632l-.1638.1751c-15.3261 16.3485-31.1741 33.2535-50.2675 47.4665-10.5424 7.8469-33.1241 22.65-47.8914 26.3047-.2065-.1778-.4066-.3636-.6059-.5505a13.7194 13.7194 0 0 0 .1131 5.6885c4.3976 2.9141 9.83 4.3887 16.218 4.3887 18.1811 0 39.4308-11.92 49.1206-18.9629 16.4387-11.9488 28.0164-29.56 39.213-46.5913q1.8369-2.7944 3.6483-5.5311c4.3487-6.55 8.36-12.0911 11.9-16.98 7.7596-10.7201 13.6068-18.8085 17.0436-29.1008zm-32.609 43.6466q-1.82 2.74-3.66 5.5481c-10.98 16.702-22.3333 33.9725-38.1235 45.4494-9.26 6.7308-29.4812 18.1221-46.5333 18.1221a26.7669 26.7669 0 0 1 -10.754-2.0281c15.32-5.1541 35.646-18.5037 45.5474-25.8739 19.4082-14.4469 35.3923-31.4974 50.85-47.9867l.1641-.1748c4.3685-4.66 8.4074-8.8773 11.9708-12.5981 5.6576-5.9077 10.4212-10.8829 14.5567-15.56-3.1483 5.7175-7.2008 11.3222-12.0178 17.9765-3.5633 4.9223-7.6023 10.5018-12.0004 17.1254z" fill="#666"/></svg>