<svg id="Layer_1" enable-background="new 0 0 512 512" height="512" viewBox="0 0 512 512" width="512" xmlns="http://www.w3.org/2000/svg"><g><g fill="#afe73b"><path d="m247.06 94.818c17.231 17.746 3.669 32.666 3.669 32.666s-14.92 13.562-32.666-3.669c-12.484-12.121-10.762-30.303-9.766-36.34.206-1.246 1.176-2.216 2.422-2.422 6.037-.996 24.219-2.718 36.341 9.765z"/><path d="m274.031 94.818c-17.231 17.746-3.669 32.666-3.669 32.666s14.92 13.562 32.666-3.669c12.484-12.121 10.762-30.303 9.766-36.34-.206-1.246-1.176-2.216-2.422-2.422-6.038-.996-24.22-2.718-36.341 9.765z"/></g><path d="m284.322 100.189c-.422 32.473-23.777 33.734-23.777 33.734s-23.354-1.261-23.777-33.734c-.297-22.843 16.024-38.125 21.791-42.805 1.19-.966 2.782-.966 3.972 0 5.767 4.681 22.088 19.962 21.791 42.805z" fill="#c6ec7f"/><path d="m471.71 303.1c0-9.206-5.655-17.068-13.661-20.327-.532-.217-.783-.809-.569-1.343 1.009-2.519 1.577-5.263 1.577-8.144 0-3.227-.71-6.282-1.959-9.04-.211-.466-.055-1.003.372-1.283 5.974-3.918 9.934-10.671 9.934-18.368 0-6.176-2.555-11.74-6.646-15.727-.389-.379-.421-.98-.071-1.395 4.503-5.329 7.085-12.345 6.674-19.969-.776-14.405-12.502-26.116-26.857-26.831-7.607-.379-14.594 2.259-19.888 6.82-.451.389-1.117.315-1.479-.158-3.997-5.224-10.277-8.597-17.347-8.597-7.028 0-13.273 3.334-17.273 8.505-.374.484-1.061.542-1.512.129-3.889-3.57-9.063-5.752-14.748-5.752-7.57 0-14.237 3.863-18.163 9.729-.441.659-1.408.586-1.749-.13-3.522-7.378-11.013-12.481-19.709-12.481-7.982 0-14.95 4.301-18.767 10.713-.352.592-1.183.652-1.621.122-4.01-4.852-10.047-7.952-16.819-7.952-6.09 0-11.584 2.512-15.548 6.545-.428.435-1.159.381-1.51-.119-3.959-5.625-10.47-9.308-17.853-9.308-7.638 0-14.347 3.939-18.257 9.895-.353.538-1.125.603-1.558.128-3.998-4.386-9.742-7.141-16.132-7.141-6.771 0-12.809 3.1-16.819 7.952-.439.531-1.269.47-1.621-.122-3.817-6.411-10.785-10.713-18.767-10.713-8.696 0-16.186 5.103-19.709 12.481-.342.716-1.308.789-1.749.13-3.926-5.866-10.593-9.729-18.163-9.729-5.685 0-10.86 2.182-14.748 5.752-.45.413-1.137.355-1.512-.129-4-5.171-10.245-8.505-17.273-8.505-7.07 0-13.35 3.372-17.347 8.597-.362.473-1.028.547-1.479.158-5.294-4.561-12.281-7.199-19.888-6.82-14.355.715-26.081 12.426-26.857 26.831-.411 7.625 2.172 14.64 6.674 19.969.351.415.318 1.016-.071 1.395-4.091 3.987-6.646 9.552-6.646 15.727 0 8.003 4.267 15.006 10.643 18.842.443.266.618.805.415 1.282-1.119 2.634-1.755 5.523-1.755 8.567 0 2.758.516 5.393 1.443 7.824.209.547-.064 1.144-.613 1.343-8.42 3.054-14.44 11.143-14.44 20.648 0 10.076 6.77 18.55 15.989 21.13.546.153.861.701.719 1.251-.454 1.761-.696 3.607-.696 5.511 0 5.94 2.365 11.314 6.186 15.263.475.491.33 1.303-.285 1.599-7.973 3.828-13.282 12.346-12.341 22.007 1 10.269 9.248 18.573 19.474 19.625 5.332.549 10.306-.845 14.348-3.54.615-.41 1.439-.039 1.541.695 1.486 10.671 10.592 18.888 21.633 18.888 8.393 0 15.67-4.753 19.335-11.717.317-.603 1.137-.709 1.602-.212 3.99 4.267 9.658 6.934 15.948 6.934 5.636 0 10.761-2.151 14.636-5.667.56-.508 1.442-.239 1.639.492 2.519 9.331 11.002 16.199 21.096 16.199 10.664 0 19.532-7.664 21.465-17.803.157-.823 1.171-1.152 1.728-.529 4.001 4.48 9.797 7.308 16.263 7.308 5.435 0 10.401-1.996 14.225-5.291.511-.44 1.303-.248 1.563.375 3.304 7.912 11.075 13.478 20.158 13.478 8.857 0 16.464-5.293 19.901-12.892.266-.587 1.013-.771 1.518-.372 3.717 2.937 8.394 4.702 13.491 4.702 6.466 0 12.262-2.828 16.263-7.308.557-.624 1.571-.294 1.728.529 1.933 10.138 10.801 17.803 21.465 17.803 10.094 0 18.577-6.868 21.096-16.199.197-.731 1.08-1 1.639-.492 3.875 3.516 9.001 5.667 14.637 5.667 6.29 0 11.958-2.667 15.948-6.934.465-.497 1.285-.391 1.602.212 3.665 6.965 10.942 11.717 19.335 11.717 11.041 0 20.147-8.217 21.633-18.888.102-.734.926-1.106 1.541-.695 4.042 2.695 9.017 4.089 14.348 3.54 10.226-1.053 18.473-9.356 19.474-19.625.941-9.66-4.368-18.179-12.341-22.007-.615-.295-.76-1.108-.285-1.599 3.821-3.949 6.186-9.323 6.186-15.263 0-1.903-.242-3.75-.696-5.511-.142-.55.174-1.099.719-1.251 9.223-2.581 15.993-11.055 15.993-21.131z" fill="#fef8f0"/><g><path d="m455.721 324.23c9.219-2.58 15.989-11.054 15.989-21.13 0-9.206-5.655-17.068-13.661-20.327-.532-.217-.783-.809-.569-1.343 1.009-2.519 1.577-5.263 1.577-8.144 0-3.227-.71-6.282-1.959-9.04-.211-.466-.055-1.003.372-1.283 5.974-3.918 9.934-10.671 9.934-18.368 0-6.176-2.555-11.74-6.646-15.727-.389-.379-.421-.98-.071-1.395 4.503-5.329 7.085-12.345 6.674-19.969-.776-14.405-12.502-26.116-26.857-26.831-6.264-.312-12.104 1.425-16.928 4.592 7.346 4.827 12.38 12.973 12.88 22.239.411 7.625-2.172 14.64-6.674 19.969-.351.415-.318 1.016.071 1.395 4.091 3.987 6.646 9.552 6.646 15.727 0 7.697-3.96 14.45-9.934 18.368-.427.28-.583.817-.372 1.283 1.249 2.758 1.959 5.813 1.959 9.04 0 2.882-.568 5.625-1.577 8.144-.214.535.037 1.127.569 1.343 8.006 3.26 13.661 11.122 13.661 20.327 0 10.076-6.77 18.55-15.989 21.13-.546.153-.861.701-.719 1.251.454 1.761.696 3.607.696 5.511 0 5.94-2.365 11.314-6.186 15.263-.475.491-.33 1.303.285 1.599 7.973 3.828 13.282 12.346 12.341 22.007-1 10.269-9.247 18.573-19.474 19.625-5.332.549-10.306-.845-14.348-3.54-.615-.41-1.439-.039-1.541.695-.672 4.829-2.916 9.144-6.183 12.434 3.954 3.981 9.411 6.454 15.456 6.454 11.041 0 20.147-8.217 21.633-18.888.102-.734.926-1.106 1.541-.695 4.042 2.695 9.017 4.089 14.348 3.54 10.226-1.053 18.473-9.356 19.474-19.625.941-9.66-4.368-18.178-12.341-22.007-.615-.295-.76-1.108-.285-1.599 3.821-3.949 6.186-9.323 6.186-15.263 0-1.903-.242-3.75-.696-5.511-.143-.55.172-1.098.718-1.251z" fill="#fef3e1"/></g><g fill="#fbe7cb"><path d="m124.358 277.016c0-4.143-3.357-7.5-7.5-7.5-16.195 0-29.371 13.176-29.371 29.372 0 4.143 3.357 7.5 7.5 7.5s7.5-3.357 7.5-7.5c0-7.925 6.447-14.372 14.371-14.372 4.143 0 7.5-3.358 7.5-7.5z"/><path d="m414.091 281.161c-3.545-6.999-9.603-12.198-17.059-14.642-7.456-2.441-15.415-1.835-22.415 1.708-3.695 1.872-5.174 6.385-3.303 10.08s6.386 5.174 10.08 3.303c3.425-1.734 7.32-2.031 10.968-.836s6.612 3.739 8.346 7.164c1.321 2.609 3.96 4.113 6.697 4.113 1.14 0 2.297-.261 3.383-.811 3.695-1.871 5.174-6.384 3.303-10.079z"/><path d="m152.976 330.604c-5.385 5.812-14.495 6.162-20.31.777-3.04-2.815-7.785-2.635-10.599.405-2.815 3.039-2.634 7.784.405 10.599 5.643 5.227 12.804 7.811 19.949 7.811 7.899 0 15.779-3.16 21.558-9.398 2.815-3.039 2.634-7.784-.405-10.599-3.04-2.815-7.785-2.634-10.598.405z"/><path d="m378.869 329.367c-7.511 2.529-15.679-1.515-18.212-9.023-1.325-3.924-5.579-6.034-9.505-4.708-3.924 1.324-6.032 5.58-4.708 9.505 4.132 12.242 15.595 19.983 27.854 19.983 3.106 0 6.264-.497 9.365-1.544 3.925-1.324 6.033-5.579 4.709-9.504-1.322-3.925-5.576-6.034-9.503-4.709z"/><path d="m262.345 258.572c2.16-3.534 1.046-8.15-2.488-10.311-13.816-8.447-31.932-4.076-40.379 9.74-2.161 3.534-1.048 8.15 2.486 10.311 1.222.747 2.571 1.103 3.905 1.103 2.525 0 4.991-1.276 6.405-3.589 4.134-6.761 12.997-8.899 19.76-4.766 3.532 2.159 8.15 1.047 10.311-2.488z"/><path d="m282.383 322.658c-4.098-.681-7.948 2.085-8.626 6.171-.629 3.788-2.694 7.104-5.815 9.338-3.123 2.233-6.93 3.117-10.714 2.49-4.098-.679-7.949 2.085-8.626 6.171-.679 4.087 2.085 7.948 6.171 8.626 1.621.27 3.23.399 4.822.399 14.099 0 26.578-10.213 28.959-24.569.678-4.087-2.085-7.948-6.171-8.626z"/></g><path d="m499.328 298.811c-8.623 12.477-27.096 12.214-35.493-.416-11.086-16.675-30.528-36.74-64.208-51.624-61.182-27.042-226.073-27.042-287.245 0-33.686 14.885-53.129 34.952-64.213 51.627-8.395 12.63-26.867 12.894-35.491.42l-.004-.006c-2.923-4.228-4.207-9.361-3.652-14.468 2.443-22.466 14.513-85.234 73.877-121.455 73.225-44.678 147.855-45.449 173.101-45.449s99.886.771 173.101 45.449c59.365 36.222 71.435 98.993 73.877 121.457.555 5.106-.728 10.238-3.65 14.465z" fill="#f58993"/><g><g fill="#f16e7c"><path d="m81.477 246.772c-33.686 14.885-53.129 34.952-64.214 51.627-.739 1.112-1.561 2.123-2.443 3.044 9.247 9.729 25.594 8.622 33.348-3.044 11.084-16.675 30.527-36.741 64.214-51.627 27.795-12.287 77.003-18.989 128.166-20.111-61.439-1.347-125.694 5.356-159.071 20.111z"/><path d="m502.978 284.347c-2.442-22.465-14.511-85.235-73.877-121.457-73.215-44.679-147.855-45.449-173.101-45.449-3.986 0-9.205.02-15.452.228 33.327 1.11 95.992 7.597 157.648 45.221 59.365 36.222 71.435 98.993 73.877 121.457.555 5.105-.728 10.237-3.65 14.464-.659.953-1.381 1.822-2.145 2.627 9.135 9.529 25.187 8.752 33.051-2.627 2.921-4.227 4.204-9.359 3.649-14.464z"/></g></g><g fill="#f99fa7"><path d="m176.92 125.55c-37.97 21.56-61.7 49.85-70.59 84.19-4.53 17.48-3.95 32.52-2.9 41.27-5.01 2.54-9.66 5.19-13.98 7.92-1.54-8.26-3.93-28.02 2.14-52.13 4.96-19.65 16.41-44.89 42.24-68.59 14.99-5.59 29.51-9.68 43.09-12.66z"/><path d="m312.66 121.41c-46.36 9.3-77.7 30.27-93.19 62.4-8.96 18.59-9.97 36.12-9.85 44.23-5.07.35-10.08.76-15.01 1.22-.24-9.27.68-29.42 10.99-51.22 9.51-20.09 28.65-44.47 67.13-60.33h.01c10.75.4 24.37 1.36 39.92 3.7z"/><path d="m442.97 172.46c-12.63-3.36-37.26-7.24-62.1 3.9-34.87 15.62-41.96 43.7-43.39 55.19-4.86-.65-9.84-1.25-14.91-1.77 1.77-14.82 10.47-48.43 52.16-67.11 13.5-6.05 26.79-8.37 38.63-8.72 5.24 2.76 10.49 5.74 15.74 8.94 4.94 3.02 9.56 6.22 13.87 9.57z"/></g><path d="m413.943 455.34h-322.003c-7.803 0-14.129-6.326-14.129-14.129v-36.197h350.262v36.197c-.001 7.803-6.327 14.129-14.13 14.129z" fill="#9ec6d0"/><path d="m397.167 418.253v22.957c0 7.803-6.326 14.129-14.129 14.129h30.905c7.803 0 14.129-6.326 14.129-14.129v-22.957z" fill="#8eb0bf"/><path d="m453.029 418.253h-394.058c-19.854 0-38.859-7.908-52.673-21.916l-5.338-5.413c-2.08-2.109-.558-5.637 2.43-5.637h505.219c2.989 0 4.51 3.528 2.43 5.637l-5.338 5.413c-13.813 14.009-32.819 21.916-52.672 21.916z" fill="#b6dbe0"/><path d="m508.609 385.288h-30.905c2.989 0 4.51 3.528 2.43 5.637l-5.338 5.413c-13.814 14.008-32.819 21.916-52.673 21.916h30.905c19.853 0 38.859-7.908 52.673-21.916l5.338-5.413c2.08-2.109.559-5.637-2.43-5.637z" fill="#9ec6d0"/></g></svg>