<svg height="512" viewBox="0 0 512 512" width="512" xmlns="http://www.w3.org/2000/svg"><g id="Flat"><path d="m376 112a88.018 88.018 0 0 1 -88 88h-176a88 88 0 0 1 0-176h176a87.948 87.948 0 0 1 88 88z" fill="#92563a"/><path d="m376 112a88.018 88.018 0 0 1 -88 88h-176a87.519 87.519 0 0 1 -42.47-10.92c93.1-24.99 186.71-73.43 255.04-157.14a88 88 0 0 1 51.43 80.06z" fill="#875036"/><g fill="#78462f"><path d="m120.53 24-1.03 2.78a5.353 5.353 0 0 1 -.71 1.46c-.62 1.22-6.79 14.18-6.79 51.76h-16c0-18.68 1.42-34.2 4.21-46.15a72.74 72.74 0 0 1 2.79-9.4z"/><path d="m123.036 177.3a348.834 348.834 0 0 1 -4.242-43.7l15.99-.578a332.645 332.645 0 0 0 4.041 41.687z"/><path d="m135.216 120.05-16-.1c.08-12.892.785-20.991.815-21.33l15.938 1.409c-.007.077-.678 7.846-.753 20.021z"/><path d="m177.238 152.8c-.974-16.583-1.378-33.033-1.2-48.894l16 .182c-.176 15.489.218 31.561 1.171 47.772z"/><path d="m294.7 130.624-15.99-.582c1.234-33.856-.693-66.9-.714-67.233l15.972-.952c.021.337 1.996 34.119.732 68.767z"/><path d="m334.04 144.84-15.912-1.68a431.161 431.161 0 0 0 1.806-47.633l16-.388a440.672 440.672 0 0 1 -1.894 49.701z"/><path d="m72.845 163.578c-17.283-34.566-8.8-61-8.435-62.108l15.18 5.06-7.59-2.53 7.606 2.478c-.276.87-6.609 21.627 7.549 49.944z"/><path d="m240 56h16v16h-16z"/><path d="m248 128h16v16h-16z"/><path d="m320 56h16v16h-16z"/><path d="m144 48h16v16h-16z"/></g><path d="m299.25 352h-107.25a88.012 88.012 0 0 1 -14.05-1.12c-1.47-.24-2.92-.51-4.36-.82a88 88 0 0 1 18.41-174.06h21.02l59.83 122.11z" fill="#92563a"/><path d="m299.25 352h-107.25a88.012 88.012 0 0 1 -14.05-1.12 496.281 496.281 0 0 0 94.9-52.77z" fill="#875036"/><ellipse cx="256" cy="264" fill="#fedb6d" rx="31.644" ry="99.365" transform="matrix(.872 -.49 .49 .872 -96.562 159.443)"/><path d="m193.23 352h-1.23a87.986 87.986 0 0 1 -18.41-1.94c-5.57-10.56-10.65-25.39-15.13-44.21l15.56-3.7c3.08 16.48 10.67 35.36 19.21 49.85z" fill="#78462f"/><path d="m154.93 289.531c-1.871-9.6-2.811-16.126-2.85-16.4l15.839-2.265c.01.064.927 6.434 2.716 15.6z" fill="#78462f"/><path d="m152 216h16v16h-16z" fill="#78462f"/><path d="m200 312h16v16h-16z" fill="#78462f"/><path d="m136 392h96a0 0 0 0 1 0 0v64a0 0 0 0 1 0 0h-32a64 64 0 0 1 -64-64 0 0 0 0 1 0 0z" fill="#fedb6d"/><path d="m192 392h80a0 0 0 0 1 0 0v24a40 40 0 0 1 -40 40 40 40 0 0 1 -40-40v-24a0 0 0 0 1 0 0z" fill="#f7cf59"/><path d="m392 328h96a0 0 0 0 1 0 0v64a0 0 0 0 1 0 0h-32a64 64 0 0 1 -64-64 0 0 0 0 1 0 0z" fill="#f7cf59" transform="matrix(-1 0 0 -1 880 720)"/><path d="m352 328h80a0 0 0 0 1 0 0v24a40 40 0 0 1 -40 40 40 40 0 0 1 -40-40v-24a0 0 0 0 1 0 0z" fill="#fedb6d" transform="matrix(-1 0 0 -1 784 720)"/><path d="m408 232h56a0 0 0 0 1 0 0v64a0 0 0 0 1 0 0h-96a0 0 0 0 1 0 0v-24a40 40 0 0 1 40-40z" fill="#f7cf59" transform="matrix(-1 0 0 -1 832 528)"/><path d="m368 232a40 40 0 0 1 40 40v24a0 0 0 0 1 0 0h-80a0 0 0 0 1 0 0v-24a40 40 0 0 1 40-40z" fill="#fedb6d" transform="matrix(-1 0 0 -1 736 528)"/><path d="m337 424h56a0 0 0 0 1 0 0v64a0 0 0 0 1 0 0h-96a0 0 0 0 1 0 0v-24a40 40 0 0 1 40-40z" fill="#fedb6d"/><path d="m393 424a40 40 0 0 1 40 40v24a0 0 0 0 1 0 0h-80a0 0 0 0 1 0 0v-24a40 40 0 0 1 40-40z" fill="#f7cf59"/></g></svg>