<svg height="512" viewBox="0 0 512 512" width="512" xmlns="http://www.w3.org/2000/svg"><g id="Flat"><path d="m224 24h64a8 8 0 0 1 8 8v48a0 0 0 0 1 0 0h-80a0 0 0 0 1 0 0v-48a8 8 0 0 1 8-8z" fill="#7a432a"/><path d="m388.03 336.95c-2.58 27.5-7.5 54.7-13.34 81.68-.68 3.14-5.41 25.5-9.32 43.99a32 32 0 0 1 -31.31 25.38h-156.12a32 32 0 0 1 -31.31-25.38c-3.91-18.49-8.64-40.85-9.32-43.99q-2.61-12.075-4.94-24.21c-3.63-19.03-6.59-38.17-8.4-57.47-4.64-49.6-4.13-107.7 21.79-151.68 21.06-35.73 57.33-62.23 69.59-103.09l.65-2.18h80l.65 2.18c12.26 40.86 48.53 67.36 69.59 103.09a151.259 151.259 0 0 1 13.51 30.48c12.39 38.38 11.91 82.39 8.28 121.2z" fill="#92563a"/><path d="m388.03 336.95c-2.58 27.5-7.5 54.7-13.34 81.68-.68 3.14-5.41 25.5-9.32 43.99a32 32 0 0 1 -31.31 25.38h-156.12a32 32 0 0 1 -31.31-25.38c-3.91-18.49-8.64-40.85-9.32-43.99q-2.61-12.075-4.94-24.21c95.56-26.21 185.22-80.7 247.38-178.67 12.39 38.38 11.91 82.39 8.28 121.2z" fill="#804a32"/><path d="m352 304a161.069 161.069 0 0 1 -12.85 64 127.727 127.727 0 0 1 -19.66 32c-16.92 19.91-39.14 32-63.49 32s-46.57-12.09-63.49-32a122.836 122.836 0 0 1 -14.12-20.66c-1.99-3.64-3.84-7.43-5.54-11.34a161.069 161.069 0 0 1 -12.85-64c0-63.42 34.6-116.07 80-126.23a73.2 73.2 0 0 1 32 0c34.64 7.75 63 40.25 74.48 83.39a166.029 166.029 0 0 1 5.52 42.84z" fill="#fa9f0c"/><path d="m352 304a161.069 161.069 0 0 1 -12.85 64 127.727 127.727 0 0 1 -19.66 32c-16.92 19.91-39.14 32-63.49 32s-46.57-12.09-63.49-32a122.836 122.836 0 0 1 -14.12-20.66c62.45-24.02 120.66-61.89 168.09-118.18a166.029 166.029 0 0 1 5.52 42.84z" fill="#f5980c"/><path d="m334.4 368a80 80 0 1 0 -156.8 0z" fill="#ffcb73"/><path d="m320.01 304h-.01a16 16 0 0 0 -16 16v31.59a16.268 16.268 0 0 1 -15.871 16.41 15.978 15.978 0 0 1 -16.129-16v-31.59a16.268 16.268 0 0 0 -15.871-16.41 15.978 15.978 0 0 0 -16.129 16 16 16 0 1 1 -32 0v-8a15.978 15.978 0 0 0 -10.18-14.9 79.916 79.916 0 0 1 31.572-20.552 15.946 15.946 0 0 0 10.608-15.058v-83.72a73.2 73.2 0 0 1 32 0v83.71a15.922 15.922 0 0 0 10.568 15.046 80.19 80.19 0 0 1 37.442 27.474z" fill="#eb7206"/><rect fill="#78462f" height="16" rx="8" width="80" x="232" y="104"/><path d="m339.15 368a127.727 127.727 0 0 1 -19.66 32c-16.92 19.91-39.14 32-63.49 32s-46.57-12.09-63.49-32a127.727 127.727 0 0 1 -19.66-32z" fill="#92563a"/><path d="m224 388.002h64v16h-64z" fill="#804a32"/><path d="m288 24h-24a8 8 0 0 1 8 8v48h24v-48a8 8 0 0 0 -8-8z" fill="#6e3c26"/></g></svg>