<svg id="Capa_1" enable-background="new 0 0 512 512" viewBox="0 0 512 512" xmlns="http://www.w3.org/2000/svg"><g><g><path d="m192.885 142.784c-4.268 0-7.726-3.459-7.726-7.726v-33.532c0-9.551-2.934-15.057-8.26-20.654-4.522-4.752-11.578-6.938-18.459-6.282l-10.271.749c-4.275.41-8.021-2.708-8.427-6.956-.406-4.247 2.708-8.02 6.956-8.426l2.787-1.078c11.561-1.107 28.911 1.114 38.324 10.017 8.508 8.047 12.802 19.167 12.802 32.631v33.532c.001 4.266-3.458 7.725-7.726 7.725z" fill="#80d261"/></g><path d="m375.31 278.936c0 15.844-2.112 31.122-6.037 45.462-16.524 60.492-53.334 102.036-110.736 102.036-2.905 0-5.79-.113-8.653-.34-12.496-.958-22.28.068-33.55-4.764-2.155-.925-7.925-.92-10.156-1.531-10.931-2.997-22.601-2.237-33.159 2.298-13.846 5.934-28.814 9.179-44.432 9.179-71.01-.001-128.587-67.055-128.587-149.769s78.18-149.767 149.201-149.767l3.214.021c5.099 0 9.931-2.318 13.114-6.294 6.943-8.705 13.032-14.072 27.351-14.072 14.33 0 20.418 5.367 27.362 14.072 3.183 3.977 8.015 6.294 13.114 6.294l3.214-.021c13.092 0 26.533 1.967 39.47 6.519 51.383 18.078 99.27 73.211 99.27 140.677z" fill="#fea95c"/><path d="m276.041 138.258c39.118 27.092 68.518 71.923 68.518 122.645 0 13.118-1.7 26.07-4.837 38.582-1.115 4.449-5.699 7.047-10.119 5.822-5.892-1.633-12.004-2.485-18.159-2.485h-38.992c-16.153 0-31.266 7.191-41.444 19.718-10.24 12.599-14.206 28.969-10.889 44.895 2.798 13.401 7.297 26.35 13.298 38.551 2.312 4.702-.416 10.379-5.539 11.478-7.14 1.532-14.413 2.334-21.7 2.334-.013 0 .013 0 0 0 2.232.611 4.422 1.37 6.578 2.295 13.845 5.938 28.809 9.181 44.424 9.181 71.019 0 128.591-67.052 128.591-149.765 0-67.467-52.013-124.513-109.73-143.251z" fill="#fe9738"/><g><g fill="#fe9738"><circle cx="38.414" cy="288.819" r="7.726"/><circle cx="44.812" cy="254.754" r="7.726"/><circle cx="69.569" cy="278.936" r="7.726"/><circle cx="183.27" cy="361.649" r="7.726"/><circle cx="201.172" cy="382.93" r="7.726"/><circle cx="295.475" cy="207.775" r="7.726"/><circle cx="315.988" cy="232.152" r="7.726"/></g><g><path d="m450.369 333.729c-8.457 0-16.657 2.871-23.287 8.121-12.691 10.049-28.731 16.05-46.176 16.05-17.444 0-33.485-6.002-46.175-16.05-6.631-5.25-14.83-8.122-23.288-8.122h-38.992c-14.41 0-25.02 13.287-22.075 27.393 11.501 55.081 56.987 97.681 113.528 104.876 5.567.708 11.744.187 17.503.187 48.768 0 113.685-47.431 126.117-108.197 2.844-13.904-4.976-21.974-19.167-21.974l-29.9-2.285h-8.088z" fill="#fea95c"/><g><path d="m489.367 333.729h-33.999c14.191 0 25.021 12.964 22.177 26.868-4.108 20.077-12.464 39.672-24.49 55.356-21.12 27.542-53.009 45.446-89.15 50.045 5.568.709 11.241 1.077 17.001 1.077 64.441 0 118.206-45.712 130.638-106.478 2.844-13.904-7.986-26.868-22.177-26.868z" fill="#fe9738"/></g><g><path d="m380.942 442.546c-4.268 0-7.726-3.459-7.726-7.726v-42.808c0-4.267 3.459-7.726 7.726-7.726s7.726 3.459 7.726 7.726v42.808c0 4.267-3.459 7.726-7.726 7.726z" fill="#fe9738"/></g><g><path d="m314.71 418.678c-1.628 0-3.27-.513-4.666-1.573-3.398-2.58-4.062-7.427-1.482-10.825l23.508-30.962c2.58-3.398 7.428-4.063 10.826-1.481 3.398 2.58 4.062 7.427 1.482 10.825l-23.508 30.962c-1.52 2.001-3.826 3.054-6.16 3.054z" fill="#fe9738"/></g><g><path d="m447.173 418.678c-2.334 0-4.64-1.053-6.16-3.055l-23.508-30.962c-2.58-3.398-1.916-8.245 1.482-10.825 3.398-2.582 8.245-1.917 10.826 1.481l23.508 30.962c2.58 3.398 1.917 8.245-1.482 10.825-1.396 1.061-3.038 1.574-4.666 1.574z" fill="#fe9738"/></g></g></g><path d="m161.09 66.122-2.649 8.467-22.348 22.524c-22.315 22.491-36.544 51.751-40.434 83.196l-2.318 18.722c-.527 4.241-5.483 6.285-8.845 3.648l-40.06-31.457c-24.007-18.854-32.061-51.652-19.503-79.472 17.129-37.994 60.705-56.299 99.842-41.95l24.711 9.076z" fill="#9be69d"/><g><path d="m163.536 69.456-5.096 5.133-31.457 2.934c-26.007 2.417-47.476 20.195-54.695 45.301-1.033 3.615-4.329 5.966-7.911 5.966-.758 0-1.527-.099-2.285-.319-4.373-1.264-6.9-5.823-5.636-10.196 9.098-31.677 36.192-54.113 69.001-57.167l24.029-2.23 12.738 4.674c2.458.901 3.157 4.046 1.312 5.904z" fill="#97da7b"/></g></g><g/><g/><g/><g/><g/><g/><g/><g/><g/><g/><g/><g/><g/><g/><g/></svg>