<svg id="Capa_1" enable-background="new 0 0 512 512" height="512" viewBox="0 0 512 512" width="512" xmlns="http://www.w3.org/2000/svg"><g><g><g><path d="m345.946 38.917c-7.408 1.276-15.036 1.548-22.676.761-32.12-3.306-66.748-.678-101.007 7.912-20.502 5.141-40.144 12.176-58.649 20.939.026.01.05.019.076.029l-6.685 17.723-20.488-3.11c-.003-.024-.005-.046-.007-.07-19.563 11.854-37.486 25.819-53.348 41.681-28.249 28.249-52.442 73.097-67.377 123.155l4.042 39.162-14.987 7.805c-.037.218-.079.436-.115.654-12.683 76.097.442 140.14 36.009 175.707s99.61 48.692 175.707 36.009c53.519-8.92 105.249-29.284 142.938-55.459l1.979-22.587 27.617-2.18c36.03-36.704 62.096-84.121 75.434-137.312 8.591-34.259 11.218-68.887 7.911-101.006-.787-7.642-.514-15.272.762-22.681z" fill="#c17d4f"/></g><g fill="#985e33"><path d="m473.083 166.05-63.568-63.566-368.78 368.781c35.567 35.567 99.61 48.692 175.707 36.009 53.519-8.92 105.25-29.284 142.938-55.459l1.979-22.586 27.617-2.18c36.03-36.704 62.096-84.121 75.434-137.312 8.591-34.259 11.218-68.887 7.911-101.006-.786-7.643-.514-15.272.762-22.681z"/><path d="m256.939 234.534c-45.27-48.593-76.351-105.697-93.249-165.976-.028-.013-.042-.019-.07-.032-9.34 4.423-18.388 9.29-27.11 14.575-.003.007-.005.013-.008.02 3.946 13.218 8.528 26.281 13.751 39.162 19.96 49.219 48.455 93.821 84.809 132.784 5.776 6.19 15.556 6.315 21.543.328 5.724-5.724 5.852-14.938.334-20.861z"/><path d="m400.878 237.934c-24.657-15.618-48.282-34.659-70.217-56.595s-40.976-45.56-56.595-70.218c-4.435-6.999-13.701-9.079-20.698-4.646-6.999 4.433-9.078 13.699-4.646 20.698 16.799 26.522 37.23 51.883 60.726 75.379 23.495 23.496 48.856 43.926 75.379 60.726 6.999 4.433 16.265 2.353 20.698-4.646 4.434-6.999 2.349-16.263-4.647-20.698z"/><path d="m104.387 400.542c5.858-5.858 5.858-15.355 0-21.213-38.877-38.877-68.407-83.613-88.603-131.391-4.559 15.279-8.26 31.038-10.943 46.966 20.587 38.721 46.819 74.124 78.333 105.638 5.857 5.858 15.355 5.858 21.213 0z"/><path d="m114.594 220.414c-3.65-7.432-12.637-10.506-20.074-6.857-7.437 3.65-10.507 12.637-6.857 20.074 10.557 21.51 23.832 42.874 39.456 63.498.424.559.879 1.081 1.362 1.563 5.215 5.215 13.609 5.914 19.653 1.336 6.604-5.003 7.901-14.412 2.899-21.014-14.467-19.097-26.726-38.813-36.439-58.6z"/></g><path d="m204.36 357.248c-4.903 6.019-4.364 14.695 1.009 20.068.36.36.743.707 1.147 1.035 44.805 36.498 97.201 61.442 152.864 73.464 10.443-7.253 19.812-14.95 27.837-22.976.591-.591 1.172-1.193 1.758-1.79-58.173-8.397-114.782-32.261-163.513-71.957-6.422-5.232-15.87-4.268-21.102 2.156z" fill="#814f2b"/></g><path d="m389.441 16.493c-11.962 11.962-27.181 19.614-43.495 22.424 3.465 26.336 19.046 56.625 44.777 82.355 25.732 25.732 56.024 41.314 82.361 44.778 2.81-16.312 10.463-31.53 22.423-43.491l.384-.384c21.479-21.479 21.479-56.303 0-77.782l-28.284-28.284c-21.479-21.479-56.303-21.479-77.782 0z" fill="#fad180"/><path d="m481.749 30.251-91.024 91.024c25.732 25.731 56.022 41.312 82.358 44.775 2.811-16.312 10.463-31.53 22.423-43.491l.384-.384c21.479-21.479 21.479-56.303 0-77.782z" fill="#d59f40"/><path d="m400.878 237.934c-24.657-15.618-48.282-34.659-70.218-56.595l-21.213 21.213c23.495 23.496 48.856 43.926 75.379 60.726 6.999 4.433 16.265 2.353 20.698-4.646 4.434-6.999 2.35-16.263-4.646-20.698z" fill="#814f2b"/></g></svg>