<svg id="Capa_1" enable-background="new 0 0 512 512" height="512" viewBox="0 0 512 512" width="512" xmlns="http://www.w3.org/2000/svg"><g><path d="m336 49.225-245.698 10.302v-49.225l22.559-10.302h215.928c3.982 0 7.211 3.229 7.211 7.211z" fill="#fad27a"/><path d="m80 7.211v42.013l16.43 10.302 16.43-10.302v-49.224h-25.65c-3.981 0-7.21 3.229-7.21 7.211z" fill="#f5b662"/><path d="m314.302 501.698 53.698 10.302v-349.813c0-1.451-.204-2.895-.607-4.289l-15.422-53.385-15.971-14.081-21.698 69.568z" fill="#a1c203"/><path d="m335.71 160.805 16.261-56.292-15.971-55.288-26.024 54.424-16.278 56.351v160.032l10.302 191.968h31.71l13.954-32-13.664-139.327z" fill="#80a100"/><path d="m304 512h-223.139l-22.559-10.302v-341.698l32-100.473 22.559-10.302h223.139l-31.393 108.674c-.403 1.394-.607 2.838-.607 4.289z" fill="#f5b662"/><path d="m112.861 49.225h-32.861l-31.393 108.674c-.403 1.394-.607 2.838-.607 4.289v342.601c0 3.983 3.229 7.211 7.211 7.211h25.65v-349.813c0-1.451.204-2.895.607-4.289z" fill="#d28e43"/><path d="m264.789 480h-176.717c-3.983 0-7.211-3.229-7.211-7.211v-273.578c0-3.983 3.229-7.211 7.211-7.211h176.716c3.983 0 7.211 3.229 7.211 7.211v273.577c.001 3.983-3.228 7.212-7.21 7.212z" fill="#fad27a"/><path d="m232.789 337.907c3.983 0 7.211 3.229 7.211 7.211 0 31.363-25.425 56.789-56.789 56.789h-7.211v-7.211c0-31.364 25.425-56.789 56.789-56.789z" fill="#a1c203"/><path d="m196.604 394.696c0-25.997 17.468-47.913 41.307-54.653-1.307-1.319-3.119-2.136-5.122-2.136-31.363 0-56.789 25.425-56.789 56.789v7.211h7.211c4.613 0 9.098-.55 13.392-1.589v-5.622z" fill="#80a100"/><path d="m119.211 320c-3.983 0-7.211 3.229-7.211 7.211 0 31.364 25.425 56.789 56.789 56.789h7.211v-7.211c0-31.364-25.425-56.789-56.789-56.789z" fill="#a1c203"/><path d="m132.604 327.211c0-1.979.798-3.772 2.089-5.076-4.921-1.391-10.114-2.136-15.481-2.136-3.983 0-7.211 3.229-7.211 7.211-.001 31.365 25.424 56.79 56.788 56.79h7.211v-1.589c-24.901-6.019-43.396-28.449-43.396-55.2z" fill="#80a100"/><path d="m192 49.225v-49.225h32v49.225l-16 10.302z" fill="#a1c203"/><path d="m202.106 128h-17.283c-4.559 0-7.975-4.178-7.067-8.647l14.244-70.128h32l-14.827 72.999c-.682 3.361-3.637 5.776-7.067 5.776z" fill="#80a100"/><g><g><path d="m176 439.727c-4.267 0-7.726-3.459-7.726-7.726v-92.223c0-25.013 13.898-47.501 36.271-58.688 3.817-1.907 8.458-.361 10.366 3.455 1.908 3.817.362 8.458-3.455 10.366-17.104 8.552-27.729 25.744-27.729 44.867v92.222c-.001 4.268-3.46 7.727-7.727 7.727z" fill="#a15c27"/></g></g><path d="m453.698 491.396h-107.396v-153.489l37.806-17.907h60.571c2.045 0 3.994.868 5.361 2.389l12.11 13.462c1.191 1.324 1.85 3.042 1.85 4.823v75.326z" fill="#e7f5f5"/><path d="m346.302 426.302 21.698-10.302h96v88.789c0 3.983-3.229 7.211-7.211 7.211h-88.789l-21.698-10.302z" fill="#80a100"/><path d="m369.85 335.85 14.258-15.85h-28.787c-2.045 0-3.994.868-5.361 2.389l-12.11 13.462c-1.191 1.324-1.85 3.042-1.85 4.823v75.326l16 10.302 16-10.302v-75.327c0-1.781.659-3.498 1.85-4.823z" fill="#cedada"/><path d="m336 416h32v96h-32z" fill="#628c1b"/><g><g><path d="m400 359.726c-4.268 0-7.726-3.459-7.726-7.726v-62.111c0-13.98 7.768-26.549 20.272-32.799 7.234-3.618 11.728-10.889 11.728-18.978v-46.111c0-4.268 3.459-7.726 7.726-7.726s7.726 3.459 7.726 7.726v46.111c0 13.979-7.768 26.546-20.271 32.799-7.235 3.618-11.729 10.889-11.729 18.978v62.111c.001 4.267-3.458 7.726-7.726 7.726z" fill="#cedada"/></g></g><path d="m456.789 192h-25.883l-20.604-10.302v-43.396l20.604-10.302h25.883c3.983 0 7.211 3.229 7.211 7.211v49.577c0 3.983-3.229 7.212-7.211 7.212z" fill="#f5b662"/><path d="m400 135.211v49.577c0 3.983 3.229 7.211 7.211 7.211h23.694v-64h-23.694c-3.982.001-7.211 3.23-7.211 7.212z" fill="#d28e43"/></g></svg>