<?xml version="1.0" encoding="iso-8859-1"?>
<!-- Generator: Adobe Illustrator 19.0.0, SVG Export Plug-In . SVG Version: 6.00 Build 0)  -->
<svg version="1.1" id="Capa_1" xmlns="http://www.w3.org/2000/svg" xmlns:xlink="http://www.w3.org/1999/xlink" x="0px" y="0px"
	 viewBox="0 0 512 512" style="enable-background:new 0 0 512 512;" xml:space="preserve">
<path style="fill:#4398D1;" d="M361.931,366.398h79.448c19.5,0,35.31-15.81,35.31-35.31l0,0c0-19.5-15.81-35.31-35.31-35.31h-79.448
	v-35.31h79.448c39,0,70.621,31.62,70.621,70.621l0,0c0,39-31.62,70.621-70.621,70.621h-79.448V366.398z"/>
<g>
	<path style="fill:#3E8CC7;" d="M361.931,260.467v35.31h78.566c0.539-5.747,0.883-11.617,0.883-17.655v-17.655H361.931z"/>
	<path style="fill:#3E8CC7;" d="M361.931,401.709h35.222c8.554-11.061,16.066-22.881,22.457-35.31h-57.679V401.709z"/>
</g>
<path style="fill:#5CABE0;" d="M52.966,498.812C23.711,498.812,0,475.101,0,445.847h450.207c0,29.255-23.711,52.966-52.966,52.966
	H52.966z"/>
<path style="fill:#4398D1;" d="M114.759,445.635c0,0-88.276-61.581-88.276-167.512v-35.31h397.241v35.31
	c0,105.931-88.276,167.512-88.276,167.512H114.759z"/>
<polygon style="fill:#FCAC2B;" points="97.103,304.605 97.103,384.054 185.379,384.054 185.379,304.605 141.241,269.295 "/>
<path style="fill:#A3603E;" d="M150.069,295.778h-17.655V216.33c0-24.373,19.765-44.138,44.138-44.138s44.138,19.765,44.138,44.138
	v26.483h-17.655V216.33c0-14.627-11.855-26.483-26.483-26.483s-26.483,11.855-26.483,26.483V295.778z"/>
<g>
	<path style="fill:#E5E5E5;" d="M169.234,136.881c-2.339,0-4.59-0.927-6.241-2.586c-13.171-13.206-13.171-34.586,0-47.793
		c6.303-6.303,6.303-16.516,0.009-22.819l-0.009-0.009c-13.171-13.206-13.171-34.586,0-47.793c3.39-3.505,8.978-3.602,12.482-0.221
		s3.602,8.978,0.221,12.482c-0.071,0.071-0.141,0.15-0.221,0.221c-6.285,6.312-6.285,16.516,0,22.828
		c13.197,13.188,13.206,34.578,0.018,47.775c-0.009,0.009-0.009,0.009-0.018,0.018c-6.285,6.312-6.285,16.516,0,22.828
		c3.443,3.452,3.443,9.039,0,12.482C173.815,135.954,171.573,136.881,169.234,136.881z"/>
	<path style="fill:#E5E5E5;" d="M283.992,136.881c-2.339,0-4.59-0.927-6.241-2.586c-13.171-13.206-13.171-34.586,0-47.793
		c6.303-6.303,6.303-16.516,0.009-22.819l-0.009-0.009c-13.171-13.206-13.171-34.586,0-47.793c3.39-3.505,8.978-3.602,12.482-0.221
		c3.505,3.39,3.602,8.978,0.221,12.482c-0.071,0.071-0.141,0.141-0.221,0.221c-6.285,6.312-6.285,16.516,0,22.828
		c13.197,13.188,13.206,34.578,0.018,47.775c-0.009,0.009-0.009,0.009-0.018,0.018c-6.285,6.312-6.285,16.516,0,22.828
		c3.443,3.452,3.443,9.039,0,12.482C288.574,135.954,286.332,136.881,283.992,136.881z"/>
	<path style="fill:#E5E5E5;" d="M228.008,136.881c-2.339,0-4.59-0.927-6.241-2.586c-13.197-13.188-13.206-34.578-0.018-47.775
		c0.009-0.009,0.009-0.009,0.018-0.018c6.285-6.312,6.285-16.516,0-22.828c-3.39-3.505-3.293-9.092,0.221-12.482
		c3.425-3.302,8.845-3.302,12.262,0c13.171,13.206,13.171,34.586,0,47.793c-6.303,6.303-6.303,16.516-0.009,22.819l0.009,0.009
		c3.443,3.452,3.443,9.039,0,12.482C232.589,135.954,230.347,136.881,228.008,136.881z"/>
	<path style="fill:#E5E5E5;" d="M336.958,136.881c-2.339,0-4.59-0.927-6.241-2.586c-13.171-13.206-13.171-34.586,0-47.793
		c6.303-6.303,6.303-16.516,0.009-22.819l-0.009-0.009c-3.39-3.505-3.293-9.092,0.221-12.482c3.425-3.302,8.845-3.302,12.262,0
		c13.197,13.188,13.206,34.578,0.018,47.775c-0.009,0.009-0.009,0.009-0.018,0.018c-6.285,6.312-6.285,16.516,0,22.828
		c3.443,3.452,3.443,9.039,0,12.482C341.539,135.954,339.297,136.881,336.958,136.881z"/>
</g>
<path style="fill:#3E8CC7;" d="M348.628,242.812c-20.065,116.957-101.235,174.574-170.761,202.823h157.581
	c0,0,88.276-61.581,88.276-167.512v-35.31L348.628,242.812L348.628,242.812z"/>
<polygon style="fill:#FA962A;" points="97.103,372.048 97.103,384.054 185.379,384.054 185.379,322.614 "/>
<g>
</g>
<g>
</g>
<g>
</g>
<g>
</g>
<g>
</g>
<g>
</g>
<g>
</g>
<g>
</g>
<g>
</g>
<g>
</g>
<g>
</g>
<g>
</g>
<g>
</g>
<g>
</g>
<g>
</g>
</svg>
