<svg id="Слой_1" enable-background="new 0 0 512 512" height="512" viewBox="0 0 512 512" width="512" xmlns="http://www.w3.org/2000/svg"><g><g><path d="m356.897 47.502c-3.475-3.464-8.046-3.891-13.775 2.81-13.969 22.56-10.909 54.12-8.537 79.598 3.357 18.451 11.107 26.111 24.942 8.838 10.428-12.427 47.705-84.727 26.468-93.698-3.755-1.169-6.925.249-9.726 2.809-5.51 5.038-14.084 4.914-19.372-.357z" fill="#f4690b"/><path d="m375.938 55.39c.073-2.43.092-4.862.058-7.293-1.452 1.261-3.101 2.177-4.839 2.746-.102 23.302-4.874 46.687-14.557 67.915-.716 2.318-4.371 6.246-1.412 8.036 1.105.584 2.709.339 3.322-.871 11.017-21.804 16.657-46.165 17.428-70.533z" fill="#fc8e1c"/><path d="m362.7 54.919c.065-1.305.118-2.611.163-3.917-1.708-.489-3.337-1.306-4.786-2.454-.314 22.244-4.617 44.324-12.502 65.119-.441 1.193.492 2.712 1.696 2.986 1.374.313 2.514-.418 2.986-1.696 7.237-19.218 11.544-39.512 12.443-60.038z" fill="#fc8e1c"/><path d="m230.942 345.393c8.96 7.179 12.132 7.016 21.224-1.323 18.712 13.97 34.535-10.569 49.892-17.395 9.658.285 17.374.011 19.406-11.5.91-12.72 15.934-2.594 20.301-19.802 2.703-9.094 15.349-12.67 16.128-23.043.174-1.107.898-2.656 1.785-3.038 12.128-5.657 4.125-14.372 9.771-20.611 3.949-4.068 4.276-9.142 3.127-14.559-1.106-7.594 8.254-9.728 1.706-20.672-4.266-6.438 3.47-8.111-1.61-17.765-1.941-4.017-.101-9.683-1.404-13.6-4.01-5.708 1.287-12.319-1.623-17.92-2.487-3.534-2.318-6.959-2.024-10.959.641-8.745-6.565-15.104-15.442-14.609-2.26.126-4.803-.337-6.833-1.32-9.83-4.761-17.885-.284-18.823 10.565-1.14 4.631-5.813 5.041-6.486 13.414-.345 3.488-1.348 7.368-3.353 10.138-3.7 5.111-3.681 12.364-10.522 15.828-7.128 3.505-3.896 12.719-7.521 18.609-4.75 11.222-8.259 12.5-18.863 18.111-9.941-5.37-15.1-.645-19.441 9.032-6.122-8.472-6.22-15.667-20.156-13.178-11.333-9.155-3.494-16.287-15.46-25.644-4.633-5.045 5.7-18.265-14.077-20.672-7.826-32.363-20.846-18.198-22.281-34.88.028-13.501-7.231-9.615-11.16-15.177-4.929-9.836-10.669-8.169-19.768-9.425-17.806-6.294-32.543-21.749-47.497-.223-.863 1.279-2.568 2.357-4.089 2.77-9.215 2.504-14.231 8.607-14.921 18.214-.118 1.646-.705 3.488-1.671 4.803-8.997 12.079-1.002 18.625-6.053 23.02-7.163 7.301-16.151 16.569-7.271 26.36 4.696 5.41-3.858 8.307 3.7 18.465 4.443 7.521-6.66 19.476 11.495 31.598 3.671 3.535-.672 9.546 7.341 16.165 1.048.876 1.883 2.638 1.91 4.01.271 13.79 5.944 23.873 19.219 29.034.872.339 1.946 1.257 2.135 2.086 1.642 7.221 7.136 9.93 13.431 11.676 8.386 1.779-.029 13.586 17.049 15.536 8.837.793 3.964 10.821 18.242 11.971 9.577 1.046 8.442 12.383 22.045 9.115 17.616-3.182 20.342 18.329 38.442 6.795z" fill="#ffcb1f"/></g><g><path d="m404.014 164.086c-3.447-3.262-7.945-3.532-13.551 3.027-13.969 22.56-10.909 54.12-8.537 79.598 3.357 18.451 11.107 26.111 24.942 8.838 10.428-12.427 47.705-84.727 26.468-93.698-3.652-1.137-6.751.173-9.494 2.601-5.723 5.065-14.277 4.887-19.828-.366z" fill="#f4690b"/><path d="m408.981 167.201c-1.76-.663-3.422-1.676-4.88-3.035.519 22.753-3.134 45.202-11.589 66.572-.461 1.187.507 2.716 1.696 2.986 1.392.317 2.493-.425 2.986-1.696 7.898-20.135 11.854-41.751 11.797-63.372-.001-.485-.006-.97-.01-1.455z" fill="#fc8e1c"/><path d="m407.605 239.347c5.869-9.339 11.174-19.081 14.843-29.511 5.402-15.475 6.527-31.95 6.756-48.259-1.76.331-3.379 1.226-4.891 2.473-.167 7.896-.604 15.933-1.576 23.147-1.236 9.364-3.543 18.597-7.268 27.291-2.963 7.039-7.624 15.426-12.056 22.408-.677 1.077-.263 2.723.871 3.322 1.194.632 2.599.279 3.321-.871z" fill="#fc8e1c"/><path d="m278.283 462.194c8.96 7.179 12.132 7.016 21.224-1.323 18.712 13.97 34.535-10.569 49.892-17.395 9.658.285 17.374.011 19.406-11.5.91-12.719 15.934-2.594 20.301-19.802 2.703-9.094 15.349-12.67 16.128-23.043.174-1.107.898-2.656 1.785-3.038 12.128-5.657 4.125-14.372 9.771-20.611 3.949-4.068 4.276-9.142 3.127-14.559-1.106-7.594 8.254-9.728 1.706-20.672-4.266-6.438 3.47-8.111-1.61-17.765-1.941-4.017-.101-9.683-1.404-13.6-4.01-5.708 1.287-12.319-1.623-17.92-2.487-3.534-2.318-6.96-2.024-10.959.641-8.745-6.565-15.104-15.442-14.609-2.26.126-4.803-.337-6.833-1.32-9.83-4.761-17.886-.284-18.823 10.565-1.14 4.631-5.813 5.041-6.486 13.414-.345 3.488-1.348 7.368-3.353 10.138-3.7 5.111-3.681 12.364-10.522 15.828-7.128 3.505-3.896 12.719-7.521 18.609-4.75 11.222-8.259 12.5-18.863 18.111-9.941-5.37-15.1-.645-19.441 9.032-6.122-8.472-6.22-15.667-20.156-13.178-11.333-9.155-3.494-16.287-15.46-25.644-4.633-5.045 5.699-18.265-14.077-20.672-7.826-32.363-20.846-18.198-22.281-34.88.028-13.501-7.231-9.615-11.16-15.177-4.929-9.836-10.669-8.169-19.768-9.425-17.806-6.294-32.543-21.749-47.497-.223-.863 1.279-2.568 2.357-4.089 2.77-9.215 2.504-14.231 8.607-14.921 18.214-.118 1.646-.705 3.488-1.671 4.803-8.997 12.079-1.002 18.625-6.053 23.02-7.163 7.301-16.151 16.569-7.271 26.36 4.696 5.41-3.858 8.307 3.7 18.465 4.443 7.521-6.66 19.476 11.495 31.598 3.671 3.535-.672 9.546 7.341 16.165 1.048.876 1.883 2.638 1.91 4.01.271 13.79 5.944 23.873 19.219 29.034.872.339 1.946 1.257 2.135 2.086 1.642 7.221 7.136 9.93 13.431 11.676 8.386 1.779-.029 13.586 17.049 15.536 8.837.793 3.964 10.821 18.242 11.971 9.577 1.046 8.442 12.383 22.045 9.115 17.615-3.182 20.342 18.329 38.442 6.795z" fill="#ffdf78"/></g></g></svg>