<svg id="Layer_1" enable-background="new 0 0 497 497" height="512" viewBox="0 0 497 497" width="512" xmlns="http://www.w3.org/2000/svg"><g><path d="m0 268.572h497v31.246h-497z" fill="#934d36"/><g><g><g><g><path d="m295.782 430.678c-9.273 3.741-21.199 6.794-36.046 8.747-20.571 2.706-56.629 5.742-76.983 10.069-38.46 8.176-89.625 4.329-116.594-12.174-9.672-5.919-15.988-13.842-15.988-22.005 0-10.311 0-41.165 0-41.165h245.612v56.528" fill="#e5646e"/></g><g><path d="m222.33 404.93c-10.951 0-30.246 3.123-39.729 5.139-38.46 8.176-89.625 4.329-116.594-12.174-23.601-14.442-22.269-41.074 10.756-52.406 10.482-3.597 32.265-8.374 59.254-8.374 15.338 0 34.534-.215 48.806-.217z" fill="#d82e3d"/></g></g><g><g><path d="m450.88 402.559s-10.223 25.911-14.17 35.913c-5.237 13.274-27.952 20.686-70.629 10.016-20.129-5.033-54.785-15.443-75.307-18.888-38.777-6.51-84.96-28.867-103.989-54.116-6.825-9.055-9.792-18.744-6.796-26.337 3.784-9.591 15.108-38.293 15.108-38.293" fill="#ffd8d5"/></g><g><path d="m380.551 411.814c-20.129-5.033-54.785-15.443-75.307-18.888-38.777-6.51-84.96-28.867-103.989-54.116-16.654-22.096-5.64-46.38 29.24-44.801 11.071.501 33.087 4.052 58.193 13.958 48.828 19.265 97.58 38.482 107.052 42.237 9.749 3.866 24.639 10.731 32.57 16.282 43.946 30.76 24.808 63.471-47.759 45.328z" fill="#d82e3d"/></g></g></g><g><g><g><path d="m82.652 66.713c28.484-17.229 61.807-22.102 72.046-23.027 31.795-2.873 56.741 14.244 146.748 14.244 81.35 0 131.26 30.977 159.296 75.569 14.107 22.438 19.683 57.072 13.121 86.643-6.268 28.247-31.602 48.17-60.536 48.154l-170.475-.12z" fill="#e5646e"/><path d="m460.742 133.499c-28.036-44.592-77.946-75.569-159.296-75.569-90.007 0-114.953-17.118-146.748-14.244-1.77.16-4.243.442-7.248.881 24.806 3.49 55.634 13.363 123.996 13.363 81.35 0 131.26 30.977 159.296 75.569 14.107 22.438 19.683 57.072 13.121 86.643-6.197 27.927-31.033 47.704-59.556 48.133l29.021.021c28.934.016 54.267-19.907 60.536-48.154 6.561-29.571.985-64.205-13.122-86.643z" fill="#cf5668"/><g><path d="m276.05 89.755c-23.532-7.68-64.779-16.296-88.063-28.574-43.996-23.202-102.525-12.285-133.375 34.548-26.997 40.985-25.473 116.561 12.305 148.721 11.991 10.208 36.908 23.764 67.782 23.764 60.046 0 119.99.049 131.646 0 11.997-.051 30.723-2.664 41.494-9.058 59.677-35.428 53.046-141.713-31.789-169.401z" fill="#ffd8d5"/></g><g><path d="m198.917 236.624c-19.761-.006-41.984-.013-64.218-.013-22.29 0-40.218-10.199-47.297-16.226-23.072-19.64-26.481-76.785-6.398-107.272 13.435-20.396 35-32.093 59.163-32.093 11.573 0 23.011 2.806 33.077 8.115 19.041 10.041 45.157 17.2 68.198 23.516 9.332 2.558 18.146 4.974 24.803 7.147 27.553 8.992 45.808 30.696 48.834 58.059 2.537 22.944-6.637 44.189-23.373 54.124-3.129 1.858-14.616 4.585-25.493 4.631-3.867.016-13.067.022-25.835.022-11.408 0-25.647-.005-41.461-.01z" fill="#d82e3d"/></g></g><g><path d="m224.415 187.673c-1.781 0-3.567-.63-4.999-1.911-21.33-19.084-26.942-41.606-31.893-61.477-4.688-18.813-8.391-33.673-24.39-40.784-3.785-1.682-5.49-6.114-3.808-9.899s6.114-5.489 9.899-3.808c22.691 10.085 27.857 30.816 32.853 50.864 4.645 18.641 9.448 37.917 27.34 53.925 3.087 2.762 3.35 7.503.588 10.59-1.48 1.656-3.531 2.5-5.59 2.5z" fill="#ffd8d5"/></g><g><path d="m135.336 252.142c-4.127 0-7.481-3.336-7.5-7.468-.018-4.142 3.326-7.514 7.468-7.532 2.302-.01 10.464-3.459 17.004-11.938 5.747-7.453 11.531-20.472 6.446-40.174-1.035-4.011 1.377-8.101 5.388-9.136 4.014-1.035 8.102 1.377 9.136 5.388 6.599 25.572-1.302 42.981-9.093 53.083-9.386 12.169-21.518 17.746-28.817 17.778-.01-.001-.021-.001-.032-.001z" fill="#ffd8d5"/></g></g></g></g></g></svg>