<svg id="Capa_1" enable-background="new 0 0 512 512" viewBox="0 0 512 512" xmlns="http://www.w3.org/2000/svg"><g><g><g><path d="m223.925 42.667h-94.374v106.138l47.306 15.097 47.068-15.097z" fill="#fec165"/></g><g><path d="m193.922 42.667v115.761l30.003-9.622v-106.139z" fill="#fdb441"/></g></g><g><g><path d="m223.925 42.667h-94.374v106.138l47.306 15.097 47.068-15.097z" fill="#fec165"/></g><g><path d="m193.922 42.667h30.003v106.139h-30.003z" fill="#fdb441"/></g></g><g><g><path d="m225.659 47.411h-97.843c-3.764 0-6.816-3.051-6.816-6.816v-13.436c0-15 12.16-27.159 27.159-27.159h57.156c15 0 27.159 12.16 27.159 27.159v13.436c.001 3.765-3.05 6.816-6.815 6.816z" fill="#c4573a"/></g><g><path d="m205.316 0h-30.003c15 0 27.159 12.16 27.159 27.159v13.437c0 3.764-3.052 6.815-6.816 6.815h30.003c3.764 0 6.816-3.051 6.816-6.815v-13.437c0-14.999-12.159-27.159-27.159-27.159z" fill="#a74b30"/></g></g><g><g><path d="m65.096 265.203v178.064l114.702 12.161 108.582-12.161v-178.064l-111.523-10.001z" fill="#fdb441"/></g><g><path d="m258.377 262.513v184.114l30.003-3.36v-178.064z" fill="#fea713"/></g></g><g><g><path d="m65.096 477.779c0 18.9 15.321 34.221 34.221 34.221h154.842c18.9 0 34.221-15.321 34.221-34.221v-34.512h-223.284z" fill="#fee8c7"/></g><g><path d="m258.377 443.267v4.509c0 18.9-15.321 34.221-34.221 34.221h-154.842c-1.347 0-2.674-.086-3.98-.238 1.973 17.023 16.43 30.241 33.983 30.241h154.842c18.9 0 34.221-15.321 34.221-34.221v-34.512z" fill="#fedba6"/></g></g><g><g><path d="m65.096 265.203v178.064l114.702 12.161 108.582-12.161v-178.064l-111.523-10.001z" fill="#fdb441"/></g><g><path d="m258.377 262.513v184.114l30.003-3.36v-178.064z" fill="#fea713"/></g></g><g><g><path d="m65.096 477.779c0 18.9 15.321 34.221 34.221 34.221h154.842c18.9 0 34.221-15.321 34.221-34.221v-34.512h-223.284z" fill="#fee8c7"/></g><g><path d="m258.377 443.267v4.509c0 18.9-15.321 34.221-34.221 34.221h-154.842c-1.347 0-2.674-.086-3.98-.238 1.973 17.023 16.43 30.241 33.983 30.241h154.842c18.9 0 34.221-15.321 34.221-34.221v-34.512z" fill="#fedba6"/></g></g><g><g><g><path d="m238.326 189.021h-10.718c-2.034 0-3.683-1.649-3.683-3.683v-36.533h-94.374v36.533c0 2.034-1.649 3.683-3.683 3.683h-10.718c-27.644 0-50.054 22.41-50.054 50.054v26.127h223.284v-26.127c0-27.643-22.41-50.054-50.054-50.054z" fill="#fee8c7"/></g></g><path d="m238.326 189.021h-10.718c-2.034 0-3.683-1.649-3.683-3.683v-36.533h-30.003v25.815c0 7.953 6.447 14.4 14.401 14.4 27.644 0 50.054 22.41 50.054 50.054v26.127h30.003v-26.127c0-27.642-22.41-50.053-50.054-50.053z" fill="#fedba6"/></g><g><circle cx="176.738" cy="354.235" fill="#fee8c7" r="44.039"/></g><g><g><path d="m130.62 427.688c19.477 22.031 90.968 96.368 157.76 82.632-24.741-63.543-125.986-83.199-155.063-87.588-2.776-.419-4.556 2.852-2.697 4.956z" fill="#ade194"/></g><g><path d="m194.98 358.686c5.488 28.89 28.965 129.318 93.4 151.633 11.196-67.264-65.797-135.887-88.55-154.516-2.172-1.778-5.374.125-4.85 2.883z" fill="#80d261"/></g><g><path d="m446.14 427.688c-19.477 22.031-90.968 96.368-157.76 82.632 24.741-63.543 125.986-83.199 155.063-87.588 2.776-.419 4.556 2.852 2.697 4.956z" fill="#ade194"/></g><g><path d="m443.443 422.731c-6.991 1.056-18.159 2.997-31.426 6.215-17.383 19.448-68.552 71.857-122.914 81.507 66.584 13.057 137.63-60.814 157.037-82.766 1.859-2.103.079-5.375-2.697-4.956z" fill="#97da7b"/></g><g><path d="m381.78 358.686c-5.488 28.89-28.965 129.318-93.4 151.633-11.196-67.264 65.797-135.887 88.55-154.516 2.172-1.778 5.374.125 4.85 2.883z" fill="#80d261"/></g><g><path d="m285.559 332.252c-10.042 27.638-41.169 125.965 2.821 178.068 43.99-52.103 12.863-150.43 2.821-178.068-.959-2.639-4.683-2.639-5.642 0z" fill="#ade194"/></g></g></g><g/><g/><g/><g/><g/><g/><g/><g/><g/><g/><g/><g/><g/><g/><g/></svg>