<svg height="512" viewBox="0 0 96 96" width="512" xmlns="http://www.w3.org/2000/svg"><g id="Pasta"><path d="m54.92 15.65 1-1.78a5 5 0 0 0 .17-4.45l-1.17-2.54-2.63 2.31-2.63-2.31-2.66 2.31-2.62-2.31-2.63 2.31-2.63-2.31-2.64 2.31-2.63-2.31-2.63 2.31-2.63-2.31-2.65 2.31-2.63-2.31-2.63 2.31-2.68-2.31-1.1 2.54a5 5 0 0 0 .17 4.45l1 1.78z" fill="#f9cc7c"/><path d="m28.17 9.23v-2l-2.23 1.96-2.63-2.31-2.63 2.31-2.68-2.31-1.1 2.54a2 2 0 0 0 1.86 2.75h6.47a2.94 2.94 0 0 0 2.94-2.94z" fill="#f9ea7c"/><path d="m56.07 9.42-1.15-2.54-2.63 2.31-2.63-2.31-2.66 2.31a1.44 1.44 0 0 0 -2.24.45l-1.76 3.58a1.69 1.69 0 0 0 1.52 2.43h10.4l1-1.78a5 5 0 0 0 .15-4.45z" fill="#f98145"/><path d="m19.89 83.27-1.89 1.62-1.14-2.54a5 5 0 0 1 .17-4.45l1-1.78h8.39v7.21z" fill="#ff3d57"/><path d="m18.03 15.62h31.69v60.51h-31.69z" fill="#f9a959"/><rect fill="#f9d67c" height="23.89" rx="3" width="20.25" x="18.03" y="20.02"/><rect fill="#fff" height="2.9" rx="1.08" width="16.14" x="22.15" y="19.15"/><path d="m49.48 24.05-31.45 31.44v20.63h31.31z" fill="#ff3d57"/><path d="m24.99 26.13h24.74v39.47h-24.74z" fill="#f9e09a"/><path d="m24.99 26.13h3.17v39.47h-3.17z" fill="#eac28b"/><path d="m28.16 26.13h3.17v39.47h-3.17z" fill="#f9e09a"/><path d="m31.33 26.13h3.17v39.47h-3.17z" fill="#f9a472"/><path d="m34.51 26.13h3.17v39.47h-3.17z" fill="#eac28b"/><path d="m37.68 26.13h3.17v39.47h-3.17z" fill="#f9e09a"/><path d="m40.85 26.13h3.17v39.47h-3.17z" fill="#eac28b"/><path d="m44.02 26.13h3.17v39.47h-3.17z" fill="#f9d19a"/><path d="m74.33 31.37 1.54-1.31a5 5 0 0 0 1.76-4.06l-.16-2.78c-3.13 1.14-2.46.9-3.29 1.21l-1.64-3.11-3.29 1.21-1.64-3.1-3.29 1.17-1.63-3.1-3.28 1.21c-1.14-2.15-.78-1.46-1.63-3.09l-3.3 1.2-1.63-3.1c-3.48 1.29-3.06 1.14-3.29 1.21l-1.63-3.09-2 2a5 5 0 0 0 -1.42 4.16l.28 2z" fill="#f9a959"/><path d="m47.41 15.22 1.17 2.22c2.2-.77 1.45-.5 3.29-1.18.22.4.94 1.78.94 1.78l.47-.85a2.73 2.73 0 0 0 0-2.6l-.46-.86c-3.42 1.26-3.06 1.13-3.29 1.2l-1.63-3.09-2 2a1.46 1.46 0 0 0 .31 2.25l.43.28a2.89 2.89 0 0 1 .77-1.15z" fill="#f9ea7c"/><path d="m48.1 19.11-.94 1.82 8.13 3.12.9-1.84z" fill="#f9a959"/><path d="m57.78 15.62-2.25.81a1.07 1.07 0 0 0 -.66.82 1 1 0 0 0 1.37 1.1l.55-.2.21.38a1 1 0 0 0 1.87-.14 1.05 1.05 0 0 0 -.06-.82c-.43-.8-.3-.57-1.03-1.95z" fill="#f9ea7c"/><path d="m77.63 26-.16-2.78c-3.13 1.14-2.46.9-3.29 1.21l-1.64-3.11-3.29 1.21-.48-.9-3.35 6.35 8.91 3.43 1.54-1.31a5 5 0 0 0 1.76-4.1z" fill="#f98145"/><path d="m46.65 18.55-.12-.82a3 3 0 0 1 .88-2.51l1.17 2.23c2.2-.78 1.45-.51 3.3-1.19.4.78 1.22 2.32 1.62 3.1l3.3-1.21 1.64 3.1 3.28-1.25 1.63 3.1 3.29-1.21 1.64 3.11 3.29-1.21 1.64 3.1 2.38-.89c.09 1.61-.83 2.27-1.66 3z" fill="#f9cc7c"/><path d="m52.65 87.81.27 2a5 5 0 0 1 -1.43 4.19l-2 2-1.64-3.1-3.28 1.21-1.57-3.11-3.3 1.21-1.7-3.09-3.28 1.21-1.64-3.1-3.28 1.21-1.64-3.1-3.26 1.21-1.64-3.1-3.26 1.21-.16-2.78a5 5 0 0 1 1.75-4.1l1.55-1.31z" fill="#f98145"/><path d="m52.92 89.82-.27-2-11.07-4.26a3.46 3.46 0 0 0 -4.69 3.23v2.75l1.11-.42 1.63 3.1 3.37-1.22 1.63 3.1 3.28-1.21 1.6 3.11 2-2a5 5 0 0 0 1.41-4.18z" fill="#f95440"/><path d="m74.33 31.36-21.68 56.46-29.55-11.35c7.13-18.54 3.3-8.59 21.68-56.47z" fill="#f9a959"/><rect fill="#f9d67c" height="10.87" rx="3.58" transform="matrix(.359 -.934 .934 .359 -10.75 72.18)" width="35.05" x="29.62" y="38.47"/><path d="m74.33 31.36-5-1.9-13.58 35.46a2.76 2.76 0 0 1 -4.21 1.22 27.43 27.43 0 0 0 -22.8-4.34l-5.64 14.67 29.55 11.35z" fill="#f98145"/><path d="m56.41 78-3.76 9.79c-31.89-12.19 32.65 12.56-29.55-11.32l3.77-9.79a23.34 23.34 0 0 1 29.54 11.32z" fill="#ff3d57"/><path d="m31.78 70.52a18.25 18.25 0 0 1 18.36 7 2 2 0 0 1 -2.25 3l-16.37-6.28a2 2 0 0 1 .26-3.72z" fill="#ff9c84"/><path d="m52.26 80.27-1.38 3.6c-3.27-1.28-9.62-3.71-9.52-3.67a1.53 1.53 0 0 0 -2 .86 1.53 1.53 0 0 0 .87 2l12.39 4.76 2.26-5.89z" fill="#e62443"/><path d="m26.87 66.68-3.77 9.79 4.71 1.81a1.53 1.53 0 0 0 2-.87 1.53 1.53 0 0 0 -.88-2l-1.83-.7 2.16-5.63a20.07 20.07 0 0 1 6.25-1 19.86 19.86 0 0 1 7.3 1.35 1.53 1.53 0 0 0 1.1-2.85 23.32 23.32 0 0 0 -17.04.1z" fill="#ff797a"/><path d="m64.4 27.55-4.2 10.96-3.54-5.28-6.15 1.56 4.21-10.96z" fill="#ff3d57"/><path d="m56.41 78-3.76 9.79-5-1.91 5.08-13.24a23.59 23.59 0 0 1 3.68 5.36z" fill="#e62443"/><circle cx="49.8" cy="51.11" fill="#76b9dd" r="8.62"/><ellipse cx="48.55" cy="49.22" fill="#8ad2f1" rx="4.74" ry="3.84" transform="matrix(.707 -.707 .707 .707 -20.58 48.74)"/><path d="m61.7 8.47-3.24 8.45-.68-1.3-3.3 1.2-.42-.8 3.51-9.14z" fill="#f9e09a"/><path d="m59.33 2.23-5.29 13.77-1.19-2.28-3.12 1.16 5.47-14.24z" fill="#f9a472"/><path d="m65.84 10.06-2.98 7.76-.17-.32-3.28 1.21-.95-1.79 3.24-8.45z" fill="#eac28b"/><path d="m71.17 8.55-4.26 11.1-2.58.95-1.47-2.78 4.17-10.86z" fill="#f9a472"/><path d="m78.59 1.59-7.81 20.34-1.53.56-1.64-3.1-.7.26 7.55-19.65z" fill="#f9e09a"/><path d="m79.56 11.77-4.76 12.39-.62.23-1.64-3.1-1.62.59 4.49-11.7z" fill="#eac28b"/></g></svg>