<svg id="Layer_1" height="512" viewBox="0 0 512 512" width="512" xmlns="http://www.w3.org/2000/svg" data-name="Layer 1"><path d="m106.749 351.41s-26.72-8.87-49.95 21.58c0 0 15.67 19.82 47.06 11.4l2.9-32.98z" fill="#517a2a"/><path d="m76.8 372.99c10.157-13.313 20.98-19.315 29.946-21.623l.014-.367h-.01s-26.72-8.665-49.95 21.785c0 0 14.071 17.872 42.236 12.59-14.83-3.119-22.236-12.385-22.236-12.385z" fill="#3d5b1d"/><path d="m101.008 368.806c-7.258-4.035-24.135-1.416-26.036-1.1a3 3 0 0 0 .972 5.92c6.382-1.047 18.04-1.857 22.15.428a3 3 0 0 0 2.914-5.244z" fill="#4c5b3b"/><path d="m137.72 208.32a104.778 104.778 0 0 1 17.36-9.37 46.851 46.851 0 0 1 13.81-3.61c4.86-.39 9.42.43 13.2 3.09 28.02 19.75 3.12 49.88 16.61 55.59 0 0-43.59 14.24-62.08-44.97.36-.24.73-.48 1.1-.73z" fill="#739937"/><path d="m186.8 145.93c27.62 31.42-17.91 49.41-17.91 49.41a46.851 46.851 0 0 0 -13.81 3.61v-.01s-24.78-21.59.33-44.63c17.1-15.69 17.16-23.81 15.46-27.39z" fill="#8dc63f"/><path d="m125.081 213.82 3.842 4.608c1.587-1.322 3.667-2.934 6.094-4.663 6.719 19.3 16.918 32.579 30.352 39.508a47.533 47.533 0 0 0 21.883 5.264 43 43 0 0 0 12.378-1.664 3 3 0 0 0 .238-5.615c-3.061-1.3-2.9-4.924-1.757-13.514 1.627-12.229 3.856-28.978-14.291-41.763-4.862-3.424-10.735-4.206-16.862-3.414 6.245-12.844 7.251-31.108 7.3-32.013a3 3 0 0 0 -5.992-.306c-.012.238-1.3 23.381-9.361 34.15-16.661 5.261-32.8 18.568-33.824 19.422zm55.284-12.933c15.175 10.69 13.381 24.172 11.8 36.066-.763 5.732-1.5 11.25.386 15.231a42.361 42.361 0 0 1 -24.525-4.291c-12.018-6.239-21.218-18.453-27.4-36.3 26.294 3.087 35.1 25.359 35.478 26.355a3 3 0 0 0 5.615-2.117c-.4-1.059-9.227-23.736-35.216-29.352 11.707-6.534 25.561-11.439 33.862-5.592z" fill="#4c5b3b"/><path d="m199.78 461.82a11.915 11.915 0 0 0 -2.61-6.27c-11.31-13.88-48.29-50.48-91.38.21 0 0 41.62 77.49 91.54 14.68a11.668 11.668 0 0 0 2.25-4.85 12 12 0 0 0 .27-2.52 10.475 10.475 0 0 0 -.07-1.25z" fill="#8dc63f"/><path d="m125.79 455.76c12.587-14.807 24.65-22.157 35.706-24.809-15.712-3.745-35 .454-55.706 24.809 0 0 25.819 48.049 61.174 37.785-24.676-7.083-41.174-37.785-41.174-37.785z" fill="#739b34"/><path d="m199.248 458.861a2.652 2.652 0 0 0 -1.053.4c-.1.06-10.444 5.764-41.5-4.881-18.94-6.491-40.567-3.592-48.494-2.164a3 3 0 0 0 -2.386 3.633 3 3 0 0 0 3.442 2.285c7.375-1.3 28.017-4.067 45.493 1.922 30.593 10.486 42.986 6.164 46 4.643 7.015-.887 18.6 5.651 22.548 8.3l3.344-4.982c-1.69-1.134-16.811-11.029-27.394-9.156z" fill="#4c5b3b"/><path d="m478.949 306.778c2.731-50.91-36.769-50.408-36.769-50.408l-20.461 15.55h-.05c13.02 44.09 57.95 35.27 57.95 35.27s-.25-.151-.67-.412z" fill="#517a2a"/><path d="m439.188 262.957-5.757 1.688c5.451 18.608 33.506 37.811 42.34 43.476a3 3 0 0 0 4.191-.984 3 3 0 0 0 -.94-4.071c-8.299-5.355-35.012-23.65-39.834-40.109z" fill="#4c5b3b"/><path d="m411.929 342.43c.06-7.96-3.25-15.08-6.3-19.92 0 0 26.72-8.87 49.95 21.58 0 0-15.67 19.82-47.07 11.4a27.3 27.3 0 0 0 3.42-13.06z" fill="#517a2a"/><path d="m437.2 338.833c-.449-.1-11.151-2.429-25.587.664a3 3 0 0 0 .626 5.935 3.038 3.038 0 0 0 .631-.068 59.994 59.994 0 0 1 23.02-.675 3 3 0 0 0 1.31-5.856z" fill="#4c5b3b"/><path d="m314.83 426.65a11.883 11.883 0 0 0 -2.61 6.26 10.642 10.642 0 0 0 -.07 1.26 12 12 0 0 0 .27 2.52 11.668 11.668 0 0 0 2.25 4.85c49.92 62.81 91.54-14.68 91.54-14.68-43.09-50.69-80.07-14.09-91.38-.21z" fill="#739937"/><path d="m355.3 425.48c-31.054 10.644-41.4 4.94-41.436 4.921a3 3 0 0 0 -1.116-.441c-10.585-1.875-25.7 8.021-27.394 9.155l3.346 4.985c3.946-2.65 15.516-9.178 22.546-8.3 3.013 1.52 15.406 5.843 46-4.644 17.444-5.977 38.113-3.219 45.494-1.92a3 3 0 0 0 3.441-2.286 3 3 0 0 0 -2.386-3.634c-7.925-1.428-29.551-4.327-48.495 2.164z" fill="#4c5b3b"/><path d="m237.8 297.01s-10.9 24.43-8.98 46.15l52.52 29.19c3.46 4.04 5.79 4.97 5.79 4.97l.01.01a12.566 12.566 0 0 0 1.09-1.1 11.854 11.854 0 0 0 2.51-4.66c4.79-17.26 13.28-68.61-52.94-74.56z" fill="#739937"/><path d="m258.308 328.808 5.371-2.676c-6.894-13.84-17.061-24.723-21.582-29.182a3.008 3.008 0 0 0 -4.357.131 3 3 0 0 0 .118 4.129c4.218 4.182 13.999 14.646 20.45 27.598z" fill="#4c5b3b"/><path d="m292.273 396.715a3.543 3.543 0 0 0 1.653 3.933l2.579 1.548a18.27 18.27 0 0 0 2.2-8.813c.025-4.629-1.625-11.571-9.632-18.357a2.558 2.558 0 0 0 -.763-.47c-.019-.008-1.884-.882-4.7-4.166l-4.555 3.906a22.765 22.765 0 0 0 6.425 5.554c7.901 6.85 7.683 13.444 6.793 16.865z" fill="#4c5b3b"/><path d="m273.2 323.91a112.709 112.709 0 0 0 -11.21 1.56c-15.05 2.92-25.31 8.63-32.17 15.69-17.75 18.27-12.81 45.62-9.56 57.31a11.854 11.854 0 0 0 2.51 4.66 12.566 12.566 0 0 0 1.09 1.1 12.216 12.216 0 0 0 3.19 2.01 11.748 11.748 0 0 0 5.26.96c30.4-1.71 43.61-14.14 48.29-28.89a44.538 44.538 0 0 0 1.74-7.96c2.85-22.32-9.14-46.44-9.14-46.44z" fill="#8dc63f"/><path d="m242.677 364.719c-9.255 31.527-19.881 36.69-19.919 36.71a3 3 0 0 0 -.831.5c-10.03 8.5-10.586 17.836-8.922 23.646a3.021 3.021 0 0 0 4.448 1.765 3.02 3.02 0 0 0 1.353-3.433c-.95-3.328-1.416-10.1 6.706-17.148 2.759-1.406 13.65-8.763 22.922-40.35 5.2-17.712 19.386-33.014 24.708-38.3a3 3 0 0 0 .118-4.13 3 3 0 0 0 -4.345-.146c-5.741 5.656-20.594 21.657-26.238 40.886z" fill="#4c5b3b"/><path d="m418.73 70.9a5.04 5.04 0 0 0 -4.92 3.94c-1.41 6.38-4.72 20.38-9.81 39.64v.01c-5.19 19.62-12.22 44.69-21 72.73-6.85 21.86-14.75 45.53-23.67 69.82l-15.37 39.13c-14.2 34.57-30.51 69.99-48.95 102.34a.638.638 0 0 1 -.08.14 484.92 484.92 0 0 1 -31.52 48.84 5.655 5.655 0 0 0 4.51 9.06 23.1 23.1 0 0 0 17.96-8.67q2.1-2.6 4.15-5.27c32.3-42.01 58.35-99.21 78.24-153.89l5.83-17.45c20.39-60.62 34.56-119.98 42.57-158.1 3.55-16.86 5.89-29.57 7.03-36.4a4.762 4.762 0 0 0 .07-.84 5.042 5.042 0 0 0 -5.04-5.03z" fill="#50663a"/><path d="m217.07 427.55a.5.5 0 0 1 -.08-.14c-18.44-32.35-34.75-67.77-48.95-102.34l-15.37-39.13c-8.92-24.29-16.82-47.96-23.67-69.82-8.78-28.04-15.81-53.11-21-72.73-5.09-19.26-8.39-33.26-9.81-39.65a5.042 5.042 0 0 0 -9.96 1.09 4.762 4.762 0 0 0 .07.84c1.14 6.83 3.48 19.54 7.03 36.4 8.01 38.13 22.19 97.49 42.57 158.11l5.83 17.44c19.89 54.68 45.94 111.88 78.24 153.89q2.055 2.67 4.15 5.27a23.1 23.1 0 0 0 17.96 8.67 5.647 5.647 0 0 0 4.51-9.05 486.22 486.22 0 0 1 -31.52-48.85z" fill="#50663a"/><path d="m401 315.95a43.8 43.8 0 0 1 4.94 6.56c3.05 4.84 6.36 11.96 6.3 19.92a27.3 27.3 0 0 1 -3.42 13.06c-5.39 9.9-18.02 19.94-43.7 27.83a3.368 3.368 0 0 1 -4.11-3.12c-6.63-78.33 39.99-64.25 39.99-64.25z" fill="#8dc63f"/><path d="m393.77 93.06a9.343 9.343 0 0 1 -6.82.44c-66.72-21.47-34.03-77.5-34.03-77.5 59.57 4.29 49.55 57.34 46 70.88a9.451 9.451 0 0 1 -3.23 4.99 9.147 9.147 0 0 1 -1.92 1.19z" fill="#8dc63f"/><path d="m377.08 279.86a7.742 7.742 0 0 1 -1.06 3.01 7.966 7.966 0 0 1 -2.19 2.33c-1.41.99-3.3 2.23-5.56 3.52-6.09 3.47-14.89 7.29-24.31 7.45-12.42.22-25.91-5.95-35.65-27.7 23.67-17.47 40.12-17.05 51.02-11.43 7.18 3.7 11.95 9.66 14.77 14.23v.01a43.753 43.753 0 0 1 2.29 4.19 7.718 7.718 0 0 1 .69 4.39z" fill="#739937"/><path d="m134.92 308.76a7.718 7.718 0 0 1 .69-4.39 46.112 46.112 0 0 1 2.29-4.19 38.71 38.71 0 0 1 14.77-14.24c10.9-5.61 27.35-6.04 51.02 11.43-9.74 21.76-23.23 27.92-35.65 27.7-9.42-.16-18.22-3.98-24.31-7.45-2.26-1.29-4.15-2.53-5.56-3.52a7.845 7.845 0 0 1 -2.19-2.33 7.742 7.742 0 0 1 -1.06-3.01z" fill="#8dc63f"/><path d="m118.23 121.96a9.147 9.147 0 0 1 -1.92-1.19 9.451 9.451 0 0 1 -3.23-4.99c-3.55-13.54-13.57-66.59 46-70.88 0 0 32.69 56.03-34.03 77.51a9.348 9.348 0 0 1 -6.82-.45z" fill="#8dc63f"/><path d="m94.15 300.92a10.379 10.379 0 0 1 -.95.57 10.939 10.939 0 0 1 -5.18 1.33h-.05a10.831 10.831 0 0 1 -5.82-1.68 62.112 62.112 0 0 1 -8.46-6.44 57.079 57.079 0 0 1 -6.87-7.42c-10.28-13.39-16.98-35.28.1-68.22 0 0 43.19-1.21 31.92 74.39a11.01 11.01 0 0 1 -4.69 7.47z" fill="#739937"/><path d="m87.97 302.82a10.831 10.831 0 0 1 -5.82-1.68 62.112 62.112 0 0 1 -8.46-6.44 57.079 57.079 0 0 1 -6.87-7.42s-39.72-.52-36.75 50.81c0 0 44.93 8.82 57.95-35.27z" fill="#8dc63f"/><path d="m417.85 272.02a11.009 11.009 0 0 1 -4.69-7.48c-11.27-75.59 31.92-74.38 31.92-74.38 17.08 32.93 10.39 54.82.1 68.21a56.5 56.5 0 0 1 -6.87 7.43 62.112 62.112 0 0 1 -8.46 6.44 10.831 10.831 0 0 1 -5.82 1.68h-.05a10.939 10.939 0 0 1 -5.18-1.33 10.379 10.379 0 0 1 -.95-.57z" fill="#739937"/><path d="m111 344.86s46.62-14.09 39.99 64.24a3.368 3.368 0 0 1 -4.11 3.12c-25.69-7.9-38.32-17.93-43.7-27.83h-.01c-7.03-12.92-1.75-25.59 2.9-32.98a44.414 44.414 0 0 1 4.93-6.55z" fill="#739937"/><path d="m93.69 294.7a57.079 57.079 0 0 1 -6.87-7.42c-9.627-12.539-16.112-32.534-2.871-62.075a29.68 29.68 0 0 0 -17.029-6.145c-17.08 32.94-10.38 54.83-.1 68.22a57.079 57.079 0 0 0 6.87 7.42 63.555 63.555 0 0 0 8.46 6.53 10.932 10.932 0 0 0 5.82 1.77h.05a10.688 10.688 0 0 0 6.13-2.035 11.054 11.054 0 0 0 3.11-3.246c-1.16-.904-2.36-1.919-3.57-3.019z" fill="#517a2a"/><path d="m70.508 291.578a56.26 56.26 0 0 1 -3.688-4.3s-39.72-.52-36.75 50.81a60.182 60.182 0 0 0 19.99-.216c-1.578-28.352 9.907-40.816 20.448-46.294z" fill="#739b34"/><g fill="#4c5b3b"><path d="m82.7 270.055c.631-20.656-6.58-29.984-6.887-30.371a3 3 0 1 0 -4.7 3.731c.061.077 6.153 7.972 5.589 26.456-.592 19.414 12.565 30.986 15.211 33.113l-.673.778c6.5 5.627 18.469 9.582 25.636 11.575-6.208 5.971-11.159 15.391-8.836 29.991 3.02 18.976 18.13 41.863 26.945 51.832a3 3 0 0 0 4.5-3.975c-8.987-10.164-22.845-32.023-25.514-48.8-4.28-26.893 20.451-32.455 21.559-32.69.03-.006.056-.019.085-.026.059-.014.118-.022.178-.04.4-.123 40.35-12.121 58.88-8.03a3 3 0 1 0 1.292-5.86c-19.835-4.37-59.355 7.377-61.823 8.121a40.575 40.575 0 0 0 -11.252 4.832c-3.993-.957-17.921-4.564-25.758-9.968a2.978 2.978 0 0 0 -1.192-2.21c-.14-.103-13.791-10.44-13.24-28.459z"/><path d="m70.811 293.858c-4.821 16.459-31.535 34.753-39.833 40.109a3 3 0 0 0 -.94 4.07 3 3 0 0 0 4.191.984c8.833-5.665 36.889-24.866 42.34-43.475z"/><path d="m106.633 146.064a3 3 0 0 0 4.039-1.3c9.238-17.988 35.225-77.2 35.487-77.8a3 3 0 0 0 -5.5-2.41c-.261.594-26.174 59.64-35.329 77.466a3 3 0 0 0 1.303 4.044z"/><path d="m317.332 274.7c18.518-4.083 58.48 7.909 58.881 8.031.059.017.119.025.178.039.031.008.057.022.088.028 1.058.218 25.86 5.643 21.556 32.688-2.669 16.778-16.527 38.637-25.514 48.8a3 3 0 0 0 4.5 3.975c8.815-9.969 23.925-32.857 26.945-51.832 2.323-14.6-2.629-24.021-8.837-29.992 7.167-1.992 19.135-5.947 25.637-11.575l-.673-.778c2.646-2.126 15.8-13.7 15.21-33.112-.552-18.14 5.477-26.306 5.6-26.473a3 3 0 0 0 -4.712-3.714c-.307.386-7.518 9.715-6.888 30.37.547 17.912-13.1 28.361-13.235 28.459a2.981 2.981 0 0 0 -1.192 2.211c-7.837 5.4-21.768 9.011-25.759 9.967a40.579 40.579 0 0 0 -11.252-4.832c-2.476-.746-41.989-12.493-61.823-8.12a3 3 0 0 0 1.292 5.859z"/><path d="m401.328 115.864a3 3 0 1 0 5.337-2.741c-9.155-17.823-35.065-76.872-35.329-77.466a3 3 0 1 0 -5.5 2.41c.264.596 26.254 59.81 35.492 77.797z"/></g><path d="m359.949 170.03a39.3 39.3 0 0 0 -8.17-1.6c-1.06-.42-45.18-18.36-17.89-49.4l17.47-20.85a.081.081 0 0 1 .14.08c-.95 2.33-2.97 11.58 13.78 29.15 23.52 24.66.33 44.63.33 44.63a58.815 58.815 0 0 0 -5.66-2.01z" fill="#517a2a"/><path d="m360.259 173.029a3 3 0 0 0 2.326-4.892c-8.5-10.465-9.836-34.548-9.848-34.79a3 3 0 0 0 -5.992.306c.054 1.067 1.44 26.279 11.184 38.268a2.99 2.99 0 0 0 2.33 1.108z" fill="#4c5b3b"/><path d="m352.09 168.43a39.3 39.3 0 0 1 8.17 1.6 58.815 58.815 0 0 1 5.66 2.01 105.536 105.536 0 0 1 17.36 9.38c.37.24.74.48 1.1.73-18.49 59.21-62.08 44.97-62.08 44.97 13.49-5.71-11.41-35.85 16.61-55.59 3.78-2.66 8.33-3.48 13.18-3.1z" fill="#8dc63f"/><path d="m341.026 212.785a3 3 0 0 0 3.867-1.741c.389-1.02 9.851-25 38.553-26.631a3 3 0 0 0 -.34-5.99c-32.687 1.852-43.387 29.335-43.827 30.5a3 3 0 0 0 1.747 3.862z" fill="#4c5b3b"/><path d="m468.94 46.54c27.62 31.42-17.43 49.21-17.43 49.21a47.158 47.158 0 0 0 -15 3.61s-23.36-20.65 1.04-44.44c17.96-17.52 14.91-27.03 13.78-29.25a.05.05 0 0 1 .09-.04z" fill="#517a2a"/><path d="m440.972 99.523a3 3 0 0 0 4.22-.436c9.742-11.987 11.15-36.867 11.2-37.92a3 3 0 1 0 -5.991-.315c-.013.238-1.364 23.984-9.87 34.451a3 3 0 0 0 .441 4.22z" fill="#4c5b3b"/><path d="m419.03 108.95c-.03-.1-.07-.21-.1-.32a105.38 105.38 0 0 1 17.58-9.27 47.158 47.158 0 0 1 15-3.61 20 20 0 0 1 12.72 3.29c28.03 19.74 3.12 49.87 16.61 55.59 0 0-43.27 13.16-61.81-45.68z" fill="#8dc63f"/><path d="m418.593 111.923c28.781 1.631 39.262 25.7 39.695 26.73a3 3 0 0 0 5.535-2.316c-.486-1.165-12.278-28.557-44.89-30.4a3 3 0 1 0 -.34 5.99z" fill="#4c5b3b"/><path d="m69.39 125.18a39.815 39.815 0 0 0 -8.49-1.51s-45.46-17.81-17.84-49.23l15.95-19.04c-1.73 3.56-1.71 11.68 15.44 27.42 25.11 23.04 1.04 44.44 1.04 44.44a60.934 60.934 0 0 0 -6.1-2.08z" fill="#739937"/><path d="m63.06 74.44 1.6-1.915c-7.26-9.169-6.954-14.443-5.65-17.125l-15.95 19.04c-27.62 31.42 17.84 49.23 17.84 49.23a39.815 39.815 0 0 1 8.49 1.51 60.934 60.934 0 0 1 6.1 2.08 32.541 32.541 0 0 0 3.812-4.279c-7.812-3.546-40.717-20.699-16.242-48.541z" fill="#517a2a"/><path d="m69.392 128.178a3 3 0 0 0 2.326-4.892c-8.518-10.481-10.11-34.323-10.125-34.562a3 3 0 0 0 -5.993.376c.066 1.055 1.726 26 11.457 37.971a3 3 0 0 0 2.335 1.107z" fill="#4c5b3b"/><path d="m92.97 136.85c-18.54 58.84-61.81 45.68-61.81 45.68 13.49-5.71-11.42-35.84 16.61-55.59 3.78-2.66 8.32-3.55 13.13-3.27a39.815 39.815 0 0 1 8.49 1.51 60.934 60.934 0 0 1 6.1 2.08 105.38 105.38 0 0 1 17.58 9.27c-.03.11-.07.22-.1.32z" fill="#8dc63f"/><path d="m51.16 182.53c13.49-5.71-11.42-35.84 16.61-55.59a17.021 17.021 0 0 1 2.559-1.468c-.313-.093-.626-.2-.939-.292a39.815 39.815 0 0 0 -8.49-1.51c-4.81-.28-9.35.61-13.13 3.27-28.03 19.75-3.12 49.88-16.61 55.59a43.974 43.974 0 0 0 20.514.139c-.335-.085-.514-.139-.514-.139z" fill="#739b34"/><path d="m49.791 168.162a2.993 2.993 0 0 0 3.923-1.614c.105-.25 10.791-25.086 39.693-26.724a3 3 0 1 0 -.34-5.99c-32.612 1.848-44.4 29.24-44.89 30.405a3 3 0 0 0 1.614 3.923z" fill="#4c5b3b"/></svg>