<svg height="512" viewBox="0 0 32 32" width="512" xmlns="http://www.w3.org/2000/svg"><g id="Layer_2" data-name="Layer 2"><path d="m29 12h-26a1 1 0 0 0 -1 1v13a3 3 0 0 0 3 3h22a3 3 0 0 0 3-3v-13a1 1 0 0 0 -1-1z" fill="#f9eab0"/><g fill="#9e6351"><path d="m29.99 10.862a8.883 8.883 0 0 0 -3.355-5.631 10.144 10.144 0 0 0 -6.665-2.231 1.013 1.013 0 0 0 -.438.116l-17 9a1 1 0 0 0 .468 1.884h26a1 1 0 0 0 .99-.86 8.077 8.077 0 0 0 0-2.278z"/><path d="m2 17h28v2h-28z"/><path d="m2 22h28v2h-28z"/></g></g></svg>