<svg id="Capa_1" enable-background="new 0 0 512 512" height="512" viewBox="0 0 512 512" width="512" xmlns="http://www.w3.org/2000/svg"><g><path d="m422 117.876v-87.876c0-16.569-13.431-30-30-30-33.137 0-60 26.863-60 60l-196 196 60 256h256z" fill="#ffd23e"/><path d="m467 120c-16.192 0-31.029-.701-45-2.124v364.124c0 16.569 13.431 30 30 30s30-13.431 30-30v-362z" fill="#feb33c"/><path d="m90 256v211c0 24.813 20.187 45 45 45h61v-256z" fill="#ffe376"/><path d="m196 0-75 211.568 75 211.568c36.79 14.551 76.384 28.864 151 28.864h15v-422c0-16.569 13.431-30 30-30z" fill="#ffe376"/><path d="m75 0c-24.813 0-45 20.187-45 45v347h15c72.629 0 108.007 14.057 145.461 28.94 1.841.732 3.688 1.464 5.539 2.196v-423.136z" fill="#fff0bf"/><path d="m90 302h30v30h-30z" fill="#ffe376"/><path d="m150 242h30v30h-30z" fill="#ffe376"/><path d="m272 60h30v30h-30z" fill="#ffd23e"/></g></svg>