<?xml version="1.0" encoding="iso-8859-1"?>
<!-- Generator: Adobe Illustrator 19.0.0, SVG Export Plug-In . SVG Version: 6.00 Build 0)  -->
<svg version="1.1" id="Capa_1" xmlns="http://www.w3.org/2000/svg" xmlns:xlink="http://www.w3.org/1999/xlink" x="0px" y="0px"
	 viewBox="0 0 512 512" style="enable-background:new 0 0 512 512;" xml:space="preserve">
<g>
	<ellipse style="fill:#FFC107;" cx="256" cy="336" rx="192" ry="96"/>
	<path style="fill:#FFC107;" d="M48,384c-8.832,0-16-7.168-16-16V80c0-8.832,7.168-16,16-16s16,7.168,16,16v288
		C64,376.832,56.832,384,48,384z"/>
	<path style="fill:#FFC107;" d="M112,291.52c-8.832,0-16-7.168-16-16V80c0-8.832,7.168-16,16-16s16,7.168,16,16v195.52
		C128,284.352,120.832,291.52,112,291.52z"/>
</g>
<g>
	<path style="fill:#FFD54F;" d="M464,384c-8.832,0-16-7.168-16-16c0-60.704-87.936-112-192-112S64,307.296,64,368
		c0,8.832-7.168,16-16,16s-16-7.168-16-16c0-80.736,98.4-144,224-144s224,63.264,224,144C480,376.832,472.832,384,464,384z"/>
	<path style="fill:#FFD54F;" d="M400,384c-8.832,0-16-7.168-16-16c0-19.552-49.888-48-128-48c-78.144,0-128,28.448-128,48
		c0,8.832-7.168,16-16,16s-16-7.168-16-16c0-45.6,68.768-80,160-80s160,34.4,160,80C416,376.832,408.832,384,400,384z"/>
</g>
<path style="fill:#CFD8DC;" d="M166.304,128H16c-8.832,0-16-7.168-16-16s7.168-16,16-16h150.304c3.168,0,6.24-0.928,8.864-2.688
	l31.872-21.248c7.936-5.28,17.152-8.064,26.656-8.064H496c8.832,0,16,7.168,16,16s-7.168,16-16,16H233.696
	c-3.168,0-6.24,0.928-8.896,2.688l-31.872,21.248C185.024,125.216,175.808,128,166.304,128z"/>
<path style="fill:#ECEFF1;" d="M496,352H16c-7.808,0-14.432,5.664-15.744,13.376c-1.312,7.68,3.2,15.232,10.592,17.792
	C12.384,383.68,48,396.448,48,432c0,8.832,7.168,16,16,16h384c8.832,0,16-7.168,16-16c0-35.552,35.616-48.32,37.056-48.8
	c7.424-2.496,12-10.016,10.72-17.76C510.528,357.696,503.84,352,496,352z"/>
<g>
</g>
<g>
</g>
<g>
</g>
<g>
</g>
<g>
</g>
<g>
</g>
<g>
</g>
<g>
</g>
<g>
</g>
<g>
</g>
<g>
</g>
<g>
</g>
<g>
</g>
<g>
</g>
<g>
</g>
</svg>
