<svg id="Tofu" enable-background="new 0 0 64 64" height="512" viewBox="0 0 64 64" width="512" xmlns="http://www.w3.org/2000/svg"><g><g><path d="m20.4 8.5c2.6 2.8 2.6 5.7 2.2 7.4-.2 1-1 1.7-1.9 1.8-1.7.2-4.7 0-7.2-2.7-2.6-2.8-2.6-5.7-2.2-7.4.2-1 1-1.7 1.9-1.8 1.7-.3 4.6-.1 7.2 2.7z" fill="#66a53d"/><path d="m22.7 8.5c-2.6 2.8-2.6 5.7-2.2 7.4.2 1 1 1.7 1.9 1.8 1.7.2 4.7 0 7.2-2.7 2.6-2.8 2.6-5.7 2.2-7.4-.2-1-1-1.7-1.9-1.8-1.7-.3-4.6-.1-7.2 2.7z" fill="#80d34a"/></g><g><path d="m50.9 52.8h-37.8c-1.6 0-2.9-1.3-2.9-2.9v-30.6c0-1.6 1.3-2.9 2.9-2.9h37.9c1.6 0 2.9 1.3 2.9 2.9v30.6c0 1.6-1.3 2.9-3 2.9z" fill="#ffec9c"/><g fill="#fcdd5e"><circle cx="17.5" cy="25.9" r="1.3"/><circle cx="44.4" cy="23.7" r="1.3"/><circle cx="35.6" cy="34.8" r="1.3"/><circle cx="46.4" cy="39.8" r="1.3"/><circle cx="19.4" cy="38.4" r="1.3"/></g></g><path d="m63.7 49.8s0 .1 0 0c-3.4 5.4-9.4 8.5-15.6 8.5h-32.3c-6.2 0-12.2-3.1-15.5-8.4 0 0 0-.1-.1-.1-.7-1.2.1-2.6 1.4-2.6h60.6c1.5 0 2.2 1.5 1.5 2.6z" fill="#272728"/></g></svg>