<svg id="Capa_1" enable-background="new 0 0 512 512" height="512" viewBox="0 0 512 512" width="512" xmlns="http://www.w3.org/2000/svg"><g><path d="m256 512h120v-90l-130-10z" fill="#d10050"/><path d="m136 422v90h120v-100z" fill="#ff415b"/><path d="m246 382 10 40h120v-30z" fill="#ff415b"/><path d="m256 382-120 10v30h120z" fill="#ff8859"/><path d="m376 264.25c0-27.407-9.056-54.575-25.5-76.5-12.575-16.766-19.5-37.542-19.5-58.5v-39.25l-85-10 10 312h120z" fill="#ece6f2"/><path d="m181 90v39.25c0 20.958-6.925 41.734-19.5 58.5-16.444 21.925-25.5 49.093-25.5 76.5v127.75h120v-312z" fill="#fff5f5"/><path d="m271 242v-45h-15l-10 45z" fill="#24b3b3"/><path d="m241 197h15v45h-15z" fill="#2ee6a8"/><path d="m331 60-85-10 10 40h75z" fill="#d10050"/><path d="m316 287c0-33.084-26.916-60-60-60l-10 60 10 60c33.084 0 60-26.916 60-60z" fill="#d10050"/><g fill="#ff415b"><path d="m196 287c0 33.084 26.916 60 60 60v-120c-33.084 0-60 26.916-60 60z"/><path d="m181 60v30h75v-40z"/><path d="m331 15h-85l10 45h75z"/></g><path d="m181 15h75v45h-75z" fill="#ff8859"/><path d="m361 0h-105l-10 15 10 15h105z" fill="#d10050"/><path d="m151 0h105v30h-105z" fill="#ff415b"/></g></svg>