<svg height="474pt" viewBox="-5 0 474 474.49601" width="474pt" xmlns="http://www.w3.org/2000/svg"><path d="m120.246094 90.496094h96c66.277344 0 120 53.726562 120 120 0 66.273437-53.722656 120-120 120h-96c-66.273438 0-120-53.726563-120-120 0-66.273438 53.726562-120 120-120zm0 0" fill="#e94f4f"/><path d="m297.175781 122.078125c-36 114.953125-197.878906 152.800781-270.039062 164.058594 22.75 28.082031 56.96875 44.386719 93.109375 44.359375h96c49.507812.050781 93.949218-30.335938 111.871094-76.480469 17.917968-46.148437 5.625-98.566406-30.941407-131.9375zm0 0" fill="#e04646"/><path d="m70.648438 147.753906-9.921876-12.53125c4.945313-3.914062 10.257813-7.335937 15.867188-10.222656l7.308594 14.238281c-4.683594 2.402344-9.121094 5.253907-13.253906 8.515625zm0 0" fill="#f26666"/><path d="m25.847656 227.953125c-5.089844-27.601563 2.15625-56.046875 19.824219-77.847656l12.433594 10.078125c-14.730469 18.164062-20.765625 41.863281-16.519531 64.855468zm0 0" fill="#f26666"/><path d="m160.40625 92.097656c-5.507812-27.578125-3.730469-56.113281 5.152344-82.792968l3.097656-9.304688 15.199219 5.054688-3.101563 9.304687c-8 24.019531-9.605468 49.707031-4.664062 74.535156zm0 0" fill="#51803d"/><path d="m168.246094 98.496094c-39.746094-.042969-71.953125-32.253906-72-72h16c0 30.929687 25.074218 56 56 56 30.929687 0 56-25.070313 56-56h16c-.042969 39.746094-32.25 71.957031-72 72zm0 0" fill="#5f9548"/><path d="m168.246094 98.496094c-22.804688 0-40-30.953125-40-72h16c0 32.054687 12.675781 56 24 56 11.328125 0 24-23.945313 24-56h16c0 41.046875-17.191406 72-40 72zm0 0" fill="#5f9548"/><path d="m248.246094 234.496094h96c66.277344 0 120 53.726562 120 120 0 66.273437-53.722656 120-120 120h-96c-66.273438 0-120-53.726563-120-120 0-66.273438 53.726562-120 120-120zm0 0" fill="#d43d3d"/><path d="m344.246094 474.496094h-96c-66.273438 0-120-53.726563-120-120-.007813-46.351563 26.675781-88.566406 68.554687-108.441406 25.253907-11.789063 54.84375-9.46875 77.953125 6.113281 13.015625 8.671875 29.972656 8.671875 42.988282 0 23.109374-15.582031 52.699218-17.902344 77.953124-6.113281 41.878907 19.875 68.5625 62.089843 68.550782 108.441406 0 66.273437-53.722656 120-120 120zm0 0" fill="#e94f4f"/><path d="m395.695312 246.054688c-3.382812-1.585938-6.882812-2.925782-10.464843-4-8.984375 128.441406-80.984375 200.441406-168.984375 228 10.417968 2.917968 21.183594 4.414062 32 4.441406h96c56.140625.027344 104.796875-38.867188 117.128906-93.632813 12.335938-54.769531-14.949219-110.765625-65.679688-134.808593zm0 0" fill="#e04646"/><path d="m280.246094 353.113281c.039062-25.835937-12.8125-49.988281-34.261719-64.394531l-.335937-.222656c-5.726563-3.894532-12.484376-5.984375-19.410157-6-4.726562-.023438-9.398437 1.023437-13.664062 3.0625-36.414063 17.679687-53.460938 60.113281-39.398438 98.074218 12.070313 31.007813 42.105469 51.273438 75.375 50.863282 8.449219-.035156 16.535157-3.429688 22.480469-9.429688 5.945312-6.003906 9.261719-14.121094 9.214844-22.570312zm0 0" fill="#f26666"/><path d="m379.921875 285.558594c-4.265625-2.039063-8.9375-3.085938-13.664063-3.0625-6.933593.019531-13.699218 2.113281-19.433593 6.007812l-.3125.214844c-21.449219 14.410156-34.296875 38.5625-34.265625 64.402344v49.375c-.042969 8.449218 3.273437 16.566406 9.21875 22.570312 5.945312 6 14.03125 9.394532 22.480468 9.429688 33.269532.414062 63.308594-19.855469 75.375-50.863282 14.066407-37.960937-2.980468-80.394531-39.398437-98.074218zm0 0" fill="#f26666"/><g fill="#ffb531"><path d="m216.246094 346.496094h24v16h-24zm0 0"/><path d="m215.09375 321.707031 6.910156-14.421875 21.699219 10.398438-6.910156 14.421875zm0 0"/><path d="m215.089844 387.285156 21.699218-10.402344 6.914063 14.417969-21.699219 10.402344zm0 0"/><path d="m352.246094 346.496094h24v16h-24zm0 0"/><path d="m348.792969 317.679688 21.699219-10.40625 6.910156 14.421874-21.699219 10.402344zm0 0"/><path d="m348.789062 391.304688 6.910157-14.421876 21.703125 10.398438-6.910156 14.421875zm0 0"/></g></svg>