<svg height="512" viewBox="0 0 512 512" width="512" xmlns="http://www.w3.org/2000/svg"><g id="Flat"><path d="m440 231.08a947.725 947.725 0 0 1 -5.97 106.18l-9.77 86.74-1.8 16-3.44 30.46a19.91 19.91 0 0 1 -19.88 17.54h-110.28a19.9 19.9 0 0 1 -19.88-17.54l-3.44-30.46-1.8-16-9.78-86.74a947.673 947.673 0 0 1 -.33-209.26q3.5-32.115 9.21-64h162.32q5.7 31.86 9.21 64a946.8 946.8 0 0 1 5.63 103.08z" fill="#f2f2f2"/><path d="m440 231.08a947.725 947.725 0 0 1 -5.97 106.18l-9.77 86.74-1.8 16-3.44 30.46a19.91 19.91 0 0 1 -19.88 17.54h-110.28a19.9 19.9 0 0 1 -19.88-17.54l-3.44-30.46-1.8-16-9.78-86.74a947.673 947.673 0 0 1 -.33-209.26h180.74a946.8 946.8 0 0 1 5.63 103.08z" fill="#e0e0de"/><path d="m422.46 440-3.44 30.46a19.91 19.91 0 0 1 -19.88 17.54h-110.28a19.9 19.9 0 0 1 -19.88-17.54l-3.44-30.46z" fill="#f2f2f2"/><path d="m216 455.96a32.034 32.034 0 0 1 -32.04 32.04h-79.92a32.034 32.034 0 0 1 -32.04-32.04v-.83a122.738 122.738 0 0 1 3.67-29.81 122.788 122.788 0 0 0 3.55-35.15l-.61-14.17-4.63-106.57c-.08-1.81-.13-3.62-.16-5.43-.03-1.26-.04-2.53-.04-3.79a211.178 211.178 0 0 1 15.11-78.43q2.73-6.81 4.96-13.78a211.13 211.13 0 0 0 10.15-64.69v-71.31a8 8 0 0 1 8-8h64a8 8 0 0 1 8 8v71.31a211.019 211.019 0 0 0 10.15 64.69q2.235 6.975 4.96 13.78a211.1 211.1 0 0 1 15.07 82.22c-.03 1.81-.08 3.62-.16 5.43l-4.63 106.57-.61 14.17q-.12 2.685-.12 5.37a122.9 122.9 0 0 0 3.75 30.11 123.259 123.259 0 0 1 3.59 30.31z" fill="#e0e0de"/><path d="m216 455.96a32.034 32.034 0 0 1 -32.04 32.04h-36.35a32.042 32.042 0 0 0 32.04-32.04 123.259 123.259 0 0 0 -3.59-30.31 122.9 122.9 0 0 1 -3.75-30.11q0-2.685.12-5.37l.61-14.17 4.63-106.57c.08-1.81.13-3.62.16-5.43a211.1 211.1 0 0 0 -15.07-82.22q-2.73-6.81-4.96-13.78a211.019 211.019 0 0 1 -10.15-64.69v-71.31a8 8 0 0 0 -8-8h36.35a8 8 0 0 1 8 8v71.31a211.019 211.019 0 0 0 10.15 64.69q2.235 6.975 4.96 13.78a211.1 211.1 0 0 1 15.07 82.22c-.03 1.81-.08 3.62-.16 5.43l-4.63 106.57-.61 14.17q-.12 2.685-.12 5.37a122.9 122.9 0 0 0 3.75 30.11 123.259 123.259 0 0 1 3.59 30.31z" fill="#dbdbd9"/><path d="m119.9 240-15.9-1.8a186.776 186.776 0 0 1 12.208-48.4l14.855 5.943a170.816 170.816 0 0 0 -11.163 44.257z" fill="#ebebe9"/><rect fill="#ebebe9" height="16" rx="8" width="56" x="128" y="48"/><path d="m194.15 168h-100.3a211.13 211.13 0 0 0 10.15-64.69v-15.31h80v15.31a211.019 211.019 0 0 0 10.15 64.69z" fill="#f4d331"/><path d="m214.18 264c-.03 1.81-.08 3.62-.16 5.43l-4.63 106.57h-130.78l-4.63-106.57c-.08-1.81-.13-3.62-.16-5.43z" fill="#f4d331"/><path d="m194.15 168h-36.35a211.019 211.019 0 0 1 -10.15-64.69v-15.31h36.35v15.31a211.019 211.019 0 0 0 10.15 64.69z" fill="#f0cd22"/><path d="m214.18 264c-.03 1.81-.08 3.62-.16 5.43l-4.63 106.57h-36.35l4.63-106.57c.08-1.81.13-3.62.16-5.43z" fill="#f0cd22"/><path d="m104 296h80v16h-80z" fill="#ddbc13"/><path d="m112 328h64v16h-64z" fill="#ddbc13"/><g fill="#ebebe9"><path d="m280 302.059h48v48h-48z" transform="matrix(.707 -.707 .707 .707 -141.519 310.461)"/><path d="m360 256h48v48h-48z"/><path d="m344 360h48v48h-48z"/></g><path d="m301.49 264a63.982 63.982 0 0 1 -5.1-84.761 62.765 62.765 0 0 1 5.1-5.749 63.935 63.935 0 0 1 41-18.611 64.381 64.381 0 0 1 15.974.941 63.676 63.676 0 0 1 33.536 17.67z" fill="#fadb41"/><path d="m283.247 226.75a64.091 64.091 0 0 1 -.007-16h44.336l-31.184-31.509a62.765 62.765 0 0 1 5.1-5.749 63.59 63.59 0 0 1 6.272-5.508l32.047 32.385 2.679-45.488a64.381 64.381 0 0 1 15.974.941l-3.2 54.412-16.523 16.516z" fill="#ffe978"/></g></svg>