<svg id="Capa_1" enable-background="new 0 0 512 512" height="512" viewBox="0 0 512 512" width="512" xmlns="http://www.w3.org/2000/svg"><g><g><g><path d="m237.379 157.855c-.237 43.146-13.075 81.467-32.82 105.818-2.076 2.56-5.997 2.538-8.044-.044-19.476-24.568-31.891-63.028-31.653-106.174.237-43.145 13.075-81.494 32.82-105.849 2.076-2.56 5.997-2.539 8.044.044 19.476 24.572 31.89 63.06 31.653 106.205z" fill="#1ec186"/><path d="m205.729 51.652c19.475 24.569 31.887 63.063 31.65 106.201-.237 43.152-13.072 81.464-32.816 105.817-2.076 2.56-6.002 2.546-8.049-.037-3.74-4.719-7.215-9.947-10.397-15.624 13.643-23.738 22.057-55.46 22.256-90.315.185-34.856-7.886-66.675-21.261-90.57 3.243-5.642 6.783-10.838 10.575-15.516 2.075-2.56 5.994-2.539 8.042.044z" fill="#1eb07c"/></g><g><path d="m154.061 161.866c30.341 30.676 48.36 66.851 51.617 98.032.342 3.278-2.445 6.035-5.719 5.657-31.143-3.6-67.118-22.017-97.458-52.694-30.34-30.676-48.38-66.87-51.639-98.054-.343-3.278 2.445-6.036 5.72-5.657 31.145 3.604 67.139 22.04 97.479 52.716z" fill="#27e19d"/><path d="m56.584 109.149c31.144 3.602 67.14 22.045 97.475 52.716 30.345 30.681 48.36 66.847 51.619 98.028.342 3.278-2.444 6.044-5.718 5.665-5.982-.692-12.135-1.931-18.4-3.697-7.138-26.433-23.619-54.812-48.125-79.6-24.516-24.777-52.723-41.57-79.076-49.009-1.696-6.283-2.867-12.46-3.494-18.449-.342-3.277 2.445-6.032 5.719-5.654z" fill="#26d192"/></g></g><g><g><g><path d="m512 248.737c0 6.24-6.241 12.072-6.916 18.132-.689 6.186 4.1 13.252 2.745 19.212-1.376 6.056-8.76 10.353-10.783 16.135-2.047 5.85 1.039 13.81-1.628 19.338-2.688 5.572-10.845 8.111-14.121 13.313-3.292 5.228-2.057 13.678-5.898 18.488-3.85 4.822-12.366 5.487-16.724 9.845s-5.024 12.873-9.845 16.723c-4.81 3.841-13.26 2.606-18.488 5.898-5.202 3.275-7.74 11.432-13.312 14.12-5.528 2.667-13.488-.419-19.337 1.628-5.782 2.023-10.079 9.406-16.135 10.782-5.96 1.355-13.025-3.434-19.212-2.745-6.06.675-11.892 6.916-18.132 6.916s-12.072-6.241-18.132-6.916c-6.186-.689-13.252 4.1-19.212 2.745-6.056-1.376-10.353-8.76-16.135-10.783-5.85-2.047-13.81 1.039-19.338-1.628-5.572-2.688-8.111-10.845-13.313-14.121-5.228-3.292-13.678-2.057-18.488-5.898-4.822-3.85-5.487-12.366-9.845-16.724s-12.873-5.024-16.723-9.845c-3.841-4.81-2.606-13.26-5.898-18.488-3.275-5.202-11.432-7.74-14.12-13.312-2.667-5.528.419-13.488-1.628-19.337-2.023-5.782-9.406-10.079-10.782-16.135-1.355-5.96 3.434-13.025 2.745-19.212-.675-6.06-6.916-11.892-6.916-18.132s6.241-12.072 6.916-18.132c.689-6.186-4.1-13.252-2.745-19.212 1.376-6.056 8.76-10.353 10.783-16.135 2.047-5.85-1.039-13.81 1.628-19.338 2.688-5.572 10.845-8.111 14.121-13.313 3.292-5.228 2.057-13.678 5.898-18.488 3.85-4.822 12.366-5.487 16.724-9.845s5.024-12.873 9.845-16.723c4.81-3.841 13.26-2.606 18.488-5.898 5.202-3.275 7.74-11.432 13.312-14.12 5.528-2.667 13.488.419 19.337-1.628 5.782-2.023 10.079-9.406 16.135-10.782 5.96-1.355 13.025 3.434 19.212 2.745 6.06-.675 11.892-6.916 18.132-6.916s12.072 6.241 18.132 6.916c6.186.689 13.252-4.1 19.212-2.745 6.056 1.376 10.353 8.76 16.135 10.783 5.85 2.047 13.81-1.039 19.338 1.628 5.572 2.688 8.111 10.845 13.313 14.121 5.228 3.292 13.678 2.057 18.488 5.898 4.822 3.85 5.487 12.366 9.845 16.724s12.873 5.024 16.723 9.845c3.841 4.81 2.606 13.26 5.898 18.488 3.275 5.202 11.432 7.74 14.12 13.312 2.667 5.528-.419 13.488 1.628 19.337 2.023 5.782 9.406 10.079 10.782 16.135 1.355 5.96-3.434 13.025-2.745 19.212.675 6.06 6.916 11.892 6.916 18.132z" fill="#554e55"/><g fill="#433f43"><path d="m352.531 321.364c3.662-4.4 5.623-9.022 5.623-13.79 0-29.586-75.12-53.57-167.786-53.57-4.243 0-8.448.051-12.612.15 1.871 4.273 5.113 8.437 5.589 12.714.689 6.186-4.1 13.252-2.745 19.212 1.376 6.056 8.759 10.353 10.782 16.135 2.047 5.85-1.039 13.81 1.628 19.337 2.688 5.572 10.845 8.11 14.12 13.312 3.292 5.228 2.057 13.678 5.898 18.488 3.85 4.822 12.366 5.487 16.723 9.845 4.358 4.358 5.024 12.874 9.845 16.724 4.81 3.841 13.26 2.607 18.488 5.898 5.202 3.275 7.74 11.432 13.313 14.121 5.528 2.667 13.488-.419 19.338 1.628 5.782 2.023 10.079 9.406 16.135 10.783 4.996 1.136 10.767-2.035 16.148-2.688 2.088-4.875 1.66-11.556 4.432-15.96 3.275-5.202 11.432-7.74 14.121-13.313 2.667-5.528-.419-13.488 1.628-19.338 2.023-5.782 9.406-10.079 10.783-16.135 1.355-5.96-3.434-13.026-2.745-19.212.163-1.457.652-2.901 1.294-4.341z"/><path d="m507.825 286.081c-1.369 6.054-8.76 10.358-10.782 16.129-2.043 5.858 1.043 13.814-1.63 19.346-2.685 5.565-10.836 8.108-14.118 13.314-3.293 5.228-2.054 13.673-5.891 18.487-3.858 4.815-12.368 5.489-16.727 9.847-4.358 4.347-5.021 12.868-9.847 16.716-4.815 3.847-13.26 2.608-18.487 5.902-5.206 3.271-7.738 11.434-13.314 14.118-5.521 2.663-13.488-.424-19.335 1.63-5.782 2.022-10.075 9.401-16.14 10.782-5.956 1.359-13.021-3.434-19.205-2.75-6.065.674-11.89 6.923-18.14 6.923-5.771 0-11.195-5.347-16.781-6.684.446-.109.891-.185 1.348-.239 6.184-.685 13.249 4.108 19.216 2.75 6.054-1.38 10.347-8.76 16.129-10.782 5.847-2.054 13.814 1.033 19.335-1.63 5.576-2.685 8.108-10.847 13.314-14.118 5.228-3.293 13.684-2.054 18.487-5.902 4.826-3.848 5.489-12.368 9.847-16.716 4.358-4.358 12.868-5.032 16.727-9.847 3.837-4.815 2.598-13.26 5.891-18.487 3.282-5.206 11.434-7.749 14.129-13.314 2.663-5.532-.424-13.488 1.619-19.346 2.032-5.771 9.412-10.075 10.782-16.129 1.359-5.956-3.434-13.031-2.739-19.216.674-6.054 6.912-11.89 6.912-18.129s-6.239-12.075-6.912-18.129c-.696-6.184 4.097-13.249 2.739-19.216-1.369-6.054-8.749-10.347-10.782-16.129-2.043-5.858 1.043-13.814-1.619-19.346-2.695-5.565-10.847-8.108-14.129-13.303-3.282-5.228-2.054-13.684-5.891-18.487-3.847-4.826-12.368-5.489-16.727-9.847-4.358-4.358-5.021-12.879-9.847-16.727-4.804-3.837-13.26-2.608-18.487-5.902-5.195-3.271-7.738-11.434-13.314-14.118-5.521-2.663-13.488.424-19.335-1.63-5.782-2.022-10.075-9.401-16.129-10.782-5.967-1.348-13.031 3.434-19.216 2.75-.457-.054-.902-.13-1.348-.239 5.586-1.337 11.01-6.684 16.781-6.684 6.249 0 12.075 6.249 18.14 6.923 6.184.685 13.249-4.097 19.205-2.75 6.065 1.38 10.358 8.76 16.14 10.782 5.847 2.054 13.814-1.033 19.335 1.63 5.576 2.685 8.108 10.847 13.314 14.118 5.228 3.293 13.684 2.065 18.487 5.902 4.826 3.848 5.489 12.368 9.847 16.727s12.868 5.021 16.727 9.847c3.837 4.804 2.598 13.26 5.891 18.487 3.282 5.195 11.434 7.738 14.118 13.303 2.674 5.532-.413 13.488 1.63 19.346 2.022 5.782 9.412 10.075 10.782 16.129 1.359 5.967-3.435 13.031-2.739 19.216.674 6.054 6.912 11.89 6.912 18.129s-6.239 12.075-6.912 18.129c-.696 6.184 4.098 13.26 2.739 19.216z"/></g></g><g><g><path d="m328.654 312.646c.162-1.458.651-2.902 1.293-4.342 3.661-4.4 5.623-9.022 5.623-13.79 0-29.586-75.12-53.57-167.785-53.57s-167.785 23.985-167.785 53.571c0 4.768 1.962 9.39 5.623 13.79.642 1.44 1.131 2.884 1.293 4.342.689 6.186-4.1 13.252-2.745 19.212 1.376 6.056 8.759 10.353 10.782 16.135 2.047 5.85-1.039 13.81 1.628 19.337 2.688 5.572 10.845 8.11 14.12 13.312 3.292 5.228 2.057 13.678 5.898 18.488 3.85 4.822 12.366 5.487 16.723 9.845 4.358 4.358 5.024 12.874 9.845 16.724 4.81 3.841 13.26 2.607 18.488 5.898 5.202 3.275 7.74 11.432 13.313 14.121 5.528 2.667 13.488-.419 19.338 1.628 5.782 2.023 10.079 9.406 16.135 10.783 5.96 1.355 13.026-3.434 19.212-2.745 6.06.675 11.892 6.916 18.132 6.916s12.072-6.241 18.132-6.916c6.186-.689 13.252 4.1 19.212 2.745 6.056-1.376 10.353-8.759 16.135-10.782 5.85-2.047 13.81 1.039 19.337-1.628 5.572-2.688 8.11-10.845 13.312-14.12 5.228-3.292 13.678-2.057 18.488-5.898 4.822-3.85 5.487-12.366 9.845-16.723s12.873-5.024 16.724-9.845c3.841-4.81 2.607-13.26 5.898-18.488 3.275-5.202 11.432-7.74 14.121-13.313 2.667-5.528-.419-13.488 1.628-19.338 2.023-5.782 9.406-10.079 10.783-16.135 1.354-5.962-3.435-13.027-2.746-19.214z" fill="#685e67"/><path d="m331.395 331.859c-1.369 6.054-8.76 10.347-10.782 16.129-2.043 5.858 1.043 13.814-1.63 19.346-2.685 5.565-10.836 8.108-14.118 13.314-3.293 5.228-2.054 13.673-5.891 18.487-3.858 4.815-12.368 5.478-16.727 9.836-4.358 4.358-5.021 12.879-9.847 16.727-4.815 3.847-13.26 2.608-18.487 5.902-5.206 3.271-7.738 11.434-13.314 14.118-5.521 2.663-13.488-.424-19.335 1.63-5.782 2.022-10.075 9.401-16.14 10.782-5.956 1.348-13.021-3.434-19.205-2.75-1.641.185-3.25.772-4.869 1.532 4.576-2.576 8.336-7.891 13.107-9.564 5.858-2.054 13.814 1.033 19.346-1.63 5.565-2.685 8.108-10.847 13.303-14.118 5.228-3.293 13.684-2.054 18.487-5.902 4.826-3.848 5.489-12.368 9.847-16.727 4.358-4.358 12.879-5.021 16.727-9.836 3.837-4.815 2.608-13.26 5.902-18.487 3.271-5.206 11.434-7.749 14.118-13.314 2.663-5.532-.424-13.488 1.63-19.346 2.022-5.782 9.401-10.075 10.782-16.129 1.348-5.956-3.434-13.031-2.75-19.216.163-1.456.652-2.902 1.293-4.337 3.663-4.402 5.63-9.021 5.63-13.792 0-18.835-30.454-38.051-76.504-49.506 60.821 8.043 103.599 27.182 103.599 49.506 0 4.771-1.956 9.39-5.619 13.792-.641 1.435-1.13 2.88-1.293 4.337-.694 6.185 4.099 13.26 2.74 19.216z" fill="#554e55"/><g><path d="m301.95 297.54c-5.55 4.45-16.79 11.02-36.73 17.06-1.69.51-3.4 1.01-5.14 1.49l-7.74-3.28-7.44 6.97c-21.32 4.53-45.62 7.13-70.67 7.51l-6.44-5.14-18.98 4.76c-22.44-1.01-43.95-3.81-62.89-8.18l-5.12-7.69-9.85 3.74h-.01c-.2-.06-.39-.12-.59-.18-19.94-6.04-31.18-12.61-36.73-17.06 5.55-4.45 16.79-11.02 36.73-17.07 19.44-5.89 42.73-9.89 67.53-11.68l6.78 5.78 12.08-6.69c3.67-.1 7.35-.15 11.05-.15 18.03 0 35.78 1.15 52.42 3.35l.01.01 10.73 7.89 6.55-5.15c7.92 1.46 15.47 3.18 22.58 5.15l3.7 7.49 13.6-1.87c12.55 4.77 20.27 9.49 24.57 12.94z" fill="#fcf5ec"/><path d="m301.95 297.53c-5.55 4.45-16.79 11.03-36.73 17.07-1.68.51-3.4 1.01-5.14 1.49l-7.74-3.28-7.44 6.97c-21.32 4.54-45.63 7.14-70.68 7.52l.01-.01-6.44-5.14-18.98 4.76.01.01c-22.44-1.01-43.96-3.82-62.9-8.19l-5.12-7.69-9.85 3.74h-.01c-.2-.06-.39-.12-.59-.18-19.94-6.04-31.18-12.62-36.72-17.07 3.13-2.51 8.09-5.7 15.42-9.08 5.62 2.6 12.64 5.33 21.3 7.95 27.11 8.22 61.71 12.74 97.44 12.74 35.72 0 70.33-4.52 97.43-12.74 8.66-2.62 15.68-5.35 21.3-7.95 7.33 3.38 12.29 6.57 15.43 9.08z" fill="#f8e0c1"/></g></g><g fill="#fbcc85"><path d="m153.044 284.103c1.657 4.531 4.069 10.024 2.534 16.225-.855 3.451-2.988 6.253-6.171 8.087-6.964 4.018-18.945 3.245-38.838-2.514-6.428-1.865-11.569-1.566-15.752.896-5.233 3.091-7.881 9.076-8.89 11.94-5.202-1.205-10.219-2.524-14.989-3.956 1.442-4.626 5.738-15.216 16.03-21.294 7.932-4.677 17.317-5.491 27.897-2.431 16.545 4.79 23.313 4.656 25.703 4.265-.247-1.473-1.082-3.534-1.844-5.408-2.081-5.151-5.326-13.125-.845-21.119 6.212-.443 12.506-.752 18.863-.917-1.449 1.262-7.932 4.645-3.698 16.226z"/><path d="m237.045 290.295c-1.751 3.977-5.738 9.272-14.814 11.919-10.858 3.183-19.666 1.483-26.094.247-2.957-.577-6.006-1.154-7.386-.783-1.246.35-2.575 3.142-3.091 4.327-3.791 8.767-7.18 16.091-11.425 21.284-2.143.031-4.296.051-6.449.051-6.377 0-12.712-.144-18.976-.433 13.893-6.124 18.595-17.616 22.664-27.032 7.149-16.524 18.955-14.258 27.588-12.589 5.676 1.092 11.559 2.225 18.832.103 2.689-.793 4.368-1.896 4.996-3.297.989-2.174-.021-5.748-.67-7.139-.742-1.483-1.535-3.657-2.009-5.872 5.924.783 11.703 1.7 17.297 2.74 1.185 3.875 2.277 10.262-.463 16.474z"/><path d="m277.376 284.598c-1.308 1.205-2.699 2.287-3.76 3.111-13.279 10.333-13.701 24.426-13.537 28.381-4.852 1.35-9.921 2.575-15.175 3.688-.031-.268-.062-.505-.093-.731-.124-.989-2.689-22.963 15.267-40.064 1.741.474 3.461.968 5.141 1.483 4.482 1.361 8.521 2.741 12.157 4.132z"/></g></g></g><path d="m396.505 319.451c-2.773 0-5.453-1.497-6.839-4.12-1.993-3.773-.55-8.447 3.224-10.44.593-.313 1.185-.64 1.779-.967 3.623-1.995 8.132-4.479 13.44-4.479 5.309 0 9.818 2.484 13.441 4.48.594.326 1.186.653 1.778.966 3.773 1.993 5.216 6.667 3.223 10.441-1.993 3.773-6.667 5.216-10.441 3.223-.672-.355-1.345-.725-2.018-1.096-2.18-1.201-4.65-2.562-5.984-2.562-1.333 0-3.804 1.361-5.984 2.562-.673.371-1.346.741-2.019 1.096-1.149.608-2.383.896-3.6.896z" fill="#685e67"/><path d="m449.894 291.616c-1.217 0-2.451-.288-3.602-.896-.673-.355-1.346-.725-2.019-1.096-2.18-1.201-4.65-2.562-5.984-2.562s-3.804 1.361-5.984 2.562c-.673.371-1.345.74-2.017 1.096-3.772 1.992-8.447.55-10.441-3.223-1.993-3.773-.55-8.447 3.223-10.441.592-.313 1.185-.639 1.778-.966 3.623-1.996 8.133-4.48 13.441-4.48s9.817 2.484 13.44 4.479c.594.327 1.186.654 1.779.967 3.774 1.993 5.217 6.667 3.224 10.44-1.384 2.623-4.065 4.12-6.838 4.12z" fill="#433f43"/><path d="m369.966 258.74c-2.773 0-5.453-1.497-6.839-4.12-1.993-3.773-.55-8.447 3.224-10.44.593-.313 1.185-.64 1.779-.967 3.623-1.995 8.132-4.479 13.44-4.479s9.818 2.484 13.441 4.48c.593.327 1.186.653 1.778.966 3.773 1.993 5.216 6.667 3.223 10.441-1.993 3.773-6.667 5.216-10.441 3.223-.672-.355-1.344-.725-2.017-1.096-2.18-1.201-4.651-2.562-5.984-2.562s-3.804 1.361-5.984 2.562c-.673.371-1.346.741-2.019 1.096-1.15.608-2.384.896-3.601.896z" fill="#433f43"/><path d="m278.575 181.639c-1.217 0-2.451-.288-3.602-.896-.673-.355-1.346-.725-2.019-1.096-2.18-1.201-4.65-2.562-5.984-2.562s-3.804 1.361-5.984 2.562c-.673.371-1.345.74-2.017 1.096-3.772 1.992-8.448.55-10.441-3.223s-.55-8.447 3.223-10.441c.592-.313 1.185-.639 1.778-.966 3.623-1.996 8.133-4.48 13.441-4.48s9.817 2.484 13.44 4.479c.594.327 1.186.654 1.779.967 3.774 1.993 5.217 6.667 3.224 10.44-1.384 2.623-4.065 4.12-6.838 4.12z" fill="#685e67"/><path d="m313.552 155.968c-1.217 0-2.451-.288-3.602-.896-.672-.355-1.345-.725-2.018-1.096-2.18-1.201-4.65-2.562-5.984-2.562s-3.804 1.361-5.984 2.562c-.673.371-1.346.741-2.018 1.096-3.772 1.992-8.448.55-10.441-3.223s-.55-8.447 3.223-10.441c.593-.313 1.185-.64 1.778-.966 3.623-1.996 8.132-4.48 13.441-4.48s9.818 2.484 13.441 4.48c.594.326 1.186.653 1.778.966 3.773 1.993 5.216 6.668 3.223 10.441-1.384 2.622-4.065 4.119-6.837 4.119z" fill="#685e67"/><path d="m449.894 196.02c-1.217 0-2.451-.288-3.602-.896-.673-.355-1.346-.725-2.019-1.096-2.18-1.201-4.65-2.562-5.984-2.562s-3.804 1.361-5.984 2.562c-.673.371-1.345.74-2.017 1.096-3.772 1.993-8.447.55-10.441-3.223-1.993-3.773-.55-8.447 3.223-10.441.592-.313 1.185-.639 1.778-.966 3.623-1.996 8.133-4.48 13.441-4.48s9.817 2.484 13.44 4.479c.594.327 1.186.654 1.779.967 3.774 1.993 5.217 6.667 3.224 10.44-1.384 2.623-4.065 4.12-6.838 4.12z" fill="#433f43"/><path d="m200.01 406.196c-2.773 0-5.453-1.497-6.839-4.12-1.993-3.773-.55-8.447 3.224-10.44.593-.313 1.185-.64 1.779-.967 3.623-1.995 8.132-4.479 13.44-4.479s9.818 2.484 13.441 4.48c.593.327 1.186.653 1.778.966 3.773 1.993 5.216 6.668 3.223 10.441s-6.667 5.216-10.441 3.223c-.672-.355-1.344-.725-2.017-1.096-2.18-1.201-4.651-2.562-5.984-2.562s-3.804 1.361-5.984 2.562c-.673.371-1.346.741-2.019 1.096-1.15.608-2.384.896-3.601.896z" fill="#433f43"/><path d="m260.597 376.962c-1.217 0-2.452-.288-3.603-.896-.672-.355-1.344-.725-2.017-1.096-2.18-1.201-4.651-2.562-5.985-2.562s-3.805 1.362-5.985 2.563c-.673.37-1.344.74-2.015 1.095-3.775 1.993-8.447.551-10.441-3.222-1.993-3.773-.551-8.448 3.222-10.441.592-.313 1.184-.639 1.777-.966 3.624-1.997 8.134-4.482 13.443-4.482s9.818 2.484 13.442 4.481c.593.327 1.185.654 1.778.967 3.773 1.993 5.216 6.668 3.222 10.441-1.385 2.621-4.066 4.118-6.838 4.118z" fill="#554e55"/><path d="m99.328 381.515c-1.217 0-2.452-.288-3.603-.896-.671-.355-1.342-.724-2.014-1.094-2.181-1.202-4.652-2.563-5.986-2.563-1.335 0-3.806 1.362-5.986 2.563-.672.37-1.343.739-2.014 1.094-3.775 1.993-8.448.551-10.441-3.222s-.551-8.448 3.222-10.441c.592-.312 1.184-.639 1.776-.965 3.624-1.997 8.134-4.482 13.444-4.482s9.82 2.485 13.444 4.482c.593.326 1.184.653 1.776.965 3.773 1.993 5.215 6.668 3.222 10.441-1.387 2.621-4.067 4.118-6.84 4.118z" fill="#433f43"/></g></g></svg>