<svg id="Capa_1" enable-background="new 0 0 512 512" viewBox="0 0 512 512" xmlns="http://www.w3.org/2000/svg"><g><circle cx="256" cy="256" fill="#a2e62e" r="256"/><path d="m426.426 64.971c40.409 45.262 64.97 104.976 64.97 170.426 0 141.385-114.615 256-256 256-65.45 0-125.164-24.562-170.426-64.97 46.882 52.512 115.095 85.573 191.03 85.573 141.385 0 256-114.615 256-256 0-75.935-33.061-144.147-85.574-191.029z" fill="#97d729"/><path d="m442.378 284.006-3.512 6.176c-4.796 8.435-7.346 17.96-7.404 27.663l-.043 7.036c-.121 20.016-10.794 38.483-28.077 48.58l-6.021 3.518c-8.417 4.918-15.424 11.924-20.341 20.341l-3.518 6.021c-10.097 17.283-28.564 27.956-48.58 28.077l-7.035.043c-9.703.059-19.228 2.608-27.663 7.404l-6.176 3.512c-17.365 9.874-38.647 9.874-56.012 0l-6.176-3.512c-8.435-4.796-17.96-7.346-27.663-7.404l-7.036-.043c-20.016-.121-38.483-10.794-48.58-28.077l-3.518-6.021c-4.918-8.417-11.924-15.424-20.341-20.341l-6.021-3.518c-17.283-10.097-27.956-28.564-28.077-48.58l-.043-7.035c-.059-9.703-2.608-19.228-7.404-27.663l-3.512-6.176c-9.874-17.365-9.874-38.647 0-56.012l3.512-6.176c4.796-8.435 7.346-17.96 7.404-27.663l.043-7.036c.121-20.016 10.794-38.483 28.077-48.58l6.021-3.518c8.417-4.918 15.424-11.924 20.341-20.341l3.518-6.021c10.097-17.283 28.564-27.956 48.58-28.077l7.035-.043c9.703-.059 19.228-2.608 27.663-7.404l6.176-3.512c17.365-9.874 38.647-9.874 56.012 0l6.176 3.512c8.435 4.796 17.96 7.346 27.663 7.404l7.036.043c20.016.121 38.483 10.794 48.58 28.077l3.518 6.021c4.918 8.417 11.924 15.424 20.341 20.341l6.021 3.518c17.283 10.097 27.956 28.564 28.077 48.58l.043 7.035c.059 9.703 2.608 19.228 7.404 27.663l3.512 6.176c9.873 17.365 9.873 38.647 0 56.012z" fill="#fd4755"/><path d="m178.745 240h-37.868c-7.112 0-12.877 5.765-12.877 12.877v30.519l48.918 11.806 79.082-23.203z" fill="#fee8c7"/><path d="m178.745 240h-7.349v38.245c0 2.845-2.306 5.151-5.151 5.151h-38.245v7.726c0 7.112 5.765 12.877 12.877 12.877h37.098l78.025-32z" fill="#fedba6"/><path d="m196.944 285.031-42.642 42.643 30.686 45.373 47.861-50.524 23.151-50.524z" fill="#fee8c7"/><path d="m256 271.999-36.604 8.493v41.326c0 1.366-.543 2.676-1.509 3.642l-29.258 29.258c-2.012 2.012-5.273 2.012-7.284 0l-27.044-27.043-5.463 5.463c-5.029 5.029-5.029 13.182 0 18.211l27.044 27.044c5.029 5.029 13.182 5.029 18.211 0l45.907-45.908 10.48-39.618z" fill="#fedba6"/><path d="m240 288v75.396l49.095 11.998 14.905-71.711-16-31.683z" fill="#fee8c7"/><path d="m288 272-4.604 1.534v84.711c0 2.845-2.306 5.151-5.151 5.151h-38.245v7.726c0 7.112 5.765 12.877 12.877 12.877h38.245c7.112 0 12.877-5.765 12.877-12.877v-67.44z" fill="#fedba6"/><path d="m224 208 27.469-45.477-16.073-34.523h-30.519c-7.112 0-12.877 5.765-12.877 12.877v21.868z" fill="#fee8c7"/><path d="m243.123 128h-7.726v25.599c0 1.417-.584 2.772-1.614 3.745l-27.342 25.823 17.559 24.833 32-45.255v-21.868c0-7.112-5.765-12.877-12.877-12.877z" fill="#fedba6"/><path d="m211.613 196.978-56.424-41.906-21.58 21.581c-5.029 5.029-5.029 13.182 0 18.211l58.391 58.391 32-29.255z" fill="#fee8c7"/><path d="m178.863 149.608c-5.029-5.029-13.182-5.029-18.211 0l-5.463 5.463 36.031 36.031c2.012 2.012 2.012 5.273 0 7.284l-27.044 27.044 7.457 7.457 20.367 20.368 32-29.255v-29.255z" fill="#fedba6"/><path d="m496 480h-480c-8.837 0-16-7.163-16-16 0-8.837 7.163-16 16-16l240-16 240 16c8.837 0 16 7.163 16 16 0 8.837-7.163 16-16 16z" fill="#a8d3d8"/><path d="m287.066 288 58.587 54.257 40.56-26.125-39.51-60.132-58.703-16z" fill="#fee8c7"/><path d="m320 256 51.526-14.041-8.13-49.959h-46.141l-45.255 32z" fill="#fee8c7"/><path d="m371.123 192h-7.726v38.245c0 2.845-2.306 5.151-5.151 5.151h-69.151l30.905 20.604h51.123c7.112 0 12.877-5.765 12.877-12.877v-38.245c0-7.113-5.765-12.878-12.877-12.878z" fill="#fedba6"/><path d="m324.525 165.216-44.082-26.914-65.094 65.094 12.114 17.388 12.537 19.216 40-24.846z" fill="#fee8c7"/><path d="m331.162 159.882-27.044-27.043c-5.029-5.029-13.182-5.029-18.211 0l-5.464 5.464 27.044 27.044c2.012 2.012 2.012 5.273 0 7.284l-29.257 29.258c-.966.966-2.276 1.509-3.642 1.509h-59.238l-1.741 1.74c-5.029 5.029-5.029 13.182-.001 18.211l.652.651 25.74 16 45.255-16 45.907-45.907c5.028-5.029 5.028-13.182 0-18.211z" fill="#fedba6"/><path d="m307.076 247.384 64.285 59.533c2.087 1.933 2.212 5.192.279 7.279l-25.987 28.061 5.669 5.25c5.218 4.832 13.365 4.52 18.198-.699l25.987-28.061c4.832-5.218 4.52-13.365-.698-18.198l-48.106-44.549z" fill="#fedba6"/><path d="m310.939 277.577-118.939-10.181v-30.519c0-7.112 5.765-12.877 12.877-12.877h94.519z" fill="#fee8c7"/><path d="m307.123 224h-7.726v38.245c0 2.845-2.306 5.151-5.151 5.151h-102.246v7.726c0 7.112 5.765 12.877 12.877 12.877h102.245c7.112 0 12.877-5.765 12.877-12.877v-38.245c.001-7.112-5.764-12.877-12.876-12.877z" fill="#fedba6"/><path d="m496 448h-480c-8.837 0-16-7.163-16-16 0-8.837 7.163-16 16-16h480c8.837 0 16 7.163 16 16 0 8.837-7.163 16-16 16z" fill="#cbe5e8"/><g fill="#fdb441"><path d="m357.602 302.098c-1.878 0-3.761-.681-5.248-2.057-3.131-2.899-3.318-7.788-.419-10.919l10.396-11.226c2.9-3.13 7.788-3.318 10.919-.419s3.318 7.788.419 10.919l-10.396 11.226c-1.523 1.643-3.594 2.476-5.671 2.476z"/><path d="m192 342.956c-1.977 0-3.955-.755-5.463-2.263-3.018-3.017-3.018-7.909 0-10.927l7.615-7.615c3.017-3.017 7.909-3.017 10.927 0s3.018 7.909 0 10.927l-7.615 7.615c-1.509 1.509-3.487 2.263-5.464 2.263z"/><path d="m280 191.726c-1.977 0-3.955-.754-5.463-2.263-3.018-3.017-3.018-7.909 0-10.927l15.012-15.013c3.017-3.017 7.909-3.018 10.927 0 3.018 3.017 3.018 7.909 0 10.927l-15.012 15.013c-1.509 1.509-3.487 2.263-5.464 2.263z"/><path d="m350.649 140.165c-1.473 0-2.961-.421-4.279-1.299l-5.054-3.369c-3.551-2.367-4.51-7.164-2.143-10.714 2.367-3.551 7.163-4.51 10.714-2.143l5.054 3.369c3.551 2.367 4.51 7.164 2.143 10.714-1.487 2.234-3.938 3.442-6.435 3.442z"/><path d="m256 359.726h-16c-4.267 0-7.726-3.459-7.726-7.726s3.459-7.726 7.726-7.726h16c4.267 0 7.726 3.459 7.726 7.726s-3.459 7.726-7.726 7.726z"/><path d="m384 231.726h-16c-4.267 0-7.726-3.459-7.726-7.726s3.459-7.726 7.726-7.726h16c4.267 0 7.726 3.459 7.726 7.726s-3.459 7.726-7.726 7.726z"/><path d="m173.602 197.328c-1.977 0-3.955-.755-5.463-2.263l-3.845-3.845c-3.018-3.017-3.018-7.909 0-10.927 3.017-3.017 7.909-3.017 10.927 0l3.845 3.845c3.018 3.017 3.018 7.909 0 10.927-1.509 1.509-3.487 2.263-5.464 2.263z"/><path d="m96 272.924c-4.267 0-7.726-3.459-7.726-7.726v-14.895c0-4.267 3.459-7.726 7.726-7.726s7.726 3.459 7.726 7.726v14.895c0 4.266-3.459 7.726-7.726 7.726z"/><path d="m270.341 111.66c-2.564 0-5.071-1.275-6.541-3.603-2.278-3.608-1.2-8.38 2.408-10.658l4.396-2.776c3.608-2.278 8.38-1.2 10.658 2.408s1.2 8.38-2.408 10.658l-4.396 2.776c-1.28.809-2.707 1.195-4.117 1.195z"/><path d="m411.932 280.528c-1.294 0-2.606-.325-3.811-1.011-3.71-2.109-5.008-6.826-2.898-10.535l2.621-4.611c2.109-3.71 6.824-5.009 10.535-2.898 3.71 2.109 5.008 6.826 2.898 10.535l-2.621 4.611c-1.424 2.503-4.036 3.909-6.724 3.909z"/><path d="m288 263.726h-16c-4.267 0-7.726-3.459-7.726-7.726s3.459-7.726 7.726-7.726h16c4.267 0 7.726 3.459 7.726 7.726s-3.459 7.726-7.726 7.726z"/><path d="m224 295.726c-4.267 0-7.726-3.459-7.726-7.726v-16c0-4.267 3.459-7.726 7.726-7.726s7.726 3.459 7.726 7.726v16c0 4.267-3.459 7.726-7.726 7.726z"/></g><g><g><circle cx="159.778" cy="271.457" fill="#fdb441" r="7.726"/></g></g></g><g/><g/><g/><g/><g/><g/><g/><g/><g/><g/><g/><g/><g/><g/><g/></svg>