<svg id="_0" height="512" viewBox="0 0 512 512" width="512" xmlns="http://www.w3.org/2000/svg" data-name="0"><g id="_0-2" data-name="0"><path id="_5" d="m134.934 377.067c-3.018-3.017-7.909-3.017-10.927 0l-121.744 121.743c-3.017 3.017-3.017 7.909 0 10.927 1.509 1.509 3.487 2.263 5.464 2.263s3.955-.755 5.464-2.263l121.743-121.744c3.017-3.017 3.017-7.909 0-10.927z" fill="#aa6e5a" data-name="5"/><path id="_4" d="m508.058 216.081-212.139-212.139c-20.915-20.916-89.045 47.214-68.13 68.13-20.916-20.916-89.045 47.214-68.13 68.13-20.915-20.916-89.045 47.214-68.129 68.13-20.916-20.916-89.045 47.214-68.13 68.13l212.139 212.14c20.916 20.916 89.045-47.214 68.13-68.13 20.916 20.916 89.045-47.214 68.13-68.13 20.916 20.916 89.045-47.214 68.129-68.13 20.916 20.915 89.045-47.214 68.13-68.13z" fill="#e6e6e6" data-name="4"/><path id="_3" d="m508.058 216.081-212.139-212.139c-20.915-20.916-89.045 47.214-68.13 68.13-20.916-20.916-89.045 47.214-68.13 68.13-20.915-20.916-89.045 47.214-68.129 68.13-20.916-20.916-89.045 47.214-68.13 68.13l97.475 97.475v-30.276c0-24.231 19.643-43.874 43.874-43.874s43.874 19.643 43.874 43.874v54.039c0 19.651 15.93 35.581 35.581 35.581s35.581-15.93 35.581-35.581v-35.737c0-23.252 18.85-42.102 42.101-42.102 11.468 0 21.863 4.586 29.454 12.023 7.708 7.553 20.458 20.458 20.458 20.458 20.916 20.916 89.045-47.214 68.129-68.13 20.916 20.915 89.045-47.214 68.13-68.13z" fill="#fa4646" data-name="3"/><path id="_2" d="m23.4 276.46 97.475 97.474v-30.276c0-10.582 3.748-20.289 9.987-27.867l-89.083-89.083c-17.032 17.032-28.836 39.294-18.378 49.751zm68.13-68.13 104.626 104.708c7.709 7.906 12.466 18.705 12.466 30.62v54.039c0 19.651 15.93 35.581 35.581 35.581s35.581-15.93 35.581-35.581v-35.737c0-9.433 3.103-18.141 8.343-25.161l-178.219-178.22c-17.032 17.032-28.836 39.294-18.378 49.751zm154.637-186.01c-17.032 17.032-28.836 39.293-18.378 49.751l212.139 212.139c10.458 10.458 32.719-1.346 49.751-18.378zm-86.508 117.881 212.139 212.139c10.458 10.458 32.719-1.346 49.751-18.378l-243.511-243.512c-17.032 17.032-28.836 39.294-18.378 49.751z" fill="#f03c3c" data-name="2"/><path id="_1" d="m193.028 226.251h-15.444c-4.268 0-7.726 3.459-7.726 7.726s3.459 7.726 7.726 7.726h15.444c4.268 0 7.726-3.459 7.726-7.726s-3.459-7.726-7.726-7.726zm-96.455 39.804c-4.268 0-7.726 3.459-7.726 7.726v15.443c0 4.267 3.459 7.726 7.726 7.726s7.726-3.459 7.726-7.726v-15.443c0-4.267-3.459-7.726-7.726-7.726zm150.546 18.809c-3.016-3.017-7.908-3.017-10.927 0-3.017 3.018-3.017 7.909 0 10.927l10.921 10.919c1.508 1.509 3.486 2.263 5.463 2.263s3.955-.755 5.464-2.263c3.017-3.018 3.017-7.909-.001-10.927zm-3.986-113.871c4.268 0 7.726-3.459 7.726-7.726v-15.443c0-4.267-3.459-7.726-7.726-7.726s-7.726 3.459-7.726 7.726v15.443c0 4.267 3.459 7.726 7.726 7.726zm103.014 76.647-10.92 10.92c-3.017 3.018-3.017 7.909 0 10.927 1.508 1.509 3.486 2.263 5.463 2.263s3.955-.755 5.464-2.263l10.92-10.92c3.017-3.018 3.017-7.909-.001-10.927-3.016-3.018-7.908-3.017-10.926 0zm-43.784-48.312h-15.443c-4.268 0-7.726 3.459-7.726 7.726s3.459 7.726 7.726 7.726h15.443c4.268 0 7.726-3.459 7.726-7.726s-3.458-7.726-7.726-7.726zm102.237-29.501-10.919-10.92c-3.017-3.018-7.91-3.018-10.927 0-3.018 3.017-3.018 7.909 0 10.927l10.919 10.92c1.509 1.509 3.486 2.263 5.464 2.263s3.955-.755 5.463-2.263c3.018-3.017 3.018-7.909 0-10.927zm-61.812-72.731c-3.016-3.018-7.908-3.017-10.927 0l-10.919 10.92c-3.017 3.018-3.017 7.909 0 10.927 1.508 1.509 3.486 2.263 5.463 2.263s3.955-.755 5.464-2.263l10.919-10.92c3.017-3.018 3.017-7.909 0-10.927z" fill="#ffebd2" data-name="1"/></g></svg>