<?xml version="1.0" encoding="iso-8859-1"?>
<!-- Generator: Adobe Illustrator 19.0.0, SVG Export Plug-In . SVG Version: 6.00 Build 0)  -->
<svg version="1.1" id="Capa_1" xmlns="http://www.w3.org/2000/svg" xmlns:xlink="http://www.w3.org/1999/xlink" x="0px" y="0px"
	 viewBox="0 0 512 512" style="enable-background:new 0 0 512 512;" xml:space="preserve">
<g>
	
		<rect x="331.028" y="299.071" transform="matrix(-0.7071 0.7071 -0.7071 -0.7071 804.8878 302.2015)" style="fill:#87CED9;" width="17.655" height="37.455"/>
	
		<rect x="357.512" y="281.385" transform="matrix(-0.7071 0.7071 -0.7071 -0.7071 837.5922 253.2827)" style="fill:#87CED9;" width="17.655" height="37.455"/>
	
		<rect x="383.996" y="263.761" transform="matrix(-0.7071 0.7071 -0.7071 -0.7071 870.3404 204.4694)" style="fill:#87CED9;" width="17.655" height="37.455"/>
	
		<rect x="300.139" y="306.076" transform="matrix(-0.7071 0.7071 -0.7071 -0.7071 761.5223 346.6556)" style="fill:#87CED9;" width="17.655" height="49.937"/>
</g>
<g>
	
		<rect x="321.141" y="194.206" transform="matrix(-0.7071 0.7071 -0.7071 -0.7071 723.7579 106.2766)" style="fill:#3E8CC7;" width="37.455" height="17.655"/>
	
		<rect x="347.628" y="211.851" transform="matrix(-0.7071 0.7071 -0.7071 -0.7071 781.4515 117.6701)" style="fill:#3E8CC7;" width="37.455" height="17.655"/>
	
		<rect x="374.089" y="229.47" transform="matrix(-0.7071 0.7071 -0.7071 -0.7071 839.0813 129.037)" style="fill:#3E8CC7;" width="37.455" height="17.655"/>
	
		<rect x="283.983" y="181.005" transform="matrix(-0.7071 0.7071 -0.7071 -0.7071 661.6448 105.6035)" style="fill:#3E8CC7;" width="49.937" height="17.655"/>
</g>
<g>
	<path style="fill:#126099;" d="M194.207,339.862V384c0,0-35.31-8.828-35.31-44.138v-17.655h35.31V339.862z"/>
	<path style="fill:#126099;" d="M282.483,180.966l8.828-26.483h-7.398c-16.666,0-31.47,10.664-36.74,26.483l0,0l-6.621,16.552
		l33.103,9.931L282.483,180.966z"/>
	<path style="fill:#126099;" d="M273.655,339.862l8.828,26.483h-7.398c-16.666,0-31.47-10.664-36.74-26.483l-8.828-26.483
		l35.31-8.828L273.655,339.862z"/>
	<path style="fill:#126099;" d="M194.207,180.966V128c0,0-44.138,8.828-44.138,52.966v17.655h44.138V180.966z"/>
</g>
<path style="fill:#87CED9;" d="M414.897,260.414L348.69,307.95c-32.274,20.648-69.738,31.709-108.05,31.912h-80.331
	c-60.16,0-117.804-28.575-160.309-79.448l0,0c42.505-50.873,100.149-79.448,160.265-79.448h80.375
	c38.312,0.203,75.776,11.264,108.05,31.912l66.207,48.552V260.414z"/>
<polygon style="fill:#EBEBEB;" points="414.897,261.394 414.897,260.414 414.217,260.899 "/>
<path style="fill:#4398D1;" d="M348.69,212.877c-32.274-20.648-69.738-31.709-108.05-31.912h-80.331
	c-60.16,0-117.804,28.575-160.309,79.448h413.555L348.69,212.877z"/>
<path style="fill:#71C4D1;" d="M237.056,260.414c-37.544,30.446-79.386,55.181-124.169,73.393
	c15.475,3.99,31.391,6.029,47.378,6.056h80.375c38.312-0.203,75.776-11.264,108.05-31.912l65.492-47.051l-0.627-0.486H237.056z"/>
<path style="fill:#3E8CC7;" d="M237.056,260.414h176.499l-64.865-47.537c-13.656-8.669-28.292-15.678-43.599-20.895
	C284.884,217.123,262.082,240.066,237.056,260.414z"/>
<g>
	<path style="fill:#126099;" d="M512,180.966L512,180.966c-20.851-0.53-40.81,8.439-54.263,24.373l-42.84,55.075l42.84,55.075
		c13.453,15.934,33.412,24.903,54.263,24.373l0,0l-44.138-79.448L512,180.966z"/>
	<path style="fill:#126099;" d="M158.897,233.931v26.483c27.507,10.999,46.513,8.386,70.621-8.828l17.655-17.655H158.897z"/>
	<path style="fill:#126099;" d="M88.276,269.241c-14.627,0-26.483-11.855-26.483-26.483s11.855-26.483,26.483-26.483
		s26.483,11.855,26.483,26.483S102.903,269.241,88.276,269.241z M88.276,233.931c-4.873,0-8.828,3.955-8.828,8.828
		s3.955,8.828,8.828,8.828c4.873,0,8.828-3.955,8.828-8.828S93.149,233.931,88.276,233.931z"/>
	<path style="fill:#126099;" d="M93.793,337.929L82.759,324.14l30.897-24.717c6.294-5.014,9.949-12.623,9.931-20.665v-71.309h17.655
		v71.309c0.018,13.4-6.082,26.077-16.561,34.428L93.793,337.929z"/>
	<path style="fill:#126099;" d="M67.213,318.676c-0.706,0-1.412-0.079-2.101-0.247c-4.732-1.156-7.636-5.932-6.479-10.673l0,0
		c2.445-10.187-0.556-20.913-7.945-28.337l-30.455-30.464c-3.39-3.505-3.293-9.092,0.221-12.482c3.425-3.302,8.845-3.302,12.262,0
		l30.455,30.464c11.732,11.802,16.499,28.84,12.606,45.021C74.805,315.904,71.274,318.676,67.213,318.676z"/>
</g>
<g>
</g>
<g>
</g>
<g>
</g>
<g>
</g>
<g>
</g>
<g>
</g>
<g>
</g>
<g>
</g>
<g>
</g>
<g>
</g>
<g>
</g>
<g>
</g>
<g>
</g>
<g>
</g>
<g>
</g>
</svg>
