<?xml version="1.0" encoding="iso-8859-1"?>
<!-- Generator: Adobe Illustrator 19.0.0, SVG Export Plug-In . SVG Version: 6.00 Build 0)  -->
<svg version="1.1" id="Capa_1" xmlns="http://www.w3.org/2000/svg" xmlns:xlink="http://www.w3.org/1999/xlink" x="0px" y="0px"
	 viewBox="0 0 512 512" style="enable-background:new 0 0 512 512;" xml:space="preserve">
<path style="fill:#FA962A;" d="M414.897,282.483l-26.483-52.966l-16.719-33.448c-5.985-11.961-18.211-19.518-31.585-19.518h-190.04
	c-58.5,0-105.931,47.431-105.931,105.931v97.103h423.724v-44.138C467.862,306.194,444.151,282.483,414.897,282.483z"/>
<path style="fill:#ED8A1F;" d="M414.897,282.483l-26.483-52.966l-10.24-20.489C273.796,305.638,120.276,347.242,44.138,362.761
	v16.825h423.724v-44.138C467.862,306.194,444.151,282.483,414.897,282.483z"/>
<path style="fill:#FFA83D;" d="M360.51,302.874l42.531-107.379l-26.483-26.359l-119.676,52.109
	c-22.131,10.902-36.158,33.421-36.193,58.086l0,0c0.15,36.008,29.458,65.086,65.465,64.945h13.339
	C326.409,344.329,350.614,327.91,360.51,302.874z"/>
<path style="fill:#DEDEDE;" d="M489.172,120.567c-3.337-3.257-7.821-5.076-12.482-5.067c-10.478,0.106-19.059-8.289-19.174-18.767
	l0,0c-0.009-4.608-1.871-9.013-5.164-12.226c-6.956-6.744-18.017-6.744-24.973,0l-1.51,1.492c-6.753,6.55-6.912,17.329-0.362,24.082
	c0.124,0.124,0.238,0.247,0.362,0.362l5.164,5.058l-54.475,53.636l26.483,26.359l54.475-54.069l5.173,5.067
	c6.956,6.753,18.017,6.753,24.973,0l1.51-1.483c6.753-6.55,6.912-17.329,0.362-24.082
	C489.419,120.806,489.295,120.691,489.172,120.567z"/>
<path style="fill:#ED7615;" d="M194.207,353.103H97.103c-14.627,0-26.483-11.855-26.483-26.483v-52.966
	c0-14.627,11.855-26.483,26.483-26.483h97.103c4.873,0,8.828,3.955,8.828,8.828s-3.955,8.828-8.828,8.828H97.103
	c-4.873,0-8.828,3.955-8.828,8.828v52.966c0,4.873,3.955,8.828,8.828,8.828h75.794l-26.483-26.483h-31.656
	c-4.873,0-8.828-3.955-8.828-8.828c0-4.873,3.955-8.828,8.828-8.828h35.31c2.339,0,4.59,0.927,6.241,2.586l44.138,44.138
	c3.443,3.452,3.443,9.039,0,12.482C198.788,352.177,196.546,353.103,194.207,353.103z"/>
<path style="fill:#E5E5E5;" d="M449.474,432.552H62.526c-30.985,0-57.432-22.404-62.526-52.966h512
	C506.906,410.147,480.459,432.552,449.474,432.552z"/>
<path style="fill:#DEDEDE;" d="M377.397,379.586c-42.108,24.285-87.614,42.134-135.009,52.966h207.086
	c30.985,0,57.432-22.404,62.526-52.966H377.397z"/>
<g>
</g>
<g>
</g>
<g>
</g>
<g>
</g>
<g>
</g>
<g>
</g>
<g>
</g>
<g>
</g>
<g>
</g>
<g>
</g>
<g>
</g>
<g>
</g>
<g>
</g>
<g>
</g>
<g>
</g>
</svg>
