<svg id="Capa_1" enable-background="new 0 0 512 512" height="512" viewBox="0 0 512 512" width="512" xmlns="http://www.w3.org/2000/svg"><g><g><g><path d="m491.373 118.913c9.096-15.755 3.698-35.901-12.057-44.998-7.939-4.584-16.993-5.483-25.186-3.235-5.176-6.721-11.951-12.37-20.125-16.284-27.856-13.337-61.249-1.568-74.587 26.288-1.055 2.203-1.935 4.443-2.68 6.702-13.97-1.372-28.109 5.32-35.585 18.268-10.189 17.648-4.142 40.214 13.506 50.403 14.422 8.326 32.125 5.806 43.677-5.024 2.312 1.573 4.77 2.993 7.369 4.237 25.802 12.354 56.343 3.156 71.307-20.404 13.285 2.39 27.224-3.592 34.361-15.953z" fill="#2db181"/><path d="m491.372 118.906c-7.141 12.368-21.07 18.346-34.36 15.959-14.964 23.563-45.499 32.758-71.31 20.407-2.596-1.248-5.054-2.667-7.359-4.236-11.56 10.821-29.261 13.353-43.681 5.028-11.258-6.5-17.795-18.043-18.412-30.134 1.435 1.199 2.963 2.305 4.611 3.297 12.181 7.35 26.851 6.82 38.171-.016 4.08-2.467 9.122-2.503 13.428-.44l.069.04c23.668 11.326 51.32 4.536 67.285-14.855 2.533-3.083 6.297-4.98 10.295-5.037 12.259-.177 24.077-7.189 29.629-19.483 1.934-4.288 2.868-8.836 2.857-13.348 13.186 9.845 17.205 28.22 8.777 42.818z" fill="#158f5e"/></g><g><path d="m354.781 27.866c-2.806-17.975-19.651-30.272-37.626-27.467-9.058 1.414-16.671 6.395-21.639 13.287-8.247-1.985-17.068-2.131-25.888-.049-30.058 7.097-48.671 37.216-41.574 67.274.561 2.377 1.282 4.673 2.119 6.899-11.738 7.699-18.546 21.782-16.241 36.554 3.142 20.135 22.011 33.909 42.146 30.767 16.454-2.568 28.655-15.64 30.853-31.321 2.787-.226 5.592-.663 8.397-1.326 27.841-6.573 45.848-32.901 42.714-60.635 11.841-6.475 18.94-19.879 16.739-33.983z" fill="#a3e440"/><path d="m295.328 122.481c-2.803.667-5.609 1.109-8.396 1.337-2.202 15.669-14.404 28.749-30.857 31.314-15.8 2.466-30.827-5.495-38.079-18.774 3.836.748 7.827.885 11.869.338 14.086-1.923 25.156-11.508 29.696-23.924 1.644-4.495 5.529-7.723 10.188-8.812l.094-.025c25.529-6.02 42.792-28.665 43.059-53.776.05-4.001 1.788-7.834 4.864-10.393 9.427-7.837 14.224-20.7 10.834-33.757-.511-1.999-1.216-3.913-2.087-5.724 14.138 1.833 25.96 12.781 28.266 27.577 2.204 14.103-4.891 27.515-16.738 33.982 3.133 27.735-14.874 54.073-42.713 60.637z" fill="#8dc637"/></g><path d="m243.74 270.327-6.694-3.982-6.745-3.895c.548-.949 13.936-23.36 59.387-34.465 39.064-9.544 55.127-39.422 55.284-39.723 1.992-3.799 6.688-5.287 10.497-3.307 3.807 1.979 5.304 6.651 3.34 10.465-.764 1.481-19.217 36.409-65.423 47.697-38.32 9.363-49.537 27.033-49.646 27.21z" fill="#158f5e"/><path d="m448.277 92.012c-14.876.599-29.258 2.307-43.101 5.086 4.011-2.971 8.728-6.006 14.226-8.863 3.816-1.983 5.304-6.685 3.32-10.503-1.985-3.818-6.685-5.305-10.503-3.321-21.743 11.296-33.191 25.126-37.23 30.757-10.986 3.715-21.56 8.181-31.673 13.42-25.349 13.131-47.969 31.057-67.231 53.28-33.089 38.176-46.372 77.221-49.655 88.278-1.225 4.124 1.126 8.459 5.249 9.684.739.22 1.486.324 2.22.324 3.359 0 6.459-2.19 7.464-5.574 2.177-7.332 14.65-45.77 46.494-82.509 22.543-26.008 49.317-45.294 80.05-57.759 4.971.249 24.524 1.882 47.664 12.476 1.051.481 2.153.709 3.237.709 2.953 0 5.778-1.688 7.087-4.549 1.791-3.911.072-8.534-3.84-10.325-8.048-3.685-15.678-6.385-22.568-8.378 15.63-3.735 32.105-5.972 49.417-6.669 4.298-.173 7.642-3.798 7.47-8.096-.174-4.296-3.791-7.631-8.097-7.468z" fill="#0c6842"/><path d="m315.336 34.702c-2.834-3.238-7.756-3.566-10.991-.734-10.545 9.224-20.113 18.905-28.71 29.014.424-5.476 1.462-11.096 3.572-15.738 1.78-3.916.049-8.534-3.868-10.314-3.917-1.779-8.533-.048-10.314 3.867-6.754 14.857-5.338 34.107-4.414 41.723-16.138 23.334-27.534 48.678-34.032 75.823-10.014 41.832-6.259 80.092-1.346 104.821.736 3.707 3.991 6.273 7.632 6.273.503 0 1.014-.049 1.526-.151 4.219-.839 6.959-4.939 6.122-9.158-4.611-23.204-8.142-59.069 1.216-98.159 7.786-32.522 23.176-62.335 45.88-89.011l18.056 1.733c.254.024.505.036.754.036 3.967 0 7.358-3.016 7.744-7.046.411-4.282-2.727-8.086-7.009-8.497l-6.304-.605c4.37-4.391 8.953-8.688 13.753-12.886 3.237-2.832 3.565-7.752.733-10.991z" fill="#79a72d"/></g><g><g><g><g><path d="m320.06 454.32c-3.49 6.04-7.26 11.25-11.28 15.74-7.2-10.62-27.94-32.59-70.96-37.64-34.87-4.1-69.98 28.11-93.9 14.3-41.6-24.02 1.19-73.93-46.25-101.32-31.01-17.91-58.26-3.71-75.61 11.27-8.08-21.44-9.26-44.61 5.95-70.96 39.18-67.86 128.88-72.24 209.52-25.68 80.65 46.56 121.71 126.43 82.53 194.29z" fill="#bc83df"/><path d="m320.063 454.316c-36.176 62.659-103.158 36.079-153.761 40.424-31.325 2.691-53.154 10.592-65.527 16.424-5.47 2.581-11.848-1.101-12.348-7.129-.476-5.722-1.463-13.047-3.445-21.749 12.44-5.251 31.808-11.327 58.131-13.589 48.816-4.191 113.429 21.444 148.321-38.992 32.672-56.591 7.485-121.86-50.233-167.516 78.21 46.844 117.436 125.314 78.862 192.127z" fill="#ae6ad8"/><path d="m320.063 454.316c-36.176 62.659-103.158 36.079-153.761 40.424-31.325 2.691-53.154 10.592-65.527 16.424-5.47 2.581-11.848-1.101-12.348-7.129-1.136-13.632-5.208-36.487-18.541-64.96-13.582-28.999-41.066-57.491-50.454-90.29 17.522-19.243 50.908-46.273 87.228-25.304 47.356 27.341.569 84.215 42.098 108.191 23.872 13.782 61.78-23.327 97.462-20.751 57.817 4.173 74.468 42.312 73.843 43.395z" fill="#fff1e2"/><path d="m320.063 454.316c-36.176 62.659-103.158 36.079-153.761 40.424-31.325 2.691-53.154 10.592-65.527 16.424-5.47 2.581-11.848-1.101-12.348-7.129-.476-5.722-1.463-13.047-3.445-21.749 12.44-5.251 31.808-11.327 58.131-13.589 48.816-4.191 113.429 21.444 148.321-38.992.836-1.447 1.632-2.897 2.39-4.349 19.979 12.42 26.64 28.266 26.239 28.96z" fill="#fee7c9"/></g><path d="m147.431 274.839c-1.443 2.503-4.061 3.895-6.751 3.895-1.329 0-2.669-.332-3.895-1.039l-62.312-35.85c5.982-2.949 12.255-5.369 18.766-7.28l51.335 29.64c3.729 2.149 5.007 6.916 2.857 10.634z" fill="#ae6ad8"/><path d="m298.227 479.857c-4.902 3.749-10.063 6.709-15.422 9.035l-43.889-25.34c-3.728-2.15-4.995-6.906-2.846-10.635 2.15-3.728 6.906-5.006 10.635-2.856l48.261 27.864c.612.354 1.765 1.029 3.261 1.932z" fill="#ae6ad8"/><path d="m164.017 331.827c-1.322 0-2.66-.337-3.887-1.045l-20.114-11.613c-3.725-2.151-5.002-6.914-2.851-10.64 2.15-3.725 6.913-5.002 10.64-2.851l20.114 11.613c3.725 2.151 5.002 6.914 2.851 10.64-1.443 2.499-4.061 3.896-6.753 3.896z" fill="#fff1e2"/><path d="m335.054 399.796-80.518-46.527c-3.728-2.15-5.006-6.906-2.856-10.635 2.15-3.728 6.917-5.006 10.645-2.856l71.161 41.085c1.058 6.284 1.588 12.608 1.568 18.933z" fill="#975bbb"/><path d="m87.268 384.518c-1.322 0-2.66-.337-3.887-1.045l-15.325-8.847c-3.725-2.151-5.002-6.914-2.851-10.64 2.15-3.725 6.913-5.004 10.64-2.851l15.325 8.847c3.725 2.151 5.002 6.914 2.851 10.64-1.443 2.498-4.062 3.896-6.753 3.896z" fill="#bc83df"/></g></g></g><path d="m298.227 479.857c-4.902 3.749-10.063 6.709-15.422 9.035l-38.187-22.048c6.314-1.714 12.411-4.133 18.206-7.477l32.143 18.559c.611.353 1.764 1.028 3.26 1.931z" fill="#975bbb"/></g></svg>