<svg id="Layer_1" enable-background="new 0 0 360.693 360.693" height="512" viewBox="0 0 360.693 360.693" width="512" xmlns="http://www.w3.org/2000/svg"><g><path d="m331.547 278.131h-260.379v-88.277c0-22.578 18.303-40.881 40.881-40.881h178.617c22.578 0 40.881 18.303 40.881 40.881z" fill="#ffab57"/><path d="m315.547 212.975h6v13.722h-6z" fill="#fff"/><path d="m321.547 202.513h-6v-10.659c0-14.271-11.61-25.881-25.881-25.881v-6c17.58 0 31.881 14.302 31.881 31.881z" fill="#fff"/><path d="m232.835 278.131h-191.052v-88.277c0-22.578 18.303-40.881 40.881-40.881h109.29c22.578 0 40.881 18.303 40.881 40.881z" fill="#ffe0b3"/><path d="m345.189 275.209h-315.691c-8.563 0-15.504 6.942-15.504 15.504v4.234h346.7v-4.234c-.001-8.562-6.942-15.504-15.505-15.504z" fill="#a1cad5"/><path d="m166.343 212.797-54.007-37.816c-3.76-2.633-4.674-7.815-2.041-11.575 2.633-3.76 1.719-8.942-2.041-11.575l-19.674-13.776 15.819-22.591 135.133 94.621c4.431 3.102 5.508 9.209 2.405 13.64-10.899 15.566-32.353 19.349-47.919 8.449z" fill="#f3efee"/><path d="m97.059 143.888-75.884-53.135c-6.219-4.355-7.73-12.926-3.376-19.145 4.355-6.219 12.926-7.73 19.145-3.376l75.884 53.134z" fill="#c3c6d4"/><path d="m232.835 275.209h-191.052v-77.936h150.171c22.578 0 40.881 18.303 40.881 40.881z" fill="#ffe0b3"/><path d="m184.282 197.274h-167.764c-9.122 0-16.518 7.395-16.518 16.518 0 12.398 10.051 22.449 22.449 22.449h91.513c14.401 0 27.948-7.276 35.511-19.531 7.199-11.663 20.095-19.436 34.809-19.436z" fill="#ffab57"/></g></svg>