<svg id="Capa_1" enable-background="new 0 0 512 512" height="512" viewBox="0 0 512 512" width="512" xmlns="http://www.w3.org/2000/svg"><g><g><path d="m161.194 66.651 15.906 18.275 10.395 11.94 23.643-30.215v-60.451c0-4.43-4.512-7.428-8.592-5.707l-5.965 2.503-17.431 7.325c-2.009.845-3.503 2.565-4.069 4.656z" fill="#fead8a"/><path d="m211.14 6.2v60.451h-21.953l6.047-63.089 7.314-3.07c4.079-1.72 8.592 1.278 8.592 5.708z" fill="#fd9468"/><path d="m266.483 242.236v236.396c0 18.43-14.948 33.368-33.368 33.368h-91.233c-18.43 0-33.368-14.938-33.368-33.368v-54.256l24.414-66.567-24.414-91.397v-24.176c0-8.303 3.523-16.225 9.694-21.778l78.143-16.84 60.437 16.84c6.172 5.552 9.695 13.475 9.695 21.778z" fill="#fe7c66"/><path d="m266.479 242.235v236.396c0 18.43-14.948 33.368-33.368 33.368h-35.222c8.025 0 14.536-14.938 14.536-33.368v-236.396c0-8.303-1.535-16.225-4.224-21.778l5.312-13.931 43.271 13.931c6.171 5.553 9.695 13.475 9.695 21.778z" fill="#fe6c55"/><path d="m256.793 220.458h-138.58l30.195-27.228c6.171-5.563 9.694-13.475 9.694-21.778v-69.599l29.402-17.606 29.402 17.606v69.599c0 8.303 3.523 16.215 9.684 21.778l29.41 26.517z" fill="#c8effe"/><path d="m187.503 84.247 29.402 17.606v13.279h-58.803v-13.279z" fill="#99e6fc"/><path d="m256.805 220.453h-48.584l-13.155-27.228c-2.689-5.563-4.224-13.475-4.224-21.778v-69.599l-9.931-13.65 6.604-3.956 29.401 17.606v69.599c0 8.303 3.523 16.215 9.684 21.778z" fill="#99e6fc"/><path d="m216.916 66.65h-58.84c-7.334 0-13.279 5.945-13.279 13.279v8.64c0 7.334 5.945 13.279 13.279 13.279h58.84c7.334 0 13.279-5.945 13.279-13.279v-8.64c0-7.334-5.945-13.279-13.279-13.279z" fill="#c8effe"/><path d="m230.195 79.925v8.643c0 7.324-5.954 13.279-13.279 13.279h-32.75c7.325 0 13.279-5.955 13.279-13.279v-8.643c0-7.335-5.954-13.279-13.279-13.279h32.75c7.325 0 13.279 5.944 13.279 13.279z" fill="#99e6fc"/><path d="m108.515 266.412h157.964v157.964h-157.964z" fill="#f9f3f1"/><path d="m212.425 266.412h54.054v157.964h-54.054z" fill="#f3eae6"/><g><g><circle cx="167.845" cy="362.971" fill="#62dbfb" r="19.652"/><path d="m226.804 362.973c0 9.025-6.088 16.627-14.381 18.925-1.679.474-3.451.721-5.274.721-10.858 0-19.656-8.798-19.656-19.646 0-10.858 8.798-19.656 19.656-19.656 1.823 0 3.595.247 5.274.721 8.293 2.298 14.381 9.901 14.381 18.935z" fill="#62dbfb"/><path d="m226.804 362.973c0 9.025-6.088 16.627-14.381 18.925v-37.859c8.293 2.297 14.381 9.9 14.381 18.934z" fill="#01d0fb"/><circle cx="187.497" cy="327.817" fill="#62dbfb" r="19.652"/></g></g></g><g><path d="m350.802 66.651-15.906 18.275-10.395 11.94-23.643-30.215v-60.451c0-4.43 4.512-7.428 8.592-5.707l5.965 2.503 17.431 7.325c2.009.845 3.503 2.565 4.069 4.656z" fill="#fe7c66"/><path d="m350.802 66.651-15.906 18.275-19.481-81.93 17.431 7.325c2.009.845 3.503 2.565 4.069 4.656z" fill="#fe6c55"/><path d="m403.485 242.236v24.176l-38.368 94.269 38.368 63.695v54.256c0 18.43-14.948 33.368-33.368 33.368h-91.233c-18.43 0-33.368-14.938-33.368-33.368v-54.256l22.77-78.982-22.77-78.982v-24.176c0-8.303 3.523-16.225 9.694-21.778l78.143-16.84 60.437 16.84c6.172 5.552 9.695 13.475 9.695 21.778z" fill="#ffe177"/><path d="m403.481 242.235v24.177l-38.364 94.269 38.364 63.695v54.256c0 18.43-14.948 33.368-33.368 33.368h-35.222c8.025 0 14.536-14.938 14.536-33.368v-236.397c0-8.303-1.535-16.225-4.224-21.778l5.312-13.931 43.271 13.931c6.172 5.553 9.695 13.475 9.695 21.778z" fill="#fece85"/><path d="m393.787 220.458h-138.58l.793-.711 29.402-26.517c6.171-5.563 9.694-13.475 9.694-21.778v-69.599l29.402-17.606 29.402 17.606v69.599c0 8.303 3.523 16.215 9.684 21.778z" fill="#c8effe"/><path d="m353.898 101.853v13.279h-58.803v-13.279l29.402-17.606z" fill="#99e6fc"/><path d="m393.808 220.453h-48.584l-13.155-27.228c-2.689-5.563-4.224-13.475-4.224-21.778v-69.599l-9.931-13.65 6.604-3.956 29.401 17.606v69.599c0 8.303 3.523 16.215 9.684 21.778z" fill="#99e6fc"/><path d="m353.919 66.65h-58.84c-7.334 0-13.279 5.945-13.279 13.279v8.64c0 7.334 5.945 13.279 13.279 13.279h58.84c7.334 0 13.279-5.945 13.279-13.279v-8.64c0-7.334-5.946-13.279-13.279-13.279z" fill="#c8effe"/><path d="m367.198 79.925v8.643c0 7.324-5.954 13.279-13.279 13.279h-32.75c7.325 0 13.279-5.955 13.279-13.279v-8.643c0-7.335-5.954-13.279-13.279-13.279h32.75c7.324 0 13.279 5.944 13.279 13.279z" fill="#99e6fc"/><path d="m245.517 266.412h157.964v157.964h-157.964z" fill="#f9f3f1"/><path d="m349.427 266.412h54.054v157.964h-54.054z" fill="#f3eae6"/><g><path d="m365.121 360.676c0 14.186-6.428 26.424-15.69 32.029-3.461 2.102-7.324 3.266-11.394 3.266h-27.073c-14.958 0-27.083-15.803-27.083-35.294 0-19.481 12.125-35.284 27.083-35.284 4.924 0 9.55 1.731 13.537 4.729 3.977-2.998 8.602-4.729 13.537-4.729 4.069 0 7.932 1.175 11.394 3.266 9.261 5.603 15.689 17.842 15.689 32.017z" fill="#fe7c66"/><path d="m365.121 360.676c0 14.186-6.428 26.424-15.69 32.029v-64.047c9.262 5.604 15.69 17.843 15.69 32.018z" fill="#fe6c55"/><path d="m324.509 337.851c-.303 0-.609-.018-.918-.054-4.231-.5-7.259-4.332-6.768-8.563.637-5.626.48-21.346-7.773-26.49-3.622-2.257-4.727-7.023-2.471-10.644 2.258-3.623 7.023-4.727 10.644-2.471 18.27 11.387 15.092 40.181 14.948 41.402-.463 3.93-3.801 6.82-7.662 6.82z" fill="#97da7b"/></g></g></g></svg>