<svg height="512" viewBox="0 0 512 512" width="512" xmlns="http://www.w3.org/2000/svg"><g id="Flat"><path d="m104 24h80v40h-80z" fill="#cfcfcd"/><path d="m240 224.5v247.5a16 16 0 0 1 -16 16h-160a16 16 0 0 1 -16-16v-247.5a73.054 73.054 0 0 1 64-72.5v-88h64v88a73.064 73.064 0 0 1 64 72.5z" fill="#ebebe9"/><path d="m240 224.5v247.5a16 16 0 0 1 -16 16h-160a16 16 0 0 1 -16-16v-247.5a73.054 73.054 0 0 1 64-72.5v-48h64v48a73.065 73.065 0 0 1 64 72.5z" fill="#e0e0de"/><path d="m240 224.5v247.5a16 16 0 0 1 -16 16h-160a16 16 0 0 1 -16-16v-126.2c67.8-32.44 130.59-83.7 180.79-160.19a72.819 72.819 0 0 1 11.21 38.89z" fill="#dbdbd9"/><circle cx="144" cy="224" fill="#cfcfcd" r="32"/><path d="m96 288h96v32h-96z" fill="#348fd9"/><path d="m96.276 202.614a33.262 33.262 0 0 1 4.573-4.284l-9.782-12.66a49.054 49.054 0 0 0 -12.391 14.115l13.824 8.059a33.257 33.257 0 0 1 3.776-5.23z" fill="#ebebe9"/><path d="m88 224.5a33.37 33.37 0 0 1 .291-4.387l-15.859-2.113a49.245 49.245 0 0 0 -.432 6.5v39.5h16z" fill="#ebebe9"/><rect fill="#ebebe9" height="16" rx="8" width="48" x="136" y="144"/><path d="m376 352-5.65 48-10.35 88h-72l-10.35-88-5.65-48z" fill="#f2f2f2"/><path d="m370.35 400-10.35 88h-72l-10.35-88z" fill="#e0e0de"/><path d="m459.83 424a73.162 73.162 0 0 1 -59.65 59.8 73.87 73.87 0 0 1 -15.99.98 72.92 72.92 0 0 1 -48.19-21.34l103.44-103.44a72.922 72.922 0 0 1 21.33 48 73.975 73.975 0 0 1 -.94 16z" fill="#fadb41"/><path d="m459.83 424h-48.63l33.41 33.69a73.239 73.239 0 0 1 -11.35 11.27l-33.21-33.48.13 48.32a73.87 73.87 0 0 1 -15.99.98l-.19-68.76 8-8.02h68.77a73.975 73.975 0 0 1 -.94 16z" fill="#ffe978"/><path d="m303.5 420.848h16.001v41.304h-16.001z" fill="#ebebe9" transform="matrix(.993 -.121 .121 .993 -51.155 40.955)"/><g fill="#cfcfcd"><path d="m88 344h112v16h-112z"/><path d="m104 376h80v16h-80z"/><path d="m104 440h80v16h-80z"/></g></g></svg>