<svg id="Capa_1" enable-background="new 0 0 512 512" viewBox="0 0 512 512" xmlns="http://www.w3.org/2000/svg"><g><g><g><path d="m460.788 275.822h-119.513c-9.009 38.763-43.81 67.744-85.275 67.744-48.284 0-87.565-39.282-87.565-87.565 0-41.465 28.98-76.266 67.744-85.275v-119.513c0-6.431-5.37-11.596-11.794-11.28-124.959 6.145-224.385 109.405-224.385 235.888 0 130.823 105.356 236.179 236.179 236.179 126.483 0 229.743-99.426 235.889-224.384.315-6.424-4.849-11.794-11.28-11.794z" fill="#ffbd86"/></g><g><path d="m287.856.014c-6.411-.314-11.76 4.858-11.76 11.277v159.498c32.168 7.586 57.53 32.948 65.116 65.116h159.498c6.419 0 11.591-5.35 11.277-11.76-5.938-121.079-103.053-218.194-224.131-224.131z" fill="#ffbd86"/></g><g><g><path d="m369.335 18.856c40.723 32.542 70.443 78.277 82.681 130.73 6.431 27.563-14.733 53.875-43.036 53.875h-82.977c7.15 9.503 12.393 20.509 15.207 32.443h159.5c6.418 0 11.591-5.348 11.277-11.758-4.524-92.258-61.989-170.592-142.652-205.29z" fill="#f6a96c"/></g></g><path d="m469.992 167.344c-8.989-25.349-22.698-48.413-40.746-68.553-.004-.004-.008-.008-.012-.012-5.025-5.608-10.416-10.999-16.025-16.024-20.138-18.048-43.203-31.757-68.55-40.745-.001 0-.002-.001-.002-.001-22.018-7.808-45.084-11.767-68.561-11.767v15c19.996 0 39.666 3.096 58.554 9.211v41.844h-58.554v15h58.554v51.054h-58.554v8.438c6.399 1.509 12.523 3.732 18.298 6.562h40.256v40.256c2.83 5.774 5.053 11.898 6.562 18.297h8.438v-58.554h51.054v58.554h15v-58.554h41.844c6.113 18.886 9.21 38.559 9.21 58.554h15c-.001-23.476-3.959-46.544-11.766-68.56zm-69.288-4.993h-51.054v-51.054h51.054zm0-66.054h-51.054v-36.285c18.573 7.782 35.698 18.417 51.054 31.716zm15 66.054v-51.054h4.569c13.299 15.356 23.934 32.481 31.715 51.054z" fill="#ea9b58"/><g><path d="m460.788 275.822h-47.337c-22.043 107.597-117.242 188.533-231.357 188.533-46.968 0-90.653-13.581-127.359-37.044 43.259 51.813 108.374 84.689 181.444 84.689 126.483 0 229.743-99.426 235.889-224.384.315-6.424-4.849-11.794-11.28-11.794z" fill="#f6a96c"/></g><path d="m426.562 275.822c-.885 18.748-3.928 41.72-8.996 58.554h-41.78v-58.554h-15v58.554h-51.054v-9.245c-14.847 11.566-33.498 18.465-53.732 18.465-1.267 0-2.608-.041-4.349-.132l-.761-.039-.24.724c-.618 1.863-1.444 3.61-2.441 5.227h46.524v51.055h-51.054v-45.654c-4.073 3.654-9.318 5.925-15 6.272v39.382h-51.054v-51.054h28.49c-2.352-3.786-3.714-8.247-3.714-13.021 0-.153.005-.305.01-.457l.042-1.521h-1.142l-.572.532c-4.595 4.273-10.58 6.627-16.85 6.627-6.773 0-12.918-2.736-17.392-7.159h-54.927v-51.055h24.869c-1.304-3.01-2.031-6.325-2.031-9.809 0-1.761.19-3.5.554-5.191h-23.392v-28.849c-4.91-4.409-9.042-9.721-12.071-15.74 4.54-9.03 11.322-16.36 19.489-21.465h-7.418v-51.054h30.21c.405-3.712 1.194-7.411 2.392-11.035 5.449-1.802 11.129-2.715 16.892-2.715 13.374 0 25.998 4.864 35.857 13.75h39.257v-15h-58.554v-41.835c18.887-6.114 38.556-9.219 58.554-9.219v-15c-23.478 0-46.545 3.958-68.561 11.766-.001 0-.003.001-.004.002-25.345 8.988-48.407 22.695-68.545 40.741-.001.001-.003.002-.004.003-5.612 5.03-11.008 10.426-16.036 16.036-.005.006-.009.012-.014.018-.009.01-.019.018-.028.028-18.028 20.129-31.723 43.178-40.705 68.507-7.807 22.017-11.766 45.084-11.766 68.561l.145 7.5c.754 20.887 4.647 41.394 11.621 61.062 8.989 25.349 22.698 48.413 40.746 68.553.002.002.004.004.006.006 5.026 5.608 10.42 11.001 16.03 16.03.002.002.005.004.007.006 20.136 18.044 43.198 31.751 68.546 40.74l.012.003c22.014 7.805 45.077 11.762 68.549 11.762 23.475 0 46.541-3.958 68.559-11.765h.002c25.348-8.989 48.41-22.696 68.546-40.74.002-.002.005-.004.007-.006 5.61-5.028 11.004-10.422 16.03-16.03l.006-.006c18.047-20.138 31.756-43.202 40.747-68.553 6.864-19.356 10.552-47.027 11.51-68.561h-15.022zm-314.992-144.17c15.358-13.3 32.48-23.941 51.054-31.723v36.285h-51.054zm-15 268.778h-4.569c-13.298-15.355-23.934-32.48-31.715-51.054h36.284zm0-66.054h-41.843c-5.347-16.52-8.387-33.642-9.064-51.055h50.907zm0-66.055h-50.908c.678-17.413 3.717-34.534 9.064-51.054h41.844zm0-66.053h-36.271c7.782-18.573 18.412-35.697 31.711-51.054h4.56zm66.055 249.446c-18.574-7.782-35.699-18.417-51.054-31.715v-4.569h51.054zm0-51.284h-51.055v-51.054h51.054v51.054zm66.053 65.908c-17.413-.678-34.532-3.717-51.054-9.065v-41.843h51.054zm66.054-9.065c-16.522 5.348-33.642 8.387-51.054 9.064v-50.907h51.054zm66.054-37.274c-15.355 13.298-32.48 23.933-51.054 31.715v-36.284h51.054zm0-19.569h-51.054v-51.054h51.054zm19.569 0h-4.569v-51.054h36.285c-7.782 18.573-18.418 35.698-31.716 51.054z" fill="#ea9b58"/><g><g><path d="m214.344 178.994c-2.198-9.722-7.078-18.96-14.648-26.53-15.231-15.231-37.214-19.584-56.313-13.075-6.509 19.099-2.156 41.082 13.075 56.313 7.191 7.191 15.888 11.954 25.075 14.298 8.041-12.97 19.362-23.702 32.811-31.006z" fill="#68ca44"/></g><g><path d="m214.344 178.994c-2.198-9.722-7.078-18.96-14.648-26.53-15.231-15.231-37.214-19.584-56.313-13.075l52.773 52.773c5.459-5.122 11.559-9.568 18.188-13.168z" fill="#80d261"/></g></g><g><g><path d="m183.585 206.829c-9.632-8.504-22.278-13.671-36.137-13.671-21.54 0-40.162 12.466-49.065 30.574 8.903 18.108 27.525 30.574 49.065 30.574 7.525 0 14.691-1.526 21.214-4.277 1.079-15.936 6.422-30.72 14.923-43.2z" fill="#68ca44"/></g><g><path d="m183.585 206.829c-9.632-8.504-22.278-13.671-36.137-13.671-21.54 0-40.162 12.466-49.065 30.574h76.24c2.38-5.982 5.384-11.65 8.962-16.903z" fill="#80d261"/></g></g><g><path d="m256 167.404c-47.005 0-85.438 36.612-88.392 82.871 9.487 3.459 16.279 12.57 16.279 23.238 0 6.7-2.64 12.974-7.435 17.666l-1.228 1.202c.151.335.299.671.454 1.004l1.763-.474c2.105-.566 4.274-.854 6.447-.854 13.633 0 24.724 11.092 24.724 24.724 0 .155-.006.309-.011.463l-.074 2.679 1.799-1.673c4.589-4.269 10.566-6.62 16.829-6.62 13.633 0 24.724 11.092 24.724 24.724 0 2.82-.481 5.529-1.355 8.056 1.813.111 3.635.185 5.476.185 48.93 0 88.596-39.666 88.596-88.596 0-48.929-39.666-88.595-88.596-88.595z" fill="#fff3de"/></g><g><g><path d="m293.118 175.557c12.838 15.372 20.572 35.155 20.572 56.749 0 42.264-29.604 77.593-69.201 86.44 4.558 4.487 7.39 10.722 7.39 17.608 0 2.825-.483 5.539-1.36 8.07 1.813.111 3.639.172 5.48.172 48.93 0 88.596-39.666 88.596-88.596.001-35.672-21.093-66.399-51.477-80.443z" fill="#ffe5c2"/></g></g><g><circle cx="227.155" cy="336.354" fill="#6e61b6" r="25.755"/></g><g><path d="m232.534 311.167c1.825 3.535 2.862 7.543 2.862 11.795 0 14.224-11.531 25.755-25.755 25.755-1.845 0-3.644-.198-5.379-.567 4.28 8.289 12.921 13.959 22.892 13.959 14.224 0 25.755-11.531 25.755-25.755 0-12.378-8.734-22.713-20.375-25.187z" fill="#6354b1"/></g><g><circle cx="159.163" cy="273.513" fill="#6e61b6" r="25.755"/></g><g><path d="m164.542 248.325c1.825 3.535 2.862 7.543 2.862 11.795 0 14.224-11.531 25.755-25.755 25.755-1.845 0-3.644-.198-5.379-.567 4.28 8.289 12.921 13.959 22.892 13.959 14.224 0 25.755-11.531 25.755-25.755.001-12.377-8.734-22.712-20.375-25.187z" fill="#6354b1"/></g><g><circle cx="183.887" cy="316.781" fill="#6e61b6" r="25.755"/></g><g><circle cx="183.887" cy="316.781" fill="#6e61b6" r="25.755"/></g><g><path d="m189.267 291.593c1.825 3.535 2.862 7.543 2.862 11.795 0 14.224-11.531 25.755-25.755 25.755-1.845 0-3.644-.198-5.379-.567 4.28 8.289 12.921 13.959 22.892 13.959 14.224 0 25.755-11.531 25.755-25.755 0-12.378-8.734-22.713-20.375-25.187z" fill="#6354b1"/></g></g><g><g><path d="m302.21 286.164c-1.805 0-3.616-.647-5.054-1.961-3.06-2.792-3.276-7.536-.483-10.596 3.832-4.197 5.243-9.974 3.774-15.452-1.674-6.247-6.879-10.975-13.262-12.043-2.902-.485-5.411-2.222-6.88-4.765-1.469-2.544-1.721-5.586-.689-8.346 2.266-6.062.775-12.935-3.798-17.507-4.129-4.129-10.211-5.784-15.875-4.313-4.006 1.044-8.103-1.367-9.143-5.377-1.04-4.009 1.367-8.103 5.377-9.143 10.786-2.8 22.375.354 30.247 8.226 7.358 7.359 10.531 17.839 8.744 27.875 9.586 3.472 17.075 11.458 19.768 21.51 2.798 10.445.112 21.453-7.185 29.448-1.479 1.621-3.506 2.444-5.541 2.444z" fill="#fff"/></g></g></g><g/><g/><g/><g/><g/><g/><g/><g/><g/><g/><g/><g/><g/><g/><g/></svg>