<svg id="Flat" viewBox="0 0 64 64" xmlns="http://www.w3.org/2000/svg"><rect fill="#78b24c" height="6.49" rx="1" width="10.82" x="42.85" y="6.02"/><path d="m58 28.03v27.78c0 1.2-.97 2.17-2.16 2.17h-15.16c-1.19 0-2.16-.97-2.16-2.17v-27.78c0-1.52.93-2.9 2.34-3.46l1.18-.47.38-.15c.91-.37 1.51-1.25 1.51-2.24v-9.19h8.66v9.19c0 .99.6 1.87 1.51 2.24l1.55.62c1.42.56 2.35 1.94 2.35 3.46z" fill="#d3dce5"/><path d="m47.62 43.3c-.96.97-2.28 1.52-3.69 1.52h-5.41v-16.79c0-1.52.93-2.9 2.34-3.46l1.18-.47c.36.65.58 1.37.63 2.13.04.66-.04 1.32-.24 1.95.71.27 1.36.67 1.92 1.21.9.84 1.47 2.02 1.56 3.3.05.68-.03 1.35-.23 1.99.72.27 1.38.68 1.93 1.23.9.86 1.46 2.03 1.55 3.28.11 1.54-.45 3.03-1.54 4.11z" fill="#b8c3d5"/><path d="m51.69 45.05-2.65 6.62c-.97 2.42-3.27 3.98-5.88 3.98h-4.64v-14.83h10.3c1.03 0 1.98.51 2.56 1.36.57.85.69 1.92.31 2.87z" fill="#b8c3d5"/><path d="m38.52 32h19.48v17.32h-19.48z" fill="#78b24c"/><path d="m44.85 51.65v4.33c0 .73-.2 1.41-.54 2h-3.63c-1.19 0-2.16-.97-2.16-2.17v-4.16z" fill="#9dabc4"/><path d="m12.54 53.65h30.31v2.33c0 1.1-.9 2-2 2h-26.31c-1.1 0-2-.9-2-2z" fill="#b8c3d5"/><path d="m47.62 43.3c-.96.97-2.28 1.52-3.69 1.52h-5.41v-12.82h7.28c.06.22.09.46.11.69.05.68-.03 1.35-.23 1.99.72.27 1.38.68 1.93 1.23.9.86 1.46 2.03 1.55 3.28.11 1.54-.45 3.03-1.54 4.11z" fill="#50823f"/><path d="m51.69 45.05-1.71 4.27h-11.46v-8.5h10.3c1.03 0 1.98.51 2.56 1.36.57.85.69 1.92.31 2.87z" fill="#50823f"/><path d="m43.16 53.65h-30.94c-1.77 0-3.36-1.08-4.02-2.72l-2.65-6.62c-.28-.71.24-1.48 1.01-1.48h42.26c.77 0 1.29.77 1.01 1.48l-2.65 6.62c-.66 1.64-2.25 2.72-4.02 2.72z" fill="#d3dce5"/><path d="m47.17 39.34c.07.99-.31 1.9-.95 2.53-.58.59-1.39.95-2.29.95h-32.29c-1.74 0-3.3-1.28-3.42-3.01-.07-.97.28-1.84.89-2.48.02-.02.03-.03.05-.05.59-.58 1.4-.95 2.3-.95h3.24c-.92 0-1.75-.38-2.34-1-.56-.58-.9-1.37-.9-2.25s.34-1.67.91-2.25c.01 0 .03-.03.04-.04.58-.59 1.39-.95 2.29-.95h3.25c-.93 0-1.77-.39-2.35-1.01-.56-.58-.9-1.38-.9-2.24s.35-1.67.91-2.25l.05-.05c.58-.58 1.39-.95 2.29-.95 0 0 .14-.42.45-1 .59-1.11 1.81-2.81 3.88-3.33 4.33-1.08 7.58-1.08 9.74-4.33 0 0 4.7 2.02 4.13 7.4-.01.09-.01.18 0 .26.06.55.52 1 1.1 1 .87 0 1.69.32 2.32.86.05.05.1.09.15.14.54.52.9 1.21.95 2.01.07.97-.29 1.85-.89 2.48l-.05.05c-.59.59-1.4.96-2.3.96h3.07c.94 0 1.82.37 2.46.99.55.51.9 1.22.96 2.01.07.97-.29 1.85-.89 2.49l-.05.05c-.59.58-1.4.95-2.3.95h3.07c.94 0 1.83.38 2.46 1 .54.52.9 1.22.96 2.01z" fill="#78b24c"/><g fill="#50823f"><path d="m27.61 29.83c0 .56-.45 1-1 1h-14.24s.03-.03.04-.04c.58-.59 1.39-.95 2.29-.95h3.25c-.93 0-1.77-.39-2.35-1.01h11.01c.55 0 1 .45 1 1z"/><path d="m46.21 37.33h-20.68c-.56 0-1-.45-1-1s.44-1 1-1h17.5l-.05.05c-.59.58-1.4.95-2.3.95h3.07c.94 0 1.83.38 2.46 1z"/><path d="m42.96 30.83h-9.86c-.55 0-1-.44-1-1s.45-1 1-1h6.68l-.05.05c-.59.59-1.4.96-2.3.96h3.07c.94 0 1.82.37 2.46.99z"/><path d="m20.49 36.33c0 .55-.44 1-1 1h-10.38s.03-.03.05-.05c.59-.58 1.4-.95 2.3-.95h3.24c-.92 0-1.75-.38-2.34-1h7.13c.56 0 1 .45 1 1z"/><path d="m22.2 23.34c0 .55-.45 1-1 1h-5.59s.03-.03.05-.05c.58-.58 1.39-.95 2.29-.95 0 0 .14-.42.45-1h2.8c.55 0 1 .45 1 1z"/><path d="m39.72 24.34h-7.7c-.55 0-1-.45-1-1s.45-1 1-1h4.13c.06.55.52 1 1.1 1 .87 0 1.69.32 2.32.86.05.05.1.09.15.14z"/></g></svg>