<svg id="Layer_1" enable-background="new 0 0 396.987 396.987" height="512" viewBox="0 0 396.987 396.987" width="512" xmlns="http://www.w3.org/2000/svg"><g><g fill="#f3efee"><path d="m213.688 116.251h114.098v280.737h-114.098z"/><path d="m213.688 246.619h114.098v150.368h-114.098z"/><path d="m327.786 116.251h-114.098v-82.539l20-33.712h74.098l20 33.712z"/></g><path d="m327.786 241.036-114.098 50v-88.77l114.098-50z" fill="#dd455b"/><path d="m327.786 290.972-114.098 50v-25.854l114.098-50z" fill="#dd455b"/><path d="m69.202 286.133c0 39.508 32.027 71.535 71.535 71.535h15.743v39.319h8.321v-39.319h15.743c39.508 0 71.535-32.027 71.535-71.535z" fill="#c3c6d4"/><path d="m148.754 339.668h10.726v6h-10.726z" fill="#fff"/><path d="m180.543 345.668h-12.857v-6h12.857c24.017 0 45.245-16.174 51.624-39.332l.796-2.892 5.785 1.593-.797 2.893c-7.093 25.752-30.7 43.738-57.408 43.738z" fill="#fff"/><path d="m218.495 286.133h-142.413c0-14.748 11.955-26.703 26.703-26.703h142.414c-.001 14.747-11.956 26.703-26.704 26.703z" fill="#ffe0b3"/><path d="m245.198 259.43h-114.921c-14.748 0-26.703-11.955-26.703-26.703h114.921c14.748 0 26.703 11.955 26.703 26.703z" fill="#ffebd7"/><path d="m178.419 232.727h-74.845c0-14.748 11.955-26.703 26.703-26.703h74.845c0 14.748-11.955 26.703-26.703 26.703z" fill="#ffe0b3"/><path d="m205.122 206.024h-42.17c-14.748 0-26.703-11.955-26.703-26.703h42.17c14.748 0 26.703 11.955 26.703 26.703z" fill="#ffebd7"/><path d="m213.688 100.914h114.098v15.337h-114.098z" fill="#5a617a"/><path d="m259.327 100.914h-22.82v-57.399c0-5.414 4.389-9.802 9.802-9.802h3.215c5.414 0 9.802 4.389 9.802 9.802v57.399z" fill="#c3c6d4"/><path d="m304.966 100.914h-22.82v-57.399c0-5.414 4.389-9.802 9.802-9.802h3.215c5.414 0 9.802 4.389 9.802 9.802v57.399z" fill="#c3c6d4"/><path d="m129.914 396.987c0-7.042 5.709-12.751 12.751-12.751h35.949c7.042 0 12.751 5.709 12.751 12.751z" fill="#5a617a"/></g></svg>