<svg height="512" viewBox="0 0 512 512" width="512" xmlns="http://www.w3.org/2000/svg"><g id="Flat"><path d="m488 328v120l-16 40h-128l-16-40v-120z" fill="#e0e0de"/><path d="m448 328v160h24l16-40v-120z" fill="#dbdbd9"/><path d="m328 408h160v40h-160z" fill="#de5d00"/><path d="m264 432 16 16v32a8 8 0 0 1 -8 8h-224a8 8 0 0 1 -8-8v-32l16-16-5.01-46.21-6.07-55.99q-2.46-20.88-3.69-41.87t-1.23-42.02a63.693 63.693 0 0 1 43.55-60.43l28.45-9.48v-24.24a127.971 127.971 0 0 1 3.82-31.05l12.18-48.71h64l12.18 48.71a127.971 127.971 0 0 1 3.82 31.05v24.24l28.45 9.48a63.679 63.679 0 0 1 43.55 60.43 716.944 716.944 0 0 1 -4.92 83.89z" fill="#de5d00"/><path d="m264 432 16 16v32a8 8 0 0 1 -8 8h-224a8 8 0 0 1 -8-8v-32l16-16-5.01-46.21c79.19-34.53 152.39-93.66 207.85-187.3a63.677 63.677 0 0 1 21.16 47.42 716.944 716.944 0 0 1 -4.92 83.89z" fill="#cf5700"/><rect fill="#693924" height="48" rx="8" width="80" x="120" y="24"/><path d="m208 392h-96l-24-152a148.258 148.258 0 0 1 144 0z" fill="#693924"/><g fill="#875036"><path d="m160 261.343a108.167 108.167 0 0 1 34.05 5.5l5.028-15.19a124.1 124.1 0 0 0 -78.156 0l5.028 15.19a108.167 108.167 0 0 1 34.05-5.5z"/><path d="m136 352h48v16h-48z"/><path d="m178.343 274.343-18.343 18.343-18.343-18.343-11.314 11.314 18.343 18.343-18.343 18.343 11.314 11.314 18.343-18.343 18.343 18.343 11.314-11.314-18.343-18.343 18.343-18.343z"/></g><path d="m352 384h16v104h-16z" fill="#cfcfcd"/><path d="m352 352h16v16h-16z" fill="#cfcfcd"/><path d="m448 352h16v136h-16z" fill="#cfcfcd"/><path d="m352 408h16v40h-16z" fill="#fa6d00"/><path d="m448 408h16v40h-16z" fill="#fa6d00"/><rect fill="#eb7206" height="16" rx="8" width="72" x="136" y="168"/><rect fill="#eb7206" height="16" rx="8" width="56" x="144" y="96"/><rect fill="#e66b00" height="16" rx="8" width="184" x="80" y="424"/></g></svg>