<svg height="477pt" viewBox="-47 0 477 477.68657" width="477pt" xmlns="http://www.w3.org/2000/svg"><path d="m191.917969 383.832031c0 48.695313-39.472657 88.167969-88.167969 88.167969-78.480469 0-131.609375-92-87.34375-158.488281 10.4375-15.101563 23.953125-27.824219 39.65625-37.335938 29.671875-18.648437 56.121094-37.601562 75.144531-67.726562 18.671875-29.546875 28.710938-96.210938 28.710938-131.203125v-37.246094h32zm0 0" fill="#c7c7c5"/><path d="m2.132812 385.054688c8.941407 49.429687 51.402344 85.757812 101.617188 86.945312 48.695312 0 88.167969-39.472656 88.167969-88.167969v-86.03125c-57.648438 80.429688-150.984375 87.941407-189.785157 87.253907zm0 0" fill="#bfbfbd"/><path d="m192.34375 383.832031c0 48.695313 39.472656 88.167969 88.167969 88.167969 78.476562 0 131.605469-92 87.34375-158.488281-10.441407-15.097657-23.957031-27.824219-39.65625-37.335938-29.671875-18.648437-56.121094-37.601562-75.144531-67.726562-18.679688-29.546875-28.710938-85.496094-28.710938-120.449219l-.425781-48h-32zm0 0" fill="#c7c7c5"/><path d="m367.855469 313.511719c-4.546875-6.691407-9.785157-12.882813-15.632813-18.472657-30.921875 103.226563-97.960937 133.472657-141.992187 141.863282 16.609375 22.09375 42.640625 35.09375 70.28125 35.097656 78.476562 0 131.605469-92 87.34375-158.488281zm0 0" fill="#bfbfbd"/><path d="m203.917969 472h-24c-39.019531-.242188-72.84375-27.058594-81.976563-64.992188-9.863281-44.558593 6.167969-100.375 26.402344-139.9375 22.546875-41.507812 34.75-87.839843 35.574219-135.070312v-76h64v76c.003906 24.804688 3.394531 49.488281 10.078125 73.375 7.339844 22.699219 16.710937 44.691406 28 65.703125 19.523437 40.410156 31.753906 90.867187 23.515625 135.746094-8.480469 38.214843-42.449219 65.347656-81.59375 65.175781zm0 0" fill="#e0e0de"/><path d="m264.421875 276.34375c-29.441406 121.503906-123.71875 125.054688-168.296875 119.417969.472656 3.804687 1.050781 7.574219 1.855469 11.246093 9.132812 37.921876 42.933593 64.734376 81.9375 64.992188h24c39.144531.175781 73.121093-26.960938 81.601562-65.175781 7.847657-42.960938-3.035156-91-21.097656-130.480469zm0 0" fill="#dbdbd9"/><path d="m184.078125 24v104c.292969 24.152344 2.945313 48.21875 7.917969 71.855469 4.976562-23.636719 7.628906-47.703125 7.921875-71.855469v-104c0-4.375-3.546875-7.921875-7.921875-7.921875-4.371094 0-7.917969 3.546875-7.917969 7.921875zm0 0" fill="#b0b0ae"/><path d="m238.023438 341.34375c-4.058594-31.011719-10.167969-61.71875-18.296876-91.917969-9.65625-39.273437-19.648437-79.890625-19.648437-121.425781v-104c0-2.136719-.855469-4.183594-2.371094-5.683594-1.519531-1.503906-3.574219-2.335937-5.710937-2.316406 4.390625.042969 7.921875 3.613281 7.921875 8v104c-.292969 24.152344-2.945313 48.21875-7.921875 71.855469 3.5625 18.082031 7.890625 35.871093 12.195312 53.390625 7.945313 29.519531 13.933594 59.527344 17.925782 89.832031 3.417968 27.253906 2.164062 54.890625-3.710938 81.722656-2.769531 11.613281-11.503906 32.070313-26.398438 37.679688-14.90625-5.601563-23.648437-26.066407-26.402343-37.679688-5.871094-26.839843-7.125-54.484375-3.710938-81.746093 3.992188-30.308594 9.984375-60.320313 17.933594-89.839844 4.304687-17.511719 8.632813-35.304688 12.195313-53.382813-4.984376-23.628906-7.644532-47.6875-7.945313-71.832031v-104c0-4.355469 3.484375-7.914062 7.839844-8-4.417969 0-8 3.582031-8 8v104c0 41.527344-9.992188 82.144531-19.65625 121.414062-8.136719 30.203126-14.257813 60.914063-18.320313 91.929688-3.617187 29.085938-2.246094 58.574219 4.054688 87.199219 3.542968 16.96875 12.746094 32.230469 26.097656 43.28125 28.527344 21.085937 52.25-19.71875 57.847656-43.28125 6.320313-28.621094 7.699219-58.113281 4.082032-87.199219zm0 0" fill="#b0b0ae"/><path d="m223.917969 40c0 17.671875-14.328125 32-32 32s-32-14.328125-32-32 14.328125-32 32-32 32 14.328125 32 32zm0 0" fill="#e0e0de"/><g fill="#b0b0ae"><path d="m135.917969 472c-24.933594-.125-48.546875-11.226562-64.550781-30.34375-22.492188-26.433594-33.167969-60.925781-29.546876-95.441406 4.59375-37.65625 27.777344-62.566406 50.203126-86.65625 16.394531-15.773438 30.058593-34.15625 40.4375-54.398438 12.527343-28.257812 19.457031-93.601562 19.457031-127.914062v-37.246094c0-4.417969 3.582031-8 8-8s8 3.582031 8 8v37.289062c0 36.648438-7.199219 103.742188-20.800781 134.398438-11.039063 21.890625-25.695313 41.761719-43.351563 58.769531-21.601563 23.246094-42.070313 45.207031-46.039063 77.703125-3.148437 29.976563 6.125 59.933594 25.65625 82.886719 13.035157 15.578125 32.222657 24.691406 52.535157 24.953125 4.417969 0 8 3.582031 8 8s-3.582031 8-8 8zm0 0"/><path d="m248.34375 472c-4.421875 0-8-3.582031-8-8s3.578125-8 8-8c20.316406-.25 39.515625-9.363281 52.558594-24.945312 19.53125-22.957032 28.804687-52.914063 25.664062-82.894532-4-32.496094-24.402344-54.457031-46.039062-77.703125-17.667969-17.007812-32.335938-36.878906-43.386719-58.769531-13.597656-30.65625-20.796875-97.75-20.796875-134.398438l-.425781-37.199218c-.050781-4.421875 3.492187-8.042969 7.910156-8.089844 2.132813-.050781 4.191406.757812 5.714844 2.25 1.523437 1.488281 2.378906 3.53125 2.375 5.660156l.425781 37.28125c0 34.441406 6.925781 99.753906 19.460938 128 10.375 20.246094 24.039062 38.628906 40.433593 54.402344 22.398438 24.085938 45.601563 49 50.207031 86.652344 3.617188 34.523437-7.066406 69.015625-29.558593 95.449218-16.015625 19.097657-39.621094 30.179688-64.542969 30.304688zm0 0"/><path d="m191.917969 80c-22.089844 0-40-17.910156-40-40s17.910156-40 40-40c22.089843 0 40 17.910156 40 40-.027344 22.082031-17.917969 39.972656-40 40zm0 0"/></g><path d="m216.34375 40c0 13.253906-10.746094 24-24 24-13.257812 0-24-10.746094-24-24s10.742188-24 24-24c13.253906 0 24 10.746094 24 24zm0 0" fill="#e0e0de"/><path d="m200.34375 40c0 4.417969-3.582031 8-8 8-4.421875 0-8-3.582031-8-8s3.578125-8 8-8c4.417969 0 8 3.582031 8 8zm0 0" fill="#b0b0ae"/></svg>