<svg enable-background="new 0 0 512 512" viewBox="0 0 512 512" xmlns="http://www.w3.org/2000/svg"><g id="_x39_9_Sesame_Seed"><g><path d="m335.736 367.981c18.25 18.25 18.25 47.876 0 66.126s-47.876 18.25-66.126 0c-12.382-12.382-28.928-59.365-38.289-88.3-3.218-9.948 6.167-19.333 16.114-16.114 28.936 9.36 75.92 25.907 88.301 38.288z" fill="#333c54"/><path d="m335.327 435.593c-4.842 4.89-10.507 8.424-16.559 10.7-1.307-52.484-38.297-96.107-87.683-107.485 2.324-5.955 9.005-9.877 15.929-7.602 28.953 9.345 75.918 25.904 88.312 38.298 18.254 18.253 18.254 47.836.001 66.089z" fill="#fff" opacity=".4"/><path d="m156.139 309.833c-18.25 18.25-47.876 18.25-66.126 0s-18.25-47.876 0-66.126c12.382-12.382 59.365-28.928 88.3-38.289 9.948-3.218 19.333 6.167 16.114 16.114-9.36 28.936-25.906 75.919-38.288 88.301z" fill="#333c54"/><path d="m195.701 221.528c-9.393 28.953-25.903 75.918-38.298 88.312-18.253 18.253-47.884 18.253-66.137 0-2.324-2.324-4.358-4.842-6.101-7.456 49.24-9.345 87.973-48.223 97.124-97.512 8.86-.92 16.317 7.65 13.412 16.656z" fill="#fff" opacity=".4"/><path d="m112.417 451.327c0 25.81-20.949 46.758-46.758 46.758s-46.759-20.949-46.759-46.758c0-17.511 21.522-62.433 35.364-89.512 4.759-9.31 18.031-9.31 22.789 0 13.841 27.079 35.364 72.001 35.364 89.512z" fill="#fbca43"/><path d="m111.21 451.777c0 25.806-20.965 46.722-46.771 46.722-8.328 0-16.219-2.179-22.998-6.052 22.272-13.363 37.136-37.716 37.136-65.556 0-23.918-10.99-45.27-28.227-59.311.92-1.84 1.791-3.631 2.663-5.326 4.793-9.296 18.059-9.296 22.804 0 13.847 27.065 35.393 71.996 35.393 89.523z" fill="#fff" opacity=".4"/><path d="m479.368 70.064c18.25 18.25 18.25 47.876 0 66.126s-47.876 18.25-66.126 0c-12.382-12.382-28.928-59.365-38.289-88.3-3.218-9.948 6.167-19.333 16.114-16.114 28.936 9.36 75.92 25.906 88.301 38.288z" fill="#333c54"/><path d="m479.374 136.169c-4.842 4.89-10.507 8.424-16.559 10.7-1.307-52.484-38.297-96.107-87.683-107.485 2.325-5.955 9.005-9.877 15.929-7.602 28.953 9.345 75.918 25.903 88.312 38.298 18.253 18.253 18.253 47.836.001 66.089z" fill="#fff" opacity=".4"/><path d="m475.479 425.543c0 25.81-20.949 46.758-46.758 46.758s-46.758-20.949-46.758-46.758c0-17.511 21.522-62.433 35.364-89.512 4.759-9.31 18.031-9.31 22.789 0 13.841 27.079 35.363 72.001 35.363 89.512z" fill="#fbca43"/><path d="m475.501 425.557c0 25.806-20.965 46.722-46.771 46.722-8.328 0-16.219-2.179-22.998-6.052 22.272-13.363 37.136-37.716 37.136-65.556 0-23.918-10.99-45.27-28.227-59.311.92-1.84 1.791-3.631 2.663-5.326 4.793-9.296 18.059-9.296 22.804 0 13.847 27.065 35.393 71.995 35.393 89.523z" fill="#fff" opacity=".4"/><path d="m397.442 309.833c-18.25 18.25-47.876 18.25-66.126 0s-18.25-47.876 0-66.126c12.382-12.382 59.365-28.928 88.3-38.289 9.948-3.218 19.333 6.167 16.114 16.114-9.36 28.936-25.907 75.919-38.288 88.301z" fill="#fbca43"/><path d="m435.75 221.528c-9.393 28.953-25.903 75.918-38.298 88.312-18.253 18.253-47.884 18.253-66.137 0-2.324-2.324-4.358-4.842-6.101-7.456 49.24-9.345 87.973-48.223 97.124-97.512 8.861-.92 16.317 7.65 13.412 16.656z" fill="#fff" opacity=".4"/><path d="m313.781 76.336c18.25 18.25 18.25 47.876 0 66.126s-47.876 18.25-66.126 0c-12.382-12.382-28.928-59.365-38.289-88.3-3.218-9.948 6.167-19.333 16.114-16.114 28.935 9.36 75.919 25.906 88.301 38.288z" fill="#fbca43"/><path d="m313.371 143.948c-4.842 4.89-10.507 8.424-16.559 10.7-1.307-52.484-38.297-96.107-87.683-107.485 2.325-5.955 9.005-9.877 15.929-7.602 28.953 9.345 75.918 25.903 88.312 38.298 18.254 18.253 18.254 47.835.001 66.089z" fill="#fff" opacity=".4"/><path d="m131.924 110.411c0 25.81-20.949 46.758-46.758 46.758s-46.758-20.949-46.758-46.758c0-17.511 21.522-62.433 35.364-89.512 4.759-9.31 18.031-9.31 22.789 0 13.84 27.079 35.363 72.001 35.363 89.512z" fill="#333c54"/><path d="m131.924 110.429c0 25.806-20.965 46.722-46.771 46.722-8.328 0-16.219-2.179-22.998-6.052 22.272-13.363 37.136-37.716 37.136-65.556 0-23.918-10.99-45.27-28.227-59.311.92-1.84 1.791-3.631 2.663-5.326 4.793-9.296 18.059-9.296 22.804 0 13.847 27.065 35.393 71.996 35.393 89.523z" fill="#fff" opacity=".4"/><path d="m249.667 322.779c-7.215-2.336-15.022-.454-20.364 4.903-5.352 5.352-7.225 13.154-4.889 20.36 16.227 50.162 29.707 80.848 40.062 91.202 21.099 21.099 55.294 21.11 76.394 0 21.064-21.064 21.064-55.334 0-76.398-10.351-10.355-41.037-23.835-91.203-40.067zm80.933 106.195c-15.422 15.422-40.424 15.43-55.854 0-8.345-8.345-21.655-39.476-36.516-85.406-.941-2.913.629-4.898 1.343-5.617.563-.563 1.896-1.645 3.844-1.645.544 0 1.144.09 1.783.293 45.93 14.861 77.056 28.171 85.401 36.516 15.398 15.4 15.398 40.46-.001 55.859z"/><path d="m176.077 198.512c-50.152 16.218-80.838 29.693-91.198 40.062-21.104 21.094-21.105 55.289 0 76.394 21.064 21.064 55.333 21.06 76.394 0 10.355-10.35 23.83-41.036 40.062-91.198 2.336-7.211.459-15.017-4.894-20.364-5.352-5.357-13.149-7.239-20.364-4.894zm11.442 20.785c-14.865 45.93-28.171 77.056-36.516 85.401-15.409 15.4-40.455 15.39-55.854 0-15.423-15.423-15.43-40.424 0-55.854 8.355-8.355 39.481-21.665 85.401-36.516.643-.208 1.239-.293 1.787-.293 1.943 0 3.277 1.078 3.835 1.641.718.718 2.288 2.704 1.347 5.621z"/><path d="m65.65 347.555h-.005c-7.565.005-14.402 4.194-17.84 10.932-6.998 13.688-13.159 26.435-18.312 37.897-1.645 3.66-.014 7.958 3.645 9.603 3.66 1.641 7.958.014 9.603-3.645 5.054-11.239 11.111-23.769 18-37.249 1.385-2.714 3.896-3.007 4.908-3.012 1.012 0 3.523.293 4.913 3.017 21.986 43.055 34.596 74.479 34.596 86.219 0 21.788-17.721 39.509-39.509 39.509-21.14 0-38.473-16.525-39.466-37.622-.184-4.01-3.693-7.059-7.594-6.913-4.005.184-7.102 3.589-6.913 7.594 1.352 28.861 25.06 51.467 53.973 51.467 29.792 0 54.034-24.242 54.034-54.034 0-14.572-12.175-45.807-36.185-92.829-3.441-6.745-10.283-10.934-17.848-10.934z"/><path d="m393.305 24.869c-7.22-2.35-15.012-.459-20.364 4.894-5.352 5.348-7.229 13.154-4.894 20.364 16.213 50.147 29.693 80.829 40.062 91.198 21.094 21.104 55.289 21.105 76.394 0 21.099-21.099 21.11-55.294 0-76.394-10.369-10.369-41.05-23.849-91.198-40.062zm80.928 106.186c-15.423 15.423-40.424 15.43-55.854 0-8.359-8.359-21.665-39.485-36.516-85.401-.941-2.917.629-4.903 1.348-5.622.558-.563 1.891-1.641 3.835-1.641.548 0 1.144.085 1.787.293 45.916 14.851 77.041 28.156 85.401 36.516 15.421 15.422 15.429 40.425-.001 55.855z"/><path d="m428.724 321.786s0 0-.005 0c-7.565 0-14.412 4.194-17.863 10.941-23.991 46.946-36.157 78.171-36.157 92.815 0 29.788 24.232 54.02 54.02 54.02s54.025-24.232 54.025-54.02c0-14.653-12.166-45.883-36.161-92.815-3.447-6.747-10.289-10.936-17.859-10.941zm-.005 143.25c-21.778 0-39.495-17.717-39.495-39.495 0-11.802 12.601-43.221 34.568-86.205 1.395-2.728 3.91-3.026 4.927-3.026h.005c1.017 0 3.527.298 4.922 3.026 21.972 42.975 34.573 74.394 34.573 86.205 0 21.779-17.721 39.495-39.5 39.495z"/><path d="m442.644 223.765c2.331-7.211.449-15.017-4.903-20.364-5.352-5.352-13.144-7.234-20.36-4.889-50.152 16.213-80.838 29.693-91.202 40.062-21.059 21.059-21.059 55.329 0 76.394 21.047 21.056 55.338 21.069 76.398 0 10.355-10.35 23.83-41.036 40.067-91.203zm-106.196 80.933c-15.395-15.4-15.395-40.459 0-55.854 8.359-8.355 39.485-21.665 85.406-36.516.643-.208 1.239-.293 1.787-.293 1.943 0 3.272 1.078 3.835 1.636.719.719 2.288 2.709 1.348 5.627-14.865 45.93-28.171 77.056-36.516 85.401-15.405 15.404-40.455 15.394-55.86-.001z"/><path d="m318.916 147.599c21.064-21.064 21.064-55.334 0-76.398-10.35-10.355-41.036-23.83-91.202-40.067-7.201-2.326-15.012-.454-20.364 4.898-5.348 5.352-7.225 13.154-4.894 20.364 16.227 50.157 29.703 80.843 40.062 91.202 21.053 21.054 55.339 21.06 76.398.001zm-101.297-101.297c.563-.558 1.896-1.641 3.839-1.641.548 0 1.144.09 1.787.293 45.93 14.865 77.056 28.171 85.401 36.516 15.4 15.4 15.4 40.459 0 55.859-15.405 15.395-40.455 15.395-55.859 0-8.345-8.35-21.655-39.481-36.511-85.401-.945-2.917.624-4.908 1.343-5.626z"/><path d="m139.188 110.411c0-14.648-12.166-45.878-36.161-92.819-3.448-6.747-10.294-10.941-17.859-10.941-7.57 0-14.416 4.194-17.863 10.941-23.996 46.942-36.161 78.171-36.161 92.819 0 29.788 24.232 54.02 54.02 54.02s54.024-24.232 54.024-54.02zm-93.52 0c0-11.806 12.601-43.23 34.573-86.209 1.395-2.728 3.91-3.026 4.927-3.026 1.012 0 3.527.298 4.922 3.026 21.972 42.979 34.573 74.403 34.573 86.209 0 21.778-17.721 39.495-39.499 39.495s-39.496-17.717-39.496-39.495z"/></g></g><g id="Layer_1"/></svg>