<svg id="Capa_1" enable-background="new 0 0 511.921 511.921" height="512" viewBox="0 0 511.921 511.921" width="512" xmlns="http://www.w3.org/2000/svg"><g><path d="m506.578 255.961c0 141.363-109.254 250.638-250.617 250.638-69.093 0-139.926-25.732-186.618-75.452-43.003-45.791-69.343-107.413-69.343-175.186 0-141.363 114.598-255.961 255.961-255.961 67.778 0 129.402 26.344 175.194 69.35 49.715 46.692 75.423 120.579 75.423 186.611z" fill="#cceffa"/><path d="m431.154 69.35c43.002 45.791 69.335 107.404 69.335 175.178 0 141.363-114.598 255.961-255.961 255.961-67.776 0-129.395-26.338-175.186-69.343 46.692 49.724 113.025 80.775 186.618 80.775 141.363 0 255.961-114.598 255.961-255.961 0-73.59-31.046-139.917-80.767-186.61z" fill="#a5e3f0"/><path d="m483.018 268.276c0-8.988-4.833-16.783-11.996-21.126 4.032-7.342 4.32-16.51-.174-24.293-4.494-7.784-12.578-12.118-20.952-12.297-.179-8.374-4.514-16.458-12.297-20.952-7.784-4.494-16.951-4.206-24.293-.174-.742-1.223-1.711-2.27-2.643-3.345 0 .001.001.001.001.002-.465-1.345-.887-2.709-1.576-3.964 7.162-4.343 11.996-12.138 11.996-21.126s-4.833-16.783-11.996-21.126c4.032-7.342 4.32-16.51-.174-24.293-4.494-7.784-12.578-12.118-20.952-12.297-.179-8.374-4.514-16.458-12.297-20.952-7.784-4.494-16.951-4.206-24.293-.174-4.343-7.163-12.138-11.996-21.126-11.996s-16.783 4.834-21.126 11.996c-7.342-4.032-16.51-4.32-24.294.174s-12.118 12.578-12.297 20.952c-8.374.179-16.458 4.514-20.952 12.297l-123.873 214.55c-4.493 7.784-4.206 16.951-.174 24.293-7.163 4.343-11.996 12.138-11.996 21.126s4.834 16.783 11.996 21.126c-4.032 7.342-4.32 16.51.174 24.294s12.578 12.118 20.952 12.297c.179 8.374 4.514 16.458 12.297 20.952s16.952 4.206 24.293.174c4.342 7.163 12.138 11.996 21.126 11.996s16.783-4.834 21.126-11.996c7.342 4.032 16.51 4.32 24.293-.174s12.118-12.578 12.297-20.952c1.43-.031 2.822-.347 4.219-.617 1.397.27 2.788.586 4.219.617.179 8.374 4.514 16.458 12.297 20.952s16.952 4.206 24.293.174c4.342 7.163 12.138 11.996 21.126 11.996s16.783-4.834 21.126-11.996c7.342 4.032 16.51 4.32 24.293-.174s12.118-12.578 12.297-20.952c8.374-.179 16.458-4.514 20.952-12.297 4.493-7.784 4.206-16.952.174-24.294 7.162-4.343 11.996-12.138 11.996-21.126s-4.833-16.783-11.996-21.126c.689-1.254 1.109-2.617 1.575-3.961.932-1.075 1.902-2.122 2.644-3.346 7.342 4.032 16.51 4.32 24.293-.174s12.118-12.578 12.297-20.952c8.374-.179 16.458-4.514 20.952-12.297 4.493-7.784 4.206-16.952.174-24.294 7.165-4.342 11.999-12.137 11.999-21.125z" fill="#a5e3f0"/><g><g><path d="m251.742 90.936c-.179-8.374-4.514-16.458-12.297-20.952-7.784-4.494-16.951-4.206-24.293-.174-4.343-7.163-12.138-11.996-21.126-11.996s-16.784 4.834-21.126 11.996c-7.342-4.032-16.51-4.32-24.294.174s-12.118 12.578-12.297 20.952c-8.374.179-16.458 4.514-20.952 12.297-4.493 7.784-4.206 16.951-.174 24.293-7.163 4.343-11.996 12.138-11.996 21.126s4.834 16.783 11.996 21.125c-4.032 7.342-4.32 16.51.174 24.294s12.578 12.118 20.952 12.297l36.591 16.046h42.252l32.765-16.046 21.126-36.591v-44.122z" fill="#f4aa73"/><g><path d="m237.929 148.653c0-10.942-2.651-31.53-15.354-40.501-8.07-5.699-17.919-9.047-28.55-9.047-27.365 0-49.548 22.184-49.548 49.548 0 10.652 3.361 20.519 9.081 28.598 8.974 12.676 30.208 17.554 40.467 17.554 27.365 0 43.904-18.788 43.904-46.152z" fill="#e29a6c"/></g><g><path d="m284.864 148.653c0-8.988-4.833-16.783-11.996-21.126 4.032-7.342 4.32-16.51-.174-24.293-4.494-7.784-12.578-12.118-20.952-12.297-5.882 5.882-6.639 14.999-2.134 21.993 8.764 13.608 12.668 30.642 9.256 48.65-4.927 26.005-25.896 46.978-51.9 51.91-18.011 3.416-35.051-.487-48.662-9.254-6.993-4.504-16.11-3.747-21.992 2.135.179 8.374 4.514 16.458 12.297 20.952s16.952 4.206 24.293.174c4.342 7.163 12.138 11.996 21.126 11.996s16.783-4.834 21.126-11.996c7.342 4.032 16.51 4.32 24.293-.174s12.118-12.578 12.297-20.952c8.374-.179 16.458-4.514 20.952-12.297 4.493-7.784 4.206-16.952.174-24.294 7.162-4.345 11.996-12.139 11.996-21.127z" fill="#e29a6c"/></g><g><path d="m222.575 108.151c5.715 8.077 9.116 17.972 9.116 28.619 0 27.364-22.183 49.548-49.548 49.548-10.647 0-20.508-3.353-28.584-9.068 8.973 12.683 23.749 20.95 40.467 20.95 27.365 0 49.548-22.183 49.548-49.548-.001-16.718-8.316-31.527-20.999-40.501z" fill="#d48c64"/></g></g><g><path d="m375.613 90.936c-.179-8.374-4.514-16.458-12.297-20.952-7.784-4.494-16.951-4.206-24.293-.174-4.343-7.163-12.138-11.996-21.126-11.996s-16.783 4.834-21.125 11.996c-7.342-4.032-16.51-4.32-24.294.174s-12.118 12.578-12.297 20.952c-8.374.179-16.458 4.514-20.952 12.297-4.493 7.784-4.206 16.951-.174 24.293-7.163 4.343-11.996 12.138-11.996 21.126s4.834 16.783 11.996 21.125c-4.032 7.342-4.32 16.51.174 24.294s12.578 12.118 20.952 12.297l36.591 16.046h42.252l32.765-16.046 21.126-36.591v-44.122z" fill="#f4aa73"/><g><path d="m361.799 148.653c0-10.942-2.651-31.53-15.354-40.501-8.07-5.699-17.919-9.047-28.55-9.047-27.365 0-49.548 22.184-49.548 49.548 0 10.652 3.361 20.519 9.081 28.598 8.974 12.676 30.208 17.554 40.467 17.554 27.366 0 43.904-18.787 43.904-46.152z" fill="#e29a6c"/></g><g><path d="m408.735 148.653c0-8.988-4.833-16.783-11.996-21.126 4.032-7.342 4.32-16.51-.174-24.293-4.494-7.784-12.578-12.118-20.952-12.297-5.882 5.882-6.639 14.999-2.134 21.993 8.764 13.608 12.668 30.642 9.256 48.65-4.927 26.005-25.896 46.978-51.9 51.91-18.011 3.416-35.051-.487-48.662-9.254-6.993-4.504-16.11-3.747-21.992 2.135.179 8.374 4.514 16.458 12.297 20.952s16.952 4.206 24.293.174c4.342 7.163 12.138 11.996 21.126 11.996s16.783-4.834 21.126-11.996c7.342 4.032 16.51 4.32 24.293-.174s12.118-12.578 12.297-20.952c8.374-.179 16.458-4.514 20.952-12.297 4.493-7.784 4.206-16.952.174-24.294 7.162-4.345 11.996-12.139 11.996-21.127z" fill="#e29a6c"/></g><g><path d="m346.446 108.151c5.715 8.077 9.116 17.972 9.116 28.619 0 27.364-22.183 49.548-49.548 49.548-10.647 0-20.508-3.353-28.584-9.067 8.973 12.683 23.749 20.95 40.467 20.95 27.365 0 49.548-22.183 49.548-49.548-.001-16.719-8.316-31.528-20.999-40.502z" fill="#d48c64"/></g></g><path d="m437.548 198.212c-.179-8.374-4.514-16.458-12.297-20.952-7.784-4.494-16.951-4.206-24.293-.174-4.343-7.163-12.138-11.996-21.126-11.996s-16.783 4.834-21.125 11.996c-7.342-4.032-16.51-4.32-24.294.174s-12.118 12.578-12.297 20.952c-8.374.179-16.458 4.514-20.952 12.297-4.493 7.784-4.206 16.951-.174 24.293-7.163 4.343-11.996 12.138-11.996 21.126s4.834 16.783 11.996 21.126c-4.032 7.342-4.32 16.51.174 24.294s12.578 12.118 20.952 12.297l36.591 16.046h42.252l32.765-16.046 21.126-36.591v-44.122z" fill="#f4aa73"/><g><path d="m423.735 255.928c0-10.942-2.651-31.53-15.354-40.501-8.07-5.699-17.919-9.047-28.55-9.047-27.365 0-49.548 22.184-49.548 49.548 0 10.652 3.361 20.519 9.081 28.598 8.974 12.676 30.208 17.554 40.467 17.554 27.365.001 43.904-18.787 43.904-46.152z" fill="#e29a6c"/></g><g><path d="m470.67 255.928c0-8.988-4.833-16.783-11.996-21.126 4.032-7.342 4.32-16.51-.174-24.293-4.494-7.784-12.578-12.118-20.952-12.297-5.882 5.882-6.639 14.999-2.134 21.993 8.764 13.608 12.668 30.642 9.256 48.65-4.927 26.005-25.896 46.978-51.9 51.91-18.011 3.416-35.051-.487-48.662-9.254-6.993-4.504-16.11-3.747-21.992 2.135.179 8.374 4.514 16.458 12.297 20.952s16.952 4.206 24.293.174c4.342 7.163 12.138 11.996 21.126 11.996s16.783-4.834 21.126-11.996c7.342 4.032 16.51 4.32 24.293-.174s12.118-12.578 12.297-20.952c8.374-.179 16.458-4.514 20.952-12.297 4.493-7.784 4.206-16.952.174-24.294 7.163-4.344 11.996-12.139 11.996-21.127z" fill="#e29a6c"/></g><g><path d="m408.382 215.427c5.715 8.077 9.116 17.972 9.116 28.619 0 27.364-22.183 49.548-49.548 49.548-10.647 0-20.508-3.353-28.584-9.067 8.973 12.683 23.749 20.95 40.467 20.95 27.365 0 49.548-22.183 49.548-49.548-.001-16.719-8.316-31.529-20.999-40.502z" fill="#d48c64"/></g><g><path d="m375.613 305.487c-.179-8.374-4.514-16.458-12.297-20.952-7.784-4.494-16.951-4.206-24.293-.174-4.343-7.163-12.138-11.996-21.126-11.996s-16.783 4.834-21.125 11.996c-7.342-4.032-16.51-4.32-24.294.174s-12.118 12.578-12.297 20.952c-8.374.179-16.458 4.514-20.952 12.297-4.493 7.784-4.206 16.951-.174 24.293-7.163 4.343-11.996 12.138-11.996 21.126s4.834 16.783 11.996 21.125c-4.032 7.342-4.32 16.51.174 24.294s12.578 12.118 20.952 12.297l36.591 16.046h42.252l32.765-16.046 21.126-36.591v-44.122z" fill="#f4aa73"/><g><path d="m361.799 363.204c0-10.942-2.651-31.53-15.354-40.501-8.07-5.699-17.919-9.047-28.55-9.047-27.365 0-49.548 22.184-49.548 49.548 0 10.652 3.361 20.519 9.081 28.598 8.974 12.676 30.208 17.554 40.467 17.554 27.366 0 43.904-18.787 43.904-46.152z" fill="#e29a6c"/></g><g><path d="m408.735 363.204c0-8.988-4.833-16.783-11.996-21.126 4.032-7.342 4.32-16.51-.174-24.293-4.494-7.784-12.578-12.118-20.952-12.297-5.882 5.882-6.639 14.999-2.134 21.993 8.764 13.608 12.668 30.642 9.256 48.65-4.927 26.005-25.896 46.978-51.9 51.91-18.011 3.416-35.051-.487-48.662-9.254-6.993-4.504-16.11-3.747-21.992 2.135.179 8.374 4.514 16.458 12.297 20.952s16.952 4.206 24.293.174c4.342 7.163 12.138 11.996 21.126 11.996s16.783-4.834 21.126-11.996c7.342 4.032 16.51 4.32 24.293-.174s12.118-12.578 12.297-20.952c8.374-.179 16.458-4.514 20.952-12.297 4.493-7.784 4.206-16.952.174-24.294 7.162-4.344 11.996-12.139 11.996-21.127z" fill="#e29a6c"/></g><g><path d="m346.446 322.703c5.715 8.077 9.116 17.972 9.116 28.619 0 27.364-22.183 49.548-49.548 49.548-10.647 0-20.508-3.353-28.584-9.068 8.973 12.683 23.749 20.95 40.467 20.95 27.365 0 49.548-22.183 49.548-49.548-.001-16.718-8.316-31.528-20.999-40.501z" fill="#d48c64"/></g></g><g><path d="m251.742 305.487c-.179-8.374-4.514-16.458-12.297-20.952-7.784-4.494-16.951-4.206-24.293-.174-4.343-7.163-12.138-11.996-21.126-11.996s-16.783 4.834-21.125 11.996c-7.342-4.032-16.51-4.32-24.294.174s-12.118 12.578-12.297 20.952c-8.374.179-16.458 4.514-20.952 12.297-4.493 7.784-4.206 16.951-.174 24.293-7.163 4.343-11.996 12.138-11.996 21.126s4.834 16.783 11.996 21.125c-4.032 7.342-4.32 16.51.174 24.294s12.578 12.118 20.952 12.297l36.591 16.047h42.252l32.765-16.047 21.126-36.591v-44.122z" fill="#f4aa73"/><g><path d="m237.929 363.204c0-10.942-2.651-31.53-15.354-40.501-8.07-5.699-17.919-9.047-28.55-9.047-27.365 0-49.548 22.184-49.548 49.548 0 10.652 3.361 20.519 9.081 28.598 8.974 12.676 30.208 17.554 40.467 17.554 27.365 0 43.904-18.788 43.904-46.152z" fill="#e29a6c"/></g><g><path d="m284.864 363.204c0-8.988-4.833-16.783-11.996-21.126 4.032-7.342 4.32-16.51-.174-24.293-4.494-7.784-12.578-12.118-20.952-12.297-5.882 5.882-6.639 14.999-2.134 21.993 8.764 13.608 12.668 30.642 9.256 48.65-4.927 26.005-25.896 46.978-51.9 51.91-18.011 3.416-35.051-.487-48.662-9.254-6.993-4.504-16.11-3.747-21.992 2.135.179 8.374 4.514 16.458 12.297 20.952s16.952 4.206 24.293.174c4.342 7.163 12.138 11.996 21.126 11.996s16.783-4.834 21.126-11.996c7.342 4.032 16.51 4.32 24.293-.174s12.118-12.578 12.297-20.952c8.374-.179 16.458-4.514 20.952-12.297 4.493-7.784 4.206-16.952.174-24.294 7.162-4.345 11.996-12.14 11.996-21.127z" fill="#e29a6c"/></g><g><path d="m222.575 322.702c5.715 8.077 9.116 17.972 9.116 28.619 0 27.364-22.183 49.548-49.548 49.548-10.647 0-20.508-3.353-28.584-9.067 8.973 12.683 23.749 20.95 40.467 20.95 27.365 0 49.548-22.183 49.548-49.548-.001-16.719-8.316-31.528-20.999-40.502z" fill="#d48c64"/></g></g><g><path d="m189.795 198.001c-14.445-1.224-27.113-8.627-35.357-19.58-.305-.382-.599-.772-.88-1.17-.059-.083-.114-.169-.172-.252-.056.03-.115.056-.171.087-4.343-7.163-12.138-11.996-21.126-11.996s-16.783 4.834-21.125 11.996c-7.342-4.032-16.51-4.32-24.294.174s-12.118 12.578-12.297 20.952c-8.374.179-16.458 4.514-20.952 12.297-4.493 7.784-4.206 16.951-.174 24.293-7.163 4.343-11.996 12.138-11.996 21.126s4.834 16.783 11.996 21.126c-4.032 7.342-4.32 16.51.174 24.294s12.578 12.118 20.952 12.297l36.591 16.047h42.252l32.765-16.047 21.126-36.591v-44.122l-17.3-34.72c-.002-.071-.009-.14-.012-.211z" fill="#f4aa73"/><g><path d="m175.993 255.928c0-10.942-2.651-31.53-15.354-40.501-8.07-5.699-17.919-9.047-28.55-9.047-27.365 0-49.548 22.184-49.548 49.548 0 10.652 3.361 20.519 9.081 28.598 8.974 12.676 30.208 17.554 40.467 17.554 27.365.001 43.904-18.787 43.904-46.152z" fill="#e29a6c"/></g><path d="m222.928 255.928c0-8.988-4.833-16.783-11.996-21.126 4.032-7.342 4.32-16.51-.174-24.293l-23.087 9.695c8.764 13.608 12.668 30.642 9.256 48.65-4.927 26.005-25.896 46.978-51.9 51.91-18.011 3.416-35.051-.487-48.662-9.254-6.993-4.504-16.11-3.747-21.992 2.135.18 8.374 4.514 16.458 12.297 20.952s16.952 4.206 24.293.174c4.342 7.163 12.138 11.996 21.126 11.996s16.783-4.834 21.126-11.996c7.342 4.032 16.51 4.32 24.293-.174s12.118-12.578 12.297-20.952c8.374-.179 16.458-4.514 20.952-12.297 4.493-7.784 4.206-16.952.174-24.294 7.164-4.343 11.997-12.138 11.997-21.126z" fill="#e29a6c"/><g><path d="m160.64 215.427c5.715 8.077 9.116 17.972 9.116 28.619 0 27.364-22.183 49.548-49.548 49.548-10.647 0-20.508-3.353-28.584-9.067 8.973 12.683 23.749 20.95 40.467 20.95 27.365 0 49.548-22.183 49.548-49.548-.001-16.719-8.316-31.529-20.999-40.502z" fill="#d48c64"/></g></g></g><path d="m379.928 243.541c-4.565 0-8.315-3.694-8.315-8.258s3.645-8.258 8.21-8.258h.105c4.565 0 8.258 3.694 8.258 8.258s-3.693 8.258-8.258 8.258z" fill="#ffd18d"/><path d="m379.928 284.832c-4.565 0-8.315-3.694-8.315-8.258s3.645-8.258 8.21-8.258h.105c4.565 0 8.258 3.694 8.258 8.258s-3.693 8.258-8.258 8.258z" fill="#f4aa73"/><path d="m400.517 264.235c-4.565 0-8.258-3.694-8.258-8.258s3.694-8.306 8.258-8.306 8.258 3.645 8.258 8.21v.097c0 4.563-3.693 8.257-8.258 8.257z" fill="#f4aa73"/><path d="m359.227 264.235c-4.565 0-8.258-3.694-8.258-8.258s3.694-8.306 8.258-8.306 8.258 3.645 8.258 8.21v.097c0 4.563-3.694 8.257-8.258 8.257z" fill="#ffd18d"/><g><g><path d="m132.187 243.541c-4.565 0-8.315-3.694-8.315-8.258s3.645-8.258 8.21-8.258h.105c4.565 0 8.258 3.694 8.258 8.258s-3.694 8.258-8.258 8.258z" fill="#ffd18d"/></g></g><g><g><path d="m132.187 284.832c-4.565 0-8.315-3.694-8.315-8.258s3.645-8.258 8.21-8.258h.105c4.565 0 8.258 3.694 8.258 8.258s-3.694 8.258-8.258 8.258z" fill="#f4aa73"/></g></g><g><g><path d="m152.775 264.235c-4.565 0-8.258-3.694-8.258-8.258s3.694-8.306 8.258-8.306 8.258 3.645 8.258 8.21v.097c0 4.563-3.693 8.257-8.258 8.257z" fill="#f4aa73"/></g></g><g><g><path d="m111.485 264.235c-4.565 0-8.258-3.694-8.258-8.258s3.694-8.306 8.258-8.306c4.565 0 8.258 3.645 8.258 8.21v.097c0 4.563-3.694 8.257-8.258 8.257z" fill="#ffd18d"/></g></g><g><path d="m313.677 198.212c-.179-8.374-4.514-16.458-12.297-20.952-7.784-4.494-16.951-4.206-24.293-.174-4.343-7.163-12.138-11.996-21.126-11.996s-16.783 4.834-21.125 11.996c-7.342-4.032-16.51-4.32-24.294.174s-12.118 12.578-12.297 20.952c-8.374.179-16.458 4.514-20.952 12.297-4.493 7.784-4.206 16.951-.174 24.293-7.163 4.343-11.996 12.138-11.996 21.126s4.834 16.783 11.996 21.126c-4.032 7.342-4.32 16.51.174 24.294s12.578 12.118 20.952 12.297l36.591 16.046h42.252l32.765-16.046 21.126-36.591v-44.122z" fill="#f4aa73"/><g><path d="m299.864 255.928c0-10.942-2.651-31.53-15.354-40.501-8.07-5.699-17.919-9.047-28.55-9.047-27.365 0-49.548 22.184-49.548 49.548 0 10.652 3.361 20.519 9.081 28.598 8.974 12.676 30.208 17.554 40.467 17.554 27.366.001 43.904-18.787 43.904-46.152z" fill="#e29a6c"/></g><g><path d="m346.799 255.928c0-8.988-4.833-16.783-11.996-21.126 4.032-7.342 4.32-16.51-.174-24.293-4.494-7.784-12.578-12.118-20.952-12.297-5.882 5.882-6.639 14.999-2.134 21.993 8.764 13.608 12.668 30.642 9.256 48.65-4.927 26.005-25.896 46.978-51.9 51.91-18.011 3.416-35.051-.487-48.662-9.254-6.993-4.504-16.11-3.747-21.992 2.135.179 8.374 4.514 16.458 12.297 20.952s16.952 4.206 24.293.174c4.342 7.163 12.138 11.996 21.126 11.996s16.783-4.834 21.126-11.996c7.342 4.032 16.51 4.32 24.293-.174s12.118-12.578 12.297-20.952c8.374-.179 16.458-4.514 20.952-12.297 4.493-7.784 4.206-16.952.174-24.294 7.163-4.344 11.996-12.139 11.996-21.127z" fill="#e29a6c"/></g><g><path d="m284.511 215.427c5.715 8.077 9.116 17.972 9.116 28.619 0 27.364-22.183 49.548-49.548 49.548-10.647 0-20.508-3.353-28.584-9.067 8.973 12.683 23.749 20.95 40.467 20.95 27.365 0 49.548-22.183 49.548-49.548-.001-16.719-8.316-31.529-20.999-40.502z" fill="#d48c64"/></g></g><path d="m176.13 361.09c-1.508 0-3.032-.411-4.395-1.282-3.847-2.444-5.016-7.508-2.565-11.355l.056-.089c2.452-3.839 7.548-4.968 11.403-2.532 3.847 2.452 4.984 7.556 2.532 11.403-1.579 2.484-4.281 3.855-7.031 3.855z" fill="#ffd18d"/><path d="m211.888 381.735c-1.508 0-3.032-.411-4.395-1.282-3.847-2.444-5.016-7.508-2.565-11.355l.056-.089c2.452-3.839 7.548-4.968 11.403-2.532 3.847 2.452 4.984 7.556 2.532 11.403-1.579 2.484-4.281 3.855-7.031 3.855z" fill="#f4aa73"/><path d="m204.404 353.573c-1.516 0-3.048-.419-4.427-1.29-3.847-2.452-5.024-7.581-2.573-11.427 2.444-3.855 7.492-5.016 11.355-2.565l.089.056c3.847 2.452 4.984 7.556 2.532 11.403-1.573 2.469-4.25 3.823-6.976 3.823z" fill="#f4aa73"/><path d="m183.759 389.332c-1.339 0-2.694-.323-3.944-1.008-4.008-2.185-5.524-7.226-3.339-11.226 2.177-4.008 7.145-5.492 11.153-3.323l.089.048c4.008 2.185 5.484 7.202 3.298 11.202-1.499 2.75-4.329 4.307-7.257 4.307z" fill="#ffd18d"/><path d="m300.074 381.864c-2.734 0-5.403-1.355-6.976-3.823-2.452-3.847-1.339-9 2.508-11.444 3.855-2.468 8.927-1.363 11.371 2.484l.056.089c2.452 3.847 1.315 8.952-2.532 11.403-1.379.871-2.911 1.291-4.427 1.291z" fill="#ffd18d"/><path d="m335.832 361.219c-2.734 0-5.403-1.355-6.976-3.823-2.452-3.847-1.339-9 2.508-11.444 3.847-2.468 8.927-1.363 11.371 2.484l.056.089c2.452 3.847 1.315 8.952-2.532 11.403-1.379.871-2.911 1.291-4.427 1.291z" fill="#f4aa73"/><path d="m328.251 389.356c-2.734 0-5.411-1.339-6.976-3.806-2.452-3.847-1.363-8.919 2.484-11.371l.089-.056c3.855-2.444 8.952-1.315 11.403 2.532 2.452 3.847 1.315 8.952-2.532 11.403-1.387.878-2.936 1.298-4.468 1.298z" fill="#f4aa73"/><path d="m307.606 353.598c-2.734 0-5.411-1.339-6.976-3.806-2.452-3.847-1.363-8.919 2.484-11.371l.089-.056c3.855-2.444 8.952-1.306 11.403 2.532 2.452 3.847 1.315 8.952-2.532 11.403-1.388.878-2.936 1.298-4.468 1.298z" fill="#ffd18d"/><path d="m176.203 167.315c-2.734 0-5.403-1.355-6.976-3.823-2.452-3.847-1.339-9 2.508-11.444 3.855-2.468 8.927-1.355 11.371 2.484l.056.089c2.452 3.847 1.315 8.952-2.532 11.403-1.379.872-2.911 1.291-4.427 1.291z" fill="#ffd18d"/><path d="m211.961 146.67c-2.734 0-5.403-1.355-6.976-3.823-2.452-3.847-1.339-9 2.508-11.444 3.847-2.468 8.919-1.363 11.371 2.484l.056.089c2.452 3.847 1.315 8.952-2.532 11.403-1.379.872-2.911 1.291-4.427 1.291z" fill="#f4aa73"/><path d="m204.38 174.807c-2.734 0-5.411-1.339-6.976-3.806-2.452-3.847-1.363-8.919 2.484-11.371l.089-.056c3.847-2.435 8.96-1.306 11.403 2.532 2.452 3.847 1.315 8.952-2.532 11.403-1.387.879-2.936 1.298-4.468 1.298z" fill="#f4aa73"/><path d="m183.743 139.049c-2.927 0-5.774-1.548-7.266-4.29-2.185-4-.758-8.992 3.25-11.177l.089-.048c3.984-2.177 9.016-.71 11.202 3.298 2.185 4 .71 9.016-3.298 11.202-1.259.685-2.63 1.015-3.977 1.015z" fill="#ffd18d"/><path d="m338.387 167.315c2.734 0 5.403-1.355 6.976-3.823 2.452-3.847 1.339-9-2.508-11.444-3.855-2.468-8.927-1.355-11.371 2.484l-.056.089c-2.452 3.847-1.315 8.952 2.532 11.403 1.378.872 2.91 1.291 4.427 1.291z" fill="#f4aa73"/><path d="m302.628 146.67c2.734 0 5.403-1.355 6.976-3.823 2.452-3.847 1.339-9-2.508-11.444-3.847-2.468-8.919-1.363-11.371 2.484l-.056.089c-2.452 3.847-1.315 8.952 2.532 11.403 1.379.872 2.911 1.291 4.427 1.291z" fill="#ffd18d"/><path d="m310.209 174.807c2.734 0 5.411-1.339 6.976-3.806 2.452-3.847 1.363-8.919-2.484-11.371l-.089-.056c-3.847-2.435-8.96-1.306-11.403 2.532-2.452 3.847-1.315 8.952 2.532 11.403 1.387.879 2.936 1.298 4.468 1.298z" fill="#ffd18d"/><path d="m330.846 139.049c2.927 0 5.774-1.548 7.266-4.29 2.185-4 .758-8.992-3.25-11.177l-.089-.048c-3.984-2.177-9.016-.71-11.202 3.298-2.185 4-.71 9.016 3.298 11.202 1.259.685 2.63 1.015 3.977 1.015z" fill="#f4aa73"/><g><g><path d="m256.057 243.541c-4.565 0-8.315-3.694-8.315-8.258s3.645-8.258 8.21-8.258h.105c4.565 0 8.258 3.694 8.258 8.258s-3.693 8.258-8.258 8.258z" fill="#ffd18d"/></g></g><g><g><path d="m256.057 284.832c-4.565 0-8.315-3.694-8.315-8.258s3.645-8.258 8.21-8.258h.105c4.565 0 8.258 3.694 8.258 8.258s-3.693 8.258-8.258 8.258z" fill="#f4aa73"/></g></g><g><g><path d="m276.646 264.235c-4.565 0-8.258-3.694-8.258-8.258s3.694-8.306 8.258-8.306 8.258 3.645 8.258 8.21v.097c0 4.563-3.693 8.257-8.258 8.257z" fill="#f4aa73"/></g></g><g><g><path d="m235.356 264.235c-4.565 0-8.258-3.694-8.258-8.258s3.694-8.306 8.258-8.306c4.565 0 8.258 3.645 8.258 8.21v.097c0 4.563-3.694 8.257-8.258 8.257z" fill="#ffd18d"/></g></g></g></svg>