<svg id="Capa_1" enable-background="new 0 0 497 497" viewBox="0 0 497 497" xmlns="http://www.w3.org/2000/svg"><g><path d="m22.71 187.689c-1.689-.975-3.532-1.687-5.462-1.967-9.282-1.349-17.248 5.813-17.248 14.836v95.455c0 7.002 4.628 13.341 11.431 15 3.805.928 7.76.331 11.069-1.58l56.779-32.781v-56.303z" fill="#ffd06a"/><path d="m83.904 223.019-4.625-2.67c-4.562 8.565-6.984 18.172-6.984 28.151s2.422 19.586 6.984 28.151l4.625-2.67c11.759-6.789 26.612-4.834 36.213 4.768v-60.498c-9.601 9.601-24.454 11.557-36.213 4.768z" fill="#ffb464"/><path d="m134.129 292.761 17.348 105.739h150.523v-105.739z" fill="#ffb464"/><path d="m109.013 299.564-16.078 61.329c-4.985 19.016 9.361 37.608 29.019 37.608h29.523c24.419 0 38.609-27.617 24.389-47.469l-41.738-58.27c-8.19-8.191-22.178-4.403-25.115 6.802z" fill="#ffd06a"/><path d="m134.129 204.239 17.348-105.739h150.523v105.739z" fill="#ffb464"/><path d="m109.013 197.436-16.078-61.329c-4.985-19.015 9.361-37.607 29.02-37.607h29.523c24.419 0 38.609 27.617 24.389 47.469l-41.738 58.27c-8.191 8.19-22.179 4.402-25.116-6.803z" fill="#ffd06a"/><path d="m489.5 235.51-25.731-14.856c-4.561-2.633-8.348-6.42-10.981-10.981l-19.788-34.274c-25.162-44.994-72.827-75.678-127.763-76.844v299.889c54.936-1.165 102.601-31.849 127.763-76.844l19.788-34.274c2.633-4.561 6.42-8.348 10.981-10.981l25.731-14.855c10-5.773 10-20.207 0-25.98z" fill="#ffb464"/><path d="m305.237 98.556c-1.078-.023-2.154-.056-3.238-.056-41.424 0-78.927 16.792-106.072 43.94l-84.846 84.846c-11.716 11.716-11.716 30.711 0 42.426l84.846 84.846c27.146 27.15 64.648 43.942 106.073 43.942 1.084 0 2.159-.033 3.238-.056 60.332-2.145 108.75-68.455 108.75-149.944s-48.419-147.799-108.751-149.944z" fill="#ffd06a"/><path d="m407.23 203.5c0 24.853-20.147 45-45 45s-45-20.147-45-45 20.147-45 45-45 45 20.147 45 45z" fill="#fff"/><circle cx="362.23" cy="203.5" fill="#515985" r="15"/><path d="m265.195 203.5-6.971-6.971c-6.65-6.651-17.796-5.667-23.008 2.161-20.026 30.076-20.026 69.545 0 99.621 5.213 7.829 16.358 8.812 23.008 2.161l6.971-6.971z" fill="#ffb464"/><path d="m280.196 248.5c0-6.743 1.484-13.139 4.143-18.881 1.312-2.834.802-6.175-1.407-8.383l-17.737-17.736c-9.417 12.535-14.999 28.115-14.999 45 0 16.886 5.583 32.465 15 45.001l17.737-17.737c2.209-2.209 2.719-5.549 1.407-8.383-2.66-5.742-4.144-12.138-4.144-18.881z" fill="#ff985f"/></g><g/><g/><g/><g/><g/><g/><g/><g/><g/><g/><g/><g/><g/><g/><g/></svg>