<svg id="flat" height="512" viewBox="0 0 64 64" width="512" xmlns="http://www.w3.org/2000/svg"><g fill="#b3b835"><path d="m41.5 12a6.5 6.5 0 1 0 6.5 6.5 6.5 6.5 0 0 0 -6.5-6.5zm0 9.5a3 3 0 1 1 3-3 3 3 0 0 1 -3 3z"/><path d="m42.4518 27.7143c-.03-.0318-.0266-.0284-.0159-.0178-2.2051-2.1995-5.4359-5.559-5.4359-8.6724v-11.0241h-10v11.0241c0 3.1134-3.2308 6.4729-5.4359 8.6724.0107-.0106.0145-.014-.0159.0178-3.3899 3.5333-5.5482 8.9757-5.5482 15.8796 0 5.4865 3.7336 14.1294 5.1649 17.2412a1.9982 1.9982 0 0 0 1.8174 1.1649h18.0354a1.9982 1.9982 0 0 0 1.8174-1.1649c1.4313-3.1118 5.1649-11.7551 5.1649-17.2412 0-6.9039-2.1583-12.3463-5.5482-15.8796z"/><path d="m21.5482 27.7143.0159-.0178c-.0208.0208-.0768.0782-.0159.0178z"/></g><path d="m27 3h10a2 2 0 0 1 2 2v3a0 0 0 0 1 0 0h-14a0 0 0 0 1 0 0v-3a2 2 0 0 1 2-2z" fill="#fac939"/><ellipse cx="32" cy="44" fill="#d7dd3f" rx="10" ry="12"/></svg>