<svg id="FRUIT" enable-background="new 0 0 512 512" height="512" viewBox="0 0 512 512" width="512" xmlns="http://www.w3.org/2000/svg"><g><path d="m256.001 376c66.274 0 126.274-26.863 169.705-70.293l-15.428-15.428c-39.483 39.482-94.028 63.902-154.277 63.902-60.25 0-114.796-24.42-154.279-63.902l-15.428 15.428c43.432 43.43 103.433 70.293 169.707 70.293z" fill="#ed6b00"/><path d="m256.001 354.182c60.249 0 114.794-24.42 154.277-63.902l-13.947-13.947c-19.464 35.957-65.067 51.705-89.028 48.104-28.433-4.26-33.218-16.91-36.328-29.086-3.113-12.172-26.07-132.311-12.6-141.809 2.626-1.854 8.736-.955 16.938 1.773l-19.313-19.315-13.888 13.889c11.612 21.057 9.675 126.725 4.971 141.799-1.915 2.498 1.426 17.014-22.217 31.402-48.579 17.219-96.999-20.541-108.715-47.24l-14.43 14.43c39.484 39.482 94.03 63.902 154.28 63.902z" fill="#ffffbf"/><path d="m224.867 323.09c23.643-14.389 20.302-28.904 22.217-31.402 4.704-15.074 6.641-120.742-4.971-141.799l-125.962 125.961c11.717 26.699 60.137 64.459 108.716 47.24zm-14.337-25.266c-5.483 4.568-10.051 6.396-10.964-3.656-.914-10.051 25.584-65.787 25.584-65.787s-9.138 64.871-14.62 69.443zm-50.477-52.308c2.172-3.217 55.039-53.445 55.039-53.445s-43.711 61.764-48.893 62.295c-5.18.521-8.316-5.628-6.146-8.85z" fill="#f4c53d"/><path d="m258.375 153.541c-13.47 9.498 9.487 129.637 12.6 141.809 3.11 12.176 7.895 24.826 36.328 29.086 23.961 3.602 69.564-12.146 89.028-48.104l-121.018-121.018c-8.202-2.728-14.311-3.626-16.938-1.773zm50.406 104.662c-1.143 5.023-6.31 5.303-7.916 1.91-1.597-3.375-21.006-73.809-21.006-73.809s30.06 66.872 28.922 71.899z" fill="#f4c53d"/><g fill="#fff"><path d="m308.781 258.203c1.139-5.027-28.922-71.898-28.922-71.898s19.41 70.434 21.006 73.809c1.606 3.392 6.773 3.113 7.916-1.911z"/><path d="m166.199 254.365c5.181-.531 48.893-62.295 48.893-62.295s-52.867 50.229-55.039 53.445c-2.17 3.223.966 9.372 6.146 8.85z"/><path d="m199.566 294.168c.914 10.053 5.481 8.225 10.964 3.656 5.481-4.572 14.62-69.443 14.62-69.443s-26.498 55.736-25.584 65.787z"/></g></g></svg>