<svg id="Zucchini" enable-background="new 0 0 64 64" viewBox="0 0 64 64" xmlns="http://www.w3.org/2000/svg"><g><path d="m6.15535 55.22685c.06836.13122.1366.2614.20733.39227 4.32922 8.60898 17.20845 11.43467 25.76727 4.43319 12.04665-9.85897 20.89761-22.31669 25.83957-35.60408 2.70774-7.24671-1.47998-15.06493-8.44865-16.83602-.08062-.02156-.162-.04312-.24332-.06409-5.97214-1.45964-11.65814 1.3726-14.18969 6.23644-4.37718 8.6195-12.10472 16.75175-21.94775 20.86975-7.86598 3.36109-11.05181 12.27313-6.98476 20.57254z" fill="#75d64c"/><path d="m55.13509 10.86922c-.14401-.55546-.34967-1.05944-.6274-1.48111-.65829-1.00802-1.64566-1.56342-2.93134-1.56342-.0103 0-.0103 0-.0103 0-.73029-.22631-1.41941-.30855-2.07769-.22631-2.51996.33944-4.8342 3.10624-8.83527 9.96666-5.03986 8.72215-15.17112 18.94594-24.09893 24.31495-8.66038 5.23535-10.97461 8.82498-10.7483 12.58945.11313.25714.22625.50398.34967.76112.07201.12348.13372.25714.20572.39085.14401.29832.30855.58628.47316.86401l.21596-.06171-.20573.06169c.59658 1.01825 1.33717 1.95427 2.17029 2.7771.23655.09253.48339.16454.75082.23655.81253.20572 1.76908.32914 2.8491.32914 3.54845 0 8.37235-1.31657 13.23744-5.15305 11.40659-9.04094 21.1264-20.92068 27.35942-33.45871 1.92338-3.83654 2.62279-7.74501 1.92338-10.34721zm-3.55874 9.53462c-6.11989 12.30149-15.65457 23.96521-26.8555 32.83138-5.81127 4.5873-11.43747 5.27641-14.49224 4.49476-1.17256-.30861-2.02628-.85371-2.27312-1.45029 0-.02059-.0103-.07201-.02059-.09253-.84336-3.16795-.74053-6.52104 9.56557-12.74376 9.15406-5.50278 19.56298-16.00424 24.73663-24.96294 5.369-9.21577 7.00443-9.5038 8.87639-8.8764.14395.05142.30856.06171.45257.04118.59651-.03089 1.05937.20566 1.40911.74053 1.01825 1.56341.86394 5.50271-1.39882 10.01807z" fill="#579c35"/><path d="m53.83339 33.66488c-5.13829 9.80122-12.48907 18.85256-21.70514 26.38627-8.5577 7.00346-21.4308 4.1692-25.76451-4.42511-.07321-.14632-.14632-.27422-.20123-.40223-3.91306-7.95435-1.15201-16.47544 6.03437-20.13259 5.44911 4.46172 12.41596 7.14967 20.00458 7.14967 8.37478-.00001 15.9817-3.27312 21.63193-8.57601z" opacity=".15"/><path d="m45.22191 9.34866c1.46362 2.11588 3.48177 1.49609 5.43422 2.62334s2.42478 3.18491 4.98899 3.3945c.94202.07246 3.17829-.74764 2.23555-4.12064-.46275-1.68768.03117-3.28619 1.4607-5.95177.60042-1.11958.19673-2.52041-.90349-3.15562l-3.15646-1.82238c-1.10021-.63521-2.5152-.28441-3.18458.79534-1.59373 2.57079-2.73117 3.79777-4.42413 4.24086-3.39247.87007-2.98456 3.21679-2.4508 3.99637z" fill="#ad6340"/></g></svg>