<svg height="512" viewBox="0 0 128 128" width="512" xmlns="http://www.w3.org/2000/svg"><g id="Dessert"><path d="m68.67383 17a2 2 0 0 1 -1.71583-3.02441c.291-.48829 7.28028-11.97559 19.54688-11.97559a2 2 0 0 1 0 4c-10.01953 0-16.05176 9.92383-16.11133 10.02441a1.99744 1.99744 0 0 1 -1.71972.97559z" fill="#424242"/><circle cx="68.676" cy="27" fill="#c62828" r="14"/><path d="m106.31934 45.31055c-.37207-4.66016-4.75293-8.31055-9.97461-8.31055h-55.08008c-5.2207 0-9.60156 3.65039-9.97266 8.30664l-.54 6.60059v.002l-5 61.92969a1.99946 1.99946 0 0 0 1.99313 2.16108h82.05957a1.99921 1.99921 0 0 0 1.99316-2.15918z" fill="#6d4c41"/><path d="m106.31934 45.31055c-.37207-4.66016-4.75293-8.31055-9.97461-8.31055h-55.08008c-5.2207 0-9.60156 3.65039-9.97266 8.30664l-.54 6.60059v.002l-3.66959 45.45112h44.9674a2.00625 2.00625 0 0 0 .93067-.22949 6.68662 6.68662 0 0 0 1.61328-1.19727 7.0324 7.0324 0 0 0 2.07617-5.0039v-15.48926a4.23027 4.23027 0 0 1 4.23047-4.2207h.36914a4.23027 4.23027 0 0 1 4.23047 4.2207v1.48926a7.06983 7.06983 0 1 0 14.13965 0v-1.48926a4.23027 4.23027 0 0 1 4.23047-4.2207h4.52044z" fill="#ffcc80"/><path d="m118.80469 112h-90.76953a2.00018 2.00018 0 0 0 -1.99707 2.10547l.52929 10a1.99937 1.99937 0 0 0 1.99707 1.89453h80.48047a11.89492 11.89492 0 0 0 11.75977-12 2.0001 2.0001 0 0 0 -2-2z" fill="#e7685d"/><path d="m67.33984 89.39355a2.00217 2.00217 0 0 0 -1.52343-.7041h-54.02341a2.0005 2.0005 0 0 0 -1.97461 2.32032l4.7373 29.21191a7.25188 7.25188 0 0 0 7.42869 5.77832h33.64162a7.251 7.251 0 0 0 7.42773-5.77832l4.73727-29.21191a2.00026 2.00026 0 0 0 -.45116-1.61622z" fill="#49361f"/><g fill="#8f6c56"><path d="m38.80469 93.71973a2.0001 2.0001 0 0 0 -2 2v30.28027h4v-30.28027a2.0001 2.0001 0 0 0 -2-2z"/><path d="m53.877 93.94238a2.00652 2.00652 0 0 0 -2.25 1.71485l-4.10222 30.34277h4.03722l4.0298-29.80762a2.00117 2.00117 0 0 0 -1.7148-2.25z"/><path d="m25.98242 95.65723a2.0004 2.0004 0 1 0 -3.96484.53515l4.02984 29.80762h4.03717z"/></g><path d="m53.294 61.99316a18.10792 18.10792 0 0 0 -28.97852 0c-9.67778.78907-17.12017 9.07618-17.12017 19.30274a20.00137 20.00137 0 0 0 2.665 9.998 2.00045 2.00045 0 0 0 1.73145.999h54.42582a2.00044 2.00044 0 0 0 1.73144-.999 20.00024 20.00024 0 0 0 2.666-9.998c-.00002-10.22656-7.44236-18.51367-17.12102-19.30274z" fill="#f6967d"/></g></svg>