<svg id="Capa_1" enable-background="new 0 0 497.003 497.003" height="512" viewBox="0 0 497.003 497.003" width="512" xmlns="http://www.w3.org/2000/svg"><g><path d="m211.768 63.43-29.168 13.313c-1.702.777-3.364 1.613-4.997 2.49v-13.364-9.823c0-12.575 3.948-24.834 11.287-35.046l6.93-9.643c3.787-5.269-1.864-12.145-7.767-9.451l-20.443 9.33c-21.393 9.764-35.119 31.117-35.119 54.633 0-23.516-13.726-44.868-35.119-54.633l-20.442-9.33c-5.903-2.694-11.554 4.182-7.767 9.451l6.93 9.643c7.339 10.212 11.286 22.47 11.286 35.046v9.823 13.364c-1.633-.877-3.295-1.714-4.997-2.49l-29.168-13.313c-8.423-3.844-16.485 5.966-11.083 13.485l9.888 13.759c10.471 14.571 16.104 32.062 16.104 50.005v14.016h128.735v-14.016c0-17.943 5.633-35.434 16.104-50.005l9.888-13.759c5.404-7.519-2.659-17.33-11.082-13.485z" fill="#97da7b"/><path d="m82.38 76.741-29.17-13.31c-4.61-2.11-9.1-.12-11.34 3.34l21.85 9.97c13.45 5.43 22.03 3.01 23.66 2.49-1.63-.88-3.3-1.71-5-2.49zm14.99-65.5-20.44-9.33c-4.1-1.87-8.07.87-8.85 4.48l10.63 4.85c21.39 9.76 53.78 38.51 53.78 54.63 0-23.52-13.72-44.87-35.12-54.63zm90.68-9.33-9.81 4.48c.35 1.59.07 3.36-1.09 4.97l-6.93 9.64c-.07.1-.14.2-.22.31-10.87 15.33-9.95 36.12 1.84 50.76l5.76 7.16v-23.18c0-12.58 3.95-24.84 11.29-35.05l6.93-9.64c3.79-5.27-1.86-12.15-7.77-9.45zm23.72 61.52-7.32 3.34c1.87 2.86 2.18 6.74-.27 10.14l-9.88 13.76c-10.47 14.57-16.11 32.06-16.11 50.01v14.01h18.67v-14.01c0-17.95 5.63-35.44 16.1-50.01l9.89-13.76c5.4-7.51-2.66-17.33-11.08-13.48z" fill="#80d261"/><path d="m132.207 438.148c-51.431 0-97.361-32.193-114.906-80.539l-.85-2.343c-18.87-51.996-18.87-108.97 0-160.966l.85-2.343c17.545-48.346 63.475-80.539 114.906-80.539h1.164c51.14 0 96.875 31.835 114.633 79.793 19.214 51.89 19.578 108.882 1.028 161.013l-1.66 4.664c-17.335 48.72-63.452 81.26-115.165 81.26z" fill="#ffd15b"/><path d="m262.68 273.131c0 26.75-4.55 53.5-13.65 79.09l-1.66 4.67c-17.33 48.72-63.45 81.26-115.16 81.26-5.02 0-9.99-.31-14.88-.91 45.5-5.58 84.6-36.37 100.24-80.35l1.66-4.67c9.11-25.59 13.65-52.35 13.65-79.1 0-27.75-4.89-55.49-14.67-81.91-16.08-43.43-55.1-73.63-100.3-78.95 4.71-.56 9.48-.84 14.3-.84h1.16c51.14 0 96.88 31.83 114.63 79.79 9.79 26.42 14.68 54.17 14.68 81.92z" fill="#ffc344"/><path d="m418.969 72.123c4.195-4.195 11.057-4.064 15.062.314 86.395 94.435 83.889 241.088-7.517 332.494-93.983 93.983-246.37 93.982-340.352 0l27.664-27.664 159.674-135.94 125.338-149.074z" fill="#97da7b"/><path d="m426.51 404.931c-50.66 50.66-118.3 74.01-184.6 70.06 56.69-3.39 112.41-26.75 155.72-70.06 87.057-87.056 93.471-224.229 19.253-318.668-2.238-2.848-6.083-3.893-9.463-2.592l11.546-11.546c4.195-4.195 11.056-4.064 15.061.313 86.402 94.433 83.897 241.089-7.517 332.493z" fill="#80d261"/><path d="m398.849 92.242c78.709 78.709 78.709 206.316 0 285.024s-206.315 78.709-285.024 0l142.512-142.512z" fill="#ee6161"/><path d="m398.85 377.271c-42.87 42.87-100.26 62.39-156.34 58.55 46.88-3.2 92.85-22.72 128.69-58.55 74.04-74.05 78.42-191.37 13.16-270.54l14.49-14.49c78.71 78.71 78.71 206.32 0 285.03z" fill="#e94444"/><circle cx="238.417" cy="403.679" fill="#ffd15b" r="92.021"/><path d="m330.44 403.681c0 50.82-41.2 92.02-92.02 92.02-4.41 0-8.76-.31-13-.92 44.67-6.31 79.02-44.69 79.02-91.1s-34.35-84.79-79.02-91.1c4.24-.61 8.59-.92 13-.92 50.82 0 92.02 41.2 92.02 92.02z" fill="#ffc344"/><path d="m108.699 492.734-1.194-.384c-6.594-2.119-13.595-2.119-20.188 0-36.477 11.722-74.463-12.368-83.824-53.16l-.102-.443c-4.522-19.703-4.522-40.346 0-60.049l.412-1.796c9.243-40.274 46.442-64.368 82.639-53.527l1.528.458c6.182 1.852 12.697 1.852 18.879 0l2.706-.81c35.74-10.704 72.558 12.652 82.33 52.226l.326 1.322c5.197 21.048 5.197 43.256 0 64.303-9.898 40.089-47.494 63.435-83.512 51.86z" fill="#f79595"/><path d="m192.21 440.871c-7.32 29.63-29.76 50.12-55.52 54.11 14.96-12.17 26.28-32.41 31.64-54.11 5.2-21.04 5.2-43.25 0-64.3l-.32-1.32c-6.24-25.28-20.04-45.94-38.51-54.78 28.6 1.13 54.44 22.59 62.39 54.78l.32 1.32c5.2 21.05 5.2 43.26 0 64.3z" fill="#f47c7c"/><g><g><path d="m98.055 353.905c-4.143 0-7.5-3.357-7.5-7.5 0-46.416-29.3-62.73-29.596-62.89-3.647-1.964-5.012-6.513-3.048-10.159s6.512-5.013 10.159-3.048c1.53.824 37.484 20.82 37.484 76.097.001 4.143-3.357 7.5-7.499 7.5z" fill="#97da7b"/></g></g><g><g><g><path d="m356.793 342.711c-1.919 0-3.839-.732-5.304-2.196l-11.326-11.326c-2.929-2.93-2.929-7.678 0-10.607 2.93-2.928 7.678-2.928 10.607 0l11.326 11.326c2.929 2.93 2.929 7.678 0 10.607-1.464 1.463-3.384 2.196-5.303 2.196z" fill="#935b50"/></g></g></g><g><g><g><path d="m388.237 296.387c-1.021 0-2.057-.209-3.049-.651l-14.599-6.505c-3.783-1.686-5.483-6.119-3.798-9.903 1.687-3.782 6.119-5.485 9.903-3.798l14.599 6.505c3.783 1.686 5.483 6.119 3.798 9.903-1.243 2.79-3.983 4.449-6.854 4.449z" fill="#935b50"/></g></g></g><g><g><g><path d="m400.52 241.514c-.126 0-.253-.003-.382-.01l-15.876-.796c-4.137-.207-7.322-3.729-7.114-7.866.2-4.009 3.515-7.124 7.484-7.124.126 0 .253.003.382.01l15.876.796c4.137.207 7.322 3.729 7.114 7.866-.2 4.009-3.515 7.124-7.484 7.124z" fill="#935b50"/></g></g></g><g><g><g><path d="m376.949 190.624c-3.136 0-6.059-1.981-7.11-5.118-1.316-3.927.8-8.178 4.728-9.495l14.983-5.023c3.924-1.315 8.179.8 9.495 4.728 1.316 3.927-.8 8.178-4.728 9.495l-14.983 5.023c-.79.264-1.595.39-2.385.39z" fill="#935b50"/></g></g></g><g><path d="m132.491 210.538c-1.919 0-3.839-.732-5.303-2.196l-16.525-16.524c-2.93-2.929-2.93-7.678-.001-10.606 2.93-2.93 7.679-2.929 10.606-.001l11.223 11.222 11.223-11.222c2.929-2.929 7.678-2.928 10.606.001s2.929 7.678-.001 10.606l-16.525 16.524c-1.464 1.463-3.384 2.196-5.303 2.196z" fill="#ffefd2"/></g><g><g><path d="m200.134 210.538c-1.919 0-3.839-.732-5.303-2.196l-16.525-16.524c-2.93-2.929-2.93-7.678-.001-10.606 2.93-2.93 7.679-2.929 10.606-.001l11.223 11.222 11.223-11.222c2.928-2.929 7.677-2.928 10.606.001s2.929 7.678-.001 10.606l-16.525 16.524c-1.464 1.463-3.384 2.196-5.303 2.196z" fill="#ffefd2"/></g></g><g><path d="m98.342 257.902c-1.989 0-3.896-.79-5.304-2.197l-16.524-16.525c-2.929-2.929-2.929-7.678.001-10.606 2.928-2.929 7.677-2.928 10.606.001l11.221 11.222 11.222-11.223c2.93-2.928 7.678-2.928 10.607 0 2.929 2.93 2.929 7.678 0 10.607l-16.525 16.525c-1.408 1.406-3.315 2.196-5.304 2.196z" fill="#ffefd2"/></g><g><g><path d="m165.984 257.902c-1.989 0-3.896-.79-5.304-2.197l-16.524-16.525c-2.929-2.929-2.929-7.678.001-10.606 2.929-2.929 7.678-2.928 10.606.001l11.221 11.222 11.222-11.223c2.93-2.928 7.678-2.928 10.607 0 2.929 2.93 2.929 7.678 0 10.607l-16.525 16.525c-1.407 1.406-3.314 2.196-5.304 2.196z" fill="#ffefd2"/></g></g><circle cx="255.199" cy="350.918" fill="#ffefd2" r="7.5"/></g></svg>