<svg id="Flat" height="512" viewBox="0 0 512 512" width="512" xmlns="http://www.w3.org/2000/svg"><g><path d="m488 72 16-16v-48h-9.373a16 16 0 0 0 -11.313 4.686 16 16 0 0 1 -22.628 0 16 16 0 0 0 -11.313-4.686h-2.746a16 16 0 0 0 -11.313 4.686 16 16 0 0 1 -22.628 0 16 16 0 0 0 -11.313-4.686h-2.746a16 16 0 0 0 -11.313 4.686 16 16 0 0 1 -22.628 0 16 16 0 0 0 -11.313-4.686h-2.746a16 16 0 0 0 -11.313 4.686 16 16 0 0 1 -22.628 0 16 16 0 0 0 -11.313-4.686h-2.746a16 16 0 0 0 -11.313 4.686 16 16 0 0 1 -22.628 0 16 16 0 0 0 -11.313-4.686h-2.746a16 16 0 0 0 -11.313 4.686 16 16 0 0 1 -22.628 0 16 16 0 0 0 -11.313-4.686h-9.373v48l16 16v376l-16 8v48h9.373a16 16 0 0 0 11.313-4.686 16 16 0 0 1 22.628 0 16 16 0 0 0 11.313 4.686h2.746a16 16 0 0 0 11.313-4.686 16 16 0 0 1 22.628 0 16 16 0 0 0 11.313 4.686h2.746a16 16 0 0 0 11.313-4.686 16 16 0 0 1 22.628 0 16 16 0 0 0 11.313 4.686h2.746a16 16 0 0 0 11.313-4.686 16 16 0 0 1 22.628 0 16 16 0 0 0 11.313 4.686h2.746a16 16 0 0 0 11.313-4.686 16 16 0 0 1 22.628 0 16 16 0 0 0 11.313 4.686h2.746a16 16 0 0 0 11.313-4.686 16 16 0 0 1 22.628 0 16 16 0 0 0 11.313 4.686h9.373v-48l-16-16z" fill="#fdc069"/><path d="m168 311.175v106.321l320-152.671v-106.321z" fill="#f29a49"/><path d="m231.293 504h-158.62a10 10 0 0 1 -9.9-8.586l-38.773-287.414v-8h256l-1.093 8-37.707 287.376a10 10 0 0 1 -9.907 8.624z" fill="#e64b30"/><path d="m8 176h288a0 0 0 0 1 0 0v12a20 20 0 0 1 -20 20h-248a20 20 0 0 1 -20-20v-12a0 0 0 0 1 0 0z" fill="#f29a49"/><path d="m152 256a48 48 0 0 0 48-48h-96a48 48 0 0 0 48 48z" fill="#fdc069"/><g fill="#f29a49"><path d="m280 424h208v16h-208z"/><path d="m216 72h240v16h-240z"/><path d="m376 120h48v16h-48z"/><path d="m248 120h112v16h-112z"/><path d="m376 376h56v16h-56z"/><path d="m448 376h16v16h-16z"/></g><path d="m51.759 413.765a429.14 429.14 0 0 1 200.158-.077l9.647-73.519a499.32 499.32 0 0 0 -219.716.133z" fill="#fff"/><rect fill="#fdc069" height="112" rx="10" transform="matrix(.707 -.707 .707 .707 -217.855 216.159)" width="112" x="96" y="315.054"/></g></svg>