<svg height="512" viewBox="0 0 512 512" width="512" xmlns="http://www.w3.org/2000/svg"><g id="flat"><rect fill="#f4a95a" height="336" rx="30" width="464" x="24.002" y="88"/><rect fill="#dc9851" height="304" rx="27.931" width="431.996" x="40.004" y="104"/><rect fill="#aa232e" height="240" rx="38" width="368" x="72" y="136"/><g fill="#dc2d3b"><path d="m439.95 172a56.1 56.1 0 0 1 -23.31-4.55 46.287 46.287 0 0 0 -35.07 0 62.241 62.241 0 0 1 -46.72 0 46.261 46.261 0 0 0 -35.06 0 62.241 62.241 0 0 1 -46.72 0 46.236 46.236 0 0 0 -35.05 0 56.132 56.132 0 0 1 -23.36 4.55 56.132 56.132 0 0 1 -23.36-4.55 40.723 40.723 0 0 0 -17.52-3.45 40.739 40.739 0 0 0 -17.53 3.45 56.132 56.132 0 0 1 -23.36 4.55 56.132 56.132 0 0 1 -23.36-4.55 40.257 40.257 0 0 0 -16.2-3.43 37.758 37.758 0 0 1 8.36-15.37 57.607 57.607 0 0 1 13.67 3.9 40.774 40.774 0 0 0 17.53 3.45 40.774 40.774 0 0 0 17.53-3.45 56.094 56.094 0 0 1 23.36-4.55 56.078 56.078 0 0 1 23.35 4.55 40.774 40.774 0 0 0 17.53 3.45 40.774 40.774 0 0 0 17.53-3.45 56.078 56.078 0 0 1 23.35-4.55 56.094 56.094 0 0 1 23.36 4.55 46.261 46.261 0 0 0 35.06 0 62.241 62.241 0 0 1 46.72 0 46.261 46.261 0 0 0 35.06 0 62.267 62.267 0 0 1 46.73 0 40.291 40.291 0 0 0 12.92 3.28 37.829 37.829 0 0 1 4.56 16.17z"/><path d="m440 204a56.087 56.087 0 0 1 -23.362-4.55 46.272 46.272 0 0 0 -35.064 0 62.246 62.246 0 0 1 -46.722 0 46.259 46.259 0 0 0 -35.059 0 62.238 62.238 0 0 1 -46.719 0 46.254 46.254 0 0 0 -35.057 0 56.074 56.074 0 0 1 -23.359 4.55 56.06 56.06 0 0 1 -23.357-4.55 40.735 40.735 0 0 0 -17.526-3.45 40.745 40.745 0 0 0 -17.528 3.45 56.074 56.074 0 0 1 -23.359 4.55 56.074 56.074 0 0 1 -23.359-4.55 40.747 40.747 0 0 0 -17.529-3.45v-16a56.071 56.071 0 0 1 23.359 4.55 40.75 40.75 0 0 0 17.529 3.45 40.742 40.742 0 0 0 17.528-3.45 56.078 56.078 0 0 1 23.359-4.55 56.067 56.067 0 0 1 23.357 4.55 40.735 40.735 0 0 0 17.526 3.45 40.742 40.742 0 0 0 17.528-3.45 56.074 56.074 0 0 1 23.359-4.55 56.071 56.071 0 0 1 23.359 4.55 46.259 46.259 0 0 0 35.059 0 62.238 62.238 0 0 1 46.719 0 46.266 46.266 0 0 0 35.062 0 62.251 62.251 0 0 1 46.724 0 40.759 40.759 0 0 0 17.532 3.45z"/><path d="m440 236a56.087 56.087 0 0 1 -23.362-4.55 46.272 46.272 0 0 0 -35.064 0 62.246 62.246 0 0 1 -46.722 0 46.259 46.259 0 0 0 -35.059 0 62.238 62.238 0 0 1 -46.719 0 46.254 46.254 0 0 0 -35.057 0 56.074 56.074 0 0 1 -23.359 4.55 56.06 56.06 0 0 1 -23.357-4.55 40.735 40.735 0 0 0 -17.526-3.45 40.745 40.745 0 0 0 -17.528 3.45 56.074 56.074 0 0 1 -23.359 4.55 56.074 56.074 0 0 1 -23.359-4.55 40.747 40.747 0 0 0 -17.529-3.45v-16a56.071 56.071 0 0 1 23.359 4.55 40.75 40.75 0 0 0 17.529 3.45 40.742 40.742 0 0 0 17.528-3.45 56.078 56.078 0 0 1 23.359-4.55 56.067 56.067 0 0 1 23.357 4.55 40.735 40.735 0 0 0 17.526 3.45 40.742 40.742 0 0 0 17.528-3.45 56.074 56.074 0 0 1 23.359-4.55 56.071 56.071 0 0 1 23.359 4.55 46.259 46.259 0 0 0 35.059 0 62.238 62.238 0 0 1 46.719 0 46.266 46.266 0 0 0 35.062 0 62.251 62.251 0 0 1 46.724 0 40.759 40.759 0 0 0 17.532 3.45z"/><path d="m440 268a56.087 56.087 0 0 1 -23.362-4.55 46.272 46.272 0 0 0 -35.064 0 62.246 62.246 0 0 1 -46.722 0 46.259 46.259 0 0 0 -35.059 0 62.238 62.238 0 0 1 -46.719 0 46.254 46.254 0 0 0 -35.057 0 56.074 56.074 0 0 1 -23.359 4.55 56.06 56.06 0 0 1 -23.357-4.55 40.735 40.735 0 0 0 -17.526-3.45 40.745 40.745 0 0 0 -17.528 3.45 56.074 56.074 0 0 1 -23.359 4.55 56.074 56.074 0 0 1 -23.359-4.55 40.747 40.747 0 0 0 -17.529-3.45v-16a56.071 56.071 0 0 1 23.359 4.55 40.75 40.75 0 0 0 17.529 3.45 40.742 40.742 0 0 0 17.528-3.45 56.078 56.078 0 0 1 23.359-4.55 56.067 56.067 0 0 1 23.357 4.55 40.735 40.735 0 0 0 17.526 3.45 40.742 40.742 0 0 0 17.528-3.45 56.074 56.074 0 0 1 23.359-4.55 56.071 56.071 0 0 1 23.359 4.55 46.259 46.259 0 0 0 35.059 0 62.238 62.238 0 0 1 46.719 0 46.266 46.266 0 0 0 35.062 0 62.251 62.251 0 0 1 46.724 0 40.759 40.759 0 0 0 17.532 3.45z"/><path d="m440 300a56.087 56.087 0 0 1 -23.362-4.55 46.272 46.272 0 0 0 -35.064 0 62.246 62.246 0 0 1 -46.722 0 46.259 46.259 0 0 0 -35.059 0 62.238 62.238 0 0 1 -46.719 0 46.254 46.254 0 0 0 -35.057 0 56.074 56.074 0 0 1 -23.359 4.55 56.06 56.06 0 0 1 -23.357-4.55 40.735 40.735 0 0 0 -17.526-3.45 40.745 40.745 0 0 0 -17.528 3.45 56.074 56.074 0 0 1 -23.359 4.55 56.074 56.074 0 0 1 -23.359-4.55 40.747 40.747 0 0 0 -17.529-3.45v-16a56.071 56.071 0 0 1 23.359 4.55 40.75 40.75 0 0 0 17.529 3.45 40.742 40.742 0 0 0 17.528-3.45 56.078 56.078 0 0 1 23.359-4.55 56.067 56.067 0 0 1 23.357 4.55 40.735 40.735 0 0 0 17.526 3.45 40.742 40.742 0 0 0 17.528-3.45 56.074 56.074 0 0 1 23.359-4.55 56.071 56.071 0 0 1 23.359 4.55 46.259 46.259 0 0 0 35.059 0 62.238 62.238 0 0 1 46.719 0 46.266 46.266 0 0 0 35.062 0 62.251 62.251 0 0 1 46.724 0 40.759 40.759 0 0 0 17.532 3.45z"/><path d="m440 332a56.087 56.087 0 0 1 -23.362-4.55 46.272 46.272 0 0 0 -35.064 0 62.246 62.246 0 0 1 -46.722 0 46.259 46.259 0 0 0 -35.059 0 62.238 62.238 0 0 1 -46.719 0 46.254 46.254 0 0 0 -35.057 0 56.074 56.074 0 0 1 -23.359 4.55 56.06 56.06 0 0 1 -23.357-4.55 40.735 40.735 0 0 0 -17.526-3.45 40.745 40.745 0 0 0 -17.528 3.45 56.074 56.074 0 0 1 -23.359 4.55 56.074 56.074 0 0 1 -23.359-4.55 40.747 40.747 0 0 0 -17.529-3.45v-16a56.071 56.071 0 0 1 23.359 4.55 40.75 40.75 0 0 0 17.529 3.45 40.742 40.742 0 0 0 17.528-3.45 56.078 56.078 0 0 1 23.359-4.55 56.067 56.067 0 0 1 23.357 4.55 40.735 40.735 0 0 0 17.526 3.45 40.742 40.742 0 0 0 17.528-3.45 56.074 56.074 0 0 1 23.359-4.55 56.071 56.071 0 0 1 23.359 4.55 46.259 46.259 0 0 0 35.059 0 62.238 62.238 0 0 1 46.719 0 46.266 46.266 0 0 0 35.062 0 62.251 62.251 0 0 1 46.724 0 40.759 40.759 0 0 0 17.532 3.45z"/><path d="m438.67 347.98a37.758 37.758 0 0 1 -8.36 15.37 57.607 57.607 0 0 1 -13.67-3.9 46.287 46.287 0 0 0 -35.07 0 62.241 62.241 0 0 1 -46.72 0 46.261 46.261 0 0 0 -35.06 0 62.241 62.241 0 0 1 -46.72 0 46.236 46.236 0 0 0 -35.05 0 56.132 56.132 0 0 1 -23.36 4.55 56.132 56.132 0 0 1 -23.36-4.55 40.723 40.723 0 0 0 -17.52-3.45 40.739 40.739 0 0 0 -17.53 3.45 56.132 56.132 0 0 1 -23.36 4.55 56.132 56.132 0 0 1 -23.36-4.55 40.291 40.291 0 0 0 -12.92-3.28 37.829 37.829 0 0 1 -4.56-16.17 56.1 56.1 0 0 1 23.31 4.55 40.774 40.774 0 0 0 17.53 3.45 40.774 40.774 0 0 0 17.53-3.45 56.094 56.094 0 0 1 23.36-4.55 56.078 56.078 0 0 1 23.35 4.55 40.774 40.774 0 0 0 17.53 3.45 40.774 40.774 0 0 0 17.53-3.45 56.078 56.078 0 0 1 23.35-4.55 56.094 56.094 0 0 1 23.36 4.55 46.261 46.261 0 0 0 35.06 0 62.241 62.241 0 0 1 46.72 0 46.261 46.261 0 0 0 35.06 0 62.267 62.267 0 0 1 46.73 0 40.257 40.257 0 0 0 16.2 3.43z"/></g><path d="m136 88h96v336h-96z" fill="#dcdbd6"/><circle cx="184" cy="232" fill="#e6e5e0" r="80"/><circle cx="184" cy="232" fill="#a6deff" r="72"/><path d="m264 232a79.573 79.573 0 0 1 -6.6 31.85 147.893 147.893 0 0 1 -40.17-7.44l-1.23-.41-8 24h-16v-24a26.375 26.375 0 0 1 -14.66-4.44l-17.34-11.56v-24a19.308 19.308 0 0 0 13.66-5.66l2.34-2.34v-16h4.69a27.318 27.318 0 0 1 19.31 8h57.33a79.589 79.589 0 0 1 6.67 32z" fill="#faa6b2"/><circle cx="192" cy="221" fill="#d88f9a" r="5"/><path d="m184 352h-16a8 8 0 0 1 0-16h16a8 8 0 0 1 0 16z" fill="#cdccc8"/><path d="m200 384h-32a8 8 0 0 1 0-16h32a8 8 0 0 1 0 16z" fill="#cdccc8"/><path d="m184 152a80 80 0 1 0 80 80 80 80 0 0 0 -80-80zm0 152a72 72 0 1 1 72-72 72 72 0 0 1 -72 72z" fill="#dc9851"/></g></svg>