<?xml version="1.0" encoding="iso-8859-1"?>
<!-- Generator: Adobe Illustrator 19.0.0, SVG Export Plug-In . SVG Version: 6.00 Build 0)  -->
<svg version="1.1" id="Layer_1" xmlns="http://www.w3.org/2000/svg" xmlns:xlink="http://www.w3.org/1999/xlink" x="0px" y="0px"
	 viewBox="0 0 512 512" style="enable-background:new 0 0 512 512;" xml:space="preserve">
<path style="fill:#FF9A32;" d="M193.977,112.053c0,19.224-3.485,38.62-10.309,54.538c-7.577,17.674-23.148,29.65-36.805,40.39
	c-14.6,11.483-30.624,22.569-49.268,22.569c-18.645,0-38.236-6.579-52.837-18.064c-13.652-10.738-20.887-29.253-28.464-46.921
	C9.469,148.644,0,131.28,0,112.053c0-19.224,4.659-38.637,11.483-54.555c7.577-17.674,21.166-32.192,34.821-42.932
	C60.904,3.083,78.952,0.303,97.596,0.303c18.645,0,34.742,5.251,49.343,16.736c13.652,10.738,27.31,23.585,34.886,41.253
	C188.651,74.212,193.977,92.826,193.977,112.053z"/>
<g>
	<path style="fill:#FF7D28;" d="M154.243,100.529c1.561,11.167,1.281,22.693-1.06,32.448c-2.599,10.831-9.917,18.946-16.316,26.201
		c-6.841,7.757-14.472,15.389-24.398,16.776c-9.927,1.388-20.891-0.977-29.598-6.561c-8.14-5.222-13.496-15.439-18.963-25.138
		c-4.927-8.74-11.379-18.121-12.939-29.291c-1.561-11.167-0.657-22.79,1.684-32.545c2.599-10.831,8.655-20.275,15.053-27.53
		c6.841-7.757,16.225-10.714,26.151-12.102c9.927-1.388,18.923,0.465,27.63,6.05c8.14,5.222,16.455,11.668,21.923,21.367
		C148.335,78.944,152.682,89.361,154.243,100.529z"/>
	<path style="fill:#FF7D28;" d="M113.003,218.115c-0.649-4.012-3.849-6.985-7.843-7.733c-13.531-2.531-26.698-8.229-37.256-16.533
		c-13.652-10.738-20.888-29.253-28.464-46.921c-6.827-15.918-16.295-33.282-16.295-52.509c0-14.791,4.882-26.21,9.691-38.844
		c1.017-2.673,0.679-5.683-0.882-8.079c-0.034-0.053-0.068-0.105-0.102-0.158c-3.679-5.65-11.978-5.381-15.408,0.423
		c-1.847,3.125-3.516,6.369-4.96,9.736C4.659,73.416,0,92.828,0,112.053c0,19.227,9.469,36.591,16.295,52.512
		c7.577,17.668,14.812,36.183,28.464,46.921c13.519,10.633,31.314,17.061,48.677,17.956c4.018,0.207,8.016-0.012,11.951-0.605
		C110.442,228.073,113.819,223.164,113.003,218.115L113.003,218.115z"/>
</g>
<path style="fill:#FF9A32;" d="M483.9,483.035c-10.825,10.825-23.709,19.785-36.515,24.905c-14.219,5.685-29.731,3.661-43.468,2.019
	c-14.687-1.756-29.953-4.536-40.451-15.034c-10.499-10.499-17.826-25.235-19.581-39.924c-1.641-13.734,4.711-28.234,10.393-42.449
	c5.121-12.808,9.567-27.918,20.393-38.745c10.825-10.825,24.379-19.133,37.186-24.254c14.219-5.685,30.045-6.209,43.783-4.567
	c14.687,1.756,26.415,10.352,36.913,20.851c10.499,10.499,16.606,22.52,18.362,37.209c1.641,13.734,2.097,28.659-3.585,42.874
	C502.209,458.728,494.726,472.208,483.9,483.035z"/>
<g>
	<path style="fill:#FF7D28;" d="M468.015,454.172c-5.409,7.167-12.057,13.5-18.869,17.674c-7.562,4.634-16.253,5.084-23.941,5.566
		c-8.22,0.516-16.815,0.516-23.186-4.292c-6.371-4.809-11.214-12.313-12.971-20.361c-1.643-7.524,1.094-16.293,3.476-24.833
		c2.147-7.695,3.797-16.611,9.207-23.78c5.409-7.167,12.464-13.204,19.274-17.377c7.562-4.634,16.291-6.543,23.979-7.026
		c8.22-0.516,15.169,3.103,21.54,7.911s10.394,10.918,12.151,18.965c1.643,7.524,2.696,15.836,0.313,24.377
		C476.843,438.69,473.425,447.004,468.015,454.172z"/>
	<path style="fill:#FF7D28;" d="M378.579,497.162c1.893-2.624,1.767-6.1-0.062-8.771c-6.195-9.044-10.4-19.667-11.669-30.288
		c-1.641-13.734,4.711-28.234,10.393-42.45c5.121-12.808,9.567-27.917,20.393-38.745c8.329-8.329,17.509-12.009,27.33-16.416
		c2.079-0.932,3.582-2.817,4.053-5.046c0.011-0.048,0.021-0.098,0.031-0.147c1.11-5.253-3.715-9.775-8.915-8.438
		c-2.799,0.72-5.567,1.607-8.276,2.69c-12.806,5.121-26.361,13.428-37.186,24.254c-10.826,10.826-15.272,25.937-20.393,38.745
		c-5.683,14.215-12.034,28.715-10.393,42.449c1.625,13.6,8.026,27.241,17.299,37.521c2.146,2.38,4.521,4.507,7.07,6.388
		C371.53,501.328,376.196,500.465,378.579,497.162L378.579,497.162z"/>
</g>
<path style="fill:#6E4848;" d="M375.458,117.235c-9.2,9.2-22.434,10.1-33.211,14.63c-12.116,5.093-21.832,8.525-33.5,7.437
	c-12.787-1.194-25.759-0.906-34.753-9.899c-8.997-8.997-6.315-22.149-7.507-34.94c-1.086-11.666-4.256-23.042,0.838-35.155
	c4.531-10.776,11.93-19.879,21.128-29.078c9.2-9.2,16.64-20.413,27.417-24.944c12.116-5.093,25.71-5.597,37.378-4.508
	c12.787,1.194,23.973,7.413,32.966,16.405c8.997,8.997,20.522,19.798,21.713,32.589c1.086,11.666-10.447,23.146-15.54,35.26
	C387.856,95.809,384.656,108.038,375.458,117.235z"/>
<g>
	<path style="fill:#785353;" d="M335.062,113.956c-2.118,0-4.237-0.758-5.924-2.29c-3.607-3.272-3.875-8.842-0.603-12.451
		c7.112-7.844,13.441-11.349,18.521-14.156c2.868-1.593,5.348-2.97,7.611-4.925c3.677-3.203,9.239-2.816,12.433,0.878
		c3.194,3.677,2.798,9.248-0.878,12.433c-3.651,3.177-7.198,5.14-10.626,7.035c-4.555,2.523-8.851,4.899-14.009,10.583
		C339.85,112.983,337.456,113.956,335.062,113.956z"/>
	<path style="fill:#785353;" d="M367.929,63.946c-4.874,0-8.817-3.943-8.817-8.817c0-4.788,0.551-10.014,4.555-15.8
		c2.773-3.995,8.257-5.011,12.27-2.23c4.004,2.773,5.003,8.266,2.23,12.27c-1.206,1.739-1.421,3.022-1.421,5.761
		C376.746,60.003,372.803,63.946,367.929,63.946z"/>
</g>
<path style="fill:#643C3E;" d="M349.361,29.786c-3.031-3.823-8.576-4.478-12.382-1.429c-10.032,7.948-12.089,13.897-13.906,21.422
	c-1.059,4.409-2.152,8.973-7.878,16.713c-1.86,2.514-4.943,4.874-8.205,7.371c-4.798,3.671-10.881,11.673-13.82,10.387
	c-5.144,0.184-3.665-14.783,0.607-24.943c4.531-10.776,11.93-19.879,21.128-29.078c2.139-2.139,4.609-4.428,6.895-6.665
	c5.62-5.497,4.125-15.509-3.295-18.105c-1.03-0.359-1.944-0.465-2.633-0.174c-10.778,4.531-18.218,15.744-27.417,24.944
	c-9.198,9.198-16.597,18.302-21.128,29.078c-5.093,12.114-1.923,23.49-0.838,35.155c1.191,12.791-1.49,25.944,7.507,34.94
	c3.419,3.418,7.412,5.494,11.751,6.821c6.536,1.998,11.999-3.019,13.003-9.779c0.483-3.252,0.758-25.295,18.961-38.582
	c4.162-3.037,8.318-6.371,11.658-10.884c7.862-10.626,9.592-17.815,10.858-23.068c1.179-4.917,1.671-6.949,7.706-11.744
	C351.746,39.145,352.392,33.6,349.361,29.786z"/>
<path style="fill:#C87857;" d="M133.037,378.833c0,13.01-8.721,23.004-13.139,33.829c-4.966,12.169-9.409,21.466-18.429,28.947
	c-9.885,8.198-18.855,17.575-31.573,17.575c-12.723,0-20.126-11.196-30.015-19.399c-9.017-7.481-19.303-13.284-24.267-25.451
	c-4.416-10.823-5.621-22.493-5.621-35.501c0-13.01-2.668-26.2,1.749-37.025c4.966-12.169,14.222-22.138,23.242-29.618
	c9.885-8.198,22.193-11.709,34.911-11.709c12.723,0,28.51-0.513,38.398,7.691c9.017,7.481,8.979,23.753,13.943,35.921
	C126.653,354.915,133.037,365.824,133.037,378.833z"/>
<g>
	<path style="fill:#D28764;" d="M102.154,405.078c-1.498,1.498-3.531,2.46-5.808,2.569c-4.865,0.237-8.992-3.514-9.23-8.377
		c-0.518-10.576,1.479-17.528,3.087-23.106c0.902-3.154,1.681-5.881,1.9-8.865c0.335-4.865,4.542-8.524,9.413-8.171
		c4.858,0.341,8.517,4.561,8.171,9.413c-0.335,4.828-1.455,8.725-2.539,12.487c-1.437,5.005-2.795,9.723-2.424,17.388
		C104.852,401.005,103.847,403.385,102.154,405.078z"/>
	<path style="fill:#D28764;" d="M90.033,346.476c-3.446,3.446-9.023,3.446-12.47,0c-3.385-3.386-6.691-7.47-7.952-14.393
		c-0.864-4.786,2.296-9.383,7.099-10.253c4.792-0.871,9.383,2.308,10.253,7.099c0.378,2.082,1.133,3.142,3.068,5.078
		C93.478,337.453,93.478,343.03,90.033,346.476z"/>
</g>
<path style="fill:#B9644B;" d="M52.749,335.449c-4.846-0.56-9.23,2.899-9.766,7.745c-1.474,12.713,1.278,18.375,5.316,24.981
	c2.369,3.866,4.822,7.866,6.247,17.388c0.463,3.093-0.048,6.941-0.591,11.014c-0.796,5.988,0.56,15.948-2.427,17.116
	c-3.507,3.766-13.044-7.862-17.208-18.066c-4.415-10.823-5.621-22.492-5.621-35.501c0-3.025,0.128-6.39,0.163-9.588
	c0.086-7.862-8.05-13.884-15.132-10.471c-0.982,0.474-1.704,1.046-1.985,1.739c-4.417,10.824-1.749,24.015-1.749,37.024
	c0,13.009,1.206,24.678,5.621,35.501c4.964,12.167,15.25,17.97,24.267,25.451c9.887,8.203,17.292,19.399,30.015,19.399
	c4.834,0,9.126-1.356,13.132-3.486c6.034-3.208,6.349-10.619,2.279-16.11c-1.959-2.642-17.35-18.423-13.874-40.689
	c0.795-5.091,1.375-10.387,0.548-15.94c-1.954-13.073-5.815-19.38-8.633-23.989c-2.643-4.31-3.732-6.095-2.856-13.754
	C61.053,340.381,57.589,336.004,52.749,335.449z"/>
<path style="fill:#FFDC64;" d="M493.212,177.394c7.227,7.017,8.247,17.074,11.965,25.277c4.179,9.221,7.035,16.613,6.505,25.474
	c-0.582,9.711-0.034,19.569-6.642,26.373c-6.611,6.808-16.675,4.731-26.37,5.598c-8.84,0.79-17.407,3.164-26.746-0.742
	c-8.307-3.475-15.415-9.124-22.641-16.14c-7.227-7.017-15.94-12.703-19.658-20.905c-4.179-9.221-4.908-19.55-4.377-28.411
	c0.582-9.711,5.026-18.191,11.634-24.997c6.611-6.808,14.528-15.531,24.222-16.398c8.84-0.79,17.86,8.007,27.198,11.913
	C476.609,167.91,485.986,170.378,493.212,177.394z"/>
<g>
	<path style="fill:#FFC850;" d="M487.008,234.889c-2.569-0.162-5.042-1.441-6.643-3.698c-7.582-10.694-15.704-13.769-23.557-16.742
		c-9.885-3.73-22.178-8.388-24.298-28.383c-0.514-4.846,2.996-9.189,7.834-9.694c4.873-0.511,9.181,2.996,9.694,7.834
		c0.98,9.207,3.769,10.263,13.004,13.754c8.865,3.355,21.007,7.944,31.702,23.027c2.82,3.974,1.886,9.481-2.087,12.292
		C490.941,234.498,488.95,235.011,487.008,234.889z"/>
	<path style="fill:#FFC850;" d="M495.756,243.23c-8.84,0.789-17.407,3.164-26.746-0.743c-8.307-3.474-15.415-9.124-22.64-16.14
		c-7.227-7.017-15.94-12.704-19.658-20.907c-2.672-5.893-3.43-8.247-3.519-11.712c-0.117-4.528-1.23-8.973-3.593-12.837
		l-0.056-0.093c-2.605-4.26-9.035-4.031-11.112,0.511c-1.784,3.903-2.913,8.112-3.183,12.606c-0.531,8.861,0.197,19.19,4.377,28.411
		c3.718,8.202,12.431,13.889,19.658,20.905c7.226,7.016,14.334,12.665,22.64,16.14c9.338,3.906,17.905,1.532,26.746,0.742
		c9.693-0.866,19.759,1.21,26.37-5.598c3.262-3.36,2.496-8.07,0.66-9.539C502.227,242.201,500.78,242.781,495.756,243.23z"/>
</g>
<path style="fill:#C87857;" d="M308.011,352.827c-14.774,30.106-12.686,46.51-28.329,78.388
	c-20.858,42.503-56.721,38.105-77.152,28.089c-20.432-10.016-45.866-35.666-25.008-78.169
	c15.644-31.877,29.901-40.268,44.675-70.374c14.774-30.106,12.685-46.51,28.328-78.388c20.858-42.503,56.721-38.105,77.152-28.089
	c20.431,10.016,45.866,35.666,25.008,78.169C337.042,314.33,322.785,322.719,308.011,352.827z"/>
<g>
	<path style="fill:#B9644B;" d="M237.812,437.131c-4.202,0-9.084-1.128-14.766-3.918c-4.366-2.136-6.174-7.422-4.029-11.796
		c2.136-4.357,7.422-6.191,11.796-4.029c8.386,4.09,10.023,2.626,14.621-6.751c6.01-12.253,8.456-21.087,11.547-32.255
		c2.918-10.565,6.234-22.551,12.632-37.188c1.946-4.452,7.139-6.527,11.607-4.546c4.46,1.946,6.5,7.146,4.546,11.607
		c-5.89,13.492-9.024,24.824-11.787,34.83c-3.074,11.099-5.985,21.587-12.718,35.32
		C258.461,424.111,252.063,437.131,237.812,437.131z"/>
	<path style="fill:#B9644B;" d="M219.283,406.641c-1.301,0-2.626-0.284-3.875-0.904c-4.374-2.144-6.174-7.422-4.029-11.796
		c6.742-13.759,13.26-22.456,20.157-31.669c2.927-3.883,8.438-4.675,12.347-1.773c3.9,2.918,4.693,8.447,1.773,12.347
		c-6.673,8.903-12.433,16.593-18.452,28.863C225.681,404.832,222.547,406.641,219.283,406.641z"/>
</g>
<path style="fill:#D28764;" d="M295.907,320.295c-1.696,0-3.401-0.483-4.917-1.507c-4.038-2.712-5.106-8.198-2.385-12.236
	c3.927-5.838,7.724-10.918,11.306-15.714c2.918-3.9,8.499-4.727,12.374-1.825c3.9,2.918,4.736,8.395,1.816,12.296l-0.069,0.095
	c-3.419,4.572-7.052,9.42-10.806,14.999C301.531,318.935,298.741,320.295,295.907,320.295z"/>
<g>
	<path style="fill:#B9644B;" d="M276.952,288.361L276.952,288.361c-4.7-1.303-7.452-6.155-6.143-10.853
		c2.018-7.248,4.56-16.162,6.139-20.562c1.644-4.589,6.716-6.974,11.279-5.321c4.581,1.644,6.966,6.699,5.321,11.279
		c-1.409,3.924-3.818,12.385-5.754,19.346C286.49,286.938,281.64,289.661,276.952,288.361z"/>
	<path style="fill:#B9644B;" d="M280.159,282.856h0.086H280.159z"/>
</g>
<path style="fill:#D28764;" d="M326.338,274.573c-1.301,0-2.626-0.293-3.883-0.904c-4.366-2.144-6.165-7.431-4.021-11.805
	c1.145-2.324,3.823-7.767,2.945-10.324c-0.56-1.644-2.884-3.539-6.552-5.339c-4.366-2.136-6.174-7.422-4.029-11.796
	c2.136-4.357,7.422-6.2,11.796-4.029c8.241,4.038,13.303,9.093,15.473,15.464c3.238,9.472-1.343,18.797-3.806,23.808
	C332.727,272.765,329.592,274.573,326.338,274.573z"/>
<path style="fill:#B9644B;" d="M230.675,456.889c0.303-3.197-1.071-6.353-3.715-8.176c-17.952-12.376-34.346-36.468-16.375-73.09
	c15.644-31.877,29.901-40.268,44.675-70.374c14.774-30.106,4.08-39.414,19.723-71.291c3.026-6.166,14.976-18.426,18.544-22.725
	c4.703-5.666-0.432-13.78-7.518-11.78c-13.03,3.68-25.854,13.292-35.486,32.918c-15.643,31.877-13.553,48.282-28.328,78.389
	c-14.774,30.106-29.032,38.497-44.675,70.374c-20.858,42.503,4.575,68.153,25.008,78.169c5.148,2.523,11.283,4.627,17.905,5.729
	C225.51,465.877,230.19,462.01,230.675,456.889L230.675,456.889z"/>
<g>
</g>
<g>
</g>
<g>
</g>
<g>
</g>
<g>
</g>
<g>
</g>
<g>
</g>
<g>
</g>
<g>
</g>
<g>
</g>
<g>
</g>
<g>
</g>
<g>
</g>
<g>
</g>
<g>
</g>
</svg>
