<svg height="512" viewBox="0 0 512 512" width="512" xmlns="http://www.w3.org/2000/svg"><g id="_FLAT" data-name="/ FLAT"><path d="m237.31274 371.96924-13.31274-19.96924h-64l-13.31274 19.96924a15.99949 15.99949 0 0 0 -2.68726 8.87524v59.15552h96v-59.15552a15.99949 15.99949 0 0 0 -2.68726-8.87524z" fill="#ffd168"/><path d="m349.31274 355.96924-13.31274-19.96924h-48l-13.31274 19.96924a15.99949 15.99949 0 0 0 -2.68726 8.87524v75.15552h80v-75.15552a15.99949 15.99949 0 0 0 -2.68726-8.87524z" fill="#ffd168"/><path d="m472 440h-96l8-16v-112l-8-16h96l-8 16v112z" fill="#ffd168"/><path d="m421.55176 144h-331.10352a16.00009 16.00009 0 0 0 -15.83935 18.2627l3.93628 27.553a16.00019 16.00019 0 0 0 11.32446 13.08716l126.13037 37.09714 12.35327 37.05957a16 16 0 0 0 15.17896 10.94043h24.93554a16 16 0 0 0 15.179-10.94043l12.35323-37.05957 126.13037-37.09717a16.00019 16.00019 0 0 0 11.32446-13.08716l3.93628-27.553a16.00009 16.00009 0 0 0 -15.83935-18.26267z" fill="#0cbf6a"/><rect fill="#f7a46b" height="48" rx="24" width="464" x="24" y="440"/><circle cx="256" cy="464" fill="#ed8f4f" r="24"/><circle cx="48" cy="464" fill="#ed8f4f" r="24"/><circle cx="152" cy="464" fill="#ed8f4f" r="24"/><circle cx="464" cy="464" fill="#ed8f4f" r="24"/><circle cx="360" cy="464" fill="#ed8f4f" r="24"/><path d="m64 248h32v41.57781a47.63324 47.63324 0 0 0 8 26.42219 47.63324 47.63324 0 0 1 8 26.42218v97.57782h-64v-97.57781a47.63324 47.63324 0 0 1 8-26.42219 47.63324 47.63324 0 0 0 8-26.42218z" fill="#ffd168"/><g fill="#e5b13b"><path d="m216 320h-48a16.00008 16.00008 0 0 0 -16 16v16h80v-16a16.00008 16.00008 0 0 0 -16-16z"/><path d="m304 312h16v24h-16z"/><path d="m408 344h32v16h-32z"/><path d="m296 376h32v16h-32z"/><path d="m176 384h32v16h-32z"/><path d="m72 344h16v32h-16z"/></g><path d="m357.08836 144h-45.08836a16 16 0 0 1 -16-16v-45.08836a50.91164 50.91164 0 0 1 50.91164-50.91164h.00007a50.91163 50.91163 0 0 1 36 14.91167l10.17666 10.17666a50.91163 50.91163 0 0 1 14.91167 36v.00007a50.91164 50.91164 0 0 1 -50.91168 50.9116z" fill="#ed8f4f"/><path d="m379.029 36h33.941v16h-33.941z" fill="#05a056" transform="matrix(.707 -.707 .707 .707 84.884 292.915)"/><path d="m320 72h16v16h-16z" fill="#d17537"/><path d="m352 104h16v16h-16z" fill="#d17537"/><path d="m320 104h16v16h-16z" fill="#d17537"/><path d="m196 44c.55664.55664 1.0874 1.12915 1.604 1.70984l24.05323-24.0531-11.31446-11.31348-25.71045 25.71045a39.5177 39.5177 0 0 1 11.36768 7.94629z" fill="#0cbf6a"/><path d="m196 44a39.59793 39.59793 0 0 0 -56 0 68.28421 68.28421 0 0 0 -20 48.28422v3.71578l-4 4a28.28425 28.28425 0 0 0 0 40 28.28425 28.28425 0 0 0 40 0l40-40a39.59793 39.59793 0 0 0 0-56z" fill="#ffd168"/><path d="m268.11772 28.11772-96 96h.00005a67.88218 67.88218 0 0 0 95.9999 0l.0001-.0001a67.88218 67.88218 0 0 0 0-95.9999z" fill="#e2803d"/><path d="m277.65479 189.6593 8.00244-8.00256-11.31446-11.31348-8.00195 8.00208a23.84967 23.84967 0 0 0 -2.34082-.96912v-9.37622h-16v9.37622a23.84967 23.84967 0 0 0 -2.34082.96912l-8.00195-8.00208-11.31446 11.31348 8.00244 8.00256a23.837 23.837 0 0 0 -.969 2.3407h-9.37621v16h9.37622a23.837 23.837 0 0 0 .969 2.3407l-8.00244 8.00256 11.31446 11.31348 8.00195-8.00208a23.84967 23.84967 0 0 0 2.34081.96912v9.37622h16v-9.37622a23.84967 23.84967 0 0 0 2.34082-.96912l8.00195 8.00208 11.31446-11.31348-8.00244-8.00256a23.837 23.837 0 0 0 .969-2.3407h9.37621v-16h-9.37622a23.837 23.837 0 0 0 -.96899-2.3407zm-13.65479 10.3407a8 8 0 1 1 -8-8 8.00917 8.00917 0 0 1 8 8z" fill="#ffc542"/><path d="m203.47656 163.42285a63.62381 63.62381 0 0 0 -11.47656 36.57715 64.58514 64.58514 0 0 0 .64844 9.13379l15.83789-2.26758a48.71618 48.71618 0 0 1 -.48633-6.86621 47.69405 47.69405 0 0 1 8.59961-27.42285z" fill="#ffd168"/><path d="m308.52441 163.42383-13.123 9.15234a47.709 47.709 0 0 1 8.59859 27.42383 48.71618 48.71618 0 0 1 -.48633 6.86621l15.83789 2.26758a64.58514 64.58514 0 0 0 .64844-9.13379 63.62429 63.62429 0 0 0 -11.47559-36.57617z" fill="#ffd168"/><path d="m226.69067 69.5448-12.77734 12.7772 22.59692 59.67383a67.52965 67.52965 0 0 0 14.96582-5.65869l-18.41943-48.64146 50.36743 12.92a67.80669 67.80669 0 0 0 3.96655-15.50024z" fill="#ed8f4f"/><path d="m393.08838 57.08838-10.17676-10.17676a50.93639 50.93639 0 0 0 -5.61426-4.84656l-36.26806 14.50721 5.9414 14.85546 33.51172-13.40473-18.88281 25.1772 12.80078 9.5996 23.04468-30.72607a50.87612 50.87612 0 0 0 -4.35669-4.98535z" fill="#0cbf6a"/></g></svg>