<svg height="512" viewBox="0 0 64 64" width="512" xmlns="http://www.w3.org/2000/svg"><g id="Layer_25" data-name="Layer 25"><path d="m1.468 11.884-.936-1.768.775-.41a75.2 75.2 0 0 1 35.052-8.706 3.642 3.642 0 0 1 2.118 6.6l-2.069 1.48-4.218 2.757-1.09-1.674 4.18-2.733 2.033-1.453a1.642 1.642 0 0 0 -.954-2.977 73.187 73.187 0 0 0 -34.117 8.474z" fill="#ffc76f"/><path d="m21.295 43.519-4.449.404-1.177 1.955 2.638 2.967z" fill="#ec8329"/><g fill="#ffc76f"><path d="m21 30a1.006 1.006 0 0 1 -.769-.359l-5.008-6.011 1.537-1.281 4.641 5.57 5.435-.905.328 1.972-6 1a1.009 1.009 0 0 1 -.164.014z"/><path d="m26.051 34.043-8.293-2.073a1 1 0 0 1 -.653-.523l-3.5-7 1.79-.894 3.293 6.589 7.847 1.958z"/><path d="m25 36h-8a1 1 0 0 1 -.848-.47l-4.411-7.057 1.7-1.061 4.114 6.588h7.445z"/><path d="m17 40a1 1 0 0 1 -.8-.4l-6-8 1.6-1.2 5.652 7.536 7.093-.887.248 1.984-7.669.959a1.032 1.032 0 0 1 -.124.008z"/></g><path d="m18.97 22.82a6.6 6.6 0 0 0 7.82-.21 92.4 92.4 0 0 1 15.38-9.7l1.83-.91-9 1 6-4-4.6-.66a34.3 34.3 0 0 0 -13.81.86l-2.85.78q-.93.255-1.83.57l-3.21 9.588z" fill="#ec8329"/><path d="m36.4 9.34a34.3 34.3 0 0 0 -13.81.86l-2.85.78c-.468.128-1.5.524-2.242.8l-2.8 8.357 4.272 2.683a6.6 6.6 0 0 0 7.82-.21 92.4 92.4 0 0 1 15.38-9.7l1.83-.91-9 1 4.766-3.177z" fill="#f79b31"/><path d="m23.974 39.949-.4-.8a5.421 5.421 0 0 1 -.574-2.432 5.432 5.432 0 0 1 2.174-4.347l1.826-1.37v5.734z" fill="#95afd1"/><path d="m37.8 29.4a14.769 14.769 0 0 1 6.2-7.4l-1.25 5" fill="#95afd1"/><path d="m47.83 40.11a14.765 14.765 0 0 0 7.17-6.11l-4.85 1.212" fill="#95afd1"/><path d="m38.771 51.908a17.106 17.106 0 0 0 8.914-3.656l.315-.252h-5.429" fill="#95afd1"/><path d="m22 57-7 3a39.894 39.894 0 0 1 22.088-30.255l13.912-6.745-.2-.41a7.531 7.531 0 0 1 -.8-3.368 7.529 7.529 0 0 1 .386-2.381l.614-1.841 4 8 7 1a10.242 10.242 0 0 1 -7.243 3h-.757l-5.576 11.9a40.792 40.792 0 0 1 -31.424 23.1z" fill="#a5badb"/><path d="m55 23-2.4-4.8-.214.641a7.534 7.534 0 0 0 .414 5.749l.2.41-13.912 6.745a39.883 39.883 0 0 0 -21.5 27.147l4.412-1.892-5 5a40.792 40.792 0 0 0 31.424-23.1l5.576-11.9h.757a10.242 10.242 0 0 0 7.243-3z" fill="#c1cfe8"/><path d="m22 54a2 2 0 1 1 2-2 2 2 0 0 1 -2 2z" fill="#95afd1"/><path d="m19 47-.52-.14a19.5 19.5 0 0 1 -14.48-18.84 17.468 17.468 0 0 1 8.65-15.07 29.725 29.725 0 0 1 5.26-2.4l-.34 2.01a42.352 42.352 0 0 0 -.57 6.93 3.632 3.632 0 0 0 1.07 2.58 6.394 6.394 0 0 0 .9.75l-1.46.87a11.352 11.352 0 0 0 -3.46 16.24z" fill="#f79b31"/><path d="m14.05 39.93a11.344 11.344 0 0 1 3.46-16.24l1.46-.87a6.394 6.394 0 0 1 -.9-.75 3.632 3.632 0 0 1 -1.07-2.58 42.352 42.352 0 0 1 .57-6.93l.115-.677c-.691.331-1.372.682-2.035 1.067a17.468 17.468 0 0 0 -8.65 15.07 19.453 19.453 0 0 0 10.979 17.522z" fill="#fcb732"/><path d="m33 15a2 2 0 1 1 2-2 2 2 0 0 1 -2 2z" fill="#383838"/><path d="m31.962 56.847a14.576 14.576 0 0 0 -4.255-9.554l-1.414 1.414a12.59 12.59 0 0 1 3.707 8.698v.508c.663-.339 1.318-.692 1.962-1.066z" fill="#a5badb"/><path d="m15.4 25.342-7-8.902a17.513 17.513 0 0 0 -1.271 1.62l6.946 8.84a11.37 11.37 0 0 1 1.325-1.558z" fill="#f79b31"/><path d="m12 33.42a11.478 11.478 0 0 1 .086-1.328l-8.072-3.725a19.61 19.61 0 0 0 .179 2.285l7.84 3.618c-.022-.282-.033-.57-.033-.85z" fill="#f79b31"/><path d="m14.05 39.93a11.458 11.458 0 0 1 -.657-1.079l-5.493.849c.05.067.093.138.144.2a19.59 19.59 0 0 0 1.378 1.586l5.165-.795z" fill="#f79b31"/></g></svg>