<svg id="Flat" height="512" viewBox="0 0 512 512" width="512" xmlns="http://www.w3.org/2000/svg"><path d="m264 341.67v122.33a24.00619 24.00619 0 0 1 -24 24h-128a24.00619 24.00619 0 0 1 -24-24v-122.33a227.63775 227.63775 0 0 1 24-101.67 227.503 227.503 0 0 0 17.91992-49.44 227.69626 227.69626 0 0 0 6.08008-52.23v-98.33a15.99552 15.99552 0 0 1 16-16h48a15.99552 15.99552 0 0 1 16 16v98.33a227.37733 227.37733 0 0 0 24 101.67 227.50186 227.50186 0 0 1 17.91992 49.44q1.71021 7.23 2.93018 14.56a226.75443 226.75443 0 0 1 3.1499 37.67z" fill="#b61d43"/><path d="m264 341.67v98.33h-176v-98.33a226.75443 226.75443 0 0 1 3.1499-37.67h169.7002a226.75443 226.75443 0 0 1 3.1499 37.67z" fill="#eebe33"/><path d="m136 104h80v48h-80z" fill="#eebe33"/><path d="m216 40v32h-80v-32a15.99552 15.99552 0 0 1 16-16h48a15.99552 15.99552 0 0 1 16 16z" fill="#eebe33"/><path d="m136 40h56v16h-56z" fill="#e88604"/><path d="m184 333.25483v122.74517a32 32 0 0 1 -32 32h-96a32 32 0 0 1 -32-32v-122.74517a32 32 0 0 1 9.37258-22.62741l13.25484-13.25484a32 32 0 0 0 9.37258-22.62741v-10.74517h96v10.74517a32 32 0 0 0 9.37258 22.62741l13.25484 13.25484a32 32 0 0 1 9.37258 22.62741z" fill="#c4d4e0"/><rect fill="#2f4054" height="40" rx="20" width="144" x="32" y="224"/><path d="m24 336h160v112h-160z" fill="#e44b4d"/><ellipse cx="104" cy="392" fill="#eedc9a" rx="56" ry="32"/><path d="m392 40h16v24h-16z" fill="#966342"/><path d="m336 456h128v32h-128z" fill="#966342"/><g fill="#ad7d4d"><path d="m488 436a20.00682 20.00682 0 0 1 -20 20h-136a19.94215 19.94215 0 0 1 -17.5498-10.42993 19.70139 19.70139 0 0 1 -2.4502-9.57007 20.00682 20.00682 0 0 1 20-20h136a19.703 19.703 0 0 1 9.56982 2.45 19.94257 19.94257 0 0 1 10.43018 17.55z"/><path d="m480 396a20.00682 20.00682 0 0 1 -20 20h-120a19.94215 19.94215 0 0 1 -17.5498-10.42993 19.70139 19.70139 0 0 1 -2.4502-9.57007 20.00682 20.00682 0 0 1 20-20h120a19.703 19.703 0 0 1 9.56982 2.45 19.94257 19.94257 0 0 1 10.43018 17.55z"/><path d="m456 376h-112l1.6001-8 3.4199-17.09009a565.84509 565.84509 0 0 0 10.98-110.90991h80q0 27.93018 2.75 55.72 2.74512 27.765 8.23 55.18994l3.4199 17.09006z"/><path d="m456 224a15.97876 15.97876 0 0 1 -16 16h-80a15.97259 15.97259 0 0 1 -14.58008-9.41992 15.73476 15.73476 0 0 1 -1.41992-6.58008 15.97876 15.97876 0 0 1 16-16h80a15.7356 15.7356 0 0 1 6.58008 1.41992 15.97285 15.97285 0 0 1 9.41992 14.58008z"/></g><path d="m456 224a15.97876 15.97876 0 0 1 -16 16h-80a15.97259 15.97259 0 0 1 -14.58008-9.41992 15.85655 15.85655 0 0 0 6.58008 1.41992h80a15.99226 15.99226 0 0 0 14.58008-22.58008 15.97285 15.97285 0 0 1 9.41992 14.58008z" fill="#966342"/><path d="m456 168a15.97876 15.97876 0 0 1 -16 16h-80a15.97259 15.97259 0 0 1 -14.58008-9.41992 15.73476 15.73476 0 0 1 -1.41992-6.58008 15.97876 15.97876 0 0 1 16-16h80a15.7356 15.7356 0 0 1 6.58008 1.41992 15.97285 15.97285 0 0 1 9.41992 14.58008z" fill="#ad7d4d"/><path d="m360 184h80v24h-80z" fill="#966342"/><path d="m360 112h80v40h-80z" fill="#966342"/><path d="m360 120h80v16h-80z" fill="#805038"/><path d="m464 93.39014a34.62061 34.62061 0 0 1 -34.60986 34.60986h-58.78028a34.61586 34.61586 0 0 1 -15.48-65.57007 60.97278 60.97278 0 0 1 27.26028-6.42993h35.21972a60.97465 60.97465 0 0 1 27.26026 6.42993 34.646 34.646 0 0 1 19.12988 30.96021z" fill="#ad7d4d"/><circle cx="400" cy="40" fill="#ad7d4d" r="16"/><path d="m336 456h128v16h-128z" fill="#805038"/><path d="m488 436a20.00682 20.00682 0 0 1 -20 20h-136a19.94215 19.94215 0 0 1 -17.5498-10.42993 19.86145 19.86145 0 0 0 9.5498 2.42993h136a19.99591 19.99591 0 0 0 17.56982-29.55 19.94257 19.94257 0 0 1 10.43018 17.55z" fill="#966342"/><path d="m480 396a20.00682 20.00682 0 0 1 -20 20h-120a19.94215 19.94215 0 0 1 -17.5498-10.42993 19.86145 19.86145 0 0 0 9.5498 2.42993h120a19.99591 19.99591 0 0 0 17.56982-29.55 19.94257 19.94257 0 0 1 10.43018 17.55z" fill="#966342"/><path d="m456 376h-112l1.6-8h108.8z" fill="#966342"/><path d="m360 184h80v8h-80z" fill="#805038"/><path d="m464 93.39014a34.62061 34.62061 0 0 1 -34.60986 34.60986h-58.78028a34.5547 34.5547 0 0 1 -28.14013-14.47 34.43492 34.43492 0 0 0 20.14013 6.47h58.78028a34.60452 34.60452 0 0 0 29.43994-52.8c-.41992-.66992-.86035-1.32983-1.32031-1.97a34.63589 34.63589 0 0 1 14.49023 28.16014z" fill="#966342"/><path d="m456 168a15.97876 15.97876 0 0 1 -16 16h-80a15.97259 15.97259 0 0 1 -14.58008-9.41992 15.85655 15.85655 0 0 0 6.58008 1.41992h80a15.99226 15.99226 0 0 0 14.58008-22.58008 15.97285 15.97285 0 0 1 9.41992 14.58008z" fill="#966342"/><path d="m208 456h128v32h-128z" fill="#379ec3"/><path d="m184 360 42.74517-42.74517a64 64 0 0 1 90.50966 0l42.74517 42.74517z" fill="#eedc9a"/><path d="m296 464h-48c-44.18278 0-88-35.81722-88-80v-24h224v24c0 44.18278-43.81722 80-88 80z" fill="#8acce7"/></svg>