<svg id="Flat" height="512" viewBox="0 0 512 512" width="512" xmlns="http://www.w3.org/2000/svg"><path d="m456 304c0 24-12.17 36.62-12.17 69.08s12.17 34.92 12.17 58.92-8 48-24 48-24-16-24-16-8 16-24 16-24-16-24-16-8 16-24 16a14.611 14.611 0 0 1 -3.78-.48c-13.48-3.47-20.22-25.49-20.22-47.52 0-24 12.17-26.46 12.17-58.92s-12.17-45.08-12.17-69.08v-112c0-17.34 7.39-31.3 17.24-47.96 3.78-6.39 7.92-13.19 12.15-20.72 15.24-27.16 26.61-67.32 26.61-67.32v-16h32v16s11.37 40.16 26.61 67.32 29.39 44.68 29.39 68.68z" fill="#f8bc1e"/><path d="m360 24h48v32h-48z" fill="#f79726"/><path d="m337.93 337.67c-3.14 10.44-6.1 20.3-6.1 35.41 0 14.37 2.61 20.87 5.63 28.4 3.06 7.66 6.54 16.34 6.54 30.52 0 19.81-4.31 36.25-11.78 47.52-13.48-3.47-20.22-25.49-20.22-47.52 0-24 12.17-26.46 12.17-58.92s-12.17-45.08-12.17-69.08v-112c0-17.34 7.39-31.3 17.24-47.96 8.47 15.11 14.76 29.72 14.76 47.96v112c0 13.45-3.09 23.73-6.07 33.67z" fill="#f5a922"/><path d="m312 192h144v112h-144z" fill="#f79726"/><circle cx="384" cy="248" fill="#e3e4e2" r="24"/><path d="m312 192h32v112h-32z" fill="#e8732d"/><path d="m56 304c0 24 12.17 36.62 12.17 69.08s-12.17 34.92-12.17 58.92 8 48 24 48 24-16 24-16 8 16 24 16 24-16 24-16 8 16 24 16a14.611 14.611 0 0 0 3.78-.48c13.48-3.47 20.22-25.49 20.22-47.52 0-24-12.17-26.46-12.17-58.92s12.17-45.08 12.17-69.08v-112c0-17.34-7.39-31.3-17.24-47.96-3.78-6.39-7.92-13.19-12.15-20.72-15.24-27.16-26.61-67.32-26.61-67.32v-16h-32v16s-11.37 40.16-26.61 67.32-29.39 44.68-29.39 68.68z" fill="#85bb40"/><path d="m104 24h48v32h-48z" fill="#7b9e3e" transform="matrix(-1 0 0 -1 256 80)"/><path d="m174.07 337.67c3.14 10.44 6.1 20.3 6.1 35.41 0 14.37-2.61 20.87-5.63 28.4-3.06 7.66-6.54 16.34-6.54 30.52 0 19.81 4.31 36.25 11.78 47.52 13.48-3.47 20.22-25.49 20.22-47.52 0-24-12.17-26.46-12.17-58.92s12.17-45.08 12.17-69.08v-112c0-17.34-7.39-31.3-17.24-47.96-8.47 15.11-14.76 29.72-14.76 47.96v112c0 13.45 3.09 23.73 6.07 33.67z" fill="#85b140"/><path d="m56 192h144v112h-144z" fill="#7b9e3e"/><circle cx="128" cy="248" fill="#e3e4e2" r="24"/><path d="m168 192h32v112h-32z" fill="#6f8f3c" transform="matrix(-1 0 0 -1 368 496)"/><path d="m272 56s11.371 40.157 26.609 67.319 29.391 44.681 29.391 68.681v112c0 24-12.166 36.617-12.166 69.079s12.166 34.921 12.166 58.921-8 48-24 48-24-16-24-16-8 16-24 16-24-16-24-16-8 16-24 16-24-24-24-48 12.166-26.459 12.166-58.921-12.166-45.079-12.166-69.079v-112c0-24 14.154-41.518 29.391-68.681s26.609-67.319 26.609-67.319v-16h32z" fill="#724e26"/><path d="m232 24h48v32h-48z" fill="#eb5849"/><path d="m184 192h144v112h-144z" fill="#eb5849"/><circle cx="256" cy="248" fill="#e3e4e2" r="24"/></svg>