<svg id="Layer_3" height="512" viewBox="0 0 64 64" width="512" xmlns="http://www.w3.org/2000/svg" data-name="Layer 3"><path d="m37.992 31.907a31.857 31.857 0 0 0 -3.365 3.217l-5.073 3.163-7.094-2.041 2.118-5.246a36.141 36.141 0 0 0 2.16-8.657l12.098-2.343z" fill="#8dbf00"/><path d="m38.808 20.393-10.07 1.95a36.141 36.141 0 0 1 -2.16 8.657l-2.118 5.246 5.726 1.647 4.441-2.769a31.857 31.857 0 0 1 3.365-3.217z" fill="#a6d10b"/><path d="m33.854 29.073-3.854 1.927.675-4.727.61-3.009 4.715 2.187z" fill="#fff"/><path d="m16.65 16.005-1.903-.613-1.867 5.79-1.247-2.91-1.838.789 2.103 4.907 1.273-.545.985.317z" fill="#719301"/><path d="m13.6 17.748a4 4 0 0 0 5.309-2.9 2.983 2.983 0 0 0 .691-5.378 2.907 2.907 0 0 0 -.016-2.97 2.968 2.968 0 0 0 .416-1.5 2.989 2.989 0 0 0 -5.242-1.976 2.993 2.993 0 0 0 -2.6 2.07 4.01 4.01 0 0 0 -2.358 1.506l.2 6.4z" fill="#719301"/><path d="m9.9 44.158-.5-1.626a60.441 60.441 0 0 1 -2.066-9.226 32.828 32.828 0 0 1 -.334-4.635 6.671 6.671 0 0 1 6.671-6.671 6.671 6.671 0 0 1 6.662 6.32l.267 5.08.4 10.6z" fill="#f79b31"/><path d="m34.469 57.735a8.13 8.13 0 0 0 4.283 2.952 8.125 8.125 0 0 0 2.236.313 19.86 19.86 0 0 0 19.86-19.86v-7.871l-3.848-8.269-6.6 6.979-.416 1.143a9.769 9.769 0 0 1 -8.37 6.4 9.773 9.773 0 0 0 -6.4 3.144z" fill="#662d91"/><path d="m58 31.269-2.285-4.91-5.315 5.62-.416 1.143a9.769 9.769 0 0 1 -8.37 6.4 9.765 9.765 0 0 0 -5.867 2.613l.178.2a11.377 11.377 0 0 1 3.075 7.665 11.663 11.663 0 0 1 -3.813 8.416 6.489 6.489 0 0 0 .717.271 8.13 8.13 0 0 0 2.236.313 19.86 19.86 0 0 0 19.86-19.86z" fill="#733aa5"/><path d="m35.185 43a10.427 10.427 0 0 1 2.815 7c0 6.627-6.716 12-15 12s-15-5.373-15-12a10.426 10.426 0 0 1 2.816-7l12.184-4z" fill="#e73844"/><path d="m35.185 43-12.185-4-9.2 3.02a10.422 10.422 0 0 0 -2.8 6.98c0 6.627 6.716 12 15 12a18.486 18.486 0 0 0 4.247-.5c4.621-2.04 7.753-5.976 7.753-10.5a10.431 10.431 0 0 0 -2.815-7z" fill="#ff4d55"/><g fill="#719301"><path d="m25 31 .586 3.517a2.972 2.972 0 0 0 2.932 2.483 2.976 2.976 0 0 0 .94-.153l5.542-1.847a6.516 6.516 0 0 1 -5.043 4.809l-.957.191 7 3h-1.877a33.5 33.5 0 0 1 -8.123-1 9 9 0 0 1 -1.8 5.4l-1.2 1.6-1.2-1.6a9 9 0 0 1 -1.8-5.4 33.5 33.5 0 0 1 -8.123 1h-1.877l7-3-.957-.191a6.516 6.516 0 0 1 -5.043-4.809l5.542 1.847a2.976 2.976 0 0 0 .94.153 2.972 2.972 0 0 0 2.932-2.483l.586-3.517z"/><path d="m58.2 26.551a10.241 10.241 0 0 0 1.8-5.794v-.757h-4v.394a11.9 11.9 0 0 1 -1.458 5.7 6.392 6.392 0 0 0 -5 4.278l-.542 1.628h.764a9.464 9.464 0 0 0 4.236-1l2 3a6.709 6.709 0 0 0 3-3 6.709 6.709 0 0 0 3 3v-1.608a6.39 6.39 0 0 0 -3.8-5.841z"/><path d="m51 22a4.993 4.993 0 0 0 -4.127-4.912 4.937 4.937 0 0 0 .127-1.088 5 5 0 0 0 -5-5c-.137 0-.266.03-.4.04a4.97 4.97 0 0 0 -7.6-2.017 4.973 4.973 0 0 0 -7.9 2.987c-.034 0-.066-.01-.1-.01a5 5 0 1 0 .566 9.943 8 8 0 0 0 6.515 5 6 6 0 0 0 5.919 5.057h.022a4.977 4.977 0 0 0 8.426-5.237 4.984 4.984 0 0 0 3.552-4.763z"/></g><path d="m51 22a4.993 4.993 0 0 0 -4.127-4.912 4.937 4.937 0 0 0 .127-1.088 5 5 0 0 0 -5-5c-.137 0-.266.03-.4.04a4.97 4.97 0 0 0 -7.6-2.017 5.014 5.014 0 0 0 -2.1-.934 4.994 4.994 0 0 0 -1.8 2.921c-.034 0-.066-.01-.1-.01a5 5 0 1 0 .566 9.943 8 8 0 0 0 6.515 5 6 6 0 0 0 5.919 5.057h.022a5 5 0 0 0 3.064 1.907 4.9 4.9 0 0 0 1.362-6.144 4.984 4.984 0 0 0 3.552-4.763z" fill="#82ab00"/><path d="m14 16a4 4 0 0 1 -4 4 4.285 4.285 0 0 1 -.72-.07 2.981 2.981 0 0 1 -5.26-1.69 2.961 2.961 0 0 1 -.22-4.26 2 2 0 0 1 -1.8-1.98 1.972 1.972 0 0 1 1.04-1.74 2.992 2.992 0 1 1 4.26-4.17 3.193 3.193 0 0 1 .7-.09 2.994 2.994 0 0 1 2.78 4.12 2.974 2.974 0 0 1 2.22 2.88c0 .12-.02.23-.03.34a3.988 3.988 0 0 1 1.03 2.66z" fill="#8dbf00"/><path d="m29.957 39.809a6.516 6.516 0 0 0 5.043-4.809l-5.542 1.847a2.971 2.971 0 0 1 -3.872-2.33l-.586-3.517h-4l-.586 3.517a2.966 2.966 0 0 1 -3.846 2.337 6.5 6.5 0 0 0 3.475 1.955l.957.191-7 3h1.877a33.5 33.5 0 0 0 8.123-1 9 9 0 0 0 1.257 4.575 9 9 0 0 0 .743-3.575 33.5 33.5 0 0 0 8.123 1h1.877l-7-3z" fill="#82ab00"/><path d="m54.542 26.092a6.392 6.392 0 0 0 -5 4.278l-.542 1.63h.764a9.464 9.464 0 0 0 4.236-1l2 3a6.709 6.709 0 0 0 3-3 6.691 6.691 0 0 0 1 1.442v-.05a6.39 6.39 0 0 0 -3.8-5.841 10.241 10.241 0 0 0 1.8-5.794v-.757h-2v.394a11.9 11.9 0 0 1 -1.458 5.698z" fill="#82ab00"/><path d="m10.03 35.243-.442-1.768 7.271 2.425a1.984 1.984 0 0 0 1.337-.031 2.072 2.072 0 0 0 1.25-1.623l.707-4.246h.268l-.088-1.68a6.667 6.667 0 0 0 -5.661-6.237 6.666 6.666 0 0 0 -5.672 6.588 32.828 32.828 0 0 0 .329 4.635q.343 2.4.885 4.765a2.939 2.939 0 0 0 3.828 2.109 7.557 7.557 0 0 1 -4.012-4.937z" fill="#fcb732"/><path d="m14 16a3.988 3.988 0 0 0 -1.03-2.66c.01-.11.03-.22.03-.34a2.974 2.974 0 0 0 -2.22-2.88 2.994 2.994 0 0 0 -2.78-4.12 3.193 3.193 0 0 0 -.7.09 3.027 3.027 0 0 0 -1.316-.9 2.981 2.981 0 0 0 -.944 5.07 1.972 1.972 0 0 0 -1.04 1.74 2 2 0 0 0 1.8 1.98 2.961 2.961 0 0 0 .22 4.26 3.015 3.015 0 0 0 1.963 2.573 3.021 3.021 0 0 0 1.3-.883 4.285 4.285 0 0 0 .717.07 4 4 0 0 0 4-4z" fill="#a6d10b"/><path d="m19.6 9.47a2.907 2.907 0 0 0 -.016-2.97 2.968 2.968 0 0 0 .416-1.5 2.989 2.989 0 0 0 -5.242-1.976 2.993 2.993 0 0 0 -2.6 2.07 3.976 3.976 0 0 0 -1.658.806 3.975 3.975 0 0 1 1.5 3.1 3.9 3.9 0 0 1 -.036.529 3.987 3.987 0 0 1 2.036 3.471v.023a4.948 4.948 0 0 1 .6 4.941c.134.013.266.036.4.036a4 4 0 0 0 3.907-3.155 2.983 2.983 0 0 0 .693-5.375z" fill="#82ab00"/></svg>